<?xml version="1.0" encoding="utf-8" standalone="no"?>
<!DOCTYPE svg PUBLIC "-//W3C//DTD SVG 1.1//EN"
  "http://www.w3.org/Graphics/SVG/1.1/DTD/svg11.dtd">
<svg xmlns:xlink="http://www.w3.org/1999/xlink" width="510.690809pt" height="337.227316pt" viewBox="0 0 510.690809 337.227316" xmlns="http://www.w3.org/2000/svg" version="1.1">
 <metadata>
  <rdf:RDF xmlns:dc="http://purl.org/dc/elements/1.1/" xmlns:cc="http://creativecommons.org/ns#" xmlns:rdf="http://www.w3.org/1999/02/22-rdf-syntax-ns#">
   <cc:Work>
    <dc:type rdf:resource="http://purl.org/dc/dcmitype/StillImage"/>
    <dc:date>2026-03-15T11:51:01.888805</dc:date>
    <dc:format>image/svg+xml</dc:format>
    <dc:creator>
     <cc:Agent>
      <dc:title>Matplotlib v3.10.8, https://matplotlib.org/</dc:title>
     </cc:Agent>
    </dc:creator>
   </cc:Work>
  </rdf:RDF>
 </metadata>
 <defs>
  <style type="text/css">*{stroke-linejoin: round; stroke-linecap: butt}</style>
 </defs>
 <g id="figure_1">
  <g id="patch_1">
   <path d="M 0 337.227316 
L 510.690809 337.227316 
L 510.690809 0 
L 0 0 
z
" style="fill: #ffffff"/>
  </g>
  <g id="axes_1">
   <g id="patch_2">
    <path d="M 50.14375 299.671066 
L 503.490809 299.671066 
L 503.490809 22.318125 
L 50.14375 22.318125 
z
" style="fill: #ffffff"/>
   </g>
   <g id="matplotlib.axis_1">
    <g id="xtick_1">
     <g id="line2d_1">
      <path d="M 50.14375 299.671066 
L 50.14375 22.318125 
" clip-path="url(#pf4176a69b5)" style="fill: none; stroke: #b0b0b0; stroke-opacity: 0.25; stroke-width: 0.6; stroke-linecap: square"/>
     </g>
     <g id="line2d_2">
      <defs>
       <path id="m30c6d28dd6" d="M 0 0 
L 0 3.5 
" style="stroke: #000000; stroke-width: 0.8"/>
      </defs>
      <g>
       <use xlink:href="#m30c6d28dd6" x="50.14375" y="299.671066" style="stroke: #000000; stroke-width: 0.8"/>
      </g>
     </g>
     <g id="text_1">
      <!-- 0 -->
      <g transform="translate(46.9625 314.269504) scale(0.1 -0.1)">
       <defs>
        <path id="DejaVuSans-30" d="M 2034 4250 
Q 1547 4250 1301 3770 
Q 1056 3291 1056 2328 
Q 1056 1369 1301 889 
Q 1547 409 2034 409 
Q 2525 409 2770 889 
Q 3016 1369 3016 2328 
Q 3016 3291 2770 3770 
Q 2525 4250 2034 4250 
z
M 2034 4750 
Q 2819 4750 3233 4129 
Q 3647 3509 3647 2328 
Q 3647 1150 3233 529 
Q 2819 -91 2034 -91 
Q 1250 -91 836 529 
Q 422 1150 422 2328 
Q 422 3509 836 4129 
Q 1250 4750 2034 4750 
z
" transform="scale(0.015625)"/>
       </defs>
       <use xlink:href="#DejaVuSans-30"/>
      </g>
     </g>
    </g>
    <g id="xtick_2">
     <g id="line2d_3">
      <path d="M 132.570488 299.671066 
L 132.570488 22.318125 
" clip-path="url(#pf4176a69b5)" style="fill: none; stroke: #b0b0b0; stroke-opacity: 0.25; stroke-width: 0.6; stroke-linecap: square"/>
     </g>
     <g id="line2d_4">
      <g>
       <use xlink:href="#m30c6d28dd6" x="132.570488" y="299.671066" style="stroke: #000000; stroke-width: 0.8"/>
      </g>
     </g>
     <g id="text_2">
      <!-- 100 -->
      <g transform="translate(123.026738 314.269504) scale(0.1 -0.1)">
       <defs>
        <path id="DejaVuSans-31" d="M 794 531 
L 1825 531 
L 1825 4091 
L 703 3866 
L 703 4441 
L 1819 4666 
L 2450 4666 
L 2450 531 
L 3481 531 
L 3481 0 
L 794 0 
L 794 531 
z
" transform="scale(0.015625)"/>
       </defs>
       <use xlink:href="#DejaVuSans-31"/>
       <use xlink:href="#DejaVuSans-30" transform="translate(63.623047 0)"/>
       <use xlink:href="#DejaVuSans-30" transform="translate(127.246094 0)"/>
      </g>
     </g>
    </g>
    <g id="xtick_3">
     <g id="line2d_5">
      <path d="M 214.997226 299.671066 
L 214.997226 22.318125 
" clip-path="url(#pf4176a69b5)" style="fill: none; stroke: #b0b0b0; stroke-opacity: 0.25; stroke-width: 0.6; stroke-linecap: square"/>
     </g>
     <g id="line2d_6">
      <g>
       <use xlink:href="#m30c6d28dd6" x="214.997226" y="299.671066" style="stroke: #000000; stroke-width: 0.8"/>
      </g>
     </g>
     <g id="text_3">
      <!-- 200 -->
      <g transform="translate(205.453476 314.269504) scale(0.1 -0.1)">
       <defs>
        <path id="DejaVuSans-32" d="M 1228 531 
L 3431 531 
L 3431 0 
L 469 0 
L 469 531 
Q 828 903 1448 1529 
Q 2069 2156 2228 2338 
Q 2531 2678 2651 2914 
Q 2772 3150 2772 3378 
Q 2772 3750 2511 3984 
Q 2250 4219 1831 4219 
Q 1534 4219 1204 4116 
Q 875 4013 500 3803 
L 500 4441 
Q 881 4594 1212 4672 
Q 1544 4750 1819 4750 
Q 2544 4750 2975 4387 
Q 3406 4025 3406 3419 
Q 3406 3131 3298 2873 
Q 3191 2616 2906 2266 
Q 2828 2175 2409 1742 
Q 1991 1309 1228 531 
z
" transform="scale(0.015625)"/>
       </defs>
       <use xlink:href="#DejaVuSans-32"/>
       <use xlink:href="#DejaVuSans-30" transform="translate(63.623047 0)"/>
       <use xlink:href="#DejaVuSans-30" transform="translate(127.246094 0)"/>
      </g>
     </g>
    </g>
    <g id="xtick_4">
     <g id="line2d_7">
      <path d="M 297.423964 299.671066 
L 297.423964 22.318125 
" clip-path="url(#pf4176a69b5)" style="fill: none; stroke: #b0b0b0; stroke-opacity: 0.25; stroke-width: 0.6; stroke-linecap: square"/>
     </g>
     <g id="line2d_8">
      <g>
       <use xlink:href="#m30c6d28dd6" x="297.423964" y="299.671066" style="stroke: #000000; stroke-width: 0.8"/>
      </g>
     </g>
     <g id="text_4">
      <!-- 300 -->
      <g transform="translate(287.880214 314.269504) scale(0.1 -0.1)">
       <defs>
        <path id="DejaVuSans-33" d="M 2597 2516 
Q 3050 2419 3304 2112 
Q 3559 1806 3559 1356 
Q 3559 666 3084 287 
Q 2609 -91 1734 -91 
Q 1441 -91 1130 -33 
Q 819 25 488 141 
L 488 750 
Q 750 597 1062 519 
Q 1375 441 1716 441 
Q 2309 441 2620 675 
Q 2931 909 2931 1356 
Q 2931 1769 2642 2001 
Q 2353 2234 1838 2234 
L 1294 2234 
L 1294 2753 
L 1863 2753 
Q 2328 2753 2575 2939 
Q 2822 3125 2822 3475 
Q 2822 3834 2567 4026 
Q 2313 4219 1838 4219 
Q 1578 4219 1281 4162 
Q 984 4106 628 3988 
L 628 4550 
Q 988 4650 1302 4700 
Q 1616 4750 1894 4750 
Q 2613 4750 3031 4423 
Q 3450 4097 3450 3541 
Q 3450 3153 3228 2886 
Q 3006 2619 2597 2516 
z
" transform="scale(0.015625)"/>
       </defs>
       <use xlink:href="#DejaVuSans-33"/>
       <use xlink:href="#DejaVuSans-30" transform="translate(63.623047 0)"/>
       <use xlink:href="#DejaVuSans-30" transform="translate(127.246094 0)"/>
      </g>
     </g>
    </g>
    <g id="xtick_5">
     <g id="line2d_9">
      <path d="M 379.850702 299.671066 
L 379.850702 22.318125 
" clip-path="url(#pf4176a69b5)" style="fill: none; stroke: #b0b0b0; stroke-opacity: 0.25; stroke-width: 0.6; stroke-linecap: square"/>
     </g>
     <g id="line2d_10">
      <g>
       <use xlink:href="#m30c6d28dd6" x="379.850702" y="299.671066" style="stroke: #000000; stroke-width: 0.8"/>
      </g>
     </g>
     <g id="text_5">
      <!-- 400 -->
      <g transform="translate(370.306952 314.269504) scale(0.1 -0.1)">
       <defs>
        <path id="DejaVuSans-34" d="M 2419 4116 
L 825 1625 
L 2419 1625 
L 2419 4116 
z
M 2253 4666 
L 3047 4666 
L 3047 1625 
L 3713 1625 
L 3713 1100 
L 3047 1100 
L 3047 0 
L 2419 0 
L 2419 1100 
L 313 1100 
L 313 1709 
L 2253 4666 
z
" transform="scale(0.015625)"/>
       </defs>
       <use xlink:href="#DejaVuSans-34"/>
       <use xlink:href="#DejaVuSans-30" transform="translate(63.623047 0)"/>
       <use xlink:href="#DejaVuSans-30" transform="translate(127.246094 0)"/>
      </g>
     </g>
    </g>
    <g id="xtick_6">
     <g id="line2d_11">
      <path d="M 462.27744 299.671066 
L 462.27744 22.318125 
" clip-path="url(#pf4176a69b5)" style="fill: none; stroke: #b0b0b0; stroke-opacity: 0.25; stroke-width: 0.6; stroke-linecap: square"/>
     </g>
     <g id="line2d_12">
      <g>
       <use xlink:href="#m30c6d28dd6" x="462.27744" y="299.671066" style="stroke: #000000; stroke-width: 0.8"/>
      </g>
     </g>
     <g id="text_6">
      <!-- 500 -->
      <g transform="translate(452.73369 314.269504) scale(0.1 -0.1)">
       <defs>
        <path id="DejaVuSans-35" d="M 691 4666 
L 3169 4666 
L 3169 4134 
L 1269 4134 
L 1269 2991 
Q 1406 3038 1543 3061 
Q 1681 3084 1819 3084 
Q 2600 3084 3056 2656 
Q 3513 2228 3513 1497 
Q 3513 744 3044 326 
Q 2575 -91 1722 -91 
Q 1428 -91 1123 -41 
Q 819 9 494 109 
L 494 744 
Q 775 591 1075 516 
Q 1375 441 1709 441 
Q 2250 441 2565 725 
Q 2881 1009 2881 1497 
Q 2881 1984 2565 2268 
Q 2250 2553 1709 2553 
Q 1456 2553 1204 2497 
Q 953 2441 691 2322 
L 691 4666 
z
" transform="scale(0.015625)"/>
       </defs>
       <use xlink:href="#DejaVuSans-35"/>
       <use xlink:href="#DejaVuSans-30" transform="translate(63.623047 0)"/>
       <use xlink:href="#DejaVuSans-30" transform="translate(127.246094 0)"/>
      </g>
     </g>
    </g>
    <g id="text_7">
     <!-- Distance from cut site (bp) -->
     <g transform="translate(209.807123 327.947629) scale(0.1 -0.1)">
      <defs>
       <path id="DejaVuSans-44" d="M 1259 4147 
L 1259 519 
L 2022 519 
Q 2988 519 3436 956 
Q 3884 1394 3884 2338 
Q 3884 3275 3436 3711 
Q 2988 4147 2022 4147 
L 1259 4147 
z
M 628 4666 
L 1925 4666 
Q 3281 4666 3915 4102 
Q 4550 3538 4550 2338 
Q 4550 1131 3912 565 
Q 3275 0 1925 0 
L 628 0 
L 628 4666 
z
" transform="scale(0.015625)"/>
       <path id="DejaVuSans-69" d="M 603 3500 
L 1178 3500 
L 1178 0 
L 603 0 
L 603 3500 
z
M 603 4863 
L 1178 4863 
L 1178 4134 
L 603 4134 
L 603 4863 
z
" transform="scale(0.015625)"/>
       <path id="DejaVuSans-73" d="M 2834 3397 
L 2834 2853 
Q 2591 2978 2328 3040 
Q 2066 3103 1784 3103 
Q 1356 3103 1142 2972 
Q 928 2841 928 2578 
Q 928 2378 1081 2264 
Q 1234 2150 1697 2047 
L 1894 2003 
Q 2506 1872 2764 1633 
Q 3022 1394 3022 966 
Q 3022 478 2636 193 
Q 2250 -91 1575 -91 
Q 1294 -91 989 -36 
Q 684 19 347 128 
L 347 722 
Q 666 556 975 473 
Q 1284 391 1588 391 
Q 1994 391 2212 530 
Q 2431 669 2431 922 
Q 2431 1156 2273 1281 
Q 2116 1406 1581 1522 
L 1381 1569 
Q 847 1681 609 1914 
Q 372 2147 372 2553 
Q 372 3047 722 3315 
Q 1072 3584 1716 3584 
Q 2034 3584 2315 3537 
Q 2597 3491 2834 3397 
z
" transform="scale(0.015625)"/>
       <path id="DejaVuSans-74" d="M 1172 4494 
L 1172 3500 
L 2356 3500 
L 2356 3053 
L 1172 3053 
L 1172 1153 
Q 1172 725 1289 603 
Q 1406 481 1766 481 
L 2356 481 
L 2356 0 
L 1766 0 
Q 1100 0 847 248 
Q 594 497 594 1153 
L 594 3053 
L 172 3053 
L 172 3500 
L 594 3500 
L 594 4494 
L 1172 4494 
z
" transform="scale(0.015625)"/>
       <path id="DejaVuSans-61" d="M 2194 1759 
Q 1497 1759 1228 1600 
Q 959 1441 959 1056 
Q 959 750 1161 570 
Q 1363 391 1709 391 
Q 2188 391 2477 730 
Q 2766 1069 2766 1631 
L 2766 1759 
L 2194 1759 
z
M 3341 1997 
L 3341 0 
L 2766 0 
L 2766 531 
Q 2569 213 2275 61 
Q 1981 -91 1556 -91 
Q 1019 -91 701 211 
Q 384 513 384 1019 
Q 384 1609 779 1909 
Q 1175 2209 1959 2209 
L 2766 2209 
L 2766 2266 
Q 2766 2663 2505 2880 
Q 2244 3097 1772 3097 
Q 1472 3097 1187 3025 
Q 903 2953 641 2809 
L 641 3341 
Q 956 3463 1253 3523 
Q 1550 3584 1831 3584 
Q 2591 3584 2966 3190 
Q 3341 2797 3341 1997 
z
" transform="scale(0.015625)"/>
       <path id="DejaVuSans-6e" d="M 3513 2113 
L 3513 0 
L 2938 0 
L 2938 2094 
Q 2938 2591 2744 2837 
Q 2550 3084 2163 3084 
Q 1697 3084 1428 2787 
Q 1159 2491 1159 1978 
L 1159 0 
L 581 0 
L 581 3500 
L 1159 3500 
L 1159 2956 
Q 1366 3272 1645 3428 
Q 1925 3584 2291 3584 
Q 2894 3584 3203 3211 
Q 3513 2838 3513 2113 
z
" transform="scale(0.015625)"/>
       <path id="DejaVuSans-63" d="M 3122 3366 
L 3122 2828 
Q 2878 2963 2633 3030 
Q 2388 3097 2138 3097 
Q 1578 3097 1268 2742 
Q 959 2388 959 1747 
Q 959 1106 1268 751 
Q 1578 397 2138 397 
Q 2388 397 2633 464 
Q 2878 531 3122 666 
L 3122 134 
Q 2881 22 2623 -34 
Q 2366 -91 2075 -91 
Q 1284 -91 818 406 
Q 353 903 353 1747 
Q 353 2603 823 3093 
Q 1294 3584 2113 3584 
Q 2378 3584 2631 3529 
Q 2884 3475 3122 3366 
z
" transform="scale(0.015625)"/>
       <path id="DejaVuSans-65" d="M 3597 1894 
L 3597 1613 
L 953 1613 
Q 991 1019 1311 708 
Q 1631 397 2203 397 
Q 2534 397 2845 478 
Q 3156 559 3463 722 
L 3463 178 
Q 3153 47 2828 -22 
Q 2503 -91 2169 -91 
Q 1331 -91 842 396 
Q 353 884 353 1716 
Q 353 2575 817 3079 
Q 1281 3584 2069 3584 
Q 2775 3584 3186 3129 
Q 3597 2675 3597 1894 
z
M 3022 2063 
Q 3016 2534 2758 2815 
Q 2500 3097 2075 3097 
Q 1594 3097 1305 2825 
Q 1016 2553 972 2059 
L 3022 2063 
z
" transform="scale(0.015625)"/>
       <path id="DejaVuSans-20" transform="scale(0.015625)"/>
       <path id="DejaVuSans-66" d="M 2375 4863 
L 2375 4384 
L 1825 4384 
Q 1516 4384 1395 4259 
Q 1275 4134 1275 3809 
L 1275 3500 
L 2222 3500 
L 2222 3053 
L 1275 3053 
L 1275 0 
L 697 0 
L 697 3053 
L 147 3053 
L 147 3500 
L 697 3500 
L 697 3744 
Q 697 4328 969 4595 
Q 1241 4863 1831 4863 
L 2375 4863 
z
" transform="scale(0.015625)"/>
       <path id="DejaVuSans-72" d="M 2631 2963 
Q 2534 3019 2420 3045 
Q 2306 3072 2169 3072 
Q 1681 3072 1420 2755 
Q 1159 2438 1159 1844 
L 1159 0 
L 581 0 
L 581 3500 
L 1159 3500 
L 1159 2956 
Q 1341 3275 1631 3429 
Q 1922 3584 2338 3584 
Q 2397 3584 2469 3576 
Q 2541 3569 2628 3553 
L 2631 2963 
z
" transform="scale(0.015625)"/>
       <path id="DejaVuSans-6f" d="M 1959 3097 
Q 1497 3097 1228 2736 
Q 959 2375 959 1747 
Q 959 1119 1226 758 
Q 1494 397 1959 397 
Q 2419 397 2687 759 
Q 2956 1122 2956 1747 
Q 2956 2369 2687 2733 
Q 2419 3097 1959 3097 
z
M 1959 3584 
Q 2709 3584 3137 3096 
Q 3566 2609 3566 1747 
Q 3566 888 3137 398 
Q 2709 -91 1959 -91 
Q 1206 -91 779 398 
Q 353 888 353 1747 
Q 353 2609 779 3096 
Q 1206 3584 1959 3584 
z
" transform="scale(0.015625)"/>
       <path id="DejaVuSans-6d" d="M 3328 2828 
Q 3544 3216 3844 3400 
Q 4144 3584 4550 3584 
Q 5097 3584 5394 3201 
Q 5691 2819 5691 2113 
L 5691 0 
L 5113 0 
L 5113 2094 
Q 5113 2597 4934 2840 
Q 4756 3084 4391 3084 
Q 3944 3084 3684 2787 
Q 3425 2491 3425 1978 
L 3425 0 
L 2847 0 
L 2847 2094 
Q 2847 2600 2669 2842 
Q 2491 3084 2119 3084 
Q 1678 3084 1418 2786 
Q 1159 2488 1159 1978 
L 1159 0 
L 581 0 
L 581 3500 
L 1159 3500 
L 1159 2956 
Q 1356 3278 1631 3431 
Q 1906 3584 2284 3584 
Q 2666 3584 2933 3390 
Q 3200 3197 3328 2828 
z
" transform="scale(0.015625)"/>
       <path id="DejaVuSans-75" d="M 544 1381 
L 544 3500 
L 1119 3500 
L 1119 1403 
Q 1119 906 1312 657 
Q 1506 409 1894 409 
Q 2359 409 2629 706 
Q 2900 1003 2900 1516 
L 2900 3500 
L 3475 3500 
L 3475 0 
L 2900 0 
L 2900 538 
Q 2691 219 2414 64 
Q 2138 -91 1772 -91 
Q 1169 -91 856 284 
Q 544 659 544 1381 
z
M 1991 3584 
L 1991 3584 
z
" transform="scale(0.015625)"/>
       <path id="DejaVuSans-28" d="M 1984 4856 
Q 1566 4138 1362 3434 
Q 1159 2731 1159 2009 
Q 1159 1288 1364 580 
Q 1569 -128 1984 -844 
L 1484 -844 
Q 1016 -109 783 600 
Q 550 1309 550 2009 
Q 550 2706 781 3412 
Q 1013 4119 1484 4856 
L 1984 4856 
z
" transform="scale(0.015625)"/>
       <path id="DejaVuSans-62" d="M 3116 1747 
Q 3116 2381 2855 2742 
Q 2594 3103 2138 3103 
Q 1681 3103 1420 2742 
Q 1159 2381 1159 1747 
Q 1159 1113 1420 752 
Q 1681 391 2138 391 
Q 2594 391 2855 752 
Q 3116 1113 3116 1747 
z
M 1159 2969 
Q 1341 3281 1617 3432 
Q 1894 3584 2278 3584 
Q 2916 3584 3314 3078 
Q 3713 2572 3713 1747 
Q 3713 922 3314 415 
Q 2916 -91 2278 -91 
Q 1894 -91 1617 61 
Q 1341 213 1159 525 
L 1159 0 
L 581 0 
L 581 4863 
L 1159 4863 
L 1159 2969 
z
" transform="scale(0.015625)"/>
       <path id="DejaVuSans-70" d="M 1159 525 
L 1159 -1331 
L 581 -1331 
L 581 3500 
L 1159 3500 
L 1159 2969 
Q 1341 3281 1617 3432 
Q 1894 3584 2278 3584 
Q 2916 3584 3314 3078 
Q 3713 2572 3713 1747 
Q 3713 922 3314 415 
Q 2916 -91 2278 -91 
Q 1894 -91 1617 61 
Q 1341 213 1159 525 
z
M 3116 1747 
Q 3116 2381 2855 2742 
Q 2594 3103 2138 3103 
Q 1681 3103 1420 2742 
Q 1159 2381 1159 1747 
Q 1159 1113 1420 752 
Q 1681 391 2138 391 
Q 2594 391 2855 752 
Q 3116 1113 3116 1747 
z
" transform="scale(0.015625)"/>
       <path id="DejaVuSans-29" d="M 513 4856 
L 1013 4856 
Q 1481 4119 1714 3412 
Q 1947 2706 1947 2009 
Q 1947 1309 1714 600 
Q 1481 -109 1013 -844 
L 513 -844 
Q 928 -128 1133 580 
Q 1338 1288 1338 2009 
Q 1338 2731 1133 3434 
Q 928 4138 513 4856 
z
" transform="scale(0.015625)"/>
      </defs>
      <use xlink:href="#DejaVuSans-44"/>
      <use xlink:href="#DejaVuSans-69" transform="translate(77.001953 0)"/>
      <use xlink:href="#DejaVuSans-73" transform="translate(104.785156 0)"/>
      <use xlink:href="#DejaVuSans-74" transform="translate(156.884766 0)"/>
      <use xlink:href="#DejaVuSans-61" transform="translate(196.09375 0)"/>
      <use xlink:href="#DejaVuSans-6e" transform="translate(257.373047 0)"/>
      <use xlink:href="#DejaVuSans-63" transform="translate(320.751953 0)"/>
      <use xlink:href="#DejaVuSans-65" transform="translate(375.732422 0)"/>
      <use xlink:href="#DejaVuSans-20" transform="translate(437.255859 0)"/>
      <use xlink:href="#DejaVuSans-66" transform="translate(469.042969 0)"/>
      <use xlink:href="#DejaVuSans-72" transform="translate(504.248047 0)"/>
      <use xlink:href="#DejaVuSans-6f" transform="translate(543.111328 0)"/>
      <use xlink:href="#DejaVuSans-6d" transform="translate(604.292969 0)"/>
      <use xlink:href="#DejaVuSans-20" transform="translate(701.705078 0)"/>
      <use xlink:href="#DejaVuSans-63" transform="translate(733.492188 0)"/>
      <use xlink:href="#DejaVuSans-75" transform="translate(788.472656 0)"/>
      <use xlink:href="#DejaVuSans-74" transform="translate(851.851562 0)"/>
      <use xlink:href="#DejaVuSans-20" transform="translate(891.060547 0)"/>
      <use xlink:href="#DejaVuSans-73" transform="translate(922.847656 0)"/>
      <use xlink:href="#DejaVuSans-69" transform="translate(974.947266 0)"/>
      <use xlink:href="#DejaVuSans-74" transform="translate(1002.730469 0)"/>
      <use xlink:href="#DejaVuSans-65" transform="translate(1041.939453 0)"/>
      <use xlink:href="#DejaVuSans-20" transform="translate(1103.462891 0)"/>
      <use xlink:href="#DejaVuSans-28" transform="translate(1135.25 0)"/>
      <use xlink:href="#DejaVuSans-62" transform="translate(1174.263672 0)"/>
      <use xlink:href="#DejaVuSans-70" transform="translate(1237.740234 0)"/>
      <use xlink:href="#DejaVuSans-29" transform="translate(1301.216797 0)"/>
     </g>
    </g>
   </g>
   <g id="matplotlib.axis_2">
    <g id="ytick_1">
     <g id="line2d_13">
      <path d="M 50.14375 272.812777 
L 503.490809 272.812777 
" clip-path="url(#pf4176a69b5)" style="fill: none; stroke: #b0b0b0; stroke-opacity: 0.25; stroke-width: 0.6; stroke-linecap: square"/>
     </g>
     <g id="line2d_14">
      <defs>
       <path id="mf5374b36c5" d="M 0 0 
L -3.5 0 
" style="stroke: #000000; stroke-width: 0.8"/>
      </defs>
      <g>
       <use xlink:href="#mf5374b36c5" x="50.14375" y="272.812777" style="stroke: #000000; stroke-width: 0.8"/>
      </g>
     </g>
     <g id="text_8">
      <!-- 0.15 -->
      <g transform="translate(20.878125 276.611996) scale(0.1 -0.1)">
       <defs>
        <path id="DejaVuSans-2e" d="M 684 794 
L 1344 794 
L 1344 0 
L 684 0 
L 684 794 
z
" transform="scale(0.015625)"/>
       </defs>
       <use xlink:href="#DejaVuSans-30"/>
       <use xlink:href="#DejaVuSans-2e" transform="translate(63.623047 0)"/>
       <use xlink:href="#DejaVuSans-31" transform="translate(95.410156 0)"/>
       <use xlink:href="#DejaVuSans-35" transform="translate(159.033203 0)"/>
      </g>
     </g>
    </g>
    <g id="ytick_2">
     <g id="line2d_15">
      <path d="M 50.14375 216.903686 
L 503.490809 216.903686 
" clip-path="url(#pf4176a69b5)" style="fill: none; stroke: #b0b0b0; stroke-opacity: 0.25; stroke-width: 0.6; stroke-linecap: square"/>
     </g>
     <g id="line2d_16">
      <g>
       <use xlink:href="#mf5374b36c5" x="50.14375" y="216.903686" style="stroke: #000000; stroke-width: 0.8"/>
      </g>
     </g>
     <g id="text_9">
      <!-- 0.20 -->
      <g transform="translate(20.878125 220.702905) scale(0.1 -0.1)">
       <use xlink:href="#DejaVuSans-30"/>
       <use xlink:href="#DejaVuSans-2e" transform="translate(63.623047 0)"/>
       <use xlink:href="#DejaVuSans-32" transform="translate(95.410156 0)"/>
       <use xlink:href="#DejaVuSans-30" transform="translate(159.033203 0)"/>
      </g>
     </g>
    </g>
    <g id="ytick_3">
     <g id="line2d_17">
      <path d="M 50.14375 160.994596 
L 503.490809 160.994596 
" clip-path="url(#pf4176a69b5)" style="fill: none; stroke: #b0b0b0; stroke-opacity: 0.25; stroke-width: 0.6; stroke-linecap: square"/>
     </g>
     <g id="line2d_18">
      <g>
       <use xlink:href="#mf5374b36c5" x="50.14375" y="160.994596" style="stroke: #000000; stroke-width: 0.8"/>
      </g>
     </g>
     <g id="text_10">
      <!-- 0.25 -->
      <g transform="translate(20.878125 164.793814) scale(0.1 -0.1)">
       <use xlink:href="#DejaVuSans-30"/>
       <use xlink:href="#DejaVuSans-2e" transform="translate(63.623047 0)"/>
       <use xlink:href="#DejaVuSans-32" transform="translate(95.410156 0)"/>
       <use xlink:href="#DejaVuSans-35" transform="translate(159.033203 0)"/>
      </g>
     </g>
    </g>
    <g id="ytick_4">
     <g id="line2d_19">
      <path d="M 50.14375 105.085505 
L 503.490809 105.085505 
" clip-path="url(#pf4176a69b5)" style="fill: none; stroke: #b0b0b0; stroke-opacity: 0.25; stroke-width: 0.6; stroke-linecap: square"/>
     </g>
     <g id="line2d_20">
      <g>
       <use xlink:href="#mf5374b36c5" x="50.14375" y="105.085505" style="stroke: #000000; stroke-width: 0.8"/>
      </g>
     </g>
     <g id="text_11">
      <!-- 0.30 -->
      <g transform="translate(20.878125 108.884723) scale(0.1 -0.1)">
       <use xlink:href="#DejaVuSans-30"/>
       <use xlink:href="#DejaVuSans-2e" transform="translate(63.623047 0)"/>
       <use xlink:href="#DejaVuSans-33" transform="translate(95.410156 0)"/>
       <use xlink:href="#DejaVuSans-30" transform="translate(159.033203 0)"/>
      </g>
     </g>
    </g>
    <g id="ytick_5">
     <g id="line2d_21">
      <path d="M 50.14375 49.176414 
L 503.490809 49.176414 
" clip-path="url(#pf4176a69b5)" style="fill: none; stroke: #b0b0b0; stroke-opacity: 0.25; stroke-width: 0.6; stroke-linecap: square"/>
     </g>
     <g id="line2d_22">
      <g>
       <use xlink:href="#mf5374b36c5" x="50.14375" y="49.176414" style="stroke: #000000; stroke-width: 0.8"/>
      </g>
     </g>
     <g id="text_12">
      <!-- 0.35 -->
      <g transform="translate(20.878125 52.975633) scale(0.1 -0.1)">
       <use xlink:href="#DejaVuSans-30"/>
       <use xlink:href="#DejaVuSans-2e" transform="translate(63.623047 0)"/>
       <use xlink:href="#DejaVuSans-33" transform="translate(95.410156 0)"/>
       <use xlink:href="#DejaVuSans-35" transform="translate(159.033203 0)"/>
      </g>
     </g>
    </g>
    <g id="text_13">
     <!-- Fraction of CpG methylation -->
     <g transform="translate(14.798438 231.146158) rotate(-90) scale(0.1 -0.1)">
      <defs>
       <path id="DejaVuSans-46" d="M 628 4666 
L 3309 4666 
L 3309 4134 
L 1259 4134 
L 1259 2759 
L 3109 2759 
L 3109 2228 
L 1259 2228 
L 1259 0 
L 628 0 
L 628 4666 
z
" transform="scale(0.015625)"/>
       <path id="DejaVuSans-43" d="M 4122 4306 
L 4122 3641 
Q 3803 3938 3442 4084 
Q 3081 4231 2675 4231 
Q 1875 4231 1450 3742 
Q 1025 3253 1025 2328 
Q 1025 1406 1450 917 
Q 1875 428 2675 428 
Q 3081 428 3442 575 
Q 3803 722 4122 1019 
L 4122 359 
Q 3791 134 3420 21 
Q 3050 -91 2638 -91 
Q 1578 -91 968 557 
Q 359 1206 359 2328 
Q 359 3453 968 4101 
Q 1578 4750 2638 4750 
Q 3056 4750 3426 4639 
Q 3797 4528 4122 4306 
z
" transform="scale(0.015625)"/>
       <path id="DejaVuSans-47" d="M 3809 666 
L 3809 1919 
L 2778 1919 
L 2778 2438 
L 4434 2438 
L 4434 434 
Q 4069 175 3628 42 
Q 3188 -91 2688 -91 
Q 1594 -91 976 548 
Q 359 1188 359 2328 
Q 359 3472 976 4111 
Q 1594 4750 2688 4750 
Q 3144 4750 3555 4637 
Q 3966 4525 4313 4306 
L 4313 3634 
Q 3963 3931 3569 4081 
Q 3175 4231 2741 4231 
Q 1884 4231 1454 3753 
Q 1025 3275 1025 2328 
Q 1025 1384 1454 906 
Q 1884 428 2741 428 
Q 3075 428 3337 486 
Q 3600 544 3809 666 
z
" transform="scale(0.015625)"/>
       <path id="DejaVuSans-68" d="M 3513 2113 
L 3513 0 
L 2938 0 
L 2938 2094 
Q 2938 2591 2744 2837 
Q 2550 3084 2163 3084 
Q 1697 3084 1428 2787 
Q 1159 2491 1159 1978 
L 1159 0 
L 581 0 
L 581 4863 
L 1159 4863 
L 1159 2956 
Q 1366 3272 1645 3428 
Q 1925 3584 2291 3584 
Q 2894 3584 3203 3211 
Q 3513 2838 3513 2113 
z
" transform="scale(0.015625)"/>
       <path id="DejaVuSans-79" d="M 2059 -325 
Q 1816 -950 1584 -1140 
Q 1353 -1331 966 -1331 
L 506 -1331 
L 506 -850 
L 844 -850 
Q 1081 -850 1212 -737 
Q 1344 -625 1503 -206 
L 1606 56 
L 191 3500 
L 800 3500 
L 1894 763 
L 2988 3500 
L 3597 3500 
L 2059 -325 
z
" transform="scale(0.015625)"/>
       <path id="DejaVuSans-6c" d="M 603 4863 
L 1178 4863 
L 1178 0 
L 603 0 
L 603 4863 
z
" transform="scale(0.015625)"/>
      </defs>
      <use xlink:href="#DejaVuSans-46"/>
      <use xlink:href="#DejaVuSans-72" transform="translate(50.269531 0)"/>
      <use xlink:href="#DejaVuSans-61" transform="translate(91.382812 0)"/>
      <use xlink:href="#DejaVuSans-63" transform="translate(152.662109 0)"/>
      <use xlink:href="#DejaVuSans-74" transform="translate(207.642578 0)"/>
      <use xlink:href="#DejaVuSans-69" transform="translate(246.851562 0)"/>
      <use xlink:href="#DejaVuSans-6f" transform="translate(274.634766 0)"/>
      <use xlink:href="#DejaVuSans-6e" transform="translate(335.816406 0)"/>
      <use xlink:href="#DejaVuSans-20" transform="translate(399.195312 0)"/>
      <use xlink:href="#DejaVuSans-6f" transform="translate(430.982422 0)"/>
      <use xlink:href="#DejaVuSans-66" transform="translate(492.164062 0)"/>
      <use xlink:href="#DejaVuSans-20" transform="translate(527.369141 0)"/>
      <use xlink:href="#DejaVuSans-43" transform="translate(559.15625 0)"/>
      <use xlink:href="#DejaVuSans-70" transform="translate(628.980469 0)"/>
      <use xlink:href="#DejaVuSans-47" transform="translate(692.457031 0)"/>
      <use xlink:href="#DejaVuSans-20" transform="translate(769.947266 0)"/>
      <use xlink:href="#DejaVuSans-6d" transform="translate(801.734375 0)"/>
      <use xlink:href="#DejaVuSans-65" transform="translate(899.146484 0)"/>
      <use xlink:href="#DejaVuSans-74" transform="translate(960.669922 0)"/>
      <use xlink:href="#DejaVuSans-68" transform="translate(999.878906 0)"/>
      <use xlink:href="#DejaVuSans-79" transform="translate(1063.257812 0)"/>
      <use xlink:href="#DejaVuSans-6c" transform="translate(1122.4375 0)"/>
      <use xlink:href="#DejaVuSans-61" transform="translate(1150.220703 0)"/>
      <use xlink:href="#DejaVuSans-74" transform="translate(1211.5 0)"/>
      <use xlink:href="#DejaVuSans-69" transform="translate(1250.708984 0)"/>
      <use xlink:href="#DejaVuSans-6f" transform="translate(1278.492188 0)"/>
      <use xlink:href="#DejaVuSans-6e" transform="translate(1339.673828 0)"/>
     </g>
    </g>
   </g>
   <g id="line2d_23">
    <path d="M 50.14375 194.273816 
L 50.968017 200.929661 
L 51.792285 176.591552 
L 52.616552 143.151269 
L 53.44082 139.086645 
L 54.265087 143.012139 
L 55.089354 128.255038 
L 55.913622 124.742303 
L 56.737889 139.007874 
L 57.562156 123.721868 
L 58.386424 117.642627 
L 59.210691 138.008099 
L 60.034959 161.736095 
L 60.859226 171.13355 
L 61.683493 176.242529 
L 62.507761 168.089658 
L 63.332028 157.419846 
L 64.156295 141.228755 
L 64.980563 151.700245 
L 65.80483 154.493539 
L 66.629098 130.259231 
L 67.453365 141.967942 
L 68.277632 124.998332 
L 69.1019 137.453926 
L 69.926167 154.356313 
L 70.750434 160.994596 
L 71.574702 163.8471 
L 72.398969 160.994596 
L 73.223237 160.994596 
L 74.047504 173.032438 
L 74.871771 167.145963 
L 75.696039 171.348131 
L 76.520306 165.045979 
L 77.344574 160.994596 
L 78.168841 150.138461 
L 78.993108 155.911951 
L 79.817376 136.654226 
L 80.641643 150.64106 
L 81.46591 150.855641 
L 82.290178 152.34886 
L 83.114445 163.207356 
L 83.938713 163.207356 
L 84.76298 168.549878 
L 85.587247 186.407819 
L 86.411515 182.948427 
L 87.235782 192.695627 
L 88.060049 191.72996 
L 88.884317 189.097049 
L 89.708584 177.959095 
L 90.532852 173.735273 
L 91.357119 173.600094 
L 92.181386 170.634094 
L 93.005654 166.758419 
L 93.829921 169.194596 
L 94.654189 179.532093 
L 95.478456 163.117726 
L 96.302723 173.896693 
L 97.126991 190.113914 
L 97.951258 194.308303 
L 98.775525 200.101991 
L 99.599793 186.788066 
L 100.42406 175.849668 
L 101.248328 178.056055 
L 102.072595 160.333732 
L 102.896862 163.096441 
L 103.72113 144.866973 
L 104.545397 131.708881 
L 105.369664 126.296916 
L 106.193932 122.54895 
L 107.842467 137.973205 
L 108.666734 140.011765 
L 109.491001 140.410488 
L 110.315269 131.807715 
L 111.139536 146.848922 
L 111.963803 142.719227 
L 112.788071 142.540495 
L 113.612338 148.477635 
L 114.436606 146.585036 
L 115.260873 133.474577 
L 116.08514 144.724754 
L 116.909408 139.143334 
L 117.733675 158.696962 
L 118.557943 153.272345 
L 119.38221 168.63245 
L 120.206477 159.483539 
L 121.030745 141.560954 
L 121.855012 137.453926 
L 122.679279 154.285505 
L 123.503547 129.601791 
L 124.327814 131.125355 
L 125.152082 133.94181 
L 125.976349 151.405965 
L 126.800616 141.184288 
L 127.624884 142.959405 
L 128.449151 154.213169 
L 129.273418 163.937179 
L 130.097686 156.461426 
L 130.921953 159.4997 
L 131.746221 172.764931 
L 132.570488 162.458184 
L 133.394755 148.321868 
L 134.219023 142.936104 
L 135.04329 144.634429 
L 135.867557 130.716373 
L 136.691825 125.962045 
L 137.516092 124.286607 
L 138.34036 112.991841 
L 139.164627 110.168149 
L 139.988894 103.356358 
L 140.813162 99.630959 
L 141.637429 83.381238 
L 143.285964 95.019148 
L 144.110231 95.455231 
L 144.934499 91.277448 
L 146.583033 120.309576 
L 147.407301 125.223376 
L 148.231568 124.591871 
L 149.055836 143.301845 
L 149.880103 133.532951 
L 150.70437 143.653066 
L 151.528638 141.426414 
L 152.352905 149.652656 
L 153.177172 159.575583 
L 154.00144 152.523521 
L 154.825707 156.162946 
L 156.474242 142.358232 
L 157.298509 149.69983 
L 158.122777 150.324922 
L 158.947044 149.988869 
L 159.771311 158.671503 
L 161.419846 138.249427 
L 162.244114 124.784044 
L 163.068381 141.390109 
L 163.892648 153.089711 
L 164.716916 162.428162 
L 165.541183 154.493539 
L 166.365451 159.546174 
L 167.189718 159.589845 
L 168.013985 162.399347 
L 168.838253 171.942851 
L 169.66252 169.730391 
L 170.486787 166.879763 
L 171.311055 172.890147 
L 172.135322 153.439313 
L 172.95959 145.34005 
L 173.783857 144.550745 
L 174.608124 124.998332 
L 175.432392 117.173957 
L 176.256659 107.464615 
L 177.080926 110.380516 
L 178.729461 79.93399 
L 179.553729 92.997053 
L 180.377996 102.975728 
L 182.026531 87.729502 
L 182.850798 106.500925 
L 183.675066 102.550584 
L 184.499333 114.856025 
L 185.3236 133.316828 
L 186.147868 144.550745 
L 186.972135 129.786433 
L 188.62067 148.008376 
L 189.444937 154.24229 
L 190.269205 144.387935 
L 191.093472 155.403686 
L 191.917739 145.119175 
L 193.566274 148.134151 
L 194.390541 171.297254 
L 195.214809 171.399513 
L 196.039076 162.371667 
L 196.863344 175.932139 
L 197.687611 173.211235 
L 199.336146 165.802503 
L 200.160413 158.253954 
L 200.98468 148.477635 
L 201.808948 145.225365 
L 202.633215 133.474577 
L 203.457483 139.92333 
L 204.28175 148.351836 
L 205.106017 143.990614 
L 205.930285 137.113828 
L 206.754552 142.747503 
L 207.57882 146.755015 
L 208.403087 149.099044 
L 209.227354 150.530327 
L 210.051622 173.018056 
L 210.875889 171.458864 
L 211.700156 179.337473 
L 212.524424 174.166894 
L 213.348691 193.66874 
L 214.172959 184.955635 
L 214.997226 190.764371 
L 215.821493 181.378118 
L 216.645761 166.585505 
L 217.470028 135.329132 
L 218.294295 147.198846 
L 219.118563 131.195334 
L 219.94283 130.753531 
L 220.767098 124.467323 
L 221.591365 135.314567 
L 222.415632 121.872458 
L 224.064167 146.125157 
L 224.888434 161.752171 
L 225.712702 163.230959 
L 226.536969 155.574047 
L 227.361237 174.014521 
L 228.185504 165.679715 
L 229.009771 166.385279 
L 229.834039 175.371219 
L 230.658306 175.049954 
L 231.482574 169.755279 
L 232.306841 151.092441 
L 233.131108 141.766601 
L 233.955376 147.054009 
L 234.779643 128.821845 
L 235.60391 136.595366 
L 236.428178 141.027063 
L 237.252445 120.27069 
L 238.076713 108.183741 
L 238.90098 114.063607 
L 239.725247 139.166109 
L 240.549515 131.681645 
L 241.373782 133.988899 
L 242.198049 147.540536 
L 243.022317 145.634955 
L 243.846584 139.724833 
L 244.670852 159.432889 
L 245.495119 162.522166 
L 246.319386 171.687591 
L 247.143654 168.549878 
L 247.967921 166.212777 
L 248.792189 169.023316 
L 249.616456 177.108745 
L 250.440723 168.624869 
L 251.264991 182.713666 
L 252.089258 179.256359 
L 252.913525 181.650664 
L 253.737793 171.957162 
L 254.56206 153.402003 
L 255.386328 178.896521 
L 256.210595 168.624869 
L 257.034862 152.166844 
L 257.85913 166.942371 
L 258.683397 152.166844 
L 259.507664 155.230772 
L 260.331932 167.668095 
L 261.156199 168.549878 
L 261.980467 181.56061 
L 262.804734 159.467025 
L 263.629001 156.509909 
L 264.453269 173.211235 
L 265.277536 172.289361 
L 266.101803 150.855641 
L 266.926071 132.469549 
L 267.750338 121.902487 
L 268.574606 123.102245 
L 269.398873 116.554036 
L 270.22314 126.411653 
L 271.047408 126.612 
L 271.871675 110.168149 
L 272.695943 89.97494 
L 273.52021 100.35246 
L 274.344477 132.591581 
L 275.168745 129.110101 
L 275.993012 147.540536 
L 276.817279 141.789183 
L 277.641547 140.471005 
L 278.465814 142.358232 
L 279.290082 147.808489 
L 280.114349 162.371667 
L 280.938616 179.07465 
L 281.762884 174.833479 
L 282.587151 167.027951 
L 283.411418 148.134151 
L 284.235686 180.760436 
L 285.059953 170.927683 
L 285.884221 157.456046 
L 286.708488 162.413608 
L 287.532755 155.289586 
L 288.357023 160.994596 
L 289.18129 154.285505 
L 290.005557 157.98873 
L 290.829825 173.735273 
L 291.654092 150.855641 
L 292.47836 160.994596 
L 293.302627 174.306284 
L 294.126894 169.640331 
L 294.951162 166.699605 
L 295.775429 168.018351 
L 296.599697 170.057166 
L 297.423964 180.298246 
L 299.896766 135.025892 
L 300.721033 138.328748 
L 301.545301 133.647758 
L 302.369568 137.509747 
L 303.193836 121.485505 
L 304.018103 108.348104 
L 304.84237 90.195877 
L 305.666638 86.829475 
L 306.490905 113.072518 
L 307.315172 111.663045 
L 308.13944 130.218949 
L 308.963707 122.573656 
L 309.787975 123.031633 
L 310.612242 115.551246 
L 311.436509 113.131974 
L 312.260777 125.366253 
L 313.085044 133.04005 
L 313.909311 121.8872 
L 314.733579 140.974099 
L 315.557846 124.924214 
L 316.382114 146.125157 
L 317.206381 155.109428 
L 318.030648 170.84308 
L 318.854916 177.797874 
L 319.679183 191.705223 
L 320.503451 183.908157 
L 321.327718 201.612311 
L 323.80052 170.012191 
L 324.624787 170.532892 
L 325.449055 168.312539 
L 326.273322 170.336732 
L 327.09759 160.994596 
L 327.921857 168.162428 
L 328.746124 143.479216 
L 329.570392 126.136849 
L 330.394659 125.87582 
L 331.218926 110.299824 
L 332.043194 104.2004 
L 332.867461 100.096242 
L 333.691729 100.096242 
L 334.515996 108.263799 
L 335.340263 86.952827 
L 336.164531 94.649141 
L 336.988798 111.48382 
L 337.813066 105.69989 
L 338.637333 112.54005 
L 339.4616 112.54005 
L 340.285868 113.779143 
L 341.110135 121.8872 
L 341.934402 117.246103 
L 342.75867 128.28183 
L 343.582937 127.087465 
L 344.407205 117.173957 
L 345.231472 132.591581 
L 346.055739 137.509747 
L 346.880007 136.908434 
L 347.704274 144.895119 
L 348.528541 144.998807 
L 349.352809 136.09869 
L 350.177076 136.836346 
L 351.001344 154.040729 
L 351.825611 155.513312 
L 352.649878 162.413608 
L 353.474146 155.964215 
L 354.298413 164.782474 
L 355.12268 168.63245 
L 355.946948 151.778811 
L 356.771215 157.817943 
L 357.595483 153.007583 
L 358.41975 144.076859 
L 359.244017 163.468449 
L 360.068285 147.139573 
L 360.892552 162.629364 
L 361.71682 138.158488 
L 362.541087 128.561145 
L 363.365354 140.086764 
L 364.189622 139.007874 
L 365.013889 154.139257 
L 365.838156 140.916745 
L 366.662424 134.479444 
L 367.486691 135.858356 
L 368.310959 110.101096 
L 369.135226 129.110101 
L 369.959493 126.975837 
L 370.783761 115.521868 
L 371.608028 115.521868 
L 372.432295 94.743939 
L 373.256563 112.960025 
L 374.08083 96.982738 
L 374.905098 115.307111 
L 375.729365 139.852502 
L 376.553632 126.942316 
L 377.3779 130.10997 
L 378.202167 141.308296 
L 379.026434 143.815825 
L 379.850702 141.95199 
L 380.674969 142.358232 
L 381.499237 154.356313 
L 382.323504 128.963346 
L 383.147771 111.663045 
L 383.972039 122.288302 
L 384.796306 119.864466 
L 385.620574 119.062777 
L 386.444841 125.013497 
L 387.269108 133.108066 
L 388.917643 123.813673 
L 390.566178 166.385279 
L 391.390445 154.213169 
L 392.214713 161.760474 
L 393.03898 158.721868 
L 393.863247 153.826763 
L 394.687515 150.399578 
L 395.511782 150.521711 
L 396.336049 155.911951 
L 397.160317 130.483735 
L 397.984584 133.277624 
L 398.808852 147.992481 
L 399.633119 156.771855 
L 400.457386 143.879568 
L 401.281654 152.915247 
L 402.105921 156.146987 
L 402.930189 157.744067 
L 403.754456 147.607912 
L 404.578723 154.568263 
L 405.402991 139.36787 
L 406.227258 141.527642 
L 407.051525 148.840445 
L 407.875793 168.89136 
L 408.70006 164.999545 
L 409.524328 168.121817 
L 410.348595 154.712675 
L 411.172862 169.560055 
L 411.99713 172.642323 
L 412.821397 182.948427 
L 413.645664 188.341434 
L 414.469932 164.999545 
L 415.294199 153.186063 
L 416.118467 151.878983 
L 416.942734 155.574047 
L 417.767001 166.445343 
L 418.591269 164.999545 
L 419.415536 149.683508 
L 420.239803 131.526841 
L 421.064071 100.877294 
L 421.888338 102.218372 
L 422.712606 108.579823 
L 423.536873 106.238269 
L 424.36114 104.520766 
L 425.185408 95.599643 
L 426.009675 93.226001 
L 426.833943 109.120181 
L 427.65821 110.970672 
L 428.482477 129.420591 
L 429.306745 126.827929 
L 430.131012 126.717905 
L 430.955279 104.785724 
L 431.779547 93.933826 
L 432.603814 89.448661 
L 433.428082 99.844027 
L 434.252349 102.416105 
L 435.076616 106.268766 
L 435.900884 103.670085 
L 436.725151 114.522845 
L 437.549418 114.770544 
L 439.197953 151.977 
L 440.022221 152.661262 
L 440.846488 150.183445 
L 441.670755 129.068792 
L 442.495023 140.315891 
L 443.31929 157.012467 
L 444.143557 149.115894 
L 444.967825 147.455357 
L 445.792092 152.283547 
L 446.61636 135.866914 
L 447.440627 160.994596 
L 448.264894 155.451201 
L 449.089162 180.428237 
L 449.913429 184.607427 
L 450.737697 175.956183 
L 451.561964 185.133618 
L 452.386231 195.840982 
L 453.210499 184.867623 
L 454.034766 183.451156 
L 454.859033 173.418838 
L 455.683301 182.73702 
L 456.507568 175.707514 
L 457.331836 156.822275 
L 458.156103 157.012467 
L 458.98037 135.876019 
L 459.804638 132.874639 
L 460.628905 123.394915 
L 461.453172 149.277121 
L 463.101707 112.412622 
L 463.925975 90.34025 
L 464.750242 94.806953 
L 465.574509 102.917285 
L 466.398777 123.303074 
L 467.223044 107.529618 
L 468.047311 132.811539 
L 468.871579 118.912484 
L 469.695846 115.906619 
L 470.520114 123.303074 
L 471.344381 128.862934 
L 472.992916 106.617261 
L 473.817183 106.889024 
L 474.641451 132.0761 
L 475.465718 128.768176 
L 476.289985 114.280103 
L 477.114253 128.626175 
L 477.93852 130.093684 
L 478.762787 137.761595 
L 479.587055 149.872097 
L 480.411322 145.171268 
L 481.23559 132.284522 
L 482.059857 103.510601 
L 482.884124 113.880193 
L 483.708392 133.838751 
L 484.532659 140.854433 
L 485.356926 120.58832 
L 487.005461 104.749714 
L 487.829729 111.465521 
L 488.653996 98.781215 
L 489.478263 111.279515 
L 490.302531 99.792336 
L 491.126798 86.394489 
L 491.951066 82.595162 
L 493.5996 109.810217 
L 494.423868 128.061843 
L 495.248135 131.125355 
L 496.072402 159.397193 
L 496.89667 156.202388 
L 497.720937 149.248988 
L 498.545205 154.64129 
L 499.369472 156.090289 
L 500.193739 160.179594 
L 501.018007 165.638208 
L 501.842274 155.680043 
L 502.666541 149.911296 
L 503.490809 134.569901 
L 503.490809 134.569901 
" clip-path="url(#pf4176a69b5)" style="fill: none; stroke: #d55e00; stroke-width: 2; stroke-linecap: square"/>
   </g>
   <g id="line2d_24">
    <path d="M 50.14375 196.833756 
L 50.968017 215.688271 
L 51.792285 239.463495 
L 52.616552 248.485921 
L 53.44082 232.506223 
L 54.265087 250.660119 
L 55.089354 232.004534 
L 55.913622 223.313646 
L 56.737889 202.629025 
L 57.562156 218.85969 
L 58.386424 216.903686 
L 60.034959 214.355124 
L 60.859226 223.203302 
L 61.683493 242.30283 
L 62.507761 242.850447 
L 63.332028 235.284757 
L 64.156295 239.205374 
L 64.980563 245.80052 
L 65.80483 239.996572 
L 66.629098 235.036365 
L 67.453365 238.058478 
L 69.926167 258.874657 
L 70.750434 272.177447 
L 72.398969 262.856364 
L 73.223237 264.150806 
L 74.047504 260.286697 
L 74.871771 258.099859 
L 75.696039 266.009026 
L 76.520306 259.61408 
L 77.344574 268.736073 
L 78.168841 255.621093 
L 78.993108 273.558232 
L 79.817376 253.682081 
L 80.641643 256.191156 
L 81.46591 256.816125 
L 83.114445 230.28364 
L 83.938713 229.078732 
L 84.76298 219.395457 
L 85.587247 247.538805 
L 86.411515 250.21123 
L 87.235782 248.164684 
L 88.060049 245.07382 
L 88.884317 248.933447 
L 89.708584 250.822826 
L 90.532852 261.399811 
L 91.357119 260.832258 
L 92.181386 256.127865 
L 93.005654 229.562349 
L 93.829921 217.498464 
L 94.654189 228.992139 
L 95.478456 215.124087 
L 96.302723 217.498464 
L 97.126991 208.190581 
L 97.951258 201.138199 
L 98.775525 208.896246 
L 99.599793 212.280713 
L 100.42406 206.173659 
L 101.248328 203.887813 
L 102.072595 199.881496 
L 102.896862 221.832312 
L 103.72113 207.206717 
L 104.545397 220.672839 
L 105.369664 216.262895 
L 106.193932 225.3797 
L 107.018199 240.641625 
L 107.842467 262.647488 
L 108.666734 256.258689 
L 109.491001 269.706717 
L 110.315269 255.157275 
L 111.139536 262.856364 
L 111.963803 257.790113 
L 112.788071 266.46953 
L 114.436606 229.327929 
L 115.260873 238.60425 
L 116.08514 252.18322 
L 116.909408 241.289567 
L 117.733675 254.692657 
L 118.557943 246.721868 
L 119.38221 253.682081 
L 120.206477 252.150722 
L 121.030745 247.850755 
L 121.855012 266.199874 
L 122.679279 236.949523 
L 123.503547 250.480818 
L 124.327814 251.506448 
L 125.152082 242.65956 
L 125.976349 256.861769 
L 126.800616 249.397859 
L 127.624884 237.527213 
L 128.449151 245.508338 
L 129.273418 224.013513 
L 130.097686 243.587571 
L 130.921953 231.082361 
L 132.570488 217.550034 
L 133.394755 208.644389 
L 134.219023 214.355124 
L 135.04329 213.217373 
L 135.867557 210.94005 
L 136.691825 210.326146 
L 137.516092 197.457046 
L 138.34036 188.430091 
L 139.164627 209.804119 
L 139.988894 205.294148 
L 140.813162 197.592468 
L 141.637429 187.250246 
L 142.461697 184.161346 
L 143.285964 177.060426 
L 144.110231 182.018906 
L 144.934499 181.56061 
L 145.758766 200.269577 
L 146.583033 198.426608 
L 147.407301 214.425721 
L 148.231568 213.267323 
L 149.055836 220.569856 
L 149.880103 237.518212 
L 150.70437 246.88845 
L 151.528638 247.313164 
L 152.352905 248.94148 
L 153.177172 238.382885 
L 154.00144 219.9258 
L 154.825707 213.267323 
L 155.649975 223.44624 
L 156.474242 231.254683 
L 157.298509 224.022085 
L 158.122777 225.275101 
L 158.947044 223.44624 
L 159.771311 236.704823 
L 160.595579 229.783268 
L 162.244114 242.152953 
L 163.068381 250.480818 
L 163.892648 240.977856 
L 164.716916 243.972065 
L 165.541183 238.083732 
L 166.365451 250.542582 
L 167.189718 246.212156 
L 168.013985 248.590583 
L 168.838253 254.176414 
L 169.66252 251.264482 
L 170.486787 242.241797 
L 172.135322 239.98164 
L 172.95959 232.760544 
L 173.783857 216.903686 
L 174.608124 217.461383 
L 175.432392 210.160882 
L 176.256659 193.003617 
L 177.080926 189.864529 
L 177.905194 174.862386 
L 178.729461 184.535265 
L 179.553729 174.578646 
L 180.377996 180.428237 
L 181.202263 190.420433 
L 182.026531 187.654244 
L 182.850798 186.834932 
L 183.675066 202.291083 
L 184.499333 203.93926 
L 185.3236 220.72653 
L 186.147868 205.978922 
L 186.972135 214.941964 
L 187.796402 202.291083 
L 188.62067 203.637123 
L 189.444937 194.36209 
L 191.093472 178.466186 
L 191.917739 180.428237 
L 192.742007 159.4997 
L 193.566274 169.916259 
L 194.390541 174.862386 
L 195.214809 201.956269 
L 196.039076 184.955635 
L 196.863344 184.785698 
L 197.687611 186.540525 
L 198.511878 185.875605 
L 199.336146 186.931803 
L 200.160413 199.700889 
L 200.98468 191.076915 
L 201.808948 195.299129 
L 202.633215 184.785698 
L 203.457483 192.710834 
L 205.106017 221.574942 
L 205.930285 226.988085 
L 206.754552 228.418838 
L 207.57882 236.403315 
L 208.403087 253.152438 
L 209.227354 253.648471 
L 210.051622 257.85119 
L 210.875889 272.177447 
L 211.700156 270.025521 
L 212.524424 265.071519 
L 213.348691 276.002786 
L 214.172959 256.816125 
L 214.997226 246.073647 
L 215.821493 233.708731 
L 216.645761 229.868113 
L 218.294295 205.819668 
L 219.118563 190.63122 
L 219.94283 197.734855 
L 220.767098 168.460201 
L 221.591365 193.538693 
L 222.415632 209.752524 
L 223.2399 213.753879 
L 224.064167 206.936606 
L 224.888434 214.390918 
L 226.536969 240.314656 
L 227.361237 248.164684 
L 228.185504 261.982221 
L 229.009771 255.18926 
L 229.834039 230.494847 
L 230.658306 220.672839 
L 231.482574 204.815234 
L 232.306841 212.59114 
L 233.131108 222.433157 
L 233.955376 213.840175 
L 234.779643 200.037257 
L 235.60391 198.267323 
L 236.428178 199.183865 
L 237.252445 210.85946 
L 238.076713 215.688271 
L 238.90098 232.065474 
L 239.725247 219.395457 
L 240.549515 190.339146 
L 241.373782 198.426608 
L 242.198049 215.67153 
L 243.022317 217.514715 
L 243.846584 214.524576 
L 244.670852 220.472352 
L 245.495119 210.85946 
L 246.319386 211.478546 
L 247.967921 243.213847 
L 248.792189 247.170262 
L 249.616456 218.548072 
L 250.440723 220.797852 
L 251.264991 219.174106 
L 252.089258 219.734527 
L 252.913525 239.76925 
L 253.737793 235.4464 
L 254.56206 229.2301 
L 255.386328 219.233232 
L 256.210595 224.301327 
L 257.034862 252.245184 
L 257.85913 259.528894 
L 258.683397 268.967179 
L 259.507664 276.97622 
L 260.331932 275.660694 
L 261.156199 285.574635 
L 261.980467 264.612777 
L 262.804734 273.277396 
L 264.453269 249.867428 
L 265.277536 241.89457 
L 266.101803 237.792797 
L 267.750338 215.050346 
L 268.574606 216.313617 
L 269.398873 228.264892 
L 270.22314 236.141223 
L 271.047408 237.494247 
L 271.871675 232.920084 
L 272.695943 231.254683 
L 273.52021 225.02456 
L 274.344477 243.587571 
L 275.168745 246.212156 
L 275.993012 249.791387 
L 276.817279 244.939732 
L 277.641547 236.636307 
L 278.465814 241.599727 
L 279.290082 251.361253 
L 280.114349 253.599437 
L 280.938616 260.407417 
L 281.762884 243.606536 
L 282.587151 247.637339 
L 283.411418 239.205374 
L 284.235686 243.587571 
L 285.059953 241.752171 
L 285.884221 240.54005 
L 286.708488 234.969019 
L 287.532755 233.356498 
L 288.357023 227.993093 
L 289.18129 214.425721 
L 290.005557 197.592468 
L 290.829825 205.486815 
L 291.654092 222.119695 
L 292.47836 222.119695 
L 293.302627 222.358232 
L 294.126894 241.323749 
L 294.951162 245.098529 
L 295.775429 244.536915 
L 296.599697 263.151433 
L 297.423964 264.957781 
L 298.248231 269.665081 
L 299.072499 255.667323 
L 299.896766 264.782474 
L 300.721033 265.824141 
L 301.545301 267.594596 
L 302.369568 266.009026 
L 303.193836 252.731734 
L 304.018103 260.935717 
L 304.84237 263.37358 
L 305.666638 256.127865 
L 306.490905 272.370225 
L 307.315172 257.618486 
L 308.13944 262.715987 
L 308.963707 245.543766 
L 309.787975 262.106781 
L 310.612242 282.604765 
L 311.436509 263.46727 
L 312.260777 253.080157 
L 313.085044 256.368927 
L 313.909311 224.335711 
L 314.733579 238.169721 
L 315.557846 226.566986 
L 316.382114 238.842697 
L 317.206381 234.273501 
L 318.030648 233.469343 
L 318.854916 246.221868 
L 319.679183 267.151097 
L 320.503451 266.368427 
L 322.151985 278.436769 
L 322.976253 282.679088 
L 323.80052 262.946467 
L 325.449055 249.139559 
L 326.273322 231.684251 
L 327.09759 225.139587 
L 327.921857 207.837347 
L 328.746124 196.913844 
L 329.570392 191.379971 
L 330.394659 189.024899 
L 331.218926 188.142054 
L 332.043194 183.205056 
L 332.867461 195.013355 
L 333.691729 208.760065 
L 334.515996 225.748062 
L 335.340263 218.918429 
L 336.164531 245.354466 
L 336.988798 237.536803 
L 337.813066 230.880959 
L 338.637333 229.176414 
L 339.4616 220.838637 
L 340.285868 206.027754 
L 341.934402 189.967094 
L 342.75867 207.073517 
L 343.582937 190.667018 
L 344.407205 199.605846 
L 345.231472 187.250246 
L 346.055739 208.230808 
L 346.880007 201.827078 
L 347.704274 202.765755 
L 348.528541 201.410806 
L 349.352809 212.945521 
L 350.177076 218.271493 
L 351.001344 228.227047 
L 351.825611 232.004534 
L 352.649878 260.643291 
L 353.474146 250.787984 
L 354.298413 254.739446 
L 355.12268 256.258689 
L 355.946948 265.138981 
L 356.771215 248.94148 
L 358.41975 268.287499 
L 359.244017 255.577644 
L 360.068285 234.929791 
L 360.892552 234.559189 
L 361.71682 229.783268 
L 362.541087 239.450132 
L 363.365354 228.992139 
L 364.189622 238.348269 
L 365.013889 226.815547 
L 365.838156 202.966009 
L 366.662424 207.444747 
L 367.486691 224.449699 
L 368.310959 228.530042 
L 369.135226 250.725235 
L 369.959493 237.869596 
L 370.783761 254.176414 
L 371.608028 243.213847 
L 372.432295 238.237419 
L 373.256563 245.129635 
L 374.08083 237.892213 
L 374.905098 233.078644 
L 375.729365 235.017535 
L 376.553632 214.851977 
L 377.3779 216.213451 
L 378.202167 218.888625 
L 379.850702 237.234265 
L 380.674969 249.791387 
L 381.499237 259.657697 
L 382.323504 255.299086 
L 383.147771 248.459738 
L 383.972039 267.446889 
L 384.796306 277.895422 
L 385.620574 264.683562 
L 386.444841 265.276442 
L 387.269108 249.546261 
L 388.093376 242.566876 
L 388.917643 219.752557 
L 389.74191 216.903686 
L 390.566178 210.227974 
L 391.390445 194.605633 
L 392.214713 193.538693 
L 393.03898 211.43246 
L 393.863247 212.202622 
L 394.687515 227.879704 
L 395.511782 222.754638 
L 396.336049 241.323749 
L 397.160317 253.099167 
L 397.984584 263.267323 
L 398.808852 257.692709 
L 399.633119 257.564844 
L 400.457386 244.604867 
L 401.281654 240.015043 
L 402.105921 240.622695 
L 403.754456 257.115903 
L 404.578723 251.889743 
L 405.402991 244.604867 
L 406.227258 245.029732 
L 407.051525 234.739715 
L 407.875793 241.752171 
L 408.70006 243.822878 
L 409.524328 240.015043 
L 410.348595 247.868721 
L 411.172862 232.585505 
L 411.99713 240.864725 
L 412.821397 244.858232 
L 413.645664 263.985026 
L 414.469932 267.698066 
L 415.294199 243.413772 
L 416.942734 230.457406 
L 417.767001 212.886267 
L 418.591269 219.542464 
L 419.415536 210.514076 
L 420.239803 228.354946 
L 421.064071 201.863814 
L 421.888338 201.863814 
L 422.712606 214.882876 
L 423.536873 211.259867 
L 424.36114 201.671488 
L 425.185408 197.310168 
L 426.009675 201.671488 
L 426.833943 199.918646 
L 427.65821 188.604023 
L 428.482477 208.329768 
L 429.306745 196.380096 
L 430.131012 197.457046 
L 430.955279 208.012944 
L 431.779547 209.311094 
L 432.603814 218.337253 
L 433.428082 207.585505 
L 434.252349 199.645575 
L 435.900884 214.201132 
L 436.725151 211.980873 
L 437.549418 211.169421 
L 438.373686 202.408737 
L 439.197953 225.237961 
L 440.022221 231.289651 
L 440.846488 241.679727 
L 441.670755 248.302488 
L 442.495023 238.738006 
L 443.31929 237.848482 
L 444.143557 252.583562 
L 445.792092 266.811237 
L 446.61636 257.335119 
L 447.440627 250.906876 
L 448.264894 246.364764 
L 449.089162 244.775281 
L 449.913429 249.712614 
L 450.737697 251.931069 
L 451.561964 251.255354 
L 452.386231 234.470289 
L 454.034766 221.149947 
L 454.859033 230.223721 
L 455.683301 232.585505 
L 456.507568 247.143824 
L 457.331836 239.128418 
L 458.156103 214.753337 
L 458.98037 216.903686 
L 459.804638 223.868141 
L 460.628905 243.436814 
L 461.453172 236.897666 
L 463.925975 259.823797 
L 464.750242 269.655121 
L 465.574509 287.064114 
L 466.398777 284.430251 
L 467.223044 280.279464 
L 468.047311 268.230065 
L 469.695846 253.588516 
L 470.520114 239.195414 
L 472.168648 206.671957 
L 472.992916 202.475534 
L 473.817183 188.859255 
L 475.465718 201.671488 
L 476.289985 210.534296 
L 477.114253 199.585046 
L 477.93852 200.929661 
L 478.762787 210.66992 
L 479.587055 216.116235 
L 480.411322 233.616724 
L 481.23559 234.046544 
L 482.059857 244.102704 
L 482.884124 234.665419 
L 483.708392 256.782898 
L 484.532659 251.657986 
L 485.356926 251.199359 
L 486.181194 234.375277 
L 487.005461 235.304147 
L 487.829729 221.691009 
L 488.653996 240.739537 
L 489.478263 226.192098 
L 490.302531 219.752557 
L 491.126798 217.622774 
L 491.951066 238.842697 
L 492.775333 234.273501 
L 493.5996 246.386294 
L 494.423868 237.234265 
L 495.248135 241.363914 
L 496.072402 235.951579 
L 496.89667 244.244809 
L 497.720937 270.085505 
L 498.545205 250.21123 
L 499.369472 247.143824 
L 500.193739 260.188144 
L 501.018007 260.32027 
L 501.842274 280.79979 
L 502.666541 284.773429 
L 503.490809 282.679088 
L 503.490809 282.679088 
" clip-path="url(#pf4176a69b5)" style="fill: none; stroke: #cc79a7; stroke-width: 2; stroke-linecap: square"/>
   </g>
   <g id="line2d_25">
    <path d="M 50.14375 36.935962 
L 50.968017 57.313418 
L 51.792285 52.217494 
L 52.616552 35.824989 
L 53.44082 34.925077 
L 54.265087 89.316274 
L 55.089354 76.311445 
L 55.913622 75.0502 
L 56.737889 84.119596 
L 57.562156 80.996057 
L 58.386424 71.431489 
L 59.210691 78.361662 
L 60.859226 128.972361 
L 61.683493 126.482811 
L 62.507761 136.203103 
L 63.332028 153.659584 
L 64.156295 152.915247 
L 64.980563 157.186074 
L 65.80483 174.306284 
L 66.629098 178.324907 
L 68.277632 138.328748 
L 69.1019 140.177381 
L 69.926167 139.143334 
L 70.750434 137.033557 
L 71.574702 127.323855 
L 72.398969 106.370771 
L 73.223237 72.012521 
L 74.047504 65.658285 
L 74.871771 81.696601 
L 75.696039 95.265778 
L 76.520306 73.973559 
L 77.344574 72.084723 
L 78.168841 74.077101 
L 78.993108 92.306284 
L 79.817376 93.841218 
L 80.641643 132.500982 
L 81.46591 128.915609 
L 82.290178 147.902935 
L 83.114445 141.136175 
L 83.938713 170.951009 
L 84.76298 178.286067 
L 85.587247 168.236706 
L 86.411515 155.170732 
L 87.235782 176.023921 
L 88.060049 180.570608 
L 88.884317 196.913844 
L 89.708584 178.706842 
L 90.532852 191.379971 
L 91.357119 200.707181 
L 92.181386 205.978922 
L 93.005654 216.271945 
L 93.829921 217.523178 
L 94.654189 214.425721 
L 95.478456 196.681249 
L 96.302723 184.607427 
L 97.126991 192.726782 
L 97.951258 188.641948 
L 98.775525 175.158232 
L 99.599793 159.531007 
L 100.42406 138.008099 
L 101.248328 145.801908 
L 102.072595 144.895119 
L 103.72113 150.324922 
L 104.545397 144.634429 
L 105.369664 129.147645 
L 106.193932 130.093684 
L 107.018199 139.491099 
L 107.842467 162.399347 
L 108.666734 151.886598 
L 110.315269 146.132685 
L 111.139536 157.267323 
L 111.963803 142.165109 
L 112.788071 166.879763 
L 113.612338 168.469073 
L 114.436606 173.873383 
L 115.260873 169.373342 
L 116.08514 185.302896 
L 116.909408 178.706842 
L 117.733675 196.794695 
L 118.557943 187.085505 
L 119.38221 197.189186 
L 120.206477 196.128724 
L 121.030745 193.363017 
L 121.855012 194.011775 
L 122.679279 192.710834 
L 123.503547 179.532093 
L 124.327814 191.72996 
L 125.152082 183.814633 
L 125.976349 187.684865 
L 126.800616 193.966624 
L 127.624884 195.299129 
L 128.449151 198.366983 
L 129.273418 195.085505 
L 130.097686 185.84308 
L 130.921953 170.110208 
L 131.746221 166.385279 
L 132.570488 164.207762 
L 134.219023 179.426164 
L 135.04329 178.513793 
L 135.867557 152.750628 
L 136.691825 155.804096 
L 137.516092 160.264712 
L 138.34036 183.908157 
L 139.164627 187.759586 
L 139.988894 207.958232 
L 140.813162 179.225821 
L 141.637429 144.191317 
L 142.461697 139.852502 
L 143.285964 149.115894 
L 144.110231 137.827845 
L 144.934499 121.93482 
L 145.758766 118.912484 
L 146.583033 102.917285 
L 147.407301 68.871662 
L 148.231568 102.855512 
L 149.055836 127.185263 
L 149.880103 118.828521 
L 150.70437 129.764722 
L 151.528638 125.860467 
L 152.352905 145.801908 
L 153.177172 155.04682 
L 154.00144 167.529424 
L 154.825707 175.634133 
L 155.649975 154.040729 
L 156.474242 167.086385 
L 157.298509 163.762372 
L 158.122777 159.546174 
L 158.947044 174.306284 
L 159.771311 173.873383 
L 160.595579 169.194596 
L 161.419846 167.812777 
L 162.244114 158.746241 
L 163.068381 174.306284 
L 163.892648 174.014521 
L 164.716916 170.21038 
L 165.541183 176.903686 
L 166.365451 179.532093 
L 167.189718 181.592682 
L 168.013985 168.63245 
L 168.838253 159.450146 
L 169.66252 154.568263 
L 170.486787 159.34048 
L 171.311055 156.202388 
L 172.135322 171.061329 
L 172.95959 174.457125 
L 173.783857 173.078693 
L 174.608124 166.699605 
L 175.432392 170.634094 
L 176.256659 176.479621 
L 177.080926 181.251513 
L 177.905194 183.231166 
L 178.729461 153.826763 
L 180.377996 145.634955 
L 181.202263 141.136175 
L 182.026531 151.405965 
L 182.850798 167.73966 
L 183.675066 163.937179 
L 184.499333 177.094072 
L 185.3236 151.303686 
L 186.147868 175.008748 
L 186.972135 176.187283 
L 187.796402 188.949141 
L 188.62067 197.592468 
L 189.444937 177.256243 
L 190.269205 162.505652 
L 191.093472 171.061329 
L 191.917739 152.569938 
L 192.742007 150.4172 
L 193.566274 159.467025 
L 194.390541 155.85859 
L 195.214809 143.879568 
L 196.039076 153.249004 
L 196.863344 169.023316 
L 197.687611 154.560045 
L 198.511878 133.316828 
L 199.336146 139.92333 
L 200.160413 140.132995 
L 201.808948 136.908434 
L 202.633215 143.523005 
L 203.457483 118.101378 
L 204.28175 114.042517 
L 205.106017 139.143334 
L 205.930285 156.509909 
L 206.754552 157.345177 
L 207.57882 172.764931 
L 208.403087 159.4997 
L 209.227354 177.781921 
L 210.051622 176.566093 
L 210.875889 170.737467 
L 211.700156 176.354236 
L 212.524424 158.052012 
L 213.348691 162.522166 
L 214.172959 159.467025 
L 214.997226 159.467025 
L 215.821493 164.702095 
L 216.645761 157.98873 
L 217.470028 161.752171 
L 218.294295 175.31094 
L 219.118563 180.701455 
L 219.94283 191.053247 
L 220.767098 181.592682 
L 221.591365 181.121868 
L 222.415632 188.248331 
L 223.2399 170.312777 
L 224.064167 157.012467 
L 224.888434 153.907528 
L 225.712702 155.387667 
L 226.536969 141.491424 
L 227.361237 135.876019 
L 228.185504 146.281677 
L 229.009771 148.141931 
L 229.834039 155.451201 
L 230.658306 173.558436 
L 231.482574 178.324907 
L 232.306841 174.742733 
L 233.131108 165.479282 
L 233.955376 170.433793 
L 234.779643 171.687591 
L 235.60391 169.46567 
L 236.428178 171.926541 
L 237.252445 146.442914 
L 238.076713 151.571715 
L 238.90098 143.621714 
L 239.725247 144.269654 
L 240.549515 145.289795 
L 241.373782 139.117125 
L 242.198049 151.571715 
L 243.022317 160.994596 
L 243.846584 156.461426 
L 244.670852 177.078033 
L 245.495119 166.269038 
L 246.319386 176.187283 
L 247.143654 180.853016 
L 247.967921 179.93399 
L 249.616456 197.592468 
L 250.440723 165.577308 
L 251.264991 169.755279 
L 252.089258 163.304889 
L 252.913525 170.951009 
L 254.56206 179.840357 
L 255.386328 185.683795 
L 256.210595 185.968397 
L 257.034862 168.89136 
L 257.85913 209.647049 
L 258.683397 223.912234 
L 259.507664 222.119695 
L 260.331932 214.970231 
L 261.156199 217.550034 
L 262.804734 201.612311 
L 263.629001 204.176414 
L 264.453269 197.857732 
L 266.101803 179.630959 
L 266.926071 176.524899 
L 267.750338 191.705223 
L 268.574606 182.498092 
L 269.398873 187.477849 
L 270.22314 186.682556 
L 271.047408 170.012191 
L 271.871675 167.668095 
L 272.695943 160.994596 
L 273.52021 156.411883 
L 274.344477 171.239717 
L 275.168745 162.473672 
L 275.993012 167.887497 
L 276.817279 169.856267 
L 277.641547 160.19817 
L 278.465814 173.078693 
L 279.290082 195.324739 
L 280.114349 198.858101 
L 280.938616 200.707181 
L 281.762884 196.913844 
L 282.587151 202.035895 
L 283.411418 203.076707 
L 284.235686 194.059112 
L 285.884221 207.336355 
L 286.708488 188.802782 
L 287.532755 180.22259 
L 288.357023 183.418028 
L 289.18129 168.803128 
L 290.005557 164.135556 
L 290.829825 156.361246 
L 291.654092 142.76337 
L 292.47836 162.539046 
L 293.302627 139.742602 
L 294.126894 152.081552 
L 294.951162 146.281677 
L 295.775429 137.359557 
L 296.599697 160.994596 
L 297.423964 160.207144 
L 298.248231 156.411883 
L 299.072499 176.524899 
L 299.896766 158.696962 
L 300.721033 176.187283 
L 302.369568 145.171268 
L 303.193836 143.570353 
L 304.018103 121.502024 
L 304.84237 122.383345 
L 305.666638 139.007874 
L 306.490905 122.839366 
L 307.315172 137.898247 
L 308.13944 138.758025 
L 308.963707 157.057336 
L 309.787975 182.999631 
L 310.612242 169.168439 
L 311.436509 178.210005 
L 312.260777 181.251513 
L 313.085044 170.978362 
L 313.909311 162.648711 
L 314.733579 160.179594 
L 315.557846 153.186063 
L 316.382114 155.513312 
L 317.206381 150.983326 
L 318.030648 164.100656 
L 318.854916 156.361246 
L 319.679183 152.283547 
L 320.503451 153.007583 
L 321.327718 178.566024 
L 322.151985 171.061329 
L 322.976253 159.415243 
L 323.80052 159.432889 
L 324.624787 150.06265 
L 325.449055 156.256537 
L 326.273322 156.309476 
L 327.09759 146.116826 
L 327.921857 131.650045 
L 328.746124 124.131459 
L 329.570392 124.191693 
L 330.394659 144.822544 
L 331.218926 147.902935 
L 332.043194 160.994596 
L 332.867461 153.356742 
L 333.691729 151.778811 
L 334.515996 159.467025 
L 335.340263 155.63345 
L 336.164531 162.522166 
L 336.988798 153.186063 
L 337.813066 156.146987 
L 338.637333 123.886792 
L 339.4616 105.417309 
L 340.285868 108.735356 
L 341.110135 119.611734 
L 341.934402 105.085505 
L 342.75867 126.664452 
L 343.582937 116.676414 
L 344.407205 135.581372 
L 345.231472 137.418473 
L 346.055739 146.461651 
L 346.880007 154.258561 
L 347.704274 154.973617 
L 348.528541 154.092239 
L 349.352809 169.243478 
L 350.177076 187.085505 
L 351.001344 171.746344 
L 351.825611 170.012191 
L 352.649878 149.309416 
L 353.474146 167.206717 
L 354.298413 179.99283 
L 355.12268 184.655183 
L 355.946948 181.14991 
L 356.771215 178.466186 
L 357.595483 147.597849 
L 358.41975 165.517985 
L 359.244017 141.654973 
L 360.068285 150.378945 
L 360.892552 139.233572 
L 361.71682 136.473064 
L 362.541087 145.929272 
L 363.365354 142.358232 
L 364.189622 133.588178 
L 365.013889 138.905173 
L 365.838156 133.04005 
L 366.662424 130.986891 
L 367.486691 119.698108 
L 368.310959 113.188271 
L 369.135226 117.799525 
L 369.959493 105.407747 
L 370.783761 100.37028 
L 371.608028 109.477155 
L 372.432295 130.312777 
L 373.256563 117.731609 
L 374.08083 140.619562 
L 374.905098 141.027063 
L 376.553632 147.017323 
L 377.3779 144.448291 
L 378.202167 159.320671 
L 379.026434 158.476168 
L 379.850702 135.896087 
L 380.674969 154.821668 
L 381.499237 153.917495 
L 382.323504 161.865454 
L 383.147771 175.985992 
L 383.972039 167.896952 
L 384.796306 181.701666 
L 385.620574 186.894973 
L 386.444841 201.705099 
L 387.269108 200.677704 
L 388.093376 198.386026 
L 388.917643 178.687346 
L 389.74191 186.249481 
L 390.566178 160.150047 
L 391.390445 157.626578 
L 392.214713 161.834071 
L 393.03898 160.994596 
L 393.863247 152.081552 
L 394.687515 147.682907 
L 395.511782 156.771855 
L 396.336049 181.960505 
L 397.160317 177.019494 
L 397.984584 187.574327 
L 398.808852 196.295557 
L 399.633119 157.216954 
L 400.457386 139.186085 
L 401.281654 112.867722 
L 402.105921 133.04005 
L 402.930189 144.436154 
L 403.754456 135.234434 
L 404.578723 129.293565 
L 405.402991 136.272889 
L 406.227258 142.106389 
L 407.051525 161.975457 
L 407.875793 162.87074 
L 408.70006 175.018615 
L 409.524328 172.909648 
L 410.348595 154.661851 
L 411.99713 183.322507 
L 412.821397 178.914176 
L 413.645664 163.62355 
L 414.469932 164.445774 
L 415.294199 159.258288 
L 416.118467 168.162428 
L 416.942734 179.51338 
L 417.767001 180.900309 
L 418.591269 153.917495 
L 419.415536 149.74354 
L 420.239803 158.382021 
L 421.064071 162.752743 
L 421.888338 156.613005 
L 422.712606 169.032644 
L 423.536873 175.616973 
L 424.36114 164.488914 
L 425.185408 155.584038 
L 426.009675 190.467439 
L 426.833943 195.357326 
L 427.65821 189.977569 
L 428.482477 197.457046 
L 429.306745 198.572837 
L 430.955279 177.213956 
L 431.779547 168.110298 
L 432.603814 182.498092 
L 433.428082 162.87074 
L 434.252349 147.246458 
L 435.076616 136.568294 
L 435.900884 134.33026 
L 436.725151 137.130959 
L 437.549418 159.320671 
L 438.373686 171.407464 
L 439.197953 161.76896 
L 440.022221 167.347901 
L 440.846488 161.824107 
L 441.670755 170.524554 
L 442.495023 169.95961 
L 444.143557 175.799184 
L 444.967825 167.052856 
L 445.792092 156.613005 
L 446.61636 155.652963 
L 447.440627 126.051414 
L 448.264894 147.189882 
L 449.089162 133.997994 
L 449.913429 160.994596 
L 451.561964 142.591917 
L 452.386231 143.949141 
L 453.210499 145.55957 
L 454.859033 187.039203 
L 455.683301 159.258288 
L 456.507568 169.785333 
L 458.156103 151.533057 
L 458.98037 182.236651 
L 459.804638 184.362172 
L 460.628905 185.764446 
L 461.453172 173.976583 
L 462.27744 182.225896 
L 463.925975 192.889043 
L 464.750242 184.440343 
L 465.574509 192.443459 
L 466.398777 163.656933 
L 467.223044 156.557366 
L 468.047311 164.403686 
L 468.871579 169.56961 
L 469.695846 126.368119 
L 470.520114 118.737725 
L 471.344381 108.735356 
L 472.168648 113.430145 
L 472.992916 121.549531 
L 473.817183 124.979537 
L 474.641451 126.368119 
L 475.465718 118.119526 
L 476.289985 122.989927 
L 477.114253 161.854735 
L 477.93852 153.107733 
L 478.762787 150.64106 
L 479.587055 148.530786 
L 480.411322 141.895217 
L 481.23559 146.097189 
L 482.059857 139.491099 
L 482.884124 155.652963 
L 483.708392 159.214051 
L 484.532659 159.143301 
L 485.356926 186.742203 
L 486.181194 197.2992 
L 487.005461 199.432096 
L 487.829729 194.824937 
L 488.653996 203.666643 
L 489.478263 209.426483 
L 490.302531 212.825212 
L 491.126798 213.463127 
L 491.951066 206.190567 
L 492.775333 216.903686 
L 493.5996 201.612311 
L 494.423868 198.042788 
L 495.248135 208.402889 
L 496.072402 198.594277 
L 496.89667 208.844718 
L 497.720937 194.334879 
L 498.545205 183.019389 
L 499.369472 196.573108 
L 500.193739 193.24984 
L 501.018007 209.476649 
L 501.842274 218.751921 
L 502.666541 220.292116 
L 503.490809 237.869596 
L 503.490809 237.869596 
" clip-path="url(#pf4176a69b5)" style="fill: none; stroke: #009e73; stroke-width: 2; stroke-linecap: square"/>
   </g>
   <g id="patch_3">
    <path d="M 50.14375 299.671066 
L 50.14375 22.318125 
" style="fill: none; stroke: #000000; stroke-width: 0.8; stroke-linejoin: miter; stroke-linecap: square"/>
   </g>
   <g id="patch_4">
    <path d="M 503.490809 299.671066 
L 503.490809 22.318125 
" style="fill: none; stroke: #000000; stroke-width: 0.8; stroke-linejoin: miter; stroke-linecap: square"/>
   </g>
   <g id="patch_5">
    <path d="M 50.14375 299.671066 
L 503.490809 299.671066 
" style="fill: none; stroke: #000000; stroke-width: 0.8; stroke-linejoin: miter; stroke-linecap: square"/>
   </g>
   <g id="patch_6">
    <path d="M 50.14375 22.318125 
L 503.490809 22.318125 
" style="fill: none; stroke: #000000; stroke-width: 0.8; stroke-linejoin: miter; stroke-linecap: square"/>
   </g>
   <g id="text_14">
    <!-- CpG methylation relative to cut site -->
    <g transform="translate(169.613217 16.318125) scale(0.12 -0.12)">
     <defs>
      <path id="DejaVuSans-76" d="M 191 3500 
L 800 3500 
L 1894 563 
L 2988 3500 
L 3597 3500 
L 2284 0 
L 1503 0 
L 191 3500 
z
" transform="scale(0.015625)"/>
     </defs>
     <use xlink:href="#DejaVuSans-43"/>
     <use xlink:href="#DejaVuSans-70" transform="translate(69.824219 0)"/>
     <use xlink:href="#DejaVuSans-47" transform="translate(133.300781 0)"/>
     <use xlink:href="#DejaVuSans-20" transform="translate(210.791016 0)"/>
     <use xlink:href="#DejaVuSans-6d" transform="translate(242.578125 0)"/>
     <use xlink:href="#DejaVuSans-65" transform="translate(339.990234 0)"/>
     <use xlink:href="#DejaVuSans-74" transform="translate(401.513672 0)"/>
     <use xlink:href="#DejaVuSans-68" transform="translate(440.722656 0)"/>
     <use xlink:href="#DejaVuSans-79" transform="translate(504.101562 0)"/>
     <use xlink:href="#DejaVuSans-6c" transform="translate(563.28125 0)"/>
     <use xlink:href="#DejaVuSans-61" transform="translate(591.064453 0)"/>
     <use xlink:href="#DejaVuSans-74" transform="translate(652.34375 0)"/>
     <use xlink:href="#DejaVuSans-69" transform="translate(691.552734 0)"/>
     <use xlink:href="#DejaVuSans-6f" transform="translate(719.335938 0)"/>
     <use xlink:href="#DejaVuSans-6e" transform="translate(780.517578 0)"/>
     <use xlink:href="#DejaVuSans-20" transform="translate(843.896484 0)"/>
     <use xlink:href="#DejaVuSans-72" transform="translate(875.683594 0)"/>
     <use xlink:href="#DejaVuSans-65" transform="translate(914.546875 0)"/>
     <use xlink:href="#DejaVuSans-6c" transform="translate(976.070312 0)"/>
     <use xlink:href="#DejaVuSans-61" transform="translate(1003.853516 0)"/>
     <use xlink:href="#DejaVuSans-74" transform="translate(1065.132812 0)"/>
     <use xlink:href="#DejaVuSans-69" transform="translate(1104.341797 0)"/>
     <use xlink:href="#DejaVuSans-76" transform="translate(1132.125 0)"/>
     <use xlink:href="#DejaVuSans-65" transform="translate(1191.304688 0)"/>
     <use xlink:href="#DejaVuSans-20" transform="translate(1252.828125 0)"/>
     <use xlink:href="#DejaVuSans-74" transform="translate(1284.615234 0)"/>
     <use xlink:href="#DejaVuSans-6f" transform="translate(1323.824219 0)"/>
     <use xlink:href="#DejaVuSans-20" transform="translate(1385.005859 0)"/>
     <use xlink:href="#DejaVuSans-63" transform="translate(1416.792969 0)"/>
     <use xlink:href="#DejaVuSans-75" transform="translate(1471.773438 0)"/>
     <use xlink:href="#DejaVuSans-74" transform="translate(1535.152344 0)"/>
     <use xlink:href="#DejaVuSans-20" transform="translate(1574.361328 0)"/>
     <use xlink:href="#DejaVuSans-73" transform="translate(1606.148438 0)"/>
     <use xlink:href="#DejaVuSans-69" transform="translate(1658.248047 0)"/>
     <use xlink:href="#DejaVuSans-74" transform="translate(1686.03125 0)"/>
     <use xlink:href="#DejaVuSans-65" transform="translate(1725.240234 0)"/>
    </g>
   </g>
   <g id="legend_1">
    <g id="line2d_26">
     <path d="M 413.018934 35.416562 
L 423.018934 35.416562 
L 433.018934 35.416562 
" style="fill: none; stroke: #d55e00; stroke-width: 2; stroke-linecap: square"/>
    </g>
    <g id="text_15">
     <!-- h3k27ac -->
     <g transform="translate(441.018934 38.916562) scale(0.1 -0.1)">
      <defs>
       <path id="DejaVuSans-6b" d="M 581 4863 
L 1159 4863 
L 1159 1991 
L 2875 3500 
L 3609 3500 
L 1753 1863 
L 3688 0 
L 2938 0 
L 1159 1709 
L 1159 0 
L 581 0 
L 581 4863 
z
" transform="scale(0.015625)"/>
       <path id="DejaVuSans-37" d="M 525 4666 
L 3525 4666 
L 3525 4397 
L 1831 0 
L 1172 0 
L 2766 4134 
L 525 4134 
L 525 4666 
z
" transform="scale(0.015625)"/>
      </defs>
      <use xlink:href="#DejaVuSans-68"/>
      <use xlink:href="#DejaVuSans-33" transform="translate(63.378906 0)"/>
      <use xlink:href="#DejaVuSans-6b" transform="translate(127.001953 0)"/>
      <use xlink:href="#DejaVuSans-32" transform="translate(184.912109 0)"/>
      <use xlink:href="#DejaVuSans-37" transform="translate(248.535156 0)"/>
      <use xlink:href="#DejaVuSans-61" transform="translate(312.158203 0)"/>
      <use xlink:href="#DejaVuSans-63" transform="translate(373.4375 0)"/>
     </g>
    </g>
    <g id="line2d_27">
     <path d="M 413.018934 50.094687 
L 423.018934 50.094687 
L 433.018934 50.094687 
" style="fill: none; stroke: #cc79a7; stroke-width: 2; stroke-linecap: square"/>
    </g>
    <g id="text_16">
     <!-- h3k27me3 -->
     <g transform="translate(441.018934 53.594687) scale(0.1 -0.1)">
      <use xlink:href="#DejaVuSans-68"/>
      <use xlink:href="#DejaVuSans-33" transform="translate(63.378906 0)"/>
      <use xlink:href="#DejaVuSans-6b" transform="translate(127.001953 0)"/>
      <use xlink:href="#DejaVuSans-32" transform="translate(184.912109 0)"/>
      <use xlink:href="#DejaVuSans-37" transform="translate(248.535156 0)"/>
      <use xlink:href="#DejaVuSans-6d" transform="translate(312.158203 0)"/>
      <use xlink:href="#DejaVuSans-65" transform="translate(409.570312 0)"/>
      <use xlink:href="#DejaVuSans-33" transform="translate(471.09375 0)"/>
     </g>
    </g>
    <g id="line2d_28">
     <path d="M 413.018934 64.772812 
L 423.018934 64.772812 
L 433.018934 64.772812 
" style="fill: none; stroke: #009e73; stroke-width: 2; stroke-linecap: square"/>
    </g>
    <g id="text_17">
     <!-- h3k4me3 -->
     <g transform="translate(441.018934 68.272812) scale(0.1 -0.1)">
      <use xlink:href="#DejaVuSans-68"/>
      <use xlink:href="#DejaVuSans-33" transform="translate(63.378906 0)"/>
      <use xlink:href="#DejaVuSans-6b" transform="translate(127.001953 0)"/>
      <use xlink:href="#DejaVuSans-34" transform="translate(184.912109 0)"/>
      <use xlink:href="#DejaVuSans-6d" transform="translate(248.535156 0)"/>
      <use xlink:href="#DejaVuSans-65" transform="translate(345.947266 0)"/>
      <use xlink:href="#DejaVuSans-33" transform="translate(407.470703 0)"/>
     </g>
    </g>
   </g>
  </g>
 </g>
 <defs>
  <clipPath id="pf4176a69b5">
   <rect x="50.14375" y="22.318125" width="453.347059" height="277.352941"/>
  </clipPath>
 </defs>
</svg>
