<?xml version="1.0" encoding="utf-8" standalone="no"?>
<!DOCTYPE svg PUBLIC "-//W3C//DTD SVG 1.1//EN"
  "http://www.w3.org/Graphics/SVG/1.1/DTD/svg11.dtd">
<svg xmlns:xlink="http://www.w3.org/1999/xlink" width="936pt" height="360pt" viewBox="0 0 936 360" xmlns="http://www.w3.org/2000/svg" version="1.1">
 <metadata>
  <rdf:RDF xmlns:dc="http://purl.org/dc/elements/1.1/" xmlns:cc="http://creativecommons.org/ns#" xmlns:rdf="http://www.w3.org/1999/02/22-rdf-syntax-ns#">
   <cc:Work>
    <dc:type rdf:resource="http://purl.org/dc/dcmitype/StillImage"/>
    <dc:date>2026-07-17T20:04:54.755270</dc:date>
    <dc:format>image/svg+xml</dc:format>
    <dc:creator>
     <cc:Agent>
      <dc:title>Matplotlib v3.10.8, https://matplotlib.org/</dc:title>
     </cc:Agent>
    </dc:creator>
   </cc:Work>
  </rdf:RDF>
 </metadata>
 <defs>
  <style type="text/css">*{stroke-linejoin: round; stroke-linecap: butt}</style>
 </defs>
 <g id="figure_1">
  <g id="patch_1">
   <path d="M 0 360 
L 936 360 
L 936 0 
L 0 0 
z
" style="fill: #ffffff"/>
  </g>
  <g id="axes_1">
   <g id="patch_2">
    <path d="M 47.72 318.04 
L 925.2 318.04 
L 925.2 49.72725 
L 47.72 49.72725 
z
" style="fill: #ffffff"/>
   </g>
   <g id="matplotlib.axis_1">
    <g id="xtick_1">
     <g id="line2d_1">
      <defs>
       <path id="m038a28282a" d="M 0 0 
L 0 3.5 
" style="stroke: #000000; stroke-width: 0.8"/>
      </defs>
      <g>
       <use xlink:href="#m038a28282a" x="86.806147" y="318.04" style="stroke: #000000; stroke-width: 0.8"/>
      </g>
     </g>
     <g id="text_1">
      <!-- 3.090 -->
      <g transform="translate(72.492084 332.638438) scale(0.1 -0.1)">
       <defs>
        <path id="DejaVuSans-33" d="M 2597 2516 
Q 3050 2419 3304 2112 
Q 3559 1806 3559 1356 
Q 3559 666 3084 287 
Q 2609 -91 1734 -91 
Q 1441 -91 1130 -33 
Q 819 25 488 141 
L 488 750 
Q 750 597 1062 519 
Q 1375 441 1716 441 
Q 2309 441 2620 675 
Q 2931 909 2931 1356 
Q 2931 1769 2642 2001 
Q 2353 2234 1838 2234 
L 1294 2234 
L 1294 2753 
L 1863 2753 
Q 2328 2753 2575 2939 
Q 2822 3125 2822 3475 
Q 2822 3834 2567 4026 
Q 2313 4219 1838 4219 
Q 1578 4219 1281 4162 
Q 984 4106 628 3988 
L 628 4550 
Q 988 4650 1302 4700 
Q 1616 4750 1894 4750 
Q 2613 4750 3031 4423 
Q 3450 4097 3450 3541 
Q 3450 3153 3228 2886 
Q 3006 2619 2597 2516 
z
" transform="scale(0.015625)"/>
        <path id="DejaVuSans-2e" d="M 684 794 
L 1344 794 
L 1344 0 
L 684 0 
L 684 794 
z
" transform="scale(0.015625)"/>
        <path id="DejaVuSans-30" d="M 2034 4250 
Q 1547 4250 1301 3770 
Q 1056 3291 1056 2328 
Q 1056 1369 1301 889 
Q 1547 409 2034 409 
Q 2525 409 2770 889 
Q 3016 1369 3016 2328 
Q 3016 3291 2770 3770 
Q 2525 4250 2034 4250 
z
M 2034 4750 
Q 2819 4750 3233 4129 
Q 3647 3509 3647 2328 
Q 3647 1150 3233 529 
Q 2819 -91 2034 -91 
Q 1250 -91 836 529 
Q 422 1150 422 2328 
Q 422 3509 836 4129 
Q 1250 4750 2034 4750 
z
" transform="scale(0.015625)"/>
        <path id="DejaVuSans-39" d="M 703 97 
L 703 672 
Q 941 559 1184 500 
Q 1428 441 1663 441 
Q 2288 441 2617 861 
Q 2947 1281 2994 2138 
Q 2813 1869 2534 1725 
Q 2256 1581 1919 1581 
Q 1219 1581 811 2004 
Q 403 2428 403 3163 
Q 403 3881 828 4315 
Q 1253 4750 1959 4750 
Q 2769 4750 3195 4129 
Q 3622 3509 3622 2328 
Q 3622 1225 3098 567 
Q 2575 -91 1691 -91 
Q 1453 -91 1209 -44 
Q 966 3 703 97 
z
M 1959 2075 
Q 2384 2075 2632 2365 
Q 2881 2656 2881 3163 
Q 2881 3666 2632 3958 
Q 2384 4250 1959 4250 
Q 1534 4250 1286 3958 
Q 1038 3666 1038 3163 
Q 1038 2656 1286 2365 
Q 1534 2075 1959 2075 
z
" transform="scale(0.015625)"/>
       </defs>
       <use xlink:href="#DejaVuSans-33"/>
       <use xlink:href="#DejaVuSans-2e" transform="translate(63.623047 0)"/>
       <use xlink:href="#DejaVuSans-30" transform="translate(95.410156 0)"/>
       <use xlink:href="#DejaVuSans-39" transform="translate(159.033203 0)"/>
       <use xlink:href="#DejaVuSans-30" transform="translate(222.65625 0)"/>
      </g>
     </g>
    </g>
    <g id="xtick_2">
     <g id="line2d_2">
      <g>
       <use xlink:href="#m038a28282a" x="246.667688" y="318.04" style="stroke: #000000; stroke-width: 0.8"/>
      </g>
     </g>
     <g id="text_2">
      <!-- 3.092 -->
      <g transform="translate(232.353626 332.638438) scale(0.1 -0.1)">
       <defs>
        <path id="DejaVuSans-32" d="M 1228 531 
L 3431 531 
L 3431 0 
L 469 0 
L 469 531 
Q 828 903 1448 1529 
Q 2069 2156 2228 2338 
Q 2531 2678 2651 2914 
Q 2772 3150 2772 3378 
Q 2772 3750 2511 3984 
Q 2250 4219 1831 4219 
Q 1534 4219 1204 4116 
Q 875 4013 500 3803 
L 500 4441 
Q 881 4594 1212 4672 
Q 1544 4750 1819 4750 
Q 2544 4750 2975 4387 
Q 3406 4025 3406 3419 
Q 3406 3131 3298 2873 
Q 3191 2616 2906 2266 
Q 2828 2175 2409 1742 
Q 1991 1309 1228 531 
z
" transform="scale(0.015625)"/>
       </defs>
       <use xlink:href="#DejaVuSans-33"/>
       <use xlink:href="#DejaVuSans-2e" transform="translate(63.623047 0)"/>
       <use xlink:href="#DejaVuSans-30" transform="translate(95.410156 0)"/>
       <use xlink:href="#DejaVuSans-39" transform="translate(159.033203 0)"/>
       <use xlink:href="#DejaVuSans-32" transform="translate(222.65625 0)"/>
      </g>
     </g>
    </g>
    <g id="xtick_3">
     <g id="line2d_3">
      <g>
       <use xlink:href="#m038a28282a" x="406.529229" y="318.04" style="stroke: #000000; stroke-width: 0.8"/>
      </g>
     </g>
     <g id="text_3">
      <!-- 3.094 -->
      <g transform="translate(392.215167 332.638438) scale(0.1 -0.1)">
       <defs>
        <path id="DejaVuSans-34" d="M 2419 4116 
L 825 1625 
L 2419 1625 
L 2419 4116 
z
M 2253 4666 
L 3047 4666 
L 3047 1625 
L 3713 1625 
L 3713 1100 
L 3047 1100 
L 3047 0 
L 2419 0 
L 2419 1100 
L 313 1100 
L 313 1709 
L 2253 4666 
z
" transform="scale(0.015625)"/>
       </defs>
       <use xlink:href="#DejaVuSans-33"/>
       <use xlink:href="#DejaVuSans-2e" transform="translate(63.623047 0)"/>
       <use xlink:href="#DejaVuSans-30" transform="translate(95.410156 0)"/>
       <use xlink:href="#DejaVuSans-39" transform="translate(159.033203 0)"/>
       <use xlink:href="#DejaVuSans-34" transform="translate(222.65625 0)"/>
      </g>
     </g>
    </g>
    <g id="xtick_4">
     <g id="line2d_4">
      <g>
       <use xlink:href="#m038a28282a" x="566.390771" y="318.04" style="stroke: #000000; stroke-width: 0.8"/>
      </g>
     </g>
     <g id="text_4">
      <!-- 3.096 -->
      <g transform="translate(552.076708 332.638438) scale(0.1 -0.1)">
       <defs>
        <path id="DejaVuSans-36" d="M 2113 2584 
Q 1688 2584 1439 2293 
Q 1191 2003 1191 1497 
Q 1191 994 1439 701 
Q 1688 409 2113 409 
Q 2538 409 2786 701 
Q 3034 994 3034 1497 
Q 3034 2003 2786 2293 
Q 2538 2584 2113 2584 
z
M 3366 4563 
L 3366 3988 
Q 3128 4100 2886 4159 
Q 2644 4219 2406 4219 
Q 1781 4219 1451 3797 
Q 1122 3375 1075 2522 
Q 1259 2794 1537 2939 
Q 1816 3084 2150 3084 
Q 2853 3084 3261 2657 
Q 3669 2231 3669 1497 
Q 3669 778 3244 343 
Q 2819 -91 2113 -91 
Q 1303 -91 875 529 
Q 447 1150 447 2328 
Q 447 3434 972 4092 
Q 1497 4750 2381 4750 
Q 2619 4750 2861 4703 
Q 3103 4656 3366 4563 
z
" transform="scale(0.015625)"/>
       </defs>
       <use xlink:href="#DejaVuSans-33"/>
       <use xlink:href="#DejaVuSans-2e" transform="translate(63.623047 0)"/>
       <use xlink:href="#DejaVuSans-30" transform="translate(95.410156 0)"/>
       <use xlink:href="#DejaVuSans-39" transform="translate(159.033203 0)"/>
       <use xlink:href="#DejaVuSans-36" transform="translate(222.65625 0)"/>
      </g>
     </g>
    </g>
    <g id="xtick_5">
     <g id="line2d_5">
      <g>
       <use xlink:href="#m038a28282a" x="726.252312" y="318.04" style="stroke: #000000; stroke-width: 0.8"/>
      </g>
     </g>
     <g id="text_5">
      <!-- 3.098 -->
      <g transform="translate(711.938249 332.638438) scale(0.1 -0.1)">
       <defs>
        <path id="DejaVuSans-38" d="M 2034 2216 
Q 1584 2216 1326 1975 
Q 1069 1734 1069 1313 
Q 1069 891 1326 650 
Q 1584 409 2034 409 
Q 2484 409 2743 651 
Q 3003 894 3003 1313 
Q 3003 1734 2745 1975 
Q 2488 2216 2034 2216 
z
M 1403 2484 
Q 997 2584 770 2862 
Q 544 3141 544 3541 
Q 544 4100 942 4425 
Q 1341 4750 2034 4750 
Q 2731 4750 3128 4425 
Q 3525 4100 3525 3541 
Q 3525 3141 3298 2862 
Q 3072 2584 2669 2484 
Q 3125 2378 3379 2068 
Q 3634 1759 3634 1313 
Q 3634 634 3220 271 
Q 2806 -91 2034 -91 
Q 1263 -91 848 271 
Q 434 634 434 1313 
Q 434 1759 690 2068 
Q 947 2378 1403 2484 
z
M 1172 3481 
Q 1172 3119 1398 2916 
Q 1625 2713 2034 2713 
Q 2441 2713 2670 2916 
Q 2900 3119 2900 3481 
Q 2900 3844 2670 4047 
Q 2441 4250 2034 4250 
Q 1625 4250 1398 4047 
Q 1172 3844 1172 3481 
z
" transform="scale(0.015625)"/>
       </defs>
       <use xlink:href="#DejaVuSans-33"/>
       <use xlink:href="#DejaVuSans-2e" transform="translate(63.623047 0)"/>
       <use xlink:href="#DejaVuSans-30" transform="translate(95.410156 0)"/>
       <use xlink:href="#DejaVuSans-39" transform="translate(159.033203 0)"/>
       <use xlink:href="#DejaVuSans-38" transform="translate(222.65625 0)"/>
      </g>
     </g>
    </g>
    <g id="xtick_6">
     <g id="line2d_6">
      <g>
       <use xlink:href="#m038a28282a" x="886.113853" y="318.04" style="stroke: #000000; stroke-width: 0.8"/>
      </g>
     </g>
     <g id="text_6">
      <!-- 3.100 -->
      <g transform="translate(871.799791 332.638438) scale(0.1 -0.1)">
       <defs>
        <path id="DejaVuSans-31" d="M 794 531 
L 1825 531 
L 1825 4091 
L 703 3866 
L 703 4441 
L 1819 4666 
L 2450 4666 
L 2450 531 
L 3481 531 
L 3481 0 
L 794 0 
L 794 531 
z
" transform="scale(0.015625)"/>
       </defs>
       <use xlink:href="#DejaVuSans-33"/>
       <use xlink:href="#DejaVuSans-2e" transform="translate(63.623047 0)"/>
       <use xlink:href="#DejaVuSans-31" transform="translate(95.410156 0)"/>
       <use xlink:href="#DejaVuSans-30" transform="translate(159.033203 0)"/>
       <use xlink:href="#DejaVuSans-30" transform="translate(222.65625 0)"/>
      </g>
     </g>
    </g>
    <g id="text_7">
     <!-- chr16 coordinate (hg38) -->
     <g transform="translate(425.670156 346.316563) scale(0.1 -0.1)">
      <defs>
       <path id="DejaVuSans-63" d="M 3122 3366 
L 3122 2828 
Q 2878 2963 2633 3030 
Q 2388 3097 2138 3097 
Q 1578 3097 1268 2742 
Q 959 2388 959 1747 
Q 959 1106 1268 751 
Q 1578 397 2138 397 
Q 2388 397 2633 464 
Q 2878 531 3122 666 
L 3122 134 
Q 2881 22 2623 -34 
Q 2366 -91 2075 -91 
Q 1284 -91 818 406 
Q 353 903 353 1747 
Q 353 2603 823 3093 
Q 1294 3584 2113 3584 
Q 2378 3584 2631 3529 
Q 2884 3475 3122 3366 
z
" transform="scale(0.015625)"/>
       <path id="DejaVuSans-68" d="M 3513 2113 
L 3513 0 
L 2938 0 
L 2938 2094 
Q 2938 2591 2744 2837 
Q 2550 3084 2163 3084 
Q 1697 3084 1428 2787 
Q 1159 2491 1159 1978 
L 1159 0 
L 581 0 
L 581 4863 
L 1159 4863 
L 1159 2956 
Q 1366 3272 1645 3428 
Q 1925 3584 2291 3584 
Q 2894 3584 3203 3211 
Q 3513 2838 3513 2113 
z
" transform="scale(0.015625)"/>
       <path id="DejaVuSans-72" d="M 2631 2963 
Q 2534 3019 2420 3045 
Q 2306 3072 2169 3072 
Q 1681 3072 1420 2755 
Q 1159 2438 1159 1844 
L 1159 0 
L 581 0 
L 581 3500 
L 1159 3500 
L 1159 2956 
Q 1341 3275 1631 3429 
Q 1922 3584 2338 3584 
Q 2397 3584 2469 3576 
Q 2541 3569 2628 3553 
L 2631 2963 
z
" transform="scale(0.015625)"/>
       <path id="DejaVuSans-20" transform="scale(0.015625)"/>
       <path id="DejaVuSans-6f" d="M 1959 3097 
Q 1497 3097 1228 2736 
Q 959 2375 959 1747 
Q 959 1119 1226 758 
Q 1494 397 1959 397 
Q 2419 397 2687 759 
Q 2956 1122 2956 1747 
Q 2956 2369 2687 2733 
Q 2419 3097 1959 3097 
z
M 1959 3584 
Q 2709 3584 3137 3096 
Q 3566 2609 3566 1747 
Q 3566 888 3137 398 
Q 2709 -91 1959 -91 
Q 1206 -91 779 398 
Q 353 888 353 1747 
Q 353 2609 779 3096 
Q 1206 3584 1959 3584 
z
" transform="scale(0.015625)"/>
       <path id="DejaVuSans-64" d="M 2906 2969 
L 2906 4863 
L 3481 4863 
L 3481 0 
L 2906 0 
L 2906 525 
Q 2725 213 2448 61 
Q 2172 -91 1784 -91 
Q 1150 -91 751 415 
Q 353 922 353 1747 
Q 353 2572 751 3078 
Q 1150 3584 1784 3584 
Q 2172 3584 2448 3432 
Q 2725 3281 2906 2969 
z
M 947 1747 
Q 947 1113 1208 752 
Q 1469 391 1925 391 
Q 2381 391 2643 752 
Q 2906 1113 2906 1747 
Q 2906 2381 2643 2742 
Q 2381 3103 1925 3103 
Q 1469 3103 1208 2742 
Q 947 2381 947 1747 
z
" transform="scale(0.015625)"/>
       <path id="DejaVuSans-69" d="M 603 3500 
L 1178 3500 
L 1178 0 
L 603 0 
L 603 3500 
z
M 603 4863 
L 1178 4863 
L 1178 4134 
L 603 4134 
L 603 4863 
z
" transform="scale(0.015625)"/>
       <path id="DejaVuSans-6e" d="M 3513 2113 
L 3513 0 
L 2938 0 
L 2938 2094 
Q 2938 2591 2744 2837 
Q 2550 3084 2163 3084 
Q 1697 3084 1428 2787 
Q 1159 2491 1159 1978 
L 1159 0 
L 581 0 
L 581 3500 
L 1159 3500 
L 1159 2956 
Q 1366 3272 1645 3428 
Q 1925 3584 2291 3584 
Q 2894 3584 3203 3211 
Q 3513 2838 3513 2113 
z
" transform="scale(0.015625)"/>
       <path id="DejaVuSans-61" d="M 2194 1759 
Q 1497 1759 1228 1600 
Q 959 1441 959 1056 
Q 959 750 1161 570 
Q 1363 391 1709 391 
Q 2188 391 2477 730 
Q 2766 1069 2766 1631 
L 2766 1759 
L 2194 1759 
z
M 3341 1997 
L 3341 0 
L 2766 0 
L 2766 531 
Q 2569 213 2275 61 
Q 1981 -91 1556 -91 
Q 1019 -91 701 211 
Q 384 513 384 1019 
Q 384 1609 779 1909 
Q 1175 2209 1959 2209 
L 2766 2209 
L 2766 2266 
Q 2766 2663 2505 2880 
Q 2244 3097 1772 3097 
Q 1472 3097 1187 3025 
Q 903 2953 641 2809 
L 641 3341 
Q 956 3463 1253 3523 
Q 1550 3584 1831 3584 
Q 2591 3584 2966 3190 
Q 3341 2797 3341 1997 
z
" transform="scale(0.015625)"/>
       <path id="DejaVuSans-74" d="M 1172 4494 
L 1172 3500 
L 2356 3500 
L 2356 3053 
L 1172 3053 
L 1172 1153 
Q 1172 725 1289 603 
Q 1406 481 1766 481 
L 2356 481 
L 2356 0 
L 1766 0 
Q 1100 0 847 248 
Q 594 497 594 1153 
L 594 3053 
L 172 3053 
L 172 3500 
L 594 3500 
L 594 4494 
L 1172 4494 
z
" transform="scale(0.015625)"/>
       <path id="DejaVuSans-65" d="M 3597 1894 
L 3597 1613 
L 953 1613 
Q 991 1019 1311 708 
Q 1631 397 2203 397 
Q 2534 397 2845 478 
Q 3156 559 3463 722 
L 3463 178 
Q 3153 47 2828 -22 
Q 2503 -91 2169 -91 
Q 1331 -91 842 396 
Q 353 884 353 1716 
Q 353 2575 817 3079 
Q 1281 3584 2069 3584 
Q 2775 3584 3186 3129 
Q 3597 2675 3597 1894 
z
M 3022 2063 
Q 3016 2534 2758 2815 
Q 2500 3097 2075 3097 
Q 1594 3097 1305 2825 
Q 1016 2553 972 2059 
L 3022 2063 
z
" transform="scale(0.015625)"/>
       <path id="DejaVuSans-28" d="M 1984 4856 
Q 1566 4138 1362 3434 
Q 1159 2731 1159 2009 
Q 1159 1288 1364 580 
Q 1569 -128 1984 -844 
L 1484 -844 
Q 1016 -109 783 600 
Q 550 1309 550 2009 
Q 550 2706 781 3412 
Q 1013 4119 1484 4856 
L 1984 4856 
z
" transform="scale(0.015625)"/>
       <path id="DejaVuSans-67" d="M 2906 1791 
Q 2906 2416 2648 2759 
Q 2391 3103 1925 3103 
Q 1463 3103 1205 2759 
Q 947 2416 947 1791 
Q 947 1169 1205 825 
Q 1463 481 1925 481 
Q 2391 481 2648 825 
Q 2906 1169 2906 1791 
z
M 3481 434 
Q 3481 -459 3084 -895 
Q 2688 -1331 1869 -1331 
Q 1566 -1331 1297 -1286 
Q 1028 -1241 775 -1147 
L 775 -588 
Q 1028 -725 1275 -790 
Q 1522 -856 1778 -856 
Q 2344 -856 2625 -561 
Q 2906 -266 2906 331 
L 2906 616 
Q 2728 306 2450 153 
Q 2172 0 1784 0 
Q 1141 0 747 490 
Q 353 981 353 1791 
Q 353 2603 747 3093 
Q 1141 3584 1784 3584 
Q 2172 3584 2450 3431 
Q 2728 3278 2906 2969 
L 2906 3500 
L 3481 3500 
L 3481 434 
z
" transform="scale(0.015625)"/>
       <path id="DejaVuSans-29" d="M 513 4856 
L 1013 4856 
Q 1481 4119 1714 3412 
Q 1947 2706 1947 2009 
Q 1947 1309 1714 600 
Q 1481 -109 1013 -844 
L 513 -844 
Q 928 -128 1133 580 
Q 1338 1288 1338 2009 
Q 1338 2731 1133 3434 
Q 928 4138 513 4856 
z
" transform="scale(0.015625)"/>
      </defs>
      <use xlink:href="#DejaVuSans-63"/>
      <use xlink:href="#DejaVuSans-68" transform="translate(54.980469 0)"/>
      <use xlink:href="#DejaVuSans-72" transform="translate(118.359375 0)"/>
      <use xlink:href="#DejaVuSans-31" transform="translate(159.472656 0)"/>
      <use xlink:href="#DejaVuSans-36" transform="translate(223.095703 0)"/>
      <use xlink:href="#DejaVuSans-20" transform="translate(286.71875 0)"/>
      <use xlink:href="#DejaVuSans-63" transform="translate(318.505859 0)"/>
      <use xlink:href="#DejaVuSans-6f" transform="translate(373.486328 0)"/>
      <use xlink:href="#DejaVuSans-6f" transform="translate(434.667969 0)"/>
      <use xlink:href="#DejaVuSans-72" transform="translate(495.849609 0)"/>
      <use xlink:href="#DejaVuSans-64" transform="translate(535.212891 0)"/>
      <use xlink:href="#DejaVuSans-69" transform="translate(598.689453 0)"/>
      <use xlink:href="#DejaVuSans-6e" transform="translate(626.472656 0)"/>
      <use xlink:href="#DejaVuSans-61" transform="translate(689.851562 0)"/>
      <use xlink:href="#DejaVuSans-74" transform="translate(751.130859 0)"/>
      <use xlink:href="#DejaVuSans-65" transform="translate(790.339844 0)"/>
      <use xlink:href="#DejaVuSans-20" transform="translate(851.863281 0)"/>
      <use xlink:href="#DejaVuSans-28" transform="translate(883.650391 0)"/>
      <use xlink:href="#DejaVuSans-68" transform="translate(922.664062 0)"/>
      <use xlink:href="#DejaVuSans-67" transform="translate(986.042969 0)"/>
      <use xlink:href="#DejaVuSans-33" transform="translate(1049.519531 0)"/>
      <use xlink:href="#DejaVuSans-38" transform="translate(1113.142578 0)"/>
      <use xlink:href="#DejaVuSans-29" transform="translate(1176.765625 0)"/>
     </g>
    </g>
    <g id="text_8">
     <!-- 1e7 -->
     <g transform="translate(906.321875 345.316563) scale(0.1 -0.1)">
      <defs>
       <path id="DejaVuSans-37" d="M 525 4666 
L 3525 4666 
L 3525 4397 
L 1831 0 
L 1172 0 
L 2766 4134 
L 525 4134 
L 525 4666 
z
" transform="scale(0.015625)"/>
      </defs>
      <use xlink:href="#DejaVuSans-31"/>
      <use xlink:href="#DejaVuSans-65" transform="translate(63.623047 0)"/>
      <use xlink:href="#DejaVuSans-37" transform="translate(125.146484 0)"/>
     </g>
    </g>
   </g>
   <g id="matplotlib.axis_2">
    <g id="ytick_1">
     <g id="line2d_7">
      <defs>
       <path id="md9cab6234d" d="M 0 0 
L -3.5 0 
" style="stroke: #000000; stroke-width: 0.8"/>
      </defs>
      <g>
       <use xlink:href="#md9cab6234d" x="47.72" y="305.843966" style="stroke: #000000; stroke-width: 0.8"/>
      </g>
     </g>
     <g id="text_9">
      <!-- 0.0 -->
      <g transform="translate(24.816875 309.643185) scale(0.1 -0.1)">
       <use xlink:href="#DejaVuSans-30"/>
       <use xlink:href="#DejaVuSans-2e" transform="translate(63.623047 0)"/>
       <use xlink:href="#DejaVuSans-30" transform="translate(95.410156 0)"/>
      </g>
     </g>
    </g>
    <g id="ytick_2">
     <g id="line2d_8">
      <g>
       <use xlink:href="#md9cab6234d" x="47.72" y="257.05983" style="stroke: #000000; stroke-width: 0.8"/>
      </g>
     </g>
     <g id="text_10">
      <!-- 0.2 -->
      <g transform="translate(24.816875 260.859048) scale(0.1 -0.1)">
       <use xlink:href="#DejaVuSans-30"/>
       <use xlink:href="#DejaVuSans-2e" transform="translate(63.623047 0)"/>
       <use xlink:href="#DejaVuSans-32" transform="translate(95.410156 0)"/>
      </g>
     </g>
    </g>
    <g id="ytick_3">
     <g id="line2d_9">
      <g>
       <use xlink:href="#md9cab6234d" x="47.72" y="208.275693" style="stroke: #000000; stroke-width: 0.8"/>
      </g>
     </g>
     <g id="text_11">
      <!-- 0.4 -->
      <g transform="translate(24.816875 212.074912) scale(0.1 -0.1)">
       <use xlink:href="#DejaVuSans-30"/>
       <use xlink:href="#DejaVuSans-2e" transform="translate(63.623047 0)"/>
       <use xlink:href="#DejaVuSans-34" transform="translate(95.410156 0)"/>
      </g>
     </g>
    </g>
    <g id="ytick_4">
     <g id="line2d_10">
      <g>
       <use xlink:href="#md9cab6234d" x="47.72" y="159.491557" style="stroke: #000000; stroke-width: 0.8"/>
      </g>
     </g>
     <g id="text_12">
      <!-- 0.6 -->
      <g transform="translate(24.816875 163.290776) scale(0.1 -0.1)">
       <use xlink:href="#DejaVuSans-30"/>
       <use xlink:href="#DejaVuSans-2e" transform="translate(63.623047 0)"/>
       <use xlink:href="#DejaVuSans-36" transform="translate(95.410156 0)"/>
      </g>
     </g>
    </g>
    <g id="ytick_5">
     <g id="line2d_11">
      <g>
       <use xlink:href="#md9cab6234d" x="47.72" y="110.70742" style="stroke: #000000; stroke-width: 0.8"/>
      </g>
     </g>
     <g id="text_13">
      <!-- 0.8 -->
      <g transform="translate(24.816875 114.506639) scale(0.1 -0.1)">
       <use xlink:href="#DejaVuSans-30"/>
       <use xlink:href="#DejaVuSans-2e" transform="translate(63.623047 0)"/>
       <use xlink:href="#DejaVuSans-38" transform="translate(95.410156 0)"/>
      </g>
     </g>
    </g>
    <g id="ytick_6">
     <g id="line2d_12">
      <g>
       <use xlink:href="#md9cab6234d" x="47.72" y="61.923284" style="stroke: #000000; stroke-width: 0.8"/>
      </g>
     </g>
     <g id="text_14">
      <!-- 1.0 -->
      <g transform="translate(24.816875 65.722503) scale(0.1 -0.1)">
       <use xlink:href="#DejaVuSans-31"/>
       <use xlink:href="#DejaVuSans-2e" transform="translate(63.623047 0)"/>
       <use xlink:href="#DejaVuSans-30" transform="translate(95.410156 0)"/>
      </g>
     </g>
    </g>
    <g id="text_15">
     <!-- global robust normalized signal -->
     <g transform="translate(18.737188 262.384406) rotate(-90) scale(0.1 -0.1)">
      <defs>
       <path id="DejaVuSans-6c" d="M 603 4863 
L 1178 4863 
L 1178 0 
L 603 0 
L 603 4863 
z
" transform="scale(0.015625)"/>
       <path id="DejaVuSans-62" d="M 3116 1747 
Q 3116 2381 2855 2742 
Q 2594 3103 2138 3103 
Q 1681 3103 1420 2742 
Q 1159 2381 1159 1747 
Q 1159 1113 1420 752 
Q 1681 391 2138 391 
Q 2594 391 2855 752 
Q 3116 1113 3116 1747 
z
M 1159 2969 
Q 1341 3281 1617 3432 
Q 1894 3584 2278 3584 
Q 2916 3584 3314 3078 
Q 3713 2572 3713 1747 
Q 3713 922 3314 415 
Q 2916 -91 2278 -91 
Q 1894 -91 1617 61 
Q 1341 213 1159 525 
L 1159 0 
L 581 0 
L 581 4863 
L 1159 4863 
L 1159 2969 
z
" transform="scale(0.015625)"/>
       <path id="DejaVuSans-75" d="M 544 1381 
L 544 3500 
L 1119 3500 
L 1119 1403 
Q 1119 906 1312 657 
Q 1506 409 1894 409 
Q 2359 409 2629 706 
Q 2900 1003 2900 1516 
L 2900 3500 
L 3475 3500 
L 3475 0 
L 2900 0 
L 2900 538 
Q 2691 219 2414 64 
Q 2138 -91 1772 -91 
Q 1169 -91 856 284 
Q 544 659 544 1381 
z
M 1991 3584 
L 1991 3584 
z
" transform="scale(0.015625)"/>
       <path id="DejaVuSans-73" d="M 2834 3397 
L 2834 2853 
Q 2591 2978 2328 3040 
Q 2066 3103 1784 3103 
Q 1356 3103 1142 2972 
Q 928 2841 928 2578 
Q 928 2378 1081 2264 
Q 1234 2150 1697 2047 
L 1894 2003 
Q 2506 1872 2764 1633 
Q 3022 1394 3022 966 
Q 3022 478 2636 193 
Q 2250 -91 1575 -91 
Q 1294 -91 989 -36 
Q 684 19 347 128 
L 347 722 
Q 666 556 975 473 
Q 1284 391 1588 391 
Q 1994 391 2212 530 
Q 2431 669 2431 922 
Q 2431 1156 2273 1281 
Q 2116 1406 1581 1522 
L 1381 1569 
Q 847 1681 609 1914 
Q 372 2147 372 2553 
Q 372 3047 722 3315 
Q 1072 3584 1716 3584 
Q 2034 3584 2315 3537 
Q 2597 3491 2834 3397 
z
" transform="scale(0.015625)"/>
       <path id="DejaVuSans-6d" d="M 3328 2828 
Q 3544 3216 3844 3400 
Q 4144 3584 4550 3584 
Q 5097 3584 5394 3201 
Q 5691 2819 5691 2113 
L 5691 0 
L 5113 0 
L 5113 2094 
Q 5113 2597 4934 2840 
Q 4756 3084 4391 3084 
Q 3944 3084 3684 2787 
Q 3425 2491 3425 1978 
L 3425 0 
L 2847 0 
L 2847 2094 
Q 2847 2600 2669 2842 
Q 2491 3084 2119 3084 
Q 1678 3084 1418 2786 
Q 1159 2488 1159 1978 
L 1159 0 
L 581 0 
L 581 3500 
L 1159 3500 
L 1159 2956 
Q 1356 3278 1631 3431 
Q 1906 3584 2284 3584 
Q 2666 3584 2933 3390 
Q 3200 3197 3328 2828 
z
" transform="scale(0.015625)"/>
       <path id="DejaVuSans-7a" d="M 353 3500 
L 3084 3500 
L 3084 2975 
L 922 459 
L 3084 459 
L 3084 0 
L 275 0 
L 275 525 
L 2438 3041 
L 353 3041 
L 353 3500 
z
" transform="scale(0.015625)"/>
      </defs>
      <use xlink:href="#DejaVuSans-67"/>
      <use xlink:href="#DejaVuSans-6c" transform="translate(63.476562 0)"/>
      <use xlink:href="#DejaVuSans-6f" transform="translate(91.259766 0)"/>
      <use xlink:href="#DejaVuSans-62" transform="translate(152.441406 0)"/>
      <use xlink:href="#DejaVuSans-61" transform="translate(215.917969 0)"/>
      <use xlink:href="#DejaVuSans-6c" transform="translate(277.197266 0)"/>
      <use xlink:href="#DejaVuSans-20" transform="translate(304.980469 0)"/>
      <use xlink:href="#DejaVuSans-72" transform="translate(336.767578 0)"/>
      <use xlink:href="#DejaVuSans-6f" transform="translate(375.630859 0)"/>
      <use xlink:href="#DejaVuSans-62" transform="translate(436.8125 0)"/>
      <use xlink:href="#DejaVuSans-75" transform="translate(500.289062 0)"/>
      <use xlink:href="#DejaVuSans-73" transform="translate(563.667969 0)"/>
      <use xlink:href="#DejaVuSans-74" transform="translate(615.767578 0)"/>
      <use xlink:href="#DejaVuSans-20" transform="translate(654.976562 0)"/>
      <use xlink:href="#DejaVuSans-6e" transform="translate(686.763672 0)"/>
      <use xlink:href="#DejaVuSans-6f" transform="translate(750.142578 0)"/>
      <use xlink:href="#DejaVuSans-72" transform="translate(811.324219 0)"/>
      <use xlink:href="#DejaVuSans-6d" transform="translate(850.6875 0)"/>
      <use xlink:href="#DejaVuSans-61" transform="translate(948.099609 0)"/>
      <use xlink:href="#DejaVuSans-6c" transform="translate(1009.378906 0)"/>
      <use xlink:href="#DejaVuSans-69" transform="translate(1037.162109 0)"/>
      <use xlink:href="#DejaVuSans-7a" transform="translate(1064.945312 0)"/>
      <use xlink:href="#DejaVuSans-65" transform="translate(1117.435547 0)"/>
      <use xlink:href="#DejaVuSans-64" transform="translate(1178.958984 0)"/>
      <use xlink:href="#DejaVuSans-20" transform="translate(1242.435547 0)"/>
      <use xlink:href="#DejaVuSans-73" transform="translate(1274.222656 0)"/>
      <use xlink:href="#DejaVuSans-69" transform="translate(1326.322266 0)"/>
      <use xlink:href="#DejaVuSans-67" transform="translate(1354.105469 0)"/>
      <use xlink:href="#DejaVuSans-6e" transform="translate(1417.582031 0)"/>
      <use xlink:href="#DejaVuSans-61" transform="translate(1480.960938 0)"/>
      <use xlink:href="#DejaVuSans-6c" transform="translate(1542.240234 0)"/>
     </g>
    </g>
   </g>
   <g id="line2d_13">
    <path d="M 87.605455 303.45642 
L 89.20407 303.884149 
L 90.802685 304.973269 
L 92.401301 304.175182 
L 93.999916 303.683188 
L 95.598532 301.172136 
L 97.197147 300.39421 
L 98.795762 298.941094 
L 100.394378 286.29545 
L 101.992993 245.828283 
L 103.591609 191.813339 
L 105.190224 236.15359 
L 106.788839 219.051261 
L 108.387455 270.066371 
L 109.98607 297.474094 
L 111.584686 299.751601 
L 113.183301 302.836801 
L 114.781917 302.964404 
L 116.380532 301.218431 
L 117.979147 301.999935 
L 119.577763 302.077184 
L 121.176378 300.481784 
L 122.774994 301.565673 
L 124.373609 304.112812 
L 125.972224 304.373859 
L 127.57084 302.407976 
L 129.169455 303.048427 
L 130.768071 302.869773 
L 132.366686 301.893983 
L 133.965302 303.165525 
L 135.563917 301.375153 
L 137.162532 303.397472 
L 138.761148 303.103252 
L 140.359763 299.808736 
L 141.958379 304.13393 
L 143.556994 301.975532 
L 145.155609 301.765174 
L 146.754225 301.364658 
L 148.35284 301.633603 
L 149.951456 304.279088 
L 151.550071 302.778023 
L 153.148686 301.575475 
L 154.747302 301.324267 
L 156.345917 305.551207 
L 157.944533 303.901139 
L 159.543148 302.038954 
L 161.141764 300.477654 
L 162.740379 305.496308 
L 164.338994 303.642091 
L 165.93761 302.01352 
L 169.134841 302.202617 
L 170.733456 301.266201 
L 172.332071 303.540441 
L 173.930687 303.891649 
L 175.529302 301.219396 
L 178.726533 300.437188 
L 180.325148 302.85101 
L 181.923764 304.837572 
L 183.522379 303.80067 
L 185.120995 304.398414 
L 186.71961 302.88602 
L 188.318226 303.507552 
L 189.916841 303.931359 
L 191.515456 302.910973 
L 193.114072 304.074231 
L 194.712687 302.018843 
L 196.311303 297.680317 
L 197.909918 301.820116 
L 199.508533 304.093424 
L 201.107149 302.190399 
L 202.705764 302.190394 
L 204.30438 299.323567 
L 205.902995 303.647703 
L 207.50161 302.221684 
L 209.100226 302.308852 
L 210.698841 302.272696 
L 212.297457 302.905038 
L 213.896072 302.178333 
L 215.494688 300.710691 
L 217.093303 300.817761 
L 218.691918 300.705359 
L 220.290534 299.271822 
L 221.889149 298.130002 
L 223.487765 300.065332 
L 225.08638 300.706571 
L 226.684995 298.898615 
L 228.283611 292.718108 
L 229.882226 295.647856 
L 231.480842 300.372457 
L 233.079457 304.505514 
L 234.678073 303.301243 
L 236.276688 302.251318 
L 237.875303 299.394285 
L 239.473919 304.640954 
L 241.072534 305.37889 
L 242.67115 304.723173 
L 244.269765 303.39279 
L 245.86838 301.215019 
L 247.466996 299.485689 
L 249.065611 298.067504 
L 250.664227 300.861589 
L 252.262842 298.875118 
L 253.861457 297.0952 
L 255.460073 299.489347 
L 257.058688 296.944953 
L 258.657304 292.743396 
L 260.255919 282.037853 
L 261.854535 239.141419 
L 263.45315 204.641728 
L 265.051765 198.173021 
L 266.650381 254.222367 
L 268.248996 276.126594 
L 269.847612 119.265285 
L 271.446227 61.923284 
L 273.044842 194.36125 
L 274.643458 228.551205 
L 276.242073 61.923284 
L 281.037919 61.923284 
L 282.636535 162.864187 
L 284.23515 193.007993 
L 285.833766 256.790455 
L 287.432381 272.310897 
L 289.030997 294.94685 
L 290.629612 299.381978 
L 292.228227 298.671462 
L 293.826843 302.90297 
L 295.425458 302.073397 
L 297.024074 298.756159 
L 298.622689 300.778089 
L 300.221304 301.381263 
L 301.81992 304.207331 
L 303.418535 297.948455 
L 305.017151 299.088487 
L 306.615766 299.66453 
L 308.214381 299.737705 
L 309.812997 300.86563 
L 311.411612 296.563434 
L 313.010228 299.179208 
L 314.608843 294.850095 
L 316.207459 295.942853 
L 317.806074 300.240267 
L 321.003305 304.397863 
L 322.60192 301.601963 
L 324.200536 302.63629 
L 325.799151 302.873187 
L 327.397766 302.917673 
L 328.996382 302.116439 
L 330.594997 300.55238 
L 332.193613 302.83507 
L 333.792228 297.487065 
L 335.390844 300.182208 
L 336.989459 300.051372 
L 338.588074 300.624856 
L 340.18669 301.790729 
L 341.785305 304.453101 
L 343.383921 299.318064 
L 344.982536 298.597049 
L 346.581151 300.377165 
L 348.179767 304.156355 
L 349.778382 304.282566 
L 351.376998 302.366861 
L 352.975613 304.349613 
L 354.574228 301.848844 
L 356.172844 304.094231 
L 357.771459 303.219338 
L 359.370075 301.285083 
L 360.96869 304.466304 
L 362.567306 303.739276 
L 364.165921 304.855935 
L 365.764536 301.17254 
L 367.363152 304.818355 
L 368.961767 300.799483 
L 370.560383 300.163553 
L 372.158998 303.347053 
L 373.757613 303.393531 
L 375.356229 299.470588 
L 376.954844 298.794157 
L 378.55346 303.941177 
L 380.152075 305.832505 
L 383.349306 302.234563 
L 384.947921 305.47037 
L 386.546537 301.146214 
L 388.145152 301.53173 
L 389.743768 300.559312 
L 391.342383 304.06437 
L 392.940998 301.683542 
L 394.539614 301.170969 
L 396.138229 302.613475 
L 397.736845 302.669509 
L 399.33546 304.248161 
L 400.934075 304.661445 
L 402.532691 302.93377 
L 404.131306 303.899291 
L 405.729922 300.86669 
L 407.328537 300.262433 
L 408.927152 302.12199 
L 410.525768 300.902735 
L 412.124383 303.01243 
L 413.722999 300.998088 
L 415.321614 302.116043 
L 416.92023 301.926783 
L 418.518845 299.041369 
L 420.11746 297.534113 
L 421.716076 299.084254 
L 423.314691 298.481733 
L 424.913307 292.601921 
L 426.511922 294.330503 
L 428.110537 298.912349 
L 429.709153 296.363912 
L 431.307768 303.495967 
L 432.906384 304.910577 
L 434.504999 304.375885 
L 436.103615 302.49632 
L 437.70223 299.223927 
L 439.300845 300.063091 
L 440.899461 303.060702 
L 442.498076 301.733531 
L 444.096692 302.182993 
L 445.695307 300.203769 
L 447.293922 301.708274 
L 448.892538 303.859284 
L 450.491153 305.241163 
L 452.089769 301.83122 
L 453.688384 302.766472 
L 455.286999 302.29867 
L 456.885615 305.595804 
L 458.48423 303.790331 
L 460.082846 302.90521 
L 461.681461 305.187894 
L 463.280077 302.471031 
L 464.878692 302.352073 
L 466.477307 304.070274 
L 468.075923 305.059411 
L 469.674538 302.165145 
L 471.273154 300.984654 
L 472.871769 286.049081 
L 474.470384 248.006706 
L 476.069 176.142015 
L 477.667615 137.174965 
L 479.266231 162.978908 
L 480.864846 84.267332 
L 482.463461 169.323667 
L 484.062077 161.39289 
L 485.660692 169.881213 
L 487.259308 237.828641 
L 488.857923 279.445287 
L 490.456539 277.282848 
L 492.055154 289.211682 
L 493.653769 297.562766 
L 495.252385 296.552648 
L 496.851 296.690777 
L 498.449616 298.65722 
L 500.048231 301.203845 
L 501.646846 302.893865 
L 503.245462 303.974084 
L 504.844077 303.116342 
L 506.442693 302.088515 
L 508.041308 302.500019 
L 509.639923 301.640008 
L 511.238539 304.15908 
L 512.837154 301.118496 
L 514.43577 295.51459 
L 516.034385 296.911523 
L 517.633001 299.344655 
L 519.231616 297.372596 
L 520.830231 303.518777 
L 522.428847 304.501427 
L 524.027462 301.246604 
L 525.626078 302.775085 
L 527.224693 304.550478 
L 528.823308 302.314849 
L 530.421924 301.809884 
L 532.020539 303.99445 
L 533.619155 305.259134 
L 535.21777 304.54679 
L 536.816385 302.627935 
L 538.415001 298.587326 
L 540.013616 279.403893 
L 541.612232 229.074704 
L 543.210847 216.497307 
L 544.809463 150.245206 
L 546.408078 121.53524 
L 548.006693 217.945317 
L 549.605309 148.173434 
L 551.203924 96.821987 
L 552.80254 133.703793 
L 554.401155 103.373995 
L 555.99977 112.633605 
L 557.598386 205.95687 
L 559.197001 265.599621 
L 560.795617 289.42319 
L 562.394232 297.746391 
L 567.190078 298.382758 
L 570.387309 300.132872 
L 571.985925 301.642448 
L 573.58454 303.394994 
L 575.183155 302.039349 
L 576.781771 303.340071 
L 578.380386 302.967348 
L 579.979002 302.386303 
L 581.577617 303.159383 
L 583.176232 301.108726 
L 584.774848 301.518105 
L 586.373463 300.820797 
L 587.972079 301.871503 
L 589.570694 303.25497 
L 591.16931 298.20451 
L 592.767925 300.023821 
L 594.36654 300.155992 
L 595.965156 301.429303 
L 597.563771 300.803685 
L 599.162387 304.131365 
L 600.761002 304.821136 
L 602.359617 302.388851 
L 603.958233 305.442489 
L 605.556848 303.968867 
L 607.155464 305.249125 
L 608.754079 302.80797 
L 610.352694 300.076528 
L 611.95131 303.831146 
L 613.549925 300.519114 
L 615.148541 300.630112 
L 616.747156 302.055137 
L 618.345772 302.508827 
L 619.944387 300.658137 
L 621.543002 300.073676 
L 623.141618 301.912629 
L 624.740233 302.788158 
L 626.338849 302.152874 
L 627.937464 299.931251 
L 629.536079 299.189444 
L 631.134695 297.739578 
L 632.73331 297.109838 
L 634.331926 298.923689 
L 635.930541 303.577157 
L 637.529156 304.559383 
L 639.127772 298.565976 
L 640.726387 299.125711 
L 642.325003 303.878401 
L 643.923618 301.950197 
L 645.522234 304.204227 
L 647.120849 304.209308 
L 648.719464 303.355393 
L 650.31808 300.763117 
L 651.916695 302.382751 
L 653.515311 304.393969 
L 655.113926 302.230035 
L 656.712541 304.470148 
L 658.311157 300.342256 
L 659.909772 300.909005 
L 661.508388 304.654027 
L 663.107003 305.675743 
L 666.304234 300.677405 
L 667.902849 302.278889 
L 669.501465 301.683122 
L 671.10008 303.568506 
L 672.698696 302.128113 
L 675.895926 300.73628 
L 677.494542 302.464999 
L 679.093157 303.538699 
L 680.691773 298.28508 
L 682.290388 299.947645 
L 683.889003 299.843952 
L 685.487619 300.598435 
L 687.086234 300.623016 
L 688.68485 303.795969 
L 690.283465 302.565254 
L 691.882081 302.456482 
L 693.480696 304.580524 
L 695.079311 302.800195 
L 696.677927 301.465954 
L 698.276542 300.702112 
L 699.875158 301.379166 
L 701.473773 304.185 
L 703.072388 303.970116 
L 704.671004 301.625106 
L 706.269619 299.989096 
L 707.868235 301.745148 
L 709.46685 302.857349 
L 711.065465 301.001207 
L 714.262696 303.646745 
L 715.861312 299.546207 
L 717.459927 300.368995 
L 719.058543 302.042256 
L 720.657158 302.147924 
L 722.255773 298.988158 
L 723.854389 303.166306 
L 725.453004 302.324608 
L 727.05162 303.4774 
L 728.650235 301.873239 
L 730.24885 301.49506 
L 731.847466 303.794567 
L 733.446081 304.579919 
L 735.044697 301.624039 
L 736.643312 301.429911 
L 738.241927 304.048027 
L 739.840543 303.229264 
L 741.439158 300.671621 
L 743.037774 301.153488 
L 744.636389 301.25868 
L 747.83362 304.306284 
L 749.432235 301.796281 
L 751.030851 301.752086 
L 752.629466 305.624708 
L 754.228082 305.008367 
L 755.826697 301.684154 
L 759.023928 302.645769 
L 760.622543 302.019911 
L 762.221159 303.243516 
L 763.819774 300.605126 
L 765.41839 294.219345 
L 767.017005 285.321533 
L 768.61562 220.83851 
L 770.214236 243.700557 
L 771.812851 274.305745 
L 773.411467 283.012022 
L 775.010082 290.437383 
L 776.608697 295.076556 
L 778.207313 299.07926 
L 779.805928 298.448302 
L 781.404544 300.524881 
L 783.003159 304.376432 
L 784.601774 305.387896 
L 786.20039 300.585417 
L 787.799005 302.584637 
L 789.397621 303.334464 
L 790.996236 303.776683 
L 792.594852 304.612846 
L 794.193467 304.727739 
L 795.792082 300.944781 
L 797.390698 303.693314 
L 798.989313 303.983717 
L 800.587929 302.848586 
L 802.186544 305.381515 
L 803.785159 304.678735 
L 805.383775 302.284255 
L 806.98239 302.629766 
L 808.581006 303.232254 
L 810.179621 299.855448 
L 811.778236 297.253945 
L 813.376852 298.071166 
L 814.975467 300.067711 
L 816.574083 298.759252 
L 818.172698 297.664517 
L 819.771314 303.977077 
L 821.369929 303.34445 
L 822.968544 302.96633 
L 824.56716 304.347101 
L 826.165775 300.122135 
L 827.764391 299.030778 
L 829.363006 302.008869 
L 830.961621 301.311585 
L 832.560237 296.035088 
L 834.158852 301.379176 
L 835.757468 304.771941 
L 837.356083 303.305827 
L 838.954698 303.302846 
L 840.553314 299.432881 
L 842.151929 300.690265 
L 843.750545 301.042949 
L 845.34916 300.153412 
L 846.947776 301.269111 
L 848.546391 296.470904 
L 850.145006 296.494862 
L 851.743622 301.171042 
L 853.342237 298.73287 
L 854.940853 284.32949 
L 856.539468 247.590935 
L 858.138083 214.275753 
L 859.736699 205.45129 
L 861.335314 107.471162 
L 862.93393 181.952794 
L 864.532545 246.019945 
L 866.131161 198.2545 
L 867.729776 194.873363 
L 869.328391 258.740287 
L 870.927007 284.328526 
L 872.525622 295.080773 
L 874.124238 293.567 
L 875.722853 296.498998 
L 877.321468 297.797276 
L 878.920084 299.496795 
L 880.518699 294.659997 
L 882.117315 294.538993 
L 883.71593 298.559535 
L 885.314545 299.754357 
L 885.314545 299.754357 
" clip-path="url(#paf1bd53643)" style="fill: none; stroke: #2ca02c; stroke-width: 1.2; stroke-linecap: square"/>
   </g>
   <g id="line2d_14">
    <path d="M 87.605455 303.393313 
L 89.20407 303.085449 
L 92.401301 302.611371 
L 93.999916 302.364097 
L 95.598532 301.623912 
L 97.197147 300.369529 
L 98.795762 296.878217 
L 100.394378 283.581101 
L 101.992993 255.172435 
L 103.591609 220.940549 
L 105.190224 237.604521 
L 106.788839 221.569378 
L 108.387455 257.805657 
L 109.98607 284.792907 
L 111.584686 297.78871 
L 113.183301 300.531649 
L 116.380532 302.380472 
L 117.979147 303.233649 
L 119.577763 303.317166 
L 121.176378 303.986934 
L 122.774994 304.317725 
L 124.373609 303.89523 
L 125.972224 303.643043 
L 129.169455 304.108115 
L 130.768071 303.851016 
L 132.366686 303.212361 
L 133.965302 303.701996 
L 135.563917 303.90178 
L 137.162532 303.328629 
L 138.761148 303.102643 
L 140.359763 303.374481 
L 141.958379 303.838734 
L 143.556994 303.860022 
L 145.155609 303.656144 
L 146.754225 303.810076 
L 148.35284 303.843646 
L 149.951456 303.542333 
L 151.550071 303.503031 
L 153.148686 304.007404 
L 154.747302 305.171721 
L 156.345917 305.371505 
L 157.944533 304.455281 
L 159.543148 303.756036 
L 161.141764 303.803526 
L 162.740379 304.64524 
L 164.338994 304.347201 
L 165.93761 303.417058 
L 167.536225 303.638131 
L 169.134841 304.04425 
L 170.733456 304.249765 
L 173.930687 303.764224 
L 175.529302 303.706909 
L 177.127918 303.788788 
L 178.726533 303.99021 
L 180.325148 305.016151 
L 181.923764 305.843966 
L 185.120995 305.843966 
L 186.71961 305.580296 
L 189.916841 304.072907 
L 191.515456 303.792882 
L 193.114072 304.01723 
L 196.311303 304.730394 
L 197.909918 305.62451 
L 199.508533 305.843945 
L 201.107149 304.229296 
L 202.705764 303.41542 
L 204.30438 303.813351 
L 207.50161 303.303246 
L 209.100226 303.371206 
L 210.698841 303.839553 
L 213.896072 303.117382 
L 215.494688 302.938886 
L 217.093303 302.631022 
L 218.691918 302.776766 
L 220.290534 303.299153 
L 223.487765 302.742377 
L 225.08638 302.342808 
L 228.283611 302.116823 
L 229.882226 302.82098 
L 231.480842 304.706649 
L 233.079457 304.711562 
L 234.678073 302.883208 
L 236.276688 303.688896 
L 237.875303 305.287988 
L 241.072534 304.94901 
L 244.269765 303.159959 
L 245.86838 303.250025 
L 247.466996 303.498937 
L 249.065611 303.071529 
L 252.262842 302.739102 
L 253.861457 302.06442 
L 255.460073 300.741259 
L 257.058688 298.623873 
L 258.657304 292.643446 
L 260.255919 283.725208 
L 261.854535 219.820447 
L 263.45315 166.677834 
L 265.051765 174.695406 
L 266.650381 225.997383 
L 268.248996 264.827582 
L 269.847612 190.599543 
L 271.446227 151.454929 
L 273.044842 228.938469 
L 274.643458 246.532585 
L 276.242073 93.733654 
L 277.840689 61.923284 
L 279.439304 74.921182 
L 281.037919 119.568051 
L 282.636535 212.084538 
L 284.23515 244.587144 
L 285.833766 272.412834 
L 287.432381 286.116069 
L 289.030997 295.980826 
L 290.629612 299.465587 
L 292.228227 301.137552 
L 293.826843 302.025118 
L 295.425458 302.05132 
L 297.024074 301.939965 
L 298.622689 302.287131 
L 300.221304 302.437788 
L 301.81992 301.725442 
L 303.418535 301.699241 
L 305.017151 301.280021 
L 306.615766 299.124972 
L 308.214381 294.097614 
L 309.812997 295.722089 
L 311.411612 302.477089 
L 313.010228 302.454163 
L 314.608843 300.109155 
L 316.207459 300.11243 
L 317.806074 301.309498 
L 319.404689 301.525658 
L 321.003305 301.933414 
L 324.200536 303.538239 
L 325.799151 303.937807 
L 327.397766 303.918975 
L 328.996382 304.046706 
L 330.594997 303.695446 
L 332.193613 303.130482 
L 333.792228 302.966725 
L 335.390844 303.153408 
L 338.588074 302.640847 
L 340.18669 302.811155 
L 341.785305 303.412145 
L 343.383921 303.012577 
L 344.982536 302.283855 
L 346.581151 302.362459 
L 348.179767 302.857007 
L 351.376998 304.634596 
L 352.975613 304.466744 
L 354.574228 303.636493 
L 356.172844 303.574265 
L 357.771459 303.906693 
L 359.370075 303.331904 
L 360.96869 303.498937 
L 362.567306 304.285792 
L 364.165921 302.538499 
L 365.764536 301.46343 
L 367.363152 301.332424 
L 368.961767 302.120098 
L 370.560383 301.599349 
L 372.158998 301.605899 
L 373.757613 302.398486 
L 375.356229 302.041494 
L 376.954844 302.500015 
L 378.55346 304.196544 
L 380.152075 305.377236 
L 381.75069 304.406973 
L 383.349306 302.897128 
L 384.947921 302.460714 
L 386.546537 302.408311 
L 389.743768 302.614646 
L 391.342383 302.92251 
L 392.940998 302.608095 
L 394.539614 302.513116 
L 396.138229 303.423608 
L 397.736845 303.087905 
L 399.33546 303.159959 
L 400.934075 303.602104 
L 402.532691 302.344446 
L 405.729922 299.344407 
L 407.328537 300.385905 
L 408.927152 300.906654 
L 410.525768 300.636454 
L 412.124383 300.859164 
L 413.722999 301.522383 
L 415.321614 301.447054 
L 416.92023 301.0917 
L 418.518845 300.338415 
L 420.11746 299.090583 
L 421.716076 298.402801 
L 423.314691 299.386984 
L 424.913307 289.862842 
L 426.511922 291.785356 
L 428.110537 296.809439 
L 429.709153 297.340014 
L 431.307768 298.414264 
L 434.504999 304.894151 
L 436.103615 302.832443 
L 437.70223 300.985258 
L 439.300845 301.650114 
L 440.899461 301.944877 
L 442.498076 301.325874 
L 444.096692 301.067137 
L 445.695307 301.18668 
L 448.892538 302.784954 
L 450.491153 303.995122 
L 453.688384 303.110831 
L 455.286999 302.94953 
L 456.885615 303.55052 
L 458.48423 303.408051 
L 460.082846 303.511219 
L 461.681461 303.884586 
L 464.878692 303.380213 
L 466.477307 303.501393 
L 468.075923 302.827531 
L 469.674538 299.670284 
L 471.273154 295.954625 
L 472.871769 294.13364 
L 474.470384 271.194477 
L 476.069 199.141139 
L 477.667615 151.69074 
L 479.266231 134.817158 
L 480.864846 92.895215 
L 485.660692 209.359612 
L 487.259308 261.015306 
L 488.857923 284.033072 
L 490.456539 285.637897 
L 492.055154 294.028835 
L 493.653769 298.794181 
L 495.252385 300.811675 
L 496.851 300.900104 
L 498.449616 301.201418 
L 500.048231 301.340612 
L 501.646846 301.776207 
L 503.245462 302.872564 
L 504.844077 303.453903 
L 506.442693 302.7129 
L 508.041308 302.798054 
L 509.639923 303.119019 
L 511.238539 302.555693 
L 512.837154 302.662135 
L 514.43577 302.082434 
L 516.034385 301.936689 
L 517.633001 301.576423 
L 519.231616 300.828051 
L 520.830231 301.879374 
L 522.428847 302.38211 
L 524.027462 302.565519 
L 525.626078 302.444338 
L 527.224693 302.791504 
L 528.823308 303.010939 
L 530.421924 304.11794 
L 532.020539 304.095833 
L 533.619155 303.046147 
L 535.21777 301.72708 
L 536.816385 299.932297 
L 538.415001 295.299594 
L 540.013616 280.600713 
L 541.612232 245.229074 
L 543.210847 226.337999 
L 544.809463 170.241199 
L 546.408078 138.852145 
L 548.006693 186.040531 
L 549.605309 99.576525 
L 551.203924 70.466976 
L 552.80254 71.41022 
L 554.401155 110.397626 
L 555.99977 171.918077 
L 557.598386 243.336036 
L 559.197001 281.196791 
L 560.795617 293.072491 
L 562.394232 297.094378 
L 563.992848 299.310018 
L 565.591463 300.066578 
L 567.190078 300.469421 
L 568.788694 301.055674 
L 570.387309 301.332424 
L 571.985925 302.660498 
L 573.58454 303.07808 
L 575.183155 302.450888 
L 576.781771 302.136474 
L 579.979002 302.332983 
L 581.577617 302.486915 
L 583.176232 303.296696 
L 584.774848 303.091999 
L 586.373463 302.480365 
L 587.972079 302.513116 
L 591.16931 302.223265 
L 592.767925 302.567156 
L 594.36654 302.583532 
L 595.965156 303.733929 
L 597.563771 304.713199 
L 600.761002 303.077261 
L 603.958233 303.737204 
L 605.556848 303.714278 
L 607.155464 303.542333 
L 608.754079 303.102643 
L 610.352694 303.426883 
L 611.95131 304.393872 
L 613.549925 303.959914 
L 615.148541 303.297515 
L 616.747156 302.992926 
L 621.543002 303.150133 
L 624.740233 304.732031 
L 626.338849 303.264763 
L 627.937464 302.539317 
L 631.134695 302.522942 
L 632.73331 303.122294 
L 634.331926 304.202276 
L 635.930541 304.343107 
L 637.529156 303.40887 
L 639.127772 302.870108 
L 643.923618 302.92251 
L 645.522234 303.259851 
L 647.120849 304.257134 
L 648.719464 304.59775 
L 650.31808 303.655325 
L 651.916695 302.890577 
L 653.515311 302.762028 
L 655.113926 302.906134 
L 656.712541 303.182066 
L 658.311157 303.206629 
L 659.909772 302.575344 
L 663.107003 302.197064 
L 664.705619 302.979825 
L 666.304234 304.211282 
L 667.902849 304.036062 
L 669.501465 303.194348 
L 671.10008 302.789866 
L 672.698696 302.744014 
L 674.297311 303.019127 
L 675.895926 303.102643 
L 677.494542 302.850457 
L 680.691773 303.159959 
L 682.290388 303.200898 
L 685.487619 304.392234 
L 687.086234 304.274329 
L 688.68485 303.88213 
L 690.283465 303.775687 
L 691.882081 303.171422 
L 693.480696 303.068254 
L 695.079311 303.470279 
L 701.473773 303.188616 
L 703.072388 303.468642 
L 704.671004 302.945436 
L 706.269619 302.545868 
L 707.868235 302.716176 
L 709.46685 303.109194 
L 711.065465 304.369308 
L 712.664081 303.964827 
L 714.262696 302.906134 
L 715.861312 302.834081 
L 719.058543 304.312812 
L 720.657158 304.537979 
L 722.255773 304.388959 
L 723.854389 304.362758 
L 725.453004 304.668985 
L 727.05162 304.25304 
L 728.650235 303.245931 
L 730.24885 303.374481 
L 731.847466 303.741298 
L 735.044697 303.206629 
L 736.643312 303.331904 
L 738.241927 304.15888 
L 739.840543 303.66597 
L 741.439158 303.048603 
L 743.037774 303.584091 
L 744.636389 304.892514 
L 746.235005 304.790984 
L 747.83362 303.308978 
L 749.432235 303.203354 
L 751.030851 303.331085 
L 755.826697 303.458816 
L 757.425312 303.270495 
L 759.023928 302.663773 
L 760.622543 301.851535 
L 762.221159 300.793661 
L 763.819774 299.218313 
L 765.41839 294.526659 
L 767.017005 287.891201 
L 768.61562 220.049707 
L 770.214236 215.307288 
L 771.812851 243.447392 
L 773.411467 267.290496 
L 775.010082 282.670609 
L 776.608697 289.856292 
L 779.805928 297.644603 
L 781.404544 299.488513 
L 783.003159 299.311655 
L 784.601774 300.205772 
L 787.799005 302.964268 
L 789.397621 304.022142 
L 792.594852 303.679889 
L 794.193467 303.597191 
L 802.186544 304.654247 
L 805.383775 304.274329 
L 806.98239 304.270235 
L 808.581006 304.38814 
L 810.179621 304.265322 
L 813.376852 303.6455 
L 814.975467 303.347461 
L 816.574083 303.493205 
L 819.771314 304.279242 
L 821.369929 303.997579 
L 822.968544 303.462091 
L 824.56716 303.422789 
L 826.165775 303.896868 
L 827.764391 304.617401 
L 829.363006 304.351295 
L 830.961621 303.900962 
L 834.158852 302.463989 
L 837.356083 302.239641 
L 838.954698 301.948152 
L 842.151929 298.401163 
L 843.750545 299.773452 
L 845.34916 297.051801 
L 846.947776 297.359665 
L 848.546391 298.643524 
L 850.145006 300.903379 
L 851.743622 301.489631 
L 853.342237 299.328031 
L 854.940853 295.446976 
L 856.539468 282.235014 
L 858.138083 265.652921 
L 859.736699 232.875202 
L 861.335314 176.08407 
L 862.93393 172.101486 
L 864.532545 230.962513 
L 866.131161 222.866338 
L 867.729776 224.490813 
L 869.328391 262.456372 
L 870.927007 284.530895 
L 872.525622 293.458959 
L 874.124238 293.200222 
L 875.722853 293.645643 
L 877.321468 294.903301 
L 878.920084 298.332385 
L 880.518699 300.286013 
L 882.117315 300.672481 
L 885.314545 302.062783 
L 885.314545 302.062783 
" clip-path="url(#paf1bd53643)" style="fill: none; stroke: #000000; stroke-width: 1.2; stroke-linecap: square"/>
   </g>
   <g id="line2d_15">
    <path d="M 87.605455 263.286734 
L 89.20407 260.31921 
L 90.802685 266.821175 
L 92.401301 275.037348 
L 93.999916 266.772749 
L 95.598532 267.505193 
L 97.197147 264.094833 
L 98.795762 263.777261 
L 100.394378 246.933437 
L 101.992993 246.164763 
L 103.591609 144.638492 
L 105.190224 61.923284 
L 106.788839 145.23323 
L 108.387455 216.301225 
L 109.98607 258.769485 
L 111.584686 250.77347 
L 113.183301 240.355077 
L 114.781917 269.675836 
L 116.380532 253.459887 
L 117.979147 257.233486 
L 119.577763 249.134468 
L 121.176378 247.56788 
L 122.774994 246.886996 
L 124.373609 252.481301 
L 125.972224 254.084849 
L 127.57084 267.936392 
L 129.169455 264.648163 
L 130.768071 279.594811 
L 132.366686 262.729182 
L 133.965302 276.456364 
L 137.162532 249.090744 
L 138.761148 257.503897 
L 140.359763 255.604181 
L 141.958379 264.340708 
L 143.556994 251.24411 
L 145.155609 251.967112 
L 146.754225 237.653817 
L 148.35284 260.336937 
L 149.951456 256.564833 
L 151.550071 265.059275 
L 153.148686 262.239395 
L 154.747302 258.311625 
L 156.345917 264.205166 
L 157.944533 264.096418 
L 159.543148 253.623419 
L 161.141764 259.13324 
L 162.740379 257.792504 
L 164.338994 247.652321 
L 165.93761 262.59424 
L 167.536225 239.521189 
L 169.134841 219.514298 
L 170.733456 220.015312 
L 172.332071 222.605552 
L 173.930687 236.037443 
L 175.529302 239.946781 
L 177.127918 233.739634 
L 178.726533 252.508637 
L 180.325148 248.018977 
L 181.923764 250.913306 
L 183.522379 244.733392 
L 185.120995 245.857545 
L 186.71961 237.947996 
L 188.318226 246.140758 
L 189.916841 238.247734 
L 191.515456 245.748761 
L 193.114072 250.323293 
L 194.712687 245.28956 
L 196.311303 258.248039 
L 197.909918 265.252744 
L 199.508533 264.814662 
L 201.107149 257.01676 
L 202.705764 265.676986 
L 204.30438 265.298815 
L 205.902995 254.921467 
L 207.50161 242.503236 
L 209.100226 256.570297 
L 210.698841 245.432036 
L 212.297457 270.908972 
L 213.896072 280.181177 
L 217.093303 259.054665 
L 218.691918 254.551914 
L 220.290534 266.242442 
L 221.889149 257.782883 
L 223.487765 279.593563 
L 225.08638 260.601349 
L 226.684995 235.334829 
L 228.283611 252.285221 
L 229.882226 266.50747 
L 231.480842 273.501692 
L 233.079457 258.683984 
L 234.678073 265.105915 
L 236.276688 263.103379 
L 237.875303 277.153701 
L 239.473919 260.587539 
L 241.072534 283.680441 
L 242.67115 266.436483 
L 244.269765 283.188347 
L 245.86838 285.130118 
L 247.466996 288.213963 
L 249.065611 282.260089 
L 250.664227 283.979798 
L 252.262842 284.706536 
L 253.861457 271.79659 
L 255.460073 260.722744 
L 257.058688 264.230273 
L 258.657304 264.10543 
L 260.255919 163.917323 
L 261.854535 203.794835 
L 263.45315 218.263219 
L 265.051765 126.07714 
L 266.650381 74.721634 
L 268.248996 61.923284 
L 269.847612 137.369903 
L 271.446227 105.337465 
L 273.044842 61.923284 
L 274.643458 61.923284 
L 276.242073 213.465475 
L 277.840689 208.468952 
L 279.439304 113.037462 
L 281.037919 135.181467 
L 282.636535 163.319944 
L 284.23515 211.342911 
L 285.833766 241.756243 
L 287.432381 219.193051 
L 289.030997 254.89586 
L 290.629612 232.077458 
L 292.228227 252.378704 
L 293.826843 275.869153 
L 295.425458 285.004995 
L 297.024074 278.108524 
L 298.622689 285.886766 
L 300.221304 264.377523 
L 301.81992 279.782641 
L 303.418535 280.315567 
L 305.017151 278.540917 
L 306.615766 250.94281 
L 308.214381 234.162665 
L 309.812997 237.105359 
L 311.411612 180.972002 
L 313.010228 231.267362 
L 314.608843 266.237678 
L 316.207459 230.836639 
L 317.806074 287.052734 
L 319.404689 293.832595 
L 321.003305 285.83889 
L 322.60192 250.052432 
L 324.200536 296.661597 
L 325.799151 290.030922 
L 327.397766 280.218871 
L 328.996382 223.947828 
L 332.193613 283.569829 
L 333.792228 287.412026 
L 335.390844 212.345228 
L 336.989459 233.571249 
L 338.588074 262.109931 
L 340.18669 248.56923 
L 341.785305 258.613987 
L 343.383921 280.663793 
L 344.982536 289.354975 
L 346.581151 272.439961 
L 348.179767 252.363373 
L 349.778382 260.746656 
L 351.376998 266.540805 
L 352.975613 230.701484 
L 354.574228 251.840466 
L 356.172844 251.798835 
L 357.771459 288.652846 
L 359.370075 249.610682 
L 360.96869 288.646322 
L 362.567306 248.314456 
L 364.165921 271.663607 
L 365.764536 284.212347 
L 367.363152 268.231411 
L 368.961767 272.62112 
L 370.560383 260.928974 
L 372.158998 256.575375 
L 373.757613 263.23042 
L 375.356229 244.658228 
L 376.954844 277.007226 
L 378.55346 300.137038 
L 380.152075 291.958956 
L 381.75069 284.788657 
L 383.349306 251.952454 
L 384.947921 279.38082 
L 386.546537 258.504564 
L 388.145152 258.68868 
L 389.743768 280.443906 
L 391.342383 283.44734 
L 392.940998 275.417185 
L 394.539614 251.582837 
L 396.138229 272.384489 
L 397.736845 268.034055 
L 399.33546 278.117445 
L 400.934075 290.167527 
L 402.532691 296.732299 
L 404.131306 268.648414 
L 405.729922 269.722629 
L 407.328537 264.846902 
L 408.927152 254.036189 
L 410.525768 276.66316 
L 412.124383 266.727341 
L 413.722999 247.706861 
L 415.321614 269.452348 
L 416.92023 299.849059 
L 420.11746 239.784247 
L 421.716076 264.180901 
L 423.314691 156.353682 
L 424.913307 193.631239 
L 426.511922 259.432131 
L 428.110537 261.700573 
L 429.709153 232.57105 
L 431.307768 281.258159 
L 432.906384 263.285052 
L 434.504999 294.831753 
L 436.103615 244.13742 
L 437.70223 252.091059 
L 439.300845 275.638442 
L 440.899461 270.183158 
L 442.498076 257.843718 
L 444.096692 248.215042 
L 445.695307 249.987444 
L 447.293922 274.099601 
L 448.892538 270.356954 
L 450.491153 267.407783 
M 599.162387 183.710849 
L 602.359617 265.54886 
L 603.958233 247.620504 
L 605.556848 259.501514 
L 607.155464 220.956215 
L 608.754079 267.505962 
L 610.352694 253.212447 
L 611.95131 270.04905 
L 613.549925 278.478931 
L 615.148541 251.495809 
L 616.747156 270.241121 
L 618.345772 202.610212 
L 619.944387 253.024824 
L 621.543002 276.643577 
L 623.141618 262.676175 
L 624.740233 280.249427 
L 626.338849 284.452106 
L 627.937464 289.972378 
L 629.536079 269.561575 
L 631.134695 286.04433 
L 632.73331 284.856125 
L 634.331926 299.781349 
L 635.930541 296.134925 
L 637.529156 289.292808 
L 639.127772 294.759305 
L 640.726387 280.747669 
L 642.325003 275.475219 
L 643.923618 272.97366 
L 645.522234 278.005487 
L 647.120849 284.343344 
L 648.719464 281.513799 
L 650.31808 286.433524 
L 651.916695 283.844929 
L 653.515311 287.696682 
L 655.113926 269.515636 
L 656.712541 278.204096 
L 658.311157 281.519231 
L 659.909772 280.641812 
L 661.508388 286.828829 
L 663.107003 290.046852 
L 664.705619 279.323962 
L 666.304234 286.808019 
L 667.902849 284.479203 
L 669.501465 280.810732 
L 671.10008 269.675308 
L 672.698696 285.6417 
L 674.297311 285.476869 
L 675.895926 268.690233 
L 677.494542 273.431905 
L 679.093157 281.501859 
L 680.691773 271.664716 
L 682.290388 264.869541 
L 683.889003 275.609617 
L 685.487619 288.240261 
L 687.086234 287.933231 
L 688.68485 281.021619 
L 690.283465 264.091032 
L 691.882081 285.462347 
L 693.480696 274.582346 
L 695.079311 275.422012 
L 696.677927 264.385282 
L 698.276542 258.973146 
L 699.875158 261.564873 
L 701.473773 278.99156 
L 703.072388 275.39221 
L 704.671004 276.64886 
L 707.868235 225.477651 
L 709.46685 277.112006 
L 711.065465 280.55156 
L 712.664081 285.850696 
L 714.262696 286.003315 
L 715.861312 288.531023 
L 717.459927 273.928151 
L 719.058543 268.997119 
L 720.657158 266.7336 
L 722.255773 252.997433 
L 723.854389 266.804908 
L 725.453004 260.995328 
L 727.05162 276.384707 
L 728.650235 256.976727 
L 730.24885 273.30316 
L 731.847466 254.986063 
L 733.446081 246.242038 
L 735.044697 265.257365 
L 736.643312 256.346554 
L 738.241927 268.220493 
L 739.840543 271.339676 
L 741.439158 273.786414 
L 743.037774 278.231484 
L 744.636389 271.963902 
L 747.83362 278.915914 
L 749.432235 275.882441 
L 751.030851 270.445285 
L 752.629466 260.757042 
L 754.228082 233.563857 
L 755.826697 265.027941 
L 757.425312 265.129383 
L 759.023928 268.293817 
L 760.622543 265.207133 
L 762.221159 261.845105 
L 763.819774 266.273965 
L 765.41839 235.928197 
L 767.017005 128.2363 
L 768.61562 217.380537 
L 770.214236 259.816029 
L 771.812851 258.251543 
L 773.411467 249.202416 
L 775.010082 248.124357 
L 776.608697 258.80409 
L 778.207313 262.720341 
L 779.805928 265.11374 
L 781.404544 252.161777 
L 783.003159 267.643834 
L 784.601774 269.552741 
L 786.20039 268.432853 
L 787.799005 248.262183 
L 789.397621 256.435571 
L 790.996236 265.500087 
L 794.193467 274.024806 
L 795.792082 264.310486 
L 797.390698 266.442471 
L 798.989313 260.260892 
L 800.587929 254.749795 
L 802.186544 270.960041 
L 803.785159 277.562325 
L 805.383775 270.443654 
L 806.98239 277.830867 
L 808.581006 273.161243 
L 810.179621 276.589924 
L 811.778236 274.115476 
L 813.376852 245.691971 
L 814.975467 257.592221 
L 816.574083 241.636841 
L 818.172698 260.276618 
L 819.771314 276.381496 
L 821.369929 281.931442 
L 822.968544 265.433517 
L 824.56716 268.896303 
L 826.165775 268.001792 
L 827.764391 256.573679 
L 829.363006 260.690757 
L 830.961621 266.176438 
L 832.560237 257.783948 
L 834.158852 277.790957 
L 835.757468 272.37254 
L 837.356083 267.804778 
L 838.954698 273.505546 
L 840.553314 267.589196 
L 842.151929 260.786195 
L 843.750545 230.782848 
L 845.34916 258.025136 
L 846.947776 273.772373 
L 848.546391 270.393399 
L 850.145006 254.499183 
L 853.342237 270.928716 
L 854.940853 263.18424 
L 856.539468 231.894952 
L 858.138083 182.240508 
L 859.736699 161.920193 
L 861.335314 170.151603 
L 862.93393 171.964477 
L 864.532545 61.923284 
L 866.131161 108.719383 
L 867.729776 185.40823 
L 870.927007 224.242096 
L 872.525622 162.432885 
L 874.124238 243.994998 
L 875.722853 238.442847 
L 877.321468 246.600431 
L 878.920084 259.8673 
L 880.518699 244.298758 
L 882.117315 251.368273 
L 883.71593 263.535647 
L 885.314545 253.636772 
L 885.314545 253.636772 
" clip-path="url(#paf1bd53643)" style="fill: none; stroke: #ff7f0e; stroke-width: 1.2; stroke-linecap: square"/>
   </g>
   <g id="line2d_16">
    <path d="M 87.605455 281.358354 
L 89.20407 284.925896 
L 90.802685 287.47291 
L 92.401301 296.008103 
L 93.999916 291.182346 
L 95.598532 283.861671 
L 97.197147 288.787334 
L 98.795762 291.34639 
L 100.394378 274.903383 
L 101.992993 275.916167 
L 103.591609 73.046312 
L 105.190224 61.923284 
L 106.788839 158.10407 
L 108.387455 244.890708 
L 109.98607 279.398682 
L 111.584686 261.818261 
L 113.183301 256.949541 
L 114.781917 289.09376 
L 116.380532 280.31791 
L 117.979147 274.086783 
L 119.577763 274.019262 
L 121.176378 271.071922 
L 122.774994 256.905461 
L 124.373609 248.340075 
L 125.972224 263.946245 
L 127.57084 281.923116 
L 129.169455 291.726461 
L 130.768071 305.202766 
L 132.366686 290.223909 
L 133.965302 302.28403 
L 135.563917 284.435901 
L 138.761148 282.094073 
L 140.359763 286.779018 
L 141.958379 289.470425 
L 143.556994 277.222124 
L 145.155609 274.87977 
L 146.754225 252.968109 
L 148.35284 273.721613 
L 149.951456 288.540125 
L 151.550071 290.08254 
L 153.148686 289.593215 
L 154.747302 283.424517 
L 156.345917 290.71876 
L 157.944533 286.747926 
L 159.543148 283.283445 
L 161.141764 290.64407 
L 162.740379 288.622477 
L 164.338994 283.151297 
L 165.93761 299.206857 
L 167.536225 278.31949 
L 169.134841 259.365695 
L 170.733456 261.461403 
L 172.332071 254.878291 
L 173.930687 281.368646 
L 175.529302 271.926016 
L 177.127918 270.006104 
L 178.726533 287.869705 
L 181.923764 284.498988 
L 183.522379 285.92388 
L 185.120995 286.243478 
L 186.71961 285.667585 
L 188.318226 285.503552 
L 189.916841 286.49958 
L 191.515456 287.702414 
L 193.114072 273.00174 
L 194.712687 272.012591 
L 196.311303 287.575129 
L 197.909918 291.80725 
L 199.508533 284.833476 
L 201.107149 273.766799 
L 202.705764 287.775359 
L 204.30438 287.571041 
L 205.902995 279.16268 
L 207.50161 279.22166 
L 209.100226 285.933007 
L 210.698841 287.538031 
L 212.297457 301.227668 
L 213.896072 305.132936 
L 215.494688 299.904763 
L 217.093303 288.265134 
L 218.691918 279.305194 
L 220.290534 295.622625 
L 221.889149 289.958511 
L 223.487765 300.889292 
L 225.08638 289.046942 
L 228.283611 278.771138 
L 229.882226 290.598861 
L 231.480842 278.433799 
L 233.079457 287.843118 
L 234.678073 284.480639 
L 236.276688 282.852202 
L 237.875303 296.699205 
L 239.473919 284.494744 
L 241.072534 297.048197 
L 242.67115 293.667117 
L 244.269765 295.3957 
L 245.86838 296.266871 
L 247.466996 288.315026 
L 249.065611 288.491283 
L 250.664227 290.461584 
L 252.262842 283.28173 
L 253.861457 289.500424 
L 255.460073 273.318853 
L 257.058688 282.092956 
L 258.657304 282.401714 
L 260.255919 254.173786 
L 261.854535 248.429685 
L 263.45315 252.370857 
L 265.051765 220.528056 
L 266.650381 210.944352 
L 268.248996 197.774904 
L 269.847612 223.230279 
L 271.446227 239.183013 
L 273.044842 200.140388 
L 274.643458 172.917669 
L 276.242073 194.53172 
L 277.840689 127.643445 
L 279.439304 72.648695 
L 281.037919 61.923284 
L 282.636535 176.970462 
L 284.23515 217.317974 
L 285.833766 250.748303 
L 287.432381 252.124468 
L 289.030997 261.769075 
L 290.629612 243.608362 
L 292.228227 206.450613 
L 293.826843 256.338386 
L 295.425458 263.099632 
L 297.024074 274.008827 
L 298.622689 262.849387 
L 300.221304 259.136567 
L 301.81992 267.068908 
L 303.418535 276.758571 
L 305.017151 249.481877 
L 306.615766 240.294326 
L 308.214381 208.721615 
L 309.812997 219.356122 
L 311.411612 251.828604 
L 313.010228 253.755937 
L 314.608843 235.297237 
L 316.207459 244.255502 
L 317.806074 276.611657 
L 319.404689 287.735322 
L 321.003305 272.71796 
L 322.60192 281.848618 
L 324.200536 287.199723 
L 325.799151 256.796556 
L 327.397766 183.5686 
L 328.996382 167.259099 
L 330.594997 229.55607 
L 332.193613 284.359259 
L 333.792228 286.054502 
L 335.390844 271.1805 
L 336.989459 282.751951 
L 338.588074 286.02619 
L 340.18669 295.936927 
L 341.785305 304.038274 
L 343.383921 291.679233 
L 344.982536 292.234231 
L 346.581151 284.863104 
L 348.179767 300.827331 
L 349.778382 291.630216 
L 352.975613 296.787565 
L 354.574228 286.685612 
L 356.172844 289.03471 
L 357.771459 295.055581 
L 359.370075 286.973432 
L 360.96869 280.140133 
L 362.567306 284.307649 
L 364.165921 269.661692 
L 365.764536 271.863566 
L 367.363152 276.507904 
L 368.961767 276.012049 
L 370.560383 274.005386 
L 372.158998 272.653964 
L 373.757613 277.355534 
L 375.356229 284.957363 
L 376.954844 280.769415 
L 378.55346 295.06299 
L 380.152075 301.442363 
L 381.75069 288.726539 
L 383.349306 287.059586 
L 384.947921 271.935768 
L 386.546537 273.01039 
L 388.145152 268.272723 
L 389.743768 285.103982 
L 391.342383 290.94467 
L 392.940998 284.984784 
L 394.539614 289.766516 
L 397.736845 275.837374 
L 399.33546 299.364506 
L 400.934075 291.690703 
L 402.532691 300.633263 
L 404.131306 285.416253 
L 405.729922 287.722743 
L 408.927152 274.358008 
L 410.525768 289.136107 
L 412.124383 295.53103 
L 413.722999 288.279834 
L 415.321614 289.554375 
L 416.92023 289.442711 
L 418.518845 287.732203 
L 420.11746 273.591431 
L 421.716076 266.211032 
L 423.314691 246.483559 
L 424.913307 243.125197 
L 428.110537 278.688102 
L 429.709153 260.559522 
L 431.307768 285.999755 
L 432.906384 280.748896 
L 434.504999 289.78438 
L 436.103615 274.143385 
L 437.70223 266.86961 
L 439.300845 299.364903 
L 440.899461 299.869179 
L 442.498076 295.047355 
L 444.096692 272.196397 
L 445.695307 273.759554 
L 447.293922 286.455296 
L 448.892538 279.10122 
L 450.491153 281.308791 
M 599.162387 237.908097 
L 600.761002 253.088868 
L 602.359617 259.702069 
L 603.958233 244.341227 
L 605.556848 235.933244 
L 607.155464 185.919297 
L 608.754079 205.469666 
L 610.352694 220.049656 
L 611.95131 222.073103 
L 613.549925 225.006395 
L 616.747156 212.705125 
L 618.345772 232.551036 
L 619.944387 266.973753 
L 621.543002 242.633313 
L 623.141618 260.636497 
L 624.740233 283.527192 
L 626.338849 268.851501 
L 627.937464 259.479267 
L 629.536079 277.32182 
L 631.134695 278.067994 
L 632.73331 289.457769 
L 634.331926 299.089772 
L 635.930541 285.652475 
L 637.529156 281.363294 
L 639.127772 293.249879 
L 642.325003 242.471755 
L 643.923618 258.438032 
L 645.522234 279.201783 
L 647.120849 282.240208 
L 648.719464 278.41412 
L 650.31808 278.357143 
L 651.916695 271.557377 
L 653.515311 277.391239 
L 655.113926 264.238474 
L 656.712541 260.224198 
L 658.311157 249.665062 
L 659.909772 258.139753 
L 661.508388 288.723189 
L 663.107003 291.036689 
L 664.705619 283.782653 
L 666.304234 285.648357 
L 667.902849 288.00392 
L 669.501465 278.711033 
L 671.10008 264.579855 
L 672.698696 287.711102 
L 674.297311 286.605748 
L 675.895926 274.173401 
L 677.494542 268.678793 
L 679.093157 270.939105 
L 680.691773 268.221904 
L 682.290388 258.162573 
L 683.889003 274.77759 
L 685.487619 285.924183 
L 687.086234 287.127054 
L 688.68485 290.043309 
L 690.283465 284.216829 
L 691.882081 285.155644 
L 693.480696 272.582021 
L 695.079311 276.174837 
L 696.677927 272.580451 
L 698.276542 251.963048 
L 699.875158 256.166488 
L 701.473773 266.118133 
L 703.072388 279.546029 
L 704.671004 271.808329 
L 706.269619 259.671725 
L 707.868235 248.4797 
L 709.46685 262.941656 
L 711.065465 285.160587 
L 712.664081 285.711662 
L 714.262696 262.703205 
L 715.861312 277.12052 
L 719.058543 223.487992 
L 720.657158 202.614495 
L 722.255773 186.85956 
L 723.854389 200.416254 
L 725.453004 174.639663 
L 727.05162 214.681962 
L 728.650235 227.835781 
L 730.24885 225.701954 
L 731.847466 207.831637 
L 733.446081 213.563958 
L 735.044697 249.455563 
L 736.643312 262.191127 
L 738.241927 283.14012 
L 739.840543 272.338189 
L 741.439158 285.518351 
L 743.037774 270.061733 
L 744.636389 283.878773 
L 746.235005 277.711555 
L 747.83362 261.314005 
L 749.432235 253.307768 
L 751.030851 254.022623 
L 752.629466 252.047797 
L 754.228082 243.087717 
L 755.826697 238.020068 
L 757.425312 244.729168 
L 759.023928 246.935664 
L 760.622543 259.441922 
L 762.221159 257.308108 
L 763.819774 265.383141 
L 765.41839 237.104617 
L 767.017005 233.120447 
L 768.61562 237.05168 
L 770.214236 241.838618 
L 771.812851 239.456474 
L 773.411467 254.313045 
L 775.010082 250.174798 
L 776.608697 256.110676 
L 778.207313 257.254512 
L 779.805928 254.192231 
L 781.404544 249.473353 
L 783.003159 266.000835 
L 784.601774 273.670794 
L 786.20039 271.510623 
L 787.799005 251.864012 
L 789.397621 239.508452 
L 790.996236 249.251158 
L 792.594852 267.716532 
L 794.193467 278.229309 
L 795.792082 265.958573 
L 797.390698 255.768858 
L 798.989313 259.283319 
L 800.587929 256.674975 
L 802.186544 260.004658 
L 803.785159 258.072048 
L 805.383775 251.854008 
L 806.98239 258.315864 
L 808.581006 249.435828 
L 810.179621 274.128257 
L 811.778236 272.483211 
L 813.376852 261.357764 
L 814.975467 267.063192 
L 816.574083 255.844718 
L 818.172698 269.421075 
L 819.771314 285.538665 
L 821.369929 300.177475 
L 822.968544 280.526346 
L 824.56716 280.728313 
L 826.165775 268.174364 
L 827.764391 251.1946 
L 829.363006 261.246303 
L 830.961621 257.60141 
L 832.560237 259.35581 
L 834.158852 274.715401 
L 835.757468 285.65571 
L 837.356083 288.747011 
L 838.954698 289.753219 
L 840.553314 284.285818 
L 842.151929 291.928499 
L 843.750545 282.517776 
L 845.34916 289.774805 
L 846.947776 293.902754 
L 848.546391 288.854001 
L 850.145006 289.476429 
L 851.743622 286.84727 
L 853.342237 292.298341 
L 854.940853 292.84957 
L 856.539468 290.580432 
L 859.736699 248.154176 
L 861.335314 230.688638 
L 862.93393 237.310449 
L 864.532545 210.181945 
L 866.131161 175.60632 
L 867.729776 210.866586 
L 869.328391 250.979049 
L 870.927007 276.580485 
L 872.525622 274.207785 
L 874.124238 270.220823 
L 875.722853 273.734444 
L 877.321468 281.308279 
L 878.920084 289.834852 
L 880.518699 279.124349 
L 882.117315 282.491016 
L 883.71593 279.167164 
L 885.314545 282.443904 
L 885.314545 282.443904 
" clip-path="url(#paf1bd53643)" style="fill: none; stroke-dasharray: 4.44,1.92; stroke-dashoffset: 0; stroke: #9467bd; stroke-width: 1.2"/>
   </g>
   <g id="patch_3">
    <path d="M 47.72 318.04 
L 47.72 49.72725 
" style="fill: none; stroke: #000000; stroke-width: 0.8; stroke-linejoin: miter; stroke-linecap: square"/>
   </g>
   <g id="patch_4">
    <path d="M 925.2 318.04 
L 925.2 49.72725 
" style="fill: none; stroke: #000000; stroke-width: 0.8; stroke-linejoin: miter; stroke-linecap: square"/>
   </g>
   <g id="patch_5">
    <path d="M 47.72 318.04 
L 925.2 318.04 
" style="fill: none; stroke: #000000; stroke-width: 0.8; stroke-linejoin: miter; stroke-linecap: square"/>
   </g>
   <g id="patch_6">
    <path d="M 47.72 49.72725 
L 925.2 49.72725 
" style="fill: none; stroke: #000000; stroke-width: 0.8; stroke-linejoin: miter; stroke-linecap: square"/>
   </g>
   <g id="legend_1">
    <g id="line2d_17">
     <path d="M 675.710938 62.825688 
L 685.710938 62.825688 
L 695.710938 62.825688 
" style="fill: none; stroke: #2ca02c; stroke-width: 1.2; stroke-linecap: square"/>
    </g>
    <g id="text_16">
     <!-- ENCSR203XPU -->
     <g transform="translate(703.710938 66.325688) scale(0.1 -0.1)">
      <defs>
       <path id="DejaVuSans-45" d="M 628 4666 
L 3578 4666 
L 3578 4134 
L 1259 4134 
L 1259 2753 
L 3481 2753 
L 3481 2222 
L 1259 2222 
L 1259 531 
L 3634 531 
L 3634 0 
L 628 0 
L 628 4666 
z
" transform="scale(0.015625)"/>
       <path id="DejaVuSans-4e" d="M 628 4666 
L 1478 4666 
L 3547 763 
L 3547 4666 
L 4159 4666 
L 4159 0 
L 3309 0 
L 1241 3903 
L 1241 0 
L 628 0 
L 628 4666 
z
" transform="scale(0.015625)"/>
       <path id="DejaVuSans-43" d="M 4122 4306 
L 4122 3641 
Q 3803 3938 3442 4084 
Q 3081 4231 2675 4231 
Q 1875 4231 1450 3742 
Q 1025 3253 1025 2328 
Q 1025 1406 1450 917 
Q 1875 428 2675 428 
Q 3081 428 3442 575 
Q 3803 722 4122 1019 
L 4122 359 
Q 3791 134 3420 21 
Q 3050 -91 2638 -91 
Q 1578 -91 968 557 
Q 359 1206 359 2328 
Q 359 3453 968 4101 
Q 1578 4750 2638 4750 
Q 3056 4750 3426 4639 
Q 3797 4528 4122 4306 
z
" transform="scale(0.015625)"/>
       <path id="DejaVuSans-53" d="M 3425 4513 
L 3425 3897 
Q 3066 4069 2747 4153 
Q 2428 4238 2131 4238 
Q 1616 4238 1336 4038 
Q 1056 3838 1056 3469 
Q 1056 3159 1242 3001 
Q 1428 2844 1947 2747 
L 2328 2669 
Q 3034 2534 3370 2195 
Q 3706 1856 3706 1288 
Q 3706 609 3251 259 
Q 2797 -91 1919 -91 
Q 1588 -91 1214 -16 
Q 841 59 441 206 
L 441 856 
Q 825 641 1194 531 
Q 1563 422 1919 422 
Q 2459 422 2753 634 
Q 3047 847 3047 1241 
Q 3047 1584 2836 1778 
Q 2625 1972 2144 2069 
L 1759 2144 
Q 1053 2284 737 2584 
Q 422 2884 422 3419 
Q 422 4038 858 4394 
Q 1294 4750 2059 4750 
Q 2388 4750 2728 4690 
Q 3069 4631 3425 4513 
z
" transform="scale(0.015625)"/>
       <path id="DejaVuSans-52" d="M 2841 2188 
Q 3044 2119 3236 1894 
Q 3428 1669 3622 1275 
L 4263 0 
L 3584 0 
L 2988 1197 
Q 2756 1666 2539 1819 
Q 2322 1972 1947 1972 
L 1259 1972 
L 1259 0 
L 628 0 
L 628 4666 
L 2053 4666 
Q 2853 4666 3247 4331 
Q 3641 3997 3641 3322 
Q 3641 2881 3436 2590 
Q 3231 2300 2841 2188 
z
M 1259 4147 
L 1259 2491 
L 2053 2491 
Q 2509 2491 2742 2702 
Q 2975 2913 2975 3322 
Q 2975 3731 2742 3939 
Q 2509 4147 2053 4147 
L 1259 4147 
z
" transform="scale(0.015625)"/>
       <path id="DejaVuSans-58" d="M 403 4666 
L 1081 4666 
L 2241 2931 
L 3406 4666 
L 4084 4666 
L 2584 2425 
L 4184 0 
L 3506 0 
L 2194 1984 
L 872 0 
L 191 0 
L 1856 2491 
L 403 4666 
z
" transform="scale(0.015625)"/>
       <path id="DejaVuSans-50" d="M 1259 4147 
L 1259 2394 
L 2053 2394 
Q 2494 2394 2734 2622 
Q 2975 2850 2975 3272 
Q 2975 3691 2734 3919 
Q 2494 4147 2053 4147 
L 1259 4147 
z
M 628 4666 
L 2053 4666 
Q 2838 4666 3239 4311 
Q 3641 3956 3641 3272 
Q 3641 2581 3239 2228 
Q 2838 1875 2053 1875 
L 1259 1875 
L 1259 0 
L 628 0 
L 628 4666 
z
" transform="scale(0.015625)"/>
       <path id="DejaVuSans-55" d="M 556 4666 
L 1191 4666 
L 1191 1831 
Q 1191 1081 1462 751 
Q 1734 422 2344 422 
Q 2950 422 3222 751 
Q 3494 1081 3494 1831 
L 3494 4666 
L 4128 4666 
L 4128 1753 
Q 4128 841 3676 375 
Q 3225 -91 2344 -91 
Q 1459 -91 1007 375 
Q 556 841 556 1753 
L 556 4666 
z
" transform="scale(0.015625)"/>
      </defs>
      <use xlink:href="#DejaVuSans-45"/>
      <use xlink:href="#DejaVuSans-4e" transform="translate(63.183594 0)"/>
      <use xlink:href="#DejaVuSans-43" transform="translate(137.988281 0)"/>
      <use xlink:href="#DejaVuSans-53" transform="translate(207.8125 0)"/>
      <use xlink:href="#DejaVuSans-52" transform="translate(271.289062 0)"/>
      <use xlink:href="#DejaVuSans-32" transform="translate(340.771484 0)"/>
      <use xlink:href="#DejaVuSans-30" transform="translate(404.394531 0)"/>
      <use xlink:href="#DejaVuSans-33" transform="translate(468.017578 0)"/>
      <use xlink:href="#DejaVuSans-58" transform="translate(531.640625 0)"/>
      <use xlink:href="#DejaVuSans-50" transform="translate(600.146484 0)"/>
      <use xlink:href="#DejaVuSans-55" transform="translate(660.449219 0)"/>
     </g>
    </g>
    <g id="line2d_18">
     <path d="M 675.710938 77.503813 
L 685.710938 77.503813 
L 695.710938 77.503813 
" style="fill: none; stroke: #000000; stroke-width: 1.2; stroke-linecap: square"/>
    </g>
    <g id="text_17">
     <!-- AlphaGenome -->
     <g transform="translate(703.710938 81.003813) scale(0.1 -0.1)">
      <defs>
       <path id="DejaVuSans-41" d="M 2188 4044 
L 1331 1722 
L 3047 1722 
L 2188 4044 
z
M 1831 4666 
L 2547 4666 
L 4325 0 
L 3669 0 
L 3244 1197 
L 1141 1197 
L 716 0 
L 50 0 
L 1831 4666 
z
" transform="scale(0.015625)"/>
       <path id="DejaVuSans-70" d="M 1159 525 
L 1159 -1331 
L 581 -1331 
L 581 3500 
L 1159 3500 
L 1159 2969 
Q 1341 3281 1617 3432 
Q 1894 3584 2278 3584 
Q 2916 3584 3314 3078 
Q 3713 2572 3713 1747 
Q 3713 922 3314 415 
Q 2916 -91 2278 -91 
Q 1894 -91 1617 61 
Q 1341 213 1159 525 
z
M 3116 1747 
Q 3116 2381 2855 2742 
Q 2594 3103 2138 3103 
Q 1681 3103 1420 2742 
Q 1159 2381 1159 1747 
Q 1159 1113 1420 752 
Q 1681 391 2138 391 
Q 2594 391 2855 752 
Q 3116 1113 3116 1747 
z
" transform="scale(0.015625)"/>
       <path id="DejaVuSans-47" d="M 3809 666 
L 3809 1919 
L 2778 1919 
L 2778 2438 
L 4434 2438 
L 4434 434 
Q 4069 175 3628 42 
Q 3188 -91 2688 -91 
Q 1594 -91 976 548 
Q 359 1188 359 2328 
Q 359 3472 976 4111 
Q 1594 4750 2688 4750 
Q 3144 4750 3555 4637 
Q 3966 4525 4313 4306 
L 4313 3634 
Q 3963 3931 3569 4081 
Q 3175 4231 2741 4231 
Q 1884 4231 1454 3753 
Q 1025 3275 1025 2328 
Q 1025 1384 1454 906 
Q 1884 428 2741 428 
Q 3075 428 3337 486 
Q 3600 544 3809 666 
z
" transform="scale(0.015625)"/>
      </defs>
      <use xlink:href="#DejaVuSans-41"/>
      <use xlink:href="#DejaVuSans-6c" transform="translate(68.408203 0)"/>
      <use xlink:href="#DejaVuSans-70" transform="translate(96.191406 0)"/>
      <use xlink:href="#DejaVuSans-68" transform="translate(159.667969 0)"/>
      <use xlink:href="#DejaVuSans-61" transform="translate(223.046875 0)"/>
      <use xlink:href="#DejaVuSans-47" transform="translate(284.326172 0)"/>
      <use xlink:href="#DejaVuSans-65" transform="translate(361.816406 0)"/>
      <use xlink:href="#DejaVuSans-6e" transform="translate(423.339844 0)"/>
      <use xlink:href="#DejaVuSans-6f" transform="translate(486.71875 0)"/>
      <use xlink:href="#DejaVuSans-6d" transform="translate(547.900391 0)"/>
      <use xlink:href="#DejaVuSans-65" transform="translate(645.3125 0)"/>
     </g>
    </g>
    <g id="line2d_19">
     <path d="M 797.076563 62.825688 
L 807.076563 62.825688 
L 817.076563 62.825688 
" style="fill: none; stroke: #ff7f0e; stroke-width: 1.2; stroke-linecap: square"/>
    </g>
    <g id="text_18">
     <!-- DiMeLo pooled -->
     <g transform="translate(825.076563 66.325688) scale(0.1 -0.1)">
      <defs>
       <path id="DejaVuSans-44" d="M 1259 4147 
L 1259 519 
L 2022 519 
Q 2988 519 3436 956 
Q 3884 1394 3884 2338 
Q 3884 3275 3436 3711 
Q 2988 4147 2022 4147 
L 1259 4147 
z
M 628 4666 
L 1925 4666 
Q 3281 4666 3915 4102 
Q 4550 3538 4550 2338 
Q 4550 1131 3912 565 
Q 3275 0 1925 0 
L 628 0 
L 628 4666 
z
" transform="scale(0.015625)"/>
       <path id="DejaVuSans-4d" d="M 628 4666 
L 1569 4666 
L 2759 1491 
L 3956 4666 
L 4897 4666 
L 4897 0 
L 4281 0 
L 4281 4097 
L 3078 897 
L 2444 897 
L 1241 4097 
L 1241 0 
L 628 0 
L 628 4666 
z
" transform="scale(0.015625)"/>
       <path id="DejaVuSans-4c" d="M 628 4666 
L 1259 4666 
L 1259 531 
L 3531 531 
L 3531 0 
L 628 0 
L 628 4666 
z
" transform="scale(0.015625)"/>
      </defs>
      <use xlink:href="#DejaVuSans-44"/>
      <use xlink:href="#DejaVuSans-69" transform="translate(77.001953 0)"/>
      <use xlink:href="#DejaVuSans-4d" transform="translate(104.785156 0)"/>
      <use xlink:href="#DejaVuSans-65" transform="translate(191.064453 0)"/>
      <use xlink:href="#DejaVuSans-4c" transform="translate(252.587891 0)"/>
      <use xlink:href="#DejaVuSans-6f" transform="translate(306.550781 0)"/>
      <use xlink:href="#DejaVuSans-20" transform="translate(367.732422 0)"/>
      <use xlink:href="#DejaVuSans-70" transform="translate(399.519531 0)"/>
      <use xlink:href="#DejaVuSans-6f" transform="translate(462.996094 0)"/>
      <use xlink:href="#DejaVuSans-6f" transform="translate(524.177734 0)"/>
      <use xlink:href="#DejaVuSans-6c" transform="translate(585.359375 0)"/>
      <use xlink:href="#DejaVuSans-65" transform="translate(613.142578 0)"/>
      <use xlink:href="#DejaVuSans-64" transform="translate(674.666016 0)"/>
     </g>
    </g>
    <g id="line2d_20">
     <path d="M 797.076563 77.503813 
L 807.076563 77.503813 
L 817.076563 77.503813 
" style="fill: none; stroke-dasharray: 4.44,1.92; stroke-dashoffset: 0; stroke: #9467bd; stroke-width: 1.2"/>
    </g>
    <g id="text_19">
     <!-- HyenaDNA pooled -->
     <g transform="translate(825.076563 81.003813) scale(0.1 -0.1)">
      <defs>
       <path id="DejaVuSans-48" d="M 628 4666 
L 1259 4666 
L 1259 2753 
L 3553 2753 
L 3553 4666 
L 4184 4666 
L 4184 0 
L 3553 0 
L 3553 2222 
L 1259 2222 
L 1259 0 
L 628 0 
L 628 4666 
z
" transform="scale(0.015625)"/>
       <path id="DejaVuSans-79" d="M 2059 -325 
Q 1816 -950 1584 -1140 
Q 1353 -1331 966 -1331 
L 506 -1331 
L 506 -850 
L 844 -850 
Q 1081 -850 1212 -737 
Q 1344 -625 1503 -206 
L 1606 56 
L 191 3500 
L 800 3500 
L 1894 763 
L 2988 3500 
L 3597 3500 
L 2059 -325 
z
" transform="scale(0.015625)"/>
      </defs>
      <use xlink:href="#DejaVuSans-48"/>
      <use xlink:href="#DejaVuSans-79" transform="translate(75.195312 0)"/>
      <use xlink:href="#DejaVuSans-65" transform="translate(134.375 0)"/>
      <use xlink:href="#DejaVuSans-6e" transform="translate(195.898438 0)"/>
      <use xlink:href="#DejaVuSans-61" transform="translate(259.277344 0)"/>
      <use xlink:href="#DejaVuSans-44" transform="translate(320.556641 0)"/>
      <use xlink:href="#DejaVuSans-4e" transform="translate(397.558594 0)"/>
      <use xlink:href="#DejaVuSans-41" transform="translate(472.363281 0)"/>
      <use xlink:href="#DejaVuSans-20" transform="translate(540.771484 0)"/>
      <use xlink:href="#DejaVuSans-70" transform="translate(572.558594 0)"/>
      <use xlink:href="#DejaVuSans-6f" transform="translate(636.035156 0)"/>
      <use xlink:href="#DejaVuSans-6f" transform="translate(697.216797 0)"/>
      <use xlink:href="#DejaVuSans-6c" transform="translate(758.398438 0)"/>
      <use xlink:href="#DejaVuSans-65" transform="translate(786.181641 0)"/>
      <use xlink:href="#DejaVuSans-64" transform="translate(847.705078 0)"/>
     </g>
    </g>
   </g>
  </g>
  <g id="text_20">
   <!-- chr16 region 6: overlay -->
   <g transform="translate(397.988438 16.318125) scale(0.12 -0.12)">
    <defs>
     <path id="DejaVuSans-3a" d="M 750 794 
L 1409 794 
L 1409 0 
L 750 0 
L 750 794 
z
M 750 3309 
L 1409 3309 
L 1409 2516 
L 750 2516 
L 750 3309 
z
" transform="scale(0.015625)"/>
     <path id="DejaVuSans-76" d="M 191 3500 
L 800 3500 
L 1894 563 
L 2988 3500 
L 3597 3500 
L 2284 0 
L 1503 0 
L 191 3500 
z
" transform="scale(0.015625)"/>
    </defs>
    <use xlink:href="#DejaVuSans-63"/>
    <use xlink:href="#DejaVuSans-68" transform="translate(54.980469 0)"/>
    <use xlink:href="#DejaVuSans-72" transform="translate(118.359375 0)"/>
    <use xlink:href="#DejaVuSans-31" transform="translate(159.472656 0)"/>
    <use xlink:href="#DejaVuSans-36" transform="translate(223.095703 0)"/>
    <use xlink:href="#DejaVuSans-20" transform="translate(286.71875 0)"/>
    <use xlink:href="#DejaVuSans-72" transform="translate(318.505859 0)"/>
    <use xlink:href="#DejaVuSans-65" transform="translate(357.369141 0)"/>
    <use xlink:href="#DejaVuSans-67" transform="translate(418.892578 0)"/>
    <use xlink:href="#DejaVuSans-69" transform="translate(482.369141 0)"/>
    <use xlink:href="#DejaVuSans-6f" transform="translate(510.152344 0)"/>
    <use xlink:href="#DejaVuSans-6e" transform="translate(571.333984 0)"/>
    <use xlink:href="#DejaVuSans-20" transform="translate(634.712891 0)"/>
    <use xlink:href="#DejaVuSans-36" transform="translate(666.5 0)"/>
    <use xlink:href="#DejaVuSans-3a" transform="translate(730.123047 0)"/>
    <use xlink:href="#DejaVuSans-20" transform="translate(763.814453 0)"/>
    <use xlink:href="#DejaVuSans-6f" transform="translate(795.601562 0)"/>
    <use xlink:href="#DejaVuSans-76" transform="translate(856.783203 0)"/>
    <use xlink:href="#DejaVuSans-65" transform="translate(915.962891 0)"/>
    <use xlink:href="#DejaVuSans-72" transform="translate(977.486328 0)"/>
    <use xlink:href="#DejaVuSans-6c" transform="translate(1018.599609 0)"/>
    <use xlink:href="#DejaVuSans-61" transform="translate(1046.382812 0)"/>
    <use xlink:href="#DejaVuSans-79" transform="translate(1107.662109 0)"/>
   </g>
   <!-- chr16_rank7_score3.907_reads501 -->
   <g transform="translate(363.175313 29.7555) scale(0.12 -0.12)">
    <defs>
     <path id="DejaVuSans-5f" d="M 3263 -1063 
L 3263 -1509 
L -63 -1509 
L -63 -1063 
L 3263 -1063 
z
" transform="scale(0.015625)"/>
     <path id="DejaVuSans-6b" d="M 581 4863 
L 1159 4863 
L 1159 1991 
L 2875 3500 
L 3609 3500 
L 1753 1863 
L 3688 0 
L 2938 0 
L 1159 1709 
L 1159 0 
L 581 0 
L 581 4863 
z
" transform="scale(0.015625)"/>
     <path id="DejaVuSans-35" d="M 691 4666 
L 3169 4666 
L 3169 4134 
L 1269 4134 
L 1269 2991 
Q 1406 3038 1543 3061 
Q 1681 3084 1819 3084 
Q 2600 3084 3056 2656 
Q 3513 2228 3513 1497 
Q 3513 744 3044 326 
Q 2575 -91 1722 -91 
Q 1428 -91 1123 -41 
Q 819 9 494 109 
L 494 744 
Q 775 591 1075 516 
Q 1375 441 1709 441 
Q 2250 441 2565 725 
Q 2881 1009 2881 1497 
Q 2881 1984 2565 2268 
Q 2250 2553 1709 2553 
Q 1456 2553 1204 2497 
Q 953 2441 691 2322 
L 691 4666 
z
" transform="scale(0.015625)"/>
    </defs>
    <use xlink:href="#DejaVuSans-63"/>
    <use xlink:href="#DejaVuSans-68" transform="translate(54.980469 0)"/>
    <use xlink:href="#DejaVuSans-72" transform="translate(118.359375 0)"/>
    <use xlink:href="#DejaVuSans-31" transform="translate(159.472656 0)"/>
    <use xlink:href="#DejaVuSans-36" transform="translate(223.095703 0)"/>
    <use xlink:href="#DejaVuSans-5f" transform="translate(286.71875 0)"/>
    <use xlink:href="#DejaVuSans-72" transform="translate(336.71875 0)"/>
    <use xlink:href="#DejaVuSans-61" transform="translate(377.832031 0)"/>
    <use xlink:href="#DejaVuSans-6e" transform="translate(439.111328 0)"/>
    <use xlink:href="#DejaVuSans-6b" transform="translate(502.490234 0)"/>
    <use xlink:href="#DejaVuSans-37" transform="translate(560.400391 0)"/>
    <use xlink:href="#DejaVuSans-5f" transform="translate(624.023438 0)"/>
    <use xlink:href="#DejaVuSans-73" transform="translate(674.023438 0)"/>
    <use xlink:href="#DejaVuSans-63" transform="translate(726.123047 0)"/>
    <use xlink:href="#DejaVuSans-6f" transform="translate(781.103516 0)"/>
    <use xlink:href="#DejaVuSans-72" transform="translate(842.285156 0)"/>
    <use xlink:href="#DejaVuSans-65" transform="translate(881.148438 0)"/>
    <use xlink:href="#DejaVuSans-33" transform="translate(942.671875 0)"/>
    <use xlink:href="#DejaVuSans-2e" transform="translate(1006.294922 0)"/>
    <use xlink:href="#DejaVuSans-39" transform="translate(1038.082031 0)"/>
    <use xlink:href="#DejaVuSans-30" transform="translate(1101.705078 0)"/>
    <use xlink:href="#DejaVuSans-37" transform="translate(1165.328125 0)"/>
    <use xlink:href="#DejaVuSans-5f" transform="translate(1228.951172 0)"/>
    <use xlink:href="#DejaVuSans-72" transform="translate(1278.951172 0)"/>
    <use xlink:href="#DejaVuSans-65" transform="translate(1317.814453 0)"/>
    <use xlink:href="#DejaVuSans-61" transform="translate(1379.337891 0)"/>
    <use xlink:href="#DejaVuSans-64" transform="translate(1440.617188 0)"/>
    <use xlink:href="#DejaVuSans-73" transform="translate(1504.09375 0)"/>
    <use xlink:href="#DejaVuSans-35" transform="translate(1556.193359 0)"/>
    <use xlink:href="#DejaVuSans-30" transform="translate(1619.816406 0)"/>
    <use xlink:href="#DejaVuSans-31" transform="translate(1683.439453 0)"/>
   </g>
  </g>
 </g>
 <defs>
  <clipPath id="paf1bd53643">
   <rect x="47.72" y="49.72725" width="877.48" height="268.31275"/>
  </clipPath>
 </defs>
</svg>
