<?xml version="1.0" encoding="utf-8" standalone="no"?>
<!DOCTYPE svg PUBLIC "-//W3C//DTD SVG 1.1//EN"
  "http://www.w3.org/Graphics/SVG/1.1/DTD/svg11.dtd">
<svg xmlns:xlink="http://www.w3.org/1999/xlink" width="936pt" height="360pt" viewBox="0 0 936 360" xmlns="http://www.w3.org/2000/svg" version="1.1">
 <metadata>
  <rdf:RDF xmlns:dc="http://purl.org/dc/elements/1.1/" xmlns:cc="http://creativecommons.org/ns#" xmlns:rdf="http://www.w3.org/1999/02/22-rdf-syntax-ns#">
   <cc:Work>
    <dc:type rdf:resource="http://purl.org/dc/dcmitype/StillImage"/>
    <dc:date>2026-07-17T20:04:54.951079</dc:date>
    <dc:format>image/svg+xml</dc:format>
    <dc:creator>
     <cc:Agent>
      <dc:title>Matplotlib v3.10.8, https://matplotlib.org/</dc:title>
     </cc:Agent>
    </dc:creator>
   </cc:Work>
  </rdf:RDF>
 </metadata>
 <defs>
  <style type="text/css">*{stroke-linejoin: round; stroke-linecap: butt}</style>
 </defs>
 <g id="figure_1">
  <g id="patch_1">
   <path d="M 0 360 
L 936 360 
L 936 0 
L 0 0 
z
" style="fill: #ffffff"/>
  </g>
  <g id="axes_1">
   <g id="patch_2">
    <path d="M 47.72 318.04 
L 925.2 318.04 
L 925.2 49.72725 
L 47.72 49.72725 
z
" style="fill: #ffffff"/>
   </g>
   <g id="matplotlib.axis_1">
    <g id="xtick_1">
     <g id="line2d_1">
      <defs>
       <path id="mf71a901d82" d="M 0 0 
L 0 3.5 
" style="stroke: #000000; stroke-width: 0.8"/>
      </defs>
      <g>
       <use xlink:href="#mf71a901d82" x="86.806147" y="318.04" style="stroke: #000000; stroke-width: 0.8"/>
      </g>
     </g>
     <g id="text_1">
      <!-- 1.90 -->
      <g transform="translate(75.673334 332.638438) scale(0.1 -0.1)">
       <defs>
        <path id="DejaVuSans-31" d="M 794 531 
L 1825 531 
L 1825 4091 
L 703 3866 
L 703 4441 
L 1819 4666 
L 2450 4666 
L 2450 531 
L 3481 531 
L 3481 0 
L 794 0 
L 794 531 
z
" transform="scale(0.015625)"/>
        <path id="DejaVuSans-2e" d="M 684 794 
L 1344 794 
L 1344 0 
L 684 0 
L 684 794 
z
" transform="scale(0.015625)"/>
        <path id="DejaVuSans-39" d="M 703 97 
L 703 672 
Q 941 559 1184 500 
Q 1428 441 1663 441 
Q 2288 441 2617 861 
Q 2947 1281 2994 2138 
Q 2813 1869 2534 1725 
Q 2256 1581 1919 1581 
Q 1219 1581 811 2004 
Q 403 2428 403 3163 
Q 403 3881 828 4315 
Q 1253 4750 1959 4750 
Q 2769 4750 3195 4129 
Q 3622 3509 3622 2328 
Q 3622 1225 3098 567 
Q 2575 -91 1691 -91 
Q 1453 -91 1209 -44 
Q 966 3 703 97 
z
M 1959 2075 
Q 2384 2075 2632 2365 
Q 2881 2656 2881 3163 
Q 2881 3666 2632 3958 
Q 2384 4250 1959 4250 
Q 1534 4250 1286 3958 
Q 1038 3666 1038 3163 
Q 1038 2656 1286 2365 
Q 1534 2075 1959 2075 
z
" transform="scale(0.015625)"/>
        <path id="DejaVuSans-30" d="M 2034 4250 
Q 1547 4250 1301 3770 
Q 1056 3291 1056 2328 
Q 1056 1369 1301 889 
Q 1547 409 2034 409 
Q 2525 409 2770 889 
Q 3016 1369 3016 2328 
Q 3016 3291 2770 3770 
Q 2525 4250 2034 4250 
z
M 2034 4750 
Q 2819 4750 3233 4129 
Q 3647 3509 3647 2328 
Q 3647 1150 3233 529 
Q 2819 -91 2034 -91 
Q 1250 -91 836 529 
Q 422 1150 422 2328 
Q 422 3509 836 4129 
Q 1250 4750 2034 4750 
z
" transform="scale(0.015625)"/>
       </defs>
       <use xlink:href="#DejaVuSans-31"/>
       <use xlink:href="#DejaVuSans-2e" transform="translate(63.623047 0)"/>
       <use xlink:href="#DejaVuSans-39" transform="translate(95.410156 0)"/>
       <use xlink:href="#DejaVuSans-30" transform="translate(159.033203 0)"/>
      </g>
     </g>
    </g>
    <g id="xtick_2">
     <g id="line2d_2">
      <g>
       <use xlink:href="#mf71a901d82" x="246.667688" y="318.04" style="stroke: #000000; stroke-width: 0.8"/>
      </g>
     </g>
     <g id="text_2">
      <!-- 1.92 -->
      <g transform="translate(235.534876 332.638438) scale(0.1 -0.1)">
       <defs>
        <path id="DejaVuSans-32" d="M 1228 531 
L 3431 531 
L 3431 0 
L 469 0 
L 469 531 
Q 828 903 1448 1529 
Q 2069 2156 2228 2338 
Q 2531 2678 2651 2914 
Q 2772 3150 2772 3378 
Q 2772 3750 2511 3984 
Q 2250 4219 1831 4219 
Q 1534 4219 1204 4116 
Q 875 4013 500 3803 
L 500 4441 
Q 881 4594 1212 4672 
Q 1544 4750 1819 4750 
Q 2544 4750 2975 4387 
Q 3406 4025 3406 3419 
Q 3406 3131 3298 2873 
Q 3191 2616 2906 2266 
Q 2828 2175 2409 1742 
Q 1991 1309 1228 531 
z
" transform="scale(0.015625)"/>
       </defs>
       <use xlink:href="#DejaVuSans-31"/>
       <use xlink:href="#DejaVuSans-2e" transform="translate(63.623047 0)"/>
       <use xlink:href="#DejaVuSans-39" transform="translate(95.410156 0)"/>
       <use xlink:href="#DejaVuSans-32" transform="translate(159.033203 0)"/>
      </g>
     </g>
    </g>
    <g id="xtick_3">
     <g id="line2d_3">
      <g>
       <use xlink:href="#mf71a901d82" x="406.529229" y="318.04" style="stroke: #000000; stroke-width: 0.8"/>
      </g>
     </g>
     <g id="text_3">
      <!-- 1.94 -->
      <g transform="translate(395.396417 332.638438) scale(0.1 -0.1)">
       <defs>
        <path id="DejaVuSans-34" d="M 2419 4116 
L 825 1625 
L 2419 1625 
L 2419 4116 
z
M 2253 4666 
L 3047 4666 
L 3047 1625 
L 3713 1625 
L 3713 1100 
L 3047 1100 
L 3047 0 
L 2419 0 
L 2419 1100 
L 313 1100 
L 313 1709 
L 2253 4666 
z
" transform="scale(0.015625)"/>
       </defs>
       <use xlink:href="#DejaVuSans-31"/>
       <use xlink:href="#DejaVuSans-2e" transform="translate(63.623047 0)"/>
       <use xlink:href="#DejaVuSans-39" transform="translate(95.410156 0)"/>
       <use xlink:href="#DejaVuSans-34" transform="translate(159.033203 0)"/>
      </g>
     </g>
    </g>
    <g id="xtick_4">
     <g id="line2d_4">
      <g>
       <use xlink:href="#mf71a901d82" x="566.390771" y="318.04" style="stroke: #000000; stroke-width: 0.8"/>
      </g>
     </g>
     <g id="text_4">
      <!-- 1.96 -->
      <g transform="translate(555.257958 332.638438) scale(0.1 -0.1)">
       <defs>
        <path id="DejaVuSans-36" d="M 2113 2584 
Q 1688 2584 1439 2293 
Q 1191 2003 1191 1497 
Q 1191 994 1439 701 
Q 1688 409 2113 409 
Q 2538 409 2786 701 
Q 3034 994 3034 1497 
Q 3034 2003 2786 2293 
Q 2538 2584 2113 2584 
z
M 3366 4563 
L 3366 3988 
Q 3128 4100 2886 4159 
Q 2644 4219 2406 4219 
Q 1781 4219 1451 3797 
Q 1122 3375 1075 2522 
Q 1259 2794 1537 2939 
Q 1816 3084 2150 3084 
Q 2853 3084 3261 2657 
Q 3669 2231 3669 1497 
Q 3669 778 3244 343 
Q 2819 -91 2113 -91 
Q 1303 -91 875 529 
Q 447 1150 447 2328 
Q 447 3434 972 4092 
Q 1497 4750 2381 4750 
Q 2619 4750 2861 4703 
Q 3103 4656 3366 4563 
z
" transform="scale(0.015625)"/>
       </defs>
       <use xlink:href="#DejaVuSans-31"/>
       <use xlink:href="#DejaVuSans-2e" transform="translate(63.623047 0)"/>
       <use xlink:href="#DejaVuSans-39" transform="translate(95.410156 0)"/>
       <use xlink:href="#DejaVuSans-36" transform="translate(159.033203 0)"/>
      </g>
     </g>
    </g>
    <g id="xtick_5">
     <g id="line2d_5">
      <g>
       <use xlink:href="#mf71a901d82" x="726.252312" y="318.04" style="stroke: #000000; stroke-width: 0.8"/>
      </g>
     </g>
     <g id="text_5">
      <!-- 1.98 -->
      <g transform="translate(715.119499 332.638438) scale(0.1 -0.1)">
       <defs>
        <path id="DejaVuSans-38" d="M 2034 2216 
Q 1584 2216 1326 1975 
Q 1069 1734 1069 1313 
Q 1069 891 1326 650 
Q 1584 409 2034 409 
Q 2484 409 2743 651 
Q 3003 894 3003 1313 
Q 3003 1734 2745 1975 
Q 2488 2216 2034 2216 
z
M 1403 2484 
Q 997 2584 770 2862 
Q 544 3141 544 3541 
Q 544 4100 942 4425 
Q 1341 4750 2034 4750 
Q 2731 4750 3128 4425 
Q 3525 4100 3525 3541 
Q 3525 3141 3298 2862 
Q 3072 2584 2669 2484 
Q 3125 2378 3379 2068 
Q 3634 1759 3634 1313 
Q 3634 634 3220 271 
Q 2806 -91 2034 -91 
Q 1263 -91 848 271 
Q 434 634 434 1313 
Q 434 1759 690 2068 
Q 947 2378 1403 2484 
z
M 1172 3481 
Q 1172 3119 1398 2916 
Q 1625 2713 2034 2713 
Q 2441 2713 2670 2916 
Q 2900 3119 2900 3481 
Q 2900 3844 2670 4047 
Q 2441 4250 2034 4250 
Q 1625 4250 1398 4047 
Q 1172 3844 1172 3481 
z
" transform="scale(0.015625)"/>
       </defs>
       <use xlink:href="#DejaVuSans-31"/>
       <use xlink:href="#DejaVuSans-2e" transform="translate(63.623047 0)"/>
       <use xlink:href="#DejaVuSans-39" transform="translate(95.410156 0)"/>
       <use xlink:href="#DejaVuSans-38" transform="translate(159.033203 0)"/>
      </g>
     </g>
    </g>
    <g id="xtick_6">
     <g id="line2d_6">
      <g>
       <use xlink:href="#mf71a901d82" x="886.113853" y="318.04" style="stroke: #000000; stroke-width: 0.8"/>
      </g>
     </g>
     <g id="text_6">
      <!-- 2.00 -->
      <g transform="translate(874.981041 332.638438) scale(0.1 -0.1)">
       <use xlink:href="#DejaVuSans-32"/>
       <use xlink:href="#DejaVuSans-2e" transform="translate(63.623047 0)"/>
       <use xlink:href="#DejaVuSans-30" transform="translate(95.410156 0)"/>
       <use xlink:href="#DejaVuSans-30" transform="translate(159.033203 0)"/>
      </g>
     </g>
    </g>
    <g id="text_7">
     <!-- chr16 coordinate (hg38) -->
     <g transform="translate(425.670156 346.316563) scale(0.1 -0.1)">
      <defs>
       <path id="DejaVuSans-63" d="M 3122 3366 
L 3122 2828 
Q 2878 2963 2633 3030 
Q 2388 3097 2138 3097 
Q 1578 3097 1268 2742 
Q 959 2388 959 1747 
Q 959 1106 1268 751 
Q 1578 397 2138 397 
Q 2388 397 2633 464 
Q 2878 531 3122 666 
L 3122 134 
Q 2881 22 2623 -34 
Q 2366 -91 2075 -91 
Q 1284 -91 818 406 
Q 353 903 353 1747 
Q 353 2603 823 3093 
Q 1294 3584 2113 3584 
Q 2378 3584 2631 3529 
Q 2884 3475 3122 3366 
z
" transform="scale(0.015625)"/>
       <path id="DejaVuSans-68" d="M 3513 2113 
L 3513 0 
L 2938 0 
L 2938 2094 
Q 2938 2591 2744 2837 
Q 2550 3084 2163 3084 
Q 1697 3084 1428 2787 
Q 1159 2491 1159 1978 
L 1159 0 
L 581 0 
L 581 4863 
L 1159 4863 
L 1159 2956 
Q 1366 3272 1645 3428 
Q 1925 3584 2291 3584 
Q 2894 3584 3203 3211 
Q 3513 2838 3513 2113 
z
" transform="scale(0.015625)"/>
       <path id="DejaVuSans-72" d="M 2631 2963 
Q 2534 3019 2420 3045 
Q 2306 3072 2169 3072 
Q 1681 3072 1420 2755 
Q 1159 2438 1159 1844 
L 1159 0 
L 581 0 
L 581 3500 
L 1159 3500 
L 1159 2956 
Q 1341 3275 1631 3429 
Q 1922 3584 2338 3584 
Q 2397 3584 2469 3576 
Q 2541 3569 2628 3553 
L 2631 2963 
z
" transform="scale(0.015625)"/>
       <path id="DejaVuSans-20" transform="scale(0.015625)"/>
       <path id="DejaVuSans-6f" d="M 1959 3097 
Q 1497 3097 1228 2736 
Q 959 2375 959 1747 
Q 959 1119 1226 758 
Q 1494 397 1959 397 
Q 2419 397 2687 759 
Q 2956 1122 2956 1747 
Q 2956 2369 2687 2733 
Q 2419 3097 1959 3097 
z
M 1959 3584 
Q 2709 3584 3137 3096 
Q 3566 2609 3566 1747 
Q 3566 888 3137 398 
Q 2709 -91 1959 -91 
Q 1206 -91 779 398 
Q 353 888 353 1747 
Q 353 2609 779 3096 
Q 1206 3584 1959 3584 
z
" transform="scale(0.015625)"/>
       <path id="DejaVuSans-64" d="M 2906 2969 
L 2906 4863 
L 3481 4863 
L 3481 0 
L 2906 0 
L 2906 525 
Q 2725 213 2448 61 
Q 2172 -91 1784 -91 
Q 1150 -91 751 415 
Q 353 922 353 1747 
Q 353 2572 751 3078 
Q 1150 3584 1784 3584 
Q 2172 3584 2448 3432 
Q 2725 3281 2906 2969 
z
M 947 1747 
Q 947 1113 1208 752 
Q 1469 391 1925 391 
Q 2381 391 2643 752 
Q 2906 1113 2906 1747 
Q 2906 2381 2643 2742 
Q 2381 3103 1925 3103 
Q 1469 3103 1208 2742 
Q 947 2381 947 1747 
z
" transform="scale(0.015625)"/>
       <path id="DejaVuSans-69" d="M 603 3500 
L 1178 3500 
L 1178 0 
L 603 0 
L 603 3500 
z
M 603 4863 
L 1178 4863 
L 1178 4134 
L 603 4134 
L 603 4863 
z
" transform="scale(0.015625)"/>
       <path id="DejaVuSans-6e" d="M 3513 2113 
L 3513 0 
L 2938 0 
L 2938 2094 
Q 2938 2591 2744 2837 
Q 2550 3084 2163 3084 
Q 1697 3084 1428 2787 
Q 1159 2491 1159 1978 
L 1159 0 
L 581 0 
L 581 3500 
L 1159 3500 
L 1159 2956 
Q 1366 3272 1645 3428 
Q 1925 3584 2291 3584 
Q 2894 3584 3203 3211 
Q 3513 2838 3513 2113 
z
" transform="scale(0.015625)"/>
       <path id="DejaVuSans-61" d="M 2194 1759 
Q 1497 1759 1228 1600 
Q 959 1441 959 1056 
Q 959 750 1161 570 
Q 1363 391 1709 391 
Q 2188 391 2477 730 
Q 2766 1069 2766 1631 
L 2766 1759 
L 2194 1759 
z
M 3341 1997 
L 3341 0 
L 2766 0 
L 2766 531 
Q 2569 213 2275 61 
Q 1981 -91 1556 -91 
Q 1019 -91 701 211 
Q 384 513 384 1019 
Q 384 1609 779 1909 
Q 1175 2209 1959 2209 
L 2766 2209 
L 2766 2266 
Q 2766 2663 2505 2880 
Q 2244 3097 1772 3097 
Q 1472 3097 1187 3025 
Q 903 2953 641 2809 
L 641 3341 
Q 956 3463 1253 3523 
Q 1550 3584 1831 3584 
Q 2591 3584 2966 3190 
Q 3341 2797 3341 1997 
z
" transform="scale(0.015625)"/>
       <path id="DejaVuSans-74" d="M 1172 4494 
L 1172 3500 
L 2356 3500 
L 2356 3053 
L 1172 3053 
L 1172 1153 
Q 1172 725 1289 603 
Q 1406 481 1766 481 
L 2356 481 
L 2356 0 
L 1766 0 
Q 1100 0 847 248 
Q 594 497 594 1153 
L 594 3053 
L 172 3053 
L 172 3500 
L 594 3500 
L 594 4494 
L 1172 4494 
z
" transform="scale(0.015625)"/>
       <path id="DejaVuSans-65" d="M 3597 1894 
L 3597 1613 
L 953 1613 
Q 991 1019 1311 708 
Q 1631 397 2203 397 
Q 2534 397 2845 478 
Q 3156 559 3463 722 
L 3463 178 
Q 3153 47 2828 -22 
Q 2503 -91 2169 -91 
Q 1331 -91 842 396 
Q 353 884 353 1716 
Q 353 2575 817 3079 
Q 1281 3584 2069 3584 
Q 2775 3584 3186 3129 
Q 3597 2675 3597 1894 
z
M 3022 2063 
Q 3016 2534 2758 2815 
Q 2500 3097 2075 3097 
Q 1594 3097 1305 2825 
Q 1016 2553 972 2059 
L 3022 2063 
z
" transform="scale(0.015625)"/>
       <path id="DejaVuSans-28" d="M 1984 4856 
Q 1566 4138 1362 3434 
Q 1159 2731 1159 2009 
Q 1159 1288 1364 580 
Q 1569 -128 1984 -844 
L 1484 -844 
Q 1016 -109 783 600 
Q 550 1309 550 2009 
Q 550 2706 781 3412 
Q 1013 4119 1484 4856 
L 1984 4856 
z
" transform="scale(0.015625)"/>
       <path id="DejaVuSans-67" d="M 2906 1791 
Q 2906 2416 2648 2759 
Q 2391 3103 1925 3103 
Q 1463 3103 1205 2759 
Q 947 2416 947 1791 
Q 947 1169 1205 825 
Q 1463 481 1925 481 
Q 2391 481 2648 825 
Q 2906 1169 2906 1791 
z
M 3481 434 
Q 3481 -459 3084 -895 
Q 2688 -1331 1869 -1331 
Q 1566 -1331 1297 -1286 
Q 1028 -1241 775 -1147 
L 775 -588 
Q 1028 -725 1275 -790 
Q 1522 -856 1778 -856 
Q 2344 -856 2625 -561 
Q 2906 -266 2906 331 
L 2906 616 
Q 2728 306 2450 153 
Q 2172 0 1784 0 
Q 1141 0 747 490 
Q 353 981 353 1791 
Q 353 2603 747 3093 
Q 1141 3584 1784 3584 
Q 2172 3584 2450 3431 
Q 2728 3278 2906 2969 
L 2906 3500 
L 3481 3500 
L 3481 434 
z
" transform="scale(0.015625)"/>
       <path id="DejaVuSans-33" d="M 2597 2516 
Q 3050 2419 3304 2112 
Q 3559 1806 3559 1356 
Q 3559 666 3084 287 
Q 2609 -91 1734 -91 
Q 1441 -91 1130 -33 
Q 819 25 488 141 
L 488 750 
Q 750 597 1062 519 
Q 1375 441 1716 441 
Q 2309 441 2620 675 
Q 2931 909 2931 1356 
Q 2931 1769 2642 2001 
Q 2353 2234 1838 2234 
L 1294 2234 
L 1294 2753 
L 1863 2753 
Q 2328 2753 2575 2939 
Q 2822 3125 2822 3475 
Q 2822 3834 2567 4026 
Q 2313 4219 1838 4219 
Q 1578 4219 1281 4162 
Q 984 4106 628 3988 
L 628 4550 
Q 988 4650 1302 4700 
Q 1616 4750 1894 4750 
Q 2613 4750 3031 4423 
Q 3450 4097 3450 3541 
Q 3450 3153 3228 2886 
Q 3006 2619 2597 2516 
z
" transform="scale(0.015625)"/>
       <path id="DejaVuSans-29" d="M 513 4856 
L 1013 4856 
Q 1481 4119 1714 3412 
Q 1947 2706 1947 2009 
Q 1947 1309 1714 600 
Q 1481 -109 1013 -844 
L 513 -844 
Q 928 -128 1133 580 
Q 1338 1288 1338 2009 
Q 1338 2731 1133 3434 
Q 928 4138 513 4856 
z
" transform="scale(0.015625)"/>
      </defs>
      <use xlink:href="#DejaVuSans-63"/>
      <use xlink:href="#DejaVuSans-68" transform="translate(54.980469 0)"/>
      <use xlink:href="#DejaVuSans-72" transform="translate(118.359375 0)"/>
      <use xlink:href="#DejaVuSans-31" transform="translate(159.472656 0)"/>
      <use xlink:href="#DejaVuSans-36" transform="translate(223.095703 0)"/>
      <use xlink:href="#DejaVuSans-20" transform="translate(286.71875 0)"/>
      <use xlink:href="#DejaVuSans-63" transform="translate(318.505859 0)"/>
      <use xlink:href="#DejaVuSans-6f" transform="translate(373.486328 0)"/>
      <use xlink:href="#DejaVuSans-6f" transform="translate(434.667969 0)"/>
      <use xlink:href="#DejaVuSans-72" transform="translate(495.849609 0)"/>
      <use xlink:href="#DejaVuSans-64" transform="translate(535.212891 0)"/>
      <use xlink:href="#DejaVuSans-69" transform="translate(598.689453 0)"/>
      <use xlink:href="#DejaVuSans-6e" transform="translate(626.472656 0)"/>
      <use xlink:href="#DejaVuSans-61" transform="translate(689.851562 0)"/>
      <use xlink:href="#DejaVuSans-74" transform="translate(751.130859 0)"/>
      <use xlink:href="#DejaVuSans-65" transform="translate(790.339844 0)"/>
      <use xlink:href="#DejaVuSans-20" transform="translate(851.863281 0)"/>
      <use xlink:href="#DejaVuSans-28" transform="translate(883.650391 0)"/>
      <use xlink:href="#DejaVuSans-68" transform="translate(922.664062 0)"/>
      <use xlink:href="#DejaVuSans-67" transform="translate(986.042969 0)"/>
      <use xlink:href="#DejaVuSans-33" transform="translate(1049.519531 0)"/>
      <use xlink:href="#DejaVuSans-38" transform="translate(1113.142578 0)"/>
      <use xlink:href="#DejaVuSans-29" transform="translate(1176.765625 0)"/>
     </g>
    </g>
    <g id="text_8">
     <!-- 1e6 -->
     <g transform="translate(906.321875 345.316563) scale(0.1 -0.1)">
      <use xlink:href="#DejaVuSans-31"/>
      <use xlink:href="#DejaVuSans-65" transform="translate(63.623047 0)"/>
      <use xlink:href="#DejaVuSans-36" transform="translate(125.146484 0)"/>
     </g>
    </g>
   </g>
   <g id="matplotlib.axis_2">
    <g id="ytick_1">
     <g id="line2d_7">
      <defs>
       <path id="m227be4c636" d="M 0 0 
L -3.5 0 
" style="stroke: #000000; stroke-width: 0.8"/>
      </defs>
      <g>
       <use xlink:href="#m227be4c636" x="47.72" y="305.843966" style="stroke: #000000; stroke-width: 0.8"/>
      </g>
     </g>
     <g id="text_9">
      <!-- 0.0 -->
      <g transform="translate(24.816875 309.643185) scale(0.1 -0.1)">
       <use xlink:href="#DejaVuSans-30"/>
       <use xlink:href="#DejaVuSans-2e" transform="translate(63.623047 0)"/>
       <use xlink:href="#DejaVuSans-30" transform="translate(95.410156 0)"/>
      </g>
     </g>
    </g>
    <g id="ytick_2">
     <g id="line2d_8">
      <g>
       <use xlink:href="#m227be4c636" x="47.72" y="257.05983" style="stroke: #000000; stroke-width: 0.8"/>
      </g>
     </g>
     <g id="text_10">
      <!-- 0.2 -->
      <g transform="translate(24.816875 260.859048) scale(0.1 -0.1)">
       <use xlink:href="#DejaVuSans-30"/>
       <use xlink:href="#DejaVuSans-2e" transform="translate(63.623047 0)"/>
       <use xlink:href="#DejaVuSans-32" transform="translate(95.410156 0)"/>
      </g>
     </g>
    </g>
    <g id="ytick_3">
     <g id="line2d_9">
      <g>
       <use xlink:href="#m227be4c636" x="47.72" y="208.275693" style="stroke: #000000; stroke-width: 0.8"/>
      </g>
     </g>
     <g id="text_11">
      <!-- 0.4 -->
      <g transform="translate(24.816875 212.074912) scale(0.1 -0.1)">
       <use xlink:href="#DejaVuSans-30"/>
       <use xlink:href="#DejaVuSans-2e" transform="translate(63.623047 0)"/>
       <use xlink:href="#DejaVuSans-34" transform="translate(95.410156 0)"/>
      </g>
     </g>
    </g>
    <g id="ytick_4">
     <g id="line2d_10">
      <g>
       <use xlink:href="#m227be4c636" x="47.72" y="159.491557" style="stroke: #000000; stroke-width: 0.8"/>
      </g>
     </g>
     <g id="text_12">
      <!-- 0.6 -->
      <g transform="translate(24.816875 163.290776) scale(0.1 -0.1)">
       <use xlink:href="#DejaVuSans-30"/>
       <use xlink:href="#DejaVuSans-2e" transform="translate(63.623047 0)"/>
       <use xlink:href="#DejaVuSans-36" transform="translate(95.410156 0)"/>
      </g>
     </g>
    </g>
    <g id="ytick_5">
     <g id="line2d_11">
      <g>
       <use xlink:href="#m227be4c636" x="47.72" y="110.70742" style="stroke: #000000; stroke-width: 0.8"/>
      </g>
     </g>
     <g id="text_13">
      <!-- 0.8 -->
      <g transform="translate(24.816875 114.506639) scale(0.1 -0.1)">
       <use xlink:href="#DejaVuSans-30"/>
       <use xlink:href="#DejaVuSans-2e" transform="translate(63.623047 0)"/>
       <use xlink:href="#DejaVuSans-38" transform="translate(95.410156 0)"/>
      </g>
     </g>
    </g>
    <g id="ytick_6">
     <g id="line2d_12">
      <g>
       <use xlink:href="#m227be4c636" x="47.72" y="61.923284" style="stroke: #000000; stroke-width: 0.8"/>
      </g>
     </g>
     <g id="text_14">
      <!-- 1.0 -->
      <g transform="translate(24.816875 65.722503) scale(0.1 -0.1)">
       <use xlink:href="#DejaVuSans-31"/>
       <use xlink:href="#DejaVuSans-2e" transform="translate(63.623047 0)"/>
       <use xlink:href="#DejaVuSans-30" transform="translate(95.410156 0)"/>
      </g>
     </g>
    </g>
    <g id="text_15">
     <!-- global robust normalized signal -->
     <g transform="translate(18.737188 262.384406) rotate(-90) scale(0.1 -0.1)">
      <defs>
       <path id="DejaVuSans-6c" d="M 603 4863 
L 1178 4863 
L 1178 0 
L 603 0 
L 603 4863 
z
" transform="scale(0.015625)"/>
       <path id="DejaVuSans-62" d="M 3116 1747 
Q 3116 2381 2855 2742 
Q 2594 3103 2138 3103 
Q 1681 3103 1420 2742 
Q 1159 2381 1159 1747 
Q 1159 1113 1420 752 
Q 1681 391 2138 391 
Q 2594 391 2855 752 
Q 3116 1113 3116 1747 
z
M 1159 2969 
Q 1341 3281 1617 3432 
Q 1894 3584 2278 3584 
Q 2916 3584 3314 3078 
Q 3713 2572 3713 1747 
Q 3713 922 3314 415 
Q 2916 -91 2278 -91 
Q 1894 -91 1617 61 
Q 1341 213 1159 525 
L 1159 0 
L 581 0 
L 581 4863 
L 1159 4863 
L 1159 2969 
z
" transform="scale(0.015625)"/>
       <path id="DejaVuSans-75" d="M 544 1381 
L 544 3500 
L 1119 3500 
L 1119 1403 
Q 1119 906 1312 657 
Q 1506 409 1894 409 
Q 2359 409 2629 706 
Q 2900 1003 2900 1516 
L 2900 3500 
L 3475 3500 
L 3475 0 
L 2900 0 
L 2900 538 
Q 2691 219 2414 64 
Q 2138 -91 1772 -91 
Q 1169 -91 856 284 
Q 544 659 544 1381 
z
M 1991 3584 
L 1991 3584 
z
" transform="scale(0.015625)"/>
       <path id="DejaVuSans-73" d="M 2834 3397 
L 2834 2853 
Q 2591 2978 2328 3040 
Q 2066 3103 1784 3103 
Q 1356 3103 1142 2972 
Q 928 2841 928 2578 
Q 928 2378 1081 2264 
Q 1234 2150 1697 2047 
L 1894 2003 
Q 2506 1872 2764 1633 
Q 3022 1394 3022 966 
Q 3022 478 2636 193 
Q 2250 -91 1575 -91 
Q 1294 -91 989 -36 
Q 684 19 347 128 
L 347 722 
Q 666 556 975 473 
Q 1284 391 1588 391 
Q 1994 391 2212 530 
Q 2431 669 2431 922 
Q 2431 1156 2273 1281 
Q 2116 1406 1581 1522 
L 1381 1569 
Q 847 1681 609 1914 
Q 372 2147 372 2553 
Q 372 3047 722 3315 
Q 1072 3584 1716 3584 
Q 2034 3584 2315 3537 
Q 2597 3491 2834 3397 
z
" transform="scale(0.015625)"/>
       <path id="DejaVuSans-6d" d="M 3328 2828 
Q 3544 3216 3844 3400 
Q 4144 3584 4550 3584 
Q 5097 3584 5394 3201 
Q 5691 2819 5691 2113 
L 5691 0 
L 5113 0 
L 5113 2094 
Q 5113 2597 4934 2840 
Q 4756 3084 4391 3084 
Q 3944 3084 3684 2787 
Q 3425 2491 3425 1978 
L 3425 0 
L 2847 0 
L 2847 2094 
Q 2847 2600 2669 2842 
Q 2491 3084 2119 3084 
Q 1678 3084 1418 2786 
Q 1159 2488 1159 1978 
L 1159 0 
L 581 0 
L 581 3500 
L 1159 3500 
L 1159 2956 
Q 1356 3278 1631 3431 
Q 1906 3584 2284 3584 
Q 2666 3584 2933 3390 
Q 3200 3197 3328 2828 
z
" transform="scale(0.015625)"/>
       <path id="DejaVuSans-7a" d="M 353 3500 
L 3084 3500 
L 3084 2975 
L 922 459 
L 3084 459 
L 3084 0 
L 275 0 
L 275 525 
L 2438 3041 
L 353 3041 
L 353 3500 
z
" transform="scale(0.015625)"/>
      </defs>
      <use xlink:href="#DejaVuSans-67"/>
      <use xlink:href="#DejaVuSans-6c" transform="translate(63.476562 0)"/>
      <use xlink:href="#DejaVuSans-6f" transform="translate(91.259766 0)"/>
      <use xlink:href="#DejaVuSans-62" transform="translate(152.441406 0)"/>
      <use xlink:href="#DejaVuSans-61" transform="translate(215.917969 0)"/>
      <use xlink:href="#DejaVuSans-6c" transform="translate(277.197266 0)"/>
      <use xlink:href="#DejaVuSans-20" transform="translate(304.980469 0)"/>
      <use xlink:href="#DejaVuSans-72" transform="translate(336.767578 0)"/>
      <use xlink:href="#DejaVuSans-6f" transform="translate(375.630859 0)"/>
      <use xlink:href="#DejaVuSans-62" transform="translate(436.8125 0)"/>
      <use xlink:href="#DejaVuSans-75" transform="translate(500.289062 0)"/>
      <use xlink:href="#DejaVuSans-73" transform="translate(563.667969 0)"/>
      <use xlink:href="#DejaVuSans-74" transform="translate(615.767578 0)"/>
      <use xlink:href="#DejaVuSans-20" transform="translate(654.976562 0)"/>
      <use xlink:href="#DejaVuSans-6e" transform="translate(686.763672 0)"/>
      <use xlink:href="#DejaVuSans-6f" transform="translate(750.142578 0)"/>
      <use xlink:href="#DejaVuSans-72" transform="translate(811.324219 0)"/>
      <use xlink:href="#DejaVuSans-6d" transform="translate(850.6875 0)"/>
      <use xlink:href="#DejaVuSans-61" transform="translate(948.099609 0)"/>
      <use xlink:href="#DejaVuSans-6c" transform="translate(1009.378906 0)"/>
      <use xlink:href="#DejaVuSans-69" transform="translate(1037.162109 0)"/>
      <use xlink:href="#DejaVuSans-7a" transform="translate(1064.945312 0)"/>
      <use xlink:href="#DejaVuSans-65" transform="translate(1117.435547 0)"/>
      <use xlink:href="#DejaVuSans-64" transform="translate(1178.958984 0)"/>
      <use xlink:href="#DejaVuSans-20" transform="translate(1242.435547 0)"/>
      <use xlink:href="#DejaVuSans-73" transform="translate(1274.222656 0)"/>
      <use xlink:href="#DejaVuSans-69" transform="translate(1326.322266 0)"/>
      <use xlink:href="#DejaVuSans-67" transform="translate(1354.105469 0)"/>
      <use xlink:href="#DejaVuSans-6e" transform="translate(1417.582031 0)"/>
      <use xlink:href="#DejaVuSans-61" transform="translate(1480.960938 0)"/>
      <use xlink:href="#DejaVuSans-6c" transform="translate(1542.240234 0)"/>
     </g>
    </g>
   </g>
   <g id="line2d_13">
    <path d="M 87.605455 301.200229 
L 89.20407 300.957584 
L 92.401301 302.585887 
L 93.999916 299.134349 
L 95.598532 299.442252 
L 97.197147 303.340776 
L 98.795762 305.160827 
L 100.394378 298.9346 
L 101.992993 300.425712 
L 103.591609 298.747312 
L 105.190224 303.112143 
L 106.788839 304.336331 
L 109.98607 301.965028 
L 111.584686 302.565329 
L 113.183301 301.537871 
L 114.781917 301.533193 
L 116.380532 304.130044 
L 117.979147 300.89396 
L 119.577763 301.769562 
L 121.176378 301.754704 
L 122.774994 303.42803 
L 124.373609 300.673844 
L 125.972224 299.874254 
L 127.57084 304.641973 
L 129.169455 304.375597 
L 130.768071 300.472382 
L 132.366686 299.650417 
L 133.965302 302.080629 
L 135.563917 302.874527 
L 137.162532 304.545247 
L 138.761148 303.476536 
L 140.359763 302.220922 
L 141.958379 298.878411 
L 143.556994 296.031122 
L 145.155609 303.909894 
L 146.754225 303.374018 
L 148.35284 304.691512 
L 149.951456 305.843966 
L 151.550071 305.843966 
L 153.148686 303.193625 
L 154.747302 298.353815 
L 156.345917 303.956001 
L 157.944533 300.888565 
L 159.543148 299.311421 
L 161.141764 298.18913 
L 162.740379 300.470676 
L 164.338994 302.225804 
L 165.93761 302.251409 
L 167.536225 301.491176 
L 169.134841 301.43381 
L 170.733456 299.936149 
L 172.332071 297.749972 
L 173.930687 303.703066 
L 175.529302 305.843966 
L 177.127918 304.672892 
L 178.726533 304.424039 
L 180.325148 300.038847 
L 181.923764 300.561827 
L 183.522379 298.420898 
L 185.120995 297.366513 
L 186.71961 302.435526 
L 188.318226 305.371631 
L 189.916841 302.742931 
L 191.515456 302.223369 
L 193.114072 293.777987 
L 194.712687 293.682768 
L 196.311303 300.437727 
L 197.909918 303.96131 
L 199.508533 297.45104 
L 201.107149 296.97714 
L 202.705764 296.939376 
L 204.30438 297.304926 
L 205.902995 298.905182 
L 207.50161 299.829348 
L 209.100226 298.177112 
L 210.698841 297.024462 
L 212.297457 296.241741 
L 213.896072 301.412851 
L 215.494688 298.843412 
L 217.093303 301.538794 
L 218.691918 293.120396 
L 220.290534 291.47967 
L 221.889149 290.967068 
L 225.08638 298.163641 
L 226.684995 290.957713 
L 228.283611 268.910089 
L 229.882226 233.893047 
L 231.480842 180.889032 
L 233.079457 176.877227 
L 234.678073 194.720042 
L 236.276688 234.589481 
L 237.875303 271.452261 
L 239.473919 294.842721 
L 241.072534 296.602611 
L 242.67115 295.785001 
L 244.269765 300.345965 
L 245.86838 301.640167 
L 247.466996 302.443807 
L 249.065611 302.840029 
L 250.664227 304.118316 
L 252.262842 300.341019 
L 253.861457 297.188133 
L 255.460073 296.271859 
L 257.058688 297.114705 
L 258.657304 299.960221 
L 260.255919 298.890534 
L 261.854535 301.88268 
L 263.45315 301.621385 
L 265.051765 299.618574 
L 266.650381 300.488282 
L 268.248996 298.222775 
L 269.847612 298.076991 
L 271.446227 298.610704 
L 273.044842 296.39636 
L 276.242073 294.293907 
L 277.840689 290.236756 
L 279.439304 292.674944 
L 281.037919 298.969672 
L 282.636535 300.749611 
L 284.23515 301.090038 
L 285.833766 300.144089 
L 287.432381 302.140953 
L 289.030997 299.81414 
L 290.629612 300.627542 
L 292.228227 300.800931 
L 293.826843 302.528483 
L 295.425458 303.315589 
L 297.024074 303.48385 
L 298.622689 300.650772 
L 300.221304 295.995115 
L 301.81992 300.906819 
L 303.418535 302.051359 
L 305.017151 298.482897 
L 308.214381 303.169091 
L 309.812997 304.155373 
L 311.411612 303.733874 
L 313.010228 297.669449 
L 314.608843 300.325212 
L 316.207459 297.467493 
L 317.806074 281.342031 
L 319.404689 262.064866 
L 321.003305 174.489355 
L 322.60192 77.283081 
L 324.200536 197.94673 
L 325.799151 289.275052 
L 327.397766 298.232515 
L 328.996382 299.951864 
L 330.594997 302.690916 
L 332.193613 299.010419 
L 333.792228 304.189902 
L 335.390844 304.376486 
L 338.588074 301.781142 
L 340.18669 299.558593 
L 341.785305 298.216004 
L 343.383921 295.671203 
L 344.982536 296.312117 
L 346.581151 298.611397 
L 348.179767 296.547783 
L 349.778382 297.603464 
L 351.376998 297.896991 
L 352.975613 302.571268 
L 354.574228 305.230634 
L 356.172844 304.529923 
L 357.771459 300.350033 
L 359.370075 303.596886 
L 360.96869 304.308087 
L 362.567306 304.20102 
L 365.764536 298.256057 
L 367.363152 294.583222 
L 368.961767 297.072167 
L 370.560383 302.988467 
L 372.158998 288.958019 
L 373.757613 298.329657 
L 375.356229 302.88573 
L 376.954844 298.574942 
L 378.55346 301.636504 
L 380.152075 301.632518 
L 381.75069 304.18127 
L 383.349306 303.009487 
L 384.947921 299.647877 
L 386.546537 302.928223 
L 388.145152 301.312012 
L 389.743768 300.423174 
L 391.342383 305.843966 
L 392.940998 303.563782 
L 394.539614 298.358881 
L 396.138229 301.221558 
L 397.736845 303.105335 
L 399.33546 304.786223 
L 400.934075 303.941131 
L 402.532691 302.721258 
L 404.131306 303.299719 
L 405.729922 297.615807 
L 407.328537 300.364232 
L 408.927152 303.862259 
L 410.525768 299.316385 
L 412.124383 297.943343 
L 413.722999 300.037877 
L 415.321614 296.391338 
L 416.92023 299.715495 
L 418.518845 296.128594 
L 420.11746 295.08257 
L 421.716076 289.502638 
L 423.314691 273.201871 
L 424.913307 255.12764 
L 426.511922 211.983058 
L 429.709153 80.788621 
L 431.307768 61.923284 
L 432.906384 252.64442 
L 436.103615 141.811421 
L 437.70223 230.396752 
L 439.300845 278.890649 
L 440.899461 298.990599 
L 442.498076 302.62754 
L 445.695307 302.150863 
L 447.293922 300.974882 
L 448.892538 303.271774 
L 450.491153 304.805036 
L 452.089769 303.494022 
L 453.688384 303.426489 
L 455.286999 304.210366 
L 456.885615 303.627967 
L 458.48423 300.88623 
L 460.082846 298.410009 
L 461.681461 304.047815 
L 463.280077 303.798566 
L 464.878692 305.843966 
L 466.477307 305.710403 
L 468.075923 301.956319 
L 469.674538 301.958447 
L 471.273154 303.523256 
L 472.871769 302.527043 
L 474.470384 302.321606 
L 476.069 302.706174 
L 477.667615 304.272596 
L 479.266231 304.794875 
L 480.864846 303.55312 
L 482.463461 304.325878 
L 484.062077 305.545103 
L 485.660692 305.843966 
L 487.259308 300.933906 
L 488.857923 298.479832 
L 490.456539 298.701715 
L 492.055154 303.380442 
L 495.252385 300.149072 
L 496.851 303.571598 
L 498.449616 298.518401 
L 500.048231 299.253803 
L 503.245462 305.149079 
L 504.844077 305.843966 
L 508.041308 303.965352 
L 509.639923 301.04371 
L 511.238539 299.025595 
L 512.837154 302.057899 
L 514.43577 301.977265 
L 516.034385 302.24532 
L 517.633001 304.678256 
L 519.231616 303.11147 
L 520.830231 300.38702 
L 522.428847 301.188403 
L 524.027462 303.680727 
L 525.626078 300.36133 
L 527.224693 302.818642 
L 528.823308 303.127669 
L 530.421924 303.050563 
L 532.020539 302.379832 
L 533.619155 302.55095 
L 535.21777 302.565262 
L 536.816385 298.50404 
L 538.415001 305.096706 
L 540.013616 305.609349 
L 541.612232 302.365109 
L 543.210847 302.063513 
L 544.809463 301.884224 
L 548.006693 305.434236 
L 549.605309 305.15093 
L 551.203924 303.710994 
L 552.80254 304.603596 
L 554.401155 302.507012 
L 555.99977 303.17533 
L 557.598386 295.461213 
L 559.197001 285.494845 
L 560.795617 283.082085 
L 562.394232 249.02371 
L 563.992848 87.629775 
L 565.591463 61.923284 
L 567.190078 105.554248 
L 568.788694 194.656132 
L 570.387309 243.294523 
L 571.985925 259.731899 
L 573.58454 285.098713 
L 575.183155 282.421764 
L 576.781771 283.266952 
L 578.380386 287.917712 
L 581.577617 277.237344 
L 583.176232 286.452824 
L 584.774848 284.64059 
L 586.373463 277.385762 
L 587.972079 271.352534 
L 589.570694 242.620394 
L 591.16931 179.602217 
L 592.767925 162.370342 
L 594.36654 142.765519 
L 595.965156 115.218026 
L 597.563771 61.925473 
L 599.162387 92.604534 
L 600.761002 112.885586 
L 602.359617 104.176732 
L 603.958233 140.719697 
L 605.556848 241.298592 
L 608.754079 62.865168 
L 610.352694 127.94753 
L 611.95131 106.060943 
L 613.549925 187.347902 
L 615.148541 248.583542 
L 616.747156 283.202852 
L 618.345772 294.306921 
L 619.944387 290.733244 
L 621.543002 293.577538 
L 623.141618 298.242504 
L 624.740233 299.577915 
L 626.338849 298.273435 
L 627.937464 300.60474 
L 629.536079 301.418927 
L 631.134695 303.22424 
L 632.73331 298.813975 
L 634.331926 303.673998 
L 635.930541 305.293445 
L 637.529156 301.564255 
L 639.127772 304.168231 
L 640.726387 305.051389 
L 642.325003 305.593449 
L 643.923618 301.557073 
L 645.522234 301.785797 
L 647.120849 299.838984 
L 648.719464 300.778933 
L 650.31808 297.736956 
L 651.916695 289.712383 
L 653.515311 287.757007 
L 655.113926 266.68175 
L 656.712541 207.898244 
L 658.311157 140.077166 
L 659.909772 61.923284 
L 661.508388 179.340601 
L 663.107003 132.906912 
L 664.705619 72.738457 
L 666.304234 71.525511 
L 667.902849 160.138698 
L 671.10008 262.724862 
L 672.698696 284.666959 
L 674.297311 293.120847 
L 675.895926 295.970886 
L 677.494542 295.768041 
L 679.093157 299.479139 
L 680.691773 301.936313 
L 682.290388 299.811655 
L 683.889003 302.437039 
L 685.487619 297.152418 
L 687.086234 299.137938 
L 688.68485 299.929028 
L 690.283465 303.227471 
L 691.882081 304.355486 
L 693.480696 303.250021 
L 695.079311 300.936154 
L 696.677927 304.467872 
L 698.276542 305.83879 
L 699.875158 302.413297 
L 701.473773 300.994576 
L 703.072388 300.244642 
L 704.671004 302.446571 
L 706.269619 300.330039 
L 707.868235 303.483477 
L 709.46685 305.002261 
L 711.065465 298.989721 
L 712.664081 301.042514 
L 714.262696 299.817685 
L 715.861312 302.727162 
L 717.459927 303.166322 
L 719.058543 302.525302 
L 720.657158 298.047385 
L 722.255773 298.148362 
L 723.854389 302.329579 
L 725.453004 302.929614 
L 727.05162 304.832686 
L 728.650235 302.497386 
L 730.24885 302.785609 
L 731.847466 302.637971 
L 733.446081 300.044485 
L 735.044697 298.085245 
L 736.643312 297.197317 
L 738.241927 297.99083 
L 739.840543 297.787743 
L 741.439158 299.924344 
L 743.037774 298.692953 
L 744.636389 297.875079 
L 746.235005 297.520836 
L 747.83362 296.087649 
L 749.432235 297.623208 
L 751.030851 292.632494 
L 752.629466 277.221634 
L 754.228082 254.375489 
L 755.826697 209.979676 
L 757.425312 250.144355 
L 759.023928 258.374893 
L 760.622543 154.550252 
L 762.221159 98.207055 
L 763.819774 132.225633 
L 767.017005 235.125865 
L 768.61562 274.213831 
L 770.214236 279.052108 
L 771.812851 292.427471 
L 773.411467 298.947461 
L 775.010082 294.939418 
L 776.608697 299.217797 
L 778.207313 297.374614 
L 779.805928 297.224388 
L 781.404544 303.166397 
L 783.003159 301.701706 
L 784.601774 300.931726 
L 786.20039 301.045181 
L 787.799005 302.10309 
L 789.397621 298.069932 
L 790.996236 300.224332 
L 792.594852 301.656291 
L 794.193467 296.357949 
L 795.792082 292.506416 
L 797.390698 292.403907 
L 798.989313 293.760675 
L 800.587929 293.19292 
L 802.186544 279.713162 
L 803.785159 228.750142 
L 805.383775 168.698614 
L 806.98239 153.051309 
L 808.581006 204.943495 
L 810.179621 231.705932 
L 811.778236 235.255874 
L 813.376852 274.873282 
L 814.975467 294.48129 
L 816.574083 297.302506 
L 818.172698 295.630321 
L 819.771314 291.444037 
L 821.369929 282.126061 
L 822.968544 283.999021 
L 824.56716 294.362141 
L 826.165775 296.262993 
L 827.764391 292.959047 
L 829.363006 299.989665 
L 830.961621 298.421111 
L 832.560237 302.379987 
L 834.158852 300.555039 
L 835.757468 297.838878 
L 837.356083 296.110739 
L 838.954698 295.488067 
L 840.553314 300.891132 
L 842.151929 302.648673 
L 843.750545 305.173056 
L 845.34916 304.253949 
L 846.947776 302.110076 
L 848.546391 302.854425 
L 850.145006 302.004301 
L 851.743622 299.518209 
L 853.342237 298.465419 
L 854.940853 296.19671 
L 856.539468 295.998437 
L 858.138083 300.281403 
L 859.736699 299.577731 
L 861.335314 299.844119 
L 862.93393 299.421108 
L 864.532545 292.084846 
L 866.131161 295.429285 
L 867.729776 294.899304 
L 869.328391 292.985378 
L 870.927007 294.287121 
L 872.525622 295.789916 
L 874.124238 300.256395 
L 875.722853 296.795682 
L 877.321468 297.767981 
L 878.920084 299.536603 
L 880.518699 299.913543 
L 882.117315 301.130414 
L 883.71593 305.203965 
L 885.314545 302.931919 
L 885.314545 302.931919 
" clip-path="url(#pd7c94e8bd4)" style="fill: none; stroke: #2ca02c; stroke-width: 1.2; stroke-linecap: square"/>
   </g>
   <g id="line2d_14">
    <path d="M 87.605455 300.670843 
L 89.20407 300.042014 
L 90.802685 299.945397 
L 93.999916 302.436969 
L 95.598532 303.918975 
L 97.197147 304.658341 
L 98.795762 304.979305 
L 100.394378 305.513974 
L 101.992993 304.863856 
L 103.591609 303.872304 
L 105.190224 303.767499 
L 106.788839 303.987753 
L 109.98607 303.786331 
L 111.584686 303.950089 
L 113.183301 303.945995 
L 114.781917 304.452006 
L 116.380532 304.69273 
L 119.577763 303.958277 
L 121.176378 304.238302 
L 125.972224 303.879673 
L 127.57084 304.041793 
L 129.169455 304.437268 
L 132.366686 303.615205 
L 133.965302 303.937807 
L 135.563917 303.827271 
L 137.162532 303.052697 
L 138.761148 302.562243 
L 140.359763 302.509841 
L 141.958379 302.750565 
L 145.155609 304.130222 
L 146.754225 304.29398 
L 151.550071 304.493764 
L 153.148686 304.623133 
L 156.345917 304.072907 
L 157.944533 304.202276 
L 167.536225 303.323716 
L 169.134841 303.30734 
L 170.733456 303.950908 
L 172.332071 304.294799 
L 173.930687 305.321149 
L 175.529302 305.843966 
L 177.127918 305.739141 
L 178.726533 304.636233 
L 180.325148 304.507684 
L 181.923764 305.021882 
L 183.522379 305.211022 
L 185.120995 304.78689 
L 186.71961 304.555992 
L 188.318226 304.4561 
L 189.916841 305.071828 
L 191.515456 304.231752 
L 193.114072 301.928502 
L 196.311303 301.126089 
L 199.508533 302.457439 
L 201.107149 302.798054 
L 202.705764 303.372025 
L 205.902995 303.056791 
L 207.50161 302.986376 
L 209.100226 303.794519 
L 210.698841 304.161336 
L 212.297457 303.250025 
L 213.896072 302.709625 
L 217.093303 302.088984 
L 218.691918 301.329149 
L 220.290534 301.112989 
L 221.889149 300.54475 
L 223.487765 299.513077 
L 226.684995 297.055076 
L 228.283611 291.120501 
L 229.882226 282.284141 
L 233.079457 255.971572 
L 234.678073 261.172513 
L 236.276688 270.342938 
L 237.875303 287.868275 
L 239.473919 296.789788 
L 241.072534 299.483601 
L 242.67115 300.829688 
L 244.269765 300.43012 
L 245.86838 300.973795 
L 247.466996 302.126648 
L 249.065611 302.113548 
L 250.664227 298.948113 
L 252.262842 293.635817 
L 253.861457 289.898869 
L 255.460073 295.51903 
L 257.058688 298.617323 
L 258.657304 300.48416 
L 260.255919 301.867911 
L 261.854535 303.420333 
L 263.45315 303.896049 
L 266.650381 301.694328 
L 268.248996 301.278384 
L 269.847612 301.216156 
L 271.446227 300.155007 
L 273.044842 297.739582 
L 274.643458 292.057194 
L 276.242073 289.839916 
L 277.840689 288.313696 
L 279.439304 293.183846 
L 281.037919 299.367333 
L 282.636535 301.671402 
L 285.833766 302.611371 
L 287.432381 303.171422 
L 289.030997 303.47683 
L 292.228227 303.50385 
L 293.826843 304.409429 
L 295.425458 305.038258 
L 297.024074 304.715656 
L 298.622689 304.276785 
L 300.221304 303.636493 
L 303.418535 303.55052 
L 305.017151 303.757674 
L 306.615766 304.222745 
L 308.214381 305.250324 
L 309.812997 305.681007 
L 311.411612 304.679629 
L 313.010228 303.310616 
L 314.608843 302.837356 
L 316.207459 301.573148 
L 317.806074 298.607498 
L 319.404689 279.732798 
L 321.003305 236.608875 
L 322.60192 160.101329 
L 324.200536 204.250375 
L 325.799151 284.164078 
L 327.397766 287.64884 
L 328.996382 297.457919 
L 330.594997 301.984998 
L 332.193613 303.787969 
L 333.792228 304.201457 
L 336.989459 305.843966 
L 338.588074 305.843966 
L 343.383921 303.454722 
L 344.982536 303.150133 
L 348.179767 303.250025 
L 351.376998 304.319362 
L 352.975613 304.538797 
L 354.574228 304.566636 
L 357.771459 303.986934 
L 359.370075 305.333841 
L 360.96869 305.843966 
L 364.165921 304.064719 
L 365.764536 302.762028 
L 367.363152 300.302389 
L 368.961767 298.468304 
L 370.560383 299.408272 
L 372.158998 298.420814 
L 373.757613 300.261449 
L 375.356229 303.378575 
L 376.954844 304.231752 
L 378.55346 303.675795 
L 380.152075 303.706909 
L 383.349306 303.004389 
L 384.947921 302.886483 
L 386.546537 302.650672 
L 388.145152 302.676874 
L 389.743768 302.572069 
L 391.342383 301.851535 
L 392.940998 301.792583 
L 394.539614 302.300231 
L 396.138229 302.509841 
L 397.736845 302.956899 
L 399.33546 303.233649 
L 400.934075 303.156683 
L 402.532691 302.683424 
L 407.328537 301.817146 
L 408.927152 301.116264 
L 410.525768 300.087866 
L 413.722999 300.015813 
L 415.321614 298.810557 
L 416.92023 296.819265 
L 418.518845 296.255939 
L 420.11746 292.482964 
L 421.716076 285.762352 
L 423.314691 279.853979 
L 424.913307 262.089555 
L 426.511922 225.237548 
L 429.709153 61.923284 
L 431.307768 72.72028 
L 432.906384 236.621975 
L 434.504999 223.966789 
L 436.103615 195.368164 
L 437.70223 256.390791 
L 439.300845 288.536406 
L 440.899461 299.285454 
L 442.498076 302.087346 
L 444.096692 302.673599 
L 445.695307 303.495662 
L 447.293922 304.186719 
L 448.892538 304.473294 
L 450.491153 304.42908 
L 452.089769 304.586287 
L 456.885615 304.799172 
L 463.280077 305.448471 
L 468.075923 304.88187 
L 469.674538 305.546725 
L 471.273154 305.843966 
L 472.871769 305.029251 
L 474.470384 304.63869 
L 476.069 305.256056 
L 477.667615 305.336297 
L 479.266231 304.686179 
L 480.864846 304.732031 
L 482.463461 304.96293 
L 484.062077 305.637201 
L 485.660692 305.843966 
L 487.259308 305.051359 
L 488.857923 302.843906 
L 490.456539 302.657223 
L 492.055154 303.230374 
L 493.653769 304.406973 
L 495.252385 304.457737 
L 496.851 304.318544 
L 498.449616 304.313631 
L 500.048231 304.499496 
L 501.646846 304.289886 
L 508.041308 303.924707 
L 509.639923 302.43615 
L 511.238539 302.791504 
L 512.837154 303.88213 
L 519.231616 305.017788 
L 522.428847 305.292901 
L 524.027462 305.04399 
L 528.823308 305.15862 
L 530.421924 305.243774 
L 532.020539 304.981762 
L 533.619155 304.565817 
L 536.816385 304.49622 
L 538.415001 304.502771 
L 540.013616 304.958017 
L 541.612232 304.698461 
L 544.809463 303.6586 
L 546.408078 302.851276 
L 548.006693 303.659419 
L 549.605309 305.542631 
L 554.401155 305.808738 
L 555.99977 303.997579 
L 557.598386 299.062744 
L 559.197001 289.630307 
L 560.795617 284.681552 
L 562.394232 242.471396 
L 563.992848 61.923284 
L 565.591463 61.923284 
L 567.190078 78.222535 
L 568.788694 184.337453 
L 570.387309 234.696186 
L 571.985925 256.757608 
L 573.58454 270.801459 
L 575.183155 281.596359 
L 576.781771 284.995967 
L 578.380386 288.749291 
L 579.979002 289.325718 
L 583.176232 280.574512 
L 584.774848 272.622444 
L 586.373463 267.421503 
L 587.972079 261.617934 
L 589.570694 238.495362 
L 591.16931 210.460063 
L 592.767925 186.643159 
L 594.36654 148.703801 
L 595.965156 81.99551 
L 597.563771 61.923284 
L 603.958233 61.923284 
L 605.556848 228.722309 
L 607.155464 124.808294 
L 608.754079 61.923284 
L 610.352694 61.923284 
L 611.95131 120.982917 
L 613.549925 197.595267 
L 615.148541 250.849235 
L 616.747156 279.251351 
L 618.345772 294.916402 
L 621.543002 301.227619 
L 624.740233 303.045328 
L 626.338849 303.304065 
L 629.536079 303.434253 
L 631.134695 303.76668 
L 632.73331 304.28743 
L 634.331926 304.958017 
L 635.930541 304.928541 
L 637.529156 305.052996 
L 640.726387 305.784174 
L 642.325003 305.089842 
L 643.923618 305.176633 
L 645.522234 304.311993 
L 647.120849 302.269117 
L 648.719464 301.332424 
L 650.31808 299.786552 
L 651.916695 297.074727 
L 653.515311 288.258018 
L 655.113926 264.087398 
L 656.712541 218.949256 
L 658.311157 142.651321 
L 659.909772 87.576369 
L 661.508388 196.36381 
L 663.107003 125.070306 
L 664.705619 61.923284 
L 666.304234 61.923284 
L 667.902849 103.899725 
L 669.501465 207.577929 
L 671.10008 264.290457 
L 672.698696 293.436033 
L 674.297311 296.160959 
L 675.895926 297.387504 
L 677.494542 298.943201 
L 679.093157 299.806203 
L 680.691773 300.998358 
L 682.290388 301.560047 
L 683.889003 302.748927 
L 685.487619 303.241837 
L 688.68485 303.120657 
L 690.283465 303.444897 
L 691.882081 303.353193 
L 695.079311 302.958537 
L 698.276542 303.265582 
L 699.875158 303.471917 
L 703.072388 303.360562 
L 704.671004 303.367931 
L 706.269619 303.552977 
L 707.868235 303.490749 
L 709.46685 303.711822 
L 711.065465 303.708546 
L 712.664081 303.823177 
L 714.262696 303.679889 
L 717.459927 301.849898 
L 719.058543 298.548545 
L 720.657158 298.070373 
L 722.255773 297.755958 
L 723.854389 298.789269 
L 725.453004 301.481443 
L 727.05162 303.413783 
L 728.650235 304.619039 
L 730.24885 304.958017 
L 731.847466 303.986934 
L 733.446081 303.700359 
L 735.044697 303.184522 
L 736.643312 302.460714 
L 738.241927 303.104281 
L 739.840543 302.398486 
L 741.439158 302.403399 
L 743.037774 303.130482 
L 746.235005 303.308159 
L 747.83362 303.129663 
L 749.432235 301.515832 
L 751.030851 296.157684 
L 752.629466 282.002478 
L 754.228082 244.986713 
L 755.826697 174.826412 
L 759.023928 215.254885 
L 760.622543 72.877488 
L 762.221159 61.923284 
L 763.819774 61.923284 
L 765.41839 158.634061 
L 767.017005 227.43845 
L 768.61562 276.526424 
L 770.214236 288.834445 
L 771.812851 296.901144 
L 775.010082 300.955781 
L 776.608697 301.892475 
L 778.207313 301.849898 
L 779.805928 302.144662 
L 781.404544 302.691612 
L 783.003159 303.110831 
L 784.601774 303.231193 
L 786.20039 303.481742 
L 787.799005 303.99021 
L 790.996236 303.133757 
L 792.594852 303.101006 
L 794.193467 301.921951 
L 795.792082 300.896829 
L 797.390698 300.343328 
L 798.989313 298.682826 
L 800.587929 293.888004 
L 802.186544 280.047213 
L 803.785159 248.792439 
L 805.383775 204.669595 
L 806.98239 167.070852 
L 808.581006 186.040531 
L 810.179621 207.761338 
L 811.778236 236.94949 
L 813.376852 271.99689 
L 814.975467 292.853056 
L 816.574083 297.184444 
L 818.172698 298.438827 
L 819.771314 291.199104 
L 821.369929 273.067864 
L 822.968544 270.500145 
L 824.56716 292.40436 
L 826.165775 285.48724 
L 827.764391 281.3933 
L 829.363006 294.317049 
L 830.961621 300.218872 
L 832.560237 301.853173 
L 834.158852 301.882649 
L 835.757468 301.042573 
L 837.356083 300.33514 
L 838.954698 300.561126 
L 840.553314 300.564401 
L 842.151929 302.919235 
L 843.750545 304.592837 
L 845.34916 304.937547 
L 846.947776 304.143323 
L 848.546391 302.742377 
L 850.145006 302.447613 
L 851.743622 302.473814 
L 853.342237 302.696525 
L 854.940853 302.791504 
L 856.539468 302.418137 
L 858.138083 303.099368 
L 859.736699 302.857007 
L 861.335314 301.735268 
L 862.93393 300.225423 
L 864.532545 299.020167 
L 866.131161 299.288729 
L 867.729776 300.191033 
L 869.328391 300.024001 
L 870.927007 299.342769 
L 874.124238 301.677952 
L 877.321468 302.665411 
L 878.920084 303.009302 
L 882.117315 302.958537 
L 883.71593 303.335998 
L 885.314545 303.434253 
L 885.314545 303.434253 
" clip-path="url(#pd7c94e8bd4)" style="fill: none; stroke: #000000; stroke-width: 1.2; stroke-linecap: square"/>
   </g>
   <g id="line2d_15">
    <path d="M 87.605455 267.099852 
L 89.20407 256.706265 
L 90.802685 269.287922 
L 92.401301 245.099871 
L 93.999916 264.004605 
L 97.197147 273.012527 
L 98.795762 272.061775 
L 100.394378 267.119756 
L 101.992993 272.263287 
L 105.190224 281.355322 
L 106.788839 270.328519 
L 108.387455 262.947211 
L 109.98607 266.73742 
L 111.584686 267.153713 
L 113.183301 270.026282 
L 114.781917 278.812476 
L 116.380532 266.904311 
L 117.979147 249.560369 
L 119.577763 241.151238 
L 121.176378 265.58129 
L 122.774994 254.278136 
L 124.373609 259.195515 
L 125.972224 270.838491 
L 127.57084 266.857172 
L 129.169455 267.016401 
L 130.768071 273.564473 
L 132.366686 263.486449 
L 133.965302 266.092099 
L 135.563917 267.687814 
L 137.162532 264.240585 
L 138.761148 246.747845 
L 140.359763 237.480569 
L 141.958379 261.438631 
L 143.556994 249.560425 
L 145.155609 250.477342 
L 146.754225 226.488157 
L 148.35284 242.536503 
L 149.951456 242.978191 
L 151.550071 239.514721 
L 153.148686 258.343846 
L 154.747302 262.236094 
L 156.345917 254.634142 
L 157.944533 260.189087 
L 159.543148 247.495663 
L 161.141764 236.756963 
L 162.740379 253.260496 
L 164.338994 250.382871 
L 165.93761 230.850991 
L 167.536225 228.877927 
L 169.134841 256.76427 
L 170.733456 263.205611 
L 172.332071 267.732722 
L 173.930687 279.882456 
L 175.529302 276.469899 
L 177.127918 267.913684 
L 178.726533 276.717186 
L 180.325148 271.024937 
L 181.923764 261.27182 
L 183.522379 256.670586 
L 185.120995 264.512174 
L 186.71961 266.041594 
L 188.318226 278.476368 
L 189.916841 278.931963 
L 191.515456 269.601623 
L 193.114072 247.253501 
L 194.712687 215.750333 
L 196.311303 243.479201 
L 197.909918 236.456909 
L 199.508533 234.946444 
L 201.107149 241.407414 
L 202.705764 239.410403 
L 204.30438 258.04579 
L 205.902995 251.479496 
L 207.50161 236.681411 
L 209.100226 256.001855 
L 210.698841 263.637282 
L 212.297457 260.838075 
L 213.896072 252.409274 
L 215.494688 239.923372 
L 217.093303 257.052247 
L 218.691918 253.336695 
L 220.290534 245.005374 
L 221.889149 243.160361 
L 223.487765 263.299886 
L 225.08638 232.005815 
L 226.684995 251.936281 
L 228.283611 234.75592 
L 229.882226 214.301312 
L 231.480842 185.895849 
L 233.079457 139.240283 
L 234.678073 178.454435 
L 236.276688 224.32489 
L 237.875303 252.61351 
L 239.473919 239.469084 
L 241.072534 243.178107 
L 242.67115 210.878949 
L 244.269765 231.776293 
L 247.466996 252.06733 
L 249.065611 256.290553 
L 250.664227 257.258515 
L 252.262842 253.665879 
L 253.861457 243.650508 
L 255.460073 237.799877 
L 257.058688 278.221512 
L 258.657304 269.666904 
L 260.255919 269.056951 
L 261.854535 267.728559 
L 263.45315 269.489773 
L 265.051765 275.510841 
L 266.650381 273.80177 
L 268.248996 284.458303 
L 269.847612 268.101642 
L 271.446227 243.146716 
L 273.044842 231.3011 
L 274.643458 221.114582 
L 276.242073 124.025507 
L 277.840689 178.992434 
L 279.439304 261.5614 
L 281.037919 270.649136 
L 282.636535 270.371758 
L 284.23515 254.440761 
L 285.833766 243.667756 
L 287.432381 275.902675 
L 289.030997 269.372998 
L 290.629612 253.996121 
L 292.228227 245.966676 
L 293.826843 262.686582 
L 295.425458 270.052095 
L 297.024074 253.647181 
L 298.622689 245.59792 
L 300.221304 246.755292 
L 301.81992 252.377431 
L 303.418535 246.275873 
L 305.017151 264.015937 
L 306.615766 261.517489 
L 308.214381 266.077022 
L 309.812997 271.415266 
L 311.411612 249.394727 
L 313.010228 251.335276 
L 314.608843 260.902811 
L 316.207459 259.066 
L 317.806074 271.921863 
L 319.404689 243.713389 
L 321.003305 221.709248 
L 322.60192 202.054979 
L 324.200536 65.551467 
L 325.799151 61.923284 
L 327.397766 232.081751 
L 328.996382 251.238496 
L 330.594997 262.323352 
L 332.193613 251.050218 
L 333.792228 271.585876 
L 335.390844 260.137515 
L 336.989459 281.742293 
L 338.588074 281.929418 
L 340.18669 281.79216 
L 341.785305 267.388135 
L 343.383921 251.906567 
L 344.982536 222.3812 
L 346.581151 232.747655 
L 348.179767 253.83978 
L 349.778382 260.76373 
L 351.376998 251.495062 
L 352.975613 243.811559 
L 354.574228 211.417574 
L 356.172844 245.454114 
L 357.771459 248.602687 
L 359.370075 285.198661 
L 360.96869 267.049213 
L 362.567306 281.893337 
L 364.165921 250.449847 
L 365.764536 262.978607 
L 367.363152 268.899535 
L 368.961767 252.46008 
L 370.560383 178.529627 
L 372.158998 239.642711 
L 373.757613 239.59525 
L 375.356229 270.202115 
L 376.954844 257.168719 
L 378.55346 278.201733 
L 380.152075 248.15088 
L 381.75069 258.823684 
L 383.349306 260.089735 
L 384.947921 272.537339 
L 386.546537 268.045585 
L 388.145152 265.731047 
L 389.743768 268.786805 
L 391.342383 263.673894 
L 392.940998 273.449067 
L 394.539614 258.001386 
L 397.736845 250.533154 
L 399.33546 251.870662 
L 400.934075 245.812073 
L 402.532691 248.616537 
L 404.131306 243.833939 
L 405.729922 255.539278 
L 407.328537 271.669576 
L 408.927152 285.56957 
L 410.525768 297.088071 
L 412.124383 286.924332 
L 413.722999 258.442841 
L 415.321614 263.215621 
L 416.92023 276.859456 
L 418.518845 292.618 
L 420.11746 283.820245 
L 421.716076 215.571812 
L 423.314691 232.849882 
L 424.913307 252.119051 
L 426.511922 251.188959 
L 428.110537 257.334285 
L 429.709153 205.895835 
L 431.307768 96.089499 
L 432.906384 61.923284 
L 434.504999 61.923284 
L 436.103615 281.389211 
L 437.70223 294.154207 
L 439.300845 289.811725 
L 440.899461 263.914872 
L 442.498076 289.254593 
L 444.096692 259.833781 
L 445.695307 255.306909 
L 447.293922 258.73325 
L 448.892538 261.200707 
L 450.491153 280.646034 
L 452.089769 257.052503 
L 453.688384 279.116087 
L 455.286999 274.632995 
L 456.885615 285.311866 
L 458.48423 288.197631 
L 460.082846 288.920568 
L 461.681461 295.170912 
L 463.280077 293.523387 
L 464.878692 298.94224 
L 466.477307 288.192929 
L 468.075923 291.429001 
L 469.674538 302.268727 
L 471.273154 298.611512 
L 472.871769 300.869033 
L 474.470384 296.814146 
L 476.069 303.61568 
L 477.667615 297.016159 
L 479.266231 305.843966 
L 480.864846 288.543868 
L 482.463461 281.0905 
L 484.062077 296.804632 
L 485.660692 299.607833 
L 487.259308 285.64517 
L 488.857923 258.785734 
L 490.456539 264.402721 
L 492.055154 230.576723 
L 495.252385 286.063378 
L 496.851 287.645633 
L 498.449616 295.375862 
L 500.048231 295.213689 
L 501.646846 295.906441 
L 503.245462 287.603698 
L 504.844077 299.667566 
L 506.442693 233.781023 
L 508.041308 282.972261 
L 509.639923 268.436836 
L 511.238539 247.718609 
L 512.837154 270.520475 
L 514.43577 258.301596 
L 516.034385 287.818679 
L 517.633001 276.553973 
L 519.231616 281.444933 
L 520.830231 276.779474 
L 522.428847 283.057163 
L 524.027462 271.652096 
L 525.626078 283.737375 
L 527.224693 302.752923 
L 528.823308 302.749655 
L 530.421924 296.970313 
L 532.020539 284.015589 
L 533.619155 277.474648 
L 535.21777 297.011994 
L 536.816385 295.210974 
L 538.415001 275.425371 
L 540.013616 269.589699 
L 541.612232 287.065068 
L 543.210847 295.945356 
L 544.809463 293.88734 
L 546.408078 297.311041 
L 548.006693 291.351869 
L 549.605309 290.876622 
L 551.203924 294.502133 
L 552.80254 293.116374 
L 554.401155 285.815117 
L 555.99977 259.205067 
L 557.598386 279.859282 
L 559.197001 256.510344 
L 560.795617 221.053384 
L 562.394232 61.923284 
L 563.992848 222.008792 
L 565.591463 245.919858 
L 567.190078 256.628466 
L 568.788694 224.738763 
L 570.387309 231.083985 
L 571.985925 282.101837 
L 573.58454 283.286217 
L 575.183155 277.841971 
L 576.781771 261.753422 
L 578.380386 261.114307 
L 579.979002 287.775563 
L 581.577617 290.492705 
L 583.176232 292.673584 
L 584.774848 263.195511 
L 586.373463 264.662532 
L 587.972079 250.967711 
L 589.570694 259.660709 
L 591.16931 218.00469 
L 592.767925 283.56368 
L 594.36654 261.284971 
L 595.965156 256.403012 
L 597.563771 247.90792 
L 599.162387 224.067863 
L 600.761002 216.244964 
L 602.359617 157.522223 
L 603.958233 192.084733 
L 605.556848 82.095865 
L 607.155464 149.287594 
L 608.754079 196.17112 
L 610.352694 231.716177 
L 611.95131 176.612339 
L 613.549925 209.886213 
L 615.148541 235.824198 
L 616.747156 219.232786 
L 618.345772 238.730507 
L 619.944387 243.505955 
L 621.543002 231.263627 
L 623.141618 267.72083 
L 624.740233 274.186488 
L 626.338849 268.386119 
L 627.937464 270.546011 
L 629.536079 266.861343 
L 631.134695 258.723326 
L 632.73331 261.269147 
L 634.331926 268.146447 
L 635.930541 258.908201 
L 637.529156 256.729976 
L 639.127772 243.5201 
L 640.726387 262.183079 
L 643.923618 282.03085 
L 645.522234 280.646102 
L 647.120849 267.875888 
L 648.719464 273.801232 
L 650.31808 273.269626 
L 651.916695 282.289692 
L 653.515311 273.728581 
L 655.113926 276.412717 
L 656.712541 260.258298 
L 658.311157 223.082552 
L 659.909772 207.437953 
L 661.508388 102.471949 
L 663.107003 113.543623 
L 664.705619 198.932596 
L 666.304234 140.540252 
L 667.902849 131.258574 
L 669.501465 206.633861 
L 671.10008 252.349944 
L 672.698696 264.223525 
L 674.297311 250.306061 
L 675.895926 239.419572 
L 677.494542 222.563919 
L 679.093157 237.236869 
L 680.691773 264.366111 
L 682.290388 250.050646 
L 683.889003 256.438796 
L 685.487619 267.444274 
L 687.086234 264.592818 
L 688.68485 253.121904 
L 690.283465 253.738216 
L 691.882081 244.843058 
L 693.480696 272.685619 
L 695.079311 267.866524 
L 696.677927 265.409 
L 698.276542 239.863856 
L 699.875158 260.561436 
L 701.473773 262.990139 
L 703.072388 254.91262 
L 704.671004 278.003282 
L 706.269619 265.200323 
L 707.868235 239.131677 
L 709.46685 255.687358 
L 711.065465 241.070092 
L 712.664081 246.302414 
L 714.262696 249.32201 
L 715.861312 264.375472 
L 717.459927 263.953086 
L 719.058543 255.792501 
L 720.657158 255.720247 
L 722.255773 259.102947 
L 723.854389 254.800833 
L 725.453004 264.9074 
L 727.05162 265.807843 
L 728.650235 243.411616 
L 730.24885 243.169467 
L 731.847466 254.058962 
L 733.446081 250.518305 
L 735.044697 256.40544 
L 736.643312 262.998937 
L 738.241927 250.110881 
L 739.840543 259.498157 
L 741.439158 253.970101 
L 743.037774 241.732487 
L 744.636389 228.432045 
L 746.235005 239.22383 
L 747.83362 269.918123 
L 749.432235 272.26253 
L 751.030851 273.109228 
L 752.629466 252.830632 
L 754.228082 169.010874 
L 755.826697 152.543421 
L 757.425312 93.937771 
L 759.023928 61.923284 
L 760.622543 87.268459 
L 762.221159 135.408049 
L 763.819774 177.765367 
L 765.41839 237.030197 
L 767.017005 190.934194 
L 768.61562 236.231008 
L 770.214236 213.42 
L 771.812851 258.753333 
L 773.411467 236.358405 
L 775.010082 239.854304 
L 776.608697 256.552562 
L 778.207313 262.943248 
L 779.805928 259.769599 
L 781.404544 238.749254 
L 783.003159 237.142601 
L 784.601774 240.213668 
L 786.20039 230.628926 
L 787.799005 254.365675 
L 789.397621 254.218898 
L 790.996236 262.559965 
L 792.594852 260.810072 
L 794.193467 244.474456 
L 795.792082 240.751305 
L 797.390698 247.915949 
L 798.989313 248.683575 
L 800.587929 249.980933 
L 802.186544 242.328662 
L 803.785159 228.898657 
L 805.383775 103.138024 
L 806.98239 83.858255 
L 808.581006 136.765216 
L 810.179621 178.515657 
L 811.778236 192.967848 
L 813.376852 230.908106 
L 814.975467 252.220177 
L 818.172698 258.309597 
L 819.771314 268.6841 
L 821.369929 258.537473 
L 822.968544 234.272226 
L 824.56716 68.405861 
L 826.165775 187.043674 
L 827.764391 261.713759 
L 829.363006 261.467093 
L 830.961621 263.622701 
L 832.560237 241.120336 
L 834.158852 252.905626 
L 835.757468 232.954521 
L 837.356083 239.302211 
L 838.954698 253.355716 
L 840.553314 255.592824 
L 842.151929 274.059827 
L 843.750545 280.400153 
L 845.34916 275.74455 
L 846.947776 285.058509 
L 848.546391 278.546786 
L 850.145006 278.366289 
L 851.743622 280.711161 
L 853.342237 271.085157 
L 854.940853 279.24634 
L 856.539468 262.32011 
L 858.138083 268.26157 
L 859.736699 270.268452 
L 861.335314 264.795668 
L 862.93393 249.638027 
L 864.532545 250.132353 
L 866.131161 282.036217 
L 867.729776 271.817856 
L 869.328391 244.186538 
L 870.927007 244.623022 
L 872.525622 243.685729 
L 874.124238 248.899598 
L 875.722853 252.747944 
L 877.321468 242.848286 
L 878.920084 245.799698 
L 880.518699 242.545608 
L 882.117315 245.072818 
L 883.71593 265.791217 
L 885.314545 269.818547 
L 885.314545 269.818547 
" clip-path="url(#pd7c94e8bd4)" style="fill: none; stroke: #ff7f0e; stroke-width: 1.2; stroke-linecap: square"/>
   </g>
   <g id="line2d_16">
    <path d="M 87.605455 289.769512 
L 89.20407 267.688951 
L 90.802685 270.369372 
L 92.401301 267.173884 
L 93.999916 288.635338 
L 95.598532 284.153207 
L 97.197147 288.895612 
L 98.795762 288.849137 
L 100.394378 288.64884 
L 101.992993 285.305748 
L 103.591609 302.007273 
L 105.190224 296.254782 
L 108.387455 264.060724 
L 109.98607 268.386955 
L 111.584686 266.225399 
L 113.183301 277.676873 
L 114.781917 281.571105 
L 116.380532 279.367641 
L 117.979147 249.603045 
L 119.577763 250.436481 
L 121.176378 269.733906 
L 122.774994 269.364664 
L 124.373609 267.210082 
L 125.972224 287.42535 
L 127.57084 288.025696 
L 129.169455 288.217649 
L 130.768071 295.826559 
L 132.366686 282.287612 
L 133.965302 277.831118 
L 135.563917 278.265295 
L 137.162532 261.933673 
L 138.761148 248.936681 
L 140.359763 248.253348 
L 141.958379 269.233429 
L 143.556994 252.034245 
L 145.155609 256.638163 
L 146.754225 237.120386 
L 148.35284 239.355221 
L 149.951456 245.428716 
L 151.550071 238.658772 
L 153.148686 255.761021 
L 154.747302 250.641538 
L 156.345917 257.066235 
L 157.944533 267.076689 
L 159.543148 257.01741 
L 161.141764 256.217517 
L 162.740379 252.947519 
L 164.338994 254.1141 
L 165.93761 254.68529 
L 167.536225 261.346391 
L 169.134841 262.06113 
L 170.733456 284.488297 
L 172.332071 278.205237 
L 173.930687 296.287217 
L 175.529302 290.209587 
L 177.127918 270.57103 
L 178.726533 266.880087 
L 180.325148 196.177117 
L 181.923764 172.007735 
L 183.522379 195.48305 
L 185.120995 213.916932 
L 186.71961 221.657638 
L 188.318226 263.027443 
L 189.916841 284.302947 
L 191.515456 267.015571 
L 193.114072 252.903942 
L 194.712687 232.79739 
L 196.311303 236.636234 
L 197.909918 233.932032 
L 199.508533 235.033345 
L 201.107149 234.526922 
L 204.30438 252.884991 
L 205.902995 251.640287 
L 207.50161 253.829762 
L 209.100226 276.263111 
L 210.698841 282.361012 
L 212.297457 264.697284 
L 213.896072 251.075943 
L 215.494688 251.325033 
L 217.093303 261.511952 
L 218.691918 259.365584 
L 220.290534 260.189327 
L 221.889149 250.053792 
L 223.487765 255.405408 
L 225.08638 239.680741 
L 226.684995 241.487545 
L 228.283611 221.216399 
L 229.882226 175.00468 
L 231.480842 78.72851 
L 233.079457 61.923284 
L 234.678073 66.281427 
L 237.875303 174.556487 
L 239.473919 245.58022 
L 242.67115 229.237954 
L 244.269765 235.426233 
L 245.86838 247.778848 
L 247.466996 256.692841 
L 249.065611 257.13727 
L 250.664227 257.067598 
L 252.262842 255.925798 
L 253.861457 263.650862 
L 255.460073 268.023653 
L 257.058688 302.514086 
L 258.657304 288.585287 
L 260.255919 288.53068 
L 261.854535 286.216609 
L 263.45315 288.452905 
L 266.650381 299.016346 
L 268.248996 298.008642 
L 269.847612 279.342908 
L 271.446227 265.836075 
L 273.044842 263.555144 
L 274.643458 264.984081 
L 276.242073 251.049301 
L 277.840689 256.365315 
L 279.439304 270.728135 
L 281.037919 282.122223 
L 282.636535 280.523129 
L 284.23515 266.108428 
L 285.833766 264.221932 
L 287.432381 277.637072 
L 289.030997 294.043441 
L 290.629612 271.409535 
L 292.228227 265.41624 
L 293.826843 277.419024 
L 295.425458 283.135432 
L 297.024074 268.012956 
L 298.622689 264.180857 
L 300.221304 258.311884 
L 301.81992 270.874753 
L 303.418535 267.855913 
L 305.017151 274.058057 
L 306.615766 278.324118 
L 308.214381 294.477786 
L 309.812997 292.263875 
L 313.010228 277.746544 
L 314.608843 286.794074 
L 316.207459 291.301066 
L 317.806074 288.283401 
L 319.404689 280.399501 
L 321.003305 277.556526 
L 322.60192 219.584452 
L 324.200536 168.124296 
L 325.799151 91.134184 
L 327.397766 158.906574 
L 328.996382 214.478934 
L 330.594997 241.41555 
L 332.193613 262.703221 
L 333.792228 287.086914 
L 335.390844 295.083602 
L 336.989459 300.729253 
L 338.588074 302.809129 
L 340.18669 303.331434 
L 341.785305 292.163793 
L 343.383921 274.961394 
L 344.982536 262.360482 
L 346.581151 256.987219 
L 348.179767 257.878475 
L 349.778382 257.9548 
L 351.376998 255.448152 
L 352.975613 241.474164 
L 354.574228 223.187323 
L 356.172844 249.414113 
L 357.771459 264.184179 
L 359.370075 283.444376 
L 360.96869 278.851738 
L 362.567306 288.50262 
L 364.165921 286.359511 
L 365.764536 283.415008 
L 367.363152 289.366415 
L 368.961767 287.789237 
L 370.560383 279.367574 
L 372.158998 278.577774 
L 373.757613 281.015766 
L 375.356229 287.517836 
L 376.954844 284.957096 
L 378.55346 292.43508 
L 380.152075 295.968893 
L 381.75069 285.189446 
L 383.349306 280.15634 
L 384.947921 264.837413 
L 386.546537 287.116979 
L 388.145152 282.044202 
L 389.743768 289.558688 
L 391.342383 286.76418 
L 392.940998 288.38351 
L 394.539614 270.792035 
L 396.138229 260.986438 
L 397.736845 261.726317 
L 399.33546 252.076961 
L 400.934075 261.312442 
L 402.532691 275.132805 
L 404.131306 287.317843 
L 405.729922 293.965481 
L 407.328537 287.96814 
L 408.927152 284.492185 
L 410.525768 270.853953 
L 412.124383 275.671113 
L 413.722999 271.380298 
L 415.321614 262.227254 
L 416.92023 251.936631 
L 418.518845 257.653871 
L 420.11746 269.281593 
L 421.716076 260.350599 
L 423.314691 258.797761 
L 424.913307 245.181096 
L 426.511922 233.134143 
L 428.110537 208.883726 
L 429.709153 103.450908 
L 431.307768 116.521214 
L 432.906384 188.398504 
L 434.504999 222.485256 
L 436.103615 301.008211 
L 437.70223 289.859286 
L 439.300845 298.706038 
L 440.899461 298.365611 
L 442.498076 275.962131 
L 445.695307 262.248912 
L 447.293922 281.596562 
L 448.892538 268.597165 
L 450.491153 260.456674 
L 452.089769 250.532004 
L 453.688384 267.475934 
L 455.286999 277.134033 
L 456.885615 254.227688 
L 458.48423 257.9044 
L 460.082846 254.191577 
L 461.681461 251.156022 
L 463.280077 253.377764 
L 464.878692 256.09428 
L 466.477307 277.908852 
L 468.075923 274.129759 
L 469.674538 292.776854 
L 471.273154 285.129385 
L 472.871769 290.34435 
L 474.470384 299.444547 
L 476.069 291.003041 
L 477.667615 286.403222 
L 480.864846 302.746303 
L 482.463461 286.297251 
L 484.062077 284.616616 
L 485.660692 288.945007 
L 487.259308 278.712491 
L 488.857923 254.654448 
L 490.456539 243.481204 
L 492.055154 245.273454 
L 493.653769 259.059241 
L 495.252385 262.855404 
L 496.851 281.447759 
L 498.449616 277.34083 
L 500.048231 297.33779 
L 501.646846 284.401276 
L 503.245462 296.066382 
L 504.844077 291.606504 
L 506.442693 284.794838 
L 508.041308 282.545316 
L 509.639923 257.270262 
L 511.238539 252.825552 
L 512.837154 288.173243 
L 514.43577 292.965933 
L 516.034385 274.068548 
L 517.633001 240.793113 
L 519.231616 234.382582 
L 520.830231 248.475559 
L 522.428847 242.791752 
L 524.027462 239.627389 
L 525.626078 244.247052 
L 527.224693 261.613059 
L 528.823308 293.48265 
L 530.421924 291.232119 
L 532.020539 285.571639 
L 533.619155 287.280824 
L 535.21777 292.455616 
L 536.816385 290.89149 
L 538.415001 291.376822 
L 540.013616 286.783582 
L 541.612232 289.795635 
L 543.210847 291.823312 
L 544.809463 296.853204 
L 546.408078 294.099512 
L 548.006693 291.761064 
L 549.605309 294.861439 
L 551.203924 286.87606 
L 552.80254 266.073138 
L 554.401155 252.19222 
L 555.99977 261.308838 
L 557.598386 252.224113 
L 559.197001 260.455329 
L 560.795617 234.409211 
L 562.394232 128.401656 
L 563.992848 159.818473 
L 565.591463 174.432855 
L 567.190078 239.890277 
L 568.788694 272.477394 
L 570.387309 286.857144 
L 571.985925 277.269144 
L 573.58454 255.718695 
L 575.183155 277.593878 
L 576.781771 267.898597 
L 578.380386 275.890318 
L 579.979002 268.906802 
L 581.577617 270.726875 
L 583.176232 283.409675 
L 586.373463 260.116592 
L 587.972079 248.268748 
L 589.570694 261.489129 
L 591.16931 259.65542 
L 592.767925 280.748996 
L 594.36654 279.876933 
L 595.965156 279.706487 
L 597.563771 264.448387 
L 599.162387 251.63546 
L 600.761002 230.724756 
L 602.359617 101.113891 
L 603.958233 111.411982 
L 605.556848 106.647476 
L 607.155464 102.371361 
L 608.754079 114.153565 
L 610.352694 193.175682 
L 611.95131 244.565941 
L 615.148541 259.972873 
L 616.747156 273.697609 
L 618.345772 285.564038 
L 619.944387 276.906702 
L 621.543002 263.595658 
L 623.141618 265.860957 
L 624.740233 260.939603 
L 626.338849 259.217564 
L 627.937464 268.397569 
L 629.536079 266.093341 
L 631.134695 280.421567 
L 632.73331 263.874274 
L 634.331926 238.103935 
L 635.930541 197.856357 
L 637.529156 241.388151 
L 639.127772 280.413786 
L 640.726387 273.170703 
L 642.325003 283.178349 
L 643.923618 277.19562 
L 645.522234 282.508872 
L 647.120849 286.266549 
L 648.719464 283.566379 
L 650.31808 282.098529 
L 653.515311 277.912476 
L 655.113926 262.130461 
L 658.311157 277.107004 
L 659.909772 262.669138 
L 661.508388 209.009367 
L 663.107003 109.59934 
L 664.705619 73.880888 
L 666.304234 84.180648 
L 667.902849 168.081719 
L 669.501465 197.435577 
L 671.10008 233.968289 
L 672.698696 262.118425 
L 674.297311 267.526785 
L 675.895926 241.516117 
L 677.494542 246.86755 
L 679.093157 246.832272 
L 680.691773 242.950729 
L 682.290388 244.271461 
L 683.889003 239.899127 
L 685.487619 231.880354 
L 687.086234 238.142241 
L 688.68485 244.976862 
L 690.283465 241.005283 
L 691.882081 233.966541 
L 693.480696 248.800514 
L 695.079311 254.489748 
L 696.677927 247.006958 
L 698.276542 246.782979 
L 699.875158 251.104857 
L 701.473773 254.817515 
L 703.072388 253.444628 
L 704.671004 254.328337 
L 706.269619 243.736345 
L 707.868235 243.275248 
L 709.46685 233.846228 
L 711.065465 230.330957 
L 712.664081 230.153826 
L 714.262696 228.417321 
L 715.861312 229.687823 
L 717.459927 207.981417 
L 720.657158 138.881587 
L 722.255773 146.30995 
L 723.854389 169.612816 
L 725.453004 183.747988 
L 727.05162 188.409098 
L 728.650235 188.014274 
L 730.24885 204.476171 
L 731.847466 209.470228 
L 733.446081 218.241945 
L 735.044697 241.507227 
L 736.643312 249.171115 
L 738.241927 247.162646 
L 739.840543 277.924416 
L 741.439158 272.335478 
L 743.037774 265.172828 
L 744.636389 260.235304 
L 746.235005 265.016272 
L 747.83362 273.511189 
L 749.432235 279.570499 
L 751.030851 262.565146 
L 752.629466 266.116133 
L 754.228082 230.916355 
L 755.826697 143.006223 
L 757.425312 107.620599 
L 759.023928 61.923284 
L 760.622543 61.923284 
L 763.819774 185.218373 
L 765.41839 229.896017 
L 767.017005 242.367978 
L 768.61562 270.750075 
L 770.214236 268.63157 
L 771.812851 261.056338 
L 773.411467 262.771543 
L 775.010082 262.006064 
L 776.608697 256.064511 
L 778.207313 262.141937 
L 779.805928 269.360341 
L 781.404544 258.443599 
L 783.003159 250.363729 
L 784.601774 252.74737 
L 786.20039 250.724207 
L 787.799005 274.105634 
L 789.397621 282.8476 
L 790.996236 270.358814 
L 792.594852 280.740121 
L 794.193467 285.80848 
L 795.792082 274.185756 
L 797.390698 263.962765 
L 798.989313 262.992682 
L 800.587929 244.112104 
L 802.186544 235.036611 
L 803.785159 203.588308 
L 805.383775 130.237747 
L 806.98239 64.722637 
L 810.179621 185.76349 
L 811.778236 192.123361 
L 813.376852 205.896114 
L 814.975467 232.659942 
L 816.574083 255.64285 
L 818.172698 231.904411 
L 819.771314 272.09192 
L 821.369929 215.625149 
L 822.968544 112.651681 
L 824.56716 81.468271 
L 826.165775 84.221457 
L 827.764391 127.566162 
L 829.363006 146.668144 
L 830.961621 195.369735 
L 832.560237 230.030211 
L 834.158852 246.425829 
L 835.757468 253.503707 
L 837.356083 258.349138 
L 838.954698 281.942189 
L 840.553314 272.688588 
L 842.151929 284.988994 
L 843.750545 282.167541 
L 845.34916 281.868494 
L 846.947776 292.132 
L 848.546391 279.22924 
L 850.145006 292.123461 
L 851.743622 281.364528 
L 853.342237 285.911055 
L 854.940853 286.363701 
L 856.539468 285.547609 
L 858.138083 280.771789 
L 859.736699 282.588252 
L 861.335314 280.731726 
L 862.93393 274.010333 
L 864.532545 268.101587 
L 866.131161 284.539909 
L 867.729776 287.013467 
L 869.328391 268.022222 
L 870.927007 253.439203 
L 872.525622 229.262342 
L 874.124238 241.899029 
L 875.722853 233.175011 
L 877.321468 229.786571 
L 878.920084 215.910718 
L 880.518699 231.355155 
L 882.117315 220.258015 
L 883.71593 225.193216 
L 885.314545 230.988138 
L 885.314545 230.988138 
" clip-path="url(#pd7c94e8bd4)" style="fill: none; stroke-dasharray: 4.44,1.92; stroke-dashoffset: 0; stroke: #9467bd; stroke-width: 1.2"/>
   </g>
   <g id="patch_3">
    <path d="M 47.72 318.04 
L 47.72 49.72725 
" style="fill: none; stroke: #000000; stroke-width: 0.8; stroke-linejoin: miter; stroke-linecap: square"/>
   </g>
   <g id="patch_4">
    <path d="M 925.2 318.04 
L 925.2 49.72725 
" style="fill: none; stroke: #000000; stroke-width: 0.8; stroke-linejoin: miter; stroke-linecap: square"/>
   </g>
   <g id="patch_5">
    <path d="M 47.72 318.04 
L 925.2 318.04 
" style="fill: none; stroke: #000000; stroke-width: 0.8; stroke-linejoin: miter; stroke-linecap: square"/>
   </g>
   <g id="patch_6">
    <path d="M 47.72 49.72725 
L 925.2 49.72725 
" style="fill: none; stroke: #000000; stroke-width: 0.8; stroke-linejoin: miter; stroke-linecap: square"/>
   </g>
   <g id="legend_1">
    <g id="line2d_17">
     <path d="M 56.72 62.825688 
L 66.72 62.825688 
L 76.72 62.825688 
" style="fill: none; stroke: #2ca02c; stroke-width: 1.2; stroke-linecap: square"/>
    </g>
    <g id="text_16">
     <!-- ENCSR203XPU -->
     <g transform="translate(84.72 66.325688) scale(0.1 -0.1)">
      <defs>
       <path id="DejaVuSans-45" d="M 628 4666 
L 3578 4666 
L 3578 4134 
L 1259 4134 
L 1259 2753 
L 3481 2753 
L 3481 2222 
L 1259 2222 
L 1259 531 
L 3634 531 
L 3634 0 
L 628 0 
L 628 4666 
z
" transform="scale(0.015625)"/>
       <path id="DejaVuSans-4e" d="M 628 4666 
L 1478 4666 
L 3547 763 
L 3547 4666 
L 4159 4666 
L 4159 0 
L 3309 0 
L 1241 3903 
L 1241 0 
L 628 0 
L 628 4666 
z
" transform="scale(0.015625)"/>
       <path id="DejaVuSans-43" d="M 4122 4306 
L 4122 3641 
Q 3803 3938 3442 4084 
Q 3081 4231 2675 4231 
Q 1875 4231 1450 3742 
Q 1025 3253 1025 2328 
Q 1025 1406 1450 917 
Q 1875 428 2675 428 
Q 3081 428 3442 575 
Q 3803 722 4122 1019 
L 4122 359 
Q 3791 134 3420 21 
Q 3050 -91 2638 -91 
Q 1578 -91 968 557 
Q 359 1206 359 2328 
Q 359 3453 968 4101 
Q 1578 4750 2638 4750 
Q 3056 4750 3426 4639 
Q 3797 4528 4122 4306 
z
" transform="scale(0.015625)"/>
       <path id="DejaVuSans-53" d="M 3425 4513 
L 3425 3897 
Q 3066 4069 2747 4153 
Q 2428 4238 2131 4238 
Q 1616 4238 1336 4038 
Q 1056 3838 1056 3469 
Q 1056 3159 1242 3001 
Q 1428 2844 1947 2747 
L 2328 2669 
Q 3034 2534 3370 2195 
Q 3706 1856 3706 1288 
Q 3706 609 3251 259 
Q 2797 -91 1919 -91 
Q 1588 -91 1214 -16 
Q 841 59 441 206 
L 441 856 
Q 825 641 1194 531 
Q 1563 422 1919 422 
Q 2459 422 2753 634 
Q 3047 847 3047 1241 
Q 3047 1584 2836 1778 
Q 2625 1972 2144 2069 
L 1759 2144 
Q 1053 2284 737 2584 
Q 422 2884 422 3419 
Q 422 4038 858 4394 
Q 1294 4750 2059 4750 
Q 2388 4750 2728 4690 
Q 3069 4631 3425 4513 
z
" transform="scale(0.015625)"/>
       <path id="DejaVuSans-52" d="M 2841 2188 
Q 3044 2119 3236 1894 
Q 3428 1669 3622 1275 
L 4263 0 
L 3584 0 
L 2988 1197 
Q 2756 1666 2539 1819 
Q 2322 1972 1947 1972 
L 1259 1972 
L 1259 0 
L 628 0 
L 628 4666 
L 2053 4666 
Q 2853 4666 3247 4331 
Q 3641 3997 3641 3322 
Q 3641 2881 3436 2590 
Q 3231 2300 2841 2188 
z
M 1259 4147 
L 1259 2491 
L 2053 2491 
Q 2509 2491 2742 2702 
Q 2975 2913 2975 3322 
Q 2975 3731 2742 3939 
Q 2509 4147 2053 4147 
L 1259 4147 
z
" transform="scale(0.015625)"/>
       <path id="DejaVuSans-58" d="M 403 4666 
L 1081 4666 
L 2241 2931 
L 3406 4666 
L 4084 4666 
L 2584 2425 
L 4184 0 
L 3506 0 
L 2194 1984 
L 872 0 
L 191 0 
L 1856 2491 
L 403 4666 
z
" transform="scale(0.015625)"/>
       <path id="DejaVuSans-50" d="M 1259 4147 
L 1259 2394 
L 2053 2394 
Q 2494 2394 2734 2622 
Q 2975 2850 2975 3272 
Q 2975 3691 2734 3919 
Q 2494 4147 2053 4147 
L 1259 4147 
z
M 628 4666 
L 2053 4666 
Q 2838 4666 3239 4311 
Q 3641 3956 3641 3272 
Q 3641 2581 3239 2228 
Q 2838 1875 2053 1875 
L 1259 1875 
L 1259 0 
L 628 0 
L 628 4666 
z
" transform="scale(0.015625)"/>
       <path id="DejaVuSans-55" d="M 556 4666 
L 1191 4666 
L 1191 1831 
Q 1191 1081 1462 751 
Q 1734 422 2344 422 
Q 2950 422 3222 751 
Q 3494 1081 3494 1831 
L 3494 4666 
L 4128 4666 
L 4128 1753 
Q 4128 841 3676 375 
Q 3225 -91 2344 -91 
Q 1459 -91 1007 375 
Q 556 841 556 1753 
L 556 4666 
z
" transform="scale(0.015625)"/>
      </defs>
      <use xlink:href="#DejaVuSans-45"/>
      <use xlink:href="#DejaVuSans-4e" transform="translate(63.183594 0)"/>
      <use xlink:href="#DejaVuSans-43" transform="translate(137.988281 0)"/>
      <use xlink:href="#DejaVuSans-53" transform="translate(207.8125 0)"/>
      <use xlink:href="#DejaVuSans-52" transform="translate(271.289062 0)"/>
      <use xlink:href="#DejaVuSans-32" transform="translate(340.771484 0)"/>
      <use xlink:href="#DejaVuSans-30" transform="translate(404.394531 0)"/>
      <use xlink:href="#DejaVuSans-33" transform="translate(468.017578 0)"/>
      <use xlink:href="#DejaVuSans-58" transform="translate(531.640625 0)"/>
      <use xlink:href="#DejaVuSans-50" transform="translate(600.146484 0)"/>
      <use xlink:href="#DejaVuSans-55" transform="translate(660.449219 0)"/>
     </g>
    </g>
    <g id="line2d_18">
     <path d="M 56.72 77.503813 
L 66.72 77.503813 
L 76.72 77.503813 
" style="fill: none; stroke: #000000; stroke-width: 1.2; stroke-linecap: square"/>
    </g>
    <g id="text_17">
     <!-- AlphaGenome -->
     <g transform="translate(84.72 81.003813) scale(0.1 -0.1)">
      <defs>
       <path id="DejaVuSans-41" d="M 2188 4044 
L 1331 1722 
L 3047 1722 
L 2188 4044 
z
M 1831 4666 
L 2547 4666 
L 4325 0 
L 3669 0 
L 3244 1197 
L 1141 1197 
L 716 0 
L 50 0 
L 1831 4666 
z
" transform="scale(0.015625)"/>
       <path id="DejaVuSans-70" d="M 1159 525 
L 1159 -1331 
L 581 -1331 
L 581 3500 
L 1159 3500 
L 1159 2969 
Q 1341 3281 1617 3432 
Q 1894 3584 2278 3584 
Q 2916 3584 3314 3078 
Q 3713 2572 3713 1747 
Q 3713 922 3314 415 
Q 2916 -91 2278 -91 
Q 1894 -91 1617 61 
Q 1341 213 1159 525 
z
M 3116 1747 
Q 3116 2381 2855 2742 
Q 2594 3103 2138 3103 
Q 1681 3103 1420 2742 
Q 1159 2381 1159 1747 
Q 1159 1113 1420 752 
Q 1681 391 2138 391 
Q 2594 391 2855 752 
Q 3116 1113 3116 1747 
z
" transform="scale(0.015625)"/>
       <path id="DejaVuSans-47" d="M 3809 666 
L 3809 1919 
L 2778 1919 
L 2778 2438 
L 4434 2438 
L 4434 434 
Q 4069 175 3628 42 
Q 3188 -91 2688 -91 
Q 1594 -91 976 548 
Q 359 1188 359 2328 
Q 359 3472 976 4111 
Q 1594 4750 2688 4750 
Q 3144 4750 3555 4637 
Q 3966 4525 4313 4306 
L 4313 3634 
Q 3963 3931 3569 4081 
Q 3175 4231 2741 4231 
Q 1884 4231 1454 3753 
Q 1025 3275 1025 2328 
Q 1025 1384 1454 906 
Q 1884 428 2741 428 
Q 3075 428 3337 486 
Q 3600 544 3809 666 
z
" transform="scale(0.015625)"/>
      </defs>
      <use xlink:href="#DejaVuSans-41"/>
      <use xlink:href="#DejaVuSans-6c" transform="translate(68.408203 0)"/>
      <use xlink:href="#DejaVuSans-70" transform="translate(96.191406 0)"/>
      <use xlink:href="#DejaVuSans-68" transform="translate(159.667969 0)"/>
      <use xlink:href="#DejaVuSans-61" transform="translate(223.046875 0)"/>
      <use xlink:href="#DejaVuSans-47" transform="translate(284.326172 0)"/>
      <use xlink:href="#DejaVuSans-65" transform="translate(361.816406 0)"/>
      <use xlink:href="#DejaVuSans-6e" transform="translate(423.339844 0)"/>
      <use xlink:href="#DejaVuSans-6f" transform="translate(486.71875 0)"/>
      <use xlink:href="#DejaVuSans-6d" transform="translate(547.900391 0)"/>
      <use xlink:href="#DejaVuSans-65" transform="translate(645.3125 0)"/>
     </g>
    </g>
    <g id="line2d_19">
     <path d="M 178.085625 62.825688 
L 188.085625 62.825688 
L 198.085625 62.825688 
" style="fill: none; stroke: #ff7f0e; stroke-width: 1.2; stroke-linecap: square"/>
    </g>
    <g id="text_18">
     <!-- DiMeLo pooled -->
     <g transform="translate(206.085625 66.325688) scale(0.1 -0.1)">
      <defs>
       <path id="DejaVuSans-44" d="M 1259 4147 
L 1259 519 
L 2022 519 
Q 2988 519 3436 956 
Q 3884 1394 3884 2338 
Q 3884 3275 3436 3711 
Q 2988 4147 2022 4147 
L 1259 4147 
z
M 628 4666 
L 1925 4666 
Q 3281 4666 3915 4102 
Q 4550 3538 4550 2338 
Q 4550 1131 3912 565 
Q 3275 0 1925 0 
L 628 0 
L 628 4666 
z
" transform="scale(0.015625)"/>
       <path id="DejaVuSans-4d" d="M 628 4666 
L 1569 4666 
L 2759 1491 
L 3956 4666 
L 4897 4666 
L 4897 0 
L 4281 0 
L 4281 4097 
L 3078 897 
L 2444 897 
L 1241 4097 
L 1241 0 
L 628 0 
L 628 4666 
z
" transform="scale(0.015625)"/>
       <path id="DejaVuSans-4c" d="M 628 4666 
L 1259 4666 
L 1259 531 
L 3531 531 
L 3531 0 
L 628 0 
L 628 4666 
z
" transform="scale(0.015625)"/>
      </defs>
      <use xlink:href="#DejaVuSans-44"/>
      <use xlink:href="#DejaVuSans-69" transform="translate(77.001953 0)"/>
      <use xlink:href="#DejaVuSans-4d" transform="translate(104.785156 0)"/>
      <use xlink:href="#DejaVuSans-65" transform="translate(191.064453 0)"/>
      <use xlink:href="#DejaVuSans-4c" transform="translate(252.587891 0)"/>
      <use xlink:href="#DejaVuSans-6f" transform="translate(306.550781 0)"/>
      <use xlink:href="#DejaVuSans-20" transform="translate(367.732422 0)"/>
      <use xlink:href="#DejaVuSans-70" transform="translate(399.519531 0)"/>
      <use xlink:href="#DejaVuSans-6f" transform="translate(462.996094 0)"/>
      <use xlink:href="#DejaVuSans-6f" transform="translate(524.177734 0)"/>
      <use xlink:href="#DejaVuSans-6c" transform="translate(585.359375 0)"/>
      <use xlink:href="#DejaVuSans-65" transform="translate(613.142578 0)"/>
      <use xlink:href="#DejaVuSans-64" transform="translate(674.666016 0)"/>
     </g>
    </g>
    <g id="line2d_20">
     <path d="M 178.085625 77.503813 
L 188.085625 77.503813 
L 198.085625 77.503813 
" style="fill: none; stroke-dasharray: 4.44,1.92; stroke-dashoffset: 0; stroke: #9467bd; stroke-width: 1.2"/>
    </g>
    <g id="text_19">
     <!-- HyenaDNA pooled -->
     <g transform="translate(206.085625 81.003813) scale(0.1 -0.1)">
      <defs>
       <path id="DejaVuSans-48" d="M 628 4666 
L 1259 4666 
L 1259 2753 
L 3553 2753 
L 3553 4666 
L 4184 4666 
L 4184 0 
L 3553 0 
L 3553 2222 
L 1259 2222 
L 1259 0 
L 628 0 
L 628 4666 
z
" transform="scale(0.015625)"/>
       <path id="DejaVuSans-79" d="M 2059 -325 
Q 1816 -950 1584 -1140 
Q 1353 -1331 966 -1331 
L 506 -1331 
L 506 -850 
L 844 -850 
Q 1081 -850 1212 -737 
Q 1344 -625 1503 -206 
L 1606 56 
L 191 3500 
L 800 3500 
L 1894 763 
L 2988 3500 
L 3597 3500 
L 2059 -325 
z
" transform="scale(0.015625)"/>
      </defs>
      <use xlink:href="#DejaVuSans-48"/>
      <use xlink:href="#DejaVuSans-79" transform="translate(75.195312 0)"/>
      <use xlink:href="#DejaVuSans-65" transform="translate(134.375 0)"/>
      <use xlink:href="#DejaVuSans-6e" transform="translate(195.898438 0)"/>
      <use xlink:href="#DejaVuSans-61" transform="translate(259.277344 0)"/>
      <use xlink:href="#DejaVuSans-44" transform="translate(320.556641 0)"/>
      <use xlink:href="#DejaVuSans-4e" transform="translate(397.558594 0)"/>
      <use xlink:href="#DejaVuSans-41" transform="translate(472.363281 0)"/>
      <use xlink:href="#DejaVuSans-20" transform="translate(540.771484 0)"/>
      <use xlink:href="#DejaVuSans-70" transform="translate(572.558594 0)"/>
      <use xlink:href="#DejaVuSans-6f" transform="translate(636.035156 0)"/>
      <use xlink:href="#DejaVuSans-6f" transform="translate(697.216797 0)"/>
      <use xlink:href="#DejaVuSans-6c" transform="translate(758.398438 0)"/>
      <use xlink:href="#DejaVuSans-65" transform="translate(786.181641 0)"/>
      <use xlink:href="#DejaVuSans-64" transform="translate(847.705078 0)"/>
     </g>
    </g>
   </g>
  </g>
  <g id="text_20">
   <!-- chr16 region 7: overlay -->
   <g transform="translate(397.988438 16.318125) scale(0.12 -0.12)">
    <defs>
     <path id="DejaVuSans-37" d="M 525 4666 
L 3525 4666 
L 3525 4397 
L 1831 0 
L 1172 0 
L 2766 4134 
L 525 4134 
L 525 4666 
z
" transform="scale(0.015625)"/>
     <path id="DejaVuSans-3a" d="M 750 794 
L 1409 794 
L 1409 0 
L 750 0 
L 750 794 
z
M 750 3309 
L 1409 3309 
L 1409 2516 
L 750 2516 
L 750 3309 
z
" transform="scale(0.015625)"/>
     <path id="DejaVuSans-76" d="M 191 3500 
L 800 3500 
L 1894 563 
L 2988 3500 
L 3597 3500 
L 2284 0 
L 1503 0 
L 191 3500 
z
" transform="scale(0.015625)"/>
    </defs>
    <use xlink:href="#DejaVuSans-63"/>
    <use xlink:href="#DejaVuSans-68" transform="translate(54.980469 0)"/>
    <use xlink:href="#DejaVuSans-72" transform="translate(118.359375 0)"/>
    <use xlink:href="#DejaVuSans-31" transform="translate(159.472656 0)"/>
    <use xlink:href="#DejaVuSans-36" transform="translate(223.095703 0)"/>
    <use xlink:href="#DejaVuSans-20" transform="translate(286.71875 0)"/>
    <use xlink:href="#DejaVuSans-72" transform="translate(318.505859 0)"/>
    <use xlink:href="#DejaVuSans-65" transform="translate(357.369141 0)"/>
    <use xlink:href="#DejaVuSans-67" transform="translate(418.892578 0)"/>
    <use xlink:href="#DejaVuSans-69" transform="translate(482.369141 0)"/>
    <use xlink:href="#DejaVuSans-6f" transform="translate(510.152344 0)"/>
    <use xlink:href="#DejaVuSans-6e" transform="translate(571.333984 0)"/>
    <use xlink:href="#DejaVuSans-20" transform="translate(634.712891 0)"/>
    <use xlink:href="#DejaVuSans-37" transform="translate(666.5 0)"/>
    <use xlink:href="#DejaVuSans-3a" transform="translate(730.123047 0)"/>
    <use xlink:href="#DejaVuSans-20" transform="translate(763.814453 0)"/>
    <use xlink:href="#DejaVuSans-6f" transform="translate(795.601562 0)"/>
    <use xlink:href="#DejaVuSans-76" transform="translate(856.783203 0)"/>
    <use xlink:href="#DejaVuSans-65" transform="translate(915.962891 0)"/>
    <use xlink:href="#DejaVuSans-72" transform="translate(977.486328 0)"/>
    <use xlink:href="#DejaVuSans-6c" transform="translate(1018.599609 0)"/>
    <use xlink:href="#DejaVuSans-61" transform="translate(1046.382812 0)"/>
    <use xlink:href="#DejaVuSans-79" transform="translate(1107.662109 0)"/>
   </g>
   <!-- chr16_rank8_score3.838_reads346 -->
   <g transform="translate(363.175313 29.7555) scale(0.12 -0.12)">
    <defs>
     <path id="DejaVuSans-5f" d="M 3263 -1063 
L 3263 -1509 
L -63 -1509 
L -63 -1063 
L 3263 -1063 
z
" transform="scale(0.015625)"/>
     <path id="DejaVuSans-6b" d="M 581 4863 
L 1159 4863 
L 1159 1991 
L 2875 3500 
L 3609 3500 
L 1753 1863 
L 3688 0 
L 2938 0 
L 1159 1709 
L 1159 0 
L 581 0 
L 581 4863 
z
" transform="scale(0.015625)"/>
    </defs>
    <use xlink:href="#DejaVuSans-63"/>
    <use xlink:href="#DejaVuSans-68" transform="translate(54.980469 0)"/>
    <use xlink:href="#DejaVuSans-72" transform="translate(118.359375 0)"/>
    <use xlink:href="#DejaVuSans-31" transform="translate(159.472656 0)"/>
    <use xlink:href="#DejaVuSans-36" transform="translate(223.095703 0)"/>
    <use xlink:href="#DejaVuSans-5f" transform="translate(286.71875 0)"/>
    <use xlink:href="#DejaVuSans-72" transform="translate(336.71875 0)"/>
    <use xlink:href="#DejaVuSans-61" transform="translate(377.832031 0)"/>
    <use xlink:href="#DejaVuSans-6e" transform="translate(439.111328 0)"/>
    <use xlink:href="#DejaVuSans-6b" transform="translate(502.490234 0)"/>
    <use xlink:href="#DejaVuSans-38" transform="translate(560.400391 0)"/>
    <use xlink:href="#DejaVuSans-5f" transform="translate(624.023438 0)"/>
    <use xlink:href="#DejaVuSans-73" transform="translate(674.023438 0)"/>
    <use xlink:href="#DejaVuSans-63" transform="translate(726.123047 0)"/>
    <use xlink:href="#DejaVuSans-6f" transform="translate(781.103516 0)"/>
    <use xlink:href="#DejaVuSans-72" transform="translate(842.285156 0)"/>
    <use xlink:href="#DejaVuSans-65" transform="translate(881.148438 0)"/>
    <use xlink:href="#DejaVuSans-33" transform="translate(942.671875 0)"/>
    <use xlink:href="#DejaVuSans-2e" transform="translate(1006.294922 0)"/>
    <use xlink:href="#DejaVuSans-38" transform="translate(1038.082031 0)"/>
    <use xlink:href="#DejaVuSans-33" transform="translate(1101.705078 0)"/>
    <use xlink:href="#DejaVuSans-38" transform="translate(1165.328125 0)"/>
    <use xlink:href="#DejaVuSans-5f" transform="translate(1228.951172 0)"/>
    <use xlink:href="#DejaVuSans-72" transform="translate(1278.951172 0)"/>
    <use xlink:href="#DejaVuSans-65" transform="translate(1317.814453 0)"/>
    <use xlink:href="#DejaVuSans-61" transform="translate(1379.337891 0)"/>
    <use xlink:href="#DejaVuSans-64" transform="translate(1440.617188 0)"/>
    <use xlink:href="#DejaVuSans-73" transform="translate(1504.09375 0)"/>
    <use xlink:href="#DejaVuSans-33" transform="translate(1556.193359 0)"/>
    <use xlink:href="#DejaVuSans-34" transform="translate(1619.816406 0)"/>
    <use xlink:href="#DejaVuSans-36" transform="translate(1683.439453 0)"/>
   </g>
  </g>
 </g>
 <defs>
  <clipPath id="pd7c94e8bd4">
   <rect x="47.72" y="49.72725" width="877.48" height="268.31275"/>
  </clipPath>
 </defs>
</svg>
