<?xml version="1.0" encoding="utf-8" standalone="no"?>
<!DOCTYPE svg PUBLIC "-//W3C//DTD SVG 1.1//EN"
  "http://www.w3.org/Graphics/SVG/1.1/DTD/svg11.dtd">
<svg xmlns:xlink="http://www.w3.org/1999/xlink" width="936pt" height="360pt" viewBox="0 0 936 360" xmlns="http://www.w3.org/2000/svg" version="1.1">
 <metadata>
  <rdf:RDF xmlns:dc="http://purl.org/dc/elements/1.1/" xmlns:cc="http://creativecommons.org/ns#" xmlns:rdf="http://www.w3.org/1999/02/22-rdf-syntax-ns#">
   <cc:Work>
    <dc:type rdf:resource="http://purl.org/dc/dcmitype/StillImage"/>
    <dc:date>2026-07-17T20:04:56.243210</dc:date>
    <dc:format>image/svg+xml</dc:format>
    <dc:creator>
     <cc:Agent>
      <dc:title>Matplotlib v3.10.8, https://matplotlib.org/</dc:title>
     </cc:Agent>
    </dc:creator>
   </cc:Work>
  </rdf:RDF>
 </metadata>
 <defs>
  <style type="text/css">*{stroke-linejoin: round; stroke-linecap: butt}</style>
 </defs>
 <g id="figure_1">
  <g id="patch_1">
   <path d="M 0 360 
L 936 360 
L 936 0 
L 0 0 
z
" style="fill: #ffffff"/>
  </g>
  <g id="axes_1">
   <g id="patch_2">
    <path d="M 47.72 318.04 
L 925.2 318.04 
L 925.2 49.72725 
L 47.72 49.72725 
z
" style="fill: #ffffff"/>
   </g>
   <g id="matplotlib.axis_1">
    <g id="xtick_1">
     <g id="line2d_1">
      <defs>
       <path id="m19a3bd02d4" d="M 0 0 
L 0 3.5 
" style="stroke: #000000; stroke-width: 0.8"/>
      </defs>
      <g>
       <use xlink:href="#m19a3bd02d4" x="86.806147" y="318.04" style="stroke: #000000; stroke-width: 0.8"/>
      </g>
     </g>
     <g id="text_1">
      <!-- 2.40 -->
      <g transform="translate(75.673334 332.638438) scale(0.1 -0.1)">
       <defs>
        <path id="DejaVuSans-32" d="M 1228 531 
L 3431 531 
L 3431 0 
L 469 0 
L 469 531 
Q 828 903 1448 1529 
Q 2069 2156 2228 2338 
Q 2531 2678 2651 2914 
Q 2772 3150 2772 3378 
Q 2772 3750 2511 3984 
Q 2250 4219 1831 4219 
Q 1534 4219 1204 4116 
Q 875 4013 500 3803 
L 500 4441 
Q 881 4594 1212 4672 
Q 1544 4750 1819 4750 
Q 2544 4750 2975 4387 
Q 3406 4025 3406 3419 
Q 3406 3131 3298 2873 
Q 3191 2616 2906 2266 
Q 2828 2175 2409 1742 
Q 1991 1309 1228 531 
z
" transform="scale(0.015625)"/>
        <path id="DejaVuSans-2e" d="M 684 794 
L 1344 794 
L 1344 0 
L 684 0 
L 684 794 
z
" transform="scale(0.015625)"/>
        <path id="DejaVuSans-34" d="M 2419 4116 
L 825 1625 
L 2419 1625 
L 2419 4116 
z
M 2253 4666 
L 3047 4666 
L 3047 1625 
L 3713 1625 
L 3713 1100 
L 3047 1100 
L 3047 0 
L 2419 0 
L 2419 1100 
L 313 1100 
L 313 1709 
L 2253 4666 
z
" transform="scale(0.015625)"/>
        <path id="DejaVuSans-30" d="M 2034 4250 
Q 1547 4250 1301 3770 
Q 1056 3291 1056 2328 
Q 1056 1369 1301 889 
Q 1547 409 2034 409 
Q 2525 409 2770 889 
Q 3016 1369 3016 2328 
Q 3016 3291 2770 3770 
Q 2525 4250 2034 4250 
z
M 2034 4750 
Q 2819 4750 3233 4129 
Q 3647 3509 3647 2328 
Q 3647 1150 3233 529 
Q 2819 -91 2034 -91 
Q 1250 -91 836 529 
Q 422 1150 422 2328 
Q 422 3509 836 4129 
Q 1250 4750 2034 4750 
z
" transform="scale(0.015625)"/>
       </defs>
       <use xlink:href="#DejaVuSans-32"/>
       <use xlink:href="#DejaVuSans-2e" transform="translate(63.623047 0)"/>
       <use xlink:href="#DejaVuSans-34" transform="translate(95.410156 0)"/>
       <use xlink:href="#DejaVuSans-30" transform="translate(159.033203 0)"/>
      </g>
     </g>
    </g>
    <g id="xtick_2">
     <g id="line2d_2">
      <g>
       <use xlink:href="#m19a3bd02d4" x="246.667688" y="318.04" style="stroke: #000000; stroke-width: 0.8"/>
      </g>
     </g>
     <g id="text_2">
      <!-- 2.42 -->
      <g transform="translate(235.534876 332.638438) scale(0.1 -0.1)">
       <use xlink:href="#DejaVuSans-32"/>
       <use xlink:href="#DejaVuSans-2e" transform="translate(63.623047 0)"/>
       <use xlink:href="#DejaVuSans-34" transform="translate(95.410156 0)"/>
       <use xlink:href="#DejaVuSans-32" transform="translate(159.033203 0)"/>
      </g>
     </g>
    </g>
    <g id="xtick_3">
     <g id="line2d_3">
      <g>
       <use xlink:href="#m19a3bd02d4" x="406.529229" y="318.04" style="stroke: #000000; stroke-width: 0.8"/>
      </g>
     </g>
     <g id="text_3">
      <!-- 2.44 -->
      <g transform="translate(395.396417 332.638438) scale(0.1 -0.1)">
       <use xlink:href="#DejaVuSans-32"/>
       <use xlink:href="#DejaVuSans-2e" transform="translate(63.623047 0)"/>
       <use xlink:href="#DejaVuSans-34" transform="translate(95.410156 0)"/>
       <use xlink:href="#DejaVuSans-34" transform="translate(159.033203 0)"/>
      </g>
     </g>
    </g>
    <g id="xtick_4">
     <g id="line2d_4">
      <g>
       <use xlink:href="#m19a3bd02d4" x="566.390771" y="318.04" style="stroke: #000000; stroke-width: 0.8"/>
      </g>
     </g>
     <g id="text_4">
      <!-- 2.46 -->
      <g transform="translate(555.257958 332.638438) scale(0.1 -0.1)">
       <defs>
        <path id="DejaVuSans-36" d="M 2113 2584 
Q 1688 2584 1439 2293 
Q 1191 2003 1191 1497 
Q 1191 994 1439 701 
Q 1688 409 2113 409 
Q 2538 409 2786 701 
Q 3034 994 3034 1497 
Q 3034 2003 2786 2293 
Q 2538 2584 2113 2584 
z
M 3366 4563 
L 3366 3988 
Q 3128 4100 2886 4159 
Q 2644 4219 2406 4219 
Q 1781 4219 1451 3797 
Q 1122 3375 1075 2522 
Q 1259 2794 1537 2939 
Q 1816 3084 2150 3084 
Q 2853 3084 3261 2657 
Q 3669 2231 3669 1497 
Q 3669 778 3244 343 
Q 2819 -91 2113 -91 
Q 1303 -91 875 529 
Q 447 1150 447 2328 
Q 447 3434 972 4092 
Q 1497 4750 2381 4750 
Q 2619 4750 2861 4703 
Q 3103 4656 3366 4563 
z
" transform="scale(0.015625)"/>
       </defs>
       <use xlink:href="#DejaVuSans-32"/>
       <use xlink:href="#DejaVuSans-2e" transform="translate(63.623047 0)"/>
       <use xlink:href="#DejaVuSans-34" transform="translate(95.410156 0)"/>
       <use xlink:href="#DejaVuSans-36" transform="translate(159.033203 0)"/>
      </g>
     </g>
    </g>
    <g id="xtick_5">
     <g id="line2d_5">
      <g>
       <use xlink:href="#m19a3bd02d4" x="726.252312" y="318.04" style="stroke: #000000; stroke-width: 0.8"/>
      </g>
     </g>
     <g id="text_5">
      <!-- 2.48 -->
      <g transform="translate(715.119499 332.638438) scale(0.1 -0.1)">
       <defs>
        <path id="DejaVuSans-38" d="M 2034 2216 
Q 1584 2216 1326 1975 
Q 1069 1734 1069 1313 
Q 1069 891 1326 650 
Q 1584 409 2034 409 
Q 2484 409 2743 651 
Q 3003 894 3003 1313 
Q 3003 1734 2745 1975 
Q 2488 2216 2034 2216 
z
M 1403 2484 
Q 997 2584 770 2862 
Q 544 3141 544 3541 
Q 544 4100 942 4425 
Q 1341 4750 2034 4750 
Q 2731 4750 3128 4425 
Q 3525 4100 3525 3541 
Q 3525 3141 3298 2862 
Q 3072 2584 2669 2484 
Q 3125 2378 3379 2068 
Q 3634 1759 3634 1313 
Q 3634 634 3220 271 
Q 2806 -91 2034 -91 
Q 1263 -91 848 271 
Q 434 634 434 1313 
Q 434 1759 690 2068 
Q 947 2378 1403 2484 
z
M 1172 3481 
Q 1172 3119 1398 2916 
Q 1625 2713 2034 2713 
Q 2441 2713 2670 2916 
Q 2900 3119 2900 3481 
Q 2900 3844 2670 4047 
Q 2441 4250 2034 4250 
Q 1625 4250 1398 4047 
Q 1172 3844 1172 3481 
z
" transform="scale(0.015625)"/>
       </defs>
       <use xlink:href="#DejaVuSans-32"/>
       <use xlink:href="#DejaVuSans-2e" transform="translate(63.623047 0)"/>
       <use xlink:href="#DejaVuSans-34" transform="translate(95.410156 0)"/>
       <use xlink:href="#DejaVuSans-38" transform="translate(159.033203 0)"/>
      </g>
     </g>
    </g>
    <g id="xtick_6">
     <g id="line2d_6">
      <g>
       <use xlink:href="#m19a3bd02d4" x="886.113853" y="318.04" style="stroke: #000000; stroke-width: 0.8"/>
      </g>
     </g>
     <g id="text_6">
      <!-- 2.50 -->
      <g transform="translate(874.981041 332.638438) scale(0.1 -0.1)">
       <defs>
        <path id="DejaVuSans-35" d="M 691 4666 
L 3169 4666 
L 3169 4134 
L 1269 4134 
L 1269 2991 
Q 1406 3038 1543 3061 
Q 1681 3084 1819 3084 
Q 2600 3084 3056 2656 
Q 3513 2228 3513 1497 
Q 3513 744 3044 326 
Q 2575 -91 1722 -91 
Q 1428 -91 1123 -41 
Q 819 9 494 109 
L 494 744 
Q 775 591 1075 516 
Q 1375 441 1709 441 
Q 2250 441 2565 725 
Q 2881 1009 2881 1497 
Q 2881 1984 2565 2268 
Q 2250 2553 1709 2553 
Q 1456 2553 1204 2497 
Q 953 2441 691 2322 
L 691 4666 
z
" transform="scale(0.015625)"/>
       </defs>
       <use xlink:href="#DejaVuSans-32"/>
       <use xlink:href="#DejaVuSans-2e" transform="translate(63.623047 0)"/>
       <use xlink:href="#DejaVuSans-35" transform="translate(95.410156 0)"/>
       <use xlink:href="#DejaVuSans-30" transform="translate(159.033203 0)"/>
      </g>
     </g>
    </g>
    <g id="text_7">
     <!-- chr16 coordinate (hg38) -->
     <g transform="translate(425.670156 346.316563) scale(0.1 -0.1)">
      <defs>
       <path id="DejaVuSans-63" d="M 3122 3366 
L 3122 2828 
Q 2878 2963 2633 3030 
Q 2388 3097 2138 3097 
Q 1578 3097 1268 2742 
Q 959 2388 959 1747 
Q 959 1106 1268 751 
Q 1578 397 2138 397 
Q 2388 397 2633 464 
Q 2878 531 3122 666 
L 3122 134 
Q 2881 22 2623 -34 
Q 2366 -91 2075 -91 
Q 1284 -91 818 406 
Q 353 903 353 1747 
Q 353 2603 823 3093 
Q 1294 3584 2113 3584 
Q 2378 3584 2631 3529 
Q 2884 3475 3122 3366 
z
" transform="scale(0.015625)"/>
       <path id="DejaVuSans-68" d="M 3513 2113 
L 3513 0 
L 2938 0 
L 2938 2094 
Q 2938 2591 2744 2837 
Q 2550 3084 2163 3084 
Q 1697 3084 1428 2787 
Q 1159 2491 1159 1978 
L 1159 0 
L 581 0 
L 581 4863 
L 1159 4863 
L 1159 2956 
Q 1366 3272 1645 3428 
Q 1925 3584 2291 3584 
Q 2894 3584 3203 3211 
Q 3513 2838 3513 2113 
z
" transform="scale(0.015625)"/>
       <path id="DejaVuSans-72" d="M 2631 2963 
Q 2534 3019 2420 3045 
Q 2306 3072 2169 3072 
Q 1681 3072 1420 2755 
Q 1159 2438 1159 1844 
L 1159 0 
L 581 0 
L 581 3500 
L 1159 3500 
L 1159 2956 
Q 1341 3275 1631 3429 
Q 1922 3584 2338 3584 
Q 2397 3584 2469 3576 
Q 2541 3569 2628 3553 
L 2631 2963 
z
" transform="scale(0.015625)"/>
       <path id="DejaVuSans-31" d="M 794 531 
L 1825 531 
L 1825 4091 
L 703 3866 
L 703 4441 
L 1819 4666 
L 2450 4666 
L 2450 531 
L 3481 531 
L 3481 0 
L 794 0 
L 794 531 
z
" transform="scale(0.015625)"/>
       <path id="DejaVuSans-20" transform="scale(0.015625)"/>
       <path id="DejaVuSans-6f" d="M 1959 3097 
Q 1497 3097 1228 2736 
Q 959 2375 959 1747 
Q 959 1119 1226 758 
Q 1494 397 1959 397 
Q 2419 397 2687 759 
Q 2956 1122 2956 1747 
Q 2956 2369 2687 2733 
Q 2419 3097 1959 3097 
z
M 1959 3584 
Q 2709 3584 3137 3096 
Q 3566 2609 3566 1747 
Q 3566 888 3137 398 
Q 2709 -91 1959 -91 
Q 1206 -91 779 398 
Q 353 888 353 1747 
Q 353 2609 779 3096 
Q 1206 3584 1959 3584 
z
" transform="scale(0.015625)"/>
       <path id="DejaVuSans-64" d="M 2906 2969 
L 2906 4863 
L 3481 4863 
L 3481 0 
L 2906 0 
L 2906 525 
Q 2725 213 2448 61 
Q 2172 -91 1784 -91 
Q 1150 -91 751 415 
Q 353 922 353 1747 
Q 353 2572 751 3078 
Q 1150 3584 1784 3584 
Q 2172 3584 2448 3432 
Q 2725 3281 2906 2969 
z
M 947 1747 
Q 947 1113 1208 752 
Q 1469 391 1925 391 
Q 2381 391 2643 752 
Q 2906 1113 2906 1747 
Q 2906 2381 2643 2742 
Q 2381 3103 1925 3103 
Q 1469 3103 1208 2742 
Q 947 2381 947 1747 
z
" transform="scale(0.015625)"/>
       <path id="DejaVuSans-69" d="M 603 3500 
L 1178 3500 
L 1178 0 
L 603 0 
L 603 3500 
z
M 603 4863 
L 1178 4863 
L 1178 4134 
L 603 4134 
L 603 4863 
z
" transform="scale(0.015625)"/>
       <path id="DejaVuSans-6e" d="M 3513 2113 
L 3513 0 
L 2938 0 
L 2938 2094 
Q 2938 2591 2744 2837 
Q 2550 3084 2163 3084 
Q 1697 3084 1428 2787 
Q 1159 2491 1159 1978 
L 1159 0 
L 581 0 
L 581 3500 
L 1159 3500 
L 1159 2956 
Q 1366 3272 1645 3428 
Q 1925 3584 2291 3584 
Q 2894 3584 3203 3211 
Q 3513 2838 3513 2113 
z
" transform="scale(0.015625)"/>
       <path id="DejaVuSans-61" d="M 2194 1759 
Q 1497 1759 1228 1600 
Q 959 1441 959 1056 
Q 959 750 1161 570 
Q 1363 391 1709 391 
Q 2188 391 2477 730 
Q 2766 1069 2766 1631 
L 2766 1759 
L 2194 1759 
z
M 3341 1997 
L 3341 0 
L 2766 0 
L 2766 531 
Q 2569 213 2275 61 
Q 1981 -91 1556 -91 
Q 1019 -91 701 211 
Q 384 513 384 1019 
Q 384 1609 779 1909 
Q 1175 2209 1959 2209 
L 2766 2209 
L 2766 2266 
Q 2766 2663 2505 2880 
Q 2244 3097 1772 3097 
Q 1472 3097 1187 3025 
Q 903 2953 641 2809 
L 641 3341 
Q 956 3463 1253 3523 
Q 1550 3584 1831 3584 
Q 2591 3584 2966 3190 
Q 3341 2797 3341 1997 
z
" transform="scale(0.015625)"/>
       <path id="DejaVuSans-74" d="M 1172 4494 
L 1172 3500 
L 2356 3500 
L 2356 3053 
L 1172 3053 
L 1172 1153 
Q 1172 725 1289 603 
Q 1406 481 1766 481 
L 2356 481 
L 2356 0 
L 1766 0 
Q 1100 0 847 248 
Q 594 497 594 1153 
L 594 3053 
L 172 3053 
L 172 3500 
L 594 3500 
L 594 4494 
L 1172 4494 
z
" transform="scale(0.015625)"/>
       <path id="DejaVuSans-65" d="M 3597 1894 
L 3597 1613 
L 953 1613 
Q 991 1019 1311 708 
Q 1631 397 2203 397 
Q 2534 397 2845 478 
Q 3156 559 3463 722 
L 3463 178 
Q 3153 47 2828 -22 
Q 2503 -91 2169 -91 
Q 1331 -91 842 396 
Q 353 884 353 1716 
Q 353 2575 817 3079 
Q 1281 3584 2069 3584 
Q 2775 3584 3186 3129 
Q 3597 2675 3597 1894 
z
M 3022 2063 
Q 3016 2534 2758 2815 
Q 2500 3097 2075 3097 
Q 1594 3097 1305 2825 
Q 1016 2553 972 2059 
L 3022 2063 
z
" transform="scale(0.015625)"/>
       <path id="DejaVuSans-28" d="M 1984 4856 
Q 1566 4138 1362 3434 
Q 1159 2731 1159 2009 
Q 1159 1288 1364 580 
Q 1569 -128 1984 -844 
L 1484 -844 
Q 1016 -109 783 600 
Q 550 1309 550 2009 
Q 550 2706 781 3412 
Q 1013 4119 1484 4856 
L 1984 4856 
z
" transform="scale(0.015625)"/>
       <path id="DejaVuSans-67" d="M 2906 1791 
Q 2906 2416 2648 2759 
Q 2391 3103 1925 3103 
Q 1463 3103 1205 2759 
Q 947 2416 947 1791 
Q 947 1169 1205 825 
Q 1463 481 1925 481 
Q 2391 481 2648 825 
Q 2906 1169 2906 1791 
z
M 3481 434 
Q 3481 -459 3084 -895 
Q 2688 -1331 1869 -1331 
Q 1566 -1331 1297 -1286 
Q 1028 -1241 775 -1147 
L 775 -588 
Q 1028 -725 1275 -790 
Q 1522 -856 1778 -856 
Q 2344 -856 2625 -561 
Q 2906 -266 2906 331 
L 2906 616 
Q 2728 306 2450 153 
Q 2172 0 1784 0 
Q 1141 0 747 490 
Q 353 981 353 1791 
Q 353 2603 747 3093 
Q 1141 3584 1784 3584 
Q 2172 3584 2450 3431 
Q 2728 3278 2906 2969 
L 2906 3500 
L 3481 3500 
L 3481 434 
z
" transform="scale(0.015625)"/>
       <path id="DejaVuSans-33" d="M 2597 2516 
Q 3050 2419 3304 2112 
Q 3559 1806 3559 1356 
Q 3559 666 3084 287 
Q 2609 -91 1734 -91 
Q 1441 -91 1130 -33 
Q 819 25 488 141 
L 488 750 
Q 750 597 1062 519 
Q 1375 441 1716 441 
Q 2309 441 2620 675 
Q 2931 909 2931 1356 
Q 2931 1769 2642 2001 
Q 2353 2234 1838 2234 
L 1294 2234 
L 1294 2753 
L 1863 2753 
Q 2328 2753 2575 2939 
Q 2822 3125 2822 3475 
Q 2822 3834 2567 4026 
Q 2313 4219 1838 4219 
Q 1578 4219 1281 4162 
Q 984 4106 628 3988 
L 628 4550 
Q 988 4650 1302 4700 
Q 1616 4750 1894 4750 
Q 2613 4750 3031 4423 
Q 3450 4097 3450 3541 
Q 3450 3153 3228 2886 
Q 3006 2619 2597 2516 
z
" transform="scale(0.015625)"/>
       <path id="DejaVuSans-29" d="M 513 4856 
L 1013 4856 
Q 1481 4119 1714 3412 
Q 1947 2706 1947 2009 
Q 1947 1309 1714 600 
Q 1481 -109 1013 -844 
L 513 -844 
Q 928 -128 1133 580 
Q 1338 1288 1338 2009 
Q 1338 2731 1133 3434 
Q 928 4138 513 4856 
z
" transform="scale(0.015625)"/>
      </defs>
      <use xlink:href="#DejaVuSans-63"/>
      <use xlink:href="#DejaVuSans-68" transform="translate(54.980469 0)"/>
      <use xlink:href="#DejaVuSans-72" transform="translate(118.359375 0)"/>
      <use xlink:href="#DejaVuSans-31" transform="translate(159.472656 0)"/>
      <use xlink:href="#DejaVuSans-36" transform="translate(223.095703 0)"/>
      <use xlink:href="#DejaVuSans-20" transform="translate(286.71875 0)"/>
      <use xlink:href="#DejaVuSans-63" transform="translate(318.505859 0)"/>
      <use xlink:href="#DejaVuSans-6f" transform="translate(373.486328 0)"/>
      <use xlink:href="#DejaVuSans-6f" transform="translate(434.667969 0)"/>
      <use xlink:href="#DejaVuSans-72" transform="translate(495.849609 0)"/>
      <use xlink:href="#DejaVuSans-64" transform="translate(535.212891 0)"/>
      <use xlink:href="#DejaVuSans-69" transform="translate(598.689453 0)"/>
      <use xlink:href="#DejaVuSans-6e" transform="translate(626.472656 0)"/>
      <use xlink:href="#DejaVuSans-61" transform="translate(689.851562 0)"/>
      <use xlink:href="#DejaVuSans-74" transform="translate(751.130859 0)"/>
      <use xlink:href="#DejaVuSans-65" transform="translate(790.339844 0)"/>
      <use xlink:href="#DejaVuSans-20" transform="translate(851.863281 0)"/>
      <use xlink:href="#DejaVuSans-28" transform="translate(883.650391 0)"/>
      <use xlink:href="#DejaVuSans-68" transform="translate(922.664062 0)"/>
      <use xlink:href="#DejaVuSans-67" transform="translate(986.042969 0)"/>
      <use xlink:href="#DejaVuSans-33" transform="translate(1049.519531 0)"/>
      <use xlink:href="#DejaVuSans-38" transform="translate(1113.142578 0)"/>
      <use xlink:href="#DejaVuSans-29" transform="translate(1176.765625 0)"/>
     </g>
    </g>
    <g id="text_8">
     <!-- 1e6 -->
     <g transform="translate(906.321875 345.316563) scale(0.1 -0.1)">
      <use xlink:href="#DejaVuSans-31"/>
      <use xlink:href="#DejaVuSans-65" transform="translate(63.623047 0)"/>
      <use xlink:href="#DejaVuSans-36" transform="translate(125.146484 0)"/>
     </g>
    </g>
   </g>
   <g id="matplotlib.axis_2">
    <g id="ytick_1">
     <g id="line2d_7">
      <defs>
       <path id="m7c9398946d" d="M 0 0 
L -3.5 0 
" style="stroke: #000000; stroke-width: 0.8"/>
      </defs>
      <g>
       <use xlink:href="#m7c9398946d" x="47.72" y="305.843966" style="stroke: #000000; stroke-width: 0.8"/>
      </g>
     </g>
     <g id="text_9">
      <!-- 0.0 -->
      <g transform="translate(24.816875 309.643185) scale(0.1 -0.1)">
       <use xlink:href="#DejaVuSans-30"/>
       <use xlink:href="#DejaVuSans-2e" transform="translate(63.623047 0)"/>
       <use xlink:href="#DejaVuSans-30" transform="translate(95.410156 0)"/>
      </g>
     </g>
    </g>
    <g id="ytick_2">
     <g id="line2d_8">
      <g>
       <use xlink:href="#m7c9398946d" x="47.72" y="257.05983" style="stroke: #000000; stroke-width: 0.8"/>
      </g>
     </g>
     <g id="text_10">
      <!-- 0.2 -->
      <g transform="translate(24.816875 260.859048) scale(0.1 -0.1)">
       <use xlink:href="#DejaVuSans-30"/>
       <use xlink:href="#DejaVuSans-2e" transform="translate(63.623047 0)"/>
       <use xlink:href="#DejaVuSans-32" transform="translate(95.410156 0)"/>
      </g>
     </g>
    </g>
    <g id="ytick_3">
     <g id="line2d_9">
      <g>
       <use xlink:href="#m7c9398946d" x="47.72" y="208.275693" style="stroke: #000000; stroke-width: 0.8"/>
      </g>
     </g>
     <g id="text_11">
      <!-- 0.4 -->
      <g transform="translate(24.816875 212.074912) scale(0.1 -0.1)">
       <use xlink:href="#DejaVuSans-30"/>
       <use xlink:href="#DejaVuSans-2e" transform="translate(63.623047 0)"/>
       <use xlink:href="#DejaVuSans-34" transform="translate(95.410156 0)"/>
      </g>
     </g>
    </g>
    <g id="ytick_4">
     <g id="line2d_10">
      <g>
       <use xlink:href="#m7c9398946d" x="47.72" y="159.491557" style="stroke: #000000; stroke-width: 0.8"/>
      </g>
     </g>
     <g id="text_12">
      <!-- 0.6 -->
      <g transform="translate(24.816875 163.290776) scale(0.1 -0.1)">
       <use xlink:href="#DejaVuSans-30"/>
       <use xlink:href="#DejaVuSans-2e" transform="translate(63.623047 0)"/>
       <use xlink:href="#DejaVuSans-36" transform="translate(95.410156 0)"/>
      </g>
     </g>
    </g>
    <g id="ytick_5">
     <g id="line2d_11">
      <g>
       <use xlink:href="#m7c9398946d" x="47.72" y="110.70742" style="stroke: #000000; stroke-width: 0.8"/>
      </g>
     </g>
     <g id="text_13">
      <!-- 0.8 -->
      <g transform="translate(24.816875 114.506639) scale(0.1 -0.1)">
       <use xlink:href="#DejaVuSans-30"/>
       <use xlink:href="#DejaVuSans-2e" transform="translate(63.623047 0)"/>
       <use xlink:href="#DejaVuSans-38" transform="translate(95.410156 0)"/>
      </g>
     </g>
    </g>
    <g id="ytick_6">
     <g id="line2d_12">
      <g>
       <use xlink:href="#m7c9398946d" x="47.72" y="61.923284" style="stroke: #000000; stroke-width: 0.8"/>
      </g>
     </g>
     <g id="text_14">
      <!-- 1.0 -->
      <g transform="translate(24.816875 65.722503) scale(0.1 -0.1)">
       <use xlink:href="#DejaVuSans-31"/>
       <use xlink:href="#DejaVuSans-2e" transform="translate(63.623047 0)"/>
       <use xlink:href="#DejaVuSans-30" transform="translate(95.410156 0)"/>
      </g>
     </g>
    </g>
    <g id="text_15">
     <!-- global robust normalized signal -->
     <g transform="translate(18.737188 262.384406) rotate(-90) scale(0.1 -0.1)">
      <defs>
       <path id="DejaVuSans-6c" d="M 603 4863 
L 1178 4863 
L 1178 0 
L 603 0 
L 603 4863 
z
" transform="scale(0.015625)"/>
       <path id="DejaVuSans-62" d="M 3116 1747 
Q 3116 2381 2855 2742 
Q 2594 3103 2138 3103 
Q 1681 3103 1420 2742 
Q 1159 2381 1159 1747 
Q 1159 1113 1420 752 
Q 1681 391 2138 391 
Q 2594 391 2855 752 
Q 3116 1113 3116 1747 
z
M 1159 2969 
Q 1341 3281 1617 3432 
Q 1894 3584 2278 3584 
Q 2916 3584 3314 3078 
Q 3713 2572 3713 1747 
Q 3713 922 3314 415 
Q 2916 -91 2278 -91 
Q 1894 -91 1617 61 
Q 1341 213 1159 525 
L 1159 0 
L 581 0 
L 581 4863 
L 1159 4863 
L 1159 2969 
z
" transform="scale(0.015625)"/>
       <path id="DejaVuSans-75" d="M 544 1381 
L 544 3500 
L 1119 3500 
L 1119 1403 
Q 1119 906 1312 657 
Q 1506 409 1894 409 
Q 2359 409 2629 706 
Q 2900 1003 2900 1516 
L 2900 3500 
L 3475 3500 
L 3475 0 
L 2900 0 
L 2900 538 
Q 2691 219 2414 64 
Q 2138 -91 1772 -91 
Q 1169 -91 856 284 
Q 544 659 544 1381 
z
M 1991 3584 
L 1991 3584 
z
" transform="scale(0.015625)"/>
       <path id="DejaVuSans-73" d="M 2834 3397 
L 2834 2853 
Q 2591 2978 2328 3040 
Q 2066 3103 1784 3103 
Q 1356 3103 1142 2972 
Q 928 2841 928 2578 
Q 928 2378 1081 2264 
Q 1234 2150 1697 2047 
L 1894 2003 
Q 2506 1872 2764 1633 
Q 3022 1394 3022 966 
Q 3022 478 2636 193 
Q 2250 -91 1575 -91 
Q 1294 -91 989 -36 
Q 684 19 347 128 
L 347 722 
Q 666 556 975 473 
Q 1284 391 1588 391 
Q 1994 391 2212 530 
Q 2431 669 2431 922 
Q 2431 1156 2273 1281 
Q 2116 1406 1581 1522 
L 1381 1569 
Q 847 1681 609 1914 
Q 372 2147 372 2553 
Q 372 3047 722 3315 
Q 1072 3584 1716 3584 
Q 2034 3584 2315 3537 
Q 2597 3491 2834 3397 
z
" transform="scale(0.015625)"/>
       <path id="DejaVuSans-6d" d="M 3328 2828 
Q 3544 3216 3844 3400 
Q 4144 3584 4550 3584 
Q 5097 3584 5394 3201 
Q 5691 2819 5691 2113 
L 5691 0 
L 5113 0 
L 5113 2094 
Q 5113 2597 4934 2840 
Q 4756 3084 4391 3084 
Q 3944 3084 3684 2787 
Q 3425 2491 3425 1978 
L 3425 0 
L 2847 0 
L 2847 2094 
Q 2847 2600 2669 2842 
Q 2491 3084 2119 3084 
Q 1678 3084 1418 2786 
Q 1159 2488 1159 1978 
L 1159 0 
L 581 0 
L 581 3500 
L 1159 3500 
L 1159 2956 
Q 1356 3278 1631 3431 
Q 1906 3584 2284 3584 
Q 2666 3584 2933 3390 
Q 3200 3197 3328 2828 
z
" transform="scale(0.015625)"/>
       <path id="DejaVuSans-7a" d="M 353 3500 
L 3084 3500 
L 3084 2975 
L 922 459 
L 3084 459 
L 3084 0 
L 275 0 
L 275 525 
L 2438 3041 
L 353 3041 
L 353 3500 
z
" transform="scale(0.015625)"/>
      </defs>
      <use xlink:href="#DejaVuSans-67"/>
      <use xlink:href="#DejaVuSans-6c" transform="translate(63.476562 0)"/>
      <use xlink:href="#DejaVuSans-6f" transform="translate(91.259766 0)"/>
      <use xlink:href="#DejaVuSans-62" transform="translate(152.441406 0)"/>
      <use xlink:href="#DejaVuSans-61" transform="translate(215.917969 0)"/>
      <use xlink:href="#DejaVuSans-6c" transform="translate(277.197266 0)"/>
      <use xlink:href="#DejaVuSans-20" transform="translate(304.980469 0)"/>
      <use xlink:href="#DejaVuSans-72" transform="translate(336.767578 0)"/>
      <use xlink:href="#DejaVuSans-6f" transform="translate(375.630859 0)"/>
      <use xlink:href="#DejaVuSans-62" transform="translate(436.8125 0)"/>
      <use xlink:href="#DejaVuSans-75" transform="translate(500.289062 0)"/>
      <use xlink:href="#DejaVuSans-73" transform="translate(563.667969 0)"/>
      <use xlink:href="#DejaVuSans-74" transform="translate(615.767578 0)"/>
      <use xlink:href="#DejaVuSans-20" transform="translate(654.976562 0)"/>
      <use xlink:href="#DejaVuSans-6e" transform="translate(686.763672 0)"/>
      <use xlink:href="#DejaVuSans-6f" transform="translate(750.142578 0)"/>
      <use xlink:href="#DejaVuSans-72" transform="translate(811.324219 0)"/>
      <use xlink:href="#DejaVuSans-6d" transform="translate(850.6875 0)"/>
      <use xlink:href="#DejaVuSans-61" transform="translate(948.099609 0)"/>
      <use xlink:href="#DejaVuSans-6c" transform="translate(1009.378906 0)"/>
      <use xlink:href="#DejaVuSans-69" transform="translate(1037.162109 0)"/>
      <use xlink:href="#DejaVuSans-7a" transform="translate(1064.945312 0)"/>
      <use xlink:href="#DejaVuSans-65" transform="translate(1117.435547 0)"/>
      <use xlink:href="#DejaVuSans-64" transform="translate(1178.958984 0)"/>
      <use xlink:href="#DejaVuSans-20" transform="translate(1242.435547 0)"/>
      <use xlink:href="#DejaVuSans-73" transform="translate(1274.222656 0)"/>
      <use xlink:href="#DejaVuSans-69" transform="translate(1326.322266 0)"/>
      <use xlink:href="#DejaVuSans-67" transform="translate(1354.105469 0)"/>
      <use xlink:href="#DejaVuSans-6e" transform="translate(1417.582031 0)"/>
      <use xlink:href="#DejaVuSans-61" transform="translate(1480.960938 0)"/>
      <use xlink:href="#DejaVuSans-6c" transform="translate(1542.240234 0)"/>
     </g>
    </g>
   </g>
   <g id="line2d_13">
    <path d="M 87.605455 305.095952 
L 89.20407 305.76467 
L 90.802685 303.087002 
L 92.401301 304.715585 
L 93.999916 299.402923 
L 95.598532 299.446696 
L 97.197147 298.562715 
L 98.795762 301.909463 
L 100.394378 302.339034 
L 103.591609 305.843966 
L 105.190224 304.544501 
L 106.788839 302.73133 
L 108.387455 300.129278 
L 109.98607 302.896948 
L 111.584686 302.45821 
L 113.183301 298.888656 
L 114.781917 298.861736 
L 117.979147 302.445075 
L 119.577763 303.213971 
L 121.176378 300.420867 
L 122.774994 302.521434 
L 124.373609 303.709941 
L 125.972224 304.050747 
L 127.57084 303.910461 
L 129.169455 303.215291 
L 130.768071 298.16367 
L 132.366686 302.294171 
L 133.965302 303.223723 
L 135.563917 304.327166 
L 137.162532 302.940318 
L 138.761148 300.458854 
L 140.359763 300.43883 
L 141.958379 301.081273 
L 143.556994 301.591586 
L 145.155609 303.387272 
L 146.754225 301.818344 
L 148.35284 303.307976 
L 149.951456 302.263246 
L 151.550071 299.161183 
L 153.148686 299.851285 
L 154.747302 297.391074 
L 156.345917 297.292648 
L 157.944533 299.588809 
L 159.543148 304.753846 
L 161.141764 305.112674 
L 162.740379 304.392311 
L 164.338994 300.433724 
L 165.93761 302.062308 
L 167.536225 297.762472 
L 169.134841 300.231774 
L 170.733456 303.699338 
L 172.332071 302.318138 
L 173.930687 302.422835 
L 175.529302 302.174166 
L 177.127918 297.826502 
L 178.726533 300.442811 
L 181.923764 300.040976 
L 185.120995 297.246111 
L 186.71961 301.614175 
L 188.318226 303.225651 
L 189.916841 296.874326 
L 191.515456 299.101854 
L 193.114072 300.442622 
L 194.712687 301.438475 
L 196.311303 299.468251 
L 197.909918 303.770926 
L 199.508533 305.008497 
L 201.107149 301.937242 
L 202.705764 303.090348 
L 204.30438 299.560834 
L 205.902995 298.248413 
L 207.50161 299.404045 
L 209.100226 298.157134 
L 210.698841 300.813686 
L 212.297457 301.767432 
L 213.896072 304.491819 
L 215.494688 300.72533 
L 217.093303 298.292662 
L 218.691918 292.790309 
L 221.889149 303.294075 
L 223.487765 302.120406 
L 225.08638 302.345652 
L 226.684995 303.587405 
L 228.283611 300.546688 
L 229.882226 304.206475 
L 231.480842 301.53481 
L 233.079457 302.779978 
L 234.678073 300.758703 
L 236.276688 302.173096 
L 237.875303 301.695822 
L 239.473919 303.276863 
L 241.072534 302.399308 
L 244.269765 305.843966 
L 245.86838 305.098422 
L 247.466996 301.449699 
L 249.065611 300.498606 
L 250.664227 295.96967 
L 252.262842 299.196258 
L 253.861457 302.983337 
L 255.460073 300.705447 
L 257.058688 299.110395 
L 258.657304 301.459885 
L 261.854535 304.939036 
L 263.45315 300.988999 
L 265.051765 302.770195 
L 266.650381 303.516526 
L 268.248996 298.965394 
L 269.847612 297.973431 
L 271.446227 299.401536 
L 273.044842 297.698339 
L 274.643458 301.787347 
L 276.242073 304.862563 
L 277.840689 304.993823 
L 281.037919 299.454849 
L 282.636535 300.887585 
L 284.23515 300.100906 
L 285.833766 302.653133 
L 287.432381 301.348505 
L 289.030997 301.82273 
L 290.629612 304.481521 
L 292.228227 302.271838 
L 293.826843 302.080007 
L 295.425458 303.367189 
L 297.024074 301.318478 
L 298.622689 302.858981 
L 300.221304 302.883472 
L 301.81992 301.465527 
L 303.418535 302.510967 
L 305.017151 299.635426 
L 306.615766 301.423158 
L 308.214381 301.829319 
L 309.812997 299.849285 
L 311.411612 300.624489 
L 313.010228 293.80115 
L 314.608843 276.633335 
L 316.207459 206.066977 
L 317.806074 85.811478 
L 319.404689 156.741007 
L 321.003305 260.361319 
L 322.60192 119.456447 
L 324.200536 61.923284 
L 325.799151 61.923284 
L 327.397766 164.910615 
L 328.996382 183.857021 
L 330.594997 259.227175 
L 332.193613 286.060412 
L 333.792228 295.583462 
L 335.390844 294.927577 
L 336.989459 296.630902 
L 338.588074 297.599315 
L 340.18669 295.570878 
L 343.383921 303.610262 
L 344.982536 303.453474 
L 346.581151 302.913634 
L 348.179767 299.899753 
L 349.778382 302.178496 
L 351.376998 302.185458 
L 352.975613 300.763796 
L 354.574228 299.876467 
L 356.172844 301.801787 
L 357.771459 300.650787 
L 359.370075 301.726035 
L 360.96869 301.535291 
L 362.567306 303.212588 
L 365.764536 301.085813 
L 367.363152 301.975742 
L 368.961767 301.729811 
L 370.560383 304.526982 
L 372.158998 304.379576 
L 373.757613 305.439712 
L 376.954844 301.983014 
L 378.55346 299.360638 
L 380.152075 300.012898 
L 381.75069 296.658399 
L 383.349306 297.2681 
L 384.947921 296.967431 
L 386.546537 301.253374 
L 388.145152 304.931673 
L 389.743768 300.373683 
L 391.342383 300.035468 
L 392.940998 301.294469 
L 394.539614 299.93003 
L 396.138229 300.543514 
L 397.736845 305.173045 
L 399.33546 304.367931 
L 400.934075 303.299403 
L 402.532691 302.041529 
L 404.131306 301.115218 
L 405.729922 305.778162 
L 407.328537 304.609896 
L 408.927152 303.668573 
L 410.525768 299.017672 
L 412.124383 303.255411 
L 413.722999 300.881432 
L 415.321614 299.012536 
L 416.92023 300.488636 
L 418.518845 297.765836 
L 420.11746 296.424671 
L 421.716076 297.695087 
L 423.314691 303.765641 
L 424.913307 304.618 
L 426.511922 305.843966 
L 429.709153 305.843966 
L 431.307768 303.798917 
L 432.906384 300.49866 
L 434.504999 300.88184 
L 436.103615 302.6006 
L 439.300845 304.228621 
L 440.899461 303.989758 
L 442.498076 305.843966 
L 444.096692 305.173036 
L 445.695307 300.70212 
L 447.293922 300.545459 
L 448.892538 304.453295 
L 450.491153 305.740301 
L 452.089769 299.689595 
L 453.688384 304.111731 
L 455.286999 302.708862 
L 456.885615 303.251699 
L 458.48423 305.239217 
L 460.082846 301.686439 
L 461.681461 296.604298 
L 463.280077 295.792478 
L 464.878692 300.988182 
L 466.477307 302.672277 
L 468.075923 303.727463 
L 469.674538 301.0885 
L 471.273154 302.849374 
L 472.871769 302.109834 
L 474.470384 302.306528 
L 476.069 303.530991 
L 477.667615 303.737099 
L 479.266231 303.465072 
L 480.864846 302.286879 
L 482.463461 300.860712 
L 484.062077 303.806763 
L 485.660692 303.709153 
L 487.259308 303.178517 
L 488.857923 304.203224 
L 490.456539 304.203241 
L 492.055154 303.174247 
L 493.653769 300.394097 
L 495.252385 302.184302 
L 496.851 302.269872 
L 498.449616 303.861566 
L 500.048231 304.074765 
L 501.646846 303.364289 
L 503.245462 299.821473 
L 504.844077 297.586735 
L 506.442693 302.20111 
L 508.041308 304.562581 
L 509.639923 300.114916 
L 511.238539 299.997944 
L 512.837154 298.303154 
L 514.43577 302.422178 
L 516.034385 304.466634 
L 517.633001 303.821474 
L 519.231616 300.952758 
L 520.830231 302.88609 
L 522.428847 305.843966 
L 524.027462 303.52773 
L 525.626078 302.617361 
L 527.224693 302.707952 
L 530.421924 303.425351 
L 532.020539 300.769836 
L 533.619155 302.618365 
L 535.21777 302.704793 
L 536.816385 301.569807 
L 538.415001 301.229996 
L 540.013616 302.413886 
L 541.612232 303.896184 
L 543.210847 302.260845 
L 544.809463 299.613919 
L 546.408078 298.933925 
L 548.006693 299.769283 
L 549.605309 297.353562 
L 551.203924 296.717103 
L 552.80254 299.38212 
L 554.401155 303.58286 
L 555.99977 301.543423 
L 557.598386 296.556263 
L 559.197001 298.973865 
L 560.795617 299.451802 
L 562.394232 272.419757 
L 563.992848 225.840864 
L 565.591463 219.683417 
L 567.190078 237.808604 
L 568.788694 154.234724 
L 570.387309 161.224952 
L 571.985925 220.378414 
L 573.58454 267.81298 
L 575.183155 290.434376 
L 576.781771 294.409244 
L 578.380386 300.912958 
L 579.979002 296.547322 
L 581.577617 296.675379 
L 583.176232 298.995122 
L 584.774848 301.092634 
L 586.373463 298.157168 
L 587.972079 301.402348 
L 589.570694 302.134117 
L 591.16931 303.647924 
L 592.767925 302.992634 
L 594.36654 301.26627 
L 595.965156 300.501918 
L 597.563771 301.164525 
L 599.162387 301.285831 
L 600.761002 300.189091 
L 603.958233 303.192679 
L 605.556848 303.379244 
L 607.155464 302.400124 
L 608.754079 304.89048 
L 610.352694 300.18909 
L 611.95131 301.577192 
L 613.549925 304.60752 
L 615.148541 297.566405 
L 616.747156 301.422823 
L 618.345772 303.883235 
L 619.944387 298.881531 
L 621.543002 295.011936 
L 623.141618 297.763966 
L 624.740233 289.55445 
L 626.338849 287.493193 
L 627.937464 273.527254 
L 629.536079 174.323895 
L 631.134695 160.147535 
L 635.930541 271.152121 
L 637.529156 279.836773 
L 639.127772 285.54029 
L 640.726387 286.520922 
L 642.325003 295.982945 
L 643.923618 298.288887 
L 645.522234 297.275232 
L 647.120849 299.187645 
L 648.719464 296.740001 
L 650.31808 297.670553 
L 651.916695 299.327429 
L 653.515311 303.860864 
L 655.113926 298.410562 
L 656.712541 290.77897 
L 658.311157 294.915328 
L 659.909772 304.774128 
L 661.508388 300.503317 
L 663.107003 299.508212 
L 664.705619 301.353567 
L 666.304234 300.53876 
L 667.902849 300.71365 
L 669.501465 299.024623 
L 671.10008 297.945508 
L 672.698696 284.09437 
L 674.297311 258.020482 
L 675.895926 214.427532 
L 677.494542 138.990364 
L 679.093157 179.26538 
L 680.691773 129.680946 
L 682.290388 61.923284 
L 685.487619 61.923284 
L 687.086234 206.968354 
L 688.68485 61.923284 
L 690.283465 61.923284 
L 691.882081 94.040822 
L 693.480696 213.922195 
L 695.079311 280.121453 
L 696.677927 296.006938 
L 698.276542 297.49773 
L 699.875158 294.303056 
L 701.473773 296.590503 
L 703.072388 300.17712 
L 704.671004 295.579872 
L 706.269619 300.99698 
L 707.868235 301.648095 
L 709.46685 301.342696 
L 711.065465 303.890615 
L 712.664081 302.965377 
L 714.262696 302.555166 
L 715.861312 300.737878 
L 717.459927 298.712402 
L 719.058543 300.97037 
L 720.657158 297.815956 
L 722.255773 297.718906 
L 723.854389 300.669116 
L 725.453004 304.027843 
L 727.05162 303.499723 
L 728.650235 301.12832 
L 730.24885 303.03826 
L 731.847466 298.579477 
L 733.446081 302.580752 
L 735.044697 301.763432 
L 736.643312 296.847885 
L 738.241927 301.130533 
L 739.840543 300.238543 
L 743.037774 299.482222 
L 744.636389 304.021302 
L 746.235005 302.874904 
L 747.83362 300.683821 
L 749.432235 304.910742 
L 751.030851 303.330996 
L 752.629466 302.861817 
L 754.228082 303.050406 
L 755.826697 303.616823 
L 757.425312 305.033939 
L 759.023928 300.802275 
L 760.622543 303.699025 
L 762.221159 305.099954 
L 763.819774 304.075151 
L 765.41839 303.257949 
L 767.017005 299.140647 
L 770.214236 303.734497 
L 771.812851 302.428287 
L 773.411467 304.681714 
L 775.010082 303.73357 
L 776.608697 303.879957 
L 778.207313 303.050697 
L 779.805928 299.833442 
L 781.404544 300.62624 
L 783.003159 303.331013 
L 784.601774 301.598744 
L 787.799005 305.843966 
L 789.397621 304.325226 
L 790.996236 299.848294 
L 792.594852 300.807517 
L 794.193467 300.361271 
L 795.792082 301.137875 
L 797.390698 305.715898 
L 798.989313 303.93899 
L 800.587929 303.789098 
L 802.186544 304.530516 
L 803.785159 303.887077 
L 805.383775 305.014362 
L 806.98239 302.989429 
L 808.581006 302.708854 
L 810.179621 302.544185 
L 811.778236 299.226045 
L 813.376852 300.397136 
L 814.975467 302.319245 
L 816.574083 297.660771 
L 818.172698 299.689597 
L 819.771314 299.708891 
L 821.369929 304.750344 
L 822.968544 303.023822 
L 824.56716 300.371173 
L 826.165775 301.975427 
L 827.764391 303.965337 
L 829.363006 303.654277 
L 830.961621 303.522121 
L 832.560237 302.055639 
L 835.757468 304.384969 
L 837.356083 304.711704 
L 838.954698 302.791752 
L 840.553314 304.540308 
L 842.151929 303.390346 
L 845.34916 304.598195 
L 846.947776 300.467582 
L 848.546391 301.044976 
L 850.145006 304.371578 
L 851.743622 298.988251 
L 853.342237 296.804029 
L 854.940853 299.851033 
L 856.539468 297.821032 
L 858.138083 300.171465 
L 859.736699 301.174428 
L 861.335314 300.88424 
L 862.93393 300.140674 
L 864.532545 296.517634 
L 866.131161 298.665106 
L 867.729776 301.463076 
L 869.328391 302.136776 
L 870.927007 304.318491 
L 872.525622 303.356453 
L 874.124238 300.91791 
L 875.722853 301.548262 
L 877.321468 303.221421 
L 878.920084 302.685358 
L 880.518699 300.576798 
L 882.117315 304.437023 
L 883.71593 304.084062 
L 885.314545 304.950645 
L 885.314545 304.950645 
" clip-path="url(#p012e7fdaff)" style="fill: none; stroke: #2ca02c; stroke-width: 1.2; stroke-linecap: square"/>
   </g>
   <g id="line2d_14">
    <path d="M 87.605455 305.843966 
L 92.401301 305.843966 
L 95.598532 303.545608 
L 97.197147 303.423608 
L 98.795762 302.82098 
L 100.394378 303.086268 
L 101.992993 303.813351 
L 103.591609 303.576722 
L 105.190224 303.743754 
L 106.788839 305.188096 
L 108.387455 304.572368 
L 109.98607 304.653428 
L 111.584686 304.239121 
L 113.183301 302.881571 
L 114.781917 303.073167 
L 116.380532 303.959096 
L 117.979147 303.864116 
L 119.577763 301.669765 
L 121.176378 300.913204 
L 122.774994 301.645201 
L 124.373609 303.862479 
L 125.972224 305.552457 
L 127.57084 304.802447 
L 130.768071 302.880752 
L 132.366686 302.493465 
L 133.965302 303.060066 
L 137.162532 304.558448 
L 138.761148 303.729016 
L 140.359763 302.492646 
L 141.958379 302.387842 
L 143.556994 303.663513 
L 145.155609 304.039337 
L 146.754225 303.489111 
L 148.35284 302.758752 
L 149.951456 302.788229 
L 151.550071 302.432875 
L 153.148686 301.741818 
L 154.747302 301.643563 
L 156.345917 302.141386 
L 157.944533 302.152849 
L 159.543148 302.372285 
L 161.141764 302.967543 
L 162.740379 303.791244 
L 164.338994 303.823177 
L 165.93761 302.92906 
L 169.134841 302.185601 
L 173.930687 302.323157 
L 175.529302 302.349359 
L 177.127918 302.919235 
L 178.726533 304.465107 
L 180.325148 303.94927 
L 181.923764 302.088984 
L 183.522379 301.352075 
L 185.120995 301.568235 
L 186.71961 302.023481 
L 188.318226 301.365175 
L 189.916841 301.465068 
L 191.515456 302.401761 
L 193.114072 302.522942 
L 194.712687 301.907213 
L 197.909918 302.411586 
L 199.508533 302.254379 
L 201.107149 303.010939 
L 202.705764 303.612748 
L 204.30438 303.211542 
L 205.902995 302.988013 
L 207.50161 302.238003 
L 209.100226 302.134836 
L 210.698841 302.272392 
L 213.896072 302.755477 
L 215.494688 303.585728 
L 217.093303 303.461273 
L 218.691918 301.709066 
L 220.290534 301.604261 
L 221.889149 302.113548 
L 223.487765 302.850457 
L 225.08638 303.350736 
L 228.283611 303.198442 
L 229.882226 303.773231 
L 231.480842 304.533066 
L 233.079457 304.619857 
L 237.875303 302.421412 
L 239.473919 302.694887 
L 244.269765 305.843966 
L 245.86838 305.843966 
L 247.466996 304.040974 
L 249.065611 301.748368 
L 250.664227 301.897388 
L 252.262842 303.101006 
L 253.861457 303.494024 
L 255.460073 303.164871 
L 257.058688 303.363837 
L 258.657304 303.32781 
L 260.255919 303.705271 
L 261.854535 303.870667 
L 263.45315 303.194348 
L 265.051765 303.069892 
L 266.650381 303.176334 
L 268.248996 303.117382 
L 269.847612 302.555693 
L 271.446227 301.792583 
L 274.643458 302.421412 
L 276.242073 303.752761 
L 277.840689 303.744573 
L 279.439304 303.473554 
L 281.037919 303.719191 
L 282.636535 304.228477 
L 284.23515 304.519965 
L 285.833766 304.563361 
L 287.432381 304.230933 
L 290.629612 304.308718 
L 292.228227 304.416798 
L 295.425458 303.863297 
L 300.221304 302.234728 
L 301.81992 301.918676 
L 306.615766 301.548584 
L 309.812997 298.361861 
L 311.411612 292.62052 
L 313.010228 277.174904 
L 314.608843 245.438684 
L 316.207459 187.796013 
L 317.806074 95.253325 
L 319.404689 157.08819 
L 321.003305 257.098224 
L 322.60192 112.41512 
L 324.200536 61.923284 
L 325.799151 61.923284 
L 327.397766 120.170679 
L 328.996382 195.839786 
L 330.594997 253.082888 
L 332.193613 277.672728 
L 333.792228 291.952389 
L 335.390844 296.4983 
L 338.588074 300.980345 
L 340.18669 302.313332 
L 343.383921 302.283855 
L 344.982536 301.347162 
L 346.581151 301.155566 
L 348.179767 301.391377 
L 351.376998 302.121735 
L 354.574228 302.359184 
L 356.172844 302.76694 
L 357.771459 302.960174 
L 359.370075 302.653948 
L 362.567306 303.924707 
L 364.165921 302.588445 
L 365.764536 302.372285 
L 367.363152 303.932894 
L 368.961767 303.75358 
L 370.560383 303.98284 
L 372.158998 304.613307 
L 373.757613 303.164053 
L 375.356229 302.845544 
L 376.954844 303.08463 
L 378.55346 303.119019 
L 380.152075 302.994563 
L 381.75069 303.185341 
L 383.349306 303.511219 
L 386.546537 303.403139 
L 388.145152 303.651231 
L 391.342383 303.215636 
L 392.940998 303.385944 
L 394.539614 304.109753 
L 396.138229 304.433993 
L 397.736845 304.253859 
L 399.33546 304.437268 
L 400.934075 303.914062 
L 402.532691 303.516131 
L 407.328537 303.340911 
L 408.927152 303.511219 
L 413.722999 303.256576 
L 415.321614 303.803526 
L 418.518845 302.903678 
L 420.11746 302.906134 
L 421.716076 304.432355 
L 423.314691 303.994303 
L 424.913307 304.797534 
L 426.511922 305.843966 
L 431.307768 305.843966 
L 432.906384 302.675236 
L 434.504999 301.84826 
L 436.103615 302.800511 
L 437.70223 304.533066 
L 439.300845 305.843966 
L 440.899461 305.779671 
L 442.498076 305.46239 
L 444.096692 304.276785 
L 445.695307 303.704453 
L 450.491153 303.958277 
L 452.089769 304.512596 
L 453.688384 304.771333 
L 455.286999 304.10484 
L 458.48423 303.447353 
L 463.280077 303.398226 
L 464.878692 303.966465 
L 466.477307 304.092558 
L 468.075923 302.234728 
L 469.674538 300.55785 
L 471.273154 300.163195 
L 472.871769 299.983061 
L 474.470384 300.885366 
L 476.069 301.317686 
L 477.667615 302.497559 
L 479.266231 303.439165 
L 480.864846 303.702815 
L 484.062077 303.671701 
L 487.259308 304.637871 
L 488.857923 304.847481 
L 490.456539 304.451187 
L 492.055154 303.802707 
L 496.851 304.31445 
L 500.048231 303.653688 
L 501.646846 303.581634 
L 503.245462 303.363018 
L 504.844077 302.925785 
L 506.442693 302.673599 
L 508.041308 301.900663 
L 509.639923 301.738543 
L 512.837154 303.193529 
L 514.43577 303.452266 
L 517.633001 303.518588 
L 519.231616 303.166509 
L 520.830231 303.341729 
L 522.428847 303.385125 
L 524.027462 303.689714 
L 525.626078 304.178531 
L 527.224693 304.011498 
L 528.823308 303.661057 
L 530.421924 303.887042 
L 535.21777 303.538239 
L 536.816385 303.643043 
L 538.415001 303.950908 
L 540.013616 304.054075 
L 541.612232 303.686439 
L 543.210847 303.509581 
L 544.809463 303.545608 
L 546.408078 303.177153 
L 548.006693 303.045328 
L 549.605309 302.079158 
L 551.203924 301.851535 
L 552.80254 301.923589 
L 554.401155 301.209606 
L 557.598386 299.51799 
L 559.197001 295.358547 
L 560.795617 278.832131 
L 562.394232 241.665709 
L 563.992848 176.7391 
L 565.591463 193.927097 
L 567.190078 234.041156 
L 568.788694 150.040063 
L 570.387309 140.398016 
L 571.985925 212.97538 
L 573.58454 260.02621 
L 575.183155 285.7165 
L 576.781771 293.291926 
L 578.380386 297.657704 
L 579.979002 299.770176 
L 581.577617 301.063861 
L 583.176232 301.62555 
L 584.774848 302.05132 
L 586.373463 302.742377 
L 587.972079 302.735826 
L 589.570694 303.039597 
L 591.16931 304.07127 
L 592.767925 304.293161 
L 594.36654 303.02404 
L 595.965156 302.958537 
L 597.563771 301.864636 
L 599.162387 301.833522 
L 600.761002 302.675236 
L 602.359617 302.919235 
L 603.958233 302.840631 
L 607.155464 303.417877 
L 608.754079 303.34828 
L 610.352694 302.794779 
L 611.95131 302.966725 
L 615.148541 302.735826 
L 616.747156 303.297515 
L 618.345772 304.229296 
L 619.944387 303.952545 
L 621.543002 303.02404 
L 623.141618 301.183404 
L 624.740233 296.28214 
L 626.338849 283.33874 
L 627.937464 261.421424 
L 629.536079 189.053671 
L 631.134695 172.337296 
L 632.73331 201.420644 
L 634.331926 239.163493 
L 635.930541 265.377808 
L 637.529156 284.684827 
L 639.127772 292.407635 
L 640.726387 295.980826 
L 643.923618 299.83568 
L 645.522234 300.991808 
L 647.120849 301.553497 
L 648.719464 301.615725 
L 650.31808 301.407752 
L 651.916695 300.661018 
L 653.515311 297.916441 
L 655.113926 288.896673 
L 656.712541 278.288456 
L 658.311157 276.20546 
L 659.909772 284.789632 
L 661.508388 296.321442 
L 663.107003 302.304325 
L 664.705619 303.63895 
L 666.304234 303.99021 
L 667.902849 303.667607 
L 669.501465 302.888121 
L 671.10008 301.353712 
L 672.698696 295.53213 
L 674.297311 284.593123 
L 677.494542 224.110896 
L 679.093157 210.879282 
L 680.691773 132.852067 
L 682.290388 69.47133 
L 683.889003 61.923284 
L 685.487619 74.737774 
L 687.086234 175.245631 
L 688.68485 61.923284 
L 690.283465 61.923284 
L 691.882081 157.874226 
L 693.480696 234.945098 
L 695.079311 281.805969 
L 696.677927 294.873825 
L 698.276542 298.432277 
L 699.875158 299.457399 
L 701.473773 300.269637 
L 703.072388 300.914842 
L 704.671004 300.867352 
L 706.269619 301.45688 
L 707.868235 301.641926 
L 711.065465 302.395211 
L 712.664081 301.933414 
L 714.262696 302.103722 
L 715.861312 303.2533 
L 717.459927 303.99021 
L 719.058543 304.068813 
L 720.657158 304.032787 
L 722.255773 304.11139 
L 723.854389 304.319362 
L 725.453004 304.661616 
L 727.05162 304.478207 
L 728.650235 303.877217 
L 730.24885 303.614386 
L 735.044697 303.711822 
L 738.241927 303.254119 
L 741.439158 303.463729 
L 743.037774 303.26722 
L 744.636389 303.86166 
L 747.83362 304.263685 
L 749.432235 304.820461 
L 751.030851 304.514234 
L 755.826697 304.427442 
L 760.622543 303.209086 
L 762.221159 303.061704 
L 763.819774 303.058429 
L 765.41839 302.857007 
L 767.017005 302.91596 
L 770.214236 303.338454 
L 771.812851 304.34802 
L 773.411467 305.129144 
L 775.010082 305.463209 
L 776.608697 305.441921 
L 779.805928 304.902339 
L 781.404544 304.78034 
L 784.601774 304.14496 
L 786.20039 304.223564 
L 789.397621 304.707468 
L 790.996236 304.237483 
L 792.594852 303.986934 
L 794.193467 304.356208 
L 795.792082 305.351035 
L 797.390698 305.843966 
L 800.587929 305.284713 
L 802.186544 304.238302 
L 803.785159 304.072907 
L 806.98239 303.995122 
L 808.581006 304.191631 
L 811.778236 304.09829 
L 813.376852 304.140867 
L 814.975467 303.757674 
L 816.574083 303.57754 
L 818.172698 303.813351 
L 819.771314 304.304624 
L 821.369929 303.656144 
L 822.968544 302.768578 
L 824.56716 302.454163 
L 826.165775 302.346083 
L 827.764391 302.817705 
L 829.363006 303.90915 
L 830.961621 304.791803 
L 832.560237 305.017788 
L 835.757468 303.651231 
L 837.356083 303.626668 
L 840.553314 305.107036 
L 842.151929 304.326731 
L 843.750545 303.923888 
L 845.34916 304.230933 
L 846.947776 304.113028 
L 848.546391 304.218651 
L 850.145006 304.501952 
L 851.743622 304.630502 
L 853.342237 304.345564 
L 854.940853 304.339013 
L 856.539468 304.587925 
L 858.138083 304.528153 
L 861.335314 303.835459 
L 862.93393 303.286871 
L 864.532545 303.085449 
L 866.131161 303.460454 
L 867.729776 303.400682 
L 869.328391 303.466185 
L 870.927007 304.156423 
L 872.525622 304.600207 
L 875.722853 304.506865 
L 877.321468 304.747588 
L 878.920084 304.603482 
L 880.518699 304.797534 
L 882.117315 304.86795 
L 883.71593 304.568274 
L 885.314545 304.601025 
L 885.314545 304.601025 
" clip-path="url(#p012e7fdaff)" style="fill: none; stroke: #000000; stroke-width: 1.2; stroke-linecap: square"/>
   </g>
   <g id="line2d_15">
    <path d="M 87.605455 266.935892 
L 89.20407 266.785683 
L 90.802685 270.789788 
L 92.401301 268.504492 
L 93.999916 281.752182 
L 95.598532 272.919336 
L 97.197147 271.013198 
L 98.795762 276.608201 
L 100.394378 273.528929 
L 101.992993 270.092782 
L 103.591609 267.566129 
L 105.190224 273.908973 
L 106.788839 291.968552 
L 108.387455 288.595367 
L 109.98607 267.041635 
L 111.584686 283.48877 
L 113.183301 282.359999 
L 114.781917 283.291417 
L 116.380532 273.13134 
L 117.979147 282.408204 
L 119.577763 275.325902 
L 121.176378 282.607446 
L 122.774994 281.17388 
L 124.373609 282.753438 
L 125.972224 276.071819 
L 127.57084 275.392257 
L 129.169455 276.819064 
L 130.768071 274.891262 
L 132.366686 269.761137 
L 133.965302 280.049102 
L 135.563917 281.848363 
L 137.162532 274.550546 
L 138.761148 272.929205 
L 140.359763 277.659641 
L 141.958379 273.749802 
L 143.556994 280.922511 
L 145.155609 276.060745 
L 146.754225 279.448795 
L 148.35284 275.786726 
L 149.951456 282.660305 
L 151.550071 278.676223 
L 153.148686 281.065723 
L 154.747302 281.537379 
L 156.345917 281.386827 
L 157.944533 276.357166 
L 159.543148 277.532668 
L 161.141764 275.531718 
L 162.740379 280.228849 
L 164.338994 278.608439 
L 165.93761 280.073235 
L 167.536225 277.070492 
L 169.134841 268.421439 
L 170.733456 277.121716 
L 172.332071 273.41133 
L 173.930687 252.833402 
L 175.529302 270.857248 
L 177.127918 276.962345 
L 180.325148 281.411026 
L 181.923764 268.296669 
L 183.522379 281.064699 
L 185.120995 280.565589 
L 186.71961 289.981892 
L 188.318226 282.529338 
L 189.916841 293.657738 
L 191.515456 288.973454 
L 193.114072 280.754153 
L 194.712687 282.148948 
L 196.311303 287.39506 
L 197.909918 281.8012 
L 199.508533 284.291722 
L 201.107149 288.844605 
L 202.705764 279.336365 
L 204.30438 289.148228 
L 205.902995 291.965098 
L 207.50161 287.49212 
L 209.100226 274.214885 
L 210.698841 280.247709 
L 212.297457 294.995856 
L 213.896072 292.569203 
L 215.494688 288.575236 
L 217.093303 270.919683 
L 218.691918 271.084404 
L 220.290534 274.253853 
L 221.889149 279.100436 
L 223.487765 281.564409 
L 225.08638 273.110951 
L 226.684995 269.201274 
L 228.283611 282.701783 
L 229.882226 291.257985 
L 231.480842 281.134239 
L 233.079457 285.476784 
L 234.678073 280.752453 
L 236.276688 285.190495 
L 237.875303 286.931267 
L 239.473919 275.345227 
L 241.072534 282.431232 
L 242.67115 282.959963 
L 244.269765 274.667776 
L 245.86838 281.041525 
L 247.466996 283.785486 
L 249.065611 265.758712 
L 250.664227 273.870938 
L 252.262842 273.112302 
L 253.861457 250.5831 
L 255.460073 270.790816 
L 257.058688 266.332351 
L 258.657304 286.361523 
L 260.255919 271.248616 
L 261.854535 265.225366 
L 263.45315 272.607048 
L 265.051765 259.854723 
L 266.650381 258.721075 
L 268.248996 245.79319 
L 269.847612 236.659183 
L 271.446227 257.802796 
L 273.044842 214.982867 
L 274.643458 268.118456 
L 276.242073 274.605931 
L 277.840689 272.296751 
L 279.439304 272.579536 
L 281.037919 265.788371 
L 282.636535 260.034519 
L 284.23515 257.918292 
L 285.833766 264.344194 
L 287.432381 263.461719 
L 289.030997 255.652644 
L 290.629612 255.70643 
L 292.228227 254.003706 
L 293.826843 262.639647 
L 295.425458 263.443725 
L 297.024074 256.386504 
L 298.622689 257.799773 
L 300.221304 261.988728 
L 301.81992 251.432596 
L 303.418535 254.963884 
L 305.017151 226.001769 
L 306.615766 260.660765 
L 308.214381 233.30018 
L 309.812997 247.369299 
L 311.411612 248.969558 
L 313.010228 232.856923 
L 314.608843 232.494719 
L 316.207459 232.935124 
L 317.806074 238.184129 
L 319.404689 61.923284 
L 321.003305 61.923284 
L 322.60192 75.715582 
L 324.200536 155.853987 
L 325.799151 108.980242 
L 327.397766 243.401159 
L 328.996382 186.74182 
L 330.594997 210.055415 
L 332.193613 235.226217 
L 333.792228 276.83022 
L 335.390844 259.414168 
L 336.989459 263.970383 
L 338.588074 259.048372 
L 340.18669 283.625107 
L 341.785305 271.530182 
L 343.383921 297.132354 
L 344.982536 292.146017 
L 346.581151 289.184272 
L 348.179767 270.061445 
L 349.778382 286.159257 
M 463.280077 305.843966 
L 464.878692 305.843966 
L 466.477307 302.754284 
L 468.075923 283.588056 
L 469.674538 303.572279 
L 471.273154 278.854549 
L 472.871769 286.853047 
L 474.470384 271.957169 
L 476.069 274.447008 
L 477.667615 297.174742 
L 479.266231 304.465651 
L 480.864846 305.510243 
L 482.463461 301.637501 
L 484.062077 305.806016 
L 488.857923 305.843966 
L 490.456539 305.843966 
L 492.055154 301.31891 
L 493.653769 281.772681 
L 495.252385 301.54383 
L 496.851 240.463224 
L 498.449616 271.994685 
L 500.048231 268.426494 
L 501.646846 283.421109 
L 503.245462 285.800913 
L 504.844077 288.963846 
L 506.442693 295.282079 
L 508.041308 305.843966 
L 509.639923 296.96505 
L 511.238539 282.511959 
L 512.837154 286.72553 
L 514.43577 285.658152 
L 516.034385 278.886773 
L 517.633001 299.489204 
L 519.231616 253.019645 
L 520.830231 273.292847 
L 522.428847 295.488402 
L 524.027462 263.145009 
L 525.626078 300.382654 
L 527.224693 245.623506 
L 528.823308 284.044554 
L 530.421924 260.556787 
L 532.020539 272.133843 
L 533.619155 304.203283 
L 535.21777 305.245582 
L 536.816385 305.843966 
L 540.013616 261.382253 
L 541.612232 156.557898 
L 543.210847 284.7595 
L 544.809463 262.796577 
L 546.408078 269.620242 
L 548.006693 280.391114 
L 549.605309 262.750714 
L 551.203924 243.559705 
L 552.80254 267.676288 
L 554.401155 245.037465 
L 555.99977 224.269559 
L 557.598386 154.896301 
L 559.197001 217.577652 
L 560.795617 236.433293 
L 562.394232 155.431977 
L 563.992848 199.436395 
L 565.591463 80.515316 
L 567.190078 61.923284 
L 568.788694 98.738651 
L 570.387309 149.249683 
L 571.985925 221.515609 
L 573.58454 247.893698 
L 575.183155 219.751933 
L 576.781771 236.959362 
L 578.380386 219.893535 
L 579.979002 248.23017 
L 581.577617 246.378542 
L 583.176232 248.592574 
L 584.774848 237.956648 
L 586.373463 236.047884 
L 587.972079 209.162258 
L 589.570694 267.078691 
L 591.16931 255.46103 
L 592.767925 262.361841 
L 594.36654 254.178361 
L 595.965156 259.470766 
L 599.162387 228.550313 
L 600.761002 232.518635 
L 602.359617 219.243931 
L 603.958233 240.156302 
L 605.556848 263.895539 
L 607.155464 272.253188 
L 608.754079 265.698527 
L 610.352694 272.562904 
L 611.95131 243.45738 
L 613.549925 230.71879 
L 615.148541 236.417135 
L 616.747156 260.87077 
L 618.345772 265.63166 
L 619.944387 252.323402 
L 621.543002 232.663741 
L 623.141618 243.113155 
L 624.740233 250.979474 
L 626.338849 187.24371 
L 627.937464 130.803527 
L 629.536079 121.838523 
L 631.134695 154.65595 
L 632.73331 171.383685 
L 634.331926 194.323676 
L 635.930541 204.805072 
L 637.529156 186.293246 
L 639.127772 226.10565 
L 640.726387 196.152733 
L 642.325003 229.9442 
L 643.923618 255.386195 
L 645.522234 234.737797 
L 647.120849 230.709441 
L 648.719464 240.448249 
L 650.31808 243.20884 
L 651.916695 238.886933 
L 653.515311 240.380264 
L 655.113926 214.930098 
L 656.712541 221.069054 
L 658.311157 227.986058 
L 659.909772 224.118525 
L 661.508388 210.651903 
L 663.107003 229.464011 
L 664.705619 223.986162 
L 666.304234 221.088835 
L 667.902849 213.495118 
L 669.501465 229.504041 
L 671.10008 259.257962 
L 672.698696 242.632062 
L 674.297311 220.39749 
L 675.895926 172.368918 
L 677.494542 101.354696 
L 679.093157 76.388283 
L 680.691773 110.311447 
L 682.290388 128.039947 
L 683.889003 139.165398 
L 685.487619 116.59328 
L 687.086234 61.923284 
L 688.68485 104.341819 
L 690.283465 143.244898 
L 691.882081 152.719603 
L 693.480696 222.532486 
L 695.079311 232.800093 
L 696.677927 261.257868 
L 698.276542 278.12668 
L 699.875158 259.476888 
L 701.473773 266.267404 
L 703.072388 275.524498 
L 704.671004 269.74187 
L 706.269619 261.835724 
L 707.868235 263.074048 
L 709.46685 239.491728 
L 711.065465 235.822693 
L 712.664081 235.531584 
L 714.262696 256.188075 
L 715.861312 264.027221 
L 717.459927 263.281683 
L 719.058543 261.892535 
L 720.657158 259.564534 
L 722.255773 247.995564 
L 723.854389 253.004182 
L 725.453004 265.562533 
L 727.05162 270.286887 
L 728.650235 258.902895 
L 730.24885 260.268143 
L 731.847466 255.750131 
L 733.446081 255.007998 
L 735.044697 256.449656 
L 736.643312 268.597873 
L 738.241927 260.498698 
L 739.840543 250.542925 
L 741.439158 251.895639 
L 743.037774 254.343588 
L 744.636389 255.911845 
L 746.235005 251.765848 
L 747.83362 252.490809 
L 749.432235 225.038387 
L 751.030851 230.123308 
L 752.629466 254.796911 
L 754.228082 252.285927 
L 755.826697 253.259443 
L 757.425312 260.746325 
L 759.023928 235.232696 
L 760.622543 243.456243 
L 762.221159 253.548567 
L 763.819774 261.087478 
L 765.41839 255.933557 
L 767.017005 267.732134 
L 768.61562 259.846166 
L 770.214236 272.166967 
L 771.812851 268.961393 
L 773.411467 267.989862 
L 775.010082 259.429143 
L 776.608697 265.11354 
L 778.207313 259.609854 
L 779.805928 251.942946 
L 783.003159 260.759529 
L 784.601774 267.604827 
L 786.20039 269.364133 
L 787.799005 259.348646 
L 789.397621 256.427105 
L 790.996236 257.096842 
L 792.594852 261.76738 
L 794.193467 272.57898 
L 795.792082 271.561776 
L 797.390698 271.290558 
L 798.989313 281.727978 
L 800.587929 269.411579 
L 802.186544 284.584105 
L 803.785159 262.076413 
L 805.383775 272.686879 
L 806.98239 264.019911 
L 808.581006 260.995638 
L 810.179621 254.522556 
L 811.778236 269.732988 
L 813.376852 271.556785 
L 814.975467 275.692082 
L 816.574083 284.912605 
L 818.172698 279.313756 
L 819.771314 272.15412 
L 821.369929 278.389869 
L 822.968544 272.237643 
L 824.56716 264.597223 
L 826.165775 266.372348 
L 827.764391 269.452666 
L 829.363006 276.122256 
L 830.961621 277.602582 
L 834.158852 281.625648 
L 835.757468 268.67221 
L 837.356083 262.853634 
L 838.954698 274.625353 
L 840.553314 272.062346 
L 842.151929 269.091313 
L 843.750545 269.362916 
L 845.34916 279.699285 
L 846.947776 280.072139 
L 848.546391 267.039787 
L 850.145006 276.955333 
L 851.743622 268.235132 
L 853.342237 271.171487 
L 854.940853 274.754976 
L 856.539468 266.167584 
L 858.138083 263.455229 
L 859.736699 264.599195 
L 861.335314 263.941423 
L 862.93393 254.919861 
L 864.532545 238.70223 
L 866.131161 242.061946 
L 867.729776 268.981574 
L 869.328391 265.421435 
L 870.927007 261.301462 
L 872.525622 263.494088 
L 874.124238 251.985301 
L 875.722853 248.950498 
L 877.321468 239.644127 
L 878.920084 247.584751 
L 880.518699 250.616249 
L 882.117315 232.447517 
L 883.71593 248.272118 
L 885.314545 262.070176 
L 885.314545 262.070176 
" clip-path="url(#p012e7fdaff)" style="fill: none; stroke: #ff7f0e; stroke-width: 1.2; stroke-linecap: square"/>
   </g>
   <g id="line2d_16">
    <path d="M 87.605455 264.993199 
L 89.20407 270.053011 
L 90.802685 260.954933 
L 92.401301 264.218141 
L 93.999916 297.670633 
L 95.598532 290.362793 
L 97.197147 285.378947 
L 98.795762 291.985478 
L 100.394378 292.276046 
L 101.992993 285.060634 
L 103.591609 290.414107 
L 105.190224 295.221463 
L 106.788839 305.843966 
L 108.387455 305.843966 
L 109.98607 285.016011 
L 111.584686 297.852907 
L 113.183301 295.619831 
L 114.781917 300.911659 
L 116.380532 285.161517 
L 117.979147 292.107311 
L 119.577763 289.933301 
L 121.176378 293.645497 
L 124.373609 298.450754 
L 125.972224 295.622613 
L 127.57084 291.383655 
L 129.169455 286.805413 
L 130.768071 291.142831 
L 132.366686 290.027855 
L 133.965302 291.876777 
L 135.563917 288.247682 
L 137.162532 286.973394 
L 138.761148 288.335903 
L 140.359763 287.424317 
L 141.958379 288.708995 
L 143.556994 297.19502 
L 145.155609 294.040708 
L 148.35284 289.667044 
L 149.951456 294.273458 
L 151.550071 283.034549 
L 153.148686 289.72304 
L 154.747302 297.808901 
L 156.345917 301.954 
L 157.944533 294.594327 
L 159.543148 288.952281 
L 161.141764 286.353921 
L 162.740379 290.038276 
L 165.93761 287.007093 
L 167.536225 283.924125 
L 169.134841 281.301374 
L 170.733456 292.188073 
L 172.332071 279.820473 
L 173.930687 270.054032 
L 175.529302 287.921783 
L 177.127918 290.014903 
L 178.726533 280.014156 
L 180.325148 289.709057 
L 181.923764 273.230968 
L 183.522379 290.662608 
L 186.71961 305.843966 
L 191.515456 305.843966 
L 193.114072 296.238275 
L 194.712687 301.312721 
L 196.311303 305.843966 
L 197.909918 301.978639 
L 199.508533 293.173463 
L 201.107149 305.843966 
L 202.705764 282.672979 
L 204.30438 298.520891 
L 205.902995 301.110347 
L 209.100226 285.90162 
L 210.698841 287.360945 
L 212.297457 303.107256 
L 213.896072 305.475781 
L 215.494688 295.518331 
L 217.093303 269.118333 
L 218.691918 279.708783 
L 220.290534 303.301347 
L 221.889149 299.74205 
L 223.487765 297.189746 
L 225.08638 292.643781 
L 226.684995 294.108861 
L 228.283611 289.627313 
L 229.882226 300.671969 
L 231.480842 283.06574 
L 233.079457 297.320136 
L 234.678073 290.257635 
L 236.276688 302.7791 
L 237.875303 299.099923 
L 239.473919 289.97397 
L 241.072534 302.68444 
L 242.67115 300.682364 
L 244.269765 297.563348 
L 245.86838 298.531189 
L 247.466996 305.562927 
L 249.065611 305.843966 
L 250.664227 305.461913 
L 252.262842 287.706379 
L 253.861457 279.083491 
L 255.460073 278.521323 
L 257.058688 286.174934 
L 258.657304 295.41784 
L 260.255919 290.69226 
L 261.854535 286.715503 
L 263.45315 289.553411 
L 265.051765 275.198786 
L 266.650381 267.872217 
L 268.248996 271.197492 
L 269.847612 265.917787 
L 271.446227 280.389542 
L 273.044842 271.645659 
L 274.643458 291.316586 
L 276.242073 287.265078 
L 277.840689 276.285519 
L 279.439304 262.880214 
L 281.037919 262.759584 
L 282.636535 255.210692 
L 284.23515 246.421359 
L 285.833766 251.702202 
L 287.432381 264.805153 
L 289.030997 269.055602 
L 290.629612 254.976024 
L 292.228227 248.903934 
L 295.425458 269.115143 
L 297.024074 264.045099 
L 298.622689 270.899959 
L 300.221304 280.726639 
L 301.81992 271.324426 
L 303.418535 265.590663 
L 305.017151 254.26653 
L 306.615766 261.228528 
L 308.214381 260.883016 
L 309.812997 273.307188 
L 311.411612 255.642205 
L 313.010228 235.887667 
L 314.608843 206.09271 
L 316.207459 136.909935 
L 317.806074 61.923284 
L 324.200536 61.923284 
L 327.397766 258.835134 
L 328.996382 273.784781 
L 330.594997 272.384124 
L 332.193613 280.264672 
L 333.792228 289.68563 
L 335.390844 288.501335 
L 336.989459 279.181571 
L 338.588074 278.928529 
L 340.18669 281.432806 
L 341.785305 279.949509 
L 343.383921 287.047472 
L 344.982536 279.869793 
L 346.581151 256.943417 
L 348.179767 272.956653 
L 349.778382 275.574207 
M 463.280077 303.575305 
L 464.878692 296.875625 
L 466.477307 273.947056 
L 468.075923 269.099496 
L 469.674538 265.850087 
L 471.273154 272.402129 
L 472.871769 284.453063 
L 474.470384 289.723693 
L 476.069 257.691118 
L 477.667615 265.744262 
L 479.266231 245.20462 
L 480.864846 244.758981 
L 484.062077 282.125329 
L 485.660692 276.494346 
L 487.259308 284.981311 
L 490.456539 271.44325 
L 492.055154 269.548922 
L 493.653769 243.650001 
L 495.252385 248.975844 
L 496.851 257.501963 
L 498.449616 254.935845 
L 500.048231 264.259376 
L 501.646846 241.701827 
L 503.245462 242.628285 
L 504.844077 253.861262 
L 506.442693 291.158784 
L 508.041308 302.484597 
L 509.639923 298.758225 
L 511.238539 274.857206 
L 512.837154 246.63178 
L 514.43577 246.521472 
L 516.034385 245.070337 
L 517.633001 249.623565 
L 519.231616 260.951728 
L 520.830231 259.446453 
L 522.428847 255.371076 
L 524.027462 265.745825 
L 525.626078 284.440229 
L 527.224693 257.632796 
L 528.823308 249.594824 
L 530.421924 254.168167 
L 532.020539 266.07402 
L 533.619155 282.897172 
L 535.21777 270.736929 
L 536.816385 270.233855 
L 538.415001 260.176383 
L 540.013616 251.94966 
L 541.612232 268.745456 
L 543.210847 274.257283 
L 544.809463 264.987465 
L 546.408078 261.313207 
L 548.006693 283.657353 
L 549.605309 276.141035 
L 551.203924 249.919864 
L 552.80254 286.070411 
L 554.401155 273.529982 
L 555.99977 274.846369 
L 557.598386 264.618162 
L 559.197001 248.138128 
L 560.795617 260.990302 
L 562.394232 215.833044 
L 563.992848 244.979066 
L 565.591463 222.074272 
L 567.190078 145.38192 
L 568.788694 148.450187 
L 570.387309 185.687459 
L 571.985925 229.48885 
L 573.58454 248.934289 
L 575.183155 234.028148 
L 576.781771 241.087632 
L 578.380386 248.763065 
L 579.979002 248.638313 
L 581.577617 252.539309 
L 583.176232 255.347038 
L 584.774848 251.233664 
L 586.373463 243.850135 
L 587.972079 241.020663 
L 591.16931 279.588637 
L 592.767925 266.008879 
L 594.36654 284.41183 
L 595.965156 289.318942 
L 599.162387 246.161066 
L 600.761002 242.153006 
L 602.359617 236.252421 
L 603.958233 248.19515 
L 605.556848 273.54333 
L 607.155464 289.264887 
L 608.754079 290.514249 
L 610.352694 285.487797 
L 611.95131 275.847434 
L 613.549925 259.340012 
L 618.345772 282.978779 
L 619.944387 274.433169 
L 621.543002 251.510732 
L 623.141618 247.681461 
L 624.740233 238.232832 
L 626.338849 230.16935 
L 627.937464 177.354737 
L 629.536079 71.421944 
L 631.134695 98.631349 
L 632.73331 180.310597 
L 634.331926 191.929398 
L 635.930541 236.344367 
L 637.529156 229.028745 
L 639.127772 240.413366 
L 640.726387 245.03122 
L 642.325003 254.018559 
L 643.923618 264.161781 
L 645.522234 248.309623 
L 647.120849 251.70981 
L 648.719464 253.624969 
L 650.31808 250.769731 
L 651.916695 259.972427 
L 653.515311 242.659078 
L 655.113926 168.668771 
L 656.712541 129.011742 
L 658.311157 154.259871 
L 659.909772 166.751402 
L 661.508388 180.448703 
L 663.107003 223.441016 
L 664.705619 224.018226 
L 666.304234 228.135274 
L 667.902849 215.856344 
L 669.501465 227.420817 
L 671.10008 226.314639 
L 672.698696 226.505316 
L 674.297311 186.473731 
L 675.895926 66.324947 
L 677.494542 61.923284 
L 679.093157 61.923284 
L 680.691773 120.22805 
L 683.889003 61.923284 
L 688.68485 61.923284 
L 690.283465 156.874437 
L 691.882081 164.923857 
L 693.480696 233.302407 
L 695.079311 258.940863 
L 698.276542 283.192347 
L 699.875158 277.84006 
L 701.473773 282.006056 
L 703.072388 295.419959 
L 706.269619 283.211307 
L 707.868235 280.792451 
L 709.46685 268.286565 
L 711.065465 265.272806 
L 712.664081 270.766081 
L 714.262696 269.831566 
L 715.861312 286.450753 
L 717.459927 281.233766 
L 719.058543 279.983611 
L 720.657158 266.468978 
L 722.255773 265.423042 
L 723.854389 274.050014 
L 725.453004 290.388083 
L 727.05162 287.940284 
L 728.650235 284.465792 
L 730.24885 281.285689 
L 731.847466 268.753173 
L 733.446081 270.024668 
L 735.044697 267.095251 
L 736.643312 283.457227 
L 738.241927 278.836558 
L 739.840543 262.836694 
L 741.439158 269.459734 
L 743.037774 275.309717 
L 744.636389 259.336785 
L 746.235005 251.856781 
L 749.432235 233.20327 
L 751.030851 236.568389 
L 752.629466 235.806216 
L 754.228082 248.806125 
L 755.826697 247.883933 
L 757.425312 254.370919 
L 759.023928 252.64242 
L 760.622543 256.536168 
L 762.221159 263.271443 
L 763.819774 265.784955 
L 765.41839 258.019681 
L 767.017005 271.455544 
L 768.61562 267.918175 
L 770.214236 282.085188 
L 771.812851 261.219666 
L 773.411467 245.118701 
L 775.010082 238.442127 
L 776.608697 247.296304 
L 778.207313 249.114767 
L 779.805928 250.113142 
L 781.404544 240.985307 
L 783.003159 236.753783 
L 784.601774 249.344218 
L 786.20039 276.50567 
L 787.799005 261.023569 
L 789.397621 238.641079 
L 790.996236 252.855666 
L 792.594852 268.394612 
L 794.193467 292.072005 
L 795.792082 290.048087 
L 797.390698 277.523743 
L 798.989313 286.891815 
L 800.587929 272.472527 
L 802.186544 288.051954 
L 803.785159 259.58036 
L 805.383775 266.228252 
L 806.98239 263.886554 
L 808.581006 260.154068 
L 810.179621 255.575561 
L 811.778236 263.410761 
L 813.376852 261.214927 
L 814.975467 283.770888 
L 816.574083 300.163788 
L 818.172698 296.681692 
L 819.771314 282.602414 
L 821.369929 289.026212 
L 822.968544 286.691475 
L 824.56716 271.961198 
L 826.165775 277.763103 
L 827.764391 271.601981 
L 829.363006 282.349445 
L 830.961621 288.043539 
L 832.560237 283.858231 
L 834.158852 289.566515 
L 835.757468 275.809505 
L 837.356083 274.071498 
L 838.954698 280.965364 
L 840.553314 279.12153 
L 842.151929 282.445452 
L 843.750545 283.648057 
L 845.34916 294.912899 
L 846.947776 288.385073 
L 848.546391 281.141421 
L 850.145006 287.305508 
L 851.743622 282.567687 
L 853.342237 282.171217 
L 854.940853 265.471288 
L 856.539468 223.350696 
L 858.138083 211.637047 
L 859.736699 226.813512 
L 861.335314 230.608836 
L 862.93393 227.618456 
L 864.532545 245.331613 
L 866.131161 246.491844 
L 867.729776 269.025899 
L 869.328391 261.451171 
L 870.927007 256.419076 
L 872.525622 245.256241 
L 874.124238 250.811186 
L 875.722853 246.512155 
L 877.321468 252.36587 
L 878.920084 245.650962 
L 880.518699 251.987453 
L 882.117315 251.324224 
L 883.71593 247.7841 
L 885.314545 261.85449 
L 885.314545 261.85449 
" clip-path="url(#p012e7fdaff)" style="fill: none; stroke-dasharray: 4.44,1.92; stroke-dashoffset: 0; stroke: #9467bd; stroke-width: 1.2"/>
   </g>
   <g id="patch_3">
    <path d="M 47.72 318.04 
L 47.72 49.72725 
" style="fill: none; stroke: #000000; stroke-width: 0.8; stroke-linejoin: miter; stroke-linecap: square"/>
   </g>
   <g id="patch_4">
    <path d="M 925.2 318.04 
L 925.2 49.72725 
" style="fill: none; stroke: #000000; stroke-width: 0.8; stroke-linejoin: miter; stroke-linecap: square"/>
   </g>
   <g id="patch_5">
    <path d="M 47.72 318.04 
L 925.2 318.04 
" style="fill: none; stroke: #000000; stroke-width: 0.8; stroke-linejoin: miter; stroke-linecap: square"/>
   </g>
   <g id="patch_6">
    <path d="M 47.72 49.72725 
L 925.2 49.72725 
" style="fill: none; stroke: #000000; stroke-width: 0.8; stroke-linejoin: miter; stroke-linecap: square"/>
   </g>
   <g id="legend_1">
    <g id="line2d_17">
     <path d="M 56.72 62.825688 
L 66.72 62.825688 
L 76.72 62.825688 
" style="fill: none; stroke: #2ca02c; stroke-width: 1.2; stroke-linecap: square"/>
    </g>
    <g id="text_16">
     <!-- ENCSR203XPU -->
     <g transform="translate(84.72 66.325688) scale(0.1 -0.1)">
      <defs>
       <path id="DejaVuSans-45" d="M 628 4666 
L 3578 4666 
L 3578 4134 
L 1259 4134 
L 1259 2753 
L 3481 2753 
L 3481 2222 
L 1259 2222 
L 1259 531 
L 3634 531 
L 3634 0 
L 628 0 
L 628 4666 
z
" transform="scale(0.015625)"/>
       <path id="DejaVuSans-4e" d="M 628 4666 
L 1478 4666 
L 3547 763 
L 3547 4666 
L 4159 4666 
L 4159 0 
L 3309 0 
L 1241 3903 
L 1241 0 
L 628 0 
L 628 4666 
z
" transform="scale(0.015625)"/>
       <path id="DejaVuSans-43" d="M 4122 4306 
L 4122 3641 
Q 3803 3938 3442 4084 
Q 3081 4231 2675 4231 
Q 1875 4231 1450 3742 
Q 1025 3253 1025 2328 
Q 1025 1406 1450 917 
Q 1875 428 2675 428 
Q 3081 428 3442 575 
Q 3803 722 4122 1019 
L 4122 359 
Q 3791 134 3420 21 
Q 3050 -91 2638 -91 
Q 1578 -91 968 557 
Q 359 1206 359 2328 
Q 359 3453 968 4101 
Q 1578 4750 2638 4750 
Q 3056 4750 3426 4639 
Q 3797 4528 4122 4306 
z
" transform="scale(0.015625)"/>
       <path id="DejaVuSans-53" d="M 3425 4513 
L 3425 3897 
Q 3066 4069 2747 4153 
Q 2428 4238 2131 4238 
Q 1616 4238 1336 4038 
Q 1056 3838 1056 3469 
Q 1056 3159 1242 3001 
Q 1428 2844 1947 2747 
L 2328 2669 
Q 3034 2534 3370 2195 
Q 3706 1856 3706 1288 
Q 3706 609 3251 259 
Q 2797 -91 1919 -91 
Q 1588 -91 1214 -16 
Q 841 59 441 206 
L 441 856 
Q 825 641 1194 531 
Q 1563 422 1919 422 
Q 2459 422 2753 634 
Q 3047 847 3047 1241 
Q 3047 1584 2836 1778 
Q 2625 1972 2144 2069 
L 1759 2144 
Q 1053 2284 737 2584 
Q 422 2884 422 3419 
Q 422 4038 858 4394 
Q 1294 4750 2059 4750 
Q 2388 4750 2728 4690 
Q 3069 4631 3425 4513 
z
" transform="scale(0.015625)"/>
       <path id="DejaVuSans-52" d="M 2841 2188 
Q 3044 2119 3236 1894 
Q 3428 1669 3622 1275 
L 4263 0 
L 3584 0 
L 2988 1197 
Q 2756 1666 2539 1819 
Q 2322 1972 1947 1972 
L 1259 1972 
L 1259 0 
L 628 0 
L 628 4666 
L 2053 4666 
Q 2853 4666 3247 4331 
Q 3641 3997 3641 3322 
Q 3641 2881 3436 2590 
Q 3231 2300 2841 2188 
z
M 1259 4147 
L 1259 2491 
L 2053 2491 
Q 2509 2491 2742 2702 
Q 2975 2913 2975 3322 
Q 2975 3731 2742 3939 
Q 2509 4147 2053 4147 
L 1259 4147 
z
" transform="scale(0.015625)"/>
       <path id="DejaVuSans-58" d="M 403 4666 
L 1081 4666 
L 2241 2931 
L 3406 4666 
L 4084 4666 
L 2584 2425 
L 4184 0 
L 3506 0 
L 2194 1984 
L 872 0 
L 191 0 
L 1856 2491 
L 403 4666 
z
" transform="scale(0.015625)"/>
       <path id="DejaVuSans-50" d="M 1259 4147 
L 1259 2394 
L 2053 2394 
Q 2494 2394 2734 2622 
Q 2975 2850 2975 3272 
Q 2975 3691 2734 3919 
Q 2494 4147 2053 4147 
L 1259 4147 
z
M 628 4666 
L 2053 4666 
Q 2838 4666 3239 4311 
Q 3641 3956 3641 3272 
Q 3641 2581 3239 2228 
Q 2838 1875 2053 1875 
L 1259 1875 
L 1259 0 
L 628 0 
L 628 4666 
z
" transform="scale(0.015625)"/>
       <path id="DejaVuSans-55" d="M 556 4666 
L 1191 4666 
L 1191 1831 
Q 1191 1081 1462 751 
Q 1734 422 2344 422 
Q 2950 422 3222 751 
Q 3494 1081 3494 1831 
L 3494 4666 
L 4128 4666 
L 4128 1753 
Q 4128 841 3676 375 
Q 3225 -91 2344 -91 
Q 1459 -91 1007 375 
Q 556 841 556 1753 
L 556 4666 
z
" transform="scale(0.015625)"/>
      </defs>
      <use xlink:href="#DejaVuSans-45"/>
      <use xlink:href="#DejaVuSans-4e" transform="translate(63.183594 0)"/>
      <use xlink:href="#DejaVuSans-43" transform="translate(137.988281 0)"/>
      <use xlink:href="#DejaVuSans-53" transform="translate(207.8125 0)"/>
      <use xlink:href="#DejaVuSans-52" transform="translate(271.289062 0)"/>
      <use xlink:href="#DejaVuSans-32" transform="translate(340.771484 0)"/>
      <use xlink:href="#DejaVuSans-30" transform="translate(404.394531 0)"/>
      <use xlink:href="#DejaVuSans-33" transform="translate(468.017578 0)"/>
      <use xlink:href="#DejaVuSans-58" transform="translate(531.640625 0)"/>
      <use xlink:href="#DejaVuSans-50" transform="translate(600.146484 0)"/>
      <use xlink:href="#DejaVuSans-55" transform="translate(660.449219 0)"/>
     </g>
    </g>
    <g id="line2d_18">
     <path d="M 56.72 77.503813 
L 66.72 77.503813 
L 76.72 77.503813 
" style="fill: none; stroke: #000000; stroke-width: 1.2; stroke-linecap: square"/>
    </g>
    <g id="text_17">
     <!-- AlphaGenome -->
     <g transform="translate(84.72 81.003813) scale(0.1 -0.1)">
      <defs>
       <path id="DejaVuSans-41" d="M 2188 4044 
L 1331 1722 
L 3047 1722 
L 2188 4044 
z
M 1831 4666 
L 2547 4666 
L 4325 0 
L 3669 0 
L 3244 1197 
L 1141 1197 
L 716 0 
L 50 0 
L 1831 4666 
z
" transform="scale(0.015625)"/>
       <path id="DejaVuSans-70" d="M 1159 525 
L 1159 -1331 
L 581 -1331 
L 581 3500 
L 1159 3500 
L 1159 2969 
Q 1341 3281 1617 3432 
Q 1894 3584 2278 3584 
Q 2916 3584 3314 3078 
Q 3713 2572 3713 1747 
Q 3713 922 3314 415 
Q 2916 -91 2278 -91 
Q 1894 -91 1617 61 
Q 1341 213 1159 525 
z
M 3116 1747 
Q 3116 2381 2855 2742 
Q 2594 3103 2138 3103 
Q 1681 3103 1420 2742 
Q 1159 2381 1159 1747 
Q 1159 1113 1420 752 
Q 1681 391 2138 391 
Q 2594 391 2855 752 
Q 3116 1113 3116 1747 
z
" transform="scale(0.015625)"/>
       <path id="DejaVuSans-47" d="M 3809 666 
L 3809 1919 
L 2778 1919 
L 2778 2438 
L 4434 2438 
L 4434 434 
Q 4069 175 3628 42 
Q 3188 -91 2688 -91 
Q 1594 -91 976 548 
Q 359 1188 359 2328 
Q 359 3472 976 4111 
Q 1594 4750 2688 4750 
Q 3144 4750 3555 4637 
Q 3966 4525 4313 4306 
L 4313 3634 
Q 3963 3931 3569 4081 
Q 3175 4231 2741 4231 
Q 1884 4231 1454 3753 
Q 1025 3275 1025 2328 
Q 1025 1384 1454 906 
Q 1884 428 2741 428 
Q 3075 428 3337 486 
Q 3600 544 3809 666 
z
" transform="scale(0.015625)"/>
      </defs>
      <use xlink:href="#DejaVuSans-41"/>
      <use xlink:href="#DejaVuSans-6c" transform="translate(68.408203 0)"/>
      <use xlink:href="#DejaVuSans-70" transform="translate(96.191406 0)"/>
      <use xlink:href="#DejaVuSans-68" transform="translate(159.667969 0)"/>
      <use xlink:href="#DejaVuSans-61" transform="translate(223.046875 0)"/>
      <use xlink:href="#DejaVuSans-47" transform="translate(284.326172 0)"/>
      <use xlink:href="#DejaVuSans-65" transform="translate(361.816406 0)"/>
      <use xlink:href="#DejaVuSans-6e" transform="translate(423.339844 0)"/>
      <use xlink:href="#DejaVuSans-6f" transform="translate(486.71875 0)"/>
      <use xlink:href="#DejaVuSans-6d" transform="translate(547.900391 0)"/>
      <use xlink:href="#DejaVuSans-65" transform="translate(645.3125 0)"/>
     </g>
    </g>
    <g id="line2d_19">
     <path d="M 178.085625 62.825688 
L 188.085625 62.825688 
L 198.085625 62.825688 
" style="fill: none; stroke: #ff7f0e; stroke-width: 1.2; stroke-linecap: square"/>
    </g>
    <g id="text_18">
     <!-- DiMeLo pooled -->
     <g transform="translate(206.085625 66.325688) scale(0.1 -0.1)">
      <defs>
       <path id="DejaVuSans-44" d="M 1259 4147 
L 1259 519 
L 2022 519 
Q 2988 519 3436 956 
Q 3884 1394 3884 2338 
Q 3884 3275 3436 3711 
Q 2988 4147 2022 4147 
L 1259 4147 
z
M 628 4666 
L 1925 4666 
Q 3281 4666 3915 4102 
Q 4550 3538 4550 2338 
Q 4550 1131 3912 565 
Q 3275 0 1925 0 
L 628 0 
L 628 4666 
z
" transform="scale(0.015625)"/>
       <path id="DejaVuSans-4d" d="M 628 4666 
L 1569 4666 
L 2759 1491 
L 3956 4666 
L 4897 4666 
L 4897 0 
L 4281 0 
L 4281 4097 
L 3078 897 
L 2444 897 
L 1241 4097 
L 1241 0 
L 628 0 
L 628 4666 
z
" transform="scale(0.015625)"/>
       <path id="DejaVuSans-4c" d="M 628 4666 
L 1259 4666 
L 1259 531 
L 3531 531 
L 3531 0 
L 628 0 
L 628 4666 
z
" transform="scale(0.015625)"/>
      </defs>
      <use xlink:href="#DejaVuSans-44"/>
      <use xlink:href="#DejaVuSans-69" transform="translate(77.001953 0)"/>
      <use xlink:href="#DejaVuSans-4d" transform="translate(104.785156 0)"/>
      <use xlink:href="#DejaVuSans-65" transform="translate(191.064453 0)"/>
      <use xlink:href="#DejaVuSans-4c" transform="translate(252.587891 0)"/>
      <use xlink:href="#DejaVuSans-6f" transform="translate(306.550781 0)"/>
      <use xlink:href="#DejaVuSans-20" transform="translate(367.732422 0)"/>
      <use xlink:href="#DejaVuSans-70" transform="translate(399.519531 0)"/>
      <use xlink:href="#DejaVuSans-6f" transform="translate(462.996094 0)"/>
      <use xlink:href="#DejaVuSans-6f" transform="translate(524.177734 0)"/>
      <use xlink:href="#DejaVuSans-6c" transform="translate(585.359375 0)"/>
      <use xlink:href="#DejaVuSans-65" transform="translate(613.142578 0)"/>
      <use xlink:href="#DejaVuSans-64" transform="translate(674.666016 0)"/>
     </g>
    </g>
    <g id="line2d_20">
     <path d="M 178.085625 77.503813 
L 188.085625 77.503813 
L 198.085625 77.503813 
" style="fill: none; stroke-dasharray: 4.44,1.92; stroke-dashoffset: 0; stroke: #9467bd; stroke-width: 1.2"/>
    </g>
    <g id="text_19">
     <!-- HyenaDNA pooled -->
     <g transform="translate(206.085625 81.003813) scale(0.1 -0.1)">
      <defs>
       <path id="DejaVuSans-48" d="M 628 4666 
L 1259 4666 
L 1259 2753 
L 3553 2753 
L 3553 4666 
L 4184 4666 
L 4184 0 
L 3553 0 
L 3553 2222 
L 1259 2222 
L 1259 0 
L 628 0 
L 628 4666 
z
" transform="scale(0.015625)"/>
       <path id="DejaVuSans-79" d="M 2059 -325 
Q 1816 -950 1584 -1140 
Q 1353 -1331 966 -1331 
L 506 -1331 
L 506 -850 
L 844 -850 
Q 1081 -850 1212 -737 
Q 1344 -625 1503 -206 
L 1606 56 
L 191 3500 
L 800 3500 
L 1894 763 
L 2988 3500 
L 3597 3500 
L 2059 -325 
z
" transform="scale(0.015625)"/>
      </defs>
      <use xlink:href="#DejaVuSans-48"/>
      <use xlink:href="#DejaVuSans-79" transform="translate(75.195312 0)"/>
      <use xlink:href="#DejaVuSans-65" transform="translate(134.375 0)"/>
      <use xlink:href="#DejaVuSans-6e" transform="translate(195.898438 0)"/>
      <use xlink:href="#DejaVuSans-61" transform="translate(259.277344 0)"/>
      <use xlink:href="#DejaVuSans-44" transform="translate(320.556641 0)"/>
      <use xlink:href="#DejaVuSans-4e" transform="translate(397.558594 0)"/>
      <use xlink:href="#DejaVuSans-41" transform="translate(472.363281 0)"/>
      <use xlink:href="#DejaVuSans-20" transform="translate(540.771484 0)"/>
      <use xlink:href="#DejaVuSans-70" transform="translate(572.558594 0)"/>
      <use xlink:href="#DejaVuSans-6f" transform="translate(636.035156 0)"/>
      <use xlink:href="#DejaVuSans-6f" transform="translate(697.216797 0)"/>
      <use xlink:href="#DejaVuSans-6c" transform="translate(758.398438 0)"/>
      <use xlink:href="#DejaVuSans-65" transform="translate(786.181641 0)"/>
      <use xlink:href="#DejaVuSans-64" transform="translate(847.705078 0)"/>
     </g>
    </g>
   </g>
  </g>
  <g id="text_20">
   <!-- chr16 region 46: overlay -->
   <g transform="translate(394.170938 16.318125) scale(0.12 -0.12)">
    <defs>
     <path id="DejaVuSans-3a" d="M 750 794 
L 1409 794 
L 1409 0 
L 750 0 
L 750 794 
z
M 750 3309 
L 1409 3309 
L 1409 2516 
L 750 2516 
L 750 3309 
z
" transform="scale(0.015625)"/>
     <path id="DejaVuSans-76" d="M 191 3500 
L 800 3500 
L 1894 563 
L 2988 3500 
L 3597 3500 
L 2284 0 
L 1503 0 
L 191 3500 
z
" transform="scale(0.015625)"/>
    </defs>
    <use xlink:href="#DejaVuSans-63"/>
    <use xlink:href="#DejaVuSans-68" transform="translate(54.980469 0)"/>
    <use xlink:href="#DejaVuSans-72" transform="translate(118.359375 0)"/>
    <use xlink:href="#DejaVuSans-31" transform="translate(159.472656 0)"/>
    <use xlink:href="#DejaVuSans-36" transform="translate(223.095703 0)"/>
    <use xlink:href="#DejaVuSans-20" transform="translate(286.71875 0)"/>
    <use xlink:href="#DejaVuSans-72" transform="translate(318.505859 0)"/>
    <use xlink:href="#DejaVuSans-65" transform="translate(357.369141 0)"/>
    <use xlink:href="#DejaVuSans-67" transform="translate(418.892578 0)"/>
    <use xlink:href="#DejaVuSans-69" transform="translate(482.369141 0)"/>
    <use xlink:href="#DejaVuSans-6f" transform="translate(510.152344 0)"/>
    <use xlink:href="#DejaVuSans-6e" transform="translate(571.333984 0)"/>
    <use xlink:href="#DejaVuSans-20" transform="translate(634.712891 0)"/>
    <use xlink:href="#DejaVuSans-34" transform="translate(666.5 0)"/>
    <use xlink:href="#DejaVuSans-36" transform="translate(730.123047 0)"/>
    <use xlink:href="#DejaVuSans-3a" transform="translate(793.746094 0)"/>
    <use xlink:href="#DejaVuSans-20" transform="translate(827.4375 0)"/>
    <use xlink:href="#DejaVuSans-6f" transform="translate(859.224609 0)"/>
    <use xlink:href="#DejaVuSans-76" transform="translate(920.40625 0)"/>
    <use xlink:href="#DejaVuSans-65" transform="translate(979.585938 0)"/>
    <use xlink:href="#DejaVuSans-72" transform="translate(1041.109375 0)"/>
    <use xlink:href="#DejaVuSans-6c" transform="translate(1082.222656 0)"/>
    <use xlink:href="#DejaVuSans-61" transform="translate(1110.005859 0)"/>
    <use xlink:href="#DejaVuSans-79" transform="translate(1171.285156 0)"/>
   </g>
   <!-- chr16_rank47_score2.283_reads390 -->
   <g transform="translate(359.357813 29.7555) scale(0.12 -0.12)">
    <defs>
     <path id="DejaVuSans-5f" d="M 3263 -1063 
L 3263 -1509 
L -63 -1509 
L -63 -1063 
L 3263 -1063 
z
" transform="scale(0.015625)"/>
     <path id="DejaVuSans-6b" d="M 581 4863 
L 1159 4863 
L 1159 1991 
L 2875 3500 
L 3609 3500 
L 1753 1863 
L 3688 0 
L 2938 0 
L 1159 1709 
L 1159 0 
L 581 0 
L 581 4863 
z
" transform="scale(0.015625)"/>
     <path id="DejaVuSans-37" d="M 525 4666 
L 3525 4666 
L 3525 4397 
L 1831 0 
L 1172 0 
L 2766 4134 
L 525 4134 
L 525 4666 
z
" transform="scale(0.015625)"/>
     <path id="DejaVuSans-39" d="M 703 97 
L 703 672 
Q 941 559 1184 500 
Q 1428 441 1663 441 
Q 2288 441 2617 861 
Q 2947 1281 2994 2138 
Q 2813 1869 2534 1725 
Q 2256 1581 1919 1581 
Q 1219 1581 811 2004 
Q 403 2428 403 3163 
Q 403 3881 828 4315 
Q 1253 4750 1959 4750 
Q 2769 4750 3195 4129 
Q 3622 3509 3622 2328 
Q 3622 1225 3098 567 
Q 2575 -91 1691 -91 
Q 1453 -91 1209 -44 
Q 966 3 703 97 
z
M 1959 2075 
Q 2384 2075 2632 2365 
Q 2881 2656 2881 3163 
Q 2881 3666 2632 3958 
Q 2384 4250 1959 4250 
Q 1534 4250 1286 3958 
Q 1038 3666 1038 3163 
Q 1038 2656 1286 2365 
Q 1534 2075 1959 2075 
z
" transform="scale(0.015625)"/>
    </defs>
    <use xlink:href="#DejaVuSans-63"/>
    <use xlink:href="#DejaVuSans-68" transform="translate(54.980469 0)"/>
    <use xlink:href="#DejaVuSans-72" transform="translate(118.359375 0)"/>
    <use xlink:href="#DejaVuSans-31" transform="translate(159.472656 0)"/>
    <use xlink:href="#DejaVuSans-36" transform="translate(223.095703 0)"/>
    <use xlink:href="#DejaVuSans-5f" transform="translate(286.71875 0)"/>
    <use xlink:href="#DejaVuSans-72" transform="translate(336.71875 0)"/>
    <use xlink:href="#DejaVuSans-61" transform="translate(377.832031 0)"/>
    <use xlink:href="#DejaVuSans-6e" transform="translate(439.111328 0)"/>
    <use xlink:href="#DejaVuSans-6b" transform="translate(502.490234 0)"/>
    <use xlink:href="#DejaVuSans-34" transform="translate(560.400391 0)"/>
    <use xlink:href="#DejaVuSans-37" transform="translate(624.023438 0)"/>
    <use xlink:href="#DejaVuSans-5f" transform="translate(687.646484 0)"/>
    <use xlink:href="#DejaVuSans-73" transform="translate(737.646484 0)"/>
    <use xlink:href="#DejaVuSans-63" transform="translate(789.746094 0)"/>
    <use xlink:href="#DejaVuSans-6f" transform="translate(844.726562 0)"/>
    <use xlink:href="#DejaVuSans-72" transform="translate(905.908203 0)"/>
    <use xlink:href="#DejaVuSans-65" transform="translate(944.771484 0)"/>
    <use xlink:href="#DejaVuSans-32" transform="translate(1006.294922 0)"/>
    <use xlink:href="#DejaVuSans-2e" transform="translate(1069.917969 0)"/>
    <use xlink:href="#DejaVuSans-32" transform="translate(1101.705078 0)"/>
    <use xlink:href="#DejaVuSans-38" transform="translate(1165.328125 0)"/>
    <use xlink:href="#DejaVuSans-33" transform="translate(1228.951172 0)"/>
    <use xlink:href="#DejaVuSans-5f" transform="translate(1292.574219 0)"/>
    <use xlink:href="#DejaVuSans-72" transform="translate(1342.574219 0)"/>
    <use xlink:href="#DejaVuSans-65" transform="translate(1381.4375 0)"/>
    <use xlink:href="#DejaVuSans-61" transform="translate(1442.960938 0)"/>
    <use xlink:href="#DejaVuSans-64" transform="translate(1504.240234 0)"/>
    <use xlink:href="#DejaVuSans-73" transform="translate(1567.716797 0)"/>
    <use xlink:href="#DejaVuSans-33" transform="translate(1619.816406 0)"/>
    <use xlink:href="#DejaVuSans-39" transform="translate(1683.439453 0)"/>
    <use xlink:href="#DejaVuSans-30" transform="translate(1747.0625 0)"/>
   </g>
  </g>
 </g>
 <defs>
  <clipPath id="p012e7fdaff">
   <rect x="47.72" y="49.72725" width="877.48" height="268.31275"/>
  </clipPath>
 </defs>
</svg>
