<?xml version="1.0" encoding="utf-8" standalone="no"?>
<!DOCTYPE svg PUBLIC "-//W3C//DTD SVG 1.1//EN"
  "http://www.w3.org/Graphics/SVG/1.1/DTD/svg11.dtd">
<svg xmlns:xlink="http://www.w3.org/1999/xlink" width="936pt" height="360pt" viewBox="0 0 936 360" xmlns="http://www.w3.org/2000/svg" version="1.1">
 <metadata>
  <rdf:RDF xmlns:dc="http://purl.org/dc/elements/1.1/" xmlns:cc="http://creativecommons.org/ns#" xmlns:rdf="http://www.w3.org/1999/02/22-rdf-syntax-ns#">
   <cc:Work>
    <dc:type rdf:resource="http://purl.org/dc/dcmitype/StillImage"/>
    <dc:date>2026-07-17T20:04:55.140003</dc:date>
    <dc:format>image/svg+xml</dc:format>
    <dc:creator>
     <cc:Agent>
      <dc:title>Matplotlib v3.10.8, https://matplotlib.org/</dc:title>
     </cc:Agent>
    </dc:creator>
   </cc:Work>
  </rdf:RDF>
 </metadata>
 <defs>
  <style type="text/css">*{stroke-linejoin: round; stroke-linecap: butt}</style>
 </defs>
 <g id="figure_1">
  <g id="patch_1">
   <path d="M 0 360 
L 936 360 
L 936 0 
L 0 0 
z
" style="fill: #ffffff"/>
  </g>
  <g id="axes_1">
   <g id="patch_2">
    <path d="M 47.72 318.04 
L 925.2 318.04 
L 925.2 49.72725 
L 47.72 49.72725 
z
" style="fill: #ffffff"/>
   </g>
   <g id="matplotlib.axis_1">
    <g id="xtick_1">
     <g id="line2d_1">
      <defs>
       <path id="m1a754e3344" d="M 0 0 
L 0 3.5 
" style="stroke: #000000; stroke-width: 0.8"/>
      </defs>
      <g>
       <use xlink:href="#m1a754e3344" x="86.806147" y="318.04" style="stroke: #000000; stroke-width: 0.8"/>
      </g>
     </g>
     <g id="text_1">
      <!-- 500000 -->
      <g transform="translate(67.718647 332.638438) scale(0.1 -0.1)">
       <defs>
        <path id="DejaVuSans-35" d="M 691 4666 
L 3169 4666 
L 3169 4134 
L 1269 4134 
L 1269 2991 
Q 1406 3038 1543 3061 
Q 1681 3084 1819 3084 
Q 2600 3084 3056 2656 
Q 3513 2228 3513 1497 
Q 3513 744 3044 326 
Q 2575 -91 1722 -91 
Q 1428 -91 1123 -41 
Q 819 9 494 109 
L 494 744 
Q 775 591 1075 516 
Q 1375 441 1709 441 
Q 2250 441 2565 725 
Q 2881 1009 2881 1497 
Q 2881 1984 2565 2268 
Q 2250 2553 1709 2553 
Q 1456 2553 1204 2497 
Q 953 2441 691 2322 
L 691 4666 
z
" transform="scale(0.015625)"/>
        <path id="DejaVuSans-30" d="M 2034 4250 
Q 1547 4250 1301 3770 
Q 1056 3291 1056 2328 
Q 1056 1369 1301 889 
Q 1547 409 2034 409 
Q 2525 409 2770 889 
Q 3016 1369 3016 2328 
Q 3016 3291 2770 3770 
Q 2525 4250 2034 4250 
z
M 2034 4750 
Q 2819 4750 3233 4129 
Q 3647 3509 3647 2328 
Q 3647 1150 3233 529 
Q 2819 -91 2034 -91 
Q 1250 -91 836 529 
Q 422 1150 422 2328 
Q 422 3509 836 4129 
Q 1250 4750 2034 4750 
z
" transform="scale(0.015625)"/>
       </defs>
       <use xlink:href="#DejaVuSans-35"/>
       <use xlink:href="#DejaVuSans-30" transform="translate(63.623047 0)"/>
       <use xlink:href="#DejaVuSans-30" transform="translate(127.246094 0)"/>
       <use xlink:href="#DejaVuSans-30" transform="translate(190.869141 0)"/>
       <use xlink:href="#DejaVuSans-30" transform="translate(254.492188 0)"/>
       <use xlink:href="#DejaVuSans-30" transform="translate(318.115234 0)"/>
      </g>
     </g>
    </g>
    <g id="xtick_2">
     <g id="line2d_2">
      <g>
       <use xlink:href="#m1a754e3344" x="246.667688" y="318.04" style="stroke: #000000; stroke-width: 0.8"/>
      </g>
     </g>
     <g id="text_2">
      <!-- 520000 -->
      <g transform="translate(227.580188 332.638438) scale(0.1 -0.1)">
       <defs>
        <path id="DejaVuSans-32" d="M 1228 531 
L 3431 531 
L 3431 0 
L 469 0 
L 469 531 
Q 828 903 1448 1529 
Q 2069 2156 2228 2338 
Q 2531 2678 2651 2914 
Q 2772 3150 2772 3378 
Q 2772 3750 2511 3984 
Q 2250 4219 1831 4219 
Q 1534 4219 1204 4116 
Q 875 4013 500 3803 
L 500 4441 
Q 881 4594 1212 4672 
Q 1544 4750 1819 4750 
Q 2544 4750 2975 4387 
Q 3406 4025 3406 3419 
Q 3406 3131 3298 2873 
Q 3191 2616 2906 2266 
Q 2828 2175 2409 1742 
Q 1991 1309 1228 531 
z
" transform="scale(0.015625)"/>
       </defs>
       <use xlink:href="#DejaVuSans-35"/>
       <use xlink:href="#DejaVuSans-32" transform="translate(63.623047 0)"/>
       <use xlink:href="#DejaVuSans-30" transform="translate(127.246094 0)"/>
       <use xlink:href="#DejaVuSans-30" transform="translate(190.869141 0)"/>
       <use xlink:href="#DejaVuSans-30" transform="translate(254.492188 0)"/>
       <use xlink:href="#DejaVuSans-30" transform="translate(318.115234 0)"/>
      </g>
     </g>
    </g>
    <g id="xtick_3">
     <g id="line2d_3">
      <g>
       <use xlink:href="#m1a754e3344" x="406.529229" y="318.04" style="stroke: #000000; stroke-width: 0.8"/>
      </g>
     </g>
     <g id="text_3">
      <!-- 540000 -->
      <g transform="translate(387.441729 332.638438) scale(0.1 -0.1)">
       <defs>
        <path id="DejaVuSans-34" d="M 2419 4116 
L 825 1625 
L 2419 1625 
L 2419 4116 
z
M 2253 4666 
L 3047 4666 
L 3047 1625 
L 3713 1625 
L 3713 1100 
L 3047 1100 
L 3047 0 
L 2419 0 
L 2419 1100 
L 313 1100 
L 313 1709 
L 2253 4666 
z
" transform="scale(0.015625)"/>
       </defs>
       <use xlink:href="#DejaVuSans-35"/>
       <use xlink:href="#DejaVuSans-34" transform="translate(63.623047 0)"/>
       <use xlink:href="#DejaVuSans-30" transform="translate(127.246094 0)"/>
       <use xlink:href="#DejaVuSans-30" transform="translate(190.869141 0)"/>
       <use xlink:href="#DejaVuSans-30" transform="translate(254.492188 0)"/>
       <use xlink:href="#DejaVuSans-30" transform="translate(318.115234 0)"/>
      </g>
     </g>
    </g>
    <g id="xtick_4">
     <g id="line2d_4">
      <g>
       <use xlink:href="#m1a754e3344" x="566.390771" y="318.04" style="stroke: #000000; stroke-width: 0.8"/>
      </g>
     </g>
     <g id="text_4">
      <!-- 560000 -->
      <g transform="translate(547.303271 332.638438) scale(0.1 -0.1)">
       <defs>
        <path id="DejaVuSans-36" d="M 2113 2584 
Q 1688 2584 1439 2293 
Q 1191 2003 1191 1497 
Q 1191 994 1439 701 
Q 1688 409 2113 409 
Q 2538 409 2786 701 
Q 3034 994 3034 1497 
Q 3034 2003 2786 2293 
Q 2538 2584 2113 2584 
z
M 3366 4563 
L 3366 3988 
Q 3128 4100 2886 4159 
Q 2644 4219 2406 4219 
Q 1781 4219 1451 3797 
Q 1122 3375 1075 2522 
Q 1259 2794 1537 2939 
Q 1816 3084 2150 3084 
Q 2853 3084 3261 2657 
Q 3669 2231 3669 1497 
Q 3669 778 3244 343 
Q 2819 -91 2113 -91 
Q 1303 -91 875 529 
Q 447 1150 447 2328 
Q 447 3434 972 4092 
Q 1497 4750 2381 4750 
Q 2619 4750 2861 4703 
Q 3103 4656 3366 4563 
z
" transform="scale(0.015625)"/>
       </defs>
       <use xlink:href="#DejaVuSans-35"/>
       <use xlink:href="#DejaVuSans-36" transform="translate(63.623047 0)"/>
       <use xlink:href="#DejaVuSans-30" transform="translate(127.246094 0)"/>
       <use xlink:href="#DejaVuSans-30" transform="translate(190.869141 0)"/>
       <use xlink:href="#DejaVuSans-30" transform="translate(254.492188 0)"/>
       <use xlink:href="#DejaVuSans-30" transform="translate(318.115234 0)"/>
      </g>
     </g>
    </g>
    <g id="xtick_5">
     <g id="line2d_5">
      <g>
       <use xlink:href="#m1a754e3344" x="726.252312" y="318.04" style="stroke: #000000; stroke-width: 0.8"/>
      </g>
     </g>
     <g id="text_5">
      <!-- 580000 -->
      <g transform="translate(707.164812 332.638438) scale(0.1 -0.1)">
       <defs>
        <path id="DejaVuSans-38" d="M 2034 2216 
Q 1584 2216 1326 1975 
Q 1069 1734 1069 1313 
Q 1069 891 1326 650 
Q 1584 409 2034 409 
Q 2484 409 2743 651 
Q 3003 894 3003 1313 
Q 3003 1734 2745 1975 
Q 2488 2216 2034 2216 
z
M 1403 2484 
Q 997 2584 770 2862 
Q 544 3141 544 3541 
Q 544 4100 942 4425 
Q 1341 4750 2034 4750 
Q 2731 4750 3128 4425 
Q 3525 4100 3525 3541 
Q 3525 3141 3298 2862 
Q 3072 2584 2669 2484 
Q 3125 2378 3379 2068 
Q 3634 1759 3634 1313 
Q 3634 634 3220 271 
Q 2806 -91 2034 -91 
Q 1263 -91 848 271 
Q 434 634 434 1313 
Q 434 1759 690 2068 
Q 947 2378 1403 2484 
z
M 1172 3481 
Q 1172 3119 1398 2916 
Q 1625 2713 2034 2713 
Q 2441 2713 2670 2916 
Q 2900 3119 2900 3481 
Q 2900 3844 2670 4047 
Q 2441 4250 2034 4250 
Q 1625 4250 1398 4047 
Q 1172 3844 1172 3481 
z
" transform="scale(0.015625)"/>
       </defs>
       <use xlink:href="#DejaVuSans-35"/>
       <use xlink:href="#DejaVuSans-38" transform="translate(63.623047 0)"/>
       <use xlink:href="#DejaVuSans-30" transform="translate(127.246094 0)"/>
       <use xlink:href="#DejaVuSans-30" transform="translate(190.869141 0)"/>
       <use xlink:href="#DejaVuSans-30" transform="translate(254.492188 0)"/>
       <use xlink:href="#DejaVuSans-30" transform="translate(318.115234 0)"/>
      </g>
     </g>
    </g>
    <g id="xtick_6">
     <g id="line2d_6">
      <g>
       <use xlink:href="#m1a754e3344" x="886.113853" y="318.04" style="stroke: #000000; stroke-width: 0.8"/>
      </g>
     </g>
     <g id="text_6">
      <!-- 600000 -->
      <g transform="translate(867.026353 332.638438) scale(0.1 -0.1)">
       <use xlink:href="#DejaVuSans-36"/>
       <use xlink:href="#DejaVuSans-30" transform="translate(63.623047 0)"/>
       <use xlink:href="#DejaVuSans-30" transform="translate(127.246094 0)"/>
       <use xlink:href="#DejaVuSans-30" transform="translate(190.869141 0)"/>
       <use xlink:href="#DejaVuSans-30" transform="translate(254.492188 0)"/>
       <use xlink:href="#DejaVuSans-30" transform="translate(318.115234 0)"/>
      </g>
     </g>
    </g>
    <g id="text_7">
     <!-- chr16 coordinate (hg38) -->
     <g transform="translate(425.670156 346.316563) scale(0.1 -0.1)">
      <defs>
       <path id="DejaVuSans-63" d="M 3122 3366 
L 3122 2828 
Q 2878 2963 2633 3030 
Q 2388 3097 2138 3097 
Q 1578 3097 1268 2742 
Q 959 2388 959 1747 
Q 959 1106 1268 751 
Q 1578 397 2138 397 
Q 2388 397 2633 464 
Q 2878 531 3122 666 
L 3122 134 
Q 2881 22 2623 -34 
Q 2366 -91 2075 -91 
Q 1284 -91 818 406 
Q 353 903 353 1747 
Q 353 2603 823 3093 
Q 1294 3584 2113 3584 
Q 2378 3584 2631 3529 
Q 2884 3475 3122 3366 
z
" transform="scale(0.015625)"/>
       <path id="DejaVuSans-68" d="M 3513 2113 
L 3513 0 
L 2938 0 
L 2938 2094 
Q 2938 2591 2744 2837 
Q 2550 3084 2163 3084 
Q 1697 3084 1428 2787 
Q 1159 2491 1159 1978 
L 1159 0 
L 581 0 
L 581 4863 
L 1159 4863 
L 1159 2956 
Q 1366 3272 1645 3428 
Q 1925 3584 2291 3584 
Q 2894 3584 3203 3211 
Q 3513 2838 3513 2113 
z
" transform="scale(0.015625)"/>
       <path id="DejaVuSans-72" d="M 2631 2963 
Q 2534 3019 2420 3045 
Q 2306 3072 2169 3072 
Q 1681 3072 1420 2755 
Q 1159 2438 1159 1844 
L 1159 0 
L 581 0 
L 581 3500 
L 1159 3500 
L 1159 2956 
Q 1341 3275 1631 3429 
Q 1922 3584 2338 3584 
Q 2397 3584 2469 3576 
Q 2541 3569 2628 3553 
L 2631 2963 
z
" transform="scale(0.015625)"/>
       <path id="DejaVuSans-31" d="M 794 531 
L 1825 531 
L 1825 4091 
L 703 3866 
L 703 4441 
L 1819 4666 
L 2450 4666 
L 2450 531 
L 3481 531 
L 3481 0 
L 794 0 
L 794 531 
z
" transform="scale(0.015625)"/>
       <path id="DejaVuSans-20" transform="scale(0.015625)"/>
       <path id="DejaVuSans-6f" d="M 1959 3097 
Q 1497 3097 1228 2736 
Q 959 2375 959 1747 
Q 959 1119 1226 758 
Q 1494 397 1959 397 
Q 2419 397 2687 759 
Q 2956 1122 2956 1747 
Q 2956 2369 2687 2733 
Q 2419 3097 1959 3097 
z
M 1959 3584 
Q 2709 3584 3137 3096 
Q 3566 2609 3566 1747 
Q 3566 888 3137 398 
Q 2709 -91 1959 -91 
Q 1206 -91 779 398 
Q 353 888 353 1747 
Q 353 2609 779 3096 
Q 1206 3584 1959 3584 
z
" transform="scale(0.015625)"/>
       <path id="DejaVuSans-64" d="M 2906 2969 
L 2906 4863 
L 3481 4863 
L 3481 0 
L 2906 0 
L 2906 525 
Q 2725 213 2448 61 
Q 2172 -91 1784 -91 
Q 1150 -91 751 415 
Q 353 922 353 1747 
Q 353 2572 751 3078 
Q 1150 3584 1784 3584 
Q 2172 3584 2448 3432 
Q 2725 3281 2906 2969 
z
M 947 1747 
Q 947 1113 1208 752 
Q 1469 391 1925 391 
Q 2381 391 2643 752 
Q 2906 1113 2906 1747 
Q 2906 2381 2643 2742 
Q 2381 3103 1925 3103 
Q 1469 3103 1208 2742 
Q 947 2381 947 1747 
z
" transform="scale(0.015625)"/>
       <path id="DejaVuSans-69" d="M 603 3500 
L 1178 3500 
L 1178 0 
L 603 0 
L 603 3500 
z
M 603 4863 
L 1178 4863 
L 1178 4134 
L 603 4134 
L 603 4863 
z
" transform="scale(0.015625)"/>
       <path id="DejaVuSans-6e" d="M 3513 2113 
L 3513 0 
L 2938 0 
L 2938 2094 
Q 2938 2591 2744 2837 
Q 2550 3084 2163 3084 
Q 1697 3084 1428 2787 
Q 1159 2491 1159 1978 
L 1159 0 
L 581 0 
L 581 3500 
L 1159 3500 
L 1159 2956 
Q 1366 3272 1645 3428 
Q 1925 3584 2291 3584 
Q 2894 3584 3203 3211 
Q 3513 2838 3513 2113 
z
" transform="scale(0.015625)"/>
       <path id="DejaVuSans-61" d="M 2194 1759 
Q 1497 1759 1228 1600 
Q 959 1441 959 1056 
Q 959 750 1161 570 
Q 1363 391 1709 391 
Q 2188 391 2477 730 
Q 2766 1069 2766 1631 
L 2766 1759 
L 2194 1759 
z
M 3341 1997 
L 3341 0 
L 2766 0 
L 2766 531 
Q 2569 213 2275 61 
Q 1981 -91 1556 -91 
Q 1019 -91 701 211 
Q 384 513 384 1019 
Q 384 1609 779 1909 
Q 1175 2209 1959 2209 
L 2766 2209 
L 2766 2266 
Q 2766 2663 2505 2880 
Q 2244 3097 1772 3097 
Q 1472 3097 1187 3025 
Q 903 2953 641 2809 
L 641 3341 
Q 956 3463 1253 3523 
Q 1550 3584 1831 3584 
Q 2591 3584 2966 3190 
Q 3341 2797 3341 1997 
z
" transform="scale(0.015625)"/>
       <path id="DejaVuSans-74" d="M 1172 4494 
L 1172 3500 
L 2356 3500 
L 2356 3053 
L 1172 3053 
L 1172 1153 
Q 1172 725 1289 603 
Q 1406 481 1766 481 
L 2356 481 
L 2356 0 
L 1766 0 
Q 1100 0 847 248 
Q 594 497 594 1153 
L 594 3053 
L 172 3053 
L 172 3500 
L 594 3500 
L 594 4494 
L 1172 4494 
z
" transform="scale(0.015625)"/>
       <path id="DejaVuSans-65" d="M 3597 1894 
L 3597 1613 
L 953 1613 
Q 991 1019 1311 708 
Q 1631 397 2203 397 
Q 2534 397 2845 478 
Q 3156 559 3463 722 
L 3463 178 
Q 3153 47 2828 -22 
Q 2503 -91 2169 -91 
Q 1331 -91 842 396 
Q 353 884 353 1716 
Q 353 2575 817 3079 
Q 1281 3584 2069 3584 
Q 2775 3584 3186 3129 
Q 3597 2675 3597 1894 
z
M 3022 2063 
Q 3016 2534 2758 2815 
Q 2500 3097 2075 3097 
Q 1594 3097 1305 2825 
Q 1016 2553 972 2059 
L 3022 2063 
z
" transform="scale(0.015625)"/>
       <path id="DejaVuSans-28" d="M 1984 4856 
Q 1566 4138 1362 3434 
Q 1159 2731 1159 2009 
Q 1159 1288 1364 580 
Q 1569 -128 1984 -844 
L 1484 -844 
Q 1016 -109 783 600 
Q 550 1309 550 2009 
Q 550 2706 781 3412 
Q 1013 4119 1484 4856 
L 1984 4856 
z
" transform="scale(0.015625)"/>
       <path id="DejaVuSans-67" d="M 2906 1791 
Q 2906 2416 2648 2759 
Q 2391 3103 1925 3103 
Q 1463 3103 1205 2759 
Q 947 2416 947 1791 
Q 947 1169 1205 825 
Q 1463 481 1925 481 
Q 2391 481 2648 825 
Q 2906 1169 2906 1791 
z
M 3481 434 
Q 3481 -459 3084 -895 
Q 2688 -1331 1869 -1331 
Q 1566 -1331 1297 -1286 
Q 1028 -1241 775 -1147 
L 775 -588 
Q 1028 -725 1275 -790 
Q 1522 -856 1778 -856 
Q 2344 -856 2625 -561 
Q 2906 -266 2906 331 
L 2906 616 
Q 2728 306 2450 153 
Q 2172 0 1784 0 
Q 1141 0 747 490 
Q 353 981 353 1791 
Q 353 2603 747 3093 
Q 1141 3584 1784 3584 
Q 2172 3584 2450 3431 
Q 2728 3278 2906 2969 
L 2906 3500 
L 3481 3500 
L 3481 434 
z
" transform="scale(0.015625)"/>
       <path id="DejaVuSans-33" d="M 2597 2516 
Q 3050 2419 3304 2112 
Q 3559 1806 3559 1356 
Q 3559 666 3084 287 
Q 2609 -91 1734 -91 
Q 1441 -91 1130 -33 
Q 819 25 488 141 
L 488 750 
Q 750 597 1062 519 
Q 1375 441 1716 441 
Q 2309 441 2620 675 
Q 2931 909 2931 1356 
Q 2931 1769 2642 2001 
Q 2353 2234 1838 2234 
L 1294 2234 
L 1294 2753 
L 1863 2753 
Q 2328 2753 2575 2939 
Q 2822 3125 2822 3475 
Q 2822 3834 2567 4026 
Q 2313 4219 1838 4219 
Q 1578 4219 1281 4162 
Q 984 4106 628 3988 
L 628 4550 
Q 988 4650 1302 4700 
Q 1616 4750 1894 4750 
Q 2613 4750 3031 4423 
Q 3450 4097 3450 3541 
Q 3450 3153 3228 2886 
Q 3006 2619 2597 2516 
z
" transform="scale(0.015625)"/>
       <path id="DejaVuSans-29" d="M 513 4856 
L 1013 4856 
Q 1481 4119 1714 3412 
Q 1947 2706 1947 2009 
Q 1947 1309 1714 600 
Q 1481 -109 1013 -844 
L 513 -844 
Q 928 -128 1133 580 
Q 1338 1288 1338 2009 
Q 1338 2731 1133 3434 
Q 928 4138 513 4856 
z
" transform="scale(0.015625)"/>
      </defs>
      <use xlink:href="#DejaVuSans-63"/>
      <use xlink:href="#DejaVuSans-68" transform="translate(54.980469 0)"/>
      <use xlink:href="#DejaVuSans-72" transform="translate(118.359375 0)"/>
      <use xlink:href="#DejaVuSans-31" transform="translate(159.472656 0)"/>
      <use xlink:href="#DejaVuSans-36" transform="translate(223.095703 0)"/>
      <use xlink:href="#DejaVuSans-20" transform="translate(286.71875 0)"/>
      <use xlink:href="#DejaVuSans-63" transform="translate(318.505859 0)"/>
      <use xlink:href="#DejaVuSans-6f" transform="translate(373.486328 0)"/>
      <use xlink:href="#DejaVuSans-6f" transform="translate(434.667969 0)"/>
      <use xlink:href="#DejaVuSans-72" transform="translate(495.849609 0)"/>
      <use xlink:href="#DejaVuSans-64" transform="translate(535.212891 0)"/>
      <use xlink:href="#DejaVuSans-69" transform="translate(598.689453 0)"/>
      <use xlink:href="#DejaVuSans-6e" transform="translate(626.472656 0)"/>
      <use xlink:href="#DejaVuSans-61" transform="translate(689.851562 0)"/>
      <use xlink:href="#DejaVuSans-74" transform="translate(751.130859 0)"/>
      <use xlink:href="#DejaVuSans-65" transform="translate(790.339844 0)"/>
      <use xlink:href="#DejaVuSans-20" transform="translate(851.863281 0)"/>
      <use xlink:href="#DejaVuSans-28" transform="translate(883.650391 0)"/>
      <use xlink:href="#DejaVuSans-68" transform="translate(922.664062 0)"/>
      <use xlink:href="#DejaVuSans-67" transform="translate(986.042969 0)"/>
      <use xlink:href="#DejaVuSans-33" transform="translate(1049.519531 0)"/>
      <use xlink:href="#DejaVuSans-38" transform="translate(1113.142578 0)"/>
      <use xlink:href="#DejaVuSans-29" transform="translate(1176.765625 0)"/>
     </g>
    </g>
   </g>
   <g id="matplotlib.axis_2">
    <g id="ytick_1">
     <g id="line2d_7">
      <defs>
       <path id="m00853a7638" d="M 0 0 
L -3.5 0 
" style="stroke: #000000; stroke-width: 0.8"/>
      </defs>
      <g>
       <use xlink:href="#m00853a7638" x="47.72" y="305.843966" style="stroke: #000000; stroke-width: 0.8"/>
      </g>
     </g>
     <g id="text_8">
      <!-- 0.0 -->
      <g transform="translate(24.816875 309.643185) scale(0.1 -0.1)">
       <defs>
        <path id="DejaVuSans-2e" d="M 684 794 
L 1344 794 
L 1344 0 
L 684 0 
L 684 794 
z
" transform="scale(0.015625)"/>
       </defs>
       <use xlink:href="#DejaVuSans-30"/>
       <use xlink:href="#DejaVuSans-2e" transform="translate(63.623047 0)"/>
       <use xlink:href="#DejaVuSans-30" transform="translate(95.410156 0)"/>
      </g>
     </g>
    </g>
    <g id="ytick_2">
     <g id="line2d_8">
      <g>
       <use xlink:href="#m00853a7638" x="47.72" y="257.05983" style="stroke: #000000; stroke-width: 0.8"/>
      </g>
     </g>
     <g id="text_9">
      <!-- 0.2 -->
      <g transform="translate(24.816875 260.859048) scale(0.1 -0.1)">
       <use xlink:href="#DejaVuSans-30"/>
       <use xlink:href="#DejaVuSans-2e" transform="translate(63.623047 0)"/>
       <use xlink:href="#DejaVuSans-32" transform="translate(95.410156 0)"/>
      </g>
     </g>
    </g>
    <g id="ytick_3">
     <g id="line2d_9">
      <g>
       <use xlink:href="#m00853a7638" x="47.72" y="208.275693" style="stroke: #000000; stroke-width: 0.8"/>
      </g>
     </g>
     <g id="text_10">
      <!-- 0.4 -->
      <g transform="translate(24.816875 212.074912) scale(0.1 -0.1)">
       <use xlink:href="#DejaVuSans-30"/>
       <use xlink:href="#DejaVuSans-2e" transform="translate(63.623047 0)"/>
       <use xlink:href="#DejaVuSans-34" transform="translate(95.410156 0)"/>
      </g>
     </g>
    </g>
    <g id="ytick_4">
     <g id="line2d_10">
      <g>
       <use xlink:href="#m00853a7638" x="47.72" y="159.491557" style="stroke: #000000; stroke-width: 0.8"/>
      </g>
     </g>
     <g id="text_11">
      <!-- 0.6 -->
      <g transform="translate(24.816875 163.290776) scale(0.1 -0.1)">
       <use xlink:href="#DejaVuSans-30"/>
       <use xlink:href="#DejaVuSans-2e" transform="translate(63.623047 0)"/>
       <use xlink:href="#DejaVuSans-36" transform="translate(95.410156 0)"/>
      </g>
     </g>
    </g>
    <g id="ytick_5">
     <g id="line2d_11">
      <g>
       <use xlink:href="#m00853a7638" x="47.72" y="110.70742" style="stroke: #000000; stroke-width: 0.8"/>
      </g>
     </g>
     <g id="text_12">
      <!-- 0.8 -->
      <g transform="translate(24.816875 114.506639) scale(0.1 -0.1)">
       <use xlink:href="#DejaVuSans-30"/>
       <use xlink:href="#DejaVuSans-2e" transform="translate(63.623047 0)"/>
       <use xlink:href="#DejaVuSans-38" transform="translate(95.410156 0)"/>
      </g>
     </g>
    </g>
    <g id="ytick_6">
     <g id="line2d_12">
      <g>
       <use xlink:href="#m00853a7638" x="47.72" y="61.923284" style="stroke: #000000; stroke-width: 0.8"/>
      </g>
     </g>
     <g id="text_13">
      <!-- 1.0 -->
      <g transform="translate(24.816875 65.722503) scale(0.1 -0.1)">
       <use xlink:href="#DejaVuSans-31"/>
       <use xlink:href="#DejaVuSans-2e" transform="translate(63.623047 0)"/>
       <use xlink:href="#DejaVuSans-30" transform="translate(95.410156 0)"/>
      </g>
     </g>
    </g>
    <g id="text_14">
     <!-- global robust normalized signal -->
     <g transform="translate(18.737188 262.384406) rotate(-90) scale(0.1 -0.1)">
      <defs>
       <path id="DejaVuSans-6c" d="M 603 4863 
L 1178 4863 
L 1178 0 
L 603 0 
L 603 4863 
z
" transform="scale(0.015625)"/>
       <path id="DejaVuSans-62" d="M 3116 1747 
Q 3116 2381 2855 2742 
Q 2594 3103 2138 3103 
Q 1681 3103 1420 2742 
Q 1159 2381 1159 1747 
Q 1159 1113 1420 752 
Q 1681 391 2138 391 
Q 2594 391 2855 752 
Q 3116 1113 3116 1747 
z
M 1159 2969 
Q 1341 3281 1617 3432 
Q 1894 3584 2278 3584 
Q 2916 3584 3314 3078 
Q 3713 2572 3713 1747 
Q 3713 922 3314 415 
Q 2916 -91 2278 -91 
Q 1894 -91 1617 61 
Q 1341 213 1159 525 
L 1159 0 
L 581 0 
L 581 4863 
L 1159 4863 
L 1159 2969 
z
" transform="scale(0.015625)"/>
       <path id="DejaVuSans-75" d="M 544 1381 
L 544 3500 
L 1119 3500 
L 1119 1403 
Q 1119 906 1312 657 
Q 1506 409 1894 409 
Q 2359 409 2629 706 
Q 2900 1003 2900 1516 
L 2900 3500 
L 3475 3500 
L 3475 0 
L 2900 0 
L 2900 538 
Q 2691 219 2414 64 
Q 2138 -91 1772 -91 
Q 1169 -91 856 284 
Q 544 659 544 1381 
z
M 1991 3584 
L 1991 3584 
z
" transform="scale(0.015625)"/>
       <path id="DejaVuSans-73" d="M 2834 3397 
L 2834 2853 
Q 2591 2978 2328 3040 
Q 2066 3103 1784 3103 
Q 1356 3103 1142 2972 
Q 928 2841 928 2578 
Q 928 2378 1081 2264 
Q 1234 2150 1697 2047 
L 1894 2003 
Q 2506 1872 2764 1633 
Q 3022 1394 3022 966 
Q 3022 478 2636 193 
Q 2250 -91 1575 -91 
Q 1294 -91 989 -36 
Q 684 19 347 128 
L 347 722 
Q 666 556 975 473 
Q 1284 391 1588 391 
Q 1994 391 2212 530 
Q 2431 669 2431 922 
Q 2431 1156 2273 1281 
Q 2116 1406 1581 1522 
L 1381 1569 
Q 847 1681 609 1914 
Q 372 2147 372 2553 
Q 372 3047 722 3315 
Q 1072 3584 1716 3584 
Q 2034 3584 2315 3537 
Q 2597 3491 2834 3397 
z
" transform="scale(0.015625)"/>
       <path id="DejaVuSans-6d" d="M 3328 2828 
Q 3544 3216 3844 3400 
Q 4144 3584 4550 3584 
Q 5097 3584 5394 3201 
Q 5691 2819 5691 2113 
L 5691 0 
L 5113 0 
L 5113 2094 
Q 5113 2597 4934 2840 
Q 4756 3084 4391 3084 
Q 3944 3084 3684 2787 
Q 3425 2491 3425 1978 
L 3425 0 
L 2847 0 
L 2847 2094 
Q 2847 2600 2669 2842 
Q 2491 3084 2119 3084 
Q 1678 3084 1418 2786 
Q 1159 2488 1159 1978 
L 1159 0 
L 581 0 
L 581 3500 
L 1159 3500 
L 1159 2956 
Q 1356 3278 1631 3431 
Q 1906 3584 2284 3584 
Q 2666 3584 2933 3390 
Q 3200 3197 3328 2828 
z
" transform="scale(0.015625)"/>
       <path id="DejaVuSans-7a" d="M 353 3500 
L 3084 3500 
L 3084 2975 
L 922 459 
L 3084 459 
L 3084 0 
L 275 0 
L 275 525 
L 2438 3041 
L 353 3041 
L 353 3500 
z
" transform="scale(0.015625)"/>
      </defs>
      <use xlink:href="#DejaVuSans-67"/>
      <use xlink:href="#DejaVuSans-6c" transform="translate(63.476562 0)"/>
      <use xlink:href="#DejaVuSans-6f" transform="translate(91.259766 0)"/>
      <use xlink:href="#DejaVuSans-62" transform="translate(152.441406 0)"/>
      <use xlink:href="#DejaVuSans-61" transform="translate(215.917969 0)"/>
      <use xlink:href="#DejaVuSans-6c" transform="translate(277.197266 0)"/>
      <use xlink:href="#DejaVuSans-20" transform="translate(304.980469 0)"/>
      <use xlink:href="#DejaVuSans-72" transform="translate(336.767578 0)"/>
      <use xlink:href="#DejaVuSans-6f" transform="translate(375.630859 0)"/>
      <use xlink:href="#DejaVuSans-62" transform="translate(436.8125 0)"/>
      <use xlink:href="#DejaVuSans-75" transform="translate(500.289062 0)"/>
      <use xlink:href="#DejaVuSans-73" transform="translate(563.667969 0)"/>
      <use xlink:href="#DejaVuSans-74" transform="translate(615.767578 0)"/>
      <use xlink:href="#DejaVuSans-20" transform="translate(654.976562 0)"/>
      <use xlink:href="#DejaVuSans-6e" transform="translate(686.763672 0)"/>
      <use xlink:href="#DejaVuSans-6f" transform="translate(750.142578 0)"/>
      <use xlink:href="#DejaVuSans-72" transform="translate(811.324219 0)"/>
      <use xlink:href="#DejaVuSans-6d" transform="translate(850.6875 0)"/>
      <use xlink:href="#DejaVuSans-61" transform="translate(948.099609 0)"/>
      <use xlink:href="#DejaVuSans-6c" transform="translate(1009.378906 0)"/>
      <use xlink:href="#DejaVuSans-69" transform="translate(1037.162109 0)"/>
      <use xlink:href="#DejaVuSans-7a" transform="translate(1064.945312 0)"/>
      <use xlink:href="#DejaVuSans-65" transform="translate(1117.435547 0)"/>
      <use xlink:href="#DejaVuSans-64" transform="translate(1178.958984 0)"/>
      <use xlink:href="#DejaVuSans-20" transform="translate(1242.435547 0)"/>
      <use xlink:href="#DejaVuSans-73" transform="translate(1274.222656 0)"/>
      <use xlink:href="#DejaVuSans-69" transform="translate(1326.322266 0)"/>
      <use xlink:href="#DejaVuSans-67" transform="translate(1354.105469 0)"/>
      <use xlink:href="#DejaVuSans-6e" transform="translate(1417.582031 0)"/>
      <use xlink:href="#DejaVuSans-61" transform="translate(1480.960938 0)"/>
      <use xlink:href="#DejaVuSans-6c" transform="translate(1542.240234 0)"/>
     </g>
    </g>
   </g>
   <g id="line2d_13">
    <path d="M 87.605455 303.705759 
L 89.20407 305.843966 
L 90.802685 305.140202 
L 92.401301 303.428157 
L 93.999916 302.993628 
L 95.598532 301.611669 
L 97.197147 302.059034 
L 98.795762 301.032559 
L 100.394378 301.714627 
L 101.992993 301.612815 
L 103.591609 297.319899 
L 105.190224 297.333872 
L 106.788839 297.661734 
L 108.387455 294.845714 
L 109.98607 296.81719 
L 111.584686 300.766725 
L 113.183301 302.530111 
L 114.781917 299.928266 
L 116.380532 302.254594 
L 117.979147 302.646487 
L 119.577763 302.275788 
L 121.176378 305.73419 
L 122.774994 305.703673 
L 124.373609 305.374318 
L 125.972224 304.757183 
L 127.57084 304.419334 
L 129.169455 298.4481 
L 130.768071 302.24272 
L 132.366686 304.488077 
L 133.965302 303.666957 
L 135.563917 303.355396 
L 137.162532 298.738071 
L 138.761148 300.990263 
L 140.359763 299.633523 
L 141.958379 299.652991 
L 143.556994 302.721053 
L 145.155609 298.335503 
L 146.754225 300.256856 
L 148.35284 303.178511 
L 149.951456 302.401409 
L 151.550071 301.125113 
L 153.148686 298.833513 
L 154.747302 299.585907 
L 156.345917 301.596498 
L 157.944533 303.794557 
L 159.543148 300.983728 
L 161.141764 302.720343 
L 162.740379 299.974408 
L 164.338994 300.410481 
L 165.93761 302.386233 
L 167.536225 300.726486 
L 169.134841 303.276116 
L 170.733456 298.654884 
L 172.332071 297.756175 
L 173.930687 303.635972 
L 175.529302 304.020255 
L 177.127918 305.246217 
L 178.726533 303.312717 
L 180.325148 301.922028 
L 181.923764 302.125213 
L 183.522379 299.274832 
L 185.120995 304.581397 
L 186.71961 304.782662 
L 188.318226 304.045646 
L 189.916841 298.11102 
L 191.515456 296.068441 
L 193.114072 299.308413 
L 194.712687 301.955425 
L 196.311303 303.942072 
L 197.909918 302.92328 
L 199.508533 303.504823 
L 201.107149 302.679752 
L 202.705764 301.629147 
L 204.30438 302.89607 
L 205.902995 303.786718 
L 207.50161 303.519682 
L 209.100226 300.501292 
L 210.698841 301.519439 
L 212.297457 303.629875 
L 213.896072 303.568887 
L 215.494688 303.930847 
L 217.093303 302.790811 
L 218.691918 303.942854 
L 220.290534 303.721363 
L 221.889149 300.787514 
L 223.487765 300.287346 
L 225.08638 300.577393 
L 226.684995 299.30253 
L 228.283611 302.267616 
L 229.882226 303.78468 
L 231.480842 303.626092 
L 233.079457 301.148166 
L 234.678073 303.957255 
L 236.276688 302.991125 
L 237.875303 302.625083 
L 239.473919 299.282185 
L 241.072534 299.464522 
L 242.67115 302.714959 
L 244.269765 300.860706 
L 245.86838 299.26124 
L 247.466996 301.284166 
L 249.065611 302.501477 
L 250.664227 304.378879 
L 252.262842 301.025043 
L 253.861457 301.801255 
L 255.460073 298.85231 
L 258.657304 296.965552 
L 260.255919 299.138743 
L 261.854535 300.861237 
L 263.45315 302.332829 
L 265.051765 304.502243 
L 266.650381 301.364727 
L 268.248996 300.13838 
L 269.847612 301.754249 
L 271.446227 299.944731 
L 273.044842 302.030924 
L 274.643458 299.369034 
L 276.242073 301.358435 
L 277.840689 301.585798 
L 279.439304 299.037454 
L 281.037919 298.743278 
L 282.636535 301.482511 
L 284.23515 299.412461 
L 285.833766 301.271609 
L 287.432381 300.654103 
L 289.030997 297.999332 
L 290.629612 293.610494 
L 292.228227 294.697893 
L 293.826843 285.989971 
L 295.425458 273.929848 
L 297.024074 252.105208 
L 298.622689 218.563097 
L 300.221304 126.917859 
L 301.81992 61.923284 
L 303.418535 61.923284 
L 305.017151 87.969235 
L 306.615766 180.690561 
L 308.214381 154.95439 
L 309.812997 88.444455 
L 311.411612 61.923284 
L 314.608843 61.923284 
L 316.207459 77.973217 
L 317.806074 189.088023 
L 319.404689 212.320841 
L 321.003305 246.986664 
L 322.60192 266.356238 
L 324.200536 291.296733 
L 325.799151 298.433581 
L 327.397766 300.279898 
L 328.996382 297.799699 
L 332.193613 297.617395 
L 333.792228 300.67215 
L 335.390844 302.874172 
L 336.989459 302.198505 
L 338.588074 300.288899 
L 340.18669 302.481156 
L 341.785305 302.782756 
L 343.383921 304.431856 
L 344.982536 303.403827 
L 346.581151 299.22931 
L 348.179767 303.619293 
L 349.778382 301.176379 
L 351.376998 300.996159 
L 352.975613 302.148278 
L 356.172844 294.415551 
L 357.771459 295.681792 
L 359.370075 294.453402 
L 360.96869 298.212147 
L 362.567306 296.157591 
L 364.165921 297.790714 
L 365.764536 300.982314 
L 367.363152 298.556283 
L 368.961767 291.347178 
L 370.560383 290.043178 
L 372.158998 298.15323 
L 373.757613 299.077373 
L 375.356229 296.813491 
L 376.954844 300.337805 
L 378.55346 300.679949 
L 380.152075 301.166419 
L 381.75069 299.786737 
L 383.349306 304.149032 
L 384.947921 305.843966 
L 386.546537 304.393207 
L 388.145152 302.028339 
L 389.743768 305.318693 
L 392.940998 298.889304 
L 394.539614 298.632998 
L 396.138229 302.506827 
L 397.736845 303.871125 
L 399.33546 301.765354 
L 400.934075 301.925258 
L 402.532691 300.137721 
L 404.131306 301.151397 
L 405.729922 302.796786 
L 407.328537 302.029525 
L 408.927152 302.727388 
L 410.525768 303.169309 
L 412.124383 304.969963 
L 413.722999 303.90687 
L 415.321614 303.41934 
L 416.92023 297.740593 
L 418.518845 300.981801 
L 420.11746 298.969852 
L 421.716076 301.543835 
L 423.314691 299.354154 
L 424.913307 298.338722 
L 426.511922 303.01559 
L 428.110537 303.093927 
L 429.709153 301.922858 
L 431.307768 300.968479 
L 432.906384 300.486005 
L 434.504999 302.533077 
L 437.70223 303.60105 
L 439.300845 302.777616 
L 440.899461 300.89474 
L 442.498076 303.704906 
L 444.096692 304.654604 
L 445.695307 305.843966 
L 447.293922 305.234026 
L 448.892538 301.869306 
L 450.491153 303.93889 
L 452.089769 300.561827 
L 453.688384 300.704846 
L 455.286999 302.427881 
L 456.885615 303.770855 
L 458.48423 304.085311 
L 460.082846 302.587161 
L 461.681461 301.522347 
L 463.280077 301.201953 
L 464.878692 297.108717 
L 466.477307 298.805374 
L 468.075923 301.404399 
L 469.674538 301.663218 
L 471.273154 300.999873 
L 474.470384 300.055552 
L 476.069 299.598088 
L 477.667615 297.841453 
L 479.266231 300.366639 
L 480.864846 305.843966 
L 482.463461 302.934549 
L 484.062077 302.727151 
L 485.660692 297.347504 
L 487.259308 300.626027 
L 488.857923 305.49629 
L 492.055154 300.811914 
L 493.653769 302.050116 
L 495.252385 305.551198 
L 496.851 305.496284 
L 498.449616 305.209708 
L 500.048231 302.640515 
L 501.646846 299.416691 
L 503.245462 300.403242 
L 504.844077 302.836947 
L 506.442693 303.95316 
L 508.041308 301.807929 
L 509.639923 304.044653 
L 511.238539 305.276725 
L 512.837154 304.14835 
L 514.43577 300.872909 
L 516.034385 297.896338 
L 517.633001 298.180047 
L 519.231616 303.833645 
L 520.830231 304.392151 
L 522.428847 303.650391 
L 524.027462 301.626493 
L 525.626078 301.080827 
L 527.224693 302.470978 
L 528.823308 299.39832 
L 530.421924 300.726423 
L 532.020539 305.228301 
L 533.619155 303.225126 
L 535.21777 304.720422 
L 536.816385 301.522954 
L 538.415001 302.519757 
L 540.013616 304.100645 
L 541.612232 305.843966 
L 543.210847 305.843966 
L 544.809463 304.709458 
L 546.408078 303.247903 
L 548.006693 304.132984 
L 549.605309 300.548146 
L 551.203924 299.312358 
L 552.80254 299.411443 
L 555.99977 294.026441 
L 557.598386 295.502359 
L 559.197001 300.085974 
L 560.795617 297.478599 
L 562.394232 297.626568 
L 563.992848 288.869631 
L 565.591463 285.735228 
L 567.190078 249.623266 
L 568.788694 202.739305 
L 570.387309 191.45563 
L 571.985925 248.603047 
L 573.58454 275.648195 
L 575.183155 283.999128 
L 576.781771 295.571939 
L 578.380386 302.222721 
L 579.979002 301.496791 
L 581.577617 303.941217 
L 583.176232 303.202911 
L 584.774848 296.863519 
L 586.373463 296.518314 
L 587.972079 300.885076 
L 589.570694 300.03323 
L 591.16931 301.671946 
L 592.767925 292.444362 
L 594.36654 300.803844 
L 595.965156 302.336757 
L 597.563771 299.646897 
L 599.162387 300.427647 
L 600.761002 297.451365 
L 602.359617 301.760038 
L 603.958233 298.268414 
L 605.556848 299.382734 
L 607.155464 303.26447 
L 608.754079 301.440986 
L 610.352694 304.077999 
L 611.95131 300.580906 
L 613.549925 299.422917 
L 615.148541 300.109207 
L 616.747156 300.988381 
L 618.345772 298.669749 
L 619.944387 301.647496 
L 621.543002 301.90853 
L 623.141618 296.193751 
L 624.740233 297.293337 
L 626.338849 303.227326 
L 627.937464 301.98301 
L 629.536079 299.604208 
L 631.134695 300.315913 
L 632.73331 300.788621 
L 634.331926 303.374147 
L 635.930541 297.630749 
L 637.529156 291.398585 
L 639.127772 286.079252 
L 640.726387 266.713773 
L 642.325003 230.398334 
L 643.923618 186.277597 
L 645.522234 177.214517 
L 647.120849 61.923284 
L 648.719464 61.923284 
L 650.31808 77.134072 
L 651.916695 70.722155 
L 655.113926 264.974655 
L 656.712541 292.679885 
L 658.311157 297.673365 
L 659.909772 299.94032 
L 661.508388 298.530581 
L 663.107003 299.593406 
L 664.705619 298.500154 
L 666.304234 300.003463 
L 667.902849 301.671936 
L 669.501465 304.666768 
L 671.10008 305.673174 
L 672.698696 302.696659 
L 675.895926 299.352644 
L 677.494542 299.379195 
L 679.093157 301.507867 
L 680.691773 304.203682 
L 682.290388 303.562786 
L 683.889003 302.367677 
L 685.487619 299.622521 
L 687.086234 302.233083 
L 688.68485 305.843966 
L 690.283465 301.403559 
L 691.882081 302.653966 
L 693.480696 303.032773 
L 695.079311 303.919307 
L 696.677927 302.957626 
L 698.276542 299.371614 
L 699.875158 298.707772 
L 701.473773 302.440497 
L 703.072388 301.4969 
L 704.671004 300.126434 
L 706.269619 300.122658 
L 707.868235 301.183668 
L 709.46685 304.216626 
L 711.065465 304.965654 
L 712.664081 303.155054 
L 714.262696 300.749068 
L 715.861312 296.511107 
L 717.459927 288.350958 
L 719.058543 266.920471 
L 720.657158 289.812586 
L 723.854389 303.495702 
L 725.453004 302.416099 
L 727.05162 300.897382 
L 728.650235 302.302958 
L 730.24885 298.673904 
L 731.847466 303.183293 
L 733.446081 301.73409 
L 735.044697 303.742178 
L 736.643312 303.222717 
L 738.241927 302.068429 
L 739.840543 301.92813 
L 741.439158 302.561013 
L 743.037774 300.468308 
L 744.636389 301.14869 
L 746.235005 302.818643 
L 747.83362 295.859618 
L 749.432235 297.12714 
L 751.030851 301.413131 
L 752.629466 301.220796 
L 754.228082 295.243752 
L 755.826697 297.86998 
L 757.425312 301.715214 
L 759.023928 300.45953 
L 760.622543 295.147386 
L 762.221159 298.678082 
L 763.819774 303.907368 
L 765.41839 305.843966 
L 767.017005 305.843966 
L 768.61562 302.909686 
L 770.214236 298.016872 
L 771.812851 301.440247 
L 773.411467 296.911471 
L 775.010082 288.791747 
L 776.608697 297.735383 
L 778.207313 301.629053 
L 779.805928 304.72125 
L 781.404544 303.064168 
L 783.003159 300.924282 
L 784.601774 297.327378 
L 786.20039 294.082532 
L 787.799005 294.455024 
L 789.397621 291.104139 
L 790.996236 270.148384 
L 792.594852 245.423717 
L 794.193467 180.792769 
L 795.792082 139.793617 
L 797.390698 64.15441 
L 798.989313 61.923284 
L 800.587929 135.565234 
L 802.186544 152.993269 
L 803.785159 163.202389 
L 805.383775 252.033406 
L 806.98239 230.871171 
L 808.581006 105.229423 
L 810.179621 74.816088 
L 811.778236 104.742235 
L 813.376852 225.549959 
L 814.975467 256.527563 
L 816.574083 289.900896 
L 818.172698 299.597675 
L 821.369929 302.247268 
L 824.56716 299.38385 
L 826.165775 298.413447 
L 827.764391 301.328265 
L 829.363006 301.804598 
L 830.961621 299.036977 
L 832.560237 298.474419 
L 834.158852 299.46533 
L 835.757468 300.089461 
L 837.356083 296.95423 
L 838.954698 302.443143 
L 840.553314 300.341587 
L 842.151929 304.997185 
L 843.750545 301.440161 
L 845.34916 299.632292 
L 846.947776 301.133083 
L 848.546391 300.316886 
L 850.145006 303.448144 
L 851.743622 302.914252 
L 853.342237 304.054435 
L 854.940853 304.293933 
L 856.539468 303.546746 
L 858.138083 301.373622 
L 859.736699 298.716331 
L 861.335314 299.903079 
L 862.93393 300.370153 
L 864.532545 303.655986 
L 866.131161 301.311665 
L 867.729776 299.400363 
L 869.328391 302.391683 
L 870.927007 305.843966 
L 872.525622 305.325871 
L 874.124238 302.466463 
L 875.722853 303.312835 
L 877.321468 300.759197 
L 878.920084 300.610624 
L 880.518699 302.88575 
L 882.117315 304.435458 
L 883.71593 304.70336 
L 885.314545 305.520682 
L 885.314545 305.520682 
" clip-path="url(#pb7261a8605)" style="fill: none; stroke: #2ca02c; stroke-width: 1.2; stroke-linecap: square"/>
   </g>
   <g id="line2d_14">
    <path d="M 87.605455 303.741298 
L 89.20407 304.173618 
L 90.802685 304.760689 
L 92.401301 304.375859 
L 93.999916 303.308978 
L 95.598532 303.063342 
L 97.197147 303.85511 
L 98.795762 304.791803 
L 100.394378 304.07127 
L 103.591609 302.016931 
L 105.190224 301.194868 
L 106.788839 300.772373 
L 108.387455 301.574785 
L 109.98607 300.019088 
L 111.584686 300.516911 
L 113.183301 300.842789 
L 114.781917 301.874462 
L 116.380532 303.114106 
L 117.979147 305.309277 
L 119.577763 305.843966 
L 124.373609 305.843966 
L 125.972224 305.545088 
L 127.57084 304.325913 
L 129.169455 304.038518 
L 130.768071 304.366033 
L 132.366686 304.493764 
L 135.563917 304.29398 
L 138.761148 304.269416 
L 140.359763 304.115484 
L 141.958379 304.275967 
L 143.556994 304.83438 
L 145.155609 305.091479 
L 146.754225 304.372584 
L 148.35284 304.019686 
L 149.951456 303.814989 
L 151.550071 303.453903 
L 153.148686 303.683164 
L 154.747302 304.189175 
L 157.944533 303.679889 
L 164.338994 303.03714 
L 165.93761 303.777325 
L 167.536225 304.311993 
L 169.134841 304.17935 
L 170.733456 303.864935 
L 172.332071 303.925525 
L 173.930687 305.237224 
L 175.529302 305.843966 
L 180.325148 305.843966 
L 181.923764 305.674866 
L 183.522379 305.062003 
L 185.120995 305.843966 
L 186.71961 305.843966 
L 188.318226 304.73285 
L 189.916841 303.896868 
L 191.515456 303.682345 
L 194.712687 303.790425 
L 196.311303 303.857566 
L 199.508533 304.230933 
L 202.705764 304.027055 
L 204.30438 304.130222 
L 209.100226 304.081095 
L 210.698841 304.714837 
L 212.297457 304.953923 
L 213.896072 304.424986 
L 215.494688 304.068813 
L 217.093303 303.849378 
L 218.691918 304.190813 
L 220.290534 304.875319 
L 221.889149 304.26041 
L 225.08638 303.88868 
L 226.684995 303.823177 
L 228.283611 304.30053 
L 229.882226 304.930997 
L 233.079457 304.185081 
L 234.678073 304.628045 
L 237.875303 304.100746 
L 241.072534 304.355389 
L 244.269765 304.561724 
L 245.86838 304.740219 
L 249.065611 304.662434 
L 253.861457 304.270235 
L 255.460073 304.15233 
L 257.058688 303.817445 
L 261.854535 302.185601 
L 263.45315 303.105919 
L 265.051765 303.191073 
L 266.650381 302.332983 
L 268.248996 302.431237 
L 269.847612 302.830806 
L 273.044842 303.125569 
L 274.643458 302.775128 
L 276.242073 303.56444 
L 277.840689 303.965646 
L 279.439304 302.503291 
L 281.037919 301.689415 
L 282.636535 301.899025 
L 284.23515 301.761469 
L 285.833766 301.183404 
L 287.432381 298.953026 
L 289.030997 296.000477 
L 290.629612 293.616166 
L 292.228227 295.184964 
L 293.826843 287.632464 
L 295.425458 276.939094 
L 297.024074 259.633192 
L 298.622689 227.045432 
L 300.221304 168.197505 
L 301.81992 81.314279 
L 303.418535 61.923284 
L 305.017151 113.93479 
L 306.615766 170.372205 
L 308.214381 189.210878 
L 309.812997 112.179309 
L 311.411612 75.812024 
L 313.010228 61.923284 
L 314.608843 61.923284 
L 316.207459 110.135614 
L 317.806074 196.914035 
L 319.404689 234.800991 
L 322.60192 278.236054 
L 324.200536 287.815873 
L 325.799151 293.36398 
L 327.397766 296.272314 
L 330.594997 298.673001 
L 332.193613 299.655546 
L 335.390844 301.248908 
L 338.588074 302.254379 
L 340.18669 302.893034 
L 343.383921 302.545868 
L 344.982536 302.722726 
L 346.581151 303.551339 
L 348.179767 304.928541 
L 349.778382 304.083551 
L 351.376998 302.473814 
L 354.574228 298.553458 
L 356.172844 295.895672 
L 357.771459 297.048525 
L 359.370075 292.62707 
L 360.96869 292.489514 
L 362.567306 293.603066 
L 364.165921 292.430561 
L 365.764536 292.479689 
L 367.363152 289.4862 
L 368.961767 285.506891 
L 370.560383 286.961058 
L 372.158998 291.831209 
L 373.757613 287.815873 
L 375.356229 288.120462 
L 376.954844 291.880336 
L 378.55346 298.419176 
L 380.152075 299.784915 
L 381.75069 299.203575 
L 384.947921 300.207409 
L 386.546537 301.40284 
L 388.145152 302.332983 
L 389.743768 302.558968 
L 391.342383 302.38211 
L 394.539614 302.349359 
L 396.138229 302.716176 
L 397.736845 302.958537 
L 399.33546 302.316607 
L 400.934075 301.515832 
L 404.131306 299.219951 
L 405.729922 299.691573 
L 407.328537 301.058949 
L 408.927152 300.256537 
L 410.525768 301.540396 
L 413.722999 302.539317 
L 418.518845 303.117382 
L 420.11746 303.221368 
L 421.716076 304.529791 
L 423.314691 303.905056 
L 424.913307 302.726001 
L 426.511922 302.82098 
L 428.110537 303.358105 
L 429.709153 303.439984 
L 431.307768 302.575344 
L 432.906384 302.463989 
L 434.504999 302.974912 
L 436.103615 302.572069 
L 437.70223 303.060066 
L 440.899461 303.310616 
L 442.498076 303.764224 
L 444.096692 305.536081 
L 445.695307 305.37478 
L 447.293922 303.372025 
L 452.089769 303.277045 
L 453.688384 303.560346 
L 456.885615 303.380213 
L 458.48423 303.434253 
L 460.082846 303.683164 
L 461.681461 303.586547 
L 463.280077 303.3753 
L 464.878692 302.370647 
L 466.477307 301.748368 
L 468.075923 302.65886 
L 469.674538 303.366293 
L 471.273154 303.020765 
L 472.871769 303.292602 
L 474.470384 302.988013 
L 476.069 302.955262 
L 477.667615 303.151771 
L 479.266231 303.813351 
L 480.864846 304.221108 
L 482.463461 304.093377 
L 485.660692 302.838994 
L 487.259308 302.667048 
L 488.857923 302.870108 
L 490.456539 303.301609 
L 492.055154 304.374221 
L 493.653769 305.2667 
L 495.252385 305.36823 
L 496.851 304.257134 
L 498.449616 303.417058 
L 501.646846 303.225462 
L 503.245462 303.759311 
L 504.844077 303.839553 
L 506.442693 303.568534 
L 508.041308 303.434253 
L 509.639923 304.129403 
L 511.238539 305.490229 
L 512.837154 304.095014 
L 514.43577 302.879933 
L 516.034385 302.82098 
L 517.633001 301.756556 
L 519.231616 300.906654 
L 520.830231 299.874981 
L 522.428847 298.345485 
L 524.027462 299.272353 
L 525.626078 299.349319 
L 527.224693 299.647358 
L 528.823308 301.763106 
L 530.421924 302.008743 
L 533.619155 303.127207 
L 536.816385 303.898505 
L 538.415001 304.392234 
L 543.210847 304.51014 
L 548.006693 304.130222 
L 549.605309 304.110571 
L 551.203924 303.785513 
L 552.80254 303.028952 
L 554.401155 302.518029 
L 555.99977 301.748368 
L 557.598386 300.510361 
L 559.197001 298.751604 
L 560.795617 298.073648 
L 562.394232 295.404399 
L 563.992848 287.249271 
L 565.591463 277.751331 
L 567.190078 265.86253 
L 568.788694 255.748862 
L 570.387309 250.259707 
L 571.985925 263.936741 
L 573.58454 278.825581 
L 575.183155 289.450173 
L 576.781771 295.800693 
L 578.380386 298.787631 
L 579.979002 300.602065 
L 581.577617 301.558409 
L 583.176232 302.074246 
L 584.774848 303.109194 
L 587.972079 303.230374 
L 589.570694 303.614386 
L 591.16931 303.80762 
L 592.767925 304.157242 
L 595.965156 304.306262 
L 597.563771 304.715656 
L 599.162387 304.637871 
L 600.761002 304.845843 
L 602.359617 305.278163 
L 603.958233 305.014513 
L 605.556848 305.121774 
L 607.155464 305.013694 
L 608.754079 304.601844 
L 610.352694 304.379134 
L 611.95131 303.616023 
L 613.549925 304.038518 
L 616.747156 303.59801 
L 618.345772 302.326432 
L 619.944387 301.776207 
L 621.543002 302.952805 
L 623.141618 302.210983 
L 624.740233 302.578619 
L 626.338849 303.122294 
L 627.937464 303.953364 
L 629.536079 303.974653 
L 631.134695 303.41542 
L 632.73331 302.586807 
L 635.930541 299.88972 
L 637.529156 297.398967 
L 639.127772 291.487318 
L 640.726387 260.111364 
L 642.325003 214.835666 
L 643.923618 144.039985 
L 645.522234 153.053203 
L 647.120849 61.923284 
L 648.719464 61.923284 
L 650.31808 105.471798 
L 651.916695 188.896464 
L 655.113926 281.576708 
L 656.712541 295.774491 
L 658.311157 300.399006 
L 659.909772 302.141386 
L 661.508388 302.197064 
L 663.107003 302.43615 
L 664.705619 302.819343 
L 666.304234 303.543151 
L 667.902849 304.715656 
L 669.501465 304.528972 
L 672.698696 303.973015 
L 674.297311 303.884586 
L 675.895926 303.945995 
L 677.494542 304.419254 
L 680.691773 304.605119 
L 682.290388 304.588744 
L 683.889003 304.274329 
L 685.487619 304.073726 
L 687.086234 304.014773 
L 690.283465 304.257134 
L 695.079311 304.022142 
L 696.677927 303.681526 
L 698.276542 303.508762 
L 701.473773 302.80788 
L 703.072388 303.292602 
L 704.671004 304.424167 
L 706.269619 304.69928 
L 707.868235 304.122853 
L 709.46685 303.945995 
L 711.065465 304.150692 
L 712.664081 303.757674 
L 714.262696 302.937248 
L 715.861312 301.008184 
L 717.459927 298.106399 
L 719.058543 293.58669 
L 720.657158 297.276148 
L 723.854389 305.190553 
L 725.453004 303.746211 
L 727.05162 303.159959 
L 728.650235 303.471098 
L 730.24885 304.03688 
L 731.847466 304.269416 
L 735.044697 304.100746 
L 736.643312 304.293161 
L 738.241927 304.876138 
L 739.840543 305.607316 
L 741.439158 305.062003 
L 743.037774 304.279242 
L 746.235005 303.918975 
L 747.83362 304.018867 
L 751.030851 303.616842 
L 752.629466 303.557071 
L 755.826697 302.671961 
L 757.425312 301.735268 
L 759.023928 302.408311 
L 760.622543 302.26748 
L 762.221159 303.242656 
L 763.819774 304.84093 
L 765.41839 305.843966 
L 767.017005 305.843966 
L 768.61562 304.846662 
L 770.214236 302.43615 
L 771.812851 301.533846 
L 775.010082 302.640847 
L 776.608697 302.660498 
L 778.207313 302.251104 
L 779.805928 302.146299 
L 783.003159 300.433395 
L 784.601774 299.052918 
L 786.20039 295.895672 
L 787.799005 292.1882 
L 789.397621 280.10944 
L 790.996236 255.211737 
L 792.594852 221.425271 
L 795.792082 71.515025 
L 797.390698 61.923284 
L 798.989313 61.923284 
L 800.587929 132.563853 
L 802.186544 151.69074 
L 803.785159 160.625354 
L 805.383775 244.626446 
L 806.98239 234.800991 
L 808.581006 73.768329 
L 810.179621 68.370879 
L 811.778236 146.764912 
L 813.376852 232.744196 
L 814.975467 279.198948 
L 816.574083 292.476414 
L 818.172698 299.144623 
L 819.771314 302.414862 
L 821.369929 302.1594 
L 822.968544 301.650114 
L 827.764391 300.606978 
L 829.363006 300.261449 
L 832.560237 298.550182 
L 834.158852 300.466146 
L 835.757468 301.779482 
L 837.356083 301.298035 
L 838.954698 302.025118 
L 840.553314 302.996201 
L 842.151929 303.74703 
L 843.750545 304.238302 
L 845.34916 305.029251 
L 846.947776 304.971936 
L 848.546391 304.737763 
L 850.145006 304.798353 
L 851.743622 305.019426 
L 854.940853 304.220289 
L 858.138083 304.342288 
L 862.93393 304.394691 
L 866.131161 303.986934 
L 867.729776 304.38159 
L 869.328391 305.203653 
L 870.927007 305.843966 
L 872.525622 305.627376 
L 874.124238 304.853212 
L 875.722853 304.486395 
L 877.321468 304.247309 
L 878.920084 304.473294 
L 880.518699 304.29398 
L 882.117315 304.639508 
L 883.71593 305.843966 
L 885.314545 305.843966 
L 885.314545 305.843966 
" clip-path="url(#pb7261a8605)" style="fill: none; stroke: #000000; stroke-width: 1.2; stroke-linecap: square"/>
   </g>
   <g id="line2d_15">
    <path d="M 87.605455 256.548484 
L 89.20407 252.640434 
L 90.802685 274.288303 
L 92.401301 277.946443 
L 93.999916 253.117454 
L 95.598532 261.346687 
L 97.197147 255.675006 
L 98.795762 246.122548 
L 101.992993 264.764791 
L 103.591609 254.262095 
L 105.190224 248.416009 
L 106.788839 256.204059 
L 108.387455 256.936617 
L 109.98607 251.863922 
L 111.584686 253.9131 
L 113.183301 253.100875 
L 114.781917 270.048596 
L 116.380532 276.728847 
L 117.979147 256.08888 
L 119.577763 228.243177 
L 121.176378 230.414226 
L 122.774994 229.971803 
L 124.373609 235.942552 
L 125.972224 229.841509 
L 127.57084 244.796098 
L 129.169455 262.725677 
L 130.768071 265.043651 
L 133.965302 255.409839 
L 135.563917 252.401832 
L 137.162532 260.389473 
L 138.761148 246.986239 
L 140.359763 275.723376 
L 141.958379 272.367433 
L 143.556994 273.715811 
L 145.155609 265.432544 
L 146.754225 270.386385 
L 148.35284 262.442171 
L 149.951456 267.003021 
L 151.550071 265.156679 
L 153.148686 273.033328 
L 156.345917 269.441089 
L 157.944533 266.41895 
L 159.543148 265.199598 
L 161.141764 248.579509 
L 162.740379 244.712779 
L 164.338994 239.987893 
L 165.93761 250.431391 
L 167.536225 223.15476 
L 169.134841 246.464288 
L 170.733456 248.436777 
L 172.332071 255.13988 
L 173.930687 258.428962 
L 175.529302 265.425162 
L 177.127918 251.718948 
L 178.726533 249.395113 
L 180.325148 257.010003 
L 181.923764 266.713155 
L 183.522379 280.708652 
L 185.120995 262.425044 
L 186.71961 250.296011 
L 188.318226 270.282008 
L 189.916841 262.546324 
L 191.515456 262.814195 
L 193.114072 259.024368 
L 194.712687 262.313873 
L 196.311303 270.417003 
L 197.909918 252.81943 
L 199.508533 240.01074 
L 201.107149 237.822345 
L 202.705764 259.434424 
L 204.30438 251.921121 
L 205.902995 268.582062 
L 207.50161 266.098984 
L 209.100226 262.065752 
L 210.698841 245.923356 
L 212.297457 232.920321 
L 213.896072 231.2355 
L 215.494688 240.547044 
L 217.093303 262.984876 
L 218.691918 273.512086 
L 220.290534 268.709566 
L 221.889149 278.393222 
L 223.487765 254.980439 
L 225.08638 269.460686 
L 226.684995 277.483666 
L 228.283611 263.78493 
L 229.882226 274.955868 
L 231.480842 265.085473 
L 233.079457 269.147034 
L 234.678073 281.365319 
L 236.276688 272.798475 
L 237.875303 261.878624 
L 239.473919 248.645413 
L 241.072534 264.837639 
L 242.67115 271.093131 
L 244.269765 255.232316 
L 245.86838 250.982297 
L 247.466996 259.779569 
L 249.065611 244.719686 
L 250.664227 237.284889 
L 252.262842 255.518181 
L 253.861457 262.735013 
L 255.460073 250.169674 
L 257.058688 240.777107 
L 258.657304 208.095778 
L 260.255919 219.567086 
L 261.854535 250.58261 
L 263.45315 268.330918 
L 265.051765 266.440873 
L 266.650381 226.577241 
L 268.248996 224.069218 
L 269.847612 260.605713 
L 271.446227 211.859091 
L 273.044842 258.58168 
L 274.643458 230.031812 
L 276.242073 231.091315 
L 277.840689 259.175732 
L 279.439304 262.72244 
L 281.037919 235.151832 
L 282.636535 261.108598 
L 284.23515 242.653034 
L 285.833766 242.88046 
L 287.432381 239.811393 
L 290.629612 209.835669 
L 292.228227 150.007083 
L 293.826843 206.816765 
L 295.425458 223.599261 
L 297.024074 248.298374 
L 298.622689 212.283669 
L 300.221304 132.831973 
L 301.81992 172.539782 
L 303.418535 126.720682 
L 305.017151 61.923284 
L 306.615766 125.819199 
L 308.214381 61.923284 
L 309.812997 61.923284 
L 311.411612 75.090358 
L 313.010228 96.962708 
L 316.207459 174.185939 
L 317.806074 115.666527 
L 319.404689 185.382941 
L 321.003305 202.487124 
L 322.60192 206.139991 
L 324.200536 247.815061 
L 325.799151 142.100846 
L 327.397766 275.982337 
L 328.996382 140.275524 
L 330.594997 233.375287 
L 332.193613 171.443547 
L 333.792228 278.699324 
L 335.390844 278.626294 
L 336.989459 231.532688 
L 338.588074 153.718321 
L 340.18669 185.839495 
L 341.785305 257.582084 
L 343.383921 231.217449 
L 344.982536 273.346395 
L 346.581151 270.513032 
L 348.179767 296.279423 
L 349.778382 266.606241 
L 351.376998 260.315186 
L 352.975613 260.385483 
L 354.574228 151.317022 
L 356.172844 225.999027 
L 357.771459 130.692275 
L 359.370075 155.787981 
L 360.96869 219.828069 
L 362.567306 138.226475 
L 364.165921 165.000247 
L 365.764536 253.755818 
L 367.363152 121.688407 
L 368.961767 160.780157 
L 370.560383 126.579679 
L 372.158998 61.923284 
L 373.757613 61.923284 
L 375.356229 96.518543 
L 376.954844 75.435458 
L 378.55346 200.651299 
L 380.152075 239.028491 
L 381.75069 160.390409 
L 383.349306 211.503692 
L 384.947921 288.420975 
L 386.546537 290.905043 
L 388.145152 294.291921 
L 389.743768 286.27141 
L 391.342383 251.289883 
L 392.940998 190.210372 
L 394.539614 252.197049 
L 396.138229 146.413957 
L 397.736845 176.485313 
L 399.33546 263.121955 
L 400.934075 243.298257 
L 402.532691 195.124896 
L 404.131306 267.72041 
L 405.729922 289.747589 
L 407.328537 252.607194 
L 408.927152 294.271824 
M 554.401155 258.655474 
L 555.99977 288.147112 
L 557.598386 61.923284 
L 559.197001 216.335181 
L 560.795617 161.400729 
L 562.394232 276.504764 
L 563.992848 200.526081 
L 565.591463 130.564485 
L 567.190078 285.940255 
L 568.788694 277.802325 
L 570.387309 305.843966 
L 571.985925 189.811785 
L 573.58454 281.5903 
L 575.183155 188.212677 
L 576.781771 250.553303 
L 578.380386 127.699558 
L 579.979002 219.563446 
L 581.577617 267.097915 
L 584.774848 302.63639 
L 586.373463 205.188108 
L 587.972079 267.6402 
L 589.570694 217.992232 
L 591.16931 294.240759 
L 592.767925 221.006125 
L 594.36654 261.703431 
L 595.965156 212.35304 
L 597.563771 168.836519 
L 599.162387 146.702477 
L 600.761002 133.060175 
L 602.359617 198.06833 
L 603.958233 230.546544 
L 605.556848 211.663777 
L 607.155464 166.837313 
L 608.754079 200.158935 
L 610.352694 176.402992 
L 611.95131 237.551162 
L 613.549925 275.534222 
L 615.148541 150.760473 
L 616.747156 272.017922 
L 618.345772 205.544224 
L 619.944387 197.708936 
L 621.543002 233.463056 
L 623.141618 231.840802 
L 624.740233 203.700504 
L 626.338849 247.398467 
L 627.937464 197.080229 
L 629.536079 251.390646 
L 631.134695 226.793135 
L 632.73331 175.914809 
L 634.331926 199.204454 
L 635.930541 158.298956 
L 637.529156 183.777427 
L 639.127772 181.014047 
L 640.726387 202.193451 
L 642.325003 196.692187 
L 643.923618 223.046966 
L 645.522234 61.923284 
L 647.120849 65.224447 
L 648.719464 162.364297 
L 650.31808 266.749958 
L 651.916695 216.914739 
L 653.515311 207.654939 
L 655.113926 267.060512 
L 656.712541 254.770635 
L 658.311157 275.594903 
L 659.909772 254.718634 
L 661.508388 265.66033 
L 663.107003 243.934817 
L 664.705619 274.01332 
L 666.304234 276.093545 
L 667.902849 233.176321 
L 669.501465 250.520099 
L 671.10008 225.727111 
L 672.698696 242.125379 
L 674.297311 268.835797 
L 675.895926 276.659951 
L 677.494542 230.632102 
L 679.093157 226.517444 
L 680.691773 243.474323 
L 682.290388 251.28831 
L 683.889003 215.888693 
L 685.487619 255.930045 
L 687.086234 267.951147 
L 688.68485 238.138567 
L 690.283465 240.866477 
L 691.882081 248.524076 
L 693.480696 251.226247 
L 695.079311 249.244337 
L 696.677927 241.164917 
L 698.276542 244.682678 
L 699.875158 235.843168 
L 701.473773 241.827905 
L 703.072388 251.187754 
L 704.671004 280.641718 
L 706.269619 277.658922 
L 707.868235 255.856551 
L 709.46685 244.099607 
L 711.065465 254.058107 
L 712.664081 261.270322 
L 715.861312 245.887115 
L 717.459927 244.750234 
L 719.058543 217.304928 
L 720.657158 175.481825 
L 722.255773 245.805873 
L 723.854389 257.836526 
L 725.453004 258.07816 
L 727.05162 241.304493 
L 728.650235 255.189934 
L 730.24885 258.488184 
L 731.847466 261.317437 
L 733.446081 265.838797 
L 735.044697 249.708014 
L 736.643312 252.002662 
L 738.241927 278.938609 
L 739.840543 274.491514 
L 741.439158 276.70238 
L 743.037774 249.589718 
L 744.636389 253.220428 
L 746.235005 240.58501 
L 747.83362 230.727278 
L 749.432235 241.085964 
L 751.030851 229.796783 
L 752.629466 247.703693 
L 754.228082 245.028913 
L 755.826697 243.619345 
L 757.425312 238.097123 
L 759.023928 247.644055 
L 760.622543 235.608912 
L 762.221159 246.268235 
L 763.819774 226.016473 
L 765.41839 244.977286 
L 767.017005 258.677262 
L 768.61562 234.583049 
L 770.214236 204.119483 
L 771.812851 230.4926 
L 773.411467 266.558596 
L 775.010082 265.0169 
L 776.608697 266.713163 
L 778.207313 257.157155 
L 779.805928 270.531403 
L 781.404544 258.914811 
L 783.003159 242.952767 
L 784.601774 225.438095 
L 786.20039 210.994793 
L 787.799005 262.495986 
L 789.397621 265.162069 
L 790.996236 242.153318 
L 792.594852 203.323545 
L 794.193467 210.718892 
L 795.792082 167.024682 
L 797.390698 151.103931 
L 798.989313 131.375673 
L 800.587929 64.031437 
L 802.186544 113.630989 
L 803.785159 148.809468 
L 805.383775 61.923284 
L 806.98239 61.923284 
L 808.581006 115.86783 
L 810.179621 123.334419 
L 811.778236 191.377115 
L 813.376852 235.051852 
L 814.975467 231.856264 
L 816.574083 246.024284 
L 818.172698 270.837626 
L 819.771314 272.337898 
L 821.369929 263.38145 
L 822.968544 251.669163 
L 824.56716 243.649684 
L 826.165775 244.604526 
L 827.764391 256.013402 
L 829.363006 257.964079 
L 830.961621 259.002631 
L 832.560237 255.296181 
L 834.158852 249.812264 
L 835.757468 266.409098 
L 837.356083 258.564675 
L 838.954698 256.403209 
L 840.553314 262.252515 
L 842.151929 265.351168 
L 843.750545 252.843338 
L 845.34916 278.739165 
L 846.947776 266.833915 
L 848.546391 259.287644 
L 850.145006 271.248097 
L 851.743622 277.722061 
L 853.342237 272.908245 
L 854.940853 273.13925 
L 856.539468 267.80824 
L 858.138083 268.449442 
L 859.736699 260.363999 
L 861.335314 269.707618 
L 862.93393 256.967182 
L 864.532545 268.381612 
L 866.131161 272.391451 
L 867.729776 274.023578 
L 869.328391 270.607302 
L 870.927007 277.242403 
L 872.525622 279.013064 
L 874.124238 283.31756 
L 875.722853 278.69016 
L 877.321468 277.173407 
L 878.920084 264.042004 
L 880.518699 264.464851 
L 882.117315 274.463349 
L 883.71593 275.709316 
L 885.314545 275.014706 
L 885.314545 275.014706 
" clip-path="url(#pb7261a8605)" style="fill: none; stroke: #ff7f0e; stroke-width: 1.2; stroke-linecap: square"/>
   </g>
   <g id="line2d_16">
    <path d="M 87.605455 253.098211 
L 89.20407 259.818596 
L 90.802685 287.896116 
L 92.401301 295.141116 
L 93.999916 268.597152 
L 95.598532 281.084837 
L 97.197147 289.669865 
L 98.795762 289.144711 
L 100.394378 299.014228 
L 101.992993 301.752942 
L 103.591609 300.273897 
L 105.190224 283.962558 
L 106.788839 273.533204 
L 108.387455 278.868042 
L 109.98607 277.774327 
L 111.584686 264.048997 
L 113.183301 261.550029 
L 114.781917 268.628804 
L 116.380532 285.674964 
L 117.979147 277.412711 
L 119.577763 280.057142 
L 121.176378 278.836892 
L 122.774994 278.484761 
L 124.373609 277.75821 
L 125.972224 277.469335 
L 127.57084 272.218229 
L 129.169455 271.004632 
L 130.768071 266.791198 
L 132.366686 263.261387 
L 133.965302 269.280053 
L 135.563917 269.463846 
L 137.162532 273.630676 
L 138.761148 265.072862 
L 140.359763 284.56477 
L 141.958379 280.091972 
L 143.556994 275.060334 
L 145.155609 285.728338 
L 146.754225 287.205097 
L 148.35284 278.986724 
L 149.951456 282.254707 
L 151.550071 277.402412 
L 153.148686 285.945279 
L 154.747302 280.476316 
L 156.345917 290.245358 
L 157.944533 286.192273 
L 159.543148 283.391771 
L 161.141764 273.340547 
L 164.338994 257.330373 
L 165.93761 252.28071 
L 167.536225 239.935487 
L 169.134841 234.107993 
L 170.733456 241.787899 
L 172.332071 248.075677 
L 173.930687 253.728411 
L 175.529302 242.574951 
L 177.127918 243.69399 
L 178.726533 234.385602 
L 180.325148 234.961961 
L 181.923764 234.425517 
L 183.522379 265.814807 
L 185.120995 276.223231 
L 186.71961 285.389758 
L 188.318226 285.352185 
L 189.916841 287.686495 
L 191.515456 296.405027 
L 193.114072 286.119406 
L 194.712687 294.949585 
L 196.311303 290.290245 
L 197.909918 260.857294 
L 199.508533 254.367405 
L 201.107149 254.898415 
L 202.705764 270.593191 
L 204.30438 263.171797 
L 205.902995 264.9126 
L 207.50161 268.704827 
L 209.100226 287.997018 
L 210.698841 258.71023 
L 212.297457 246.217577 
L 213.896072 251.70123 
L 215.494688 254.282201 
L 217.093303 271.575118 
L 218.691918 285.519627 
L 220.290534 279.066723 
L 221.889149 292.132845 
L 223.487765 269.100846 
L 225.08638 277.495885 
L 226.684995 289.104618 
L 228.283611 282.883849 
L 229.882226 289.126806 
L 231.480842 289.482809 
L 233.079457 287.748451 
L 234.678073 296.194903 
L 236.276688 293.128254 
L 237.875303 272.035402 
L 239.473919 258.301911 
L 241.072534 261.602607 
L 242.67115 262.454334 
L 244.269765 257.188703 
L 245.86838 254.776947 
L 247.466996 237.837087 
L 249.065611 217.33703 
L 250.664227 255.936814 
L 252.262842 256.45463 
L 253.861457 250.246141 
L 255.460073 248.213795 
L 257.058688 251.927992 
L 258.657304 251.351659 
L 260.255919 253.798751 
L 261.854535 251.220686 
L 263.45315 282.324407 
L 265.051765 284.109587 
L 266.650381 257.165144 
L 268.248996 253.139008 
L 269.847612 271.355314 
L 271.446227 278.819496 
L 273.044842 259.613299 
L 274.643458 260.921342 
L 276.242073 271.008781 
L 277.840689 283.365129 
L 279.439304 263.12014 
L 281.037919 261.865319 
L 282.636535 251.234139 
L 284.23515 253.025773 
L 285.833766 252.414468 
L 287.432381 268.29648 
L 289.030997 268.231757 
L 290.629612 264.631109 
L 292.228227 270.030729 
L 293.826843 266.190022 
L 295.425458 260.774006 
L 297.024074 261.607265 
L 298.622689 258.185165 
L 300.221304 237.239737 
L 301.81992 196.837707 
L 305.017151 104.207093 
L 306.615766 61.923284 
L 311.411612 61.923284 
L 313.010228 70.870592 
L 314.608843 184.174347 
L 316.207459 217.963537 
L 317.806074 249.211609 
L 319.404689 253.994146 
L 321.003305 243.838096 
L 322.60192 248.795411 
L 324.200536 263.893281 
L 325.799151 259.963568 
L 327.397766 258.599446 
L 328.996382 261.602136 
L 330.594997 263.355249 
L 332.193613 250.335169 
L 333.792228 253.593882 
L 335.390844 274.215538 
L 336.989459 276.063288 
L 338.588074 272.433299 
L 340.18669 250.201371 
L 341.785305 267.12074 
L 344.982536 294.484288 
L 346.581151 293.728568 
L 348.179767 283.619664 
L 349.778382 287.789488 
L 351.376998 288.057073 
L 352.975613 283.559894 
L 354.574228 258.119543 
L 356.172844 253.987642 
L 357.771459 258.495874 
L 359.370075 257.327486 
L 360.96869 241.440527 
L 362.567306 242.271894 
L 364.165921 252.351874 
L 365.764536 254.6279 
L 367.363152 254.517297 
L 368.961767 252.87437 
L 370.560383 263.837979 
L 372.158998 257.887601 
L 373.757613 245.0894 
L 375.356229 252.012254 
L 376.954844 252.921824 
L 378.55346 265.027735 
L 380.152075 275.030723 
L 381.75069 261.520072 
L 383.349306 258.813942 
L 384.947921 249.478116 
L 386.546537 248.515748 
L 388.145152 239.434577 
L 389.743768 222.731995 
L 391.342383 233.937722 
L 392.940998 254.773006 
L 394.539614 243.278191 
L 396.138229 242.849478 
L 397.736845 245.088348 
L 399.33546 275.73813 
L 400.934075 257.5763 
L 402.532691 254.400761 
L 405.729922 264.314172 
L 407.328537 241.186376 
L 408.927152 215.263221 
M 554.401155 249.872556 
L 555.99977 247.050921 
L 557.598386 231.914322 
L 559.197001 228.841884 
L 560.795617 229.42427 
L 562.394232 209.474512 
L 563.992848 166.792233 
L 565.591463 61.923284 
L 570.387309 61.923284 
L 571.985925 153.703073 
L 573.58454 211.615979 
L 575.183155 239.313082 
L 576.781771 246.037337 
L 578.380386 234.688296 
L 579.979002 248.183295 
L 581.577617 259.122165 
L 583.176232 242.890358 
L 584.774848 249.811346 
L 586.373463 278.038389 
L 587.972079 264.365847 
L 589.570694 275.125986 
L 591.16931 256.862288 
L 592.767925 241.069839 
L 594.36654 214.37814 
L 595.965156 227.801618 
L 597.563771 219.478451 
L 599.162387 218.630882 
L 600.761002 228.52504 
L 602.359617 229.952792 
L 603.958233 220.635701 
L 605.556848 224.10736 
L 607.155464 237.617384 
L 608.754079 245.493193 
L 610.352694 265.64788 
L 611.95131 245.825705 
L 613.549925 248.576438 
L 615.148541 232.681696 
L 616.747156 242.529095 
L 618.345772 246.035052 
L 619.944387 254.171708 
L 621.543002 244.592965 
L 623.141618 252.72639 
L 624.740233 256.651898 
L 626.338849 239.664926 
L 627.937464 230.893569 
L 629.536079 246.710938 
L 631.134695 251.32064 
L 632.73331 249.115004 
L 634.331926 243.706531 
L 635.930541 237.411108 
L 637.529156 248.04053 
L 639.127772 263.813087 
L 640.726387 257.942405 
L 642.325003 219.713676 
L 643.923618 124.301922 
L 645.522234 61.923284 
L 647.120849 95.327101 
L 648.719464 252.105333 
L 650.31808 283.089624 
L 651.916695 272.847461 
L 653.515311 260.720294 
L 655.113926 271.96508 
L 656.712541 257.847635 
L 658.311157 276.504215 
L 659.909772 263.935119 
L 661.508388 277.448238 
L 663.107003 273.101089 
L 664.705619 257.020587 
L 666.304234 254.298098 
L 667.902849 256.41878 
L 669.501465 247.556642 
L 671.10008 236.885437 
L 672.698696 253.915723 
L 674.297311 257.943334 
L 675.895926 268.172164 
L 677.494542 226.759064 
L 679.093157 215.73416 
L 680.691773 208.402751 
L 682.290388 226.84848 
L 683.889003 231.086896 
L 685.487619 241.719364 
L 687.086234 250.894172 
L 688.68485 248.670605 
L 690.283465 237.469066 
L 691.882081 242.031538 
L 693.480696 248.857294 
L 695.079311 225.814754 
L 696.677927 240.512296 
L 698.276542 247.027788 
L 699.875158 254.641608 
L 701.473773 258.433786 
L 703.072388 268.096291 
L 704.671004 283.511981 
L 706.269619 277.717902 
L 707.868235 264.120299 
L 709.46685 246.869769 
L 711.065465 244.372862 
L 712.664081 237.444312 
L 714.262696 241.926422 
L 715.861312 243.17153 
L 717.459927 232.413361 
L 719.058543 229.049059 
L 720.657158 223.355572 
L 722.255773 230.594634 
L 723.854389 213.752966 
L 725.453004 224.298195 
L 727.05162 236.10618 
L 728.650235 239.991458 
L 730.24885 237.389526 
L 731.847466 243.162968 
L 733.446081 241.86532 
L 735.044697 245.296922 
L 736.643312 255.735635 
L 738.241927 271.459314 
L 739.840543 285.167451 
L 741.439158 284.036332 
L 743.037774 255.490605 
L 744.636389 241.531198 
L 746.235005 243.896477 
L 747.83362 244.754613 
L 749.432235 246.402666 
L 751.030851 246.006053 
L 752.629466 246.885911 
L 754.228082 251.573685 
L 755.826697 249.257247 
L 757.425312 236.562977 
L 759.023928 239.358905 
L 762.221159 237.443783 
L 763.819774 237.279621 
L 765.41839 247.490053 
L 767.017005 246.562944 
L 768.61562 243.658801 
L 770.214236 247.703296 
L 771.812851 253.935192 
L 773.411467 281.711364 
L 775.010082 283.762507 
L 776.608697 274.495807 
L 778.207313 262.236543 
L 779.805928 266.608479 
L 781.404544 255.300324 
L 783.003159 253.877919 
L 784.601774 248.713084 
L 786.20039 252.566601 
L 787.799005 282.334626 
L 789.397621 288.023005 
L 790.996236 268.122495 
L 792.594852 263.691962 
L 794.193467 244.706673 
L 795.792082 181.285886 
L 797.390698 184.432886 
L 798.989313 61.923284 
L 800.587929 61.923284 
L 802.186544 78.402561 
L 803.785159 129.900789 
L 805.383775 107.666194 
L 806.98239 61.923284 
L 808.581006 61.923284 
L 810.179621 116.700446 
L 811.778236 182.434817 
L 813.376852 237.148329 
L 814.975467 256.926186 
L 816.574083 260.928296 
L 818.172698 283.87465 
L 819.771314 279.218531 
L 821.369929 278.672689 
L 822.968544 260.406202 
L 824.56716 251.70842 
L 826.165775 254.836465 
L 827.764391 253.433822 
L 829.363006 257.910154 
L 830.961621 263.286071 
L 832.560237 270.770658 
L 834.158852 264.571333 
L 835.757468 265.716088 
L 837.356083 256.963837 
L 838.954698 254.166591 
L 840.553314 264.708937 
L 842.151929 267.088084 
L 843.750545 270.08101 
L 845.34916 290.679693 
L 846.947776 274.600258 
L 848.546391 251.237177 
L 850.145006 261.796117 
L 851.743622 289.815259 
L 853.342237 282.844718 
L 854.940853 271.827804 
L 856.539468 253.137306 
L 858.138083 239.789673 
L 859.736699 246.987077 
L 861.335314 259.914772 
L 862.93393 256.849773 
L 864.532545 270.548769 
L 866.131161 287.510413 
L 867.729776 287.012613 
L 869.328391 290.776642 
L 870.927007 285.546038 
L 872.525622 279.100726 
L 874.124238 293.93222 
L 875.722853 285.74018 
L 877.321468 253.135267 
L 878.920084 252.964411 
L 880.518699 231.030763 
L 882.117315 268.183132 
L 883.71593 280.473553 
L 885.314545 279.044883 
L 885.314545 279.044883 
" clip-path="url(#pb7261a8605)" style="fill: none; stroke-dasharray: 4.44,1.92; stroke-dashoffset: 0; stroke: #9467bd; stroke-width: 1.2"/>
   </g>
   <g id="patch_3">
    <path d="M 47.72 318.04 
L 47.72 49.72725 
" style="fill: none; stroke: #000000; stroke-width: 0.8; stroke-linejoin: miter; stroke-linecap: square"/>
   </g>
   <g id="patch_4">
    <path d="M 925.2 318.04 
L 925.2 49.72725 
" style="fill: none; stroke: #000000; stroke-width: 0.8; stroke-linejoin: miter; stroke-linecap: square"/>
   </g>
   <g id="patch_5">
    <path d="M 47.72 318.04 
L 925.2 318.04 
" style="fill: none; stroke: #000000; stroke-width: 0.8; stroke-linejoin: miter; stroke-linecap: square"/>
   </g>
   <g id="patch_6">
    <path d="M 47.72 49.72725 
L 925.2 49.72725 
" style="fill: none; stroke: #000000; stroke-width: 0.8; stroke-linejoin: miter; stroke-linecap: square"/>
   </g>
   <g id="legend_1">
    <g id="line2d_17">
     <path d="M 56.72 62.825688 
L 66.72 62.825688 
L 76.72 62.825688 
" style="fill: none; stroke: #2ca02c; stroke-width: 1.2; stroke-linecap: square"/>
    </g>
    <g id="text_15">
     <!-- ENCSR203XPU -->
     <g transform="translate(84.72 66.325688) scale(0.1 -0.1)">
      <defs>
       <path id="DejaVuSans-45" d="M 628 4666 
L 3578 4666 
L 3578 4134 
L 1259 4134 
L 1259 2753 
L 3481 2753 
L 3481 2222 
L 1259 2222 
L 1259 531 
L 3634 531 
L 3634 0 
L 628 0 
L 628 4666 
z
" transform="scale(0.015625)"/>
       <path id="DejaVuSans-4e" d="M 628 4666 
L 1478 4666 
L 3547 763 
L 3547 4666 
L 4159 4666 
L 4159 0 
L 3309 0 
L 1241 3903 
L 1241 0 
L 628 0 
L 628 4666 
z
" transform="scale(0.015625)"/>
       <path id="DejaVuSans-43" d="M 4122 4306 
L 4122 3641 
Q 3803 3938 3442 4084 
Q 3081 4231 2675 4231 
Q 1875 4231 1450 3742 
Q 1025 3253 1025 2328 
Q 1025 1406 1450 917 
Q 1875 428 2675 428 
Q 3081 428 3442 575 
Q 3803 722 4122 1019 
L 4122 359 
Q 3791 134 3420 21 
Q 3050 -91 2638 -91 
Q 1578 -91 968 557 
Q 359 1206 359 2328 
Q 359 3453 968 4101 
Q 1578 4750 2638 4750 
Q 3056 4750 3426 4639 
Q 3797 4528 4122 4306 
z
" transform="scale(0.015625)"/>
       <path id="DejaVuSans-53" d="M 3425 4513 
L 3425 3897 
Q 3066 4069 2747 4153 
Q 2428 4238 2131 4238 
Q 1616 4238 1336 4038 
Q 1056 3838 1056 3469 
Q 1056 3159 1242 3001 
Q 1428 2844 1947 2747 
L 2328 2669 
Q 3034 2534 3370 2195 
Q 3706 1856 3706 1288 
Q 3706 609 3251 259 
Q 2797 -91 1919 -91 
Q 1588 -91 1214 -16 
Q 841 59 441 206 
L 441 856 
Q 825 641 1194 531 
Q 1563 422 1919 422 
Q 2459 422 2753 634 
Q 3047 847 3047 1241 
Q 3047 1584 2836 1778 
Q 2625 1972 2144 2069 
L 1759 2144 
Q 1053 2284 737 2584 
Q 422 2884 422 3419 
Q 422 4038 858 4394 
Q 1294 4750 2059 4750 
Q 2388 4750 2728 4690 
Q 3069 4631 3425 4513 
z
" transform="scale(0.015625)"/>
       <path id="DejaVuSans-52" d="M 2841 2188 
Q 3044 2119 3236 1894 
Q 3428 1669 3622 1275 
L 4263 0 
L 3584 0 
L 2988 1197 
Q 2756 1666 2539 1819 
Q 2322 1972 1947 1972 
L 1259 1972 
L 1259 0 
L 628 0 
L 628 4666 
L 2053 4666 
Q 2853 4666 3247 4331 
Q 3641 3997 3641 3322 
Q 3641 2881 3436 2590 
Q 3231 2300 2841 2188 
z
M 1259 4147 
L 1259 2491 
L 2053 2491 
Q 2509 2491 2742 2702 
Q 2975 2913 2975 3322 
Q 2975 3731 2742 3939 
Q 2509 4147 2053 4147 
L 1259 4147 
z
" transform="scale(0.015625)"/>
       <path id="DejaVuSans-58" d="M 403 4666 
L 1081 4666 
L 2241 2931 
L 3406 4666 
L 4084 4666 
L 2584 2425 
L 4184 0 
L 3506 0 
L 2194 1984 
L 872 0 
L 191 0 
L 1856 2491 
L 403 4666 
z
" transform="scale(0.015625)"/>
       <path id="DejaVuSans-50" d="M 1259 4147 
L 1259 2394 
L 2053 2394 
Q 2494 2394 2734 2622 
Q 2975 2850 2975 3272 
Q 2975 3691 2734 3919 
Q 2494 4147 2053 4147 
L 1259 4147 
z
M 628 4666 
L 2053 4666 
Q 2838 4666 3239 4311 
Q 3641 3956 3641 3272 
Q 3641 2581 3239 2228 
Q 2838 1875 2053 1875 
L 1259 1875 
L 1259 0 
L 628 0 
L 628 4666 
z
" transform="scale(0.015625)"/>
       <path id="DejaVuSans-55" d="M 556 4666 
L 1191 4666 
L 1191 1831 
Q 1191 1081 1462 751 
Q 1734 422 2344 422 
Q 2950 422 3222 751 
Q 3494 1081 3494 1831 
L 3494 4666 
L 4128 4666 
L 4128 1753 
Q 4128 841 3676 375 
Q 3225 -91 2344 -91 
Q 1459 -91 1007 375 
Q 556 841 556 1753 
L 556 4666 
z
" transform="scale(0.015625)"/>
      </defs>
      <use xlink:href="#DejaVuSans-45"/>
      <use xlink:href="#DejaVuSans-4e" transform="translate(63.183594 0)"/>
      <use xlink:href="#DejaVuSans-43" transform="translate(137.988281 0)"/>
      <use xlink:href="#DejaVuSans-53" transform="translate(207.8125 0)"/>
      <use xlink:href="#DejaVuSans-52" transform="translate(271.289062 0)"/>
      <use xlink:href="#DejaVuSans-32" transform="translate(340.771484 0)"/>
      <use xlink:href="#DejaVuSans-30" transform="translate(404.394531 0)"/>
      <use xlink:href="#DejaVuSans-33" transform="translate(468.017578 0)"/>
      <use xlink:href="#DejaVuSans-58" transform="translate(531.640625 0)"/>
      <use xlink:href="#DejaVuSans-50" transform="translate(600.146484 0)"/>
      <use xlink:href="#DejaVuSans-55" transform="translate(660.449219 0)"/>
     </g>
    </g>
    <g id="line2d_18">
     <path d="M 56.72 77.503813 
L 66.72 77.503813 
L 76.72 77.503813 
" style="fill: none; stroke: #000000; stroke-width: 1.2; stroke-linecap: square"/>
    </g>
    <g id="text_16">
     <!-- AlphaGenome -->
     <g transform="translate(84.72 81.003813) scale(0.1 -0.1)">
      <defs>
       <path id="DejaVuSans-41" d="M 2188 4044 
L 1331 1722 
L 3047 1722 
L 2188 4044 
z
M 1831 4666 
L 2547 4666 
L 4325 0 
L 3669 0 
L 3244 1197 
L 1141 1197 
L 716 0 
L 50 0 
L 1831 4666 
z
" transform="scale(0.015625)"/>
       <path id="DejaVuSans-70" d="M 1159 525 
L 1159 -1331 
L 581 -1331 
L 581 3500 
L 1159 3500 
L 1159 2969 
Q 1341 3281 1617 3432 
Q 1894 3584 2278 3584 
Q 2916 3584 3314 3078 
Q 3713 2572 3713 1747 
Q 3713 922 3314 415 
Q 2916 -91 2278 -91 
Q 1894 -91 1617 61 
Q 1341 213 1159 525 
z
M 3116 1747 
Q 3116 2381 2855 2742 
Q 2594 3103 2138 3103 
Q 1681 3103 1420 2742 
Q 1159 2381 1159 1747 
Q 1159 1113 1420 752 
Q 1681 391 2138 391 
Q 2594 391 2855 752 
Q 3116 1113 3116 1747 
z
" transform="scale(0.015625)"/>
       <path id="DejaVuSans-47" d="M 3809 666 
L 3809 1919 
L 2778 1919 
L 2778 2438 
L 4434 2438 
L 4434 434 
Q 4069 175 3628 42 
Q 3188 -91 2688 -91 
Q 1594 -91 976 548 
Q 359 1188 359 2328 
Q 359 3472 976 4111 
Q 1594 4750 2688 4750 
Q 3144 4750 3555 4637 
Q 3966 4525 4313 4306 
L 4313 3634 
Q 3963 3931 3569 4081 
Q 3175 4231 2741 4231 
Q 1884 4231 1454 3753 
Q 1025 3275 1025 2328 
Q 1025 1384 1454 906 
Q 1884 428 2741 428 
Q 3075 428 3337 486 
Q 3600 544 3809 666 
z
" transform="scale(0.015625)"/>
      </defs>
      <use xlink:href="#DejaVuSans-41"/>
      <use xlink:href="#DejaVuSans-6c" transform="translate(68.408203 0)"/>
      <use xlink:href="#DejaVuSans-70" transform="translate(96.191406 0)"/>
      <use xlink:href="#DejaVuSans-68" transform="translate(159.667969 0)"/>
      <use xlink:href="#DejaVuSans-61" transform="translate(223.046875 0)"/>
      <use xlink:href="#DejaVuSans-47" transform="translate(284.326172 0)"/>
      <use xlink:href="#DejaVuSans-65" transform="translate(361.816406 0)"/>
      <use xlink:href="#DejaVuSans-6e" transform="translate(423.339844 0)"/>
      <use xlink:href="#DejaVuSans-6f" transform="translate(486.71875 0)"/>
      <use xlink:href="#DejaVuSans-6d" transform="translate(547.900391 0)"/>
      <use xlink:href="#DejaVuSans-65" transform="translate(645.3125 0)"/>
     </g>
    </g>
    <g id="line2d_19">
     <path d="M 178.085625 62.825688 
L 188.085625 62.825688 
L 198.085625 62.825688 
" style="fill: none; stroke: #ff7f0e; stroke-width: 1.2; stroke-linecap: square"/>
    </g>
    <g id="text_17">
     <!-- DiMeLo pooled -->
     <g transform="translate(206.085625 66.325688) scale(0.1 -0.1)">
      <defs>
       <path id="DejaVuSans-44" d="M 1259 4147 
L 1259 519 
L 2022 519 
Q 2988 519 3436 956 
Q 3884 1394 3884 2338 
Q 3884 3275 3436 3711 
Q 2988 4147 2022 4147 
L 1259 4147 
z
M 628 4666 
L 1925 4666 
Q 3281 4666 3915 4102 
Q 4550 3538 4550 2338 
Q 4550 1131 3912 565 
Q 3275 0 1925 0 
L 628 0 
L 628 4666 
z
" transform="scale(0.015625)"/>
       <path id="DejaVuSans-4d" d="M 628 4666 
L 1569 4666 
L 2759 1491 
L 3956 4666 
L 4897 4666 
L 4897 0 
L 4281 0 
L 4281 4097 
L 3078 897 
L 2444 897 
L 1241 4097 
L 1241 0 
L 628 0 
L 628 4666 
z
" transform="scale(0.015625)"/>
       <path id="DejaVuSans-4c" d="M 628 4666 
L 1259 4666 
L 1259 531 
L 3531 531 
L 3531 0 
L 628 0 
L 628 4666 
z
" transform="scale(0.015625)"/>
      </defs>
      <use xlink:href="#DejaVuSans-44"/>
      <use xlink:href="#DejaVuSans-69" transform="translate(77.001953 0)"/>
      <use xlink:href="#DejaVuSans-4d" transform="translate(104.785156 0)"/>
      <use xlink:href="#DejaVuSans-65" transform="translate(191.064453 0)"/>
      <use xlink:href="#DejaVuSans-4c" transform="translate(252.587891 0)"/>
      <use xlink:href="#DejaVuSans-6f" transform="translate(306.550781 0)"/>
      <use xlink:href="#DejaVuSans-20" transform="translate(367.732422 0)"/>
      <use xlink:href="#DejaVuSans-70" transform="translate(399.519531 0)"/>
      <use xlink:href="#DejaVuSans-6f" transform="translate(462.996094 0)"/>
      <use xlink:href="#DejaVuSans-6f" transform="translate(524.177734 0)"/>
      <use xlink:href="#DejaVuSans-6c" transform="translate(585.359375 0)"/>
      <use xlink:href="#DejaVuSans-65" transform="translate(613.142578 0)"/>
      <use xlink:href="#DejaVuSans-64" transform="translate(674.666016 0)"/>
     </g>
    </g>
    <g id="line2d_20">
     <path d="M 178.085625 77.503813 
L 188.085625 77.503813 
L 198.085625 77.503813 
" style="fill: none; stroke-dasharray: 4.44,1.92; stroke-dashoffset: 0; stroke: #9467bd; stroke-width: 1.2"/>
    </g>
    <g id="text_18">
     <!-- HyenaDNA pooled -->
     <g transform="translate(206.085625 81.003813) scale(0.1 -0.1)">
      <defs>
       <path id="DejaVuSans-48" d="M 628 4666 
L 1259 4666 
L 1259 2753 
L 3553 2753 
L 3553 4666 
L 4184 4666 
L 4184 0 
L 3553 0 
L 3553 2222 
L 1259 2222 
L 1259 0 
L 628 0 
L 628 4666 
z
" transform="scale(0.015625)"/>
       <path id="DejaVuSans-79" d="M 2059 -325 
Q 1816 -950 1584 -1140 
Q 1353 -1331 966 -1331 
L 506 -1331 
L 506 -850 
L 844 -850 
Q 1081 -850 1212 -737 
Q 1344 -625 1503 -206 
L 1606 56 
L 191 3500 
L 800 3500 
L 1894 763 
L 2988 3500 
L 3597 3500 
L 2059 -325 
z
" transform="scale(0.015625)"/>
      </defs>
      <use xlink:href="#DejaVuSans-48"/>
      <use xlink:href="#DejaVuSans-79" transform="translate(75.195312 0)"/>
      <use xlink:href="#DejaVuSans-65" transform="translate(134.375 0)"/>
      <use xlink:href="#DejaVuSans-6e" transform="translate(195.898438 0)"/>
      <use xlink:href="#DejaVuSans-61" transform="translate(259.277344 0)"/>
      <use xlink:href="#DejaVuSans-44" transform="translate(320.556641 0)"/>
      <use xlink:href="#DejaVuSans-4e" transform="translate(397.558594 0)"/>
      <use xlink:href="#DejaVuSans-41" transform="translate(472.363281 0)"/>
      <use xlink:href="#DejaVuSans-20" transform="translate(540.771484 0)"/>
      <use xlink:href="#DejaVuSans-70" transform="translate(572.558594 0)"/>
      <use xlink:href="#DejaVuSans-6f" transform="translate(636.035156 0)"/>
      <use xlink:href="#DejaVuSans-6f" transform="translate(697.216797 0)"/>
      <use xlink:href="#DejaVuSans-6c" transform="translate(758.398438 0)"/>
      <use xlink:href="#DejaVuSans-65" transform="translate(786.181641 0)"/>
      <use xlink:href="#DejaVuSans-64" transform="translate(847.705078 0)"/>
     </g>
    </g>
   </g>
  </g>
  <g id="text_19">
   <!-- chr16 region 9: overlay -->
   <g transform="translate(397.988438 16.318125) scale(0.12 -0.12)">
    <defs>
     <path id="DejaVuSans-39" d="M 703 97 
L 703 672 
Q 941 559 1184 500 
Q 1428 441 1663 441 
Q 2288 441 2617 861 
Q 2947 1281 2994 2138 
Q 2813 1869 2534 1725 
Q 2256 1581 1919 1581 
Q 1219 1581 811 2004 
Q 403 2428 403 3163 
Q 403 3881 828 4315 
Q 1253 4750 1959 4750 
Q 2769 4750 3195 4129 
Q 3622 3509 3622 2328 
Q 3622 1225 3098 567 
Q 2575 -91 1691 -91 
Q 1453 -91 1209 -44 
Q 966 3 703 97 
z
M 1959 2075 
Q 2384 2075 2632 2365 
Q 2881 2656 2881 3163 
Q 2881 3666 2632 3958 
Q 2384 4250 1959 4250 
Q 1534 4250 1286 3958 
Q 1038 3666 1038 3163 
Q 1038 2656 1286 2365 
Q 1534 2075 1959 2075 
z
" transform="scale(0.015625)"/>
     <path id="DejaVuSans-3a" d="M 750 794 
L 1409 794 
L 1409 0 
L 750 0 
L 750 794 
z
M 750 3309 
L 1409 3309 
L 1409 2516 
L 750 2516 
L 750 3309 
z
" transform="scale(0.015625)"/>
     <path id="DejaVuSans-76" d="M 191 3500 
L 800 3500 
L 1894 563 
L 2988 3500 
L 3597 3500 
L 2284 0 
L 1503 0 
L 191 3500 
z
" transform="scale(0.015625)"/>
    </defs>
    <use xlink:href="#DejaVuSans-63"/>
    <use xlink:href="#DejaVuSans-68" transform="translate(54.980469 0)"/>
    <use xlink:href="#DejaVuSans-72" transform="translate(118.359375 0)"/>
    <use xlink:href="#DejaVuSans-31" transform="translate(159.472656 0)"/>
    <use xlink:href="#DejaVuSans-36" transform="translate(223.095703 0)"/>
    <use xlink:href="#DejaVuSans-20" transform="translate(286.71875 0)"/>
    <use xlink:href="#DejaVuSans-72" transform="translate(318.505859 0)"/>
    <use xlink:href="#DejaVuSans-65" transform="translate(357.369141 0)"/>
    <use xlink:href="#DejaVuSans-67" transform="translate(418.892578 0)"/>
    <use xlink:href="#DejaVuSans-69" transform="translate(482.369141 0)"/>
    <use xlink:href="#DejaVuSans-6f" transform="translate(510.152344 0)"/>
    <use xlink:href="#DejaVuSans-6e" transform="translate(571.333984 0)"/>
    <use xlink:href="#DejaVuSans-20" transform="translate(634.712891 0)"/>
    <use xlink:href="#DejaVuSans-39" transform="translate(666.5 0)"/>
    <use xlink:href="#DejaVuSans-3a" transform="translate(730.123047 0)"/>
    <use xlink:href="#DejaVuSans-20" transform="translate(763.814453 0)"/>
    <use xlink:href="#DejaVuSans-6f" transform="translate(795.601562 0)"/>
    <use xlink:href="#DejaVuSans-76" transform="translate(856.783203 0)"/>
    <use xlink:href="#DejaVuSans-65" transform="translate(915.962891 0)"/>
    <use xlink:href="#DejaVuSans-72" transform="translate(977.486328 0)"/>
    <use xlink:href="#DejaVuSans-6c" transform="translate(1018.599609 0)"/>
    <use xlink:href="#DejaVuSans-61" transform="translate(1046.382812 0)"/>
    <use xlink:href="#DejaVuSans-79" transform="translate(1107.662109 0)"/>
   </g>
   <!-- chr16_rank10_score3.770_reads393 -->
   <g transform="translate(359.357813 29.7555) scale(0.12 -0.12)">
    <defs>
     <path id="DejaVuSans-5f" d="M 3263 -1063 
L 3263 -1509 
L -63 -1509 
L -63 -1063 
L 3263 -1063 
z
" transform="scale(0.015625)"/>
     <path id="DejaVuSans-6b" d="M 581 4863 
L 1159 4863 
L 1159 1991 
L 2875 3500 
L 3609 3500 
L 1753 1863 
L 3688 0 
L 2938 0 
L 1159 1709 
L 1159 0 
L 581 0 
L 581 4863 
z
" transform="scale(0.015625)"/>
     <path id="DejaVuSans-37" d="M 525 4666 
L 3525 4666 
L 3525 4397 
L 1831 0 
L 1172 0 
L 2766 4134 
L 525 4134 
L 525 4666 
z
" transform="scale(0.015625)"/>
    </defs>
    <use xlink:href="#DejaVuSans-63"/>
    <use xlink:href="#DejaVuSans-68" transform="translate(54.980469 0)"/>
    <use xlink:href="#DejaVuSans-72" transform="translate(118.359375 0)"/>
    <use xlink:href="#DejaVuSans-31" transform="translate(159.472656 0)"/>
    <use xlink:href="#DejaVuSans-36" transform="translate(223.095703 0)"/>
    <use xlink:href="#DejaVuSans-5f" transform="translate(286.71875 0)"/>
    <use xlink:href="#DejaVuSans-72" transform="translate(336.71875 0)"/>
    <use xlink:href="#DejaVuSans-61" transform="translate(377.832031 0)"/>
    <use xlink:href="#DejaVuSans-6e" transform="translate(439.111328 0)"/>
    <use xlink:href="#DejaVuSans-6b" transform="translate(502.490234 0)"/>
    <use xlink:href="#DejaVuSans-31" transform="translate(560.400391 0)"/>
    <use xlink:href="#DejaVuSans-30" transform="translate(624.023438 0)"/>
    <use xlink:href="#DejaVuSans-5f" transform="translate(687.646484 0)"/>
    <use xlink:href="#DejaVuSans-73" transform="translate(737.646484 0)"/>
    <use xlink:href="#DejaVuSans-63" transform="translate(789.746094 0)"/>
    <use xlink:href="#DejaVuSans-6f" transform="translate(844.726562 0)"/>
    <use xlink:href="#DejaVuSans-72" transform="translate(905.908203 0)"/>
    <use xlink:href="#DejaVuSans-65" transform="translate(944.771484 0)"/>
    <use xlink:href="#DejaVuSans-33" transform="translate(1006.294922 0)"/>
    <use xlink:href="#DejaVuSans-2e" transform="translate(1069.917969 0)"/>
    <use xlink:href="#DejaVuSans-37" transform="translate(1101.705078 0)"/>
    <use xlink:href="#DejaVuSans-37" transform="translate(1165.328125 0)"/>
    <use xlink:href="#DejaVuSans-30" transform="translate(1228.951172 0)"/>
    <use xlink:href="#DejaVuSans-5f" transform="translate(1292.574219 0)"/>
    <use xlink:href="#DejaVuSans-72" transform="translate(1342.574219 0)"/>
    <use xlink:href="#DejaVuSans-65" transform="translate(1381.4375 0)"/>
    <use xlink:href="#DejaVuSans-61" transform="translate(1442.960938 0)"/>
    <use xlink:href="#DejaVuSans-64" transform="translate(1504.240234 0)"/>
    <use xlink:href="#DejaVuSans-73" transform="translate(1567.716797 0)"/>
    <use xlink:href="#DejaVuSans-33" transform="translate(1619.816406 0)"/>
    <use xlink:href="#DejaVuSans-39" transform="translate(1683.439453 0)"/>
    <use xlink:href="#DejaVuSans-33" transform="translate(1747.0625 0)"/>
   </g>
  </g>
 </g>
 <defs>
  <clipPath id="pb7261a8605">
   <rect x="47.72" y="49.72725" width="877.48" height="268.31275"/>
  </clipPath>
 </defs>
</svg>
