<?xml version="1.0" encoding="utf-8" standalone="no"?>
<!DOCTYPE svg PUBLIC "-//W3C//DTD SVG 1.1//EN"
  "http://www.w3.org/Graphics/SVG/1.1/DTD/svg11.dtd">
<svg xmlns:xlink="http://www.w3.org/1999/xlink" width="936pt" height="360pt" viewBox="0 0 936 360" xmlns="http://www.w3.org/2000/svg" version="1.1">
 <metadata>
  <rdf:RDF xmlns:dc="http://purl.org/dc/elements/1.1/" xmlns:cc="http://creativecommons.org/ns#" xmlns:rdf="http://www.w3.org/1999/02/22-rdf-syntax-ns#">
   <cc:Work>
    <dc:type rdf:resource="http://purl.org/dc/dcmitype/StillImage"/>
    <dc:date>2026-07-17T20:04:56.428230</dc:date>
    <dc:format>image/svg+xml</dc:format>
    <dc:creator>
     <cc:Agent>
      <dc:title>Matplotlib v3.10.8, https://matplotlib.org/</dc:title>
     </cc:Agent>
    </dc:creator>
   </cc:Work>
  </rdf:RDF>
 </metadata>
 <defs>
  <style type="text/css">*{stroke-linejoin: round; stroke-linecap: butt}</style>
 </defs>
 <g id="figure_1">
  <g id="patch_1">
   <path d="M 0 360 
L 936 360 
L 936 0 
L 0 0 
z
" style="fill: #ffffff"/>
  </g>
  <g id="axes_1">
   <g id="patch_2">
    <path d="M 47.72 318.04 
L 925.2 318.04 
L 925.2 49.72725 
L 47.72 49.72725 
z
" style="fill: #ffffff"/>
   </g>
   <g id="matplotlib.axis_1">
    <g id="xtick_1">
     <g id="line2d_1">
      <defs>
       <path id="mca8d40bd3b" d="M 0 0 
L 0 3.5 
" style="stroke: #000000; stroke-width: 0.8"/>
      </defs>
      <g>
       <use xlink:href="#mca8d40bd3b" x="86.806147" y="318.04" style="stroke: #000000; stroke-width: 0.8"/>
      </g>
     </g>
     <g id="text_1">
      <!-- 2.990 -->
      <g transform="translate(72.492084 332.638438) scale(0.1 -0.1)">
       <defs>
        <path id="DejaVuSans-32" d="M 1228 531 
L 3431 531 
L 3431 0 
L 469 0 
L 469 531 
Q 828 903 1448 1529 
Q 2069 2156 2228 2338 
Q 2531 2678 2651 2914 
Q 2772 3150 2772 3378 
Q 2772 3750 2511 3984 
Q 2250 4219 1831 4219 
Q 1534 4219 1204 4116 
Q 875 4013 500 3803 
L 500 4441 
Q 881 4594 1212 4672 
Q 1544 4750 1819 4750 
Q 2544 4750 2975 4387 
Q 3406 4025 3406 3419 
Q 3406 3131 3298 2873 
Q 3191 2616 2906 2266 
Q 2828 2175 2409 1742 
Q 1991 1309 1228 531 
z
" transform="scale(0.015625)"/>
        <path id="DejaVuSans-2e" d="M 684 794 
L 1344 794 
L 1344 0 
L 684 0 
L 684 794 
z
" transform="scale(0.015625)"/>
        <path id="DejaVuSans-39" d="M 703 97 
L 703 672 
Q 941 559 1184 500 
Q 1428 441 1663 441 
Q 2288 441 2617 861 
Q 2947 1281 2994 2138 
Q 2813 1869 2534 1725 
Q 2256 1581 1919 1581 
Q 1219 1581 811 2004 
Q 403 2428 403 3163 
Q 403 3881 828 4315 
Q 1253 4750 1959 4750 
Q 2769 4750 3195 4129 
Q 3622 3509 3622 2328 
Q 3622 1225 3098 567 
Q 2575 -91 1691 -91 
Q 1453 -91 1209 -44 
Q 966 3 703 97 
z
M 1959 2075 
Q 2384 2075 2632 2365 
Q 2881 2656 2881 3163 
Q 2881 3666 2632 3958 
Q 2384 4250 1959 4250 
Q 1534 4250 1286 3958 
Q 1038 3666 1038 3163 
Q 1038 2656 1286 2365 
Q 1534 2075 1959 2075 
z
" transform="scale(0.015625)"/>
        <path id="DejaVuSans-30" d="M 2034 4250 
Q 1547 4250 1301 3770 
Q 1056 3291 1056 2328 
Q 1056 1369 1301 889 
Q 1547 409 2034 409 
Q 2525 409 2770 889 
Q 3016 1369 3016 2328 
Q 3016 3291 2770 3770 
Q 2525 4250 2034 4250 
z
M 2034 4750 
Q 2819 4750 3233 4129 
Q 3647 3509 3647 2328 
Q 3647 1150 3233 529 
Q 2819 -91 2034 -91 
Q 1250 -91 836 529 
Q 422 1150 422 2328 
Q 422 3509 836 4129 
Q 1250 4750 2034 4750 
z
" transform="scale(0.015625)"/>
       </defs>
       <use xlink:href="#DejaVuSans-32"/>
       <use xlink:href="#DejaVuSans-2e" transform="translate(63.623047 0)"/>
       <use xlink:href="#DejaVuSans-39" transform="translate(95.410156 0)"/>
       <use xlink:href="#DejaVuSans-39" transform="translate(159.033203 0)"/>
       <use xlink:href="#DejaVuSans-30" transform="translate(222.65625 0)"/>
      </g>
     </g>
    </g>
    <g id="xtick_2">
     <g id="line2d_2">
      <g>
       <use xlink:href="#mca8d40bd3b" x="246.667688" y="318.04" style="stroke: #000000; stroke-width: 0.8"/>
      </g>
     </g>
     <g id="text_2">
      <!-- 2.992 -->
      <g transform="translate(232.353626 332.638438) scale(0.1 -0.1)">
       <use xlink:href="#DejaVuSans-32"/>
       <use xlink:href="#DejaVuSans-2e" transform="translate(63.623047 0)"/>
       <use xlink:href="#DejaVuSans-39" transform="translate(95.410156 0)"/>
       <use xlink:href="#DejaVuSans-39" transform="translate(159.033203 0)"/>
       <use xlink:href="#DejaVuSans-32" transform="translate(222.65625 0)"/>
      </g>
     </g>
    </g>
    <g id="xtick_3">
     <g id="line2d_3">
      <g>
       <use xlink:href="#mca8d40bd3b" x="406.529229" y="318.04" style="stroke: #000000; stroke-width: 0.8"/>
      </g>
     </g>
     <g id="text_3">
      <!-- 2.994 -->
      <g transform="translate(392.215167 332.638438) scale(0.1 -0.1)">
       <defs>
        <path id="DejaVuSans-34" d="M 2419 4116 
L 825 1625 
L 2419 1625 
L 2419 4116 
z
M 2253 4666 
L 3047 4666 
L 3047 1625 
L 3713 1625 
L 3713 1100 
L 3047 1100 
L 3047 0 
L 2419 0 
L 2419 1100 
L 313 1100 
L 313 1709 
L 2253 4666 
z
" transform="scale(0.015625)"/>
       </defs>
       <use xlink:href="#DejaVuSans-32"/>
       <use xlink:href="#DejaVuSans-2e" transform="translate(63.623047 0)"/>
       <use xlink:href="#DejaVuSans-39" transform="translate(95.410156 0)"/>
       <use xlink:href="#DejaVuSans-39" transform="translate(159.033203 0)"/>
       <use xlink:href="#DejaVuSans-34" transform="translate(222.65625 0)"/>
      </g>
     </g>
    </g>
    <g id="xtick_4">
     <g id="line2d_4">
      <g>
       <use xlink:href="#mca8d40bd3b" x="566.390771" y="318.04" style="stroke: #000000; stroke-width: 0.8"/>
      </g>
     </g>
     <g id="text_4">
      <!-- 2.996 -->
      <g transform="translate(552.076708 332.638438) scale(0.1 -0.1)">
       <defs>
        <path id="DejaVuSans-36" d="M 2113 2584 
Q 1688 2584 1439 2293 
Q 1191 2003 1191 1497 
Q 1191 994 1439 701 
Q 1688 409 2113 409 
Q 2538 409 2786 701 
Q 3034 994 3034 1497 
Q 3034 2003 2786 2293 
Q 2538 2584 2113 2584 
z
M 3366 4563 
L 3366 3988 
Q 3128 4100 2886 4159 
Q 2644 4219 2406 4219 
Q 1781 4219 1451 3797 
Q 1122 3375 1075 2522 
Q 1259 2794 1537 2939 
Q 1816 3084 2150 3084 
Q 2853 3084 3261 2657 
Q 3669 2231 3669 1497 
Q 3669 778 3244 343 
Q 2819 -91 2113 -91 
Q 1303 -91 875 529 
Q 447 1150 447 2328 
Q 447 3434 972 4092 
Q 1497 4750 2381 4750 
Q 2619 4750 2861 4703 
Q 3103 4656 3366 4563 
z
" transform="scale(0.015625)"/>
       </defs>
       <use xlink:href="#DejaVuSans-32"/>
       <use xlink:href="#DejaVuSans-2e" transform="translate(63.623047 0)"/>
       <use xlink:href="#DejaVuSans-39" transform="translate(95.410156 0)"/>
       <use xlink:href="#DejaVuSans-39" transform="translate(159.033203 0)"/>
       <use xlink:href="#DejaVuSans-36" transform="translate(222.65625 0)"/>
      </g>
     </g>
    </g>
    <g id="xtick_5">
     <g id="line2d_5">
      <g>
       <use xlink:href="#mca8d40bd3b" x="726.252312" y="318.04" style="stroke: #000000; stroke-width: 0.8"/>
      </g>
     </g>
     <g id="text_5">
      <!-- 2.998 -->
      <g transform="translate(711.938249 332.638438) scale(0.1 -0.1)">
       <defs>
        <path id="DejaVuSans-38" d="M 2034 2216 
Q 1584 2216 1326 1975 
Q 1069 1734 1069 1313 
Q 1069 891 1326 650 
Q 1584 409 2034 409 
Q 2484 409 2743 651 
Q 3003 894 3003 1313 
Q 3003 1734 2745 1975 
Q 2488 2216 2034 2216 
z
M 1403 2484 
Q 997 2584 770 2862 
Q 544 3141 544 3541 
Q 544 4100 942 4425 
Q 1341 4750 2034 4750 
Q 2731 4750 3128 4425 
Q 3525 4100 3525 3541 
Q 3525 3141 3298 2862 
Q 3072 2584 2669 2484 
Q 3125 2378 3379 2068 
Q 3634 1759 3634 1313 
Q 3634 634 3220 271 
Q 2806 -91 2034 -91 
Q 1263 -91 848 271 
Q 434 634 434 1313 
Q 434 1759 690 2068 
Q 947 2378 1403 2484 
z
M 1172 3481 
Q 1172 3119 1398 2916 
Q 1625 2713 2034 2713 
Q 2441 2713 2670 2916 
Q 2900 3119 2900 3481 
Q 2900 3844 2670 4047 
Q 2441 4250 2034 4250 
Q 1625 4250 1398 4047 
Q 1172 3844 1172 3481 
z
" transform="scale(0.015625)"/>
       </defs>
       <use xlink:href="#DejaVuSans-32"/>
       <use xlink:href="#DejaVuSans-2e" transform="translate(63.623047 0)"/>
       <use xlink:href="#DejaVuSans-39" transform="translate(95.410156 0)"/>
       <use xlink:href="#DejaVuSans-39" transform="translate(159.033203 0)"/>
       <use xlink:href="#DejaVuSans-38" transform="translate(222.65625 0)"/>
      </g>
     </g>
    </g>
    <g id="xtick_6">
     <g id="line2d_6">
      <g>
       <use xlink:href="#mca8d40bd3b" x="886.113853" y="318.04" style="stroke: #000000; stroke-width: 0.8"/>
      </g>
     </g>
     <g id="text_6">
      <!-- 3.000 -->
      <g transform="translate(871.799791 332.638438) scale(0.1 -0.1)">
       <defs>
        <path id="DejaVuSans-33" d="M 2597 2516 
Q 3050 2419 3304 2112 
Q 3559 1806 3559 1356 
Q 3559 666 3084 287 
Q 2609 -91 1734 -91 
Q 1441 -91 1130 -33 
Q 819 25 488 141 
L 488 750 
Q 750 597 1062 519 
Q 1375 441 1716 441 
Q 2309 441 2620 675 
Q 2931 909 2931 1356 
Q 2931 1769 2642 2001 
Q 2353 2234 1838 2234 
L 1294 2234 
L 1294 2753 
L 1863 2753 
Q 2328 2753 2575 2939 
Q 2822 3125 2822 3475 
Q 2822 3834 2567 4026 
Q 2313 4219 1838 4219 
Q 1578 4219 1281 4162 
Q 984 4106 628 3988 
L 628 4550 
Q 988 4650 1302 4700 
Q 1616 4750 1894 4750 
Q 2613 4750 3031 4423 
Q 3450 4097 3450 3541 
Q 3450 3153 3228 2886 
Q 3006 2619 2597 2516 
z
" transform="scale(0.015625)"/>
       </defs>
       <use xlink:href="#DejaVuSans-33"/>
       <use xlink:href="#DejaVuSans-2e" transform="translate(63.623047 0)"/>
       <use xlink:href="#DejaVuSans-30" transform="translate(95.410156 0)"/>
       <use xlink:href="#DejaVuSans-30" transform="translate(159.033203 0)"/>
       <use xlink:href="#DejaVuSans-30" transform="translate(222.65625 0)"/>
      </g>
     </g>
    </g>
    <g id="text_7">
     <!-- chr16 coordinate (hg38) -->
     <g transform="translate(425.670156 346.316563) scale(0.1 -0.1)">
      <defs>
       <path id="DejaVuSans-63" d="M 3122 3366 
L 3122 2828 
Q 2878 2963 2633 3030 
Q 2388 3097 2138 3097 
Q 1578 3097 1268 2742 
Q 959 2388 959 1747 
Q 959 1106 1268 751 
Q 1578 397 2138 397 
Q 2388 397 2633 464 
Q 2878 531 3122 666 
L 3122 134 
Q 2881 22 2623 -34 
Q 2366 -91 2075 -91 
Q 1284 -91 818 406 
Q 353 903 353 1747 
Q 353 2603 823 3093 
Q 1294 3584 2113 3584 
Q 2378 3584 2631 3529 
Q 2884 3475 3122 3366 
z
" transform="scale(0.015625)"/>
       <path id="DejaVuSans-68" d="M 3513 2113 
L 3513 0 
L 2938 0 
L 2938 2094 
Q 2938 2591 2744 2837 
Q 2550 3084 2163 3084 
Q 1697 3084 1428 2787 
Q 1159 2491 1159 1978 
L 1159 0 
L 581 0 
L 581 4863 
L 1159 4863 
L 1159 2956 
Q 1366 3272 1645 3428 
Q 1925 3584 2291 3584 
Q 2894 3584 3203 3211 
Q 3513 2838 3513 2113 
z
" transform="scale(0.015625)"/>
       <path id="DejaVuSans-72" d="M 2631 2963 
Q 2534 3019 2420 3045 
Q 2306 3072 2169 3072 
Q 1681 3072 1420 2755 
Q 1159 2438 1159 1844 
L 1159 0 
L 581 0 
L 581 3500 
L 1159 3500 
L 1159 2956 
Q 1341 3275 1631 3429 
Q 1922 3584 2338 3584 
Q 2397 3584 2469 3576 
Q 2541 3569 2628 3553 
L 2631 2963 
z
" transform="scale(0.015625)"/>
       <path id="DejaVuSans-31" d="M 794 531 
L 1825 531 
L 1825 4091 
L 703 3866 
L 703 4441 
L 1819 4666 
L 2450 4666 
L 2450 531 
L 3481 531 
L 3481 0 
L 794 0 
L 794 531 
z
" transform="scale(0.015625)"/>
       <path id="DejaVuSans-20" transform="scale(0.015625)"/>
       <path id="DejaVuSans-6f" d="M 1959 3097 
Q 1497 3097 1228 2736 
Q 959 2375 959 1747 
Q 959 1119 1226 758 
Q 1494 397 1959 397 
Q 2419 397 2687 759 
Q 2956 1122 2956 1747 
Q 2956 2369 2687 2733 
Q 2419 3097 1959 3097 
z
M 1959 3584 
Q 2709 3584 3137 3096 
Q 3566 2609 3566 1747 
Q 3566 888 3137 398 
Q 2709 -91 1959 -91 
Q 1206 -91 779 398 
Q 353 888 353 1747 
Q 353 2609 779 3096 
Q 1206 3584 1959 3584 
z
" transform="scale(0.015625)"/>
       <path id="DejaVuSans-64" d="M 2906 2969 
L 2906 4863 
L 3481 4863 
L 3481 0 
L 2906 0 
L 2906 525 
Q 2725 213 2448 61 
Q 2172 -91 1784 -91 
Q 1150 -91 751 415 
Q 353 922 353 1747 
Q 353 2572 751 3078 
Q 1150 3584 1784 3584 
Q 2172 3584 2448 3432 
Q 2725 3281 2906 2969 
z
M 947 1747 
Q 947 1113 1208 752 
Q 1469 391 1925 391 
Q 2381 391 2643 752 
Q 2906 1113 2906 1747 
Q 2906 2381 2643 2742 
Q 2381 3103 1925 3103 
Q 1469 3103 1208 2742 
Q 947 2381 947 1747 
z
" transform="scale(0.015625)"/>
       <path id="DejaVuSans-69" d="M 603 3500 
L 1178 3500 
L 1178 0 
L 603 0 
L 603 3500 
z
M 603 4863 
L 1178 4863 
L 1178 4134 
L 603 4134 
L 603 4863 
z
" transform="scale(0.015625)"/>
       <path id="DejaVuSans-6e" d="M 3513 2113 
L 3513 0 
L 2938 0 
L 2938 2094 
Q 2938 2591 2744 2837 
Q 2550 3084 2163 3084 
Q 1697 3084 1428 2787 
Q 1159 2491 1159 1978 
L 1159 0 
L 581 0 
L 581 3500 
L 1159 3500 
L 1159 2956 
Q 1366 3272 1645 3428 
Q 1925 3584 2291 3584 
Q 2894 3584 3203 3211 
Q 3513 2838 3513 2113 
z
" transform="scale(0.015625)"/>
       <path id="DejaVuSans-61" d="M 2194 1759 
Q 1497 1759 1228 1600 
Q 959 1441 959 1056 
Q 959 750 1161 570 
Q 1363 391 1709 391 
Q 2188 391 2477 730 
Q 2766 1069 2766 1631 
L 2766 1759 
L 2194 1759 
z
M 3341 1997 
L 3341 0 
L 2766 0 
L 2766 531 
Q 2569 213 2275 61 
Q 1981 -91 1556 -91 
Q 1019 -91 701 211 
Q 384 513 384 1019 
Q 384 1609 779 1909 
Q 1175 2209 1959 2209 
L 2766 2209 
L 2766 2266 
Q 2766 2663 2505 2880 
Q 2244 3097 1772 3097 
Q 1472 3097 1187 3025 
Q 903 2953 641 2809 
L 641 3341 
Q 956 3463 1253 3523 
Q 1550 3584 1831 3584 
Q 2591 3584 2966 3190 
Q 3341 2797 3341 1997 
z
" transform="scale(0.015625)"/>
       <path id="DejaVuSans-74" d="M 1172 4494 
L 1172 3500 
L 2356 3500 
L 2356 3053 
L 1172 3053 
L 1172 1153 
Q 1172 725 1289 603 
Q 1406 481 1766 481 
L 2356 481 
L 2356 0 
L 1766 0 
Q 1100 0 847 248 
Q 594 497 594 1153 
L 594 3053 
L 172 3053 
L 172 3500 
L 594 3500 
L 594 4494 
L 1172 4494 
z
" transform="scale(0.015625)"/>
       <path id="DejaVuSans-65" d="M 3597 1894 
L 3597 1613 
L 953 1613 
Q 991 1019 1311 708 
Q 1631 397 2203 397 
Q 2534 397 2845 478 
Q 3156 559 3463 722 
L 3463 178 
Q 3153 47 2828 -22 
Q 2503 -91 2169 -91 
Q 1331 -91 842 396 
Q 353 884 353 1716 
Q 353 2575 817 3079 
Q 1281 3584 2069 3584 
Q 2775 3584 3186 3129 
Q 3597 2675 3597 1894 
z
M 3022 2063 
Q 3016 2534 2758 2815 
Q 2500 3097 2075 3097 
Q 1594 3097 1305 2825 
Q 1016 2553 972 2059 
L 3022 2063 
z
" transform="scale(0.015625)"/>
       <path id="DejaVuSans-28" d="M 1984 4856 
Q 1566 4138 1362 3434 
Q 1159 2731 1159 2009 
Q 1159 1288 1364 580 
Q 1569 -128 1984 -844 
L 1484 -844 
Q 1016 -109 783 600 
Q 550 1309 550 2009 
Q 550 2706 781 3412 
Q 1013 4119 1484 4856 
L 1984 4856 
z
" transform="scale(0.015625)"/>
       <path id="DejaVuSans-67" d="M 2906 1791 
Q 2906 2416 2648 2759 
Q 2391 3103 1925 3103 
Q 1463 3103 1205 2759 
Q 947 2416 947 1791 
Q 947 1169 1205 825 
Q 1463 481 1925 481 
Q 2391 481 2648 825 
Q 2906 1169 2906 1791 
z
M 3481 434 
Q 3481 -459 3084 -895 
Q 2688 -1331 1869 -1331 
Q 1566 -1331 1297 -1286 
Q 1028 -1241 775 -1147 
L 775 -588 
Q 1028 -725 1275 -790 
Q 1522 -856 1778 -856 
Q 2344 -856 2625 -561 
Q 2906 -266 2906 331 
L 2906 616 
Q 2728 306 2450 153 
Q 2172 0 1784 0 
Q 1141 0 747 490 
Q 353 981 353 1791 
Q 353 2603 747 3093 
Q 1141 3584 1784 3584 
Q 2172 3584 2450 3431 
Q 2728 3278 2906 2969 
L 2906 3500 
L 3481 3500 
L 3481 434 
z
" transform="scale(0.015625)"/>
       <path id="DejaVuSans-29" d="M 513 4856 
L 1013 4856 
Q 1481 4119 1714 3412 
Q 1947 2706 1947 2009 
Q 1947 1309 1714 600 
Q 1481 -109 1013 -844 
L 513 -844 
Q 928 -128 1133 580 
Q 1338 1288 1338 2009 
Q 1338 2731 1133 3434 
Q 928 4138 513 4856 
z
" transform="scale(0.015625)"/>
      </defs>
      <use xlink:href="#DejaVuSans-63"/>
      <use xlink:href="#DejaVuSans-68" transform="translate(54.980469 0)"/>
      <use xlink:href="#DejaVuSans-72" transform="translate(118.359375 0)"/>
      <use xlink:href="#DejaVuSans-31" transform="translate(159.472656 0)"/>
      <use xlink:href="#DejaVuSans-36" transform="translate(223.095703 0)"/>
      <use xlink:href="#DejaVuSans-20" transform="translate(286.71875 0)"/>
      <use xlink:href="#DejaVuSans-63" transform="translate(318.505859 0)"/>
      <use xlink:href="#DejaVuSans-6f" transform="translate(373.486328 0)"/>
      <use xlink:href="#DejaVuSans-6f" transform="translate(434.667969 0)"/>
      <use xlink:href="#DejaVuSans-72" transform="translate(495.849609 0)"/>
      <use xlink:href="#DejaVuSans-64" transform="translate(535.212891 0)"/>
      <use xlink:href="#DejaVuSans-69" transform="translate(598.689453 0)"/>
      <use xlink:href="#DejaVuSans-6e" transform="translate(626.472656 0)"/>
      <use xlink:href="#DejaVuSans-61" transform="translate(689.851562 0)"/>
      <use xlink:href="#DejaVuSans-74" transform="translate(751.130859 0)"/>
      <use xlink:href="#DejaVuSans-65" transform="translate(790.339844 0)"/>
      <use xlink:href="#DejaVuSans-20" transform="translate(851.863281 0)"/>
      <use xlink:href="#DejaVuSans-28" transform="translate(883.650391 0)"/>
      <use xlink:href="#DejaVuSans-68" transform="translate(922.664062 0)"/>
      <use xlink:href="#DejaVuSans-67" transform="translate(986.042969 0)"/>
      <use xlink:href="#DejaVuSans-33" transform="translate(1049.519531 0)"/>
      <use xlink:href="#DejaVuSans-38" transform="translate(1113.142578 0)"/>
      <use xlink:href="#DejaVuSans-29" transform="translate(1176.765625 0)"/>
     </g>
    </g>
    <g id="text_8">
     <!-- 1e7 -->
     <g transform="translate(906.321875 345.316563) scale(0.1 -0.1)">
      <defs>
       <path id="DejaVuSans-37" d="M 525 4666 
L 3525 4666 
L 3525 4397 
L 1831 0 
L 1172 0 
L 2766 4134 
L 525 4134 
L 525 4666 
z
" transform="scale(0.015625)"/>
      </defs>
      <use xlink:href="#DejaVuSans-31"/>
      <use xlink:href="#DejaVuSans-65" transform="translate(63.623047 0)"/>
      <use xlink:href="#DejaVuSans-37" transform="translate(125.146484 0)"/>
     </g>
    </g>
   </g>
   <g id="matplotlib.axis_2">
    <g id="ytick_1">
     <g id="line2d_7">
      <defs>
       <path id="m075e0d4cb9" d="M 0 0 
L -3.5 0 
" style="stroke: #000000; stroke-width: 0.8"/>
      </defs>
      <g>
       <use xlink:href="#m075e0d4cb9" x="47.72" y="305.843966" style="stroke: #000000; stroke-width: 0.8"/>
      </g>
     </g>
     <g id="text_9">
      <!-- 0.0 -->
      <g transform="translate(24.816875 309.643185) scale(0.1 -0.1)">
       <use xlink:href="#DejaVuSans-30"/>
       <use xlink:href="#DejaVuSans-2e" transform="translate(63.623047 0)"/>
       <use xlink:href="#DejaVuSans-30" transform="translate(95.410156 0)"/>
      </g>
     </g>
    </g>
    <g id="ytick_2">
     <g id="line2d_8">
      <g>
       <use xlink:href="#m075e0d4cb9" x="47.72" y="257.05983" style="stroke: #000000; stroke-width: 0.8"/>
      </g>
     </g>
     <g id="text_10">
      <!-- 0.2 -->
      <g transform="translate(24.816875 260.859048) scale(0.1 -0.1)">
       <use xlink:href="#DejaVuSans-30"/>
       <use xlink:href="#DejaVuSans-2e" transform="translate(63.623047 0)"/>
       <use xlink:href="#DejaVuSans-32" transform="translate(95.410156 0)"/>
      </g>
     </g>
    </g>
    <g id="ytick_3">
     <g id="line2d_9">
      <g>
       <use xlink:href="#m075e0d4cb9" x="47.72" y="208.275693" style="stroke: #000000; stroke-width: 0.8"/>
      </g>
     </g>
     <g id="text_11">
      <!-- 0.4 -->
      <g transform="translate(24.816875 212.074912) scale(0.1 -0.1)">
       <use xlink:href="#DejaVuSans-30"/>
       <use xlink:href="#DejaVuSans-2e" transform="translate(63.623047 0)"/>
       <use xlink:href="#DejaVuSans-34" transform="translate(95.410156 0)"/>
      </g>
     </g>
    </g>
    <g id="ytick_4">
     <g id="line2d_10">
      <g>
       <use xlink:href="#m075e0d4cb9" x="47.72" y="159.491557" style="stroke: #000000; stroke-width: 0.8"/>
      </g>
     </g>
     <g id="text_12">
      <!-- 0.6 -->
      <g transform="translate(24.816875 163.290776) scale(0.1 -0.1)">
       <use xlink:href="#DejaVuSans-30"/>
       <use xlink:href="#DejaVuSans-2e" transform="translate(63.623047 0)"/>
       <use xlink:href="#DejaVuSans-36" transform="translate(95.410156 0)"/>
      </g>
     </g>
    </g>
    <g id="ytick_5">
     <g id="line2d_11">
      <g>
       <use xlink:href="#m075e0d4cb9" x="47.72" y="110.70742" style="stroke: #000000; stroke-width: 0.8"/>
      </g>
     </g>
     <g id="text_13">
      <!-- 0.8 -->
      <g transform="translate(24.816875 114.506639) scale(0.1 -0.1)">
       <use xlink:href="#DejaVuSans-30"/>
       <use xlink:href="#DejaVuSans-2e" transform="translate(63.623047 0)"/>
       <use xlink:href="#DejaVuSans-38" transform="translate(95.410156 0)"/>
      </g>
     </g>
    </g>
    <g id="ytick_6">
     <g id="line2d_12">
      <g>
       <use xlink:href="#m075e0d4cb9" x="47.72" y="61.923284" style="stroke: #000000; stroke-width: 0.8"/>
      </g>
     </g>
     <g id="text_14">
      <!-- 1.0 -->
      <g transform="translate(24.816875 65.722503) scale(0.1 -0.1)">
       <use xlink:href="#DejaVuSans-31"/>
       <use xlink:href="#DejaVuSans-2e" transform="translate(63.623047 0)"/>
       <use xlink:href="#DejaVuSans-30" transform="translate(95.410156 0)"/>
      </g>
     </g>
    </g>
    <g id="text_15">
     <!-- global robust normalized signal -->
     <g transform="translate(18.737188 262.384406) rotate(-90) scale(0.1 -0.1)">
      <defs>
       <path id="DejaVuSans-6c" d="M 603 4863 
L 1178 4863 
L 1178 0 
L 603 0 
L 603 4863 
z
" transform="scale(0.015625)"/>
       <path id="DejaVuSans-62" d="M 3116 1747 
Q 3116 2381 2855 2742 
Q 2594 3103 2138 3103 
Q 1681 3103 1420 2742 
Q 1159 2381 1159 1747 
Q 1159 1113 1420 752 
Q 1681 391 2138 391 
Q 2594 391 2855 752 
Q 3116 1113 3116 1747 
z
M 1159 2969 
Q 1341 3281 1617 3432 
Q 1894 3584 2278 3584 
Q 2916 3584 3314 3078 
Q 3713 2572 3713 1747 
Q 3713 922 3314 415 
Q 2916 -91 2278 -91 
Q 1894 -91 1617 61 
Q 1341 213 1159 525 
L 1159 0 
L 581 0 
L 581 4863 
L 1159 4863 
L 1159 2969 
z
" transform="scale(0.015625)"/>
       <path id="DejaVuSans-75" d="M 544 1381 
L 544 3500 
L 1119 3500 
L 1119 1403 
Q 1119 906 1312 657 
Q 1506 409 1894 409 
Q 2359 409 2629 706 
Q 2900 1003 2900 1516 
L 2900 3500 
L 3475 3500 
L 3475 0 
L 2900 0 
L 2900 538 
Q 2691 219 2414 64 
Q 2138 -91 1772 -91 
Q 1169 -91 856 284 
Q 544 659 544 1381 
z
M 1991 3584 
L 1991 3584 
z
" transform="scale(0.015625)"/>
       <path id="DejaVuSans-73" d="M 2834 3397 
L 2834 2853 
Q 2591 2978 2328 3040 
Q 2066 3103 1784 3103 
Q 1356 3103 1142 2972 
Q 928 2841 928 2578 
Q 928 2378 1081 2264 
Q 1234 2150 1697 2047 
L 1894 2003 
Q 2506 1872 2764 1633 
Q 3022 1394 3022 966 
Q 3022 478 2636 193 
Q 2250 -91 1575 -91 
Q 1294 -91 989 -36 
Q 684 19 347 128 
L 347 722 
Q 666 556 975 473 
Q 1284 391 1588 391 
Q 1994 391 2212 530 
Q 2431 669 2431 922 
Q 2431 1156 2273 1281 
Q 2116 1406 1581 1522 
L 1381 1569 
Q 847 1681 609 1914 
Q 372 2147 372 2553 
Q 372 3047 722 3315 
Q 1072 3584 1716 3584 
Q 2034 3584 2315 3537 
Q 2597 3491 2834 3397 
z
" transform="scale(0.015625)"/>
       <path id="DejaVuSans-6d" d="M 3328 2828 
Q 3544 3216 3844 3400 
Q 4144 3584 4550 3584 
Q 5097 3584 5394 3201 
Q 5691 2819 5691 2113 
L 5691 0 
L 5113 0 
L 5113 2094 
Q 5113 2597 4934 2840 
Q 4756 3084 4391 3084 
Q 3944 3084 3684 2787 
Q 3425 2491 3425 1978 
L 3425 0 
L 2847 0 
L 2847 2094 
Q 2847 2600 2669 2842 
Q 2491 3084 2119 3084 
Q 1678 3084 1418 2786 
Q 1159 2488 1159 1978 
L 1159 0 
L 581 0 
L 581 3500 
L 1159 3500 
L 1159 2956 
Q 1356 3278 1631 3431 
Q 1906 3584 2284 3584 
Q 2666 3584 2933 3390 
Q 3200 3197 3328 2828 
z
" transform="scale(0.015625)"/>
       <path id="DejaVuSans-7a" d="M 353 3500 
L 3084 3500 
L 3084 2975 
L 922 459 
L 3084 459 
L 3084 0 
L 275 0 
L 275 525 
L 2438 3041 
L 353 3041 
L 353 3500 
z
" transform="scale(0.015625)"/>
      </defs>
      <use xlink:href="#DejaVuSans-67"/>
      <use xlink:href="#DejaVuSans-6c" transform="translate(63.476562 0)"/>
      <use xlink:href="#DejaVuSans-6f" transform="translate(91.259766 0)"/>
      <use xlink:href="#DejaVuSans-62" transform="translate(152.441406 0)"/>
      <use xlink:href="#DejaVuSans-61" transform="translate(215.917969 0)"/>
      <use xlink:href="#DejaVuSans-6c" transform="translate(277.197266 0)"/>
      <use xlink:href="#DejaVuSans-20" transform="translate(304.980469 0)"/>
      <use xlink:href="#DejaVuSans-72" transform="translate(336.767578 0)"/>
      <use xlink:href="#DejaVuSans-6f" transform="translate(375.630859 0)"/>
      <use xlink:href="#DejaVuSans-62" transform="translate(436.8125 0)"/>
      <use xlink:href="#DejaVuSans-75" transform="translate(500.289062 0)"/>
      <use xlink:href="#DejaVuSans-73" transform="translate(563.667969 0)"/>
      <use xlink:href="#DejaVuSans-74" transform="translate(615.767578 0)"/>
      <use xlink:href="#DejaVuSans-20" transform="translate(654.976562 0)"/>
      <use xlink:href="#DejaVuSans-6e" transform="translate(686.763672 0)"/>
      <use xlink:href="#DejaVuSans-6f" transform="translate(750.142578 0)"/>
      <use xlink:href="#DejaVuSans-72" transform="translate(811.324219 0)"/>
      <use xlink:href="#DejaVuSans-6d" transform="translate(850.6875 0)"/>
      <use xlink:href="#DejaVuSans-61" transform="translate(948.099609 0)"/>
      <use xlink:href="#DejaVuSans-6c" transform="translate(1009.378906 0)"/>
      <use xlink:href="#DejaVuSans-69" transform="translate(1037.162109 0)"/>
      <use xlink:href="#DejaVuSans-7a" transform="translate(1064.945312 0)"/>
      <use xlink:href="#DejaVuSans-65" transform="translate(1117.435547 0)"/>
      <use xlink:href="#DejaVuSans-64" transform="translate(1178.958984 0)"/>
      <use xlink:href="#DejaVuSans-20" transform="translate(1242.435547 0)"/>
      <use xlink:href="#DejaVuSans-73" transform="translate(1274.222656 0)"/>
      <use xlink:href="#DejaVuSans-69" transform="translate(1326.322266 0)"/>
      <use xlink:href="#DejaVuSans-67" transform="translate(1354.105469 0)"/>
      <use xlink:href="#DejaVuSans-6e" transform="translate(1417.582031 0)"/>
      <use xlink:href="#DejaVuSans-61" transform="translate(1480.960938 0)"/>
      <use xlink:href="#DejaVuSans-6c" transform="translate(1542.240234 0)"/>
     </g>
    </g>
   </g>
   <g id="line2d_13">
    <path d="M 87.605455 198.277856 
L 89.20407 185.057821 
L 90.802685 125.813196 
L 92.401301 147.550776 
L 93.999916 195.42758 
L 95.598532 208.073964 
L 97.197147 242.651141 
L 98.795762 273.010277 
L 100.394378 290.753085 
L 101.992993 296.266947 
L 103.591609 299.819315 
L 105.190224 302.35015 
L 106.788839 299.732258 
L 108.387455 301.26516 
L 109.98607 302.285251 
L 111.584686 303.998451 
L 113.183301 303.282965 
L 114.781917 298.078838 
L 116.380532 299.965909 
L 117.979147 302.461339 
L 119.577763 304.385312 
L 121.176378 304.014202 
L 122.774994 304.636169 
L 124.373609 296.224009 
L 125.972224 299.817509 
L 127.57084 302.619821 
L 129.169455 303.086171 
L 130.768071 301.479348 
L 132.366686 303.480899 
L 133.965302 298.276083 
L 135.563917 299.879763 
L 137.162532 301.286134 
L 138.761148 303.023767 
L 140.359763 304.55166 
L 141.958379 303.294279 
L 143.556994 303.998766 
L 145.155609 303.750355 
L 146.754225 302.549851 
L 148.35284 302.094416 
L 149.951456 299.860292 
L 151.550071 301.037084 
L 154.747302 303.77317 
L 156.345917 303.876584 
L 157.944533 302.345743 
L 159.543148 302.09854 
L 161.141764 295.951166 
L 162.740379 297.276378 
L 164.338994 299.026437 
L 165.93761 294.441815 
L 167.536225 302.503238 
L 169.134841 304.952516 
L 170.733456 304.323549 
L 172.332071 300.542622 
L 175.529302 299.410966 
L 177.127918 305.243131 
L 178.726533 303.18946 
L 180.325148 295.864981 
L 181.923764 296.777821 
L 183.522379 297.270932 
L 185.120995 298.955335 
L 186.71961 302.607214 
L 188.318226 305.2135 
L 189.916841 304.394566 
L 191.515456 301.581924 
L 193.114072 297.414703 
L 194.712687 300.70193 
L 196.311303 300.475406 
L 197.909918 302.396029 
L 199.508533 301.636753 
L 201.107149 298.829582 
L 202.705764 300.303229 
L 204.30438 303.13224 
L 205.902995 303.70762 
L 207.50161 302.744266 
L 209.100226 302.183269 
L 210.698841 298.604767 
L 212.297457 297.610237 
L 213.896072 296.761858 
L 215.494688 298.763742 
L 217.093303 299.489288 
L 218.691918 298.866622 
L 220.290534 299.350129 
L 221.889149 296.078108 
L 223.487765 300.532042 
L 225.08638 297.15806 
L 226.684995 298.770587 
L 228.283611 299.759073 
L 229.882226 302.474862 
L 231.480842 298.76272 
L 233.079457 298.413844 
L 234.678073 299.231685 
L 236.276688 301.971346 
L 237.875303 303.33729 
L 239.473919 300.388562 
L 242.67115 299.531721 
L 244.269765 303.332275 
L 245.86838 302.215668 
L 247.466996 304.244227 
L 249.065611 303.448753 
L 250.664227 300.115488 
L 252.262842 300.592048 
L 253.861457 301.237061 
L 255.460073 298.954169 
L 257.058688 299.753854 
L 258.657304 300.957632 
L 260.255919 301.10529 
L 261.854535 303.961441 
L 263.45315 303.323775 
L 265.051765 303.135487 
L 266.650381 299.272322 
L 268.248996 299.11855 
L 269.847612 301.647116 
L 271.446227 301.45984 
L 273.044842 300.493095 
L 274.643458 299.972828 
L 276.242073 302.369959 
L 277.840689 301.405019 
L 279.439304 299.623919 
L 281.037919 300.120176 
L 282.636535 293.67281 
L 284.23515 289.877441 
L 285.833766 290.049015 
L 287.432381 255.717574 
L 289.030997 197.080626 
L 290.629612 121.909537 
L 292.228227 61.923284 
L 295.425458 61.923284 
L 297.024074 215.492316 
L 298.622689 142.122128 
L 300.221304 118.24716 
L 301.81992 213.990134 
L 303.418535 266.506138 
L 305.017151 289.721529 
L 306.615766 293.938197 
L 308.214381 301.350841 
L 309.812997 301.310516 
L 313.010228 302.843461 
L 314.608843 303.215483 
L 317.806074 302.215152 
L 319.404689 302.324166 
L 321.003305 304.581714 
L 322.60192 304.21083 
L 324.200536 304.930888 
L 325.799151 302.996593 
L 327.397766 302.07296 
L 328.996382 300.852758 
L 330.594997 300.811045 
L 332.193613 303.62819 
L 333.792228 303.930409 
L 335.390844 301.215791 
L 336.989459 302.977213 
L 338.588074 295.88121 
L 340.18669 303.570137 
L 341.785305 305.843966 
L 343.383921 305.843966 
L 344.982536 304.561638 
L 346.581151 303.896251 
L 348.179767 305.414644 
L 349.778382 304.613447 
L 351.376998 300.615152 
L 352.975613 301.897538 
L 354.574228 300.245655 
L 357.771459 304.575893 
L 359.370075 303.075189 
L 360.96869 302.155682 
L 362.567306 301.989912 
L 364.165921 303.939514 
L 365.764536 301.954164 
L 367.363152 300.344982 
L 368.961767 299.198111 
L 370.560383 302.354718 
L 372.158998 301.120104 
L 373.757613 305.015833 
L 375.356229 305.843966 
L 376.954844 302.361253 
L 378.55346 301.738498 
L 380.152075 303.101967 
L 381.75069 302.949496 
L 383.349306 304.467229 
L 384.947921 300.29155 
L 386.546537 299.849592 
L 388.145152 301.63726 
L 389.743768 302.450833 
L 391.342383 300.846219 
L 394.539614 304.192376 
L 396.138229 304.091559 
L 397.736845 304.406808 
L 399.33546 305.843966 
L 400.934075 303.085687 
L 402.532691 296.867988 
L 404.131306 300.922297 
L 405.729922 303.055383 
L 407.328537 302.845921 
L 408.927152 302.790428 
L 410.525768 303.394468 
L 412.124383 300.978407 
L 413.722999 300.501712 
L 415.321614 304.031634 
L 416.92023 303.009185 
L 418.518845 300.639304 
L 420.11746 301.012319 
L 421.716076 301.697891 
L 423.314691 299.447665 
L 424.913307 297.973933 
L 426.511922 299.962079 
L 429.709153 300.246579 
L 431.307768 301.773286 
L 432.906384 298.292573 
L 434.504999 290.705499 
L 436.103615 282.414636 
L 437.70223 293.254083 
L 439.300845 299.765377 
L 440.899461 296.712757 
L 442.498076 279.502125 
L 444.096692 276.559922 
L 445.695307 280.119629 
L 447.293922 287.842906 
L 448.892538 292.439426 
L 450.491153 296.542824 
L 452.089769 299.171736 
L 453.688384 301.055117 
L 455.286999 298.480546 
L 456.885615 300.532244 
L 458.48423 300.379047 
L 460.082846 300.939241 
L 461.681461 299.869993 
L 466.477307 304.814776 
L 468.075923 299.18839 
L 469.674538 300.913826 
L 471.273154 299.515269 
L 472.871769 300.962062 
L 476.069 299.082633 
L 477.667615 301.816426 
L 479.266231 303.760391 
L 480.864846 300.473667 
L 482.463461 300.989407 
L 484.062077 296.391696 
L 485.660692 299.850677 
L 487.259308 301.304062 
L 488.857923 299.889384 
L 490.456539 297.35213 
L 492.055154 299.109634 
L 493.653769 303.069922 
L 495.252385 300.191101 
L 496.851 300.078583 
L 498.449616 302.062397 
L 500.048231 301.690999 
L 501.646846 298.91426 
L 503.245462 300.558495 
L 504.844077 302.872137 
L 506.442693 304.2884 
L 508.041308 304.127409 
L 509.639923 305.187861 
L 511.238539 304.870596 
L 512.837154 302.736398 
L 514.43577 301.499389 
L 516.034385 302.140171 
L 517.633001 301.534763 
L 519.231616 299.325441 
L 520.830231 303.280733 
L 522.428847 302.087551 
L 524.027462 302.655056 
L 525.626078 302.387803 
L 527.224693 301.10145 
L 528.823308 302.260197 
L 532.020539 302.098998 
L 533.619155 304.791122 
L 535.21777 304.298203 
L 536.816385 304.090958 
L 538.415001 305.06469 
L 540.013616 301.093479 
L 541.612232 302.057928 
L 543.210847 305.138943 
L 544.809463 303.804916 
L 546.408078 302.901682 
L 548.006693 302.361253 
L 549.605309 303.851015 
L 551.203924 304.429593 
L 552.80254 303.485699 
L 554.401155 301.657371 
L 555.99977 304.794407 
L 557.598386 304.989735 
L 559.197001 300.92235 
L 560.795617 299.835876 
L 562.394232 301.813225 
L 563.992848 303.384447 
L 565.591463 302.195214 
L 567.190078 299.600255 
L 568.788694 302.387933 
L 570.387309 301.330428 
L 571.985925 303.489414 
L 573.58454 302.99502 
L 575.183155 301.250229 
L 576.781771 294.482289 
L 578.380386 257.989853 
L 579.979002 208.333623 
L 581.577617 217.781939 
L 583.176232 179.811345 
L 584.774848 73.38203 
L 586.373463 110.3267 
L 587.972079 229.848992 
L 589.570694 283.489362 
L 591.16931 291.776749 
L 592.767925 297.241912 
L 595.965156 301.020766 
L 597.563771 301.871094 
L 599.162387 302.128316 
L 600.761002 301.259977 
L 602.359617 302.443287 
L 603.958233 303.265262 
L 605.556848 302.204342 
L 607.155464 304.205601 
L 608.754079 305.121184 
L 610.352694 304.990167 
L 611.95131 301.285563 
L 613.549925 299.650523 
L 615.148541 301.980403 
L 616.747156 300.390709 
L 618.345772 302.429401 
L 619.944387 302.829508 
L 621.543002 301.458689 
L 623.141618 300.962102 
L 624.740233 302.097436 
L 626.338849 303.451098 
L 627.937464 304.221121 
L 629.536079 303.642022 
L 631.134695 298.891505 
L 632.73331 301.990906 
L 634.331926 301.10786 
L 635.930541 300.573216 
L 637.529156 301.357203 
L 639.127772 303.347501 
L 640.726387 304.229992 
L 642.325003 302.37473 
L 643.923618 303.711701 
L 645.522234 300.689192 
L 647.120849 302.436487 
L 648.719464 301.58664 
L 650.31808 303.480083 
L 651.916695 304.234383 
L 653.515311 305.265659 
L 655.113926 305.120481 
L 656.712541 302.908077 
L 658.311157 302.33878 
L 659.909772 304.208852 
L 661.508388 304.486856 
L 663.107003 304.943841 
L 664.705619 301.743307 
L 666.304234 298.006462 
L 667.902849 299.178445 
L 669.501465 297.923052 
L 671.10008 293.758734 
L 672.698696 292.184273 
L 674.297311 294.814992 
L 675.895926 283.275753 
L 677.494542 193.945931 
L 679.093157 85.315397 
L 680.691773 61.923284 
L 682.290388 61.923284 
L 683.889003 69.032714 
L 685.487619 165.386609 
L 687.086234 230.747861 
L 688.68485 257.083786 
L 690.283465 274.233023 
L 691.882081 277.722765 
L 693.480696 284.066169 
L 695.079311 291.707646 
L 696.677927 298.453166 
L 698.276542 296.52482 
L 699.875158 295.262265 
L 701.473773 291.439419 
L 703.072388 296.544407 
L 704.671004 302.052769 
L 706.269619 302.572623 
L 707.868235 303.95527 
L 709.46685 299.478808 
L 711.065465 300.955921 
L 712.664081 299.400091 
L 714.262696 299.631208 
L 715.861312 300.366777 
L 717.459927 299.884051 
L 720.657158 301.174625 
L 722.255773 299.350542 
L 723.854389 300.725882 
L 725.453004 300.45755 
L 727.05162 301.542278 
L 728.650235 300.491252 
L 730.24885 300.187812 
L 731.847466 301.233167 
L 733.446081 301.929635 
L 735.044697 299.398055 
L 736.643312 301.184786 
L 738.241927 298.147302 
L 739.840543 301.041743 
L 741.439158 301.653011 
L 743.037774 302.762157 
L 744.636389 299.195533 
L 746.235005 296.92678 
L 747.83362 301.836623 
L 749.432235 302.289778 
L 751.030851 305.843966 
L 752.629466 301.360861 
L 754.228082 298.161656 
L 755.826697 301.198051 
L 757.425312 301.255408 
L 759.023928 299.039832 
L 760.622543 301.893687 
L 762.221159 299.942437 
L 763.819774 301.110788 
L 765.41839 301.916469 
L 767.017005 296.039898 
L 768.61562 302.013916 
L 770.214236 302.263587 
L 771.812851 303.587195 
L 773.411467 301.476766 
L 775.010082 300.680799 
L 776.608697 300.213455 
L 778.207313 301.49508 
L 779.805928 300.811913 
L 781.404544 304.467382 
L 783.003159 305.496286 
L 784.601774 303.062642 
L 786.20039 302.721049 
L 787.799005 301.001005 
L 789.397621 301.013201 
L 790.996236 302.342886 
L 792.594852 301.519857 
L 794.193467 304.201448 
L 795.792082 301.720672 
L 797.390698 304.386234 
L 798.989313 305.812205 
L 800.587929 303.642763 
L 802.186544 299.027278 
L 803.785159 302.147708 
L 805.383775 302.957501 
L 806.98239 299.720929 
L 808.581006 292.851414 
L 810.179621 293.875512 
L 811.778236 296.021769 
L 813.376852 303.587675 
L 814.975467 304.64849 
L 816.574083 296.335556 
L 818.172698 302.946238 
L 819.771314 303.356114 
L 821.369929 303.041537 
L 822.968544 301.13357 
L 824.56716 302.276381 
L 826.165775 302.922028 
L 829.363006 300.109573 
L 830.961621 299.437584 
L 832.560237 302.285038 
L 834.158852 304.576472 
L 835.757468 304.700758 
L 837.356083 303.363409 
L 838.954698 304.972302 
L 840.553314 301.737909 
L 842.151929 298.769826 
L 843.750545 299.711633 
L 845.34916 291.288284 
L 846.947776 273.299319 
L 848.546391 233.169235 
L 850.145006 199.353976 
L 851.743622 216.747277 
L 853.342237 113.426297 
L 854.940853 220.632324 
L 856.539468 181.952641 
L 858.138083 61.923284 
L 859.736699 64.013694 
L 862.93393 258.495579 
L 864.532545 285.577287 
L 866.131161 297.972067 
L 867.729776 299.44595 
L 869.328391 299.475156 
L 870.927007 301.821172 
L 872.525622 302.216603 
L 874.124238 300.662584 
L 875.722853 301.214451 
L 877.321468 304.685268 
L 878.920084 302.720655 
L 880.518699 303.297237 
L 882.117315 301.94613 
L 883.71593 301.524352 
L 885.314545 298.994078 
L 885.314545 298.994078 
" clip-path="url(#p669c414ce9)" style="fill: none; stroke: #2ca02c; stroke-width: 1.2; stroke-linecap: square"/>
   </g>
   <g id="line2d_14">
    <path d="M 87.605455 174.905015 
L 90.802685 114.904235 
L 92.401301 114.904235 
L 97.197147 226.770319 
L 98.795762 255.801264 
L 100.394378 270.467394 
L 101.992993 277.764432 
L 103.591609 283.201184 
L 105.190224 286.175022 
L 106.788839 292.761352 
L 109.98607 299.90282 
L 111.584686 301.930139 
L 113.183301 302.030031 
L 114.781917 301.381551 
L 116.380532 301.108076 
L 117.979147 301.366813 
L 121.176378 303.69954 
L 122.774994 303.259851 
L 124.373609 302.467264 
L 125.972224 302.218352 
L 127.57084 302.329708 
L 129.169455 303.053516 
L 130.768071 303.613567 
L 132.366686 303.010939 
L 133.965302 302.752202 
L 135.563917 303.130482 
L 137.162532 303.258213 
L 138.761148 302.873383 
L 140.359763 303.384306 
L 141.958379 303.222186 
L 143.556994 302.897946 
L 145.155609 302.413224 
L 146.754225 302.285493 
L 148.35284 302.365734 
L 149.951456 302.293681 
L 151.550071 301.574785 
L 153.148686 301.669765 
L 154.747302 302.979006 
L 156.345917 303.357286 
L 157.944533 302.314969 
L 161.141764 301.283297 
L 162.740379 301.899025 
L 165.93761 302.621196 
L 167.536225 304.018867 
L 169.134841 304.228477 
L 170.733456 303.258213 
L 172.332071 302.902859 
L 173.930687 302.816068 
L 175.529302 303.381031 
L 178.726533 303.511219 
L 181.923764 304.066357 
L 185.120995 304.032787 
L 186.71961 304.69273 
L 188.318226 304.255497 
L 189.916841 303.299153 
L 193.114072 303.230374 
L 194.712687 302.955262 
L 196.311303 303.216455 
L 197.909918 303.925525 
L 199.508533 304.134316 
L 201.107149 303.302428 
L 205.902995 303.308978 
L 207.50161 302.719451 
L 209.100226 302.908591 
L 210.698841 303.539057 
L 212.297457 302.205252 
L 213.896072 301.383189 
L 215.494688 301.063861 
L 218.691918 301.849898 
L 220.290534 301.751643 
L 223.487765 301.977629 
L 226.684995 303.010939 
L 228.283611 303.048603 
L 229.882226 302.400123 
L 233.079457 301.95634 
L 234.678073 302.401761 
L 236.276688 303.927982 
L 237.875303 304.598569 
L 239.473919 303.041234 
L 241.072534 302.185601 
L 242.67115 301.923589 
L 244.269765 301.8892 
L 245.86838 302.750565 
L 247.466996 302.840631 
L 250.664227 302.463989 
L 252.262842 302.244554 
L 257.058688 302.238003 
L 258.657304 302.447613 
L 260.255919 302.966725 
L 261.854535 303.212361 
L 263.45315 302.667048 
L 265.051765 302.264205 
L 268.248996 302.049682 
L 271.446227 302.644122 
L 273.044842 302.660498 
L 274.643458 303.109194 
L 277.840689 303.393313 
L 279.439304 302.033306 
L 282.636535 296.003752 
L 284.23515 295.014656 
L 285.833766 289.279865 
L 287.432381 263.851587 
L 289.030997 221.752786 
L 292.228227 76.126438 
L 293.826843 61.923284 
L 295.425458 88.100393 
L 297.024074 207.787539 
L 298.622689 148.310783 
L 300.221304 171.263047 
L 301.81992 242.045627 
L 303.418535 276.107205 
L 305.017151 290.648879 
L 306.615766 297.015774 
L 308.214381 299.56548 
L 309.812997 300.597152 
L 311.411612 301.397927 
L 313.010228 301.745093 
L 314.608843 302.88894 
L 316.207459 303.76668 
L 319.404689 303.535782 
L 321.003305 303.089543 
L 322.60192 303.176334 
L 324.200536 303.805982 
L 325.799151 303.864935 
L 327.397766 303.13867 
L 330.594997 303.363837 
L 332.193613 303.036322 
L 333.792228 303.15914 
L 335.390844 303.501393 
L 336.989459 302.784954 
L 338.588074 303.001114 
L 340.18669 304.896608 
L 341.785305 305.571289 
L 343.383921 305.100486 
L 344.982536 303.670882 
L 346.581151 303.113288 
L 348.179767 303.467004 
L 349.778382 303.412145 
L 352.975613 302.233091 
L 354.574228 302.341171 
L 356.172844 302.562243 
L 357.771459 302.090622 
L 359.370075 301.430678 
L 360.96869 301.325874 
L 362.567306 301.704154 
L 364.165921 302.722726 
L 365.764536 302.64576 
L 367.363152 302.311694 
L 368.961767 301.84171 
L 370.560383 302.696525 
L 372.158998 303.862479 
L 373.757613 303.749486 
L 375.356229 303.2533 
L 376.954844 303.385944 
L 378.55346 303.279502 
L 380.152075 302.676874 
L 381.75069 303.03059 
L 386.546537 303.056791 
L 388.145152 303.677433 
L 391.342383 304.406973 
L 392.940998 304.947373 
L 394.539614 304.248947 
L 396.138229 303.945995 
L 397.736845 304.798353 
L 399.33546 303.778143 
L 400.934075 302.974912 
L 404.131306 302.147937 
L 405.729922 301.974354 
L 407.328537 301.283297 
L 408.927152 300.251624 
L 410.525768 300.38263 
L 412.124383 301.204693 
L 413.722999 301.682865 
L 415.321614 301.915401 
L 418.518845 301.962891 
L 420.11746 302.177413 
L 423.314691 301.072049 
L 424.913307 301.022922 
L 426.511922 301.46343 
L 428.110537 299.629345 
L 429.709153 296.976472 
L 431.307768 295.836719 
L 432.906384 293.285376 
L 434.504999 286.68267 
L 436.103615 277.895438 
L 437.70223 277.201106 
L 439.300845 291.385788 
L 440.899461 290.488396 
L 442.498076 276.585377 
L 444.096692 270.82111 
L 445.695307 276.794987 
L 447.293922 286.044015 
L 448.892538 288.788593 
L 450.491153 293.563764 
L 452.089769 298.895711 
L 453.688384 301.646838 
L 455.286999 301.312773 
L 456.885615 301.604261 
L 460.082846 303.082993 
L 461.681461 304.230114 
L 463.280077 304.623133 
L 464.878692 304.608394 
L 466.477307 303.920613 
L 468.075923 302.640847 
L 469.674538 302.175775 
L 472.871769 301.933414 
L 474.470384 303.972196 
L 476.069 304.977668 
L 477.667615 304.691911 
L 479.266231 303.98284 
L 482.463461 303.447353 
L 484.062077 302.996201 
L 485.660692 302.781679 
L 487.259308 303.097731 
L 492.055154 302.906134 
L 496.851 303.945995 
L 500.048231 304.085189 
L 503.245462 303.877217 
L 504.844077 304.0639 
L 506.442693 304.574824 
L 508.041308 304.257134 
L 509.639923 303.6586 
L 512.837154 304.0639 
L 514.43577 303.51695 
L 516.034385 302.784954 
L 517.633001 303.191073 
L 519.231616 303.066617 
L 522.428847 304.326731 
L 524.027462 304.097471 
L 525.626078 303.383488 
L 530.421924 303.412964 
L 532.020539 303.171422 
L 533.619155 302.444338 
L 535.21777 302.260929 
L 536.816385 302.283855 
L 538.415001 302.855369 
L 540.013616 302.799692 
L 541.612232 303.047785 
L 543.210847 304.19245 
L 544.809463 305.573745 
L 546.408078 305.454202 
L 549.605309 304.236665 
L 551.203924 304.07127 
L 552.80254 304.29398 
L 554.401155 305.201197 
L 555.99977 305.27325 
L 557.598386 303.97629 
L 559.197001 303.49648 
L 562.394232 303.59146 
L 563.992848 304.097471 
L 565.591463 304.013954 
L 570.387309 303.03059 
L 571.985925 301.589523 
L 573.58454 299.573667 
L 575.183155 287.226345 
L 576.781771 258.251078 
L 578.380386 201.237236 
L 579.979002 157.612214 
L 581.577617 201.315839 
L 583.176232 179.516429 
L 584.774848 64.021477 
L 586.373463 111.681486 
L 587.972079 210.774478 
L 589.570694 266.628916 
L 591.16931 286.495986 
L 592.767925 294.896751 
L 594.36654 298.748329 
L 595.965156 301.271834 
L 597.563771 303.269676 
L 600.761002 303.90915 
L 602.359617 303.924707 
L 605.556848 301.465068 
L 607.155464 301.013097 
L 608.754079 301.805683 
L 610.352694 302.768578 
L 611.95131 303.296696 
L 613.549925 303.576722 
L 615.148541 302.426325 
L 616.747156 302.305144 
L 618.345772 302.996201 
L 621.543002 303.264763 
L 623.141618 302.531129 
L 624.740233 302.889759 
L 626.338849 303.544789 
L 627.937464 305.184821 
L 629.536079 305.039077 
L 631.134695 303.574265 
L 632.73331 303.086268 
L 635.930541 302.794779 
L 637.529156 302.966725 
L 639.127772 303.677433 
L 640.726387 305.306002 
L 642.325003 304.896608 
L 643.923618 303.634856 
L 645.522234 303.872304 
L 647.120849 304.330007 
L 648.719464 305.168445 
L 650.31808 305.604041 
L 651.916695 304.467563 
L 653.515311 304.887192 
L 655.113926 305.843966 
L 658.311157 303.516131 
L 659.909772 303.385944 
L 661.508388 302.920872 
L 663.107003 302.996201 
L 667.902849 302.277305 
L 669.501465 300.315489 
L 671.10008 295.314333 
L 672.698696 288.208891 
L 674.297311 297.110753 
L 675.895926 293.629267 
L 677.494542 157.291249 
L 679.093157 61.923284 
L 682.290388 61.923284 
L 685.487619 200.791815 
L 687.086234 235.691832 
L 688.68485 264.205303 
L 690.283465 278.550468 
L 691.882081 284.720854 
L 693.480696 287.399928 
L 695.079311 291.890161 
L 698.276542 296.377119 
L 699.875158 299.272353 
L 701.473773 300.138631 
L 703.072388 301.628825 
L 704.671004 301.723805 
L 706.269619 302.889759 
L 711.065465 303.434253 
L 712.664081 303.411326 
L 715.861312 303.167328 
L 717.459927 303.393313 
L 719.058543 303.275408 
L 720.657158 303.357286 
L 722.255773 303.32781 
L 723.854389 302.794779 
L 725.453004 302.657223 
L 730.24885 302.60482 
L 731.847466 302.873383 
L 736.643312 302.693249 
L 739.840543 303.135395 
L 741.439158 303.082993 
L 743.037774 302.781679 
L 744.636389 302.748927 
L 746.235005 303.012577 
L 747.83362 303.487474 
L 749.432235 303.823177 
L 754.228082 303.686439 
L 755.826697 303.278683 
L 762.221159 302.974912 
L 763.819774 303.086268 
L 767.017005 303.59146 
L 770.214236 304.387322 
L 773.411467 304.203913 
L 776.608697 304.230933 
L 778.207313 304.04425 
L 779.805928 303.533326 
L 783.003159 303.790425 
L 784.601774 303.823177 
L 786.20039 304.055713 
L 787.799005 304.013136 
L 790.996236 302.866832 
L 795.792082 302.637572 
L 797.390698 303.002751 
L 802.186544 302.925785 
L 803.785159 302.079158 
L 805.383775 301.558409 
L 806.98239 301.18668 
L 808.581006 301.268558 
L 810.179621 301.736905 
L 811.778236 302.336258 
L 813.376852 303.116563 
L 814.975467 303.743754 
L 816.574083 303.664332 
L 819.771314 302.395211 
L 821.369929 301.867911 
L 822.968544 301.637013 
L 824.56716 301.283297 
L 826.165775 301.506007 
L 827.764391 301.286572 
L 829.363006 301.317686 
L 832.560237 302.421412 
L 834.158852 302.742377 
L 837.356083 302.074246 
L 840.553314 300.464509 
L 842.151929 297.199182 
L 843.750545 289.152134 
L 845.34916 265.233701 
L 846.947776 222.656728 
L 850.145006 125.934946 
L 851.743622 150.066264 
L 853.342237 98.449873 
L 854.940853 202.285284 
L 856.539468 156.380757 
L 858.138083 61.923284 
L 859.736699 97.873446 
L 861.335314 192.315722 
L 862.93393 260.753294 
L 864.532545 291.081199 
L 866.131161 298.885886 
L 867.729776 301.356988 
L 869.328391 301.586248 
L 870.927007 302.061145 
L 872.525622 302.319882 
L 874.124238 302.016931 
L 875.722853 303.143583 
L 877.321468 305.079198 
L 880.518699 302.857007 
L 882.117315 302.519666 
L 883.71593 302.575344 
L 885.314545 302.758752 
L 885.314545 302.758752 
" clip-path="url(#p669c414ce9)" style="fill: none; stroke: #000000; stroke-width: 1.2; stroke-linecap: square"/>
   </g>
   <g id="line2d_15">
    <path d="M 87.605455 72.778611 
L 89.20407 103.759847 
L 90.802685 103.778038 
L 92.401301 171.912289 
L 93.999916 218.077739 
L 95.598532 217.793078 
L 97.197147 240.349056 
L 100.394378 246.182708 
L 101.992993 236.937712 
L 103.591609 268.869587 
L 105.190224 261.563893 
L 106.788839 260.205979 
L 108.387455 260.138368 
L 109.98607 268.312452 
L 111.584686 262.402546 
L 113.183301 267.928847 
L 114.781917 262.221981 
L 116.380532 261.689482 
L 117.979147 259.475354 
L 119.577763 264.454018 
L 121.176378 266.293272 
L 122.774994 264.250866 
L 124.373609 257.634549 
L 125.972224 255.4824 
L 127.57084 266.489681 
L 129.169455 263.933162 
L 130.768071 265.739746 
L 132.366686 252.361322 
L 133.965302 252.668515 
L 135.563917 267.164289 
L 137.162532 265.560596 
L 138.761148 271.226685 
L 140.359763 239.736674 
L 141.958379 249.67641 
L 143.556994 230.733028 
L 145.155609 250.142189 
L 146.754225 255.047812 
L 148.35284 252.872089 
L 149.951456 268.206219 
L 151.550071 272.059405 
L 153.148686 270.700037 
L 154.747302 246.512062 
L 156.345917 272.249456 
L 157.944533 267.86989 
L 159.543148 250.968782 
L 161.141764 268.566834 
L 162.740379 270.60817 
L 164.338994 270.829467 
L 165.93761 264.236232 
L 169.134841 265.267745 
L 170.733456 249.564493 
L 172.332071 251.294976 
L 173.930687 236.885839 
L 175.529302 249.85369 
L 177.127918 256.685738 
L 178.726533 258.56013 
L 180.325148 245.827965 
L 181.923764 245.626933 
L 183.522379 251.856501 
L 185.120995 254.224577 
L 186.71961 267.452239 
L 188.318226 276.485618 
L 189.916841 277.420879 
L 191.515456 274.444971 
L 193.114072 269.603014 
L 194.712687 269.654753 
L 196.311303 255.087028 
L 197.909918 270.429213 
L 199.508533 265.178361 
L 201.107149 245.1281 
L 202.705764 258.764178 
L 204.30438 263.346551 
L 205.902995 269.726865 
L 207.50161 266.73447 
L 209.100226 259.37053 
L 210.698841 254.920082 
L 212.297457 249.063506 
L 213.896072 266.205359 
L 215.494688 249.331182 
L 217.093303 270.346886 
L 218.691918 269.708584 
L 220.290534 270.904748 
L 221.889149 250.801263 
L 223.487765 232.717504 
L 225.08638 267.485908 
L 226.684995 264.358787 
L 229.882226 274.782798 
L 231.480842 283.629179 
L 233.079457 278.972001 
L 234.678073 277.348812 
L 236.276688 264.950068 
L 237.875303 264.589228 
L 241.072534 291.091248 
L 242.67115 277.005147 
L 244.269765 290.300487 
L 245.86838 288.599946 
L 247.466996 261.996227 
L 249.065611 279.480402 
L 250.664227 277.01262 
L 252.262842 290.428105 
L 253.861457 273.799285 
L 255.460073 291.094075 
L 257.058688 279.560661 
L 258.657304 276.220207 
L 260.255919 286.265182 
L 261.854535 288.626896 
L 263.45315 285.040869 
L 265.051765 277.740801 
L 266.650381 272.164279 
L 268.248996 287.264684 
L 269.847612 291.808198 
L 271.446227 264.559599 
L 273.044842 281.112806 
L 274.643458 279.042482 
L 276.242073 271.476271 
L 277.840689 282.32476 
L 279.439304 272.479759 
L 281.037919 285.09194 
L 282.636535 276.746815 
L 284.23515 267.487222 
L 285.833766 263.224948 
L 287.432381 253.711 
L 289.030997 241.540198 
L 290.629612 189.285732 
L 292.228227 219.057016 
L 293.826843 198.435635 
L 295.425458 135.225365 
L 297.024074 109.638599 
L 298.622689 195.328317 
L 300.221304 209.065913 
L 301.81992 250.19904 
L 303.418535 263.275573 
L 305.017151 280.614833 
L 306.615766 284.309182 
L 308.214381 285.38819 
L 309.812997 275.469524 
L 311.411612 277.277842 
L 313.010228 273.509302 
L 314.608843 285.824939 
L 316.207459 280.497681 
L 317.806074 283.690876 
L 319.404689 277.236566 
L 321.003305 278.968735 
L 322.60192 277.820852 
L 324.200536 276.153352 
L 325.799151 280.812654 
L 327.397766 286.490833 
L 328.996382 285.092916 
L 330.594997 252.293296 
L 332.193613 282.139399 
L 333.792228 279.087547 
L 335.390844 270.830295 
L 336.989459 260.789316 
L 338.588074 281.770454 
L 340.18669 268.187872 
L 341.785305 264.386316 
L 343.383921 271.788677 
L 344.982536 262.158172 
L 346.581151 286.322357 
L 348.179767 284.299949 
L 349.778382 294.253092 
L 351.376998 288.259183 
L 352.975613 260.577398 
L 354.574228 261.290351 
L 356.172844 254.403075 
L 357.771459 272.816651 
L 359.370075 279.978363 
L 360.96869 278.651881 
L 362.567306 263.229413 
L 364.165921 282.498686 
L 365.764536 286.18892 
L 367.363152 287.898575 
L 368.961767 283.418931 
L 370.560383 294.093484 
L 372.158998 298.197557 
L 373.757613 296.635208 
L 375.356229 284.66444 
L 376.954844 265.922571 
L 378.55346 282.782553 
L 380.152075 286.245097 
L 381.75069 265.370612 
L 383.349306 228.699841 
L 384.947921 260.737648 
L 386.546537 267.877252 
L 388.145152 271.603954 
L 389.743768 285.116918 
L 391.342383 273.336205 
L 394.539614 290.147466 
L 396.138229 268.291089 
L 397.736845 277.25275 
L 399.33546 281.153404 
L 400.934075 280.342987 
L 402.532691 276.49854 
L 404.131306 280.894121 
L 405.729922 265.210527 
L 407.328537 274.050904 
L 408.927152 275.346246 
L 410.525768 269.655127 
L 412.124383 269.591632 
L 413.722999 280.74468 
L 415.321614 277.224576 
L 416.92023 267.674953 
L 418.518845 264.845103 
L 420.11746 249.984374 
L 421.716076 257.063683 
L 423.314691 244.854067 
L 424.913307 284.863224 
L 426.511922 275.587475 
L 428.110537 270.044761 
L 429.709153 276.867399 
L 431.307768 281.195813 
L 432.906384 272.954287 
L 434.504999 275.701977 
L 436.103615 235.772122 
L 439.300845 103.974212 
L 440.899461 85.074976 
L 442.498076 100.930523 
L 444.096692 228.630096 
L 445.695307 225.872234 
L 447.293922 251.650037 
L 448.892538 263.651966 
L 450.491153 283.563088 
L 452.089769 284.808773 
L 453.688384 303.115422 
L 455.286999 288.6064 
L 456.885615 275.721639 
L 458.48423 274.120486 
L 460.082846 276.123886 
L 461.681461 256.950544 
L 463.280077 219.523014 
L 464.878692 262.255853 
L 466.477307 258.802115 
L 468.075923 241.100688 
L 469.674538 250.492569 
L 471.273154 258.585577 
L 472.871769 207.226271 
L 474.470384 218.455012 
L 476.069 243.874391 
L 477.667615 262.694796 
L 479.266231 255.227962 
L 480.864846 261.204748 
L 482.463461 226.230372 
L 484.062077 269.951048 
L 485.660692 256.903438 
L 487.259308 228.206986 
L 488.857923 253.766945 
L 490.456539 267.558786 
L 492.055154 245.510234 
L 493.653769 228.419894 
L 495.252385 161.546583 
L 496.851 212.407081 
L 498.449616 255.137813 
L 500.048231 240.6493 
L 501.646846 204.82704 
L 503.245462 212.706634 
L 504.844077 194.132054 
L 506.442693 221.810285 
L 508.041308 228.854563 
L 509.639923 241.099293 
L 511.238539 260.858072 
L 512.837154 251.889078 
L 514.43577 237.723656 
M 546.408078 231.589743 
L 548.006693 228.247924 
L 549.605309 227.832185 
L 551.203924 230.585764 
L 552.80254 216.26233 
L 554.401155 226.12414 
L 555.99977 207.643148 
L 557.598386 218.262009 
L 559.197001 216.862517 
L 560.795617 242.138825 
L 562.394232 213.634721 
L 563.992848 218.110413 
L 565.591463 240.90257 
L 567.190078 212.965459 
L 568.788694 214.730047 
L 570.387309 207.875493 
L 571.985925 224.868311 
L 573.58454 246.477391 
L 575.183155 227.444286 
L 576.781771 228.060441 
L 578.380386 202.596352 
L 579.979002 161.066499 
L 581.577617 61.923284 
L 583.176232 79.479772 
L 584.774848 188.688986 
L 586.373463 196.344682 
L 589.570694 208.783295 
L 591.16931 196.310537 
L 592.767925 198.836879 
L 594.36654 205.210905 
L 595.965156 203.72925 
L 597.563771 233.011646 
L 599.162387 226.498934 
L 600.761002 180.954095 
L 602.359617 200.050627 
L 603.958233 193.382392 
L 605.556848 215.300502 
L 607.155464 240.944258 
L 608.754079 238.959545 
L 610.352694 241.613295 
L 611.95131 214.756576 
L 613.549925 237.723114 
L 615.148541 254.213437 
L 616.747156 263.373243 
L 618.345772 247.797323 
L 619.944387 197.612063 
L 621.543002 251.636922 
L 623.141618 255.072225 
L 624.740233 263.358672 
L 626.338849 260.696557 
L 627.937464 260.359273 
L 629.536079 257.423103 
L 631.134695 255.075166 
L 632.73331 240.057017 
L 634.331926 270.263029 
L 635.930541 267.581777 
L 637.529156 263.781749 
L 639.127772 248.68177 
L 640.726387 237.783216 
L 642.325003 261.347913 
L 643.923618 217.88193 
L 645.522234 237.931165 
L 647.120849 235.573368 
L 648.719464 257.567913 
L 650.31808 245.765374 
L 651.916695 266.010015 
L 653.515311 249.927295 
L 655.113926 256.27206 
L 656.712541 257.409313 
L 658.311157 223.40542 
L 659.909772 252.379835 
L 661.508388 266.593897 
L 663.107003 266.224936 
L 664.705619 264.209128 
L 666.304234 253.392623 
L 667.902849 234.191229 
L 669.501465 254.520988 
L 671.10008 257.928962 
L 672.698696 263.247546 
L 674.297311 138.841299 
L 675.895926 61.923284 
L 677.494542 117.079944 
L 679.093157 187.4536 
L 680.691773 173.268078 
L 682.290388 191.967659 
L 683.889003 190.19941 
L 685.487619 216.974836 
L 688.68485 254.226454 
L 690.283465 248.781976 
L 691.882081 250.155483 
L 693.480696 268.516104 
L 695.079311 248.976777 
L 696.677927 232.539644 
L 698.276542 246.641354 
L 699.875158 247.633855 
L 701.473773 268.654124 
L 703.072388 253.557844 
L 704.671004 248.120389 
L 706.269619 232.374113 
L 707.868235 234.527267 
L 709.46685 237.997262 
L 711.065465 234.804392 
L 712.664081 247.609217 
L 714.262696 256.614277 
L 715.861312 251.165634 
L 717.459927 252.934314 
L 719.058543 248.112385 
L 720.657158 253.417203 
L 722.255773 257.826044 
L 723.854389 245.464142 
L 725.453004 257.136947 
L 727.05162 253.400428 
L 728.650235 252.906681 
L 730.24885 251.189791 
L 731.847466 273.283671 
L 733.446081 279.221155 
L 735.044697 271.558329 
L 736.643312 270.893216 
L 738.241927 266.691068 
L 739.840543 248.8138 
L 741.439158 250.387521 
L 743.037774 265.984047 
L 746.235005 251.627928 
L 747.83362 238.674085 
L 749.432235 222.696479 
L 751.030851 223.670347 
L 752.629466 233.035285 
L 754.228082 231.419047 
L 755.826697 244.510039 
L 757.425312 234.258585 
L 759.023928 236.000977 
L 760.622543 239.939688 
L 762.221159 245.086725 
L 763.819774 229.615891 
L 765.41839 247.493099 
L 767.017005 252.542738 
L 768.61562 242.888532 
L 770.214236 247.419833 
L 771.812851 257.387593 
L 773.411467 240.247719 
L 775.010082 238.176911 
L 776.608697 258.968043 
L 778.207313 247.192021 
L 779.805928 234.000846 
L 781.404544 258.084623 
L 783.003159 230.799529 
L 784.601774 228.821686 
L 786.20039 241.911406 
L 787.799005 248.826681 
L 789.397621 246.204864 
L 790.996236 247.670203 
L 792.594852 264.482647 
L 794.193467 254.621519 
L 795.792082 249.482076 
L 797.390698 260.235801 
L 798.989313 249.693502 
L 800.587929 257.72328 
L 802.186544 239.527723 
L 803.785159 271.038926 
L 805.383775 261.407685 
L 806.98239 269.23596 
L 808.581006 269.474162 
L 810.179621 270.546175 
L 811.778236 250.006957 
L 813.376852 241.89799 
L 814.975467 238.558335 
L 816.574083 230.754213 
L 818.172698 248.696411 
L 819.771314 230.181076 
L 821.369929 248.378485 
L 822.968544 252.541756 
L 824.56716 263.756048 
L 826.165775 245.415442 
L 827.764391 233.972053 
L 829.363006 254.931938 
L 830.961621 267.04975 
L 832.560237 257.373517 
L 834.158852 238.561284 
L 835.757468 254.882121 
L 837.356083 245.805181 
L 838.954698 239.038114 
L 840.553314 241.183758 
L 842.151929 250.090216 
L 843.750545 241.421026 
L 845.34916 252.289215 
L 846.947776 251.309225 
L 848.546391 223.197693 
L 850.145006 203.856116 
L 851.743622 158.009002 
L 853.342237 209.627382 
L 854.940853 106.701345 
L 856.539468 126.650822 
L 858.138083 200.254752 
L 859.736699 195.539594 
L 861.335314 222.836932 
L 862.93393 258.238422 
L 864.532545 271.294634 
L 866.131161 276.53746 
L 867.729776 267.421732 
L 869.328391 259.617438 
L 870.927007 257.798236 
L 872.525622 269.159437 
L 874.124238 279.557284 
L 875.722853 268.074751 
L 877.321468 258.180408 
L 878.920084 272.428077 
L 880.518699 256.430705 
L 882.117315 270.22123 
L 883.71593 271.526923 
L 885.314545 255.334909 
L 885.314545 255.334909 
" clip-path="url(#p669c414ce9)" style="fill: none; stroke: #ff7f0e; stroke-width: 1.2; stroke-linecap: square"/>
   </g>
   <g id="line2d_16">
    <path d="M 87.605455 90.63326 
L 89.20407 88.018693 
L 90.802685 163.151971 
L 92.401301 161.258214 
L 93.999916 202.711975 
L 95.598532 200.486236 
L 97.197147 197.705135 
L 98.795762 199.448481 
L 100.394378 208.719454 
L 103.591609 274.544633 
L 105.190224 282.788239 
L 106.788839 284.664782 
L 108.387455 294.002387 
L 109.98607 291.400518 
L 111.584686 287.885217 
L 114.781917 281.808443 
L 116.380532 274.893845 
L 117.979147 278.856477 
L 119.577763 292.995901 
L 121.176378 283.250318 
L 122.774994 284.682722 
L 124.373609 285.286591 
L 125.972224 270.916555 
L 127.57084 287.69688 
L 129.169455 294.583227 
L 130.768071 285.496437 
L 132.366686 284.592074 
L 133.965302 263.673617 
L 135.563917 287.871149 
L 137.162532 281.702785 
L 138.761148 278.524834 
L 140.359763 260.71582 
L 141.958379 246.929576 
L 143.556994 258.701248 
L 145.155609 283.613526 
L 146.754225 292.277309 
L 148.35284 284.319223 
L 149.951456 292.913258 
L 151.550071 280.456272 
L 153.148686 295.319339 
L 154.747302 282.278524 
L 156.345917 293.529988 
L 157.944533 287.398445 
L 159.543148 287.364478 
L 161.141764 286.046098 
L 162.740379 283.871554 
L 164.338994 290.588414 
L 165.93761 290.402059 
L 167.536225 285.495172 
L 169.134841 287.887009 
L 170.733456 286.079308 
L 172.332071 280.465902 
L 173.930687 250.25509 
L 175.529302 255.472919 
L 177.127918 248.602709 
L 178.726533 273.112252 
L 180.325148 252.001984 
L 181.923764 237.749386 
L 183.522379 254.775296 
L 185.120995 261.468777 
L 186.71961 289.620737 
L 188.318226 288.092241 
L 189.916841 291.060653 
L 191.515456 299.28346 
L 193.114072 286.751128 
L 194.712687 291.794345 
L 196.311303 277.612898 
L 197.909918 289.880482 
L 199.508533 279.734586 
L 201.107149 279.53725 
L 202.705764 294.391031 
L 204.30438 282.328835 
L 205.902995 285.643023 
L 207.50161 284.575228 
L 209.100226 286.103773 
L 210.698841 288.621224 
L 212.297457 289.185991 
L 213.896072 292.134436 
L 215.494688 285.074518 
L 217.093303 292.660239 
L 218.691918 289.067229 
L 220.290534 292.582184 
L 221.889149 278.730446 
L 223.487765 280.379167 
L 225.08638 295.377161 
L 226.684995 286.690933 
L 228.283611 284.126089 
L 229.882226 289.86282 
L 231.480842 298.993424 
L 233.079457 299.854611 
L 234.678073 299.895744 
L 237.875303 287.674172 
L 239.473919 287.521796 
L 241.072534 299.574579 
L 242.67115 296.555498 
L 244.269765 296.869553 
L 245.86838 299.532151 
L 247.466996 288.40294 
L 249.065611 288.904639 
L 250.664227 302.061395 
L 252.262842 303.746098 
L 253.861457 292.488806 
L 255.460073 300.454931 
L 257.058688 292.183921 
L 258.657304 288.685125 
L 260.255919 298.61385 
L 261.854535 287.904208 
L 263.45315 299.653863 
L 265.051765 295.041931 
L 266.650381 281.525336 
L 268.248996 283.137787 
L 269.847612 277.924177 
L 271.446227 262.61919 
L 273.044842 262.446688 
L 274.643458 283.456638 
L 276.242073 288.234356 
L 277.840689 288.774828 
L 279.439304 284.615326 
L 281.037919 294.662804 
L 282.636535 298.394229 
L 284.23515 298.035664 
L 285.833766 283.079757 
L 287.432381 271.089185 
L 289.030997 250.562438 
L 290.629612 244.595875 
L 292.228227 205.640726 
L 295.425458 61.923284 
L 297.024074 121.783928 
L 298.622689 199.037141 
L 300.221304 255.577314 
L 301.81992 248.296382 
L 303.418535 274.467055 
L 305.017151 271.815175 
L 306.615766 278.965395 
L 308.214381 297.819169 
L 309.812997 290.311395 
L 311.411612 291.246436 
L 313.010228 284.654723 
L 314.608843 294.429808 
L 316.207459 290.150583 
L 317.806074 294.204079 
L 319.404689 282.715317 
L 321.003305 295.07104 
L 322.60192 295.449905 
L 324.200536 289.948031 
L 325.799151 288.471147 
L 327.397766 290.147451 
L 328.996382 286.954217 
L 330.594997 288.10977 
L 332.193613 300.496464 
L 333.792228 301.227208 
L 335.390844 293.745654 
L 336.989459 298.36313 
L 338.588074 304.490598 
L 340.18669 299.338532 
L 341.785305 288.449575 
L 343.383921 299.51758 
L 344.982536 301.873485 
L 346.581151 303.033436 
L 348.179767 301.007672 
L 349.778382 291.407953 
L 351.376998 299.104697 
L 352.975613 295.805974 
L 354.574228 305.843966 
L 356.172844 293.727883 
L 357.771459 305.843966 
L 362.567306 305.843966 
L 364.165921 302.121805 
L 365.764536 292.552176 
L 367.363152 305.843966 
L 370.560383 305.843966 
L 372.158998 298.163443 
L 373.757613 296.116768 
L 375.356229 304.80109 
L 376.954844 290.450471 
L 378.55346 304.136407 
L 380.152075 305.843966 
L 381.75069 301.520766 
L 383.349306 292.445047 
L 384.947921 304.574285 
L 386.546537 295.833901 
L 388.145152 301.51879 
L 389.743768 295.010022 
L 391.342383 296.204066 
L 394.539614 289.549646 
L 396.138229 300.377992 
L 397.736845 285.634065 
L 399.33546 299.223426 
L 402.532691 299.498344 
L 404.131306 292.458273 
L 405.729922 294.193699 
L 407.328537 296.148111 
L 408.927152 304.76086 
L 410.525768 299.228534 
L 412.124383 296.875662 
L 413.722999 289.20445 
L 415.321614 282.168833 
L 416.92023 289.300831 
L 418.518845 290.747142 
L 420.11746 289.323782 
L 421.716076 297.011161 
L 423.314691 296.247101 
L 424.913307 296.559193 
L 426.511922 287.926915 
L 428.110537 289.587166 
L 429.709153 286.326462 
L 431.307768 291.548054 
L 432.906384 285.74134 
L 434.504999 293.288065 
L 436.103615 297.880243 
L 437.70223 293.417848 
L 439.300845 302.66076 
L 440.899461 299.29997 
L 442.498076 296.866404 
L 444.096692 305.843966 
L 445.695307 305.843966 
L 447.293922 295.123464 
L 448.892538 293.690571 
L 450.491153 302.681818 
L 452.089769 305.843966 
L 453.688384 276.956688 
L 455.286999 305.843966 
L 460.082846 305.843966 
L 461.681461 275.551903 
L 463.280077 277.731521 
L 464.878692 285.052711 
L 466.477307 305.843966 
L 471.273154 305.843966 
L 472.871769 298.345214 
L 474.470384 293.382701 
L 476.069 294.876136 
L 477.667615 300.960965 
L 479.266231 297.678858 
L 480.864846 300.068523 
L 482.463461 287.717958 
L 484.062077 305.843966 
L 485.660692 305.843966 
L 487.259308 297.207223 
L 488.857923 305.843966 
L 495.252385 305.843966 
L 496.851 300.274767 
L 498.449616 296.150216 
L 500.048231 280.728982 
L 501.646846 269.482464 
L 503.245462 282.067864 
L 504.844077 269.177114 
L 506.442693 277.840053 
L 508.041308 281.996407 
L 509.639923 293.321789 
L 511.238539 289.90133 
L 512.837154 275.829556 
L 514.43577 290.857247 
M 546.408078 286.317211 
L 548.006693 281.082717 
L 549.605309 287.418254 
L 551.203924 285.734559 
L 552.80254 286.140809 
L 554.401155 296.861064 
L 555.99977 283.176297 
L 557.598386 287.549596 
L 559.197001 295.159585 
L 560.795617 297.943089 
L 562.394232 282.363652 
L 563.992848 288.230954 
L 565.591463 290.811763 
L 567.190078 294.53463 
L 568.788694 288.877236 
L 570.387309 286.079849 
L 571.985925 290.102887 
L 573.58454 289.408136 
L 575.183155 281.288067 
L 576.781771 288.608326 
L 578.380386 272.519483 
L 579.979002 233.207312 
L 581.577617 130.899823 
L 583.176232 98.788184 
L 584.774848 223.725376 
L 586.373463 271.837911 
L 587.972079 278.128951 
L 589.570694 279.028035 
L 591.16931 260.665922 
L 592.767925 258.711815 
L 594.36654 275.93831 
L 595.965156 285.269045 
L 597.563771 290.917604 
L 599.162387 291.10078 
L 600.761002 282.942956 
L 602.359617 290.033944 
L 603.958233 281.908717 
L 605.556848 284.265293 
L 607.155464 294.874595 
L 608.754079 297.484843 
L 610.352694 295.762107 
L 611.95131 276.470601 
L 613.549925 284.206347 
L 615.148541 290.235307 
L 616.747156 299.522049 
L 618.345772 296.097541 
L 619.944387 290.860599 
L 621.543002 302.459968 
L 623.141618 298.590713 
L 624.740233 297.828301 
L 626.338849 287.703702 
L 627.937464 286.998175 
L 629.536079 274.947818 
L 631.134695 278.689081 
L 632.73331 283.354774 
L 634.331926 294.985989 
L 635.930541 294.880388 
L 637.529156 288.408213 
L 639.127772 284.230248 
L 640.726387 281.863814 
L 642.325003 287.938741 
L 643.923618 282.396307 
L 645.522234 282.810902 
L 647.120849 283.532484 
L 648.719464 294.604095 
L 650.31808 280.003129 
L 651.916695 292.103068 
L 653.515311 291.013158 
L 655.113926 283.740405 
L 656.712541 278.769746 
L 658.311157 250.804984 
L 659.909772 277.091883 
L 661.508388 296.245526 
L 663.107003 293.679704 
L 666.304234 278.678855 
L 667.902849 266.94555 
L 669.501465 263.965903 
L 671.10008 267.86031 
L 672.698696 261.161801 
L 674.297311 195.825181 
L 675.895926 110.154216 
L 677.494542 97.762604 
L 679.093157 154.985504 
L 680.691773 240.693519 
L 682.290388 204.435084 
L 683.889003 220.405473 
L 685.487619 254.457053 
L 687.086234 272.219118 
L 688.68485 279.962727 
L 690.283465 266.208579 
L 691.882081 277.426684 
L 693.480696 284.819869 
L 695.079311 280.592846 
L 696.677927 266.747659 
L 698.276542 277.136766 
L 699.875158 265.985556 
L 701.473773 282.848606 
L 703.072388 277.539777 
L 704.671004 260.139279 
L 706.269619 265.485302 
L 707.868235 256.211162 
L 709.46685 264.416308 
L 711.065465 262.639049 
L 712.664081 266.548217 
L 714.262696 267.728649 
L 715.861312 265.223886 
L 717.459927 266.746757 
L 719.058543 265.88069 
L 720.657158 266.229054 
L 722.255773 268.043742 
L 725.453004 284.488813 
L 727.05162 276.332479 
L 728.650235 278.719038 
L 730.24885 270.713922 
L 731.847466 285.138349 
L 733.446081 287.84483 
L 735.044697 281.753138 
L 736.643312 283.287945 
L 738.241927 281.893168 
L 739.840543 272.64376 
L 741.439158 267.787958 
L 743.037774 281.675694 
L 744.636389 285.384554 
L 746.235005 271.328221 
L 747.83362 252.928738 
L 749.432235 249.136214 
L 751.030851 235.257276 
L 752.629466 238.358456 
L 754.228082 249.230751 
L 755.826697 264.311095 
L 757.425312 262.505578 
L 759.023928 262.073204 
L 760.622543 273.267507 
L 762.221159 274.579507 
L 763.819774 268.920424 
L 765.41839 281.514237 
L 767.017005 271.534409 
L 768.61562 228.872158 
L 770.214236 222.813185 
L 771.812851 209.5738 
L 773.411467 235.265915 
L 775.010082 244.445767 
L 776.608697 225.272277 
L 778.207313 224.862658 
L 779.805928 246.352781 
L 781.404544 245.964977 
L 783.003159 224.508936 
L 784.601774 218.293583 
L 786.20039 225.708945 
L 787.799005 229.852502 
L 789.397621 226.752814 
L 790.996236 250.068705 
L 792.594852 265.955719 
L 794.193467 247.236359 
L 795.792082 254.063465 
L 797.390698 246.600108 
L 798.989313 259.287717 
L 800.587929 261.978893 
L 802.186544 257.332405 
L 803.785159 256.228986 
L 805.383775 275.574376 
L 806.98239 286.292258 
L 808.581006 290.343088 
L 810.179621 298.851334 
L 813.376852 236.171589 
L 814.975467 222.578251 
L 816.574083 216.274385 
L 819.771314 239.857832 
L 821.369929 259.834547 
L 822.968544 264.000072 
L 824.56716 275.843319 
L 826.165775 267.561066 
L 827.764391 264.678066 
L 829.363006 263.704725 
L 830.961621 272.021623 
L 832.560237 251.098453 
L 834.158852 245.98764 
L 835.757468 245.14491 
L 837.356083 242.098792 
L 838.954698 244.607246 
L 842.151929 251.846435 
L 843.750545 238.592017 
L 845.34916 243.131959 
L 846.947776 239.942541 
L 848.546391 167.655298 
L 850.145006 156.52137 
L 851.743622 152.932974 
L 853.342237 211.764709 
L 854.940853 162.414519 
L 856.539468 150.185552 
L 858.138083 202.361476 
L 859.736699 243.02623 
L 861.335314 260.901433 
L 862.93393 284.010465 
L 864.532545 293.217342 
L 866.131161 293.708053 
L 867.729776 276.195922 
L 869.328391 288.058096 
L 870.927007 283.382865 
L 872.525622 289.10877 
L 874.124238 292.570514 
L 875.722853 285.41894 
L 877.321468 272.593871 
L 878.920084 284.189366 
L 880.518699 263.903832 
L 882.117315 266.80472 
L 883.71593 280.927045 
L 885.314545 267.615306 
L 885.314545 267.615306 
" clip-path="url(#p669c414ce9)" style="fill: none; stroke-dasharray: 4.44,1.92; stroke-dashoffset: 0; stroke: #9467bd; stroke-width: 1.2"/>
   </g>
   <g id="patch_3">
    <path d="M 47.72 318.04 
L 47.72 49.72725 
" style="fill: none; stroke: #000000; stroke-width: 0.8; stroke-linejoin: miter; stroke-linecap: square"/>
   </g>
   <g id="patch_4">
    <path d="M 925.2 318.04 
L 925.2 49.72725 
" style="fill: none; stroke: #000000; stroke-width: 0.8; stroke-linejoin: miter; stroke-linecap: square"/>
   </g>
   <g id="patch_5">
    <path d="M 47.72 318.04 
L 925.2 318.04 
" style="fill: none; stroke: #000000; stroke-width: 0.8; stroke-linejoin: miter; stroke-linecap: square"/>
   </g>
   <g id="patch_6">
    <path d="M 47.72 49.72725 
L 925.2 49.72725 
" style="fill: none; stroke: #000000; stroke-width: 0.8; stroke-linejoin: miter; stroke-linecap: square"/>
   </g>
   <g id="legend_1">
    <g id="line2d_17">
     <path d="M 366.215469 62.825688 
L 376.215469 62.825688 
L 386.215469 62.825688 
" style="fill: none; stroke: #2ca02c; stroke-width: 1.2; stroke-linecap: square"/>
    </g>
    <g id="text_16">
     <!-- ENCSR203XPU -->
     <g transform="translate(394.215469 66.325688) scale(0.1 -0.1)">
      <defs>
       <path id="DejaVuSans-45" d="M 628 4666 
L 3578 4666 
L 3578 4134 
L 1259 4134 
L 1259 2753 
L 3481 2753 
L 3481 2222 
L 1259 2222 
L 1259 531 
L 3634 531 
L 3634 0 
L 628 0 
L 628 4666 
z
" transform="scale(0.015625)"/>
       <path id="DejaVuSans-4e" d="M 628 4666 
L 1478 4666 
L 3547 763 
L 3547 4666 
L 4159 4666 
L 4159 0 
L 3309 0 
L 1241 3903 
L 1241 0 
L 628 0 
L 628 4666 
z
" transform="scale(0.015625)"/>
       <path id="DejaVuSans-43" d="M 4122 4306 
L 4122 3641 
Q 3803 3938 3442 4084 
Q 3081 4231 2675 4231 
Q 1875 4231 1450 3742 
Q 1025 3253 1025 2328 
Q 1025 1406 1450 917 
Q 1875 428 2675 428 
Q 3081 428 3442 575 
Q 3803 722 4122 1019 
L 4122 359 
Q 3791 134 3420 21 
Q 3050 -91 2638 -91 
Q 1578 -91 968 557 
Q 359 1206 359 2328 
Q 359 3453 968 4101 
Q 1578 4750 2638 4750 
Q 3056 4750 3426 4639 
Q 3797 4528 4122 4306 
z
" transform="scale(0.015625)"/>
       <path id="DejaVuSans-53" d="M 3425 4513 
L 3425 3897 
Q 3066 4069 2747 4153 
Q 2428 4238 2131 4238 
Q 1616 4238 1336 4038 
Q 1056 3838 1056 3469 
Q 1056 3159 1242 3001 
Q 1428 2844 1947 2747 
L 2328 2669 
Q 3034 2534 3370 2195 
Q 3706 1856 3706 1288 
Q 3706 609 3251 259 
Q 2797 -91 1919 -91 
Q 1588 -91 1214 -16 
Q 841 59 441 206 
L 441 856 
Q 825 641 1194 531 
Q 1563 422 1919 422 
Q 2459 422 2753 634 
Q 3047 847 3047 1241 
Q 3047 1584 2836 1778 
Q 2625 1972 2144 2069 
L 1759 2144 
Q 1053 2284 737 2584 
Q 422 2884 422 3419 
Q 422 4038 858 4394 
Q 1294 4750 2059 4750 
Q 2388 4750 2728 4690 
Q 3069 4631 3425 4513 
z
" transform="scale(0.015625)"/>
       <path id="DejaVuSans-52" d="M 2841 2188 
Q 3044 2119 3236 1894 
Q 3428 1669 3622 1275 
L 4263 0 
L 3584 0 
L 2988 1197 
Q 2756 1666 2539 1819 
Q 2322 1972 1947 1972 
L 1259 1972 
L 1259 0 
L 628 0 
L 628 4666 
L 2053 4666 
Q 2853 4666 3247 4331 
Q 3641 3997 3641 3322 
Q 3641 2881 3436 2590 
Q 3231 2300 2841 2188 
z
M 1259 4147 
L 1259 2491 
L 2053 2491 
Q 2509 2491 2742 2702 
Q 2975 2913 2975 3322 
Q 2975 3731 2742 3939 
Q 2509 4147 2053 4147 
L 1259 4147 
z
" transform="scale(0.015625)"/>
       <path id="DejaVuSans-58" d="M 403 4666 
L 1081 4666 
L 2241 2931 
L 3406 4666 
L 4084 4666 
L 2584 2425 
L 4184 0 
L 3506 0 
L 2194 1984 
L 872 0 
L 191 0 
L 1856 2491 
L 403 4666 
z
" transform="scale(0.015625)"/>
       <path id="DejaVuSans-50" d="M 1259 4147 
L 1259 2394 
L 2053 2394 
Q 2494 2394 2734 2622 
Q 2975 2850 2975 3272 
Q 2975 3691 2734 3919 
Q 2494 4147 2053 4147 
L 1259 4147 
z
M 628 4666 
L 2053 4666 
Q 2838 4666 3239 4311 
Q 3641 3956 3641 3272 
Q 3641 2581 3239 2228 
Q 2838 1875 2053 1875 
L 1259 1875 
L 1259 0 
L 628 0 
L 628 4666 
z
" transform="scale(0.015625)"/>
       <path id="DejaVuSans-55" d="M 556 4666 
L 1191 4666 
L 1191 1831 
Q 1191 1081 1462 751 
Q 1734 422 2344 422 
Q 2950 422 3222 751 
Q 3494 1081 3494 1831 
L 3494 4666 
L 4128 4666 
L 4128 1753 
Q 4128 841 3676 375 
Q 3225 -91 2344 -91 
Q 1459 -91 1007 375 
Q 556 841 556 1753 
L 556 4666 
z
" transform="scale(0.015625)"/>
      </defs>
      <use xlink:href="#DejaVuSans-45"/>
      <use xlink:href="#DejaVuSans-4e" transform="translate(63.183594 0)"/>
      <use xlink:href="#DejaVuSans-43" transform="translate(137.988281 0)"/>
      <use xlink:href="#DejaVuSans-53" transform="translate(207.8125 0)"/>
      <use xlink:href="#DejaVuSans-52" transform="translate(271.289062 0)"/>
      <use xlink:href="#DejaVuSans-32" transform="translate(340.771484 0)"/>
      <use xlink:href="#DejaVuSans-30" transform="translate(404.394531 0)"/>
      <use xlink:href="#DejaVuSans-33" transform="translate(468.017578 0)"/>
      <use xlink:href="#DejaVuSans-58" transform="translate(531.640625 0)"/>
      <use xlink:href="#DejaVuSans-50" transform="translate(600.146484 0)"/>
      <use xlink:href="#DejaVuSans-55" transform="translate(660.449219 0)"/>
     </g>
    </g>
    <g id="line2d_18">
     <path d="M 366.215469 77.503813 
L 376.215469 77.503813 
L 386.215469 77.503813 
" style="fill: none; stroke: #000000; stroke-width: 1.2; stroke-linecap: square"/>
    </g>
    <g id="text_17">
     <!-- AlphaGenome -->
     <g transform="translate(394.215469 81.003813) scale(0.1 -0.1)">
      <defs>
       <path id="DejaVuSans-41" d="M 2188 4044 
L 1331 1722 
L 3047 1722 
L 2188 4044 
z
M 1831 4666 
L 2547 4666 
L 4325 0 
L 3669 0 
L 3244 1197 
L 1141 1197 
L 716 0 
L 50 0 
L 1831 4666 
z
" transform="scale(0.015625)"/>
       <path id="DejaVuSans-70" d="M 1159 525 
L 1159 -1331 
L 581 -1331 
L 581 3500 
L 1159 3500 
L 1159 2969 
Q 1341 3281 1617 3432 
Q 1894 3584 2278 3584 
Q 2916 3584 3314 3078 
Q 3713 2572 3713 1747 
Q 3713 922 3314 415 
Q 2916 -91 2278 -91 
Q 1894 -91 1617 61 
Q 1341 213 1159 525 
z
M 3116 1747 
Q 3116 2381 2855 2742 
Q 2594 3103 2138 3103 
Q 1681 3103 1420 2742 
Q 1159 2381 1159 1747 
Q 1159 1113 1420 752 
Q 1681 391 2138 391 
Q 2594 391 2855 752 
Q 3116 1113 3116 1747 
z
" transform="scale(0.015625)"/>
       <path id="DejaVuSans-47" d="M 3809 666 
L 3809 1919 
L 2778 1919 
L 2778 2438 
L 4434 2438 
L 4434 434 
Q 4069 175 3628 42 
Q 3188 -91 2688 -91 
Q 1594 -91 976 548 
Q 359 1188 359 2328 
Q 359 3472 976 4111 
Q 1594 4750 2688 4750 
Q 3144 4750 3555 4637 
Q 3966 4525 4313 4306 
L 4313 3634 
Q 3963 3931 3569 4081 
Q 3175 4231 2741 4231 
Q 1884 4231 1454 3753 
Q 1025 3275 1025 2328 
Q 1025 1384 1454 906 
Q 1884 428 2741 428 
Q 3075 428 3337 486 
Q 3600 544 3809 666 
z
" transform="scale(0.015625)"/>
      </defs>
      <use xlink:href="#DejaVuSans-41"/>
      <use xlink:href="#DejaVuSans-6c" transform="translate(68.408203 0)"/>
      <use xlink:href="#DejaVuSans-70" transform="translate(96.191406 0)"/>
      <use xlink:href="#DejaVuSans-68" transform="translate(159.667969 0)"/>
      <use xlink:href="#DejaVuSans-61" transform="translate(223.046875 0)"/>
      <use xlink:href="#DejaVuSans-47" transform="translate(284.326172 0)"/>
      <use xlink:href="#DejaVuSans-65" transform="translate(361.816406 0)"/>
      <use xlink:href="#DejaVuSans-6e" transform="translate(423.339844 0)"/>
      <use xlink:href="#DejaVuSans-6f" transform="translate(486.71875 0)"/>
      <use xlink:href="#DejaVuSans-6d" transform="translate(547.900391 0)"/>
      <use xlink:href="#DejaVuSans-65" transform="translate(645.3125 0)"/>
     </g>
    </g>
    <g id="line2d_19">
     <path d="M 487.581094 62.825688 
L 497.581094 62.825688 
L 507.581094 62.825688 
" style="fill: none; stroke: #ff7f0e; stroke-width: 1.2; stroke-linecap: square"/>
    </g>
    <g id="text_18">
     <!-- DiMeLo pooled -->
     <g transform="translate(515.581094 66.325688) scale(0.1 -0.1)">
      <defs>
       <path id="DejaVuSans-44" d="M 1259 4147 
L 1259 519 
L 2022 519 
Q 2988 519 3436 956 
Q 3884 1394 3884 2338 
Q 3884 3275 3436 3711 
Q 2988 4147 2022 4147 
L 1259 4147 
z
M 628 4666 
L 1925 4666 
Q 3281 4666 3915 4102 
Q 4550 3538 4550 2338 
Q 4550 1131 3912 565 
Q 3275 0 1925 0 
L 628 0 
L 628 4666 
z
" transform="scale(0.015625)"/>
       <path id="DejaVuSans-4d" d="M 628 4666 
L 1569 4666 
L 2759 1491 
L 3956 4666 
L 4897 4666 
L 4897 0 
L 4281 0 
L 4281 4097 
L 3078 897 
L 2444 897 
L 1241 4097 
L 1241 0 
L 628 0 
L 628 4666 
z
" transform="scale(0.015625)"/>
       <path id="DejaVuSans-4c" d="M 628 4666 
L 1259 4666 
L 1259 531 
L 3531 531 
L 3531 0 
L 628 0 
L 628 4666 
z
" transform="scale(0.015625)"/>
      </defs>
      <use xlink:href="#DejaVuSans-44"/>
      <use xlink:href="#DejaVuSans-69" transform="translate(77.001953 0)"/>
      <use xlink:href="#DejaVuSans-4d" transform="translate(104.785156 0)"/>
      <use xlink:href="#DejaVuSans-65" transform="translate(191.064453 0)"/>
      <use xlink:href="#DejaVuSans-4c" transform="translate(252.587891 0)"/>
      <use xlink:href="#DejaVuSans-6f" transform="translate(306.550781 0)"/>
      <use xlink:href="#DejaVuSans-20" transform="translate(367.732422 0)"/>
      <use xlink:href="#DejaVuSans-70" transform="translate(399.519531 0)"/>
      <use xlink:href="#DejaVuSans-6f" transform="translate(462.996094 0)"/>
      <use xlink:href="#DejaVuSans-6f" transform="translate(524.177734 0)"/>
      <use xlink:href="#DejaVuSans-6c" transform="translate(585.359375 0)"/>
      <use xlink:href="#DejaVuSans-65" transform="translate(613.142578 0)"/>
      <use xlink:href="#DejaVuSans-64" transform="translate(674.666016 0)"/>
     </g>
    </g>
    <g id="line2d_20">
     <path d="M 487.581094 77.503813 
L 497.581094 77.503813 
L 507.581094 77.503813 
" style="fill: none; stroke-dasharray: 4.44,1.92; stroke-dashoffset: 0; stroke: #9467bd; stroke-width: 1.2"/>
    </g>
    <g id="text_19">
     <!-- HyenaDNA pooled -->
     <g transform="translate(515.581094 81.003813) scale(0.1 -0.1)">
      <defs>
       <path id="DejaVuSans-48" d="M 628 4666 
L 1259 4666 
L 1259 2753 
L 3553 2753 
L 3553 4666 
L 4184 4666 
L 4184 0 
L 3553 0 
L 3553 2222 
L 1259 2222 
L 1259 0 
L 628 0 
L 628 4666 
z
" transform="scale(0.015625)"/>
       <path id="DejaVuSans-79" d="M 2059 -325 
Q 1816 -950 1584 -1140 
Q 1353 -1331 966 -1331 
L 506 -1331 
L 506 -850 
L 844 -850 
Q 1081 -850 1212 -737 
Q 1344 -625 1503 -206 
L 1606 56 
L 191 3500 
L 800 3500 
L 1894 763 
L 2988 3500 
L 3597 3500 
L 2059 -325 
z
" transform="scale(0.015625)"/>
      </defs>
      <use xlink:href="#DejaVuSans-48"/>
      <use xlink:href="#DejaVuSans-79" transform="translate(75.195312 0)"/>
      <use xlink:href="#DejaVuSans-65" transform="translate(134.375 0)"/>
      <use xlink:href="#DejaVuSans-6e" transform="translate(195.898438 0)"/>
      <use xlink:href="#DejaVuSans-61" transform="translate(259.277344 0)"/>
      <use xlink:href="#DejaVuSans-44" transform="translate(320.556641 0)"/>
      <use xlink:href="#DejaVuSans-4e" transform="translate(397.558594 0)"/>
      <use xlink:href="#DejaVuSans-41" transform="translate(472.363281 0)"/>
      <use xlink:href="#DejaVuSans-20" transform="translate(540.771484 0)"/>
      <use xlink:href="#DejaVuSans-70" transform="translate(572.558594 0)"/>
      <use xlink:href="#DejaVuSans-6f" transform="translate(636.035156 0)"/>
      <use xlink:href="#DejaVuSans-6f" transform="translate(697.216797 0)"/>
      <use xlink:href="#DejaVuSans-6c" transform="translate(758.398438 0)"/>
      <use xlink:href="#DejaVuSans-65" transform="translate(786.181641 0)"/>
      <use xlink:href="#DejaVuSans-64" transform="translate(847.705078 0)"/>
     </g>
    </g>
   </g>
  </g>
  <g id="text_20">
   <!-- chr16 region 50: overlay -->
   <g transform="translate(394.170938 16.318125) scale(0.12 -0.12)">
    <defs>
     <path id="DejaVuSans-35" d="M 691 4666 
L 3169 4666 
L 3169 4134 
L 1269 4134 
L 1269 2991 
Q 1406 3038 1543 3061 
Q 1681 3084 1819 3084 
Q 2600 3084 3056 2656 
Q 3513 2228 3513 1497 
Q 3513 744 3044 326 
Q 2575 -91 1722 -91 
Q 1428 -91 1123 -41 
Q 819 9 494 109 
L 494 744 
Q 775 591 1075 516 
Q 1375 441 1709 441 
Q 2250 441 2565 725 
Q 2881 1009 2881 1497 
Q 2881 1984 2565 2268 
Q 2250 2553 1709 2553 
Q 1456 2553 1204 2497 
Q 953 2441 691 2322 
L 691 4666 
z
" transform="scale(0.015625)"/>
     <path id="DejaVuSans-3a" d="M 750 794 
L 1409 794 
L 1409 0 
L 750 0 
L 750 794 
z
M 750 3309 
L 1409 3309 
L 1409 2516 
L 750 2516 
L 750 3309 
z
" transform="scale(0.015625)"/>
     <path id="DejaVuSans-76" d="M 191 3500 
L 800 3500 
L 1894 563 
L 2988 3500 
L 3597 3500 
L 2284 0 
L 1503 0 
L 191 3500 
z
" transform="scale(0.015625)"/>
    </defs>
    <use xlink:href="#DejaVuSans-63"/>
    <use xlink:href="#DejaVuSans-68" transform="translate(54.980469 0)"/>
    <use xlink:href="#DejaVuSans-72" transform="translate(118.359375 0)"/>
    <use xlink:href="#DejaVuSans-31" transform="translate(159.472656 0)"/>
    <use xlink:href="#DejaVuSans-36" transform="translate(223.095703 0)"/>
    <use xlink:href="#DejaVuSans-20" transform="translate(286.71875 0)"/>
    <use xlink:href="#DejaVuSans-72" transform="translate(318.505859 0)"/>
    <use xlink:href="#DejaVuSans-65" transform="translate(357.369141 0)"/>
    <use xlink:href="#DejaVuSans-67" transform="translate(418.892578 0)"/>
    <use xlink:href="#DejaVuSans-69" transform="translate(482.369141 0)"/>
    <use xlink:href="#DejaVuSans-6f" transform="translate(510.152344 0)"/>
    <use xlink:href="#DejaVuSans-6e" transform="translate(571.333984 0)"/>
    <use xlink:href="#DejaVuSans-20" transform="translate(634.712891 0)"/>
    <use xlink:href="#DejaVuSans-35" transform="translate(666.5 0)"/>
    <use xlink:href="#DejaVuSans-30" transform="translate(730.123047 0)"/>
    <use xlink:href="#DejaVuSans-3a" transform="translate(793.746094 0)"/>
    <use xlink:href="#DejaVuSans-20" transform="translate(827.4375 0)"/>
    <use xlink:href="#DejaVuSans-6f" transform="translate(859.224609 0)"/>
    <use xlink:href="#DejaVuSans-76" transform="translate(920.40625 0)"/>
    <use xlink:href="#DejaVuSans-65" transform="translate(979.585938 0)"/>
    <use xlink:href="#DejaVuSans-72" transform="translate(1041.109375 0)"/>
    <use xlink:href="#DejaVuSans-6c" transform="translate(1082.222656 0)"/>
    <use xlink:href="#DejaVuSans-61" transform="translate(1110.005859 0)"/>
    <use xlink:href="#DejaVuSans-79" transform="translate(1171.285156 0)"/>
   </g>
   <!-- chr16_rank51_score2.207_reads409 -->
   <g transform="translate(359.357813 29.7555) scale(0.12 -0.12)">
    <defs>
     <path id="DejaVuSans-5f" d="M 3263 -1063 
L 3263 -1509 
L -63 -1509 
L -63 -1063 
L 3263 -1063 
z
" transform="scale(0.015625)"/>
     <path id="DejaVuSans-6b" d="M 581 4863 
L 1159 4863 
L 1159 1991 
L 2875 3500 
L 3609 3500 
L 1753 1863 
L 3688 0 
L 2938 0 
L 1159 1709 
L 1159 0 
L 581 0 
L 581 4863 
z
" transform="scale(0.015625)"/>
    </defs>
    <use xlink:href="#DejaVuSans-63"/>
    <use xlink:href="#DejaVuSans-68" transform="translate(54.980469 0)"/>
    <use xlink:href="#DejaVuSans-72" transform="translate(118.359375 0)"/>
    <use xlink:href="#DejaVuSans-31" transform="translate(159.472656 0)"/>
    <use xlink:href="#DejaVuSans-36" transform="translate(223.095703 0)"/>
    <use xlink:href="#DejaVuSans-5f" transform="translate(286.71875 0)"/>
    <use xlink:href="#DejaVuSans-72" transform="translate(336.71875 0)"/>
    <use xlink:href="#DejaVuSans-61" transform="translate(377.832031 0)"/>
    <use xlink:href="#DejaVuSans-6e" transform="translate(439.111328 0)"/>
    <use xlink:href="#DejaVuSans-6b" transform="translate(502.490234 0)"/>
    <use xlink:href="#DejaVuSans-35" transform="translate(560.400391 0)"/>
    <use xlink:href="#DejaVuSans-31" transform="translate(624.023438 0)"/>
    <use xlink:href="#DejaVuSans-5f" transform="translate(687.646484 0)"/>
    <use xlink:href="#DejaVuSans-73" transform="translate(737.646484 0)"/>
    <use xlink:href="#DejaVuSans-63" transform="translate(789.746094 0)"/>
    <use xlink:href="#DejaVuSans-6f" transform="translate(844.726562 0)"/>
    <use xlink:href="#DejaVuSans-72" transform="translate(905.908203 0)"/>
    <use xlink:href="#DejaVuSans-65" transform="translate(944.771484 0)"/>
    <use xlink:href="#DejaVuSans-32" transform="translate(1006.294922 0)"/>
    <use xlink:href="#DejaVuSans-2e" transform="translate(1069.917969 0)"/>
    <use xlink:href="#DejaVuSans-32" transform="translate(1101.705078 0)"/>
    <use xlink:href="#DejaVuSans-30" transform="translate(1165.328125 0)"/>
    <use xlink:href="#DejaVuSans-37" transform="translate(1228.951172 0)"/>
    <use xlink:href="#DejaVuSans-5f" transform="translate(1292.574219 0)"/>
    <use xlink:href="#DejaVuSans-72" transform="translate(1342.574219 0)"/>
    <use xlink:href="#DejaVuSans-65" transform="translate(1381.4375 0)"/>
    <use xlink:href="#DejaVuSans-61" transform="translate(1442.960938 0)"/>
    <use xlink:href="#DejaVuSans-64" transform="translate(1504.240234 0)"/>
    <use xlink:href="#DejaVuSans-73" transform="translate(1567.716797 0)"/>
    <use xlink:href="#DejaVuSans-34" transform="translate(1619.816406 0)"/>
    <use xlink:href="#DejaVuSans-30" transform="translate(1683.439453 0)"/>
    <use xlink:href="#DejaVuSans-39" transform="translate(1747.0625 0)"/>
   </g>
  </g>
 </g>
 <defs>
  <clipPath id="p669c414ce9">
   <rect x="47.72" y="49.72725" width="877.48" height="268.31275"/>
  </clipPath>
 </defs>
</svg>
