<?xml version="1.0" encoding="utf-8" standalone="no"?>
<!DOCTYPE svg PUBLIC "-//W3C//DTD SVG 1.1//EN"
  "http://www.w3.org/Graphics/SVG/1.1/DTD/svg11.dtd">
<svg xmlns:xlink="http://www.w3.org/1999/xlink" width="936pt" height="360pt" viewBox="0 0 936 360" xmlns="http://www.w3.org/2000/svg" version="1.1">
 <metadata>
  <rdf:RDF xmlns:dc="http://purl.org/dc/elements/1.1/" xmlns:cc="http://creativecommons.org/ns#" xmlns:rdf="http://www.w3.org/1999/02/22-rdf-syntax-ns#">
   <cc:Work>
    <dc:type rdf:resource="http://purl.org/dc/dcmitype/StillImage"/>
    <dc:date>2026-07-17T20:04:56.614588</dc:date>
    <dc:format>image/svg+xml</dc:format>
    <dc:creator>
     <cc:Agent>
      <dc:title>Matplotlib v3.10.8, https://matplotlib.org/</dc:title>
     </cc:Agent>
    </dc:creator>
   </cc:Work>
  </rdf:RDF>
 </metadata>
 <defs>
  <style type="text/css">*{stroke-linejoin: round; stroke-linecap: butt}</style>
 </defs>
 <g id="figure_1">
  <g id="patch_1">
   <path d="M 0 360 
L 936 360 
L 936 0 
L 0 0 
z
" style="fill: #ffffff"/>
  </g>
  <g id="axes_1">
   <g id="patch_2">
    <path d="M 47.72 318.04 
L 925.2 318.04 
L 925.2 49.72725 
L 47.72 49.72725 
z
" style="fill: #ffffff"/>
   </g>
   <g id="matplotlib.axis_1">
    <g id="xtick_1">
     <g id="line2d_1">
      <defs>
       <path id="mbadcfe3462" d="M 0 0 
L 0 3.5 
" style="stroke: #000000; stroke-width: 0.8"/>
      </defs>
      <g>
       <use xlink:href="#mbadcfe3462" x="86.806147" y="318.04" style="stroke: #000000; stroke-width: 0.8"/>
      </g>
     </g>
     <g id="text_1">
      <!-- 6.740 -->
      <g transform="translate(72.492084 332.638438) scale(0.1 -0.1)">
       <defs>
        <path id="DejaVuSans-36" d="M 2113 2584 
Q 1688 2584 1439 2293 
Q 1191 2003 1191 1497 
Q 1191 994 1439 701 
Q 1688 409 2113 409 
Q 2538 409 2786 701 
Q 3034 994 3034 1497 
Q 3034 2003 2786 2293 
Q 2538 2584 2113 2584 
z
M 3366 4563 
L 3366 3988 
Q 3128 4100 2886 4159 
Q 2644 4219 2406 4219 
Q 1781 4219 1451 3797 
Q 1122 3375 1075 2522 
Q 1259 2794 1537 2939 
Q 1816 3084 2150 3084 
Q 2853 3084 3261 2657 
Q 3669 2231 3669 1497 
Q 3669 778 3244 343 
Q 2819 -91 2113 -91 
Q 1303 -91 875 529 
Q 447 1150 447 2328 
Q 447 3434 972 4092 
Q 1497 4750 2381 4750 
Q 2619 4750 2861 4703 
Q 3103 4656 3366 4563 
z
" transform="scale(0.015625)"/>
        <path id="DejaVuSans-2e" d="M 684 794 
L 1344 794 
L 1344 0 
L 684 0 
L 684 794 
z
" transform="scale(0.015625)"/>
        <path id="DejaVuSans-37" d="M 525 4666 
L 3525 4666 
L 3525 4397 
L 1831 0 
L 1172 0 
L 2766 4134 
L 525 4134 
L 525 4666 
z
" transform="scale(0.015625)"/>
        <path id="DejaVuSans-34" d="M 2419 4116 
L 825 1625 
L 2419 1625 
L 2419 4116 
z
M 2253 4666 
L 3047 4666 
L 3047 1625 
L 3713 1625 
L 3713 1100 
L 3047 1100 
L 3047 0 
L 2419 0 
L 2419 1100 
L 313 1100 
L 313 1709 
L 2253 4666 
z
" transform="scale(0.015625)"/>
        <path id="DejaVuSans-30" d="M 2034 4250 
Q 1547 4250 1301 3770 
Q 1056 3291 1056 2328 
Q 1056 1369 1301 889 
Q 1547 409 2034 409 
Q 2525 409 2770 889 
Q 3016 1369 3016 2328 
Q 3016 3291 2770 3770 
Q 2525 4250 2034 4250 
z
M 2034 4750 
Q 2819 4750 3233 4129 
Q 3647 3509 3647 2328 
Q 3647 1150 3233 529 
Q 2819 -91 2034 -91 
Q 1250 -91 836 529 
Q 422 1150 422 2328 
Q 422 3509 836 4129 
Q 1250 4750 2034 4750 
z
" transform="scale(0.015625)"/>
       </defs>
       <use xlink:href="#DejaVuSans-36"/>
       <use xlink:href="#DejaVuSans-2e" transform="translate(63.623047 0)"/>
       <use xlink:href="#DejaVuSans-37" transform="translate(95.410156 0)"/>
       <use xlink:href="#DejaVuSans-34" transform="translate(159.033203 0)"/>
       <use xlink:href="#DejaVuSans-30" transform="translate(222.65625 0)"/>
      </g>
     </g>
    </g>
    <g id="xtick_2">
     <g id="line2d_2">
      <g>
       <use xlink:href="#mbadcfe3462" x="246.667688" y="318.04" style="stroke: #000000; stroke-width: 0.8"/>
      </g>
     </g>
     <g id="text_2">
      <!-- 6.742 -->
      <g transform="translate(232.353626 332.638438) scale(0.1 -0.1)">
       <defs>
        <path id="DejaVuSans-32" d="M 1228 531 
L 3431 531 
L 3431 0 
L 469 0 
L 469 531 
Q 828 903 1448 1529 
Q 2069 2156 2228 2338 
Q 2531 2678 2651 2914 
Q 2772 3150 2772 3378 
Q 2772 3750 2511 3984 
Q 2250 4219 1831 4219 
Q 1534 4219 1204 4116 
Q 875 4013 500 3803 
L 500 4441 
Q 881 4594 1212 4672 
Q 1544 4750 1819 4750 
Q 2544 4750 2975 4387 
Q 3406 4025 3406 3419 
Q 3406 3131 3298 2873 
Q 3191 2616 2906 2266 
Q 2828 2175 2409 1742 
Q 1991 1309 1228 531 
z
" transform="scale(0.015625)"/>
       </defs>
       <use xlink:href="#DejaVuSans-36"/>
       <use xlink:href="#DejaVuSans-2e" transform="translate(63.623047 0)"/>
       <use xlink:href="#DejaVuSans-37" transform="translate(95.410156 0)"/>
       <use xlink:href="#DejaVuSans-34" transform="translate(159.033203 0)"/>
       <use xlink:href="#DejaVuSans-32" transform="translate(222.65625 0)"/>
      </g>
     </g>
    </g>
    <g id="xtick_3">
     <g id="line2d_3">
      <g>
       <use xlink:href="#mbadcfe3462" x="406.529229" y="318.04" style="stroke: #000000; stroke-width: 0.8"/>
      </g>
     </g>
     <g id="text_3">
      <!-- 6.744 -->
      <g transform="translate(392.215167 332.638438) scale(0.1 -0.1)">
       <use xlink:href="#DejaVuSans-36"/>
       <use xlink:href="#DejaVuSans-2e" transform="translate(63.623047 0)"/>
       <use xlink:href="#DejaVuSans-37" transform="translate(95.410156 0)"/>
       <use xlink:href="#DejaVuSans-34" transform="translate(159.033203 0)"/>
       <use xlink:href="#DejaVuSans-34" transform="translate(222.65625 0)"/>
      </g>
     </g>
    </g>
    <g id="xtick_4">
     <g id="line2d_4">
      <g>
       <use xlink:href="#mbadcfe3462" x="566.390771" y="318.04" style="stroke: #000000; stroke-width: 0.8"/>
      </g>
     </g>
     <g id="text_4">
      <!-- 6.746 -->
      <g transform="translate(552.076708 332.638438) scale(0.1 -0.1)">
       <use xlink:href="#DejaVuSans-36"/>
       <use xlink:href="#DejaVuSans-2e" transform="translate(63.623047 0)"/>
       <use xlink:href="#DejaVuSans-37" transform="translate(95.410156 0)"/>
       <use xlink:href="#DejaVuSans-34" transform="translate(159.033203 0)"/>
       <use xlink:href="#DejaVuSans-36" transform="translate(222.65625 0)"/>
      </g>
     </g>
    </g>
    <g id="xtick_5">
     <g id="line2d_5">
      <g>
       <use xlink:href="#mbadcfe3462" x="726.252312" y="318.04" style="stroke: #000000; stroke-width: 0.8"/>
      </g>
     </g>
     <g id="text_5">
      <!-- 6.748 -->
      <g transform="translate(711.938249 332.638438) scale(0.1 -0.1)">
       <defs>
        <path id="DejaVuSans-38" d="M 2034 2216 
Q 1584 2216 1326 1975 
Q 1069 1734 1069 1313 
Q 1069 891 1326 650 
Q 1584 409 2034 409 
Q 2484 409 2743 651 
Q 3003 894 3003 1313 
Q 3003 1734 2745 1975 
Q 2488 2216 2034 2216 
z
M 1403 2484 
Q 997 2584 770 2862 
Q 544 3141 544 3541 
Q 544 4100 942 4425 
Q 1341 4750 2034 4750 
Q 2731 4750 3128 4425 
Q 3525 4100 3525 3541 
Q 3525 3141 3298 2862 
Q 3072 2584 2669 2484 
Q 3125 2378 3379 2068 
Q 3634 1759 3634 1313 
Q 3634 634 3220 271 
Q 2806 -91 2034 -91 
Q 1263 -91 848 271 
Q 434 634 434 1313 
Q 434 1759 690 2068 
Q 947 2378 1403 2484 
z
M 1172 3481 
Q 1172 3119 1398 2916 
Q 1625 2713 2034 2713 
Q 2441 2713 2670 2916 
Q 2900 3119 2900 3481 
Q 2900 3844 2670 4047 
Q 2441 4250 2034 4250 
Q 1625 4250 1398 4047 
Q 1172 3844 1172 3481 
z
" transform="scale(0.015625)"/>
       </defs>
       <use xlink:href="#DejaVuSans-36"/>
       <use xlink:href="#DejaVuSans-2e" transform="translate(63.623047 0)"/>
       <use xlink:href="#DejaVuSans-37" transform="translate(95.410156 0)"/>
       <use xlink:href="#DejaVuSans-34" transform="translate(159.033203 0)"/>
       <use xlink:href="#DejaVuSans-38" transform="translate(222.65625 0)"/>
      </g>
     </g>
    </g>
    <g id="xtick_6">
     <g id="line2d_6">
      <g>
       <use xlink:href="#mbadcfe3462" x="886.113853" y="318.04" style="stroke: #000000; stroke-width: 0.8"/>
      </g>
     </g>
     <g id="text_6">
      <!-- 6.750 -->
      <g transform="translate(871.799791 332.638438) scale(0.1 -0.1)">
       <defs>
        <path id="DejaVuSans-35" d="M 691 4666 
L 3169 4666 
L 3169 4134 
L 1269 4134 
L 1269 2991 
Q 1406 3038 1543 3061 
Q 1681 3084 1819 3084 
Q 2600 3084 3056 2656 
Q 3513 2228 3513 1497 
Q 3513 744 3044 326 
Q 2575 -91 1722 -91 
Q 1428 -91 1123 -41 
Q 819 9 494 109 
L 494 744 
Q 775 591 1075 516 
Q 1375 441 1709 441 
Q 2250 441 2565 725 
Q 2881 1009 2881 1497 
Q 2881 1984 2565 2268 
Q 2250 2553 1709 2553 
Q 1456 2553 1204 2497 
Q 953 2441 691 2322 
L 691 4666 
z
" transform="scale(0.015625)"/>
       </defs>
       <use xlink:href="#DejaVuSans-36"/>
       <use xlink:href="#DejaVuSans-2e" transform="translate(63.623047 0)"/>
       <use xlink:href="#DejaVuSans-37" transform="translate(95.410156 0)"/>
       <use xlink:href="#DejaVuSans-35" transform="translate(159.033203 0)"/>
       <use xlink:href="#DejaVuSans-30" transform="translate(222.65625 0)"/>
      </g>
     </g>
    </g>
    <g id="text_7">
     <!-- chr16 coordinate (hg38) -->
     <g transform="translate(425.670156 346.316563) scale(0.1 -0.1)">
      <defs>
       <path id="DejaVuSans-63" d="M 3122 3366 
L 3122 2828 
Q 2878 2963 2633 3030 
Q 2388 3097 2138 3097 
Q 1578 3097 1268 2742 
Q 959 2388 959 1747 
Q 959 1106 1268 751 
Q 1578 397 2138 397 
Q 2388 397 2633 464 
Q 2878 531 3122 666 
L 3122 134 
Q 2881 22 2623 -34 
Q 2366 -91 2075 -91 
Q 1284 -91 818 406 
Q 353 903 353 1747 
Q 353 2603 823 3093 
Q 1294 3584 2113 3584 
Q 2378 3584 2631 3529 
Q 2884 3475 3122 3366 
z
" transform="scale(0.015625)"/>
       <path id="DejaVuSans-68" d="M 3513 2113 
L 3513 0 
L 2938 0 
L 2938 2094 
Q 2938 2591 2744 2837 
Q 2550 3084 2163 3084 
Q 1697 3084 1428 2787 
Q 1159 2491 1159 1978 
L 1159 0 
L 581 0 
L 581 4863 
L 1159 4863 
L 1159 2956 
Q 1366 3272 1645 3428 
Q 1925 3584 2291 3584 
Q 2894 3584 3203 3211 
Q 3513 2838 3513 2113 
z
" transform="scale(0.015625)"/>
       <path id="DejaVuSans-72" d="M 2631 2963 
Q 2534 3019 2420 3045 
Q 2306 3072 2169 3072 
Q 1681 3072 1420 2755 
Q 1159 2438 1159 1844 
L 1159 0 
L 581 0 
L 581 3500 
L 1159 3500 
L 1159 2956 
Q 1341 3275 1631 3429 
Q 1922 3584 2338 3584 
Q 2397 3584 2469 3576 
Q 2541 3569 2628 3553 
L 2631 2963 
z
" transform="scale(0.015625)"/>
       <path id="DejaVuSans-31" d="M 794 531 
L 1825 531 
L 1825 4091 
L 703 3866 
L 703 4441 
L 1819 4666 
L 2450 4666 
L 2450 531 
L 3481 531 
L 3481 0 
L 794 0 
L 794 531 
z
" transform="scale(0.015625)"/>
       <path id="DejaVuSans-20" transform="scale(0.015625)"/>
       <path id="DejaVuSans-6f" d="M 1959 3097 
Q 1497 3097 1228 2736 
Q 959 2375 959 1747 
Q 959 1119 1226 758 
Q 1494 397 1959 397 
Q 2419 397 2687 759 
Q 2956 1122 2956 1747 
Q 2956 2369 2687 2733 
Q 2419 3097 1959 3097 
z
M 1959 3584 
Q 2709 3584 3137 3096 
Q 3566 2609 3566 1747 
Q 3566 888 3137 398 
Q 2709 -91 1959 -91 
Q 1206 -91 779 398 
Q 353 888 353 1747 
Q 353 2609 779 3096 
Q 1206 3584 1959 3584 
z
" transform="scale(0.015625)"/>
       <path id="DejaVuSans-64" d="M 2906 2969 
L 2906 4863 
L 3481 4863 
L 3481 0 
L 2906 0 
L 2906 525 
Q 2725 213 2448 61 
Q 2172 -91 1784 -91 
Q 1150 -91 751 415 
Q 353 922 353 1747 
Q 353 2572 751 3078 
Q 1150 3584 1784 3584 
Q 2172 3584 2448 3432 
Q 2725 3281 2906 2969 
z
M 947 1747 
Q 947 1113 1208 752 
Q 1469 391 1925 391 
Q 2381 391 2643 752 
Q 2906 1113 2906 1747 
Q 2906 2381 2643 2742 
Q 2381 3103 1925 3103 
Q 1469 3103 1208 2742 
Q 947 2381 947 1747 
z
" transform="scale(0.015625)"/>
       <path id="DejaVuSans-69" d="M 603 3500 
L 1178 3500 
L 1178 0 
L 603 0 
L 603 3500 
z
M 603 4863 
L 1178 4863 
L 1178 4134 
L 603 4134 
L 603 4863 
z
" transform="scale(0.015625)"/>
       <path id="DejaVuSans-6e" d="M 3513 2113 
L 3513 0 
L 2938 0 
L 2938 2094 
Q 2938 2591 2744 2837 
Q 2550 3084 2163 3084 
Q 1697 3084 1428 2787 
Q 1159 2491 1159 1978 
L 1159 0 
L 581 0 
L 581 3500 
L 1159 3500 
L 1159 2956 
Q 1366 3272 1645 3428 
Q 1925 3584 2291 3584 
Q 2894 3584 3203 3211 
Q 3513 2838 3513 2113 
z
" transform="scale(0.015625)"/>
       <path id="DejaVuSans-61" d="M 2194 1759 
Q 1497 1759 1228 1600 
Q 959 1441 959 1056 
Q 959 750 1161 570 
Q 1363 391 1709 391 
Q 2188 391 2477 730 
Q 2766 1069 2766 1631 
L 2766 1759 
L 2194 1759 
z
M 3341 1997 
L 3341 0 
L 2766 0 
L 2766 531 
Q 2569 213 2275 61 
Q 1981 -91 1556 -91 
Q 1019 -91 701 211 
Q 384 513 384 1019 
Q 384 1609 779 1909 
Q 1175 2209 1959 2209 
L 2766 2209 
L 2766 2266 
Q 2766 2663 2505 2880 
Q 2244 3097 1772 3097 
Q 1472 3097 1187 3025 
Q 903 2953 641 2809 
L 641 3341 
Q 956 3463 1253 3523 
Q 1550 3584 1831 3584 
Q 2591 3584 2966 3190 
Q 3341 2797 3341 1997 
z
" transform="scale(0.015625)"/>
       <path id="DejaVuSans-74" d="M 1172 4494 
L 1172 3500 
L 2356 3500 
L 2356 3053 
L 1172 3053 
L 1172 1153 
Q 1172 725 1289 603 
Q 1406 481 1766 481 
L 2356 481 
L 2356 0 
L 1766 0 
Q 1100 0 847 248 
Q 594 497 594 1153 
L 594 3053 
L 172 3053 
L 172 3500 
L 594 3500 
L 594 4494 
L 1172 4494 
z
" transform="scale(0.015625)"/>
       <path id="DejaVuSans-65" d="M 3597 1894 
L 3597 1613 
L 953 1613 
Q 991 1019 1311 708 
Q 1631 397 2203 397 
Q 2534 397 2845 478 
Q 3156 559 3463 722 
L 3463 178 
Q 3153 47 2828 -22 
Q 2503 -91 2169 -91 
Q 1331 -91 842 396 
Q 353 884 353 1716 
Q 353 2575 817 3079 
Q 1281 3584 2069 3584 
Q 2775 3584 3186 3129 
Q 3597 2675 3597 1894 
z
M 3022 2063 
Q 3016 2534 2758 2815 
Q 2500 3097 2075 3097 
Q 1594 3097 1305 2825 
Q 1016 2553 972 2059 
L 3022 2063 
z
" transform="scale(0.015625)"/>
       <path id="DejaVuSans-28" d="M 1984 4856 
Q 1566 4138 1362 3434 
Q 1159 2731 1159 2009 
Q 1159 1288 1364 580 
Q 1569 -128 1984 -844 
L 1484 -844 
Q 1016 -109 783 600 
Q 550 1309 550 2009 
Q 550 2706 781 3412 
Q 1013 4119 1484 4856 
L 1984 4856 
z
" transform="scale(0.015625)"/>
       <path id="DejaVuSans-67" d="M 2906 1791 
Q 2906 2416 2648 2759 
Q 2391 3103 1925 3103 
Q 1463 3103 1205 2759 
Q 947 2416 947 1791 
Q 947 1169 1205 825 
Q 1463 481 1925 481 
Q 2391 481 2648 825 
Q 2906 1169 2906 1791 
z
M 3481 434 
Q 3481 -459 3084 -895 
Q 2688 -1331 1869 -1331 
Q 1566 -1331 1297 -1286 
Q 1028 -1241 775 -1147 
L 775 -588 
Q 1028 -725 1275 -790 
Q 1522 -856 1778 -856 
Q 2344 -856 2625 -561 
Q 2906 -266 2906 331 
L 2906 616 
Q 2728 306 2450 153 
Q 2172 0 1784 0 
Q 1141 0 747 490 
Q 353 981 353 1791 
Q 353 2603 747 3093 
Q 1141 3584 1784 3584 
Q 2172 3584 2450 3431 
Q 2728 3278 2906 2969 
L 2906 3500 
L 3481 3500 
L 3481 434 
z
" transform="scale(0.015625)"/>
       <path id="DejaVuSans-33" d="M 2597 2516 
Q 3050 2419 3304 2112 
Q 3559 1806 3559 1356 
Q 3559 666 3084 287 
Q 2609 -91 1734 -91 
Q 1441 -91 1130 -33 
Q 819 25 488 141 
L 488 750 
Q 750 597 1062 519 
Q 1375 441 1716 441 
Q 2309 441 2620 675 
Q 2931 909 2931 1356 
Q 2931 1769 2642 2001 
Q 2353 2234 1838 2234 
L 1294 2234 
L 1294 2753 
L 1863 2753 
Q 2328 2753 2575 2939 
Q 2822 3125 2822 3475 
Q 2822 3834 2567 4026 
Q 2313 4219 1838 4219 
Q 1578 4219 1281 4162 
Q 984 4106 628 3988 
L 628 4550 
Q 988 4650 1302 4700 
Q 1616 4750 1894 4750 
Q 2613 4750 3031 4423 
Q 3450 4097 3450 3541 
Q 3450 3153 3228 2886 
Q 3006 2619 2597 2516 
z
" transform="scale(0.015625)"/>
       <path id="DejaVuSans-29" d="M 513 4856 
L 1013 4856 
Q 1481 4119 1714 3412 
Q 1947 2706 1947 2009 
Q 1947 1309 1714 600 
Q 1481 -109 1013 -844 
L 513 -844 
Q 928 -128 1133 580 
Q 1338 1288 1338 2009 
Q 1338 2731 1133 3434 
Q 928 4138 513 4856 
z
" transform="scale(0.015625)"/>
      </defs>
      <use xlink:href="#DejaVuSans-63"/>
      <use xlink:href="#DejaVuSans-68" transform="translate(54.980469 0)"/>
      <use xlink:href="#DejaVuSans-72" transform="translate(118.359375 0)"/>
      <use xlink:href="#DejaVuSans-31" transform="translate(159.472656 0)"/>
      <use xlink:href="#DejaVuSans-36" transform="translate(223.095703 0)"/>
      <use xlink:href="#DejaVuSans-20" transform="translate(286.71875 0)"/>
      <use xlink:href="#DejaVuSans-63" transform="translate(318.505859 0)"/>
      <use xlink:href="#DejaVuSans-6f" transform="translate(373.486328 0)"/>
      <use xlink:href="#DejaVuSans-6f" transform="translate(434.667969 0)"/>
      <use xlink:href="#DejaVuSans-72" transform="translate(495.849609 0)"/>
      <use xlink:href="#DejaVuSans-64" transform="translate(535.212891 0)"/>
      <use xlink:href="#DejaVuSans-69" transform="translate(598.689453 0)"/>
      <use xlink:href="#DejaVuSans-6e" transform="translate(626.472656 0)"/>
      <use xlink:href="#DejaVuSans-61" transform="translate(689.851562 0)"/>
      <use xlink:href="#DejaVuSans-74" transform="translate(751.130859 0)"/>
      <use xlink:href="#DejaVuSans-65" transform="translate(790.339844 0)"/>
      <use xlink:href="#DejaVuSans-20" transform="translate(851.863281 0)"/>
      <use xlink:href="#DejaVuSans-28" transform="translate(883.650391 0)"/>
      <use xlink:href="#DejaVuSans-68" transform="translate(922.664062 0)"/>
      <use xlink:href="#DejaVuSans-67" transform="translate(986.042969 0)"/>
      <use xlink:href="#DejaVuSans-33" transform="translate(1049.519531 0)"/>
      <use xlink:href="#DejaVuSans-38" transform="translate(1113.142578 0)"/>
      <use xlink:href="#DejaVuSans-29" transform="translate(1176.765625 0)"/>
     </g>
    </g>
    <g id="text_8">
     <!-- 1e7 -->
     <g transform="translate(906.321875 345.316563) scale(0.1 -0.1)">
      <use xlink:href="#DejaVuSans-31"/>
      <use xlink:href="#DejaVuSans-65" transform="translate(63.623047 0)"/>
      <use xlink:href="#DejaVuSans-37" transform="translate(125.146484 0)"/>
     </g>
    </g>
   </g>
   <g id="matplotlib.axis_2">
    <g id="ytick_1">
     <g id="line2d_7">
      <defs>
       <path id="m464d3dd066" d="M 0 0 
L -3.5 0 
" style="stroke: #000000; stroke-width: 0.8"/>
      </defs>
      <g>
       <use xlink:href="#m464d3dd066" x="47.72" y="305.843966" style="stroke: #000000; stroke-width: 0.8"/>
      </g>
     </g>
     <g id="text_9">
      <!-- 0.0 -->
      <g transform="translate(24.816875 309.643185) scale(0.1 -0.1)">
       <use xlink:href="#DejaVuSans-30"/>
       <use xlink:href="#DejaVuSans-2e" transform="translate(63.623047 0)"/>
       <use xlink:href="#DejaVuSans-30" transform="translate(95.410156 0)"/>
      </g>
     </g>
    </g>
    <g id="ytick_2">
     <g id="line2d_8">
      <g>
       <use xlink:href="#m464d3dd066" x="47.72" y="257.05983" style="stroke: #000000; stroke-width: 0.8"/>
      </g>
     </g>
     <g id="text_10">
      <!-- 0.2 -->
      <g transform="translate(24.816875 260.859048) scale(0.1 -0.1)">
       <use xlink:href="#DejaVuSans-30"/>
       <use xlink:href="#DejaVuSans-2e" transform="translate(63.623047 0)"/>
       <use xlink:href="#DejaVuSans-32" transform="translate(95.410156 0)"/>
      </g>
     </g>
    </g>
    <g id="ytick_3">
     <g id="line2d_9">
      <g>
       <use xlink:href="#m464d3dd066" x="47.72" y="208.275693" style="stroke: #000000; stroke-width: 0.8"/>
      </g>
     </g>
     <g id="text_11">
      <!-- 0.4 -->
      <g transform="translate(24.816875 212.074912) scale(0.1 -0.1)">
       <use xlink:href="#DejaVuSans-30"/>
       <use xlink:href="#DejaVuSans-2e" transform="translate(63.623047 0)"/>
       <use xlink:href="#DejaVuSans-34" transform="translate(95.410156 0)"/>
      </g>
     </g>
    </g>
    <g id="ytick_4">
     <g id="line2d_10">
      <g>
       <use xlink:href="#m464d3dd066" x="47.72" y="159.491557" style="stroke: #000000; stroke-width: 0.8"/>
      </g>
     </g>
     <g id="text_12">
      <!-- 0.6 -->
      <g transform="translate(24.816875 163.290776) scale(0.1 -0.1)">
       <use xlink:href="#DejaVuSans-30"/>
       <use xlink:href="#DejaVuSans-2e" transform="translate(63.623047 0)"/>
       <use xlink:href="#DejaVuSans-36" transform="translate(95.410156 0)"/>
      </g>
     </g>
    </g>
    <g id="ytick_5">
     <g id="line2d_11">
      <g>
       <use xlink:href="#m464d3dd066" x="47.72" y="110.70742" style="stroke: #000000; stroke-width: 0.8"/>
      </g>
     </g>
     <g id="text_13">
      <!-- 0.8 -->
      <g transform="translate(24.816875 114.506639) scale(0.1 -0.1)">
       <use xlink:href="#DejaVuSans-30"/>
       <use xlink:href="#DejaVuSans-2e" transform="translate(63.623047 0)"/>
       <use xlink:href="#DejaVuSans-38" transform="translate(95.410156 0)"/>
      </g>
     </g>
    </g>
    <g id="ytick_6">
     <g id="line2d_12">
      <g>
       <use xlink:href="#m464d3dd066" x="47.72" y="61.923284" style="stroke: #000000; stroke-width: 0.8"/>
      </g>
     </g>
     <g id="text_14">
      <!-- 1.0 -->
      <g transform="translate(24.816875 65.722503) scale(0.1 -0.1)">
       <use xlink:href="#DejaVuSans-31"/>
       <use xlink:href="#DejaVuSans-2e" transform="translate(63.623047 0)"/>
       <use xlink:href="#DejaVuSans-30" transform="translate(95.410156 0)"/>
      </g>
     </g>
    </g>
    <g id="text_15">
     <!-- global robust normalized signal -->
     <g transform="translate(18.737188 262.384406) rotate(-90) scale(0.1 -0.1)">
      <defs>
       <path id="DejaVuSans-6c" d="M 603 4863 
L 1178 4863 
L 1178 0 
L 603 0 
L 603 4863 
z
" transform="scale(0.015625)"/>
       <path id="DejaVuSans-62" d="M 3116 1747 
Q 3116 2381 2855 2742 
Q 2594 3103 2138 3103 
Q 1681 3103 1420 2742 
Q 1159 2381 1159 1747 
Q 1159 1113 1420 752 
Q 1681 391 2138 391 
Q 2594 391 2855 752 
Q 3116 1113 3116 1747 
z
M 1159 2969 
Q 1341 3281 1617 3432 
Q 1894 3584 2278 3584 
Q 2916 3584 3314 3078 
Q 3713 2572 3713 1747 
Q 3713 922 3314 415 
Q 2916 -91 2278 -91 
Q 1894 -91 1617 61 
Q 1341 213 1159 525 
L 1159 0 
L 581 0 
L 581 4863 
L 1159 4863 
L 1159 2969 
z
" transform="scale(0.015625)"/>
       <path id="DejaVuSans-75" d="M 544 1381 
L 544 3500 
L 1119 3500 
L 1119 1403 
Q 1119 906 1312 657 
Q 1506 409 1894 409 
Q 2359 409 2629 706 
Q 2900 1003 2900 1516 
L 2900 3500 
L 3475 3500 
L 3475 0 
L 2900 0 
L 2900 538 
Q 2691 219 2414 64 
Q 2138 -91 1772 -91 
Q 1169 -91 856 284 
Q 544 659 544 1381 
z
M 1991 3584 
L 1991 3584 
z
" transform="scale(0.015625)"/>
       <path id="DejaVuSans-73" d="M 2834 3397 
L 2834 2853 
Q 2591 2978 2328 3040 
Q 2066 3103 1784 3103 
Q 1356 3103 1142 2972 
Q 928 2841 928 2578 
Q 928 2378 1081 2264 
Q 1234 2150 1697 2047 
L 1894 2003 
Q 2506 1872 2764 1633 
Q 3022 1394 3022 966 
Q 3022 478 2636 193 
Q 2250 -91 1575 -91 
Q 1294 -91 989 -36 
Q 684 19 347 128 
L 347 722 
Q 666 556 975 473 
Q 1284 391 1588 391 
Q 1994 391 2212 530 
Q 2431 669 2431 922 
Q 2431 1156 2273 1281 
Q 2116 1406 1581 1522 
L 1381 1569 
Q 847 1681 609 1914 
Q 372 2147 372 2553 
Q 372 3047 722 3315 
Q 1072 3584 1716 3584 
Q 2034 3584 2315 3537 
Q 2597 3491 2834 3397 
z
" transform="scale(0.015625)"/>
       <path id="DejaVuSans-6d" d="M 3328 2828 
Q 3544 3216 3844 3400 
Q 4144 3584 4550 3584 
Q 5097 3584 5394 3201 
Q 5691 2819 5691 2113 
L 5691 0 
L 5113 0 
L 5113 2094 
Q 5113 2597 4934 2840 
Q 4756 3084 4391 3084 
Q 3944 3084 3684 2787 
Q 3425 2491 3425 1978 
L 3425 0 
L 2847 0 
L 2847 2094 
Q 2847 2600 2669 2842 
Q 2491 3084 2119 3084 
Q 1678 3084 1418 2786 
Q 1159 2488 1159 1978 
L 1159 0 
L 581 0 
L 581 3500 
L 1159 3500 
L 1159 2956 
Q 1356 3278 1631 3431 
Q 1906 3584 2284 3584 
Q 2666 3584 2933 3390 
Q 3200 3197 3328 2828 
z
" transform="scale(0.015625)"/>
       <path id="DejaVuSans-7a" d="M 353 3500 
L 3084 3500 
L 3084 2975 
L 922 459 
L 3084 459 
L 3084 0 
L 275 0 
L 275 525 
L 2438 3041 
L 353 3041 
L 353 3500 
z
" transform="scale(0.015625)"/>
      </defs>
      <use xlink:href="#DejaVuSans-67"/>
      <use xlink:href="#DejaVuSans-6c" transform="translate(63.476562 0)"/>
      <use xlink:href="#DejaVuSans-6f" transform="translate(91.259766 0)"/>
      <use xlink:href="#DejaVuSans-62" transform="translate(152.441406 0)"/>
      <use xlink:href="#DejaVuSans-61" transform="translate(215.917969 0)"/>
      <use xlink:href="#DejaVuSans-6c" transform="translate(277.197266 0)"/>
      <use xlink:href="#DejaVuSans-20" transform="translate(304.980469 0)"/>
      <use xlink:href="#DejaVuSans-72" transform="translate(336.767578 0)"/>
      <use xlink:href="#DejaVuSans-6f" transform="translate(375.630859 0)"/>
      <use xlink:href="#DejaVuSans-62" transform="translate(436.8125 0)"/>
      <use xlink:href="#DejaVuSans-75" transform="translate(500.289062 0)"/>
      <use xlink:href="#DejaVuSans-73" transform="translate(563.667969 0)"/>
      <use xlink:href="#DejaVuSans-74" transform="translate(615.767578 0)"/>
      <use xlink:href="#DejaVuSans-20" transform="translate(654.976562 0)"/>
      <use xlink:href="#DejaVuSans-6e" transform="translate(686.763672 0)"/>
      <use xlink:href="#DejaVuSans-6f" transform="translate(750.142578 0)"/>
      <use xlink:href="#DejaVuSans-72" transform="translate(811.324219 0)"/>
      <use xlink:href="#DejaVuSans-6d" transform="translate(850.6875 0)"/>
      <use xlink:href="#DejaVuSans-61" transform="translate(948.099609 0)"/>
      <use xlink:href="#DejaVuSans-6c" transform="translate(1009.378906 0)"/>
      <use xlink:href="#DejaVuSans-69" transform="translate(1037.162109 0)"/>
      <use xlink:href="#DejaVuSans-7a" transform="translate(1064.945312 0)"/>
      <use xlink:href="#DejaVuSans-65" transform="translate(1117.435547 0)"/>
      <use xlink:href="#DejaVuSans-64" transform="translate(1178.958984 0)"/>
      <use xlink:href="#DejaVuSans-20" transform="translate(1242.435547 0)"/>
      <use xlink:href="#DejaVuSans-73" transform="translate(1274.222656 0)"/>
      <use xlink:href="#DejaVuSans-69" transform="translate(1326.322266 0)"/>
      <use xlink:href="#DejaVuSans-67" transform="translate(1354.105469 0)"/>
      <use xlink:href="#DejaVuSans-6e" transform="translate(1417.582031 0)"/>
      <use xlink:href="#DejaVuSans-61" transform="translate(1480.960938 0)"/>
      <use xlink:href="#DejaVuSans-6c" transform="translate(1542.240234 0)"/>
     </g>
    </g>
   </g>
   <g id="line2d_13">
    <path d="M 87.605455 298.769308 
L 89.20407 303.023241 
L 90.802685 304.222326 
L 92.401301 301.951854 
L 93.999916 304.04488 
L 95.598532 301.152601 
L 97.197147 300.76905 
L 98.795762 303.601613 
L 100.394378 304.294727 
L 101.992993 305.465808 
L 103.591609 304.320701 
L 105.190224 301.722594 
L 106.788839 297.152217 
L 108.387455 301.848814 
L 109.98607 302.922332 
L 111.584686 298.982059 
L 113.183301 304.73997 
L 114.781917 302.894021 
L 116.380532 302.515128 
L 117.979147 300.838827 
L 119.577763 300.708219 
L 121.176378 301.312063 
L 122.774994 302.562469 
L 124.373609 299.738396 
L 125.972224 301.525566 
L 127.57084 301.325461 
L 129.169455 302.03184 
L 130.768071 302.050786 
L 132.366686 299.042806 
L 133.965302 297.5168 
L 135.563917 301.688524 
L 137.162532 298.719774 
L 138.761148 297.688967 
L 140.359763 298.927158 
L 141.958379 302.367289 
L 143.556994 297.365696 
L 145.155609 300.251615 
L 146.754225 301.8696 
L 148.35284 298.937106 
L 149.951456 299.69946 
L 151.550071 299.238625 
L 153.148686 302.078799 
L 154.747302 297.486027 
L 156.345917 301.202285 
L 157.944533 301.59267 
L 159.543148 302.214805 
L 161.141764 303.839696 
L 162.740379 302.622083 
L 164.338994 302.141595 
L 165.93761 300.958307 
L 167.536225 301.603218 
L 169.134841 302.697861 
L 170.733456 302.258164 
L 173.930687 305.557498 
L 175.529302 303.046865 
L 177.127918 299.634558 
L 178.726533 298.954632 
L 180.325148 300.15179 
L 181.923764 300.953152 
L 183.522379 301.598119 
L 185.120995 301.355274 
L 186.71961 302.493962 
L 188.318226 302.427519 
L 189.916841 303.464021 
L 191.515456 303.171899 
L 193.114072 301.52903 
L 194.712687 302.874502 
L 196.311303 305.797614 
L 197.909918 305.11442 
L 199.508533 299.910709 
L 201.107149 298.558437 
L 202.705764 298.618247 
L 204.30438 299.451077 
L 205.902995 299.822173 
L 207.50161 295.859448 
L 209.100226 295.686383 
L 210.698841 282.327495 
L 212.297457 237.343837 
L 213.896072 73.450004 
L 215.494688 61.923284 
L 217.093303 61.923284 
L 218.691918 189.119337 
L 220.290534 220.853478 
L 221.889149 266.457007 
L 223.487765 301.029396 
L 225.08638 302.891717 
L 226.684995 302.810648 
L 228.283611 301.525088 
L 229.882226 300.634279 
L 231.480842 300.138799 
L 233.079457 302.018973 
L 234.678073 301.418812 
L 236.276688 300.405677 
L 237.875303 302.888998 
L 239.473919 303.912203 
L 241.072534 298.103598 
L 242.67115 299.882748 
L 244.269765 300.235937 
L 245.86838 300.03433 
L 247.466996 302.395626 
L 249.065611 300.300499 
L 250.664227 303.663166 
L 252.262842 301.429065 
L 253.861457 297.922059 
L 255.460073 299.638454 
L 257.058688 300.268015 
L 258.657304 304.30499 
L 260.255919 305.843966 
L 261.854535 305.843966 
L 263.45315 304.939028 
L 265.051765 303.285478 
L 266.650381 302.775531 
L 268.248996 304.607612 
L 269.847612 302.456546 
L 271.446227 300.916283 
L 273.044842 300.975236 
L 274.643458 302.47243 
L 277.840689 297.273408 
L 279.439304 295.69303 
L 281.037919 302.788223 
L 282.636535 304.143484 
L 284.23515 302.226205 
L 285.833766 303.578611 
L 287.432381 302.13122 
L 289.030997 301.259625 
L 290.629612 301.077085 
L 292.228227 300.424502 
L 293.826843 302.398922 
L 295.425458 304.77126 
L 297.024074 304.397035 
L 298.622689 305.252253 
L 300.221304 302.455996 
L 301.81992 301.048647 
L 303.418535 304.185865 
L 305.017151 301.916965 
L 306.615766 304.652473 
L 308.214381 301.358111 
L 309.812997 302.390151 
L 311.411612 302.49278 
L 313.010228 299.537218 
L 314.608843 299.809031 
L 316.207459 299.931616 
L 317.806074 300.463015 
L 319.404689 300.192249 
L 321.003305 298.654877 
L 322.60192 298.707046 
L 324.200536 300.308653 
L 325.799151 296.290874 
L 328.996382 278.228307 
L 330.594997 229.149325 
L 332.193613 191.00241 
L 333.792228 172.388041 
L 335.390844 196.290762 
L 336.989459 161.072993 
L 338.588074 148.127366 
L 340.18669 225.779266 
L 341.785305 276.242089 
L 343.383921 292.688119 
L 344.982536 298.172279 
L 346.581151 299.783079 
L 348.179767 303.091427 
L 349.778382 302.96606 
L 351.376998 302.968042 
L 352.975613 299.393591 
L 354.574228 297.295628 
L 356.172844 300.608877 
L 357.771459 303.654755 
L 362.567306 301.972368 
L 364.165921 302.677601 
L 365.764536 305.843966 
L 367.363152 303.289139 
L 368.961767 301.572797 
L 370.560383 302.947708 
L 372.158998 304.138735 
L 373.757613 299.470016 
L 375.356229 300.354441 
L 376.954844 303.818954 
L 378.55346 300.304123 
L 380.152075 302.932693 
L 381.75069 303.388057 
L 383.349306 301.516988 
L 384.947921 303.697555 
L 386.546537 304.166643 
L 388.145152 303.837255 
L 389.743768 302.989264 
L 391.342383 301.988017 
L 392.940998 304.221518 
L 394.539614 304.142221 
L 396.138229 303.333297 
L 397.736845 304.325616 
L 399.33546 302.919562 
L 400.934075 303.970753 
L 402.532691 305.46599 
L 404.131306 304.360041 
L 405.729922 304.778076 
L 407.328537 302.745465 
L 408.927152 304.691179 
L 410.525768 303.324897 
L 412.124383 302.586862 
L 413.722999 305.175804 
L 415.321614 303.712862 
L 416.92023 300.30046 
L 418.518845 301.965728 
L 420.11746 303.977613 
L 421.716076 301.960795 
L 423.314691 302.166679 
L 424.913307 304.873465 
L 426.511922 300.146888 
L 428.110537 298.449731 
L 429.709153 303.202908 
L 431.307768 301.385278 
L 432.906384 302.032032 
L 434.504999 300.714158 
L 436.103615 299.933459 
L 437.70223 298.447402 
L 439.300845 303.664315 
L 440.899461 305.75857 
L 442.498076 300.952198 
L 444.096692 302.678349 
L 445.695307 301.255585 
L 447.293922 301.141586 
L 448.892538 297.826573 
L 450.491153 301.83443 
L 452.089769 299.476883 
L 453.688384 300.383344 
L 455.286999 302.624193 
L 456.885615 302.353295 
L 460.082846 299.189344 
L 461.681461 295.371812 
L 463.280077 299.34803 
L 464.878692 300.397135 
L 466.477307 302.666208 
L 468.075923 299.887759 
L 469.674538 300.177454 
L 471.273154 296.899251 
L 472.871769 299.279215 
L 474.470384 302.478539 
L 476.069 302.278641 
L 477.667615 298.867483 
L 479.266231 301.54066 
L 480.864846 304.683717 
L 482.463461 302.861371 
L 484.062077 297.695069 
L 485.660692 302.328234 
L 487.259308 305.292312 
L 488.857923 304.324908 
L 490.456539 305.414185 
L 492.055154 302.129802 
L 493.653769 302.159905 
L 495.252385 303.812867 
L 496.851 303.776277 
L 498.449616 299.31145 
L 500.048231 298.306911 
L 501.646846 300.710711 
L 503.245462 299.379647 
L 504.844077 300.422509 
L 506.442693 296.825066 
L 508.041308 299.028533 
L 509.639923 302.614892 
L 511.238539 302.582019 
L 512.837154 302.804877 
L 514.43577 303.23052 
L 516.034385 303.796528 
L 517.633001 303.083842 
L 519.231616 301.610967 
L 520.830231 304.41062 
L 522.428847 305.843966 
L 524.027462 302.973346 
L 525.626078 303.344601 
L 527.224693 301.398095 
L 528.823308 300.166359 
L 530.421924 305.402014 
L 532.020539 303.289617 
L 533.619155 303.553877 
L 535.21777 302.751073 
L 536.816385 303.674304 
L 538.415001 305.166805 
L 540.013616 304.182227 
L 541.612232 304.376185 
L 543.210847 302.713515 
L 544.809463 300.107892 
L 546.408078 303.337339 
L 548.006693 303.335011 
L 549.605309 298.212918 
L 551.203924 299.812907 
L 552.80254 297.699964 
L 554.401155 299.39237 
L 557.598386 305.036029 
L 559.197001 303.57444 
L 560.795617 300.2358 
L 562.394232 302.040566 
L 563.992848 299.489838 
L 565.591463 301.596516 
L 567.190078 299.626954 
L 568.788694 303.720271 
L 570.387309 301.103252 
L 571.985925 301.89809 
L 573.58454 304.167531 
L 575.183155 303.325898 
L 576.781771 300.033343 
L 578.380386 302.163387 
L 579.979002 301.631689 
L 581.577617 302.984366 
L 583.176232 304.818374 
L 586.373463 301.748959 
L 587.972079 301.493586 
L 589.570694 300.032106 
L 591.16931 302.932537 
L 592.767925 298.225047 
L 594.36654 303.600223 
L 595.965156 302.910661 
L 597.563771 303.823542 
L 599.162387 303.268542 
L 600.761002 301.240493 
L 602.359617 301.622647 
L 603.958233 301.06394 
L 605.556848 299.006332 
L 607.155464 300.208717 
L 608.754079 300.593986 
L 611.95131 298.767849 
L 613.549925 294.944626 
L 615.148541 294.354269 
L 616.747156 302.254021 
L 618.345772 300.586241 
L 619.944387 301.87617 
L 621.543002 300.595439 
L 623.141618 302.020806 
L 624.740233 304.658433 
L 626.338849 305.271677 
L 627.937464 305.47084 
L 629.536079 305.249997 
L 632.73331 301.645709 
L 634.331926 302.220472 
L 635.930541 303.347989 
L 637.529156 301.630569 
L 639.127772 304.434294 
L 640.726387 299.443071 
L 642.325003 299.151476 
L 643.923618 301.162784 
L 645.522234 300.12728 
L 648.719464 301.83516 
L 650.31808 304.82264 
L 651.916695 300.863357 
L 653.515311 299.683893 
L 655.113926 301.264169 
L 656.712541 303.869785 
L 658.311157 304.100124 
L 659.909772 304.03102 
L 661.508388 303.406462 
L 663.107003 300.801935 
L 664.705619 302.807113 
L 666.304234 303.402878 
L 667.902849 303.743998 
L 669.501465 301.913792 
L 671.10008 301.472652 
L 672.698696 301.311784 
L 674.297311 303.134496 
L 675.895926 305.214428 
L 677.494542 302.377951 
L 679.093157 302.389021 
L 680.691773 303.545862 
L 682.290388 302.96895 
L 683.889003 302.74503 
L 685.487619 300.382946 
L 687.086234 302.427057 
L 688.68485 298.716863 
L 690.283465 298.845495 
L 691.882081 302.446531 
L 693.480696 300.909401 
L 695.079311 300.589592 
L 696.677927 301.379839 
L 698.276542 302.008594 
L 699.875158 300.356692 
L 701.473773 300.768727 
L 703.072388 300.465977 
L 704.671004 300.307538 
L 706.269619 303.467476 
L 707.868235 302.506494 
L 709.46685 298.2197 
L 711.065465 298.447056 
L 712.664081 299.25982 
L 714.262696 299.538947 
L 715.861312 296.500137 
L 717.459927 297.199078 
L 719.058543 299.116946 
L 720.657158 299.690008 
L 722.255773 297.667242 
L 723.854389 293.687487 
L 725.453004 292.211265 
L 727.05162 287.816899 
L 728.650235 211.687378 
L 730.24885 77.967247 
L 731.847466 61.923284 
L 733.446081 61.923284 
L 735.044697 157.92622 
L 736.643312 275.625815 
L 738.241927 195.462009 
L 739.840543 174.38676 
L 741.439158 237.494598 
L 743.037774 270.498934 
L 744.636389 287.447255 
L 746.235005 294.763779 
L 747.83362 304.378138 
L 749.432235 303.652849 
L 751.030851 301.023754 
L 752.629466 301.945308 
L 754.228082 302.404782 
L 755.826697 299.693782 
L 757.425312 303.184242 
L 759.023928 303.598964 
L 760.622543 305.43442 
L 762.221159 305.095414 
L 763.819774 303.954199 
L 765.41839 302.203723 
L 767.017005 302.490069 
L 768.61562 302.279028 
L 770.214236 299.667591 
L 771.812851 303.449588 
L 773.411467 299.891127 
L 775.010082 303.857296 
L 776.608697 305.055854 
L 778.207313 299.407088 
L 779.805928 295.091675 
L 781.404544 299.098921 
L 783.003159 301.749315 
L 784.601774 302.30187 
L 786.20039 304.544381 
L 787.799005 302.014425 
L 789.397621 303.193444 
L 790.996236 301.078067 
L 792.594852 301.320318 
L 794.193467 303.113744 
L 795.792082 304.695919 
L 797.390698 304.750479 
L 798.989313 303.578774 
L 800.587929 303.477827 
L 802.186544 302.135776 
L 803.785159 303.360371 
L 805.383775 299.430671 
L 806.98239 300.38838 
L 808.581006 302.606856 
L 810.179621 300.501578 
L 811.778236 301.779129 
L 813.376852 303.997601 
L 814.975467 303.750264 
L 816.574083 304.542905 
L 818.172698 305.838911 
L 819.771314 302.361503 
L 821.369929 303.222127 
L 822.968544 302.718445 
L 824.56716 303.963064 
L 826.165775 302.295183 
L 827.764391 303.85708 
L 829.363006 302.713457 
L 830.961621 303.947382 
L 832.560237 301.661599 
L 834.158852 301.711084 
L 835.757468 302.991607 
L 837.356083 300.141119 
L 838.954698 299.998158 
L 840.553314 297.877255 
L 842.151929 299.892451 
L 843.750545 295.935368 
L 845.34916 295.583732 
L 846.947776 293.339118 
L 848.546391 301.58325 
L 850.145006 303.671487 
L 851.743622 302.457114 
L 853.342237 298.700556 
L 854.940853 301.606096 
L 856.539468 303.048864 
L 858.138083 305.492313 
L 859.736699 303.73406 
L 861.335314 303.755027 
L 862.93393 304.001993 
L 864.532545 303.59753 
L 866.131161 303.941747 
L 867.729776 302.445827 
L 869.328391 299.999071 
L 870.927007 300.555295 
L 872.525622 303.651581 
L 874.124238 303.794563 
L 877.321468 302.793678 
L 878.920084 304.106738 
L 880.518699 302.661322 
L 883.71593 305.152942 
L 885.314545 305.461892 
L 885.314545 305.461892 
" clip-path="url(#p00ac55d8ae)" style="fill: none; stroke: #2ca02c; stroke-width: 1.2; stroke-linecap: square"/>
   </g>
   <g id="line2d_14">
    <path d="M 87.605455 303.127207 
L 89.20407 304.070451 
L 90.802685 304.424986 
L 93.999916 304.534704 
L 95.598532 304.711562 
L 100.394378 304.29398 
L 103.591609 303.884586 
L 105.190224 303.932076 
L 106.788839 304.257134 
L 108.387455 305.288807 
L 111.584686 304.411885 
L 113.183301 304.498677 
L 116.380532 305.114405 
L 117.979147 305.014513 
L 119.577763 305.135694 
L 121.176378 304.803266 
L 122.774994 303.845284 
L 124.373609 303.689714 
L 125.972224 304.297255 
L 129.169455 302.70635 
L 130.768071 302.866832 
L 132.366686 303.163234 
L 133.965302 303.064979 
L 137.162532 303.365474 
L 138.761148 302.840631 
L 140.359763 302.830806 
L 141.958379 302.536042 
L 143.556994 301.661577 
L 145.155609 301.327511 
L 146.754225 301.704154 
L 148.35284 301.846623 
L 149.951456 301.754918 
L 153.148686 303.444897 
L 154.747302 303.620936 
L 157.944533 303.254119 
L 161.141764 303.626668 
L 162.740379 303.407233 
L 164.338994 303.675795 
L 165.93761 304.245671 
L 167.536225 304.164611 
L 169.134841 303.581634 
L 170.733456 303.741298 
L 172.332071 304.394691 
L 173.930687 303.92225 
L 175.529302 302.918416 
L 177.127918 302.144662 
L 178.726533 302.305144 
L 180.325148 302.349359 
L 181.923764 303.092818 
L 183.522379 303.702815 
L 185.120995 303.088724 
L 186.71961 303.02404 
L 188.318226 303.508762 
L 189.916841 304.44955 
L 191.515456 304.284154 
L 193.114072 303.543151 
L 194.712687 303.331904 
L 196.311303 303.857566 
L 197.909918 303.705271 
L 201.107149 302.133198 
L 202.705764 301.579698 
L 204.30438 301.825334 
L 205.902995 302.378835 
L 207.50161 301.723805 
L 209.100226 297.513597 
L 210.698841 286.211048 
L 212.297457 255.224837 
L 213.896072 191.765497 
L 215.494688 119.096429 
L 217.093303 93.995666 
L 218.691918 193.835393 
L 220.290534 241.652608 
L 221.889149 277.227307 
L 223.487765 297.644603 
L 225.08638 302.313332 
L 226.684995 303.040416 
L 228.283611 302.951986 
L 231.480842 303.597191 
L 233.079457 304.181806 
L 234.678073 304.898245 
L 236.276688 304.950648 
L 237.875303 304.787709 
L 239.473919 304.15233 
L 242.67115 302.640847 
L 245.86838 302.316607 
L 247.466996 302.82098 
L 249.065611 304.049162 
L 252.262842 304.63132 
L 255.460073 303.574265 
L 257.058688 303.385125 
L 258.657304 303.60456 
L 260.255919 304.481482 
L 261.854535 304.876138 
L 265.051765 303.985297 
L 266.650381 304.036062 
L 269.847612 303.682345 
L 271.446227 303.675795 
L 276.242073 303.216455 
L 277.840689 303.380213 
L 279.439304 303.114106 
L 281.037919 303.36138 
L 284.23515 304.078639 
L 285.833766 304.103202 
L 289.030997 303.47683 
L 290.629612 303.904237 
L 293.826843 303.819902 
L 295.425458 304.17198 
L 297.024074 304.355389 
L 298.622689 304.393872 
L 300.221304 303.98284 
L 301.81992 303.987753 
L 305.017151 304.415979 
L 306.615766 304.561724 
L 308.214381 304.046706 
L 309.812997 302.90204 
L 311.411612 302.269117 
L 313.010228 302.11191 
L 314.608843 298.260332 
L 316.207459 299.780002 
L 317.806074 301.096613 
L 319.404689 301.24072 
L 321.003305 300.900104 
L 322.60192 300.195946 
L 324.200536 298.748329 
L 325.799151 295.555056 
L 327.397766 286.168471 
L 328.996382 259.731446 
L 330.594997 214.49505 
L 332.193613 160.101329 
L 333.792228 155.856733 
L 335.390844 165.28917 
L 336.989459 158.660263 
L 338.588074 166.677834 
L 340.18669 203.516741 
L 341.785305 252.2641 
L 343.383921 275.386672 
L 344.982536 288.500379 
L 346.581151 291.942564 
L 348.179767 294.922952 
L 349.778382 297.215558 
L 351.376998 299.174099 
L 354.574228 301.163754 
L 356.172844 303.211542 
L 357.771459 303.275408 
L 360.96869 303.123932 
L 362.567306 303.705271 
L 364.165921 304.48312 
L 365.764536 305.479585 
L 367.363152 305.441921 
L 368.961767 304.531428 
L 370.560383 304.169524 
L 372.158998 304.470838 
L 373.757613 304.416798 
L 378.55346 304.907252 
L 380.152075 304.982581 
L 383.349306 304.784434 
L 384.947921 304.296436 
L 386.546537 304.077001 
L 388.145152 303.669245 
L 389.743768 303.587366 
L 392.940998 304.379953 
L 394.539614 304.502771 
L 396.138229 304.162155 
L 397.736845 304.355389 
L 400.934075 304.350476 
L 402.532691 304.447093 
L 404.131306 304.859762 
L 405.729922 305.092298 
L 410.525768 304.0639 
L 415.321614 303.633218 
L 416.92023 303.73966 
L 418.518845 304.283336 
L 420.11746 303.471098 
L 421.716076 302.97 
L 424.913307 303.606198 
L 426.511922 303.751123 
L 431.307768 303.642225 
L 434.504999 303.867391 
L 436.103615 303.555433 
L 439.300845 303.357286 
L 444.096692 303.225462 
L 445.695307 302.726001 
L 447.293922 302.513116 
L 448.892538 302.565519 
L 450.491153 302.38211 
L 452.089769 301.519108 
L 453.688384 300.107517 
L 455.286999 300.207409 
L 456.885615 300.963969 
L 458.48423 300.43012 
L 460.082846 300.400643 
L 461.681461 301.03111 
L 463.280077 301.332424 
L 464.878692 301.3619 
L 466.477307 301.106438 
L 468.075923 301.545309 
L 469.674538 301.466705 
L 471.273154 301.751643 
L 472.871769 303.146858 
L 474.470384 303.799432 
L 476.069 303.802707 
L 477.667615 303.47683 
L 482.463461 303.634856 
L 484.062077 303.529232 
L 493.653769 304.132679 
L 495.252385 304.296436 
L 496.851 304.11794 
L 501.646846 302.947074 
L 503.245462 303.03059 
L 504.844077 303.001114 
L 506.442693 303.492386 
L 509.639923 304.059807 
L 514.43577 304.21292 
L 516.034385 304.385684 
L 517.633001 304.162974 
L 519.231616 303.69299 
L 520.830231 303.643862 
L 522.428847 304.068813 
L 524.027462 304.37504 
L 528.823308 304.274329 
L 530.421924 304.061444 
L 532.020539 303.729016 
L 535.21777 304.188356 
L 536.816385 303.495662 
L 538.415001 303.363837 
L 540.013616 302.867651 
L 543.210847 303.101006 
L 546.408078 303.506306 
L 549.605309 304.083551 
L 552.80254 303.741298 
L 554.401155 303.45636 
L 557.598386 302.311694 
L 559.197001 302.10536 
L 560.795617 302.177413 
L 562.394232 301.833522 
L 563.992848 302.11191 
L 565.591463 302.049682 
L 567.190078 302.621196 
L 568.788694 302.745652 
L 570.387309 303.110831 
L 571.985925 303.351555 
L 573.58454 303.360562 
L 578.380386 302.857007 
L 579.979002 302.624471 
L 581.577617 302.670323 
L 583.176232 302.454163 
L 584.774848 301.235807 
L 586.373463 300.949231 
L 587.972079 301.876099 
L 591.16931 302.860282 
L 592.767925 303.254119 
L 594.36654 303.44244 
L 595.965156 303.258213 
L 597.563771 303.67252 
L 599.162387 303.84774 
L 603.958233 303.962371 
L 605.556848 303.792882 
L 607.155464 303.316347 
L 608.754079 302.472177 
L 610.352694 300.880453 
L 611.95131 298.931738 
L 613.549925 301.545309 
L 616.747156 303.765862 
L 618.345772 304.11794 
L 619.944387 303.84774 
L 621.543002 303.823177 
L 623.141618 304.15233 
L 624.740233 304.96948 
L 626.338849 305.092298 
L 627.937464 304.026236 
L 629.536079 303.921431 
L 631.134695 304.09829 
L 634.331926 304.000035 
L 637.529156 303.433434 
L 639.127772 304.168705 
L 640.726387 303.970559 
L 642.325003 303.448172 
L 643.923618 303.416239 
L 645.522234 303.01012 
L 647.120849 302.945436 
L 650.31808 303.143583 
L 651.916695 303.064979 
L 653.515311 302.732551 
L 656.712541 303.183703 
L 659.909772 304.100746 
L 661.508388 304.236665 
L 663.107003 303.851834 
L 664.705619 303.719191 
L 666.304234 303.992666 
L 667.902849 304.554354 
L 669.501465 304.285792 
L 671.10008 303.249206 
L 672.698696 303.508762 
L 674.297311 304.373402 
L 675.895926 305.464847 
L 677.494542 304.470838 
L 679.093157 303.650413 
L 680.691773 303.417877 
L 685.487619 303.082993 
L 690.283465 302.303506 
L 691.882081 302.418137 
L 695.079311 303.357286 
L 696.677927 303.249206 
L 698.276542 302.709625 
L 699.875158 302.59172 
L 701.473773 303.123113 
L 703.072388 303.186979 
L 706.269619 302.775128 
L 707.868235 303.076442 
L 711.065465 302.008743 
L 712.664081 302.228178 
L 714.262696 303.381031 
L 715.861312 303.141945 
L 717.459927 301.987454 
L 719.058543 301.430678 
L 720.657158 301.083512 
L 722.255773 298.247231 
L 723.854389 289.240564 
L 725.453004 284.858411 
L 727.05162 285.572394 
L 728.650235 192.577734 
L 730.24885 114.275406 
L 731.847466 61.923284 
L 733.446081 61.923284 
L 735.044697 132.092232 
L 736.643312 257.465041 
L 738.241927 170.739022 
L 739.840543 147.419942 
L 741.439158 201.97087 
L 743.037774 249.761884 
L 744.636389 279.048291 
L 746.235005 293.219873 
L 747.83362 297.719931 
L 749.432235 301.411028 
L 752.629466 303.434253 
L 754.228082 303.850197 
L 757.425312 304.154786 
L 759.023928 304.167068 
L 762.221159 303.900962 
L 765.41839 303.982022 
L 767.017005 303.867391 
L 768.61562 303.867391 
L 771.812851 304.416798 
L 773.411467 305.306002 
L 775.010082 305.685919 
L 776.608697 305.176633 
L 778.207313 303.98284 
L 779.805928 303.162415 
L 781.404544 302.594995 
L 787.799005 303.102643 
L 790.996236 302.985557 
L 792.594852 303.481742 
L 795.792082 304.014773 
L 800.587929 302.879933 
L 802.186544 302.847182 
L 803.785159 302.955262 
L 806.98239 303.664332 
L 808.581006 303.012577 
L 810.179621 302.925785 
L 811.778236 302.441063 
L 813.376852 302.205252 
L 814.975467 303.146858 
L 816.574083 304.717293 
L 818.172698 304.515871 
L 819.771314 303.09118 
L 821.369929 303.094456 
L 822.968544 303.84774 
L 824.56716 304.296436 
L 827.764391 303.887042 
L 829.363006 303.458816 
L 830.961621 303.186979 
L 834.158852 303.188616 
L 835.757468 302.886483 
L 837.356083 302.460714 
L 838.954698 303.113288 
L 840.553314 303.091999 
L 842.151929 302.657223 
L 843.750545 302.676874 
L 845.34916 303.062523 
L 848.546391 304.230114 
L 850.145006 305.312552 
L 851.743622 305.580296 
L 853.342237 304.006585 
L 854.940853 303.48338 
L 858.138083 304.44955 
L 861.335314 303.867391 
L 864.532545 304.068813 
L 869.328391 303.823177 
L 872.525622 305.607316 
L 874.124238 305.641705 
L 875.722853 305.130781 
L 877.321468 304.420073 
L 878.920084 303.953364 
L 880.518699 303.675795 
L 882.117315 303.610292 
L 883.71593 304.087645 
L 885.314545 304.703374 
L 885.314545 304.703374 
" clip-path="url(#p00ac55d8ae)" style="fill: none; stroke: #000000; stroke-width: 1.2; stroke-linecap: square"/>
   </g>
   <g id="line2d_15">
    <path d="M 87.605455 248.257902 
L 89.20407 246.027592 
L 90.802685 258.22809 
L 92.401301 256.521718 
L 93.999916 259.486166 
L 95.598532 252.578183 
L 97.197147 252.81988 
L 98.795762 251.689805 
L 100.394378 254.764822 
L 101.992993 254.705609 
L 103.591609 263.372646 
L 105.190224 260.794999 
L 106.788839 260.510619 
L 108.387455 261.303822 
L 109.98607 264.2805 
L 111.584686 246.101083 
L 113.183301 268.070329 
L 114.781917 270.937336 
L 116.380532 260.011077 
L 117.979147 267.515306 
L 119.577763 264.964578 
L 121.176378 243.16645 
L 122.774994 246.37798 
L 124.373609 256.280402 
L 125.972224 260.203881 
L 127.57084 250.481087 
L 129.169455 251.252231 
L 130.768071 246.87086 
L 132.366686 259.885385 
L 133.965302 259.111626 
L 135.563917 234.968691 
L 137.162532 249.953266 
L 138.761148 234.862681 
L 140.359763 233.779 
L 141.958379 237.872387 
L 143.556994 239.957071 
L 145.155609 238.020101 
L 146.754225 254.369576 
L 148.35284 251.352673 
L 149.951456 235.555004 
L 151.550071 240.884498 
L 153.148686 256.170346 
L 154.747302 273.068212 
L 156.345917 263.76364 
L 157.944533 260.472871 
L 159.543148 247.481178 
L 161.141764 242.074531 
L 162.740379 220.345908 
L 164.338994 239.941606 
L 165.93761 229.824038 
L 167.536225 221.185556 
L 169.134841 229.716107 
L 170.733456 242.384532 
L 172.332071 273.922386 
L 173.930687 265.978765 
L 175.529302 260.801046 
L 177.127918 236.747505 
L 178.726533 251.662491 
L 180.325148 272.423531 
L 181.923764 258.710458 
L 183.522379 265.099177 
L 185.120995 279.620869 
L 186.71961 279.702484 
L 188.318226 259.468979 
L 189.916841 280.017104 
L 191.515456 269.829756 
L 193.114072 277.839825 
L 194.712687 273.353284 
L 196.311303 268.522899 
L 197.909918 268.126985 
L 199.508533 259.619819 
L 201.107149 271.453463 
L 202.705764 266.217248 
L 204.30438 265.376588 
L 205.902995 270.68692 
L 207.50161 276.420184 
L 209.100226 243.741293 
L 210.698841 259.148923 
L 212.297457 243.868397 
L 213.896072 223.903142 
L 215.494688 143.349984 
L 217.093303 104.470363 
L 218.691918 61.923284 
L 220.290534 233.531129 
L 221.889149 263.166645 
L 223.487765 262.231336 
L 225.08638 260.256799 
L 226.684995 256.835137 
L 228.283611 258.426613 
L 229.882226 267.591 
L 231.480842 268.318795 
L 233.079457 264.710703 
L 234.678073 241.926607 
L 236.276688 257.204808 
L 237.875303 264.286163 
L 239.473919 272.571403 
L 241.072534 256.468675 
L 242.67115 231.131662 
L 244.269765 254.710483 
L 245.86838 248.392155 
L 247.466996 227.93215 
L 249.065611 253.907451 
L 250.664227 265.071554 
L 252.262842 243.337107 
L 253.861457 264.057821 
L 255.460073 275.579745 
L 257.058688 257.483974 
L 258.657304 248.481206 
L 260.255919 254.350532 
L 261.854535 269.936854 
L 263.45315 267.369848 
L 265.051765 262.997596 
L 266.650381 277.066192 
L 268.248996 282.656568 
L 269.847612 281.506933 
L 271.446227 277.290267 
L 273.044842 270.094052 
L 274.643458 289.211808 
L 277.840689 275.896759 
L 279.439304 267.366311 
L 281.037919 274.316225 
L 282.636535 263.996839 
L 284.23515 273.506421 
L 285.833766 264.879935 
L 287.432381 263.624996 
L 289.030997 275.58276 
L 290.629612 267.038736 
L 292.228227 247.914849 
L 293.826843 230.397948 
L 295.425458 252.732813 
L 297.024074 246.947029 
L 298.622689 261.87519 
L 300.221304 264.255347 
L 301.81992 262.865021 
L 303.418535 246.98347 
L 305.017151 263.716448 
L 306.615766 278.06959 
L 308.214381 262.639137 
L 309.812997 259.595124 
L 311.411612 200.373948 
L 313.010228 170.998521 
L 314.608843 223.317833 
L 316.207459 245.803182 
L 317.806074 259.417246 
L 319.404689 267.311092 
L 321.003305 241.684607 
L 322.60192 250.670019 
L 324.200536 209.57496 
L 325.799151 242.561173 
L 327.397766 228.005766 
L 328.996382 238.153018 
L 330.594997 230.978995 
L 332.193613 183.795617 
L 333.792228 189.106519 
L 335.390844 159.704865 
L 336.989459 144.781357 
L 338.588074 179.255733 
L 340.18669 230.02874 
L 341.785305 239.997707 
L 343.383921 231.456769 
L 344.982536 248.787528 
L 346.581151 231.283838 
L 348.179767 219.044075 
L 349.778382 234.645184 
L 351.376998 257.228592 
L 352.975613 248.740332 
L 354.574228 217.072167 
L 356.172844 248.486184 
L 357.771459 207.509966 
L 359.370075 258.412817 
L 360.96869 254.67851 
L 362.567306 245.165505 
L 365.764536 271.025711 
L 367.363152 288.176971 
L 368.961767 295.561642 
L 370.560383 275.622354 
L 372.158998 302.1864 
L 373.757613 298.482589 
L 375.356229 293.251273 
L 378.55346 273.820108 
L 380.152075 282.620639 
L 381.75069 294.485605 
L 383.349306 288.743257 
L 384.947921 279.151325 
L 386.546537 282.039523 
L 388.145152 278.98395 
L 389.743768 270.258969 
L 391.342383 275.965951 
L 394.539614 289.253377 
L 396.138229 297.464335 
L 397.736845 271.667383 
L 399.33546 304.886798 
L 400.934075 280.890558 
L 402.532691 276.138732 
L 404.131306 281.181571 
L 405.729922 281.179455 
L 407.328537 297.748513 
L 408.927152 297.439172 
L 410.525768 292.259306 
L 412.124383 301.700973 
L 413.722999 288.570416 
L 415.321614 300.611901 
L 416.92023 305.843966 
L 418.518845 300.913125 
L 420.11746 302.149525 
L 421.716076 299.241585 
L 423.314691 295.338733 
L 424.913307 292.913016 
L 426.511922 294.1205 
L 428.110537 294.288811 
L 429.709153 288.356819 
L 431.307768 297.008747 
L 432.906384 252.869241 
L 434.504999 289.240712 
L 436.103615 288.555791 
L 437.70223 243.734429 
L 439.300845 279.236666 
L 440.899461 297.764989 
L 442.498076 281.253329 
L 444.096692 295.716875 
L 445.695307 295.967196 
L 447.293922 283.955207 
L 448.892538 274.578058 
L 450.491153 278.500601 
L 452.089769 292.781721 
L 453.688384 284.952299 
L 455.286999 283.997989 
L 456.885615 277.780033 
L 458.48423 281.095661 
L 460.082846 164.75298 
L 461.681461 263.196127 
L 463.280077 262.251388 
L 464.878692 305.448216 
L 466.477307 290.389298 
L 468.075923 305.698406 
L 469.674538 305.697514 
L 471.273154 305.843966 
L 472.871769 279.954455 
L 474.470384 301.729445 
L 476.069 305.615905 
L 477.667615 296.638926 
L 479.266231 280.894439 
L 480.864846 289.418185 
L 482.463461 264.652708 
L 484.062077 283.128294 
L 485.660692 290.232098 
L 487.259308 305.843966 
L 488.857923 301.763403 
L 490.456539 264.424196 
L 492.055154 282.417364 
L 493.653769 241.371229 
L 495.252385 297.11848 
L 496.851 287.464881 
L 498.449616 245.266456 
L 501.646846 295.64291 
L 503.245462 271.180913 
L 504.844077 267.20781 
L 506.442693 290.577976 
L 508.041308 239.326397 
L 509.639923 281.839545 
L 511.238539 245.373257 
L 512.837154 287.495438 
L 514.43577 304.278253 
L 516.034385 289.888534 
L 517.633001 284.183977 
L 519.231616 287.088798 
L 520.830231 287.675478 
L 522.428847 284.333852 
L 524.027462 298.638818 
L 525.626078 283.784818 
L 527.224693 303.843216 
L 528.823308 284.548128 
L 530.421924 281.42711 
L 532.020539 289.053238 
L 533.619155 305.843966 
L 535.21777 300.474866 
L 536.816385 294.28028 
L 538.415001 292.322589 
L 540.013616 281.682988 
L 541.612232 252.777052 
L 543.210847 269.342091 
L 544.809463 277.11202 
L 546.408078 298.228962 
L 548.006693 298.53323 
L 549.605309 287.340297 
L 551.203924 287.779754 
L 552.80254 274.337591 
L 554.401155 287.689691 
L 555.99977 274.120682 
L 557.598386 278.742421 
L 559.197001 273.603151 
L 560.795617 258.565985 
L 562.394232 289.494187 
L 563.992848 275.922037 
L 565.591463 248.692472 
L 567.190078 260.029471 
L 568.788694 278.856972 
L 570.387309 286.111614 
L 571.985925 285.721063 
L 573.58454 287.933107 
L 575.183155 291.893138 
L 576.781771 285.097821 
L 578.380386 285.613203 
L 579.979002 291.864712 
L 581.577617 280.953112 
L 583.176232 288.694874 
L 584.774848 291.442034 
L 586.373463 294.516412 
L 587.972079 268.548499 
L 589.570694 251.189541 
L 591.16931 276.02776 
L 592.767925 292.751697 
L 594.36654 294.962638 
L 595.965156 301.191214 
L 597.563771 285.940297 
L 599.162387 275.104225 
L 600.761002 292.012699 
L 602.359617 281.150758 
L 603.958233 283.328728 
L 605.556848 252.981502 
L 607.155464 286.758148 
L 608.754079 285.011409 
L 610.352694 274.224414 
L 611.95131 269.22174 
L 613.549925 118.542027 
L 615.148541 226.562882 
L 616.747156 291.356613 
L 618.345772 291.517839 
L 619.944387 288.149084 
L 623.141618 268.518411 
L 624.740233 285.317681 
L 626.338849 266.271409 
L 627.937464 266.840815 
L 629.536079 259.374348 
L 631.134695 243.414942 
L 632.73331 262.470453 
L 634.331926 272.965293 
L 635.930541 291.745936 
L 637.529156 278.708881 
L 639.127772 286.325145 
L 642.325003 283.814252 
L 643.923618 291.79972 
L 645.522234 295.320875 
L 647.120849 289.581152 
L 650.31808 271.003351 
L 651.916695 282.708381 
L 653.515311 281.996815 
L 655.113926 296.016254 
L 656.712541 289.925026 
L 658.311157 296.184824 
L 659.909772 296.312015 
L 661.508388 277.261903 
L 663.107003 275.037731 
L 664.705619 278.455778 
L 666.304234 290.502776 
L 667.902849 290.138735 
L 669.501465 289.266514 
L 671.10008 290.6511 
L 672.698696 286.392901 
L 674.297311 286.260384 
L 675.895926 281.897954 
L 677.494542 288.78444 
L 679.093157 272.667146 
L 680.691773 280.709464 
L 682.290388 285.396323 
L 683.889003 283.242656 
L 685.487619 282.172542 
L 687.086234 273.104946 
L 688.68485 268.815232 
L 690.283465 279.96692 
L 691.882081 280.09092 
L 693.480696 279.807389 
L 695.079311 270.55943 
L 696.677927 281.438153 
L 698.276542 285.622197 
L 699.875158 280.834546 
L 701.473773 278.434347 
L 703.072388 290.193983 
L 704.671004 289.809269 
L 706.269619 289.803549 
L 707.868235 282.911029 
L 709.46685 274.325945 
L 711.065465 276.820335 
L 712.664081 267.691061 
L 714.262696 278.878822 
L 715.861312 271.435985 
L 717.459927 265.588427 
L 719.058543 269.768159 
L 720.657158 274.414528 
L 722.255773 282.580805 
L 723.854389 275.453085 
L 725.453004 262.434402 
L 727.05162 251.251836 
L 728.650235 243.413098 
L 730.24885 210.753423 
L 731.847466 208.122506 
L 733.446081 178.88042 
L 735.044697 115.879783 
L 736.643312 65.617852 
L 738.241927 199.29882 
L 739.840543 247.679339 
L 741.439158 260.440896 
L 743.037774 274.612807 
L 744.636389 259.948491 
L 746.235005 267.293985 
L 747.83362 264.215017 
L 749.432235 253.517347 
L 751.030851 247.751372 
L 752.629466 253.848052 
L 754.228082 263.950786 
L 755.826697 268.891244 
L 757.425312 267.268206 
L 759.023928 265.933158 
L 760.622543 250.248908 
L 762.221159 261.91404 
L 763.819774 276.898717 
L 765.41839 278.294242 
L 767.017005 284.220719 
L 768.61562 272.981542 
L 770.214236 285.797233 
L 771.812851 276.815839 
L 773.411467 278.935286 
L 775.010082 279.060756 
L 776.608697 285.943822 
L 778.207313 286.036273 
L 779.805928 270.170353 
L 781.404544 266.108245 
L 783.003159 287.224188 
L 784.601774 285.583693 
L 786.20039 286.867437 
L 787.799005 285.94117 
L 789.397621 273.94831 
L 790.996236 283.654953 
L 792.594852 274.378055 
L 794.193467 288.535804 
L 795.792082 285.041971 
L 797.390698 285.983836 
L 798.989313 278.247171 
L 800.587929 279.118229 
L 802.186544 273.908957 
L 803.785159 276.726414 
L 805.383775 288.703553 
L 806.98239 290.590106 
L 808.581006 281.049249 
L 810.179621 285.40111 
L 811.778236 284.8813 
L 813.376852 282.235669 
L 814.975467 281.111378 
L 816.574083 286.197747 
L 818.172698 283.286353 
L 819.771314 287.292955 
L 821.369929 278.905954 
L 822.968544 279.232509 
L 824.56716 286.287507 
L 826.165775 282.077756 
L 827.764391 284.139245 
L 829.363006 281.952542 
L 830.961621 280.584474 
L 832.560237 290.276392 
L 834.158852 281.158268 
L 835.757468 279.746221 
L 837.356083 272.933919 
L 838.954698 228.685327 
L 840.553314 264.44202 
L 842.151929 281.159915 
L 843.750545 283.06684 
L 845.34916 282.781446 
L 846.947776 283.316675 
L 848.546391 277.646458 
L 850.145006 280.791326 
L 851.743622 287.544464 
L 853.342237 280.916237 
L 854.940853 264.264667 
L 856.539468 259.902472 
L 858.138083 280.694423 
L 859.736699 275.819743 
L 861.335314 277.029402 
L 862.93393 276.984095 
L 864.532545 272.223462 
L 866.131161 269.508999 
L 867.729776 263.454649 
L 869.328391 256.64336 
L 870.927007 276.675263 
L 872.525622 286.360833 
L 874.124238 279.643938 
L 875.722853 281.987664 
L 877.321468 276.338625 
L 878.920084 267.162636 
L 880.518699 269.045898 
L 882.117315 271.481354 
L 883.71593 268.942711 
L 885.314545 287.961989 
L 885.314545 287.961989 
" clip-path="url(#p00ac55d8ae)" style="fill: none; stroke: #ff7f0e; stroke-width: 1.2; stroke-linecap: square"/>
   </g>
   <g id="line2d_16">
    <path d="M 87.605455 251.27357 
L 89.20407 255.501212 
L 90.802685 261.491825 
L 92.401301 269.992384 
L 93.999916 272.230263 
L 95.598532 258.888325 
L 97.197147 259.497921 
L 98.795762 270.203464 
L 100.394378 269.233011 
L 101.992993 273.513128 
L 103.591609 276.620317 
L 105.190224 270.341399 
L 106.788839 273.670578 
L 108.387455 279.538699 
L 109.98607 288.819685 
L 111.584686 273.381215 
L 113.183301 289.262806 
L 114.781917 271.399402 
L 116.380532 282.218613 
L 117.979147 277.204024 
L 121.176378 251.63116 
L 124.373609 278.264298 
L 125.972224 277.048034 
L 127.57084 268.479028 
L 129.169455 268.310094 
L 130.768071 264.972865 
L 132.366686 281.065699 
L 133.965302 277.063775 
L 135.563917 252.758484 
L 137.162532 249.213963 
L 138.761148 256.705793 
L 140.359763 267.463131 
L 141.958379 269.498882 
L 143.556994 266.900902 
L 145.155609 257.822678 
L 148.35284 282.07986 
L 149.951456 269.21055 
L 151.550071 275.54553 
L 153.148686 286.604348 
L 154.747302 285.83487 
L 156.345917 284.481786 
L 157.944533 279.601551 
L 159.543148 270.956751 
L 161.141764 273.494227 
L 162.740379 262.014563 
L 164.338994 266.046721 
L 165.93761 257.486517 
L 167.536225 254.808184 
L 169.134841 259.499568 
L 170.733456 271.436491 
L 172.332071 290.072818 
L 173.930687 287.564532 
L 175.529302 287.928177 
L 177.127918 268.9192 
L 178.726533 287.570685 
L 180.325148 302.666655 
L 181.923764 292.624046 
L 183.522379 287.225257 
L 185.120995 299.307605 
L 186.71961 282.547317 
L 188.318226 282.687829 
L 189.916841 292.38432 
L 191.515456 288.164965 
L 193.114072 289.950059 
L 194.712687 289.781365 
L 196.311303 283.679116 
L 197.909918 290.92609 
L 199.508533 288.44268 
L 201.107149 290.185186 
L 202.705764 290.497297 
L 204.30438 293.966161 
L 205.902995 284.15226 
L 207.50161 295.286085 
L 209.100226 283.962808 
L 210.698841 284.825868 
L 212.297457 287.090019 
L 213.896072 258.869354 
L 215.494688 178.056397 
L 217.093303 68.133016 
L 218.691918 100.636065 
L 220.290534 231.35315 
L 221.889149 279.35939 
L 223.487765 284.126415 
L 225.08638 282.68152 
L 226.684995 278.595799 
L 228.283611 285.624712 
L 229.882226 297.325014 
L 231.480842 290.219485 
L 233.079457 284.928939 
L 234.678073 284.969736 
L 236.276688 291.832217 
L 237.875303 292.80625 
L 239.473919 292.356437 
L 241.072534 292.102196 
L 242.67115 278.190256 
L 245.86838 301.455064 
L 249.065611 290.457255 
L 250.664227 292.510244 
L 252.262842 286.083536 
L 253.861457 286.495211 
L 257.058688 272.233715 
L 258.657304 269.535169 
L 260.255919 278.96094 
L 261.854535 299.055912 
L 263.45315 291.583055 
L 265.051765 277.352761 
L 266.650381 270.193903 
L 268.248996 270.137514 
L 269.847612 279.06411 
L 271.446227 292.079846 
L 273.044842 284.260881 
L 274.643458 301.757333 
L 276.242073 293.131041 
L 277.840689 287.825624 
L 279.439304 277.634196 
L 281.037919 284.246515 
L 282.636535 280.648447 
L 284.23515 274.146506 
L 285.833766 270.982493 
L 287.432381 277.753929 
L 289.030997 282.46273 
L 290.629612 285.554164 
L 293.826843 268.52956 
L 295.425458 265.829052 
L 297.024074 285.34837 
L 298.622689 290.690756 
L 300.221304 276.510721 
L 301.81992 268.228325 
L 303.418535 255.685968 
L 305.017151 257.141236 
L 306.615766 279.528913 
L 308.214381 275.346229 
L 309.812997 267.463009 
L 311.411612 252.583098 
L 313.010228 252.079028 
L 314.608843 252.688583 
L 316.207459 257.478545 
L 317.806074 266.718259 
L 319.404689 266.670538 
L 321.003305 263.86155 
L 322.60192 271.857648 
L 324.200536 261.315116 
L 325.799151 241.263651 
L 327.397766 243.853752 
L 328.996382 242.591142 
L 330.594997 202.977592 
L 332.193613 138.428458 
L 333.792228 126.212834 
L 335.390844 111.831116 
L 336.989459 61.923284 
L 338.588074 90.87037 
L 340.18669 144.931416 
L 341.785305 216.015459 
L 343.383921 235.061276 
L 344.982536 221.629562 
L 346.581151 238.312075 
L 349.778382 255.589673 
L 351.376998 255.635201 
L 352.975613 262.602701 
L 354.574228 257.049798 
L 356.172844 269.188331 
L 357.771459 245.094407 
L 359.370075 262.414124 
L 360.96869 263.603275 
L 362.567306 257.527534 
L 364.165921 281.663136 
L 365.764536 281.292068 
L 367.363152 293.096605 
L 368.961767 291.548731 
L 370.560383 262.887049 
L 372.158998 253.980707 
L 373.757613 253.406148 
L 375.356229 252.588186 
L 376.954844 253.387341 
L 378.55346 251.825424 
L 380.152075 254.0231 
L 381.75069 239.75464 
L 383.349306 253.501483 
L 384.947921 259.262317 
L 386.546537 278.897376 
L 388.145152 268.644641 
L 389.743768 265.968671 
L 391.342383 261.116026 
L 392.940998 268.040014 
L 394.539614 269.984319 
L 396.138229 268.631309 
L 397.736845 258.061648 
L 399.33546 255.168767 
L 400.934075 247.002338 
L 402.532691 263.814994 
L 404.131306 273.654727 
L 407.328537 284.598306 
L 408.927152 270.768909 
L 410.525768 271.974469 
L 412.124383 263.08766 
L 413.722999 264.871168 
L 415.321614 264.444345 
L 416.92023 261.780339 
L 418.518845 253.194877 
L 420.11746 274.352046 
L 421.716076 271.432276 
L 423.314691 267.371799 
L 424.913307 259.582776 
L 426.511922 264.181744 
L 428.110537 254.231742 
L 429.709153 261.030218 
L 431.307768 268.993421 
L 432.906384 269.526527 
L 434.504999 269.819596 
L 436.103615 262.633601 
L 437.70223 264.553116 
L 439.300845 256.953696 
L 440.899461 260.543466 
L 442.498076 256.616406 
L 444.096692 249.682466 
L 445.695307 260.722935 
L 447.293922 254.955231 
L 448.892538 250.437086 
L 450.491153 252.27597 
L 452.089769 253.228266 
L 453.688384 265.325645 
L 455.286999 265.452423 
L 456.885615 251.303759 
L 458.48423 261.165518 
L 461.681461 272.571844 
L 463.280077 269.040886 
L 464.878692 257.257162 
L 466.477307 259.942174 
L 468.075923 262.097596 
L 469.674538 261.73147 
L 471.273154 287.118106 
L 472.871769 275.453466 
L 474.470384 293.626138 
L 476.069 288.934691 
L 477.667615 266.105111 
L 479.266231 264.416767 
L 480.864846 273.444777 
L 482.463461 275.569445 
L 484.062077 267.019694 
L 485.660692 264.238355 
L 487.259308 269.045259 
L 488.857923 264.001073 
L 490.456539 252.562171 
L 492.055154 264.563965 
L 493.653769 256.163907 
L 495.252385 244.198029 
L 496.851 241.692502 
L 498.449616 252.730282 
L 500.048231 257.665753 
L 503.245462 266.250373 
L 504.844077 261.115976 
L 506.442693 267.097656 
L 508.041308 263.51547 
L 509.639923 265.012261 
L 511.238539 270.778823 
L 512.837154 265.636969 
L 514.43577 263.106022 
L 516.034385 259.629092 
L 517.633001 263.152099 
L 519.231616 265.464012 
L 520.830231 254.562205 
L 522.428847 281.815486 
L 524.027462 269.244862 
L 525.626078 261.749719 
L 527.224693 264.588084 
L 528.823308 261.070273 
L 530.421924 262.838599 
L 532.020539 267.626468 
L 533.619155 291.938193 
L 535.21777 279.804509 
L 536.816385 292.849813 
L 538.415001 273.271557 
L 540.013616 259.171333 
L 541.612232 255.233094 
L 543.210847 261.261235 
L 544.809463 259.759888 
L 546.408078 256.259565 
L 548.006693 256.033405 
L 549.605309 261.410356 
L 551.203924 263.178181 
L 552.80254 247.658987 
L 554.401155 255.576257 
L 555.99977 264.231283 
L 557.598386 259.51426 
L 559.197001 261.270729 
L 560.795617 251.264628 
L 562.394232 252.667445 
L 563.992848 256.571075 
L 565.591463 250.790221 
L 567.190078 258.252516 
L 568.788694 263.183276 
L 570.387309 262.379544 
L 571.985925 266.342845 
L 573.58454 272.441526 
L 575.183155 263.475264 
L 576.781771 268.015238 
L 578.380386 264.968323 
L 579.979002 264.984212 
L 581.577617 267.599616 
L 583.176232 261.046534 
L 584.774848 263.170808 
L 586.373463 273.295144 
L 587.972079 277.847508 
L 589.570694 279.247053 
L 591.16931 262.570792 
L 592.767925 279.120254 
L 594.36654 284.738092 
L 595.965156 280.302777 
L 597.563771 254.212304 
L 599.162387 264.771164 
L 600.761002 276.277342 
L 602.359617 266.920883 
L 603.958233 260.634812 
L 607.155464 272.760185 
L 608.754079 275.012478 
L 610.352694 264.985556 
L 611.95131 257.256081 
L 615.148541 263.542065 
L 616.747156 291.662582 
L 618.345772 282.146445 
L 619.944387 290.9445 
L 621.543002 284.172323 
L 623.141618 282.191238 
L 624.740233 282.547354 
L 626.338849 287.760204 
L 627.937464 277.521355 
L 629.536079 269.623148 
L 631.134695 284.46637 
L 632.73331 284.180775 
L 634.331926 286.183123 
L 635.930541 297.427584 
L 637.529156 282.853125 
L 639.127772 283.35565 
L 640.726387 289.447238 
L 642.325003 277.269966 
L 643.923618 290.374754 
L 645.522234 292.530415 
L 647.120849 293.669324 
L 648.719464 292.849403 
L 650.31808 263.334332 
L 651.916695 272.83955 
L 653.515311 277.126893 
L 655.113926 300.910218 
L 656.712541 292.171008 
L 658.311157 299.254876 
L 659.909772 298.648053 
L 661.508388 282.990198 
L 663.107003 253.07317 
L 666.304234 286.357169 
L 667.902849 287.937029 
L 669.501465 287.46338 
L 671.10008 280.780386 
L 672.698696 292.379428 
L 674.297311 288.273773 
L 675.895926 279.32951 
L 677.494542 290.078416 
L 679.093157 282.653346 
L 680.691773 282.262491 
L 682.290388 276.328705 
L 683.889003 270.963306 
L 685.487619 273.235239 
L 687.086234 277.612604 
L 688.68485 278.823259 
L 690.283465 281.465145 
L 691.882081 285.020082 
L 693.480696 286.841176 
L 695.079311 285.889755 
L 696.677927 292.641491 
L 698.276542 295.953554 
L 699.875158 291.550684 
L 701.473773 281.250777 
L 703.072388 301.069113 
L 704.671004 297.615577 
L 706.269619 298.500323 
L 707.868235 292.025737 
L 709.46685 284.248996 
L 711.065465 293.105015 
L 712.664081 284.309192 
L 714.262696 289.348599 
L 715.861312 288.238997 
L 717.459927 273.64516 
L 719.058543 283.710679 
L 720.657158 287.60856 
L 722.255773 290.907732 
L 725.453004 271.238822 
L 727.05162 259.942799 
L 728.650235 272.41914 
L 730.24885 247.517156 
L 731.847466 215.853273 
L 733.446081 148.621771 
L 735.044697 136.503401 
L 736.643312 149.277938 
L 738.241927 208.618896 
L 739.840543 251.487848 
L 741.439158 277.514379 
L 743.037774 270.093367 
L 744.636389 263.498471 
L 746.235005 263.961552 
L 747.83362 245.217804 
L 749.432235 249.149465 
L 751.030851 253.94271 
L 752.629466 247.670114 
L 754.228082 254.722119 
L 755.826697 268.720425 
L 757.425312 272.677121 
L 759.023928 260.234099 
L 760.622543 265.782168 
L 762.221159 277.111983 
L 763.819774 286.078152 
L 765.41839 281.947536 
L 767.017005 293.852818 
L 768.61562 263.76269 
L 770.214236 285.854137 
L 771.812851 286.439164 
L 773.411467 291.649697 
L 775.010082 292.111704 
L 776.608697 285.798253 
L 778.207313 285.52095 
L 779.805928 269.065598 
L 781.404544 272.040717 
L 783.003159 288.203062 
L 784.601774 290.468592 
L 786.20039 296.638077 
L 787.799005 291.809976 
L 789.397621 296.022121 
L 790.996236 305.843966 
L 792.594852 294.202364 
L 794.193467 296.062285 
L 795.792082 291.227326 
L 797.390698 293.29133 
L 800.587929 285.843931 
L 802.186544 276.901737 
L 803.785159 281.526486 
L 806.98239 296.071086 
L 808.581006 289.7988 
L 810.179621 293.900676 
L 811.778236 292.297968 
L 813.376852 288.587545 
L 814.975467 288.428191 
L 816.574083 292.203375 
L 818.172698 284.983188 
L 819.771314 286.172068 
L 821.369929 276.198465 
L 822.968544 281.260268 
L 824.56716 290.055848 
L 826.165775 286.358272 
L 827.764391 291.276032 
L 829.363006 285.486521 
L 830.961621 290.945016 
L 832.560237 292.852518 
L 834.158852 282.803752 
L 835.757468 294.70033 
L 837.356083 291.755058 
L 838.954698 291.979252 
L 840.553314 301.451062 
L 842.151929 290.191847 
L 843.750545 287.078626 
L 845.34916 289.198011 
L 846.947776 289.075505 
L 848.546391 289.439882 
L 850.145006 283.021756 
L 851.743622 287.612254 
L 853.342237 293.563775 
L 854.940853 273.857283 
L 856.539468 285.70763 
L 858.138083 290.798985 
L 859.736699 275.802977 
L 861.335314 277.735202 
L 862.93393 271.261246 
L 864.532545 266.064186 
L 866.131161 273.348779 
L 867.729776 271.566011 
L 869.328391 274.219975 
L 870.927007 296.263345 
L 872.525622 285.655372 
L 874.124238 285.165155 
L 875.722853 291.548942 
L 877.321468 290.226626 
L 878.920084 271.428503 
L 880.518699 265.341617 
L 882.117315 279.707425 
L 883.71593 277.990953 
L 885.314545 297.750849 
L 885.314545 297.750849 
" clip-path="url(#p00ac55d8ae)" style="fill: none; stroke-dasharray: 4.44,1.92; stroke-dashoffset: 0; stroke: #9467bd; stroke-width: 1.2"/>
   </g>
   <g id="patch_3">
    <path d="M 47.72 318.04 
L 47.72 49.72725 
" style="fill: none; stroke: #000000; stroke-width: 0.8; stroke-linejoin: miter; stroke-linecap: square"/>
   </g>
   <g id="patch_4">
    <path d="M 925.2 318.04 
L 925.2 49.72725 
" style="fill: none; stroke: #000000; stroke-width: 0.8; stroke-linejoin: miter; stroke-linecap: square"/>
   </g>
   <g id="patch_5">
    <path d="M 47.72 318.04 
L 925.2 318.04 
" style="fill: none; stroke: #000000; stroke-width: 0.8; stroke-linejoin: miter; stroke-linecap: square"/>
   </g>
   <g id="patch_6">
    <path d="M 47.72 49.72725 
L 925.2 49.72725 
" style="fill: none; stroke: #000000; stroke-width: 0.8; stroke-linejoin: miter; stroke-linecap: square"/>
   </g>
   <g id="legend_1">
    <g id="line2d_17">
     <path d="M 366.215469 62.825688 
L 376.215469 62.825688 
L 386.215469 62.825688 
" style="fill: none; stroke: #2ca02c; stroke-width: 1.2; stroke-linecap: square"/>
    </g>
    <g id="text_16">
     <!-- ENCSR203XPU -->
     <g transform="translate(394.215469 66.325688) scale(0.1 -0.1)">
      <defs>
       <path id="DejaVuSans-45" d="M 628 4666 
L 3578 4666 
L 3578 4134 
L 1259 4134 
L 1259 2753 
L 3481 2753 
L 3481 2222 
L 1259 2222 
L 1259 531 
L 3634 531 
L 3634 0 
L 628 0 
L 628 4666 
z
" transform="scale(0.015625)"/>
       <path id="DejaVuSans-4e" d="M 628 4666 
L 1478 4666 
L 3547 763 
L 3547 4666 
L 4159 4666 
L 4159 0 
L 3309 0 
L 1241 3903 
L 1241 0 
L 628 0 
L 628 4666 
z
" transform="scale(0.015625)"/>
       <path id="DejaVuSans-43" d="M 4122 4306 
L 4122 3641 
Q 3803 3938 3442 4084 
Q 3081 4231 2675 4231 
Q 1875 4231 1450 3742 
Q 1025 3253 1025 2328 
Q 1025 1406 1450 917 
Q 1875 428 2675 428 
Q 3081 428 3442 575 
Q 3803 722 4122 1019 
L 4122 359 
Q 3791 134 3420 21 
Q 3050 -91 2638 -91 
Q 1578 -91 968 557 
Q 359 1206 359 2328 
Q 359 3453 968 4101 
Q 1578 4750 2638 4750 
Q 3056 4750 3426 4639 
Q 3797 4528 4122 4306 
z
" transform="scale(0.015625)"/>
       <path id="DejaVuSans-53" d="M 3425 4513 
L 3425 3897 
Q 3066 4069 2747 4153 
Q 2428 4238 2131 4238 
Q 1616 4238 1336 4038 
Q 1056 3838 1056 3469 
Q 1056 3159 1242 3001 
Q 1428 2844 1947 2747 
L 2328 2669 
Q 3034 2534 3370 2195 
Q 3706 1856 3706 1288 
Q 3706 609 3251 259 
Q 2797 -91 1919 -91 
Q 1588 -91 1214 -16 
Q 841 59 441 206 
L 441 856 
Q 825 641 1194 531 
Q 1563 422 1919 422 
Q 2459 422 2753 634 
Q 3047 847 3047 1241 
Q 3047 1584 2836 1778 
Q 2625 1972 2144 2069 
L 1759 2144 
Q 1053 2284 737 2584 
Q 422 2884 422 3419 
Q 422 4038 858 4394 
Q 1294 4750 2059 4750 
Q 2388 4750 2728 4690 
Q 3069 4631 3425 4513 
z
" transform="scale(0.015625)"/>
       <path id="DejaVuSans-52" d="M 2841 2188 
Q 3044 2119 3236 1894 
Q 3428 1669 3622 1275 
L 4263 0 
L 3584 0 
L 2988 1197 
Q 2756 1666 2539 1819 
Q 2322 1972 1947 1972 
L 1259 1972 
L 1259 0 
L 628 0 
L 628 4666 
L 2053 4666 
Q 2853 4666 3247 4331 
Q 3641 3997 3641 3322 
Q 3641 2881 3436 2590 
Q 3231 2300 2841 2188 
z
M 1259 4147 
L 1259 2491 
L 2053 2491 
Q 2509 2491 2742 2702 
Q 2975 2913 2975 3322 
Q 2975 3731 2742 3939 
Q 2509 4147 2053 4147 
L 1259 4147 
z
" transform="scale(0.015625)"/>
       <path id="DejaVuSans-58" d="M 403 4666 
L 1081 4666 
L 2241 2931 
L 3406 4666 
L 4084 4666 
L 2584 2425 
L 4184 0 
L 3506 0 
L 2194 1984 
L 872 0 
L 191 0 
L 1856 2491 
L 403 4666 
z
" transform="scale(0.015625)"/>
       <path id="DejaVuSans-50" d="M 1259 4147 
L 1259 2394 
L 2053 2394 
Q 2494 2394 2734 2622 
Q 2975 2850 2975 3272 
Q 2975 3691 2734 3919 
Q 2494 4147 2053 4147 
L 1259 4147 
z
M 628 4666 
L 2053 4666 
Q 2838 4666 3239 4311 
Q 3641 3956 3641 3272 
Q 3641 2581 3239 2228 
Q 2838 1875 2053 1875 
L 1259 1875 
L 1259 0 
L 628 0 
L 628 4666 
z
" transform="scale(0.015625)"/>
       <path id="DejaVuSans-55" d="M 556 4666 
L 1191 4666 
L 1191 1831 
Q 1191 1081 1462 751 
Q 1734 422 2344 422 
Q 2950 422 3222 751 
Q 3494 1081 3494 1831 
L 3494 4666 
L 4128 4666 
L 4128 1753 
Q 4128 841 3676 375 
Q 3225 -91 2344 -91 
Q 1459 -91 1007 375 
Q 556 841 556 1753 
L 556 4666 
z
" transform="scale(0.015625)"/>
      </defs>
      <use xlink:href="#DejaVuSans-45"/>
      <use xlink:href="#DejaVuSans-4e" transform="translate(63.183594 0)"/>
      <use xlink:href="#DejaVuSans-43" transform="translate(137.988281 0)"/>
      <use xlink:href="#DejaVuSans-53" transform="translate(207.8125 0)"/>
      <use xlink:href="#DejaVuSans-52" transform="translate(271.289062 0)"/>
      <use xlink:href="#DejaVuSans-32" transform="translate(340.771484 0)"/>
      <use xlink:href="#DejaVuSans-30" transform="translate(404.394531 0)"/>
      <use xlink:href="#DejaVuSans-33" transform="translate(468.017578 0)"/>
      <use xlink:href="#DejaVuSans-58" transform="translate(531.640625 0)"/>
      <use xlink:href="#DejaVuSans-50" transform="translate(600.146484 0)"/>
      <use xlink:href="#DejaVuSans-55" transform="translate(660.449219 0)"/>
     </g>
    </g>
    <g id="line2d_18">
     <path d="M 366.215469 77.503813 
L 376.215469 77.503813 
L 386.215469 77.503813 
" style="fill: none; stroke: #000000; stroke-width: 1.2; stroke-linecap: square"/>
    </g>
    <g id="text_17">
     <!-- AlphaGenome -->
     <g transform="translate(394.215469 81.003813) scale(0.1 -0.1)">
      <defs>
       <path id="DejaVuSans-41" d="M 2188 4044 
L 1331 1722 
L 3047 1722 
L 2188 4044 
z
M 1831 4666 
L 2547 4666 
L 4325 0 
L 3669 0 
L 3244 1197 
L 1141 1197 
L 716 0 
L 50 0 
L 1831 4666 
z
" transform="scale(0.015625)"/>
       <path id="DejaVuSans-70" d="M 1159 525 
L 1159 -1331 
L 581 -1331 
L 581 3500 
L 1159 3500 
L 1159 2969 
Q 1341 3281 1617 3432 
Q 1894 3584 2278 3584 
Q 2916 3584 3314 3078 
Q 3713 2572 3713 1747 
Q 3713 922 3314 415 
Q 2916 -91 2278 -91 
Q 1894 -91 1617 61 
Q 1341 213 1159 525 
z
M 3116 1747 
Q 3116 2381 2855 2742 
Q 2594 3103 2138 3103 
Q 1681 3103 1420 2742 
Q 1159 2381 1159 1747 
Q 1159 1113 1420 752 
Q 1681 391 2138 391 
Q 2594 391 2855 752 
Q 3116 1113 3116 1747 
z
" transform="scale(0.015625)"/>
       <path id="DejaVuSans-47" d="M 3809 666 
L 3809 1919 
L 2778 1919 
L 2778 2438 
L 4434 2438 
L 4434 434 
Q 4069 175 3628 42 
Q 3188 -91 2688 -91 
Q 1594 -91 976 548 
Q 359 1188 359 2328 
Q 359 3472 976 4111 
Q 1594 4750 2688 4750 
Q 3144 4750 3555 4637 
Q 3966 4525 4313 4306 
L 4313 3634 
Q 3963 3931 3569 4081 
Q 3175 4231 2741 4231 
Q 1884 4231 1454 3753 
Q 1025 3275 1025 2328 
Q 1025 1384 1454 906 
Q 1884 428 2741 428 
Q 3075 428 3337 486 
Q 3600 544 3809 666 
z
" transform="scale(0.015625)"/>
      </defs>
      <use xlink:href="#DejaVuSans-41"/>
      <use xlink:href="#DejaVuSans-6c" transform="translate(68.408203 0)"/>
      <use xlink:href="#DejaVuSans-70" transform="translate(96.191406 0)"/>
      <use xlink:href="#DejaVuSans-68" transform="translate(159.667969 0)"/>
      <use xlink:href="#DejaVuSans-61" transform="translate(223.046875 0)"/>
      <use xlink:href="#DejaVuSans-47" transform="translate(284.326172 0)"/>
      <use xlink:href="#DejaVuSans-65" transform="translate(361.816406 0)"/>
      <use xlink:href="#DejaVuSans-6e" transform="translate(423.339844 0)"/>
      <use xlink:href="#DejaVuSans-6f" transform="translate(486.71875 0)"/>
      <use xlink:href="#DejaVuSans-6d" transform="translate(547.900391 0)"/>
      <use xlink:href="#DejaVuSans-65" transform="translate(645.3125 0)"/>
     </g>
    </g>
    <g id="line2d_19">
     <path d="M 487.581094 62.825688 
L 497.581094 62.825688 
L 507.581094 62.825688 
" style="fill: none; stroke: #ff7f0e; stroke-width: 1.2; stroke-linecap: square"/>
    </g>
    <g id="text_18">
     <!-- DiMeLo pooled -->
     <g transform="translate(515.581094 66.325688) scale(0.1 -0.1)">
      <defs>
       <path id="DejaVuSans-44" d="M 1259 4147 
L 1259 519 
L 2022 519 
Q 2988 519 3436 956 
Q 3884 1394 3884 2338 
Q 3884 3275 3436 3711 
Q 2988 4147 2022 4147 
L 1259 4147 
z
M 628 4666 
L 1925 4666 
Q 3281 4666 3915 4102 
Q 4550 3538 4550 2338 
Q 4550 1131 3912 565 
Q 3275 0 1925 0 
L 628 0 
L 628 4666 
z
" transform="scale(0.015625)"/>
       <path id="DejaVuSans-4d" d="M 628 4666 
L 1569 4666 
L 2759 1491 
L 3956 4666 
L 4897 4666 
L 4897 0 
L 4281 0 
L 4281 4097 
L 3078 897 
L 2444 897 
L 1241 4097 
L 1241 0 
L 628 0 
L 628 4666 
z
" transform="scale(0.015625)"/>
       <path id="DejaVuSans-4c" d="M 628 4666 
L 1259 4666 
L 1259 531 
L 3531 531 
L 3531 0 
L 628 0 
L 628 4666 
z
" transform="scale(0.015625)"/>
      </defs>
      <use xlink:href="#DejaVuSans-44"/>
      <use xlink:href="#DejaVuSans-69" transform="translate(77.001953 0)"/>
      <use xlink:href="#DejaVuSans-4d" transform="translate(104.785156 0)"/>
      <use xlink:href="#DejaVuSans-65" transform="translate(191.064453 0)"/>
      <use xlink:href="#DejaVuSans-4c" transform="translate(252.587891 0)"/>
      <use xlink:href="#DejaVuSans-6f" transform="translate(306.550781 0)"/>
      <use xlink:href="#DejaVuSans-20" transform="translate(367.732422 0)"/>
      <use xlink:href="#DejaVuSans-70" transform="translate(399.519531 0)"/>
      <use xlink:href="#DejaVuSans-6f" transform="translate(462.996094 0)"/>
      <use xlink:href="#DejaVuSans-6f" transform="translate(524.177734 0)"/>
      <use xlink:href="#DejaVuSans-6c" transform="translate(585.359375 0)"/>
      <use xlink:href="#DejaVuSans-65" transform="translate(613.142578 0)"/>
      <use xlink:href="#DejaVuSans-64" transform="translate(674.666016 0)"/>
     </g>
    </g>
    <g id="line2d_20">
     <path d="M 487.581094 77.503813 
L 497.581094 77.503813 
L 507.581094 77.503813 
" style="fill: none; stroke-dasharray: 4.44,1.92; stroke-dashoffset: 0; stroke: #9467bd; stroke-width: 1.2"/>
    </g>
    <g id="text_19">
     <!-- HyenaDNA pooled -->
     <g transform="translate(515.581094 81.003813) scale(0.1 -0.1)">
      <defs>
       <path id="DejaVuSans-48" d="M 628 4666 
L 1259 4666 
L 1259 2753 
L 3553 2753 
L 3553 4666 
L 4184 4666 
L 4184 0 
L 3553 0 
L 3553 2222 
L 1259 2222 
L 1259 0 
L 628 0 
L 628 4666 
z
" transform="scale(0.015625)"/>
       <path id="DejaVuSans-79" d="M 2059 -325 
Q 1816 -950 1584 -1140 
Q 1353 -1331 966 -1331 
L 506 -1331 
L 506 -850 
L 844 -850 
Q 1081 -850 1212 -737 
Q 1344 -625 1503 -206 
L 1606 56 
L 191 3500 
L 800 3500 
L 1894 763 
L 2988 3500 
L 3597 3500 
L 2059 -325 
z
" transform="scale(0.015625)"/>
      </defs>
      <use xlink:href="#DejaVuSans-48"/>
      <use xlink:href="#DejaVuSans-79" transform="translate(75.195312 0)"/>
      <use xlink:href="#DejaVuSans-65" transform="translate(134.375 0)"/>
      <use xlink:href="#DejaVuSans-6e" transform="translate(195.898438 0)"/>
      <use xlink:href="#DejaVuSans-61" transform="translate(259.277344 0)"/>
      <use xlink:href="#DejaVuSans-44" transform="translate(320.556641 0)"/>
      <use xlink:href="#DejaVuSans-4e" transform="translate(397.558594 0)"/>
      <use xlink:href="#DejaVuSans-41" transform="translate(472.363281 0)"/>
      <use xlink:href="#DejaVuSans-20" transform="translate(540.771484 0)"/>
      <use xlink:href="#DejaVuSans-70" transform="translate(572.558594 0)"/>
      <use xlink:href="#DejaVuSans-6f" transform="translate(636.035156 0)"/>
      <use xlink:href="#DejaVuSans-6f" transform="translate(697.216797 0)"/>
      <use xlink:href="#DejaVuSans-6c" transform="translate(758.398438 0)"/>
      <use xlink:href="#DejaVuSans-65" transform="translate(786.181641 0)"/>
      <use xlink:href="#DejaVuSans-64" transform="translate(847.705078 0)"/>
     </g>
    </g>
   </g>
  </g>
  <g id="text_20">
   <!-- chr16 region 64: overlay -->
   <g transform="translate(394.170938 16.318125) scale(0.12 -0.12)">
    <defs>
     <path id="DejaVuSans-3a" d="M 750 794 
L 1409 794 
L 1409 0 
L 750 0 
L 750 794 
z
M 750 3309 
L 1409 3309 
L 1409 2516 
L 750 2516 
L 750 3309 
z
" transform="scale(0.015625)"/>
     <path id="DejaVuSans-76" d="M 191 3500 
L 800 3500 
L 1894 563 
L 2988 3500 
L 3597 3500 
L 2284 0 
L 1503 0 
L 191 3500 
z
" transform="scale(0.015625)"/>
    </defs>
    <use xlink:href="#DejaVuSans-63"/>
    <use xlink:href="#DejaVuSans-68" transform="translate(54.980469 0)"/>
    <use xlink:href="#DejaVuSans-72" transform="translate(118.359375 0)"/>
    <use xlink:href="#DejaVuSans-31" transform="translate(159.472656 0)"/>
    <use xlink:href="#DejaVuSans-36" transform="translate(223.095703 0)"/>
    <use xlink:href="#DejaVuSans-20" transform="translate(286.71875 0)"/>
    <use xlink:href="#DejaVuSans-72" transform="translate(318.505859 0)"/>
    <use xlink:href="#DejaVuSans-65" transform="translate(357.369141 0)"/>
    <use xlink:href="#DejaVuSans-67" transform="translate(418.892578 0)"/>
    <use xlink:href="#DejaVuSans-69" transform="translate(482.369141 0)"/>
    <use xlink:href="#DejaVuSans-6f" transform="translate(510.152344 0)"/>
    <use xlink:href="#DejaVuSans-6e" transform="translate(571.333984 0)"/>
    <use xlink:href="#DejaVuSans-20" transform="translate(634.712891 0)"/>
    <use xlink:href="#DejaVuSans-36" transform="translate(666.5 0)"/>
    <use xlink:href="#DejaVuSans-34" transform="translate(730.123047 0)"/>
    <use xlink:href="#DejaVuSans-3a" transform="translate(793.746094 0)"/>
    <use xlink:href="#DejaVuSans-20" transform="translate(827.4375 0)"/>
    <use xlink:href="#DejaVuSans-6f" transform="translate(859.224609 0)"/>
    <use xlink:href="#DejaVuSans-76" transform="translate(920.40625 0)"/>
    <use xlink:href="#DejaVuSans-65" transform="translate(979.585938 0)"/>
    <use xlink:href="#DejaVuSans-72" transform="translate(1041.109375 0)"/>
    <use xlink:href="#DejaVuSans-6c" transform="translate(1082.222656 0)"/>
    <use xlink:href="#DejaVuSans-61" transform="translate(1110.005859 0)"/>
    <use xlink:href="#DejaVuSans-79" transform="translate(1171.285156 0)"/>
   </g>
   <!-- chr16_rank65_score1.965_reads478 -->
   <g transform="translate(359.357813 29.7555) scale(0.12 -0.12)">
    <defs>
     <path id="DejaVuSans-5f" d="M 3263 -1063 
L 3263 -1509 
L -63 -1509 
L -63 -1063 
L 3263 -1063 
z
" transform="scale(0.015625)"/>
     <path id="DejaVuSans-6b" d="M 581 4863 
L 1159 4863 
L 1159 1991 
L 2875 3500 
L 3609 3500 
L 1753 1863 
L 3688 0 
L 2938 0 
L 1159 1709 
L 1159 0 
L 581 0 
L 581 4863 
z
" transform="scale(0.015625)"/>
     <path id="DejaVuSans-39" d="M 703 97 
L 703 672 
Q 941 559 1184 500 
Q 1428 441 1663 441 
Q 2288 441 2617 861 
Q 2947 1281 2994 2138 
Q 2813 1869 2534 1725 
Q 2256 1581 1919 1581 
Q 1219 1581 811 2004 
Q 403 2428 403 3163 
Q 403 3881 828 4315 
Q 1253 4750 1959 4750 
Q 2769 4750 3195 4129 
Q 3622 3509 3622 2328 
Q 3622 1225 3098 567 
Q 2575 -91 1691 -91 
Q 1453 -91 1209 -44 
Q 966 3 703 97 
z
M 1959 2075 
Q 2384 2075 2632 2365 
Q 2881 2656 2881 3163 
Q 2881 3666 2632 3958 
Q 2384 4250 1959 4250 
Q 1534 4250 1286 3958 
Q 1038 3666 1038 3163 
Q 1038 2656 1286 2365 
Q 1534 2075 1959 2075 
z
" transform="scale(0.015625)"/>
    </defs>
    <use xlink:href="#DejaVuSans-63"/>
    <use xlink:href="#DejaVuSans-68" transform="translate(54.980469 0)"/>
    <use xlink:href="#DejaVuSans-72" transform="translate(118.359375 0)"/>
    <use xlink:href="#DejaVuSans-31" transform="translate(159.472656 0)"/>
    <use xlink:href="#DejaVuSans-36" transform="translate(223.095703 0)"/>
    <use xlink:href="#DejaVuSans-5f" transform="translate(286.71875 0)"/>
    <use xlink:href="#DejaVuSans-72" transform="translate(336.71875 0)"/>
    <use xlink:href="#DejaVuSans-61" transform="translate(377.832031 0)"/>
    <use xlink:href="#DejaVuSans-6e" transform="translate(439.111328 0)"/>
    <use xlink:href="#DejaVuSans-6b" transform="translate(502.490234 0)"/>
    <use xlink:href="#DejaVuSans-36" transform="translate(560.400391 0)"/>
    <use xlink:href="#DejaVuSans-35" transform="translate(624.023438 0)"/>
    <use xlink:href="#DejaVuSans-5f" transform="translate(687.646484 0)"/>
    <use xlink:href="#DejaVuSans-73" transform="translate(737.646484 0)"/>
    <use xlink:href="#DejaVuSans-63" transform="translate(789.746094 0)"/>
    <use xlink:href="#DejaVuSans-6f" transform="translate(844.726562 0)"/>
    <use xlink:href="#DejaVuSans-72" transform="translate(905.908203 0)"/>
    <use xlink:href="#DejaVuSans-65" transform="translate(944.771484 0)"/>
    <use xlink:href="#DejaVuSans-31" transform="translate(1006.294922 0)"/>
    <use xlink:href="#DejaVuSans-2e" transform="translate(1069.917969 0)"/>
    <use xlink:href="#DejaVuSans-39" transform="translate(1101.705078 0)"/>
    <use xlink:href="#DejaVuSans-36" transform="translate(1165.328125 0)"/>
    <use xlink:href="#DejaVuSans-35" transform="translate(1228.951172 0)"/>
    <use xlink:href="#DejaVuSans-5f" transform="translate(1292.574219 0)"/>
    <use xlink:href="#DejaVuSans-72" transform="translate(1342.574219 0)"/>
    <use xlink:href="#DejaVuSans-65" transform="translate(1381.4375 0)"/>
    <use xlink:href="#DejaVuSans-61" transform="translate(1442.960938 0)"/>
    <use xlink:href="#DejaVuSans-64" transform="translate(1504.240234 0)"/>
    <use xlink:href="#DejaVuSans-73" transform="translate(1567.716797 0)"/>
    <use xlink:href="#DejaVuSans-34" transform="translate(1619.816406 0)"/>
    <use xlink:href="#DejaVuSans-37" transform="translate(1683.439453 0)"/>
    <use xlink:href="#DejaVuSans-38" transform="translate(1747.0625 0)"/>
   </g>
  </g>
 </g>
 <defs>
  <clipPath id="p00ac55d8ae">
   <rect x="47.72" y="49.72725" width="877.48" height="268.31275"/>
  </clipPath>
 </defs>
</svg>
