<?xml version="1.0" encoding="utf-8" standalone="no"?>
<!DOCTYPE svg PUBLIC "-//W3C//DTD SVG 1.1//EN"
  "http://www.w3.org/Graphics/SVG/1.1/DTD/svg11.dtd">
<svg xmlns:xlink="http://www.w3.org/1999/xlink" width="864pt" height="324pt" viewBox="0 0 864 324" xmlns="http://www.w3.org/2000/svg" version="1.1">
 <metadata>
  <rdf:RDF xmlns:dc="http://purl.org/dc/elements/1.1/" xmlns:cc="http://creativecommons.org/ns#" xmlns:rdf="http://www.w3.org/1999/02/22-rdf-syntax-ns#">
   <cc:Work>
    <dc:type rdf:resource="http://purl.org/dc/dcmitype/StillImage"/>
    <dc:date>2026-07-10T15:46:49.803768</dc:date>
    <dc:format>image/svg+xml</dc:format>
    <dc:creator>
     <cc:Agent>
      <dc:title>Matplotlib v3.11.0, https://matplotlib.org/</dc:title>
     </cc:Agent>
    </dc:creator>
   </cc:Work>
  </rdf:RDF>
 </metadata>
 <defs>
  <style type="text/css">*{stroke-linejoin: round; stroke-linecap: butt}</style>
 </defs>
 <g id="figure_1">
  <g id="patch_1">
   <path d="M 0 324 
L 864 324 
L 864 0 
L 0 0 
z
" style="fill: #ffffff"/>
  </g>
  <g id="axes_1">
   <g id="patch_2">
    <path d="M 62.176021 289.998979 
L 438.815938 289.998979 
L 438.815938 18.118365 
L 62.176021 18.118365 
z
" style="fill: #ffffff"/>
   </g>
   <g id="patch_3">
    <path d="M 79.296017 289.998979 
L 82.720017 289.998979 
L 82.720017 31.065061 
L 79.296017 31.065061 
z
" clip-path="url(#pc216f3eeed)" style="fill: #2878b5"/>
   </g>
   <g id="patch_4">
    <path d="M 82.720017 289.998979 
L 86.144016 289.998979 
L 86.144016 225.306791 
L 82.720017 225.306791 
z
" clip-path="url(#pc216f3eeed)" style="fill: #2878b5"/>
   </g>
   <g id="patch_5">
    <path d="M 86.144016 289.998979 
L 89.568015 289.998979 
L 89.568015 256.441672 
L 86.144016 256.441672 
z
" clip-path="url(#pc216f3eeed)" style="fill: #2878b5"/>
   </g>
   <g id="patch_6">
    <path d="M 89.568015 289.998979 
L 92.992014 289.998979 
L 92.992014 264.991975 
L 89.568015 264.991975 
z
" clip-path="url(#pc216f3eeed)" style="fill: #2878b5"/>
   </g>
   <g id="patch_7">
    <path d="M 92.992014 289.998979 
L 96.416014 289.998979 
L 96.416014 268.046338 
L 92.992014 268.046338 
z
" clip-path="url(#pc216f3eeed)" style="fill: #2878b5"/>
   </g>
   <g id="patch_8">
    <path d="M 96.416014 289.998979 
L 99.840013 289.998979 
L 99.840013 268.295283 
L 96.416014 268.295283 
z
" clip-path="url(#pc216f3eeed)" style="fill: #2878b5"/>
   </g>
   <g id="patch_9">
    <path d="M 99.840013 289.998979 
L 103.264012 289.998979 
L 103.264012 267.548448 
L 99.840013 267.548448 
z
" clip-path="url(#pc216f3eeed)" style="fill: #2878b5"/>
   </g>
   <g id="patch_10">
    <path d="M 103.264012 289.998979 
L 106.688011 289.998979 
L 106.688011 264.726274 
L 103.264012 264.726274 
z
" clip-path="url(#pc216f3eeed)" style="fill: #2878b5"/>
   </g>
   <g id="patch_11">
    <path d="M 106.688011 289.998979 
L 110.112011 289.998979 
L 110.112011 260.645012 
L 106.688011 260.645012 
z
" clip-path="url(#pc216f3eeed)" style="fill: #2878b5"/>
   </g>
   <g id="patch_12">
    <path d="M 110.112011 289.998979 
L 113.53601 289.998979 
L 113.53601 255.58712 
L 110.112011 255.58712 
z
" clip-path="url(#pc216f3eeed)" style="fill: #2878b5"/>
   </g>
   <g id="patch_13">
    <path d="M 113.53601 289.998979 
L 116.960009 289.998979 
L 116.960009 251.048661 
L 113.53601 251.048661 
z
" clip-path="url(#pc216f3eeed)" style="fill: #2878b5"/>
   </g>
   <g id="patch_14">
    <path d="M 116.960009 289.998979 
L 120.384008 289.998979 
L 120.384008 248.544849 
L 116.960009 248.544849 
z
" clip-path="url(#pc216f3eeed)" style="fill: #2878b5"/>
   </g>
   <g id="patch_15">
    <path d="M 120.384008 289.998979 
L 123.808008 289.998979 
L 123.808008 247.436565 
L 120.384008 247.436565 
z
" clip-path="url(#pc216f3eeed)" style="fill: #2878b5"/>
   </g>
   <g id="patch_16">
    <path d="M 123.808008 289.998979 
L 127.232007 289.998979 
L 127.232007 245.619745 
L 123.808008 245.619745 
z
" clip-path="url(#pc216f3eeed)" style="fill: #2878b5"/>
   </g>
   <g id="patch_17">
    <path d="M 127.232007 289.998979 
L 130.656006 289.998979 
L 130.656006 244.384595 
L 127.232007 244.384595 
z
" clip-path="url(#pc216f3eeed)" style="fill: #2878b5"/>
   </g>
   <g id="patch_18">
    <path d="M 130.656006 289.998979 
L 134.080005 289.998979 
L 134.080005 242.586925 
L 130.656006 242.586925 
z
" clip-path="url(#pc216f3eeed)" style="fill: #2878b5"/>
   </g>
   <g id="patch_19">
    <path d="M 134.080005 289.998979 
L 137.504005 289.998979 
L 137.504005 241.205759 
L 134.080005 241.205759 
z
" clip-path="url(#pc216f3eeed)" style="fill: #2878b5"/>
   </g>
   <g id="patch_20">
    <path d="M 137.504005 289.998979 
L 140.928004 289.998979 
L 140.928004 237.830639 
L 137.504005 237.830639 
z
" clip-path="url(#pc216f3eeed)" style="fill: #2878b5"/>
   </g>
   <g id="patch_21">
    <path d="M 140.928004 289.998979 
L 144.352003 289.998979 
L 144.352003 236.336969 
L 140.928004 236.336969 
z
" clip-path="url(#pc216f3eeed)" style="fill: #2878b5"/>
   </g>
   <g id="patch_22">
    <path d="M 144.352003 289.998979 
L 147.776002 289.998979 
L 147.776002 234.256842 
L 144.352003 234.256842 
z
" clip-path="url(#pc216f3eeed)" style="fill: #2878b5"/>
   </g>
   <g id="patch_23">
    <path d="M 147.776002 289.998979 
L 151.200001 289.998979 
L 151.200001 233.083928 
L 147.776002 233.083928 
z
" clip-path="url(#pc216f3eeed)" style="fill: #2878b5"/>
   </g>
   <g id="patch_24">
    <path d="M 151.200001 289.998979 
L 154.624001 289.998979 
L 154.624001 231.396368 
L 151.200001 231.396368 
z
" clip-path="url(#pc216f3eeed)" style="fill: #2878b5"/>
   </g>
   <g id="patch_25">
    <path d="M 154.624001 289.998979 
L 158.048 289.998979 
L 158.048 230.379045 
L 154.624001 230.379045 
z
" clip-path="url(#pc216f3eeed)" style="fill: #2878b5"/>
   </g>
   <g id="patch_26">
    <path d="M 158.048 289.998979 
L 161.471999 289.998979 
L 161.471999 230.127706 
L 158.048 230.127706 
z
" clip-path="url(#pc216f3eeed)" style="fill: #2878b5"/>
   </g>
   <g id="patch_27">
    <path d="M 161.471999 289.998979 
L 164.895998 289.998979 
L 164.895998 229.433533 
L 161.471999 229.433533 
z
" clip-path="url(#pc216f3eeed)" style="fill: #2878b5"/>
   </g>
   <g id="patch_28">
    <path d="M 164.895998 289.998979 
L 168.319998 289.998979 
L 168.319998 230.106163 
L 164.895998 230.106163 
z
" clip-path="url(#pc216f3eeed)" style="fill: #2878b5"/>
   </g>
   <g id="patch_29">
    <path d="M 168.319998 289.998979 
L 171.743997 289.998979 
L 171.743997 230.774006 
L 168.319998 230.774006 
z
" clip-path="url(#pc216f3eeed)" style="fill: #2878b5"/>
   </g>
   <g id="patch_30">
    <path d="M 171.743997 289.998979 
L 175.167996 289.998979 
L 175.167996 231.269502 
L 171.743997 231.269502 
z
" clip-path="url(#pc216f3eeed)" style="fill: #2878b5"/>
   </g>
   <g id="patch_31">
    <path d="M 175.167996 289.998979 
L 178.591995 289.998979 
L 178.591995 232.533377 
L 175.167996 232.533377 
z
" clip-path="url(#pc216f3eeed)" style="fill: #2878b5"/>
   </g>
   <g id="patch_32">
    <path d="M 178.591995 289.998979 
L 182.015995 289.998979 
L 182.015995 234.005503 
L 178.591995 234.005503 
z
" clip-path="url(#pc216f3eeed)" style="fill: #2878b5"/>
   </g>
   <g id="patch_33">
    <path d="M 182.015995 289.998979 
L 185.439994 289.998979 
L 185.439994 235.745725 
L 182.015995 235.745725 
z
" clip-path="url(#pc216f3eeed)" style="fill: #2878b5"/>
   </g>
   <g id="patch_34">
    <path d="M 185.439994 289.998979 
L 188.863993 289.998979 
L 188.863993 238.318954 
L 185.439994 238.318954 
z
" clip-path="url(#pc216f3eeed)" style="fill: #2878b5"/>
   </g>
   <g id="patch_35">
    <path d="M 188.863993 289.998979 
L 192.287992 289.998979 
L 192.287992 240.229128 
L 188.863993 240.229128 
z
" clip-path="url(#pc216f3eeed)" style="fill: #2878b5"/>
   </g>
   <g id="patch_36">
    <path d="M 192.287992 289.998979 
L 195.711992 289.998979 
L 195.711992 242.653948 
L 192.287992 242.653948 
z
" clip-path="url(#pc216f3eeed)" style="fill: #2878b5"/>
   </g>
   <g id="patch_37">
    <path d="M 195.711992 289.998979 
L 199.135991 289.998979 
L 199.135991 245.174517 
L 195.711992 245.174517 
z
" clip-path="url(#pc216f3eeed)" style="fill: #2878b5"/>
   </g>
   <g id="patch_38">
    <path d="M 199.135991 289.998979 
L 202.55999 289.998979 
L 202.55999 247.273793 
L 199.135991 247.273793 
z
" clip-path="url(#pc216f3eeed)" style="fill: #2878b5"/>
   </g>
   <g id="patch_39">
    <path d="M 202.55999 289.998979 
L 205.983989 289.998979 
L 205.983989 250.249165 
L 202.55999 250.249165 
z
" clip-path="url(#pc216f3eeed)" style="fill: #2878b5"/>
   </g>
   <g id="patch_40">
    <path d="M 205.983989 289.998979 
L 209.407989 289.998979 
L 209.407989 253.38252 
L 205.983989 253.38252 
z
" clip-path="url(#pc216f3eeed)" style="fill: #2878b5"/>
   </g>
   <g id="patch_41">
    <path d="M 209.407989 289.998979 
L 212.831988 289.998979 
L 212.831988 255.661325 
L 209.407989 255.661325 
z
" clip-path="url(#pc216f3eeed)" style="fill: #2878b5"/>
   </g>
   <g id="patch_42">
    <path d="M 212.831988 289.998979 
L 216.255987 289.998979 
L 216.255987 258.043058 
L 212.831988 258.043058 
z
" clip-path="url(#pc216f3eeed)" style="fill: #2878b5"/>
   </g>
   <g id="patch_43">
    <path d="M 216.255987 289.998979 
L 219.679986 289.998979 
L 219.679986 260.487028 
L 216.255987 260.487028 
z
" clip-path="url(#pc216f3eeed)" style="fill: #2878b5"/>
   </g>
   <g id="patch_44">
    <path d="M 219.679986 289.998979 
L 223.103985 289.998979 
L 223.103985 262.150651 
L 219.679986 262.150651 
z
" clip-path="url(#pc216f3eeed)" style="fill: #2878b5"/>
   </g>
   <g id="patch_45">
    <path d="M 223.103985 289.998979 
L 226.527985 289.998979 
L 226.527985 263.957896 
L 223.103985 263.957896 
z
" clip-path="url(#pc216f3eeed)" style="fill: #2878b5"/>
   </g>
   <g id="patch_46">
    <path d="M 226.527985 289.998979 
L 229.951984 289.998979 
L 229.951984 265.051817 
L 226.527985 265.051817 
z
" clip-path="url(#pc216f3eeed)" style="fill: #2878b5"/>
   </g>
   <g id="patch_47">
    <path d="M 229.951984 289.998979 
L 233.375983 289.998979 
L 233.375983 266.150527 
L 229.951984 266.150527 
z
" clip-path="url(#pc216f3eeed)" style="fill: #2878b5"/>
   </g>
   <g id="patch_48">
    <path d="M 233.375983 289.998979 
L 236.799982 289.998979 
L 236.799982 267.29711 
L 233.375983 267.29711 
z
" clip-path="url(#pc216f3eeed)" style="fill: #2878b5"/>
   </g>
   <g id="patch_49">
    <path d="M 236.799982 289.998979 
L 240.223982 289.998979 
L 240.223982 268.225866 
L 236.799982 268.225866 
z
" clip-path="url(#pc216f3eeed)" style="fill: #2878b5"/>
   </g>
   <g id="patch_50">
    <path d="M 240.223982 289.998979 
L 243.647981 289.998979 
L 243.647981 268.055913 
L 240.223982 268.055913 
z
" clip-path="url(#pc216f3eeed)" style="fill: #2878b5"/>
   </g>
   <g id="patch_51">
    <path d="M 243.647981 289.998979 
L 247.07198 289.998979 
L 247.07198 269.018181 
L 243.647981 269.018181 
z
" clip-path="url(#pc216f3eeed)" style="fill: #2878b5"/>
   </g>
   <g id="patch_52">
    <path d="M 247.07198 289.998979 
L 250.495979 289.998979 
L 250.495979 268.673488 
L 247.07198 268.673488 
z
" clip-path="url(#pc216f3eeed)" style="fill: #2878b5"/>
   </g>
   <g id="patch_53">
    <path d="M 250.495979 289.998979 
L 253.919979 289.998979 
L 253.919979 268.534654 
L 250.495979 268.534654 
z
" clip-path="url(#pc216f3eeed)" style="fill: #2878b5"/>
   </g>
   <g id="patch_54">
    <path d="M 253.919979 289.998979 
L 257.343978 289.998979 
L 257.343978 268.082244 
L 253.919979 268.082244 
z
" clip-path="url(#pc216f3eeed)" style="fill: #2878b5"/>
   </g>
   <g id="patch_55">
    <path d="M 257.343978 289.998979 
L 260.767977 289.998979 
L 260.767977 268.125331 
L 257.343978 268.125331 
z
" clip-path="url(#pc216f3eeed)" style="fill: #2878b5"/>
   </g>
   <g id="patch_56">
    <path d="M 260.767977 289.998979 
L 264.191976 289.998979 
L 264.191976 267.510149 
L 260.767977 267.510149 
z
" clip-path="url(#pc216f3eeed)" style="fill: #2878b5"/>
   </g>
   <g id="patch_57">
    <path d="M 264.191976 289.998979 
L 267.615976 289.998979 
L 267.615976 267.158275 
L 264.191976 267.158275 
z
" clip-path="url(#pc216f3eeed)" style="fill: #2878b5"/>
   </g>
   <g id="patch_58">
    <path d="M 267.615976 289.998979 
L 271.039975 289.998979 
L 271.039975 266.421015 
L 267.615976 266.421015 
z
" clip-path="url(#pc216f3eeed)" style="fill: #2878b5"/>
   </g>
   <g id="patch_59">
    <path d="M 271.039975 289.998979 
L 274.463974 289.998979 
L 274.463974 266.258243 
L 271.039975 266.258243 
z
" clip-path="url(#pc216f3eeed)" style="fill: #2878b5"/>
   </g>
   <g id="patch_60">
    <path d="M 274.463974 289.998979 
L 277.887973 289.998979 
L 277.887973 265.446778 
L 274.463974 265.446778 
z
" clip-path="url(#pc216f3eeed)" style="fill: #2878b5"/>
   </g>
   <g id="patch_61">
    <path d="M 277.887973 289.998979 
L 281.311973 289.998979 
L 281.311973 264.901014 
L 277.887973 264.901014 
z
" clip-path="url(#pc216f3eeed)" style="fill: #2878b5"/>
   </g>
   <g id="patch_62">
    <path d="M 281.311973 289.998979 
L 284.735972 289.998979 
L 284.735972 264.697549 
L 281.311973 264.697549 
z
" clip-path="url(#pc216f3eeed)" style="fill: #2878b5"/>
   </g>
   <g id="patch_63">
    <path d="M 284.735972 289.998979 
L 288.159971 289.998979 
L 288.159971 264.089549 
L 284.735972 264.089549 
z
" clip-path="url(#pc216f3eeed)" style="fill: #2878b5"/>
   </g>
   <g id="patch_64">
    <path d="M 288.159971 289.998979 
L 291.58397 289.998979 
L 291.58397 264.264289 
L 288.159971 264.264289 
z
" clip-path="url(#pc216f3eeed)" style="fill: #2878b5"/>
   </g>
   <g id="patch_65">
    <path d="M 291.58397 289.998979 
L 295.007969 289.998979 
L 295.007969 264.546746 
L 291.58397 264.546746 
z
" clip-path="url(#pc216f3eeed)" style="fill: #2878b5"/>
   </g>
   <g id="patch_66">
    <path d="M 295.007969 289.998979 
L 298.431969 289.998979 
L 298.431969 265.090117 
L 295.007969 265.090117 
z
" clip-path="url(#pc216f3eeed)" style="fill: #2878b5"/>
   </g>
   <g id="patch_67">
    <path d="M 298.431969 289.998979 
L 301.855968 289.998979 
L 301.855968 265.619125 
L 298.431969 265.619125 
z
" clip-path="url(#pc216f3eeed)" style="fill: #2878b5"/>
   </g>
   <g id="patch_68">
    <path d="M 301.855968 289.998979 
L 305.279967 289.998979 
L 305.279967 266.447346 
L 301.855968 266.447346 
z
" clip-path="url(#pc216f3eeed)" style="fill: #2878b5"/>
   </g>
   <g id="patch_69">
    <path d="M 305.279967 289.998979 
L 308.703966 289.998979 
L 308.703966 266.806401 
L 305.279967 266.806401 
z
" clip-path="url(#pc216f3eeed)" style="fill: #2878b5"/>
   </g>
   <g id="patch_70">
    <path d="M 308.703966 289.998979 
L 312.127966 289.998979 
L 312.127966 267.814149 
L 308.703966 267.814149 
z
" clip-path="url(#pc216f3eeed)" style="fill: #2878b5"/>
   </g>
   <g id="patch_71">
    <path d="M 312.127966 289.998979 
L 315.551965 289.998979 
L 315.551965 269.405961 
L 312.127966 269.405961 
z
" clip-path="url(#pc216f3eeed)" style="fill: #2878b5"/>
   </g>
   <g id="patch_72">
    <path d="M 315.551965 289.998979 
L 318.975964 289.998979 
L 318.975964 270.961867 
L 315.551965 270.961867 
z
" clip-path="url(#pc216f3eeed)" style="fill: #2878b5"/>
   </g>
   <g id="patch_73">
    <path d="M 318.975964 289.998979 
L 322.399963 289.998979 
L 322.399963 272.539317 
L 318.975964 272.539317 
z
" clip-path="url(#pc216f3eeed)" style="fill: #2878b5"/>
   </g>
   <g id="patch_74">
    <path d="M 322.399963 289.998979 
L 325.823963 289.998979 
L 325.823963 274.796578 
L 322.399963 274.796578 
z
" clip-path="url(#pc216f3eeed)" style="fill: #2878b5"/>
   </g>
   <g id="patch_75">
    <path d="M 325.823963 289.998979 
L 329.247962 289.998979 
L 329.247962 276.596642 
L 325.823963 276.596642 
z
" clip-path="url(#pc216f3eeed)" style="fill: #2878b5"/>
   </g>
   <g id="patch_76">
    <path d="M 329.247962 289.998979 
L 332.671961 289.998979 
L 332.671961 278.10228 
L 329.247962 278.10228 
z
" clip-path="url(#pc216f3eeed)" style="fill: #2878b5"/>
   </g>
   <g id="patch_77">
    <path d="M 332.671961 289.998979 
L 336.09596 289.998979 
L 336.09596 280.050754 
L 332.671961 280.050754 
z
" clip-path="url(#pc216f3eeed)" style="fill: #2878b5"/>
   </g>
   <g id="patch_78">
    <path d="M 336.09596 289.998979 
L 339.51996 289.998979 
L 339.51996 281.817306 
L 336.09596 281.817306 
z
" clip-path="url(#pc216f3eeed)" style="fill: #2878b5"/>
   </g>
   <g id="patch_79">
    <path d="M 339.51996 289.998979 
L 342.943959 289.998979 
L 342.943959 283.476141 
L 339.51996 283.476141 
z
" clip-path="url(#pc216f3eeed)" style="fill: #2878b5"/>
   </g>
   <g id="patch_80">
    <path d="M 342.943959 289.998979 
L 346.367958 289.998979 
L 346.367958 284.893213 
L 342.943959 284.893213 
z
" clip-path="url(#pc216f3eeed)" style="fill: #2878b5"/>
   </g>
   <g id="patch_81">
    <path d="M 346.367958 289.998979 
L 349.791957 289.998979 
L 349.791957 286.24326 
L 346.367958 286.24326 
z
" clip-path="url(#pc216f3eeed)" style="fill: #2878b5"/>
   </g>
   <g id="patch_82">
    <path d="M 349.791957 289.998979 
L 353.215957 289.998979 
L 353.215957 287.23904 
L 349.791957 287.23904 
z
" clip-path="url(#pc216f3eeed)" style="fill: #2878b5"/>
   </g>
   <g id="patch_83">
    <path d="M 353.215957 289.998979 
L 356.639956 289.998979 
L 356.639956 288.086411 
L 353.215957 288.086411 
z
" clip-path="url(#pc216f3eeed)" style="fill: #2878b5"/>
   </g>
   <g id="patch_84">
    <path d="M 356.639956 289.998979 
L 360.063955 289.998979 
L 360.063955 288.636962 
L 356.639956 288.636962 
z
" clip-path="url(#pc216f3eeed)" style="fill: #2878b5"/>
   </g>
   <g id="patch_85">
    <path d="M 360.063955 289.998979 
L 363.487954 289.998979 
L 363.487954 289.142033 
L 360.063955 289.142033 
z
" clip-path="url(#pc216f3eeed)" style="fill: #2878b5"/>
   </g>
   <g id="patch_86">
    <path d="M 363.487954 289.998979 
L 366.911953 289.998979 
L 366.911953 289.414915 
L 363.487954 289.414915 
z
" clip-path="url(#pc216f3eeed)" style="fill: #2878b5"/>
   </g>
   <g id="patch_87">
    <path d="M 366.911953 289.998979 
L 370.335953 289.998979 
L 370.335953 289.625561 
L 366.911953 289.625561 
z
" clip-path="url(#pc216f3eeed)" style="fill: #2878b5"/>
   </g>
   <g id="patch_88">
    <path d="M 370.335953 289.998979 
L 373.759952 289.998979 
L 373.759952 289.714128 
L 370.335953 289.714128 
z
" clip-path="url(#pc216f3eeed)" style="fill: #2878b5"/>
   </g>
   <g id="patch_89">
    <path d="M 373.759952 289.998979 
L 377.183951 289.998979 
L 377.183951 289.807483 
L 373.759952 289.807483 
z
" clip-path="url(#pc216f3eeed)" style="fill: #2878b5"/>
   </g>
   <g id="patch_90">
    <path d="M 377.183951 289.998979 
L 380.60795 289.998979 
L 380.60795 289.850569 
L 377.183951 289.850569 
z
" clip-path="url(#pc216f3eeed)" style="fill: #2878b5"/>
   </g>
   <g id="patch_91">
    <path d="M 380.60795 289.998979 
L 384.03195 289.998979 
L 384.03195 289.855357 
L 380.60795 289.855357 
z
" clip-path="url(#pc216f3eeed)" style="fill: #2878b5"/>
   </g>
   <g id="patch_92">
    <path d="M 384.03195 289.998979 
L 387.455949 289.998979 
L 387.455949 289.912805 
L 384.03195 289.912805 
z
" clip-path="url(#pc216f3eeed)" style="fill: #2878b5"/>
   </g>
   <g id="patch_93">
    <path d="M 387.455949 289.998979 
L 390.879948 289.998979 
L 390.879948 289.910412 
L 387.455949 289.910412 
z
" clip-path="url(#pc216f3eeed)" style="fill: #2878b5"/>
   </g>
   <g id="patch_94">
    <path d="M 390.879948 289.998979 
L 394.303947 289.998979 
L 394.303947 289.903231 
L 390.879948 289.903231 
z
" clip-path="url(#pc216f3eeed)" style="fill: #2878b5"/>
   </g>
   <g id="patch_95">
    <path d="M 394.303947 289.998979 
L 397.727947 289.998979 
L 397.727947 289.919987 
L 394.303947 289.919987 
z
" clip-path="url(#pc216f3eeed)" style="fill: #2878b5"/>
   </g>
   <g id="patch_96">
    <path d="M 397.727947 289.998979 
L 401.151946 289.998979 
L 401.151946 289.929561 
L 397.727947 289.929561 
z
" clip-path="url(#pc216f3eeed)" style="fill: #2878b5"/>
   </g>
   <g id="patch_97">
    <path d="M 401.151946 289.998979 
L 404.575945 289.998979 
L 404.575945 289.927168 
L 401.151946 289.927168 
z
" clip-path="url(#pc216f3eeed)" style="fill: #2878b5"/>
   </g>
   <g id="patch_98">
    <path d="M 404.575945 289.998979 
L 407.999944 289.998979 
L 407.999944 289.929561 
L 404.575945 289.929561 
z
" clip-path="url(#pc216f3eeed)" style="fill: #2878b5"/>
   </g>
   <g id="patch_99">
    <path d="M 407.999944 289.998979 
L 411.423944 289.998979 
L 411.423944 289.934349 
L 407.999944 289.934349 
z
" clip-path="url(#pc216f3eeed)" style="fill: #2878b5"/>
   </g>
   <g id="patch_100">
    <path d="M 411.423944 289.998979 
L 414.847943 289.998979 
L 414.847943 289.946317 
L 411.423944 289.946317 
z
" clip-path="url(#pc216f3eeed)" style="fill: #2878b5"/>
   </g>
   <g id="patch_101">
    <path d="M 414.847943 289.998979 
L 418.271942 289.998979 
L 418.271942 289.967861 
L 414.847943 289.967861 
z
" clip-path="url(#pc216f3eeed)" style="fill: #2878b5"/>
   </g>
   <g id="patch_102">
    <path d="M 418.271942 289.998979 
L 421.695941 289.998979 
L 421.695941 289.984617 
L 418.271942 289.984617 
z
" clip-path="url(#pc216f3eeed)" style="fill: #2878b5"/>
   </g>
   <g id="matplotlib.axis_1">
    <g id="xtick_1">
     <g id="line2d_1">
      <defs>
       <path id="md9033b6c8e" d="M 0 0 
L 0 3.5 
" style="stroke: #000000; stroke-width: 0.8"/>
      </defs>
      <g>
       <use xlink:href="#md9033b6c8e" x="79.296017" y="289.998979" style="stroke: #000000; stroke-width: 0.8"/>
      </g>
     </g>
     <g id="text_1">
      <!-- 0.00 -->
      <g transform="translate(68.163205 304.596635) scale(0.1 -0.1)">
       <defs>
        <path id="DejaVuSans-13" d="M 2034 4250 
Q 1547 4250 1301 3770 
Q 1056 3291 1056 2328 
Q 1056 1369 1301 889 
Q 1547 409 2034 409 
Q 2525 409 2770 889 
Q 3016 1369 3016 2328 
Q 3016 3291 2770 3770 
Q 2525 4250 2034 4250 
z
M 2034 4750 
Q 2819 4750 3233 4129 
Q 3647 3509 3647 2328 
Q 3647 1150 3233 529 
Q 2819 -91 2034 -91 
Q 1250 -91 836 529 
Q 422 1150 422 2328 
Q 422 3509 836 4129 
Q 1250 4750 2034 4750 
z
" transform="scale(0.015625)"/>
        <path id="DejaVuSans-11" d="M 684 794 
L 1344 794 
L 1344 0 
L 684 0 
L 684 794 
z
" transform="scale(0.015625)"/>
       </defs>
       <use xlink:href="#DejaVuSans-13"/>
       <use xlink:href="#DejaVuSans-11" transform="translate(63.625 0)"/>
       <use xlink:href="#DejaVuSans-13" transform="translate(95.40625 0)"/>
       <use xlink:href="#DejaVuSans-13" transform="translate(159.03125 0)"/>
      </g>
     </g>
    </g>
    <g id="xtick_2">
     <g id="line2d_2">
      <g>
       <use xlink:href="#md9033b6c8e" x="137.260405" y="289.998979" style="stroke: #000000; stroke-width: 0.8"/>
      </g>
     </g>
     <g id="text_2">
      <!-- 0.05 -->
      <g transform="translate(126.127592 304.596635) scale(0.1 -0.1)">
       <defs>
        <path id="DejaVuSans-18" d="M 691 4666 
L 3169 4666 
L 3169 4134 
L 1269 4134 
L 1269 2991 
Q 1406 3038 1543 3061 
Q 1681 3084 1819 3084 
Q 2600 3084 3056 2656 
Q 3513 2228 3513 1497 
Q 3513 744 3044 326 
Q 2575 -91 1722 -91 
Q 1428 -91 1123 -41 
Q 819 9 494 109 
L 494 744 
Q 775 591 1075 516 
Q 1375 441 1709 441 
Q 2250 441 2565 725 
Q 2881 1009 2881 1497 
Q 2881 1984 2565 2268 
Q 2250 2553 1709 2553 
Q 1456 2553 1204 2497 
Q 953 2441 691 2322 
L 691 4666 
z
" transform="scale(0.015625)"/>
       </defs>
       <use xlink:href="#DejaVuSans-13"/>
       <use xlink:href="#DejaVuSans-11" transform="translate(63.625 0)"/>
       <use xlink:href="#DejaVuSans-13" transform="translate(95.40625 0)"/>
       <use xlink:href="#DejaVuSans-18" transform="translate(159.03125 0)"/>
      </g>
     </g>
    </g>
    <g id="xtick_3">
     <g id="line2d_3">
      <g>
       <use xlink:href="#md9033b6c8e" x="195.224792" y="289.998979" style="stroke: #000000; stroke-width: 0.8"/>
      </g>
     </g>
     <g id="text_3">
      <!-- 0.10 -->
      <g transform="translate(184.09198 304.596635) scale(0.1 -0.1)">
       <defs>
        <path id="DejaVuSans-14" d="M 794 531 
L 1825 531 
L 1825 4091 
L 703 3866 
L 703 4441 
L 1819 4666 
L 2450 4666 
L 2450 531 
L 3481 531 
L 3481 0 
L 794 0 
L 794 531 
z
" transform="scale(0.015625)"/>
       </defs>
       <use xlink:href="#DejaVuSans-13"/>
       <use xlink:href="#DejaVuSans-11" transform="translate(63.625 0)"/>
       <use xlink:href="#DejaVuSans-14" transform="translate(95.40625 0)"/>
       <use xlink:href="#DejaVuSans-13" transform="translate(159.03125 0)"/>
      </g>
     </g>
    </g>
    <g id="xtick_4">
     <g id="line2d_4">
      <g>
       <use xlink:href="#md9033b6c8e" x="253.189179" y="289.998979" style="stroke: #000000; stroke-width: 0.8"/>
      </g>
     </g>
     <g id="text_4">
      <!-- 0.15 -->
      <g transform="translate(242.056367 304.596635) scale(0.1 -0.1)">
       <use xlink:href="#DejaVuSans-13"/>
       <use xlink:href="#DejaVuSans-11" transform="translate(63.625 0)"/>
       <use xlink:href="#DejaVuSans-14" transform="translate(95.40625 0)"/>
       <use xlink:href="#DejaVuSans-18" transform="translate(159.03125 0)"/>
      </g>
     </g>
    </g>
    <g id="xtick_5">
     <g id="line2d_5">
      <g>
       <use xlink:href="#md9033b6c8e" x="311.153567" y="289.998979" style="stroke: #000000; stroke-width: 0.8"/>
      </g>
     </g>
     <g id="text_5">
      <!-- 0.20 -->
      <g transform="translate(300.020754 304.596635) scale(0.1 -0.1)">
       <defs>
        <path id="DejaVuSans-15" d="M 1228 531 
L 3431 531 
L 3431 0 
L 469 0 
L 469 531 
Q 828 903 1448 1529 
Q 2069 2156 2228 2338 
Q 2531 2678 2651 2914 
Q 2772 3150 2772 3378 
Q 2772 3750 2511 3984 
Q 2250 4219 1831 4219 
Q 1534 4219 1204 4116 
Q 875 4013 500 3803 
L 500 4441 
Q 881 4594 1212 4672 
Q 1544 4750 1819 4750 
Q 2544 4750 2975 4387 
Q 3406 4025 3406 3419 
Q 3406 3131 3298 2873 
Q 3191 2616 2906 2266 
Q 2828 2175 2409 1742 
Q 1991 1309 1228 531 
z
" transform="scale(0.015625)"/>
       </defs>
       <use xlink:href="#DejaVuSans-13"/>
       <use xlink:href="#DejaVuSans-11" transform="translate(63.625 0)"/>
       <use xlink:href="#DejaVuSans-15" transform="translate(95.40625 0)"/>
       <use xlink:href="#DejaVuSans-13" transform="translate(159.03125 0)"/>
      </g>
     </g>
    </g>
    <g id="xtick_6">
     <g id="line2d_6">
      <g>
       <use xlink:href="#md9033b6c8e" x="369.117954" y="289.998979" style="stroke: #000000; stroke-width: 0.8"/>
      </g>
     </g>
     <g id="text_6">
      <!-- 0.25 -->
      <g transform="translate(357.985142 304.596635) scale(0.1 -0.1)">
       <use xlink:href="#DejaVuSans-13"/>
       <use xlink:href="#DejaVuSans-11" transform="translate(63.625 0)"/>
       <use xlink:href="#DejaVuSans-15" transform="translate(95.40625 0)"/>
       <use xlink:href="#DejaVuSans-18" transform="translate(159.03125 0)"/>
      </g>
     </g>
    </g>
    <g id="xtick_7">
     <g id="line2d_7">
      <g>
       <use xlink:href="#md9033b6c8e" x="427.082341" y="289.998979" style="stroke: #000000; stroke-width: 0.8"/>
      </g>
     </g>
     <g id="text_7">
      <!-- 0.30 -->
      <g transform="translate(415.949529 304.596635) scale(0.1 -0.1)">
       <defs>
        <path id="DejaVuSans-16" d="M 2597 2516 
Q 3050 2419 3304 2112 
Q 3559 1806 3559 1356 
Q 3559 666 3084 287 
Q 2609 -91 1734 -91 
Q 1441 -91 1130 -33 
Q 819 25 488 141 
L 488 750 
Q 750 597 1062 519 
Q 1375 441 1716 441 
Q 2309 441 2620 675 
Q 2931 909 2931 1356 
Q 2931 1769 2642 2001 
Q 2353 2234 1838 2234 
L 1294 2234 
L 1294 2753 
L 1863 2753 
Q 2328 2753 2575 2939 
Q 2822 3125 2822 3475 
Q 2822 3834 2567 4026 
Q 2313 4219 1838 4219 
Q 1578 4219 1281 4162 
Q 984 4106 628 3988 
L 628 4550 
Q 988 4650 1302 4700 
Q 1616 4750 1894 4750 
Q 2613 4750 3031 4423 
Q 3450 4097 3450 3541 
Q 3450 3153 3228 2886 
Q 3006 2619 2597 2516 
z
" transform="scale(0.015625)"/>
       </defs>
       <use xlink:href="#DejaVuSans-13"/>
       <use xlink:href="#DejaVuSans-11" transform="translate(63.625 0)"/>
       <use xlink:href="#DejaVuSans-16" transform="translate(95.40625 0)"/>
       <use xlink:href="#DejaVuSans-13" transform="translate(159.03125 0)"/>
      </g>
     </g>
    </g>
    <g id="text_8">
     <!-- Between-read variance -->
     <g transform="translate(192.438167 318.597416) scale(0.1 -0.1)">
      <defs>
       <path id="DejaVuSans-25" d="M 1259 2228 
L 1259 519 
L 2272 519 
Q 2781 519 3026 730 
Q 3272 941 3272 1375 
Q 3272 1813 3026 2020 
Q 2781 2228 2272 2228 
L 1259 2228 
z
M 1259 4147 
L 1259 2741 
L 2194 2741 
Q 2656 2741 2882 2914 
Q 3109 3088 3109 3444 
Q 3109 3797 2882 3972 
Q 2656 4147 2194 4147 
L 1259 4147 
z
M 628 4666 
L 2241 4666 
Q 2963 4666 3353 4366 
Q 3744 4066 3744 3513 
Q 3744 3084 3544 2831 
Q 3344 2578 2956 2516 
Q 3422 2416 3680 2098 
Q 3938 1781 3938 1306 
Q 3938 681 3513 340 
Q 3088 0 2303 0 
L 628 0 
L 628 4666 
z
" transform="scale(0.015625)"/>
       <path id="DejaVuSans-48" d="M 3597 1894 
L 3597 1613 
L 953 1613 
Q 991 1019 1311 708 
Q 1631 397 2203 397 
Q 2534 397 2845 478 
Q 3156 559 3463 722 
L 3463 178 
Q 3153 47 2828 -22 
Q 2503 -91 2169 -91 
Q 1331 -91 842 396 
Q 353 884 353 1716 
Q 353 2575 817 3079 
Q 1281 3584 2069 3584 
Q 2775 3584 3186 3129 
Q 3597 2675 3597 1894 
z
M 3022 2063 
Q 3016 2534 2758 2815 
Q 2500 3097 2075 3097 
Q 1594 3097 1305 2825 
Q 1016 2553 972 2059 
L 3022 2063 
z
" transform="scale(0.015625)"/>
       <path id="DejaVuSans-57" d="M 1172 4494 
L 1172 3500 
L 2356 3500 
L 2356 3053 
L 1172 3053 
L 1172 1153 
Q 1172 725 1289 603 
Q 1406 481 1766 481 
L 2356 481 
L 2356 0 
L 1766 0 
Q 1100 0 847 248 
Q 594 497 594 1153 
L 594 3053 
L 172 3053 
L 172 3500 
L 594 3500 
L 594 4494 
L 1172 4494 
z
" transform="scale(0.015625)"/>
       <path id="DejaVuSans-5a" d="M 269 3500 
L 844 3500 
L 1563 769 
L 2278 3500 
L 2956 3500 
L 3675 769 
L 4391 3500 
L 4966 3500 
L 4050 0 
L 3372 0 
L 2619 2869 
L 1863 0 
L 1184 0 
L 269 3500 
z
" transform="scale(0.015625)"/>
       <path id="DejaVuSans-51" d="M 3513 2113 
L 3513 0 
L 2938 0 
L 2938 2094 
Q 2938 2591 2744 2837 
Q 2550 3084 2163 3084 
Q 1697 3084 1428 2787 
Q 1159 2491 1159 1978 
L 1159 0 
L 581 0 
L 581 3500 
L 1159 3500 
L 1159 2956 
Q 1366 3272 1645 3428 
Q 1925 3584 2291 3584 
Q 2894 3584 3203 3211 
Q 3513 2838 3513 2113 
z
" transform="scale(0.015625)"/>
       <path id="DejaVuSans-10" d="M 313 2009 
L 1997 2009 
L 1997 1497 
L 313 1497 
L 313 2009 
z
" transform="scale(0.015625)"/>
       <path id="DejaVuSans-55" d="M 2631 2963 
Q 2534 3019 2420 3045 
Q 2306 3072 2169 3072 
Q 1681 3072 1420 2755 
Q 1159 2438 1159 1844 
L 1159 0 
L 581 0 
L 581 3500 
L 1159 3500 
L 1159 2956 
Q 1341 3275 1631 3429 
Q 1922 3584 2338 3584 
Q 2397 3584 2469 3576 
Q 2541 3569 2628 3553 
L 2631 2963 
z
" transform="scale(0.015625)"/>
       <path id="DejaVuSans-44" d="M 2194 1759 
Q 1497 1759 1228 1600 
Q 959 1441 959 1056 
Q 959 750 1161 570 
Q 1363 391 1709 391 
Q 2188 391 2477 730 
Q 2766 1069 2766 1631 
L 2766 1759 
L 2194 1759 
z
M 3341 1997 
L 3341 0 
L 2766 0 
L 2766 531 
Q 2569 213 2275 61 
Q 1981 -91 1556 -91 
Q 1019 -91 701 211 
Q 384 513 384 1019 
Q 384 1609 779 1909 
Q 1175 2209 1959 2209 
L 2766 2209 
L 2766 2266 
Q 2766 2663 2505 2880 
Q 2244 3097 1772 3097 
Q 1472 3097 1187 3025 
Q 903 2953 641 2809 
L 641 3341 
Q 956 3463 1253 3523 
Q 1550 3584 1831 3584 
Q 2591 3584 2966 3190 
Q 3341 2797 3341 1997 
z
" transform="scale(0.015625)"/>
       <path id="DejaVuSans-47" d="M 2906 2969 
L 2906 4863 
L 3481 4863 
L 3481 0 
L 2906 0 
L 2906 525 
Q 2725 213 2448 61 
Q 2172 -91 1784 -91 
Q 1150 -91 751 415 
Q 353 922 353 1747 
Q 353 2572 751 3078 
Q 1150 3584 1784 3584 
Q 2172 3584 2448 3432 
Q 2725 3281 2906 2969 
z
M 947 1747 
Q 947 1113 1208 752 
Q 1469 391 1925 391 
Q 2381 391 2643 752 
Q 2906 1113 2906 1747 
Q 2906 2381 2643 2742 
Q 2381 3103 1925 3103 
Q 1469 3103 1208 2742 
Q 947 2381 947 1747 
z
" transform="scale(0.015625)"/>
       <path id="DejaVuSans-3" transform="scale(0.015625)"/>
       <path id="DejaVuSans-59" d="M 191 3500 
L 800 3500 
L 1894 563 
L 2988 3500 
L 3597 3500 
L 2284 0 
L 1503 0 
L 191 3500 
z
" transform="scale(0.015625)"/>
       <path id="DejaVuSans-4c" d="M 603 3500 
L 1178 3500 
L 1178 0 
L 603 0 
L 603 3500 
z
M 603 4863 
L 1178 4863 
L 1178 4134 
L 603 4134 
L 603 4863 
z
" transform="scale(0.015625)"/>
       <path id="DejaVuSans-46" d="M 3122 3366 
L 3122 2828 
Q 2878 2963 2633 3030 
Q 2388 3097 2138 3097 
Q 1578 3097 1268 2742 
Q 959 2388 959 1747 
Q 959 1106 1268 751 
Q 1578 397 2138 397 
Q 2388 397 2633 464 
Q 2878 531 3122 666 
L 3122 134 
Q 2881 22 2623 -34 
Q 2366 -91 2075 -91 
Q 1284 -91 818 406 
Q 353 903 353 1747 
Q 353 2603 823 3093 
Q 1294 3584 2113 3584 
Q 2378 3584 2631 3529 
Q 2884 3475 3122 3366 
z
" transform="scale(0.015625)"/>
      </defs>
      <use xlink:href="#DejaVuSans-25"/>
      <use xlink:href="#DejaVuSans-48" transform="translate(68.609375 0)"/>
      <use xlink:href="#DejaVuSans-57" transform="translate(130.140625 0)"/>
      <use xlink:href="#DejaVuSans-5a" transform="translate(169.34375 0)"/>
      <use xlink:href="#DejaVuSans-48" transform="translate(251.125 0)"/>
      <use xlink:href="#DejaVuSans-48" transform="translate(312.65625 0)"/>
      <use xlink:href="#DejaVuSans-51" transform="translate(374.1875 0)"/>
      <use xlink:href="#DejaVuSans-10" transform="translate(437.5625 0)"/>
      <use xlink:href="#DejaVuSans-55" transform="translate(473.640625 0)"/>
      <use xlink:href="#DejaVuSans-48" transform="translate(512.546875 0)"/>
      <use xlink:href="#DejaVuSans-44" transform="translate(574.078125 0)"/>
      <use xlink:href="#DejaVuSans-47" transform="translate(635.359375 0)"/>
      <use xlink:href="#DejaVuSans-3" transform="translate(698.84375 0)"/>
      <use xlink:href="#DejaVuSans-59" transform="translate(730.625 0)"/>
      <use xlink:href="#DejaVuSans-44" transform="translate(789.8125 0)"/>
      <use xlink:href="#DejaVuSans-55" transform="translate(851.09375 0)"/>
      <use xlink:href="#DejaVuSans-4c" transform="translate(892.203125 0)"/>
      <use xlink:href="#DejaVuSans-44" transform="translate(919.984375 0)"/>
      <use xlink:href="#DejaVuSans-51" transform="translate(981.265625 0)"/>
      <use xlink:href="#DejaVuSans-46" transform="translate(1044.640625 0)"/>
      <use xlink:href="#DejaVuSans-48" transform="translate(1099.625 0)"/>
     </g>
    </g>
   </g>
   <g id="matplotlib.axis_2">
    <g id="ytick_1">
     <g id="line2d_8">
      <defs>
       <path id="mc9eb6466dc" d="M 0 0 
L -3.5 0 
" style="stroke: #000000; stroke-width: 0.8"/>
      </defs>
      <g>
       <use xlink:href="#mc9eb6466dc" x="62.176021" y="289.998979" style="stroke: #000000; stroke-width: 0.8"/>
      </g>
     </g>
     <g id="text_9">
      <!-- 0 -->
      <g transform="translate(48.813521 293.797807) scale(0.1 -0.1)">
       <use xlink:href="#DejaVuSans-13"/>
      </g>
     </g>
    </g>
    <g id="ytick_2">
     <g id="line2d_9">
      <g>
       <use xlink:href="#mc9eb6466dc" x="62.176021" y="242.12494" style="stroke: #000000; stroke-width: 0.8"/>
      </g>
     </g>
     <g id="text_10">
      <!-- 20000 -->
      <g transform="translate(23.363521 245.923768) scale(0.1 -0.1)">
       <use xlink:href="#DejaVuSans-15"/>
       <use xlink:href="#DejaVuSans-13" transform="translate(63.625 0)"/>
       <use xlink:href="#DejaVuSans-13" transform="translate(127.25 0)"/>
       <use xlink:href="#DejaVuSans-13" transform="translate(190.875 0)"/>
       <use xlink:href="#DejaVuSans-13" transform="translate(254.5 0)"/>
      </g>
     </g>
    </g>
    <g id="ytick_3">
     <g id="line2d_10">
      <g>
       <use xlink:href="#mc9eb6466dc" x="62.176021" y="194.250902" style="stroke: #000000; stroke-width: 0.8"/>
      </g>
     </g>
     <g id="text_11">
      <!-- 40000 -->
      <g transform="translate(23.363521 198.04973) scale(0.1 -0.1)">
       <defs>
        <path id="DejaVuSans-17" d="M 2419 4116 
L 825 1625 
L 2419 1625 
L 2419 4116 
z
M 2253 4666 
L 3047 4666 
L 3047 1625 
L 3713 1625 
L 3713 1100 
L 3047 1100 
L 3047 0 
L 2419 0 
L 2419 1100 
L 313 1100 
L 313 1709 
L 2253 4666 
z
" transform="scale(0.015625)"/>
       </defs>
       <use xlink:href="#DejaVuSans-17"/>
       <use xlink:href="#DejaVuSans-13" transform="translate(63.625 0)"/>
       <use xlink:href="#DejaVuSans-13" transform="translate(127.25 0)"/>
       <use xlink:href="#DejaVuSans-13" transform="translate(190.875 0)"/>
       <use xlink:href="#DejaVuSans-13" transform="translate(254.5 0)"/>
      </g>
     </g>
    </g>
    <g id="ytick_4">
     <g id="line2d_11">
      <g>
       <use xlink:href="#mc9eb6466dc" x="62.176021" y="146.376864" style="stroke: #000000; stroke-width: 0.8"/>
      </g>
     </g>
     <g id="text_12">
      <!-- 60000 -->
      <g transform="translate(23.363521 150.175692) scale(0.1 -0.1)">
       <defs>
        <path id="DejaVuSans-19" d="M 2113 2584 
Q 1688 2584 1439 2293 
Q 1191 2003 1191 1497 
Q 1191 994 1439 701 
Q 1688 409 2113 409 
Q 2538 409 2786 701 
Q 3034 994 3034 1497 
Q 3034 2003 2786 2293 
Q 2538 2584 2113 2584 
z
M 3366 4563 
L 3366 3988 
Q 3128 4100 2886 4159 
Q 2644 4219 2406 4219 
Q 1781 4219 1451 3797 
Q 1122 3375 1075 2522 
Q 1259 2794 1537 2939 
Q 1816 3084 2150 3084 
Q 2853 3084 3261 2657 
Q 3669 2231 3669 1497 
Q 3669 778 3244 343 
Q 2819 -91 2113 -91 
Q 1303 -91 875 529 
Q 447 1150 447 2328 
Q 447 3434 972 4092 
Q 1497 4750 2381 4750 
Q 2619 4750 2861 4703 
Q 3103 4656 3366 4563 
z
" transform="scale(0.015625)"/>
       </defs>
       <use xlink:href="#DejaVuSans-19"/>
       <use xlink:href="#DejaVuSans-13" transform="translate(63.625 0)"/>
       <use xlink:href="#DejaVuSans-13" transform="translate(127.25 0)"/>
       <use xlink:href="#DejaVuSans-13" transform="translate(190.875 0)"/>
       <use xlink:href="#DejaVuSans-13" transform="translate(254.5 0)"/>
      </g>
     </g>
    </g>
    <g id="ytick_5">
     <g id="line2d_12">
      <g>
       <use xlink:href="#mc9eb6466dc" x="62.176021" y="98.502825" style="stroke: #000000; stroke-width: 0.8"/>
      </g>
     </g>
     <g id="text_13">
      <!-- 80000 -->
      <g transform="translate(23.363521 102.301653) scale(0.1 -0.1)">
       <defs>
        <path id="DejaVuSans-1b" d="M 2034 2216 
Q 1584 2216 1326 1975 
Q 1069 1734 1069 1313 
Q 1069 891 1326 650 
Q 1584 409 2034 409 
Q 2484 409 2743 651 
Q 3003 894 3003 1313 
Q 3003 1734 2745 1975 
Q 2488 2216 2034 2216 
z
M 1403 2484 
Q 997 2584 770 2862 
Q 544 3141 544 3541 
Q 544 4100 942 4425 
Q 1341 4750 2034 4750 
Q 2731 4750 3128 4425 
Q 3525 4100 3525 3541 
Q 3525 3141 3298 2862 
Q 3072 2584 2669 2484 
Q 3125 2378 3379 2068 
Q 3634 1759 3634 1313 
Q 3634 634 3220 271 
Q 2806 -91 2034 -91 
Q 1263 -91 848 271 
Q 434 634 434 1313 
Q 434 1759 690 2068 
Q 947 2378 1403 2484 
z
M 1172 3481 
Q 1172 3119 1398 2916 
Q 1625 2713 2034 2713 
Q 2441 2713 2670 2916 
Q 2900 3119 2900 3481 
Q 2900 3844 2670 4047 
Q 2441 4250 2034 4250 
Q 1625 4250 1398 4047 
Q 1172 3844 1172 3481 
z
" transform="scale(0.015625)"/>
       </defs>
       <use xlink:href="#DejaVuSans-1b"/>
       <use xlink:href="#DejaVuSans-13" transform="translate(63.625 0)"/>
       <use xlink:href="#DejaVuSans-13" transform="translate(127.25 0)"/>
       <use xlink:href="#DejaVuSans-13" transform="translate(190.875 0)"/>
       <use xlink:href="#DejaVuSans-13" transform="translate(254.5 0)"/>
      </g>
     </g>
    </g>
    <g id="ytick_6">
     <g id="line2d_13">
      <g>
       <use xlink:href="#mc9eb6466dc" x="62.176021" y="50.628787" style="stroke: #000000; stroke-width: 0.8"/>
      </g>
     </g>
     <g id="text_14">
      <!-- 100000 -->
      <g transform="translate(17.001021 54.427615) scale(0.1 -0.1)">
       <use xlink:href="#DejaVuSans-14"/>
       <use xlink:href="#DejaVuSans-13" transform="translate(63.625 0)"/>
       <use xlink:href="#DejaVuSans-13" transform="translate(127.25 0)"/>
       <use xlink:href="#DejaVuSans-13" transform="translate(190.875 0)"/>
       <use xlink:href="#DejaVuSans-13" transform="translate(254.5 0)"/>
       <use xlink:href="#DejaVuSans-13" transform="translate(318.125 0)"/>
      </g>
     </g>
    </g>
    <g id="text_15">
     <!-- Number of eligible loci -->
     <g transform="translate(10.598678 210.375859) rotate(-90) scale(0.1 -0.1)">
      <defs>
       <path id="DejaVuSans-31" d="M 628 4666 
L 1478 4666 
L 3547 763 
L 3547 4666 
L 4159 4666 
L 4159 0 
L 3309 0 
L 1241 3903 
L 1241 0 
L 628 0 
L 628 4666 
z
" transform="scale(0.015625)"/>
       <path id="DejaVuSans-58" d="M 544 1381 
L 544 3500 
L 1119 3500 
L 1119 1403 
Q 1119 906 1312 657 
Q 1506 409 1894 409 
Q 2359 409 2629 706 
Q 2900 1003 2900 1516 
L 2900 3500 
L 3475 3500 
L 3475 0 
L 2900 0 
L 2900 538 
Q 2691 219 2414 64 
Q 2138 -91 1772 -91 
Q 1169 -91 856 284 
Q 544 659 544 1381 
z
M 1991 3584 
L 1991 3584 
z
" transform="scale(0.015625)"/>
       <path id="DejaVuSans-50" d="M 3328 2828 
Q 3544 3216 3844 3400 
Q 4144 3584 4550 3584 
Q 5097 3584 5394 3201 
Q 5691 2819 5691 2113 
L 5691 0 
L 5113 0 
L 5113 2094 
Q 5113 2597 4934 2840 
Q 4756 3084 4391 3084 
Q 3944 3084 3684 2787 
Q 3425 2491 3425 1978 
L 3425 0 
L 2847 0 
L 2847 2094 
Q 2847 2600 2669 2842 
Q 2491 3084 2119 3084 
Q 1678 3084 1418 2786 
Q 1159 2488 1159 1978 
L 1159 0 
L 581 0 
L 581 3500 
L 1159 3500 
L 1159 2956 
Q 1356 3278 1631 3431 
Q 1906 3584 2284 3584 
Q 2666 3584 2933 3390 
Q 3200 3197 3328 2828 
z
" transform="scale(0.015625)"/>
       <path id="DejaVuSans-45" d="M 3116 1747 
Q 3116 2381 2855 2742 
Q 2594 3103 2138 3103 
Q 1681 3103 1420 2742 
Q 1159 2381 1159 1747 
Q 1159 1113 1420 752 
Q 1681 391 2138 391 
Q 2594 391 2855 752 
Q 3116 1113 3116 1747 
z
M 1159 2969 
Q 1341 3281 1617 3432 
Q 1894 3584 2278 3584 
Q 2916 3584 3314 3078 
Q 3713 2572 3713 1747 
Q 3713 922 3314 415 
Q 2916 -91 2278 -91 
Q 1894 -91 1617 61 
Q 1341 213 1159 525 
L 1159 0 
L 581 0 
L 581 4863 
L 1159 4863 
L 1159 2969 
z
" transform="scale(0.015625)"/>
       <path id="DejaVuSans-52" d="M 1959 3097 
Q 1497 3097 1228 2736 
Q 959 2375 959 1747 
Q 959 1119 1226 758 
Q 1494 397 1959 397 
Q 2419 397 2687 759 
Q 2956 1122 2956 1747 
Q 2956 2369 2687 2733 
Q 2419 3097 1959 3097 
z
M 1959 3584 
Q 2709 3584 3137 3096 
Q 3566 2609 3566 1747 
Q 3566 888 3137 398 
Q 2709 -91 1959 -91 
Q 1206 -91 779 398 
Q 353 888 353 1747 
Q 353 2609 779 3096 
Q 1206 3584 1959 3584 
z
" transform="scale(0.015625)"/>
       <path id="DejaVuSans-49" d="M 2375 4863 
L 2375 4384 
L 1825 4384 
Q 1516 4384 1395 4259 
Q 1275 4134 1275 3809 
L 1275 3500 
L 2222 3500 
L 2222 3053 
L 1275 3053 
L 1275 0 
L 697 0 
L 697 3053 
L 147 3053 
L 147 3500 
L 697 3500 
L 697 3744 
Q 697 4328 969 4595 
Q 1241 4863 1831 4863 
L 2375 4863 
z
" transform="scale(0.015625)"/>
       <path id="DejaVuSans-4f" d="M 603 4863 
L 1178 4863 
L 1178 0 
L 603 0 
L 603 4863 
z
" transform="scale(0.015625)"/>
       <path id="DejaVuSans-4a" d="M 2906 1791 
Q 2906 2416 2648 2759 
Q 2391 3103 1925 3103 
Q 1463 3103 1205 2759 
Q 947 2416 947 1791 
Q 947 1169 1205 825 
Q 1463 481 1925 481 
Q 2391 481 2648 825 
Q 2906 1169 2906 1791 
z
M 3481 434 
Q 3481 -459 3084 -895 
Q 2688 -1331 1869 -1331 
Q 1566 -1331 1297 -1286 
Q 1028 -1241 775 -1147 
L 775 -588 
Q 1028 -725 1275 -790 
Q 1522 -856 1778 -856 
Q 2344 -856 2625 -561 
Q 2906 -266 2906 331 
L 2906 616 
Q 2728 306 2450 153 
Q 2172 0 1784 0 
Q 1141 0 747 490 
Q 353 981 353 1791 
Q 353 2603 747 3093 
Q 1141 3584 1784 3584 
Q 2172 3584 2450 3431 
Q 2728 3278 2906 2969 
L 2906 3500 
L 3481 3500 
L 3481 434 
z
" transform="scale(0.015625)"/>
      </defs>
      <use xlink:href="#DejaVuSans-31"/>
      <use xlink:href="#DejaVuSans-58" transform="translate(74.8125 0)"/>
      <use xlink:href="#DejaVuSans-50" transform="translate(138.1875 0)"/>
      <use xlink:href="#DejaVuSans-45" transform="translate(235.59375 0)"/>
      <use xlink:href="#DejaVuSans-48" transform="translate(299.078125 0)"/>
      <use xlink:href="#DejaVuSans-55" transform="translate(360.609375 0)"/>
      <use xlink:href="#DejaVuSans-3" transform="translate(401.71875 0)"/>
      <use xlink:href="#DejaVuSans-52" transform="translate(433.5 0)"/>
      <use xlink:href="#DejaVuSans-49" transform="translate(494.6875 0)"/>
      <use xlink:href="#DejaVuSans-3" transform="translate(529.890625 0)"/>
      <use xlink:href="#DejaVuSans-48" transform="translate(561.671875 0)"/>
      <use xlink:href="#DejaVuSans-4f" transform="translate(623.203125 0)"/>
      <use xlink:href="#DejaVuSans-4c" transform="translate(650.984375 0)"/>
      <use xlink:href="#DejaVuSans-4a" transform="translate(678.765625 0)"/>
      <use xlink:href="#DejaVuSans-4c" transform="translate(742.25 0)"/>
      <use xlink:href="#DejaVuSans-45" transform="translate(770.03125 0)"/>
      <use xlink:href="#DejaVuSans-4f" transform="translate(833.515625 0)"/>
      <use xlink:href="#DejaVuSans-48" transform="translate(861.296875 0)"/>
      <use xlink:href="#DejaVuSans-3" transform="translate(922.828125 0)"/>
      <use xlink:href="#DejaVuSans-4f" transform="translate(954.609375 0)"/>
      <use xlink:href="#DejaVuSans-52" transform="translate(982.390625 0)"/>
      <use xlink:href="#DejaVuSans-46" transform="translate(1043.578125 0)"/>
      <use xlink:href="#DejaVuSans-4c" transform="translate(1098.5625 0)"/>
     </g>
    </g>
   </g>
   <g id="line2d_14">
    <path d="M 102.481772 289.998979 
L 102.481772 18.118365 
" clip-path="url(#pc216f3eeed)" style="fill: none; stroke-dasharray: 3.7,1.6; stroke-dashoffset: 0; stroke: #000000"/>
   </g>
   <g id="patch_103">
    <path d="M 62.176021 289.998979 
L 62.176021 18.118365 
" style="fill: none; stroke: #000000; stroke-width: 0.8; stroke-linejoin: miter; stroke-linecap: square"/>
   </g>
   <g id="patch_104">
    <path d="M 438.815938 289.998979 
L 438.815938 18.118365 
" style="fill: none; stroke: #000000; stroke-width: 0.8; stroke-linejoin: miter; stroke-linecap: square"/>
   </g>
   <g id="patch_105">
    <path d="M 62.176021 289.998979 
L 438.815938 289.998979 
" style="fill: none; stroke: #000000; stroke-width: 0.8; stroke-linejoin: miter; stroke-linecap: square"/>
   </g>
   <g id="patch_106">
    <path d="M 62.176021 18.118365 
L 438.815938 18.118365 
" style="fill: none; stroke: #000000; stroke-width: 0.8; stroke-linejoin: miter; stroke-linecap: square"/>
   </g>
   <g id="patch_107">
    <path d="M 121.672797 57.243241 
Q 113.072913 57.985873 105.364139 58.651554 
" style="fill: none; stroke: #000000; stroke-width: 0.8; stroke-linecap: round"/>
    <path d="M 108.689928 59.970314 
L 105.364139 58.651554 
L 108.414621 56.782179 
" style="fill: none; stroke: #000000; stroke-width: 0.8; stroke-linecap: round"/>
   </g>
   <g id="text_16">
    <!-- &gt;= 0.02: 1000433/1185506 -->
    <g transform="translate(125.667527 49.29827) scale(0.08 -0.08)">
     <defs>
      <path id="DejaVuSans-21" d="M 678 3150 
L 678 3719 
L 4684 2266 
L 4684 1747 
L 678 294 
L 678 863 
L 3897 2003 
L 678 3150 
z
" transform="scale(0.015625)"/>
      <path id="DejaVuSans-20" d="M 678 2906 
L 4684 2906 
L 4684 2381 
L 678 2381 
L 678 2906 
z
M 678 1631 
L 4684 1631 
L 4684 1100 
L 678 1100 
L 678 1631 
z
" transform="scale(0.015625)"/>
      <path id="DejaVuSans-1d" d="M 750 794 
L 1409 794 
L 1409 0 
L 750 0 
L 750 794 
z
M 750 3309 
L 1409 3309 
L 1409 2516 
L 750 2516 
L 750 3309 
z
" transform="scale(0.015625)"/>
      <path id="DejaVuSans-12" d="M 1625 4666 
L 2156 4666 
L 531 -594 
L 0 -594 
L 1625 4666 
z
" transform="scale(0.015625)"/>
     </defs>
     <use xlink:href="#DejaVuSans-21"/>
     <use xlink:href="#DejaVuSans-20" transform="translate(83.796875 0)"/>
     <use xlink:href="#DejaVuSans-3" transform="translate(167.59375 0)"/>
     <use xlink:href="#DejaVuSans-13" transform="translate(199.375 0)"/>
     <use xlink:href="#DejaVuSans-11" transform="translate(263 0)"/>
     <use xlink:href="#DejaVuSans-13" transform="translate(294.78125 0)"/>
     <use xlink:href="#DejaVuSans-15" transform="translate(358.40625 0)"/>
     <use xlink:href="#DejaVuSans-1d" transform="translate(422.03125 0)"/>
     <use xlink:href="#DejaVuSans-3" transform="translate(455.71875 0)"/>
     <use xlink:href="#DejaVuSans-14" transform="translate(487.5 0)"/>
     <use xlink:href="#DejaVuSans-13" transform="translate(551.125 0)"/>
     <use xlink:href="#DejaVuSans-13" transform="translate(614.75 0)"/>
     <use xlink:href="#DejaVuSans-13" transform="translate(678.375 0)"/>
     <use xlink:href="#DejaVuSans-17" transform="translate(742 0)"/>
     <use xlink:href="#DejaVuSans-16" transform="translate(805.625 0)"/>
     <use xlink:href="#DejaVuSans-16" transform="translate(869.25 0)"/>
     <use xlink:href="#DejaVuSans-12" transform="translate(932.875 0)"/>
     <use xlink:href="#DejaVuSans-14" transform="translate(966.5625 0)"/>
     <use xlink:href="#DejaVuSans-14" transform="translate(1030.1875 0)"/>
     <use xlink:href="#DejaVuSans-1b" transform="translate(1093.8125 0)"/>
     <use xlink:href="#DejaVuSans-18" transform="translate(1157.4375 0)"/>
     <use xlink:href="#DejaVuSans-18" transform="translate(1221.0625 0)"/>
     <use xlink:href="#DejaVuSans-13" transform="translate(1284.6875 0)"/>
     <use xlink:href="#DejaVuSans-19" transform="translate(1348.3125 0)"/>
    </g>
    <!-- (84.39% eligible loci) -->
    <g transform="translate(125.667527 58.900457) scale(0.08 -0.08)">
     <defs>
      <path id="DejaVuSans-b" d="M 1984 4856 
Q 1566 4138 1362 3434 
Q 1159 2731 1159 2009 
Q 1159 1288 1364 580 
Q 1569 -128 1984 -844 
L 1484 -844 
Q 1016 -109 783 600 
Q 550 1309 550 2009 
Q 550 2706 781 3412 
Q 1013 4119 1484 4856 
L 1984 4856 
z
" transform="scale(0.015625)"/>
      <path id="DejaVuSans-1c" d="M 703 97 
L 703 672 
Q 941 559 1184 500 
Q 1428 441 1663 441 
Q 2288 441 2617 861 
Q 2947 1281 2994 2138 
Q 2813 1869 2534 1725 
Q 2256 1581 1919 1581 
Q 1219 1581 811 2004 
Q 403 2428 403 3163 
Q 403 3881 828 4315 
Q 1253 4750 1959 4750 
Q 2769 4750 3195 4129 
Q 3622 3509 3622 2328 
Q 3622 1225 3098 567 
Q 2575 -91 1691 -91 
Q 1453 -91 1209 -44 
Q 966 3 703 97 
z
M 1959 2075 
Q 2384 2075 2632 2365 
Q 2881 2656 2881 3163 
Q 2881 3666 2632 3958 
Q 2384 4250 1959 4250 
Q 1534 4250 1286 3958 
Q 1038 3666 1038 3163 
Q 1038 2656 1286 2365 
Q 1534 2075 1959 2075 
z
" transform="scale(0.015625)"/>
      <path id="DejaVuSans-8" d="M 4653 2053 
Q 4381 2053 4226 1822 
Q 4072 1591 4072 1178 
Q 4072 772 4226 539 
Q 4381 306 4653 306 
Q 4919 306 5073 539 
Q 5228 772 5228 1178 
Q 5228 1588 5073 1820 
Q 4919 2053 4653 2053 
z
M 4653 2450 
Q 5147 2450 5437 2106 
Q 5728 1763 5728 1178 
Q 5728 594 5436 251 
Q 5144 -91 4653 -91 
Q 4153 -91 3862 251 
Q 3572 594 3572 1178 
Q 3572 1766 3864 2108 
Q 4156 2450 4653 2450 
z
M 1428 4353 
Q 1159 4353 1004 4120 
Q 850 3888 850 3481 
Q 850 3069 1003 2837 
Q 1156 2606 1428 2606 
Q 1700 2606 1854 2837 
Q 2009 3069 2009 3481 
Q 2009 3884 1853 4118 
Q 1697 4353 1428 4353 
z
M 4250 4750 
L 4750 4750 
L 1831 -91 
L 1331 -91 
L 4250 4750 
z
M 1428 4750 
Q 1922 4750 2215 4408 
Q 2509 4066 2509 3481 
Q 2509 2891 2217 2550 
Q 1925 2209 1428 2209 
Q 931 2209 642 2551 
Q 353 2894 353 3481 
Q 353 4063 643 4406 
Q 934 4750 1428 4750 
z
" transform="scale(0.015625)"/>
      <path id="DejaVuSans-c" d="M 513 4856 
L 1013 4856 
Q 1481 4119 1714 3412 
Q 1947 2706 1947 2009 
Q 1947 1309 1714 600 
Q 1481 -109 1013 -844 
L 513 -844 
Q 928 -128 1133 580 
Q 1338 1288 1338 2009 
Q 1338 2731 1133 3434 
Q 928 4138 513 4856 
z
" transform="scale(0.015625)"/>
     </defs>
     <use xlink:href="#DejaVuSans-b"/>
     <use xlink:href="#DejaVuSans-1b" transform="translate(39.015625 0)"/>
     <use xlink:href="#DejaVuSans-17" transform="translate(102.640625 0)"/>
     <use xlink:href="#DejaVuSans-11" transform="translate(166.265625 0)"/>
     <use xlink:href="#DejaVuSans-16" transform="translate(198.046875 0)"/>
     <use xlink:href="#DejaVuSans-1c" transform="translate(261.671875 0)"/>
     <use xlink:href="#DejaVuSans-8" transform="translate(325.296875 0)"/>
     <use xlink:href="#DejaVuSans-3" transform="translate(420.3125 0)"/>
     <use xlink:href="#DejaVuSans-48" transform="translate(452.09375 0)"/>
     <use xlink:href="#DejaVuSans-4f" transform="translate(513.625 0)"/>
     <use xlink:href="#DejaVuSans-4c" transform="translate(541.40625 0)"/>
     <use xlink:href="#DejaVuSans-4a" transform="translate(569.1875 0)"/>
     <use xlink:href="#DejaVuSans-4c" transform="translate(632.671875 0)"/>
     <use xlink:href="#DejaVuSans-45" transform="translate(660.453125 0)"/>
     <use xlink:href="#DejaVuSans-4f" transform="translate(723.9375 0)"/>
     <use xlink:href="#DejaVuSans-48" transform="translate(751.71875 0)"/>
     <use xlink:href="#DejaVuSans-3" transform="translate(813.25 0)"/>
     <use xlink:href="#DejaVuSans-4f" transform="translate(845.03125 0)"/>
     <use xlink:href="#DejaVuSans-52" transform="translate(872.8125 0)"/>
     <use xlink:href="#DejaVuSans-46" transform="translate(934 0)"/>
     <use xlink:href="#DejaVuSans-4c" transform="translate(988.984375 0)"/>
     <use xlink:href="#DejaVuSans-c" transform="translate(1016.765625 0)"/>
    </g>
   </g>
   <g id="text_17">
    <!-- 5mC: variance distribution -->
    <g transform="translate(170.785979 12.118365) scale(0.12 -0.12)">
     <defs>
      <path id="DejaVuSans-26" d="M 4122 4306 
L 4122 3641 
Q 3803 3938 3442 4084 
Q 3081 4231 2675 4231 
Q 1875 4231 1450 3742 
Q 1025 3253 1025 2328 
Q 1025 1406 1450 917 
Q 1875 428 2675 428 
Q 3081 428 3442 575 
Q 3803 722 4122 1019 
L 4122 359 
Q 3791 134 3420 21 
Q 3050 -91 2638 -91 
Q 1578 -91 968 557 
Q 359 1206 359 2328 
Q 359 3453 968 4101 
Q 1578 4750 2638 4750 
Q 3056 4750 3426 4639 
Q 3797 4528 4122 4306 
z
" transform="scale(0.015625)"/>
      <path id="DejaVuSans-56" d="M 2834 3397 
L 2834 2853 
Q 2591 2978 2328 3040 
Q 2066 3103 1784 3103 
Q 1356 3103 1142 2972 
Q 928 2841 928 2578 
Q 928 2378 1081 2264 
Q 1234 2150 1697 2047 
L 1894 2003 
Q 2506 1872 2764 1633 
Q 3022 1394 3022 966 
Q 3022 478 2636 193 
Q 2250 -91 1575 -91 
Q 1294 -91 989 -36 
Q 684 19 347 128 
L 347 722 
Q 666 556 975 473 
Q 1284 391 1588 391 
Q 1994 391 2212 530 
Q 2431 669 2431 922 
Q 2431 1156 2273 1281 
Q 2116 1406 1581 1522 
L 1381 1569 
Q 847 1681 609 1914 
Q 372 2147 372 2553 
Q 372 3047 722 3315 
Q 1072 3584 1716 3584 
Q 2034 3584 2315 3537 
Q 2597 3491 2834 3397 
z
" transform="scale(0.015625)"/>
     </defs>
     <use xlink:href="#DejaVuSans-18"/>
     <use xlink:href="#DejaVuSans-50" transform="translate(63.625 0)"/>
     <use xlink:href="#DejaVuSans-26" transform="translate(161.03125 0)"/>
     <use xlink:href="#DejaVuSans-1d" transform="translate(230.859375 0)"/>
     <use xlink:href="#DejaVuSans-3" transform="translate(264.546875 0)"/>
     <use xlink:href="#DejaVuSans-59" transform="translate(296.328125 0)"/>
     <use xlink:href="#DejaVuSans-44" transform="translate(355.515625 0)"/>
     <use xlink:href="#DejaVuSans-55" transform="translate(416.796875 0)"/>
     <use xlink:href="#DejaVuSans-4c" transform="translate(457.90625 0)"/>
     <use xlink:href="#DejaVuSans-44" transform="translate(485.6875 0)"/>
     <use xlink:href="#DejaVuSans-51" transform="translate(546.96875 0)"/>
     <use xlink:href="#DejaVuSans-46" transform="translate(610.34375 0)"/>
     <use xlink:href="#DejaVuSans-48" transform="translate(665.328125 0)"/>
     <use xlink:href="#DejaVuSans-3" transform="translate(726.859375 0)"/>
     <use xlink:href="#DejaVuSans-47" transform="translate(758.640625 0)"/>
     <use xlink:href="#DejaVuSans-4c" transform="translate(822.125 0)"/>
     <use xlink:href="#DejaVuSans-56" transform="translate(849.90625 0)"/>
     <use xlink:href="#DejaVuSans-57" transform="translate(902 0)"/>
     <use xlink:href="#DejaVuSans-55" transform="translate(941.203125 0)"/>
     <use xlink:href="#DejaVuSans-4c" transform="translate(982.3125 0)"/>
     <use xlink:href="#DejaVuSans-45" transform="translate(1010.09375 0)"/>
     <use xlink:href="#DejaVuSans-58" transform="translate(1073.578125 0)"/>
     <use xlink:href="#DejaVuSans-57" transform="translate(1136.953125 0)"/>
     <use xlink:href="#DejaVuSans-4c" transform="translate(1176.15625 0)"/>
     <use xlink:href="#DejaVuSans-52" transform="translate(1203.9375 0)"/>
     <use xlink:href="#DejaVuSans-51" transform="translate(1265.125 0)"/>
    </g>
   </g>
  </g>
  <g id="axes_2">
   <g id="patch_108">
    <path d="M 484.359844 289.998979 
L 860.99976 289.998979 
L 860.99976 18.118365 
L 484.359844 18.118365 
z
" style="fill: #ffffff"/>
   </g>
   <g id="patch_109">
    <path d="M 501.47984 289.998979 
L 504.903839 289.998979 
L 504.903839 31.065061 
L 501.47984 31.065061 
z
" clip-path="url(#pd59c67d0f1)" style="fill: #d95f02"/>
   </g>
   <g id="patch_110">
    <path d="M 504.903839 289.998979 
L 508.327838 289.998979 
L 508.327838 168.632984 
L 504.903839 168.632984 
z
" clip-path="url(#pd59c67d0f1)" style="fill: #d95f02"/>
   </g>
   <g id="patch_111">
    <path d="M 508.327838 289.998979 
L 511.751838 289.998979 
L 511.751838 214.323456 
L 508.327838 214.323456 
z
" clip-path="url(#pd59c67d0f1)" style="fill: #d95f02"/>
   </g>
   <g id="patch_112">
    <path d="M 511.751838 289.998979 
L 515.175837 289.998979 
L 515.175837 237.227976 
L 511.751838 237.227976 
z
" clip-path="url(#pd59c67d0f1)" style="fill: #d95f02"/>
   </g>
   <g id="patch_113">
    <path d="M 515.175837 289.998979 
L 518.599836 289.998979 
L 518.599836 250.254601 
L 515.175837 250.254601 
z
" clip-path="url(#pd59c67d0f1)" style="fill: #d95f02"/>
   </g>
   <g id="patch_114">
    <path d="M 518.599836 289.998979 
L 522.023835 289.998979 
L 522.023835 258.486956 
L 518.599836 258.486956 
z
" clip-path="url(#pd59c67d0f1)" style="fill: #d95f02"/>
   </g>
   <g id="patch_115">
    <path d="M 522.023835 289.998979 
L 525.447835 289.998979 
L 525.447835 264.207507 
L 522.023835 264.207507 
z
" clip-path="url(#pd59c67d0f1)" style="fill: #d95f02"/>
   </g>
   <g id="patch_116">
    <path d="M 525.447835 289.998979 
L 528.871834 289.998979 
L 528.871834 268.345134 
L 525.447835 268.345134 
z
" clip-path="url(#pd59c67d0f1)" style="fill: #d95f02"/>
   </g>
   <g id="patch_117">
    <path d="M 528.871834 289.998979 
L 532.295833 289.998979 
L 532.295833 271.371563 
L 528.871834 271.371563 
z
" clip-path="url(#pd59c67d0f1)" style="fill: #d95f02"/>
   </g>
   <g id="patch_118">
    <path d="M 532.295833 289.998979 
L 535.719832 289.998979 
L 535.719832 273.649159 
L 532.295833 273.649159 
z
" clip-path="url(#pd59c67d0f1)" style="fill: #d95f02"/>
   </g>
   <g id="patch_119">
    <path d="M 535.719832 289.998979 
L 539.143832 289.998979 
L 539.143832 275.296123 
L 535.719832 275.296123 
z
" clip-path="url(#pd59c67d0f1)" style="fill: #d95f02"/>
   </g>
   <g id="patch_120">
    <path d="M 539.143832 289.998979 
L 542.567831 289.998979 
L 542.567831 276.373779 
L 539.143832 276.373779 
z
" clip-path="url(#pd59c67d0f1)" style="fill: #d95f02"/>
   </g>
   <g id="patch_121">
    <path d="M 542.567831 289.998979 
L 545.99183 289.998979 
L 545.99183 277.257219 
L 542.567831 277.257219 
z
" clip-path="url(#pd59c67d0f1)" style="fill: #d95f02"/>
   </g>
   <g id="patch_122">
    <path d="M 545.99183 289.998979 
L 549.415829 289.998979 
L 549.415829 277.630673 
L 545.99183 277.630673 
z
" clip-path="url(#pd59c67d0f1)" style="fill: #d95f02"/>
   </g>
   <g id="patch_123">
    <path d="M 549.415829 289.998979 
L 552.839829 289.998979 
L 552.839829 277.886811 
L 549.415829 277.886811 
z
" clip-path="url(#pd59c67d0f1)" style="fill: #d95f02"/>
   </g>
   <g id="patch_124">
    <path d="M 552.839829 289.998979 
L 556.263828 289.998979 
L 556.263828 277.867326 
L 552.839829 277.867326 
z
" clip-path="url(#pd59c67d0f1)" style="fill: #d95f02"/>
   </g>
   <g id="patch_125">
    <path d="M 556.263828 289.998979 
L 559.687827 289.998979 
L 559.687827 278.394158 
L 556.263828 278.394158 
z
" clip-path="url(#pd59c67d0f1)" style="fill: #d95f02"/>
   </g>
   <g id="patch_126">
    <path d="M 559.687827 289.998979 
L 563.111826 289.998979 
L 563.111826 278.902411 
L 559.687827 278.902411 
z
" clip-path="url(#pd59c67d0f1)" style="fill: #d95f02"/>
   </g>
   <g id="patch_127">
    <path d="M 563.111826 289.998979 
L 566.535825 289.998979 
L 566.535825 279.644717 
L 563.111826 279.644717 
z
" clip-path="url(#pd59c67d0f1)" style="fill: #d95f02"/>
   </g>
   <g id="patch_128">
    <path d="M 566.535825 289.998979 
L 569.959825 289.998979 
L 569.959825 280.430384 
L 566.535825 280.430384 
z
" clip-path="url(#pd59c67d0f1)" style="fill: #d95f02"/>
   </g>
   <g id="patch_129">
    <path d="M 569.959825 289.998979 
L 573.383824 289.998979 
L 573.383824 281.289852 
L 569.959825 281.289852 
z
" clip-path="url(#pd59c67d0f1)" style="fill: #d95f02"/>
   </g>
   <g id="patch_130">
    <path d="M 573.383824 289.998979 
L 576.807823 289.998979 
L 576.807823 282.530668 
L 573.383824 282.530668 
z
" clip-path="url(#pd59c67d0f1)" style="fill: #d95f02"/>
   </g>
   <g id="patch_131">
    <path d="M 576.807823 289.998979 
L 580.231822 289.998979 
L 580.231822 283.158855 
L 576.807823 283.158855 
z
" clip-path="url(#pd59c67d0f1)" style="fill: #d95f02"/>
   </g>
   <g id="patch_132">
    <path d="M 580.231822 289.998979 
L 583.655822 289.998979 
L 583.655822 283.665317 
L 580.231822 283.665317 
z
" clip-path="url(#pd59c67d0f1)" style="fill: #d95f02"/>
   </g>
   <g id="patch_133">
    <path d="M 583.655822 289.998979 
L 587.079821 289.998979 
L 587.079821 284.801179 
L 583.655822 284.801179 
z
" clip-path="url(#pd59c67d0f1)" style="fill: #d95f02"/>
   </g>
   <g id="patch_134">
    <path d="M 587.079821 289.998979 
L 590.50382 289.998979 
L 590.50382 284.874826 
L 587.079821 284.874826 
z
" clip-path="url(#pd59c67d0f1)" style="fill: #d95f02"/>
   </g>
   <g id="patch_135">
    <path d="M 590.50382 289.998979 
L 593.927819 289.998979 
L 593.927819 285.779946 
L 590.50382 285.779946 
z
" clip-path="url(#pd59c67d0f1)" style="fill: #d95f02"/>
   </g>
   <g id="patch_136">
    <path d="M 593.927819 289.998979 
L 597.351819 289.998979 
L 597.351819 285.811946 
L 593.927819 285.811946 
z
" clip-path="url(#pd59c67d0f1)" style="fill: #d95f02"/>
   </g>
   <g id="patch_137">
    <path d="M 597.351819 289.998979 
L 600.775818 289.998979 
L 600.775818 286.523523 
L 597.351819 286.523523 
z
" clip-path="url(#pd59c67d0f1)" style="fill: #d95f02"/>
   </g>
   <g id="patch_138">
    <path d="M 600.775818 289.998979 
L 604.199817 289.998979 
L 604.199817 286.678384 
L 600.775818 286.678384 
z
" clip-path="url(#pd59c67d0f1)" style="fill: #d95f02"/>
   </g>
   <g id="patch_139">
    <path d="M 604.199817 289.998979 
L 607.623816 289.998979 
L 607.623816 286.980501 
L 604.199817 286.980501 
z
" clip-path="url(#pd59c67d0f1)" style="fill: #d95f02"/>
   </g>
   <g id="patch_140">
    <path d="M 607.623816 289.998979 
L 611.047816 289.998979 
L 611.047816 287.319741 
L 607.623816 287.319741 
z
" clip-path="url(#pd59c67d0f1)" style="fill: #d95f02"/>
   </g>
   <g id="patch_141">
    <path d="M 611.047816 289.998979 
L 614.471815 289.998979 
L 614.471815 287.417128 
L 611.047816 287.417128 
z
" clip-path="url(#pd59c67d0f1)" style="fill: #d95f02"/>
   </g>
   <g id="patch_142">
    <path d="M 614.471815 289.998979 
L 617.895814 289.998979 
L 617.895814 287.745662 
L 614.471815 287.745662 
z
" clip-path="url(#pd59c67d0f1)" style="fill: #d95f02"/>
   </g>
   <g id="patch_143">
    <path d="M 617.895814 289.998979 
L 621.319813 289.998979 
L 621.319813 287.957189 
L 617.895814 287.957189 
z
" clip-path="url(#pd59c67d0f1)" style="fill: #d95f02"/>
   </g>
   <g id="patch_144">
    <path d="M 621.319813 289.998979 
L 624.743813 289.998979 
L 624.743813 288.113436 
L 621.319813 288.113436 
z
" clip-path="url(#pd59c67d0f1)" style="fill: #d95f02"/>
   </g>
   <g id="patch_145">
    <path d="M 624.743813 289.998979 
L 628.167812 289.998979 
L 628.167812 288.24321 
L 624.743813 288.24321 
z
" clip-path="url(#pd59c67d0f1)" style="fill: #d95f02"/>
   </g>
   <g id="patch_146">
    <path d="M 628.167812 289.998979 
L 631.591811 289.998979 
L 631.591811 288.455448 
L 628.167812 288.455448 
z
" clip-path="url(#pd59c67d0f1)" style="fill: #d95f02"/>
   </g>
   <g id="patch_147">
    <path d="M 631.591811 289.998979 
L 635.01581 289.998979 
L 635.01581 288.579522 
L 631.591811 288.579522 
z
" clip-path="url(#pd59c67d0f1)" style="fill: #d95f02"/>
   </g>
   <g id="patch_148">
    <path d="M 635.01581 289.998979 
L 638.439809 289.998979 
L 638.439809 288.735962 
L 635.01581 288.735962 
z
" clip-path="url(#pd59c67d0f1)" style="fill: #d95f02"/>
   </g>
   <g id="patch_149">
    <path d="M 638.439809 289.998979 
L 641.863809 289.998979 
L 641.863809 288.778726 
L 638.439809 288.778726 
z
" clip-path="url(#pd59c67d0f1)" style="fill: #d95f02"/>
   </g>
   <g id="patch_150">
    <path d="M 641.863809 289.998979 
L 645.287808 289.998979 
L 645.287808 288.929679 
L 641.863809 288.929679 
z
" clip-path="url(#pd59c67d0f1)" style="fill: #d95f02"/>
   </g>
   <g id="patch_151">
    <path d="M 645.287808 289.998979 
L 648.711807 289.998979 
L 648.711807 289.023851 
L 645.287808 289.023851 
z
" clip-path="url(#pd59c67d0f1)" style="fill: #d95f02"/>
   </g>
   <g id="patch_152">
    <path d="M 648.711807 289.998979 
L 652.135806 289.998979 
L 652.135806 289.094186 
L 648.711807 289.094186 
z
" clip-path="url(#pd59c67d0f1)" style="fill: #d95f02"/>
   </g>
   <g id="patch_153">
    <path d="M 652.135806 289.998979 
L 655.559806 289.998979 
L 655.559806 289.208383 
L 652.135806 289.208383 
z
" clip-path="url(#pd59c67d0f1)" style="fill: #d95f02"/>
   </g>
   <g id="patch_154">
    <path d="M 655.559806 289.998979 
L 658.983805 289.998979 
L 658.983805 289.242155 
L 655.559806 289.242155 
z
" clip-path="url(#pd59c67d0f1)" style="fill: #d95f02"/>
   </g>
   <g id="patch_155">
    <path d="M 658.983805 289.998979 
L 662.407804 289.998979 
L 662.407804 289.30552 
L 658.983805 289.30552 
z
" clip-path="url(#pd59c67d0f1)" style="fill: #d95f02"/>
   </g>
   <g id="patch_156">
    <path d="M 662.407804 289.998979 
L 665.831803 289.998979 
L 665.831803 289.376819 
L 662.407804 289.376819 
z
" clip-path="url(#pd59c67d0f1)" style="fill: #d95f02"/>
   </g>
   <g id="patch_157">
    <path d="M 665.831803 289.998979 
L 669.255803 289.998979 
L 669.255803 289.441436 
L 665.831803 289.441436 
z
" clip-path="url(#pd59c67d0f1)" style="fill: #d95f02"/>
   </g>
   <g id="patch_158">
    <path d="M 669.255803 289.998979 
L 672.679802 289.998979 
L 672.679802 289.488531 
L 669.255803 289.488531 
z
" clip-path="url(#pd59c67d0f1)" style="fill: #d95f02"/>
   </g>
   <g id="patch_159">
    <path d="M 672.679802 289.998979 
L 676.103801 289.998979 
L 676.103801 289.533817 
L 672.679802 289.533817 
z
" clip-path="url(#pd59c67d0f1)" style="fill: #d95f02"/>
   </g>
   <g id="patch_160">
    <path d="M 676.103801 289.998979 
L 679.5278 289.998979 
L 679.5278 289.574232 
L 676.103801 289.574232 
z
" clip-path="url(#pd59c67d0f1)" style="fill: #d95f02"/>
   </g>
   <g id="patch_161">
    <path d="M 679.5278 289.998979 
L 682.9518 289.998979 
L 682.9518 289.60577 
L 679.5278 289.60577 
z
" clip-path="url(#pd59c67d0f1)" style="fill: #d95f02"/>
   </g>
   <g id="patch_162">
    <path d="M 682.9518 289.998979 
L 686.375799 289.998979 
L 686.375799 289.632861 
L 682.9518 289.632861 
z
" clip-path="url(#pd59c67d0f1)" style="fill: #d95f02"/>
   </g>
   <g id="patch_163">
    <path d="M 686.375799 289.998979 
L 689.799798 289.998979 
L 689.799798 289.670965 
L 686.375799 289.670965 
z
" clip-path="url(#pd59c67d0f1)" style="fill: #d95f02"/>
   </g>
   <g id="patch_164">
    <path d="M 689.799798 289.998979 
L 693.223797 289.998979 
L 693.223797 289.701675 
L 689.799798 289.701675 
z
" clip-path="url(#pd59c67d0f1)" style="fill: #d95f02"/>
   </g>
   <g id="patch_165">
    <path d="M 693.223797 289.998979 
L 696.647797 289.998979 
L 696.647797 289.73408 
L 693.223797 289.73408 
z
" clip-path="url(#pd59c67d0f1)" style="fill: #d95f02"/>
   </g>
   <g id="patch_166">
    <path d="M 696.647797 289.998979 
L 700.071796 289.998979 
L 700.071796 289.759129 
L 696.647797 289.759129 
z
" clip-path="url(#pd59c67d0f1)" style="fill: #d95f02"/>
   </g>
   <g id="patch_167">
    <path d="M 700.071796 289.998979 
L 703.495795 289.998979 
L 703.495795 289.779635 
L 700.071796 289.779635 
z
" clip-path="url(#pd59c67d0f1)" style="fill: #d95f02"/>
   </g>
   <g id="patch_168">
    <path d="M 703.495795 289.998979 
L 706.919794 289.998979 
L 706.919794 289.797792 
L 703.495795 289.797792 
z
" clip-path="url(#pd59c67d0f1)" style="fill: #d95f02"/>
   </g>
   <g id="patch_169">
    <path d="M 706.919794 289.998979 
L 710.343794 289.998979 
L 710.343794 289.822687 
L 706.919794 289.822687 
z
" clip-path="url(#pd59c67d0f1)" style="fill: #d95f02"/>
   </g>
   <g id="patch_170">
    <path d="M 710.343794 289.998979 
L 713.767793 289.998979 
L 713.767793 289.838129 
L 710.343794 289.838129 
z
" clip-path="url(#pd59c67d0f1)" style="fill: #d95f02"/>
   </g>
   <g id="patch_171">
    <path d="M 713.767793 289.998979 
L 717.191792 289.998979 
L 717.191792 289.853186 
L 713.767793 289.853186 
z
" clip-path="url(#pd59c67d0f1)" style="fill: #d95f02"/>
   </g>
   <g id="patch_172">
    <path d="M 717.191792 289.998979 
L 720.615791 289.998979 
L 720.615791 289.866048 
L 717.191792 289.866048 
z
" clip-path="url(#pd59c67d0f1)" style="fill: #d95f02"/>
   </g>
   <g id="patch_173">
    <path d="M 720.615791 289.998979 
L 724.03979 289.998979 
L 724.03979 289.881779 
L 720.615791 289.881779 
z
" clip-path="url(#pd59c67d0f1)" style="fill: #d95f02"/>
   </g>
   <g id="patch_174">
    <path d="M 724.03979 289.998979 
L 727.46379 289.998979 
L 727.46379 289.896104 
L 724.03979 289.896104 
z
" clip-path="url(#pd59c67d0f1)" style="fill: #d95f02"/>
   </g>
   <g id="patch_175">
    <path d="M 727.46379 289.998979 
L 730.887789 289.998979 
L 730.887789 289.902342 
L 727.46379 289.902342 
z
" clip-path="url(#pd59c67d0f1)" style="fill: #d95f02"/>
   </g>
   <g id="patch_176">
    <path d="M 730.887789 289.998979 
L 734.311788 289.998979 
L 734.311788 289.919035 
L 730.887789 289.919035 
z
" clip-path="url(#pd59c67d0f1)" style="fill: #d95f02"/>
   </g>
   <g id="patch_177">
    <path d="M 734.311788 289.998979 
L 737.735787 289.998979 
L 737.735787 289.927449 
L 734.311788 289.927449 
z
" clip-path="url(#pd59c67d0f1)" style="fill: #d95f02"/>
   </g>
   <g id="patch_178">
    <path d="M 737.735787 289.998979 
L 741.159787 289.998979 
L 741.159787 289.939329 
L 737.735787 289.939329 
z
" clip-path="url(#pd59c67d0f1)" style="fill: #d95f02"/>
   </g>
   <g id="patch_179">
    <path d="M 741.159787 289.998979 
L 744.583786 289.998979 
L 744.583786 289.946627 
L 741.159787 289.946627 
z
" clip-path="url(#pd59c67d0f1)" style="fill: #d95f02"/>
   </g>
   <g id="patch_180">
    <path d="M 744.583786 289.998979 
L 748.007785 289.998979 
L 748.007785 289.952615 
L 744.583786 289.952615 
z
" clip-path="url(#pd59c67d0f1)" style="fill: #d95f02"/>
   </g>
   <g id="patch_181">
    <path d="M 748.007785 289.998979 
L 751.431784 289.998979 
L 751.431784 289.962049 
L 748.007785 289.962049 
z
" clip-path="url(#pd59c67d0f1)" style="fill: #d95f02"/>
   </g>
   <g id="patch_182">
    <path d="M 751.431784 289.998979 
L 754.855784 289.998979 
L 754.855784 289.967055 
L 751.431784 289.967055 
z
" clip-path="url(#pd59c67d0f1)" style="fill: #d95f02"/>
   </g>
   <g id="patch_183">
    <path d="M 754.855784 289.998979 
L 758.279783 289.998979 
L 758.279783 289.973294 
L 754.855784 289.973294 
z
" clip-path="url(#pd59c67d0f1)" style="fill: #d95f02"/>
   </g>
   <g id="patch_184">
    <path d="M 758.279783 289.998979 
L 761.703782 289.998979 
L 761.703782 289.976394 
L 758.279783 289.976394 
z
" clip-path="url(#pd59c67d0f1)" style="fill: #d95f02"/>
   </g>
   <g id="patch_185">
    <path d="M 761.703782 289.998979 
L 765.127781 289.998979 
L 765.127781 289.980225 
L 761.703782 289.980225 
z
" clip-path="url(#pd59c67d0f1)" style="fill: #d95f02"/>
   </g>
   <g id="patch_186">
    <path d="M 765.127781 289.998979 
L 768.551781 289.998979 
L 768.551781 289.983845 
L 765.127781 289.983845 
z
" clip-path="url(#pd59c67d0f1)" style="fill: #d95f02"/>
   </g>
   <g id="patch_187">
    <path d="M 768.551781 289.998979 
L 771.97578 289.998979 
L 771.97578 289.987195 
L 768.551781 289.987195 
z
" clip-path="url(#pd59c67d0f1)" style="fill: #d95f02"/>
   </g>
   <g id="patch_188">
    <path d="M 771.97578 289.998979 
L 775.399779 289.998979 
L 775.399779 289.989044 
L 771.97578 289.989044 
z
" clip-path="url(#pd59c67d0f1)" style="fill: #d95f02"/>
   </g>
   <g id="patch_189">
    <path d="M 775.399779 289.998979 
L 778.823778 289.998979 
L 778.823778 289.992105 
L 775.399779 289.992105 
z
" clip-path="url(#pd59c67d0f1)" style="fill: #d95f02"/>
   </g>
   <g id="patch_190">
    <path d="M 778.823778 289.998979 
L 782.247778 289.998979 
L 782.247778 289.99405 
L 778.823778 289.99405 
z
" clip-path="url(#pd59c67d0f1)" style="fill: #d95f02"/>
   </g>
   <g id="patch_191">
    <path d="M 782.247778 289.998979 
L 785.671777 289.998979 
L 785.671777 289.994377 
L 782.247778 289.994377 
z
" clip-path="url(#pd59c67d0f1)" style="fill: #d95f02"/>
   </g>
   <g id="patch_192">
    <path d="M 785.671777 289.998979 
L 789.095776 289.998979 
L 789.095776 289.996148 
L 785.671777 289.996148 
z
" clip-path="url(#pd59c67d0f1)" style="fill: #d95f02"/>
   </g>
   <g id="patch_193">
    <path d="M 789.095776 289.998979 
L 792.519775 289.998979 
L 792.519775 289.996341 
L 789.095776 289.996341 
z
" clip-path="url(#pd59c67d0f1)" style="fill: #d95f02"/>
   </g>
   <g id="patch_194">
    <path d="M 792.519775 289.998979 
L 795.943774 289.998979 
L 795.943774 289.997015 
L 792.519775 289.997015 
z
" clip-path="url(#pd59c67d0f1)" style="fill: #d95f02"/>
   </g>
   <g id="patch_195">
    <path d="M 795.943774 289.998979 
L 799.367774 289.998979 
L 799.367774 289.997458 
L 795.943774 289.997458 
z
" clip-path="url(#pd59c67d0f1)" style="fill: #d95f02"/>
   </g>
   <g id="patch_196">
    <path d="M 799.367774 289.998979 
L 802.791773 289.998979 
L 802.791773 289.997823 
L 799.367774 289.997823 
z
" clip-path="url(#pd59c67d0f1)" style="fill: #d95f02"/>
   </g>
   <g id="patch_197">
    <path d="M 802.791773 289.998979 
L 806.215772 289.998979 
L 806.215772 289.997766 
L 802.791773 289.997766 
z
" clip-path="url(#pd59c67d0f1)" style="fill: #d95f02"/>
   </g>
   <g id="patch_198">
    <path d="M 806.215772 289.998979 
L 809.639771 289.998979 
L 809.639771 289.998555 
L 806.215772 289.998555 
z
" clip-path="url(#pd59c67d0f1)" style="fill: #d95f02"/>
   </g>
   <g id="patch_199">
    <path d="M 809.639771 289.998979 
L 813.063771 289.998979 
L 813.063771 289.998613 
L 809.639771 289.998613 
z
" clip-path="url(#pd59c67d0f1)" style="fill: #d95f02"/>
   </g>
   <g id="patch_200">
    <path d="M 813.063771 289.998979 
L 816.48777 289.998979 
L 816.48777 289.99869 
L 813.063771 289.99869 
z
" clip-path="url(#pd59c67d0f1)" style="fill: #d95f02"/>
   </g>
   <g id="patch_201">
    <path d="M 816.48777 289.998979 
L 819.911769 289.998979 
L 819.911769 289.998748 
L 816.48777 289.998748 
z
" clip-path="url(#pd59c67d0f1)" style="fill: #d95f02"/>
   </g>
   <g id="patch_202">
    <path d="M 819.911769 289.998979 
L 823.335768 289.998979 
L 823.335768 289.998728 
L 819.911769 289.998728 
z
" clip-path="url(#pd59c67d0f1)" style="fill: #d95f02"/>
   </g>
   <g id="patch_203">
    <path d="M 823.335768 289.998979 
L 826.759768 289.998979 
L 826.759768 289.998767 
L 823.335768 289.998767 
z
" clip-path="url(#pd59c67d0f1)" style="fill: #d95f02"/>
   </g>
   <g id="patch_204">
    <path d="M 826.759768 289.998979 
L 830.183767 289.998979 
L 830.183767 289.998786 
L 826.759768 289.998786 
z
" clip-path="url(#pd59c67d0f1)" style="fill: #d95f02"/>
   </g>
   <g id="patch_205">
    <path d="M 830.183767 289.998979 
L 833.607766 289.998979 
L 833.607766 289.998825 
L 830.183767 289.998825 
z
" clip-path="url(#pd59c67d0f1)" style="fill: #d95f02"/>
   </g>
   <g id="patch_206">
    <path d="M 833.607766 289.998979 
L 837.031765 289.998979 
L 837.031765 289.998902 
L 833.607766 289.998902 
z
" clip-path="url(#pd59c67d0f1)" style="fill: #d95f02"/>
   </g>
   <g id="patch_207">
    <path d="M 837.031765 289.998979 
L 840.455765 289.998979 
L 840.455765 289.998863 
L 837.031765 289.998863 
z
" clip-path="url(#pd59c67d0f1)" style="fill: #d95f02"/>
   </g>
   <g id="patch_208">
    <path d="M 840.455765 289.998979 
L 843.879764 289.998979 
L 843.879764 289.998709 
L 840.455765 289.998709 
z
" clip-path="url(#pd59c67d0f1)" style="fill: #d95f02"/>
   </g>
   <g id="matplotlib.axis_3">
    <g id="xtick_8">
     <g id="line2d_15">
      <g>
       <use xlink:href="#md9033b6c8e" x="501.47984" y="289.998979" style="stroke: #000000; stroke-width: 0.8"/>
      </g>
     </g>
     <g id="text_18">
      <!-- 0.00 -->
      <g transform="translate(490.347027 304.596635) scale(0.1 -0.1)">
       <use xlink:href="#DejaVuSans-13"/>
       <use xlink:href="#DejaVuSans-11" transform="translate(63.625 0)"/>
       <use xlink:href="#DejaVuSans-13" transform="translate(95.40625 0)"/>
       <use xlink:href="#DejaVuSans-13" transform="translate(159.03125 0)"/>
      </g>
     </g>
    </g>
    <g id="xtick_9">
     <g id="line2d_16">
      <g>
       <use xlink:href="#md9033b6c8e" x="558.770065" y="289.998979" style="stroke: #000000; stroke-width: 0.8"/>
      </g>
     </g>
     <g id="text_19">
      <!-- 0.05 -->
      <g transform="translate(547.637253 304.596635) scale(0.1 -0.1)">
       <use xlink:href="#DejaVuSans-13"/>
       <use xlink:href="#DejaVuSans-11" transform="translate(63.625 0)"/>
       <use xlink:href="#DejaVuSans-13" transform="translate(95.40625 0)"/>
       <use xlink:href="#DejaVuSans-18" transform="translate(159.03125 0)"/>
      </g>
     </g>
    </g>
    <g id="xtick_10">
     <g id="line2d_17">
      <g>
       <use xlink:href="#md9033b6c8e" x="616.060291" y="289.998979" style="stroke: #000000; stroke-width: 0.8"/>
      </g>
     </g>
     <g id="text_20">
      <!-- 0.10 -->
      <g transform="translate(604.927478 304.596635) scale(0.1 -0.1)">
       <use xlink:href="#DejaVuSans-13"/>
       <use xlink:href="#DejaVuSans-11" transform="translate(63.625 0)"/>
       <use xlink:href="#DejaVuSans-14" transform="translate(95.40625 0)"/>
       <use xlink:href="#DejaVuSans-13" transform="translate(159.03125 0)"/>
      </g>
     </g>
    </g>
    <g id="xtick_11">
     <g id="line2d_18">
      <g>
       <use xlink:href="#md9033b6c8e" x="673.350516" y="289.998979" style="stroke: #000000; stroke-width: 0.8"/>
      </g>
     </g>
     <g id="text_21">
      <!-- 0.15 -->
      <g transform="translate(662.217704 304.596635) scale(0.1 -0.1)">
       <use xlink:href="#DejaVuSans-13"/>
       <use xlink:href="#DejaVuSans-11" transform="translate(63.625 0)"/>
       <use xlink:href="#DejaVuSans-14" transform="translate(95.40625 0)"/>
       <use xlink:href="#DejaVuSans-18" transform="translate(159.03125 0)"/>
      </g>
     </g>
    </g>
    <g id="xtick_12">
     <g id="line2d_19">
      <g>
       <use xlink:href="#md9033b6c8e" x="730.640741" y="289.998979" style="stroke: #000000; stroke-width: 0.8"/>
      </g>
     </g>
     <g id="text_22">
      <!-- 0.20 -->
      <g transform="translate(719.507929 304.596635) scale(0.1 -0.1)">
       <use xlink:href="#DejaVuSans-13"/>
       <use xlink:href="#DejaVuSans-11" transform="translate(63.625 0)"/>
       <use xlink:href="#DejaVuSans-15" transform="translate(95.40625 0)"/>
       <use xlink:href="#DejaVuSans-13" transform="translate(159.03125 0)"/>
      </g>
     </g>
    </g>
    <g id="xtick_13">
     <g id="line2d_20">
      <g>
       <use xlink:href="#md9033b6c8e" x="787.930967" y="289.998979" style="stroke: #000000; stroke-width: 0.8"/>
      </g>
     </g>
     <g id="text_23">
      <!-- 0.25 -->
      <g transform="translate(776.798154 304.596635) scale(0.1 -0.1)">
       <use xlink:href="#DejaVuSans-13"/>
       <use xlink:href="#DejaVuSans-11" transform="translate(63.625 0)"/>
       <use xlink:href="#DejaVuSans-15" transform="translate(95.40625 0)"/>
       <use xlink:href="#DejaVuSans-18" transform="translate(159.03125 0)"/>
      </g>
     </g>
    </g>
    <g id="xtick_14">
     <g id="line2d_21">
      <g>
       <use xlink:href="#md9033b6c8e" x="845.221192" y="289.998979" style="stroke: #000000; stroke-width: 0.8"/>
      </g>
     </g>
     <g id="text_24">
      <!-- 0.30 -->
      <g transform="translate(834.08838 304.596635) scale(0.1 -0.1)">
       <use xlink:href="#DejaVuSans-13"/>
       <use xlink:href="#DejaVuSans-11" transform="translate(63.625 0)"/>
       <use xlink:href="#DejaVuSans-16" transform="translate(95.40625 0)"/>
       <use xlink:href="#DejaVuSans-13" transform="translate(159.03125 0)"/>
      </g>
     </g>
    </g>
    <g id="text_25">
     <!-- Between-read variance -->
     <g transform="translate(614.621989 318.597416) scale(0.1 -0.1)">
      <use xlink:href="#DejaVuSans-25"/>
      <use xlink:href="#DejaVuSans-48" transform="translate(68.609375 0)"/>
      <use xlink:href="#DejaVuSans-57" transform="translate(130.140625 0)"/>
      <use xlink:href="#DejaVuSans-5a" transform="translate(169.34375 0)"/>
      <use xlink:href="#DejaVuSans-48" transform="translate(251.125 0)"/>
      <use xlink:href="#DejaVuSans-48" transform="translate(312.65625 0)"/>
      <use xlink:href="#DejaVuSans-51" transform="translate(374.1875 0)"/>
      <use xlink:href="#DejaVuSans-10" transform="translate(437.5625 0)"/>
      <use xlink:href="#DejaVuSans-55" transform="translate(473.640625 0)"/>
      <use xlink:href="#DejaVuSans-48" transform="translate(512.546875 0)"/>
      <use xlink:href="#DejaVuSans-44" transform="translate(574.078125 0)"/>
      <use xlink:href="#DejaVuSans-47" transform="translate(635.359375 0)"/>
      <use xlink:href="#DejaVuSans-3" transform="translate(698.84375 0)"/>
      <use xlink:href="#DejaVuSans-59" transform="translate(730.625 0)"/>
      <use xlink:href="#DejaVuSans-44" transform="translate(789.8125 0)"/>
      <use xlink:href="#DejaVuSans-55" transform="translate(851.09375 0)"/>
      <use xlink:href="#DejaVuSans-4c" transform="translate(892.203125 0)"/>
      <use xlink:href="#DejaVuSans-44" transform="translate(919.984375 0)"/>
      <use xlink:href="#DejaVuSans-51" transform="translate(981.265625 0)"/>
      <use xlink:href="#DejaVuSans-46" transform="translate(1044.640625 0)"/>
      <use xlink:href="#DejaVuSans-48" transform="translate(1099.625 0)"/>
     </g>
    </g>
   </g>
   <g id="matplotlib.axis_4">
    <g id="ytick_7">
     <g id="line2d_22">
      <g>
       <use xlink:href="#mc9eb6466dc" x="484.359844" y="289.998979" style="stroke: #000000; stroke-width: 0.8"/>
      </g>
     </g>
     <g id="text_26">
      <!-- 0.0 -->
      <g transform="translate(461.456719 293.797807) scale(0.1 -0.1)">
       <use xlink:href="#DejaVuSans-13"/>
       <use xlink:href="#DejaVuSans-11" transform="translate(63.625 0)"/>
       <use xlink:href="#DejaVuSans-13" transform="translate(95.40625 0)"/>
      </g>
     </g>
    </g>
    <g id="ytick_8">
     <g id="line2d_23">
      <g>
       <use xlink:href="#mc9eb6466dc" x="484.359844" y="251.490623" style="stroke: #000000; stroke-width: 0.8"/>
      </g>
     </g>
     <g id="text_27">
      <!-- 0.2 -->
      <g transform="translate(461.456719 255.289451) scale(0.1 -0.1)">
       <use xlink:href="#DejaVuSans-13"/>
       <use xlink:href="#DejaVuSans-11" transform="translate(63.625 0)"/>
       <use xlink:href="#DejaVuSans-15" transform="translate(95.40625 0)"/>
      </g>
     </g>
    </g>
    <g id="ytick_9">
     <g id="line2d_24">
      <g>
       <use xlink:href="#mc9eb6466dc" x="484.359844" y="212.982268" style="stroke: #000000; stroke-width: 0.8"/>
      </g>
     </g>
     <g id="text_28">
      <!-- 0.4 -->
      <g transform="translate(461.456719 216.781096) scale(0.1 -0.1)">
       <use xlink:href="#DejaVuSans-13"/>
       <use xlink:href="#DejaVuSans-11" transform="translate(63.625 0)"/>
       <use xlink:href="#DejaVuSans-17" transform="translate(95.40625 0)"/>
      </g>
     </g>
    </g>
    <g id="ytick_10">
     <g id="line2d_25">
      <g>
       <use xlink:href="#mc9eb6466dc" x="484.359844" y="174.473912" style="stroke: #000000; stroke-width: 0.8"/>
      </g>
     </g>
     <g id="text_29">
      <!-- 0.6 -->
      <g transform="translate(461.456719 178.27274) scale(0.1 -0.1)">
       <use xlink:href="#DejaVuSans-13"/>
       <use xlink:href="#DejaVuSans-11" transform="translate(63.625 0)"/>
       <use xlink:href="#DejaVuSans-19" transform="translate(95.40625 0)"/>
      </g>
     </g>
    </g>
    <g id="ytick_11">
     <g id="line2d_26">
      <g>
       <use xlink:href="#mc9eb6466dc" x="484.359844" y="135.965557" style="stroke: #000000; stroke-width: 0.8"/>
      </g>
     </g>
     <g id="text_30">
      <!-- 0.8 -->
      <g transform="translate(461.456719 139.764385) scale(0.1 -0.1)">
       <use xlink:href="#DejaVuSans-13"/>
       <use xlink:href="#DejaVuSans-11" transform="translate(63.625 0)"/>
       <use xlink:href="#DejaVuSans-1b" transform="translate(95.40625 0)"/>
      </g>
     </g>
    </g>
    <g id="ytick_12">
     <g id="line2d_27">
      <g>
       <use xlink:href="#mc9eb6466dc" x="484.359844" y="97.457201" style="stroke: #000000; stroke-width: 0.8"/>
      </g>
     </g>
     <g id="text_31">
      <!-- 1.0 -->
      <g transform="translate(461.456719 101.256029) scale(0.1 -0.1)">
       <use xlink:href="#DejaVuSans-14"/>
       <use xlink:href="#DejaVuSans-11" transform="translate(63.625 0)"/>
       <use xlink:href="#DejaVuSans-13" transform="translate(95.40625 0)"/>
      </g>
     </g>
    </g>
    <g id="ytick_13">
     <g id="line2d_28">
      <g>
       <use xlink:href="#mc9eb6466dc" x="484.359844" y="58.948846" style="stroke: #000000; stroke-width: 0.8"/>
      </g>
     </g>
     <g id="text_32">
      <!-- 1.2 -->
      <g transform="translate(461.456719 62.747674) scale(0.1 -0.1)">
       <use xlink:href="#DejaVuSans-14"/>
       <use xlink:href="#DejaVuSans-11" transform="translate(63.625 0)"/>
       <use xlink:href="#DejaVuSans-15" transform="translate(95.40625 0)"/>
      </g>
     </g>
    </g>
    <g id="ytick_14">
     <g id="line2d_29">
      <g>
       <use xlink:href="#mc9eb6466dc" x="484.359844" y="20.44049" style="stroke: #000000; stroke-width: 0.8"/>
      </g>
     </g>
     <g id="text_33">
      <!-- 1.4 -->
      <g transform="translate(461.456719 24.239318) scale(0.1 -0.1)">
       <use xlink:href="#DejaVuSans-14"/>
       <use xlink:href="#DejaVuSans-11" transform="translate(63.625 0)"/>
       <use xlink:href="#DejaVuSans-17" transform="translate(95.40625 0)"/>
      </g>
     </g>
    </g>
    <g id="text_34">
     <!-- Number of eligible loci -->
     <g transform="translate(455.054375 210.375859) rotate(-90) scale(0.1 -0.1)">
      <use xlink:href="#DejaVuSans-31"/>
      <use xlink:href="#DejaVuSans-58" transform="translate(74.8125 0)"/>
      <use xlink:href="#DejaVuSans-50" transform="translate(138.1875 0)"/>
      <use xlink:href="#DejaVuSans-45" transform="translate(235.59375 0)"/>
      <use xlink:href="#DejaVuSans-48" transform="translate(299.078125 0)"/>
      <use xlink:href="#DejaVuSans-55" transform="translate(360.609375 0)"/>
      <use xlink:href="#DejaVuSans-3" transform="translate(401.71875 0)"/>
      <use xlink:href="#DejaVuSans-52" transform="translate(433.5 0)"/>
      <use xlink:href="#DejaVuSans-49" transform="translate(494.6875 0)"/>
      <use xlink:href="#DejaVuSans-3" transform="translate(529.890625 0)"/>
      <use xlink:href="#DejaVuSans-48" transform="translate(561.671875 0)"/>
      <use xlink:href="#DejaVuSans-4f" transform="translate(623.203125 0)"/>
      <use xlink:href="#DejaVuSans-4c" transform="translate(650.984375 0)"/>
      <use xlink:href="#DejaVuSans-4a" transform="translate(678.765625 0)"/>
      <use xlink:href="#DejaVuSans-4c" transform="translate(742.25 0)"/>
      <use xlink:href="#DejaVuSans-45" transform="translate(770.03125 0)"/>
      <use xlink:href="#DejaVuSans-4f" transform="translate(833.515625 0)"/>
      <use xlink:href="#DejaVuSans-48" transform="translate(861.296875 0)"/>
      <use xlink:href="#DejaVuSans-3" transform="translate(922.828125 0)"/>
      <use xlink:href="#DejaVuSans-4f" transform="translate(954.609375 0)"/>
      <use xlink:href="#DejaVuSans-52" transform="translate(982.390625 0)"/>
      <use xlink:href="#DejaVuSans-46" transform="translate(1043.578125 0)"/>
      <use xlink:href="#DejaVuSans-4c" transform="translate(1098.5625 0)"/>
     </g>
    </g>
    <g id="text_35">
     <!-- 1e7 -->
     <g transform="translate(484.359844 15.118365) scale(0.1 -0.1)">
      <defs>
       <path id="DejaVuSans-1a" d="M 525 4666 
L 3525 4666 
L 3525 4397 
L 1831 0 
L 1172 0 
L 2766 4134 
L 525 4134 
L 525 4666 
z
" transform="scale(0.015625)"/>
      </defs>
      <use xlink:href="#DejaVuSans-14"/>
      <use xlink:href="#DejaVuSans-48" transform="translate(63.625 0)"/>
      <use xlink:href="#DejaVuSans-1a" transform="translate(125.15625 0)"/>
     </g>
    </g>
   </g>
   <g id="line2d_30">
    <path d="M 524.39593 289.998979 
L 524.39593 18.118365 
" clip-path="url(#pd59c67d0f1)" style="fill: none; stroke-dasharray: 3.7,1.6; stroke-dashoffset: 0; stroke: #000000"/>
   </g>
   <g id="patch_209">
    <path d="M 484.359844 289.998979 
L 484.359844 18.118365 
" style="fill: none; stroke: #000000; stroke-width: 0.8; stroke-linejoin: miter; stroke-linecap: square"/>
   </g>
   <g id="patch_210">
    <path d="M 860.99976 289.998979 
L 860.99976 18.118365 
" style="fill: none; stroke: #000000; stroke-width: 0.8; stroke-linejoin: miter; stroke-linecap: square"/>
   </g>
   <g id="patch_211">
    <path d="M 484.359844 289.998979 
L 860.99976 289.998979 
" style="fill: none; stroke: #000000; stroke-width: 0.8; stroke-linejoin: miter; stroke-linecap: square"/>
   </g>
   <g id="patch_212">
    <path d="M 484.359844 18.118365 
L 860.99976 18.118365 
" style="fill: none; stroke: #000000; stroke-width: 0.8; stroke-linejoin: miter; stroke-linecap: square"/>
   </g>
   <g id="patch_213">
    <path d="M 543.318964 57.359617 
Q 534.853032 58.04897 527.278576 58.665733 
" style="fill: none; stroke: #000000; stroke-width: 0.8; stroke-linecap: round"/>
    <path d="M 530.597873 60.000749 
L 527.278576 58.665733 
L 530.338167 56.811305 
" style="fill: none; stroke: #000000; stroke-width: 0.8; stroke-linecap: round"/>
   </g>
   <g id="text_36">
    <!-- &gt;= 0.02: 14151115/45226270 -->
    <g transform="translate(547.31202 49.29827) scale(0.08 -0.08)">
     <use xlink:href="#DejaVuSans-21"/>
     <use xlink:href="#DejaVuSans-20" transform="translate(83.796875 0)"/>
     <use xlink:href="#DejaVuSans-3" transform="translate(167.59375 0)"/>
     <use xlink:href="#DejaVuSans-13" transform="translate(199.375 0)"/>
     <use xlink:href="#DejaVuSans-11" transform="translate(263 0)"/>
     <use xlink:href="#DejaVuSans-13" transform="translate(294.78125 0)"/>
     <use xlink:href="#DejaVuSans-15" transform="translate(358.40625 0)"/>
     <use xlink:href="#DejaVuSans-1d" transform="translate(422.03125 0)"/>
     <use xlink:href="#DejaVuSans-3" transform="translate(455.71875 0)"/>
     <use xlink:href="#DejaVuSans-14" transform="translate(487.5 0)"/>
     <use xlink:href="#DejaVuSans-17" transform="translate(551.125 0)"/>
     <use xlink:href="#DejaVuSans-14" transform="translate(614.75 0)"/>
     <use xlink:href="#DejaVuSans-18" transform="translate(678.375 0)"/>
     <use xlink:href="#DejaVuSans-14" transform="translate(742 0)"/>
     <use xlink:href="#DejaVuSans-14" transform="translate(805.625 0)"/>
     <use xlink:href="#DejaVuSans-14" transform="translate(869.25 0)"/>
     <use xlink:href="#DejaVuSans-18" transform="translate(932.875 0)"/>
     <use xlink:href="#DejaVuSans-12" transform="translate(996.5 0)"/>
     <use xlink:href="#DejaVuSans-17" transform="translate(1030.1875 0)"/>
     <use xlink:href="#DejaVuSans-18" transform="translate(1093.8125 0)"/>
     <use xlink:href="#DejaVuSans-15" transform="translate(1157.4375 0)"/>
     <use xlink:href="#DejaVuSans-15" transform="translate(1221.0625 0)"/>
     <use xlink:href="#DejaVuSans-19" transform="translate(1284.6875 0)"/>
     <use xlink:href="#DejaVuSans-15" transform="translate(1348.3125 0)"/>
     <use xlink:href="#DejaVuSans-1a" transform="translate(1411.9375 0)"/>
     <use xlink:href="#DejaVuSans-13" transform="translate(1475.5625 0)"/>
    </g>
    <!-- (31.29% eligible loci) -->
    <g transform="translate(547.31202 58.900457) scale(0.08 -0.08)">
     <use xlink:href="#DejaVuSans-b"/>
     <use xlink:href="#DejaVuSans-16" transform="translate(39.015625 0)"/>
     <use xlink:href="#DejaVuSans-14" transform="translate(102.640625 0)"/>
     <use xlink:href="#DejaVuSans-11" transform="translate(166.265625 0)"/>
     <use xlink:href="#DejaVuSans-15" transform="translate(198.046875 0)"/>
     <use xlink:href="#DejaVuSans-1c" transform="translate(261.671875 0)"/>
     <use xlink:href="#DejaVuSans-8" transform="translate(325.296875 0)"/>
     <use xlink:href="#DejaVuSans-3" transform="translate(420.3125 0)"/>
     <use xlink:href="#DejaVuSans-48" transform="translate(452.09375 0)"/>
     <use xlink:href="#DejaVuSans-4f" transform="translate(513.625 0)"/>
     <use xlink:href="#DejaVuSans-4c" transform="translate(541.40625 0)"/>
     <use xlink:href="#DejaVuSans-4a" transform="translate(569.1875 0)"/>
     <use xlink:href="#DejaVuSans-4c" transform="translate(632.671875 0)"/>
     <use xlink:href="#DejaVuSans-45" transform="translate(660.453125 0)"/>
     <use xlink:href="#DejaVuSans-4f" transform="translate(723.9375 0)"/>
     <use xlink:href="#DejaVuSans-48" transform="translate(751.71875 0)"/>
     <use xlink:href="#DejaVuSans-3" transform="translate(813.25 0)"/>
     <use xlink:href="#DejaVuSans-4f" transform="translate(845.03125 0)"/>
     <use xlink:href="#DejaVuSans-52" transform="translate(872.8125 0)"/>
     <use xlink:href="#DejaVuSans-46" transform="translate(934 0)"/>
     <use xlink:href="#DejaVuSans-4c" transform="translate(988.984375 0)"/>
     <use xlink:href="#DejaVuSans-c" transform="translate(1016.765625 0)"/>
    </g>
   </g>
   <g id="text_37">
    <!-- 6mA: variance distribution -->
    <g transform="translate(593.160114 12.118365) scale(0.12 -0.12)">
     <defs>
      <path id="DejaVuSans-24" d="M 2188 4044 
L 1331 1722 
L 3047 1722 
L 2188 4044 
z
M 1831 4666 
L 2547 4666 
L 4325 0 
L 3669 0 
L 3244 1197 
L 1141 1197 
L 716 0 
L 50 0 
L 1831 4666 
z
" transform="scale(0.015625)"/>
     </defs>
     <use xlink:href="#DejaVuSans-19"/>
     <use xlink:href="#DejaVuSans-50" transform="translate(63.625 0)"/>
     <use xlink:href="#DejaVuSans-24" transform="translate(161.03125 0)"/>
     <use xlink:href="#DejaVuSans-1d" transform="translate(227.6875 0)"/>
     <use xlink:href="#DejaVuSans-3" transform="translate(261.375 0)"/>
     <use xlink:href="#DejaVuSans-59" transform="translate(293.15625 0)"/>
     <use xlink:href="#DejaVuSans-44" transform="translate(352.34375 0)"/>
     <use xlink:href="#DejaVuSans-55" transform="translate(413.625 0)"/>
     <use xlink:href="#DejaVuSans-4c" transform="translate(454.734375 0)"/>
     <use xlink:href="#DejaVuSans-44" transform="translate(482.515625 0)"/>
     <use xlink:href="#DejaVuSans-51" transform="translate(543.796875 0)"/>
     <use xlink:href="#DejaVuSans-46" transform="translate(607.171875 0)"/>
     <use xlink:href="#DejaVuSans-48" transform="translate(662.15625 0)"/>
     <use xlink:href="#DejaVuSans-3" transform="translate(723.6875 0)"/>
     <use xlink:href="#DejaVuSans-47" transform="translate(755.46875 0)"/>
     <use xlink:href="#DejaVuSans-4c" transform="translate(818.953125 0)"/>
     <use xlink:href="#DejaVuSans-56" transform="translate(846.734375 0)"/>
     <use xlink:href="#DejaVuSans-57" transform="translate(898.828125 0)"/>
     <use xlink:href="#DejaVuSans-55" transform="translate(938.03125 0)"/>
     <use xlink:href="#DejaVuSans-4c" transform="translate(979.140625 0)"/>
     <use xlink:href="#DejaVuSans-45" transform="translate(1006.921875 0)"/>
     <use xlink:href="#DejaVuSans-58" transform="translate(1070.40625 0)"/>
     <use xlink:href="#DejaVuSans-57" transform="translate(1133.78125 0)"/>
     <use xlink:href="#DejaVuSans-4c" transform="translate(1172.984375 0)"/>
     <use xlink:href="#DejaVuSans-52" transform="translate(1200.765625 0)"/>
     <use xlink:href="#DejaVuSans-51" transform="translate(1261.953125 0)"/>
    </g>
   </g>
  </g>
 </g>
 <defs>
  <clipPath id="pc216f3eeed">
   <rect x="62.176021" y="18.118365" width="376.639916" height="271.880614"/>
  </clipPath>
  <clipPath id="pd59c67d0f1">
   <rect x="484.359844" y="18.118365" width="376.639916" height="271.880614"/>
  </clipPath>
 </defs>
</svg>
