<?xml version="1.0" encoding="utf-8" standalone="no"?>
<!DOCTYPE svg PUBLIC "-//W3C//DTD SVG 1.1//EN"
  "http://www.w3.org/Graphics/SVG/1.1/DTD/svg11.dtd">
<svg xmlns:xlink="http://www.w3.org/1999/xlink" width="792pt" height="345.6pt" viewBox="0 0 792 345.6" xmlns="http://www.w3.org/2000/svg" version="1.1">
 <metadata>
  <rdf:RDF xmlns:dc="http://purl.org/dc/elements/1.1/" xmlns:cc="http://creativecommons.org/ns#" xmlns:rdf="http://www.w3.org/1999/02/22-rdf-syntax-ns#">
   <cc:Work>
    <dc:type rdf:resource="http://purl.org/dc/dcmitype/StillImage"/>
    <dc:date>2026-07-13T12:45:31.390462</dc:date>
    <dc:format>image/svg+xml</dc:format>
    <dc:creator>
     <cc:Agent>
      <dc:title>Matplotlib v3.11.0, https://matplotlib.org/</dc:title>
     </cc:Agent>
    </dc:creator>
   </cc:Work>
  </rdf:RDF>
 </metadata>
 <defs>
  <style type="text/css">*{stroke-linejoin: round; stroke-linecap: butt}</style>
 </defs>
 <g id="figure_1">
  <g id="patch_1">
   <path d="M 0 345.6 
L 792 345.6 
L 792 0 
L 0 0 
z
" style="fill: #ffffff"/>
  </g>
  <g id="axes_1">
   <g id="patch_2">
    <path d="M 39.904146 311.598979 
L 380.907187 311.598979 
L 380.907187 37.176736 
L 39.904146 37.176736 
z
" style="fill: #ffffff"/>
   </g>
   <g id="matplotlib.axis_1">
    <g id="xtick_1">
     <g id="line2d_1">
      <defs>
       <path id="mdb021954b8" d="M 0 0 
L 0 3.5 
" style="stroke: #000000; stroke-width: 0.8"/>
      </defs>
      <g>
       <use xlink:href="#mdb021954b8" x="39.904146" y="311.598979" style="stroke: #000000; stroke-width: 0.8"/>
      </g>
     </g>
     <g id="text_1">
      <!-- 0.0 -->
      <g transform="translate(31.952584 326.196635) scale(0.1 -0.1)">
       <defs>
        <path id="DejaVuSans-13" d="M 2034 4250 
Q 1547 4250 1301 3770 
Q 1056 3291 1056 2328 
Q 1056 1369 1301 889 
Q 1547 409 2034 409 
Q 2525 409 2770 889 
Q 3016 1369 3016 2328 
Q 3016 3291 2770 3770 
Q 2525 4250 2034 4250 
z
M 2034 4750 
Q 2819 4750 3233 4129 
Q 3647 3509 3647 2328 
Q 3647 1150 3233 529 
Q 2819 -91 2034 -91 
Q 1250 -91 836 529 
Q 422 1150 422 2328 
Q 422 3509 836 4129 
Q 1250 4750 2034 4750 
z
" transform="scale(0.015625)"/>
        <path id="DejaVuSans-11" d="M 684 794 
L 1344 794 
L 1344 0 
L 684 0 
L 684 794 
z
" transform="scale(0.015625)"/>
       </defs>
       <use xlink:href="#DejaVuSans-13"/>
       <use xlink:href="#DejaVuSans-11" transform="translate(63.625 0)"/>
       <use xlink:href="#DejaVuSans-13" transform="translate(95.40625 0)"/>
      </g>
     </g>
    </g>
    <g id="xtick_2">
     <g id="line2d_2">
      <g>
       <use xlink:href="#mdb021954b8" x="108.104754" y="311.598979" style="stroke: #000000; stroke-width: 0.8"/>
      </g>
     </g>
     <g id="text_2">
      <!-- 0.2 -->
      <g transform="translate(100.153192 326.196635) scale(0.1 -0.1)">
       <defs>
        <path id="DejaVuSans-15" d="M 1228 531 
L 3431 531 
L 3431 0 
L 469 0 
L 469 531 
Q 828 903 1448 1529 
Q 2069 2156 2228 2338 
Q 2531 2678 2651 2914 
Q 2772 3150 2772 3378 
Q 2772 3750 2511 3984 
Q 2250 4219 1831 4219 
Q 1534 4219 1204 4116 
Q 875 4013 500 3803 
L 500 4441 
Q 881 4594 1212 4672 
Q 1544 4750 1819 4750 
Q 2544 4750 2975 4387 
Q 3406 4025 3406 3419 
Q 3406 3131 3298 2873 
Q 3191 2616 2906 2266 
Q 2828 2175 2409 1742 
Q 1991 1309 1228 531 
z
" transform="scale(0.015625)"/>
       </defs>
       <use xlink:href="#DejaVuSans-13"/>
       <use xlink:href="#DejaVuSans-11" transform="translate(63.625 0)"/>
       <use xlink:href="#DejaVuSans-15" transform="translate(95.40625 0)"/>
      </g>
     </g>
    </g>
    <g id="xtick_3">
     <g id="line2d_3">
      <g>
       <use xlink:href="#mdb021954b8" x="176.305363" y="311.598979" style="stroke: #000000; stroke-width: 0.8"/>
      </g>
     </g>
     <g id="text_3">
      <!-- 0.4 -->
      <g transform="translate(168.3538 326.196635) scale(0.1 -0.1)">
       <defs>
        <path id="DejaVuSans-17" d="M 2419 4116 
L 825 1625 
L 2419 1625 
L 2419 4116 
z
M 2253 4666 
L 3047 4666 
L 3047 1625 
L 3713 1625 
L 3713 1100 
L 3047 1100 
L 3047 0 
L 2419 0 
L 2419 1100 
L 313 1100 
L 313 1709 
L 2253 4666 
z
" transform="scale(0.015625)"/>
       </defs>
       <use xlink:href="#DejaVuSans-13"/>
       <use xlink:href="#DejaVuSans-11" transform="translate(63.625 0)"/>
       <use xlink:href="#DejaVuSans-17" transform="translate(95.40625 0)"/>
      </g>
     </g>
    </g>
    <g id="xtick_4">
     <g id="line2d_4">
      <g>
       <use xlink:href="#mdb021954b8" x="244.505971" y="311.598979" style="stroke: #000000; stroke-width: 0.8"/>
      </g>
     </g>
     <g id="text_4">
      <!-- 0.6 -->
      <g transform="translate(236.554408 326.196635) scale(0.1 -0.1)">
       <defs>
        <path id="DejaVuSans-19" d="M 2113 2584 
Q 1688 2584 1439 2293 
Q 1191 2003 1191 1497 
Q 1191 994 1439 701 
Q 1688 409 2113 409 
Q 2538 409 2786 701 
Q 3034 994 3034 1497 
Q 3034 2003 2786 2293 
Q 2538 2584 2113 2584 
z
M 3366 4563 
L 3366 3988 
Q 3128 4100 2886 4159 
Q 2644 4219 2406 4219 
Q 1781 4219 1451 3797 
Q 1122 3375 1075 2522 
Q 1259 2794 1537 2939 
Q 1816 3084 2150 3084 
Q 2853 3084 3261 2657 
Q 3669 2231 3669 1497 
Q 3669 778 3244 343 
Q 2819 -91 2113 -91 
Q 1303 -91 875 529 
Q 447 1150 447 2328 
Q 447 3434 972 4092 
Q 1497 4750 2381 4750 
Q 2619 4750 2861 4703 
Q 3103 4656 3366 4563 
z
" transform="scale(0.015625)"/>
       </defs>
       <use xlink:href="#DejaVuSans-13"/>
       <use xlink:href="#DejaVuSans-11" transform="translate(63.625 0)"/>
       <use xlink:href="#DejaVuSans-19" transform="translate(95.40625 0)"/>
      </g>
     </g>
    </g>
    <g id="xtick_5">
     <g id="line2d_5">
      <g>
       <use xlink:href="#mdb021954b8" x="312.706579" y="311.598979" style="stroke: #000000; stroke-width: 0.8"/>
      </g>
     </g>
     <g id="text_5">
      <!-- 0.8 -->
      <g transform="translate(304.755017 326.196635) scale(0.1 -0.1)">
       <defs>
        <path id="DejaVuSans-1b" d="M 2034 2216 
Q 1584 2216 1326 1975 
Q 1069 1734 1069 1313 
Q 1069 891 1326 650 
Q 1584 409 2034 409 
Q 2484 409 2743 651 
Q 3003 894 3003 1313 
Q 3003 1734 2745 1975 
Q 2488 2216 2034 2216 
z
M 1403 2484 
Q 997 2584 770 2862 
Q 544 3141 544 3541 
Q 544 4100 942 4425 
Q 1341 4750 2034 4750 
Q 2731 4750 3128 4425 
Q 3525 4100 3525 3541 
Q 3525 3141 3298 2862 
Q 3072 2584 2669 2484 
Q 3125 2378 3379 2068 
Q 3634 1759 3634 1313 
Q 3634 634 3220 271 
Q 2806 -91 2034 -91 
Q 1263 -91 848 271 
Q 434 634 434 1313 
Q 434 1759 690 2068 
Q 947 2378 1403 2484 
z
M 1172 3481 
Q 1172 3119 1398 2916 
Q 1625 2713 2034 2713 
Q 2441 2713 2670 2916 
Q 2900 3119 2900 3481 
Q 2900 3844 2670 4047 
Q 2441 4250 2034 4250 
Q 1625 4250 1398 4047 
Q 1172 3844 1172 3481 
z
" transform="scale(0.015625)"/>
       </defs>
       <use xlink:href="#DejaVuSans-13"/>
       <use xlink:href="#DejaVuSans-11" transform="translate(63.625 0)"/>
       <use xlink:href="#DejaVuSans-1b" transform="translate(95.40625 0)"/>
      </g>
     </g>
    </g>
    <g id="xtick_6">
     <g id="line2d_6">
      <g>
       <use xlink:href="#mdb021954b8" x="380.907187" y="311.598979" style="stroke: #000000; stroke-width: 0.8"/>
      </g>
     </g>
     <g id="text_6">
      <!-- 1.0 -->
      <g transform="translate(372.955625 326.196635) scale(0.1 -0.1)">
       <defs>
        <path id="DejaVuSans-14" d="M 794 531 
L 1825 531 
L 1825 4091 
L 703 3866 
L 703 4441 
L 1819 4666 
L 2450 4666 
L 2450 531 
L 3481 531 
L 3481 0 
L 794 0 
L 794 531 
z
" transform="scale(0.015625)"/>
       </defs>
       <use xlink:href="#DejaVuSans-14"/>
       <use xlink:href="#DejaVuSans-11" transform="translate(63.625 0)"/>
       <use xlink:href="#DejaVuSans-13" transform="translate(95.40625 0)"/>
      </g>
     </g>
    </g>
    <g id="text_7">
     <!-- False positive rate -->
     <g transform="translate(164.907229 340.197416) scale(0.1 -0.1)">
      <defs>
       <path id="DejaVuSans-29" d="M 628 4666 
L 3309 4666 
L 3309 4134 
L 1259 4134 
L 1259 2759 
L 3109 2759 
L 3109 2228 
L 1259 2228 
L 1259 0 
L 628 0 
L 628 4666 
z
" transform="scale(0.015625)"/>
       <path id="DejaVuSans-44" d="M 2194 1759 
Q 1497 1759 1228 1600 
Q 959 1441 959 1056 
Q 959 750 1161 570 
Q 1363 391 1709 391 
Q 2188 391 2477 730 
Q 2766 1069 2766 1631 
L 2766 1759 
L 2194 1759 
z
M 3341 1997 
L 3341 0 
L 2766 0 
L 2766 531 
Q 2569 213 2275 61 
Q 1981 -91 1556 -91 
Q 1019 -91 701 211 
Q 384 513 384 1019 
Q 384 1609 779 1909 
Q 1175 2209 1959 2209 
L 2766 2209 
L 2766 2266 
Q 2766 2663 2505 2880 
Q 2244 3097 1772 3097 
Q 1472 3097 1187 3025 
Q 903 2953 641 2809 
L 641 3341 
Q 956 3463 1253 3523 
Q 1550 3584 1831 3584 
Q 2591 3584 2966 3190 
Q 3341 2797 3341 1997 
z
" transform="scale(0.015625)"/>
       <path id="DejaVuSans-4f" d="M 603 4863 
L 1178 4863 
L 1178 0 
L 603 0 
L 603 4863 
z
" transform="scale(0.015625)"/>
       <path id="DejaVuSans-56" d="M 2834 3397 
L 2834 2853 
Q 2591 2978 2328 3040 
Q 2066 3103 1784 3103 
Q 1356 3103 1142 2972 
Q 928 2841 928 2578 
Q 928 2378 1081 2264 
Q 1234 2150 1697 2047 
L 1894 2003 
Q 2506 1872 2764 1633 
Q 3022 1394 3022 966 
Q 3022 478 2636 193 
Q 2250 -91 1575 -91 
Q 1294 -91 989 -36 
Q 684 19 347 128 
L 347 722 
Q 666 556 975 473 
Q 1284 391 1588 391 
Q 1994 391 2212 530 
Q 2431 669 2431 922 
Q 2431 1156 2273 1281 
Q 2116 1406 1581 1522 
L 1381 1569 
Q 847 1681 609 1914 
Q 372 2147 372 2553 
Q 372 3047 722 3315 
Q 1072 3584 1716 3584 
Q 2034 3584 2315 3537 
Q 2597 3491 2834 3397 
z
" transform="scale(0.015625)"/>
       <path id="DejaVuSans-48" d="M 3597 1894 
L 3597 1613 
L 953 1613 
Q 991 1019 1311 708 
Q 1631 397 2203 397 
Q 2534 397 2845 478 
Q 3156 559 3463 722 
L 3463 178 
Q 3153 47 2828 -22 
Q 2503 -91 2169 -91 
Q 1331 -91 842 396 
Q 353 884 353 1716 
Q 353 2575 817 3079 
Q 1281 3584 2069 3584 
Q 2775 3584 3186 3129 
Q 3597 2675 3597 1894 
z
M 3022 2063 
Q 3016 2534 2758 2815 
Q 2500 3097 2075 3097 
Q 1594 3097 1305 2825 
Q 1016 2553 972 2059 
L 3022 2063 
z
" transform="scale(0.015625)"/>
       <path id="DejaVuSans-3" transform="scale(0.015625)"/>
       <path id="DejaVuSans-53" d="M 1159 525 
L 1159 -1331 
L 581 -1331 
L 581 3500 
L 1159 3500 
L 1159 2969 
Q 1341 3281 1617 3432 
Q 1894 3584 2278 3584 
Q 2916 3584 3314 3078 
Q 3713 2572 3713 1747 
Q 3713 922 3314 415 
Q 2916 -91 2278 -91 
Q 1894 -91 1617 61 
Q 1341 213 1159 525 
z
M 3116 1747 
Q 3116 2381 2855 2742 
Q 2594 3103 2138 3103 
Q 1681 3103 1420 2742 
Q 1159 2381 1159 1747 
Q 1159 1113 1420 752 
Q 1681 391 2138 391 
Q 2594 391 2855 752 
Q 3116 1113 3116 1747 
z
" transform="scale(0.015625)"/>
       <path id="DejaVuSans-52" d="M 1959 3097 
Q 1497 3097 1228 2736 
Q 959 2375 959 1747 
Q 959 1119 1226 758 
Q 1494 397 1959 397 
Q 2419 397 2687 759 
Q 2956 1122 2956 1747 
Q 2956 2369 2687 2733 
Q 2419 3097 1959 3097 
z
M 1959 3584 
Q 2709 3584 3137 3096 
Q 3566 2609 3566 1747 
Q 3566 888 3137 398 
Q 2709 -91 1959 -91 
Q 1206 -91 779 398 
Q 353 888 353 1747 
Q 353 2609 779 3096 
Q 1206 3584 1959 3584 
z
" transform="scale(0.015625)"/>
       <path id="DejaVuSans-4c" d="M 603 3500 
L 1178 3500 
L 1178 0 
L 603 0 
L 603 3500 
z
M 603 4863 
L 1178 4863 
L 1178 4134 
L 603 4134 
L 603 4863 
z
" transform="scale(0.015625)"/>
       <path id="DejaVuSans-57" d="M 1172 4494 
L 1172 3500 
L 2356 3500 
L 2356 3053 
L 1172 3053 
L 1172 1153 
Q 1172 725 1289 603 
Q 1406 481 1766 481 
L 2356 481 
L 2356 0 
L 1766 0 
Q 1100 0 847 248 
Q 594 497 594 1153 
L 594 3053 
L 172 3053 
L 172 3500 
L 594 3500 
L 594 4494 
L 1172 4494 
z
" transform="scale(0.015625)"/>
       <path id="DejaVuSans-59" d="M 191 3500 
L 800 3500 
L 1894 563 
L 2988 3500 
L 3597 3500 
L 2284 0 
L 1503 0 
L 191 3500 
z
" transform="scale(0.015625)"/>
       <path id="DejaVuSans-55" d="M 2631 2963 
Q 2534 3019 2420 3045 
Q 2306 3072 2169 3072 
Q 1681 3072 1420 2755 
Q 1159 2438 1159 1844 
L 1159 0 
L 581 0 
L 581 3500 
L 1159 3500 
L 1159 2956 
Q 1341 3275 1631 3429 
Q 1922 3584 2338 3584 
Q 2397 3584 2469 3576 
Q 2541 3569 2628 3553 
L 2631 2963 
z
" transform="scale(0.015625)"/>
      </defs>
      <use xlink:href="#DejaVuSans-29"/>
      <use xlink:href="#DejaVuSans-44" transform="translate(48.34375 0)"/>
      <use xlink:href="#DejaVuSans-4f" transform="translate(109.625 0)"/>
      <use xlink:href="#DejaVuSans-56" transform="translate(137.40625 0)"/>
      <use xlink:href="#DejaVuSans-48" transform="translate(189.5 0)"/>
      <use xlink:href="#DejaVuSans-3" transform="translate(251.03125 0)"/>
      <use xlink:href="#DejaVuSans-53" transform="translate(282.8125 0)"/>
      <use xlink:href="#DejaVuSans-52" transform="translate(346.296875 0)"/>
      <use xlink:href="#DejaVuSans-56" transform="translate(407.484375 0)"/>
      <use xlink:href="#DejaVuSans-4c" transform="translate(459.578125 0)"/>
      <use xlink:href="#DejaVuSans-57" transform="translate(487.359375 0)"/>
      <use xlink:href="#DejaVuSans-4c" transform="translate(526.5625 0)"/>
      <use xlink:href="#DejaVuSans-59" transform="translate(554.34375 0)"/>
      <use xlink:href="#DejaVuSans-48" transform="translate(613.53125 0)"/>
      <use xlink:href="#DejaVuSans-3" transform="translate(675.0625 0)"/>
      <use xlink:href="#DejaVuSans-55" transform="translate(706.84375 0)"/>
      <use xlink:href="#DejaVuSans-44" transform="translate(747.953125 0)"/>
      <use xlink:href="#DejaVuSans-57" transform="translate(809.234375 0)"/>
      <use xlink:href="#DejaVuSans-48" transform="translate(848.4375 0)"/>
     </g>
    </g>
   </g>
   <g id="matplotlib.axis_2">
    <g id="ytick_1">
     <g id="line2d_7">
      <defs>
       <path id="mdd012a7226" d="M 0 0 
L -3.5 0 
" style="stroke: #000000; stroke-width: 0.8"/>
      </defs>
      <g>
       <use xlink:href="#mdd012a7226" x="39.904146" y="311.598979" style="stroke: #000000; stroke-width: 0.8"/>
      </g>
     </g>
     <g id="text_8">
      <!-- 0.0 -->
      <g transform="translate(17.001021 315.397807) scale(0.1 -0.1)">
       <use xlink:href="#DejaVuSans-13"/>
       <use xlink:href="#DejaVuSans-11" transform="translate(63.625 0)"/>
       <use xlink:href="#DejaVuSans-13" transform="translate(95.40625 0)"/>
      </g>
     </g>
    </g>
    <g id="ytick_2">
     <g id="line2d_8">
      <g>
       <use xlink:href="#mdd012a7226" x="39.904146" y="257.790696" style="stroke: #000000; stroke-width: 0.8"/>
      </g>
     </g>
     <g id="text_9">
      <!-- 0.2 -->
      <g transform="translate(17.001021 261.589524) scale(0.1 -0.1)">
       <use xlink:href="#DejaVuSans-13"/>
       <use xlink:href="#DejaVuSans-11" transform="translate(63.625 0)"/>
       <use xlink:href="#DejaVuSans-15" transform="translate(95.40625 0)"/>
      </g>
     </g>
    </g>
    <g id="ytick_3">
     <g id="line2d_9">
      <g>
       <use xlink:href="#mdd012a7226" x="39.904146" y="203.982413" style="stroke: #000000; stroke-width: 0.8"/>
      </g>
     </g>
     <g id="text_10">
      <!-- 0.4 -->
      <g transform="translate(17.001021 207.781241) scale(0.1 -0.1)">
       <use xlink:href="#DejaVuSans-13"/>
       <use xlink:href="#DejaVuSans-11" transform="translate(63.625 0)"/>
       <use xlink:href="#DejaVuSans-17" transform="translate(95.40625 0)"/>
      </g>
     </g>
    </g>
    <g id="ytick_4">
     <g id="line2d_10">
      <g>
       <use xlink:href="#mdd012a7226" x="39.904146" y="150.17413" style="stroke: #000000; stroke-width: 0.8"/>
      </g>
     </g>
     <g id="text_11">
      <!-- 0.6 -->
      <g transform="translate(17.001021 153.972958) scale(0.1 -0.1)">
       <use xlink:href="#DejaVuSans-13"/>
       <use xlink:href="#DejaVuSans-11" transform="translate(63.625 0)"/>
       <use xlink:href="#DejaVuSans-19" transform="translate(95.40625 0)"/>
      </g>
     </g>
    </g>
    <g id="ytick_5">
     <g id="line2d_11">
      <g>
       <use xlink:href="#mdd012a7226" x="39.904146" y="96.365847" style="stroke: #000000; stroke-width: 0.8"/>
      </g>
     </g>
     <g id="text_12">
      <!-- 0.8 -->
      <g transform="translate(17.001021 100.164675) scale(0.1 -0.1)">
       <use xlink:href="#DejaVuSans-13"/>
       <use xlink:href="#DejaVuSans-11" transform="translate(63.625 0)"/>
       <use xlink:href="#DejaVuSans-1b" transform="translate(95.40625 0)"/>
      </g>
     </g>
    </g>
    <g id="ytick_6">
     <g id="line2d_12">
      <g>
       <use xlink:href="#mdd012a7226" x="39.904146" y="42.557564" style="stroke: #000000; stroke-width: 0.8"/>
      </g>
     </g>
     <g id="text_13">
      <!-- 1.0 -->
      <g transform="translate(17.001021 46.356392) scale(0.1 -0.1)">
       <use xlink:href="#DejaVuSans-14"/>
       <use xlink:href="#DejaVuSans-11" transform="translate(63.625 0)"/>
       <use xlink:href="#DejaVuSans-13" transform="translate(95.40625 0)"/>
      </g>
     </g>
    </g>
    <g id="text_14">
     <!-- True positive rate / recall -->
     <g transform="translate(10.598677 236.430045) rotate(-90) scale(0.1 -0.1)">
      <defs>
       <path id="DejaVuSans-37" d="M -19 4666 
L 3928 4666 
L 3928 4134 
L 2272 4134 
L 2272 0 
L 1638 0 
L 1638 4134 
L -19 4134 
L -19 4666 
z
" transform="scale(0.015625)"/>
       <path id="DejaVuSans-58" d="M 544 1381 
L 544 3500 
L 1119 3500 
L 1119 1403 
Q 1119 906 1312 657 
Q 1506 409 1894 409 
Q 2359 409 2629 706 
Q 2900 1003 2900 1516 
L 2900 3500 
L 3475 3500 
L 3475 0 
L 2900 0 
L 2900 538 
Q 2691 219 2414 64 
Q 2138 -91 1772 -91 
Q 1169 -91 856 284 
Q 544 659 544 1381 
z
M 1991 3584 
L 1991 3584 
z
" transform="scale(0.015625)"/>
       <path id="DejaVuSans-12" d="M 1625 4666 
L 2156 4666 
L 531 -594 
L 0 -594 
L 1625 4666 
z
" transform="scale(0.015625)"/>
       <path id="DejaVuSans-46" d="M 3122 3366 
L 3122 2828 
Q 2878 2963 2633 3030 
Q 2388 3097 2138 3097 
Q 1578 3097 1268 2742 
Q 959 2388 959 1747 
Q 959 1106 1268 751 
Q 1578 397 2138 397 
Q 2388 397 2633 464 
Q 2878 531 3122 666 
L 3122 134 
Q 2881 22 2623 -34 
Q 2366 -91 2075 -91 
Q 1284 -91 818 406 
Q 353 903 353 1747 
Q 353 2603 823 3093 
Q 1294 3584 2113 3584 
Q 2378 3584 2631 3529 
Q 2884 3475 3122 3366 
z
" transform="scale(0.015625)"/>
      </defs>
      <use xlink:href="#DejaVuSans-37"/>
      <use xlink:href="#DejaVuSans-55" transform="translate(46.375 0)"/>
      <use xlink:href="#DejaVuSans-58" transform="translate(87.484375 0)"/>
      <use xlink:href="#DejaVuSans-48" transform="translate(150.859375 0)"/>
      <use xlink:href="#DejaVuSans-3" transform="translate(212.390625 0)"/>
      <use xlink:href="#DejaVuSans-53" transform="translate(244.171875 0)"/>
      <use xlink:href="#DejaVuSans-52" transform="translate(307.65625 0)"/>
      <use xlink:href="#DejaVuSans-56" transform="translate(368.84375 0)"/>
      <use xlink:href="#DejaVuSans-4c" transform="translate(420.9375 0)"/>
      <use xlink:href="#DejaVuSans-57" transform="translate(448.71875 0)"/>
      <use xlink:href="#DejaVuSans-4c" transform="translate(487.921875 0)"/>
      <use xlink:href="#DejaVuSans-59" transform="translate(515.703125 0)"/>
      <use xlink:href="#DejaVuSans-48" transform="translate(574.890625 0)"/>
      <use xlink:href="#DejaVuSans-3" transform="translate(636.421875 0)"/>
      <use xlink:href="#DejaVuSans-55" transform="translate(668.203125 0)"/>
      <use xlink:href="#DejaVuSans-44" transform="translate(709.3125 0)"/>
      <use xlink:href="#DejaVuSans-57" transform="translate(770.59375 0)"/>
      <use xlink:href="#DejaVuSans-48" transform="translate(809.796875 0)"/>
      <use xlink:href="#DejaVuSans-3" transform="translate(871.328125 0)"/>
      <use xlink:href="#DejaVuSans-12" transform="translate(903.109375 0)"/>
      <use xlink:href="#DejaVuSans-3" transform="translate(936.796875 0)"/>
      <use xlink:href="#DejaVuSans-55" transform="translate(968.578125 0)"/>
      <use xlink:href="#DejaVuSans-48" transform="translate(1007.484375 0)"/>
      <use xlink:href="#DejaVuSans-46" transform="translate(1069.015625 0)"/>
      <use xlink:href="#DejaVuSans-44" transform="translate(1124 0)"/>
      <use xlink:href="#DejaVuSans-4f" transform="translate(1185.28125 0)"/>
      <use xlink:href="#DejaVuSans-4f" transform="translate(1213.0625 0)"/>
     </g>
    </g>
   </g>
   <g id="line2d_13">
    <path d="M 39.904146 311.598979 
L 40.749231 305.109036 
L 41.636165 300.26036 
L 42.580023 296.232759 
L 44.483424 290.479928 
L 45.771332 287.263681 
L 49.581137 278.914166 
L 57.291677 264.564347 
L 58.967079 261.749358 
L 59.865471 260.178797 
L 60.76944 258.689548 
L 61.347433 257.686404 
L 63.289192 254.562075 
L 65.621998 250.851769 
L 66.464754 249.517189 
L 72.204369 240.983838 
L 74.107586 238.341195 
L 76.071525 235.536811 
L 76.729358 234.648565 
L 80.01074 230.091552 
L 81.986934 227.463934 
L 83.699284 225.181892 
L 84.422496 224.198192 
L 85.216846 223.203003 
L 87.789477 219.839156 
L 88.779718 218.555839 
L 89.837606 217.210654 
L 90.432878 216.457634 
L 99.718147 205.10399 
L 101.580005 202.90326 
L 103.113437 201.153282 
L 107.578991 196.035923 
L 108.512861 194.977098 
L 110.45131 192.842655 
L 111.188002 192.054281 
L 112.454771 190.60834 
L 121.081656 181.174368 
L 122.8293 179.400527 
L 124.373883 177.81229 
L 124.841829 177.297019 
L 125.780663 176.310667 
L 131.365378 170.73195 
L 133.924161 168.205972 
L 134.597802 167.544869 
L 151.354889 151.889638 
L 151.966031 151.364645 
L 153.046712 150.348244 
L 155.551881 148.08653 
L 159.420998 144.743896 
L 160.235753 144.043021 
L 161.255712 143.18836 
L 162.002085 142.538747 
L 166.622416 138.616322 
L 168.048803 137.397524 
L 182.287854 125.893629 
L 183.175462 125.206012 
L 187.62196 121.889008 
L 195.36234 116.271403 
L 196.937682 115.125963 
L 198.311864 114.192641 
L 200.916173 112.323347 
L 202.014869 111.566791 
L 203.252962 110.745715 
L 207.989406 107.459646 
L 219.205588 100.090295 
L 220.035967 99.614796 
L 220.586939 99.260381 
L 223.691608 97.34336 
L 224.383447 96.944754 
L 246.995588 83.761587 
L 248.10758 83.196822 
L 257.905219 78.196128 
L 258.882287 77.761285 
L 259.716832 77.345886 
L 260.761424 76.846523 
L 264.449784 75.047935 
L 265.772864 74.414231 
L 272.046539 71.509091 
L 274.697967 70.31946 
L 280.56932 67.837673 
L 282.03964 67.252579 
L 283.087724 66.804479 
L 284.067487 66.407641 
L 288.550198 64.651476 
L 289.880324 64.120296 
L 296.956744 61.378664 
L 299.059468 60.576149 
L 318.327054 54.150725 
L 319.17318 53.90237 
L 320.301103 53.567399 
L 321.216959 53.287226 
L 322.487772 52.938114 
L 328.132719 51.341039 
L 332.94067 50.124892 
L 333.930115 49.868582 
L 336.68773 49.172127 
L 338.313501 48.754076 
L 339.517526 48.479206 
L 340.860887 48.138933 
L 354.895346 45.099451 
L 362.722366 43.8453 
L 372.447886 42.993291 
L 375.887782 42.798849 
L 380.476312 42.56817 
L 380.907187 42.557564 
L 380.907187 42.557564 
" clip-path="url(#p6472371308)" style="fill: none; stroke: #48639c; stroke-width: 2.1; stroke-linecap: square"/>
   </g>
   <g id="line2d_14">
    <path d="M 39.904146 311.598979 
L 42.048994 298.978455 
L 43.152262 294.147797 
L 44.018115 291.076634 
L 46.241119 284.756355 
L 48.103657 280.497267 
L 52.271942 272.141724 
L 52.718017 271.313241 
L 53.869784 269.249693 
L 61.454866 256.221409 
L 62.036361 255.270362 
L 64.174655 251.872756 
L 65.802154 249.40734 
L 71.411397 241.078903 
L 72.787226 239.133204 
L 74.814677 236.210532 
L 77.498174 232.374524 
L 80.983214 227.647573 
L 82.632423 225.49446 
L 91.879739 213.605783 
L 93.472421 211.674226 
L 97.920147 206.303816 
L 105.716839 197.355489 
L 108.120074 194.662624 
L 113.006585 189.394742 
L 114.479166 187.80495 
L 115.752672 186.457928 
L 119.110812 183.010825 
L 119.846652 182.210625 
L 120.920427 181.095767 
L 121.93063 180.101116 
L 126.829184 175.005295 
L 127.636543 174.198025 
L 128.648958 173.235193 
L 132.758339 169.209448 
L 134.781203 167.2555 
L 135.254886 166.82417 
L 138.625233 163.552662 
L 148.28012 154.421668 
L 148.891108 153.89488 
L 150.174281 152.686921 
L 151.593366 151.363469 
L 154.308977 149.024153 
L 155.191379 148.261665 
L 155.66793 147.871583 
L 158.379691 145.476877 
L 162.522825 141.935494 
L 162.999703 141.550125 
L 164.084866 140.599078 
L 167.076643 138.091237 
L 168.371367 137.049446 
L 170.89118 134.998861 
L 171.639063 134.371901 
L 172.728978 133.489206 
L 181.738715 126.463008 
L 182.627343 125.790086 
L 184.541821 124.347606 
L 185.911751 123.351776 
L 197.827901 114.66154 
L 201.738945 111.922713 
L 202.972799 111.040019 
L 205.787293 109.088428 
L 207.364081 107.964142 
L 209.013207 106.84457 
L 210.11156 106.083261 
L 211.556123 105.126321 
L 212.657507 104.408617 
L 214.028912 103.434 
L 227.599349 94.734336 
L 233.818106 91.033856 
L 234.853541 90.402181 
L 238.450489 88.319777 
L 239.55556 87.655105 
L 243.156931 85.63634 
L 244.744615 84.668794 
L 247.72484 83.030683 
L 250.222698 81.698982 
L 251.196772 81.220512 
L 255.231275 79.221781 
L 257.034583 78.2507 
L 257.661054 77.946647 
L 259.541534 77.049811 
L 278.845329 68.017811 
L 279.964408 67.554662 
L 281.5013 66.891168 
L 287.239491 64.557744 
L 288.498332 64.03567 
L 297.896143 60.521392 
L 304.989272 58.013551 
L 308.867055 56.865695 
L 311.82426 55.932325 
L 312.740578 55.656557 
L 317.112771 54.375531 
L 318.311808 54.027874 
L 337.60528 48.987443 
L 340.507924 48.303915 
L 341.429403 48.10357 
L 348.377199 46.609236 
L 351.429763 46.011738 
L 352.989347 45.674688 
L 353.769017 45.503806 
L 365.300533 43.701884 
L 366.658503 43.569893 
L 369.087217 43.314159 
L 372.378425 43.044283 
L 374.096941 42.924076 
L 380.907187 42.557564 
L 380.907187 42.557564 
" clip-path="url(#p6472371308)" style="fill: none; stroke: #4c956c; stroke-width: 2.1; stroke-linecap: square"/>
   </g>
   <g id="line2d_15">
    <path d="M 39.904146 311.598979 
L 40.370134 307.615554 
L 41.088518 303.090979 
L 41.736703 299.728822 
L 42.535779 296.490357 
L 43.78638 292.461954 
L 45.205862 288.841169 
L 47.093713 284.698913 
L 47.539594 283.819018 
L 50.413657 278.279612 
L 54.539644 271.014148 
L 59.548045 262.979831 
L 60.399241 261.713399 
L 61.447978 260.171474 
L 62.631644 258.498829 
L 63.22092 257.621745 
L 65.259573 254.741703 
L 65.784824 253.985499 
L 66.638312 252.754207 
L 67.626464 251.38798 
L 68.284703 250.468728 
L 69.732935 248.448904 
L 72.578072 244.731134 
L 73.564637 243.339606 
L 75.68266 240.583256 
L 76.476709 239.547341 
L 80.788068 234.095081 
L 81.78451 232.860978 
L 82.845859 231.521457 
L 84.438366 229.517094 
L 84.971113 228.880364 
L 86.364844 227.131818 
L 87.900029 225.356565 
L 88.3654 224.787304 
L 89.365458 223.61083 
L 94.501026 217.601959 
L 95.766708 216.095173 
L 97.235399 214.401444 
L 99.782724 211.642283 
L 100.849981 210.39553 
L 113.054651 197.247698 
L 114.124907 196.05014 
L 118.019223 191.937402 
L 118.357073 191.616929 
L 119.29822 190.642859 
L 120.448287 189.576021 
L 122.202532 187.868236 
L 142.175286 168.452906 
L 142.987414 167.703729 
L 144.137833 166.642513 
L 144.614668 166.254572 
L 146.039353 165.000791 
L 146.717787 164.403418 
L 158.184056 154.319759 
L 158.796613 153.813749 
L 159.540571 153.11939 
L 167.898812 145.988863 
L 169.870619 144.326057 
L 170.277344 143.962011 
L 173.749413 141.10727 
L 174.632621 140.351066 
L 194.089561 125.266339 
L 195.390165 124.314759 
L 195.866559 123.921195 
L 197.578562 122.68147 
L 200.040785 120.847183 
L 200.656429 120.390369 
L 201.475964 119.760667 
L 202.707869 118.855471 
L 203.599455 118.232797 
L 204.69167 117.383825 
L 206.817365 115.8925 
L 208.052974 115.046338 
L 209.901229 113.696978 
L 210.930741 112.989969 
L 211.687398 112.498015 
L 213.81133 110.978579 
L 214.633952 110.396667 
L 215.3877 109.858328 
L 222.531409 105.049826 
L 223.148816 104.621122 
L 226.243792 102.602704 
L 227.408938 101.774815 
L 228.78556 100.894919 
L 243.596554 91.634932 
L 244.773605 90.996797 
L 249.397769 88.248881 
L 250.019234 87.884835 
L 252.505532 86.434272 
L 253.196841 86.042114 
L 253.95491 85.572649 
L 255.681729 84.569062 
L 258.168821 83.132555 
L 261.144565 81.496456 
L 262.043294 80.986229 
L 262.942728 80.488652 
L 267.869731 78.00358 
L 268.564039 77.659211 
L 270.090494 76.884735 
L 271.408559 76.212866 
L 272.241764 75.799624 
L 274.182176 74.777764 
L 275.709336 74.015938 
L 276.472519 73.627997 
L 277.097599 73.321579 
L 278.835177 72.489474 
L 279.600742 72.139483 
L 281.336467 71.27786 
L 284.184515 69.889143 
L 284.671227 69.658628 
L 287.10426 68.500427 
L 288.147441 68.011283 
L 290.583384 66.900872 
L 292.464621 66.075794 
L 293.300031 65.699098 
L 298.180823 63.617428 
L 299.503121 63.013027 
L 300.482366 62.646169 
L 301.599979 62.202005 
L 302.577019 61.800008 
L 308.017103 59.504689 
L 316.554014 56.361804 
L 318.022882 55.810815 
L 320.683352 54.855018 
L 324.752281 53.526741 
L 325.453203 53.287792 
L 330.646712 51.626391 
L 331.559463 51.341058 
L 332.826291 50.993879 
L 335.429527 50.265786 
L 336.764524 49.863789 
L 339.229569 49.215815 
L 342.113597 48.400576 
L 344.086639 47.897377 
L 351.419424 46.102447 
L 353.326588 45.690611 
L 355.235164 45.302669 
L 356.862771 45.000469 
L 359.482586 44.536626 
L 362.531351 44.06435 
L 364.23286 43.798695 
L 370.351025 43.183049 
L 378.764119 42.630654 
L 380.907187 42.557564 
L 380.907187 42.557564 
" clip-path="url(#p6472371308)" style="fill: none; stroke: #d08c60; stroke-width: 2.1; stroke-linecap: square"/>
   </g>
   <g id="line2d_16">
    <path d="M 39.904146 311.598979 
L 40.562065 306.836541 
L 41.27702 302.843812 
L 42.954753 296.253587 
L 44.192428 292.493939 
L 46.556999 286.403482 
L 50.427233 278.220719 
L 57.375467 265.780707 
L 61.570724 259.061474 
L 62.739233 257.292228 
L 64.225214 254.934317 
L 65.006683 253.788427 
L 66.697109 251.266817 
L 72.252948 243.421208 
L 73.368036 241.905641 
L 73.893648 241.203146 
L 75.402283 239.152034 
L 79.548537 233.720709 
L 80.401663 232.566146 
L 87.46919 223.685224 
L 102.074346 206.419896 
L 102.540914 205.895193 
L 104.003036 204.190993 
L 113.212534 194.010239 
L 113.681272 193.514807 
L 118.096879 188.794649 
L 118.965669 187.852568 
L 119.501484 187.288838 
L 120.104616 186.657894 
L 120.975977 185.750505 
L 121.982938 184.723865 
L 129.512535 177.206737 
L 129.917408 176.824051 
L 134.215088 172.461645 
L 134.885699 171.767823 
L 136.778481 170.027847 
L 137.860071 169.03373 
L 155.902311 152.357067 
L 156.582883 151.797673 
L 157.595307 150.844752 
L 159.29224 149.385558 
L 173.553896 137.229579 
L 174.029462 136.826295 
L 176.754242 134.622326 
L 179.280682 132.664447 
L 180.580534 131.693096 
L 182.422707 130.245827 
L 186.65572 126.958845 
L 188.155437 125.762002 
L 188.634296 125.403166 
L 189.931899 124.40146 
L 191.095427 123.538519 
L 192.053225 122.823015 
L 193.074164 121.985008 
L 194.03373 121.293354 
L 195.127048 120.457516 
L 199.232895 117.403615 
L 199.780438 116.998163 
L 202.043631 115.385026 
L 202.659938 114.932958 
L 204.504761 113.521464 
L 205.599445 112.704055 
L 224.355274 99.81089 
L 225.798759 98.828698 
L 226.974096 98.125119 
L 227.59458 97.729424 
L 230.144799 96.093522 
L 230.695716 95.732517 
L 238.983164 90.648103 
L 240.852569 89.567258 
L 242.306658 88.728167 
L 243.417569 88.129746 
L 248.474226 85.240628 
L 260.904072 78.569095 
L 262.917111 77.478494 
L 266.04805 75.883787 
L 266.885109 75.487008 
L 268.690892 74.523245 
L 269.457098 74.144896 
L 273.362035 72.276997 
L 274.337024 71.793489 
L 276.427423 70.77227 
L 277.473265 70.270333 
L 278.800188 69.664323 
L 282.359779 68.007823 
L 283.268413 67.603455 
L 297.686958 61.460962 
L 299.020469 60.943848 
L 301.963752 59.739416 
L 304.00322 59.005482 
L 305.33649 58.485116 
L 316.447768 54.481546 
L 317.011618 54.295081 
L 318.632235 53.755201 
L 320.817506 53.039697 
L 322.65277 52.473798 
L 323.570965 52.197354 
L 325.761135 51.54798 
L 328.020312 50.856326 
L 328.797202 50.622161 
L 334.31159 49.038295 
L 335.940321 48.606825 
L 339.981341 47.601867 
L 341.756436 47.197499 
L 347.154343 45.989815 
L 352.919528 44.867774 
L 366.595484 43.319684 
L 375.435134 42.763542 
L 380.474921 42.569489 
L 380.907187 42.557564 
L 380.907187 42.557564 
" clip-path="url(#p6472371308)" style="fill: none; stroke: #9d4edd; stroke-width: 2.1; stroke-linecap: square"/>
   </g>
   <g id="line2d_17">
    <path d="M 39.904146 311.598979 
L 380.907187 42.557564 
" clip-path="url(#p6472371308)" style="fill: none; stroke-dasharray: 5.55,2.4; stroke-dashoffset: 0; stroke: #000000; stroke-width: 1.5"/>
   </g>
   <g id="patch_3">
    <path d="M 39.904146 311.598979 
L 39.904146 37.176736 
" style="fill: none; stroke: #000000; stroke-width: 0.8; stroke-linejoin: miter; stroke-linecap: square"/>
   </g>
   <g id="patch_4">
    <path d="M 380.907187 311.598979 
L 380.907187 37.176736 
" style="fill: none; stroke: #000000; stroke-width: 0.8; stroke-linejoin: miter; stroke-linecap: square"/>
   </g>
   <g id="patch_5">
    <path d="M 39.904146 311.598979 
L 380.907187 311.598979 
" style="fill: none; stroke: #000000; stroke-width: 0.8; stroke-linejoin: miter; stroke-linecap: square"/>
   </g>
   <g id="patch_6">
    <path d="M 39.904146 37.176736 
L 380.907187 37.176736 
" style="fill: none; stroke: #000000; stroke-width: 0.8; stroke-linejoin: miter; stroke-linecap: square"/>
   </g>
   <g id="text_15">
    <!-- ROC curves -->
    <g transform="translate(175.480042 31.176736) scale(0.12 -0.12)">
     <defs>
      <path id="DejaVuSans-35" d="M 2841 2188 
Q 3044 2119 3236 1894 
Q 3428 1669 3622 1275 
L 4263 0 
L 3584 0 
L 2988 1197 
Q 2756 1666 2539 1819 
Q 2322 1972 1947 1972 
L 1259 1972 
L 1259 0 
L 628 0 
L 628 4666 
L 2053 4666 
Q 2853 4666 3247 4331 
Q 3641 3997 3641 3322 
Q 3641 2881 3436 2590 
Q 3231 2300 2841 2188 
z
M 1259 4147 
L 1259 2491 
L 2053 2491 
Q 2509 2491 2742 2702 
Q 2975 2913 2975 3322 
Q 2975 3731 2742 3939 
Q 2509 4147 2053 4147 
L 1259 4147 
z
" transform="scale(0.015625)"/>
      <path id="DejaVuSans-32" d="M 2522 4238 
Q 1834 4238 1429 3725 
Q 1025 3213 1025 2328 
Q 1025 1447 1429 934 
Q 1834 422 2522 422 
Q 3209 422 3611 934 
Q 4013 1447 4013 2328 
Q 4013 3213 3611 3725 
Q 3209 4238 2522 4238 
z
M 2522 4750 
Q 3503 4750 4090 4092 
Q 4678 3434 4678 2328 
Q 4678 1225 4090 567 
Q 3503 -91 2522 -91 
Q 1538 -91 948 565 
Q 359 1222 359 2328 
Q 359 3434 948 4092 
Q 1538 4750 2522 4750 
z
" transform="scale(0.015625)"/>
      <path id="DejaVuSans-26" d="M 4122 4306 
L 4122 3641 
Q 3803 3938 3442 4084 
Q 3081 4231 2675 4231 
Q 1875 4231 1450 3742 
Q 1025 3253 1025 2328 
Q 1025 1406 1450 917 
Q 1875 428 2675 428 
Q 3081 428 3442 575 
Q 3803 722 4122 1019 
L 4122 359 
Q 3791 134 3420 21 
Q 3050 -91 2638 -91 
Q 1578 -91 968 557 
Q 359 1206 359 2328 
Q 359 3453 968 4101 
Q 1578 4750 2638 4750 
Q 3056 4750 3426 4639 
Q 3797 4528 4122 4306 
z
" transform="scale(0.015625)"/>
     </defs>
     <use xlink:href="#DejaVuSans-35"/>
     <use xlink:href="#DejaVuSans-32" transform="translate(69.484375 0)"/>
     <use xlink:href="#DejaVuSans-26" transform="translate(148.203125 0)"/>
     <use xlink:href="#DejaVuSans-3" transform="translate(218.03125 0)"/>
     <use xlink:href="#DejaVuSans-46" transform="translate(249.8125 0)"/>
     <use xlink:href="#DejaVuSans-58" transform="translate(304.796875 0)"/>
     <use xlink:href="#DejaVuSans-55" transform="translate(368.171875 0)"/>
     <use xlink:href="#DejaVuSans-59" transform="translate(409.28125 0)"/>
     <use xlink:href="#DejaVuSans-48" transform="translate(468.46875 0)"/>
     <use xlink:href="#DejaVuSans-56" transform="translate(530 0)"/>
    </g>
   </g>
   <g id="legend_1">
    <g id="patch_7">
     <path d="M 295.082187 307.598979 
L 375.307187 307.598979 
Q 376.907187 307.598979 376.907187 305.998979 
L 376.907187 246.795854 
Q 376.907187 245.195854 375.307187 245.195854 
L 295.082187 245.195854 
Q 293.482187 245.195854 293.482187 246.795854 
L 293.482187 305.998979 
Q 293.482187 307.598979 295.082187 307.598979 
z
" style="fill: #ffffff; opacity: 0.8; stroke: #cccccc; stroke-linejoin: miter"/>
    </g>
    <g id="line2d_18">
     <path d="M 296.682187 251.674604 
L 304.682187 251.674604 
L 312.682187 251.674604 
" style="fill: none; stroke: #48639c; stroke-width: 2.1; stroke-linecap: square"/>
    </g>
    <g id="text_16">
     <!-- chr16 (0.693) -->
     <g transform="translate(319.082187 254.474604) scale(0.08 -0.08)">
      <defs>
       <path id="DejaVuSans-4b" d="M 3513 2113 
L 3513 0 
L 2938 0 
L 2938 2094 
Q 2938 2591 2744 2837 
Q 2550 3084 2163 3084 
Q 1697 3084 1428 2787 
Q 1159 2491 1159 1978 
L 1159 0 
L 581 0 
L 581 4863 
L 1159 4863 
L 1159 2956 
Q 1366 3272 1645 3428 
Q 1925 3584 2291 3584 
Q 2894 3584 3203 3211 
Q 3513 2838 3513 2113 
z
" transform="scale(0.015625)"/>
       <path id="DejaVuSans-b" d="M 1984 4856 
Q 1566 4138 1362 3434 
Q 1159 2731 1159 2009 
Q 1159 1288 1364 580 
Q 1569 -128 1984 -844 
L 1484 -844 
Q 1016 -109 783 600 
Q 550 1309 550 2009 
Q 550 2706 781 3412 
Q 1013 4119 1484 4856 
L 1984 4856 
z
" transform="scale(0.015625)"/>
       <path id="DejaVuSans-1c" d="M 703 97 
L 703 672 
Q 941 559 1184 500 
Q 1428 441 1663 441 
Q 2288 441 2617 861 
Q 2947 1281 2994 2138 
Q 2813 1869 2534 1725 
Q 2256 1581 1919 1581 
Q 1219 1581 811 2004 
Q 403 2428 403 3163 
Q 403 3881 828 4315 
Q 1253 4750 1959 4750 
Q 2769 4750 3195 4129 
Q 3622 3509 3622 2328 
Q 3622 1225 3098 567 
Q 2575 -91 1691 -91 
Q 1453 -91 1209 -44 
Q 966 3 703 97 
z
M 1959 2075 
Q 2384 2075 2632 2365 
Q 2881 2656 2881 3163 
Q 2881 3666 2632 3958 
Q 2384 4250 1959 4250 
Q 1534 4250 1286 3958 
Q 1038 3666 1038 3163 
Q 1038 2656 1286 2365 
Q 1534 2075 1959 2075 
z
" transform="scale(0.015625)"/>
       <path id="DejaVuSans-16" d="M 2597 2516 
Q 3050 2419 3304 2112 
Q 3559 1806 3559 1356 
Q 3559 666 3084 287 
Q 2609 -91 1734 -91 
Q 1441 -91 1130 -33 
Q 819 25 488 141 
L 488 750 
Q 750 597 1062 519 
Q 1375 441 1716 441 
Q 2309 441 2620 675 
Q 2931 909 2931 1356 
Q 2931 1769 2642 2001 
Q 2353 2234 1838 2234 
L 1294 2234 
L 1294 2753 
L 1863 2753 
Q 2328 2753 2575 2939 
Q 2822 3125 2822 3475 
Q 2822 3834 2567 4026 
Q 2313 4219 1838 4219 
Q 1578 4219 1281 4162 
Q 984 4106 628 3988 
L 628 4550 
Q 988 4650 1302 4700 
Q 1616 4750 1894 4750 
Q 2613 4750 3031 4423 
Q 3450 4097 3450 3541 
Q 3450 3153 3228 2886 
Q 3006 2619 2597 2516 
z
" transform="scale(0.015625)"/>
       <path id="DejaVuSans-c" d="M 513 4856 
L 1013 4856 
Q 1481 4119 1714 3412 
Q 1947 2706 1947 2009 
Q 1947 1309 1714 600 
Q 1481 -109 1013 -844 
L 513 -844 
Q 928 -128 1133 580 
Q 1338 1288 1338 2009 
Q 1338 2731 1133 3434 
Q 928 4138 513 4856 
z
" transform="scale(0.015625)"/>
      </defs>
      <use xlink:href="#DejaVuSans-46"/>
      <use xlink:href="#DejaVuSans-4b" transform="translate(54.984375 0)"/>
      <use xlink:href="#DejaVuSans-55" transform="translate(118.359375 0)"/>
      <use xlink:href="#DejaVuSans-14" transform="translate(159.46875 0)"/>
      <use xlink:href="#DejaVuSans-19" transform="translate(223.09375 0)"/>
      <use xlink:href="#DejaVuSans-3" transform="translate(286.71875 0)"/>
      <use xlink:href="#DejaVuSans-b" transform="translate(318.5 0)"/>
      <use xlink:href="#DejaVuSans-13" transform="translate(357.515625 0)"/>
      <use xlink:href="#DejaVuSans-11" transform="translate(421.140625 0)"/>
      <use xlink:href="#DejaVuSans-19" transform="translate(452.921875 0)"/>
      <use xlink:href="#DejaVuSans-1c" transform="translate(516.546875 0)"/>
      <use xlink:href="#DejaVuSans-16" transform="translate(580.171875 0)"/>
      <use xlink:href="#DejaVuSans-c" transform="translate(643.796875 0)"/>
     </g>
    </g>
    <g id="line2d_19">
     <path d="M 296.682187 263.675229 
L 304.682187 263.675229 
L 312.682187 263.675229 
" style="fill: none; stroke: #4c956c; stroke-width: 2.1; stroke-linecap: square"/>
    </g>
    <g id="text_17">
     <!-- chr11 (0.694) -->
     <g transform="translate(319.082187 266.475229) scale(0.08 -0.08)">
      <use xlink:href="#DejaVuSans-46"/>
      <use xlink:href="#DejaVuSans-4b" transform="translate(54.984375 0)"/>
      <use xlink:href="#DejaVuSans-55" transform="translate(118.359375 0)"/>
      <use xlink:href="#DejaVuSans-14" transform="translate(159.46875 0)"/>
      <use xlink:href="#DejaVuSans-14" transform="translate(223.09375 0)"/>
      <use xlink:href="#DejaVuSans-3" transform="translate(286.71875 0)"/>
      <use xlink:href="#DejaVuSans-b" transform="translate(318.5 0)"/>
      <use xlink:href="#DejaVuSans-13" transform="translate(357.515625 0)"/>
      <use xlink:href="#DejaVuSans-11" transform="translate(421.140625 0)"/>
      <use xlink:href="#DejaVuSans-19" transform="translate(452.921875 0)"/>
      <use xlink:href="#DejaVuSans-1c" transform="translate(516.546875 0)"/>
      <use xlink:href="#DejaVuSans-17" transform="translate(580.171875 0)"/>
      <use xlink:href="#DejaVuSans-c" transform="translate(643.796875 0)"/>
     </g>
    </g>
    <g id="line2d_20">
     <path d="M 296.682187 275.675854 
L 304.682187 275.675854 
L 312.682187 275.675854 
" style="fill: none; stroke: #d08c60; stroke-width: 2.1; stroke-linecap: square"/>
    </g>
    <g id="text_18">
     <!-- chr17 (0.675) -->
     <g transform="translate(319.082187 278.475854) scale(0.08 -0.08)">
      <defs>
       <path id="DejaVuSans-1a" d="M 525 4666 
L 3525 4666 
L 3525 4397 
L 1831 0 
L 1172 0 
L 2766 4134 
L 525 4134 
L 525 4666 
z
" transform="scale(0.015625)"/>
       <path id="DejaVuSans-18" d="M 691 4666 
L 3169 4666 
L 3169 4134 
L 1269 4134 
L 1269 2991 
Q 1406 3038 1543 3061 
Q 1681 3084 1819 3084 
Q 2600 3084 3056 2656 
Q 3513 2228 3513 1497 
Q 3513 744 3044 326 
Q 2575 -91 1722 -91 
Q 1428 -91 1123 -41 
Q 819 9 494 109 
L 494 744 
Q 775 591 1075 516 
Q 1375 441 1709 441 
Q 2250 441 2565 725 
Q 2881 1009 2881 1497 
Q 2881 1984 2565 2268 
Q 2250 2553 1709 2553 
Q 1456 2553 1204 2497 
Q 953 2441 691 2322 
L 691 4666 
z
" transform="scale(0.015625)"/>
      </defs>
      <use xlink:href="#DejaVuSans-46"/>
      <use xlink:href="#DejaVuSans-4b" transform="translate(54.984375 0)"/>
      <use xlink:href="#DejaVuSans-55" transform="translate(118.359375 0)"/>
      <use xlink:href="#DejaVuSans-14" transform="translate(159.46875 0)"/>
      <use xlink:href="#DejaVuSans-1a" transform="translate(223.09375 0)"/>
      <use xlink:href="#DejaVuSans-3" transform="translate(286.71875 0)"/>
      <use xlink:href="#DejaVuSans-b" transform="translate(318.5 0)"/>
      <use xlink:href="#DejaVuSans-13" transform="translate(357.515625 0)"/>
      <use xlink:href="#DejaVuSans-11" transform="translate(421.140625 0)"/>
      <use xlink:href="#DejaVuSans-19" transform="translate(452.921875 0)"/>
      <use xlink:href="#DejaVuSans-1a" transform="translate(516.546875 0)"/>
      <use xlink:href="#DejaVuSans-18" transform="translate(580.171875 0)"/>
      <use xlink:href="#DejaVuSans-c" transform="translate(643.796875 0)"/>
     </g>
    </g>
    <g id="line2d_21">
     <path d="M 296.682187 287.676479 
L 304.682187 287.676479 
L 312.682187 287.676479 
" style="fill: none; stroke: #9d4edd; stroke-width: 2.1; stroke-linecap: square"/>
    </g>
    <g id="text_19">
     <!-- chr19 (0.684) -->
     <g transform="translate(319.082187 290.476479) scale(0.08 -0.08)">
      <use xlink:href="#DejaVuSans-46"/>
      <use xlink:href="#DejaVuSans-4b" transform="translate(54.984375 0)"/>
      <use xlink:href="#DejaVuSans-55" transform="translate(118.359375 0)"/>
      <use xlink:href="#DejaVuSans-14" transform="translate(159.46875 0)"/>
      <use xlink:href="#DejaVuSans-1c" transform="translate(223.09375 0)"/>
      <use xlink:href="#DejaVuSans-3" transform="translate(286.71875 0)"/>
      <use xlink:href="#DejaVuSans-b" transform="translate(318.5 0)"/>
      <use xlink:href="#DejaVuSans-13" transform="translate(357.515625 0)"/>
      <use xlink:href="#DejaVuSans-11" transform="translate(421.140625 0)"/>
      <use xlink:href="#DejaVuSans-19" transform="translate(452.921875 0)"/>
      <use xlink:href="#DejaVuSans-1b" transform="translate(516.546875 0)"/>
      <use xlink:href="#DejaVuSans-17" transform="translate(580.171875 0)"/>
      <use xlink:href="#DejaVuSans-c" transform="translate(643.796875 0)"/>
     </g>
    </g>
    <g id="line2d_22">
     <path d="M 296.682187 299.677104 
L 304.682187 299.677104 
L 312.682187 299.677104 
" style="fill: none; stroke-dasharray: 5.55,2.4; stroke-dashoffset: 0; stroke: #000000; stroke-width: 1.5"/>
    </g>
    <g id="text_20">
     <!-- Random -->
     <g transform="translate(319.082187 302.477104) scale(0.08 -0.08)">
      <defs>
       <path id="DejaVuSans-51" d="M 3513 2113 
L 3513 0 
L 2938 0 
L 2938 2094 
Q 2938 2591 2744 2837 
Q 2550 3084 2163 3084 
Q 1697 3084 1428 2787 
Q 1159 2491 1159 1978 
L 1159 0 
L 581 0 
L 581 3500 
L 1159 3500 
L 1159 2956 
Q 1366 3272 1645 3428 
Q 1925 3584 2291 3584 
Q 2894 3584 3203 3211 
Q 3513 2838 3513 2113 
z
" transform="scale(0.015625)"/>
       <path id="DejaVuSans-47" d="M 2906 2969 
L 2906 4863 
L 3481 4863 
L 3481 0 
L 2906 0 
L 2906 525 
Q 2725 213 2448 61 
Q 2172 -91 1784 -91 
Q 1150 -91 751 415 
Q 353 922 353 1747 
Q 353 2572 751 3078 
Q 1150 3584 1784 3584 
Q 2172 3584 2448 3432 
Q 2725 3281 2906 2969 
z
M 947 1747 
Q 947 1113 1208 752 
Q 1469 391 1925 391 
Q 2381 391 2643 752 
Q 2906 1113 2906 1747 
Q 2906 2381 2643 2742 
Q 2381 3103 1925 3103 
Q 1469 3103 1208 2742 
Q 947 2381 947 1747 
z
" transform="scale(0.015625)"/>
       <path id="DejaVuSans-50" d="M 3328 2828 
Q 3544 3216 3844 3400 
Q 4144 3584 4550 3584 
Q 5097 3584 5394 3201 
Q 5691 2819 5691 2113 
L 5691 0 
L 5113 0 
L 5113 2094 
Q 5113 2597 4934 2840 
Q 4756 3084 4391 3084 
Q 3944 3084 3684 2787 
Q 3425 2491 3425 1978 
L 3425 0 
L 2847 0 
L 2847 2094 
Q 2847 2600 2669 2842 
Q 2491 3084 2119 3084 
Q 1678 3084 1418 2786 
Q 1159 2488 1159 1978 
L 1159 0 
L 581 0 
L 581 3500 
L 1159 3500 
L 1159 2956 
Q 1356 3278 1631 3431 
Q 1906 3584 2284 3584 
Q 2666 3584 2933 3390 
Q 3200 3197 3328 2828 
z
" transform="scale(0.015625)"/>
      </defs>
      <use xlink:href="#DejaVuSans-35"/>
      <use xlink:href="#DejaVuSans-44" transform="translate(67.28125 0)"/>
      <use xlink:href="#DejaVuSans-51" transform="translate(128.5625 0)"/>
      <use xlink:href="#DejaVuSans-47" transform="translate(191.9375 0)"/>
      <use xlink:href="#DejaVuSans-52" transform="translate(255.421875 0)"/>
      <use xlink:href="#DejaVuSans-50" transform="translate(316.609375 0)"/>
     </g>
    </g>
   </g>
  </g>
  <g id="axes_2">
   <g id="patch_8">
    <path d="M 440.045156 311.598979 
L 781.048197 311.598979 
L 781.048197 37.176736 
L 440.045156 37.176736 
z
" style="fill: #ffffff"/>
   </g>
   <g id="matplotlib.axis_3">
    <g id="xtick_7">
     <g id="line2d_23">
      <g>
       <use xlink:href="#mdb021954b8" x="440.045156" y="311.598979" style="stroke: #000000; stroke-width: 0.8"/>
      </g>
     </g>
     <g id="text_21">
      <!-- 0.0 -->
      <g transform="translate(432.093594 326.196635) scale(0.1 -0.1)">
       <use xlink:href="#DejaVuSans-13"/>
       <use xlink:href="#DejaVuSans-11" transform="translate(63.625 0)"/>
       <use xlink:href="#DejaVuSans-13" transform="translate(95.40625 0)"/>
      </g>
     </g>
    </g>
    <g id="xtick_8">
     <g id="line2d_24">
      <g>
       <use xlink:href="#mdb021954b8" x="508.245764" y="311.598979" style="stroke: #000000; stroke-width: 0.8"/>
      </g>
     </g>
     <g id="text_22">
      <!-- 0.2 -->
      <g transform="translate(500.294202 326.196635) scale(0.1 -0.1)">
       <use xlink:href="#DejaVuSans-13"/>
       <use xlink:href="#DejaVuSans-11" transform="translate(63.625 0)"/>
       <use xlink:href="#DejaVuSans-15" transform="translate(95.40625 0)"/>
      </g>
     </g>
    </g>
    <g id="xtick_9">
     <g id="line2d_25">
      <g>
       <use xlink:href="#mdb021954b8" x="576.446373" y="311.598979" style="stroke: #000000; stroke-width: 0.8"/>
      </g>
     </g>
     <g id="text_23">
      <!-- 0.4 -->
      <g transform="translate(568.49481 326.196635) scale(0.1 -0.1)">
       <use xlink:href="#DejaVuSans-13"/>
       <use xlink:href="#DejaVuSans-11" transform="translate(63.625 0)"/>
       <use xlink:href="#DejaVuSans-17" transform="translate(95.40625 0)"/>
      </g>
     </g>
    </g>
    <g id="xtick_10">
     <g id="line2d_26">
      <g>
       <use xlink:href="#mdb021954b8" x="644.646981" y="311.598979" style="stroke: #000000; stroke-width: 0.8"/>
      </g>
     </g>
     <g id="text_24">
      <!-- 0.6 -->
      <g transform="translate(636.695418 326.196635) scale(0.1 -0.1)">
       <use xlink:href="#DejaVuSans-13"/>
       <use xlink:href="#DejaVuSans-11" transform="translate(63.625 0)"/>
       <use xlink:href="#DejaVuSans-19" transform="translate(95.40625 0)"/>
      </g>
     </g>
    </g>
    <g id="xtick_11">
     <g id="line2d_27">
      <g>
       <use xlink:href="#mdb021954b8" x="712.847589" y="311.598979" style="stroke: #000000; stroke-width: 0.8"/>
      </g>
     </g>
     <g id="text_25">
      <!-- 0.8 -->
      <g transform="translate(704.896027 326.196635) scale(0.1 -0.1)">
       <use xlink:href="#DejaVuSans-13"/>
       <use xlink:href="#DejaVuSans-11" transform="translate(63.625 0)"/>
       <use xlink:href="#DejaVuSans-1b" transform="translate(95.40625 0)"/>
      </g>
     </g>
    </g>
    <g id="xtick_12">
     <g id="line2d_28">
      <g>
       <use xlink:href="#mdb021954b8" x="781.048197" y="311.598979" style="stroke: #000000; stroke-width: 0.8"/>
      </g>
     </g>
     <g id="text_26">
      <!-- 1.0 -->
      <g transform="translate(773.096635 326.196635) scale(0.1 -0.1)">
       <use xlink:href="#DejaVuSans-14"/>
       <use xlink:href="#DejaVuSans-11" transform="translate(63.625 0)"/>
       <use xlink:href="#DejaVuSans-13" transform="translate(95.40625 0)"/>
      </g>
     </g>
    </g>
    <g id="text_27">
     <!-- Recall -->
     <g transform="translate(595.628708 340.197416) scale(0.1 -0.1)">
      <use xlink:href="#DejaVuSans-35"/>
      <use xlink:href="#DejaVuSans-48" transform="translate(65 0)"/>
      <use xlink:href="#DejaVuSans-46" transform="translate(126.53125 0)"/>
      <use xlink:href="#DejaVuSans-44" transform="translate(181.515625 0)"/>
      <use xlink:href="#DejaVuSans-4f" transform="translate(242.796875 0)"/>
      <use xlink:href="#DejaVuSans-4f" transform="translate(270.578125 0)"/>
     </g>
    </g>
   </g>
   <g id="matplotlib.axis_4">
    <g id="ytick_7">
     <g id="line2d_29">
      <g>
       <use xlink:href="#mdd012a7226" x="440.045156" y="311.598979" style="stroke: #000000; stroke-width: 0.8"/>
      </g>
     </g>
     <g id="text_28">
      <!-- 0.00 -->
      <g transform="translate(410.779531 315.397807) scale(0.1 -0.1)">
       <use xlink:href="#DejaVuSans-13"/>
       <use xlink:href="#DejaVuSans-11" transform="translate(63.625 0)"/>
       <use xlink:href="#DejaVuSans-13" transform="translate(95.40625 0)"/>
       <use xlink:href="#DejaVuSans-13" transform="translate(159.03125 0)"/>
      </g>
     </g>
    </g>
    <g id="ytick_8">
     <g id="line2d_30">
      <g>
       <use xlink:href="#mdd012a7226" x="440.045156" y="272.395801" style="stroke: #000000; stroke-width: 0.8"/>
      </g>
     </g>
     <g id="text_29">
      <!-- 0.05 -->
      <g transform="translate(410.779531 276.194629) scale(0.1 -0.1)">
       <use xlink:href="#DejaVuSans-13"/>
       <use xlink:href="#DejaVuSans-11" transform="translate(63.625 0)"/>
       <use xlink:href="#DejaVuSans-13" transform="translate(95.40625 0)"/>
       <use xlink:href="#DejaVuSans-18" transform="translate(159.03125 0)"/>
      </g>
     </g>
    </g>
    <g id="ytick_9">
     <g id="line2d_31">
      <g>
       <use xlink:href="#mdd012a7226" x="440.045156" y="233.192624" style="stroke: #000000; stroke-width: 0.8"/>
      </g>
     </g>
     <g id="text_30">
      <!-- 0.10 -->
      <g transform="translate(410.779531 236.991452) scale(0.1 -0.1)">
       <use xlink:href="#DejaVuSans-13"/>
       <use xlink:href="#DejaVuSans-11" transform="translate(63.625 0)"/>
       <use xlink:href="#DejaVuSans-14" transform="translate(95.40625 0)"/>
       <use xlink:href="#DejaVuSans-13" transform="translate(159.03125 0)"/>
      </g>
     </g>
    </g>
    <g id="ytick_10">
     <g id="line2d_32">
      <g>
       <use xlink:href="#mdd012a7226" x="440.045156" y="193.989446" style="stroke: #000000; stroke-width: 0.8"/>
      </g>
     </g>
     <g id="text_31">
      <!-- 0.15 -->
      <g transform="translate(410.779531 197.788274) scale(0.1 -0.1)">
       <use xlink:href="#DejaVuSans-13"/>
       <use xlink:href="#DejaVuSans-11" transform="translate(63.625 0)"/>
       <use xlink:href="#DejaVuSans-14" transform="translate(95.40625 0)"/>
       <use xlink:href="#DejaVuSans-18" transform="translate(159.03125 0)"/>
      </g>
     </g>
    </g>
    <g id="ytick_11">
     <g id="line2d_33">
      <g>
       <use xlink:href="#mdd012a7226" x="440.045156" y="154.786268" style="stroke: #000000; stroke-width: 0.8"/>
      </g>
     </g>
     <g id="text_32">
      <!-- 0.20 -->
      <g transform="translate(410.779531 158.585097) scale(0.1 -0.1)">
       <use xlink:href="#DejaVuSans-13"/>
       <use xlink:href="#DejaVuSans-11" transform="translate(63.625 0)"/>
       <use xlink:href="#DejaVuSans-15" transform="translate(95.40625 0)"/>
       <use xlink:href="#DejaVuSans-13" transform="translate(159.03125 0)"/>
      </g>
     </g>
    </g>
    <g id="ytick_12">
     <g id="line2d_34">
      <g>
       <use xlink:href="#mdd012a7226" x="440.045156" y="115.583091" style="stroke: #000000; stroke-width: 0.8"/>
      </g>
     </g>
     <g id="text_33">
      <!-- 0.25 -->
      <g transform="translate(410.779531 119.381919) scale(0.1 -0.1)">
       <use xlink:href="#DejaVuSans-13"/>
       <use xlink:href="#DejaVuSans-11" transform="translate(63.625 0)"/>
       <use xlink:href="#DejaVuSans-15" transform="translate(95.40625 0)"/>
       <use xlink:href="#DejaVuSans-18" transform="translate(159.03125 0)"/>
      </g>
     </g>
    </g>
    <g id="ytick_13">
     <g id="line2d_35">
      <g>
       <use xlink:href="#mdd012a7226" x="440.045156" y="76.379913" style="stroke: #000000; stroke-width: 0.8"/>
      </g>
     </g>
     <g id="text_34">
      <!-- 0.30 -->
      <g transform="translate(410.779531 80.178741) scale(0.1 -0.1)">
       <use xlink:href="#DejaVuSans-13"/>
       <use xlink:href="#DejaVuSans-11" transform="translate(63.625 0)"/>
       <use xlink:href="#DejaVuSans-16" transform="translate(95.40625 0)"/>
       <use xlink:href="#DejaVuSans-13" transform="translate(159.03125 0)"/>
      </g>
     </g>
    </g>
    <g id="ytick_14">
     <g id="line2d_36">
      <g>
       <use xlink:href="#mdd012a7226" x="440.045156" y="37.176736" style="stroke: #000000; stroke-width: 0.8"/>
      </g>
     </g>
     <g id="text_35">
      <!-- 0.35 -->
      <g transform="translate(410.779531 40.975564) scale(0.1 -0.1)">
       <use xlink:href="#DejaVuSans-13"/>
       <use xlink:href="#DejaVuSans-11" transform="translate(63.625 0)"/>
       <use xlink:href="#DejaVuSans-16" transform="translate(95.40625 0)"/>
       <use xlink:href="#DejaVuSans-18" transform="translate(159.03125 0)"/>
      </g>
     </g>
    </g>
    <g id="text_36">
     <!-- Precision -->
     <g transform="translate(404.377187 196.697232) rotate(-90) scale(0.1 -0.1)">
      <defs>
       <path id="DejaVuSans-33" d="M 1259 4147 
L 1259 2394 
L 2053 2394 
Q 2494 2394 2734 2622 
Q 2975 2850 2975 3272 
Q 2975 3691 2734 3919 
Q 2494 4147 2053 4147 
L 1259 4147 
z
M 628 4666 
L 2053 4666 
Q 2838 4666 3239 4311 
Q 3641 3956 3641 3272 
Q 3641 2581 3239 2228 
Q 2838 1875 2053 1875 
L 1259 1875 
L 1259 0 
L 628 0 
L 628 4666 
z
" transform="scale(0.015625)"/>
      </defs>
      <use xlink:href="#DejaVuSans-33"/>
      <use xlink:href="#DejaVuSans-55" transform="translate(58.546875 0)"/>
      <use xlink:href="#DejaVuSans-48" transform="translate(97.453125 0)"/>
      <use xlink:href="#DejaVuSans-46" transform="translate(158.984375 0)"/>
      <use xlink:href="#DejaVuSans-4c" transform="translate(213.96875 0)"/>
      <use xlink:href="#DejaVuSans-56" transform="translate(241.75 0)"/>
      <use xlink:href="#DejaVuSans-4c" transform="translate(293.84375 0)"/>
      <use xlink:href="#DejaVuSans-52" transform="translate(321.625 0)"/>
      <use xlink:href="#DejaVuSans-51" transform="translate(382.8125 0)"/>
     </g>
    </g>
   </g>
   <g id="line2d_37">
    <path d="M 440.531169 -1 
L 440.545898 13.321185 
L 441.056722 10.190129 
L 441.58547 5.671798 
L 442.562309 11.566485 
L 442.994717 18.604467 
L 443.439447 22.582852 
L 443.909943 23.647174 
L 444.38716 24.05708 
L 445.26766 28.614983 
L 445.750478 28.209889 
L 446.207531 29.048465 
L 446.672426 29.433399 
L 447.848665 37.989786 
L 448.270991 39.202184 
L 449.060752 42.899291 
L 449.4898 43.524856 
L 450.648115 48.259796 
L 451.738097 53.459458 
L 452.410234 57.443761 
L 452.77991 58.568988 
L 453.724262 64.516473 
L 454.081615 65.517364 
L 454.742549 68.242687 
L 455.339631 71.682807 
L 455.688022 72.513871 
L 456.331033 74.826183 
L 458.637582 85.421821 
L 458.923241 86.539125 
L 459.241385 87.236661 
L 459.521442 88.340292 
L 460.031146 90.981406 
L 460.763775 94.93273 
L 461.705887 99.931923 
L 462.414992 103.250585 
L 464.234242 111.337753 
L 466.406364 119.970306 
L 470.146806 133.943052 
L 470.540006 135.116607 
L 471.232307 137.85773 
L 473.101968 143.18218 
L 473.579185 145.021435 
L 474.484329 147.368296 
L 475.32002 149.853093 
L 476.071693 151.336845 
L 478.936116 158.071994 
L 482.925248 165.539096 
L 484.073482 167.395918 
L 484.384906 167.954884 
L 484.691848 168.51553 
L 484.977506 169.131736 
L 486.552547 171.585462 
L 487.036485 172.240319 
L 487.785918 173.453723 
L 488.097342 173.889928 
L 491.571169 178.637082 
L 491.885953 178.972896 
L 492.341886 179.506974 
L 496.578589 184.432289 
L 496.866487 184.742366 
L 497.834364 185.877515 
L 498.968035 187.047587 
L 503.228263 191.26987 
L 503.519522 191.482912 
L 503.799579 191.714008 
L 504.264474 191.972084 
L 505.76894 193.237963 
L 506.331295 193.650682 
L 506.84884 194.132453 
L 507.106493 194.370911 
L 507.421277 194.507301 
L 508.096774 195.032629 
L 509.052329 195.726563 
L 509.828647 196.370539 
L 514.455189 199.590623 
L 515.499242 200.268285 
L 516.145613 200.687052 
L 517.040675 201.270993 
L 517.452919 201.474336 
L 517.969345 201.788027 
L 520.408081 203.464029 
L 520.777756 203.697413 
L 521.278498 203.993091 
L 524.446504 205.680882 
L 524.700795 205.807327 
L 525.06935 206.010735 
L 533.518111 210.476283 
L 535.263426 211.318173 
L 535.7216 211.542649 
L 536.21674 211.725755 
L 538.512088 212.785 
L 540.48817 213.606472 
L 541.298095 213.93518 
L 542.993 214.653465 
L 544.345116 215.207507 
L 548.467555 216.833762 
L 549.576581 217.247915 
L 550.052678 217.382329 
L 552.610159 218.405522 
L 553.945471 218.845889 
L 555.02425 219.229315 
L 557.974931 220.185277 
L 558.532805 220.346076 
L 559.167974 220.562609 
L 560.525691 221.0345 
L 564.067852 222.204606 
L 564.762393 222.458485 
L 567.031976 223.169034 
L 568.273188 223.539171 
L 568.883713 223.727305 
L 573.272766 224.994674 
L 574.31906 225.256139 
L 576.904546 225.994538 
L 577.919473 226.255261 
L 580.347007 226.95014 
L 585.064288 228.238313 
L 586.629246 228.619064 
L 587.489582 228.839415 
L 588.810331 229.184507 
L 592.939491 230.224545 
L 598.053333 231.370955 
L 598.777 231.54904 
L 604.13057 232.719698 
L 609.781001 234.06757 
L 611.769406 234.459759 
L 612.345203 234.607236 
L 614.296641 234.998533 
L 615.741735 235.319585 
L 618.078531 235.849798 
L 624.426863 237.185446 
L 627.537737 237.876596 
L 630.977957 238.54774 
L 632.360319 238.859227 
L 634.912199 239.405665 
L 635.880076 239.58418 
L 639.225077 240.161003 
L 640.508858 240.386136 
L 645.390812 241.291519 
L 646.586096 241.486359 
L 647.668236 241.676471 
L 648.940815 241.917162 
L 652.418003 242.572736 
L 653.729791 242.821398 
L 659.944816 243.926892 
L 664.364116 244.674472 
L 669.717686 245.588188 
L 674.356551 246.392816 
L 715.018591 253.598279 
L 715.804991 253.739502 
L 718.138427 254.159721 
L 721.275065 254.694895 
L 725.508407 255.439604 
L 730.525909 256.366496 
L 731.515071 256.564625 
L 732.979209 256.860345 
L 733.833943 257.025683 
L 751.582837 260.748561 
L 756.614902 261.900448 
L 758.2762 262.276145 
L 760.688051 262.877769 
L 769.172659 265.185228 
L 769.885124 265.4017 
L 771.069205 265.77421 
L 775.533314 267.286444 
L 775.818973 267.385866 
L 777.433221 267.99208 
L 779.14605 268.791694 
L 780.192343 269.637119 
L 780.66732 270.271313 
L 780.905929 270.65076 
L 781.048197 270.936872 
L 781.048197 270.936872 
" clip-path="url(#p207fb3fd2c)" style="fill: none; stroke: #48639c; stroke-width: 2.1; stroke-linecap: square"/>
   </g>
   <g id="line2d_38">
    <path d="M 440.045156 270.936872 
L 781.048197 270.936872 
" clip-path="url(#p207fb3fd2c)" style="fill: none; stroke-dasharray: 1,1.65; stroke-dashoffset: 0; stroke: #48639c; stroke-opacity: 0.8"/>
   </g>
   <g id="line2d_39">
    <path d="M 440.045156 311.598979 
L 440.440991 75.22032 
L 440.874168 64.070383 
L 442.269297 45.84195 
L 442.689031 48.310706 
L 443.126689 48.544318 
L 443.574803 47.976017 
L 444.420246 50.155201 
L 444.851929 50.487884 
L 446.024495 56.386229 
L 446.450203 56.433184 
L 447.195567 60.238664 
L 448.345727 63.574777 
L 448.690775 65.574917 
L 449.477963 66.506348 
L 450.625135 68.418082 
L 450.98512 69.46365 
L 451.304775 71.285445 
L 452.027733 72.907551 
L 452.740235 74.513693 
L 453.070346 75.72531 
L 453.421368 76.490182 
L 454.350459 80.546435 
L 454.737331 80.540193 
L 455.049517 81.685434 
L 455.403527 82.142001 
L 456.371454 84.698224 
L 457.003296 86.387758 
L 457.29457 87.503199 
L 457.657542 87.654079 
L 459.185612 91.627215 
L 459.497799 92.255886 
L 459.760692 93.406805 
L 460.102753 93.660181 
L 461.0184 95.498234 
L 461.33208 95.982259 
L 461.875792 97.726215 
L 462.718247 99.884803 
L 463.247022 101.509982 
L 463.753391 103.24 
L 466.800568 111.730672 
L 467.505601 113.878418 
L 469.114332 118.573542 
L 469.580371 119.743216 
L 470.215199 121.808278 
L 471.105453 124.101796 
L 471.32951 124.637051 
L 471.701445 126.124497 
L 472.33478 127.819073 
L 473.059231 130.590679 
L 473.296732 130.94527 
L 474.464817 134.271609 
L 475.154913 136.746856 
L 475.359551 137.180656 
L 475.707587 138.326268 
L 476.101927 139.212261 
L 477.022056 141.613138 
L 477.335736 142.767554 
L 477.910816 143.973605 
L 480.847458 151.175627 
L 481.176075 151.984199 
L 483.238895 157.027046 
L 485.383869 161.068735 
L 486.070977 162.10915 
L 487.245037 164.683828 
L 487.712569 165.511213 
L 488.631204 167.140741 
L 489.42586 168.341141 
L 492.447644 173.028498 
L 493.042142 173.893487 
L 494.165415 175.701931 
L 497.057246 179.53772 
L 497.836965 180.276819 
L 498.089403 180.698269 
L 498.53453 181.170982 
L 499.787756 182.704933 
L 500.524157 183.429874 
L 500.961816 183.861297 
L 501.251596 184.147711 
L 501.947667 184.905662 
L 502.905138 185.957854 
L 503.499636 186.444249 
L 503.929826 186.830633 
L 504.482501 187.37541 
L 505.148697 188.083011 
L 505.950822 188.898381 
L 508.424413 191.052815 
L 508.930782 191.576212 
L 512.106419 194.253967 
L 520.462257 200.607457 
L 521.080655 201.030826 
L 521.452589 201.278967 
L 521.843943 201.497618 
L 522.238283 201.70934 
L 524.777598 203.39769 
L 526.012899 204.116802 
L 526.819505 204.67411 
L 528.201191 205.380756 
L 530.278948 206.480032 
L 530.727062 206.775266 
L 531.893653 207.441572 
L 532.957178 208.004701 
L 535.859465 209.347008 
L 536.567485 209.683382 
L 537.042486 209.900497 
L 537.524956 210.107011 
L 553.940877 217.192562 
L 554.362105 217.366159 
L 555.84835 217.949504 
L 556.409987 218.12764 
L 558.674458 218.924522 
L 559.730514 219.305933 
L 560.885155 219.719708 
L 561.549858 219.914201 
L 562.190662 220.123667 
L 563.422976 220.457052 
L 564.14444 220.710611 
L 575.964202 224.537044 
L 576.905242 224.771839 
L 590.200793 228.662794 
L 591.228469 228.935598 
L 592.021631 229.180575 
L 607.338178 233.122764 
L 618.715801 235.708251 
L 619.638916 235.907879 
L 620.866749 236.135485 
L 621.450792 236.260004 
L 622.754804 236.552855 
L 631.274951 238.293055 
L 643.880407 240.65123 
L 646.104547 241.108685 
L 647.447397 241.372888 
L 651.623822 242.161859 
L 654.694899 242.742126 
L 658.717472 243.463229 
L 659.896012 243.662729 
L 662.62951 244.177648 
L 663.304668 244.31416 
L 664.44736 244.51108 
L 674.39251 246.306579 
L 675.24094 246.464974 
L 677.246998 246.839703 
L 681.153061 247.529416 
L 685.277207 248.291348 
L 686.887431 248.556466 
L 687.580514 248.675264 
L 689.607485 249.038127 
L 690.989171 249.292888 
L 693.271566 249.67804 
L 709.63222 252.388265 
L 710.428369 252.517374 
L 712.486708 252.862218 
L 712.984115 252.966492 
L 721.795536 254.520496 
L 722.711183 254.701477 
L 725.186267 255.116417 
L 728.306637 255.666276 
L 734.374105 256.835973 
L 735.328588 256.998352 
L 736.241248 257.183166 
L 736.634094 257.26133 
L 740.835913 258.114741 
L 742.396844 258.406923 
L 743.000305 258.535073 
L 744.008562 258.745732 
L 750.86023 260.187041 
L 752.389794 260.513743 
L 760.748619 262.518083 
L 765.078897 263.789778 
L 765.821273 264.008549 
L 767.380711 264.528621 
L 768.653356 264.896241 
L 770.766961 265.602204 
L 772.584812 266.184317 
L 773.33615 266.432635 
L 775.58419 267.293404 
L 776.806049 267.780717 
L 778.402829 268.474314 
L 779.027202 268.805428 
L 779.954799 269.436458 
L 780.927207 270.609007 
L 781.048197 270.832328 
L 781.048197 270.832328 
" clip-path="url(#p207fb3fd2c)" style="fill: none; stroke: #4c956c; stroke-width: 2.1; stroke-linecap: square"/>
   </g>
   <g id="line2d_40">
    <path d="M 440.045156 270.832328 
L 781.048197 270.832328 
" clip-path="url(#p207fb3fd2c)" style="fill: none; stroke-dasharray: 1,1.65; stroke-dashoffset: 0; stroke: #4c956c; stroke-opacity: 0.8"/>
   </g>
   <g id="line2d_41">
    <path d="M 440.045156 311.598979 
L 440.622617 -1 
M 441.294206 -1 
L 441.709116 10.976911 
L 442.263175 11.057377 
L 442.786948 14.388682 
L 443.310721 16.609551 
L 445.094044 37.915507 
L 445.995504 42.813978 
L 446.387443 47.124254 
L 446.829266 48.910785 
L 447.622051 54.892105 
L 448.411274 59.634123 
L 449.280666 61.27038 
L 450.828826 68.017749 
L 451.644772 69.745758 
L 452.38233 72.733988 
L 453.51539 76.04033 
L 454.187031 79.277349 
L 454.443573 82.021353 
L 456.323099 90.985279 
L 457.233467 94.896643 
L 457.49179 96.64001 
L 458.649792 101.473086 
L 459.45683 105.257495 
L 461.564394 113.868356 
L 462.487232 118.480557 
L 465.977272 133.643339 
L 466.987406 137.716513 
L 469.736324 149.008886 
L 470.33314 150.618055 
L 470.883636 152.374444 
L 471.41988 154.106613 
L 472.276802 156.96408 
L 472.592135 158.165845 
L 473.434804 160.751899 
L 473.639681 161.080935 
L 474.140294 162.534683 
L 474.346953 162.829729 
L 474.952677 164.896841 
L 475.417659 166.322081 
L 475.631444 166.543228 
L 479.153551 174.812045 
L 480.416664 177.324029 
L 480.801477 178.494534 
L 481.979076 180.944848 
L 482.276593 181.513475 
L 485.055798 186.461641 
L 485.406761 186.76577 
L 486.302876 188.062402 
L 487.184739 189.321554 
L 487.904482 190.355155 
L 489.02329 191.991861 
L 489.283395 192.430529 
L 489.536374 192.878525 
L 489.967507 193.412898 
L 490.363009 194.016714 
L 490.690813 194.26248 
L 491.255561 194.947977 
L 491.761519 195.742519 
L 492.283511 196.475888 
L 494.285963 198.932792 
L 494.823989 199.533147 
L 495.689818 200.691176 
L 496.049689 201.191434 
L 497.401879 202.493222 
L 497.829449 202.82516 
L 498.085991 203.095462 
L 499.290313 204.178189 
L 499.662655 204.576701 
L 501.926994 206.431648 
L 502.192443 206.638743 
L 504.37305 208.724453 
L 504.66166 208.86913 
L 504.987682 209.251083 
L 506.979445 211.079794 
L 507.718785 211.631073 
L 509.783591 213.141443 
L 510.722463 213.852205 
L 511.207042 214.17639 
L 511.647083 214.554155 
L 512.589519 215.204611 
L 515.906748 217.270247 
L 516.361041 217.568249 
L 516.866999 217.797536 
L 518.0927 218.604639 
L 520.191355 219.738291 
L 520.506688 219.958007 
L 523.177219 221.641128 
L 523.782943 221.881062 
L 525.523508 222.652945 
L 526.458818 223.039453 
L 527.866235 223.755934 
L 528.559255 224.031962 
L 531.02669 225.216602 
L 534.618277 226.85274 
L 536.257295 227.469882 
L 537.322657 227.888327 
L 538.721167 228.401737 
L 540.388689 229.049774 
L 541.935067 229.643093 
L 543.659599 230.188586 
L 544.081824 230.327951 
L 544.555714 230.541748 
L 547.896104 231.612798 
L 549.038072 232.071315 
L 550.076711 232.379677 
L 550.798235 232.594694 
L 552.74546 233.267043 
L 553.591692 233.579081 
L 554.227702 233.734222 
L 557.671421 234.675633 
L 558.077613 234.872651 
L 562.226823 235.897083 
L 562.82542 236.129998 
L 565.896798 237.032017 
L 567.145658 237.34698 
L 569.491948 237.960098 
L 570.005032 238.130788 
L 572.438617 238.730561 
L 575.217822 239.399877 
L 576.147786 239.542075 
L 577.100911 239.739221 
L 589.81399 242.496658 
L 591.005841 242.708981 
L 592.304585 242.98268 
L 597.308934 244.094221 
L 598.345791 244.288712 
L 601.595323 244.89502 
L 603.24503 245.175049 
L 604.296139 245.393368 
L 605.773037 245.680291 
L 606.565823 245.847365 
L 610.011324 246.432821 
L 614.91947 247.192835 
L 615.637431 247.321404 
L 616.586993 247.493255 
L 619.084714 247.90874 
L 621.331237 248.273033 
L 626.178811 249.116054 
L 628.184827 249.443322 
L 629.061345 249.607044 
L 656.138991 253.573988 
L 657.731689 253.776366 
L 659.652191 254.055685 
L 670.369943 255.529106 
L 670.984575 255.630799 
L 672.82847 255.881328 
L 674.070205 256.0744 
L 675.573826 256.250563 
L 677.15049 256.477357 
L 679.309718 256.751551 
L 679.828146 256.818005 
L 681.26585 256.995757 
L 681.97134 257.086439 
L 691.953316 258.376539 
L 693.118444 258.5439 
L 694.69689 258.724157 
L 704.281582 259.957902 
L 706.414087 260.226342 
L 711.840662 260.928265 
L 713.00579 261.093134 
L 715.125824 261.335602 
L 718.295186 261.764275 
L 719.944894 262.025632 
L 726.369132 262.862129 
L 728.697606 263.165307 
L 736.855284 264.355357 
L 737.867199 264.498511 
L 739.511562 264.730662 
L 740.345323 264.856553 
L 742.504551 265.173593 
L 744.507004 265.492813 
L 745.743393 265.677568 
L 762.51126 268.475918 
L 763.895518 268.766256 
L 770.168325 270.093397 
L 771.278225 270.383975 
L 772.357839 270.663039 
L 778.236925 272.414038 
L 780.089728 273.407382 
L 780.964465 274.433271 
L 781.048197 274.617494 
L 781.048197 274.617494 
" clip-path="url(#p207fb3fd2c)" style="fill: none; stroke: #d08c60; stroke-width: 2.1; stroke-linecap: square"/>
   </g>
   <g id="line2d_42">
    <path d="M 440.045156 274.617494 
L 781.048197 274.617494 
" clip-path="url(#p207fb3fd2c)" style="fill: none; stroke-dasharray: 1,1.65; stroke-dashoffset: 0; stroke: #d08c60; stroke-opacity: 0.8"/>
   </g>
   <g id="line2d_43">
    <path d="M 440.520601 -1 
L 440.527453 5.814194 
L 441.022116 1.721722 
L 441.452199 13.904846 
L 441.86854 22.262957 
L 442.308241 24.312512 
L 443.189017 26.530266 
L 443.606732 28.98283 
L 444.02857 30.634796 
L 444.421553 33.788053 
L 444.842017 34.782043 
L 445.229503 37.354816 
L 445.633478 38.703261 
L 446.082797 37.824722 
L 446.877007 40.540435 
L 447.617627 44.525968 
L 448.422829 45.679444 
L 450.161021 54.722299 
L 450.821947 58.213572 
L 451.142104 59.995798 
L 451.74944 63.920383 
L 452.68243 68.48403 
L 453.00671 69.580933 
L 453.857256 74.614079 
L 454.160924 75.771578 
L 454.725665 78.60215 
L 456.415765 85.66822 
L 456.946154 88.06372 
L 457.203104 89.297504 
L 457.770592 90.952822 
L 458.258385 93.433217 
L 459.739627 99.681519 
L 460.015814 100.291896 
L 462.546842 110.398265 
L 463.402884 113.882044 
L 465.56841 120.968467 
L 466.021852 122.040415 
L 466.446438 123.272391 
L 467.26538 125.781479 
L 468.206615 129.164428 
L 468.583109 130.423692 
L 468.951358 131.682914 
L 469.59442 132.936338 
L 469.980532 133.983784 
L 470.717031 136.173325 
L 470.930011 136.530967 
L 471.79842 139.300342 
L 474.939532 147.502572 
L 475.460303 148.673563 
L 476.478485 150.973418 
L 477.362009 152.598979 
L 477.664303 153.434435 
L 478.333473 154.775012 
L 478.448894 155.310789 
L 478.639889 155.533038 
L 479.291196 156.843035 
L 479.791355 157.737331 
L 480.273652 158.667409 
L 482.021463 161.88458 
L 482.498263 162.694185 
L 483.11247 163.805788 
L 483.620874 164.446989 
L 484.548368 165.963023 
L 484.84654 166.482797 
L 486.193123 168.684136 
L 486.488547 169.158435 
L 487.958797 171.421087 
L 490.474709 174.779292 
L 491.902363 176.672034 
L 492.337941 177.19101 
L 493.573226 178.852743 
L 494.142088 179.506403 
L 494.541941 180.047719 
L 494.973398 180.501399 
L 495.571116 181.038571 
L 496.102879 181.712346 
L 496.821515 182.404806 
L 497.361522 183.01935 
L 497.846567 183.738346 
L 498.651769 184.612058 
L 499.167043 185.220778 
L 499.441856 185.482796 
L 499.711173 185.752459 
L 502.945722 188.727193 
L 503.230153 188.926651 
L 503.981767 189.704093 
L 504.326657 190.140616 
L 506.240729 191.869103 
L 506.635086 192.176748 
L 506.907151 192.362254 
L 510.167806 195.058866 
L 510.564911 195.312011 
L 511.0953 195.642412 
L 511.605078 195.999054 
L 511.86615 196.164566 
L 512.231652 196.451843 
L 513.318537 197.302638 
L 514.32023 197.973434 
L 514.928941 198.406003 
L 515.79048 198.980806 
L 516.129874 199.265306 
L 516.634155 199.562908 
L 517.042253 199.994774 
L 517.760889 200.475156 
L 518.762582 201.279292 
L 519.515569 201.679673 
L 520.919864 202.58741 
L 521.942168 203.053004 
L 522.531642 203.401132 
L 523.097756 203.772468 
L 524.845567 204.779958 
L 525.439163 205.088882 
L 525.926956 205.315885 
L 526.245739 205.541501 
L 527.134759 206.083497 
L 529.173871 207.199344 
L 529.610824 207.456064 
L 530.322589 207.769481 
L 530.639998 207.967554 
L 531.62108 208.516855 
L 531.98246 208.657752 
L 533.154537 209.329295 
L 533.6492 209.667724 
L 536.155494 210.744379 
L 536.680387 211.024768 
L 537.007415 211.17821 
L 537.485589 211.337361 
L 538.142392 211.633508 
L 538.753851 211.96995 
L 539.221033 212.130924 
L 540.21723 212.540349 
L 543.865372 214.096407 
L 544.439731 214.276837 
L 547.946345 215.656898 
L 548.741928 216.020342 
L 550.073397 216.560865 
L 551.573876 217.191493 
L 552.607173 217.570534 
L 554.176355 218.104997 
L 554.464908 218.229995 
L 555.088734 218.439421 
L 566.046901 222.120184 
L 566.562175 222.25396 
L 571.470334 223.677812 
L 572.403324 223.976967 
L 573.914796 224.430603 
L 575.497718 224.823915 
L 577.06003 225.217723 
L 580.904663 226.186615 
L 581.520245 226.383028 
L 596.698165 230.079708 
L 597.433289 230.230696 
L 598.232995 230.412331 
L 601.371359 231.143056 
L 602.377174 231.397492 
L 603.578107 231.674917 
L 605.352025 232.09327 
L 608.420312 232.767516 
L 610.870269 233.295101 
L 619.482907 234.989175 
L 620.591778 235.234704 
L 637.58896 238.428787 
L 638.707448 238.610708 
L 640.727324 239.002895 
L 641.811461 239.188338 
L 643.637593 239.510979 
L 667.435022 243.631983 
L 668.732139 243.850306 
L 671.087286 244.252512 
L 672.433869 244.476366 
L 673.472662 244.633324 
L 675.974835 245.0285 
L 686.182762 246.651261 
L 686.869795 246.766391 
L 689.127383 247.133555 
L 690.833972 247.372629 
L 717.941522 251.651055 
L 719.031156 251.842379 
L 720.457435 252.079077 
L 721.762797 252.317328 
L 723.043425 252.556646 
L 725.590941 253.007146 
L 727.465166 253.319522 
L 739.196931 255.459136 
L 739.818008 255.574427 
L 743.247674 256.221308 
L 763.656659 260.492072 
L 764.744918 260.762811 
L 768.141607 261.635653 
L 768.527719 261.756189 
L 770.230185 262.252681 
L 776.965851 264.526073 
L 778.403123 265.213364 
L 778.76725 265.442525 
L 779.333365 265.856279 
L 779.935205 266.446341 
L 780.512312 267.187472 
L 780.763766 267.624498 
L 780.891554 267.892338 
L 781.001479 268.159004 
L 781.048197 268.292109 
L 781.048197 268.292109 
" clip-path="url(#p207fb3fd2c)" style="fill: none; stroke: #9d4edd; stroke-width: 2.1; stroke-linecap: square"/>
   </g>
   <g id="line2d_44">
    <path d="M 440.045156 268.292109 
L 781.048197 268.292109 
" clip-path="url(#p207fb3fd2c)" style="fill: none; stroke-dasharray: 1,1.65; stroke-dashoffset: 0; stroke: #9d4edd; stroke-opacity: 0.8"/>
   </g>
   <g id="patch_9">
    <path d="M 440.045156 311.598979 
L 440.045156 37.176736 
" style="fill: none; stroke: #000000; stroke-width: 0.8; stroke-linejoin: miter; stroke-linecap: square"/>
   </g>
   <g id="patch_10">
    <path d="M 781.048197 311.598979 
L 781.048197 37.176736 
" style="fill: none; stroke: #000000; stroke-width: 0.8; stroke-linejoin: miter; stroke-linecap: square"/>
   </g>
   <g id="patch_11">
    <path d="M 440.045156 311.598979 
L 781.048197 311.598979 
" style="fill: none; stroke: #000000; stroke-width: 0.8; stroke-linejoin: miter; stroke-linecap: square"/>
   </g>
   <g id="patch_12">
    <path d="M 440.045156 37.176736 
L 781.048197 37.176736 
" style="fill: none; stroke: #000000; stroke-width: 0.8; stroke-linejoin: miter; stroke-linecap: square"/>
   </g>
   <g id="text_37">
    <!-- Precision-recall curves -->
    <g transform="translate(543.431052 31.176736) scale(0.12 -0.12)">
     <defs>
      <path id="DejaVuSans-10" d="M 313 2009 
L 1997 2009 
L 1997 1497 
L 313 1497 
L 313 2009 
z
" transform="scale(0.015625)"/>
     </defs>
     <use xlink:href="#DejaVuSans-33"/>
     <use xlink:href="#DejaVuSans-55" transform="translate(58.546875 0)"/>
     <use xlink:href="#DejaVuSans-48" transform="translate(97.453125 0)"/>
     <use xlink:href="#DejaVuSans-46" transform="translate(158.984375 0)"/>
     <use xlink:href="#DejaVuSans-4c" transform="translate(213.96875 0)"/>
     <use xlink:href="#DejaVuSans-56" transform="translate(241.75 0)"/>
     <use xlink:href="#DejaVuSans-4c" transform="translate(293.84375 0)"/>
     <use xlink:href="#DejaVuSans-52" transform="translate(321.625 0)"/>
     <use xlink:href="#DejaVuSans-51" transform="translate(382.8125 0)"/>
     <use xlink:href="#DejaVuSans-10" transform="translate(446.1875 0)"/>
     <use xlink:href="#DejaVuSans-55" transform="translate(482.265625 0)"/>
     <use xlink:href="#DejaVuSans-48" transform="translate(521.171875 0)"/>
     <use xlink:href="#DejaVuSans-46" transform="translate(582.703125 0)"/>
     <use xlink:href="#DejaVuSans-44" transform="translate(637.6875 0)"/>
     <use xlink:href="#DejaVuSans-4f" transform="translate(698.96875 0)"/>
     <use xlink:href="#DejaVuSans-4f" transform="translate(726.75 0)"/>
     <use xlink:href="#DejaVuSans-3" transform="translate(754.53125 0)"/>
     <use xlink:href="#DejaVuSans-46" transform="translate(786.3125 0)"/>
     <use xlink:href="#DejaVuSans-58" transform="translate(841.296875 0)"/>
     <use xlink:href="#DejaVuSans-55" transform="translate(904.671875 0)"/>
     <use xlink:href="#DejaVuSans-59" transform="translate(945.78125 0)"/>
     <use xlink:href="#DejaVuSans-48" transform="translate(1004.96875 0)"/>
     <use xlink:href="#DejaVuSans-56" transform="translate(1066.5 0)"/>
    </g>
   </g>
   <g id="legend_2">
    <g id="patch_13">
     <path d="M 695.223197 91.579236 
L 775.448197 91.579236 
Q 777.048197 91.579236 777.048197 89.979236 
L 777.048197 42.776736 
Q 777.048197 41.176736 775.448197 41.176736 
L 695.223197 41.176736 
Q 693.623197 41.176736 693.623197 42.776736 
L 693.623197 89.979236 
Q 693.623197 91.579236 695.223197 91.579236 
z
" style="fill: #ffffff; opacity: 0.8; stroke: #cccccc; stroke-linejoin: miter"/>
    </g>
    <g id="line2d_45">
     <path d="M 696.823197 47.655486 
L 704.823197 47.655486 
L 712.823197 47.655486 
" style="fill: none; stroke: #48639c; stroke-width: 2.1; stroke-linecap: square"/>
    </g>
    <g id="text_38">
     <!-- chr16 (0.122) -->
     <g transform="translate(719.223197 50.455486) scale(0.08 -0.08)">
      <use xlink:href="#DejaVuSans-46"/>
      <use xlink:href="#DejaVuSans-4b" transform="translate(54.984375 0)"/>
      <use xlink:href="#DejaVuSans-55" transform="translate(118.359375 0)"/>
      <use xlink:href="#DejaVuSans-14" transform="translate(159.46875 0)"/>
      <use xlink:href="#DejaVuSans-19" transform="translate(223.09375 0)"/>
      <use xlink:href="#DejaVuSans-3" transform="translate(286.71875 0)"/>
      <use xlink:href="#DejaVuSans-b" transform="translate(318.5 0)"/>
      <use xlink:href="#DejaVuSans-13" transform="translate(357.515625 0)"/>
      <use xlink:href="#DejaVuSans-11" transform="translate(421.140625 0)"/>
      <use xlink:href="#DejaVuSans-14" transform="translate(452.921875 0)"/>
      <use xlink:href="#DejaVuSans-15" transform="translate(516.546875 0)"/>
      <use xlink:href="#DejaVuSans-15" transform="translate(580.171875 0)"/>
      <use xlink:href="#DejaVuSans-c" transform="translate(643.796875 0)"/>
     </g>
    </g>
    <g id="line2d_46">
     <path d="M 696.823197 59.656111 
L 704.823197 59.656111 
L 712.823197 59.656111 
" style="fill: none; stroke: #4c956c; stroke-width: 2.1; stroke-linecap: square"/>
    </g>
    <g id="text_39">
     <!-- chr11 (0.122) -->
     <g transform="translate(719.223197 62.456111) scale(0.08 -0.08)">
      <use xlink:href="#DejaVuSans-46"/>
      <use xlink:href="#DejaVuSans-4b" transform="translate(54.984375 0)"/>
      <use xlink:href="#DejaVuSans-55" transform="translate(118.359375 0)"/>
      <use xlink:href="#DejaVuSans-14" transform="translate(159.46875 0)"/>
      <use xlink:href="#DejaVuSans-14" transform="translate(223.09375 0)"/>
      <use xlink:href="#DejaVuSans-3" transform="translate(286.71875 0)"/>
      <use xlink:href="#DejaVuSans-b" transform="translate(318.5 0)"/>
      <use xlink:href="#DejaVuSans-13" transform="translate(357.515625 0)"/>
      <use xlink:href="#DejaVuSans-11" transform="translate(421.140625 0)"/>
      <use xlink:href="#DejaVuSans-14" transform="translate(452.921875 0)"/>
      <use xlink:href="#DejaVuSans-15" transform="translate(516.546875 0)"/>
      <use xlink:href="#DejaVuSans-15" transform="translate(580.171875 0)"/>
      <use xlink:href="#DejaVuSans-c" transform="translate(643.796875 0)"/>
     </g>
    </g>
    <g id="line2d_47">
     <path d="M 696.823197 71.656736 
L 704.823197 71.656736 
L 712.823197 71.656736 
" style="fill: none; stroke: #d08c60; stroke-width: 2.1; stroke-linecap: square"/>
    </g>
    <g id="text_40">
     <!-- chr17 (0.107) -->
     <g transform="translate(719.223197 74.456736) scale(0.08 -0.08)">
      <use xlink:href="#DejaVuSans-46"/>
      <use xlink:href="#DejaVuSans-4b" transform="translate(54.984375 0)"/>
      <use xlink:href="#DejaVuSans-55" transform="translate(118.359375 0)"/>
      <use xlink:href="#DejaVuSans-14" transform="translate(159.46875 0)"/>
      <use xlink:href="#DejaVuSans-1a" transform="translate(223.09375 0)"/>
      <use xlink:href="#DejaVuSans-3" transform="translate(286.71875 0)"/>
      <use xlink:href="#DejaVuSans-b" transform="translate(318.5 0)"/>
      <use xlink:href="#DejaVuSans-13" transform="translate(357.515625 0)"/>
      <use xlink:href="#DejaVuSans-11" transform="translate(421.140625 0)"/>
      <use xlink:href="#DejaVuSans-14" transform="translate(452.921875 0)"/>
      <use xlink:href="#DejaVuSans-13" transform="translate(516.546875 0)"/>
      <use xlink:href="#DejaVuSans-1a" transform="translate(580.171875 0)"/>
      <use xlink:href="#DejaVuSans-c" transform="translate(643.796875 0)"/>
     </g>
    </g>
    <g id="line2d_48">
     <path d="M 696.823197 83.657361 
L 704.823197 83.657361 
L 712.823197 83.657361 
" style="fill: none; stroke: #9d4edd; stroke-width: 2.1; stroke-linecap: square"/>
    </g>
    <g id="text_41">
     <!-- chr19 (0.123) -->
     <g transform="translate(719.223197 86.457361) scale(0.08 -0.08)">
      <use xlink:href="#DejaVuSans-46"/>
      <use xlink:href="#DejaVuSans-4b" transform="translate(54.984375 0)"/>
      <use xlink:href="#DejaVuSans-55" transform="translate(118.359375 0)"/>
      <use xlink:href="#DejaVuSans-14" transform="translate(159.46875 0)"/>
      <use xlink:href="#DejaVuSans-1c" transform="translate(223.09375 0)"/>
      <use xlink:href="#DejaVuSans-3" transform="translate(286.71875 0)"/>
      <use xlink:href="#DejaVuSans-b" transform="translate(318.5 0)"/>
      <use xlink:href="#DejaVuSans-13" transform="translate(357.515625 0)"/>
      <use xlink:href="#DejaVuSans-11" transform="translate(421.140625 0)"/>
      <use xlink:href="#DejaVuSans-14" transform="translate(452.921875 0)"/>
      <use xlink:href="#DejaVuSans-15" transform="translate(516.546875 0)"/>
      <use xlink:href="#DejaVuSans-16" transform="translate(580.171875 0)"/>
      <use xlink:href="#DejaVuSans-c" transform="translate(643.796875 0)"/>
     </g>
    </g>
   </g>
  </g>
  <g id="text_42">
   <!-- Cross-chromosome P(Reg|D,M) 6mA classification curves -->
   <g transform="translate(210.606797 12.935084) scale(0.13 -0.13)">
    <defs>
     <path id="DejaVuSans-4a" d="M 2906 1791 
Q 2906 2416 2648 2759 
Q 2391 3103 1925 3103 
Q 1463 3103 1205 2759 
Q 947 2416 947 1791 
Q 947 1169 1205 825 
Q 1463 481 1925 481 
Q 2391 481 2648 825 
Q 2906 1169 2906 1791 
z
M 3481 434 
Q 3481 -459 3084 -895 
Q 2688 -1331 1869 -1331 
Q 1566 -1331 1297 -1286 
Q 1028 -1241 775 -1147 
L 775 -588 
Q 1028 -725 1275 -790 
Q 1522 -856 1778 -856 
Q 2344 -856 2625 -561 
Q 2906 -266 2906 331 
L 2906 616 
Q 2728 306 2450 153 
Q 2172 0 1784 0 
Q 1141 0 747 490 
Q 353 981 353 1791 
Q 353 2603 747 3093 
Q 1141 3584 1784 3584 
Q 2172 3584 2450 3431 
Q 2728 3278 2906 2969 
L 2906 3500 
L 3481 3500 
L 3481 434 
z
" transform="scale(0.015625)"/>
     <path id="DejaVuSans-5f" d="M 1344 4891 
L 1344 -1509 
L 813 -1509 
L 813 4891 
L 1344 4891 
z
" transform="scale(0.015625)"/>
     <path id="DejaVuSans-27" d="M 1259 4147 
L 1259 519 
L 2022 519 
Q 2988 519 3436 956 
Q 3884 1394 3884 2338 
Q 3884 3275 3436 3711 
Q 2988 4147 2022 4147 
L 1259 4147 
z
M 628 4666 
L 1925 4666 
Q 3281 4666 3915 4102 
Q 4550 3538 4550 2338 
Q 4550 1131 3912 565 
Q 3275 0 1925 0 
L 628 0 
L 628 4666 
z
" transform="scale(0.015625)"/>
     <path id="DejaVuSans-f" d="M 750 794 
L 1409 794 
L 1409 256 
L 897 -744 
L 494 -744 
L 750 256 
L 750 794 
z
" transform="scale(0.015625)"/>
     <path id="DejaVuSans-30" d="M 628 4666 
L 1569 4666 
L 2759 1491 
L 3956 4666 
L 4897 4666 
L 4897 0 
L 4281 0 
L 4281 4097 
L 3078 897 
L 2444 897 
L 1241 4097 
L 1241 0 
L 628 0 
L 628 4666 
z
" transform="scale(0.015625)"/>
     <path id="DejaVuSans-24" d="M 2188 4044 
L 1331 1722 
L 3047 1722 
L 2188 4044 
z
M 1831 4666 
L 2547 4666 
L 4325 0 
L 3669 0 
L 3244 1197 
L 1141 1197 
L 716 0 
L 50 0 
L 1831 4666 
z
" transform="scale(0.015625)"/>
     <path id="DejaVuSans-13af" d="M 3431 3500 
L 3431 0 
L 2853 0 
L 2853 3053 
L 1275 3053 
L 1275 0 
L 697 0 
L 697 3053 
L 147 3053 
L 147 3500 
L 697 3500 
L 697 3744 
Q 697 4316 967 4589 
Q 1238 4863 1797 4863 
L 2375 4863 
L 2375 4384 
L 1825 4384 
Q 1516 4384 1395 4259 
Q 1275 4134 1275 3809 
L 1275 3500 
L 3431 3500 
z
M 2853 4856 
L 3431 4856 
L 3431 4128 
L 2853 4128 
L 2853 4856 
z
" transform="scale(0.015625)"/>
    </defs>
    <use xlink:href="#DejaVuSans-26"/>
    <use xlink:href="#DejaVuSans-55" transform="translate(69.828125 0)"/>
    <use xlink:href="#DejaVuSans-52" transform="translate(108.734375 0)"/>
    <use xlink:href="#DejaVuSans-56" transform="translate(169.921875 0)"/>
    <use xlink:href="#DejaVuSans-56" transform="translate(222.015625 0)"/>
    <use xlink:href="#DejaVuSans-10" transform="translate(274.109375 0)"/>
    <use xlink:href="#DejaVuSans-46" transform="translate(310.1875 0)"/>
    <use xlink:href="#DejaVuSans-4b" transform="translate(365.171875 0)"/>
    <use xlink:href="#DejaVuSans-55" transform="translate(428.546875 0)"/>
    <use xlink:href="#DejaVuSans-52" transform="translate(467.453125 0)"/>
    <use xlink:href="#DejaVuSans-50" transform="translate(528.640625 0)"/>
    <use xlink:href="#DejaVuSans-52" transform="translate(626.046875 0)"/>
    <use xlink:href="#DejaVuSans-56" transform="translate(687.234375 0)"/>
    <use xlink:href="#DejaVuSans-52" transform="translate(739.328125 0)"/>
    <use xlink:href="#DejaVuSans-50" transform="translate(800.515625 0)"/>
    <use xlink:href="#DejaVuSans-48" transform="translate(897.921875 0)"/>
    <use xlink:href="#DejaVuSans-3" transform="translate(959.453125 0)"/>
    <use xlink:href="#DejaVuSans-33" transform="translate(991.234375 0)"/>
    <use xlink:href="#DejaVuSans-b" transform="translate(1051.53125 0)"/>
    <use xlink:href="#DejaVuSans-35" transform="translate(1090.546875 0)"/>
    <use xlink:href="#DejaVuSans-48" transform="translate(1155.546875 0)"/>
    <use xlink:href="#DejaVuSans-4a" transform="translate(1217.078125 0)"/>
    <use xlink:href="#DejaVuSans-5f" transform="translate(1280.5625 0)"/>
    <use xlink:href="#DejaVuSans-27" transform="translate(1314.25 0)"/>
    <use xlink:href="#DejaVuSans-f" transform="translate(1391.25 0)"/>
    <use xlink:href="#DejaVuSans-30" transform="translate(1423.03125 0)"/>
    <use xlink:href="#DejaVuSans-c" transform="translate(1509.3125 0)"/>
    <use xlink:href="#DejaVuSans-3" transform="translate(1548.328125 0)"/>
    <use xlink:href="#DejaVuSans-19" transform="translate(1580.109375 0)"/>
    <use xlink:href="#DejaVuSans-50" transform="translate(1643.734375 0)"/>
    <use xlink:href="#DejaVuSans-24" transform="translate(1741.140625 0)"/>
    <use xlink:href="#DejaVuSans-3" transform="translate(1809.546875 0)"/>
    <use xlink:href="#DejaVuSans-46" transform="translate(1841.328125 0)"/>
    <use xlink:href="#DejaVuSans-4f" transform="translate(1896.3125 0)"/>
    <use xlink:href="#DejaVuSans-44" transform="translate(1924.09375 0)"/>
    <use xlink:href="#DejaVuSans-56" transform="translate(1985.375 0)"/>
    <use xlink:href="#DejaVuSans-56" transform="translate(2037.46875 0)"/>
    <use xlink:href="#DejaVuSans-4c" transform="translate(2089.5625 0)"/>
    <use xlink:href="#DejaVuSans-13af" transform="translate(2117.34375 0)"/>
    <use xlink:href="#DejaVuSans-46" transform="translate(2180.328125 0)"/>
    <use xlink:href="#DejaVuSans-44" transform="translate(2235.3125 0)"/>
    <use xlink:href="#DejaVuSans-57" transform="translate(2296.59375 0)"/>
    <use xlink:href="#DejaVuSans-4c" transform="translate(2335.796875 0)"/>
    <use xlink:href="#DejaVuSans-52" transform="translate(2363.578125 0)"/>
    <use xlink:href="#DejaVuSans-51" transform="translate(2424.765625 0)"/>
    <use xlink:href="#DejaVuSans-3" transform="translate(2488.140625 0)"/>
    <use xlink:href="#DejaVuSans-46" transform="translate(2519.921875 0)"/>
    <use xlink:href="#DejaVuSans-58" transform="translate(2574.90625 0)"/>
    <use xlink:href="#DejaVuSans-55" transform="translate(2638.28125 0)"/>
    <use xlink:href="#DejaVuSans-59" transform="translate(2679.390625 0)"/>
    <use xlink:href="#DejaVuSans-48" transform="translate(2738.578125 0)"/>
    <use xlink:href="#DejaVuSans-56" transform="translate(2800.109375 0)"/>
   </g>
  </g>
 </g>
 <defs>
  <clipPath id="p6472371308">
   <rect x="39.904146" y="37.176736" width="341.003041" height="274.422243"/>
  </clipPath>
  <clipPath id="p207fb3fd2c">
   <rect x="440.045156" y="37.176736" width="341.003041" height="274.422243"/>
  </clipPath>
 </defs>
</svg>
