<svg xmlns="http://www.w3.org/2000/svg" width="950" height="520">
<rect width="100%" height="100%" fill="white"/>
<text x="475.0" y="30" text-anchor="middle" font-size="20" font-family="Arial">Median Read Length by Mark</text>
<line x1="85" y1="425" x2="920" y2="425" stroke="black" stroke-width="1"/>
<line x1="85" y1="60" x2="85" y2="425" stroke="black" stroke-width="1"/>
<line x1="85" y1="425.0" x2="920" y2="425.0" stroke="#efefef"/>
<text x="77" y="429.0" text-anchor="end" font-size="12" font-family="Arial">0.0</text>
<line x1="85" y1="352.0" x2="920" y2="352.0" stroke="#efefef"/>
<text x="77" y="356.0" text-anchor="end" font-size="12" font-family="Arial">783.6</text>
<line x1="85" y1="279.0" x2="920" y2="279.0" stroke="#efefef"/>
<text x="77" y="283.0" text-anchor="end" font-size="12" font-family="Arial">1567.2</text>
<line x1="85" y1="206.0" x2="920" y2="206.0" stroke="#efefef"/>
<text x="77" y="210.0" text-anchor="end" font-size="12" font-family="Arial">2350.8</text>
<line x1="85" y1="133.0" x2="920" y2="133.0" stroke="#efefef"/>
<text x="77" y="137.0" text-anchor="end" font-size="12" font-family="Arial">3134.4</text>
<line x1="85" y1="60.0" x2="920" y2="60.0" stroke="#efefef"/>
<text x="77" y="64.0" text-anchor="end" font-size="12" font-family="Arial">3918.1</text>
<rect x="154.6" y="107.6" width="111.3" height="317.4" fill="#4daf4a"/>
<text x="224.2" y="445" text-anchor="middle" font-size="12" font-family="Arial">h3k27ac</text>
<rect x="432.9" y="159.8" width="111.3" height="265.2" fill="#4daf4a"/>
<text x="502.5" y="445" text-anchor="middle" font-size="12" font-family="Arial">h3k27me3</text>
<rect x="711.2" y="132.0" width="111.3" height="293.0" fill="#4daf4a"/>
<text x="780.8" y="445" text-anchor="middle" font-size="12" font-family="Arial">h3k4me3</text>
<rect x="95" y="32" width="12" height="12" fill="#4daf4a"/>
<text x="113" y="42" font-size="12" font-family="Arial">Read length p50 (bp)</text>
<text x="27" y="242.5" text-anchor="middle" transform="rotate(-90 27,242.5)" font-size="12" font-family="Arial">bp</text>
</svg>