<svg xmlns="http://www.w3.org/2000/svg" width="950" height="520">
<rect width="100%" height="100%" fill="white"/>
<text x="475.0" y="30" text-anchor="middle" font-size="20" font-family="Arial">h3k27ac: Methylation Distributions</text>
<line x1="80" y1="425" x2="920" y2="425" stroke="black" stroke-width="1"/>
<line x1="80" y1="60" x2="80" y2="425" stroke="black" stroke-width="1"/>
<line x1="80" y1="425.0" x2="920" y2="425.0" stroke="#efefef"/>
<text x="72" y="429.0" text-anchor="end" font-size="12" font-family="Arial">0</text>
<line x1="80" y1="352.0" x2="920" y2="352.0" stroke="#efefef"/>
<text x="72" y="356.0" text-anchor="end" font-size="12" font-family="Arial">35116</text>
<line x1="80" y1="279.0" x2="920" y2="279.0" stroke="#efefef"/>
<text x="72" y="283.0" text-anchor="end" font-size="12" font-family="Arial">70232</text>
<line x1="80" y1="206.0" x2="920" y2="206.0" stroke="#efefef"/>
<text x="72" y="210.0" text-anchor="end" font-size="12" font-family="Arial">105349</text>
<line x1="80" y1="133.0" x2="920" y2="133.0" stroke="#efefef"/>
<text x="72" y="137.0" text-anchor="end" font-size="12" font-family="Arial">140465</text>
<line x1="80" y1="60.0" x2="920" y2="60.0" stroke="#efefef"/>
<text x="72" y="64.0" text-anchor="end" font-size="12" font-family="Arial">175582</text>
<polyline fill="none" stroke="#1b9e77" stroke-width="2" points="80.0,60.0 92.2,399.8 104.3,415.0 116.5,419.5 128.7,422.0 140.9,422.9 153.0,423.7 165.2,424.0 177.4,424.3 189.6,424.5 201.7,424.7 213.9,424.7 226.1,424.8 238.3,424.9 250.4,424.9 262.6,425.0 274.8,424.9 287.0,424.9 299.1,425.0 311.3,425.0 323.5,425.0 335.7,425.0 347.8,425.0 360.0,425.0 372.2,425.0 384.3,425.0 396.5,425.0 408.7,425.0 420.9,425.0 433.0,425.0 445.2,425.0 457.4,425.0 469.6,425.0 481.7,425.0 493.9,425.0 506.1,425.0 518.3,425.0 530.4,425.0 542.6,425.0 554.8,425.0 567.0,425.0 579.1,425.0 591.3,425.0 603.5,425.0 615.7,425.0 627.8,425.0 640.0,425.0 652.2,425.0 664.3,425.0 676.5,425.0 688.7,425.0 700.9,425.0 713.0,425.0 725.2,425.0 737.4,425.0 749.6,425.0 761.7,425.0 773.9,425.0 786.1,425.0 798.3,425.0 810.4,425.0 822.6,425.0 834.8,425.0 847.0,425.0 859.1,425.0 871.3,425.0 883.5,425.0 895.7,425.0 907.8,425.0 920.0,425.0"/>
<polyline fill="none" stroke="#e6550d" stroke-width="2" points="80.0,353.7 92.2,345.9 104.3,364.7 116.5,388.8 128.7,402.3 140.9,408.9 153.0,412.5 165.2,414.7 177.4,416.2 189.6,417.1 201.7,417.9 213.9,418.5 226.1,418.8 238.3,419.3 250.4,419.4 262.6,419.9 274.8,420.5 287.0,420.6 299.1,420.9 311.3,421.2 323.5,421.4 335.7,421.7 347.8,421.8 360.0,422.1 372.2,422.2 384.3,422.6 396.5,422.7 408.7,422.8 420.9,423.2 433.0,423.2 445.2,423.3 457.4,423.6 469.6,423.7 481.7,423.8 493.9,424.0 506.1,424.2 518.3,424.2 530.4,424.4 542.6,424.5 554.8,424.6 567.0,424.7 579.1,424.8 591.3,424.8 603.5,424.9 615.7,424.9 627.8,424.9 640.0,424.9 652.2,424.9 664.3,425.0 676.5,425.0 688.7,425.0 700.9,425.0 713.0,425.0 725.2,425.0 737.4,425.0 749.6,425.0 761.7,425.0 773.9,425.0 786.1,425.0 798.3,425.0 810.4,425.0 822.6,425.0 834.8,425.0 847.0,425.0 859.1,425.0 871.3,425.0 883.5,425.0 895.7,425.0 907.8,425.0 920.0,425.0"/>
<line x1="88" y1="38" x2="100" y2="38" stroke="#1b9e77" stroke-width="3"/>
<text x="106" y="42" font-size="12" font-family="Arial">A_mod_density_per_kb (Reg proxy)</text>
<line x1="88" y1="58" x2="100" y2="58" stroke="#e6550d" stroke-width="3"/>
<text x="106" y="62" font-size="12" font-family="Arial">C_mod_density_per_kb (M proxy)</text>
<text x="500.0" y="486" text-anchor="middle" font-size="12" font-family="Arial">mods per kb</text>
<text x="24" y="242.5" text-anchor="middle" transform="rotate(-90 24,242.5)" font-size="12" font-family="Arial">Count</text>
</svg>