<svg xmlns="http://www.w3.org/2000/svg" width="950" height="520">
<rect width="100%" height="100%" fill="white"/>
<text x="475.0" y="30" text-anchor="middle" font-size="20" font-family="Arial">h3k27me3: Methylation Distributions</text>
<line x1="80" y1="425" x2="920" y2="425" stroke="black" stroke-width="1"/>
<line x1="80" y1="60" x2="80" y2="425" stroke="black" stroke-width="1"/>
<line x1="80" y1="425.0" x2="920" y2="425.0" stroke="#efefef"/>
<text x="72" y="429.0" text-anchor="end" font-size="12" font-family="Arial">0</text>
<line x1="80" y1="352.0" x2="920" y2="352.0" stroke="#efefef"/>
<text x="72" y="356.0" text-anchor="end" font-size="12" font-family="Arial">33670</text>
<line x1="80" y1="279.0" x2="920" y2="279.0" stroke="#efefef"/>
<text x="72" y="283.0" text-anchor="end" font-size="12" font-family="Arial">67341</text>
<line x1="80" y1="206.0" x2="920" y2="206.0" stroke="#efefef"/>
<text x="72" y="210.0" text-anchor="end" font-size="12" font-family="Arial">101011</text>
<line x1="80" y1="133.0" x2="920" y2="133.0" stroke="#efefef"/>
<text x="72" y="137.0" text-anchor="end" font-size="12" font-family="Arial">134682</text>
<line x1="80" y1="60.0" x2="920" y2="60.0" stroke="#efefef"/>
<text x="72" y="64.0" text-anchor="end" font-size="12" font-family="Arial">168353</text>
<polyline fill="none" stroke="#d95f02" stroke-width="2" points="80.0,60.0 92.2,391.4 104.3,409.9 116.5,417.4 128.7,420.7 140.9,422.3 153.0,423.4 165.2,424.0 177.4,424.3 189.6,424.4 201.7,424.6 213.9,424.8 226.1,424.8 238.3,424.9 250.4,424.9 262.6,424.9 274.8,425.0 287.0,425.0 299.1,425.0 311.3,425.0 323.5,425.0 335.7,425.0 347.8,425.0 360.0,425.0 372.2,425.0 384.3,425.0 396.5,425.0 408.7,425.0 420.9,425.0 433.0,425.0 445.2,425.0 457.4,425.0 469.6,425.0 481.7,425.0 493.9,425.0 506.1,425.0 518.3,425.0 530.4,425.0 542.6,425.0 554.8,425.0 567.0,425.0 579.1,425.0 591.3,425.0 603.5,425.0 615.7,425.0 627.8,425.0 640.0,425.0 652.2,425.0 664.3,425.0 676.5,425.0 688.7,425.0 700.9,425.0 713.0,425.0 725.2,425.0 737.4,425.0 749.6,425.0 761.7,425.0 773.9,425.0 786.1,425.0 798.3,425.0 810.4,425.0 822.6,425.0 834.8,425.0 847.0,425.0 859.1,425.0 871.3,425.0 883.5,425.0 895.7,425.0 907.8,425.0 920.0,425.0"/>
<polyline fill="none" stroke="#e6550d" stroke-width="2" points="80.0,285.9 92.2,312.4 104.3,361.7 116.5,390.5 128.7,404.4 140.9,411.4 153.0,415.6 165.2,418.0 177.4,419.7 189.6,420.9 201.7,421.9 213.9,422.4 226.1,422.9 238.3,423.3 250.4,423.6 262.6,423.8 274.8,423.8 287.0,424.0 299.1,424.2 311.3,424.2 323.5,424.2 335.7,424.3 347.8,424.3 360.0,424.5 372.2,424.4 384.3,424.5 396.5,424.5 408.7,424.5 420.9,424.5 433.0,424.6 445.2,424.6 457.4,424.6 469.6,424.7 481.7,424.8 493.9,424.8 506.1,424.8 518.3,424.8 530.4,424.9 542.6,424.9 554.8,424.9 567.0,424.9 579.1,425.0 591.3,425.0 603.5,425.0 615.7,425.0 627.8,425.0 640.0,425.0 652.2,425.0 664.3,425.0 676.5,425.0 688.7,425.0 700.9,425.0 713.0,425.0 725.2,425.0 737.4,425.0 749.6,425.0 761.7,425.0 773.9,425.0 786.1,425.0 798.3,425.0 810.4,425.0 822.6,425.0 834.8,425.0 847.0,425.0 859.1,425.0 871.3,425.0 883.5,425.0 895.7,425.0 907.8,425.0 920.0,425.0"/>
<line x1="88" y1="38" x2="100" y2="38" stroke="#d95f02" stroke-width="3"/>
<text x="106" y="42" font-size="12" font-family="Arial">A_mod_density_per_kb (Reg proxy)</text>
<line x1="88" y1="58" x2="100" y2="58" stroke="#e6550d" stroke-width="3"/>
<text x="106" y="62" font-size="12" font-family="Arial">C_mod_density_per_kb (M proxy)</text>
<text x="500.0" y="486" text-anchor="middle" font-size="12" font-family="Arial">mods per kb</text>
<text x="24" y="242.5" text-anchor="middle" transform="rotate(-90 24,242.5)" font-size="12" font-family="Arial">Count</text>
</svg>