<svg xmlns="http://www.w3.org/2000/svg" width="980" height="620">
<rect width="100%" height="100%" fill="white"/>
<text x="490.0" y="32" text-anchor="middle" font-size="20" font-family="Arial">Reg vs M Co-occurrence Heatmap (Read-level Quantile Bins)</text>
<rect x="120.00" y="456.50" width="78.00" height="43.50" fill="rgb(255,49,49)" stroke="none"/>
<rect x="198.00" y="456.50" width="78.00" height="43.50" fill="rgb(33,102,255)" stroke="none"/>
<rect x="276.00" y="456.50" width="78.00" height="43.50" fill="rgb(33,102,255)" stroke="none"/>
<rect x="354.00" y="456.50" width="78.00" height="43.50" fill="rgb(190,208,247)" stroke="none"/>
<rect x="432.00" y="456.50" width="78.00" height="43.50" fill="rgb(248,169,169)" stroke="none"/>
<rect x="510.00" y="456.50" width="78.00" height="43.50" fill="rgb(250,145,145)" stroke="none"/>
<rect x="588.00" y="456.50" width="78.00" height="43.50" fill="rgb(251,122,122)" stroke="none"/>
<rect x="666.00" y="456.50" width="78.00" height="43.50" fill="rgb(251,111,111)" stroke="none"/>
<rect x="744.00" y="456.50" width="78.00" height="43.50" fill="rgb(252,98,98)" stroke="none"/>
<rect x="822.00" y="456.50" width="78.00" height="43.50" fill="rgb(253,75,75)" stroke="none"/>
<rect x="120.00" y="413.00" width="78.00" height="43.50" fill="rgb(254,49,49)" stroke="none"/>
<rect x="198.00" y="413.00" width="78.00" height="43.50" fill="rgb(33,102,255)" stroke="none"/>
<rect x="276.00" y="413.00" width="78.00" height="43.50" fill="rgb(33,102,255)" stroke="none"/>
<rect x="354.00" y="413.00" width="78.00" height="43.50" fill="rgb(245,228,228)" stroke="none"/>
<rect x="432.00" y="413.00" width="78.00" height="43.50" fill="rgb(252,107,107)" stroke="none"/>
<rect x="510.00" y="413.00" width="78.00" height="43.50" fill="rgb(251,108,108)" stroke="none"/>
<rect x="588.00" y="413.00" width="78.00" height="43.50" fill="rgb(251,111,111)" stroke="none"/>
<rect x="666.00" y="413.00" width="78.00" height="43.50" fill="rgb(251,108,108)" stroke="none"/>
<rect x="744.00" y="413.00" width="78.00" height="43.50" fill="rgb(252,107,107)" stroke="none"/>
<rect x="822.00" y="413.00" width="78.00" height="43.50" fill="rgb(251,111,111)" stroke="none"/>
<rect x="120.00" y="369.50" width="78.00" height="43.50" fill="rgb(254,51,51)" stroke="none"/>
<rect x="198.00" y="369.50" width="78.00" height="43.50" fill="rgb(33,102,255)" stroke="none"/>
<rect x="276.00" y="369.50" width="78.00" height="43.50" fill="rgb(33,102,255)" stroke="none"/>
<rect x="354.00" y="369.50" width="78.00" height="43.50" fill="rgb(246,207,207)" stroke="none"/>
<rect x="432.00" y="369.50" width="78.00" height="43.50" fill="rgb(252,93,93)" stroke="none"/>
<rect x="510.00" y="369.50" width="78.00" height="43.50" fill="rgb(252,100,100)" stroke="none"/>
<rect x="588.00" y="369.50" width="78.00" height="43.50" fill="rgb(252,106,106)" stroke="none"/>
<rect x="666.00" y="369.50" width="78.00" height="43.50" fill="rgb(251,110,110)" stroke="none"/>
<rect x="744.00" y="369.50" width="78.00" height="43.50" fill="rgb(251,115,115)" stroke="none"/>
<rect x="822.00" y="369.50" width="78.00" height="43.50" fill="rgb(250,129,129)" stroke="none"/>
<rect x="120.00" y="326.00" width="78.00" height="43.50" fill="rgb(254,53,53)" stroke="none"/>
<rect x="198.00" y="326.00" width="78.00" height="43.50" fill="rgb(33,102,255)" stroke="none"/>
<rect x="276.00" y="326.00" width="78.00" height="43.50" fill="rgb(33,102,255)" stroke="none"/>
<rect x="354.00" y="326.00" width="78.00" height="43.50" fill="rgb(247,196,196)" stroke="none"/>
<rect x="432.00" y="326.00" width="78.00" height="43.50" fill="rgb(252,89,89)" stroke="none"/>
<rect x="510.00" y="326.00" width="78.00" height="43.50" fill="rgb(252,96,96)" stroke="none"/>
<rect x="588.00" y="326.00" width="78.00" height="43.50" fill="rgb(252,105,105)" stroke="none"/>
<rect x="666.00" y="326.00" width="78.00" height="43.50" fill="rgb(251,111,111)" stroke="none"/>
<rect x="744.00" y="326.00" width="78.00" height="43.50" fill="rgb(251,119,119)" stroke="none"/>
<rect x="822.00" y="326.00" width="78.00" height="43.50" fill="rgb(250,137,137)" stroke="none"/>
<rect x="120.00" y="282.50" width="78.00" height="43.50" fill="rgb(254,53,53)" stroke="none"/>
<rect x="198.00" y="282.50" width="78.00" height="43.50" fill="rgb(33,102,255)" stroke="none"/>
<rect x="276.00" y="282.50" width="78.00" height="43.50" fill="rgb(33,102,255)" stroke="none"/>
<rect x="354.00" y="282.50" width="78.00" height="43.50" fill="rgb(247,202,202)" stroke="none"/>
<rect x="432.00" y="282.50" width="78.00" height="43.50" fill="rgb(252,90,90)" stroke="none"/>
<rect x="510.00" y="282.50" width="78.00" height="43.50" fill="rgb(252,95,95)" stroke="none"/>
<rect x="588.00" y="282.50" width="78.00" height="43.50" fill="rgb(252,103,103)" stroke="none"/>
<rect x="666.00" y="282.50" width="78.00" height="43.50" fill="rgb(251,110,110)" stroke="none"/>
<rect x="744.00" y="282.50" width="78.00" height="43.50" fill="rgb(251,120,120)" stroke="none"/>
<rect x="822.00" y="282.50" width="78.00" height="43.50" fill="rgb(250,137,137)" stroke="none"/>
<rect x="120.00" y="239.00" width="78.00" height="43.50" fill="rgb(254,53,53)" stroke="none"/>
<rect x="198.00" y="239.00" width="78.00" height="43.50" fill="rgb(33,102,255)" stroke="none"/>
<rect x="276.00" y="239.00" width="78.00" height="43.50" fill="rgb(33,102,255)" stroke="none"/>
<rect x="354.00" y="239.00" width="78.00" height="43.50" fill="rgb(246,209,209)" stroke="none"/>
<rect x="432.00" y="239.00" width="78.00" height="43.50" fill="rgb(252,95,95)" stroke="none"/>
<rect x="510.00" y="239.00" width="78.00" height="43.50" fill="rgb(252,96,96)" stroke="none"/>
<rect x="588.00" y="239.00" width="78.00" height="43.50" fill="rgb(252,100,100)" stroke="none"/>
<rect x="666.00" y="239.00" width="78.00" height="43.50" fill="rgb(251,107,107)" stroke="none"/>
<rect x="744.00" y="239.00" width="78.00" height="43.50" fill="rgb(251,117,117)" stroke="none"/>
<rect x="822.00" y="239.00" width="78.00" height="43.50" fill="rgb(250,132,132)" stroke="none"/>
<rect x="120.00" y="195.50" width="78.00" height="43.50" fill="rgb(254,54,54)" stroke="none"/>
<rect x="198.00" y="195.50" width="78.00" height="43.50" fill="rgb(33,102,255)" stroke="none"/>
<rect x="276.00" y="195.50" width="78.00" height="43.50" fill="rgb(33,102,255)" stroke="none"/>
<rect x="354.00" y="195.50" width="78.00" height="43.50" fill="rgb(245,231,231)" stroke="none"/>
<rect x="432.00" y="195.50" width="78.00" height="43.50" fill="rgb(252,105,105)" stroke="none"/>
<rect x="510.00" y="195.50" width="78.00" height="43.50" fill="rgb(252,99,99)" stroke="none"/>
<rect x="588.00" y="195.50" width="78.00" height="43.50" fill="rgb(252,99,99)" stroke="none"/>
<rect x="666.00" y="195.50" width="78.00" height="43.50" fill="rgb(252,103,103)" stroke="none"/>
<rect x="744.00" y="195.50" width="78.00" height="43.50" fill="rgb(251,109,109)" stroke="none"/>
<rect x="822.00" y="195.50" width="78.00" height="43.50" fill="rgb(251,122,122)" stroke="none"/>
<rect x="120.00" y="152.00" width="78.00" height="43.50" fill="rgb(254,56,56)" stroke="none"/>
<rect x="198.00" y="152.00" width="78.00" height="43.50" fill="rgb(33,102,255)" stroke="none"/>
<rect x="276.00" y="152.00" width="78.00" height="43.50" fill="rgb(33,102,255)" stroke="none"/>
<rect x="354.00" y="152.00" width="78.00" height="43.50" fill="rgb(242,243,245)" stroke="none"/>
<rect x="432.00" y="152.00" width="78.00" height="43.50" fill="rgb(251,116,116)" stroke="none"/>
<rect x="510.00" y="152.00" width="78.00" height="43.50" fill="rgb(252,106,106)" stroke="none"/>
<rect x="588.00" y="152.00" width="78.00" height="43.50" fill="rgb(252,100,100)" stroke="none"/>
<rect x="666.00" y="152.00" width="78.00" height="43.50" fill="rgb(252,98,98)" stroke="none"/>
<rect x="744.00" y="152.00" width="78.00" height="43.50" fill="rgb(252,99,99)" stroke="none"/>
<rect x="822.00" y="152.00" width="78.00" height="43.50" fill="rgb(252,106,106)" stroke="none"/>
<rect x="120.00" y="108.50" width="78.00" height="43.50" fill="rgb(254,59,59)" stroke="none"/>
<rect x="198.00" y="108.50" width="78.00" height="43.50" fill="rgb(33,102,255)" stroke="none"/>
<rect x="276.00" y="108.50" width="78.00" height="43.50" fill="rgb(33,102,255)" stroke="none"/>
<rect x="354.00" y="108.50" width="78.00" height="43.50" fill="rgb(228,233,245)" stroke="none"/>
<rect x="432.00" y="108.50" width="78.00" height="43.50" fill="rgb(250,128,128)" stroke="none"/>
<rect x="510.00" y="108.50" width="78.00" height="43.50" fill="rgb(251,117,117)" stroke="none"/>
<rect x="588.00" y="108.50" width="78.00" height="43.50" fill="rgb(252,106,106)" stroke="none"/>
<rect x="666.00" y="108.50" width="78.00" height="43.50" fill="rgb(252,97,97)" stroke="none"/>
<rect x="744.00" y="108.50" width="78.00" height="43.50" fill="rgb(252,92,92)" stroke="none"/>
<rect x="822.00" y="108.50" width="78.00" height="43.50" fill="rgb(252,88,88)" stroke="none"/>
<rect x="120.00" y="65.00" width="78.00" height="43.50" fill="rgb(254,56,56)" stroke="none"/>
<rect x="198.00" y="65.00" width="78.00" height="43.50" fill="rgb(33,102,255)" stroke="none"/>
<rect x="276.00" y="65.00" width="78.00" height="43.50" fill="rgb(33,102,255)" stroke="none"/>
<rect x="354.00" y="65.00" width="78.00" height="43.50" fill="rgb(245,226,226)" stroke="none"/>
<rect x="432.00" y="65.00" width="78.00" height="43.50" fill="rgb(251,119,119)" stroke="none"/>
<rect x="510.00" y="65.00" width="78.00" height="43.50" fill="rgb(251,120,120)" stroke="none"/>
<rect x="588.00" y="65.00" width="78.00" height="43.50" fill="rgb(251,113,113)" stroke="none"/>
<rect x="666.00" y="65.00" width="78.00" height="43.50" fill="rgb(252,105,105)" stroke="none"/>
<rect x="744.00" y="65.00" width="78.00" height="43.50" fill="rgb(252,95,95)" stroke="none"/>
<rect x="822.00" y="65.00" width="78.00" height="43.50" fill="rgb(253,85,85)" stroke="none"/>
<rect x="120" y="65" width="780" height="435" fill="none" stroke="black" stroke-width="1"/>
<text x="159.0" y="522" text-anchor="middle" font-size="11" font-family="Arial" transform="rotate(25 159.0,522)">Q1</text>
<text x="237.0" y="522" text-anchor="middle" font-size="11" font-family="Arial" transform="rotate(25 237.0,522)">Q2</text>
<text x="315.0" y="522" text-anchor="middle" font-size="11" font-family="Arial" transform="rotate(25 315.0,522)">Q3</text>
<text x="393.0" y="522" text-anchor="middle" font-size="11" font-family="Arial" transform="rotate(25 393.0,522)">Q4</text>
<text x="471.0" y="522" text-anchor="middle" font-size="11" font-family="Arial" transform="rotate(25 471.0,522)">Q5</text>
<text x="549.0" y="522" text-anchor="middle" font-size="11" font-family="Arial" transform="rotate(25 549.0,522)">Q6</text>
<text x="627.0" y="522" text-anchor="middle" font-size="11" font-family="Arial" transform="rotate(25 627.0,522)">Q7</text>
<text x="705.0" y="522" text-anchor="middle" font-size="11" font-family="Arial" transform="rotate(25 705.0,522)">Q8</text>
<text x="783.0" y="522" text-anchor="middle" font-size="11" font-family="Arial" transform="rotate(25 783.0,522)">Q9</text>
<text x="861.0" y="522" text-anchor="middle" font-size="11" font-family="Arial" transform="rotate(25 861.0,522)">Q10</text>
<text x="110" y="482.2" text-anchor="end" font-size="11" font-family="Arial">Q1</text>
<text x="110" y="438.8" text-anchor="end" font-size="11" font-family="Arial">Q2</text>
<text x="110" y="395.2" text-anchor="end" font-size="11" font-family="Arial">Q3</text>
<text x="110" y="351.8" text-anchor="end" font-size="11" font-family="Arial">Q4</text>
<text x="110" y="308.2" text-anchor="end" font-size="11" font-family="Arial">Q5</text>
<text x="110" y="264.8" text-anchor="end" font-size="11" font-family="Arial">Q6</text>
<text x="110" y="221.2" text-anchor="end" font-size="11" font-family="Arial">Q7</text>
<text x="110" y="177.8" text-anchor="end" font-size="11" font-family="Arial">Q8</text>
<text x="110" y="134.2" text-anchor="end" font-size="11" font-family="Arial">Q9</text>
<text x="110" y="90.8" text-anchor="end" font-size="11" font-family="Arial">Q10</text>
<text x="510.0" y="586" text-anchor="middle" font-size="12" font-family="Arial">Reg proxy: A_mod_density_per_kb quantile</text>
<text x="48" y="282.5" text-anchor="middle" transform="rotate(-90 48,282.5)" font-size="12" font-family="Arial">M proxy: C_mod_density_per_kb quantile</text>
<rect x="924" y="494.56" width="18" height="5.44" fill="rgb(33,102,255)" stroke="none"/>
<rect x="924" y="489.12" width="18" height="5.44" fill="rgb(33,102,255)" stroke="none"/>
<rect x="924" y="483.69" width="18" height="5.44" fill="rgb(33,102,255)" stroke="none"/>
<rect x="924" y="478.25" width="18" height="5.44" fill="rgb(33,102,255)" stroke="none"/>
<rect x="924" y="472.81" width="18" height="5.44" fill="rgb(33,102,255)" stroke="none"/>
<rect x="924" y="467.38" width="18" height="5.44" fill="rgb(33,102,255)" stroke="none"/>
<rect x="924" y="461.94" width="18" height="5.44" fill="rgb(61,121,253)" stroke="none"/>
<rect x="924" y="456.50" width="18" height="5.44" fill="rgb(61,121,253)" stroke="none"/>
<rect x="924" y="451.06" width="18" height="5.44" fill="rgb(61,121,253)" stroke="none"/>
<rect x="924" y="445.62" width="18" height="5.44" fill="rgb(78,132,252)" stroke="none"/>
<rect x="924" y="440.19" width="18" height="5.44" fill="rgb(78,132,252)" stroke="none"/>
<rect x="924" y="434.75" width="18" height="5.44" fill="rgb(90,140,252)" stroke="none"/>
<rect x="924" y="429.31" width="18" height="5.44" fill="rgb(90,140,252)" stroke="none"/>
<rect x="924" y="423.88" width="18" height="5.44" fill="rgb(99,147,251)" stroke="none"/>
<rect x="924" y="418.44" width="18" height="5.44" fill="rgb(107,152,251)" stroke="none"/>
<rect x="924" y="413.00" width="18" height="5.44" fill="rgb(107,152,251)" stroke="none"/>
<rect x="924" y="407.56" width="18" height="5.44" fill="rgb(113,156,251)" stroke="none"/>
<rect x="924" y="402.12" width="18" height="5.44" fill="rgb(119,160,250)" stroke="none"/>
<rect x="924" y="396.69" width="18" height="5.44" fill="rgb(128,166,250)" stroke="none"/>
<rect x="924" y="391.25" width="18" height="5.44" fill="rgb(132,169,250)" stroke="none"/>
<rect x="924" y="385.81" width="18" height="5.44" fill="rgb(139,173,249)" stroke="none"/>
<rect x="924" y="380.38" width="18" height="5.44" fill="rgb(145,177,249)" stroke="none"/>
<rect x="924" y="374.94" width="18" height="5.44" fill="rgb(150,181,249)" stroke="none"/>
<rect x="924" y="369.50" width="18" height="5.44" fill="rgb(155,184,249)" stroke="none"/>
<rect x="924" y="364.06" width="18" height="5.44" fill="rgb(161,188,248)" stroke="none"/>
<rect x="924" y="358.62" width="18" height="5.44" fill="rgb(166,192,248)" stroke="none"/>
<rect x="924" y="353.19" width="18" height="5.44" fill="rgb(171,195,248)" stroke="none"/>
<rect x="924" y="347.75" width="18" height="5.44" fill="rgb(177,199,248)" stroke="none"/>
<rect x="924" y="342.31" width="18" height="5.44" fill="rgb(183,203,247)" stroke="none"/>
<rect x="924" y="336.88" width="18" height="5.44" fill="rgb(188,206,247)" stroke="none"/>
<rect x="924" y="331.44" width="18" height="5.44" fill="rgb(193,210,247)" stroke="none"/>
<rect x="924" y="326.00" width="18" height="5.44" fill="rgb(198,213,247)" stroke="none"/>
<rect x="924" y="320.56" width="18" height="5.44" fill="rgb(204,217,246)" stroke="none"/>
<rect x="924" y="315.12" width="18" height="5.44" fill="rgb(209,221,246)" stroke="none"/>
<rect x="924" y="309.69" width="18" height="5.44" fill="rgb(215,224,246)" stroke="none"/>
<rect x="924" y="304.25" width="18" height="5.44" fill="rgb(220,228,246)" stroke="none"/>
<rect x="924" y="298.81" width="18" height="5.44" fill="rgb(225,232,245)" stroke="none"/>
<rect x="924" y="293.38" width="18" height="5.44" fill="rgb(231,235,245)" stroke="none"/>
<rect x="924" y="287.94" width="18" height="5.44" fill="rgb(236,239,245)" stroke="none"/>
<rect x="924" y="282.50" width="18" height="5.44" fill="rgb(242,243,245)" stroke="none"/>
<rect x="924" y="277.06" width="18" height="5.44" fill="rgb(245,242,242)" stroke="none"/>
<rect x="924" y="271.62" width="18" height="5.44" fill="rgb(245,237,237)" stroke="none"/>
<rect x="924" y="266.19" width="18" height="5.44" fill="rgb(245,232,232)" stroke="none"/>
<rect x="924" y="260.75" width="18" height="5.44" fill="rgb(245,227,227)" stroke="none"/>
<rect x="924" y="255.31" width="18" height="5.44" fill="rgb(246,222,222)" stroke="none"/>
<rect x="924" y="249.88" width="18" height="5.44" fill="rgb(246,217,217)" stroke="none"/>
<rect x="924" y="244.44" width="18" height="5.44" fill="rgb(246,212,212)" stroke="none"/>
<rect x="924" y="239.00" width="18" height="5.44" fill="rgb(246,207,207)" stroke="none"/>
<rect x="924" y="233.56" width="18" height="5.44" fill="rgb(247,202,202)" stroke="none"/>
<rect x="924" y="228.12" width="18" height="5.44" fill="rgb(247,197,197)" stroke="none"/>
<rect x="924" y="222.69" width="18" height="5.44" fill="rgb(247,192,192)" stroke="none"/>
<rect x="924" y="217.25" width="18" height="5.44" fill="rgb(247,187,187)" stroke="none"/>
<rect x="924" y="211.81" width="18" height="5.44" fill="rgb(248,182,182)" stroke="none"/>
<rect x="924" y="206.38" width="18" height="5.44" fill="rgb(248,178,178)" stroke="none"/>
<rect x="924" y="200.94" width="18" height="5.44" fill="rgb(248,173,173)" stroke="none"/>
<rect x="924" y="195.50" width="18" height="5.44" fill="rgb(248,168,168)" stroke="none"/>
<rect x="924" y="190.06" width="18" height="5.44" fill="rgb(249,163,163)" stroke="none"/>
<rect x="924" y="184.62" width="18" height="5.44" fill="rgb(249,158,158)" stroke="none"/>
<rect x="924" y="179.19" width="18" height="5.44" fill="rgb(249,153,153)" stroke="none"/>
<rect x="924" y="173.75" width="18" height="5.44" fill="rgb(249,148,148)" stroke="none"/>
<rect x="924" y="168.31" width="18" height="5.44" fill="rgb(250,143,143)" stroke="none"/>
<rect x="924" y="162.88" width="18" height="5.44" fill="rgb(250,138,138)" stroke="none"/>
<rect x="924" y="157.44" width="18" height="5.44" fill="rgb(250,133,133)" stroke="none"/>
<rect x="924" y="152.00" width="18" height="5.44" fill="rgb(250,128,128)" stroke="none"/>
<rect x="924" y="146.56" width="18" height="5.44" fill="rgb(251,123,123)" stroke="none"/>
<rect x="924" y="141.12" width="18" height="5.44" fill="rgb(251,118,118)" stroke="none"/>
<rect x="924" y="135.69" width="18" height="5.44" fill="rgb(251,113,113)" stroke="none"/>
<rect x="924" y="130.25" width="18" height="5.44" fill="rgb(251,108,108)" stroke="none"/>
<rect x="924" y="124.81" width="18" height="5.44" fill="rgb(252,103,103)" stroke="none"/>
<rect x="924" y="119.38" width="18" height="5.44" fill="rgb(252,98,98)" stroke="none"/>
<rect x="924" y="113.94" width="18" height="5.44" fill="rgb(252,93,93)" stroke="none"/>
<rect x="924" y="108.50" width="18" height="5.44" fill="rgb(252,88,88)" stroke="none"/>
<rect x="924" y="103.06" width="18" height="5.44" fill="rgb(253,83,83)" stroke="none"/>
<rect x="924" y="97.62" width="18" height="5.44" fill="rgb(253,78,78)" stroke="none"/>
<rect x="924" y="92.19" width="18" height="5.44" fill="rgb(253,73,73)" stroke="none"/>
<rect x="924" y="86.75" width="18" height="5.44" fill="rgb(253,68,68)" stroke="none"/>
<rect x="924" y="81.31" width="18" height="5.44" fill="rgb(254,63,63)" stroke="none"/>
<rect x="924" y="75.88" width="18" height="5.44" fill="rgb(254,58,58)" stroke="none"/>
<rect x="924" y="70.44" width="18" height="5.44" fill="rgb(254,53,53)" stroke="none"/>
<rect x="924" y="65.00" width="18" height="5.44" fill="rgb(255,49,49)" stroke="none"/>
<rect x="924" y="65" width="18" height="435" fill="none" stroke="black" stroke-width="0.8"/>
<text x="950" y="73" font-size="10" font-family="Arial">high</text>
<text x="950" y="500" font-size="10" font-family="Arial">low</text>
</svg>