<svg xmlns="http://www.w3.org/2000/svg" width="950" height="520">
<rect width="100%" height="100%" fill="white"/>
<text x="475.0" y="30" text-anchor="middle" font-size="20" font-family="Arial">h3k4me3: Methylation Distributions</text>
<line x1="80" y1="425" x2="920" y2="425" stroke="black" stroke-width="1"/>
<line x1="80" y1="60" x2="80" y2="425" stroke="black" stroke-width="1"/>
<line x1="80" y1="425.0" x2="920" y2="425.0" stroke="#efefef"/>
<text x="72" y="429.0" text-anchor="end" font-size="12" font-family="Arial">0</text>
<line x1="80" y1="352.0" x2="920" y2="352.0" stroke="#efefef"/>
<text x="72" y="356.0" text-anchor="end" font-size="12" font-family="Arial">34544</text>
<line x1="80" y1="279.0" x2="920" y2="279.0" stroke="#efefef"/>
<text x="72" y="283.0" text-anchor="end" font-size="12" font-family="Arial">69088</text>
<line x1="80" y1="206.0" x2="920" y2="206.0" stroke="#efefef"/>
<text x="72" y="210.0" text-anchor="end" font-size="12" font-family="Arial">103632</text>
<line x1="80" y1="133.0" x2="920" y2="133.0" stroke="#efefef"/>
<text x="72" y="137.0" text-anchor="end" font-size="12" font-family="Arial">138176</text>
<line x1="80" y1="60.0" x2="920" y2="60.0" stroke="#efefef"/>
<text x="72" y="64.0" text-anchor="end" font-size="12" font-family="Arial">172721</text>
<polyline fill="none" stroke="#7570b3" stroke-width="2" points="80.0,60.0 92.2,395.9 104.3,413.1 116.5,418.9 128.7,421.4 140.9,422.6 153.0,423.6 165.2,424.1 177.4,424.3 189.6,424.5 201.7,424.7 213.9,424.8 226.1,424.8 238.3,424.9 250.4,424.9 262.6,424.9 274.8,424.9 287.0,425.0 299.1,425.0 311.3,425.0 323.5,425.0 335.7,425.0 347.8,425.0 360.0,425.0 372.2,425.0 384.3,425.0 396.5,425.0 408.7,425.0 420.9,425.0 433.0,425.0 445.2,425.0 457.4,425.0 469.6,425.0 481.7,425.0 493.9,425.0 506.1,425.0 518.3,425.0 530.4,425.0 542.6,425.0 554.8,425.0 567.0,425.0 579.1,425.0 591.3,425.0 603.5,425.0 615.7,425.0 627.8,425.0 640.0,425.0 652.2,425.0 664.3,425.0 676.5,425.0 688.7,425.0 700.9,425.0 713.0,425.0 725.2,425.0 737.4,425.0 749.6,425.0 761.7,425.0 773.9,425.0 786.1,425.0 798.3,425.0 810.4,425.0 822.6,425.0 834.8,425.0 847.0,425.0 859.1,425.0 871.3,425.0 883.5,425.0 895.7,425.0 907.8,425.0 920.0,425.0"/>
<polyline fill="none" stroke="#e6550d" stroke-width="2" points="80.0,313.7 92.2,313.6 104.3,358.4 116.5,387.2 128.7,401.5 140.9,409.3 153.0,414.0 165.2,416.7 177.4,418.9 189.6,420.3 201.7,421.2 213.9,422.0 226.1,422.5 238.3,423.0 250.4,423.2 262.6,423.4 274.8,423.7 287.0,423.8 299.1,424.0 311.3,424.1 323.5,424.1 335.7,424.1 347.8,424.2 360.0,424.3 372.2,424.4 384.3,424.5 396.5,424.5 408.7,424.6 420.9,424.7 433.0,424.7 445.2,424.8 457.4,424.8 469.6,424.8 481.7,424.9 493.9,424.9 506.1,424.9 518.3,425.0 530.4,425.0 542.6,425.0 554.8,425.0 567.0,425.0 579.1,425.0 591.3,425.0 603.5,425.0 615.7,425.0 627.8,425.0 640.0,425.0 652.2,425.0 664.3,425.0 676.5,425.0 688.7,425.0 700.9,425.0 713.0,425.0 725.2,425.0 737.4,425.0 749.6,425.0 761.7,425.0 773.9,425.0 786.1,425.0 798.3,425.0 810.4,425.0 822.6,425.0 834.8,425.0 847.0,425.0 859.1,425.0 871.3,425.0 883.5,425.0 895.7,425.0 907.8,425.0 920.0,425.0"/>
<line x1="88" y1="38" x2="100" y2="38" stroke="#7570b3" stroke-width="3"/>
<text x="106" y="42" font-size="12" font-family="Arial">A_mod_density_per_kb (Reg proxy)</text>
<line x1="88" y1="58" x2="100" y2="58" stroke="#e6550d" stroke-width="3"/>
<text x="106" y="62" font-size="12" font-family="Arial">C_mod_density_per_kb (M proxy)</text>
<text x="500.0" y="486" text-anchor="middle" font-size="12" font-family="Arial">mods per kb</text>
<text x="24" y="242.5" text-anchor="middle" transform="rotate(-90 24,242.5)" font-size="12" font-family="Arial">Count</text>
</svg>