<?xml version="1.0" encoding="utf-8" standalone="no"?>
<!DOCTYPE svg PUBLIC "-//W3C//DTD SVG 1.1//EN"
  "http://www.w3.org/Graphics/SVG/1.1/DTD/svg11.dtd">
<svg xmlns:xlink="http://www.w3.org/1999/xlink" width="748.915625pt" height="356.067682pt" viewBox="0 0 748.915625 356.067682" xmlns="http://www.w3.org/2000/svg" version="1.1">
 <metadata>
  <rdf:RDF xmlns:dc="http://purl.org/dc/elements/1.1/" xmlns:cc="http://creativecommons.org/ns#" xmlns:rdf="http://www.w3.org/1999/02/22-rdf-syntax-ns#">
   <cc:Work>
    <dc:type rdf:resource="http://purl.org/dc/dcmitype/StillImage"/>
    <dc:date>2026-04-16T12:27:20.838681</dc:date>
    <dc:format>image/svg+xml</dc:format>
    <dc:creator>
     <cc:Agent>
      <dc:title>Matplotlib v3.10.8, https://matplotlib.org/</dc:title>
     </cc:Agent>
    </dc:creator>
   </cc:Work>
  </rdf:RDF>
 </metadata>
 <defs>
  <style type="text/css">*{stroke-linejoin: round; stroke-linecap: butt}</style>
 </defs>
 <g id="figure_1">
  <g id="patch_1">
   <path d="M 0 356.067682 
L 748.915625 356.067682 
L 748.915625 0 
L 0 0 
z
" style="fill: #ffffff"/>
  </g>
  <g id="axes_1">
   <g id="patch_2">
    <path d="M 46.965625 313.515855 
L 355.251339 313.515855 
L 355.251339 62.912 
L 46.965625 62.912 
z
" style="fill: #ffffff"/>
   </g>
   <g id="FillBetweenPolyCollection_1">
    <defs>
     <path id="m7fb13ca454" d="M 238.015257 -53.942911 
L 164.201708 -53.942911 
L 162.752484 -56.244141 
L 162.387197 -58.54537 
L 163.057401 -60.846599 
L 164.617915 -63.147828 
L 166.855818 -65.449056 
L 169.526675 -67.750286 
L 172.389828 -70.051515 
L 175.236234 -72.352744 
L 177.905277 -74.653974 
L 180.290294 -76.955201 
L 182.335034 -79.256431 
L 184.024452 -81.557661 
L 185.373328 -83.858889 
L 186.415297 -86.160119 
L 187.193803 -88.461346 
L 187.755451 -90.762576 
L 188.145568 -93.063806 
L 188.40546 -95.365036 
L 188.570855 -97.666261 
L 188.671113 -99.967491 
L 188.728976 -102.268721 
L 188.760749 -104.569951 
L 188.776887 -106.871181 
L 188.782956 -109.172411 
L 188.780903 -111.473636 
L 188.770493 -113.774866 
L 188.750713 -116.076096 
L 188.720909 -118.377326 
L 188.681479 -120.678556 
L 188.634001 -122.979781 
L 188.580833 -125.281011 
L 188.52434 -127.582241 
L 188.465966 -129.883471 
L 188.405416 -132.184701 
L 188.34016 -134.48593 
L 188.265363 -136.78716 
L 188.174287 -139.08839 
L 188.059104 -141.389611 
L 187.912 -143.690841 
L 187.726476 -145.992071 
L 187.49864 -148.293301 
L 187.228363 -150.594531 
L 186.920059 -152.895761 
L 186.582919 -155.19699 
L 186.230416 -157.49822 
L 185.879041 -159.79945 
L 185.546342 -162.10068 
L 185.248524 -164.40191 
L 184.998025 -166.703131 
L 184.801503 -169.004361 
L 184.658674 -171.305591 
L 184.562266 -173.606821 
L 184.499117 -175.90805 
L 184.452243 -178.20928 
L 184.403452 -180.51051 
L 184.336025 -182.81174 
L 184.23697 -185.11297 
L 184.098477 -187.4142 
L 183.918414 -189.715421 
L 183.699878 -192.016651 
L 183.449997 -194.317881 
L 183.178278 -196.61911 
L 182.894803 -198.92034 
L 182.608567 -201.22157 
L 182.326131 -203.5228 
L 182.050721 -205.82403 
L 181.781811 -208.12526 
L 181.51517 -210.42649 
L 181.243314 -212.727719 
L 180.956217 -215.028949 
L 180.642145 -217.330179 
L 180.288406 -219.631409 
L 179.881862 -221.932639 
L 179.409103 -224.233869 
L 178.856261 -226.535081 
L 178.208529 -228.836311 
L 177.449528 -231.137541 
L 176.560553 -233.438771 
L 175.519761 -235.740001 
L 174.301258 -238.04123 
L 172.874071 -240.34246 
L 171.201158 -242.64369 
L 169.238881 -244.94492 
L 166.937757 -247.24615 
L 164.2456 -249.54738 
L 161.114225 -251.84861 
L 157.510546 -254.149839 
L 153.431986 -256.451069 
L 148.924746 -258.752299 
L 144.101825 -261.053529 
L 139.156228 -263.354759 
L 134.364049 -265.655989 
L 130.072774 -267.957219 
L 126.672355 -270.258448 
L 124.550373 -272.559678 
L 124.037054 -274.860908 
L 125.349881 -277.162121 
L 128.549635 -279.46335 
L 133.518498 -281.764598 
L 268.698466 -281.764598 
L 268.698466 -281.764598 
L 273.667329 -279.46335 
L 276.867083 -277.162121 
L 278.179911 -274.860908 
L 277.666591 -272.559678 
L 275.544609 -270.258448 
L 272.14419 -267.957219 
L 267.852915 -265.655989 
L 263.060736 -263.354759 
L 258.115139 -261.053529 
L 253.292219 -258.752299 
L 248.784978 -256.451069 
L 244.706418 -254.149839 
L 241.102739 -251.84861 
L 237.971364 -249.54738 
L 235.279207 -247.24615 
L 232.978084 -244.94492 
L 231.015807 -242.64369 
L 229.342893 -240.34246 
L 227.915706 -238.04123 
L 226.697203 -235.740001 
L 225.656411 -233.438771 
L 224.767436 -231.137541 
L 224.008435 -228.836311 
L 223.360703 -226.535081 
L 222.807861 -224.233869 
L 222.335102 -221.932639 
L 221.928559 -219.631409 
L 221.57482 -217.330179 
L 221.260748 -215.028949 
L 220.97365 -212.727719 
L 220.701794 -210.42649 
L 220.435154 -208.12526 
L 220.166243 -205.82403 
L 219.890833 -203.5228 
L 219.608397 -201.22157 
L 219.322162 -198.92034 
L 219.038687 -196.61911 
L 218.766967 -194.317881 
L 218.517086 -192.016651 
L 218.29855 -189.715421 
L 218.118488 -187.4142 
L 217.979994 -185.11297 
L 217.880939 -182.81174 
L 217.813513 -180.51051 
L 217.764722 -178.20928 
L 217.717847 -175.90805 
L 217.654698 -173.606821 
L 217.55829 -171.305591 
L 217.415461 -169.004361 
L 217.218939 -166.703131 
L 216.96844 -164.40191 
L 216.670623 -162.10068 
L 216.337923 -159.79945 
L 215.986548 -157.49822 
L 215.634045 -155.19699 
L 215.296905 -152.895761 
L 214.988601 -150.594531 
L 214.718324 -148.293301 
L 214.490489 -145.992071 
L 214.304964 -143.690841 
L 214.157861 -141.389611 
L 214.042677 -139.08839 
L 213.951602 -136.78716 
L 213.876804 -134.48593 
L 213.811548 -132.184701 
L 213.750999 -129.883471 
L 213.692624 -127.582241 
L 213.636131 -125.281011 
L 213.582964 -122.979781 
L 213.535485 -120.678556 
L 213.496055 -118.377326 
L 213.466252 -116.076096 
L 213.446471 -113.774866 
L 213.436062 -111.473636 
L 213.434009 -109.172411 
L 213.440077 -106.871181 
L 213.456215 -104.569951 
L 213.487988 -102.268721 
L 213.545851 -99.967491 
L 213.64611 -97.666261 
L 213.811505 -95.365036 
L 214.071397 -93.063806 
L 214.461513 -90.762576 
L 215.023161 -88.461346 
L 215.801667 -86.160119 
L 216.843637 -83.858889 
L 218.192512 -81.557661 
L 219.881931 -79.256431 
L 221.92667 -76.955201 
L 224.311687 -74.653974 
L 226.98073 -72.352744 
L 229.827136 -70.051515 
L 232.690289 -67.750286 
L 235.361146 -65.449056 
L 237.599049 -63.147828 
L 239.159564 -60.846599 
L 239.829767 -58.54537 
L 239.46448 -56.244141 
L 238.015257 -53.942911 
z
" style="stroke: #000000; stroke-opacity: 0.65"/>
    </defs>
    <g clip-path="url(#p48ccae2ded)">
     <use xlink:href="#m7fb13ca454" x="0" y="356.067682" style="fill: #0072b2; fill-opacity: 0.65; stroke: #000000; stroke-opacity: 0.65"/>
    </g>
   </g>
   <g id="matplotlib.axis_1">
    <g id="xtick_1">
     <g id="line2d_1">
      <defs>
       <path id="m81beb5d488" d="M 0 0 
L 0 3.5 
" style="stroke: #000000; stroke-width: 0.8"/>
      </defs>
      <g>
       <use xlink:href="#m81beb5d488" x="201.108482" y="313.515855" style="stroke: #000000; stroke-width: 0.8"/>
      </g>
     </g>
     <g id="text_1">
      <!-- merged_c1 -->
      <g transform="translate(148.110947 346.652063) rotate(-20) scale(0.1 -0.1)">
       <defs>
        <path id="DejaVuSans-6d" d="M 3328 2828 
Q 3544 3216 3844 3400 
Q 4144 3584 4550 3584 
Q 5097 3584 5394 3201 
Q 5691 2819 5691 2113 
L 5691 0 
L 5113 0 
L 5113 2094 
Q 5113 2597 4934 2840 
Q 4756 3084 4391 3084 
Q 3944 3084 3684 2787 
Q 3425 2491 3425 1978 
L 3425 0 
L 2847 0 
L 2847 2094 
Q 2847 2600 2669 2842 
Q 2491 3084 2119 3084 
Q 1678 3084 1418 2786 
Q 1159 2488 1159 1978 
L 1159 0 
L 581 0 
L 581 3500 
L 1159 3500 
L 1159 2956 
Q 1356 3278 1631 3431 
Q 1906 3584 2284 3584 
Q 2666 3584 2933 3390 
Q 3200 3197 3328 2828 
z
" transform="scale(0.015625)"/>
        <path id="DejaVuSans-65" d="M 3597 1894 
L 3597 1613 
L 953 1613 
Q 991 1019 1311 708 
Q 1631 397 2203 397 
Q 2534 397 2845 478 
Q 3156 559 3463 722 
L 3463 178 
Q 3153 47 2828 -22 
Q 2503 -91 2169 -91 
Q 1331 -91 842 396 
Q 353 884 353 1716 
Q 353 2575 817 3079 
Q 1281 3584 2069 3584 
Q 2775 3584 3186 3129 
Q 3597 2675 3597 1894 
z
M 3022 2063 
Q 3016 2534 2758 2815 
Q 2500 3097 2075 3097 
Q 1594 3097 1305 2825 
Q 1016 2553 972 2059 
L 3022 2063 
z
" transform="scale(0.015625)"/>
        <path id="DejaVuSans-72" d="M 2631 2963 
Q 2534 3019 2420 3045 
Q 2306 3072 2169 3072 
Q 1681 3072 1420 2755 
Q 1159 2438 1159 1844 
L 1159 0 
L 581 0 
L 581 3500 
L 1159 3500 
L 1159 2956 
Q 1341 3275 1631 3429 
Q 1922 3584 2338 3584 
Q 2397 3584 2469 3576 
Q 2541 3569 2628 3553 
L 2631 2963 
z
" transform="scale(0.015625)"/>
        <path id="DejaVuSans-67" d="M 2906 1791 
Q 2906 2416 2648 2759 
Q 2391 3103 1925 3103 
Q 1463 3103 1205 2759 
Q 947 2416 947 1791 
Q 947 1169 1205 825 
Q 1463 481 1925 481 
Q 2391 481 2648 825 
Q 2906 1169 2906 1791 
z
M 3481 434 
Q 3481 -459 3084 -895 
Q 2688 -1331 1869 -1331 
Q 1566 -1331 1297 -1286 
Q 1028 -1241 775 -1147 
L 775 -588 
Q 1028 -725 1275 -790 
Q 1522 -856 1778 -856 
Q 2344 -856 2625 -561 
Q 2906 -266 2906 331 
L 2906 616 
Q 2728 306 2450 153 
Q 2172 0 1784 0 
Q 1141 0 747 490 
Q 353 981 353 1791 
Q 353 2603 747 3093 
Q 1141 3584 1784 3584 
Q 2172 3584 2450 3431 
Q 2728 3278 2906 2969 
L 2906 3500 
L 3481 3500 
L 3481 434 
z
" transform="scale(0.015625)"/>
        <path id="DejaVuSans-64" d="M 2906 2969 
L 2906 4863 
L 3481 4863 
L 3481 0 
L 2906 0 
L 2906 525 
Q 2725 213 2448 61 
Q 2172 -91 1784 -91 
Q 1150 -91 751 415 
Q 353 922 353 1747 
Q 353 2572 751 3078 
Q 1150 3584 1784 3584 
Q 2172 3584 2448 3432 
Q 2725 3281 2906 2969 
z
M 947 1747 
Q 947 1113 1208 752 
Q 1469 391 1925 391 
Q 2381 391 2643 752 
Q 2906 1113 2906 1747 
Q 2906 2381 2643 2742 
Q 2381 3103 1925 3103 
Q 1469 3103 1208 2742 
Q 947 2381 947 1747 
z
" transform="scale(0.015625)"/>
        <path id="DejaVuSans-5f" d="M 3263 -1063 
L 3263 -1509 
L -63 -1509 
L -63 -1063 
L 3263 -1063 
z
" transform="scale(0.015625)"/>
        <path id="DejaVuSans-63" d="M 3122 3366 
L 3122 2828 
Q 2878 2963 2633 3030 
Q 2388 3097 2138 3097 
Q 1578 3097 1268 2742 
Q 959 2388 959 1747 
Q 959 1106 1268 751 
Q 1578 397 2138 397 
Q 2388 397 2633 464 
Q 2878 531 3122 666 
L 3122 134 
Q 2881 22 2623 -34 
Q 2366 -91 2075 -91 
Q 1284 -91 818 406 
Q 353 903 353 1747 
Q 353 2603 823 3093 
Q 1294 3584 2113 3584 
Q 2378 3584 2631 3529 
Q 2884 3475 3122 3366 
z
" transform="scale(0.015625)"/>
        <path id="DejaVuSans-31" d="M 794 531 
L 1825 531 
L 1825 4091 
L 703 3866 
L 703 4441 
L 1819 4666 
L 2450 4666 
L 2450 531 
L 3481 531 
L 3481 0 
L 794 0 
L 794 531 
z
" transform="scale(0.015625)"/>
       </defs>
       <use xlink:href="#DejaVuSans-6d"/>
       <use xlink:href="#DejaVuSans-65" transform="translate(97.412109 0)"/>
       <use xlink:href="#DejaVuSans-72" transform="translate(158.935547 0)"/>
       <use xlink:href="#DejaVuSans-67" transform="translate(198.298828 0)"/>
       <use xlink:href="#DejaVuSans-65" transform="translate(261.775391 0)"/>
       <use xlink:href="#DejaVuSans-64" transform="translate(323.298828 0)"/>
       <use xlink:href="#DejaVuSans-5f" transform="translate(386.775391 0)"/>
       <use xlink:href="#DejaVuSans-63" transform="translate(436.775391 0)"/>
       <use xlink:href="#DejaVuSans-31" transform="translate(491.755859 0)"/>
      </g>
     </g>
    </g>
   </g>
   <g id="matplotlib.axis_2">
    <g id="ytick_1">
     <g id="line2d_2">
      <path d="M 46.965625 302.124771 
L 355.251339 302.124771 
" clip-path="url(#p48ccae2ded)" style="fill: none; stroke: #b0b0b0; stroke-opacity: 0.25; stroke-width: 0.6; stroke-linecap: square"/>
     </g>
     <g id="line2d_3">
      <defs>
       <path id="meb341a412e" d="M 0 0 
L -3.5 0 
" style="stroke: #000000; stroke-width: 0.8"/>
      </defs>
      <g>
       <use xlink:href="#meb341a412e" x="46.965625" y="302.124771" style="stroke: #000000; stroke-width: 0.8"/>
      </g>
     </g>
     <g id="text_2">
      <!-- 0 -->
      <g transform="translate(33.603125 305.923989) scale(0.1 -0.1)">
       <defs>
        <path id="DejaVuSans-30" d="M 2034 4250 
Q 1547 4250 1301 3770 
Q 1056 3291 1056 2328 
Q 1056 1369 1301 889 
Q 1547 409 2034 409 
Q 2525 409 2770 889 
Q 3016 1369 3016 2328 
Q 3016 3291 2770 3770 
Q 2525 4250 2034 4250 
z
M 2034 4750 
Q 2819 4750 3233 4129 
Q 3647 3509 3647 2328 
Q 3647 1150 3233 529 
Q 2819 -91 2034 -91 
Q 1250 -91 836 529 
Q 422 1150 422 2328 
Q 422 3509 836 4129 
Q 1250 4750 2034 4750 
z
" transform="scale(0.015625)"/>
       </defs>
       <use xlink:href="#DejaVuSans-30"/>
      </g>
     </g>
    </g>
    <g id="ytick_2">
     <g id="line2d_4">
      <path d="M 46.965625 256.560433 
L 355.251339 256.560433 
" clip-path="url(#p48ccae2ded)" style="fill: none; stroke: #b0b0b0; stroke-opacity: 0.25; stroke-width: 0.6; stroke-linecap: square"/>
     </g>
     <g id="line2d_5">
      <g>
       <use xlink:href="#meb341a412e" x="46.965625" y="256.560433" style="stroke: #000000; stroke-width: 0.8"/>
      </g>
     </g>
     <g id="text_3">
      <!-- 20 -->
      <g transform="translate(27.240625 260.359652) scale(0.1 -0.1)">
       <defs>
        <path id="DejaVuSans-32" d="M 1228 531 
L 3431 531 
L 3431 0 
L 469 0 
L 469 531 
Q 828 903 1448 1529 
Q 2069 2156 2228 2338 
Q 2531 2678 2651 2914 
Q 2772 3150 2772 3378 
Q 2772 3750 2511 3984 
Q 2250 4219 1831 4219 
Q 1534 4219 1204 4116 
Q 875 4013 500 3803 
L 500 4441 
Q 881 4594 1212 4672 
Q 1544 4750 1819 4750 
Q 2544 4750 2975 4387 
Q 3406 4025 3406 3419 
Q 3406 3131 3298 2873 
Q 3191 2616 2906 2266 
Q 2828 2175 2409 1742 
Q 1991 1309 1228 531 
z
" transform="scale(0.015625)"/>
       </defs>
       <use xlink:href="#DejaVuSans-32"/>
       <use xlink:href="#DejaVuSans-30" transform="translate(63.623047 0)"/>
      </g>
     </g>
    </g>
    <g id="ytick_3">
     <g id="line2d_6">
      <path d="M 46.965625 210.996096 
L 355.251339 210.996096 
" clip-path="url(#p48ccae2ded)" style="fill: none; stroke: #b0b0b0; stroke-opacity: 0.25; stroke-width: 0.6; stroke-linecap: square"/>
     </g>
     <g id="line2d_7">
      <g>
       <use xlink:href="#meb341a412e" x="46.965625" y="210.996096" style="stroke: #000000; stroke-width: 0.8"/>
      </g>
     </g>
     <g id="text_4">
      <!-- 40 -->
      <g transform="translate(27.240625 214.795315) scale(0.1 -0.1)">
       <defs>
        <path id="DejaVuSans-34" d="M 2419 4116 
L 825 1625 
L 2419 1625 
L 2419 4116 
z
M 2253 4666 
L 3047 4666 
L 3047 1625 
L 3713 1625 
L 3713 1100 
L 3047 1100 
L 3047 0 
L 2419 0 
L 2419 1100 
L 313 1100 
L 313 1709 
L 2253 4666 
z
" transform="scale(0.015625)"/>
       </defs>
       <use xlink:href="#DejaVuSans-34"/>
       <use xlink:href="#DejaVuSans-30" transform="translate(63.623047 0)"/>
      </g>
     </g>
    </g>
    <g id="ytick_4">
     <g id="line2d_8">
      <path d="M 46.965625 165.431759 
L 355.251339 165.431759 
" clip-path="url(#p48ccae2ded)" style="fill: none; stroke: #b0b0b0; stroke-opacity: 0.25; stroke-width: 0.6; stroke-linecap: square"/>
     </g>
     <g id="line2d_9">
      <g>
       <use xlink:href="#meb341a412e" x="46.965625" y="165.431759" style="stroke: #000000; stroke-width: 0.8"/>
      </g>
     </g>
     <g id="text_5">
      <!-- 60 -->
      <g transform="translate(27.240625 169.230978) scale(0.1 -0.1)">
       <defs>
        <path id="DejaVuSans-36" d="M 2113 2584 
Q 1688 2584 1439 2293 
Q 1191 2003 1191 1497 
Q 1191 994 1439 701 
Q 1688 409 2113 409 
Q 2538 409 2786 701 
Q 3034 994 3034 1497 
Q 3034 2003 2786 2293 
Q 2538 2584 2113 2584 
z
M 3366 4563 
L 3366 3988 
Q 3128 4100 2886 4159 
Q 2644 4219 2406 4219 
Q 1781 4219 1451 3797 
Q 1122 3375 1075 2522 
Q 1259 2794 1537 2939 
Q 1816 3084 2150 3084 
Q 2853 3084 3261 2657 
Q 3669 2231 3669 1497 
Q 3669 778 3244 343 
Q 2819 -91 2113 -91 
Q 1303 -91 875 529 
Q 447 1150 447 2328 
Q 447 3434 972 4092 
Q 1497 4750 2381 4750 
Q 2619 4750 2861 4703 
Q 3103 4656 3366 4563 
z
" transform="scale(0.015625)"/>
       </defs>
       <use xlink:href="#DejaVuSans-36"/>
       <use xlink:href="#DejaVuSans-30" transform="translate(63.623047 0)"/>
      </g>
     </g>
    </g>
    <g id="ytick_5">
     <g id="line2d_10">
      <path d="M 46.965625 119.867422 
L 355.251339 119.867422 
" clip-path="url(#p48ccae2ded)" style="fill: none; stroke: #b0b0b0; stroke-opacity: 0.25; stroke-width: 0.6; stroke-linecap: square"/>
     </g>
     <g id="line2d_11">
      <g>
       <use xlink:href="#meb341a412e" x="46.965625" y="119.867422" style="stroke: #000000; stroke-width: 0.8"/>
      </g>
     </g>
     <g id="text_6">
      <!-- 80 -->
      <g transform="translate(27.240625 123.66664) scale(0.1 -0.1)">
       <defs>
        <path id="DejaVuSans-38" d="M 2034 2216 
Q 1584 2216 1326 1975 
Q 1069 1734 1069 1313 
Q 1069 891 1326 650 
Q 1584 409 2034 409 
Q 2484 409 2743 651 
Q 3003 894 3003 1313 
Q 3003 1734 2745 1975 
Q 2488 2216 2034 2216 
z
M 1403 2484 
Q 997 2584 770 2862 
Q 544 3141 544 3541 
Q 544 4100 942 4425 
Q 1341 4750 2034 4750 
Q 2731 4750 3128 4425 
Q 3525 4100 3525 3541 
Q 3525 3141 3298 2862 
Q 3072 2584 2669 2484 
Q 3125 2378 3379 2068 
Q 3634 1759 3634 1313 
Q 3634 634 3220 271 
Q 2806 -91 2034 -91 
Q 1263 -91 848 271 
Q 434 634 434 1313 
Q 434 1759 690 2068 
Q 947 2378 1403 2484 
z
M 1172 3481 
Q 1172 3119 1398 2916 
Q 1625 2713 2034 2713 
Q 2441 2713 2670 2916 
Q 2900 3119 2900 3481 
Q 2900 3844 2670 4047 
Q 2441 4250 2034 4250 
Q 1625 4250 1398 4047 
Q 1172 3844 1172 3481 
z
" transform="scale(0.015625)"/>
       </defs>
       <use xlink:href="#DejaVuSans-38"/>
       <use xlink:href="#DejaVuSans-30" transform="translate(63.623047 0)"/>
      </g>
     </g>
    </g>
    <g id="ytick_6">
     <g id="line2d_12">
      <path d="M 46.965625 74.303084 
L 355.251339 74.303084 
" clip-path="url(#p48ccae2ded)" style="fill: none; stroke: #b0b0b0; stroke-opacity: 0.25; stroke-width: 0.6; stroke-linecap: square"/>
     </g>
     <g id="line2d_13">
      <g>
       <use xlink:href="#meb341a412e" x="46.965625" y="74.303084" style="stroke: #000000; stroke-width: 0.8"/>
      </g>
     </g>
     <g id="text_7">
      <!-- 100 -->
      <g transform="translate(20.878125 78.102303) scale(0.1 -0.1)">
       <use xlink:href="#DejaVuSans-31"/>
       <use xlink:href="#DejaVuSans-30" transform="translate(63.623047 0)"/>
       <use xlink:href="#DejaVuSans-30" transform="translate(127.246094 0)"/>
      </g>
     </g>
    </g>
    <g id="text_8">
     <!-- CpG methylation signal per 200 bp bin -->
     <g transform="translate(14.798438 285.074084) rotate(-90) scale(0.1 -0.1)">
      <defs>
       <path id="DejaVuSans-43" d="M 4122 4306 
L 4122 3641 
Q 3803 3938 3442 4084 
Q 3081 4231 2675 4231 
Q 1875 4231 1450 3742 
Q 1025 3253 1025 2328 
Q 1025 1406 1450 917 
Q 1875 428 2675 428 
Q 3081 428 3442 575 
Q 3803 722 4122 1019 
L 4122 359 
Q 3791 134 3420 21 
Q 3050 -91 2638 -91 
Q 1578 -91 968 557 
Q 359 1206 359 2328 
Q 359 3453 968 4101 
Q 1578 4750 2638 4750 
Q 3056 4750 3426 4639 
Q 3797 4528 4122 4306 
z
" transform="scale(0.015625)"/>
       <path id="DejaVuSans-70" d="M 1159 525 
L 1159 -1331 
L 581 -1331 
L 581 3500 
L 1159 3500 
L 1159 2969 
Q 1341 3281 1617 3432 
Q 1894 3584 2278 3584 
Q 2916 3584 3314 3078 
Q 3713 2572 3713 1747 
Q 3713 922 3314 415 
Q 2916 -91 2278 -91 
Q 1894 -91 1617 61 
Q 1341 213 1159 525 
z
M 3116 1747 
Q 3116 2381 2855 2742 
Q 2594 3103 2138 3103 
Q 1681 3103 1420 2742 
Q 1159 2381 1159 1747 
Q 1159 1113 1420 752 
Q 1681 391 2138 391 
Q 2594 391 2855 752 
Q 3116 1113 3116 1747 
z
" transform="scale(0.015625)"/>
       <path id="DejaVuSans-47" d="M 3809 666 
L 3809 1919 
L 2778 1919 
L 2778 2438 
L 4434 2438 
L 4434 434 
Q 4069 175 3628 42 
Q 3188 -91 2688 -91 
Q 1594 -91 976 548 
Q 359 1188 359 2328 
Q 359 3472 976 4111 
Q 1594 4750 2688 4750 
Q 3144 4750 3555 4637 
Q 3966 4525 4313 4306 
L 4313 3634 
Q 3963 3931 3569 4081 
Q 3175 4231 2741 4231 
Q 1884 4231 1454 3753 
Q 1025 3275 1025 2328 
Q 1025 1384 1454 906 
Q 1884 428 2741 428 
Q 3075 428 3337 486 
Q 3600 544 3809 666 
z
" transform="scale(0.015625)"/>
       <path id="DejaVuSans-20" transform="scale(0.015625)"/>
       <path id="DejaVuSans-74" d="M 1172 4494 
L 1172 3500 
L 2356 3500 
L 2356 3053 
L 1172 3053 
L 1172 1153 
Q 1172 725 1289 603 
Q 1406 481 1766 481 
L 2356 481 
L 2356 0 
L 1766 0 
Q 1100 0 847 248 
Q 594 497 594 1153 
L 594 3053 
L 172 3053 
L 172 3500 
L 594 3500 
L 594 4494 
L 1172 4494 
z
" transform="scale(0.015625)"/>
       <path id="DejaVuSans-68" d="M 3513 2113 
L 3513 0 
L 2938 0 
L 2938 2094 
Q 2938 2591 2744 2837 
Q 2550 3084 2163 3084 
Q 1697 3084 1428 2787 
Q 1159 2491 1159 1978 
L 1159 0 
L 581 0 
L 581 4863 
L 1159 4863 
L 1159 2956 
Q 1366 3272 1645 3428 
Q 1925 3584 2291 3584 
Q 2894 3584 3203 3211 
Q 3513 2838 3513 2113 
z
" transform="scale(0.015625)"/>
       <path id="DejaVuSans-79" d="M 2059 -325 
Q 1816 -950 1584 -1140 
Q 1353 -1331 966 -1331 
L 506 -1331 
L 506 -850 
L 844 -850 
Q 1081 -850 1212 -737 
Q 1344 -625 1503 -206 
L 1606 56 
L 191 3500 
L 800 3500 
L 1894 763 
L 2988 3500 
L 3597 3500 
L 2059 -325 
z
" transform="scale(0.015625)"/>
       <path id="DejaVuSans-6c" d="M 603 4863 
L 1178 4863 
L 1178 0 
L 603 0 
L 603 4863 
z
" transform="scale(0.015625)"/>
       <path id="DejaVuSans-61" d="M 2194 1759 
Q 1497 1759 1228 1600 
Q 959 1441 959 1056 
Q 959 750 1161 570 
Q 1363 391 1709 391 
Q 2188 391 2477 730 
Q 2766 1069 2766 1631 
L 2766 1759 
L 2194 1759 
z
M 3341 1997 
L 3341 0 
L 2766 0 
L 2766 531 
Q 2569 213 2275 61 
Q 1981 -91 1556 -91 
Q 1019 -91 701 211 
Q 384 513 384 1019 
Q 384 1609 779 1909 
Q 1175 2209 1959 2209 
L 2766 2209 
L 2766 2266 
Q 2766 2663 2505 2880 
Q 2244 3097 1772 3097 
Q 1472 3097 1187 3025 
Q 903 2953 641 2809 
L 641 3341 
Q 956 3463 1253 3523 
Q 1550 3584 1831 3584 
Q 2591 3584 2966 3190 
Q 3341 2797 3341 1997 
z
" transform="scale(0.015625)"/>
       <path id="DejaVuSans-69" d="M 603 3500 
L 1178 3500 
L 1178 0 
L 603 0 
L 603 3500 
z
M 603 4863 
L 1178 4863 
L 1178 4134 
L 603 4134 
L 603 4863 
z
" transform="scale(0.015625)"/>
       <path id="DejaVuSans-6f" d="M 1959 3097 
Q 1497 3097 1228 2736 
Q 959 2375 959 1747 
Q 959 1119 1226 758 
Q 1494 397 1959 397 
Q 2419 397 2687 759 
Q 2956 1122 2956 1747 
Q 2956 2369 2687 2733 
Q 2419 3097 1959 3097 
z
M 1959 3584 
Q 2709 3584 3137 3096 
Q 3566 2609 3566 1747 
Q 3566 888 3137 398 
Q 2709 -91 1959 -91 
Q 1206 -91 779 398 
Q 353 888 353 1747 
Q 353 2609 779 3096 
Q 1206 3584 1959 3584 
z
" transform="scale(0.015625)"/>
       <path id="DejaVuSans-6e" d="M 3513 2113 
L 3513 0 
L 2938 0 
L 2938 2094 
Q 2938 2591 2744 2837 
Q 2550 3084 2163 3084 
Q 1697 3084 1428 2787 
Q 1159 2491 1159 1978 
L 1159 0 
L 581 0 
L 581 3500 
L 1159 3500 
L 1159 2956 
Q 1366 3272 1645 3428 
Q 1925 3584 2291 3584 
Q 2894 3584 3203 3211 
Q 3513 2838 3513 2113 
z
" transform="scale(0.015625)"/>
       <path id="DejaVuSans-73" d="M 2834 3397 
L 2834 2853 
Q 2591 2978 2328 3040 
Q 2066 3103 1784 3103 
Q 1356 3103 1142 2972 
Q 928 2841 928 2578 
Q 928 2378 1081 2264 
Q 1234 2150 1697 2047 
L 1894 2003 
Q 2506 1872 2764 1633 
Q 3022 1394 3022 966 
Q 3022 478 2636 193 
Q 2250 -91 1575 -91 
Q 1294 -91 989 -36 
Q 684 19 347 128 
L 347 722 
Q 666 556 975 473 
Q 1284 391 1588 391 
Q 1994 391 2212 530 
Q 2431 669 2431 922 
Q 2431 1156 2273 1281 
Q 2116 1406 1581 1522 
L 1381 1569 
Q 847 1681 609 1914 
Q 372 2147 372 2553 
Q 372 3047 722 3315 
Q 1072 3584 1716 3584 
Q 2034 3584 2315 3537 
Q 2597 3491 2834 3397 
z
" transform="scale(0.015625)"/>
       <path id="DejaVuSans-62" d="M 3116 1747 
Q 3116 2381 2855 2742 
Q 2594 3103 2138 3103 
Q 1681 3103 1420 2742 
Q 1159 2381 1159 1747 
Q 1159 1113 1420 752 
Q 1681 391 2138 391 
Q 2594 391 2855 752 
Q 3116 1113 3116 1747 
z
M 1159 2969 
Q 1341 3281 1617 3432 
Q 1894 3584 2278 3584 
Q 2916 3584 3314 3078 
Q 3713 2572 3713 1747 
Q 3713 922 3314 415 
Q 2916 -91 2278 -91 
Q 1894 -91 1617 61 
Q 1341 213 1159 525 
L 1159 0 
L 581 0 
L 581 4863 
L 1159 4863 
L 1159 2969 
z
" transform="scale(0.015625)"/>
      </defs>
      <use xlink:href="#DejaVuSans-43"/>
      <use xlink:href="#DejaVuSans-70" transform="translate(69.824219 0)"/>
      <use xlink:href="#DejaVuSans-47" transform="translate(133.300781 0)"/>
      <use xlink:href="#DejaVuSans-20" transform="translate(210.791016 0)"/>
      <use xlink:href="#DejaVuSans-6d" transform="translate(242.578125 0)"/>
      <use xlink:href="#DejaVuSans-65" transform="translate(339.990234 0)"/>
      <use xlink:href="#DejaVuSans-74" transform="translate(401.513672 0)"/>
      <use xlink:href="#DejaVuSans-68" transform="translate(440.722656 0)"/>
      <use xlink:href="#DejaVuSans-79" transform="translate(504.101562 0)"/>
      <use xlink:href="#DejaVuSans-6c" transform="translate(563.28125 0)"/>
      <use xlink:href="#DejaVuSans-61" transform="translate(591.064453 0)"/>
      <use xlink:href="#DejaVuSans-74" transform="translate(652.34375 0)"/>
      <use xlink:href="#DejaVuSans-69" transform="translate(691.552734 0)"/>
      <use xlink:href="#DejaVuSans-6f" transform="translate(719.335938 0)"/>
      <use xlink:href="#DejaVuSans-6e" transform="translate(780.517578 0)"/>
      <use xlink:href="#DejaVuSans-20" transform="translate(843.896484 0)"/>
      <use xlink:href="#DejaVuSans-73" transform="translate(875.683594 0)"/>
      <use xlink:href="#DejaVuSans-69" transform="translate(927.783203 0)"/>
      <use xlink:href="#DejaVuSans-67" transform="translate(955.566406 0)"/>
      <use xlink:href="#DejaVuSans-6e" transform="translate(1019.042969 0)"/>
      <use xlink:href="#DejaVuSans-61" transform="translate(1082.421875 0)"/>
      <use xlink:href="#DejaVuSans-6c" transform="translate(1143.701172 0)"/>
      <use xlink:href="#DejaVuSans-20" transform="translate(1171.484375 0)"/>
      <use xlink:href="#DejaVuSans-70" transform="translate(1203.271484 0)"/>
      <use xlink:href="#DejaVuSans-65" transform="translate(1266.748047 0)"/>
      <use xlink:href="#DejaVuSans-72" transform="translate(1328.271484 0)"/>
      <use xlink:href="#DejaVuSans-20" transform="translate(1369.384766 0)"/>
      <use xlink:href="#DejaVuSans-32" transform="translate(1401.171875 0)"/>
      <use xlink:href="#DejaVuSans-30" transform="translate(1464.794922 0)"/>
      <use xlink:href="#DejaVuSans-30" transform="translate(1528.417969 0)"/>
      <use xlink:href="#DejaVuSans-20" transform="translate(1592.041016 0)"/>
      <use xlink:href="#DejaVuSans-62" transform="translate(1623.828125 0)"/>
      <use xlink:href="#DejaVuSans-70" transform="translate(1687.304688 0)"/>
      <use xlink:href="#DejaVuSans-20" transform="translate(1750.78125 0)"/>
      <use xlink:href="#DejaVuSans-62" transform="translate(1782.568359 0)"/>
      <use xlink:href="#DejaVuSans-69" transform="translate(1846.044922 0)"/>
      <use xlink:href="#DejaVuSans-6e" transform="translate(1873.828125 0)"/>
     </g>
    </g>
   </g>
   <g id="line2d_14">
    <path d="M 167.197054 241.508538 
L 235.019911 241.508538 
L 235.019911 84.363552 
L 167.197054 84.363552 
L 167.197054 241.508538 
" clip-path="url(#p48ccae2ded)" style="fill: none; stroke: #000000; stroke-linecap: square"/>
   </g>
   <g id="line2d_15">
    <path d="M 201.108482 241.508538 
L 201.108482 302.124771 
" clip-path="url(#p48ccae2ded)" style="fill: none; stroke: #000000; stroke-linecap: square"/>
   </g>
   <g id="line2d_16">
    <path d="M 201.108482 84.363552 
L 201.108482 74.303084 
" clip-path="url(#p48ccae2ded)" style="fill: none; stroke: #000000; stroke-linecap: square"/>
   </g>
   <g id="line2d_17">
    <path d="M 184.152768 302.124771 
L 218.064196 302.124771 
" clip-path="url(#p48ccae2ded)" style="fill: none; stroke: #000000; stroke-linecap: square"/>
   </g>
   <g id="line2d_18">
    <path d="M 184.152768 74.303084 
L 218.064196 74.303084 
" clip-path="url(#p48ccae2ded)" style="fill: none; stroke: #000000; stroke-linecap: square"/>
   </g>
   <g id="line2d_19">
    <path d="M 167.197054 131.328988 
L 235.019911 131.328988 
" clip-path="url(#p48ccae2ded)" style="fill: none; stroke: #ff7f0e"/>
   </g>
   <g id="patch_3">
    <path d="M 46.965625 313.515855 
L 46.965625 62.912 
" style="fill: none; stroke: #000000; stroke-width: 0.8; stroke-linejoin: miter; stroke-linecap: square"/>
   </g>
   <g id="patch_4">
    <path d="M 355.251339 313.515855 
L 355.251339 62.912 
" style="fill: none; stroke: #000000; stroke-width: 0.8; stroke-linejoin: miter; stroke-linecap: square"/>
   </g>
   <g id="patch_5">
    <path d="M 46.965625 313.515855 
L 355.251339 313.515855 
" style="fill: none; stroke: #000000; stroke-width: 0.8; stroke-linejoin: miter; stroke-linecap: square"/>
   </g>
   <g id="patch_6">
    <path d="M 46.965625 62.912 
L 355.251339 62.912 
" style="fill: none; stroke: #000000; stroke-width: 0.8; stroke-linejoin: miter; stroke-linecap: square"/>
   </g>
   <g id="text_9">
    <!-- Distribution -->
    <g transform="translate(166.105982 56.912) scale(0.12 -0.12)">
     <defs>
      <path id="DejaVuSans-44" d="M 1259 4147 
L 1259 519 
L 2022 519 
Q 2988 519 3436 956 
Q 3884 1394 3884 2338 
Q 3884 3275 3436 3711 
Q 2988 4147 2022 4147 
L 1259 4147 
z
M 628 4666 
L 1925 4666 
Q 3281 4666 3915 4102 
Q 4550 3538 4550 2338 
Q 4550 1131 3912 565 
Q 3275 0 1925 0 
L 628 0 
L 628 4666 
z
" transform="scale(0.015625)"/>
      <path id="DejaVuSans-75" d="M 544 1381 
L 544 3500 
L 1119 3500 
L 1119 1403 
Q 1119 906 1312 657 
Q 1506 409 1894 409 
Q 2359 409 2629 706 
Q 2900 1003 2900 1516 
L 2900 3500 
L 3475 3500 
L 3475 0 
L 2900 0 
L 2900 538 
Q 2691 219 2414 64 
Q 2138 -91 1772 -91 
Q 1169 -91 856 284 
Q 544 659 544 1381 
z
M 1991 3584 
L 1991 3584 
z
" transform="scale(0.015625)"/>
     </defs>
     <use xlink:href="#DejaVuSans-44"/>
     <use xlink:href="#DejaVuSans-69" transform="translate(77.001953 0)"/>
     <use xlink:href="#DejaVuSans-73" transform="translate(104.785156 0)"/>
     <use xlink:href="#DejaVuSans-74" transform="translate(156.884766 0)"/>
     <use xlink:href="#DejaVuSans-72" transform="translate(196.09375 0)"/>
     <use xlink:href="#DejaVuSans-69" transform="translate(237.207031 0)"/>
     <use xlink:href="#DejaVuSans-62" transform="translate(264.990234 0)"/>
     <use xlink:href="#DejaVuSans-75" transform="translate(328.466797 0)"/>
     <use xlink:href="#DejaVuSans-74" transform="translate(391.845703 0)"/>
     <use xlink:href="#DejaVuSans-69" transform="translate(431.054688 0)"/>
     <use xlink:href="#DejaVuSans-6f" transform="translate(458.837891 0)"/>
     <use xlink:href="#DejaVuSans-6e" transform="translate(520.019531 0)"/>
    </g>
   </g>
  </g>
  <g id="axes_2">
   <g id="patch_7">
    <path d="M 402.601339 313.515855 
L 741.715625 313.515855 
L 741.715625 62.912 
L 402.601339 62.912 
z
" style="fill: #ffffff"/>
   </g>
   <g id="matplotlib.axis_3">
    <g id="xtick_2">
     <g id="line2d_20">
      <path d="M 418.015625 313.515855 
L 418.015625 62.912 
" clip-path="url(#p9523efb3ba)" style="fill: none; stroke: #b0b0b0; stroke-opacity: 0.25; stroke-width: 0.6; stroke-linecap: square"/>
     </g>
     <g id="line2d_21">
      <g>
       <use xlink:href="#m81beb5d488" x="418.015625" y="313.515855" style="stroke: #000000; stroke-width: 0.8"/>
      </g>
     </g>
     <g id="text_10">
      <!-- 0 -->
      <g transform="translate(414.834375 328.114292) scale(0.1 -0.1)">
       <use xlink:href="#DejaVuSans-30"/>
      </g>
     </g>
    </g>
    <g id="xtick_3">
     <g id="line2d_22">
      <path d="M 479.672768 313.515855 
L 479.672768 62.912 
" clip-path="url(#p9523efb3ba)" style="fill: none; stroke: #b0b0b0; stroke-opacity: 0.25; stroke-width: 0.6; stroke-linecap: square"/>
     </g>
     <g id="line2d_23">
      <g>
       <use xlink:href="#m81beb5d488" x="479.672768" y="313.515855" style="stroke: #000000; stroke-width: 0.8"/>
      </g>
     </g>
     <g id="text_11">
      <!-- 20 -->
      <g transform="translate(473.310268 328.114292) scale(0.1 -0.1)">
       <use xlink:href="#DejaVuSans-32"/>
       <use xlink:href="#DejaVuSans-30" transform="translate(63.623047 0)"/>
      </g>
     </g>
    </g>
    <g id="xtick_4">
     <g id="line2d_24">
      <path d="M 541.329911 313.515855 
L 541.329911 62.912 
" clip-path="url(#p9523efb3ba)" style="fill: none; stroke: #b0b0b0; stroke-opacity: 0.25; stroke-width: 0.6; stroke-linecap: square"/>
     </g>
     <g id="line2d_25">
      <g>
       <use xlink:href="#m81beb5d488" x="541.329911" y="313.515855" style="stroke: #000000; stroke-width: 0.8"/>
      </g>
     </g>
     <g id="text_12">
      <!-- 40 -->
      <g transform="translate(534.967411 328.114292) scale(0.1 -0.1)">
       <use xlink:href="#DejaVuSans-34"/>
       <use xlink:href="#DejaVuSans-30" transform="translate(63.623047 0)"/>
      </g>
     </g>
    </g>
    <g id="xtick_5">
     <g id="line2d_26">
      <path d="M 602.987054 313.515855 
L 602.987054 62.912 
" clip-path="url(#p9523efb3ba)" style="fill: none; stroke: #b0b0b0; stroke-opacity: 0.25; stroke-width: 0.6; stroke-linecap: square"/>
     </g>
     <g id="line2d_27">
      <g>
       <use xlink:href="#m81beb5d488" x="602.987054" y="313.515855" style="stroke: #000000; stroke-width: 0.8"/>
      </g>
     </g>
     <g id="text_13">
      <!-- 60 -->
      <g transform="translate(596.624554 328.114292) scale(0.1 -0.1)">
       <use xlink:href="#DejaVuSans-36"/>
       <use xlink:href="#DejaVuSans-30" transform="translate(63.623047 0)"/>
      </g>
     </g>
    </g>
    <g id="xtick_6">
     <g id="line2d_28">
      <path d="M 664.644196 313.515855 
L 664.644196 62.912 
" clip-path="url(#p9523efb3ba)" style="fill: none; stroke: #b0b0b0; stroke-opacity: 0.25; stroke-width: 0.6; stroke-linecap: square"/>
     </g>
     <g id="line2d_29">
      <g>
       <use xlink:href="#m81beb5d488" x="664.644196" y="313.515855" style="stroke: #000000; stroke-width: 0.8"/>
      </g>
     </g>
     <g id="text_14">
      <!-- 80 -->
      <g transform="translate(658.281696 328.114292) scale(0.1 -0.1)">
       <use xlink:href="#DejaVuSans-38"/>
       <use xlink:href="#DejaVuSans-30" transform="translate(63.623047 0)"/>
      </g>
     </g>
    </g>
    <g id="xtick_7">
     <g id="line2d_30">
      <path d="M 726.301339 313.515855 
L 726.301339 62.912 
" clip-path="url(#p9523efb3ba)" style="fill: none; stroke: #b0b0b0; stroke-opacity: 0.25; stroke-width: 0.6; stroke-linecap: square"/>
     </g>
     <g id="line2d_31">
      <g>
       <use xlink:href="#m81beb5d488" x="726.301339" y="313.515855" style="stroke: #000000; stroke-width: 0.8"/>
      </g>
     </g>
     <g id="text_15">
      <!-- 100 -->
      <g transform="translate(716.757589 328.114292) scale(0.1 -0.1)">
       <use xlink:href="#DejaVuSans-31"/>
       <use xlink:href="#DejaVuSans-30" transform="translate(63.623047 0)"/>
       <use xlink:href="#DejaVuSans-30" transform="translate(127.246094 0)"/>
      </g>
     </g>
    </g>
    <g id="text_16">
     <!-- CpG methylation signal per 200 bp bin -->
     <g transform="translate(475.298326 341.792417) scale(0.1 -0.1)">
      <use xlink:href="#DejaVuSans-43"/>
      <use xlink:href="#DejaVuSans-70" transform="translate(69.824219 0)"/>
      <use xlink:href="#DejaVuSans-47" transform="translate(133.300781 0)"/>
      <use xlink:href="#DejaVuSans-20" transform="translate(210.791016 0)"/>
      <use xlink:href="#DejaVuSans-6d" transform="translate(242.578125 0)"/>
      <use xlink:href="#DejaVuSans-65" transform="translate(339.990234 0)"/>
      <use xlink:href="#DejaVuSans-74" transform="translate(401.513672 0)"/>
      <use xlink:href="#DejaVuSans-68" transform="translate(440.722656 0)"/>
      <use xlink:href="#DejaVuSans-79" transform="translate(504.101562 0)"/>
      <use xlink:href="#DejaVuSans-6c" transform="translate(563.28125 0)"/>
      <use xlink:href="#DejaVuSans-61" transform="translate(591.064453 0)"/>
      <use xlink:href="#DejaVuSans-74" transform="translate(652.34375 0)"/>
      <use xlink:href="#DejaVuSans-69" transform="translate(691.552734 0)"/>
      <use xlink:href="#DejaVuSans-6f" transform="translate(719.335938 0)"/>
      <use xlink:href="#DejaVuSans-6e" transform="translate(780.517578 0)"/>
      <use xlink:href="#DejaVuSans-20" transform="translate(843.896484 0)"/>
      <use xlink:href="#DejaVuSans-73" transform="translate(875.683594 0)"/>
      <use xlink:href="#DejaVuSans-69" transform="translate(927.783203 0)"/>
      <use xlink:href="#DejaVuSans-67" transform="translate(955.566406 0)"/>
      <use xlink:href="#DejaVuSans-6e" transform="translate(1019.042969 0)"/>
      <use xlink:href="#DejaVuSans-61" transform="translate(1082.421875 0)"/>
      <use xlink:href="#DejaVuSans-6c" transform="translate(1143.701172 0)"/>
      <use xlink:href="#DejaVuSans-20" transform="translate(1171.484375 0)"/>
      <use xlink:href="#DejaVuSans-70" transform="translate(1203.271484 0)"/>
      <use xlink:href="#DejaVuSans-65" transform="translate(1266.748047 0)"/>
      <use xlink:href="#DejaVuSans-72" transform="translate(1328.271484 0)"/>
      <use xlink:href="#DejaVuSans-20" transform="translate(1369.384766 0)"/>
      <use xlink:href="#DejaVuSans-32" transform="translate(1401.171875 0)"/>
      <use xlink:href="#DejaVuSans-30" transform="translate(1464.794922 0)"/>
      <use xlink:href="#DejaVuSans-30" transform="translate(1528.417969 0)"/>
      <use xlink:href="#DejaVuSans-20" transform="translate(1592.041016 0)"/>
      <use xlink:href="#DejaVuSans-62" transform="translate(1623.828125 0)"/>
      <use xlink:href="#DejaVuSans-70" transform="translate(1687.304688 0)"/>
      <use xlink:href="#DejaVuSans-20" transform="translate(1750.78125 0)"/>
      <use xlink:href="#DejaVuSans-62" transform="translate(1782.568359 0)"/>
      <use xlink:href="#DejaVuSans-69" transform="translate(1846.044922 0)"/>
      <use xlink:href="#DejaVuSans-6e" transform="translate(1873.828125 0)"/>
     </g>
    </g>
   </g>
   <g id="matplotlib.axis_4">
    <g id="ytick_7">
     <g id="line2d_32">
      <path d="M 402.601339 302.136162 
L 741.715625 302.136162 
" clip-path="url(#p9523efb3ba)" style="fill: none; stroke: #b0b0b0; stroke-opacity: 0.25; stroke-width: 0.6; stroke-linecap: square"/>
     </g>
     <g id="line2d_33">
      <g>
       <use xlink:href="#meb341a412e" x="402.601339" y="302.136162" style="stroke: #000000; stroke-width: 0.8"/>
      </g>
     </g>
     <g id="text_17">
      <!-- 0.0 -->
      <g transform="translate(379.698214 305.935381) scale(0.1 -0.1)">
       <defs>
        <path id="DejaVuSans-2e" d="M 684 794 
L 1344 794 
L 1344 0 
L 684 0 
L 684 794 
z
" transform="scale(0.015625)"/>
       </defs>
       <use xlink:href="#DejaVuSans-30"/>
       <use xlink:href="#DejaVuSans-2e" transform="translate(63.623047 0)"/>
       <use xlink:href="#DejaVuSans-30" transform="translate(95.410156 0)"/>
      </g>
     </g>
    </g>
    <g id="ytick_8">
     <g id="line2d_34">
      <path d="M 402.601339 256.569547 
L 741.715625 256.569547 
" clip-path="url(#p9523efb3ba)" style="fill: none; stroke: #b0b0b0; stroke-opacity: 0.25; stroke-width: 0.6; stroke-linecap: square"/>
     </g>
     <g id="line2d_35">
      <g>
       <use xlink:href="#meb341a412e" x="402.601339" y="256.569547" style="stroke: #000000; stroke-width: 0.8"/>
      </g>
     </g>
     <g id="text_18">
      <!-- 0.2 -->
      <g transform="translate(379.698214 260.368765) scale(0.1 -0.1)">
       <use xlink:href="#DejaVuSans-30"/>
       <use xlink:href="#DejaVuSans-2e" transform="translate(63.623047 0)"/>
       <use xlink:href="#DejaVuSans-32" transform="translate(95.410156 0)"/>
      </g>
     </g>
    </g>
    <g id="ytick_9">
     <g id="line2d_36">
      <path d="M 402.601339 211.002931 
L 741.715625 211.002931 
" clip-path="url(#p9523efb3ba)" style="fill: none; stroke: #b0b0b0; stroke-opacity: 0.25; stroke-width: 0.6; stroke-linecap: square"/>
     </g>
     <g id="line2d_37">
      <g>
       <use xlink:href="#meb341a412e" x="402.601339" y="211.002931" style="stroke: #000000; stroke-width: 0.8"/>
      </g>
     </g>
     <g id="text_19">
      <!-- 0.4 -->
      <g transform="translate(379.698214 214.80215) scale(0.1 -0.1)">
       <use xlink:href="#DejaVuSans-30"/>
       <use xlink:href="#DejaVuSans-2e" transform="translate(63.623047 0)"/>
       <use xlink:href="#DejaVuSans-34" transform="translate(95.410156 0)"/>
      </g>
     </g>
    </g>
    <g id="ytick_10">
     <g id="line2d_38">
      <path d="M 402.601339 165.436315 
L 741.715625 165.436315 
" clip-path="url(#p9523efb3ba)" style="fill: none; stroke: #b0b0b0; stroke-opacity: 0.25; stroke-width: 0.6; stroke-linecap: square"/>
     </g>
     <g id="line2d_39">
      <g>
       <use xlink:href="#meb341a412e" x="402.601339" y="165.436315" style="stroke: #000000; stroke-width: 0.8"/>
      </g>
     </g>
     <g id="text_20">
      <!-- 0.6 -->
      <g transform="translate(379.698214 169.235534) scale(0.1 -0.1)">
       <use xlink:href="#DejaVuSans-30"/>
       <use xlink:href="#DejaVuSans-2e" transform="translate(63.623047 0)"/>
       <use xlink:href="#DejaVuSans-36" transform="translate(95.410156 0)"/>
      </g>
     </g>
    </g>
    <g id="ytick_11">
     <g id="line2d_40">
      <path d="M 402.601339 119.8697 
L 741.715625 119.8697 
" clip-path="url(#p9523efb3ba)" style="fill: none; stroke: #b0b0b0; stroke-opacity: 0.25; stroke-width: 0.6; stroke-linecap: square"/>
     </g>
     <g id="line2d_41">
      <g>
       <use xlink:href="#meb341a412e" x="402.601339" y="119.8697" style="stroke: #000000; stroke-width: 0.8"/>
      </g>
     </g>
     <g id="text_21">
      <!-- 0.8 -->
      <g transform="translate(379.698214 123.668919) scale(0.1 -0.1)">
       <use xlink:href="#DejaVuSans-30"/>
       <use xlink:href="#DejaVuSans-2e" transform="translate(63.623047 0)"/>
       <use xlink:href="#DejaVuSans-38" transform="translate(95.410156 0)"/>
      </g>
     </g>
    </g>
    <g id="ytick_12">
     <g id="line2d_42">
      <path d="M 402.601339 74.303084 
L 741.715625 74.303084 
" clip-path="url(#p9523efb3ba)" style="fill: none; stroke: #b0b0b0; stroke-opacity: 0.25; stroke-width: 0.6; stroke-linecap: square"/>
     </g>
     <g id="line2d_43">
      <g>
       <use xlink:href="#meb341a412e" x="402.601339" y="74.303084" style="stroke: #000000; stroke-width: 0.8"/>
      </g>
     </g>
     <g id="text_22">
      <!-- 1.0 -->
      <g transform="translate(379.698214 78.102303) scale(0.1 -0.1)">
       <use xlink:href="#DejaVuSans-31"/>
       <use xlink:href="#DejaVuSans-2e" transform="translate(63.623047 0)"/>
       <use xlink:href="#DejaVuSans-30" transform="translate(95.410156 0)"/>
      </g>
     </g>
    </g>
    <g id="text_23">
     <!-- Empirical cumulative fraction -->
     <g transform="translate(373.618527 261.633459) rotate(-90) scale(0.1 -0.1)">
      <defs>
       <path id="DejaVuSans-45" d="M 628 4666 
L 3578 4666 
L 3578 4134 
L 1259 4134 
L 1259 2753 
L 3481 2753 
L 3481 2222 
L 1259 2222 
L 1259 531 
L 3634 531 
L 3634 0 
L 628 0 
L 628 4666 
z
" transform="scale(0.015625)"/>
       <path id="DejaVuSans-76" d="M 191 3500 
L 800 3500 
L 1894 563 
L 2988 3500 
L 3597 3500 
L 2284 0 
L 1503 0 
L 191 3500 
z
" transform="scale(0.015625)"/>
       <path id="DejaVuSans-66" d="M 2375 4863 
L 2375 4384 
L 1825 4384 
Q 1516 4384 1395 4259 
Q 1275 4134 1275 3809 
L 1275 3500 
L 2222 3500 
L 2222 3053 
L 1275 3053 
L 1275 0 
L 697 0 
L 697 3053 
L 147 3053 
L 147 3500 
L 697 3500 
L 697 3744 
Q 697 4328 969 4595 
Q 1241 4863 1831 4863 
L 2375 4863 
z
" transform="scale(0.015625)"/>
      </defs>
      <use xlink:href="#DejaVuSans-45"/>
      <use xlink:href="#DejaVuSans-6d" transform="translate(63.183594 0)"/>
      <use xlink:href="#DejaVuSans-70" transform="translate(160.595703 0)"/>
      <use xlink:href="#DejaVuSans-69" transform="translate(224.072266 0)"/>
      <use xlink:href="#DejaVuSans-72" transform="translate(251.855469 0)"/>
      <use xlink:href="#DejaVuSans-69" transform="translate(292.96875 0)"/>
      <use xlink:href="#DejaVuSans-63" transform="translate(320.751953 0)"/>
      <use xlink:href="#DejaVuSans-61" transform="translate(375.732422 0)"/>
      <use xlink:href="#DejaVuSans-6c" transform="translate(437.011719 0)"/>
      <use xlink:href="#DejaVuSans-20" transform="translate(464.794922 0)"/>
      <use xlink:href="#DejaVuSans-63" transform="translate(496.582031 0)"/>
      <use xlink:href="#DejaVuSans-75" transform="translate(551.5625 0)"/>
      <use xlink:href="#DejaVuSans-6d" transform="translate(614.941406 0)"/>
      <use xlink:href="#DejaVuSans-75" transform="translate(712.353516 0)"/>
      <use xlink:href="#DejaVuSans-6c" transform="translate(775.732422 0)"/>
      <use xlink:href="#DejaVuSans-61" transform="translate(803.515625 0)"/>
      <use xlink:href="#DejaVuSans-74" transform="translate(864.794922 0)"/>
      <use xlink:href="#DejaVuSans-69" transform="translate(904.003906 0)"/>
      <use xlink:href="#DejaVuSans-76" transform="translate(931.787109 0)"/>
      <use xlink:href="#DejaVuSans-65" transform="translate(990.966797 0)"/>
      <use xlink:href="#DejaVuSans-20" transform="translate(1052.490234 0)"/>
      <use xlink:href="#DejaVuSans-66" transform="translate(1084.277344 0)"/>
      <use xlink:href="#DejaVuSans-72" transform="translate(1119.482422 0)"/>
      <use xlink:href="#DejaVuSans-61" transform="translate(1160.595703 0)"/>
      <use xlink:href="#DejaVuSans-63" transform="translate(1221.875 0)"/>
      <use xlink:href="#DejaVuSans-74" transform="translate(1276.855469 0)"/>
      <use xlink:href="#DejaVuSans-69" transform="translate(1316.064453 0)"/>
      <use xlink:href="#DejaVuSans-6f" transform="translate(1343.847656 0)"/>
      <use xlink:href="#DejaVuSans-6e" transform="translate(1405.029297 0)"/>
     </g>
    </g>
   </g>
   <g id="line2d_44">
    <path d="M 418.015625 302.124771 
L 418.015625 279.125021 
L 419.728323 278.999713 
L 419.72918 278.988321 
L 420.217666 278.851622 
L 420.979021 278.475697 
L 421.089919 278.418739 
L 421.226934 278.350389 
L 421.619485 278.190906 
L 422.832589 277.473231 
L 422.918554 277.39349 
L 423.156289 277.25679 
L 423.231259 277.154265 
L 423.518525 276.960607 
L 423.62026 276.880865 
L 423.917702 276.687207 
L 423.942418 276.561899 
L 424.022058 276.459374 
L 424.435675 276.311283 
L 424.535336 276.037883 
L 424.728546 275.844225 
L 424.774789 275.821442 
L 425.021418 275.684742 
L 425.108663 275.479692 
L 425.357963 275.331601 
L 425.445311 275.263251 
L 425.722768 275.137942 
L 425.814044 275.001243 
L 426.57826 274.556968 
L 426.663039 274.101302 
L 427.025275 273.95321 
L 427.079225 273.805119 
L 427.189927 273.702594 
L 427.649554 273.474761 
L 427.688089 273.201361 
L 428.289246 273.030486 
L 428.394578 272.552037 
L 428.883537 272.392554 
L 429.021425 272.278637 
L 429.126242 271.777405 
L 429.604085 271.617921 
L 429.869211 271.355913 
L 429.960962 271.05973 
L 430.855725 270.729372 
L 430.948211 270.102831 
L 431.401716 269.95474 
L 432.027211 269.54464 
L 432.081161 269.123149 
L 433.429911 268.770008 
L 433.503128 268.075117 
L 435.140896 267.642234 
L 435.233382 267.004302 
L 436.004097 266.822035 
L 436.038007 266.799252 
L 436.173653 266.673944 
L 437.283482 266.241061 
L 437.365692 265.648695 
L 438.499283 265.375295 
L 438.562868 265.249987 
L 438.663061 265.079112 
L 439.718939 264.725971 
L 440.042639 264.350046 
L 440.15054 263.985513 
L 440.592415 263.848813 
L 441.183296 263.68933 
L 441.722797 263.507064 
L 441.730504 263.450106 
L 442.652792 263.267839 
L 443.510855 262.983048 
L 443.7061 262.85774 
L 443.763649 262.219807 
L 444.990625 261.900841 
L 444.990625 261.866666 
L 445.283497 261.741357 
L 446.038797 261.570483 
L 446.146696 261.490741 
L 446.681058 261.331258 
L 447.307172 261.092033 
L 448.844196 260.7275 
L 448.946957 260.362967 
L 449.969439 260.123743 
L 450.323966 259.987043 
L 452.054222 259.497202 
L 452.127441 259.463027 
L 452.271306 259.34911 
L 452.281581 259.326327 
L 452.882738 259.178235 
L 454.054227 258.870661 
L 454.100468 258.779527 
L 454.717038 258.642828 
L 454.717041 258.620044 
L 455.456926 258.483344 
L 455.564826 258.414995 
L 455.56868 258.403603 
L 456.551339 258.209945 
L 456.551339 257.845412 
L 457.16791 257.69732 
L 457.16791 257.674537 
L 458.579418 257.435312 
L 458.670804 257.378354 
L 459.125525 257.207479 
L 459.233425 257.173304 
L 461.021482 256.706246 
L 461.869269 256.558155 
L 463.467214 256.022747 
L 464.258482 255.886047 
L 464.258482 255.829089 
L 465.545574 255.680998 
L 465.545574 255.658214 
L 465.982314 255.510123 
L 466.840374 255.191156 
L 467.557138 255.020282 
L 467.718988 254.963323 
L 469.391442 254.439307 
L 469.499342 254.257041 
L 471.534027 253.778591 
L 471.534027 253.755808 
L 471.965625 253.619108 
L 471.965625 253.56215 
L 472.55137 253.414058 
L 472.605319 253.391275 
L 473.776802 253.106484 
L 475.819196 252.571076 
L 475.880855 252.479943 
L 476.736348 252.309068 
L 476.82883 252.274893 
L 479.672768 251.329386 
L 479.772959 251.295211 
L 480.916188 250.964853 
L 486.185301 249.392805 
L 486.362568 249.301671 
L 487.379911 249.096622 
L 487.426152 248.94853 
L 488.385693 248.720697 
L 489.584154 248.378947 
L 489.692054 248.344772 
L 489.954094 248.219464 
L 490.061999 248.185289 
L 490.177601 248.128331 
L 491.141 247.968848 
L 492.689432 247.479007 
L 492.713252 247.456223 
L 493.326745 247.285349 
L 493.376067 247.262565 
L 494.347169 247.023341 
L 494.44479 246.954991 
L 495.087054 246.795508 
L 495.148712 246.317058 
L 496.412683 246.066442 
L 496.613065 246.020875 
L 497.229638 245.884175 
L 500.227716 245.041193 
L 500.235425 245.01841 
L 501.013848 244.88171 
L 501.114039 244.847535 
L 503.403061 244.232385 
L 505.368379 243.856461 
L 505.395357 243.833678 
L 506.10827 243.640019 
L 506.142951 243.605844 
L 506.647768 243.457753 
L 506.755667 243.412186 
L 507.603452 243.22992 
L 507.701079 243.172962 
L 507.93229 243.059045 
L 508.023496 242.979304 
L 508.790353 242.75147 
L 511.487853 242.011013 
L 512.081306 241.840138 
L 512.452786 241.669263 
L 514.354911 241.076897 
L 514.465891 241.042722 
L 514.909826 240.940197 
L 515.518691 240.792106 
L 516.494926 240.507315 
L 516.597692 240.416181 
L 517.02929 240.245307 
L 519.59577 239.390933 
L 520.312529 239.242841 
L 520.412725 239.208666 
L 520.767259 239.049183 
L 520.782665 238.832741 
L 521.553379 238.661867 
L 522.616969 238.354292 
L 523.035725 238.27455 
L 523.649723 238.069501 
L 523.711382 238.035326 
L 524.975353 237.773318 
L 527.087114 237.089818 
L 527.202716 236.975902 
L 527.302913 236.907552 
L 527.564953 236.82781 
L 528.119868 236.622761 
L 528.119868 236.588586 
L 529.337598 236.372144 
L 529.414674 236.258228 
L 531.048585 235.848128 
L 531.056288 235.734212 
L 531.690843 235.574728 
L 531.7114 235.551945 
L 532.343379 235.392462 
L 533.622768 235.096279 
L 533.732867 235.016537 
L 534.339538 234.868446 
L 534.909859 234.708963 
L 534.993451 234.674788 
L 535.462211 234.515305 
L 535.765353 234.41278 
L 536.921424 234.13938 
L 536.952259 234.105205 
L 537.376143 233.945722 
L 537.581675 233.854589 
L 537.904092 233.729281 
L 537.985014 233.638147 
L 539.125667 233.455881 
L 539.225864 233.364748 
L 539.613785 233.182481 
L 540.050522 233.03439 
L 541.329911 232.669857 
L 541.329911 232.567332 
L 541.884826 232.430632 
L 542.270183 232.259757 
L 543.364596 232.020532 
L 543.466333 231.986357 
L 546.239357 231.200333 
L 546.462871 231.086417 
L 546.478276 230.938325 
L 547.696018 230.699101 
L 547.752526 230.653534 
L 548.343415 230.482659 
L 550.146884 229.992818 
L 550.778864 229.856118 
L 551.410855 229.685243 
L 551.796212 229.514369 
L 552.223953 229.343494 
L 553.630516 228.830869 
L 554.139178 228.682778 
L 554.846035 228.500511 
L 555.03321 228.386595 
L 555.079451 228.261287 
L 556.104502 228.067629 
L 556.161539 228.033454 
L 557.46867 227.668921 
L 557.707589 227.555004 
L 558.146902 227.338563 
L 558.239384 227.315779 
L 559.310676 227.087946 
L 559.372335 226.928463 
L 560.16617 226.791763 
L 560.304893 226.677847 
L 560.740348 226.529755 
L 560.840545 226.49558 
L 561.152683 226.347489 
L 561.245165 226.301922 
L 561.64594 226.188006 
L 561.880238 226.051306 
L 561.892562 226.028523 
L 562.339578 225.891823 
L 562.370413 225.857648 
L 562.669451 225.720948 
L 562.765014 225.686773 
L 563.318388 225.538681 
L 563.469965 225.504506 
L 564.180303 225.18554 
L 564.451339 225.026057 
L 564.528415 224.98049 
L 565.730728 224.513433 
L 565.815507 224.433691 
L 566.655583 224.08055 
L 566.748076 223.978025 
L 567.156542 223.852717 
L 567.683198 223.681842 
L 569.060207 223.283134 
L 569.590462 223.100867 
L 569.671642 223.055301 
L 572.158482 222.257885 
L 572.254045 221.18707 
L 573.376212 220.890887 
L 573.381351 220.879495 
L 573.874608 220.731403 
L 573.951672 220.685837 
L 574.987002 220.287129 
L 577.098764 219.546671 
L 577.484121 219.39858 
L 577.576603 219.318838 
L 578.085277 219.136572 
L 578.170056 219.034047 
L 578.578534 218.828997 
L 578.592411 218.669514 
L 579.171987 218.498639 
L 579.17969 218.441681 
L 579.865625 218.270806 
L 579.865625 218.248023 
L 580.559263 218.099931 
L 580.633258 218.054365 
L 580.728821 217.940448 
L 580.744239 217.906273 
L 581.283736 217.74679 
L 582.362744 217.325299 
L 582.933076 217.120249 
L 583.171984 216.949374 
L 583.22594 216.858241 
L 584.012072 216.630408 
L 584.019775 216.596233 
L 584.613228 216.448142 
L 584.682589 216.413967 
L 585.006288 216.243092 
L 585.111624 216.174742 
L 585.368525 216.02665 
L 586.000516 215.867167 
L 586.848295 215.639334 
L 586.925371 215.559593 
L 587.572768 215.26341 
L 587.649844 215.19506 
L 588.212462 214.967227 
L 588.314364 214.92166 
L 588.821321 214.750785 
L 589.283755 214.545735 
L 589.329995 214.454602 
L 589.669112 214.317902 
L 589.74233 214.272336 
L 590.106872 214.147028 
L 594.185498 212.711679 
L 594.273358 212.677504 
L 594.956212 212.461063 
L 597.848954 211.54973 
L 597.87465 211.310506 
L 598.563149 211.139631 
L 598.701884 211.048498 
L 599.133482 210.911798 
L 599.238818 210.889014 
L 599.683258 210.71814 
L 599.719221 210.683965 
L 600.181654 210.535873 
L 600.505353 210.37639 
L 601.060268 210.205515 
L 601.137344 210.137165 
L 602.437278 209.613149 
L 602.509214 209.590366 
L 602.987054 209.453666 
L 603.084675 209.328358 
L 603.708951 209.168875 
L 603.973567 209.020783 
L 605.191297 208.576509 
L 605.218275 208.508159 
L 605.861815 208.337284 
L 606.149186 208.246151 
L 606.414166 208.120843 
L 606.582442 208.075276 
L 607.480319 207.722135 
L 607.549681 207.676568 
L 607.873379 207.517085 
L 607.904214 207.471518 
L 608.135419 207.34621 
L 608.428295 207.175335 
L 608.597853 207.095594 
L 608.859893 206.947502 
L 608.960089 206.822194 
L 609.112689 206.776627 
L 609.409669 206.639928 
L 609.476466 206.594361 
L 609.854121 206.446269 
L 610.129003 206.298178 
L 610.694196 206.013387 
L 610.802096 205.819729 
L 611.056433 205.751379 
L 613.260676 205.067879 
L 613.340316 204.885613 
L 613.653736 204.748913 
L 613.761648 204.691955 
L 618.832937 202.561715 
L 619.441808 202.299707 
L 619.947519 202.106049 
L 623.539427 200.420085 
L 623.572826 200.123902 
L 624.004424 199.97581 
L 624.112335 199.896068 
L 625.278685 199.440402 
L 625.522732 199.326486 
L 626.087925 199.178394 
L 627.218313 198.358195 
L 627.745474 198.198712 
L 628.568591 197.936704 
L 628.682665 197.822787 
L 629.078301 197.674696 
L 629.222174 197.606346 
L 629.49962 197.481038 
L 629.622937 197.435471 
L 629.933782 197.230421 
L 629.962054 197.093722 
L 630.064814 197.002588 
L 630.770447 196.797539 
L 633.815625 195.236882 
L 633.916927 195.15714 
L 634.247223 194.952091 
L 634.653137 194.815391 
L 636.389808 193.926842 
L 636.451478 193.904059 
L 636.879219 193.767359 
L 637.669196 193.482567 
L 637.764242 193.414217 
L 638.224112 193.152209 
L 638.331999 193.083859 
L 639.071902 192.81046 
L 639.426424 192.685152 
L 639.595982 192.46871 
L 639.667907 192.434535 
L 640.664699 192.058611 
L 640.721218 191.967477 
L 641.160531 191.819386 
L 641.76324 191.545986 
L 641.850665 191.466245 
L 642.432205 191.15867 
L 642.530614 191.135887 
L 644.948599 190.042288 
L 644.949869 190.030896 
L 645.345504 189.894196 
L 646.018609 189.529663 
L 646.154768 189.472705 
L 646.686563 189.290439 
L 646.983836 189.028431 
L 648.002925 188.641114 
L 648.166321 188.572765 
L 649.026436 188.26519 
L 649.229911 188.014573 
L 649.304423 187.593082 
L 650.663428 187.148808 
L 650.848415 187.080458 
L 651.218367 186.920975 
L 651.871926 186.442525 
L 652.243406 186.294434 
L 652.312768 186.260259 
L 652.651884 186.112167 
L 653.014121 185.975467 
L 653.461125 185.793201 
L 653.612713 185.645109 
L 653.905071 185.451451 
L 654.289652 185.314751 
L 654.450225 185.16666 
L 654.532429 185.109702 
L 655.241473 184.836302 
L 655.461129 184.767952 
L 656.937054 183.833836 
L 657.021821 183.754095 
L 657.314696 183.617395 
L 657.795122 183.30982 
L 657.938973 183.173121 
L 658.245066 183.025029 
L 658.748237 182.785804 
L 659.310867 182.501013 
L 659.36327 182.455446 
L 659.722637 182.318747 
L 664.644196 179.368308 
L 664.755189 179.197433 
L 665.359426 178.924034 
L 666.663464 178.206359 
L 666.868985 178.081051 
L 667.449608 177.807652 
L 667.518969 177.739302 
L 667.945934 177.557035 
L 668.071297 177.500077 
L 668.497768 177.295027 
L 668.597964 177.146936 
L 669.783319 176.520395 
L 669.866557 176.440653 
L 670.168864 176.28117 
L 670.971754 175.859679 
L 671.678893 175.517929 
L 671.996817 175.290096 
L 672.351339 175.10783 
L 672.443821 175.050871 
L 673.754045 174.287631 
L 673.854242 174.185106 
L 674.455398 173.877531 
L 674.910116 173.615523 
L 674.925522 173.399082 
L 675.021861 173.011765 
L 676.04923 172.533316 
L 676.18179 172.476358 
L 676.655349 172.123216 
L 676.852308 171.906775 
L 677.79258 171.325801 
L 678.005298 171.200492 
L 678.347495 170.949876 
L 678.427653 170.870134 
L 678.957895 170.573951 
L 679.095089 170.460035 
L 679.218406 170.334727 
L 679.506131 170.141069 
L 679.696245 169.970194 
L 680.058482 169.674011 
L 680.150964 169.605661 
L 680.759835 169.241128 
L 680.875437 169.195561 
L 681.163162 168.97912 
L 681.414947 168.671545 
L 681.676987 168.455104 
L 682.262714 167.885521 
L 682.370625 167.771605 
L 682.632665 167.589338 
L 682.740576 167.498205 
L 682.950213 167.350113 
L 683.313979 167.12228 
L 683.451831 166.974189 
L 683.981415 166.552698 
L 684.266599 166.336256 
L 684.365243 166.165381 
L 684.55176 166.005898 
L 684.687895 165.926157 
L 687.765625 163.306076 
L 687.861964 162.747885 
L 688.418173 162.463094 
L 688.8215 162.166911 
L 688.906267 162.030211 
L 689.016742 161.939078 
L 689.299339 161.722636 
L 689.464899 161.620111 
L 689.599929 161.483412 
L 689.70784 161.392278 
L 689.867567 161.278362 
L 690.262732 160.936612 
L 690.343665 160.799912 
L 690.658367 160.629038 
L 691.125928 160.287288 
L 691.434233 160.127805 
L 691.542144 160.082238 
L 691.839394 159.797447 
L 692.046937 159.649355 
L 692.050795 159.296214 
L 692.138149 159.227864 
L 692.536348 158.954464 
L 692.632688 158.874723 
L 692.842066 158.71524 
L 693.021902 158.544365 
L 693.123628 158.430448 
L 693.314777 158.225399 
L 693.592223 158.008957 
L 694.193379 157.302675 
L 694.285861 157.222933 
L 694.640383 157.006492 
L 694.717483 156.92675 
L 695.002643 156.733092 
L 695.179893 156.528042 
L 695.472768 156.334384 
L 695.572964 155.582535 
L 695.835005 155.400268 
L 698.278179 153.258637 
L 698.386067 153.053588 
L 698.555625 152.928279 
L 698.899869 152.540963 
L 699.015495 152.438438 
L 699.449656 152.03973 
L 699.55371 151.891639 
L 699.835014 151.709373 
L 699.942901 151.549889 
L 700.43617 151.117007 
L 700.520961 151.025873 
L 700.605728 150.900565 
L 700.690495 150.114541 
L 700.940446 149.932275 
L 701.136417 149.69305 
L 701.282031 149.544958 
L 701.396999 149.41965 
L 701.530571 149.271559 
L 701.638482 149.134859 
L 702.59416 148.291876 
L 702.702072 148.018477 
L 703.131106 147.813427 
L 703.819617 146.890703 
L 703.955752 146.73122 
L 704.166424 146.583128 
L 704.274312 145.899629 
L 704.554862 145.523704 
L 704.890897 145.273088 
L 704.998785 145.124997 
L 705.384142 144.692114 
L 705.492054 144.544022 
L 705.750236 144.145314 
L 705.842718 143.803565 
L 705.923652 143.655473 
L 706.026765 143.530165 
L 706.231956 143.35929 
L 706.684088 142.892232 
L 706.898617 142.653008 
L 707.033482 142.470741 
L 707.129045 141.479667 
L 707.428083 141.183484 
L 707.580683 140.921476 
L 707.677022 140.773385 
L 707.950634 140.488593 
L 708.053394 140.374677 
L 708.174124 140.237977 
L 708.282036 140.021536 
L 708.395074 139.839269 
L 708.502986 139.736744 
L 709.176067 138.825412 
L 709.275158 137.788771 
L 709.391866 137.606505 
L 709.564505 137.526763 
L 709.661621 137.36728 
L 709.85738 137.116664 
L 710.070098 136.774914 
L 710.147174 136.660998 
L 710.278183 136.512906 
L 710.887054 135.419307 
L 710.96413 134.371275 
L 711.236448 134.177617 
L 711.354614 133.961176 
L 711.455187 133.892826 
L 711.599202 133.687776 
L 711.742535 133.414376 
L 711.863289 133.175152 
L 712.086285 132.981494 
L 712.289759 132.605569 
L 712.386099 131.682845 
L 712.536393 131.523362 
L 712.634473 131.30692 
L 712.813839 131.136046 
L 712.924314 130.896821 
L 713.091285 130.668988 
L 713.183767 130.54368 
L 713.302474 130.395588 
L 713.461236 129.484256 
L 713.54344 128.903281 
L 713.777232 128.732407 
L 713.885143 128.61849 
L 714.44775 127.764116 
L 714.557848 127.000875 
L 715.287826 125.781968 
L 715.398301 124.62002 
L 715.711733 124.175745 
L 715.902482 123.947912 
L 716.020014 123.720079 
L 716.125338 122.717613 
L 716.271775 122.501172 
L 716.431055 122.284731 
L 716.53231 122.091072 
L 716.641727 121.977156 
L 716.667411 121.817673 
L 716.767607 120.746857 
L 716.88321 120.519024 
L 716.991121 120.222841 
L 717.237732 119.66465 
L 717.3364 119.300117 
L 717.490528 119.038109 
L 717.623089 118.867234 
L 717.731 118.514093 
L 717.816873 117.659719 
L 717.958018 117.488844 
L 718.566442 116.133237 
L 718.594196 116.007929 
L 718.686678 115.301647 
L 718.802304 115.164947 
L 718.964124 114.732064 
L 719.061757 114.515623 
L 719.287835 114.196656 
L 719.388031 113.53594 
L 719.452265 113.39924 
L 719.520592 113.194191 
L 719.596116 113.068883 
L 719.696312 112.829658 
L 719.873585 112.670175 
L 719.981473 111.815801 
L 720.135625 111.394309 
L 720.245441 111.132301 
L 720.374545 110.57411 
L 720.467026 110.334886 
L 720.564142 110.164011 
L 720.592907 110.004528 
L 720.696703 109.628603 
L 720.798428 109.33242 
L 720.896061 108.819796 
L 721.029656 108.660312 
L 721.130958 108.546396 
L 721.160688 108.409696 
L 721.26987 107.874288 
L 721.484375 107.600889 
L 721.592286 107.019914 
L 721.769536 106.473115 
L 721.86063 106.211107 
L 722.01617 106.051624 
L 722.106441 105.470649 
L 722.247375 105.288383 
L 722.350135 104.901067 
L 722.447768 104.627667 
L 722.555679 104.388442 
L 722.632732 104.240351 
L 722.733799 103.864426 
L 722.798456 103.716335 
L 722.894772 103.260669 
L 723.090038 103.021444 
L 723.193809 102.668303 
L 723.280152 102.508819 
L 723.365766 102.155678 
L 723.447123 102.03037 
L 723.557598 101.700012 
L 723.841912 101.187387 
L 723.892857 100.982338 
L 723.966076 100.777288 
L 724.100189 100.640588 
L 724.161318 100.424147 
L 724.274357 100.298838 
L 724.374554 100.093789 
L 724.547969 99.888739 
L 724.679753 99.717864 
L 725.273712 99.296373 
L 726.301339 99.182456 
L 726.301339 74.303084 
L 726.301339 74.303084 
" clip-path="url(#p9523efb3ba)" style="fill: none; stroke: #0072b2; stroke-width: 2; stroke-linecap: square"/>
   </g>
   <g id="patch_8">
    <path d="M 402.601339 313.515855 
L 402.601339 62.912 
" style="fill: none; stroke: #000000; stroke-width: 0.8; stroke-linejoin: miter; stroke-linecap: square"/>
   </g>
   <g id="patch_9">
    <path d="M 741.715625 313.515855 
L 741.715625 62.912 
" style="fill: none; stroke: #000000; stroke-width: 0.8; stroke-linejoin: miter; stroke-linecap: square"/>
   </g>
   <g id="patch_10">
    <path d="M 402.601339 313.515855 
L 741.715625 313.515855 
" style="fill: none; stroke: #000000; stroke-width: 0.8; stroke-linejoin: miter; stroke-linecap: square"/>
   </g>
   <g id="patch_11">
    <path d="M 402.601339 62.912 
L 741.715625 62.912 
" style="fill: none; stroke: #000000; stroke-width: 0.8; stroke-linejoin: miter; stroke-linecap: square"/>
   </g>
   <g id="text_24">
    <!-- ECDF -->
    <g transform="translate(556.106607 56.912) scale(0.12 -0.12)">
     <defs>
      <path id="DejaVuSans-46" d="M 628 4666 
L 3309 4666 
L 3309 4134 
L 1259 4134 
L 1259 2759 
L 3109 2759 
L 3109 2228 
L 1259 2228 
L 1259 0 
L 628 0 
L 628 4666 
z
" transform="scale(0.015625)"/>
     </defs>
     <use xlink:href="#DejaVuSans-45"/>
     <use xlink:href="#DejaVuSans-43" transform="translate(63.183594 0)"/>
     <use xlink:href="#DejaVuSans-44" transform="translate(133.007812 0)"/>
     <use xlink:href="#DejaVuSans-46" transform="translate(210.009766 0)"/>
    </g>
   </g>
   <g id="legend_1">
    <g id="line2d_45">
     <path d="M 649.175 298.658042 
L 659.175 298.658042 
L 669.175 298.658042 
" style="fill: none; stroke: #0072b2; stroke-width: 2; stroke-linecap: square"/>
    </g>
    <g id="text_25">
     <!-- merged_c1 -->
     <g transform="translate(677.175 302.158042) scale(0.1 -0.1)">
      <use xlink:href="#DejaVuSans-6d"/>
      <use xlink:href="#DejaVuSans-65" transform="translate(97.412109 0)"/>
      <use xlink:href="#DejaVuSans-72" transform="translate(158.935547 0)"/>
      <use xlink:href="#DejaVuSans-67" transform="translate(198.298828 0)"/>
      <use xlink:href="#DejaVuSans-65" transform="translate(261.775391 0)"/>
      <use xlink:href="#DejaVuSans-64" transform="translate(323.298828 0)"/>
      <use xlink:href="#DejaVuSans-5f" transform="translate(386.775391 0)"/>
      <use xlink:href="#DejaVuSans-63" transform="translate(436.775391 0)"/>
      <use xlink:href="#DejaVuSans-31" transform="translate(491.755859 0)"/>
     </g>
    </g>
   </g>
  </g>
  <g id="text_26">
   <!-- CpG methylation distribution for merged_c1 -->
   <g transform="translate(242.395625 16.318125) scale(0.12 -0.12)">
    <use xlink:href="#DejaVuSans-43"/>
    <use xlink:href="#DejaVuSans-70" transform="translate(69.824219 0)"/>
    <use xlink:href="#DejaVuSans-47" transform="translate(133.300781 0)"/>
    <use xlink:href="#DejaVuSans-20" transform="translate(210.791016 0)"/>
    <use xlink:href="#DejaVuSans-6d" transform="translate(242.578125 0)"/>
    <use xlink:href="#DejaVuSans-65" transform="translate(339.990234 0)"/>
    <use xlink:href="#DejaVuSans-74" transform="translate(401.513672 0)"/>
    <use xlink:href="#DejaVuSans-68" transform="translate(440.722656 0)"/>
    <use xlink:href="#DejaVuSans-79" transform="translate(504.101562 0)"/>
    <use xlink:href="#DejaVuSans-6c" transform="translate(563.28125 0)"/>
    <use xlink:href="#DejaVuSans-61" transform="translate(591.064453 0)"/>
    <use xlink:href="#DejaVuSans-74" transform="translate(652.34375 0)"/>
    <use xlink:href="#DejaVuSans-69" transform="translate(691.552734 0)"/>
    <use xlink:href="#DejaVuSans-6f" transform="translate(719.335938 0)"/>
    <use xlink:href="#DejaVuSans-6e" transform="translate(780.517578 0)"/>
    <use xlink:href="#DejaVuSans-20" transform="translate(843.896484 0)"/>
    <use xlink:href="#DejaVuSans-64" transform="translate(875.683594 0)"/>
    <use xlink:href="#DejaVuSans-69" transform="translate(939.160156 0)"/>
    <use xlink:href="#DejaVuSans-73" transform="translate(966.943359 0)"/>
    <use xlink:href="#DejaVuSans-74" transform="translate(1019.042969 0)"/>
    <use xlink:href="#DejaVuSans-72" transform="translate(1058.251953 0)"/>
    <use xlink:href="#DejaVuSans-69" transform="translate(1099.365234 0)"/>
    <use xlink:href="#DejaVuSans-62" transform="translate(1127.148438 0)"/>
    <use xlink:href="#DejaVuSans-75" transform="translate(1190.625 0)"/>
    <use xlink:href="#DejaVuSans-74" transform="translate(1254.003906 0)"/>
    <use xlink:href="#DejaVuSans-69" transform="translate(1293.212891 0)"/>
    <use xlink:href="#DejaVuSans-6f" transform="translate(1320.996094 0)"/>
    <use xlink:href="#DejaVuSans-6e" transform="translate(1382.177734 0)"/>
    <use xlink:href="#DejaVuSans-20" transform="translate(1445.556641 0)"/>
    <use xlink:href="#DejaVuSans-66" transform="translate(1477.34375 0)"/>
    <use xlink:href="#DejaVuSans-6f" transform="translate(1512.548828 0)"/>
    <use xlink:href="#DejaVuSans-72" transform="translate(1573.730469 0)"/>
    <use xlink:href="#DejaVuSans-20" transform="translate(1614.84375 0)"/>
    <use xlink:href="#DejaVuSans-6d" transform="translate(1646.630859 0)"/>
    <use xlink:href="#DejaVuSans-65" transform="translate(1744.042969 0)"/>
    <use xlink:href="#DejaVuSans-72" transform="translate(1805.566406 0)"/>
    <use xlink:href="#DejaVuSans-67" transform="translate(1844.929688 0)"/>
    <use xlink:href="#DejaVuSans-65" transform="translate(1908.40625 0)"/>
    <use xlink:href="#DejaVuSans-64" transform="translate(1969.929688 0)"/>
    <use xlink:href="#DejaVuSans-5f" transform="translate(2033.40625 0)"/>
    <use xlink:href="#DejaVuSans-63" transform="translate(2083.40625 0)"/>
    <use xlink:href="#DejaVuSans-31" transform="translate(2138.386719 0)"/>
   </g>
  </g>
 </g>
 <defs>
  <clipPath id="p48ccae2ded">
   <rect x="46.965625" y="62.912" width="308.285714" height="250.603855"/>
  </clipPath>
  <clipPath id="p9523efb3ba">
   <rect x="402.601339" y="62.912" width="339.114286" height="250.603855"/>
  </clipPath>
 </defs>
</svg>
