<?xml version="1.0" encoding="utf-8" standalone="no"?>
<!DOCTYPE svg PUBLIC "-//W3C//DTD SVG 1.1//EN"
  "http://www.w3.org/Graphics/SVG/1.1/DTD/svg11.dtd">
<svg xmlns:xlink="http://www.w3.org/1999/xlink" width="936pt" height="360pt" viewBox="0 0 936 360" xmlns="http://www.w3.org/2000/svg" version="1.1">
 <metadata>
  <rdf:RDF xmlns:dc="http://purl.org/dc/elements/1.1/" xmlns:cc="http://creativecommons.org/ns#" xmlns:rdf="http://www.w3.org/1999/02/22-rdf-syntax-ns#">
   <cc:Work>
    <dc:type rdf:resource="http://purl.org/dc/dcmitype/StillImage"/>
    <dc:date>2026-07-17T20:22:15.279227</dc:date>
    <dc:format>image/svg+xml</dc:format>
    <dc:creator>
     <cc:Agent>
      <dc:title>Matplotlib v3.10.8, https://matplotlib.org/</dc:title>
     </cc:Agent>
    </dc:creator>
   </cc:Work>
  </rdf:RDF>
 </metadata>
 <defs>
  <style type="text/css">*{stroke-linejoin: round; stroke-linecap: butt}</style>
 </defs>
 <g id="figure_1">
  <g id="patch_1">
   <path d="M 0 360 
L 936 360 
L 936 0 
L 0 0 
z
" style="fill: #ffffff"/>
  </g>
  <g id="axes_1">
   <g id="patch_2">
    <path d="M 47.72 318.04 
L 925.2 318.04 
L 925.2 49.72725 
L 47.72 49.72725 
z
" style="fill: #ffffff"/>
   </g>
   <g id="matplotlib.axis_1">
    <g id="xtick_1">
     <g id="line2d_1">
      <defs>
       <path id="mc16ebfebdd" d="M 0 0 
L 0 3.5 
" style="stroke: #000000; stroke-width: 0.8"/>
      </defs>
      <g>
       <use xlink:href="#mc16ebfebdd" x="86.806147" y="318.04" style="stroke: #000000; stroke-width: 0.8"/>
      </g>
     </g>
     <g id="text_1">
      <!-- 6.710 -->
      <g transform="translate(72.492084 332.638438) scale(0.1 -0.1)">
       <defs>
        <path id="DejaVuSans-36" d="M 2113 2584 
Q 1688 2584 1439 2293 
Q 1191 2003 1191 1497 
Q 1191 994 1439 701 
Q 1688 409 2113 409 
Q 2538 409 2786 701 
Q 3034 994 3034 1497 
Q 3034 2003 2786 2293 
Q 2538 2584 2113 2584 
z
M 3366 4563 
L 3366 3988 
Q 3128 4100 2886 4159 
Q 2644 4219 2406 4219 
Q 1781 4219 1451 3797 
Q 1122 3375 1075 2522 
Q 1259 2794 1537 2939 
Q 1816 3084 2150 3084 
Q 2853 3084 3261 2657 
Q 3669 2231 3669 1497 
Q 3669 778 3244 343 
Q 2819 -91 2113 -91 
Q 1303 -91 875 529 
Q 447 1150 447 2328 
Q 447 3434 972 4092 
Q 1497 4750 2381 4750 
Q 2619 4750 2861 4703 
Q 3103 4656 3366 4563 
z
" transform="scale(0.015625)"/>
        <path id="DejaVuSans-2e" d="M 684 794 
L 1344 794 
L 1344 0 
L 684 0 
L 684 794 
z
" transform="scale(0.015625)"/>
        <path id="DejaVuSans-37" d="M 525 4666 
L 3525 4666 
L 3525 4397 
L 1831 0 
L 1172 0 
L 2766 4134 
L 525 4134 
L 525 4666 
z
" transform="scale(0.015625)"/>
        <path id="DejaVuSans-31" d="M 794 531 
L 1825 531 
L 1825 4091 
L 703 3866 
L 703 4441 
L 1819 4666 
L 2450 4666 
L 2450 531 
L 3481 531 
L 3481 0 
L 794 0 
L 794 531 
z
" transform="scale(0.015625)"/>
        <path id="DejaVuSans-30" d="M 2034 4250 
Q 1547 4250 1301 3770 
Q 1056 3291 1056 2328 
Q 1056 1369 1301 889 
Q 1547 409 2034 409 
Q 2525 409 2770 889 
Q 3016 1369 3016 2328 
Q 3016 3291 2770 3770 
Q 2525 4250 2034 4250 
z
M 2034 4750 
Q 2819 4750 3233 4129 
Q 3647 3509 3647 2328 
Q 3647 1150 3233 529 
Q 2819 -91 2034 -91 
Q 1250 -91 836 529 
Q 422 1150 422 2328 
Q 422 3509 836 4129 
Q 1250 4750 2034 4750 
z
" transform="scale(0.015625)"/>
       </defs>
       <use xlink:href="#DejaVuSans-36"/>
       <use xlink:href="#DejaVuSans-2e" transform="translate(63.623047 0)"/>
       <use xlink:href="#DejaVuSans-37" transform="translate(95.410156 0)"/>
       <use xlink:href="#DejaVuSans-31" transform="translate(159.033203 0)"/>
       <use xlink:href="#DejaVuSans-30" transform="translate(222.65625 0)"/>
      </g>
     </g>
    </g>
    <g id="xtick_2">
     <g id="line2d_2">
      <g>
       <use xlink:href="#mc16ebfebdd" x="246.667688" y="318.04" style="stroke: #000000; stroke-width: 0.8"/>
      </g>
     </g>
     <g id="text_2">
      <!-- 6.712 -->
      <g transform="translate(232.353626 332.638438) scale(0.1 -0.1)">
       <defs>
        <path id="DejaVuSans-32" d="M 1228 531 
L 3431 531 
L 3431 0 
L 469 0 
L 469 531 
Q 828 903 1448 1529 
Q 2069 2156 2228 2338 
Q 2531 2678 2651 2914 
Q 2772 3150 2772 3378 
Q 2772 3750 2511 3984 
Q 2250 4219 1831 4219 
Q 1534 4219 1204 4116 
Q 875 4013 500 3803 
L 500 4441 
Q 881 4594 1212 4672 
Q 1544 4750 1819 4750 
Q 2544 4750 2975 4387 
Q 3406 4025 3406 3419 
Q 3406 3131 3298 2873 
Q 3191 2616 2906 2266 
Q 2828 2175 2409 1742 
Q 1991 1309 1228 531 
z
" transform="scale(0.015625)"/>
       </defs>
       <use xlink:href="#DejaVuSans-36"/>
       <use xlink:href="#DejaVuSans-2e" transform="translate(63.623047 0)"/>
       <use xlink:href="#DejaVuSans-37" transform="translate(95.410156 0)"/>
       <use xlink:href="#DejaVuSans-31" transform="translate(159.033203 0)"/>
       <use xlink:href="#DejaVuSans-32" transform="translate(222.65625 0)"/>
      </g>
     </g>
    </g>
    <g id="xtick_3">
     <g id="line2d_3">
      <g>
       <use xlink:href="#mc16ebfebdd" x="406.529229" y="318.04" style="stroke: #000000; stroke-width: 0.8"/>
      </g>
     </g>
     <g id="text_3">
      <!-- 6.714 -->
      <g transform="translate(392.215167 332.638438) scale(0.1 -0.1)">
       <defs>
        <path id="DejaVuSans-34" d="M 2419 4116 
L 825 1625 
L 2419 1625 
L 2419 4116 
z
M 2253 4666 
L 3047 4666 
L 3047 1625 
L 3713 1625 
L 3713 1100 
L 3047 1100 
L 3047 0 
L 2419 0 
L 2419 1100 
L 313 1100 
L 313 1709 
L 2253 4666 
z
" transform="scale(0.015625)"/>
       </defs>
       <use xlink:href="#DejaVuSans-36"/>
       <use xlink:href="#DejaVuSans-2e" transform="translate(63.623047 0)"/>
       <use xlink:href="#DejaVuSans-37" transform="translate(95.410156 0)"/>
       <use xlink:href="#DejaVuSans-31" transform="translate(159.033203 0)"/>
       <use xlink:href="#DejaVuSans-34" transform="translate(222.65625 0)"/>
      </g>
     </g>
    </g>
    <g id="xtick_4">
     <g id="line2d_4">
      <g>
       <use xlink:href="#mc16ebfebdd" x="566.390771" y="318.04" style="stroke: #000000; stroke-width: 0.8"/>
      </g>
     </g>
     <g id="text_4">
      <!-- 6.716 -->
      <g transform="translate(552.076708 332.638438) scale(0.1 -0.1)">
       <use xlink:href="#DejaVuSans-36"/>
       <use xlink:href="#DejaVuSans-2e" transform="translate(63.623047 0)"/>
       <use xlink:href="#DejaVuSans-37" transform="translate(95.410156 0)"/>
       <use xlink:href="#DejaVuSans-31" transform="translate(159.033203 0)"/>
       <use xlink:href="#DejaVuSans-36" transform="translate(222.65625 0)"/>
      </g>
     </g>
    </g>
    <g id="xtick_5">
     <g id="line2d_5">
      <g>
       <use xlink:href="#mc16ebfebdd" x="726.252312" y="318.04" style="stroke: #000000; stroke-width: 0.8"/>
      </g>
     </g>
     <g id="text_5">
      <!-- 6.718 -->
      <g transform="translate(711.938249 332.638438) scale(0.1 -0.1)">
       <defs>
        <path id="DejaVuSans-38" d="M 2034 2216 
Q 1584 2216 1326 1975 
Q 1069 1734 1069 1313 
Q 1069 891 1326 650 
Q 1584 409 2034 409 
Q 2484 409 2743 651 
Q 3003 894 3003 1313 
Q 3003 1734 2745 1975 
Q 2488 2216 2034 2216 
z
M 1403 2484 
Q 997 2584 770 2862 
Q 544 3141 544 3541 
Q 544 4100 942 4425 
Q 1341 4750 2034 4750 
Q 2731 4750 3128 4425 
Q 3525 4100 3525 3541 
Q 3525 3141 3298 2862 
Q 3072 2584 2669 2484 
Q 3125 2378 3379 2068 
Q 3634 1759 3634 1313 
Q 3634 634 3220 271 
Q 2806 -91 2034 -91 
Q 1263 -91 848 271 
Q 434 634 434 1313 
Q 434 1759 690 2068 
Q 947 2378 1403 2484 
z
M 1172 3481 
Q 1172 3119 1398 2916 
Q 1625 2713 2034 2713 
Q 2441 2713 2670 2916 
Q 2900 3119 2900 3481 
Q 2900 3844 2670 4047 
Q 2441 4250 2034 4250 
Q 1625 4250 1398 4047 
Q 1172 3844 1172 3481 
z
" transform="scale(0.015625)"/>
       </defs>
       <use xlink:href="#DejaVuSans-36"/>
       <use xlink:href="#DejaVuSans-2e" transform="translate(63.623047 0)"/>
       <use xlink:href="#DejaVuSans-37" transform="translate(95.410156 0)"/>
       <use xlink:href="#DejaVuSans-31" transform="translate(159.033203 0)"/>
       <use xlink:href="#DejaVuSans-38" transform="translate(222.65625 0)"/>
      </g>
     </g>
    </g>
    <g id="xtick_6">
     <g id="line2d_6">
      <g>
       <use xlink:href="#mc16ebfebdd" x="886.113853" y="318.04" style="stroke: #000000; stroke-width: 0.8"/>
      </g>
     </g>
     <g id="text_6">
      <!-- 6.720 -->
      <g transform="translate(871.799791 332.638438) scale(0.1 -0.1)">
       <use xlink:href="#DejaVuSans-36"/>
       <use xlink:href="#DejaVuSans-2e" transform="translate(63.623047 0)"/>
       <use xlink:href="#DejaVuSans-37" transform="translate(95.410156 0)"/>
       <use xlink:href="#DejaVuSans-32" transform="translate(159.033203 0)"/>
       <use xlink:href="#DejaVuSans-30" transform="translate(222.65625 0)"/>
      </g>
     </g>
    </g>
    <g id="text_7">
     <!-- chr16 coordinate (hg38) -->
     <g transform="translate(425.670156 346.316563) scale(0.1 -0.1)">
      <defs>
       <path id="DejaVuSans-63" d="M 3122 3366 
L 3122 2828 
Q 2878 2963 2633 3030 
Q 2388 3097 2138 3097 
Q 1578 3097 1268 2742 
Q 959 2388 959 1747 
Q 959 1106 1268 751 
Q 1578 397 2138 397 
Q 2388 397 2633 464 
Q 2878 531 3122 666 
L 3122 134 
Q 2881 22 2623 -34 
Q 2366 -91 2075 -91 
Q 1284 -91 818 406 
Q 353 903 353 1747 
Q 353 2603 823 3093 
Q 1294 3584 2113 3584 
Q 2378 3584 2631 3529 
Q 2884 3475 3122 3366 
z
" transform="scale(0.015625)"/>
       <path id="DejaVuSans-68" d="M 3513 2113 
L 3513 0 
L 2938 0 
L 2938 2094 
Q 2938 2591 2744 2837 
Q 2550 3084 2163 3084 
Q 1697 3084 1428 2787 
Q 1159 2491 1159 1978 
L 1159 0 
L 581 0 
L 581 4863 
L 1159 4863 
L 1159 2956 
Q 1366 3272 1645 3428 
Q 1925 3584 2291 3584 
Q 2894 3584 3203 3211 
Q 3513 2838 3513 2113 
z
" transform="scale(0.015625)"/>
       <path id="DejaVuSans-72" d="M 2631 2963 
Q 2534 3019 2420 3045 
Q 2306 3072 2169 3072 
Q 1681 3072 1420 2755 
Q 1159 2438 1159 1844 
L 1159 0 
L 581 0 
L 581 3500 
L 1159 3500 
L 1159 2956 
Q 1341 3275 1631 3429 
Q 1922 3584 2338 3584 
Q 2397 3584 2469 3576 
Q 2541 3569 2628 3553 
L 2631 2963 
z
" transform="scale(0.015625)"/>
       <path id="DejaVuSans-20" transform="scale(0.015625)"/>
       <path id="DejaVuSans-6f" d="M 1959 3097 
Q 1497 3097 1228 2736 
Q 959 2375 959 1747 
Q 959 1119 1226 758 
Q 1494 397 1959 397 
Q 2419 397 2687 759 
Q 2956 1122 2956 1747 
Q 2956 2369 2687 2733 
Q 2419 3097 1959 3097 
z
M 1959 3584 
Q 2709 3584 3137 3096 
Q 3566 2609 3566 1747 
Q 3566 888 3137 398 
Q 2709 -91 1959 -91 
Q 1206 -91 779 398 
Q 353 888 353 1747 
Q 353 2609 779 3096 
Q 1206 3584 1959 3584 
z
" transform="scale(0.015625)"/>
       <path id="DejaVuSans-64" d="M 2906 2969 
L 2906 4863 
L 3481 4863 
L 3481 0 
L 2906 0 
L 2906 525 
Q 2725 213 2448 61 
Q 2172 -91 1784 -91 
Q 1150 -91 751 415 
Q 353 922 353 1747 
Q 353 2572 751 3078 
Q 1150 3584 1784 3584 
Q 2172 3584 2448 3432 
Q 2725 3281 2906 2969 
z
M 947 1747 
Q 947 1113 1208 752 
Q 1469 391 1925 391 
Q 2381 391 2643 752 
Q 2906 1113 2906 1747 
Q 2906 2381 2643 2742 
Q 2381 3103 1925 3103 
Q 1469 3103 1208 2742 
Q 947 2381 947 1747 
z
" transform="scale(0.015625)"/>
       <path id="DejaVuSans-69" d="M 603 3500 
L 1178 3500 
L 1178 0 
L 603 0 
L 603 3500 
z
M 603 4863 
L 1178 4863 
L 1178 4134 
L 603 4134 
L 603 4863 
z
" transform="scale(0.015625)"/>
       <path id="DejaVuSans-6e" d="M 3513 2113 
L 3513 0 
L 2938 0 
L 2938 2094 
Q 2938 2591 2744 2837 
Q 2550 3084 2163 3084 
Q 1697 3084 1428 2787 
Q 1159 2491 1159 1978 
L 1159 0 
L 581 0 
L 581 3500 
L 1159 3500 
L 1159 2956 
Q 1366 3272 1645 3428 
Q 1925 3584 2291 3584 
Q 2894 3584 3203 3211 
Q 3513 2838 3513 2113 
z
" transform="scale(0.015625)"/>
       <path id="DejaVuSans-61" d="M 2194 1759 
Q 1497 1759 1228 1600 
Q 959 1441 959 1056 
Q 959 750 1161 570 
Q 1363 391 1709 391 
Q 2188 391 2477 730 
Q 2766 1069 2766 1631 
L 2766 1759 
L 2194 1759 
z
M 3341 1997 
L 3341 0 
L 2766 0 
L 2766 531 
Q 2569 213 2275 61 
Q 1981 -91 1556 -91 
Q 1019 -91 701 211 
Q 384 513 384 1019 
Q 384 1609 779 1909 
Q 1175 2209 1959 2209 
L 2766 2209 
L 2766 2266 
Q 2766 2663 2505 2880 
Q 2244 3097 1772 3097 
Q 1472 3097 1187 3025 
Q 903 2953 641 2809 
L 641 3341 
Q 956 3463 1253 3523 
Q 1550 3584 1831 3584 
Q 2591 3584 2966 3190 
Q 3341 2797 3341 1997 
z
" transform="scale(0.015625)"/>
       <path id="DejaVuSans-74" d="M 1172 4494 
L 1172 3500 
L 2356 3500 
L 2356 3053 
L 1172 3053 
L 1172 1153 
Q 1172 725 1289 603 
Q 1406 481 1766 481 
L 2356 481 
L 2356 0 
L 1766 0 
Q 1100 0 847 248 
Q 594 497 594 1153 
L 594 3053 
L 172 3053 
L 172 3500 
L 594 3500 
L 594 4494 
L 1172 4494 
z
" transform="scale(0.015625)"/>
       <path id="DejaVuSans-65" d="M 3597 1894 
L 3597 1613 
L 953 1613 
Q 991 1019 1311 708 
Q 1631 397 2203 397 
Q 2534 397 2845 478 
Q 3156 559 3463 722 
L 3463 178 
Q 3153 47 2828 -22 
Q 2503 -91 2169 -91 
Q 1331 -91 842 396 
Q 353 884 353 1716 
Q 353 2575 817 3079 
Q 1281 3584 2069 3584 
Q 2775 3584 3186 3129 
Q 3597 2675 3597 1894 
z
M 3022 2063 
Q 3016 2534 2758 2815 
Q 2500 3097 2075 3097 
Q 1594 3097 1305 2825 
Q 1016 2553 972 2059 
L 3022 2063 
z
" transform="scale(0.015625)"/>
       <path id="DejaVuSans-28" d="M 1984 4856 
Q 1566 4138 1362 3434 
Q 1159 2731 1159 2009 
Q 1159 1288 1364 580 
Q 1569 -128 1984 -844 
L 1484 -844 
Q 1016 -109 783 600 
Q 550 1309 550 2009 
Q 550 2706 781 3412 
Q 1013 4119 1484 4856 
L 1984 4856 
z
" transform="scale(0.015625)"/>
       <path id="DejaVuSans-67" d="M 2906 1791 
Q 2906 2416 2648 2759 
Q 2391 3103 1925 3103 
Q 1463 3103 1205 2759 
Q 947 2416 947 1791 
Q 947 1169 1205 825 
Q 1463 481 1925 481 
Q 2391 481 2648 825 
Q 2906 1169 2906 1791 
z
M 3481 434 
Q 3481 -459 3084 -895 
Q 2688 -1331 1869 -1331 
Q 1566 -1331 1297 -1286 
Q 1028 -1241 775 -1147 
L 775 -588 
Q 1028 -725 1275 -790 
Q 1522 -856 1778 -856 
Q 2344 -856 2625 -561 
Q 2906 -266 2906 331 
L 2906 616 
Q 2728 306 2450 153 
Q 2172 0 1784 0 
Q 1141 0 747 490 
Q 353 981 353 1791 
Q 353 2603 747 3093 
Q 1141 3584 1784 3584 
Q 2172 3584 2450 3431 
Q 2728 3278 2906 2969 
L 2906 3500 
L 3481 3500 
L 3481 434 
z
" transform="scale(0.015625)"/>
       <path id="DejaVuSans-33" d="M 2597 2516 
Q 3050 2419 3304 2112 
Q 3559 1806 3559 1356 
Q 3559 666 3084 287 
Q 2609 -91 1734 -91 
Q 1441 -91 1130 -33 
Q 819 25 488 141 
L 488 750 
Q 750 597 1062 519 
Q 1375 441 1716 441 
Q 2309 441 2620 675 
Q 2931 909 2931 1356 
Q 2931 1769 2642 2001 
Q 2353 2234 1838 2234 
L 1294 2234 
L 1294 2753 
L 1863 2753 
Q 2328 2753 2575 2939 
Q 2822 3125 2822 3475 
Q 2822 3834 2567 4026 
Q 2313 4219 1838 4219 
Q 1578 4219 1281 4162 
Q 984 4106 628 3988 
L 628 4550 
Q 988 4650 1302 4700 
Q 1616 4750 1894 4750 
Q 2613 4750 3031 4423 
Q 3450 4097 3450 3541 
Q 3450 3153 3228 2886 
Q 3006 2619 2597 2516 
z
" transform="scale(0.015625)"/>
       <path id="DejaVuSans-29" d="M 513 4856 
L 1013 4856 
Q 1481 4119 1714 3412 
Q 1947 2706 1947 2009 
Q 1947 1309 1714 600 
Q 1481 -109 1013 -844 
L 513 -844 
Q 928 -128 1133 580 
Q 1338 1288 1338 2009 
Q 1338 2731 1133 3434 
Q 928 4138 513 4856 
z
" transform="scale(0.015625)"/>
      </defs>
      <use xlink:href="#DejaVuSans-63"/>
      <use xlink:href="#DejaVuSans-68" transform="translate(54.980469 0)"/>
      <use xlink:href="#DejaVuSans-72" transform="translate(118.359375 0)"/>
      <use xlink:href="#DejaVuSans-31" transform="translate(159.472656 0)"/>
      <use xlink:href="#DejaVuSans-36" transform="translate(223.095703 0)"/>
      <use xlink:href="#DejaVuSans-20" transform="translate(286.71875 0)"/>
      <use xlink:href="#DejaVuSans-63" transform="translate(318.505859 0)"/>
      <use xlink:href="#DejaVuSans-6f" transform="translate(373.486328 0)"/>
      <use xlink:href="#DejaVuSans-6f" transform="translate(434.667969 0)"/>
      <use xlink:href="#DejaVuSans-72" transform="translate(495.849609 0)"/>
      <use xlink:href="#DejaVuSans-64" transform="translate(535.212891 0)"/>
      <use xlink:href="#DejaVuSans-69" transform="translate(598.689453 0)"/>
      <use xlink:href="#DejaVuSans-6e" transform="translate(626.472656 0)"/>
      <use xlink:href="#DejaVuSans-61" transform="translate(689.851562 0)"/>
      <use xlink:href="#DejaVuSans-74" transform="translate(751.130859 0)"/>
      <use xlink:href="#DejaVuSans-65" transform="translate(790.339844 0)"/>
      <use xlink:href="#DejaVuSans-20" transform="translate(851.863281 0)"/>
      <use xlink:href="#DejaVuSans-28" transform="translate(883.650391 0)"/>
      <use xlink:href="#DejaVuSans-68" transform="translate(922.664062 0)"/>
      <use xlink:href="#DejaVuSans-67" transform="translate(986.042969 0)"/>
      <use xlink:href="#DejaVuSans-33" transform="translate(1049.519531 0)"/>
      <use xlink:href="#DejaVuSans-38" transform="translate(1113.142578 0)"/>
      <use xlink:href="#DejaVuSans-29" transform="translate(1176.765625 0)"/>
     </g>
    </g>
    <g id="text_8">
     <!-- 1e7 -->
     <g transform="translate(906.321875 345.316563) scale(0.1 -0.1)">
      <use xlink:href="#DejaVuSans-31"/>
      <use xlink:href="#DejaVuSans-65" transform="translate(63.623047 0)"/>
      <use xlink:href="#DejaVuSans-37" transform="translate(125.146484 0)"/>
     </g>
    </g>
   </g>
   <g id="matplotlib.axis_2">
    <g id="ytick_1">
     <g id="line2d_7">
      <defs>
       <path id="m7508cbee6f" d="M 0 0 
L -3.5 0 
" style="stroke: #000000; stroke-width: 0.8"/>
      </defs>
      <g>
       <use xlink:href="#m7508cbee6f" x="47.72" y="305.843966" style="stroke: #000000; stroke-width: 0.8"/>
      </g>
     </g>
     <g id="text_9">
      <!-- 0.0 -->
      <g transform="translate(24.816875 309.643185) scale(0.1 -0.1)">
       <use xlink:href="#DejaVuSans-30"/>
       <use xlink:href="#DejaVuSans-2e" transform="translate(63.623047 0)"/>
       <use xlink:href="#DejaVuSans-30" transform="translate(95.410156 0)"/>
      </g>
     </g>
    </g>
    <g id="ytick_2">
     <g id="line2d_8">
      <g>
       <use xlink:href="#m7508cbee6f" x="47.72" y="257.05983" style="stroke: #000000; stroke-width: 0.8"/>
      </g>
     </g>
     <g id="text_10">
      <!-- 0.2 -->
      <g transform="translate(24.816875 260.859048) scale(0.1 -0.1)">
       <use xlink:href="#DejaVuSans-30"/>
       <use xlink:href="#DejaVuSans-2e" transform="translate(63.623047 0)"/>
       <use xlink:href="#DejaVuSans-32" transform="translate(95.410156 0)"/>
      </g>
     </g>
    </g>
    <g id="ytick_3">
     <g id="line2d_9">
      <g>
       <use xlink:href="#m7508cbee6f" x="47.72" y="208.275693" style="stroke: #000000; stroke-width: 0.8"/>
      </g>
     </g>
     <g id="text_11">
      <!-- 0.4 -->
      <g transform="translate(24.816875 212.074912) scale(0.1 -0.1)">
       <use xlink:href="#DejaVuSans-30"/>
       <use xlink:href="#DejaVuSans-2e" transform="translate(63.623047 0)"/>
       <use xlink:href="#DejaVuSans-34" transform="translate(95.410156 0)"/>
      </g>
     </g>
    </g>
    <g id="ytick_4">
     <g id="line2d_10">
      <g>
       <use xlink:href="#m7508cbee6f" x="47.72" y="159.491557" style="stroke: #000000; stroke-width: 0.8"/>
      </g>
     </g>
     <g id="text_12">
      <!-- 0.6 -->
      <g transform="translate(24.816875 163.290776) scale(0.1 -0.1)">
       <use xlink:href="#DejaVuSans-30"/>
       <use xlink:href="#DejaVuSans-2e" transform="translate(63.623047 0)"/>
       <use xlink:href="#DejaVuSans-36" transform="translate(95.410156 0)"/>
      </g>
     </g>
    </g>
    <g id="ytick_5">
     <g id="line2d_11">
      <g>
       <use xlink:href="#m7508cbee6f" x="47.72" y="110.70742" style="stroke: #000000; stroke-width: 0.8"/>
      </g>
     </g>
     <g id="text_13">
      <!-- 0.8 -->
      <g transform="translate(24.816875 114.506639) scale(0.1 -0.1)">
       <use xlink:href="#DejaVuSans-30"/>
       <use xlink:href="#DejaVuSans-2e" transform="translate(63.623047 0)"/>
       <use xlink:href="#DejaVuSans-38" transform="translate(95.410156 0)"/>
      </g>
     </g>
    </g>
    <g id="ytick_6">
     <g id="line2d_12">
      <g>
       <use xlink:href="#m7508cbee6f" x="47.72" y="61.923284" style="stroke: #000000; stroke-width: 0.8"/>
      </g>
     </g>
     <g id="text_14">
      <!-- 1.0 -->
      <g transform="translate(24.816875 65.722503) scale(0.1 -0.1)">
       <use xlink:href="#DejaVuSans-31"/>
       <use xlink:href="#DejaVuSans-2e" transform="translate(63.623047 0)"/>
       <use xlink:href="#DejaVuSans-30" transform="translate(95.410156 0)"/>
      </g>
     </g>
    </g>
    <g id="text_15">
     <!-- global robust normalized signal -->
     <g transform="translate(18.737188 262.384406) rotate(-90) scale(0.1 -0.1)">
      <defs>
       <path id="DejaVuSans-6c" d="M 603 4863 
L 1178 4863 
L 1178 0 
L 603 0 
L 603 4863 
z
" transform="scale(0.015625)"/>
       <path id="DejaVuSans-62" d="M 3116 1747 
Q 3116 2381 2855 2742 
Q 2594 3103 2138 3103 
Q 1681 3103 1420 2742 
Q 1159 2381 1159 1747 
Q 1159 1113 1420 752 
Q 1681 391 2138 391 
Q 2594 391 2855 752 
Q 3116 1113 3116 1747 
z
M 1159 2969 
Q 1341 3281 1617 3432 
Q 1894 3584 2278 3584 
Q 2916 3584 3314 3078 
Q 3713 2572 3713 1747 
Q 3713 922 3314 415 
Q 2916 -91 2278 -91 
Q 1894 -91 1617 61 
Q 1341 213 1159 525 
L 1159 0 
L 581 0 
L 581 4863 
L 1159 4863 
L 1159 2969 
z
" transform="scale(0.015625)"/>
       <path id="DejaVuSans-75" d="M 544 1381 
L 544 3500 
L 1119 3500 
L 1119 1403 
Q 1119 906 1312 657 
Q 1506 409 1894 409 
Q 2359 409 2629 706 
Q 2900 1003 2900 1516 
L 2900 3500 
L 3475 3500 
L 3475 0 
L 2900 0 
L 2900 538 
Q 2691 219 2414 64 
Q 2138 -91 1772 -91 
Q 1169 -91 856 284 
Q 544 659 544 1381 
z
M 1991 3584 
L 1991 3584 
z
" transform="scale(0.015625)"/>
       <path id="DejaVuSans-73" d="M 2834 3397 
L 2834 2853 
Q 2591 2978 2328 3040 
Q 2066 3103 1784 3103 
Q 1356 3103 1142 2972 
Q 928 2841 928 2578 
Q 928 2378 1081 2264 
Q 1234 2150 1697 2047 
L 1894 2003 
Q 2506 1872 2764 1633 
Q 3022 1394 3022 966 
Q 3022 478 2636 193 
Q 2250 -91 1575 -91 
Q 1294 -91 989 -36 
Q 684 19 347 128 
L 347 722 
Q 666 556 975 473 
Q 1284 391 1588 391 
Q 1994 391 2212 530 
Q 2431 669 2431 922 
Q 2431 1156 2273 1281 
Q 2116 1406 1581 1522 
L 1381 1569 
Q 847 1681 609 1914 
Q 372 2147 372 2553 
Q 372 3047 722 3315 
Q 1072 3584 1716 3584 
Q 2034 3584 2315 3537 
Q 2597 3491 2834 3397 
z
" transform="scale(0.015625)"/>
       <path id="DejaVuSans-6d" d="M 3328 2828 
Q 3544 3216 3844 3400 
Q 4144 3584 4550 3584 
Q 5097 3584 5394 3201 
Q 5691 2819 5691 2113 
L 5691 0 
L 5113 0 
L 5113 2094 
Q 5113 2597 4934 2840 
Q 4756 3084 4391 3084 
Q 3944 3084 3684 2787 
Q 3425 2491 3425 1978 
L 3425 0 
L 2847 0 
L 2847 2094 
Q 2847 2600 2669 2842 
Q 2491 3084 2119 3084 
Q 1678 3084 1418 2786 
Q 1159 2488 1159 1978 
L 1159 0 
L 581 0 
L 581 3500 
L 1159 3500 
L 1159 2956 
Q 1356 3278 1631 3431 
Q 1906 3584 2284 3584 
Q 2666 3584 2933 3390 
Q 3200 3197 3328 2828 
z
" transform="scale(0.015625)"/>
       <path id="DejaVuSans-7a" d="M 353 3500 
L 3084 3500 
L 3084 2975 
L 922 459 
L 3084 459 
L 3084 0 
L 275 0 
L 275 525 
L 2438 3041 
L 353 3041 
L 353 3500 
z
" transform="scale(0.015625)"/>
      </defs>
      <use xlink:href="#DejaVuSans-67"/>
      <use xlink:href="#DejaVuSans-6c" transform="translate(63.476562 0)"/>
      <use xlink:href="#DejaVuSans-6f" transform="translate(91.259766 0)"/>
      <use xlink:href="#DejaVuSans-62" transform="translate(152.441406 0)"/>
      <use xlink:href="#DejaVuSans-61" transform="translate(215.917969 0)"/>
      <use xlink:href="#DejaVuSans-6c" transform="translate(277.197266 0)"/>
      <use xlink:href="#DejaVuSans-20" transform="translate(304.980469 0)"/>
      <use xlink:href="#DejaVuSans-72" transform="translate(336.767578 0)"/>
      <use xlink:href="#DejaVuSans-6f" transform="translate(375.630859 0)"/>
      <use xlink:href="#DejaVuSans-62" transform="translate(436.8125 0)"/>
      <use xlink:href="#DejaVuSans-75" transform="translate(500.289062 0)"/>
      <use xlink:href="#DejaVuSans-73" transform="translate(563.667969 0)"/>
      <use xlink:href="#DejaVuSans-74" transform="translate(615.767578 0)"/>
      <use xlink:href="#DejaVuSans-20" transform="translate(654.976562 0)"/>
      <use xlink:href="#DejaVuSans-6e" transform="translate(686.763672 0)"/>
      <use xlink:href="#DejaVuSans-6f" transform="translate(750.142578 0)"/>
      <use xlink:href="#DejaVuSans-72" transform="translate(811.324219 0)"/>
      <use xlink:href="#DejaVuSans-6d" transform="translate(850.6875 0)"/>
      <use xlink:href="#DejaVuSans-61" transform="translate(948.099609 0)"/>
      <use xlink:href="#DejaVuSans-6c" transform="translate(1009.378906 0)"/>
      <use xlink:href="#DejaVuSans-69" transform="translate(1037.162109 0)"/>
      <use xlink:href="#DejaVuSans-7a" transform="translate(1064.945312 0)"/>
      <use xlink:href="#DejaVuSans-65" transform="translate(1117.435547 0)"/>
      <use xlink:href="#DejaVuSans-64" transform="translate(1178.958984 0)"/>
      <use xlink:href="#DejaVuSans-20" transform="translate(1242.435547 0)"/>
      <use xlink:href="#DejaVuSans-73" transform="translate(1274.222656 0)"/>
      <use xlink:href="#DejaVuSans-69" transform="translate(1326.322266 0)"/>
      <use xlink:href="#DejaVuSans-67" transform="translate(1354.105469 0)"/>
      <use xlink:href="#DejaVuSans-6e" transform="translate(1417.582031 0)"/>
      <use xlink:href="#DejaVuSans-61" transform="translate(1480.960938 0)"/>
      <use xlink:href="#DejaVuSans-6c" transform="translate(1542.240234 0)"/>
     </g>
    </g>
   </g>
   <g id="line2d_13">
    <path d="M 87.605455 298.160203 
L 89.20407 302.020454 
L 90.802685 301.606399 
L 92.401301 301.372122 
L 93.999916 303.442071 
L 95.598532 300.335051 
L 97.197147 302.463115 
L 98.795762 301.025175 
L 100.394378 303.795322 
L 101.992993 304.316096 
L 103.591609 300.552731 
L 105.190224 299.897637 
L 106.788839 302.341241 
L 108.387455 303.198696 
L 109.98607 302.984306 
L 111.584686 304.38765 
L 113.183301 300.062274 
L 116.380532 302.694853 
L 119.577763 302.905278 
L 121.176378 303.83026 
L 122.774994 298.807955 
L 124.373609 302.10632 
L 125.972224 300.37618 
L 127.57084 302.651074 
L 129.169455 303.480266 
L 130.768071 299.187695 
L 132.366686 303.012693 
L 133.965302 301.782779 
L 135.563917 302.616871 
L 137.162532 302.987622 
L 141.958379 304.804021 
L 143.556994 303.370328 
L 145.155609 300.028339 
L 146.754225 302.518509 
L 148.35284 303.391602 
L 149.951456 302.737057 
L 151.550071 303.014837 
L 153.148686 300.606288 
L 154.747302 299.17486 
L 157.944533 302.235774 
L 159.543148 298.530358 
L 161.141764 276.074978 
L 162.740379 217.090828 
L 164.338994 209.00237 
L 165.93761 235.332366 
L 167.536225 71.095082 
L 169.134841 61.923284 
L 170.733456 64.326003 
L 172.332071 164.792496 
L 173.930687 248.828259 
L 177.127918 290.316063 
L 180.325148 296.082091 
L 181.923764 298.940802 
L 183.522379 303.98288 
L 185.120995 301.461297 
L 186.71961 300.090491 
L 188.318226 300.439082 
L 189.916841 302.818834 
L 191.515456 296.178144 
L 193.114072 298.64886 
L 194.712687 302.34628 
L 196.311303 302.547932 
L 197.909918 302.063394 
L 201.107149 296.541811 
L 202.705764 299.194221 
L 204.30438 297.091959 
L 205.902995 298.946113 
L 207.50161 298.979037 
L 209.100226 292.49198 
L 210.698841 296.807164 
L 212.297457 299.479018 
L 213.896072 298.084575 
L 215.494688 297.730867 
L 217.093303 301.299649 
L 218.691918 302.778672 
L 220.290534 298.034506 
L 221.889149 301.892099 
L 223.487765 303.086252 
L 225.08638 301.653738 
L 226.684995 300.460238 
L 228.283611 303.986992 
L 229.882226 302.812486 
L 231.480842 303.284625 
L 233.079457 302.410162 
L 234.678073 302.328631 
L 236.276688 303.258018 
L 237.875303 302.85228 
L 239.473919 300.350256 
L 241.072534 301.277763 
L 242.67115 304.254411 
L 244.269765 302.85337 
L 245.86838 301.258399 
L 247.466996 300.88085 
L 249.065611 298.927157 
L 250.664227 299.583382 
L 252.262842 304.206817 
L 253.861457 297.86076 
L 255.460073 300.396146 
L 257.058688 303.726038 
L 258.657304 302.405313 
L 260.255919 298.615507 
L 261.854535 301.665121 
L 263.45315 302.188844 
L 265.051765 301.868038 
L 266.650381 302.195937 
L 269.847612 300.874605 
L 271.446227 298.301367 
L 273.044842 299.964634 
L 274.643458 303.799561 
L 276.242073 300.910524 
L 277.840689 299.98746 
L 279.439304 296.951167 
L 284.23515 305.115939 
L 285.833766 304.58484 
L 287.432381 304.251914 
L 289.030997 297.32843 
L 292.228227 304.628323 
L 295.425458 301.670112 
L 297.024074 301.9109 
L 298.622689 300.797025 
L 300.221304 303.261345 
L 301.81992 301.368482 
L 303.418535 298.919264 
L 305.017151 302.02585 
L 306.615766 304.155064 
L 308.214381 305.843966 
L 309.812997 301.632313 
L 311.411612 303.221256 
L 313.010228 301.738185 
L 314.608843 301.39435 
L 316.207459 300.139018 
L 317.806074 299.624948 
L 319.404689 301.945406 
L 321.003305 304.041743 
L 322.60192 302.501936 
L 324.200536 302.775773 
L 325.799151 302.555296 
L 327.397766 302.45294 
L 328.996382 305.004571 
L 330.594997 304.740992 
L 332.193613 298.64465 
L 333.792228 304.31244 
L 335.390844 304.222605 
L 336.989459 303.591814 
L 338.588074 297.411883 
L 340.18669 296.150507 
L 341.785305 299.955691 
L 343.383921 301.026551 
L 344.982536 304.860537 
L 346.581151 300.576731 
L 348.179767 301.545265 
L 349.778382 301.084202 
L 351.376998 300.334043 
L 352.975613 302.938837 
L 354.574228 303.795856 
L 356.172844 305.843966 
L 357.771459 301.442499 
L 359.370075 300.11655 
L 360.96869 297.308026 
L 362.567306 296.181347 
L 364.165921 298.640799 
L 365.764536 304.575085 
L 367.363152 303.843505 
L 368.961767 302.538145 
L 370.560383 304.029272 
L 372.158998 303.736909 
L 373.757613 304.354355 
L 375.356229 301.959879 
L 376.954844 302.591584 
L 378.55346 305.556167 
L 380.152075 302.361661 
L 381.75069 304.139254 
L 383.349306 304.716378 
L 384.947921 300.901563 
L 386.546537 302.149432 
L 388.145152 300.571124 
L 389.743768 293.134612 
L 391.342383 295.433256 
L 394.539614 302.871543 
L 396.138229 300.392234 
L 397.736845 299.308072 
L 399.33546 299.549346 
L 400.934075 301.282039 
L 402.532691 304.143059 
L 404.131306 297.587366 
L 405.729922 299.02407 
L 407.328537 303.866399 
L 408.927152 300.964509 
L 410.525768 301.513913 
L 412.124383 301.625365 
L 413.722999 302.007323 
L 415.321614 303.389738 
L 416.92023 303.389 
L 418.518845 302.33042 
L 420.11746 304.253743 
L 421.716076 303.79143 
L 423.314691 300.045222 
L 424.913307 301.531064 
L 426.511922 298.560179 
L 428.110537 301.379175 
L 429.709153 302.629703 
L 431.307768 298.264883 
L 432.906384 304.82858 
L 434.504999 304.461689 
L 436.103615 304.543361 
L 437.70223 303.137385 
L 439.300845 303.791702 
L 440.899461 302.282293 
L 442.498076 301.298025 
L 444.096692 302.404778 
L 445.695307 302.72154 
L 447.293922 299.485392 
L 448.892538 300.821195 
L 450.491153 301.122434 
L 452.089769 302.625254 
L 453.688384 303.725833 
L 455.286999 300.915938 
L 456.885615 302.756237 
L 458.48423 304.158406 
L 460.082846 302.872755 
L 461.681461 303.677229 
L 463.280077 303.436459 
L 464.878692 297.813425 
L 466.477307 297.646952 
L 468.075923 301.957977 
L 469.674538 303.950898 
L 471.273154 302.134856 
L 472.871769 300.922225 
L 474.470384 301.744211 
L 476.069 299.662654 
L 477.667615 302.786314 
L 479.266231 299.992226 
L 480.864846 302.248373 
L 482.463461 302.487641 
L 484.062077 304.597379 
L 485.660692 302.802017 
L 487.259308 290.553726 
L 488.857923 276.393638 
L 490.456539 195.912447 
L 492.055154 125.655393 
L 493.653769 76.628821 
L 495.252385 174.483913 
L 496.851 256.319949 
L 498.449616 289.626959 
L 500.048231 297.024275 
L 501.646846 302.786532 
L 503.245462 300.373933 
L 504.844077 303.007723 
L 506.442693 301.523024 
L 508.041308 303.348345 
L 509.639923 299.933683 
L 511.238539 300.495652 
L 512.837154 303.861967 
L 514.43577 303.301805 
L 516.034385 299.135235 
L 519.231616 304.125036 
L 520.830231 304.309448 
L 522.428847 304.141188 
L 524.027462 301.949901 
L 525.626078 297.172471 
L 527.224693 293.572959 
L 528.823308 280.632347 
L 530.421924 289.97245 
L 532.020539 282.856279 
L 533.619155 288.357819 
L 535.21777 299.376172 
L 536.816385 301.400831 
L 538.415001 300.324924 
L 540.013616 300.139086 
L 541.612232 300.690371 
L 543.210847 300.016975 
L 544.809463 300.687031 
L 546.408078 300.100118 
L 548.006693 299.164846 
L 549.605309 296.579202 
L 551.203924 297.767253 
L 552.80254 297.231039 
L 554.401155 301.080212 
L 555.99977 296.785578 
L 557.598386 279.902242 
L 559.197001 242.940966 
L 562.394232 61.923284 
L 563.992848 61.923284 
L 565.591463 152.971849 
L 567.190078 126.039922 
L 568.788694 166.697941 
L 570.387309 173.257996 
L 571.985925 141.54716 
L 573.58454 173.149206 
L 575.183155 259.364081 
L 576.781771 241.886097 
L 578.380386 287.462582 
L 579.979002 298.60772 
L 581.577617 295.991907 
L 583.176232 301.904998 
L 584.774848 301.549211 
L 586.373463 300.300363 
L 587.972079 299.825587 
L 591.16931 302.176337 
L 592.767925 302.239433 
L 594.36654 302.896131 
L 595.965156 303.082581 
L 597.563771 304.298263 
L 599.162387 302.671233 
L 600.761002 301.915299 
L 602.359617 301.382365 
L 603.958233 304.976005 
L 605.556848 304.579264 
L 607.155464 304.767395 
L 608.754079 301.743516 
L 610.352694 299.242268 
L 611.95131 302.655399 
L 613.549925 305.028454 
L 615.148541 305.820832 
L 616.747156 301.981705 
L 618.345772 302.381473 
L 619.944387 301.255258 
L 621.543002 301.332286 
L 623.141618 303.805175 
L 624.740233 305.668153 
L 626.338849 303.788667 
L 627.937464 299.306725 
L 629.536079 298.897473 
L 631.134695 298.187244 
L 632.73331 302.480222 
L 634.331926 305.843966 
L 635.930541 303.466979 
L 637.529156 301.985447 
L 639.127772 299.968882 
L 640.726387 300.538358 
L 642.325003 294.680551 
L 643.923618 276.307066 
L 645.522234 232.028277 
L 647.120849 177.12063 
L 648.719464 166.638687 
L 650.31808 222.097988 
L 651.916695 219.90652 
L 653.515311 221.416225 
L 655.113926 201.734945 
L 656.712541 225.988662 
L 658.311157 270.893025 
L 659.909772 291.681397 
L 661.508388 298.122112 
L 663.107003 303.433637 
L 664.705619 302.100351 
L 667.902849 300.878035 
L 669.501465 302.867258 
L 671.10008 298.896312 
L 672.698696 290.317661 
L 674.297311 270.24026 
L 675.895926 244.96509 
L 677.494542 247.555154 
L 679.093157 190.91432 
L 680.691773 218.40347 
L 682.290388 239.434285 
L 683.889003 243.688678 
L 685.487619 263.464397 
L 687.086234 285.960734 
L 688.68485 292.323462 
L 690.283465 296.305953 
L 691.882081 301.136097 
L 693.480696 301.676682 
L 695.079311 304.662093 
L 696.677927 303.65483 
L 698.276542 302.412735 
L 699.875158 300.971638 
L 701.473773 302.700373 
L 703.072388 302.096083 
L 704.671004 302.565649 
L 706.269619 300.749994 
L 707.868235 301.368404 
L 709.46685 289.255303 
L 711.065465 272.030771 
L 712.664081 235.873231 
L 714.262696 224.53401 
L 715.861312 264.190568 
L 717.459927 285.377933 
L 719.058543 297.02096 
L 720.657158 301.197451 
L 722.255773 299.457809 
L 723.854389 303.469447 
L 725.453004 301.6906 
L 727.05162 303.761947 
L 728.650235 304.467373 
L 730.24885 304.256709 
L 731.847466 302.629465 
L 733.446081 303.448363 
L 735.044697 302.68935 
L 736.643312 301.059394 
L 738.241927 299.661849 
L 739.840543 297.69115 
L 741.439158 299.672493 
L 743.037774 302.093732 
L 744.636389 300.241476 
L 746.235005 296.124667 
L 747.83362 287.938239 
L 749.432235 281.462869 
L 751.030851 255.40317 
L 752.629466 237.57842 
L 754.228082 223.820559 
L 755.826697 223.881854 
L 757.425312 151.082433 
L 759.023928 134.063997 
L 760.622543 111.261312 
L 762.221159 139.907434 
L 763.819774 234.950123 
L 765.41839 285.079359 
L 767.017005 293.918345 
L 768.61562 295.66611 
L 771.812851 293.050993 
L 773.411467 295.597409 
L 775.010082 296.113335 
L 776.608697 300.22964 
L 778.207313 297.318455 
L 779.805928 301.005963 
L 781.404544 300.121739 
L 783.003159 300.080645 
L 784.601774 304.338688 
L 786.20039 302.060257 
L 787.799005 299.986853 
L 789.397621 302.78105 
L 790.996236 304.527289 
L 792.594852 304.522343 
L 794.193467 300.4376 
L 795.792082 302.329547 
L 798.989313 304.229664 
L 800.587929 304.322927 
L 802.186544 304.108652 
L 803.785159 303.150595 
L 805.383775 303.998682 
L 806.98239 302.456284 
L 808.581006 303.249241 
L 810.179621 303.850569 
L 811.778236 302.614442 
L 813.376852 297.087345 
L 814.975467 299.197286 
L 816.574083 301.510441 
L 818.172698 289.366934 
L 819.771314 268.260306 
L 821.369929 240.05473 
L 822.968544 240.667778 
L 824.56716 68.766421 
L 826.165775 61.923284 
L 829.363006 61.923284 
L 830.961621 156.655723 
L 832.560237 224.124114 
L 834.158852 251.039217 
L 835.757468 266.164774 
L 837.356083 285.673757 
L 838.954698 294.869461 
L 840.553314 299.427035 
L 842.151929 295.940086 
L 843.750545 299.522718 
L 845.34916 300.874182 
L 848.546391 297.843494 
L 850.145006 297.43387 
L 851.743622 301.440694 
L 853.342237 302.019475 
L 854.940853 301.146059 
L 856.539468 298.73446 
L 858.138083 298.576094 
L 859.736699 294.107507 
L 861.335314 297.959486 
L 862.93393 295.989046 
L 864.532545 298.997525 
L 866.131161 294.889806 
L 867.729776 291.181003 
L 869.328391 292.350629 
L 870.927007 296.723076 
L 872.525622 298.001549 
L 874.124238 297.803988 
L 875.722853 296.945216 
L 877.321468 302.530916 
L 878.920084 301.77773 
L 880.518699 302.165306 
L 882.117315 299.869765 
L 883.71593 299.585901 
L 885.314545 300.360553 
L 885.314545 300.360553 
" clip-path="url(#pebf7981160)" style="fill: none; stroke: #2ca02c; stroke-width: 1.2; stroke-linecap: square"/>
   </g>
   <g id="line2d_14">
    <path d="M 87.605455 302.513116 
L 89.20407 301.818784 
L 92.401301 300.040377 
L 93.999916 300.005987 
L 95.598532 301.823697 
L 98.795762 301.807321 
L 100.394378 301.989092 
L 103.591609 303.241019 
L 105.190224 303.545608 
L 106.788839 303.654506 
L 108.387455 304.740219 
L 109.98607 304.545348 
L 111.584686 303.57754 
L 114.781917 303.130482 
L 116.380532 303.460454 
L 117.979147 303.958277 
L 119.577763 302.411586 
L 121.176378 302.023481 
L 122.774994 301.430678 
L 125.972224 303.232831 
L 127.57084 303.444078 
L 129.169455 303.290146 
L 130.768071 303.977928 
L 132.366686 304.923628 
L 133.965302 304.971117 
L 135.563917 303.810895 
L 137.162532 303.408051 
L 138.761148 303.417877 
L 140.359763 304.128585 
L 141.958379 305.148794 
L 143.556994 305.317465 
L 145.155609 304.967842 
L 146.754225 304.306262 
L 148.35284 304.00331 
L 149.951456 304.194907 
L 151.550071 303.925525 
L 153.148686 303.49648 
L 154.747302 303.275408 
L 156.345917 302.929879 
L 157.944533 301.081875 
L 159.543148 296.431159 
L 161.141764 277.94129 
L 162.740379 232.141568 
L 164.338994 221.870692 
L 165.93761 212.77887 
L 167.536225 78.851365 
L 169.134841 61.923284 
L 170.733456 121.349734 
L 172.332071 209.96224 
L 173.930687 264.539369 
L 175.529302 284.976316 
L 177.127918 291.936013 
L 178.726533 295.51903 
L 180.325148 298.17354 
L 181.923764 299.69321 
L 183.522379 300.372804 
L 185.120995 301.25382 
L 186.71961 301.736905 
L 189.916841 301.710704 
L 191.515456 301.84171 
L 193.114072 302.378016 
L 194.712687 304.056531 
L 196.311303 304.553536 
L 197.909918 301.429041 
L 199.508533 299.911008 
L 204.30438 299.775089 
L 205.902995 300.531649 
L 207.50161 300.459596 
L 209.100226 300.202497 
L 210.698841 300.127168 
L 212.297457 301.203055 
L 213.896072 301.658301 
L 215.494688 300.728158 
L 217.093303 301.058949 
L 218.691918 301.098251 
L 220.290534 300.793661 
L 221.889149 301.072049 
L 223.487765 301.985817 
L 225.08638 303.257394 
L 226.684995 303.516131 
L 228.283611 303.521044 
L 229.882226 303.340911 
L 231.480842 304.311174 
L 233.079457 304.782796 
L 234.678073 303.897687 
L 236.276688 303.47683 
L 237.875303 303.297515 
L 239.473919 302.812792 
L 241.072534 302.906134 
L 242.67115 303.633218 
L 244.269765 303.955002 
L 247.466996 302.477089 
L 249.065611 302.549143 
L 250.664227 302.863557 
L 252.262842 302.902859 
L 253.861457 302.811155 
L 255.460073 303.243475 
L 257.058688 304.644421 
L 263.45315 302.473814 
L 265.051765 302.670323 
L 266.650381 302.562243 
L 268.248996 303.092818 
L 269.847612 303.046147 
L 271.446227 303.319622 
L 274.643458 303.489111 
L 276.242073 302.965087 
L 277.840689 302.850457 
L 281.037919 302.781679 
L 282.636535 303.377756 
L 284.23515 304.448731 
L 285.833766 304.44218 
L 287.432381 303.194348 
L 289.030997 302.925785 
L 290.629612 303.03714 
L 292.228227 302.824256 
L 297.024074 302.742377 
L 298.622689 303.274589 
L 300.221304 304.191631 
L 301.81992 304.404516 
L 303.418535 303.905056 
L 305.017151 303.271314 
L 306.615766 304.717293 
L 308.214381 305.843966 
L 309.812997 304.081914 
L 311.411612 303.081355 
L 313.010228 303.448172 
L 316.207459 303.599648 
L 317.806074 303.864116 
L 319.404689 303.887042 
L 321.003305 303.516131 
L 322.60192 303.581634 
L 324.200536 303.493205 
L 325.799151 303.679889 
L 327.397766 304.97644 
L 328.996382 305.843966 
L 330.594997 305.190553 
L 332.193613 303.6586 
L 333.792228 303.114925 
L 335.390844 303.689714 
L 336.989459 303.702815 
L 338.588074 303.055972 
L 340.18669 303.032228 
L 341.785305 303.381031 
L 343.383921 303.360562 
L 344.982536 303.095274 
L 346.581151 302.997839 
L 349.778382 302.514754 
L 351.376998 302.655585 
L 352.975613 303.119019 
L 356.172844 305.843966 
L 357.771459 304.729575 
L 359.370075 302.716176 
L 360.96869 302.251104 
L 362.567306 302.503291 
L 364.165921 302.627746 
L 365.764536 302.614646 
L 367.363152 303.166509 
L 368.961767 304.216195 
L 370.560383 303.808439 
L 372.158998 303.125569 
L 373.757613 303.282777 
L 375.356229 303.7937 
L 378.55346 303.259032 
L 380.152075 303.460454 
L 381.75069 304.177712 
L 383.349306 304.156423 
L 384.947921 303.59146 
L 388.145152 303.41542 
L 389.743768 302.979825 
L 391.342383 302.879933 
L 394.539614 303.159959 
L 396.138229 303.048603 
L 397.736845 303.433434 
L 400.934075 304.039337 
L 402.532691 304.014773 
L 404.131306 303.331904 
L 405.729922 302.912685 
L 407.328537 303.127207 
L 413.722999 302.522942 
L 415.321614 302.536042 
L 418.518845 303.264763 
L 420.11746 303.135395 
L 421.716076 302.719451 
L 423.314691 302.552418 
L 424.913307 302.906134 
L 426.511922 302.961812 
L 428.110537 303.14522 
L 429.709153 302.899584 
L 432.906384 303.418696 
L 434.504999 302.719451 
L 436.103615 303.141945 
L 437.70223 304.242396 
L 439.300845 303.644681 
L 440.899461 302.835719 
L 442.498076 302.804605 
L 445.695307 303.159959 
L 447.293922 303.471098 
L 452.089769 303.127207 
L 455.286999 303.033865 
L 456.885615 302.92251 
L 458.48423 302.942161 
L 460.082846 303.164871 
L 463.280077 303.326173 
L 466.477307 303.08463 
L 468.075923 302.837356 
L 469.674538 302.840631 
L 471.273154 303.004389 
L 472.871769 302.562243 
L 474.470384 302.256017 
L 476.069 302.750565 
L 479.266231 303.254938 
L 480.864846 303.796157 
L 482.463461 304.592019 
L 484.062077 304.589562 
L 485.660692 303.962371 
L 487.259308 301.825334 
L 488.857923 287.018373 
L 490.456539 240.486654 
L 492.055154 182.136551 
L 493.653769 175.167028 
L 495.252385 233.674339 
L 496.851 272.177023 
L 498.449616 292.954586 
L 500.048231 300.089504 
L 501.646846 302.881571 
L 504.844077 304.542891 
L 506.442693 305.088204 
L 508.041308 304.505227 
L 509.639923 303.765043 
L 511.238539 303.771593 
L 512.837154 304.417617 
L 514.43577 305.229854 
L 516.034385 304.649334 
L 517.633001 304.28743 
L 520.830231 304.191631 
L 522.428847 304.56418 
L 524.027462 304.755776 
L 525.626078 303.019127 
L 528.823308 282.349644 
L 530.421924 294.749369 
L 532.020539 294.12054 
L 533.619155 297.15333 
L 535.21777 301.655026 
L 536.816385 302.824256 
L 538.415001 303.710184 
L 540.013616 303.885405 
L 544.809463 302.961812 
L 548.006693 302.971637 
L 549.605309 302.555693 
L 551.203924 302.413224 
L 552.80254 301.751643 
L 554.401155 300.407194 
L 555.99977 295.360185 
L 557.598386 283.581101 
L 559.197001 254.785967 
L 560.795617 188.948866 
L 562.394232 103.663914 
L 563.992848 69.156915 
L 565.591463 127.74283 
L 567.190078 105.838615 
L 568.788694 127.53322 
L 570.387309 162.538042 
L 571.985925 151.27152 
L 573.58454 186.040531 
L 575.183155 260.556784 
L 576.781771 254.176789 
L 578.380386 278.694575 
L 579.979002 296.404958 
L 581.577617 301.438866 
L 583.176232 303.636493 
L 586.373463 304.142504 
L 587.972079 304.931816 
L 589.570694 305.535262 
L 591.16931 304.926084 
L 592.767925 302.843906 
L 594.36654 296.832365 
L 595.965156 296.791426 
L 597.563771 294.659302 
L 599.162387 288.159763 
L 600.761002 276.906342 
L 602.359617 271.115874 
L 603.958233 276.172708 
L 605.556848 270.048174 
L 607.155464 280.30595 
L 608.754079 294.72153 
L 610.352694 301.376638 
L 611.95131 302.748108 
L 613.549925 303.876398 
L 615.148541 303.962371 
L 616.747156 304.564999 
L 621.543002 303.304884 
L 623.141618 303.26722 
L 624.740233 302.988013 
L 626.338849 302.974912 
L 627.937464 303.378575 
L 631.134695 303.281958 
L 632.73331 303.503031 
L 634.331926 303.24675 
L 635.930541 302.558968 
L 639.127772 301.715617 
L 640.726387 298.1195 
L 642.325003 293.960057 
L 643.923618 282.559254 
L 645.522234 258.794753 
L 647.120849 197.935883 
L 648.719464 180.119057 
L 650.31808 183.551416 
L 651.916695 156.040141 
L 653.515311 160.468146 
L 655.113926 188.660653 
L 656.712541 230.215778 
L 658.311157 260.163766 
L 659.909772 280.777571 
L 661.508388 290.491672 
L 663.107003 294.926227 
L 664.705619 298.024521 
L 666.304234 299.996162 
L 667.902849 300.231973 
L 669.501465 301.126089 
L 671.10008 297.988494 
L 672.698696 291.710028 
L 674.297311 282.408597 
L 675.895926 269.687908 
L 677.494542 241.613307 
L 679.093157 207.538628 
L 680.691773 233.530232 
L 682.290388 247.587183 
L 683.889003 259.718346 
L 685.487619 280.515559 
L 687.086234 294.965529 
L 688.68485 296.377119 
L 690.283465 296.553977 
L 693.480696 301.964528 
L 695.079311 303.89523 
L 696.677927 302.631022 
L 698.276542 302.211802 
L 699.875158 302.676874 
L 701.473773 302.791504 
L 703.072388 302.549143 
L 706.269619 301.129364 
L 707.868235 299.344407 
L 709.46685 293.36398 
L 711.065465 280.600713 
L 712.664081 248.242214 
L 714.262696 246.742194 
L 715.861312 276.677081 
L 717.459927 294.150016 
L 719.058543 300.150094 
L 720.657158 301.713979 
L 722.255773 302.175775 
L 723.854389 301.856448 
L 725.453004 302.21344 
L 727.05162 302.365734 
L 728.650235 302.942161 
L 730.24885 303.349917 
L 731.847466 302.881571 
L 733.446081 302.223265 
L 735.044697 300.896829 
L 736.643312 299.83568 
L 738.241927 299.770176 
L 739.840543 299.111871 
L 741.439158 298.620598 
L 743.037774 300.959057 
L 744.636389 299.190475 
L 746.235005 296.039779 
L 747.83362 293.629267 
L 749.432235 286.620442 
L 751.030851 263.078651 
L 752.629466 226.128389 
L 754.228082 214.233038 
L 755.826697 224.110896 
L 757.425312 161.804408 
L 759.023928 203.778753 
L 760.622543 188.844061 
L 762.221159 211.298502 
L 763.819774 246.827348 
L 765.41839 286.053841 
L 767.017005 292.335582 
L 768.61562 292.951311 
L 770.214236 296.865117 
L 771.812851 296.960096 
L 773.411467 296.603105 
L 775.010082 299.969961 
L 776.608697 301.155566 
L 781.404544 302.173319 
L 783.003159 303.663513 
L 784.601774 304.284154 
L 786.20039 304.73285 
L 787.799005 304.614945 
L 789.397621 304.757414 
L 790.996236 305.152888 
L 792.594852 304.481482 
L 794.193467 304.17198 
L 797.390698 305.243774 
L 800.587929 305.440283 
L 802.186544 305.255237 
L 803.785159 304.67881 
L 806.98239 304.216195 
L 808.581006 303.88868 
L 811.778236 303.009302 
L 813.376852 302.256017 
L 814.975467 301.211243 
L 816.574083 298.804007 
L 818.172698 290.259136 
L 819.771314 273.133367 
L 822.968544 244.49544 
L 824.56716 61.923284 
L 827.764391 61.923284 
L 829.363006 88.703021 
L 830.961621 216.669751 
L 832.560237 253.410403 
L 834.158852 277.581023 
L 835.757468 288.104086 
L 837.356083 295.564882 
L 838.954698 297.850938 
L 840.553314 299.134797 
L 842.151929 299.983061 
L 843.750545 301.090063 
L 845.34916 300.895191 
L 846.947776 301.471618 
L 848.546391 301.730355 
L 850.145006 301.710704 
L 851.743622 302.034944 
L 853.342237 302.80788 
L 856.539468 301.966166 
L 859.736699 301.964528 
L 862.93393 301.142465 
L 864.532545 301.188317 
L 866.131161 301.371726 
L 867.729776 301.006546 
L 869.328391 300.525099 
L 870.927007 299.676835 
L 872.525622 299.499976 
L 874.124238 299.187199 
L 875.722853 295.057233 
L 877.321468 292.119422 
L 878.920084 283.911892 
L 880.518699 267.722816 
L 882.117315 273.421581 
L 883.71593 284.19683 
L 885.314545 283.148781 
L 885.314545 283.148781 
" clip-path="url(#pebf7981160)" style="fill: none; stroke: #000000; stroke-width: 1.2; stroke-linecap: square"/>
   </g>
   <g id="line2d_15">
    <path d="M 87.605455 289.674679 
L 89.20407 286.383242 
L 90.802685 283.859334 
L 92.401301 283.608122 
L 93.999916 284.931604 
L 95.598532 260.148733 
L 97.197147 273.707638 
L 98.795762 281.836801 
L 100.394378 284.158082 
L 101.992993 274.197056 
L 103.591609 268.905046 
L 105.190224 275.62562 
L 106.788839 267.971837 
L 108.387455 268.189794 
L 109.98607 268.229688 
L 111.584686 280.01707 
L 113.183301 274.334048 
L 114.781917 270.675175 
L 116.380532 271.374841 
L 117.979147 268.784808 
L 119.577763 270.132694 
L 121.176378 241.635199 
L 122.774994 269.49594 
L 124.373609 278.302683 
L 125.972224 277.13252 
L 127.57084 271.768245 
L 129.169455 267.07906 
L 130.768071 258.959881 
L 132.366686 278.133045 
L 133.965302 275.660471 
L 135.563917 275.751866 
L 137.162532 273.303578 
L 138.761148 266.344065 
L 140.359763 269.490432 
L 141.958379 278.880162 
L 143.556994 261.429507 
L 145.155609 257.37745 
L 146.754225 264.818176 
L 148.35284 254.572342 
L 149.951456 265.208565 
L 151.550071 271.456983 
L 153.148686 272.464427 
L 154.747302 259.26695 
L 156.345917 273.160533 
L 157.944533 268.520336 
L 159.543148 251.26008 
L 161.141764 252.930501 
L 162.740379 196.889054 
L 164.338994 182.363677 
L 165.93761 61.923284 
L 167.536225 122.063716 
L 169.134841 186.466103 
L 170.733456 206.477031 
L 172.332071 245.503385 
L 173.930687 242.459675 
L 175.529302 258.960803 
L 177.127918 259.198953 
L 178.726533 252.919865 
L 180.325148 264.17354 
L 181.923764 260.778675 
L 183.522379 254.267569 
L 185.120995 256.075084 
L 186.71961 274.926418 
L 188.318226 273.262874 
L 189.916841 270.154848 
L 191.515456 263.440847 
L 193.114072 262.073409 
L 194.712687 282.437002 
L 196.311303 277.084299 
L 197.909918 277.446258 
L 199.508533 270.376244 
L 201.107149 281.81033 
L 202.705764 270.872355 
L 204.30438 271.710289 
L 205.902995 267.058406 
L 207.50161 272.707645 
L 209.100226 256.621365 
L 210.698841 262.873568 
L 212.297457 251.149974 
L 213.896072 253.151186 
L 215.494688 267.591238 
L 217.093303 274.122913 
L 218.691918 276.83784 
L 220.290534 275.172999 
L 221.889149 282.98484 
L 223.487765 272.159619 
L 225.08638 265.143818 
L 226.684995 276.908782 
L 228.283611 263.202889 
L 229.882226 267.427377 
L 231.480842 270.840485 
L 233.079457 268.351061 
L 234.678073 268.096289 
L 236.276688 285.094428 
L 237.875303 273.414063 
L 239.473919 271.913874 
L 241.072534 275.744154 
L 242.67115 286.730254 
L 244.269765 282.79782 
L 245.86838 281.641709 
L 247.466996 283.091699 
L 249.065611 283.597037 
L 250.664227 284.814665 
L 252.262842 287.382978 
L 253.861457 293.427602 
L 255.460073 282.519111 
L 257.058688 284.940518 
L 258.657304 288.947774 
L 260.255919 283.762871 
L 261.854535 291.527087 
L 263.45315 285.658668 
L 265.051765 296.52304 
L 266.650381 277.381308 
L 268.248996 292.419092 
L 269.847612 284.695886 
L 271.446227 271.818171 
L 273.044842 293.251195 
L 274.643458 290.900018 
L 276.242073 295.821834 
L 277.840689 294.785296 
L 279.439304 295.903054 
L 281.037919 295.235092 
L 282.636535 287.682885 
L 284.23515 293.468966 
L 285.833766 279.488613 
L 287.432381 273.556926 
L 289.030997 279.043601 
L 290.629612 294.529617 
L 292.228227 291.709417 
L 293.826843 294.806834 
L 295.425458 296.21524 
L 297.024074 287.005335 
L 298.622689 302.133274 
L 300.221304 300.171769 
L 301.81992 296.885197 
L 303.418535 297.95985 
L 305.017151 288.5635 
L 306.615766 285.665607 
L 308.214381 270.044391 
L 309.812997 282.658368 
L 311.411612 279.712854 
L 313.010228 272.872868 
L 314.608843 259.01549 
L 316.207459 243.644562 
L 317.806074 232.613131 
L 319.404689 278.400457 
L 321.003305 267.076475 
L 324.200536 234.154363 
L 325.799151 265.552933 
L 327.397766 273.5377 
L 328.996382 276.209549 
L 330.594997 279.319154 
L 332.193613 263.407259 
L 333.792228 261.502161 
L 335.390844 292.270483 
L 336.989459 287.452246 
L 338.588074 265.582059 
L 340.18669 293.605365 
L 341.785305 260.539179 
L 343.383921 266.926837 
L 344.982536 285.181182 
L 346.581151 253.79906 
L 348.179767 258.7322 
L 349.778382 275.128137 
L 351.376998 262.591504 
L 352.975613 284.203996 
L 354.574228 284.508338 
L 356.172844 278.441402 
L 357.771459 244.450634 
L 359.370075 240.652498 
L 360.96869 204.186771 
L 362.567306 267.500054 
L 364.165921 240.157642 
L 365.764536 261.116379 
L 367.363152 262.818369 
L 368.961767 232.582258 
L 370.560383 251.980625 
L 372.158998 256.62452 
L 373.757613 280.721545 
L 375.356229 290.714632 
L 376.954844 271.439296 
L 378.55346 272.213339 
L 380.152075 272.510088 
L 381.75069 267.274172 
L 383.349306 246.630019 
L 384.947921 274.33529 
L 386.546537 215.952518 
L 388.145152 280.687082 
L 389.743768 285.176999 
L 391.342383 288.816325 
L 392.940998 263.367785 
L 394.539614 302.053226 
L 396.138229 299.409744 
L 397.736845 287.839689 
L 399.33546 261.730364 
L 400.934075 294.967076 
L 402.532691 287.336149 
L 404.131306 246.240749 
L 405.729922 223.616072 
L 407.328537 282.683022 
L 408.927152 296.157262 
L 410.525768 264.527809 
L 412.124383 286.185001 
L 413.722999 280.511715 
L 415.321614 291.434108 
L 416.92023 265.235944 
L 418.518845 242.535652 
L 420.11746 271.21055 
L 421.716076 281.914941 
L 423.314691 270.281313 
L 424.913307 265.431211 
L 426.511922 209.598932 
L 428.110537 300.930814 
L 429.709153 261.437763 
L 431.307768 281.905559 
L 432.906384 254.480769 
L 434.504999 274.506214 
L 436.103615 239.686944 
M 615.148541 265.854779 
L 616.747156 243.895168 
L 618.345772 275.897667 
L 619.944387 280.491234 
L 621.543002 272.537213 
L 623.141618 252.202902 
L 624.740233 260.596005 
L 626.338849 188.435945 
L 627.937464 201.377347 
L 629.536079 265.289787 
L 631.134695 209.818535 
L 632.73331 280.08747 
L 634.331926 290.848145 
L 635.930541 277.381281 
L 637.529156 277.515772 
L 639.127772 229.440492 
L 640.726387 261.960108 
L 642.325003 241.758134 
L 643.923618 247.042791 
L 645.522234 241.61683 
L 647.120849 179.638575 
L 648.719464 218.756223 
L 651.916695 66.5441 
L 653.515311 161.94003 
L 655.113926 220.327321 
L 656.712541 234.678957 
L 658.311157 227.176656 
L 659.909772 242.989325 
L 661.508388 260.953705 
L 663.107003 265.064228 
L 664.705619 268.149253 
L 666.304234 286.938449 
L 667.902849 262.907905 
L 669.501465 281.585613 
L 671.10008 281.079615 
L 672.698696 255.727255 
L 674.297311 250.385003 
L 675.895926 239.384951 
L 677.494542 163.424181 
L 679.093157 137.008643 
L 680.691773 61.923284 
L 682.290388 145.089902 
L 683.889003 211.768653 
L 685.487619 255.251352 
L 687.086234 259.597522 
L 688.68485 229.81595 
L 690.283465 257.071894 
L 691.882081 266.250787 
L 693.480696 225.985784 
L 695.079311 219.930196 
L 696.677927 249.301484 
L 698.276542 248.061397 
L 699.875158 271.145416 
L 701.473773 250.177227 
L 703.072388 254.857573 
L 704.671004 243.105971 
L 706.269619 262.147389 
L 707.868235 247.588072 
L 709.46685 243.023217 
L 711.065465 201.928038 
L 712.664081 132.005328 
L 714.262696 139.997719 
L 715.861312 196.795122 
L 717.459927 242.178868 
L 719.058543 234.404385 
L 720.657158 222.935224 
L 722.255773 208.343069 
L 723.854389 218.701557 
L 725.453004 212.176443 
L 727.05162 231.042051 
L 728.650235 228.760054 
L 730.24885 223.505485 
L 731.847466 233.354525 
L 733.446081 260.630722 
L 735.044697 247.97933 
L 736.643312 247.985836 
L 738.241927 227.055113 
L 739.840543 255.092957 
L 741.439158 267.86982 
L 743.037774 263.996568 
L 744.636389 265.235264 
L 746.235005 249.568312 
L 747.83362 245.495616 
L 749.432235 260.692637 
L 751.030851 240.15106 
L 752.629466 223.839017 
L 754.228082 162.398178 
L 755.826697 61.923284 
L 757.425312 116.488194 
L 759.023928 75.066139 
L 760.622543 150.014827 
L 762.221159 139.941654 
L 763.819774 211.230832 
L 765.41839 242.635087 
L 767.017005 245.089501 
L 768.61562 232.284332 
L 770.214236 137.309 
L 771.812851 204.74122 
L 773.411467 256.059877 
L 775.010082 256.892227 
L 776.608697 262.026784 
L 779.805928 218.067267 
L 781.404544 235.282733 
L 783.003159 239.760159 
L 784.601774 256.300699 
L 786.20039 239.818123 
L 787.799005 259.770804 
L 789.397621 254.818622 
L 790.996236 260.961174 
L 792.594852 269.70339 
L 794.193467 217.804884 
L 795.792082 225.379749 
L 797.390698 209.881331 
L 798.989313 243.997796 
L 800.587929 263.663733 
L 802.186544 256.305562 
L 803.785159 240.802015 
L 805.383775 244.034676 
L 806.98239 237.553049 
L 808.581006 237.291179 
L 810.179621 238.058771 
L 811.778236 226.63969 
L 813.376852 251.860041 
L 814.975467 263.569087 
L 816.574083 264.397695 
L 818.172698 277.84175 
L 819.771314 256.986569 
L 821.369929 239.035161 
L 822.968544 61.923284 
L 824.56716 145.741613 
L 826.165775 129.213454 
L 827.764391 206.244372 
L 829.363006 182.373001 
L 830.961621 208.433111 
L 832.560237 182.253344 
L 834.158852 233.601126 
L 835.757468 233.741431 
L 837.356083 260.860495 
L 840.553314 225.968453 
L 842.151929 228.477453 
L 843.750545 223.896 
L 845.34916 224.698006 
L 846.947776 244.471623 
L 848.546391 266.058599 
L 850.145006 246.129848 
L 851.743622 253.940854 
L 853.342237 218.868835 
L 854.940853 243.098316 
L 856.539468 264.263225 
L 858.138083 256.923422 
L 859.736699 256.916695 
L 861.335314 240.688744 
L 862.93393 248.536066 
L 864.532545 232.460484 
L 866.131161 245.647988 
L 869.328391 230.646758 
L 870.927007 246.876409 
L 872.525622 206.447731 
L 874.124238 153.609419 
L 875.722853 233.118696 
L 877.321468 272.972705 
L 878.920084 253.189962 
L 880.518699 253.833275 
L 882.117315 249.338503 
L 883.71593 256.063071 
L 885.314545 266.679276 
L 885.314545 266.679276 
" clip-path="url(#pebf7981160)" style="fill: none; stroke: #ff7f0e; stroke-width: 1.2; stroke-linecap: square"/>
   </g>
   <g id="line2d_16">
    <path d="M 87.605455 305.843966 
L 89.20407 305.843966 
L 90.802685 305.709213 
L 92.401301 305.221497 
L 93.999916 305.843966 
L 95.598532 304.526317 
L 97.197147 303.557539 
L 98.795762 303.686673 
L 100.394378 303.41445 
L 101.992993 291.565015 
L 103.591609 291.006548 
L 105.190224 277.685278 
L 106.788839 284.563922 
L 109.98607 280.990931 
L 111.584686 295.382933 
L 113.183301 291.852793 
L 114.781917 287.598791 
L 116.380532 299.525526 
L 117.979147 283.825479 
L 119.577763 284.726465 
L 121.176378 278.941301 
L 122.774994 291.765223 
L 124.373609 285.28129 
L 125.972224 289.744797 
L 127.57084 290.6816 
L 129.169455 287.674143 
L 130.768071 286.158357 
L 132.366686 287.057169 
L 133.965302 287.793209 
L 135.563917 288.373758 
L 137.162532 300.274034 
L 138.761148 285.035915 
L 140.359763 289.39144 
L 141.958379 276.165698 
L 143.556994 276.658067 
L 145.155609 277.685727 
L 146.754225 286.613551 
L 148.35284 270.409509 
L 149.951456 280.143591 
L 151.550071 283.29635 
L 153.148686 290.467331 
L 154.747302 270.186938 
L 156.345917 278.875656 
L 157.944533 271.681985 
L 159.543148 255.595325 
L 162.740379 188.736391 
L 164.338994 198.324532 
L 165.93761 65.477273 
L 167.536225 102.193569 
L 169.134841 187.042652 
L 170.733456 239.904336 
L 172.332071 256.898713 
L 173.930687 275.764764 
L 175.529302 267.685175 
L 177.127918 278.042339 
L 178.726533 285.073556 
L 180.325148 286.401524 
L 181.923764 287.968085 
L 183.522379 282.51461 
L 185.120995 282.245947 
L 186.71961 285.775009 
L 188.318226 294.584082 
L 189.916841 295.630567 
L 191.515456 289.324414 
L 193.114072 282.485465 
L 194.712687 286.889094 
L 196.311303 281.99946 
L 197.909918 273.642421 
L 199.508533 290.583093 
L 201.107149 296.850537 
L 202.705764 294.773408 
L 204.30438 296.268671 
L 205.902995 296.413469 
L 207.50161 286.919408 
L 209.100226 290.532633 
L 210.698841 285.635185 
L 212.297457 277.900548 
L 213.896072 275.097053 
L 215.494688 283.272362 
L 217.093303 295.342181 
L 218.691918 288.821463 
L 220.290534 278.902189 
L 221.889149 291.024716 
L 223.487765 284.659545 
L 225.08638 285.016685 
L 226.684995 281.101536 
L 228.283611 284.592602 
L 229.882226 280.726784 
L 231.480842 278.681469 
L 233.079457 292.046497 
L 234.678073 280.193155 
L 236.276688 305.843966 
L 237.875303 290.731785 
L 239.473919 297.071653 
L 241.072534 292.791668 
L 242.67115 302.155938 
L 244.269765 292.307231 
L 245.86838 298.700289 
L 247.466996 293.6842 
L 249.065611 296.840558 
L 250.664227 301.660887 
L 252.262842 294.571713 
L 253.861457 300.355487 
L 255.460073 295.780357 
L 257.058688 293.776011 
L 258.657304 297.099959 
L 260.255919 292.016603 
L 261.854535 303.327469 
L 263.45315 297.61946 
L 265.051765 303.792993 
L 268.248996 305.843966 
L 269.847612 291.207998 
L 271.446227 298.840358 
L 273.044842 293.004812 
L 274.643458 302.989531 
L 276.242073 299.669976 
L 277.840689 305.608256 
L 279.439304 305.843966 
L 281.037919 304.363245 
L 282.636535 299.431079 
L 284.23515 286.410366 
L 285.833766 294.385605 
L 287.432381 295.568666 
L 289.030997 295.043654 
L 290.629612 303.663091 
L 292.228227 299.392026 
L 293.826843 305.843966 
L 297.024074 297.579928 
L 298.622689 305.843966 
L 300.221304 298.086986 
L 301.81992 293.058803 
L 303.418535 292.335303 
L 305.017151 293.40704 
L 306.615766 289.612283 
L 308.214381 289.64713 
L 309.812997 304.294168 
L 311.411612 304.254388 
L 313.010228 300.706679 
L 314.608843 295.764517 
L 316.207459 290.179922 
L 317.806074 293.533044 
L 319.404689 295.181839 
L 321.003305 302.859299 
L 322.60192 303.592247 
L 324.200536 296.341028 
L 325.799151 302.541167 
L 327.397766 298.52644 
L 328.996382 300.105452 
L 330.594997 292.434587 
L 332.193613 300.38406 
L 333.792228 298.338352 
L 335.390844 305.843966 
L 336.989459 305.843966 
L 338.588074 305.670045 
L 340.18669 301.369999 
L 343.383921 294.586177 
L 344.982536 303.895534 
L 346.581151 295.356505 
L 348.179767 295.271667 
L 349.778382 295.385619 
L 351.376998 299.795773 
L 352.975613 298.885086 
L 354.574228 291.98195 
L 356.172844 297.670384 
L 357.771459 296.845051 
L 359.370075 294.14178 
L 360.96869 286.140788 
L 362.567306 295.822914 
L 364.165921 294.914213 
L 365.764536 296.324859 
L 367.363152 277.36589 
L 368.961767 268.234267 
L 370.560383 297.415514 
L 372.158998 290.586495 
L 373.757613 270.691788 
L 375.356229 278.646178 
L 376.954844 283.562097 
L 378.55346 304.618284 
L 380.152075 281.911024 
L 381.75069 290.405612 
L 383.349306 276.67575 
L 384.947921 290.716518 
L 386.546537 261.254087 
L 388.145152 277.805387 
L 389.743768 277.104122 
L 391.342383 280.688585 
L 392.940998 293.40516 
L 394.539614 297.630663 
L 396.138229 294.942573 
L 397.736845 292.698397 
L 399.33546 280.972235 
L 400.934075 305.843966 
L 402.532691 271.193901 
L 404.131306 296.296215 
L 405.729922 296.792789 
L 407.328537 304.669344 
L 408.927152 287.820344 
L 410.525768 305.843966 
L 412.124383 286.115509 
L 413.722999 295.695912 
L 415.321614 288.667133 
L 416.92023 283.580481 
L 418.518845 271.991412 
L 420.11746 249.618781 
L 421.716076 267.185851 
L 423.314691 288.212852 
L 424.913307 265.446721 
L 426.511922 263.113916 
L 428.110537 243.614534 
L 429.709153 280.182957 
L 431.307768 292.455877 
L 432.906384 293.208247 
L 434.504999 290.251441 
L 436.103615 301.915523 
M 615.148541 241.913898 
L 616.747156 241.267836 
L 618.345772 271.615356 
L 619.944387 262.616107 
L 621.543002 269.61608 
L 623.141618 261.10494 
L 624.740233 280.310062 
L 626.338849 268.863517 
L 627.937464 255.494129 
L 629.536079 264.245318 
L 631.134695 279.672499 
L 632.73331 282.20508 
L 634.331926 304.020116 
L 635.930541 279.971682 
L 637.529156 260.791994 
L 639.127772 251.888949 
L 640.726387 253.275203 
L 642.325003 262.364646 
L 645.522234 230.773733 
L 647.120849 199.985666 
L 648.719464 151.711168 
L 650.31808 84.932456 
L 651.916695 122.721412 
L 653.515311 155.476127 
L 655.113926 198.573127 
L 656.712541 230.173539 
L 658.311157 210.806333 
L 659.909772 257.864092 
L 661.508388 258.36322 
L 663.107003 261.019352 
L 664.705619 259.041932 
L 666.304234 253.122307 
L 667.902849 265.87377 
L 669.501465 276.385954 
L 671.10008 265.233051 
L 672.698696 259.323577 
L 674.297311 243.815746 
L 675.895926 255.510699 
L 677.494542 202.45071 
L 679.093157 140.107546 
L 680.691773 88.398524 
L 682.290388 117.083367 
L 683.889003 156.498011 
L 685.487619 215.915465 
L 688.68485 231.214211 
L 690.283465 244.254659 
L 691.882081 272.983192 
L 693.480696 249.578129 
L 695.079311 250.053466 
L 696.677927 265.140129 
L 698.276542 260.321358 
L 699.875158 260.04204 
L 701.473773 248.675172 
L 703.072388 271.434233 
L 704.671004 256.743473 
L 706.269619 252.69891 
L 707.868235 251.526921 
L 709.46685 235.564238 
L 711.065465 194.765894 
L 712.664081 119.383842 
L 714.262696 110.734536 
L 715.861312 204.737715 
L 717.459927 236.920304 
L 719.058543 234.498246 
L 720.657158 235.365181 
L 722.255773 232.384331 
L 723.854389 227.363687 
L 725.453004 240.41734 
L 727.05162 244.575345 
L 728.650235 241.22226 
L 730.24885 236.655696 
L 731.847466 238.080669 
L 733.446081 260.594948 
L 735.044697 263.312259 
L 736.643312 261.893475 
L 738.241927 259.27871 
L 739.840543 272.659184 
L 741.439158 269.993679 
L 743.037774 262.900276 
L 744.636389 276.053507 
L 746.235005 272.775048 
L 747.83362 279.640798 
L 749.432235 276.01216 
L 751.030851 263.869736 
L 752.629466 237.026424 
L 754.228082 197.609769 
L 755.826697 195.131671 
L 757.425312 76.806444 
L 759.023928 65.206316 
L 760.622543 141.680691 
L 762.221159 61.923284 
L 765.41839 185.559084 
L 767.017005 181.895122 
L 768.61562 192.393351 
L 770.214236 180.98119 
L 771.812851 196.292507 
L 773.411467 241.496184 
L 775.010082 256.224511 
L 776.608697 228.144047 
L 778.207313 239.527099 
L 779.805928 227.877935 
L 781.404544 226.228756 
L 783.003159 233.926283 
L 784.601774 230.457886 
L 786.20039 220.079003 
L 787.799005 225.034298 
L 789.397621 241.927293 
L 790.996236 252.922234 
L 792.594852 276.804784 
L 794.193467 248.386173 
L 795.792082 233.782027 
L 797.390698 223.390748 
L 798.989313 223.699575 
L 800.587929 259.03582 
L 802.186544 245.887437 
L 803.785159 228.063083 
L 805.383775 238.43401 
L 806.98239 241.518341 
L 808.581006 248.226733 
L 810.179621 253.809435 
L 811.778236 253.54539 
L 813.376852 261.299479 
L 814.975467 262.045851 
L 816.574083 249.684985 
L 818.172698 268.050898 
L 819.771314 259.366675 
L 821.369929 225.027828 
L 822.968544 152.264992 
L 824.56716 109.080922 
L 826.165775 140.600787 
L 827.764391 180.385449 
L 829.363006 199.722155 
L 830.961621 200.928319 
L 832.560237 241.797196 
L 835.757468 259.085832 
L 837.356083 274.043613 
L 838.954698 272.08136 
L 840.553314 263.998136 
L 842.151929 246.932969 
L 843.750545 264.383265 
L 845.34916 261.12384 
L 846.947776 280.14807 
L 848.546391 277.062445 
L 850.145006 272.651338 
L 851.743622 272.276071 
L 853.342237 248.935653 
L 856.539468 281.4328 
L 858.138083 277.872956 
L 861.335314 267.618028 
L 862.93393 276.309106 
L 864.532545 262.66633 
L 866.131161 265.969706 
L 867.729776 263.525488 
L 869.328391 248.482011 
L 870.927007 254.84746 
L 872.525622 237.798057 
L 874.124238 232.764214 
L 875.722853 259.957556 
L 877.321468 276.210395 
L 878.920084 213.387537 
L 880.518699 221.444076 
L 882.117315 209.161465 
L 883.71593 230.428639 
L 885.314545 247.144344 
L 885.314545 247.144344 
" clip-path="url(#pebf7981160)" style="fill: none; stroke-dasharray: 4.44,1.92; stroke-dashoffset: 0; stroke: #9467bd; stroke-width: 1.2"/>
   </g>
   <g id="patch_3">
    <path d="M 47.72 318.04 
L 47.72 49.72725 
" style="fill: none; stroke: #000000; stroke-width: 0.8; stroke-linejoin: miter; stroke-linecap: square"/>
   </g>
   <g id="patch_4">
    <path d="M 925.2 318.04 
L 925.2 49.72725 
" style="fill: none; stroke: #000000; stroke-width: 0.8; stroke-linejoin: miter; stroke-linecap: square"/>
   </g>
   <g id="patch_5">
    <path d="M 47.72 318.04 
L 925.2 318.04 
" style="fill: none; stroke: #000000; stroke-width: 0.8; stroke-linejoin: miter; stroke-linecap: square"/>
   </g>
   <g id="patch_6">
    <path d="M 47.72 49.72725 
L 925.2 49.72725 
" style="fill: none; stroke: #000000; stroke-width: 0.8; stroke-linejoin: miter; stroke-linecap: square"/>
   </g>
   <g id="legend_1">
    <g id="line2d_17">
     <path d="M 366.215469 62.825688 
L 376.215469 62.825688 
L 386.215469 62.825688 
" style="fill: none; stroke: #2ca02c; stroke-width: 1.2; stroke-linecap: square"/>
    </g>
    <g id="text_16">
     <!-- ENCSR203XPU -->
     <g transform="translate(394.215469 66.325688) scale(0.1 -0.1)">
      <defs>
       <path id="DejaVuSans-45" d="M 628 4666 
L 3578 4666 
L 3578 4134 
L 1259 4134 
L 1259 2753 
L 3481 2753 
L 3481 2222 
L 1259 2222 
L 1259 531 
L 3634 531 
L 3634 0 
L 628 0 
L 628 4666 
z
" transform="scale(0.015625)"/>
       <path id="DejaVuSans-4e" d="M 628 4666 
L 1478 4666 
L 3547 763 
L 3547 4666 
L 4159 4666 
L 4159 0 
L 3309 0 
L 1241 3903 
L 1241 0 
L 628 0 
L 628 4666 
z
" transform="scale(0.015625)"/>
       <path id="DejaVuSans-43" d="M 4122 4306 
L 4122 3641 
Q 3803 3938 3442 4084 
Q 3081 4231 2675 4231 
Q 1875 4231 1450 3742 
Q 1025 3253 1025 2328 
Q 1025 1406 1450 917 
Q 1875 428 2675 428 
Q 3081 428 3442 575 
Q 3803 722 4122 1019 
L 4122 359 
Q 3791 134 3420 21 
Q 3050 -91 2638 -91 
Q 1578 -91 968 557 
Q 359 1206 359 2328 
Q 359 3453 968 4101 
Q 1578 4750 2638 4750 
Q 3056 4750 3426 4639 
Q 3797 4528 4122 4306 
z
" transform="scale(0.015625)"/>
       <path id="DejaVuSans-53" d="M 3425 4513 
L 3425 3897 
Q 3066 4069 2747 4153 
Q 2428 4238 2131 4238 
Q 1616 4238 1336 4038 
Q 1056 3838 1056 3469 
Q 1056 3159 1242 3001 
Q 1428 2844 1947 2747 
L 2328 2669 
Q 3034 2534 3370 2195 
Q 3706 1856 3706 1288 
Q 3706 609 3251 259 
Q 2797 -91 1919 -91 
Q 1588 -91 1214 -16 
Q 841 59 441 206 
L 441 856 
Q 825 641 1194 531 
Q 1563 422 1919 422 
Q 2459 422 2753 634 
Q 3047 847 3047 1241 
Q 3047 1584 2836 1778 
Q 2625 1972 2144 2069 
L 1759 2144 
Q 1053 2284 737 2584 
Q 422 2884 422 3419 
Q 422 4038 858 4394 
Q 1294 4750 2059 4750 
Q 2388 4750 2728 4690 
Q 3069 4631 3425 4513 
z
" transform="scale(0.015625)"/>
       <path id="DejaVuSans-52" d="M 2841 2188 
Q 3044 2119 3236 1894 
Q 3428 1669 3622 1275 
L 4263 0 
L 3584 0 
L 2988 1197 
Q 2756 1666 2539 1819 
Q 2322 1972 1947 1972 
L 1259 1972 
L 1259 0 
L 628 0 
L 628 4666 
L 2053 4666 
Q 2853 4666 3247 4331 
Q 3641 3997 3641 3322 
Q 3641 2881 3436 2590 
Q 3231 2300 2841 2188 
z
M 1259 4147 
L 1259 2491 
L 2053 2491 
Q 2509 2491 2742 2702 
Q 2975 2913 2975 3322 
Q 2975 3731 2742 3939 
Q 2509 4147 2053 4147 
L 1259 4147 
z
" transform="scale(0.015625)"/>
       <path id="DejaVuSans-58" d="M 403 4666 
L 1081 4666 
L 2241 2931 
L 3406 4666 
L 4084 4666 
L 2584 2425 
L 4184 0 
L 3506 0 
L 2194 1984 
L 872 0 
L 191 0 
L 1856 2491 
L 403 4666 
z
" transform="scale(0.015625)"/>
       <path id="DejaVuSans-50" d="M 1259 4147 
L 1259 2394 
L 2053 2394 
Q 2494 2394 2734 2622 
Q 2975 2850 2975 3272 
Q 2975 3691 2734 3919 
Q 2494 4147 2053 4147 
L 1259 4147 
z
M 628 4666 
L 2053 4666 
Q 2838 4666 3239 4311 
Q 3641 3956 3641 3272 
Q 3641 2581 3239 2228 
Q 2838 1875 2053 1875 
L 1259 1875 
L 1259 0 
L 628 0 
L 628 4666 
z
" transform="scale(0.015625)"/>
       <path id="DejaVuSans-55" d="M 556 4666 
L 1191 4666 
L 1191 1831 
Q 1191 1081 1462 751 
Q 1734 422 2344 422 
Q 2950 422 3222 751 
Q 3494 1081 3494 1831 
L 3494 4666 
L 4128 4666 
L 4128 1753 
Q 4128 841 3676 375 
Q 3225 -91 2344 -91 
Q 1459 -91 1007 375 
Q 556 841 556 1753 
L 556 4666 
z
" transform="scale(0.015625)"/>
      </defs>
      <use xlink:href="#DejaVuSans-45"/>
      <use xlink:href="#DejaVuSans-4e" transform="translate(63.183594 0)"/>
      <use xlink:href="#DejaVuSans-43" transform="translate(137.988281 0)"/>
      <use xlink:href="#DejaVuSans-53" transform="translate(207.8125 0)"/>
      <use xlink:href="#DejaVuSans-52" transform="translate(271.289062 0)"/>
      <use xlink:href="#DejaVuSans-32" transform="translate(340.771484 0)"/>
      <use xlink:href="#DejaVuSans-30" transform="translate(404.394531 0)"/>
      <use xlink:href="#DejaVuSans-33" transform="translate(468.017578 0)"/>
      <use xlink:href="#DejaVuSans-58" transform="translate(531.640625 0)"/>
      <use xlink:href="#DejaVuSans-50" transform="translate(600.146484 0)"/>
      <use xlink:href="#DejaVuSans-55" transform="translate(660.449219 0)"/>
     </g>
    </g>
    <g id="line2d_18">
     <path d="M 366.215469 77.503813 
L 376.215469 77.503813 
L 386.215469 77.503813 
" style="fill: none; stroke: #000000; stroke-width: 1.2; stroke-linecap: square"/>
    </g>
    <g id="text_17">
     <!-- AlphaGenome -->
     <g transform="translate(394.215469 81.003813) scale(0.1 -0.1)">
      <defs>
       <path id="DejaVuSans-41" d="M 2188 4044 
L 1331 1722 
L 3047 1722 
L 2188 4044 
z
M 1831 4666 
L 2547 4666 
L 4325 0 
L 3669 0 
L 3244 1197 
L 1141 1197 
L 716 0 
L 50 0 
L 1831 4666 
z
" transform="scale(0.015625)"/>
       <path id="DejaVuSans-70" d="M 1159 525 
L 1159 -1331 
L 581 -1331 
L 581 3500 
L 1159 3500 
L 1159 2969 
Q 1341 3281 1617 3432 
Q 1894 3584 2278 3584 
Q 2916 3584 3314 3078 
Q 3713 2572 3713 1747 
Q 3713 922 3314 415 
Q 2916 -91 2278 -91 
Q 1894 -91 1617 61 
Q 1341 213 1159 525 
z
M 3116 1747 
Q 3116 2381 2855 2742 
Q 2594 3103 2138 3103 
Q 1681 3103 1420 2742 
Q 1159 2381 1159 1747 
Q 1159 1113 1420 752 
Q 1681 391 2138 391 
Q 2594 391 2855 752 
Q 3116 1113 3116 1747 
z
" transform="scale(0.015625)"/>
       <path id="DejaVuSans-47" d="M 3809 666 
L 3809 1919 
L 2778 1919 
L 2778 2438 
L 4434 2438 
L 4434 434 
Q 4069 175 3628 42 
Q 3188 -91 2688 -91 
Q 1594 -91 976 548 
Q 359 1188 359 2328 
Q 359 3472 976 4111 
Q 1594 4750 2688 4750 
Q 3144 4750 3555 4637 
Q 3966 4525 4313 4306 
L 4313 3634 
Q 3963 3931 3569 4081 
Q 3175 4231 2741 4231 
Q 1884 4231 1454 3753 
Q 1025 3275 1025 2328 
Q 1025 1384 1454 906 
Q 1884 428 2741 428 
Q 3075 428 3337 486 
Q 3600 544 3809 666 
z
" transform="scale(0.015625)"/>
      </defs>
      <use xlink:href="#DejaVuSans-41"/>
      <use xlink:href="#DejaVuSans-6c" transform="translate(68.408203 0)"/>
      <use xlink:href="#DejaVuSans-70" transform="translate(96.191406 0)"/>
      <use xlink:href="#DejaVuSans-68" transform="translate(159.667969 0)"/>
      <use xlink:href="#DejaVuSans-61" transform="translate(223.046875 0)"/>
      <use xlink:href="#DejaVuSans-47" transform="translate(284.326172 0)"/>
      <use xlink:href="#DejaVuSans-65" transform="translate(361.816406 0)"/>
      <use xlink:href="#DejaVuSans-6e" transform="translate(423.339844 0)"/>
      <use xlink:href="#DejaVuSans-6f" transform="translate(486.71875 0)"/>
      <use xlink:href="#DejaVuSans-6d" transform="translate(547.900391 0)"/>
      <use xlink:href="#DejaVuSans-65" transform="translate(645.3125 0)"/>
     </g>
    </g>
    <g id="line2d_19">
     <path d="M 487.581094 62.825688 
L 497.581094 62.825688 
L 507.581094 62.825688 
" style="fill: none; stroke: #ff7f0e; stroke-width: 1.2; stroke-linecap: square"/>
    </g>
    <g id="text_18">
     <!-- DiMeLo pooled -->
     <g transform="translate(515.581094 66.325688) scale(0.1 -0.1)">
      <defs>
       <path id="DejaVuSans-44" d="M 1259 4147 
L 1259 519 
L 2022 519 
Q 2988 519 3436 956 
Q 3884 1394 3884 2338 
Q 3884 3275 3436 3711 
Q 2988 4147 2022 4147 
L 1259 4147 
z
M 628 4666 
L 1925 4666 
Q 3281 4666 3915 4102 
Q 4550 3538 4550 2338 
Q 4550 1131 3912 565 
Q 3275 0 1925 0 
L 628 0 
L 628 4666 
z
" transform="scale(0.015625)"/>
       <path id="DejaVuSans-4d" d="M 628 4666 
L 1569 4666 
L 2759 1491 
L 3956 4666 
L 4897 4666 
L 4897 0 
L 4281 0 
L 4281 4097 
L 3078 897 
L 2444 897 
L 1241 4097 
L 1241 0 
L 628 0 
L 628 4666 
z
" transform="scale(0.015625)"/>
       <path id="DejaVuSans-4c" d="M 628 4666 
L 1259 4666 
L 1259 531 
L 3531 531 
L 3531 0 
L 628 0 
L 628 4666 
z
" transform="scale(0.015625)"/>
      </defs>
      <use xlink:href="#DejaVuSans-44"/>
      <use xlink:href="#DejaVuSans-69" transform="translate(77.001953 0)"/>
      <use xlink:href="#DejaVuSans-4d" transform="translate(104.785156 0)"/>
      <use xlink:href="#DejaVuSans-65" transform="translate(191.064453 0)"/>
      <use xlink:href="#DejaVuSans-4c" transform="translate(252.587891 0)"/>
      <use xlink:href="#DejaVuSans-6f" transform="translate(306.550781 0)"/>
      <use xlink:href="#DejaVuSans-20" transform="translate(367.732422 0)"/>
      <use xlink:href="#DejaVuSans-70" transform="translate(399.519531 0)"/>
      <use xlink:href="#DejaVuSans-6f" transform="translate(462.996094 0)"/>
      <use xlink:href="#DejaVuSans-6f" transform="translate(524.177734 0)"/>
      <use xlink:href="#DejaVuSans-6c" transform="translate(585.359375 0)"/>
      <use xlink:href="#DejaVuSans-65" transform="translate(613.142578 0)"/>
      <use xlink:href="#DejaVuSans-64" transform="translate(674.666016 0)"/>
     </g>
    </g>
    <g id="line2d_20">
     <path d="M 487.581094 77.503813 
L 497.581094 77.503813 
L 507.581094 77.503813 
" style="fill: none; stroke-dasharray: 4.44,1.92; stroke-dashoffset: 0; stroke: #9467bd; stroke-width: 1.2"/>
    </g>
    <g id="text_19">
     <!-- HyenaDNA pooled -->
     <g transform="translate(515.581094 81.003813) scale(0.1 -0.1)">
      <defs>
       <path id="DejaVuSans-48" d="M 628 4666 
L 1259 4666 
L 1259 2753 
L 3553 2753 
L 3553 4666 
L 4184 4666 
L 4184 0 
L 3553 0 
L 3553 2222 
L 1259 2222 
L 1259 0 
L 628 0 
L 628 4666 
z
" transform="scale(0.015625)"/>
       <path id="DejaVuSans-79" d="M 2059 -325 
Q 1816 -950 1584 -1140 
Q 1353 -1331 966 -1331 
L 506 -1331 
L 506 -850 
L 844 -850 
Q 1081 -850 1212 -737 
Q 1344 -625 1503 -206 
L 1606 56 
L 191 3500 
L 800 3500 
L 1894 763 
L 2988 3500 
L 3597 3500 
L 2059 -325 
z
" transform="scale(0.015625)"/>
      </defs>
      <use xlink:href="#DejaVuSans-48"/>
      <use xlink:href="#DejaVuSans-79" transform="translate(75.195312 0)"/>
      <use xlink:href="#DejaVuSans-65" transform="translate(134.375 0)"/>
      <use xlink:href="#DejaVuSans-6e" transform="translate(195.898438 0)"/>
      <use xlink:href="#DejaVuSans-61" transform="translate(259.277344 0)"/>
      <use xlink:href="#DejaVuSans-44" transform="translate(320.556641 0)"/>
      <use xlink:href="#DejaVuSans-4e" transform="translate(397.558594 0)"/>
      <use xlink:href="#DejaVuSans-41" transform="translate(472.363281 0)"/>
      <use xlink:href="#DejaVuSans-20" transform="translate(540.771484 0)"/>
      <use xlink:href="#DejaVuSans-70" transform="translate(572.558594 0)"/>
      <use xlink:href="#DejaVuSans-6f" transform="translate(636.035156 0)"/>
      <use xlink:href="#DejaVuSans-6f" transform="translate(697.216797 0)"/>
      <use xlink:href="#DejaVuSans-6c" transform="translate(758.398438 0)"/>
      <use xlink:href="#DejaVuSans-65" transform="translate(786.181641 0)"/>
      <use xlink:href="#DejaVuSans-64" transform="translate(847.705078 0)"/>
     </g>
    </g>
   </g>
  </g>
  <g id="text_20">
   <!-- chr16 region 11: overlay -->
   <g transform="translate(394.170938 16.318125) scale(0.12 -0.12)">
    <defs>
     <path id="DejaVuSans-3a" d="M 750 794 
L 1409 794 
L 1409 0 
L 750 0 
L 750 794 
z
M 750 3309 
L 1409 3309 
L 1409 2516 
L 750 2516 
L 750 3309 
z
" transform="scale(0.015625)"/>
     <path id="DejaVuSans-76" d="M 191 3500 
L 800 3500 
L 1894 563 
L 2988 3500 
L 3597 3500 
L 2284 0 
L 1503 0 
L 191 3500 
z
" transform="scale(0.015625)"/>
    </defs>
    <use xlink:href="#DejaVuSans-63"/>
    <use xlink:href="#DejaVuSans-68" transform="translate(54.980469 0)"/>
    <use xlink:href="#DejaVuSans-72" transform="translate(118.359375 0)"/>
    <use xlink:href="#DejaVuSans-31" transform="translate(159.472656 0)"/>
    <use xlink:href="#DejaVuSans-36" transform="translate(223.095703 0)"/>
    <use xlink:href="#DejaVuSans-20" transform="translate(286.71875 0)"/>
    <use xlink:href="#DejaVuSans-72" transform="translate(318.505859 0)"/>
    <use xlink:href="#DejaVuSans-65" transform="translate(357.369141 0)"/>
    <use xlink:href="#DejaVuSans-67" transform="translate(418.892578 0)"/>
    <use xlink:href="#DejaVuSans-69" transform="translate(482.369141 0)"/>
    <use xlink:href="#DejaVuSans-6f" transform="translate(510.152344 0)"/>
    <use xlink:href="#DejaVuSans-6e" transform="translate(571.333984 0)"/>
    <use xlink:href="#DejaVuSans-20" transform="translate(634.712891 0)"/>
    <use xlink:href="#DejaVuSans-31" transform="translate(666.5 0)"/>
    <use xlink:href="#DejaVuSans-31" transform="translate(730.123047 0)"/>
    <use xlink:href="#DejaVuSans-3a" transform="translate(793.746094 0)"/>
    <use xlink:href="#DejaVuSans-20" transform="translate(827.4375 0)"/>
    <use xlink:href="#DejaVuSans-6f" transform="translate(859.224609 0)"/>
    <use xlink:href="#DejaVuSans-76" transform="translate(920.40625 0)"/>
    <use xlink:href="#DejaVuSans-65" transform="translate(979.585938 0)"/>
    <use xlink:href="#DejaVuSans-72" transform="translate(1041.109375 0)"/>
    <use xlink:href="#DejaVuSans-6c" transform="translate(1082.222656 0)"/>
    <use xlink:href="#DejaVuSans-61" transform="translate(1110.005859 0)"/>
    <use xlink:href="#DejaVuSans-79" transform="translate(1171.285156 0)"/>
   </g>
   <!-- chr16_rank12_score3.555_reads441 -->
   <g transform="translate(359.357813 29.7555) scale(0.12 -0.12)">
    <defs>
     <path id="DejaVuSans-5f" d="M 3263 -1063 
L 3263 -1509 
L -63 -1509 
L -63 -1063 
L 3263 -1063 
z
" transform="scale(0.015625)"/>
     <path id="DejaVuSans-6b" d="M 581 4863 
L 1159 4863 
L 1159 1991 
L 2875 3500 
L 3609 3500 
L 1753 1863 
L 3688 0 
L 2938 0 
L 1159 1709 
L 1159 0 
L 581 0 
L 581 4863 
z
" transform="scale(0.015625)"/>
     <path id="DejaVuSans-35" d="M 691 4666 
L 3169 4666 
L 3169 4134 
L 1269 4134 
L 1269 2991 
Q 1406 3038 1543 3061 
Q 1681 3084 1819 3084 
Q 2600 3084 3056 2656 
Q 3513 2228 3513 1497 
Q 3513 744 3044 326 
Q 2575 -91 1722 -91 
Q 1428 -91 1123 -41 
Q 819 9 494 109 
L 494 744 
Q 775 591 1075 516 
Q 1375 441 1709 441 
Q 2250 441 2565 725 
Q 2881 1009 2881 1497 
Q 2881 1984 2565 2268 
Q 2250 2553 1709 2553 
Q 1456 2553 1204 2497 
Q 953 2441 691 2322 
L 691 4666 
z
" transform="scale(0.015625)"/>
    </defs>
    <use xlink:href="#DejaVuSans-63"/>
    <use xlink:href="#DejaVuSans-68" transform="translate(54.980469 0)"/>
    <use xlink:href="#DejaVuSans-72" transform="translate(118.359375 0)"/>
    <use xlink:href="#DejaVuSans-31" transform="translate(159.472656 0)"/>
    <use xlink:href="#DejaVuSans-36" transform="translate(223.095703 0)"/>
    <use xlink:href="#DejaVuSans-5f" transform="translate(286.71875 0)"/>
    <use xlink:href="#DejaVuSans-72" transform="translate(336.71875 0)"/>
    <use xlink:href="#DejaVuSans-61" transform="translate(377.832031 0)"/>
    <use xlink:href="#DejaVuSans-6e" transform="translate(439.111328 0)"/>
    <use xlink:href="#DejaVuSans-6b" transform="translate(502.490234 0)"/>
    <use xlink:href="#DejaVuSans-31" transform="translate(560.400391 0)"/>
    <use xlink:href="#DejaVuSans-32" transform="translate(624.023438 0)"/>
    <use xlink:href="#DejaVuSans-5f" transform="translate(687.646484 0)"/>
    <use xlink:href="#DejaVuSans-73" transform="translate(737.646484 0)"/>
    <use xlink:href="#DejaVuSans-63" transform="translate(789.746094 0)"/>
    <use xlink:href="#DejaVuSans-6f" transform="translate(844.726562 0)"/>
    <use xlink:href="#DejaVuSans-72" transform="translate(905.908203 0)"/>
    <use xlink:href="#DejaVuSans-65" transform="translate(944.771484 0)"/>
    <use xlink:href="#DejaVuSans-33" transform="translate(1006.294922 0)"/>
    <use xlink:href="#DejaVuSans-2e" transform="translate(1069.917969 0)"/>
    <use xlink:href="#DejaVuSans-35" transform="translate(1101.705078 0)"/>
    <use xlink:href="#DejaVuSans-35" transform="translate(1165.328125 0)"/>
    <use xlink:href="#DejaVuSans-35" transform="translate(1228.951172 0)"/>
    <use xlink:href="#DejaVuSans-5f" transform="translate(1292.574219 0)"/>
    <use xlink:href="#DejaVuSans-72" transform="translate(1342.574219 0)"/>
    <use xlink:href="#DejaVuSans-65" transform="translate(1381.4375 0)"/>
    <use xlink:href="#DejaVuSans-61" transform="translate(1442.960938 0)"/>
    <use xlink:href="#DejaVuSans-64" transform="translate(1504.240234 0)"/>
    <use xlink:href="#DejaVuSans-73" transform="translate(1567.716797 0)"/>
    <use xlink:href="#DejaVuSans-34" transform="translate(1619.816406 0)"/>
    <use xlink:href="#DejaVuSans-34" transform="translate(1683.439453 0)"/>
    <use xlink:href="#DejaVuSans-31" transform="translate(1747.0625 0)"/>
   </g>
  </g>
 </g>
 <defs>
  <clipPath id="pebf7981160">
   <rect x="47.72" y="49.72725" width="877.48" height="268.31275"/>
  </clipPath>
 </defs>
</svg>
