<?xml version="1.0" encoding="utf-8" standalone="no"?>
<!DOCTYPE svg PUBLIC "-//W3C//DTD SVG 1.1//EN"
  "http://www.w3.org/Graphics/SVG/1.1/DTD/svg11.dtd">
<svg xmlns:xlink="http://www.w3.org/1999/xlink" width="936pt" height="360pt" viewBox="0 0 936 360" xmlns="http://www.w3.org/2000/svg" version="1.1">
 <metadata>
  <rdf:RDF xmlns:dc="http://purl.org/dc/elements/1.1/" xmlns:cc="http://creativecommons.org/ns#" xmlns:rdf="http://www.w3.org/1999/02/22-rdf-syntax-ns#">
   <cc:Work>
    <dc:type rdf:resource="http://purl.org/dc/dcmitype/StillImage"/>
    <dc:date>2026-07-17T20:22:16.006099</dc:date>
    <dc:format>image/svg+xml</dc:format>
    <dc:creator>
     <cc:Agent>
      <dc:title>Matplotlib v3.10.8, https://matplotlib.org/</dc:title>
     </cc:Agent>
    </dc:creator>
   </cc:Work>
  </rdf:RDF>
 </metadata>
 <defs>
  <style type="text/css">*{stroke-linejoin: round; stroke-linecap: butt}</style>
 </defs>
 <g id="figure_1">
  <g id="patch_1">
   <path d="M 0 360 
L 936 360 
L 936 0 
L 0 0 
z
" style="fill: #ffffff"/>
  </g>
  <g id="axes_1">
   <g id="patch_2">
    <path d="M 47.72 318.04 
L 925.2 318.04 
L 925.2 49.72725 
L 47.72 49.72725 
z
" style="fill: #ffffff"/>
   </g>
   <g id="matplotlib.axis_1">
    <g id="xtick_1">
     <g id="line2d_1">
      <defs>
       <path id="m7e9cb816e6" d="M 0 0 
L 0 3.5 
" style="stroke: #000000; stroke-width: 0.8"/>
      </defs>
      <g>
       <use xlink:href="#m7e9cb816e6" x="86.806147" y="318.04" style="stroke: #000000; stroke-width: 0.8"/>
      </g>
     </g>
     <g id="text_1">
      <!-- 8.550 -->
      <g transform="translate(72.492084 332.638438) scale(0.1 -0.1)">
       <defs>
        <path id="DejaVuSans-38" d="M 2034 2216 
Q 1584 2216 1326 1975 
Q 1069 1734 1069 1313 
Q 1069 891 1326 650 
Q 1584 409 2034 409 
Q 2484 409 2743 651 
Q 3003 894 3003 1313 
Q 3003 1734 2745 1975 
Q 2488 2216 2034 2216 
z
M 1403 2484 
Q 997 2584 770 2862 
Q 544 3141 544 3541 
Q 544 4100 942 4425 
Q 1341 4750 2034 4750 
Q 2731 4750 3128 4425 
Q 3525 4100 3525 3541 
Q 3525 3141 3298 2862 
Q 3072 2584 2669 2484 
Q 3125 2378 3379 2068 
Q 3634 1759 3634 1313 
Q 3634 634 3220 271 
Q 2806 -91 2034 -91 
Q 1263 -91 848 271 
Q 434 634 434 1313 
Q 434 1759 690 2068 
Q 947 2378 1403 2484 
z
M 1172 3481 
Q 1172 3119 1398 2916 
Q 1625 2713 2034 2713 
Q 2441 2713 2670 2916 
Q 2900 3119 2900 3481 
Q 2900 3844 2670 4047 
Q 2441 4250 2034 4250 
Q 1625 4250 1398 4047 
Q 1172 3844 1172 3481 
z
" transform="scale(0.015625)"/>
        <path id="DejaVuSans-2e" d="M 684 794 
L 1344 794 
L 1344 0 
L 684 0 
L 684 794 
z
" transform="scale(0.015625)"/>
        <path id="DejaVuSans-35" d="M 691 4666 
L 3169 4666 
L 3169 4134 
L 1269 4134 
L 1269 2991 
Q 1406 3038 1543 3061 
Q 1681 3084 1819 3084 
Q 2600 3084 3056 2656 
Q 3513 2228 3513 1497 
Q 3513 744 3044 326 
Q 2575 -91 1722 -91 
Q 1428 -91 1123 -41 
Q 819 9 494 109 
L 494 744 
Q 775 591 1075 516 
Q 1375 441 1709 441 
Q 2250 441 2565 725 
Q 2881 1009 2881 1497 
Q 2881 1984 2565 2268 
Q 2250 2553 1709 2553 
Q 1456 2553 1204 2497 
Q 953 2441 691 2322 
L 691 4666 
z
" transform="scale(0.015625)"/>
        <path id="DejaVuSans-30" d="M 2034 4250 
Q 1547 4250 1301 3770 
Q 1056 3291 1056 2328 
Q 1056 1369 1301 889 
Q 1547 409 2034 409 
Q 2525 409 2770 889 
Q 3016 1369 3016 2328 
Q 3016 3291 2770 3770 
Q 2525 4250 2034 4250 
z
M 2034 4750 
Q 2819 4750 3233 4129 
Q 3647 3509 3647 2328 
Q 3647 1150 3233 529 
Q 2819 -91 2034 -91 
Q 1250 -91 836 529 
Q 422 1150 422 2328 
Q 422 3509 836 4129 
Q 1250 4750 2034 4750 
z
" transform="scale(0.015625)"/>
       </defs>
       <use xlink:href="#DejaVuSans-38"/>
       <use xlink:href="#DejaVuSans-2e" transform="translate(63.623047 0)"/>
       <use xlink:href="#DejaVuSans-35" transform="translate(95.410156 0)"/>
       <use xlink:href="#DejaVuSans-35" transform="translate(159.033203 0)"/>
       <use xlink:href="#DejaVuSans-30" transform="translate(222.65625 0)"/>
      </g>
     </g>
    </g>
    <g id="xtick_2">
     <g id="line2d_2">
      <g>
       <use xlink:href="#m7e9cb816e6" x="246.667688" y="318.04" style="stroke: #000000; stroke-width: 0.8"/>
      </g>
     </g>
     <g id="text_2">
      <!-- 8.552 -->
      <g transform="translate(232.353626 332.638438) scale(0.1 -0.1)">
       <defs>
        <path id="DejaVuSans-32" d="M 1228 531 
L 3431 531 
L 3431 0 
L 469 0 
L 469 531 
Q 828 903 1448 1529 
Q 2069 2156 2228 2338 
Q 2531 2678 2651 2914 
Q 2772 3150 2772 3378 
Q 2772 3750 2511 3984 
Q 2250 4219 1831 4219 
Q 1534 4219 1204 4116 
Q 875 4013 500 3803 
L 500 4441 
Q 881 4594 1212 4672 
Q 1544 4750 1819 4750 
Q 2544 4750 2975 4387 
Q 3406 4025 3406 3419 
Q 3406 3131 3298 2873 
Q 3191 2616 2906 2266 
Q 2828 2175 2409 1742 
Q 1991 1309 1228 531 
z
" transform="scale(0.015625)"/>
       </defs>
       <use xlink:href="#DejaVuSans-38"/>
       <use xlink:href="#DejaVuSans-2e" transform="translate(63.623047 0)"/>
       <use xlink:href="#DejaVuSans-35" transform="translate(95.410156 0)"/>
       <use xlink:href="#DejaVuSans-35" transform="translate(159.033203 0)"/>
       <use xlink:href="#DejaVuSans-32" transform="translate(222.65625 0)"/>
      </g>
     </g>
    </g>
    <g id="xtick_3">
     <g id="line2d_3">
      <g>
       <use xlink:href="#m7e9cb816e6" x="406.529229" y="318.04" style="stroke: #000000; stroke-width: 0.8"/>
      </g>
     </g>
     <g id="text_3">
      <!-- 8.554 -->
      <g transform="translate(392.215167 332.638438) scale(0.1 -0.1)">
       <defs>
        <path id="DejaVuSans-34" d="M 2419 4116 
L 825 1625 
L 2419 1625 
L 2419 4116 
z
M 2253 4666 
L 3047 4666 
L 3047 1625 
L 3713 1625 
L 3713 1100 
L 3047 1100 
L 3047 0 
L 2419 0 
L 2419 1100 
L 313 1100 
L 313 1709 
L 2253 4666 
z
" transform="scale(0.015625)"/>
       </defs>
       <use xlink:href="#DejaVuSans-38"/>
       <use xlink:href="#DejaVuSans-2e" transform="translate(63.623047 0)"/>
       <use xlink:href="#DejaVuSans-35" transform="translate(95.410156 0)"/>
       <use xlink:href="#DejaVuSans-35" transform="translate(159.033203 0)"/>
       <use xlink:href="#DejaVuSans-34" transform="translate(222.65625 0)"/>
      </g>
     </g>
    </g>
    <g id="xtick_4">
     <g id="line2d_4">
      <g>
       <use xlink:href="#m7e9cb816e6" x="566.390771" y="318.04" style="stroke: #000000; stroke-width: 0.8"/>
      </g>
     </g>
     <g id="text_4">
      <!-- 8.556 -->
      <g transform="translate(552.076708 332.638438) scale(0.1 -0.1)">
       <defs>
        <path id="DejaVuSans-36" d="M 2113 2584 
Q 1688 2584 1439 2293 
Q 1191 2003 1191 1497 
Q 1191 994 1439 701 
Q 1688 409 2113 409 
Q 2538 409 2786 701 
Q 3034 994 3034 1497 
Q 3034 2003 2786 2293 
Q 2538 2584 2113 2584 
z
M 3366 4563 
L 3366 3988 
Q 3128 4100 2886 4159 
Q 2644 4219 2406 4219 
Q 1781 4219 1451 3797 
Q 1122 3375 1075 2522 
Q 1259 2794 1537 2939 
Q 1816 3084 2150 3084 
Q 2853 3084 3261 2657 
Q 3669 2231 3669 1497 
Q 3669 778 3244 343 
Q 2819 -91 2113 -91 
Q 1303 -91 875 529 
Q 447 1150 447 2328 
Q 447 3434 972 4092 
Q 1497 4750 2381 4750 
Q 2619 4750 2861 4703 
Q 3103 4656 3366 4563 
z
" transform="scale(0.015625)"/>
       </defs>
       <use xlink:href="#DejaVuSans-38"/>
       <use xlink:href="#DejaVuSans-2e" transform="translate(63.623047 0)"/>
       <use xlink:href="#DejaVuSans-35" transform="translate(95.410156 0)"/>
       <use xlink:href="#DejaVuSans-35" transform="translate(159.033203 0)"/>
       <use xlink:href="#DejaVuSans-36" transform="translate(222.65625 0)"/>
      </g>
     </g>
    </g>
    <g id="xtick_5">
     <g id="line2d_5">
      <g>
       <use xlink:href="#m7e9cb816e6" x="726.252312" y="318.04" style="stroke: #000000; stroke-width: 0.8"/>
      </g>
     </g>
     <g id="text_5">
      <!-- 8.558 -->
      <g transform="translate(711.938249 332.638438) scale(0.1 -0.1)">
       <use xlink:href="#DejaVuSans-38"/>
       <use xlink:href="#DejaVuSans-2e" transform="translate(63.623047 0)"/>
       <use xlink:href="#DejaVuSans-35" transform="translate(95.410156 0)"/>
       <use xlink:href="#DejaVuSans-35" transform="translate(159.033203 0)"/>
       <use xlink:href="#DejaVuSans-38" transform="translate(222.65625 0)"/>
      </g>
     </g>
    </g>
    <g id="xtick_6">
     <g id="line2d_6">
      <g>
       <use xlink:href="#m7e9cb816e6" x="886.113853" y="318.04" style="stroke: #000000; stroke-width: 0.8"/>
      </g>
     </g>
     <g id="text_6">
      <!-- 8.560 -->
      <g transform="translate(871.799791 332.638438) scale(0.1 -0.1)">
       <use xlink:href="#DejaVuSans-38"/>
       <use xlink:href="#DejaVuSans-2e" transform="translate(63.623047 0)"/>
       <use xlink:href="#DejaVuSans-35" transform="translate(95.410156 0)"/>
       <use xlink:href="#DejaVuSans-36" transform="translate(159.033203 0)"/>
       <use xlink:href="#DejaVuSans-30" transform="translate(222.65625 0)"/>
      </g>
     </g>
    </g>
    <g id="text_7">
     <!-- chr16 coordinate (hg38) -->
     <g transform="translate(425.670156 346.316563) scale(0.1 -0.1)">
      <defs>
       <path id="DejaVuSans-63" d="M 3122 3366 
L 3122 2828 
Q 2878 2963 2633 3030 
Q 2388 3097 2138 3097 
Q 1578 3097 1268 2742 
Q 959 2388 959 1747 
Q 959 1106 1268 751 
Q 1578 397 2138 397 
Q 2388 397 2633 464 
Q 2878 531 3122 666 
L 3122 134 
Q 2881 22 2623 -34 
Q 2366 -91 2075 -91 
Q 1284 -91 818 406 
Q 353 903 353 1747 
Q 353 2603 823 3093 
Q 1294 3584 2113 3584 
Q 2378 3584 2631 3529 
Q 2884 3475 3122 3366 
z
" transform="scale(0.015625)"/>
       <path id="DejaVuSans-68" d="M 3513 2113 
L 3513 0 
L 2938 0 
L 2938 2094 
Q 2938 2591 2744 2837 
Q 2550 3084 2163 3084 
Q 1697 3084 1428 2787 
Q 1159 2491 1159 1978 
L 1159 0 
L 581 0 
L 581 4863 
L 1159 4863 
L 1159 2956 
Q 1366 3272 1645 3428 
Q 1925 3584 2291 3584 
Q 2894 3584 3203 3211 
Q 3513 2838 3513 2113 
z
" transform="scale(0.015625)"/>
       <path id="DejaVuSans-72" d="M 2631 2963 
Q 2534 3019 2420 3045 
Q 2306 3072 2169 3072 
Q 1681 3072 1420 2755 
Q 1159 2438 1159 1844 
L 1159 0 
L 581 0 
L 581 3500 
L 1159 3500 
L 1159 2956 
Q 1341 3275 1631 3429 
Q 1922 3584 2338 3584 
Q 2397 3584 2469 3576 
Q 2541 3569 2628 3553 
L 2631 2963 
z
" transform="scale(0.015625)"/>
       <path id="DejaVuSans-31" d="M 794 531 
L 1825 531 
L 1825 4091 
L 703 3866 
L 703 4441 
L 1819 4666 
L 2450 4666 
L 2450 531 
L 3481 531 
L 3481 0 
L 794 0 
L 794 531 
z
" transform="scale(0.015625)"/>
       <path id="DejaVuSans-20" transform="scale(0.015625)"/>
       <path id="DejaVuSans-6f" d="M 1959 3097 
Q 1497 3097 1228 2736 
Q 959 2375 959 1747 
Q 959 1119 1226 758 
Q 1494 397 1959 397 
Q 2419 397 2687 759 
Q 2956 1122 2956 1747 
Q 2956 2369 2687 2733 
Q 2419 3097 1959 3097 
z
M 1959 3584 
Q 2709 3584 3137 3096 
Q 3566 2609 3566 1747 
Q 3566 888 3137 398 
Q 2709 -91 1959 -91 
Q 1206 -91 779 398 
Q 353 888 353 1747 
Q 353 2609 779 3096 
Q 1206 3584 1959 3584 
z
" transform="scale(0.015625)"/>
       <path id="DejaVuSans-64" d="M 2906 2969 
L 2906 4863 
L 3481 4863 
L 3481 0 
L 2906 0 
L 2906 525 
Q 2725 213 2448 61 
Q 2172 -91 1784 -91 
Q 1150 -91 751 415 
Q 353 922 353 1747 
Q 353 2572 751 3078 
Q 1150 3584 1784 3584 
Q 2172 3584 2448 3432 
Q 2725 3281 2906 2969 
z
M 947 1747 
Q 947 1113 1208 752 
Q 1469 391 1925 391 
Q 2381 391 2643 752 
Q 2906 1113 2906 1747 
Q 2906 2381 2643 2742 
Q 2381 3103 1925 3103 
Q 1469 3103 1208 2742 
Q 947 2381 947 1747 
z
" transform="scale(0.015625)"/>
       <path id="DejaVuSans-69" d="M 603 3500 
L 1178 3500 
L 1178 0 
L 603 0 
L 603 3500 
z
M 603 4863 
L 1178 4863 
L 1178 4134 
L 603 4134 
L 603 4863 
z
" transform="scale(0.015625)"/>
       <path id="DejaVuSans-6e" d="M 3513 2113 
L 3513 0 
L 2938 0 
L 2938 2094 
Q 2938 2591 2744 2837 
Q 2550 3084 2163 3084 
Q 1697 3084 1428 2787 
Q 1159 2491 1159 1978 
L 1159 0 
L 581 0 
L 581 3500 
L 1159 3500 
L 1159 2956 
Q 1366 3272 1645 3428 
Q 1925 3584 2291 3584 
Q 2894 3584 3203 3211 
Q 3513 2838 3513 2113 
z
" transform="scale(0.015625)"/>
       <path id="DejaVuSans-61" d="M 2194 1759 
Q 1497 1759 1228 1600 
Q 959 1441 959 1056 
Q 959 750 1161 570 
Q 1363 391 1709 391 
Q 2188 391 2477 730 
Q 2766 1069 2766 1631 
L 2766 1759 
L 2194 1759 
z
M 3341 1997 
L 3341 0 
L 2766 0 
L 2766 531 
Q 2569 213 2275 61 
Q 1981 -91 1556 -91 
Q 1019 -91 701 211 
Q 384 513 384 1019 
Q 384 1609 779 1909 
Q 1175 2209 1959 2209 
L 2766 2209 
L 2766 2266 
Q 2766 2663 2505 2880 
Q 2244 3097 1772 3097 
Q 1472 3097 1187 3025 
Q 903 2953 641 2809 
L 641 3341 
Q 956 3463 1253 3523 
Q 1550 3584 1831 3584 
Q 2591 3584 2966 3190 
Q 3341 2797 3341 1997 
z
" transform="scale(0.015625)"/>
       <path id="DejaVuSans-74" d="M 1172 4494 
L 1172 3500 
L 2356 3500 
L 2356 3053 
L 1172 3053 
L 1172 1153 
Q 1172 725 1289 603 
Q 1406 481 1766 481 
L 2356 481 
L 2356 0 
L 1766 0 
Q 1100 0 847 248 
Q 594 497 594 1153 
L 594 3053 
L 172 3053 
L 172 3500 
L 594 3500 
L 594 4494 
L 1172 4494 
z
" transform="scale(0.015625)"/>
       <path id="DejaVuSans-65" d="M 3597 1894 
L 3597 1613 
L 953 1613 
Q 991 1019 1311 708 
Q 1631 397 2203 397 
Q 2534 397 2845 478 
Q 3156 559 3463 722 
L 3463 178 
Q 3153 47 2828 -22 
Q 2503 -91 2169 -91 
Q 1331 -91 842 396 
Q 353 884 353 1716 
Q 353 2575 817 3079 
Q 1281 3584 2069 3584 
Q 2775 3584 3186 3129 
Q 3597 2675 3597 1894 
z
M 3022 2063 
Q 3016 2534 2758 2815 
Q 2500 3097 2075 3097 
Q 1594 3097 1305 2825 
Q 1016 2553 972 2059 
L 3022 2063 
z
" transform="scale(0.015625)"/>
       <path id="DejaVuSans-28" d="M 1984 4856 
Q 1566 4138 1362 3434 
Q 1159 2731 1159 2009 
Q 1159 1288 1364 580 
Q 1569 -128 1984 -844 
L 1484 -844 
Q 1016 -109 783 600 
Q 550 1309 550 2009 
Q 550 2706 781 3412 
Q 1013 4119 1484 4856 
L 1984 4856 
z
" transform="scale(0.015625)"/>
       <path id="DejaVuSans-67" d="M 2906 1791 
Q 2906 2416 2648 2759 
Q 2391 3103 1925 3103 
Q 1463 3103 1205 2759 
Q 947 2416 947 1791 
Q 947 1169 1205 825 
Q 1463 481 1925 481 
Q 2391 481 2648 825 
Q 2906 1169 2906 1791 
z
M 3481 434 
Q 3481 -459 3084 -895 
Q 2688 -1331 1869 -1331 
Q 1566 -1331 1297 -1286 
Q 1028 -1241 775 -1147 
L 775 -588 
Q 1028 -725 1275 -790 
Q 1522 -856 1778 -856 
Q 2344 -856 2625 -561 
Q 2906 -266 2906 331 
L 2906 616 
Q 2728 306 2450 153 
Q 2172 0 1784 0 
Q 1141 0 747 490 
Q 353 981 353 1791 
Q 353 2603 747 3093 
Q 1141 3584 1784 3584 
Q 2172 3584 2450 3431 
Q 2728 3278 2906 2969 
L 2906 3500 
L 3481 3500 
L 3481 434 
z
" transform="scale(0.015625)"/>
       <path id="DejaVuSans-33" d="M 2597 2516 
Q 3050 2419 3304 2112 
Q 3559 1806 3559 1356 
Q 3559 666 3084 287 
Q 2609 -91 1734 -91 
Q 1441 -91 1130 -33 
Q 819 25 488 141 
L 488 750 
Q 750 597 1062 519 
Q 1375 441 1716 441 
Q 2309 441 2620 675 
Q 2931 909 2931 1356 
Q 2931 1769 2642 2001 
Q 2353 2234 1838 2234 
L 1294 2234 
L 1294 2753 
L 1863 2753 
Q 2328 2753 2575 2939 
Q 2822 3125 2822 3475 
Q 2822 3834 2567 4026 
Q 2313 4219 1838 4219 
Q 1578 4219 1281 4162 
Q 984 4106 628 3988 
L 628 4550 
Q 988 4650 1302 4700 
Q 1616 4750 1894 4750 
Q 2613 4750 3031 4423 
Q 3450 4097 3450 3541 
Q 3450 3153 3228 2886 
Q 3006 2619 2597 2516 
z
" transform="scale(0.015625)"/>
       <path id="DejaVuSans-29" d="M 513 4856 
L 1013 4856 
Q 1481 4119 1714 3412 
Q 1947 2706 1947 2009 
Q 1947 1309 1714 600 
Q 1481 -109 1013 -844 
L 513 -844 
Q 928 -128 1133 580 
Q 1338 1288 1338 2009 
Q 1338 2731 1133 3434 
Q 928 4138 513 4856 
z
" transform="scale(0.015625)"/>
      </defs>
      <use xlink:href="#DejaVuSans-63"/>
      <use xlink:href="#DejaVuSans-68" transform="translate(54.980469 0)"/>
      <use xlink:href="#DejaVuSans-72" transform="translate(118.359375 0)"/>
      <use xlink:href="#DejaVuSans-31" transform="translate(159.472656 0)"/>
      <use xlink:href="#DejaVuSans-36" transform="translate(223.095703 0)"/>
      <use xlink:href="#DejaVuSans-20" transform="translate(286.71875 0)"/>
      <use xlink:href="#DejaVuSans-63" transform="translate(318.505859 0)"/>
      <use xlink:href="#DejaVuSans-6f" transform="translate(373.486328 0)"/>
      <use xlink:href="#DejaVuSans-6f" transform="translate(434.667969 0)"/>
      <use xlink:href="#DejaVuSans-72" transform="translate(495.849609 0)"/>
      <use xlink:href="#DejaVuSans-64" transform="translate(535.212891 0)"/>
      <use xlink:href="#DejaVuSans-69" transform="translate(598.689453 0)"/>
      <use xlink:href="#DejaVuSans-6e" transform="translate(626.472656 0)"/>
      <use xlink:href="#DejaVuSans-61" transform="translate(689.851562 0)"/>
      <use xlink:href="#DejaVuSans-74" transform="translate(751.130859 0)"/>
      <use xlink:href="#DejaVuSans-65" transform="translate(790.339844 0)"/>
      <use xlink:href="#DejaVuSans-20" transform="translate(851.863281 0)"/>
      <use xlink:href="#DejaVuSans-28" transform="translate(883.650391 0)"/>
      <use xlink:href="#DejaVuSans-68" transform="translate(922.664062 0)"/>
      <use xlink:href="#DejaVuSans-67" transform="translate(986.042969 0)"/>
      <use xlink:href="#DejaVuSans-33" transform="translate(1049.519531 0)"/>
      <use xlink:href="#DejaVuSans-38" transform="translate(1113.142578 0)"/>
      <use xlink:href="#DejaVuSans-29" transform="translate(1176.765625 0)"/>
     </g>
    </g>
    <g id="text_8">
     <!-- 1e7 -->
     <g transform="translate(906.321875 345.316563) scale(0.1 -0.1)">
      <defs>
       <path id="DejaVuSans-37" d="M 525 4666 
L 3525 4666 
L 3525 4397 
L 1831 0 
L 1172 0 
L 2766 4134 
L 525 4134 
L 525 4666 
z
" transform="scale(0.015625)"/>
      </defs>
      <use xlink:href="#DejaVuSans-31"/>
      <use xlink:href="#DejaVuSans-65" transform="translate(63.623047 0)"/>
      <use xlink:href="#DejaVuSans-37" transform="translate(125.146484 0)"/>
     </g>
    </g>
   </g>
   <g id="matplotlib.axis_2">
    <g id="ytick_1">
     <g id="line2d_7">
      <defs>
       <path id="m5c64652c24" d="M 0 0 
L -3.5 0 
" style="stroke: #000000; stroke-width: 0.8"/>
      </defs>
      <g>
       <use xlink:href="#m5c64652c24" x="47.72" y="305.843966" style="stroke: #000000; stroke-width: 0.8"/>
      </g>
     </g>
     <g id="text_9">
      <!-- 0.0 -->
      <g transform="translate(24.816875 309.643185) scale(0.1 -0.1)">
       <use xlink:href="#DejaVuSans-30"/>
       <use xlink:href="#DejaVuSans-2e" transform="translate(63.623047 0)"/>
       <use xlink:href="#DejaVuSans-30" transform="translate(95.410156 0)"/>
      </g>
     </g>
    </g>
    <g id="ytick_2">
     <g id="line2d_8">
      <g>
       <use xlink:href="#m5c64652c24" x="47.72" y="257.05983" style="stroke: #000000; stroke-width: 0.8"/>
      </g>
     </g>
     <g id="text_10">
      <!-- 0.2 -->
      <g transform="translate(24.816875 260.859048) scale(0.1 -0.1)">
       <use xlink:href="#DejaVuSans-30"/>
       <use xlink:href="#DejaVuSans-2e" transform="translate(63.623047 0)"/>
       <use xlink:href="#DejaVuSans-32" transform="translate(95.410156 0)"/>
      </g>
     </g>
    </g>
    <g id="ytick_3">
     <g id="line2d_9">
      <g>
       <use xlink:href="#m5c64652c24" x="47.72" y="208.275693" style="stroke: #000000; stroke-width: 0.8"/>
      </g>
     </g>
     <g id="text_11">
      <!-- 0.4 -->
      <g transform="translate(24.816875 212.074912) scale(0.1 -0.1)">
       <use xlink:href="#DejaVuSans-30"/>
       <use xlink:href="#DejaVuSans-2e" transform="translate(63.623047 0)"/>
       <use xlink:href="#DejaVuSans-34" transform="translate(95.410156 0)"/>
      </g>
     </g>
    </g>
    <g id="ytick_4">
     <g id="line2d_10">
      <g>
       <use xlink:href="#m5c64652c24" x="47.72" y="159.491557" style="stroke: #000000; stroke-width: 0.8"/>
      </g>
     </g>
     <g id="text_12">
      <!-- 0.6 -->
      <g transform="translate(24.816875 163.290776) scale(0.1 -0.1)">
       <use xlink:href="#DejaVuSans-30"/>
       <use xlink:href="#DejaVuSans-2e" transform="translate(63.623047 0)"/>
       <use xlink:href="#DejaVuSans-36" transform="translate(95.410156 0)"/>
      </g>
     </g>
    </g>
    <g id="ytick_5">
     <g id="line2d_11">
      <g>
       <use xlink:href="#m5c64652c24" x="47.72" y="110.70742" style="stroke: #000000; stroke-width: 0.8"/>
      </g>
     </g>
     <g id="text_13">
      <!-- 0.8 -->
      <g transform="translate(24.816875 114.506639) scale(0.1 -0.1)">
       <use xlink:href="#DejaVuSans-30"/>
       <use xlink:href="#DejaVuSans-2e" transform="translate(63.623047 0)"/>
       <use xlink:href="#DejaVuSans-38" transform="translate(95.410156 0)"/>
      </g>
     </g>
    </g>
    <g id="ytick_6">
     <g id="line2d_12">
      <g>
       <use xlink:href="#m5c64652c24" x="47.72" y="61.923284" style="stroke: #000000; stroke-width: 0.8"/>
      </g>
     </g>
     <g id="text_14">
      <!-- 1.0 -->
      <g transform="translate(24.816875 65.722503) scale(0.1 -0.1)">
       <use xlink:href="#DejaVuSans-31"/>
       <use xlink:href="#DejaVuSans-2e" transform="translate(63.623047 0)"/>
       <use xlink:href="#DejaVuSans-30" transform="translate(95.410156 0)"/>
      </g>
     </g>
    </g>
    <g id="text_15">
     <!-- global robust normalized signal -->
     <g transform="translate(18.737188 262.384406) rotate(-90) scale(0.1 -0.1)">
      <defs>
       <path id="DejaVuSans-6c" d="M 603 4863 
L 1178 4863 
L 1178 0 
L 603 0 
L 603 4863 
z
" transform="scale(0.015625)"/>
       <path id="DejaVuSans-62" d="M 3116 1747 
Q 3116 2381 2855 2742 
Q 2594 3103 2138 3103 
Q 1681 3103 1420 2742 
Q 1159 2381 1159 1747 
Q 1159 1113 1420 752 
Q 1681 391 2138 391 
Q 2594 391 2855 752 
Q 3116 1113 3116 1747 
z
M 1159 2969 
Q 1341 3281 1617 3432 
Q 1894 3584 2278 3584 
Q 2916 3584 3314 3078 
Q 3713 2572 3713 1747 
Q 3713 922 3314 415 
Q 2916 -91 2278 -91 
Q 1894 -91 1617 61 
Q 1341 213 1159 525 
L 1159 0 
L 581 0 
L 581 4863 
L 1159 4863 
L 1159 2969 
z
" transform="scale(0.015625)"/>
       <path id="DejaVuSans-75" d="M 544 1381 
L 544 3500 
L 1119 3500 
L 1119 1403 
Q 1119 906 1312 657 
Q 1506 409 1894 409 
Q 2359 409 2629 706 
Q 2900 1003 2900 1516 
L 2900 3500 
L 3475 3500 
L 3475 0 
L 2900 0 
L 2900 538 
Q 2691 219 2414 64 
Q 2138 -91 1772 -91 
Q 1169 -91 856 284 
Q 544 659 544 1381 
z
M 1991 3584 
L 1991 3584 
z
" transform="scale(0.015625)"/>
       <path id="DejaVuSans-73" d="M 2834 3397 
L 2834 2853 
Q 2591 2978 2328 3040 
Q 2066 3103 1784 3103 
Q 1356 3103 1142 2972 
Q 928 2841 928 2578 
Q 928 2378 1081 2264 
Q 1234 2150 1697 2047 
L 1894 2003 
Q 2506 1872 2764 1633 
Q 3022 1394 3022 966 
Q 3022 478 2636 193 
Q 2250 -91 1575 -91 
Q 1294 -91 989 -36 
Q 684 19 347 128 
L 347 722 
Q 666 556 975 473 
Q 1284 391 1588 391 
Q 1994 391 2212 530 
Q 2431 669 2431 922 
Q 2431 1156 2273 1281 
Q 2116 1406 1581 1522 
L 1381 1569 
Q 847 1681 609 1914 
Q 372 2147 372 2553 
Q 372 3047 722 3315 
Q 1072 3584 1716 3584 
Q 2034 3584 2315 3537 
Q 2597 3491 2834 3397 
z
" transform="scale(0.015625)"/>
       <path id="DejaVuSans-6d" d="M 3328 2828 
Q 3544 3216 3844 3400 
Q 4144 3584 4550 3584 
Q 5097 3584 5394 3201 
Q 5691 2819 5691 2113 
L 5691 0 
L 5113 0 
L 5113 2094 
Q 5113 2597 4934 2840 
Q 4756 3084 4391 3084 
Q 3944 3084 3684 2787 
Q 3425 2491 3425 1978 
L 3425 0 
L 2847 0 
L 2847 2094 
Q 2847 2600 2669 2842 
Q 2491 3084 2119 3084 
Q 1678 3084 1418 2786 
Q 1159 2488 1159 1978 
L 1159 0 
L 581 0 
L 581 3500 
L 1159 3500 
L 1159 2956 
Q 1356 3278 1631 3431 
Q 1906 3584 2284 3584 
Q 2666 3584 2933 3390 
Q 3200 3197 3328 2828 
z
" transform="scale(0.015625)"/>
       <path id="DejaVuSans-7a" d="M 353 3500 
L 3084 3500 
L 3084 2975 
L 922 459 
L 3084 459 
L 3084 0 
L 275 0 
L 275 525 
L 2438 3041 
L 353 3041 
L 353 3500 
z
" transform="scale(0.015625)"/>
      </defs>
      <use xlink:href="#DejaVuSans-67"/>
      <use xlink:href="#DejaVuSans-6c" transform="translate(63.476562 0)"/>
      <use xlink:href="#DejaVuSans-6f" transform="translate(91.259766 0)"/>
      <use xlink:href="#DejaVuSans-62" transform="translate(152.441406 0)"/>
      <use xlink:href="#DejaVuSans-61" transform="translate(215.917969 0)"/>
      <use xlink:href="#DejaVuSans-6c" transform="translate(277.197266 0)"/>
      <use xlink:href="#DejaVuSans-20" transform="translate(304.980469 0)"/>
      <use xlink:href="#DejaVuSans-72" transform="translate(336.767578 0)"/>
      <use xlink:href="#DejaVuSans-6f" transform="translate(375.630859 0)"/>
      <use xlink:href="#DejaVuSans-62" transform="translate(436.8125 0)"/>
      <use xlink:href="#DejaVuSans-75" transform="translate(500.289062 0)"/>
      <use xlink:href="#DejaVuSans-73" transform="translate(563.667969 0)"/>
      <use xlink:href="#DejaVuSans-74" transform="translate(615.767578 0)"/>
      <use xlink:href="#DejaVuSans-20" transform="translate(654.976562 0)"/>
      <use xlink:href="#DejaVuSans-6e" transform="translate(686.763672 0)"/>
      <use xlink:href="#DejaVuSans-6f" transform="translate(750.142578 0)"/>
      <use xlink:href="#DejaVuSans-72" transform="translate(811.324219 0)"/>
      <use xlink:href="#DejaVuSans-6d" transform="translate(850.6875 0)"/>
      <use xlink:href="#DejaVuSans-61" transform="translate(948.099609 0)"/>
      <use xlink:href="#DejaVuSans-6c" transform="translate(1009.378906 0)"/>
      <use xlink:href="#DejaVuSans-69" transform="translate(1037.162109 0)"/>
      <use xlink:href="#DejaVuSans-7a" transform="translate(1064.945312 0)"/>
      <use xlink:href="#DejaVuSans-65" transform="translate(1117.435547 0)"/>
      <use xlink:href="#DejaVuSans-64" transform="translate(1178.958984 0)"/>
      <use xlink:href="#DejaVuSans-20" transform="translate(1242.435547 0)"/>
      <use xlink:href="#DejaVuSans-73" transform="translate(1274.222656 0)"/>
      <use xlink:href="#DejaVuSans-69" transform="translate(1326.322266 0)"/>
      <use xlink:href="#DejaVuSans-67" transform="translate(1354.105469 0)"/>
      <use xlink:href="#DejaVuSans-6e" transform="translate(1417.582031 0)"/>
      <use xlink:href="#DejaVuSans-61" transform="translate(1480.960938 0)"/>
      <use xlink:href="#DejaVuSans-6c" transform="translate(1542.240234 0)"/>
     </g>
    </g>
   </g>
   <g id="line2d_13">
    <path d="M 87.605455 301.838502 
L 89.20407 302.318035 
L 90.802685 303.073376 
L 92.401301 297.164706 
L 93.999916 301.068082 
L 95.598532 300.876565 
L 98.795762 304.177853 
L 100.394378 299.457237 
L 101.992993 298.636376 
L 103.591609 300.724095 
L 105.190224 300.961627 
L 106.788839 305.260538 
L 108.387455 301.604847 
L 109.98607 302.586812 
L 111.584686 300.119455 
L 113.183301 300.767967 
L 114.781917 305.12868 
L 116.380532 301.72182 
L 117.979147 302.238548 
L 119.577763 300.30195 
L 121.176378 301.698466 
L 122.774994 304.466846 
L 124.373609 303.715659 
L 125.972224 304.668805 
L 127.57084 303.802831 
L 129.169455 300.841233 
L 130.768071 301.963409 
L 132.366686 304.599427 
L 133.965302 299.992152 
L 135.563917 300.726508 
L 137.162532 301.915948 
L 140.359763 303.957139 
L 141.958379 299.653297 
L 143.556994 299.422697 
L 145.155609 301.477693 
L 146.754225 301.936561 
L 148.35284 302.633045 
L 149.951456 298.954221 
L 151.550071 300.237639 
L 153.148686 300.289134 
L 154.747302 303.566812 
L 156.345917 302.101333 
L 157.944533 299.83937 
L 159.543148 301.893557 
L 161.141764 303.253342 
L 162.740379 299.795825 
L 164.338994 302.360358 
L 165.93761 303.91092 
L 167.536225 300.545348 
L 169.134841 300.303091 
L 170.733456 303.936877 
L 172.332071 302.73108 
L 173.930687 301.151471 
L 175.529302 305.410676 
L 177.127918 304.542018 
L 178.726533 302.756883 
L 180.325148 302.266748 
L 181.923764 302.4468 
L 183.522379 305.114363 
L 185.120995 304.959974 
L 188.318226 300.57753 
L 189.916841 301.101493 
L 191.515456 300.577391 
L 193.114072 299.678258 
L 194.712687 300.986614 
L 196.311303 300.395919 
L 197.909918 296.168079 
L 199.508533 296.59109 
L 201.107149 289.29994 
L 202.705764 291.051515 
L 204.30438 291.198271 
L 205.902995 290.077639 
L 207.50161 291.623725 
L 209.100226 281.551843 
L 210.698841 269.949156 
L 212.297457 279.828227 
L 217.093303 295.871173 
L 218.691918 295.787106 
L 220.290534 301.397072 
L 221.889149 304.976094 
L 223.487765 300.637126 
L 225.08638 300.545115 
L 226.684995 302.482418 
L 228.283611 302.216432 
L 229.882226 304.00251 
L 231.480842 302.982832 
L 233.079457 303.26389 
L 234.678073 302.26868 
L 236.276688 304.31116 
L 237.875303 302.313784 
L 239.473919 300.849538 
L 241.072534 303.099182 
L 242.67115 303.866952 
L 245.86838 301.446905 
L 247.466996 302.949709 
L 249.065611 302.820721 
L 250.664227 300.827998 
L 252.262842 300.989897 
L 253.861457 303.482649 
L 255.460073 305.310568 
L 257.058688 305.62398 
L 258.657304 303.16074 
L 260.255919 301.629087 
L 261.854535 303.561588 
L 263.45315 303.439273 
L 265.051765 302.588878 
L 266.650381 299.998331 
L 268.248996 301.354125 
L 269.847612 302.980699 
L 271.446227 300.199317 
L 273.044842 300.847143 
L 274.643458 298.871079 
L 276.242073 294.42275 
L 277.840689 300.0606 
L 279.439304 297.708943 
L 281.037919 300.702249 
L 282.636535 298.542406 
L 284.23515 295.384374 
L 285.833766 295.414247 
L 287.432381 295.842051 
L 289.030997 296.493143 
L 290.629612 291.91572 
L 292.228227 295.760814 
L 293.826843 300.227623 
L 295.425458 305.106595 
L 297.024074 301.564994 
L 298.622689 301.70058 
L 300.221304 304.286168 
L 301.81992 303.759757 
L 303.418535 302.89384 
L 305.017151 302.682796 
L 306.615766 302.347942 
L 308.214381 301.525636 
L 309.812997 301.349002 
L 311.411612 300.211919 
L 313.010228 298.802092 
L 314.608843 302.851782 
L 316.207459 303.432964 
L 317.806074 302.102229 
L 319.404689 296.989131 
L 321.003305 302.760956 
L 322.60192 305.777777 
L 324.200536 300.974178 
L 325.799151 296.563521 
L 327.397766 296.292751 
L 328.996382 300.397617 
L 330.594997 303.04109 
L 332.193613 301.330389 
L 333.792228 303.144622 
L 336.989459 302.193983 
L 338.588074 302.674188 
L 340.18669 302.926587 
L 341.785305 301.636191 
L 343.383921 301.781565 
L 344.982536 303.367604 
L 346.581151 305.843966 
L 348.179767 301.153484 
L 349.778382 302.608321 
L 351.376998 303.151218 
L 352.975613 305.585893 
L 354.574228 305.517137 
L 356.172844 301.162778 
L 357.771459 301.631927 
L 359.370075 304.571483 
L 360.96869 301.543856 
L 364.165921 301.836643 
L 365.764536 301.153498 
L 367.363152 303.728345 
L 368.961767 300.11764 
L 370.560383 300.610486 
L 372.158998 303.977016 
L 373.757613 303.442189 
L 375.356229 300.509159 
L 376.954844 304.198647 
L 378.55346 302.449187 
L 380.152075 301.769553 
L 381.75069 302.190423 
L 383.349306 303.228414 
L 384.947921 304.497365 
L 386.546537 304.105649 
L 388.145152 299.47016 
L 389.743768 301.293978 
L 391.342383 301.198362 
L 392.940998 301.520833 
L 394.539614 304.209337 
L 396.138229 303.532308 
L 397.736845 302.69307 
L 399.33546 299.009168 
L 400.934075 293.728056 
L 402.532691 302.605005 
L 404.131306 301.919384 
L 405.729922 299.585486 
L 407.328537 296.372607 
L 408.927152 296.270676 
L 410.525768 299.695694 
L 412.124383 299.631057 
L 413.722999 301.35354 
L 415.321614 298.083946 
L 416.92023 302.659154 
L 418.518845 300.211739 
L 420.11746 301.972016 
L 421.716076 301.11791 
L 423.314691 301.530444 
L 424.913307 303.673802 
L 426.511922 303.266103 
L 428.110537 298.838327 
L 429.709153 299.701786 
L 431.307768 302.965027 
L 432.906384 301.391382 
L 434.504999 302.545492 
L 436.103615 299.015457 
L 437.70223 301.703349 
L 439.300845 302.242488 
L 440.899461 301.629269 
L 442.498076 302.013542 
L 444.096692 304.044655 
L 445.695307 303.580443 
L 447.293922 304.537487 
L 448.892538 302.460132 
L 450.491153 300.691793 
L 452.089769 302.226825 
L 453.688384 302.622867 
L 455.286999 305.479862 
L 456.885615 302.179714 
L 458.48423 301.919456 
L 460.082846 304.033509 
L 461.681461 303.285144 
L 463.280077 298.299404 
L 464.878692 301.672359 
L 466.477307 301.842706 
L 468.075923 304.956541 
L 469.674538 301.969255 
L 471.273154 300.303651 
L 472.871769 300.889966 
L 474.470384 298.535817 
L 476.069 300.507979 
L 479.266231 305.063033 
L 480.864846 301.943795 
L 482.463461 302.039949 
L 484.062077 304.383071 
L 485.660692 302.553444 
L 487.259308 302.971632 
L 488.857923 303.817525 
L 490.456539 300.495451 
L 492.055154 301.619788 
L 493.653769 304.67169 
L 495.252385 303.406238 
L 496.851 300.061301 
L 498.449616 301.11245 
L 500.048231 301.006405 
L 501.646846 303.888414 
L 503.245462 303.449804 
L 504.844077 305.129371 
L 506.442693 303.64365 
L 508.041308 298.773156 
L 509.639923 269.921113 
L 511.238539 183.088378 
L 512.837154 124.986134 
L 514.43577 158.66482 
L 516.034385 185.719917 
L 517.633001 171.012572 
L 519.231616 190.968077 
L 520.830231 166.567537 
L 522.428847 115.648215 
L 524.027462 132.345899 
L 525.626078 61.923284 
L 527.224693 92.801161 
L 528.823308 126.057084 
L 530.421924 173.240548 
L 532.020539 184.743801 
L 533.619155 154.746891 
L 535.21777 127.863178 
L 536.816385 105.018164 
L 538.415001 61.923284 
L 540.013616 118.984659 
L 541.612232 166.549861 
L 543.210847 188.066027 
L 544.809463 231.237111 
L 546.408078 265.625667 
L 548.006693 280.41428 
L 549.605309 283.109453 
L 551.203924 280.526603 
L 552.80254 283.348371 
L 554.401155 291.594489 
L 555.99977 296.968424 
L 557.598386 300.109949 
L 559.197001 301.405306 
L 560.795617 295.73565 
L 562.394232 301.783745 
L 563.992848 304.677513 
L 565.591463 299.383116 
L 567.190078 301.329023 
L 568.788694 303.003461 
L 570.387309 304.313519 
L 571.985925 302.424022 
L 573.58454 301.205234 
L 575.183155 303.205614 
L 576.781771 303.813871 
L 578.380386 302.809101 
L 579.979002 301.368859 
L 581.577617 301.710995 
L 583.176232 301.861731 
L 584.774848 298.16397 
L 586.373463 301.878503 
L 587.972079 301.302159 
L 589.570694 298.079499 
L 591.16931 297.87598 
L 592.767925 297.795574 
L 594.36654 298.485372 
L 595.965156 300.642132 
L 597.563771 290.43087 
L 599.162387 294.677081 
L 600.761002 301.362149 
L 602.359617 300.765744 
L 605.556848 301.582858 
L 607.155464 299.105397 
L 608.754079 304.336876 
L 610.352694 298.92106 
L 611.95131 300.921697 
L 613.549925 301.763461 
L 615.148541 300.878999 
L 616.747156 300.201957 
L 618.345772 303.299564 
L 619.944387 304.868349 
L 621.543002 302.871359 
L 624.740233 303.701893 
L 626.338849 299.305596 
L 627.937464 298.526102 
L 629.536079 303.759058 
L 631.134695 302.648933 
L 632.73331 302.59907 
L 634.331926 301.081715 
L 635.930541 301.872136 
L 637.529156 298.708851 
L 639.127772 299.584906 
L 640.726387 302.873203 
L 642.325003 299.233844 
L 643.923618 301.667489 
L 645.522234 303.755224 
L 647.120849 303.233472 
L 648.719464 302.458769 
L 650.31808 298.576576 
L 651.916695 299.348671 
L 653.515311 301.774068 
L 655.113926 297.914937 
L 656.712541 297.72728 
L 658.311157 301.269268 
L 659.909772 301.332988 
L 661.508388 303.173777 
L 663.107003 302.07262 
L 664.705619 303.10441 
L 666.304234 302.151527 
L 667.902849 302.525879 
L 669.501465 304.14124 
L 671.10008 302.579444 
L 674.297311 304.451103 
L 675.895926 301.613935 
L 677.494542 298.086472 
L 679.093157 300.323945 
L 680.691773 299.110132 
L 682.290388 301.013637 
L 683.889003 303.935416 
L 685.487619 301.460683 
L 687.086234 301.570377 
L 688.68485 304.528949 
L 690.283465 300.905076 
L 691.882081 303.057793 
L 693.480696 301.25061 
L 695.079311 302.529557 
L 696.677927 301.869308 
L 698.276542 300.416929 
L 699.875158 303.048724 
L 701.473773 302.691615 
L 703.072388 301.223988 
L 704.671004 302.872425 
L 706.269619 301.117558 
L 707.868235 298.46222 
L 709.46685 301.910162 
L 711.065465 302.515376 
L 714.262696 304.761212 
L 715.861312 296.332063 
L 717.459927 300.636906 
L 719.058543 304.081787 
L 720.657158 303.604678 
L 722.255773 300.66737 
L 723.854389 304.103436 
L 725.453004 300.68823 
L 727.05162 301.495058 
L 728.650235 301.78369 
L 730.24885 301.77378 
L 731.847466 303.631209 
L 733.446081 303.522257 
L 735.044697 300.246898 
L 736.643312 305.007419 
L 738.241927 302.276085 
L 739.840543 300.999041 
L 741.439158 304.451494 
L 743.037774 303.434861 
L 744.636389 300.330246 
L 746.235005 301.354787 
L 747.83362 302.67836 
L 749.432235 303.032136 
L 751.030851 297.939187 
L 752.629466 295.65832 
L 754.228082 301.960277 
L 755.826697 299.994563 
L 757.425312 299.457815 
L 759.023928 304.965661 
L 760.622543 302.489253 
L 762.221159 294.737546 
L 763.819774 301.964732 
L 767.017005 304.05685 
L 768.61562 304.465504 
L 770.214236 303.184634 
L 771.812851 301.092686 
L 773.411467 304.407294 
L 775.010082 304.462909 
L 776.608697 299.657385 
L 778.207313 301.380589 
L 779.805928 304.270317 
L 781.404544 305.843966 
L 783.003159 303.099224 
L 784.601774 304.935155 
L 787.799005 301.018704 
L 789.397621 304.076073 
L 790.996236 302.484778 
L 792.594852 302.015456 
L 794.193467 303.288305 
L 795.792082 302.655434 
L 797.390698 302.440486 
L 798.989313 302.352136 
L 800.587929 301.15925 
L 802.186544 302.850839 
L 803.785159 301.71447 
L 806.98239 304.380146 
L 808.581006 303.140638 
L 810.179621 299.936219 
L 811.778236 298.999675 
L 813.376852 299.019983 
L 814.975467 301.24495 
L 816.574083 303.116591 
L 818.172698 303.05023 
L 821.369929 302.532374 
L 822.968544 302.78919 
L 824.56716 299.79915 
L 826.165775 301.661001 
L 827.764391 304.301833 
L 830.961621 300.713955 
L 832.560237 300.66754 
L 834.158852 300.397822 
L 835.757468 303.436164 
L 837.356083 302.172119 
L 838.954698 305.807391 
L 840.553314 304.825242 
L 842.151929 302.882646 
L 843.750545 299.287017 
L 845.34916 303.019947 
L 846.947776 302.733275 
L 848.546391 301.593308 
L 850.145006 301.938003 
L 851.743622 302.638718 
L 853.342237 304.441827 
L 854.940853 300.525219 
L 856.539468 303.757258 
L 858.138083 302.320461 
L 859.736699 302.396593 
L 861.335314 301.749257 
L 862.93393 303.564902 
L 864.532545 302.638125 
L 866.131161 300.496249 
L 867.729776 303.651116 
L 869.328391 302.249353 
L 870.927007 298.085129 
L 872.525622 304.447563 
L 874.124238 305.151384 
L 875.722853 304.045253 
L 877.321468 303.815022 
L 878.920084 301.054687 
L 880.518699 302.689911 
L 882.117315 299.738495 
L 883.71593 301.003298 
L 885.314545 301.177882 
L 885.314545 301.177882 
" clip-path="url(#pe32b1a5be1)" style="fill: none; stroke: #2ca02c; stroke-width: 1.2; stroke-linecap: square"/>
   </g>
   <g id="line2d_14">
    <path d="M 87.605455 303.679889 
L 89.20407 303.948451 
L 92.401301 304.25304 
L 93.999916 304.623133 
L 95.598532 305.251962 
L 97.197147 305.048902 
L 98.795762 304.490489 
L 100.394378 304.131041 
L 101.992993 303.99021 
L 103.591609 304.326731 
L 105.190224 304.436449 
L 108.387455 304.267779 
L 111.584686 304.479026 
L 113.183301 304.772971 
L 114.781917 304.946554 
L 116.380532 304.924447 
L 117.979147 305.071828 
L 119.577763 304.880232 
L 121.176378 304.421711 
L 122.774994 304.168705 
L 127.57084 304.002491 
L 129.169455 304.296436 
L 130.768071 304.199819 
L 132.366686 304.29398 
L 137.162532 304.20637 
L 141.958379 304.640327 
L 143.556994 304.601025 
L 146.754225 304.093377 
L 148.35284 303.849378 
L 149.951456 303.914881 
L 151.550071 304.728756 
L 153.148686 305.066097 
L 154.747302 304.542073 
L 156.345917 304.384865 
L 157.944533 304.446274 
L 161.141764 304.887601 
L 164.338994 304.740219 
L 165.93761 304.823736 
L 169.134841 304.81391 
L 172.332071 304.858125 
L 175.529302 304.068813 
L 177.127918 305.00305 
L 178.726533 304.94246 
L 180.325148 303.341729 
L 181.923764 302.830806 
L 183.522379 303.221368 
L 185.120995 303.399863 
L 188.318226 303.068254 
L 189.916841 302.80788 
L 191.515456 301.815509 
L 194.712687 299.393534 
L 196.311303 298.00487 
L 197.909918 295.473177 
L 202.705764 285.7165 
L 204.30438 284.19683 
L 205.902995 283.600752 
L 207.50161 285.50034 
L 209.100226 281.537407 
L 210.698841 278.576669 
L 212.297457 281.812519 
L 213.896072 285.893358 
L 215.494688 290.829012 
L 217.093303 296.527776 
L 218.691918 298.522344 
L 221.889149 303.466185 
L 223.487765 303.263126 
L 225.08638 303.493205 
L 226.684995 303.897687 
L 228.283611 304.628045 
L 229.882226 305.094754 
L 233.079457 304.562542 
L 234.678073 304.17198 
L 237.875303 303.709365 
L 239.473919 303.827271 
L 241.072534 304.412704 
L 242.67115 304.568274 
L 245.86838 303.57754 
L 247.466996 303.662694 
L 249.065611 303.859203 
L 250.664227 304.328369 
L 252.262842 304.046706 
L 253.861457 303.511219 
L 255.460073 303.511219 
L 258.657304 302.395211 
L 263.45315 303.354011 
L 265.051765 303.403139 
L 266.650381 303.176334 
L 268.248996 302.231453 
L 269.847612 301.849898 
L 271.446227 300.883728 
L 273.044842 299.62607 
L 274.643458 296.550702 
L 276.242073 295.365097 
L 277.840689 295.817068 
L 279.439304 294.022285 
L 281.037919 295.103085 
L 282.636535 294.038661 
L 284.23515 292.584494 
L 285.833766 292.253703 
L 287.432381 293.989534 
L 289.030997 291.798457 
L 290.629612 296.648957 
L 292.228227 299.843867 
L 293.826843 301.304585 
L 295.425458 302.126648 
L 298.622689 303.314709 
L 300.221304 303.630762 
L 301.81992 303.817445 
L 305.017151 304.906433 
L 306.615766 305.233948 
L 311.411612 303.686439 
L 316.207459 303.370387 
L 319.404689 302.881571 
L 322.60192 303.127207 
L 324.200536 303.452266 
L 325.799151 303.326173 
L 327.397766 302.984738 
L 330.594997 303.282777 
L 332.193613 303.353193 
L 338.588074 304.127766 
L 343.383921 303.896868 
L 344.982536 304.004948 
L 346.581151 304.23994 
L 349.778382 304.343107 
L 351.376998 304.713199 
L 352.975613 304.795078 
L 356.172844 303.891955 
L 357.771459 303.770774 
L 360.96869 305.115224 
L 362.567306 304.178531 
L 364.165921 303.823177 
L 365.764536 303.85511 
L 368.961767 303.03714 
L 370.560383 303.417058 
L 372.158998 303.279502 
L 373.757613 302.414862 
L 375.356229 303.071529 
L 376.954844 304.093377 
L 378.55346 304.320181 
L 381.75069 304.581374 
L 384.947921 304.326731 
L 386.546537 304.4561 
L 389.743768 304.542891 
L 391.342383 304.598569 
L 396.138229 304.411067 
L 397.736845 304.020505 
L 399.33546 303.434253 
L 400.934075 303.120657 
L 404.131306 302.744014 
L 405.729922 302.088984 
L 407.328537 301.826972 
L 408.927152 301.820421 
L 410.525768 302.113548 
L 412.124383 302.694887 
L 413.722999 303.474373 
L 415.321614 303.659419 
L 418.518845 303.506306 
L 423.314691 303.724922 
L 424.913307 303.823177 
L 428.110537 303.3753 
L 431.307768 304.095833 
L 434.504999 302.742377 
L 436.103615 302.763665 
L 437.70223 303.487474 
L 439.300845 303.777325 
L 445.695307 304.25304 
L 450.491153 303.311434 
L 452.089769 303.75358 
L 453.688384 305.017788 
L 455.286999 304.733669 
L 456.885615 303.546426 
L 461.681461 301.928502 
L 464.878692 301.325874 
L 466.477307 301.89575 
L 468.075923 302.914322 
L 469.674538 303.72656 
L 471.273154 303.823177 
L 472.871769 303.230374 
L 474.470384 302.133198 
L 476.069 302.80788 
L 477.667615 304.357845 
L 479.266231 304.028693 
L 480.864846 303.438346 
L 482.463461 303.163234 
L 487.259308 302.870108 
L 488.857923 302.876658 
L 492.055154 303.217274 
L 493.653769 303.473554 
L 495.252385 303.527594 
L 496.851 304.04425 
L 498.449616 304.276785 
L 500.048231 304.088464 
L 501.646846 304.036062 
L 503.245462 304.309537 
L 504.844077 305.383787 
L 506.442693 303.299153 
L 508.041308 297.259773 
L 509.639923 285.094221 
L 511.238539 253.037036 
L 512.837154 211.717721 
L 514.43577 198.617114 
L 516.034385 213.499404 
L 517.633001 214.337843 
L 519.231616 228.591303 
L 520.830231 229.534547 
L 522.428847 193.507877 
L 524.027462 170.817626 
L 525.626078 137.122865 
L 527.224693 121.192527 
L 528.823308 143.515961 
L 530.421924 175.167028 
L 532.020539 192.512231 
L 533.619155 184.28505 
L 535.21777 169.664773 
L 536.816385 150.223472 
L 538.415001 91.585155 
L 540.013616 137.751694 
L 543.210847 193.953298 
L 544.809463 226.180791 
L 546.408078 254.032682 
L 548.006693 264.938937 
L 549.605309 274.594085 
L 551.203924 278.792829 
L 552.80254 286.685945 
L 554.401155 292.021167 
L 555.99977 294.353075 
L 557.598386 298.203016 
L 559.197001 299.752163 
L 560.795617 299.678472 
L 562.394232 299.730875 
L 565.591463 300.304026 
L 567.190078 301.884287 
L 568.788694 303.119019 
L 570.387309 302.961812 
L 571.985925 303.220549 
L 575.183155 302.930698 
L 579.979002 302.624471 
L 583.176232 302.981463 
L 584.774848 302.689974 
L 586.373463 302.784954 
L 589.570694 301.658301 
L 591.16931 301.376638 
L 592.767925 300.136993 
L 594.36654 299.360783 
L 595.965156 300.747809 
L 597.563771 299.244515 
L 599.162387 299.164273 
L 600.761002 299.707949 
L 602.359617 300.998358 
L 605.556848 301.923589 
L 607.155464 303.587366 
L 608.754079 304.298074 
L 610.352694 303.723285 
L 611.95131 303.42934 
L 613.549925 303.340911 
L 616.747156 303.572628 
L 619.944387 303.137033 
L 621.543002 303.9288 
L 623.141618 303.252482 
L 624.740233 301.95634 
L 626.338849 302.526217 
L 627.937464 302.632659 
L 631.134695 301.468343 
L 632.73331 301.016372 
L 634.331926 302.149574 
L 635.930541 302.575344 
L 637.529156 301.989092 
L 639.127772 302.401761 
L 640.726387 302.594995 
L 643.923618 303.514494 
L 645.522234 303.679889 
L 647.120849 303.400682 
L 648.719464 302.405036 
L 650.31808 302.848819 
L 653.515311 302.882389 
L 655.113926 303.925525 
L 656.712541 303.80107 
L 658.311157 303.350736 
L 659.909772 303.323716 
L 661.508388 303.137033 
L 663.107003 303.405595 
L 664.705619 303.156683 
L 667.902849 303.064979 
L 669.501465 303.542333 
L 671.10008 303.794519 
L 672.698696 303.385944 
L 674.297311 303.263126 
L 677.494542 303.71264 
L 679.093157 303.437528 
L 680.691773 303.606198 
L 682.290388 303.952545 
L 685.487619 304.227658 
L 688.68485 304.00986 
L 691.882081 303.209086 
L 696.677927 303.176334 
L 698.276542 303.434253 
L 701.473773 303.765862 
L 703.072388 304.032787 
L 704.671004 304.032787 
L 706.269619 303.724922 
L 707.868235 303.662694 
L 711.065465 303.835459 
L 712.664081 303.850197 
L 717.459927 302.899584 
L 719.058543 303.117382 
L 720.657158 303.605379 
L 722.255773 303.921431 
L 723.854389 303.80762 
L 725.453004 303.245931 
L 727.05162 303.311434 
L 728.650235 303.794519 
L 730.24885 303.856747 
L 731.847466 303.565259 
L 733.446081 303.398226 
L 735.044697 303.552158 
L 736.643312 303.833002 
L 738.241927 303.964008 
L 739.840543 303.850197 
L 741.439158 303.923888 
L 743.037774 304.169524 
L 744.636389 304.007404 
L 746.235005 304.149873 
L 749.432235 304.650153 
L 751.030851 304.088464 
L 752.629466 303.884586 
L 754.228082 304.251403 
L 757.425312 304.220289 
L 760.622543 304.823736 
L 763.819774 304.772152 
L 771.812851 303.669245 
L 773.411467 303.554614 
L 775.010082 303.818264 
L 776.608697 304.551898 
L 778.207313 305.047265 
L 779.805928 305.160258 
L 781.404544 304.848299 
L 783.003159 304.928541 
L 784.601774 304.769696 
L 786.20039 304.394691 
L 790.996236 304.674716 
L 792.594852 304.509321 
L 795.792082 304.78689 
L 797.390698 304.539616 
L 798.989313 303.948451 
L 800.587929 303.7806 
L 803.785159 302.988013 
L 805.383775 302.92251 
L 808.581006 303.086268 
L 810.179621 303.289327 
L 811.778236 303.813351 
L 813.376852 303.991847 
L 818.172698 303.867391 
L 819.771314 303.682345 
L 821.369929 303.326991 
L 824.56716 303.833002 
L 827.764391 302.002192 
L 829.363006 302.005468 
L 832.560237 302.850457 
L 834.158852 303.945995 
L 835.757468 304.265322 
L 837.356083 304.404516 
L 838.954698 304.865494 
L 840.553314 304.863856 
L 842.151929 304.234208 
L 843.750545 303.906693 
L 845.34916 304.012317 
L 846.947776 303.994303 
L 848.546391 303.49648 
L 850.145006 303.488293 
L 851.743622 304.700099 
L 853.342237 305.735047 
L 854.940853 304.306262 
L 856.539468 303.046966 
L 859.736699 303.110831 
L 861.335314 303.333542 
L 862.93393 304.093377 
L 864.532545 304.281698 
L 866.131161 303.713459 
L 867.729776 303.015852 
L 869.328391 303.027315 
L 870.927007 303.626668 
L 872.525622 303.921431 
L 874.124238 303.669245 
L 877.321468 303.709365 
L 878.920084 303.383488 
L 880.518699 303.209086 
L 882.117315 303.425246 
L 883.71593 303.455541 
L 885.314545 303.311434 
L 885.314545 303.311434 
" clip-path="url(#pe32b1a5be1)" style="fill: none; stroke: #000000; stroke-width: 1.2; stroke-linecap: square"/>
   </g>
   <g id="line2d_15">
    <path d="M 87.605455 273.940874 
L 89.20407 273.201275 
L 90.802685 259.735545 
L 92.401301 250.158077 
L 93.999916 267.204004 
L 95.598532 277.364533 
L 97.197147 273.450861 
L 98.795762 278.712152 
L 100.394378 266.524506 
L 101.992993 265.460373 
L 103.591609 262.949748 
L 105.190224 253.935261 
L 106.788839 260.76952 
L 108.387455 260.247752 
L 109.98607 264.362525 
L 111.584686 259.100189 
L 113.183301 240.110477 
L 114.781917 265.213283 
L 116.380532 277.525111 
L 117.979147 271.228967 
L 119.577763 260.103445 
L 121.176378 261.416132 
L 122.774994 270.781556 
L 124.373609 270.230767 
L 125.972224 265.436078 
L 127.57084 254.876497 
L 129.169455 246.693935 
L 130.768071 261.172623 
L 132.366686 260.309066 
L 133.965302 260.158954 
L 135.563917 254.384654 
L 137.162532 260.062868 
L 138.761148 270.204454 
L 140.359763 259.73042 
L 141.958379 254.634557 
L 143.556994 250.41163 
L 145.155609 255.738606 
L 146.754225 250.499251 
L 148.35284 257.726384 
L 149.951456 258.469489 
L 151.550071 263.497213 
L 153.148686 265.6602 
L 154.747302 240.787739 
L 156.345917 254.557175 
L 157.944533 253.62012 
L 159.543148 249.460226 
L 161.141764 242.21319 
L 162.740379 233.884514 
L 164.338994 243.908233 
L 165.93761 260.287539 
L 167.536225 262.312632 
L 169.134841 257.877256 
L 170.733456 254.563246 
L 172.332071 250.315777 
L 173.930687 261.864032 
L 175.529302 266.563557 
L 177.127918 260.533711 
L 178.726533 257.90158 
L 180.325148 251.293818 
L 181.923764 237.260298 
L 183.522379 243.050288 
L 185.120995 239.867995 
L 186.71961 245.112309 
L 188.318226 257.675203 
L 189.916841 235.661913 
L 191.515456 220.446315 
L 193.114072 212.180553 
L 194.712687 229.914687 
L 196.311303 204.78059 
L 197.909918 239.395142 
L 199.508533 210.713896 
L 201.107149 201.052434 
L 202.705764 120.217583 
L 204.30438 149.935875 
L 205.902995 151.340288 
L 207.50161 145.920736 
L 209.100226 136.763699 
L 210.698841 176.883079 
L 212.297457 194.392445 
L 213.896072 139.496334 
L 215.494688 163.764225 
L 217.093303 184.862925 
L 218.691918 255.742972 
L 220.290534 257.385096 
L 221.889149 257.100447 
L 223.487765 251.588614 
L 225.08638 248.376037 
L 226.684995 247.78774 
L 228.283611 267.932775 
L 229.882226 247.730155 
L 231.480842 232.826153 
L 233.079457 239.124855 
L 234.678073 243.228797 
L 236.276688 258.572512 
L 237.875303 233.662026 
L 239.473919 259.41245 
L 241.072534 246.157033 
L 242.67115 254.235963 
L 244.269765 236.563862 
L 245.86838 248.315557 
L 247.466996 255.152205 
L 249.065611 257.832178 
L 250.664227 271.967022 
L 252.262842 271.651011 
L 253.861457 246.634699 
L 255.460073 248.71672 
L 257.058688 262.693692 
L 258.657304 252.287749 
L 260.255919 258.694188 
L 261.854535 240.845344 
L 263.45315 247.625814 
L 265.051765 226.687804 
L 266.650381 257.393874 
L 268.248996 265.119871 
L 269.847612 263.970815 
L 271.446227 255.857791 
L 273.044842 254.853496 
L 274.643458 189.041214 
L 276.242073 175.085419 
L 277.840689 180.644776 
L 279.439304 208.233491 
L 281.037919 197.379846 
L 282.636535 194.469532 
L 284.23515 175.483707 
L 285.833766 147.309624 
L 287.432381 105.529983 
L 289.030997 132.346884 
L 290.629612 161.430866 
L 292.228227 200.390653 
L 293.826843 202.321402 
L 295.425458 245.022003 
L 297.024074 266.42033 
L 298.622689 276.196335 
L 300.221304 259.008269 
L 301.81992 271.959255 
L 303.418535 251.369026 
L 305.017151 223.373484 
L 306.615766 233.175079 
L 308.214381 254.868409 
L 309.812997 261.187513 
L 311.411612 253.320924 
L 313.010228 273.337838 
L 314.608843 261.617018 
L 316.207459 257.792061 
L 317.806074 201.95452 
L 319.404689 204.001707 
L 321.003305 234.008988 
L 322.60192 242.548194 
L 324.200536 237.687203 
L 325.799151 242.198321 
L 327.397766 237.252191 
L 328.996382 260.675948 
L 330.594997 250.443597 
L 332.193613 217.551979 
L 333.792228 260.334929 
L 335.390844 238.664909 
L 336.989459 245.876239 
L 338.588074 255.257704 
L 340.18669 243.868888 
L 341.785305 246.265392 
L 343.383921 259.056784 
L 344.982536 241.76296 
L 346.581151 226.610156 
L 348.179767 265.856461 
L 349.778382 253.802393 
L 351.376998 256.380403 
L 352.975613 281.570194 
L 354.574228 290.305045 
L 356.172844 291.288597 
L 357.771459 280.323463 
L 359.370075 285.256861 
L 360.96869 276.486575 
L 362.567306 276.157796 
L 364.165921 267.836254 
L 365.764536 285.212505 
L 367.363152 234.853242 
L 368.961767 243.468106 
L 370.560383 221.012848 
L 372.158998 261.579274 
L 373.757613 249.481263 
L 375.356229 232.286415 
L 376.954844 210.690533 
L 378.55346 212.386616 
L 380.152075 165.927092 
L 381.75069 202.893426 
L 383.349306 278.328999 
L 384.947921 264.661183 
L 386.546537 202.901397 
L 388.145152 200.555066 
L 389.743768 237.142826 
L 391.342383 249.469931 
L 392.940998 238.415685 
L 394.539614 245.169236 
L 396.138229 264.565249 
L 397.736845 260.824602 
L 399.33546 241.111645 
L 400.934075 249.589098 
L 402.532691 251.833403 
L 404.131306 253.561611 
L 405.729922 268.558714 
L 407.328537 271.265837 
L 408.927152 225.191306 
L 410.525768 247.184016 
L 412.124383 276.44465 
L 413.722999 246.518875 
L 415.321614 244.899581 
L 416.92023 268.721232 
L 418.518845 235.139481 
L 420.11746 253.277423 
L 421.716076 279.255569 
L 423.314691 251.655648 
L 424.913307 297.25978 
L 426.511922 265.11973 
L 428.110537 248.893027 
L 429.709153 235.363707 
L 431.307768 254.260965 
L 432.906384 257.607496 
L 434.504999 213.259622 
L 436.103615 272.326746 
L 437.70223 268.840546 
M 495.252385 244.999734 
L 496.851 190.208779 
L 500.048231 244.638571 
L 501.646846 229.154355 
L 503.245462 229.265239 
L 504.844077 234.313752 
L 506.442693 226.668848 
L 508.041308 217.802165 
L 509.639923 246.127054 
L 511.238539 250.661555 
L 512.837154 112.322757 
L 514.43577 143.205932 
L 516.034385 166.539634 
L 517.633001 170.149113 
L 520.830231 190.328398 
L 522.428847 218.735389 
L 524.027462 140.620626 
L 525.626078 179.841616 
L 527.224693 176.82015 
L 528.823308 106.955684 
L 530.421924 142.242788 
L 532.020539 185.387148 
L 533.619155 192.565967 
L 535.21777 172.079739 
L 536.816385 181.906122 
L 538.415001 119.328868 
L 540.013616 130.024551 
L 541.612232 84.955091 
L 543.210847 180.232372 
L 544.809463 190.662237 
L 546.408078 227.642938 
L 548.006693 214.995345 
L 549.605309 225.583614 
L 551.203924 188.887716 
L 552.80254 181.307863 
L 554.401155 178.505783 
L 555.99977 232.383719 
L 557.598386 245.976751 
L 559.197001 151.76879 
L 560.795617 192.607087 
L 562.394232 185.836433 
L 563.992848 220.980742 
L 565.591463 231.815472 
L 567.190078 240.426187 
L 568.788694 230.53582 
L 570.387309 184.263204 
L 571.985925 215.732823 
L 573.58454 196.65735 
L 575.183155 194.195094 
L 576.781771 230.102051 
L 578.380386 172.005002 
L 579.979002 151.088623 
L 581.577617 192.343489 
L 583.176232 214.133615 
L 584.774848 243.548139 
L 586.373463 231.935788 
L 587.972079 203.308114 
L 589.570694 222.10929 
L 591.16931 208.187462 
L 592.767925 272.823619 
L 594.36654 252.764694 
L 595.965156 215.9168 
L 597.563771 244.952023 
L 599.162387 262.68139 
L 600.761002 245.042611 
L 602.359617 257.02354 
L 603.958233 255.810355 
L 605.556848 273.689263 
L 607.155464 271.071941 
L 608.754079 268.796383 
L 610.352694 280.374682 
L 611.95131 202.40486 
L 613.549925 252.68314 
L 615.148541 245.845115 
L 616.747156 261.31643 
L 618.345772 266.700057 
L 619.944387 263.786328 
L 621.543002 255.617832 
L 623.141618 277.697459 
L 624.740233 266.35963 
L 626.338849 268.671048 
L 627.937464 260.900392 
L 629.536079 257.067924 
L 631.134695 274.189933 
L 632.73331 279.18389 
L 634.331926 288.533434 
L 635.930541 272.232265 
L 637.529156 263.91481 
L 639.127772 271.189919 
L 640.726387 266.210703 
L 642.325003 281.156112 
L 643.923618 267.967753 
L 645.522234 263.128861 
L 647.120849 238.256263 
L 648.719464 256.505093 
L 650.31808 253.347576 
L 651.916695 261.458604 
L 653.515311 242.853069 
L 655.113926 255.442735 
L 656.712541 260.276175 
L 658.311157 257.646528 
L 659.909772 251.178264 
L 661.508388 265.196917 
L 663.107003 273.716867 
L 664.705619 273.208919 
L 666.304234 273.214607 
L 667.902849 267.40827 
L 669.501465 268.738463 
L 671.10008 284.841077 
L 672.698696 278.381694 
L 674.297311 282.919847 
L 675.895926 277.769662 
L 677.494542 261.369827 
L 679.093157 266.487417 
L 680.691773 276.690419 
L 682.290388 275.946724 
L 683.889003 259.232698 
L 685.487619 270.247857 
L 687.086234 269.309472 
L 688.68485 281.677739 
L 690.283465 283.98391 
L 691.882081 286.530607 
L 693.480696 287.3196 
L 695.079311 275.565794 
L 696.677927 283.412465 
L 698.276542 279.499626 
L 699.875158 270.034386 
L 701.473773 256.882127 
L 703.072388 268.393794 
L 704.671004 245.426633 
L 706.269619 270.042363 
L 707.868235 270.432864 
L 709.46685 279.110977 
L 711.065465 277.055637 
L 712.664081 279.684658 
L 714.262696 273.703236 
L 715.861312 265.911551 
L 717.459927 274.125217 
L 719.058543 272.339692 
L 720.657158 275.174184 
L 722.255773 273.769166 
L 723.854389 254.695295 
L 725.453004 273.158174 
L 727.05162 267.058047 
L 728.650235 274.199194 
L 730.24885 274.967584 
L 731.847466 275.982286 
L 733.446081 278.222248 
L 735.044697 266.486279 
L 736.643312 270.052652 
L 738.241927 277.754569 
L 739.840543 264.969014 
L 741.439158 259.548678 
L 743.037774 255.270497 
L 744.636389 266.83205 
L 746.235005 242.847471 
L 747.83362 274.377663 
L 749.432235 279.523819 
L 751.030851 276.072879 
L 752.629466 273.727768 
L 754.228082 282.786915 
L 755.826697 274.34458 
L 757.425312 273.927992 
L 759.023928 271.535865 
L 760.622543 274.145295 
L 762.221159 284.441969 
L 763.819774 282.053992 
L 765.41839 275.996174 
L 767.017005 282.408736 
L 768.61562 263.757222 
L 770.214236 263.996414 
L 771.812851 257.766165 
L 773.411467 252.309648 
L 775.010082 255.318395 
L 776.608697 262.808662 
L 778.207313 240.343902 
L 779.805928 264.457174 
L 781.404544 272.769402 
L 783.003159 266.847665 
L 784.601774 278.116515 
L 786.20039 265.6529 
L 787.799005 236.683116 
L 789.397621 257.091733 
L 790.996236 256.050376 
L 792.594852 253.222398 
L 794.193467 270.13558 
L 795.792082 275.501746 
L 797.390698 256.981532 
L 798.989313 244.536202 
L 800.587929 240.704314 
L 802.186544 263.014155 
L 803.785159 281.745261 
L 805.383775 277.795657 
L 806.98239 276.870266 
L 808.581006 277.35158 
L 810.179621 275.811055 
L 811.778236 270.129271 
L 813.376852 260.777783 
L 814.975467 256.665446 
L 816.574083 256.122588 
L 818.172698 255.071457 
L 819.771314 268.134017 
L 821.369929 273.078847 
L 822.968544 275.729996 
L 824.56716 277.377866 
L 826.165775 265.832485 
L 827.764391 270.303011 
L 829.363006 256.77821 
L 830.961621 263.697437 
L 832.560237 250.382135 
L 834.158852 244.01633 
L 835.757468 265.270812 
L 837.356083 264.10193 
L 838.954698 259.779471 
L 840.553314 241.759172 
L 842.151929 261.782908 
L 843.750545 263.524952 
L 845.34916 248.814919 
L 846.947776 257.630765 
L 848.546391 256.995308 
L 850.145006 254.98773 
L 851.743622 262.307411 
L 853.342237 253.424271 
L 854.940853 259.16805 
L 856.539468 265.43356 
L 858.138083 274.38714 
L 859.736699 278.32986 
L 861.335314 268.399616 
L 862.93393 260.320922 
L 864.532545 272.003334 
L 866.131161 271.0752 
L 867.729776 273.167446 
L 869.328391 265.601489 
L 870.927007 271.394899 
L 872.525622 256.484104 
L 874.124238 270.505357 
L 875.722853 260.46513 
L 877.321468 264.947841 
L 878.920084 276.641273 
L 880.518699 276.900978 
L 882.117315 264.088383 
L 883.71593 264.730246 
L 885.314545 264.483068 
L 885.314545 264.483068 
" clip-path="url(#pe32b1a5be1)" style="fill: none; stroke: #ff7f0e; stroke-width: 1.2; stroke-linecap: square"/>
   </g>
   <g id="line2d_16">
    <path d="M 87.605455 273.931897 
L 89.20407 273.451616 
L 90.802685 256.083946 
L 92.401301 242.434962 
L 93.999916 258.012554 
L 97.197147 269.153626 
L 98.795762 265.527785 
L 100.394378 251.76823 
L 101.992993 258.557875 
L 103.591609 237.867819 
L 105.190224 247.780847 
L 106.788839 251.499241 
L 108.387455 250.972114 
L 109.98607 254.159468 
L 111.584686 255.512409 
L 113.183301 230.763658 
L 114.781917 255.626752 
L 116.380532 267.730443 
L 117.979147 254.197609 
L 119.577763 233.688726 
L 121.176378 246.257638 
L 122.774994 261.509307 
L 124.373609 284.568124 
L 125.972224 258.819343 
L 127.57084 250.562538 
L 129.169455 243.714603 
L 130.768071 259.425262 
L 132.366686 260.198087 
L 133.965302 270.207913 
L 135.563917 251.824099 
L 137.162532 263.299443 
L 138.761148 255.902005 
L 140.359763 260.251819 
L 141.958379 247.991987 
L 143.556994 246.549358 
L 145.155609 248.629793 
L 146.754225 245.090439 
L 148.35284 248.954919 
L 149.951456 258.936615 
L 151.550071 247.810188 
L 153.148686 247.469174 
L 154.747302 223.596955 
L 156.345917 255.374159 
L 157.944533 239.716726 
L 159.543148 244.64807 
L 161.141764 236.721803 
L 162.740379 233.93344 
L 164.338994 237.670048 
L 165.93761 255.415826 
L 167.536225 251.271714 
L 169.134841 259.324081 
L 170.733456 255.064003 
L 172.332071 251.131097 
L 173.930687 258.534654 
L 175.529302 260.443067 
L 177.127918 260.039858 
L 178.726533 265.786315 
L 180.325148 266.236992 
L 181.923764 257.473045 
L 183.522379 247.73441 
L 185.120995 248.182591 
L 186.71961 254.437471 
L 188.318226 270.778078 
L 189.916841 256.052429 
L 191.515456 238.194485 
L 193.114072 231.524951 
L 194.712687 239.203327 
L 196.311303 213.778679 
L 197.909918 229.568432 
L 199.508533 235.406602 
L 201.107149 183.331425 
L 202.705764 168.667576 
L 204.30438 183.756872 
L 205.902995 210.675647 
L 207.50161 201.349309 
L 209.100226 155.878791 
L 210.698841 181.716742 
L 212.297457 180.639568 
L 213.896072 169.734157 
L 215.494688 208.2483 
L 217.093303 218.45191 
L 218.691918 257.775341 
L 220.290534 263.939749 
L 221.889149 254.115838 
L 223.487765 234.407455 
L 225.08638 234.819189 
L 226.684995 239.171183 
L 228.283611 245.769414 
L 231.480842 209.248795 
L 233.079457 237.693493 
L 234.678073 250.335551 
L 236.276688 260.577838 
L 237.875303 250.953015 
L 239.473919 267.301747 
L 241.072534 263.569764 
L 242.67115 252.257709 
L 244.269765 243.915022 
L 245.86838 244.434699 
L 247.466996 260.236611 
L 249.065611 255.763933 
L 250.664227 267.448116 
L 252.262842 257.563796 
L 253.861457 236.243673 
L 255.460073 235.463525 
L 257.058688 244.261618 
L 258.657304 228.812332 
L 260.255919 228.973618 
L 261.854535 234.837868 
L 263.45315 239.335937 
L 265.051765 216.814572 
L 266.650381 238.956735 
L 268.248996 245.641206 
L 269.847612 250.4762 
L 271.446227 221.402703 
L 273.044842 207.878515 
L 274.643458 183.017176 
L 276.242073 167.983604 
L 277.840689 168.984553 
L 279.439304 157.378016 
L 281.037919 184.99958 
L 282.636535 166.336184 
L 284.23515 159.125203 
L 285.833766 158.490039 
L 287.432381 117.915354 
L 289.030997 113.000771 
L 290.629612 185.885715 
L 292.228227 239.245423 
L 295.425458 218.353537 
L 297.024074 225.336868 
L 298.622689 222.865366 
L 300.221304 252.187192 
L 301.81992 269.105603 
L 303.418535 217.600884 
L 305.017151 190.93242 
L 306.615766 195.704803 
L 308.214381 212.436675 
L 309.812997 249.430416 
L 311.411612 235.419578 
L 313.010228 269.6197 
L 314.608843 256.507007 
L 316.207459 256.574534 
L 317.806074 244.905319 
L 319.404689 231.589491 
L 321.003305 249.803297 
L 322.60192 263.932839 
L 324.200536 231.462815 
L 325.799151 233.511096 
L 327.397766 227.295694 
L 328.996382 259.88829 
L 330.594997 269.139831 
L 332.193613 276.0129 
L 333.792228 251.928487 
L 335.390844 244.67795 
L 336.989459 232.495722 
L 338.588074 241.066586 
L 340.18669 236.540609 
L 341.785305 268.519159 
L 343.383921 283.142871 
L 344.982536 266.722022 
L 346.581151 256.544951 
L 348.179767 231.497416 
L 349.778382 247.362248 
L 351.376998 249.393783 
L 352.975613 264.671707 
L 354.574228 286.491502 
L 356.172844 266.106928 
L 357.771459 276.498215 
L 359.370075 258.779169 
L 360.96869 255.846983 
L 362.567306 275.23716 
L 364.165921 238.111725 
L 365.764536 242.501106 
L 367.363152 240.143616 
L 368.961767 217.187011 
L 370.560383 230.575197 
L 372.158998 246.863142 
L 373.757613 231.796703 
L 375.356229 232.25818 
L 376.954844 221.32721 
L 378.55346 234.112821 
L 380.152075 216.459996 
L 381.75069 214.982098 
L 383.349306 216.360912 
L 384.947921 219.024178 
L 386.546537 228.332367 
L 388.145152 212.335198 
L 389.743768 216.235159 
L 391.342383 167.164393 
L 392.940998 229.762324 
L 394.539614 223.850119 
L 396.138229 236.2966 
L 397.736845 213.700517 
L 399.33546 254.236331 
L 400.934075 250.598286 
L 402.532691 264.112053 
L 404.131306 238.670041 
L 405.729922 236.182434 
L 407.328537 253.344434 
L 408.927152 241.846721 
L 410.525768 246.547309 
L 412.124383 227.618574 
L 413.722999 228.958022 
L 415.321614 208.035551 
L 416.92023 188.763792 
L 418.518845 186.811115 
L 420.11746 261.995174 
L 421.716076 255.985718 
L 423.314691 260.36211 
L 424.913307 279.837705 
L 426.511922 253.199275 
L 428.110537 273.250701 
L 429.709153 290.667507 
L 431.307768 283.158939 
L 432.906384 295.984366 
L 434.504999 267.652588 
L 436.103615 285.691909 
M 495.252385 211.725423 
L 496.851 213.275294 
L 498.449616 202.78576 
L 500.048231 223.754685 
L 501.646846 202.68233 
L 503.245462 221.296409 
L 504.844077 215.099663 
L 506.442693 185.22391 
L 508.041308 223.440185 
L 509.639923 228.82188 
L 511.238539 181.90278 
L 512.837154 61.923284 
L 514.43577 79.109669 
L 516.034385 164.40354 
L 517.633001 156.488328 
L 519.231616 189.150207 
L 520.830231 189.372714 
L 522.428847 171.294495 
L 524.027462 100.074164 
L 525.626078 108.362154 
L 527.224693 154.07203 
L 528.823308 152.066706 
L 530.421924 220.492036 
L 532.020539 232.310674 
L 533.619155 202.164591 
L 535.21777 205.082828 
L 536.816385 194.110226 
L 538.415001 61.923284 
L 540.013616 156.07764 
L 541.612232 158.334422 
L 543.210847 223.780776 
L 546.408078 236.152294 
L 548.006693 214.680154 
L 549.605309 234.493312 
L 551.203924 234.673231 
L 552.80254 228.705695 
L 554.401155 230.850528 
L 555.99977 221.068147 
L 557.598386 216.185391 
L 559.197001 206.719014 
L 560.795617 198.70019 
L 562.394232 193.18206 
L 563.992848 203.080363 
L 565.591463 210.930591 
L 567.190078 212.438605 
L 568.788694 195.728792 
L 570.387309 199.728122 
L 571.985925 211.228479 
L 573.58454 200.303458 
L 575.183155 203.444743 
L 576.781771 224.772296 
L 578.380386 195.380374 
L 579.979002 184.604875 
L 581.577617 206.131285 
L 583.176232 206.636046 
L 584.774848 225.828084 
L 586.373463 214.285222 
L 587.972079 218.809959 
L 589.570694 243.495108 
L 591.16931 232.99742 
L 592.767925 276.067873 
L 594.36654 243.746516 
L 595.965156 233.101305 
L 597.563771 230.558955 
L 599.162387 244.490163 
L 600.761002 247.843068 
L 602.359617 253.584712 
L 603.958233 229.685518 
L 605.556848 211.436853 
L 607.155464 229.465828 
L 608.754079 251.344955 
L 610.352694 265.285059 
L 611.95131 255.932557 
L 613.549925 234.595473 
L 615.148541 235.439692 
L 616.747156 249.530486 
L 618.345772 241.697384 
L 619.944387 227.376876 
L 621.543002 244.88714 
L 623.141618 245.210605 
L 624.740233 226.338299 
L 626.338849 239.250107 
L 627.937464 256.416318 
L 629.536079 260.466588 
L 631.134695 274.22848 
L 632.73331 265.492101 
L 634.331926 279.749188 
L 635.930541 275.123716 
L 637.529156 264.786197 
L 639.127772 269.939282 
L 640.726387 260.629859 
L 642.325003 272.478118 
L 643.923618 255.545968 
L 645.522234 243.859061 
L 647.120849 246.34359 
L 648.719464 246.150014 
L 650.31808 263.705534 
L 651.916695 237.181369 
L 653.515311 255.240607 
L 655.113926 264.247419 
L 656.712541 274.12427 
L 658.311157 260.14008 
L 659.909772 247.831163 
L 661.508388 256.180882 
L 663.107003 284.450423 
L 664.705619 283.88326 
L 666.304234 262.548933 
L 667.902849 257.050585 
L 669.501465 265.393581 
L 671.10008 276.771905 
L 674.297311 272.342346 
L 675.895926 260.865987 
L 677.494542 255.32543 
L 679.093157 236.438488 
L 680.691773 256.886022 
L 682.290388 255.688316 
L 683.889003 248.765907 
L 685.487619 249.895044 
L 687.086234 269.400205 
L 688.68485 264.231394 
L 690.283465 277.717111 
L 691.882081 289.747166 
L 693.480696 286.820236 
L 695.079311 270.365699 
L 696.677927 284.561309 
L 698.276542 260.776974 
L 699.875158 269.237203 
L 701.473773 263.530521 
L 703.072388 240.221903 
L 704.671004 251.701567 
L 706.269619 265.615098 
L 707.868235 265.9331 
L 709.46685 260.886234 
L 711.065465 245.565219 
L 712.664081 255.761407 
L 714.262696 267.70075 
L 715.861312 264.130898 
L 719.058543 273.286529 
L 720.657158 256.049243 
L 722.255773 261.209835 
L 723.854389 266.96589 
L 725.453004 280.388265 
L 727.05162 274.0236 
L 728.650235 256.378304 
L 730.24885 251.828634 
L 731.847466 270.31508 
L 733.446081 280.252594 
L 735.044697 270.691668 
L 736.643312 252.793947 
L 738.241927 258.863645 
L 739.840543 256.150886 
L 741.439158 263.952202 
L 743.037774 255.853003 
L 744.636389 252.053482 
L 746.235005 243.70839 
L 747.83362 251.330523 
L 749.432235 276.510813 
L 751.030851 254.935488 
L 752.629466 260.069893 
L 754.228082 276.450429 
L 755.826697 274.386148 
L 757.425312 268.752957 
L 759.023928 263.722106 
L 760.622543 248.426193 
L 762.221159 268.278045 
L 763.819774 277.968901 
L 765.41839 235.427729 
L 767.017005 264.585769 
L 768.61562 248.057098 
L 770.214236 252.012438 
L 771.812851 261.886665 
L 773.411467 264.232172 
L 775.010082 251.890359 
L 776.608697 260.750693 
L 778.207313 232.892618 
L 779.805928 236.351918 
L 781.404544 252.246507 
L 783.003159 254.064237 
L 784.601774 276.778764 
L 786.20039 258.415346 
L 787.799005 249.380045 
L 789.397621 252.122516 
L 792.594852 242.232022 
L 794.193467 269.493144 
L 795.792082 265.302049 
L 797.390698 255.572829 
L 798.989313 227.774037 
L 800.587929 226.875627 
L 802.186544 248.725969 
L 803.785159 274.609712 
L 805.383775 277.028875 
L 806.98239 278.604278 
L 808.581006 267.379235 
L 810.179621 263.903382 
L 811.778236 251.370135 
L 813.376852 241.549713 
L 814.975467 243.084346 
L 816.574083 264.227955 
L 818.172698 247.087325 
L 819.771314 261.620124 
L 821.369929 266.861404 
L 822.968544 281.033118 
L 824.56716 269.831588 
L 826.165775 270.18509 
L 827.764391 273.096296 
L 829.363006 257.9629 
L 830.961621 266.91613 
L 832.560237 244.443414 
L 834.158852 254.829227 
L 835.757468 280.44367 
L 837.356083 261.003812 
L 838.954698 254.783059 
L 840.553314 235.246124 
L 842.151929 263.040489 
L 843.750545 268.652764 
L 845.34916 244.20598 
L 846.947776 254.503389 
L 848.546391 268.869465 
L 850.145006 270.001371 
L 851.743622 274.580159 
L 853.342237 264.907032 
L 854.940853 261.761769 
L 856.539468 262.370419 
L 858.138083 278.594911 
L 859.736699 280.113911 
L 861.335314 277.114726 
L 862.93393 262.211415 
L 864.532545 273.340066 
L 866.131161 288.204913 
L 867.729776 277.110569 
L 869.328391 274.267164 
L 870.927007 281.589675 
L 872.525622 245.916152 
L 874.124238 273.621025 
L 875.722853 253.480807 
L 877.321468 253.842764 
L 878.920084 282.832723 
L 880.518699 274.760889 
L 882.117315 251.710016 
L 883.71593 261.979631 
L 885.314545 255.420738 
L 885.314545 255.420738 
" clip-path="url(#pe32b1a5be1)" style="fill: none; stroke-dasharray: 4.44,1.92; stroke-dashoffset: 0; stroke: #9467bd; stroke-width: 1.2"/>
   </g>
   <g id="patch_3">
    <path d="M 47.72 318.04 
L 47.72 49.72725 
" style="fill: none; stroke: #000000; stroke-width: 0.8; stroke-linejoin: miter; stroke-linecap: square"/>
   </g>
   <g id="patch_4">
    <path d="M 925.2 318.04 
L 925.2 49.72725 
" style="fill: none; stroke: #000000; stroke-width: 0.8; stroke-linejoin: miter; stroke-linecap: square"/>
   </g>
   <g id="patch_5">
    <path d="M 47.72 318.04 
L 925.2 318.04 
" style="fill: none; stroke: #000000; stroke-width: 0.8; stroke-linejoin: miter; stroke-linecap: square"/>
   </g>
   <g id="patch_6">
    <path d="M 47.72 49.72725 
L 925.2 49.72725 
" style="fill: none; stroke: #000000; stroke-width: 0.8; stroke-linejoin: miter; stroke-linecap: square"/>
   </g>
   <g id="legend_1">
    <g id="line2d_17">
     <path d="M 675.710938 62.825688 
L 685.710938 62.825688 
L 695.710938 62.825688 
" style="fill: none; stroke: #2ca02c; stroke-width: 1.2; stroke-linecap: square"/>
    </g>
    <g id="text_16">
     <!-- ENCSR203XPU -->
     <g transform="translate(703.710938 66.325688) scale(0.1 -0.1)">
      <defs>
       <path id="DejaVuSans-45" d="M 628 4666 
L 3578 4666 
L 3578 4134 
L 1259 4134 
L 1259 2753 
L 3481 2753 
L 3481 2222 
L 1259 2222 
L 1259 531 
L 3634 531 
L 3634 0 
L 628 0 
L 628 4666 
z
" transform="scale(0.015625)"/>
       <path id="DejaVuSans-4e" d="M 628 4666 
L 1478 4666 
L 3547 763 
L 3547 4666 
L 4159 4666 
L 4159 0 
L 3309 0 
L 1241 3903 
L 1241 0 
L 628 0 
L 628 4666 
z
" transform="scale(0.015625)"/>
       <path id="DejaVuSans-43" d="M 4122 4306 
L 4122 3641 
Q 3803 3938 3442 4084 
Q 3081 4231 2675 4231 
Q 1875 4231 1450 3742 
Q 1025 3253 1025 2328 
Q 1025 1406 1450 917 
Q 1875 428 2675 428 
Q 3081 428 3442 575 
Q 3803 722 4122 1019 
L 4122 359 
Q 3791 134 3420 21 
Q 3050 -91 2638 -91 
Q 1578 -91 968 557 
Q 359 1206 359 2328 
Q 359 3453 968 4101 
Q 1578 4750 2638 4750 
Q 3056 4750 3426 4639 
Q 3797 4528 4122 4306 
z
" transform="scale(0.015625)"/>
       <path id="DejaVuSans-53" d="M 3425 4513 
L 3425 3897 
Q 3066 4069 2747 4153 
Q 2428 4238 2131 4238 
Q 1616 4238 1336 4038 
Q 1056 3838 1056 3469 
Q 1056 3159 1242 3001 
Q 1428 2844 1947 2747 
L 2328 2669 
Q 3034 2534 3370 2195 
Q 3706 1856 3706 1288 
Q 3706 609 3251 259 
Q 2797 -91 1919 -91 
Q 1588 -91 1214 -16 
Q 841 59 441 206 
L 441 856 
Q 825 641 1194 531 
Q 1563 422 1919 422 
Q 2459 422 2753 634 
Q 3047 847 3047 1241 
Q 3047 1584 2836 1778 
Q 2625 1972 2144 2069 
L 1759 2144 
Q 1053 2284 737 2584 
Q 422 2884 422 3419 
Q 422 4038 858 4394 
Q 1294 4750 2059 4750 
Q 2388 4750 2728 4690 
Q 3069 4631 3425 4513 
z
" transform="scale(0.015625)"/>
       <path id="DejaVuSans-52" d="M 2841 2188 
Q 3044 2119 3236 1894 
Q 3428 1669 3622 1275 
L 4263 0 
L 3584 0 
L 2988 1197 
Q 2756 1666 2539 1819 
Q 2322 1972 1947 1972 
L 1259 1972 
L 1259 0 
L 628 0 
L 628 4666 
L 2053 4666 
Q 2853 4666 3247 4331 
Q 3641 3997 3641 3322 
Q 3641 2881 3436 2590 
Q 3231 2300 2841 2188 
z
M 1259 4147 
L 1259 2491 
L 2053 2491 
Q 2509 2491 2742 2702 
Q 2975 2913 2975 3322 
Q 2975 3731 2742 3939 
Q 2509 4147 2053 4147 
L 1259 4147 
z
" transform="scale(0.015625)"/>
       <path id="DejaVuSans-58" d="M 403 4666 
L 1081 4666 
L 2241 2931 
L 3406 4666 
L 4084 4666 
L 2584 2425 
L 4184 0 
L 3506 0 
L 2194 1984 
L 872 0 
L 191 0 
L 1856 2491 
L 403 4666 
z
" transform="scale(0.015625)"/>
       <path id="DejaVuSans-50" d="M 1259 4147 
L 1259 2394 
L 2053 2394 
Q 2494 2394 2734 2622 
Q 2975 2850 2975 3272 
Q 2975 3691 2734 3919 
Q 2494 4147 2053 4147 
L 1259 4147 
z
M 628 4666 
L 2053 4666 
Q 2838 4666 3239 4311 
Q 3641 3956 3641 3272 
Q 3641 2581 3239 2228 
Q 2838 1875 2053 1875 
L 1259 1875 
L 1259 0 
L 628 0 
L 628 4666 
z
" transform="scale(0.015625)"/>
       <path id="DejaVuSans-55" d="M 556 4666 
L 1191 4666 
L 1191 1831 
Q 1191 1081 1462 751 
Q 1734 422 2344 422 
Q 2950 422 3222 751 
Q 3494 1081 3494 1831 
L 3494 4666 
L 4128 4666 
L 4128 1753 
Q 4128 841 3676 375 
Q 3225 -91 2344 -91 
Q 1459 -91 1007 375 
Q 556 841 556 1753 
L 556 4666 
z
" transform="scale(0.015625)"/>
      </defs>
      <use xlink:href="#DejaVuSans-45"/>
      <use xlink:href="#DejaVuSans-4e" transform="translate(63.183594 0)"/>
      <use xlink:href="#DejaVuSans-43" transform="translate(137.988281 0)"/>
      <use xlink:href="#DejaVuSans-53" transform="translate(207.8125 0)"/>
      <use xlink:href="#DejaVuSans-52" transform="translate(271.289062 0)"/>
      <use xlink:href="#DejaVuSans-32" transform="translate(340.771484 0)"/>
      <use xlink:href="#DejaVuSans-30" transform="translate(404.394531 0)"/>
      <use xlink:href="#DejaVuSans-33" transform="translate(468.017578 0)"/>
      <use xlink:href="#DejaVuSans-58" transform="translate(531.640625 0)"/>
      <use xlink:href="#DejaVuSans-50" transform="translate(600.146484 0)"/>
      <use xlink:href="#DejaVuSans-55" transform="translate(660.449219 0)"/>
     </g>
    </g>
    <g id="line2d_18">
     <path d="M 675.710938 77.503813 
L 685.710938 77.503813 
L 695.710938 77.503813 
" style="fill: none; stroke: #000000; stroke-width: 1.2; stroke-linecap: square"/>
    </g>
    <g id="text_17">
     <!-- AlphaGenome -->
     <g transform="translate(703.710938 81.003813) scale(0.1 -0.1)">
      <defs>
       <path id="DejaVuSans-41" d="M 2188 4044 
L 1331 1722 
L 3047 1722 
L 2188 4044 
z
M 1831 4666 
L 2547 4666 
L 4325 0 
L 3669 0 
L 3244 1197 
L 1141 1197 
L 716 0 
L 50 0 
L 1831 4666 
z
" transform="scale(0.015625)"/>
       <path id="DejaVuSans-70" d="M 1159 525 
L 1159 -1331 
L 581 -1331 
L 581 3500 
L 1159 3500 
L 1159 2969 
Q 1341 3281 1617 3432 
Q 1894 3584 2278 3584 
Q 2916 3584 3314 3078 
Q 3713 2572 3713 1747 
Q 3713 922 3314 415 
Q 2916 -91 2278 -91 
Q 1894 -91 1617 61 
Q 1341 213 1159 525 
z
M 3116 1747 
Q 3116 2381 2855 2742 
Q 2594 3103 2138 3103 
Q 1681 3103 1420 2742 
Q 1159 2381 1159 1747 
Q 1159 1113 1420 752 
Q 1681 391 2138 391 
Q 2594 391 2855 752 
Q 3116 1113 3116 1747 
z
" transform="scale(0.015625)"/>
       <path id="DejaVuSans-47" d="M 3809 666 
L 3809 1919 
L 2778 1919 
L 2778 2438 
L 4434 2438 
L 4434 434 
Q 4069 175 3628 42 
Q 3188 -91 2688 -91 
Q 1594 -91 976 548 
Q 359 1188 359 2328 
Q 359 3472 976 4111 
Q 1594 4750 2688 4750 
Q 3144 4750 3555 4637 
Q 3966 4525 4313 4306 
L 4313 3634 
Q 3963 3931 3569 4081 
Q 3175 4231 2741 4231 
Q 1884 4231 1454 3753 
Q 1025 3275 1025 2328 
Q 1025 1384 1454 906 
Q 1884 428 2741 428 
Q 3075 428 3337 486 
Q 3600 544 3809 666 
z
" transform="scale(0.015625)"/>
      </defs>
      <use xlink:href="#DejaVuSans-41"/>
      <use xlink:href="#DejaVuSans-6c" transform="translate(68.408203 0)"/>
      <use xlink:href="#DejaVuSans-70" transform="translate(96.191406 0)"/>
      <use xlink:href="#DejaVuSans-68" transform="translate(159.667969 0)"/>
      <use xlink:href="#DejaVuSans-61" transform="translate(223.046875 0)"/>
      <use xlink:href="#DejaVuSans-47" transform="translate(284.326172 0)"/>
      <use xlink:href="#DejaVuSans-65" transform="translate(361.816406 0)"/>
      <use xlink:href="#DejaVuSans-6e" transform="translate(423.339844 0)"/>
      <use xlink:href="#DejaVuSans-6f" transform="translate(486.71875 0)"/>
      <use xlink:href="#DejaVuSans-6d" transform="translate(547.900391 0)"/>
      <use xlink:href="#DejaVuSans-65" transform="translate(645.3125 0)"/>
     </g>
    </g>
    <g id="line2d_19">
     <path d="M 797.076563 62.825688 
L 807.076563 62.825688 
L 817.076563 62.825688 
" style="fill: none; stroke: #ff7f0e; stroke-width: 1.2; stroke-linecap: square"/>
    </g>
    <g id="text_18">
     <!-- DiMeLo pooled -->
     <g transform="translate(825.076563 66.325688) scale(0.1 -0.1)">
      <defs>
       <path id="DejaVuSans-44" d="M 1259 4147 
L 1259 519 
L 2022 519 
Q 2988 519 3436 956 
Q 3884 1394 3884 2338 
Q 3884 3275 3436 3711 
Q 2988 4147 2022 4147 
L 1259 4147 
z
M 628 4666 
L 1925 4666 
Q 3281 4666 3915 4102 
Q 4550 3538 4550 2338 
Q 4550 1131 3912 565 
Q 3275 0 1925 0 
L 628 0 
L 628 4666 
z
" transform="scale(0.015625)"/>
       <path id="DejaVuSans-4d" d="M 628 4666 
L 1569 4666 
L 2759 1491 
L 3956 4666 
L 4897 4666 
L 4897 0 
L 4281 0 
L 4281 4097 
L 3078 897 
L 2444 897 
L 1241 4097 
L 1241 0 
L 628 0 
L 628 4666 
z
" transform="scale(0.015625)"/>
       <path id="DejaVuSans-4c" d="M 628 4666 
L 1259 4666 
L 1259 531 
L 3531 531 
L 3531 0 
L 628 0 
L 628 4666 
z
" transform="scale(0.015625)"/>
      </defs>
      <use xlink:href="#DejaVuSans-44"/>
      <use xlink:href="#DejaVuSans-69" transform="translate(77.001953 0)"/>
      <use xlink:href="#DejaVuSans-4d" transform="translate(104.785156 0)"/>
      <use xlink:href="#DejaVuSans-65" transform="translate(191.064453 0)"/>
      <use xlink:href="#DejaVuSans-4c" transform="translate(252.587891 0)"/>
      <use xlink:href="#DejaVuSans-6f" transform="translate(306.550781 0)"/>
      <use xlink:href="#DejaVuSans-20" transform="translate(367.732422 0)"/>
      <use xlink:href="#DejaVuSans-70" transform="translate(399.519531 0)"/>
      <use xlink:href="#DejaVuSans-6f" transform="translate(462.996094 0)"/>
      <use xlink:href="#DejaVuSans-6f" transform="translate(524.177734 0)"/>
      <use xlink:href="#DejaVuSans-6c" transform="translate(585.359375 0)"/>
      <use xlink:href="#DejaVuSans-65" transform="translate(613.142578 0)"/>
      <use xlink:href="#DejaVuSans-64" transform="translate(674.666016 0)"/>
     </g>
    </g>
    <g id="line2d_20">
     <path d="M 797.076563 77.503813 
L 807.076563 77.503813 
L 817.076563 77.503813 
" style="fill: none; stroke-dasharray: 4.44,1.92; stroke-dashoffset: 0; stroke: #9467bd; stroke-width: 1.2"/>
    </g>
    <g id="text_19">
     <!-- HyenaDNA pooled -->
     <g transform="translate(825.076563 81.003813) scale(0.1 -0.1)">
      <defs>
       <path id="DejaVuSans-48" d="M 628 4666 
L 1259 4666 
L 1259 2753 
L 3553 2753 
L 3553 4666 
L 4184 4666 
L 4184 0 
L 3553 0 
L 3553 2222 
L 1259 2222 
L 1259 0 
L 628 0 
L 628 4666 
z
" transform="scale(0.015625)"/>
       <path id="DejaVuSans-79" d="M 2059 -325 
Q 1816 -950 1584 -1140 
Q 1353 -1331 966 -1331 
L 506 -1331 
L 506 -850 
L 844 -850 
Q 1081 -850 1212 -737 
Q 1344 -625 1503 -206 
L 1606 56 
L 191 3500 
L 800 3500 
L 1894 763 
L 2988 3500 
L 3597 3500 
L 2059 -325 
z
" transform="scale(0.015625)"/>
      </defs>
      <use xlink:href="#DejaVuSans-48"/>
      <use xlink:href="#DejaVuSans-79" transform="translate(75.195312 0)"/>
      <use xlink:href="#DejaVuSans-65" transform="translate(134.375 0)"/>
      <use xlink:href="#DejaVuSans-6e" transform="translate(195.898438 0)"/>
      <use xlink:href="#DejaVuSans-61" transform="translate(259.277344 0)"/>
      <use xlink:href="#DejaVuSans-44" transform="translate(320.556641 0)"/>
      <use xlink:href="#DejaVuSans-4e" transform="translate(397.558594 0)"/>
      <use xlink:href="#DejaVuSans-41" transform="translate(472.363281 0)"/>
      <use xlink:href="#DejaVuSans-20" transform="translate(540.771484 0)"/>
      <use xlink:href="#DejaVuSans-70" transform="translate(572.558594 0)"/>
      <use xlink:href="#DejaVuSans-6f" transform="translate(636.035156 0)"/>
      <use xlink:href="#DejaVuSans-6f" transform="translate(697.216797 0)"/>
      <use xlink:href="#DejaVuSans-6c" transform="translate(758.398438 0)"/>
      <use xlink:href="#DejaVuSans-65" transform="translate(786.181641 0)"/>
      <use xlink:href="#DejaVuSans-64" transform="translate(847.705078 0)"/>
     </g>
    </g>
   </g>
  </g>
  <g id="text_20">
   <!-- chr16 region 41: overlay -->
   <g transform="translate(394.170938 16.318125) scale(0.12 -0.12)">
    <defs>
     <path id="DejaVuSans-3a" d="M 750 794 
L 1409 794 
L 1409 0 
L 750 0 
L 750 794 
z
M 750 3309 
L 1409 3309 
L 1409 2516 
L 750 2516 
L 750 3309 
z
" transform="scale(0.015625)"/>
     <path id="DejaVuSans-76" d="M 191 3500 
L 800 3500 
L 1894 563 
L 2988 3500 
L 3597 3500 
L 2284 0 
L 1503 0 
L 191 3500 
z
" transform="scale(0.015625)"/>
    </defs>
    <use xlink:href="#DejaVuSans-63"/>
    <use xlink:href="#DejaVuSans-68" transform="translate(54.980469 0)"/>
    <use xlink:href="#DejaVuSans-72" transform="translate(118.359375 0)"/>
    <use xlink:href="#DejaVuSans-31" transform="translate(159.472656 0)"/>
    <use xlink:href="#DejaVuSans-36" transform="translate(223.095703 0)"/>
    <use xlink:href="#DejaVuSans-20" transform="translate(286.71875 0)"/>
    <use xlink:href="#DejaVuSans-72" transform="translate(318.505859 0)"/>
    <use xlink:href="#DejaVuSans-65" transform="translate(357.369141 0)"/>
    <use xlink:href="#DejaVuSans-67" transform="translate(418.892578 0)"/>
    <use xlink:href="#DejaVuSans-69" transform="translate(482.369141 0)"/>
    <use xlink:href="#DejaVuSans-6f" transform="translate(510.152344 0)"/>
    <use xlink:href="#DejaVuSans-6e" transform="translate(571.333984 0)"/>
    <use xlink:href="#DejaVuSans-20" transform="translate(634.712891 0)"/>
    <use xlink:href="#DejaVuSans-34" transform="translate(666.5 0)"/>
    <use xlink:href="#DejaVuSans-31" transform="translate(730.123047 0)"/>
    <use xlink:href="#DejaVuSans-3a" transform="translate(793.746094 0)"/>
    <use xlink:href="#DejaVuSans-20" transform="translate(827.4375 0)"/>
    <use xlink:href="#DejaVuSans-6f" transform="translate(859.224609 0)"/>
    <use xlink:href="#DejaVuSans-76" transform="translate(920.40625 0)"/>
    <use xlink:href="#DejaVuSans-65" transform="translate(979.585938 0)"/>
    <use xlink:href="#DejaVuSans-72" transform="translate(1041.109375 0)"/>
    <use xlink:href="#DejaVuSans-6c" transform="translate(1082.222656 0)"/>
    <use xlink:href="#DejaVuSans-61" transform="translate(1110.005859 0)"/>
    <use xlink:href="#DejaVuSans-79" transform="translate(1171.285156 0)"/>
   </g>
   <!-- chr16_rank42_score2.388_reads405 -->
   <g transform="translate(359.357813 29.7555) scale(0.12 -0.12)">
    <defs>
     <path id="DejaVuSans-5f" d="M 3263 -1063 
L 3263 -1509 
L -63 -1509 
L -63 -1063 
L 3263 -1063 
z
" transform="scale(0.015625)"/>
     <path id="DejaVuSans-6b" d="M 581 4863 
L 1159 4863 
L 1159 1991 
L 2875 3500 
L 3609 3500 
L 1753 1863 
L 3688 0 
L 2938 0 
L 1159 1709 
L 1159 0 
L 581 0 
L 581 4863 
z
" transform="scale(0.015625)"/>
    </defs>
    <use xlink:href="#DejaVuSans-63"/>
    <use xlink:href="#DejaVuSans-68" transform="translate(54.980469 0)"/>
    <use xlink:href="#DejaVuSans-72" transform="translate(118.359375 0)"/>
    <use xlink:href="#DejaVuSans-31" transform="translate(159.472656 0)"/>
    <use xlink:href="#DejaVuSans-36" transform="translate(223.095703 0)"/>
    <use xlink:href="#DejaVuSans-5f" transform="translate(286.71875 0)"/>
    <use xlink:href="#DejaVuSans-72" transform="translate(336.71875 0)"/>
    <use xlink:href="#DejaVuSans-61" transform="translate(377.832031 0)"/>
    <use xlink:href="#DejaVuSans-6e" transform="translate(439.111328 0)"/>
    <use xlink:href="#DejaVuSans-6b" transform="translate(502.490234 0)"/>
    <use xlink:href="#DejaVuSans-34" transform="translate(560.400391 0)"/>
    <use xlink:href="#DejaVuSans-32" transform="translate(624.023438 0)"/>
    <use xlink:href="#DejaVuSans-5f" transform="translate(687.646484 0)"/>
    <use xlink:href="#DejaVuSans-73" transform="translate(737.646484 0)"/>
    <use xlink:href="#DejaVuSans-63" transform="translate(789.746094 0)"/>
    <use xlink:href="#DejaVuSans-6f" transform="translate(844.726562 0)"/>
    <use xlink:href="#DejaVuSans-72" transform="translate(905.908203 0)"/>
    <use xlink:href="#DejaVuSans-65" transform="translate(944.771484 0)"/>
    <use xlink:href="#DejaVuSans-32" transform="translate(1006.294922 0)"/>
    <use xlink:href="#DejaVuSans-2e" transform="translate(1069.917969 0)"/>
    <use xlink:href="#DejaVuSans-33" transform="translate(1101.705078 0)"/>
    <use xlink:href="#DejaVuSans-38" transform="translate(1165.328125 0)"/>
    <use xlink:href="#DejaVuSans-38" transform="translate(1228.951172 0)"/>
    <use xlink:href="#DejaVuSans-5f" transform="translate(1292.574219 0)"/>
    <use xlink:href="#DejaVuSans-72" transform="translate(1342.574219 0)"/>
    <use xlink:href="#DejaVuSans-65" transform="translate(1381.4375 0)"/>
    <use xlink:href="#DejaVuSans-61" transform="translate(1442.960938 0)"/>
    <use xlink:href="#DejaVuSans-64" transform="translate(1504.240234 0)"/>
    <use xlink:href="#DejaVuSans-73" transform="translate(1567.716797 0)"/>
    <use xlink:href="#DejaVuSans-34" transform="translate(1619.816406 0)"/>
    <use xlink:href="#DejaVuSans-30" transform="translate(1683.439453 0)"/>
    <use xlink:href="#DejaVuSans-35" transform="translate(1747.0625 0)"/>
   </g>
  </g>
 </g>
 <defs>
  <clipPath id="pe32b1a5be1">
   <rect x="47.72" y="49.72725" width="877.48" height="268.31275"/>
  </clipPath>
 </defs>
</svg>
