<?xml version="1.0" encoding="utf-8" standalone="no"?>
<!DOCTYPE svg PUBLIC "-//W3C//DTD SVG 1.1//EN"
  "http://www.w3.org/Graphics/SVG/1.1/DTD/svg11.dtd">
<svg xmlns:xlink="http://www.w3.org/1999/xlink" width="936pt" height="360pt" viewBox="0 0 936 360" xmlns="http://www.w3.org/2000/svg" version="1.1">
 <metadata>
  <rdf:RDF xmlns:dc="http://purl.org/dc/elements/1.1/" xmlns:cc="http://creativecommons.org/ns#" xmlns:rdf="http://www.w3.org/1999/02/22-rdf-syntax-ns#">
   <cc:Work>
    <dc:type rdf:resource="http://purl.org/dc/dcmitype/StillImage"/>
    <dc:date>2026-07-17T20:22:15.653458</dc:date>
    <dc:format>image/svg+xml</dc:format>
    <dc:creator>
     <cc:Agent>
      <dc:title>Matplotlib v3.10.8, https://matplotlib.org/</dc:title>
     </cc:Agent>
    </dc:creator>
   </cc:Work>
  </rdf:RDF>
 </metadata>
 <defs>
  <style type="text/css">*{stroke-linejoin: round; stroke-linecap: butt}</style>
 </defs>
 <g id="figure_1">
  <g id="patch_1">
   <path d="M 0 360 
L 936 360 
L 936 0 
L 0 0 
z
" style="fill: #ffffff"/>
  </g>
  <g id="axes_1">
   <g id="patch_2">
    <path d="M 47.72 318.04 
L 925.2 318.04 
L 925.2 49.72725 
L 47.72 49.72725 
z
" style="fill: #ffffff"/>
   </g>
   <g id="matplotlib.axis_1">
    <g id="xtick_1">
     <g id="line2d_1">
      <defs>
       <path id="m0de5b65d76" d="M 0 0 
L 0 3.5 
" style="stroke: #000000; stroke-width: 0.8"/>
      </defs>
      <g>
       <use xlink:href="#m0de5b65d76" x="86.806147" y="318.04" style="stroke: #000000; stroke-width: 0.8"/>
      </g>
     </g>
     <g id="text_1">
      <!-- 3.00 -->
      <g transform="translate(75.673334 332.638438) scale(0.1 -0.1)">
       <defs>
        <path id="DejaVuSans-33" d="M 2597 2516 
Q 3050 2419 3304 2112 
Q 3559 1806 3559 1356 
Q 3559 666 3084 287 
Q 2609 -91 1734 -91 
Q 1441 -91 1130 -33 
Q 819 25 488 141 
L 488 750 
Q 750 597 1062 519 
Q 1375 441 1716 441 
Q 2309 441 2620 675 
Q 2931 909 2931 1356 
Q 2931 1769 2642 2001 
Q 2353 2234 1838 2234 
L 1294 2234 
L 1294 2753 
L 1863 2753 
Q 2328 2753 2575 2939 
Q 2822 3125 2822 3475 
Q 2822 3834 2567 4026 
Q 2313 4219 1838 4219 
Q 1578 4219 1281 4162 
Q 984 4106 628 3988 
L 628 4550 
Q 988 4650 1302 4700 
Q 1616 4750 1894 4750 
Q 2613 4750 3031 4423 
Q 3450 4097 3450 3541 
Q 3450 3153 3228 2886 
Q 3006 2619 2597 2516 
z
" transform="scale(0.015625)"/>
        <path id="DejaVuSans-2e" d="M 684 794 
L 1344 794 
L 1344 0 
L 684 0 
L 684 794 
z
" transform="scale(0.015625)"/>
        <path id="DejaVuSans-30" d="M 2034 4250 
Q 1547 4250 1301 3770 
Q 1056 3291 1056 2328 
Q 1056 1369 1301 889 
Q 1547 409 2034 409 
Q 2525 409 2770 889 
Q 3016 1369 3016 2328 
Q 3016 3291 2770 3770 
Q 2525 4250 2034 4250 
z
M 2034 4750 
Q 2819 4750 3233 4129 
Q 3647 3509 3647 2328 
Q 3647 1150 3233 529 
Q 2819 -91 2034 -91 
Q 1250 -91 836 529 
Q 422 1150 422 2328 
Q 422 3509 836 4129 
Q 1250 4750 2034 4750 
z
" transform="scale(0.015625)"/>
       </defs>
       <use xlink:href="#DejaVuSans-33"/>
       <use xlink:href="#DejaVuSans-2e" transform="translate(63.623047 0)"/>
       <use xlink:href="#DejaVuSans-30" transform="translate(95.410156 0)"/>
       <use xlink:href="#DejaVuSans-30" transform="translate(159.033203 0)"/>
      </g>
     </g>
    </g>
    <g id="xtick_2">
     <g id="line2d_2">
      <g>
       <use xlink:href="#m0de5b65d76" x="246.667688" y="318.04" style="stroke: #000000; stroke-width: 0.8"/>
      </g>
     </g>
     <g id="text_2">
      <!-- 3.02 -->
      <g transform="translate(235.534876 332.638438) scale(0.1 -0.1)">
       <defs>
        <path id="DejaVuSans-32" d="M 1228 531 
L 3431 531 
L 3431 0 
L 469 0 
L 469 531 
Q 828 903 1448 1529 
Q 2069 2156 2228 2338 
Q 2531 2678 2651 2914 
Q 2772 3150 2772 3378 
Q 2772 3750 2511 3984 
Q 2250 4219 1831 4219 
Q 1534 4219 1204 4116 
Q 875 4013 500 3803 
L 500 4441 
Q 881 4594 1212 4672 
Q 1544 4750 1819 4750 
Q 2544 4750 2975 4387 
Q 3406 4025 3406 3419 
Q 3406 3131 3298 2873 
Q 3191 2616 2906 2266 
Q 2828 2175 2409 1742 
Q 1991 1309 1228 531 
z
" transform="scale(0.015625)"/>
       </defs>
       <use xlink:href="#DejaVuSans-33"/>
       <use xlink:href="#DejaVuSans-2e" transform="translate(63.623047 0)"/>
       <use xlink:href="#DejaVuSans-30" transform="translate(95.410156 0)"/>
       <use xlink:href="#DejaVuSans-32" transform="translate(159.033203 0)"/>
      </g>
     </g>
    </g>
    <g id="xtick_3">
     <g id="line2d_3">
      <g>
       <use xlink:href="#m0de5b65d76" x="406.529229" y="318.04" style="stroke: #000000; stroke-width: 0.8"/>
      </g>
     </g>
     <g id="text_3">
      <!-- 3.04 -->
      <g transform="translate(395.396417 332.638438) scale(0.1 -0.1)">
       <defs>
        <path id="DejaVuSans-34" d="M 2419 4116 
L 825 1625 
L 2419 1625 
L 2419 4116 
z
M 2253 4666 
L 3047 4666 
L 3047 1625 
L 3713 1625 
L 3713 1100 
L 3047 1100 
L 3047 0 
L 2419 0 
L 2419 1100 
L 313 1100 
L 313 1709 
L 2253 4666 
z
" transform="scale(0.015625)"/>
       </defs>
       <use xlink:href="#DejaVuSans-33"/>
       <use xlink:href="#DejaVuSans-2e" transform="translate(63.623047 0)"/>
       <use xlink:href="#DejaVuSans-30" transform="translate(95.410156 0)"/>
       <use xlink:href="#DejaVuSans-34" transform="translate(159.033203 0)"/>
      </g>
     </g>
    </g>
    <g id="xtick_4">
     <g id="line2d_4">
      <g>
       <use xlink:href="#m0de5b65d76" x="566.390771" y="318.04" style="stroke: #000000; stroke-width: 0.8"/>
      </g>
     </g>
     <g id="text_4">
      <!-- 3.06 -->
      <g transform="translate(555.257958 332.638438) scale(0.1 -0.1)">
       <defs>
        <path id="DejaVuSans-36" d="M 2113 2584 
Q 1688 2584 1439 2293 
Q 1191 2003 1191 1497 
Q 1191 994 1439 701 
Q 1688 409 2113 409 
Q 2538 409 2786 701 
Q 3034 994 3034 1497 
Q 3034 2003 2786 2293 
Q 2538 2584 2113 2584 
z
M 3366 4563 
L 3366 3988 
Q 3128 4100 2886 4159 
Q 2644 4219 2406 4219 
Q 1781 4219 1451 3797 
Q 1122 3375 1075 2522 
Q 1259 2794 1537 2939 
Q 1816 3084 2150 3084 
Q 2853 3084 3261 2657 
Q 3669 2231 3669 1497 
Q 3669 778 3244 343 
Q 2819 -91 2113 -91 
Q 1303 -91 875 529 
Q 447 1150 447 2328 
Q 447 3434 972 4092 
Q 1497 4750 2381 4750 
Q 2619 4750 2861 4703 
Q 3103 4656 3366 4563 
z
" transform="scale(0.015625)"/>
       </defs>
       <use xlink:href="#DejaVuSans-33"/>
       <use xlink:href="#DejaVuSans-2e" transform="translate(63.623047 0)"/>
       <use xlink:href="#DejaVuSans-30" transform="translate(95.410156 0)"/>
       <use xlink:href="#DejaVuSans-36" transform="translate(159.033203 0)"/>
      </g>
     </g>
    </g>
    <g id="xtick_5">
     <g id="line2d_5">
      <g>
       <use xlink:href="#m0de5b65d76" x="726.252312" y="318.04" style="stroke: #000000; stroke-width: 0.8"/>
      </g>
     </g>
     <g id="text_5">
      <!-- 3.08 -->
      <g transform="translate(715.119499 332.638438) scale(0.1 -0.1)">
       <defs>
        <path id="DejaVuSans-38" d="M 2034 2216 
Q 1584 2216 1326 1975 
Q 1069 1734 1069 1313 
Q 1069 891 1326 650 
Q 1584 409 2034 409 
Q 2484 409 2743 651 
Q 3003 894 3003 1313 
Q 3003 1734 2745 1975 
Q 2488 2216 2034 2216 
z
M 1403 2484 
Q 997 2584 770 2862 
Q 544 3141 544 3541 
Q 544 4100 942 4425 
Q 1341 4750 2034 4750 
Q 2731 4750 3128 4425 
Q 3525 4100 3525 3541 
Q 3525 3141 3298 2862 
Q 3072 2584 2669 2484 
Q 3125 2378 3379 2068 
Q 3634 1759 3634 1313 
Q 3634 634 3220 271 
Q 2806 -91 2034 -91 
Q 1263 -91 848 271 
Q 434 634 434 1313 
Q 434 1759 690 2068 
Q 947 2378 1403 2484 
z
M 1172 3481 
Q 1172 3119 1398 2916 
Q 1625 2713 2034 2713 
Q 2441 2713 2670 2916 
Q 2900 3119 2900 3481 
Q 2900 3844 2670 4047 
Q 2441 4250 2034 4250 
Q 1625 4250 1398 4047 
Q 1172 3844 1172 3481 
z
" transform="scale(0.015625)"/>
       </defs>
       <use xlink:href="#DejaVuSans-33"/>
       <use xlink:href="#DejaVuSans-2e" transform="translate(63.623047 0)"/>
       <use xlink:href="#DejaVuSans-30" transform="translate(95.410156 0)"/>
       <use xlink:href="#DejaVuSans-38" transform="translate(159.033203 0)"/>
      </g>
     </g>
    </g>
    <g id="xtick_6">
     <g id="line2d_6">
      <g>
       <use xlink:href="#m0de5b65d76" x="886.113853" y="318.04" style="stroke: #000000; stroke-width: 0.8"/>
      </g>
     </g>
     <g id="text_6">
      <!-- 3.10 -->
      <g transform="translate(874.981041 332.638438) scale(0.1 -0.1)">
       <defs>
        <path id="DejaVuSans-31" d="M 794 531 
L 1825 531 
L 1825 4091 
L 703 3866 
L 703 4441 
L 1819 4666 
L 2450 4666 
L 2450 531 
L 3481 531 
L 3481 0 
L 794 0 
L 794 531 
z
" transform="scale(0.015625)"/>
       </defs>
       <use xlink:href="#DejaVuSans-33"/>
       <use xlink:href="#DejaVuSans-2e" transform="translate(63.623047 0)"/>
       <use xlink:href="#DejaVuSans-31" transform="translate(95.410156 0)"/>
       <use xlink:href="#DejaVuSans-30" transform="translate(159.033203 0)"/>
      </g>
     </g>
    </g>
    <g id="text_7">
     <!-- chr16 coordinate (hg38) -->
     <g transform="translate(425.670156 346.316563) scale(0.1 -0.1)">
      <defs>
       <path id="DejaVuSans-63" d="M 3122 3366 
L 3122 2828 
Q 2878 2963 2633 3030 
Q 2388 3097 2138 3097 
Q 1578 3097 1268 2742 
Q 959 2388 959 1747 
Q 959 1106 1268 751 
Q 1578 397 2138 397 
Q 2388 397 2633 464 
Q 2878 531 3122 666 
L 3122 134 
Q 2881 22 2623 -34 
Q 2366 -91 2075 -91 
Q 1284 -91 818 406 
Q 353 903 353 1747 
Q 353 2603 823 3093 
Q 1294 3584 2113 3584 
Q 2378 3584 2631 3529 
Q 2884 3475 3122 3366 
z
" transform="scale(0.015625)"/>
       <path id="DejaVuSans-68" d="M 3513 2113 
L 3513 0 
L 2938 0 
L 2938 2094 
Q 2938 2591 2744 2837 
Q 2550 3084 2163 3084 
Q 1697 3084 1428 2787 
Q 1159 2491 1159 1978 
L 1159 0 
L 581 0 
L 581 4863 
L 1159 4863 
L 1159 2956 
Q 1366 3272 1645 3428 
Q 1925 3584 2291 3584 
Q 2894 3584 3203 3211 
Q 3513 2838 3513 2113 
z
" transform="scale(0.015625)"/>
       <path id="DejaVuSans-72" d="M 2631 2963 
Q 2534 3019 2420 3045 
Q 2306 3072 2169 3072 
Q 1681 3072 1420 2755 
Q 1159 2438 1159 1844 
L 1159 0 
L 581 0 
L 581 3500 
L 1159 3500 
L 1159 2956 
Q 1341 3275 1631 3429 
Q 1922 3584 2338 3584 
Q 2397 3584 2469 3576 
Q 2541 3569 2628 3553 
L 2631 2963 
z
" transform="scale(0.015625)"/>
       <path id="DejaVuSans-20" transform="scale(0.015625)"/>
       <path id="DejaVuSans-6f" d="M 1959 3097 
Q 1497 3097 1228 2736 
Q 959 2375 959 1747 
Q 959 1119 1226 758 
Q 1494 397 1959 397 
Q 2419 397 2687 759 
Q 2956 1122 2956 1747 
Q 2956 2369 2687 2733 
Q 2419 3097 1959 3097 
z
M 1959 3584 
Q 2709 3584 3137 3096 
Q 3566 2609 3566 1747 
Q 3566 888 3137 398 
Q 2709 -91 1959 -91 
Q 1206 -91 779 398 
Q 353 888 353 1747 
Q 353 2609 779 3096 
Q 1206 3584 1959 3584 
z
" transform="scale(0.015625)"/>
       <path id="DejaVuSans-64" d="M 2906 2969 
L 2906 4863 
L 3481 4863 
L 3481 0 
L 2906 0 
L 2906 525 
Q 2725 213 2448 61 
Q 2172 -91 1784 -91 
Q 1150 -91 751 415 
Q 353 922 353 1747 
Q 353 2572 751 3078 
Q 1150 3584 1784 3584 
Q 2172 3584 2448 3432 
Q 2725 3281 2906 2969 
z
M 947 1747 
Q 947 1113 1208 752 
Q 1469 391 1925 391 
Q 2381 391 2643 752 
Q 2906 1113 2906 1747 
Q 2906 2381 2643 2742 
Q 2381 3103 1925 3103 
Q 1469 3103 1208 2742 
Q 947 2381 947 1747 
z
" transform="scale(0.015625)"/>
       <path id="DejaVuSans-69" d="M 603 3500 
L 1178 3500 
L 1178 0 
L 603 0 
L 603 3500 
z
M 603 4863 
L 1178 4863 
L 1178 4134 
L 603 4134 
L 603 4863 
z
" transform="scale(0.015625)"/>
       <path id="DejaVuSans-6e" d="M 3513 2113 
L 3513 0 
L 2938 0 
L 2938 2094 
Q 2938 2591 2744 2837 
Q 2550 3084 2163 3084 
Q 1697 3084 1428 2787 
Q 1159 2491 1159 1978 
L 1159 0 
L 581 0 
L 581 3500 
L 1159 3500 
L 1159 2956 
Q 1366 3272 1645 3428 
Q 1925 3584 2291 3584 
Q 2894 3584 3203 3211 
Q 3513 2838 3513 2113 
z
" transform="scale(0.015625)"/>
       <path id="DejaVuSans-61" d="M 2194 1759 
Q 1497 1759 1228 1600 
Q 959 1441 959 1056 
Q 959 750 1161 570 
Q 1363 391 1709 391 
Q 2188 391 2477 730 
Q 2766 1069 2766 1631 
L 2766 1759 
L 2194 1759 
z
M 3341 1997 
L 3341 0 
L 2766 0 
L 2766 531 
Q 2569 213 2275 61 
Q 1981 -91 1556 -91 
Q 1019 -91 701 211 
Q 384 513 384 1019 
Q 384 1609 779 1909 
Q 1175 2209 1959 2209 
L 2766 2209 
L 2766 2266 
Q 2766 2663 2505 2880 
Q 2244 3097 1772 3097 
Q 1472 3097 1187 3025 
Q 903 2953 641 2809 
L 641 3341 
Q 956 3463 1253 3523 
Q 1550 3584 1831 3584 
Q 2591 3584 2966 3190 
Q 3341 2797 3341 1997 
z
" transform="scale(0.015625)"/>
       <path id="DejaVuSans-74" d="M 1172 4494 
L 1172 3500 
L 2356 3500 
L 2356 3053 
L 1172 3053 
L 1172 1153 
Q 1172 725 1289 603 
Q 1406 481 1766 481 
L 2356 481 
L 2356 0 
L 1766 0 
Q 1100 0 847 248 
Q 594 497 594 1153 
L 594 3053 
L 172 3053 
L 172 3500 
L 594 3500 
L 594 4494 
L 1172 4494 
z
" transform="scale(0.015625)"/>
       <path id="DejaVuSans-65" d="M 3597 1894 
L 3597 1613 
L 953 1613 
Q 991 1019 1311 708 
Q 1631 397 2203 397 
Q 2534 397 2845 478 
Q 3156 559 3463 722 
L 3463 178 
Q 3153 47 2828 -22 
Q 2503 -91 2169 -91 
Q 1331 -91 842 396 
Q 353 884 353 1716 
Q 353 2575 817 3079 
Q 1281 3584 2069 3584 
Q 2775 3584 3186 3129 
Q 3597 2675 3597 1894 
z
M 3022 2063 
Q 3016 2534 2758 2815 
Q 2500 3097 2075 3097 
Q 1594 3097 1305 2825 
Q 1016 2553 972 2059 
L 3022 2063 
z
" transform="scale(0.015625)"/>
       <path id="DejaVuSans-28" d="M 1984 4856 
Q 1566 4138 1362 3434 
Q 1159 2731 1159 2009 
Q 1159 1288 1364 580 
Q 1569 -128 1984 -844 
L 1484 -844 
Q 1016 -109 783 600 
Q 550 1309 550 2009 
Q 550 2706 781 3412 
Q 1013 4119 1484 4856 
L 1984 4856 
z
" transform="scale(0.015625)"/>
       <path id="DejaVuSans-67" d="M 2906 1791 
Q 2906 2416 2648 2759 
Q 2391 3103 1925 3103 
Q 1463 3103 1205 2759 
Q 947 2416 947 1791 
Q 947 1169 1205 825 
Q 1463 481 1925 481 
Q 2391 481 2648 825 
Q 2906 1169 2906 1791 
z
M 3481 434 
Q 3481 -459 3084 -895 
Q 2688 -1331 1869 -1331 
Q 1566 -1331 1297 -1286 
Q 1028 -1241 775 -1147 
L 775 -588 
Q 1028 -725 1275 -790 
Q 1522 -856 1778 -856 
Q 2344 -856 2625 -561 
Q 2906 -266 2906 331 
L 2906 616 
Q 2728 306 2450 153 
Q 2172 0 1784 0 
Q 1141 0 747 490 
Q 353 981 353 1791 
Q 353 2603 747 3093 
Q 1141 3584 1784 3584 
Q 2172 3584 2450 3431 
Q 2728 3278 2906 2969 
L 2906 3500 
L 3481 3500 
L 3481 434 
z
" transform="scale(0.015625)"/>
       <path id="DejaVuSans-29" d="M 513 4856 
L 1013 4856 
Q 1481 4119 1714 3412 
Q 1947 2706 1947 2009 
Q 1947 1309 1714 600 
Q 1481 -109 1013 -844 
L 513 -844 
Q 928 -128 1133 580 
Q 1338 1288 1338 2009 
Q 1338 2731 1133 3434 
Q 928 4138 513 4856 
z
" transform="scale(0.015625)"/>
      </defs>
      <use xlink:href="#DejaVuSans-63"/>
      <use xlink:href="#DejaVuSans-68" transform="translate(54.980469 0)"/>
      <use xlink:href="#DejaVuSans-72" transform="translate(118.359375 0)"/>
      <use xlink:href="#DejaVuSans-31" transform="translate(159.472656 0)"/>
      <use xlink:href="#DejaVuSans-36" transform="translate(223.095703 0)"/>
      <use xlink:href="#DejaVuSans-20" transform="translate(286.71875 0)"/>
      <use xlink:href="#DejaVuSans-63" transform="translate(318.505859 0)"/>
      <use xlink:href="#DejaVuSans-6f" transform="translate(373.486328 0)"/>
      <use xlink:href="#DejaVuSans-6f" transform="translate(434.667969 0)"/>
      <use xlink:href="#DejaVuSans-72" transform="translate(495.849609 0)"/>
      <use xlink:href="#DejaVuSans-64" transform="translate(535.212891 0)"/>
      <use xlink:href="#DejaVuSans-69" transform="translate(598.689453 0)"/>
      <use xlink:href="#DejaVuSans-6e" transform="translate(626.472656 0)"/>
      <use xlink:href="#DejaVuSans-61" transform="translate(689.851562 0)"/>
      <use xlink:href="#DejaVuSans-74" transform="translate(751.130859 0)"/>
      <use xlink:href="#DejaVuSans-65" transform="translate(790.339844 0)"/>
      <use xlink:href="#DejaVuSans-20" transform="translate(851.863281 0)"/>
      <use xlink:href="#DejaVuSans-28" transform="translate(883.650391 0)"/>
      <use xlink:href="#DejaVuSans-68" transform="translate(922.664062 0)"/>
      <use xlink:href="#DejaVuSans-67" transform="translate(986.042969 0)"/>
      <use xlink:href="#DejaVuSans-33" transform="translate(1049.519531 0)"/>
      <use xlink:href="#DejaVuSans-38" transform="translate(1113.142578 0)"/>
      <use xlink:href="#DejaVuSans-29" transform="translate(1176.765625 0)"/>
     </g>
    </g>
    <g id="text_8">
     <!-- 1e6 -->
     <g transform="translate(906.321875 345.316563) scale(0.1 -0.1)">
      <use xlink:href="#DejaVuSans-31"/>
      <use xlink:href="#DejaVuSans-65" transform="translate(63.623047 0)"/>
      <use xlink:href="#DejaVuSans-36" transform="translate(125.146484 0)"/>
     </g>
    </g>
   </g>
   <g id="matplotlib.axis_2">
    <g id="ytick_1">
     <g id="line2d_7">
      <defs>
       <path id="m569b00bb20" d="M 0 0 
L -3.5 0 
" style="stroke: #000000; stroke-width: 0.8"/>
      </defs>
      <g>
       <use xlink:href="#m569b00bb20" x="47.72" y="305.843966" style="stroke: #000000; stroke-width: 0.8"/>
      </g>
     </g>
     <g id="text_9">
      <!-- 0.0 -->
      <g transform="translate(24.816875 309.643185) scale(0.1 -0.1)">
       <use xlink:href="#DejaVuSans-30"/>
       <use xlink:href="#DejaVuSans-2e" transform="translate(63.623047 0)"/>
       <use xlink:href="#DejaVuSans-30" transform="translate(95.410156 0)"/>
      </g>
     </g>
    </g>
    <g id="ytick_2">
     <g id="line2d_8">
      <g>
       <use xlink:href="#m569b00bb20" x="47.72" y="257.05983" style="stroke: #000000; stroke-width: 0.8"/>
      </g>
     </g>
     <g id="text_10">
      <!-- 0.2 -->
      <g transform="translate(24.816875 260.859048) scale(0.1 -0.1)">
       <use xlink:href="#DejaVuSans-30"/>
       <use xlink:href="#DejaVuSans-2e" transform="translate(63.623047 0)"/>
       <use xlink:href="#DejaVuSans-32" transform="translate(95.410156 0)"/>
      </g>
     </g>
    </g>
    <g id="ytick_3">
     <g id="line2d_9">
      <g>
       <use xlink:href="#m569b00bb20" x="47.72" y="208.275693" style="stroke: #000000; stroke-width: 0.8"/>
      </g>
     </g>
     <g id="text_11">
      <!-- 0.4 -->
      <g transform="translate(24.816875 212.074912) scale(0.1 -0.1)">
       <use xlink:href="#DejaVuSans-30"/>
       <use xlink:href="#DejaVuSans-2e" transform="translate(63.623047 0)"/>
       <use xlink:href="#DejaVuSans-34" transform="translate(95.410156 0)"/>
      </g>
     </g>
    </g>
    <g id="ytick_4">
     <g id="line2d_10">
      <g>
       <use xlink:href="#m569b00bb20" x="47.72" y="159.491557" style="stroke: #000000; stroke-width: 0.8"/>
      </g>
     </g>
     <g id="text_12">
      <!-- 0.6 -->
      <g transform="translate(24.816875 163.290776) scale(0.1 -0.1)">
       <use xlink:href="#DejaVuSans-30"/>
       <use xlink:href="#DejaVuSans-2e" transform="translate(63.623047 0)"/>
       <use xlink:href="#DejaVuSans-36" transform="translate(95.410156 0)"/>
      </g>
     </g>
    </g>
    <g id="ytick_5">
     <g id="line2d_11">
      <g>
       <use xlink:href="#m569b00bb20" x="47.72" y="110.70742" style="stroke: #000000; stroke-width: 0.8"/>
      </g>
     </g>
     <g id="text_13">
      <!-- 0.8 -->
      <g transform="translate(24.816875 114.506639) scale(0.1 -0.1)">
       <use xlink:href="#DejaVuSans-30"/>
       <use xlink:href="#DejaVuSans-2e" transform="translate(63.623047 0)"/>
       <use xlink:href="#DejaVuSans-38" transform="translate(95.410156 0)"/>
      </g>
     </g>
    </g>
    <g id="ytick_6">
     <g id="line2d_12">
      <g>
       <use xlink:href="#m569b00bb20" x="47.72" y="61.923284" style="stroke: #000000; stroke-width: 0.8"/>
      </g>
     </g>
     <g id="text_14">
      <!-- 1.0 -->
      <g transform="translate(24.816875 65.722503) scale(0.1 -0.1)">
       <use xlink:href="#DejaVuSans-31"/>
       <use xlink:href="#DejaVuSans-2e" transform="translate(63.623047 0)"/>
       <use xlink:href="#DejaVuSans-30" transform="translate(95.410156 0)"/>
      </g>
     </g>
    </g>
    <g id="text_15">
     <!-- global robust normalized signal -->
     <g transform="translate(18.737188 262.384406) rotate(-90) scale(0.1 -0.1)">
      <defs>
       <path id="DejaVuSans-6c" d="M 603 4863 
L 1178 4863 
L 1178 0 
L 603 0 
L 603 4863 
z
" transform="scale(0.015625)"/>
       <path id="DejaVuSans-62" d="M 3116 1747 
Q 3116 2381 2855 2742 
Q 2594 3103 2138 3103 
Q 1681 3103 1420 2742 
Q 1159 2381 1159 1747 
Q 1159 1113 1420 752 
Q 1681 391 2138 391 
Q 2594 391 2855 752 
Q 3116 1113 3116 1747 
z
M 1159 2969 
Q 1341 3281 1617 3432 
Q 1894 3584 2278 3584 
Q 2916 3584 3314 3078 
Q 3713 2572 3713 1747 
Q 3713 922 3314 415 
Q 2916 -91 2278 -91 
Q 1894 -91 1617 61 
Q 1341 213 1159 525 
L 1159 0 
L 581 0 
L 581 4863 
L 1159 4863 
L 1159 2969 
z
" transform="scale(0.015625)"/>
       <path id="DejaVuSans-75" d="M 544 1381 
L 544 3500 
L 1119 3500 
L 1119 1403 
Q 1119 906 1312 657 
Q 1506 409 1894 409 
Q 2359 409 2629 706 
Q 2900 1003 2900 1516 
L 2900 3500 
L 3475 3500 
L 3475 0 
L 2900 0 
L 2900 538 
Q 2691 219 2414 64 
Q 2138 -91 1772 -91 
Q 1169 -91 856 284 
Q 544 659 544 1381 
z
M 1991 3584 
L 1991 3584 
z
" transform="scale(0.015625)"/>
       <path id="DejaVuSans-73" d="M 2834 3397 
L 2834 2853 
Q 2591 2978 2328 3040 
Q 2066 3103 1784 3103 
Q 1356 3103 1142 2972 
Q 928 2841 928 2578 
Q 928 2378 1081 2264 
Q 1234 2150 1697 2047 
L 1894 2003 
Q 2506 1872 2764 1633 
Q 3022 1394 3022 966 
Q 3022 478 2636 193 
Q 2250 -91 1575 -91 
Q 1294 -91 989 -36 
Q 684 19 347 128 
L 347 722 
Q 666 556 975 473 
Q 1284 391 1588 391 
Q 1994 391 2212 530 
Q 2431 669 2431 922 
Q 2431 1156 2273 1281 
Q 2116 1406 1581 1522 
L 1381 1569 
Q 847 1681 609 1914 
Q 372 2147 372 2553 
Q 372 3047 722 3315 
Q 1072 3584 1716 3584 
Q 2034 3584 2315 3537 
Q 2597 3491 2834 3397 
z
" transform="scale(0.015625)"/>
       <path id="DejaVuSans-6d" d="M 3328 2828 
Q 3544 3216 3844 3400 
Q 4144 3584 4550 3584 
Q 5097 3584 5394 3201 
Q 5691 2819 5691 2113 
L 5691 0 
L 5113 0 
L 5113 2094 
Q 5113 2597 4934 2840 
Q 4756 3084 4391 3084 
Q 3944 3084 3684 2787 
Q 3425 2491 3425 1978 
L 3425 0 
L 2847 0 
L 2847 2094 
Q 2847 2600 2669 2842 
Q 2491 3084 2119 3084 
Q 1678 3084 1418 2786 
Q 1159 2488 1159 1978 
L 1159 0 
L 581 0 
L 581 3500 
L 1159 3500 
L 1159 2956 
Q 1356 3278 1631 3431 
Q 1906 3584 2284 3584 
Q 2666 3584 2933 3390 
Q 3200 3197 3328 2828 
z
" transform="scale(0.015625)"/>
       <path id="DejaVuSans-7a" d="M 353 3500 
L 3084 3500 
L 3084 2975 
L 922 459 
L 3084 459 
L 3084 0 
L 275 0 
L 275 525 
L 2438 3041 
L 353 3041 
L 353 3500 
z
" transform="scale(0.015625)"/>
      </defs>
      <use xlink:href="#DejaVuSans-67"/>
      <use xlink:href="#DejaVuSans-6c" transform="translate(63.476562 0)"/>
      <use xlink:href="#DejaVuSans-6f" transform="translate(91.259766 0)"/>
      <use xlink:href="#DejaVuSans-62" transform="translate(152.441406 0)"/>
      <use xlink:href="#DejaVuSans-61" transform="translate(215.917969 0)"/>
      <use xlink:href="#DejaVuSans-6c" transform="translate(277.197266 0)"/>
      <use xlink:href="#DejaVuSans-20" transform="translate(304.980469 0)"/>
      <use xlink:href="#DejaVuSans-72" transform="translate(336.767578 0)"/>
      <use xlink:href="#DejaVuSans-6f" transform="translate(375.630859 0)"/>
      <use xlink:href="#DejaVuSans-62" transform="translate(436.8125 0)"/>
      <use xlink:href="#DejaVuSans-75" transform="translate(500.289062 0)"/>
      <use xlink:href="#DejaVuSans-73" transform="translate(563.667969 0)"/>
      <use xlink:href="#DejaVuSans-74" transform="translate(615.767578 0)"/>
      <use xlink:href="#DejaVuSans-20" transform="translate(654.976562 0)"/>
      <use xlink:href="#DejaVuSans-6e" transform="translate(686.763672 0)"/>
      <use xlink:href="#DejaVuSans-6f" transform="translate(750.142578 0)"/>
      <use xlink:href="#DejaVuSans-72" transform="translate(811.324219 0)"/>
      <use xlink:href="#DejaVuSans-6d" transform="translate(850.6875 0)"/>
      <use xlink:href="#DejaVuSans-61" transform="translate(948.099609 0)"/>
      <use xlink:href="#DejaVuSans-6c" transform="translate(1009.378906 0)"/>
      <use xlink:href="#DejaVuSans-69" transform="translate(1037.162109 0)"/>
      <use xlink:href="#DejaVuSans-7a" transform="translate(1064.945312 0)"/>
      <use xlink:href="#DejaVuSans-65" transform="translate(1117.435547 0)"/>
      <use xlink:href="#DejaVuSans-64" transform="translate(1178.958984 0)"/>
      <use xlink:href="#DejaVuSans-20" transform="translate(1242.435547 0)"/>
      <use xlink:href="#DejaVuSans-73" transform="translate(1274.222656 0)"/>
      <use xlink:href="#DejaVuSans-69" transform="translate(1326.322266 0)"/>
      <use xlink:href="#DejaVuSans-67" transform="translate(1354.105469 0)"/>
      <use xlink:href="#DejaVuSans-6e" transform="translate(1417.582031 0)"/>
      <use xlink:href="#DejaVuSans-61" transform="translate(1480.960938 0)"/>
      <use xlink:href="#DejaVuSans-6c" transform="translate(1542.240234 0)"/>
     </g>
    </g>
   </g>
   <g id="line2d_13">
    <path d="M 87.605455 301.626694 
L 89.20407 301.216171 
L 90.802685 294.994898 
L 92.401301 294.115632 
L 93.999916 299.140637 
L 95.598532 301.793919 
L 97.197147 301.70244 
L 98.795762 303.154124 
L 100.394378 299.543605 
L 101.992993 300.116052 
L 103.591609 300.402503 
L 105.190224 300.035561 
L 106.788839 301.985497 
L 108.387455 299.834935 
L 109.98607 297.876238 
L 111.584686 302.350088 
L 113.183301 304.933054 
L 114.781917 293.492197 
L 116.380532 283.457129 
L 117.979147 299.399308 
L 119.577763 290.048096 
L 121.176378 163.463736 
L 122.774994 129.522407 
L 124.373609 222.996526 
L 125.972224 187.667738 
L 127.57084 194.121059 
L 129.169455 267.667913 
L 130.768071 293.374731 
L 132.366686 300.963248 
L 133.965302 302.206338 
L 135.563917 296.315127 
L 137.162532 299.84083 
L 138.761148 303.045117 
L 140.359763 299.137376 
L 141.958379 301.016216 
L 143.556994 304.495273 
L 145.155609 298.562368 
L 146.754225 298.002106 
L 148.35284 303.387032 
L 149.951456 297.681662 
L 151.550071 299.320468 
L 153.148686 302.685475 
L 154.747302 302.127957 
L 156.345917 302.894412 
L 157.944533 297.77022 
L 159.543148 302.15309 
L 161.141764 300.074188 
L 162.740379 303.130533 
L 164.338994 304.669475 
L 167.536225 301.051433 
L 169.134841 303.201682 
L 170.733456 303.292047 
L 172.332071 302.304829 
L 173.930687 303.427976 
L 175.529302 304.241193 
L 177.127918 302.440805 
L 178.726533 303.656321 
L 180.325148 303.28713 
L 181.923764 303.912807 
L 183.522379 301.963207 
L 185.120995 304.402875 
L 186.71961 298.628305 
L 188.318226 298.671002 
L 189.916841 299.714009 
L 191.515456 299.676349 
L 193.114072 301.521048 
L 194.712687 293.530858 
L 196.311303 290.552004 
L 197.909918 292.016251 
L 199.508533 291.497642 
L 201.107149 301.837357 
L 202.705764 301.559482 
L 204.30438 299.419533 
L 205.902995 303.325641 
L 207.50161 297.232982 
L 209.100226 299.02298 
L 210.698841 304.975598 
L 212.297457 303.137014 
L 213.896072 304.516582 
L 215.494688 304.155134 
L 217.093303 305.226783 
L 218.691918 305.665258 
L 220.290534 304.022295 
L 221.889149 303.632698 
L 223.487765 301.82011 
L 225.08638 304.208503 
L 226.684995 303.469211 
L 228.283611 304.26342 
L 229.882226 304.331564 
L 231.480842 303.557615 
L 233.079457 302.020473 
L 234.678073 300.278936 
L 236.276688 301.142522 
L 237.875303 298.73707 
L 239.473919 300.830894 
L 241.072534 301.841144 
L 242.67115 300.149963 
L 244.269765 298.049299 
L 245.86838 269.842891 
L 247.466996 187.500705 
L 249.065611 189.631748 
L 250.664227 61.923284 
L 252.262842 61.923284 
L 253.861457 133.889595 
L 255.460073 167.128217 
L 257.058688 65.89055 
L 258.657304 152.661317 
L 260.255919 121.43358 
L 261.854535 160.621693 
L 263.45315 191.356041 
L 265.051765 216.711679 
L 266.650381 277.543015 
L 268.248996 239.578288 
L 269.847612 255.250008 
L 271.446227 241.212639 
L 273.044842 246.475131 
L 274.643458 213.476922 
L 276.242073 134.394161 
L 277.840689 140.868829 
L 279.439304 175.221069 
L 281.037919 254.276418 
L 282.636535 226.220231 
L 284.23515 242.116689 
L 285.833766 277.306383 
L 287.432381 293.222097 
L 289.030997 302.277175 
L 290.629612 297.514312 
L 292.228227 299.8748 
L 293.826843 303.114794 
L 295.425458 302.389546 
L 297.024074 299.287654 
L 298.622689 301.874085 
L 300.221304 303.387311 
L 301.81992 304.329285 
L 303.418535 304.935095 
L 305.017151 302.938017 
L 306.615766 300.089363 
L 308.214381 303.323982 
L 309.812997 296.084038 
L 311.411612 287.676897 
L 313.010228 295.724435 
L 314.608843 300.46769 
L 316.207459 296.079542 
L 317.806074 296.999856 
L 319.404689 301.745304 
L 321.003305 303.638322 
L 322.60192 303.843717 
L 324.200536 302.995677 
L 325.799151 304.542533 
L 327.397766 301.794015 
L 328.996382 299.606136 
L 330.594997 299.724581 
L 332.193613 298.325182 
L 333.792228 303.235238 
L 335.390844 302.322532 
L 336.989459 300.642188 
L 338.588074 303.780793 
L 340.18669 303.192553 
L 341.785305 299.091348 
L 343.383921 301.166207 
L 346.581151 303.332554 
L 348.179767 298.48027 
L 349.778382 300.461795 
L 351.376998 305.843966 
L 352.975613 305.246352 
L 354.574228 302.310722 
L 356.172844 302.393215 
L 357.771459 295.505363 
L 359.370075 294.780586 
L 360.96869 299.016122 
L 362.567306 302.295996 
L 364.165921 298.908149 
L 365.764536 299.632211 
L 367.363152 299.455893 
L 368.961767 298.268162 
L 370.560383 296.323151 
L 372.158998 298.825847 
L 373.757613 297.340863 
L 375.356229 287.330222 
L 376.954844 265.007434 
L 378.55346 269.300163 
L 380.152075 284.60353 
L 381.75069 294.314595 
L 383.349306 296.382436 
L 384.947921 301.094684 
L 386.546537 302.091567 
L 388.145152 301.23699 
L 389.743768 295.634576 
L 391.342383 299.376053 
L 392.940998 296.629118 
L 394.539614 289.675361 
L 396.138229 293.043644 
L 397.736845 300.250763 
L 399.33546 297.44975 
L 400.934075 296.762544 
L 402.532691 298.517177 
L 404.131306 302.520003 
L 405.729922 300.260314 
L 407.328537 302.088581 
L 408.927152 301.414568 
L 410.525768 301.464543 
L 412.124383 305.843966 
L 416.92023 303.337379 
L 418.518845 298.844409 
L 420.11746 298.178331 
L 421.716076 301.282001 
L 423.314691 303.719746 
L 424.913307 299.150159 
L 426.511922 300.364041 
L 428.110537 302.365161 
L 429.709153 300.496517 
L 431.307768 305.064087 
L 432.906384 304.651027 
L 434.504999 299.050753 
L 436.103615 295.18773 
L 437.70223 296.176899 
L 439.300845 296.832325 
L 440.899461 299.264869 
L 442.498076 302.3611 
L 444.096692 299.599087 
L 445.695307 296.252671 
L 447.293922 296.433675 
L 448.892538 284.6907 
L 450.491153 240.675148 
L 452.089769 189.022491 
L 453.688384 129.623895 
L 455.286999 62.252895 
L 456.885615 94.20903 
L 458.48423 170.133353 
L 460.082846 217.949302 
L 461.681461 277.829065 
L 463.280077 296.040739 
L 466.477307 303.330951 
L 468.075923 302.520019 
L 469.674538 301.52448 
L 471.273154 298.364625 
L 472.871769 299.480843 
L 474.470384 300.220568 
L 476.069 295.733664 
L 477.667615 297.899821 
L 479.266231 299.499066 
L 480.864846 300.38542 
L 482.463461 305.377485 
L 484.062077 304.075167 
L 485.660692 304.167277 
L 487.259308 303.034172 
L 488.857923 304.373671 
L 490.456539 304.105121 
L 493.653769 300.521226 
L 495.252385 303.092759 
L 496.851 302.947466 
L 498.449616 304.376112 
L 500.048231 302.796635 
L 503.245462 305.839247 
L 504.844077 303.207332 
L 506.442693 303.117514 
L 508.041308 305.55118 
L 509.639923 305.843966 
L 511.238539 304.929038 
L 512.837154 300.769192 
L 514.43577 302.90402 
L 516.034385 305.843966 
L 517.633001 303.94912 
L 519.231616 303.659477 
L 520.830231 304.56637 
L 522.428847 304.908111 
L 524.027462 303.500699 
L 525.626078 303.503329 
L 527.224693 304.377804 
L 528.823308 302.171856 
L 530.421924 298.277624 
L 532.020539 303.481057 
L 533.619155 303.727497 
L 535.21777 302.849262 
L 538.415001 303.387587 
L 540.013616 301.711877 
L 541.612232 299.643919 
L 543.210847 296.555656 
L 544.809463 301.313859 
L 546.408078 301.606041 
L 549.605309 299.544044 
L 551.203924 292.331486 
L 552.80254 289.78001 
L 554.401155 242.967332 
L 555.99977 205.829853 
L 557.598386 155.450928 
L 559.197001 61.923284 
L 560.795617 180.702423 
L 562.394232 230.512424 
L 563.992848 187.594026 
L 565.591463 269.515958 
L 567.190078 296.340776 
L 568.788694 299.406737 
L 570.387309 301.261748 
L 571.985925 301.571577 
L 575.183155 300.457087 
L 576.781771 303.668986 
L 578.380386 302.013141 
L 579.979002 302.351815 
L 581.577617 302.52178 
L 583.176232 301.815225 
L 584.774848 297.850804 
L 586.373463 301.05488 
L 587.972079 301.428977 
L 589.570694 304.226918 
L 591.16931 303.475622 
L 592.767925 304.395221 
L 594.36654 303.806945 
L 595.965156 302.449475 
L 597.563771 302.971257 
L 599.162387 301.946632 
L 600.761002 302.922261 
L 602.359617 301.848961 
L 603.958233 296.562055 
L 605.556848 297.420017 
L 607.155464 298.788856 
L 608.754079 298.80654 
L 610.352694 286.726578 
L 611.95131 275.525357 
L 613.549925 282.077005 
L 615.148541 293.078845 
L 616.747156 300.681025 
L 618.345772 301.208735 
L 619.944387 302.584164 
L 621.543002 302.314597 
L 623.141618 301.325484 
L 624.740233 303.057822 
L 626.338849 300.13246 
L 627.937464 301.053646 
L 629.536079 300.385366 
L 631.134695 298.880244 
L 632.73331 298.810234 
L 634.331926 302.129391 
L 635.930541 303.942639 
L 637.529156 301.849361 
L 639.127772 305.417007 
L 640.726387 304.154426 
L 642.325003 303.913013 
L 643.923618 303.858383 
L 645.522234 303.589573 
L 647.120849 299.67868 
L 648.719464 301.665845 
L 650.31808 304.03856 
L 651.916695 304.434991 
L 653.515311 305.166927 
L 655.113926 304.837567 
L 656.712541 301.377602 
L 658.311157 300.152439 
L 661.508388 301.157366 
L 663.107003 305.683813 
L 664.705619 305.843966 
L 666.304234 305.679274 
L 667.902849 305.843966 
L 669.501465 305.349901 
L 671.10008 304.203247 
L 672.698696 305.410911 
L 674.297311 304.339865 
L 675.895926 305.689685 
L 677.494542 303.833458 
L 679.093157 297.849621 
L 680.691773 302.464883 
L 682.290388 303.440816 
L 683.889003 302.458794 
L 685.487619 303.703072 
L 687.086234 303.652976 
L 688.68485 304.677632 
L 690.283465 303.392511 
L 691.882081 304.460064 
L 693.480696 302.574675 
L 696.677927 301.281576 
L 698.276542 300.113935 
L 699.875158 299.922362 
L 701.473773 301.182035 
L 703.072388 301.004315 
L 704.671004 299.77699 
L 706.269619 297.70532 
L 707.868235 296.552446 
L 709.46685 291.383056 
L 711.065465 302.910112 
L 712.664081 304.624342 
L 714.262696 302.285987 
L 715.861312 299.476642 
L 717.459927 301.424672 
L 719.058543 300.701728 
L 720.657158 302.952842 
L 722.255773 302.220894 
L 723.854389 299.720093 
L 725.453004 298.975942 
L 727.05162 295.134821 
L 728.650235 301.214477 
L 730.24885 298.128129 
L 731.847466 300.238527 
L 733.446081 300.855299 
L 735.044697 298.574448 
L 736.643312 305.696209 
L 738.241927 302.550286 
L 739.840543 305.136449 
L 741.439158 304.087337 
L 743.037774 302.074528 
L 744.636389 305.241364 
L 746.235005 305.843966 
L 747.83362 304.424012 
L 749.432235 302.356578 
L 751.030851 300.526106 
L 752.629466 300.29345 
L 754.228082 299.915274 
L 755.826697 302.348992 
L 757.425312 298.982065 
L 759.023928 301.73293 
L 760.622543 302.36116 
L 762.221159 304.740743 
L 763.819774 301.038444 
L 765.41839 298.158658 
L 767.017005 298.542659 
L 768.61562 300.593045 
L 770.214236 301.943371 
L 771.812851 302.748 
L 773.411467 299.656111 
L 775.010082 300.413928 
L 776.608697 301.366412 
L 778.207313 304.621161 
L 779.805928 304.06525 
L 781.404544 301.096908 
L 783.003159 301.45278 
L 784.601774 299.577927 
L 786.20039 302.649277 
L 787.799005 304.75913 
L 789.397621 302.8569 
L 790.996236 299.756698 
L 792.594852 301.503748 
L 794.193467 301.743297 
L 795.792082 300.025069 
L 797.390698 300.055556 
L 798.989313 301.232787 
L 800.587929 303.40421 
L 802.186544 303.288295 
L 803.785159 303.879952 
L 805.383775 300.025053 
L 806.98239 301.879323 
L 808.581006 302.452691 
L 810.179621 300.763105 
L 811.778236 304.709472 
L 813.376852 305.520691 
L 814.975467 302.243129 
L 816.574083 302.652528 
L 818.172698 304.087491 
L 819.771314 302.591802 
L 821.369929 300.671602 
L 822.968544 302.127595 
L 824.56716 303.001617 
L 826.165775 300.67161 
L 827.764391 300.927809 
L 829.363006 300.236296 
L 830.961621 303.430193 
L 832.560237 302.726712 
L 834.158852 299.812504 
L 835.757468 301.23279 
L 837.356083 299.665183 
L 838.954698 300.250892 
L 840.553314 304.867069 
L 842.151929 305.102464 
L 843.750545 301.15133 
L 845.34916 297.58164 
L 846.947776 299.605194 
L 848.546391 301.253547 
L 850.145006 302.273971 
L 851.743622 302.519749 
L 853.342237 298.010967 
L 854.940853 300.737571 
L 856.539468 300.644543 
L 858.138083 298.999342 
L 859.736699 301.224284 
L 861.335314 303.117448 
L 862.93393 299.954544 
L 864.532545 298.861513 
L 866.131161 300.995168 
L 867.729776 299.489309 
L 869.328391 301.376998 
L 870.927007 305.199399 
L 872.525622 304.589276 
L 874.124238 304.269501 
L 875.722853 305.218267 
L 877.321468 304.434994 
L 878.920084 304.317866 
L 880.518699 304.312727 
L 882.117315 303.716911 
L 883.71593 304.016932 
L 885.314545 296.488779 
L 885.314545 296.488779 
" clip-path="url(#p146e0fdf88)" style="fill: none; stroke: #2ca02c; stroke-width: 1.2; stroke-linecap: square"/>
   </g>
   <g id="line2d_14">
    <path d="M 87.605455 302.758752 
L 89.20407 302.627746 
L 92.401301 303.069892 
L 93.999916 303.72001 
L 95.598532 304.132679 
L 98.795762 303.73966 
L 100.394378 303.082993 
L 101.992993 302.997839 
L 103.591609 303.230374 
L 105.190224 303.646319 
L 106.788839 304.299711 
L 108.387455 303.94272 
L 111.584686 302.332983 
L 113.183301 300.91648 
L 114.781917 292.325757 
L 116.380532 281.50138 
L 117.979147 298.378237 
L 119.577763 283.197909 
L 121.176378 206.844295 
L 122.774994 186.171538 
L 124.373609 191.149768 
L 125.972224 199.534157 
L 129.169455 267.827621 
L 130.768071 278.412912 
L 132.366686 287.776571 
L 133.965302 291.909812 
L 135.563917 296.734111 
L 137.162532 297.985219 
L 138.761148 300.384267 
L 140.359763 300.348241 
L 141.958379 300.433395 
L 143.556994 301.907213 
L 145.155609 301.879374 
L 146.754225 301.725442 
L 148.35284 302.154487 
L 151.550071 302.287131 
L 153.148686 302.287131 
L 154.747302 302.798054 
L 156.345917 302.770216 
L 157.944533 303.411326 
L 159.543148 303.653688 
L 161.141764 303.50385 
L 162.740379 302.075883 
L 164.338994 301.243995 
L 165.93761 300.962332 
L 167.536225 301.561685 
L 169.134841 301.063861 
L 170.733456 302.664592 
L 172.332071 303.488293 
L 173.930687 303.55789 
L 175.529302 304.548623 
L 177.127918 305.335478 
L 178.726533 305.024339 
L 180.325148 304.431536 
L 188.318226 302.28058 
L 189.916841 301.989092 
L 191.515456 300.885366 
L 193.114072 300.692132 
L 194.712687 301.465068 
L 196.311303 302.704712 
L 197.909918 303.166509 
L 199.508533 303.004389 
L 201.107149 302.955262 
L 202.705764 303.259032 
L 204.30438 303.761768 
L 205.902995 304.078639 
L 207.50161 303.873942 
L 209.100226 304.019686 
L 210.698841 304.545348 
L 212.297457 304.679629 
L 217.093303 303.926344 
L 218.691918 304.682904 
L 220.290534 305.843966 
L 221.889149 305.142244 
L 225.08638 300.526737 
L 226.684995 299.924109 
L 228.283611 297.523422 
L 229.882226 292.276629 
L 231.480842 292.623795 
L 233.079457 298.705752 
L 234.678073 300.597152 
L 236.276688 301.753281 
L 237.875303 304.126947 
L 239.473919 304.818004 
L 241.072534 303.692171 
L 242.67115 300.530012 
L 244.269765 294.913126 
L 245.86838 257.406088 
L 247.466996 224.831429 
L 249.065611 211.599816 
L 250.664227 61.923284 
L 253.861457 61.923284 
L 255.460073 94.100471 
L 257.058688 61.923284 
L 258.657304 125.751538 
L 260.255919 134.188329 
L 261.854535 159.551104 
L 263.45315 174.774009 
L 265.051765 211.141295 
L 266.650381 243.028172 
L 268.248996 211.848727 
L 269.847612 210.957886 
L 271.446227 216.040922 
L 273.044842 207.446923 
L 274.643458 183.708623 
L 276.242073 121.297331 
L 277.840689 118.257991 
L 279.439304 164.581737 
L 281.037919 207.551728 
L 282.636535 240.591459 
L 284.23515 254.543606 
L 285.833766 284.033072 
L 287.432381 294.56596 
L 289.030997 295.312695 
L 290.629612 299.010341 
L 292.228227 300.695407 
L 293.826843 300.97052 
L 297.024074 301.948152 
L 298.622689 301.717254 
L 300.221304 301.969441 
L 301.81992 302.529492 
L 303.418535 302.450888 
L 306.615766 302.716176 
L 308.214381 302.113548 
L 309.812997 299.359145 
L 311.411612 292.424011 
L 313.010228 297.854213 
L 314.608843 298.758155 
L 316.207459 299.481963 
L 317.806074 302.136474 
L 319.404689 302.843906 
L 321.003305 303.076442 
L 322.60192 303.053516 
L 324.200536 302.554055 
L 325.799151 302.475452 
L 327.397766 303.792063 
L 330.594997 305.021064 
L 332.193613 305.194647 
L 333.792228 305.072647 
L 335.390844 304.786071 
L 336.989459 304.232571 
L 338.588074 302.635934 
L 340.18669 301.992367 
L 341.785305 303.34828 
L 343.383921 302.758752 
L 346.581151 302.920872 
L 348.179767 302.897946 
L 349.778382 303.454722 
L 351.376998 304.162155 
L 356.172844 303.269676 
L 357.771459 302.876658 
L 359.370075 302.817705 
L 362.567306 304.000035 
L 364.165921 304.088464 
L 365.764536 303.914062 
L 367.363152 304.115484 
L 368.961767 303.823177 
L 370.560383 301.84826 
L 372.158998 299.134797 
L 373.757613 295.479728 
L 375.356229 288.231817 
L 378.55346 264.748979 
L 380.152075 261.447626 
L 381.75069 271.508892 
L 383.349306 284.976316 
L 384.947921 296.932257 
L 386.546537 300.698682 
L 388.145152 302.467264 
L 389.743768 302.1725 
L 391.342383 301.396289 
L 392.940998 301.170304 
L 394.539614 301.325874 
L 396.138229 301.338974 
L 397.736845 301.656664 
L 399.33546 301.440504 
L 400.934075 302.162675 
L 402.532691 302.37556 
L 404.131306 301.712341 
L 405.729922 302.062783 
L 407.328537 304.154786 
L 408.927152 304.316906 
L 410.525768 303.770774 
L 412.124383 304.515871 
L 413.722999 305.641705 
L 415.321614 304.67881 
L 416.92023 303.517769 
L 418.518845 303.062523 
L 421.716076 304.078639 
L 423.314691 304.031149 
L 424.913307 303.77405 
L 428.110537 302.601545 
L 429.709153 302.94298 
L 431.307768 303.932076 
L 432.906384 304.379953 
L 434.504999 303.710184 
L 436.103615 303.724922 
L 437.70223 303.873942 
L 439.300845 303.07808 
L 440.899461 302.414862 
L 442.498076 302.285493 
L 444.096692 301.551859 
L 445.695307 299.753801 
L 447.293922 294.317049 
L 448.892538 274.70544 
L 450.491153 247.744391 
L 452.089769 223.036646 
L 453.688384 196.337609 
L 455.286999 186.564556 
L 456.885615 194.058103 
L 458.48423 215.909916 
L 460.082846 234.198363 
L 461.681461 259.207422 
L 463.280077 280.279748 
L 464.878692 292.898908 
L 466.477307 298.617323 
L 469.674538 303.105919 
L 471.273154 303.028952 
L 472.871769 302.260929 
L 474.470384 302.224903 
L 476.069 302.791504 
L 477.667615 303.68562 
L 479.266231 303.400682 
L 482.463461 303.516131 
L 487.259308 304.230933 
L 488.857923 303.885405 
L 490.456539 303.311434 
L 493.653769 303.14522 
L 496.851 303.48338 
L 498.449616 302.867651 
L 500.048231 302.719451 
L 501.646846 304.060625 
L 503.245462 304.546985 
L 504.844077 303.769137 
L 509.639923 303.764224 
L 511.238539 303.862479 
L 512.837154 303.810895 
L 514.43577 303.566896 
L 516.034385 303.55052 
L 517.633001 303.729016 
L 519.231616 304.041793 
L 520.830231 305.095573 
L 522.428847 305.843966 
L 525.626078 304.055713 
L 527.224693 303.61848 
L 528.823308 303.623393 
L 530.421924 303.209086 
L 532.020539 303.156683 
L 533.619155 303.472736 
L 535.21777 303.978747 
L 536.816385 303.341729 
L 538.415001 303.105919 
L 540.013616 302.726001 
L 541.612232 302.920872 
L 543.210847 303.29424 
L 544.809463 303.274589 
L 546.408078 302.616283 
L 548.006693 301.538758 
L 549.605309 299.121696 
L 551.203924 293.517912 
L 552.80254 270.146429 
L 554.401155 229.246334 
L 555.99977 179.75224 
L 557.598386 106.991468 
L 559.197001 61.923284 
L 560.795617 138.079209 
L 562.394232 252.290301 
L 563.992848 241.4692 
L 565.591463 276.454371 
L 567.190078 297.511959 
L 568.788694 302.034944 
L 570.387309 303.167328 
L 571.985925 303.694627 
L 573.58454 304.031968 
L 575.183155 304.149873 
L 578.380386 303.860022 
L 581.577617 304.276785 
L 583.176232 303.585728 
L 584.774848 303.127207 
L 587.972079 303.463729 
L 591.16931 303.015852 
L 592.767925 303.921431 
L 594.36654 304.365214 
L 595.965156 303.087905 
L 597.563771 302.547505 
L 599.162387 302.840631 
L 600.761002 303.68562 
L 602.359617 303.718372 
L 603.958233 301.252183 
L 607.155464 290.341015 
L 608.754079 283.77106 
L 610.352694 262.914894 
L 611.95131 263.0459 
L 613.549925 268.993575 
L 615.148541 277.371414 
L 616.747156 283.423894 
L 618.345772 291.254782 
L 619.944387 295.53213 
L 623.141618 300.999996 
L 624.740233 302.697343 
L 626.338849 303.085449 
L 627.937464 303.236106 
L 629.536079 304.007404 
L 631.134695 303.871485 
L 632.73331 304.12531 
L 635.930541 304.014773 
L 637.529156 304.274329 
L 639.127772 304.727937 
L 640.726387 304.926084 
L 642.325003 304.526516 
L 643.923618 304.565817 
L 647.120849 305.166808 
L 648.719464 304.613307 
L 650.31808 304.478207 
L 653.515311 305.04399 
L 655.113926 304.686998 
L 658.311157 304.603482 
L 659.909772 304.372584 
L 661.508388 304.374221 
L 663.107003 304.565817 
L 666.304234 304.502771 
L 677.494542 304.093377 
L 680.691773 303.884586 
L 682.290388 304.26041 
L 683.889003 305.238042 
L 685.487619 304.734488 
L 687.086234 303.416239 
L 688.68485 303.251663 
L 690.283465 303.297515 
L 691.882081 303.95582 
L 693.480696 304.366852 
L 698.276542 303.748667 
L 699.875158 303.743754 
L 701.473773 303.970559 
L 703.072388 304.000035 
L 704.671004 303.629943 
L 706.269619 303.552977 
L 707.868235 303.732291 
L 709.46685 303.601285 
L 711.065465 303.952545 
L 715.861312 304.078639 
L 717.459927 304.058988 
L 720.657158 303.357286 
L 722.255773 303.344186 
L 723.854389 303.473554 
L 725.453004 303.380213 
L 727.05162 303.135395 
L 730.24885 304.019686 
L 731.847466 303.88868 
L 733.446081 303.992666 
L 735.044697 304.34147 
L 736.643312 304.095833 
L 738.241927 303.447353 
L 739.840543 303.552158 
L 741.439158 304.007404 
L 743.037774 304.082733 
L 746.235005 305.332203 
L 747.83362 304.926084 
L 749.432235 305.202834 
L 754.228082 304.443818 
L 755.826697 304.668985 
L 757.425312 304.736125 
L 759.023928 304.51669 
L 760.622543 304.603482 
L 762.221159 304.445456 
L 763.819774 303.931257 
L 765.41839 303.747848 
L 767.017005 303.7937 
L 771.812851 304.574005 
L 775.010082 304.404516 
L 776.608697 304.610851 
L 778.207313 305.063641 
L 779.805928 304.852393 
L 781.404544 304.376677 
L 783.003159 304.036062 
L 784.601774 304.319362 
L 786.20039 304.217833 
L 787.799005 303.973834 
L 790.996236 303.730654 
L 792.594852 303.614386 
L 794.193467 303.775687 
L 795.792082 303.770774 
L 797.390698 303.609473 
L 798.989313 304.277604 
L 800.587929 304.617401 
L 802.186544 305.346122 
L 803.785159 305.628604 
L 808.581006 305.296995 
L 811.778236 304.791803 
L 813.376852 304.961292 
L 816.574083 304.204732 
L 819.771314 304.238302 
L 821.369929 304.657522 
L 822.968544 304.730394 
L 824.56716 304.673079 
L 826.165775 304.447912 
L 830.961621 304.117122 
L 832.560237 304.502771 
L 834.158852 304.289886 
L 835.757468 303.819902 
L 837.356083 303.711822 
L 840.553314 303.804345 
L 842.151929 303.36138 
L 843.750545 303.060066 
L 845.34916 302.565519 
L 846.947776 303.223824 
L 848.546391 304.661616 
L 850.145006 305.034983 
L 853.342237 302.88894 
L 854.940853 302.578619 
L 856.539468 302.401761 
L 858.138083 302.605639 
L 859.736699 303.851834 
L 861.335314 304.67881 
L 864.532545 304.137591 
L 867.729776 303.995122 
L 869.328391 304.474932 
L 870.927007 304.361939 
L 872.525622 303.926344 
L 874.124238 303.89523 
L 875.722853 304.32755 
L 877.321468 305.047265 
L 878.920084 304.703374 
L 880.518699 304.232571 
L 882.117315 302.082434 
L 883.71593 297.647878 
L 885.314545 288.962176 
L 885.314545 288.962176 
" clip-path="url(#p146e0fdf88)" style="fill: none; stroke: #000000; stroke-width: 1.2; stroke-linecap: square"/>
   </g>
   <g id="line2d_15">
    <path d="M 87.605455 223.780406 
L 89.20407 217.630928 
L 90.802685 217.061047 
L 92.401301 212.923811 
L 93.999916 185.928721 
L 95.598532 218.816492 
L 97.197147 222.50532 
L 98.795762 216.32395 
L 100.394378 226.53266 
L 101.992993 257.714378 
L 103.591609 279.619136 
L 105.190224 278.708272 
L 106.788839 257.43452 
L 108.387455 252.720329 
L 109.98607 274.34122 
L 111.584686 274.050148 
L 113.183301 269.801113 
L 114.781917 265.149103 
L 116.380532 246.656045 
L 117.979147 127.62371 
L 119.577763 61.923284 
L 121.176378 61.923284 
L 122.774994 106.351526 
L 124.373609 75.743359 
L 125.972224 174.805002 
L 127.57084 207.661398 
L 129.169455 236.288456 
L 130.768071 259.532231 
L 132.366686 239.429162 
L 133.965302 253.762729 
L 137.162532 223.087238 
L 138.761148 257.402438 
L 140.359763 242.071753 
L 141.958379 253.952447 
L 143.556994 239.916448 
L 145.155609 244.485569 
L 146.754225 213.076468 
L 148.35284 211.262433 
L 149.951456 243.734245 
L 151.550071 224.648514 
L 153.148686 249.250304 
L 154.747302 219.444836 
L 156.345917 218.939762 
L 157.944533 246.558315 
L 159.543148 255.193753 
L 161.141764 274.041177 
L 162.740379 266.410653 
L 164.338994 250.152266 
L 165.93761 243.783938 
L 167.536225 233.909802 
L 169.134841 229.811144 
L 170.733456 240.102248 
L 172.332071 269.019586 
L 173.930687 250.182886 
L 175.529302 260.994123 
L 177.127918 264.818408 
L 178.726533 261.3968 
L 180.325148 264.121834 
L 181.923764 244.554597 
L 183.522379 254.417983 
L 185.120995 254.3848 
L 186.71961 259.54553 
L 188.318226 233.734871 
L 189.916841 234.413186 
L 191.515456 251.299777 
L 193.114072 208.296164 
L 194.712687 219.634989 
L 196.311303 233.606372 
L 197.909918 246.543711 
L 199.508533 238.794074 
L 201.107149 247.786874 
L 202.705764 250.734416 
L 204.30438 270.983978 
L 205.902995 253.689986 
L 207.50161 242.087351 
L 209.100226 260.749949 
L 210.698841 257.834457 
L 212.297457 264.910255 
L 213.896072 227.356143 
L 215.494688 241.626699 
L 217.093303 236.137077 
L 218.691918 252.625636 
L 220.290534 262.652407 
L 221.889149 262.971689 
L 223.487765 254.889798 
L 225.08638 261.364811 
L 226.684995 267.33238 
L 228.283611 247.154506 
L 229.882226 255.296479 
L 231.480842 253.832955 
L 233.079457 208.968598 
L 234.678073 251.494171 
L 236.276688 267.71805 
L 237.875303 274.94789 
L 239.473919 260.341292 
L 241.072534 261.581761 
L 242.67115 258.811662 
L 244.269765 281.727676 
L 245.86838 236.517948 
L 247.466996 216.668409 
L 249.065611 64.641864 
L 252.262842 210.67121 
L 253.861457 132.142903 
L 255.460073 131.137084 
L 257.058688 137.822755 
L 258.657304 108.615419 
L 260.255919 197.475173 
L 261.854535 212.389573 
L 263.45315 183.523662 
L 265.051765 236.4674 
L 266.650381 131.040449 
L 268.248996 236.784892 
L 269.847612 246.261831 
L 271.446227 235.662819 
L 274.643458 180.792073 
L 276.242073 194.916951 
L 277.840689 201.178742 
L 279.439304 146.521685 
L 281.037919 101.428738 
L 282.636535 245.944335 
L 284.23515 280.20121 
L 285.833766 279.250734 
L 287.432381 275.231297 
L 289.030997 266.991797 
L 290.629612 269.456909 
L 292.228227 264.928991 
L 293.826843 256.838975 
L 295.425458 259.814227 
L 297.024074 255.047049 
L 298.622689 251.212491 
L 300.221304 251.204081 
L 301.81992 244.859362 
L 303.418535 203.686634 
L 305.017151 223.590494 
L 306.615766 196.760058 
L 308.214381 233.381356 
L 309.812997 232.415445 
L 311.411612 227.25564 
L 313.010228 84.207215 
L 314.608843 196.397019 
L 316.207459 189.710283 
L 317.806074 207.164495 
L 319.404689 229.15103 
L 321.003305 209.125091 
L 322.60192 247.756165 
L 324.200536 250.222116 
L 325.799151 240.092498 
L 327.397766 252.953393 
L 328.996382 213.89152 
L 330.594997 212.512663 
L 332.193613 206.568234 
L 333.792228 213.026836 
L 335.390844 202.666315 
L 336.989459 243.41525 
L 338.588074 187.742823 
L 340.18669 208.649325 
L 341.785305 248.043108 
L 343.383921 210.802452 
L 344.982536 236.892693 
L 346.581151 234.650806 
L 348.179767 263.43982 
L 349.778382 267.940416 
L 351.376998 253.160936 
L 352.975613 277.226339 
L 354.574228 262.440068 
L 356.172844 260.210318 
L 357.771459 270.141144 
L 359.370075 263.624873 
L 360.96869 251.683021 
L 362.567306 287.001104 
L 364.165921 295.545009 
L 365.764536 238.148184 
L 367.363152 257.91904 
L 368.961767 300.456116 
L 370.560383 272.692728 
L 372.158998 280.137859 
L 373.757613 295.842608 
L 375.356229 271.379202 
L 376.954844 209.498911 
L 378.55346 281.044957 
L 381.75069 244.626692 
L 383.349306 248.438879 
L 384.947921 292.487041 
L 386.546537 233.171911 
L 388.145152 271.647781 
L 389.743768 290.661251 
L 391.342383 169.347412 
L 392.940998 178.69187 
L 394.539614 216.959923 
L 396.138229 242.164639 
L 397.736845 179.942535 
L 399.33546 213.082047 
L 400.934075 303.783827 
L 402.532691 305.843966 
L 404.131306 279.708397 
L 405.729922 301.190265 
L 407.328537 283.69406 
L 408.927152 284.473263 
L 410.525768 284.355712 
L 412.124383 278.770145 
L 413.722999 297.075914 
L 415.321614 299.817441 
L 416.92023 292.531251 
L 418.518845 300.969005 
L 420.11746 295.247611 
L 421.716076 303.831083 
L 423.314691 296.263407 
L 424.913307 287.233533 
L 426.511922 280.319096 
L 428.110537 295.562552 
L 429.709153 295.896111 
L 431.307768 305.405977 
L 432.906384 273.065904 
L 434.504999 281.438697 
L 436.103615 285.770885 
L 437.70223 293.016358 
L 439.300845 297.150409 
L 440.899461 276.680031 
L 442.498076 276.508523 
L 444.096692 226.265965 
L 445.695307 245.575746 
L 447.293922 294.057724 
L 448.892538 296.794778 
L 450.491153 246.306684 
L 452.089769 263.459865 
L 453.688384 208.742892 
L 455.286999 159.504894 
L 456.885615 79.061352 
L 458.48423 210.959097 
L 460.082846 171.49635 
L 461.681461 243.812296 
L 463.280077 268.019442 
L 466.477307 183.814328 
L 468.075923 219.410241 
M 535.21777 231.804919 
L 536.816385 242.894576 
L 538.415001 195.993389 
L 540.013616 162.313806 
L 541.612232 131.598547 
L 543.210847 176.296745 
L 544.809463 194.732942 
L 546.408078 152.548279 
L 548.006693 164.695486 
L 549.605309 192.717616 
L 551.203924 115.898251 
L 552.80254 249.580701 
L 554.401155 159.269552 
L 555.99977 61.923284 
L 559.197001 61.923284 
L 560.795617 129.008103 
L 562.394232 133.539001 
L 563.992848 179.010499 
L 565.591463 216.941278 
L 567.190078 157.695699 
L 568.788694 243.852639 
L 570.387309 191.98819 
L 571.985925 194.657607 
L 573.58454 212.129028 
L 575.183155 240.305948 
L 576.781771 248.173263 
L 578.380386 219.337857 
L 581.577617 252.422124 
L 583.176232 249.934338 
L 584.774848 253.162045 
L 586.373463 255.551672 
L 587.972079 259.391223 
L 589.570694 262.033533 
L 591.16931 268.161178 
L 592.767925 269.650824 
L 594.36654 262.18488 
L 595.965156 258.615105 
L 597.563771 258.802818 
L 599.162387 264.468185 
L 600.761002 269.583 
L 602.359617 277.320329 
L 603.958233 273.159554 
L 605.556848 256.372704 
L 607.155464 243.483892 
L 608.754079 199.489007 
L 610.352694 264.104966 
L 611.95131 218.010243 
L 613.549925 265.888564 
L 615.148541 245.023598 
L 616.747156 268.909138 
L 618.345772 235.590571 
L 619.944387 242.521218 
L 621.543002 243.012357 
L 623.141618 270.25544 
L 624.740233 265.241456 
L 626.338849 269.248608 
L 627.937464 264.393825 
L 629.536079 254.424457 
L 631.134695 258.83294 
L 632.73331 276.236384 
L 634.331926 267.289359 
L 635.930541 234.555529 
L 637.529156 224.050622 
L 639.127772 255.750508 
L 640.726387 273.527498 
L 642.325003 265.472687 
L 643.923618 262.465072 
L 645.522234 260.81034 
L 647.120849 228.525267 
L 648.719464 253.934774 
L 650.31808 257.641325 
L 651.916695 278.068956 
L 653.515311 265.502656 
L 655.113926 263.560927 
L 656.712541 271.10801 
L 658.311157 271.57721 
L 659.909772 263.968197 
L 661.508388 260.773451 
L 663.107003 264.579934 
L 664.705619 266.759504 
L 666.304234 226.52041 
L 667.902849 250.279892 
L 669.501465 255.968022 
L 671.10008 259.287228 
L 672.698696 256.653145 
L 674.297311 262.418767 
L 675.895926 264.941561 
L 677.494542 251.654851 
L 679.093157 232.899635 
L 680.691773 250.383524 
L 682.290388 257.814936 
L 683.889003 267.386626 
L 687.086234 233.173292 
L 688.68485 254.213863 
L 690.283465 260.885908 
L 691.882081 242.390692 
L 693.480696 235.876872 
L 695.079311 253.015201 
L 696.677927 256.424843 
L 698.276542 257.34384 
L 699.875158 228.305996 
L 701.473773 257.407078 
L 703.072388 265.083829 
L 704.671004 269.155012 
L 706.269619 261.18107 
L 707.868235 265.780531 
L 709.46685 260.769356 
L 711.065465 265.801505 
L 712.664081 259.127686 
L 714.262696 266.652583 
L 715.861312 270.177783 
L 717.459927 276.06244 
L 719.058543 272.098758 
L 720.657158 277.713658 
L 722.255773 274.905725 
L 723.854389 266.881725 
L 725.453004 260.102523 
L 727.05162 261.797915 
L 728.650235 257.446889 
L 730.24885 265.093423 
L 731.847466 255.773171 
L 733.446081 255.644921 
L 735.044697 264.196896 
L 736.643312 270.996713 
L 738.241927 259.651207 
L 739.840543 249.675118 
L 741.439158 250.023276 
L 743.037774 270.42286 
L 744.636389 265.666284 
L 746.235005 273.623668 
L 747.83362 267.244282 
L 749.432235 259.18779 
L 751.030851 253.582266 
L 752.629466 259.552766 
L 754.228082 245.524628 
L 755.826697 256.720771 
L 757.425312 260.53634 
L 759.023928 248.714032 
L 760.622543 263.766885 
L 762.221159 258.881353 
L 763.819774 264.43144 
L 765.41839 257.759566 
L 767.017005 263.47962 
L 768.61562 273.114422 
L 770.214236 269.740183 
L 771.812851 260.421102 
L 773.411467 263.681253 
L 776.608697 272.599684 
L 778.207313 255.865127 
L 779.805928 251.057164 
L 781.404544 252.980897 
L 783.003159 235.895159 
L 784.601774 220.03807 
L 786.20039 232.759057 
L 787.799005 249.879992 
L 789.397621 264.876433 
L 790.996236 244.690912 
L 792.594852 240.614493 
L 794.193467 260.699343 
L 795.792082 237.678098 
L 797.390698 250.504222 
L 798.989313 249.156182 
L 800.587929 257.264253 
L 802.186544 259.322338 
L 805.383775 251.707699 
L 806.98239 263.12284 
L 808.581006 261.379098 
L 810.179621 258.671618 
L 811.778236 255.130417 
L 813.376852 266.051656 
L 814.975467 265.107333 
L 816.574083 256.017199 
L 818.172698 253.89373 
L 819.771314 242.652437 
L 821.369929 245.877867 
L 822.968544 237.102393 
L 824.56716 257.794752 
L 826.165775 239.66122 
L 827.764391 236.013135 
L 829.363006 239.751011 
L 830.961621 263.923479 
L 832.560237 269.884096 
L 834.158852 262.296524 
L 835.757468 276.682104 
L 837.356083 274.557893 
L 838.954698 274.810511 
L 840.553314 278.526478 
L 842.151929 263.402303 
L 843.750545 254.502854 
L 845.34916 264.617354 
L 846.947776 267.632077 
L 848.546391 267.581451 
L 850.145006 270.327989 
L 851.743622 252.124956 
L 853.342237 255.449957 
L 854.940853 215.720882 
L 856.539468 256.815366 
L 858.138083 242.324197 
L 859.736699 252.596267 
L 861.335314 268.518324 
L 862.93393 258.993612 
L 864.532545 243.812991 
L 866.131161 251.943426 
L 867.729776 261.951223 
L 869.328391 265.967763 
L 870.927007 273.186641 
L 872.525622 251.9637 
L 874.124238 261.187291 
L 875.722853 242.428608 
L 877.321468 248.493945 
L 878.920084 244.182894 
L 880.518699 239.10169 
L 882.117315 266.513298 
L 883.71593 256.640729 
L 885.314545 251.798662 
L 885.314545 251.798662 
" clip-path="url(#p146e0fdf88)" style="fill: none; stroke: #ff7f0e; stroke-width: 1.2; stroke-linecap: square"/>
   </g>
   <g id="line2d_16">
    <path d="M 87.605455 241.031112 
L 89.20407 236.352049 
L 90.802685 247.143641 
L 92.401301 237.733322 
L 93.999916 251.586135 
L 95.598532 231.558661 
L 97.197147 221.587385 
L 98.795762 221.539647 
L 100.394378 229.498537 
L 101.992993 268.869667 
L 103.591609 267.933348 
L 105.190224 276.851008 
L 106.788839 242.409668 
L 108.387455 235.579882 
L 109.98607 266.407806 
L 111.584686 250.113263 
L 113.183301 220.015994 
L 114.781917 230.481984 
L 116.380532 211.188553 
L 117.979147 149.914417 
L 119.577763 83.513253 
L 121.176378 61.923284 
L 124.373609 61.923284 
L 127.57084 204.47958 
L 129.169455 225.534893 
L 130.768071 254.743382 
L 132.366686 252.86307 
L 133.965302 239.520673 
L 135.563917 230.546196 
L 137.162532 252.307376 
L 138.761148 253.240789 
L 140.359763 251.205188 
L 141.958379 265.436997 
L 143.556994 257.007326 
L 145.155609 265.557272 
L 146.754225 249.663612 
L 148.35284 240.079995 
L 149.951456 243.095656 
L 151.550071 241.611553 
L 153.148686 250.49024 
L 154.747302 237.816665 
L 156.345917 228.889643 
L 157.944533 225.076777 
L 159.543148 237.071269 
L 161.141764 240.115933 
L 162.740379 249.173428 
L 164.338994 247.333399 
L 165.93761 233.478706 
L 167.536225 223.759846 
L 169.134841 237.651635 
L 170.733456 265.328272 
L 172.332071 262.367858 
L 173.930687 239.975543 
L 175.529302 261.37571 
L 177.127918 245.693398 
L 178.726533 253.53294 
L 180.325148 246.369296 
L 181.923764 242.798746 
L 183.522379 218.590383 
L 185.120995 220.611818 
L 186.71961 222.31884 
L 188.318226 210.823876 
L 189.916841 204.367722 
L 191.515456 208.966318 
L 193.114072 217.814188 
L 194.712687 191.977677 
L 196.311303 196.524618 
L 197.909918 205.448665 
L 199.508533 223.201287 
L 201.107149 220.712017 
L 202.705764 214.181092 
L 204.30438 236.689241 
L 205.902995 245.164274 
L 207.50161 245.787909 
L 209.100226 246.560246 
L 210.698841 218.456025 
L 212.297457 229.132034 
L 213.896072 217.514199 
L 215.494688 241.397622 
L 217.093303 252.076935 
L 218.691918 244.353769 
L 220.290534 238.290815 
L 221.889149 249.746416 
L 225.08638 228.112892 
L 226.684995 204.520891 
L 228.283611 198.365061 
L 229.882226 190.063382 
L 231.480842 191.271593 
L 233.079457 197.456337 
L 234.678073 242.069648 
L 236.276688 218.011764 
L 237.875303 234.421924 
L 239.473919 227.809708 
L 241.072534 235.371727 
L 242.67115 230.482323 
L 244.269765 258.298879 
L 245.86838 187.687633 
L 247.466996 152.632184 
L 249.065611 67.639849 
L 250.664227 85.284781 
L 252.262842 166.198082 
L 253.861457 134.620865 
L 255.460073 71.802116 
L 257.058688 98.903777 
L 258.657304 148.951452 
L 260.255919 170.61533 
L 261.854535 174.333972 
L 263.45315 213.957563 
L 265.051765 237.604691 
L 266.650381 207.862299 
L 268.248996 216.097391 
L 269.847612 193.099601 
L 271.446227 214.484259 
L 273.044842 202.18173 
L 274.643458 164.973124 
L 276.242073 141.419393 
L 279.439304 101.756309 
L 281.037919 124.085639 
L 282.636535 218.763294 
L 284.23515 243.090726 
L 285.833766 252.776327 
L 287.432381 238.05887 
L 289.030997 248.169076 
L 290.629612 239.332441 
L 293.826843 230.184522 
L 295.425458 243.010713 
L 297.024074 236.418706 
L 298.622689 226.18941 
L 300.221304 199.214414 
L 301.81992 199.859805 
L 303.418535 194.504855 
L 305.017151 178.295835 
L 306.615766 182.896492 
L 308.214381 256.26698 
L 309.812997 214.030526 
L 311.411612 175.359035 
L 313.010228 118.355547 
L 314.608843 146.489325 
L 316.207459 184.848197 
L 317.806074 179.928436 
L 319.404689 213.365343 
L 321.003305 201.408603 
L 322.60192 192.348893 
L 324.200536 172.434589 
L 325.799151 209.352488 
L 327.397766 242.652852 
L 328.996382 205.457732 
L 330.594997 192.546899 
L 332.193613 197.103356 
L 333.792228 171.93331 
L 335.390844 157.608981 
L 336.989459 212.938154 
L 338.588074 189.477903 
L 340.18669 218.979821 
L 341.785305 267.617716 
L 343.383921 227.987022 
L 344.982536 243.122534 
L 346.581151 239.114372 
L 348.179767 241.488325 
L 349.778382 248.924826 
L 351.376998 245.984337 
L 352.975613 257.072494 
L 354.574228 277.398327 
L 356.172844 267.107826 
L 357.771459 267.249814 
L 359.370075 264.830832 
L 360.96869 267.926776 
L 362.567306 278.525248 
L 364.165921 272.997932 
L 365.764536 280.735874 
L 367.363152 264.560832 
L 368.961767 254.543869 
L 370.560383 234.862951 
L 372.158998 248.328845 
L 373.757613 260.113675 
L 375.356229 264.691655 
L 376.954844 230.04085 
L 378.55346 229.42774 
L 380.152075 208.562254 
L 381.75069 145.284315 
L 384.947921 250.042566 
L 386.546537 259.28686 
L 388.145152 255.373349 
L 389.743768 260.188528 
L 391.342383 255.01014 
L 392.940998 191.449801 
L 394.539614 250.632119 
L 396.138229 227.593683 
L 397.736845 254.093766 
L 399.33546 271.056283 
L 400.934075 256.390091 
L 402.532691 243.481304 
L 404.131306 251.581913 
L 405.729922 246.848998 
L 407.328537 246.049627 
L 408.927152 256.844381 
L 410.525768 236.763255 
L 412.124383 250.764541 
L 413.722999 272.193505 
L 415.321614 280.004668 
L 416.92023 281.272948 
L 418.518845 272.767526 
L 420.11746 297.079099 
L 421.716076 284.107025 
L 423.314691 287.217176 
L 424.913307 298.609273 
L 426.511922 289.728873 
L 428.110537 292.522992 
L 429.709153 297.7933 
L 431.307768 284.104557 
L 432.906384 284.470748 
L 434.504999 278.260714 
L 436.103615 297.181947 
L 437.70223 290.949138 
L 439.300845 295.712009 
L 440.899461 290.675392 
L 442.498076 291.472456 
L 444.096692 292.809099 
L 445.695307 296.204065 
L 447.293922 284.340582 
L 448.892538 280.6355 
L 450.491153 261.811114 
L 452.089769 205.321924 
L 453.688384 130.571134 
L 455.286999 106.611785 
L 456.885615 112.956405 
L 458.48423 137.176183 
L 460.082846 143.161223 
L 461.681461 163.240767 
L 463.280077 186.993932 
L 464.878692 200.778655 
L 466.477307 227.732727 
L 468.075923 231.269866 
M 535.21777 246.720532 
L 536.816385 266.415066 
L 538.415001 243.515875 
L 540.013616 215.206185 
L 541.612232 184.880938 
L 543.210847 184.941879 
L 544.809463 196.385945 
L 546.408078 221.88296 
L 548.006693 239.317677 
L 549.605309 222.488845 
L 551.203924 183.402578 
L 554.401155 79.654474 
L 555.99977 130.981383 
L 557.598386 61.923284 
L 559.197001 72.331628 
L 560.795617 95.55619 
L 562.394232 131.719296 
L 563.992848 186.234012 
L 565.591463 189.358646 
L 567.190078 213.90529 
L 568.788694 220.11023 
L 570.387309 229.161668 
L 571.985925 246.633074 
L 573.58454 226.322788 
L 575.183155 214.299518 
L 576.781771 264.626272 
L 578.380386 234.235199 
L 579.979002 231.618396 
L 581.577617 243.080031 
L 583.176232 281.530992 
L 584.774848 275.591631 
L 586.373463 277.063739 
L 587.972079 269.705797 
L 589.570694 275.52816 
L 591.16931 269.771436 
L 592.767925 280.692835 
L 594.36654 278.889903 
L 595.965156 285.450955 
L 597.563771 277.348858 
L 599.162387 277.45452 
L 600.761002 277.247157 
L 602.359617 276.133556 
L 603.958233 263.437363 
L 605.556848 246.194781 
L 607.155464 246.393436 
L 608.754079 233.28097 
L 610.352694 244.807254 
L 611.95131 250.016757 
L 613.549925 249.752704 
L 615.148541 243.628747 
L 616.747156 242.074273 
L 618.345772 245.201757 
L 619.944387 263.064321 
L 621.543002 251.451657 
L 623.141618 255.487669 
L 624.740233 272.771537 
L 626.338849 275.143852 
L 627.937464 257.148603 
L 629.536079 274.035833 
L 631.134695 256.15893 
L 632.73331 282.860731 
L 634.331926 273.373348 
L 635.930541 259.595552 
L 637.529156 260.382394 
L 639.127772 264.800855 
L 640.726387 251.893565 
L 642.325003 262.060907 
L 643.923618 283.918846 
L 645.522234 285.719726 
L 647.120849 265.253805 
L 648.719464 276.693783 
L 650.31808 277.82823 
L 651.916695 258.445863 
L 653.515311 259.465479 
L 655.113926 271.276272 
L 656.712541 285.423195 
L 658.311157 274.960887 
L 659.909772 269.855386 
L 661.508388 261.303723 
L 663.107003 270.140197 
L 664.705619 263.07757 
L 666.304234 259.678532 
L 667.902849 261.954362 
L 669.501465 272.307697 
L 671.10008 266.259907 
L 672.698696 261.329765 
L 674.297311 266.578422 
L 675.895926 271.235071 
L 677.494542 266.30621 
L 679.093157 265.767382 
L 680.691773 270.653625 
L 682.290388 264.776839 
L 683.889003 256.625171 
L 685.487619 266.461051 
L 687.086234 255.922912 
L 688.68485 270.938417 
L 690.283465 269.147617 
L 691.882081 247.365274 
L 693.480696 244.548246 
L 695.079311 254.505523 
L 696.677927 270.935117 
L 698.276542 275.689097 
L 699.875158 254.005148 
L 701.473773 277.706135 
L 703.072388 289.928879 
L 704.671004 272.924996 
L 706.269619 281.328893 
L 707.868235 288.254934 
L 709.46685 265.400556 
L 711.065465 285.142397 
L 712.664081 271.218684 
L 714.262696 278.800591 
L 715.861312 291.725486 
L 717.459927 301.658417 
L 719.058543 298.160049 
L 720.657158 298.413938 
L 722.255773 287.437035 
L 723.854389 286.277938 
L 725.453004 273.776066 
L 727.05162 265.124762 
L 728.650235 253.897689 
L 730.24885 284.75028 
L 731.847466 262.897607 
L 733.446081 267.838084 
L 735.044697 259.083442 
L 736.643312 277.243411 
L 738.241927 255.524807 
L 739.840543 253.364234 
L 741.439158 238.245123 
L 743.037774 244.72851 
L 744.636389 265.6819 
L 746.235005 256.038329 
L 747.83362 277.701758 
L 749.432235 259.826578 
L 751.030851 256.919879 
L 752.629466 269.388981 
L 754.228082 256.754715 
L 755.826697 251.956409 
L 757.425312 246.273181 
L 760.622543 273.65362 
L 762.221159 264.836047 
L 763.819774 277.518168 
L 765.41839 275.251534 
L 767.017005 275.827753 
L 768.61562 286.826581 
L 770.214236 284.324002 
L 771.812851 275.470524 
L 773.411467 265.850236 
L 775.010082 270.886289 
L 776.608697 270.303655 
L 778.207313 255.49084 
L 779.805928 234.621042 
L 781.404544 229.711682 
L 783.003159 222.239996 
L 784.601774 226.407032 
L 786.20039 218.119697 
L 787.799005 256.693632 
L 789.397621 252.647701 
L 790.996236 236.797387 
L 792.594852 243.84332 
L 794.193467 241.344098 
L 795.792082 229.849845 
L 797.390698 235.69862 
L 798.989313 197.294011 
L 800.587929 189.59093 
L 802.186544 192.927066 
L 803.785159 176.707816 
L 805.383775 188.54094 
L 806.98239 196.971118 
L 808.581006 204.493397 
L 810.179621 212.646532 
L 811.778236 238.298598 
L 813.376852 244.553448 
L 814.975467 256.383165 
L 816.574083 248.638306 
L 818.172698 249.035653 
L 819.771314 240.451912 
L 821.369929 219.11618 
L 822.968544 226.371319 
L 824.56716 232.413792 
L 826.165775 203.616414 
L 827.764391 203.555064 
L 829.363006 220.505512 
L 830.961621 243.859708 
L 832.560237 252.142444 
L 834.158852 253.358948 
L 835.757468 267.594605 
L 838.954698 263.920994 
L 840.553314 255.239933 
L 842.151929 244.805385 
L 843.750545 251.390166 
L 845.34916 269.450139 
L 846.947776 259.195434 
L 848.546391 250.221419 
L 850.145006 243.855016 
L 851.743622 240.720651 
L 853.342237 261.134508 
L 854.940853 261.567458 
L 856.539468 268.565042 
L 858.138083 248.566241 
L 859.736699 251.688951 
L 861.335314 249.141475 
L 862.93393 259.668541 
L 864.532545 243.899432 
L 866.131161 246.022841 
L 867.729776 244.712504 
L 869.328391 254.517817 
L 870.927007 277.633462 
L 872.525622 253.83179 
L 874.124238 259.097307 
L 875.722853 236.265813 
L 877.321468 233.106068 
L 878.920084 218.616515 
L 880.518699 232.096748 
L 882.117315 248.49202 
L 883.71593 242.075213 
L 885.314545 220.023866 
L 885.314545 220.023866 
" clip-path="url(#p146e0fdf88)" style="fill: none; stroke-dasharray: 4.44,1.92; stroke-dashoffset: 0; stroke: #9467bd; stroke-width: 1.2"/>
   </g>
   <g id="patch_3">
    <path d="M 47.72 318.04 
L 47.72 49.72725 
" style="fill: none; stroke: #000000; stroke-width: 0.8; stroke-linejoin: miter; stroke-linecap: square"/>
   </g>
   <g id="patch_4">
    <path d="M 925.2 318.04 
L 925.2 49.72725 
" style="fill: none; stroke: #000000; stroke-width: 0.8; stroke-linejoin: miter; stroke-linecap: square"/>
   </g>
   <g id="patch_5">
    <path d="M 47.72 318.04 
L 925.2 318.04 
" style="fill: none; stroke: #000000; stroke-width: 0.8; stroke-linejoin: miter; stroke-linecap: square"/>
   </g>
   <g id="patch_6">
    <path d="M 47.72 49.72725 
L 925.2 49.72725 
" style="fill: none; stroke: #000000; stroke-width: 0.8; stroke-linejoin: miter; stroke-linecap: square"/>
   </g>
   <g id="legend_1">
    <g id="line2d_17">
     <path d="M 675.710938 62.825688 
L 685.710938 62.825688 
L 695.710938 62.825688 
" style="fill: none; stroke: #2ca02c; stroke-width: 1.2; stroke-linecap: square"/>
    </g>
    <g id="text_16">
     <!-- ENCSR203XPU -->
     <g transform="translate(703.710938 66.325688) scale(0.1 -0.1)">
      <defs>
       <path id="DejaVuSans-45" d="M 628 4666 
L 3578 4666 
L 3578 4134 
L 1259 4134 
L 1259 2753 
L 3481 2753 
L 3481 2222 
L 1259 2222 
L 1259 531 
L 3634 531 
L 3634 0 
L 628 0 
L 628 4666 
z
" transform="scale(0.015625)"/>
       <path id="DejaVuSans-4e" d="M 628 4666 
L 1478 4666 
L 3547 763 
L 3547 4666 
L 4159 4666 
L 4159 0 
L 3309 0 
L 1241 3903 
L 1241 0 
L 628 0 
L 628 4666 
z
" transform="scale(0.015625)"/>
       <path id="DejaVuSans-43" d="M 4122 4306 
L 4122 3641 
Q 3803 3938 3442 4084 
Q 3081 4231 2675 4231 
Q 1875 4231 1450 3742 
Q 1025 3253 1025 2328 
Q 1025 1406 1450 917 
Q 1875 428 2675 428 
Q 3081 428 3442 575 
Q 3803 722 4122 1019 
L 4122 359 
Q 3791 134 3420 21 
Q 3050 -91 2638 -91 
Q 1578 -91 968 557 
Q 359 1206 359 2328 
Q 359 3453 968 4101 
Q 1578 4750 2638 4750 
Q 3056 4750 3426 4639 
Q 3797 4528 4122 4306 
z
" transform="scale(0.015625)"/>
       <path id="DejaVuSans-53" d="M 3425 4513 
L 3425 3897 
Q 3066 4069 2747 4153 
Q 2428 4238 2131 4238 
Q 1616 4238 1336 4038 
Q 1056 3838 1056 3469 
Q 1056 3159 1242 3001 
Q 1428 2844 1947 2747 
L 2328 2669 
Q 3034 2534 3370 2195 
Q 3706 1856 3706 1288 
Q 3706 609 3251 259 
Q 2797 -91 1919 -91 
Q 1588 -91 1214 -16 
Q 841 59 441 206 
L 441 856 
Q 825 641 1194 531 
Q 1563 422 1919 422 
Q 2459 422 2753 634 
Q 3047 847 3047 1241 
Q 3047 1584 2836 1778 
Q 2625 1972 2144 2069 
L 1759 2144 
Q 1053 2284 737 2584 
Q 422 2884 422 3419 
Q 422 4038 858 4394 
Q 1294 4750 2059 4750 
Q 2388 4750 2728 4690 
Q 3069 4631 3425 4513 
z
" transform="scale(0.015625)"/>
       <path id="DejaVuSans-52" d="M 2841 2188 
Q 3044 2119 3236 1894 
Q 3428 1669 3622 1275 
L 4263 0 
L 3584 0 
L 2988 1197 
Q 2756 1666 2539 1819 
Q 2322 1972 1947 1972 
L 1259 1972 
L 1259 0 
L 628 0 
L 628 4666 
L 2053 4666 
Q 2853 4666 3247 4331 
Q 3641 3997 3641 3322 
Q 3641 2881 3436 2590 
Q 3231 2300 2841 2188 
z
M 1259 4147 
L 1259 2491 
L 2053 2491 
Q 2509 2491 2742 2702 
Q 2975 2913 2975 3322 
Q 2975 3731 2742 3939 
Q 2509 4147 2053 4147 
L 1259 4147 
z
" transform="scale(0.015625)"/>
       <path id="DejaVuSans-58" d="M 403 4666 
L 1081 4666 
L 2241 2931 
L 3406 4666 
L 4084 4666 
L 2584 2425 
L 4184 0 
L 3506 0 
L 2194 1984 
L 872 0 
L 191 0 
L 1856 2491 
L 403 4666 
z
" transform="scale(0.015625)"/>
       <path id="DejaVuSans-50" d="M 1259 4147 
L 1259 2394 
L 2053 2394 
Q 2494 2394 2734 2622 
Q 2975 2850 2975 3272 
Q 2975 3691 2734 3919 
Q 2494 4147 2053 4147 
L 1259 4147 
z
M 628 4666 
L 2053 4666 
Q 2838 4666 3239 4311 
Q 3641 3956 3641 3272 
Q 3641 2581 3239 2228 
Q 2838 1875 2053 1875 
L 1259 1875 
L 1259 0 
L 628 0 
L 628 4666 
z
" transform="scale(0.015625)"/>
       <path id="DejaVuSans-55" d="M 556 4666 
L 1191 4666 
L 1191 1831 
Q 1191 1081 1462 751 
Q 1734 422 2344 422 
Q 2950 422 3222 751 
Q 3494 1081 3494 1831 
L 3494 4666 
L 4128 4666 
L 4128 1753 
Q 4128 841 3676 375 
Q 3225 -91 2344 -91 
Q 1459 -91 1007 375 
Q 556 841 556 1753 
L 556 4666 
z
" transform="scale(0.015625)"/>
      </defs>
      <use xlink:href="#DejaVuSans-45"/>
      <use xlink:href="#DejaVuSans-4e" transform="translate(63.183594 0)"/>
      <use xlink:href="#DejaVuSans-43" transform="translate(137.988281 0)"/>
      <use xlink:href="#DejaVuSans-53" transform="translate(207.8125 0)"/>
      <use xlink:href="#DejaVuSans-52" transform="translate(271.289062 0)"/>
      <use xlink:href="#DejaVuSans-32" transform="translate(340.771484 0)"/>
      <use xlink:href="#DejaVuSans-30" transform="translate(404.394531 0)"/>
      <use xlink:href="#DejaVuSans-33" transform="translate(468.017578 0)"/>
      <use xlink:href="#DejaVuSans-58" transform="translate(531.640625 0)"/>
      <use xlink:href="#DejaVuSans-50" transform="translate(600.146484 0)"/>
      <use xlink:href="#DejaVuSans-55" transform="translate(660.449219 0)"/>
     </g>
    </g>
    <g id="line2d_18">
     <path d="M 675.710938 77.503813 
L 685.710938 77.503813 
L 695.710938 77.503813 
" style="fill: none; stroke: #000000; stroke-width: 1.2; stroke-linecap: square"/>
    </g>
    <g id="text_17">
     <!-- AlphaGenome -->
     <g transform="translate(703.710938 81.003813) scale(0.1 -0.1)">
      <defs>
       <path id="DejaVuSans-41" d="M 2188 4044 
L 1331 1722 
L 3047 1722 
L 2188 4044 
z
M 1831 4666 
L 2547 4666 
L 4325 0 
L 3669 0 
L 3244 1197 
L 1141 1197 
L 716 0 
L 50 0 
L 1831 4666 
z
" transform="scale(0.015625)"/>
       <path id="DejaVuSans-70" d="M 1159 525 
L 1159 -1331 
L 581 -1331 
L 581 3500 
L 1159 3500 
L 1159 2969 
Q 1341 3281 1617 3432 
Q 1894 3584 2278 3584 
Q 2916 3584 3314 3078 
Q 3713 2572 3713 1747 
Q 3713 922 3314 415 
Q 2916 -91 2278 -91 
Q 1894 -91 1617 61 
Q 1341 213 1159 525 
z
M 3116 1747 
Q 3116 2381 2855 2742 
Q 2594 3103 2138 3103 
Q 1681 3103 1420 2742 
Q 1159 2381 1159 1747 
Q 1159 1113 1420 752 
Q 1681 391 2138 391 
Q 2594 391 2855 752 
Q 3116 1113 3116 1747 
z
" transform="scale(0.015625)"/>
       <path id="DejaVuSans-47" d="M 3809 666 
L 3809 1919 
L 2778 1919 
L 2778 2438 
L 4434 2438 
L 4434 434 
Q 4069 175 3628 42 
Q 3188 -91 2688 -91 
Q 1594 -91 976 548 
Q 359 1188 359 2328 
Q 359 3472 976 4111 
Q 1594 4750 2688 4750 
Q 3144 4750 3555 4637 
Q 3966 4525 4313 4306 
L 4313 3634 
Q 3963 3931 3569 4081 
Q 3175 4231 2741 4231 
Q 1884 4231 1454 3753 
Q 1025 3275 1025 2328 
Q 1025 1384 1454 906 
Q 1884 428 2741 428 
Q 3075 428 3337 486 
Q 3600 544 3809 666 
z
" transform="scale(0.015625)"/>
      </defs>
      <use xlink:href="#DejaVuSans-41"/>
      <use xlink:href="#DejaVuSans-6c" transform="translate(68.408203 0)"/>
      <use xlink:href="#DejaVuSans-70" transform="translate(96.191406 0)"/>
      <use xlink:href="#DejaVuSans-68" transform="translate(159.667969 0)"/>
      <use xlink:href="#DejaVuSans-61" transform="translate(223.046875 0)"/>
      <use xlink:href="#DejaVuSans-47" transform="translate(284.326172 0)"/>
      <use xlink:href="#DejaVuSans-65" transform="translate(361.816406 0)"/>
      <use xlink:href="#DejaVuSans-6e" transform="translate(423.339844 0)"/>
      <use xlink:href="#DejaVuSans-6f" transform="translate(486.71875 0)"/>
      <use xlink:href="#DejaVuSans-6d" transform="translate(547.900391 0)"/>
      <use xlink:href="#DejaVuSans-65" transform="translate(645.3125 0)"/>
     </g>
    </g>
    <g id="line2d_19">
     <path d="M 797.076563 62.825688 
L 807.076563 62.825688 
L 817.076563 62.825688 
" style="fill: none; stroke: #ff7f0e; stroke-width: 1.2; stroke-linecap: square"/>
    </g>
    <g id="text_18">
     <!-- DiMeLo pooled -->
     <g transform="translate(825.076563 66.325688) scale(0.1 -0.1)">
      <defs>
       <path id="DejaVuSans-44" d="M 1259 4147 
L 1259 519 
L 2022 519 
Q 2988 519 3436 956 
Q 3884 1394 3884 2338 
Q 3884 3275 3436 3711 
Q 2988 4147 2022 4147 
L 1259 4147 
z
M 628 4666 
L 1925 4666 
Q 3281 4666 3915 4102 
Q 4550 3538 4550 2338 
Q 4550 1131 3912 565 
Q 3275 0 1925 0 
L 628 0 
L 628 4666 
z
" transform="scale(0.015625)"/>
       <path id="DejaVuSans-4d" d="M 628 4666 
L 1569 4666 
L 2759 1491 
L 3956 4666 
L 4897 4666 
L 4897 0 
L 4281 0 
L 4281 4097 
L 3078 897 
L 2444 897 
L 1241 4097 
L 1241 0 
L 628 0 
L 628 4666 
z
" transform="scale(0.015625)"/>
       <path id="DejaVuSans-4c" d="M 628 4666 
L 1259 4666 
L 1259 531 
L 3531 531 
L 3531 0 
L 628 0 
L 628 4666 
z
" transform="scale(0.015625)"/>
      </defs>
      <use xlink:href="#DejaVuSans-44"/>
      <use xlink:href="#DejaVuSans-69" transform="translate(77.001953 0)"/>
      <use xlink:href="#DejaVuSans-4d" transform="translate(104.785156 0)"/>
      <use xlink:href="#DejaVuSans-65" transform="translate(191.064453 0)"/>
      <use xlink:href="#DejaVuSans-4c" transform="translate(252.587891 0)"/>
      <use xlink:href="#DejaVuSans-6f" transform="translate(306.550781 0)"/>
      <use xlink:href="#DejaVuSans-20" transform="translate(367.732422 0)"/>
      <use xlink:href="#DejaVuSans-70" transform="translate(399.519531 0)"/>
      <use xlink:href="#DejaVuSans-6f" transform="translate(462.996094 0)"/>
      <use xlink:href="#DejaVuSans-6f" transform="translate(524.177734 0)"/>
      <use xlink:href="#DejaVuSans-6c" transform="translate(585.359375 0)"/>
      <use xlink:href="#DejaVuSans-65" transform="translate(613.142578 0)"/>
      <use xlink:href="#DejaVuSans-64" transform="translate(674.666016 0)"/>
     </g>
    </g>
    <g id="line2d_20">
     <path d="M 797.076563 77.503813 
L 807.076563 77.503813 
L 817.076563 77.503813 
" style="fill: none; stroke-dasharray: 4.44,1.92; stroke-dashoffset: 0; stroke: #9467bd; stroke-width: 1.2"/>
    </g>
    <g id="text_19">
     <!-- HyenaDNA pooled -->
     <g transform="translate(825.076563 81.003813) scale(0.1 -0.1)">
      <defs>
       <path id="DejaVuSans-48" d="M 628 4666 
L 1259 4666 
L 1259 2753 
L 3553 2753 
L 3553 4666 
L 4184 4666 
L 4184 0 
L 3553 0 
L 3553 2222 
L 1259 2222 
L 1259 0 
L 628 0 
L 628 4666 
z
" transform="scale(0.015625)"/>
       <path id="DejaVuSans-79" d="M 2059 -325 
Q 1816 -950 1584 -1140 
Q 1353 -1331 966 -1331 
L 506 -1331 
L 506 -850 
L 844 -850 
Q 1081 -850 1212 -737 
Q 1344 -625 1503 -206 
L 1606 56 
L 191 3500 
L 800 3500 
L 1894 763 
L 2988 3500 
L 3597 3500 
L 2059 -325 
z
" transform="scale(0.015625)"/>
      </defs>
      <use xlink:href="#DejaVuSans-48"/>
      <use xlink:href="#DejaVuSans-79" transform="translate(75.195312 0)"/>
      <use xlink:href="#DejaVuSans-65" transform="translate(134.375 0)"/>
      <use xlink:href="#DejaVuSans-6e" transform="translate(195.898438 0)"/>
      <use xlink:href="#DejaVuSans-61" transform="translate(259.277344 0)"/>
      <use xlink:href="#DejaVuSans-44" transform="translate(320.556641 0)"/>
      <use xlink:href="#DejaVuSans-4e" transform="translate(397.558594 0)"/>
      <use xlink:href="#DejaVuSans-41" transform="translate(472.363281 0)"/>
      <use xlink:href="#DejaVuSans-20" transform="translate(540.771484 0)"/>
      <use xlink:href="#DejaVuSans-70" transform="translate(572.558594 0)"/>
      <use xlink:href="#DejaVuSans-6f" transform="translate(636.035156 0)"/>
      <use xlink:href="#DejaVuSans-6f" transform="translate(697.216797 0)"/>
      <use xlink:href="#DejaVuSans-6c" transform="translate(758.398438 0)"/>
      <use xlink:href="#DejaVuSans-65" transform="translate(786.181641 0)"/>
      <use xlink:href="#DejaVuSans-64" transform="translate(847.705078 0)"/>
     </g>
    </g>
   </g>
  </g>
  <g id="text_20">
   <!-- chr16 region 19: overlay -->
   <g transform="translate(394.170938 16.318125) scale(0.12 -0.12)">
    <defs>
     <path id="DejaVuSans-39" d="M 703 97 
L 703 672 
Q 941 559 1184 500 
Q 1428 441 1663 441 
Q 2288 441 2617 861 
Q 2947 1281 2994 2138 
Q 2813 1869 2534 1725 
Q 2256 1581 1919 1581 
Q 1219 1581 811 2004 
Q 403 2428 403 3163 
Q 403 3881 828 4315 
Q 1253 4750 1959 4750 
Q 2769 4750 3195 4129 
Q 3622 3509 3622 2328 
Q 3622 1225 3098 567 
Q 2575 -91 1691 -91 
Q 1453 -91 1209 -44 
Q 966 3 703 97 
z
M 1959 2075 
Q 2384 2075 2632 2365 
Q 2881 2656 2881 3163 
Q 2881 3666 2632 3958 
Q 2384 4250 1959 4250 
Q 1534 4250 1286 3958 
Q 1038 3666 1038 3163 
Q 1038 2656 1286 2365 
Q 1534 2075 1959 2075 
z
" transform="scale(0.015625)"/>
     <path id="DejaVuSans-3a" d="M 750 794 
L 1409 794 
L 1409 0 
L 750 0 
L 750 794 
z
M 750 3309 
L 1409 3309 
L 1409 2516 
L 750 2516 
L 750 3309 
z
" transform="scale(0.015625)"/>
     <path id="DejaVuSans-76" d="M 191 3500 
L 800 3500 
L 1894 563 
L 2988 3500 
L 3597 3500 
L 2284 0 
L 1503 0 
L 191 3500 
z
" transform="scale(0.015625)"/>
    </defs>
    <use xlink:href="#DejaVuSans-63"/>
    <use xlink:href="#DejaVuSans-68" transform="translate(54.980469 0)"/>
    <use xlink:href="#DejaVuSans-72" transform="translate(118.359375 0)"/>
    <use xlink:href="#DejaVuSans-31" transform="translate(159.472656 0)"/>
    <use xlink:href="#DejaVuSans-36" transform="translate(223.095703 0)"/>
    <use xlink:href="#DejaVuSans-20" transform="translate(286.71875 0)"/>
    <use xlink:href="#DejaVuSans-72" transform="translate(318.505859 0)"/>
    <use xlink:href="#DejaVuSans-65" transform="translate(357.369141 0)"/>
    <use xlink:href="#DejaVuSans-67" transform="translate(418.892578 0)"/>
    <use xlink:href="#DejaVuSans-69" transform="translate(482.369141 0)"/>
    <use xlink:href="#DejaVuSans-6f" transform="translate(510.152344 0)"/>
    <use xlink:href="#DejaVuSans-6e" transform="translate(571.333984 0)"/>
    <use xlink:href="#DejaVuSans-20" transform="translate(634.712891 0)"/>
    <use xlink:href="#DejaVuSans-31" transform="translate(666.5 0)"/>
    <use xlink:href="#DejaVuSans-39" transform="translate(730.123047 0)"/>
    <use xlink:href="#DejaVuSans-3a" transform="translate(793.746094 0)"/>
    <use xlink:href="#DejaVuSans-20" transform="translate(827.4375 0)"/>
    <use xlink:href="#DejaVuSans-6f" transform="translate(859.224609 0)"/>
    <use xlink:href="#DejaVuSans-76" transform="translate(920.40625 0)"/>
    <use xlink:href="#DejaVuSans-65" transform="translate(979.585938 0)"/>
    <use xlink:href="#DejaVuSans-72" transform="translate(1041.109375 0)"/>
    <use xlink:href="#DejaVuSans-6c" transform="translate(1082.222656 0)"/>
    <use xlink:href="#DejaVuSans-61" transform="translate(1110.005859 0)"/>
    <use xlink:href="#DejaVuSans-79" transform="translate(1171.285156 0)"/>
   </g>
   <!-- chr16_rank20_score3.106_reads440 -->
   <g transform="translate(359.357813 29.7555) scale(0.12 -0.12)">
    <defs>
     <path id="DejaVuSans-5f" d="M 3263 -1063 
L 3263 -1509 
L -63 -1509 
L -63 -1063 
L 3263 -1063 
z
" transform="scale(0.015625)"/>
     <path id="DejaVuSans-6b" d="M 581 4863 
L 1159 4863 
L 1159 1991 
L 2875 3500 
L 3609 3500 
L 1753 1863 
L 3688 0 
L 2938 0 
L 1159 1709 
L 1159 0 
L 581 0 
L 581 4863 
z
" transform="scale(0.015625)"/>
    </defs>
    <use xlink:href="#DejaVuSans-63"/>
    <use xlink:href="#DejaVuSans-68" transform="translate(54.980469 0)"/>
    <use xlink:href="#DejaVuSans-72" transform="translate(118.359375 0)"/>
    <use xlink:href="#DejaVuSans-31" transform="translate(159.472656 0)"/>
    <use xlink:href="#DejaVuSans-36" transform="translate(223.095703 0)"/>
    <use xlink:href="#DejaVuSans-5f" transform="translate(286.71875 0)"/>
    <use xlink:href="#DejaVuSans-72" transform="translate(336.71875 0)"/>
    <use xlink:href="#DejaVuSans-61" transform="translate(377.832031 0)"/>
    <use xlink:href="#DejaVuSans-6e" transform="translate(439.111328 0)"/>
    <use xlink:href="#DejaVuSans-6b" transform="translate(502.490234 0)"/>
    <use xlink:href="#DejaVuSans-32" transform="translate(560.400391 0)"/>
    <use xlink:href="#DejaVuSans-30" transform="translate(624.023438 0)"/>
    <use xlink:href="#DejaVuSans-5f" transform="translate(687.646484 0)"/>
    <use xlink:href="#DejaVuSans-73" transform="translate(737.646484 0)"/>
    <use xlink:href="#DejaVuSans-63" transform="translate(789.746094 0)"/>
    <use xlink:href="#DejaVuSans-6f" transform="translate(844.726562 0)"/>
    <use xlink:href="#DejaVuSans-72" transform="translate(905.908203 0)"/>
    <use xlink:href="#DejaVuSans-65" transform="translate(944.771484 0)"/>
    <use xlink:href="#DejaVuSans-33" transform="translate(1006.294922 0)"/>
    <use xlink:href="#DejaVuSans-2e" transform="translate(1069.917969 0)"/>
    <use xlink:href="#DejaVuSans-31" transform="translate(1101.705078 0)"/>
    <use xlink:href="#DejaVuSans-30" transform="translate(1165.328125 0)"/>
    <use xlink:href="#DejaVuSans-36" transform="translate(1228.951172 0)"/>
    <use xlink:href="#DejaVuSans-5f" transform="translate(1292.574219 0)"/>
    <use xlink:href="#DejaVuSans-72" transform="translate(1342.574219 0)"/>
    <use xlink:href="#DejaVuSans-65" transform="translate(1381.4375 0)"/>
    <use xlink:href="#DejaVuSans-61" transform="translate(1442.960938 0)"/>
    <use xlink:href="#DejaVuSans-64" transform="translate(1504.240234 0)"/>
    <use xlink:href="#DejaVuSans-73" transform="translate(1567.716797 0)"/>
    <use xlink:href="#DejaVuSans-34" transform="translate(1619.816406 0)"/>
    <use xlink:href="#DejaVuSans-34" transform="translate(1683.439453 0)"/>
    <use xlink:href="#DejaVuSans-30" transform="translate(1747.0625 0)"/>
   </g>
  </g>
 </g>
 <defs>
  <clipPath id="p146e0fdf88">
   <rect x="47.72" y="49.72725" width="877.48" height="268.31275"/>
  </clipPath>
 </defs>
</svg>
