<?xml version="1.0" encoding="utf-8" standalone="no"?>
<!DOCTYPE svg PUBLIC "-//W3C//DTD SVG 1.1//EN"
  "http://www.w3.org/Graphics/SVG/1.1/DTD/svg11.dtd">
<svg xmlns:xlink="http://www.w3.org/1999/xlink" width="936pt" height="360pt" viewBox="0 0 936 360" xmlns="http://www.w3.org/2000/svg" version="1.1">
 <metadata>
  <rdf:RDF xmlns:dc="http://purl.org/dc/elements/1.1/" xmlns:cc="http://creativecommons.org/ns#" xmlns:rdf="http://www.w3.org/1999/02/22-rdf-syntax-ns#">
   <cc:Work>
    <dc:type rdf:resource="http://purl.org/dc/dcmitype/StillImage"/>
    <dc:date>2026-07-17T20:22:15.831223</dc:date>
    <dc:format>image/svg+xml</dc:format>
    <dc:creator>
     <cc:Agent>
      <dc:title>Matplotlib v3.10.8, https://matplotlib.org/</dc:title>
     </cc:Agent>
    </dc:creator>
   </cc:Work>
  </rdf:RDF>
 </metadata>
 <defs>
  <style type="text/css">*{stroke-linejoin: round; stroke-linecap: butt}</style>
 </defs>
 <g id="figure_1">
  <g id="patch_1">
   <path d="M 0 360 
L 936 360 
L 936 0 
L 0 0 
z
" style="fill: #ffffff"/>
  </g>
  <g id="axes_1">
   <g id="patch_2">
    <path d="M 47.72 318.04 
L 925.2 318.04 
L 925.2 49.72725 
L 47.72 49.72725 
z
" style="fill: #ffffff"/>
   </g>
   <g id="matplotlib.axis_1">
    <g id="xtick_1">
     <g id="line2d_1">
      <defs>
       <path id="m8d2ccc0832" d="M 0 0 
L 0 3.5 
" style="stroke: #000000; stroke-width: 0.8"/>
      </defs>
      <g>
       <use xlink:href="#m8d2ccc0832" x="86.806147" y="318.04" style="stroke: #000000; stroke-width: 0.8"/>
      </g>
     </g>
     <g id="text_1">
      <!-- 3.100 -->
      <g transform="translate(72.492084 332.638438) scale(0.1 -0.1)">
       <defs>
        <path id="DejaVuSans-33" d="M 2597 2516 
Q 3050 2419 3304 2112 
Q 3559 1806 3559 1356 
Q 3559 666 3084 287 
Q 2609 -91 1734 -91 
Q 1441 -91 1130 -33 
Q 819 25 488 141 
L 488 750 
Q 750 597 1062 519 
Q 1375 441 1716 441 
Q 2309 441 2620 675 
Q 2931 909 2931 1356 
Q 2931 1769 2642 2001 
Q 2353 2234 1838 2234 
L 1294 2234 
L 1294 2753 
L 1863 2753 
Q 2328 2753 2575 2939 
Q 2822 3125 2822 3475 
Q 2822 3834 2567 4026 
Q 2313 4219 1838 4219 
Q 1578 4219 1281 4162 
Q 984 4106 628 3988 
L 628 4550 
Q 988 4650 1302 4700 
Q 1616 4750 1894 4750 
Q 2613 4750 3031 4423 
Q 3450 4097 3450 3541 
Q 3450 3153 3228 2886 
Q 3006 2619 2597 2516 
z
" transform="scale(0.015625)"/>
        <path id="DejaVuSans-2e" d="M 684 794 
L 1344 794 
L 1344 0 
L 684 0 
L 684 794 
z
" transform="scale(0.015625)"/>
        <path id="DejaVuSans-31" d="M 794 531 
L 1825 531 
L 1825 4091 
L 703 3866 
L 703 4441 
L 1819 4666 
L 2450 4666 
L 2450 531 
L 3481 531 
L 3481 0 
L 794 0 
L 794 531 
z
" transform="scale(0.015625)"/>
        <path id="DejaVuSans-30" d="M 2034 4250 
Q 1547 4250 1301 3770 
Q 1056 3291 1056 2328 
Q 1056 1369 1301 889 
Q 1547 409 2034 409 
Q 2525 409 2770 889 
Q 3016 1369 3016 2328 
Q 3016 3291 2770 3770 
Q 2525 4250 2034 4250 
z
M 2034 4750 
Q 2819 4750 3233 4129 
Q 3647 3509 3647 2328 
Q 3647 1150 3233 529 
Q 2819 -91 2034 -91 
Q 1250 -91 836 529 
Q 422 1150 422 2328 
Q 422 3509 836 4129 
Q 1250 4750 2034 4750 
z
" transform="scale(0.015625)"/>
       </defs>
       <use xlink:href="#DejaVuSans-33"/>
       <use xlink:href="#DejaVuSans-2e" transform="translate(63.623047 0)"/>
       <use xlink:href="#DejaVuSans-31" transform="translate(95.410156 0)"/>
       <use xlink:href="#DejaVuSans-30" transform="translate(159.033203 0)"/>
       <use xlink:href="#DejaVuSans-30" transform="translate(222.65625 0)"/>
      </g>
     </g>
    </g>
    <g id="xtick_2">
     <g id="line2d_2">
      <g>
       <use xlink:href="#m8d2ccc0832" x="246.667688" y="318.04" style="stroke: #000000; stroke-width: 0.8"/>
      </g>
     </g>
     <g id="text_2">
      <!-- 3.102 -->
      <g transform="translate(232.353626 332.638438) scale(0.1 -0.1)">
       <defs>
        <path id="DejaVuSans-32" d="M 1228 531 
L 3431 531 
L 3431 0 
L 469 0 
L 469 531 
Q 828 903 1448 1529 
Q 2069 2156 2228 2338 
Q 2531 2678 2651 2914 
Q 2772 3150 2772 3378 
Q 2772 3750 2511 3984 
Q 2250 4219 1831 4219 
Q 1534 4219 1204 4116 
Q 875 4013 500 3803 
L 500 4441 
Q 881 4594 1212 4672 
Q 1544 4750 1819 4750 
Q 2544 4750 2975 4387 
Q 3406 4025 3406 3419 
Q 3406 3131 3298 2873 
Q 3191 2616 2906 2266 
Q 2828 2175 2409 1742 
Q 1991 1309 1228 531 
z
" transform="scale(0.015625)"/>
       </defs>
       <use xlink:href="#DejaVuSans-33"/>
       <use xlink:href="#DejaVuSans-2e" transform="translate(63.623047 0)"/>
       <use xlink:href="#DejaVuSans-31" transform="translate(95.410156 0)"/>
       <use xlink:href="#DejaVuSans-30" transform="translate(159.033203 0)"/>
       <use xlink:href="#DejaVuSans-32" transform="translate(222.65625 0)"/>
      </g>
     </g>
    </g>
    <g id="xtick_3">
     <g id="line2d_3">
      <g>
       <use xlink:href="#m8d2ccc0832" x="406.529229" y="318.04" style="stroke: #000000; stroke-width: 0.8"/>
      </g>
     </g>
     <g id="text_3">
      <!-- 3.104 -->
      <g transform="translate(392.215167 332.638438) scale(0.1 -0.1)">
       <defs>
        <path id="DejaVuSans-34" d="M 2419 4116 
L 825 1625 
L 2419 1625 
L 2419 4116 
z
M 2253 4666 
L 3047 4666 
L 3047 1625 
L 3713 1625 
L 3713 1100 
L 3047 1100 
L 3047 0 
L 2419 0 
L 2419 1100 
L 313 1100 
L 313 1709 
L 2253 4666 
z
" transform="scale(0.015625)"/>
       </defs>
       <use xlink:href="#DejaVuSans-33"/>
       <use xlink:href="#DejaVuSans-2e" transform="translate(63.623047 0)"/>
       <use xlink:href="#DejaVuSans-31" transform="translate(95.410156 0)"/>
       <use xlink:href="#DejaVuSans-30" transform="translate(159.033203 0)"/>
       <use xlink:href="#DejaVuSans-34" transform="translate(222.65625 0)"/>
      </g>
     </g>
    </g>
    <g id="xtick_4">
     <g id="line2d_4">
      <g>
       <use xlink:href="#m8d2ccc0832" x="566.390771" y="318.04" style="stroke: #000000; stroke-width: 0.8"/>
      </g>
     </g>
     <g id="text_4">
      <!-- 3.106 -->
      <g transform="translate(552.076708 332.638438) scale(0.1 -0.1)">
       <defs>
        <path id="DejaVuSans-36" d="M 2113 2584 
Q 1688 2584 1439 2293 
Q 1191 2003 1191 1497 
Q 1191 994 1439 701 
Q 1688 409 2113 409 
Q 2538 409 2786 701 
Q 3034 994 3034 1497 
Q 3034 2003 2786 2293 
Q 2538 2584 2113 2584 
z
M 3366 4563 
L 3366 3988 
Q 3128 4100 2886 4159 
Q 2644 4219 2406 4219 
Q 1781 4219 1451 3797 
Q 1122 3375 1075 2522 
Q 1259 2794 1537 2939 
Q 1816 3084 2150 3084 
Q 2853 3084 3261 2657 
Q 3669 2231 3669 1497 
Q 3669 778 3244 343 
Q 2819 -91 2113 -91 
Q 1303 -91 875 529 
Q 447 1150 447 2328 
Q 447 3434 972 4092 
Q 1497 4750 2381 4750 
Q 2619 4750 2861 4703 
Q 3103 4656 3366 4563 
z
" transform="scale(0.015625)"/>
       </defs>
       <use xlink:href="#DejaVuSans-33"/>
       <use xlink:href="#DejaVuSans-2e" transform="translate(63.623047 0)"/>
       <use xlink:href="#DejaVuSans-31" transform="translate(95.410156 0)"/>
       <use xlink:href="#DejaVuSans-30" transform="translate(159.033203 0)"/>
       <use xlink:href="#DejaVuSans-36" transform="translate(222.65625 0)"/>
      </g>
     </g>
    </g>
    <g id="xtick_5">
     <g id="line2d_5">
      <g>
       <use xlink:href="#m8d2ccc0832" x="726.252312" y="318.04" style="stroke: #000000; stroke-width: 0.8"/>
      </g>
     </g>
     <g id="text_5">
      <!-- 3.108 -->
      <g transform="translate(711.938249 332.638438) scale(0.1 -0.1)">
       <defs>
        <path id="DejaVuSans-38" d="M 2034 2216 
Q 1584 2216 1326 1975 
Q 1069 1734 1069 1313 
Q 1069 891 1326 650 
Q 1584 409 2034 409 
Q 2484 409 2743 651 
Q 3003 894 3003 1313 
Q 3003 1734 2745 1975 
Q 2488 2216 2034 2216 
z
M 1403 2484 
Q 997 2584 770 2862 
Q 544 3141 544 3541 
Q 544 4100 942 4425 
Q 1341 4750 2034 4750 
Q 2731 4750 3128 4425 
Q 3525 4100 3525 3541 
Q 3525 3141 3298 2862 
Q 3072 2584 2669 2484 
Q 3125 2378 3379 2068 
Q 3634 1759 3634 1313 
Q 3634 634 3220 271 
Q 2806 -91 2034 -91 
Q 1263 -91 848 271 
Q 434 634 434 1313 
Q 434 1759 690 2068 
Q 947 2378 1403 2484 
z
M 1172 3481 
Q 1172 3119 1398 2916 
Q 1625 2713 2034 2713 
Q 2441 2713 2670 2916 
Q 2900 3119 2900 3481 
Q 2900 3844 2670 4047 
Q 2441 4250 2034 4250 
Q 1625 4250 1398 4047 
Q 1172 3844 1172 3481 
z
" transform="scale(0.015625)"/>
       </defs>
       <use xlink:href="#DejaVuSans-33"/>
       <use xlink:href="#DejaVuSans-2e" transform="translate(63.623047 0)"/>
       <use xlink:href="#DejaVuSans-31" transform="translate(95.410156 0)"/>
       <use xlink:href="#DejaVuSans-30" transform="translate(159.033203 0)"/>
       <use xlink:href="#DejaVuSans-38" transform="translate(222.65625 0)"/>
      </g>
     </g>
    </g>
    <g id="xtick_6">
     <g id="line2d_6">
      <g>
       <use xlink:href="#m8d2ccc0832" x="886.113853" y="318.04" style="stroke: #000000; stroke-width: 0.8"/>
      </g>
     </g>
     <g id="text_6">
      <!-- 3.110 -->
      <g transform="translate(871.799791 332.638438) scale(0.1 -0.1)">
       <use xlink:href="#DejaVuSans-33"/>
       <use xlink:href="#DejaVuSans-2e" transform="translate(63.623047 0)"/>
       <use xlink:href="#DejaVuSans-31" transform="translate(95.410156 0)"/>
       <use xlink:href="#DejaVuSans-31" transform="translate(159.033203 0)"/>
       <use xlink:href="#DejaVuSans-30" transform="translate(222.65625 0)"/>
      </g>
     </g>
    </g>
    <g id="text_7">
     <!-- chr16 coordinate (hg38) -->
     <g transform="translate(425.670156 346.316563) scale(0.1 -0.1)">
      <defs>
       <path id="DejaVuSans-63" d="M 3122 3366 
L 3122 2828 
Q 2878 2963 2633 3030 
Q 2388 3097 2138 3097 
Q 1578 3097 1268 2742 
Q 959 2388 959 1747 
Q 959 1106 1268 751 
Q 1578 397 2138 397 
Q 2388 397 2633 464 
Q 2878 531 3122 666 
L 3122 134 
Q 2881 22 2623 -34 
Q 2366 -91 2075 -91 
Q 1284 -91 818 406 
Q 353 903 353 1747 
Q 353 2603 823 3093 
Q 1294 3584 2113 3584 
Q 2378 3584 2631 3529 
Q 2884 3475 3122 3366 
z
" transform="scale(0.015625)"/>
       <path id="DejaVuSans-68" d="M 3513 2113 
L 3513 0 
L 2938 0 
L 2938 2094 
Q 2938 2591 2744 2837 
Q 2550 3084 2163 3084 
Q 1697 3084 1428 2787 
Q 1159 2491 1159 1978 
L 1159 0 
L 581 0 
L 581 4863 
L 1159 4863 
L 1159 2956 
Q 1366 3272 1645 3428 
Q 1925 3584 2291 3584 
Q 2894 3584 3203 3211 
Q 3513 2838 3513 2113 
z
" transform="scale(0.015625)"/>
       <path id="DejaVuSans-72" d="M 2631 2963 
Q 2534 3019 2420 3045 
Q 2306 3072 2169 3072 
Q 1681 3072 1420 2755 
Q 1159 2438 1159 1844 
L 1159 0 
L 581 0 
L 581 3500 
L 1159 3500 
L 1159 2956 
Q 1341 3275 1631 3429 
Q 1922 3584 2338 3584 
Q 2397 3584 2469 3576 
Q 2541 3569 2628 3553 
L 2631 2963 
z
" transform="scale(0.015625)"/>
       <path id="DejaVuSans-20" transform="scale(0.015625)"/>
       <path id="DejaVuSans-6f" d="M 1959 3097 
Q 1497 3097 1228 2736 
Q 959 2375 959 1747 
Q 959 1119 1226 758 
Q 1494 397 1959 397 
Q 2419 397 2687 759 
Q 2956 1122 2956 1747 
Q 2956 2369 2687 2733 
Q 2419 3097 1959 3097 
z
M 1959 3584 
Q 2709 3584 3137 3096 
Q 3566 2609 3566 1747 
Q 3566 888 3137 398 
Q 2709 -91 1959 -91 
Q 1206 -91 779 398 
Q 353 888 353 1747 
Q 353 2609 779 3096 
Q 1206 3584 1959 3584 
z
" transform="scale(0.015625)"/>
       <path id="DejaVuSans-64" d="M 2906 2969 
L 2906 4863 
L 3481 4863 
L 3481 0 
L 2906 0 
L 2906 525 
Q 2725 213 2448 61 
Q 2172 -91 1784 -91 
Q 1150 -91 751 415 
Q 353 922 353 1747 
Q 353 2572 751 3078 
Q 1150 3584 1784 3584 
Q 2172 3584 2448 3432 
Q 2725 3281 2906 2969 
z
M 947 1747 
Q 947 1113 1208 752 
Q 1469 391 1925 391 
Q 2381 391 2643 752 
Q 2906 1113 2906 1747 
Q 2906 2381 2643 2742 
Q 2381 3103 1925 3103 
Q 1469 3103 1208 2742 
Q 947 2381 947 1747 
z
" transform="scale(0.015625)"/>
       <path id="DejaVuSans-69" d="M 603 3500 
L 1178 3500 
L 1178 0 
L 603 0 
L 603 3500 
z
M 603 4863 
L 1178 4863 
L 1178 4134 
L 603 4134 
L 603 4863 
z
" transform="scale(0.015625)"/>
       <path id="DejaVuSans-6e" d="M 3513 2113 
L 3513 0 
L 2938 0 
L 2938 2094 
Q 2938 2591 2744 2837 
Q 2550 3084 2163 3084 
Q 1697 3084 1428 2787 
Q 1159 2491 1159 1978 
L 1159 0 
L 581 0 
L 581 3500 
L 1159 3500 
L 1159 2956 
Q 1366 3272 1645 3428 
Q 1925 3584 2291 3584 
Q 2894 3584 3203 3211 
Q 3513 2838 3513 2113 
z
" transform="scale(0.015625)"/>
       <path id="DejaVuSans-61" d="M 2194 1759 
Q 1497 1759 1228 1600 
Q 959 1441 959 1056 
Q 959 750 1161 570 
Q 1363 391 1709 391 
Q 2188 391 2477 730 
Q 2766 1069 2766 1631 
L 2766 1759 
L 2194 1759 
z
M 3341 1997 
L 3341 0 
L 2766 0 
L 2766 531 
Q 2569 213 2275 61 
Q 1981 -91 1556 -91 
Q 1019 -91 701 211 
Q 384 513 384 1019 
Q 384 1609 779 1909 
Q 1175 2209 1959 2209 
L 2766 2209 
L 2766 2266 
Q 2766 2663 2505 2880 
Q 2244 3097 1772 3097 
Q 1472 3097 1187 3025 
Q 903 2953 641 2809 
L 641 3341 
Q 956 3463 1253 3523 
Q 1550 3584 1831 3584 
Q 2591 3584 2966 3190 
Q 3341 2797 3341 1997 
z
" transform="scale(0.015625)"/>
       <path id="DejaVuSans-74" d="M 1172 4494 
L 1172 3500 
L 2356 3500 
L 2356 3053 
L 1172 3053 
L 1172 1153 
Q 1172 725 1289 603 
Q 1406 481 1766 481 
L 2356 481 
L 2356 0 
L 1766 0 
Q 1100 0 847 248 
Q 594 497 594 1153 
L 594 3053 
L 172 3053 
L 172 3500 
L 594 3500 
L 594 4494 
L 1172 4494 
z
" transform="scale(0.015625)"/>
       <path id="DejaVuSans-65" d="M 3597 1894 
L 3597 1613 
L 953 1613 
Q 991 1019 1311 708 
Q 1631 397 2203 397 
Q 2534 397 2845 478 
Q 3156 559 3463 722 
L 3463 178 
Q 3153 47 2828 -22 
Q 2503 -91 2169 -91 
Q 1331 -91 842 396 
Q 353 884 353 1716 
Q 353 2575 817 3079 
Q 1281 3584 2069 3584 
Q 2775 3584 3186 3129 
Q 3597 2675 3597 1894 
z
M 3022 2063 
Q 3016 2534 2758 2815 
Q 2500 3097 2075 3097 
Q 1594 3097 1305 2825 
Q 1016 2553 972 2059 
L 3022 2063 
z
" transform="scale(0.015625)"/>
       <path id="DejaVuSans-28" d="M 1984 4856 
Q 1566 4138 1362 3434 
Q 1159 2731 1159 2009 
Q 1159 1288 1364 580 
Q 1569 -128 1984 -844 
L 1484 -844 
Q 1016 -109 783 600 
Q 550 1309 550 2009 
Q 550 2706 781 3412 
Q 1013 4119 1484 4856 
L 1984 4856 
z
" transform="scale(0.015625)"/>
       <path id="DejaVuSans-67" d="M 2906 1791 
Q 2906 2416 2648 2759 
Q 2391 3103 1925 3103 
Q 1463 3103 1205 2759 
Q 947 2416 947 1791 
Q 947 1169 1205 825 
Q 1463 481 1925 481 
Q 2391 481 2648 825 
Q 2906 1169 2906 1791 
z
M 3481 434 
Q 3481 -459 3084 -895 
Q 2688 -1331 1869 -1331 
Q 1566 -1331 1297 -1286 
Q 1028 -1241 775 -1147 
L 775 -588 
Q 1028 -725 1275 -790 
Q 1522 -856 1778 -856 
Q 2344 -856 2625 -561 
Q 2906 -266 2906 331 
L 2906 616 
Q 2728 306 2450 153 
Q 2172 0 1784 0 
Q 1141 0 747 490 
Q 353 981 353 1791 
Q 353 2603 747 3093 
Q 1141 3584 1784 3584 
Q 2172 3584 2450 3431 
Q 2728 3278 2906 2969 
L 2906 3500 
L 3481 3500 
L 3481 434 
z
" transform="scale(0.015625)"/>
       <path id="DejaVuSans-29" d="M 513 4856 
L 1013 4856 
Q 1481 4119 1714 3412 
Q 1947 2706 1947 2009 
Q 1947 1309 1714 600 
Q 1481 -109 1013 -844 
L 513 -844 
Q 928 -128 1133 580 
Q 1338 1288 1338 2009 
Q 1338 2731 1133 3434 
Q 928 4138 513 4856 
z
" transform="scale(0.015625)"/>
      </defs>
      <use xlink:href="#DejaVuSans-63"/>
      <use xlink:href="#DejaVuSans-68" transform="translate(54.980469 0)"/>
      <use xlink:href="#DejaVuSans-72" transform="translate(118.359375 0)"/>
      <use xlink:href="#DejaVuSans-31" transform="translate(159.472656 0)"/>
      <use xlink:href="#DejaVuSans-36" transform="translate(223.095703 0)"/>
      <use xlink:href="#DejaVuSans-20" transform="translate(286.71875 0)"/>
      <use xlink:href="#DejaVuSans-63" transform="translate(318.505859 0)"/>
      <use xlink:href="#DejaVuSans-6f" transform="translate(373.486328 0)"/>
      <use xlink:href="#DejaVuSans-6f" transform="translate(434.667969 0)"/>
      <use xlink:href="#DejaVuSans-72" transform="translate(495.849609 0)"/>
      <use xlink:href="#DejaVuSans-64" transform="translate(535.212891 0)"/>
      <use xlink:href="#DejaVuSans-69" transform="translate(598.689453 0)"/>
      <use xlink:href="#DejaVuSans-6e" transform="translate(626.472656 0)"/>
      <use xlink:href="#DejaVuSans-61" transform="translate(689.851562 0)"/>
      <use xlink:href="#DejaVuSans-74" transform="translate(751.130859 0)"/>
      <use xlink:href="#DejaVuSans-65" transform="translate(790.339844 0)"/>
      <use xlink:href="#DejaVuSans-20" transform="translate(851.863281 0)"/>
      <use xlink:href="#DejaVuSans-28" transform="translate(883.650391 0)"/>
      <use xlink:href="#DejaVuSans-68" transform="translate(922.664062 0)"/>
      <use xlink:href="#DejaVuSans-67" transform="translate(986.042969 0)"/>
      <use xlink:href="#DejaVuSans-33" transform="translate(1049.519531 0)"/>
      <use xlink:href="#DejaVuSans-38" transform="translate(1113.142578 0)"/>
      <use xlink:href="#DejaVuSans-29" transform="translate(1176.765625 0)"/>
     </g>
    </g>
    <g id="text_8">
     <!-- 1e7 -->
     <g transform="translate(906.321875 345.316563) scale(0.1 -0.1)">
      <defs>
       <path id="DejaVuSans-37" d="M 525 4666 
L 3525 4666 
L 3525 4397 
L 1831 0 
L 1172 0 
L 2766 4134 
L 525 4134 
L 525 4666 
z
" transform="scale(0.015625)"/>
      </defs>
      <use xlink:href="#DejaVuSans-31"/>
      <use xlink:href="#DejaVuSans-65" transform="translate(63.623047 0)"/>
      <use xlink:href="#DejaVuSans-37" transform="translate(125.146484 0)"/>
     </g>
    </g>
   </g>
   <g id="matplotlib.axis_2">
    <g id="ytick_1">
     <g id="line2d_7">
      <defs>
       <path id="m8e3531094c" d="M 0 0 
L -3.5 0 
" style="stroke: #000000; stroke-width: 0.8"/>
      </defs>
      <g>
       <use xlink:href="#m8e3531094c" x="47.72" y="305.843966" style="stroke: #000000; stroke-width: 0.8"/>
      </g>
     </g>
     <g id="text_9">
      <!-- 0.0 -->
      <g transform="translate(24.816875 309.643185) scale(0.1 -0.1)">
       <use xlink:href="#DejaVuSans-30"/>
       <use xlink:href="#DejaVuSans-2e" transform="translate(63.623047 0)"/>
       <use xlink:href="#DejaVuSans-30" transform="translate(95.410156 0)"/>
      </g>
     </g>
    </g>
    <g id="ytick_2">
     <g id="line2d_8">
      <g>
       <use xlink:href="#m8e3531094c" x="47.72" y="257.05983" style="stroke: #000000; stroke-width: 0.8"/>
      </g>
     </g>
     <g id="text_10">
      <!-- 0.2 -->
      <g transform="translate(24.816875 260.859048) scale(0.1 -0.1)">
       <use xlink:href="#DejaVuSans-30"/>
       <use xlink:href="#DejaVuSans-2e" transform="translate(63.623047 0)"/>
       <use xlink:href="#DejaVuSans-32" transform="translate(95.410156 0)"/>
      </g>
     </g>
    </g>
    <g id="ytick_3">
     <g id="line2d_9">
      <g>
       <use xlink:href="#m8e3531094c" x="47.72" y="208.275693" style="stroke: #000000; stroke-width: 0.8"/>
      </g>
     </g>
     <g id="text_11">
      <!-- 0.4 -->
      <g transform="translate(24.816875 212.074912) scale(0.1 -0.1)">
       <use xlink:href="#DejaVuSans-30"/>
       <use xlink:href="#DejaVuSans-2e" transform="translate(63.623047 0)"/>
       <use xlink:href="#DejaVuSans-34" transform="translate(95.410156 0)"/>
      </g>
     </g>
    </g>
    <g id="ytick_4">
     <g id="line2d_10">
      <g>
       <use xlink:href="#m8e3531094c" x="47.72" y="159.491557" style="stroke: #000000; stroke-width: 0.8"/>
      </g>
     </g>
     <g id="text_12">
      <!-- 0.6 -->
      <g transform="translate(24.816875 163.290776) scale(0.1 -0.1)">
       <use xlink:href="#DejaVuSans-30"/>
       <use xlink:href="#DejaVuSans-2e" transform="translate(63.623047 0)"/>
       <use xlink:href="#DejaVuSans-36" transform="translate(95.410156 0)"/>
      </g>
     </g>
    </g>
    <g id="ytick_5">
     <g id="line2d_11">
      <g>
       <use xlink:href="#m8e3531094c" x="47.72" y="110.70742" style="stroke: #000000; stroke-width: 0.8"/>
      </g>
     </g>
     <g id="text_13">
      <!-- 0.8 -->
      <g transform="translate(24.816875 114.506639) scale(0.1 -0.1)">
       <use xlink:href="#DejaVuSans-30"/>
       <use xlink:href="#DejaVuSans-2e" transform="translate(63.623047 0)"/>
       <use xlink:href="#DejaVuSans-38" transform="translate(95.410156 0)"/>
      </g>
     </g>
    </g>
    <g id="ytick_6">
     <g id="line2d_12">
      <g>
       <use xlink:href="#m8e3531094c" x="47.72" y="61.923284" style="stroke: #000000; stroke-width: 0.8"/>
      </g>
     </g>
     <g id="text_14">
      <!-- 1.0 -->
      <g transform="translate(24.816875 65.722503) scale(0.1 -0.1)">
       <use xlink:href="#DejaVuSans-31"/>
       <use xlink:href="#DejaVuSans-2e" transform="translate(63.623047 0)"/>
       <use xlink:href="#DejaVuSans-30" transform="translate(95.410156 0)"/>
      </g>
     </g>
    </g>
    <g id="text_15">
     <!-- global robust normalized signal -->
     <g transform="translate(18.737188 262.384406) rotate(-90) scale(0.1 -0.1)">
      <defs>
       <path id="DejaVuSans-6c" d="M 603 4863 
L 1178 4863 
L 1178 0 
L 603 0 
L 603 4863 
z
" transform="scale(0.015625)"/>
       <path id="DejaVuSans-62" d="M 3116 1747 
Q 3116 2381 2855 2742 
Q 2594 3103 2138 3103 
Q 1681 3103 1420 2742 
Q 1159 2381 1159 1747 
Q 1159 1113 1420 752 
Q 1681 391 2138 391 
Q 2594 391 2855 752 
Q 3116 1113 3116 1747 
z
M 1159 2969 
Q 1341 3281 1617 3432 
Q 1894 3584 2278 3584 
Q 2916 3584 3314 3078 
Q 3713 2572 3713 1747 
Q 3713 922 3314 415 
Q 2916 -91 2278 -91 
Q 1894 -91 1617 61 
Q 1341 213 1159 525 
L 1159 0 
L 581 0 
L 581 4863 
L 1159 4863 
L 1159 2969 
z
" transform="scale(0.015625)"/>
       <path id="DejaVuSans-75" d="M 544 1381 
L 544 3500 
L 1119 3500 
L 1119 1403 
Q 1119 906 1312 657 
Q 1506 409 1894 409 
Q 2359 409 2629 706 
Q 2900 1003 2900 1516 
L 2900 3500 
L 3475 3500 
L 3475 0 
L 2900 0 
L 2900 538 
Q 2691 219 2414 64 
Q 2138 -91 1772 -91 
Q 1169 -91 856 284 
Q 544 659 544 1381 
z
M 1991 3584 
L 1991 3584 
z
" transform="scale(0.015625)"/>
       <path id="DejaVuSans-73" d="M 2834 3397 
L 2834 2853 
Q 2591 2978 2328 3040 
Q 2066 3103 1784 3103 
Q 1356 3103 1142 2972 
Q 928 2841 928 2578 
Q 928 2378 1081 2264 
Q 1234 2150 1697 2047 
L 1894 2003 
Q 2506 1872 2764 1633 
Q 3022 1394 3022 966 
Q 3022 478 2636 193 
Q 2250 -91 1575 -91 
Q 1294 -91 989 -36 
Q 684 19 347 128 
L 347 722 
Q 666 556 975 473 
Q 1284 391 1588 391 
Q 1994 391 2212 530 
Q 2431 669 2431 922 
Q 2431 1156 2273 1281 
Q 2116 1406 1581 1522 
L 1381 1569 
Q 847 1681 609 1914 
Q 372 2147 372 2553 
Q 372 3047 722 3315 
Q 1072 3584 1716 3584 
Q 2034 3584 2315 3537 
Q 2597 3491 2834 3397 
z
" transform="scale(0.015625)"/>
       <path id="DejaVuSans-6d" d="M 3328 2828 
Q 3544 3216 3844 3400 
Q 4144 3584 4550 3584 
Q 5097 3584 5394 3201 
Q 5691 2819 5691 2113 
L 5691 0 
L 5113 0 
L 5113 2094 
Q 5113 2597 4934 2840 
Q 4756 3084 4391 3084 
Q 3944 3084 3684 2787 
Q 3425 2491 3425 1978 
L 3425 0 
L 2847 0 
L 2847 2094 
Q 2847 2600 2669 2842 
Q 2491 3084 2119 3084 
Q 1678 3084 1418 2786 
Q 1159 2488 1159 1978 
L 1159 0 
L 581 0 
L 581 3500 
L 1159 3500 
L 1159 2956 
Q 1356 3278 1631 3431 
Q 1906 3584 2284 3584 
Q 2666 3584 2933 3390 
Q 3200 3197 3328 2828 
z
" transform="scale(0.015625)"/>
       <path id="DejaVuSans-7a" d="M 353 3500 
L 3084 3500 
L 3084 2975 
L 922 459 
L 3084 459 
L 3084 0 
L 275 0 
L 275 525 
L 2438 3041 
L 353 3041 
L 353 3500 
z
" transform="scale(0.015625)"/>
      </defs>
      <use xlink:href="#DejaVuSans-67"/>
      <use xlink:href="#DejaVuSans-6c" transform="translate(63.476562 0)"/>
      <use xlink:href="#DejaVuSans-6f" transform="translate(91.259766 0)"/>
      <use xlink:href="#DejaVuSans-62" transform="translate(152.441406 0)"/>
      <use xlink:href="#DejaVuSans-61" transform="translate(215.917969 0)"/>
      <use xlink:href="#DejaVuSans-6c" transform="translate(277.197266 0)"/>
      <use xlink:href="#DejaVuSans-20" transform="translate(304.980469 0)"/>
      <use xlink:href="#DejaVuSans-72" transform="translate(336.767578 0)"/>
      <use xlink:href="#DejaVuSans-6f" transform="translate(375.630859 0)"/>
      <use xlink:href="#DejaVuSans-62" transform="translate(436.8125 0)"/>
      <use xlink:href="#DejaVuSans-75" transform="translate(500.289062 0)"/>
      <use xlink:href="#DejaVuSans-73" transform="translate(563.667969 0)"/>
      <use xlink:href="#DejaVuSans-74" transform="translate(615.767578 0)"/>
      <use xlink:href="#DejaVuSans-20" transform="translate(654.976562 0)"/>
      <use xlink:href="#DejaVuSans-6e" transform="translate(686.763672 0)"/>
      <use xlink:href="#DejaVuSans-6f" transform="translate(750.142578 0)"/>
      <use xlink:href="#DejaVuSans-72" transform="translate(811.324219 0)"/>
      <use xlink:href="#DejaVuSans-6d" transform="translate(850.6875 0)"/>
      <use xlink:href="#DejaVuSans-61" transform="translate(948.099609 0)"/>
      <use xlink:href="#DejaVuSans-6c" transform="translate(1009.378906 0)"/>
      <use xlink:href="#DejaVuSans-69" transform="translate(1037.162109 0)"/>
      <use xlink:href="#DejaVuSans-7a" transform="translate(1064.945312 0)"/>
      <use xlink:href="#DejaVuSans-65" transform="translate(1117.435547 0)"/>
      <use xlink:href="#DejaVuSans-64" transform="translate(1178.958984 0)"/>
      <use xlink:href="#DejaVuSans-20" transform="translate(1242.435547 0)"/>
      <use xlink:href="#DejaVuSans-73" transform="translate(1274.222656 0)"/>
      <use xlink:href="#DejaVuSans-69" transform="translate(1326.322266 0)"/>
      <use xlink:href="#DejaVuSans-67" transform="translate(1354.105469 0)"/>
      <use xlink:href="#DejaVuSans-6e" transform="translate(1417.582031 0)"/>
      <use xlink:href="#DejaVuSans-61" transform="translate(1480.960938 0)"/>
      <use xlink:href="#DejaVuSans-6c" transform="translate(1542.240234 0)"/>
     </g>
    </g>
   </g>
   <g id="line2d_13">
    <path d="M 87.605455 299.157264 
L 89.20407 302.599173 
L 92.401301 301.907049 
L 93.999916 301.84056 
L 95.598532 302.578331 
L 97.197147 304.285684 
L 98.795762 305.43106 
L 100.394378 302.538852 
L 101.992993 303.242753 
L 103.591609 305.412644 
L 105.190224 303.16398 
L 108.387455 303.184776 
L 109.98607 303.118802 
L 111.584686 305.43093 
L 113.183301 305.300256 
L 114.781917 304.70528 
L 116.380532 302.443223 
L 117.979147 301.279419 
L 119.577763 297.980965 
L 122.774994 303.22954 
L 124.373609 302.934099 
L 125.972224 301.226436 
L 127.57084 300.976368 
L 129.169455 304.243604 
L 130.768071 305.305815 
L 132.366686 305.843966 
L 133.965302 304.605391 
L 135.563917 301.812895 
L 137.162532 303.267886 
L 138.761148 303.639096 
L 140.359763 298.963928 
L 141.958379 301.150261 
L 143.556994 301.877795 
L 145.155609 304.052878 
L 146.754225 304.975412 
L 148.35284 301.744246 
L 149.951456 298.202424 
L 151.550071 296.441762 
L 153.148686 301.222732 
L 154.747302 299.236788 
L 156.345917 302.595538 
L 157.944533 296.689024 
L 159.543148 293.994051 
L 161.141764 301.977016 
L 162.740379 303.259989 
L 164.338994 305.843966 
L 165.93761 304.942467 
L 167.536225 303.713806 
L 169.134841 293.500422 
L 170.733456 281.004375 
L 172.332071 286.533476 
L 173.930687 284.565981 
L 175.529302 298.871308 
L 177.127918 299.605713 
L 178.726533 302.281245 
L 180.325148 302.798088 
L 181.923764 303.135473 
L 183.522379 302.864113 
L 185.120995 300.864631 
L 186.71961 303.407308 
L 188.318226 301.464582 
L 189.916841 303.544496 
L 191.515456 301.488954 
L 193.114072 304.087322 
L 194.712687 305.100636 
L 196.311303 298.929039 
L 197.909918 299.116334 
L 199.508533 298.661821 
L 201.107149 302.682266 
L 202.705764 302.698523 
L 204.30438 301.272334 
L 205.902995 303.17649 
L 207.50161 304.227109 
L 209.100226 305.752757 
L 210.698841 302.798824 
L 212.297457 301.603726 
L 213.896072 301.476872 
L 215.494688 297.298755 
L 217.093303 300.238985 
L 220.290534 301.066654 
L 221.889149 300.458466 
L 223.487765 300.793615 
L 225.08638 304.058616 
L 226.684995 305.241761 
L 228.283611 305.343049 
L 229.882226 300.474528 
L 231.480842 299.959034 
L 233.079457 304.168658 
L 234.678073 304.484635 
L 236.276688 304.246039 
L 237.875303 305.527359 
L 239.473919 302.208702 
L 241.072534 300.049957 
L 242.67115 301.391367 
L 244.269765 304.131876 
L 245.86838 300.940008 
L 247.466996 299.421212 
L 249.065611 299.797108 
L 250.664227 297.46607 
L 252.262842 301.14859 
L 253.861457 300.610627 
L 255.460073 301.788289 
L 257.058688 302.565097 
L 258.657304 302.975805 
L 260.255919 304.870655 
L 261.854535 300.750876 
L 263.45315 304.037597 
L 265.051765 302.879372 
L 266.650381 302.77154 
L 268.248996 301.351411 
L 269.847612 301.181876 
L 271.446227 301.225177 
L 273.044842 296.408243 
L 274.643458 300.212016 
L 276.242073 304.643006 
L 277.840689 304.41779 
L 279.439304 305.641248 
L 281.037919 303.330714 
L 282.636535 297.549087 
L 284.23515 296.896329 
L 285.833766 303.434699 
L 287.432381 303.402804 
L 289.030997 303.225816 
L 290.629612 303.867587 
L 292.228227 303.34919 
L 293.826843 299.80761 
L 295.425458 302.314509 
L 297.024074 303.677419 
L 300.221304 296.59508 
L 301.81992 297.101775 
L 303.418535 300.468156 
L 305.017151 304.24222 
L 306.615766 299.737994 
L 308.214381 300.89747 
L 309.812997 301.794922 
L 311.411612 304.405436 
L 313.010228 301.188338 
L 316.207459 303.583778 
L 317.806074 302.141431 
L 319.404689 298.959462 
L 321.003305 302.152595 
L 322.60192 300.073535 
L 324.200536 301.32971 
L 325.799151 302.82569 
L 327.397766 301.484111 
L 328.996382 299.664733 
L 330.594997 301.944665 
L 332.193613 303.861911 
L 333.792228 304.199608 
L 335.390844 305.06611 
L 336.989459 304.924229 
L 338.588074 301.707586 
L 340.18669 301.172105 
L 341.785305 295.589306 
L 343.383921 299.946752 
L 344.982536 299.538485 
L 346.581151 290.275701 
L 348.179767 245.061046 
L 349.778382 175.877331 
L 351.376998 100.29221 
L 352.975613 188.129616 
L 354.574228 223.795837 
L 356.172844 61.923284 
L 357.771459 61.923284 
L 359.370075 76.443018 
L 360.96869 192.273146 
L 362.567306 267.128144 
L 364.165921 290.175801 
L 365.764536 297.562303 
L 367.363152 295.39157 
L 368.961767 299.252222 
L 370.560383 302.460418 
L 372.158998 302.421965 
L 373.757613 303.54489 
L 375.356229 301.400011 
L 376.954844 300.093479 
L 378.55346 296.822677 
L 380.152075 297.936809 
L 381.75069 301.774045 
L 383.349306 303.115979 
L 384.947921 304.03821 
L 386.546537 303.102771 
L 388.145152 303.091116 
L 389.743768 304.524114 
L 391.342383 304.906252 
L 392.940998 301.709418 
L 394.539614 303.975145 
L 397.736845 301.916753 
L 399.33546 301.672077 
L 400.934075 303.124275 
L 402.532691 304.317853 
L 404.131306 303.839615 
L 405.729922 300.885081 
L 407.328537 304.685075 
L 408.927152 303.227334 
L 410.525768 303.019922 
L 412.124383 301.848841 
L 413.722999 301.434075 
L 416.92023 303.459085 
L 418.518845 304.087346 
L 420.11746 303.190726 
L 421.716076 303.349291 
L 423.314691 301.190091 
L 424.913307 300.724191 
L 426.511922 299.30487 
L 428.110537 302.284275 
L 429.709153 302.669105 
L 431.307768 302.042787 
L 432.906384 298.516523 
L 434.504999 298.9341 
L 436.103615 297.896913 
L 437.70223 299.671309 
L 439.300845 303.410299 
L 440.899461 301.592644 
L 442.498076 302.818645 
L 444.096692 301.470671 
L 445.695307 300.369392 
L 447.293922 303.164343 
L 448.892538 303.677779 
L 450.491153 298.888965 
L 452.089769 298.949321 
L 453.688384 298.464085 
L 455.286999 296.098037 
L 456.885615 298.785342 
L 458.48423 300.047685 
L 460.082846 299.603095 
L 461.681461 303.246609 
L 463.280077 302.778527 
L 464.878692 304.881173 
L 466.477307 301.649967 
L 468.075923 302.560093 
L 469.674538 302.980411 
L 471.273154 303.702506 
L 472.871769 305.336126 
L 474.470384 304.103893 
L 476.069 301.565237 
L 477.667615 303.166567 
L 479.266231 304.202946 
L 480.864846 303.518436 
L 482.463461 304.951855 
L 484.062077 304.7125 
L 485.660692 301.039548 
L 487.259308 300.04098 
L 488.857923 305.231103 
L 490.456539 304.916457 
L 492.055154 305.056723 
L 493.653769 303.46176 
L 495.252385 300.632079 
L 496.851 304.689949 
L 498.449616 301.212412 
L 500.048231 298.385183 
L 501.646846 297.484006 
L 503.245462 297.376581 
L 504.844077 300.607866 
L 506.442693 296.799831 
L 508.041308 299.370614 
L 509.639923 300.433242 
L 511.238539 299.13458 
L 512.837154 299.163051 
L 514.43577 296.60278 
L 516.034385 298.573288 
L 517.633001 300.959726 
L 519.231616 303.80267 
L 520.830231 305.430853 
L 524.027462 302.422417 
L 525.626078 301.231946 
L 527.224693 304.37866 
L 528.823308 305.025308 
L 530.421924 301.909867 
L 532.020539 298.280334 
L 533.619155 299.337088 
L 535.21777 304.500279 
L 536.816385 304.516125 
L 538.415001 300.708807 
L 540.013616 295.116272 
L 543.210847 304.017985 
L 544.809463 305.843966 
L 546.408078 305.551023 
L 548.006693 302.008649 
L 549.605309 299.817684 
L 551.203924 301.813681 
L 552.80254 297.887838 
L 554.401155 300.796151 
L 555.99977 300.90983 
L 557.598386 299.932849 
L 559.197001 301.339334 
L 560.795617 301.215772 
L 562.394232 302.296698 
L 563.992848 300.492314 
L 565.591463 300.634756 
L 567.190078 300.457389 
L 568.788694 302.309801 
L 570.387309 304.762462 
L 571.985925 302.9801 
L 573.58454 299.104035 
L 575.183155 299.561501 
L 576.781771 300.643178 
L 578.380386 304.258121 
L 579.979002 304.306921 
L 581.577617 301.915932 
L 583.176232 301.299877 
L 584.774848 298.030901 
L 586.373463 300.79949 
L 587.972079 305.843966 
L 589.570694 303.270019 
L 591.16931 302.142621 
L 594.36654 301.731708 
L 595.965156 300.321822 
L 597.563771 301.256334 
L 599.162387 300.952958 
L 600.761002 302.773705 
L 602.359617 302.268176 
L 603.958233 303.804294 
L 605.556848 293.067245 
L 607.155464 293.48005 
L 608.754079 294.505017 
L 610.352694 298.91508 
L 611.95131 302.116419 
L 613.549925 299.319285 
L 615.148541 301.906601 
L 616.747156 303.368368 
L 618.345772 300.51514 
L 619.944387 296.999308 
L 621.543002 299.393628 
L 623.141618 298.185137 
L 624.740233 301.56357 
L 626.338849 301.455392 
L 627.937464 301.136547 
L 629.536079 298.675151 
L 631.134695 302.572677 
L 632.73331 302.885954 
L 634.331926 300.284035 
L 635.930541 300.050895 
L 637.529156 297.979249 
L 639.127772 301.229577 
L 640.726387 303.79753 
L 642.325003 301.824728 
L 643.923618 302.949085 
L 645.522234 305.309226 
L 647.120849 302.828519 
L 648.719464 299.838256 
L 650.31808 300.428957 
L 651.916695 304.340971 
L 653.515311 302.623002 
L 656.712541 300.318212 
L 658.311157 297.167311 
L 659.909772 295.158004 
L 661.508388 291.032661 
L 663.107003 266.326508 
L 664.705619 208.998833 
L 666.304234 164.150431 
L 667.902849 67.058841 
L 669.501465 61.923284 
L 671.10008 61.923284 
L 672.698696 129.357222 
L 674.297311 164.852895 
L 675.895926 120.195259 
L 677.494542 102.846764 
L 679.093157 68.85607 
L 680.691773 241.04535 
L 682.290388 105.927519 
L 683.889003 61.923284 
L 685.487619 61.923284 
L 687.086234 170.420429 
L 688.68485 262.496109 
L 690.283465 286.37737 
L 691.882081 287.523154 
L 693.480696 293.154478 
L 695.079311 301.049065 
L 696.677927 300.539023 
L 698.276542 297.741781 
L 699.875158 296.438832 
L 701.473773 302.859532 
L 703.072388 299.740436 
L 704.671004 300.187537 
L 706.269619 302.306811 
L 707.868235 303.25585 
L 709.46685 301.585771 
L 711.065465 300.668816 
L 712.664081 299.427075 
L 714.262696 302.9894 
L 715.861312 305.190323 
L 719.058543 299.917906 
L 720.657158 298.731971 
L 722.255773 298.231806 
L 723.854389 302.775946 
L 725.453004 303.501798 
L 727.05162 299.396799 
L 728.650235 298.104761 
L 730.24885 298.178128 
L 731.847466 302.289282 
L 733.446081 303.346254 
L 735.044697 297.845187 
L 736.643312 299.140864 
L 738.241927 304.851754 
L 739.840543 300.97664 
L 741.439158 302.459312 
L 743.037774 300.71217 
L 744.636389 300.181259 
L 746.235005 297.823272 
L 747.83362 302.711158 
L 749.432235 301.389914 
L 751.030851 301.521188 
L 752.629466 304.120999 
L 754.228082 300.053681 
L 755.826697 300.456595 
L 757.425312 297.645002 
L 759.023928 301.867113 
L 760.622543 303.226298 
L 762.221159 302.123809 
L 763.819774 304.0215 
L 765.41839 303.162588 
L 767.017005 300.618353 
L 768.61562 297.455903 
L 770.214236 299.266634 
L 771.812851 298.427344 
L 773.411467 298.969857 
L 775.010082 302.775973 
L 776.608697 302.769962 
L 778.207313 305.843966 
L 779.805928 302.521428 
L 781.404544 302.340017 
L 783.003159 301.626834 
L 784.601774 303.593268 
L 786.20039 301.915917 
L 787.799005 303.241816 
L 789.397621 300.664912 
L 790.996236 300.793517 
L 792.594852 299.107679 
L 794.193467 302.835744 
L 795.792082 303.172001 
L 797.390698 303.651112 
L 798.989313 300.710392 
L 800.587929 303.169999 
L 802.186544 303.599721 
L 803.785159 300.793157 
L 805.383775 300.776646 
L 806.98239 303.490964 
L 808.581006 304.455402 
L 810.179621 303.351507 
L 811.778236 298.660928 
L 813.376852 299.772604 
L 814.975467 301.943554 
L 816.574083 301.503159 
L 818.172698 302.379922 
L 819.771314 300.131178 
L 821.369929 304.561961 
L 822.968544 304.168102 
L 824.56716 302.624649 
L 826.165775 300.05175 
L 827.764391 300.212596 
L 829.363006 296.904912 
L 830.961621 296.629106 
L 832.560237 290.736492 
L 834.158852 277.26909 
L 835.757468 261.862006 
L 840.553314 86.153516 
L 842.151929 61.923284 
L 843.750545 132.201204 
L 845.34916 281.32515 
L 846.947776 291.952859 
L 848.546391 286.134654 
L 850.145006 295.10148 
L 851.743622 298.799924 
L 853.342237 296.540309 
L 854.940853 295.891158 
L 856.539468 294.359098 
L 858.138083 296.864319 
L 859.736699 300.776069 
L 861.335314 303.732417 
L 862.93393 302.559151 
L 864.532545 303.445309 
L 866.131161 301.607963 
L 867.729776 300.172519 
L 869.328391 301.241334 
L 870.927007 300.688911 
L 872.525622 302.823907 
L 874.124238 299.71203 
L 875.722853 299.238249 
L 877.321468 303.252183 
L 880.518699 305.167438 
L 882.117315 303.853804 
L 883.71593 303.773466 
L 885.314545 305.843966 
L 885.314545 305.843966 
" clip-path="url(#pd1bfb9613a)" style="fill: none; stroke: #2ca02c; stroke-width: 1.2; stroke-linecap: square"/>
   </g>
   <g id="line2d_14">
    <path d="M 87.605455 304.29398 
L 89.20407 304.051619 
L 90.802685 304.191631 
L 92.401301 304.109753 
L 93.999916 303.371206 
L 95.598532 303.250025 
L 97.197147 304.78689 
L 98.795762 305.114405 
L 100.394378 304.156423 
L 101.992993 304.081095 
L 103.591609 304.474113 
L 105.190224 304.330007 
L 106.788839 303.821539 
L 109.98607 304.571549 
L 111.584686 304.542073 
L 114.781917 304.089283 
L 119.577763 303.538239 
L 121.176378 303.626668 
L 122.774994 303.978747 
L 124.373609 304.019686 
L 125.972224 303.277864 
L 127.57084 302.866832 
L 129.169455 303.091999 
L 130.768071 303.521044 
L 132.366686 303.218911 
L 133.965302 302.631022 
L 135.563917 302.947074 
L 138.761148 302.316607 
L 140.359763 302.585169 
L 141.958379 302.634297 
L 143.556994 302.234728 
L 145.155609 301.980904 
L 146.754225 301.237444 
L 148.35284 300.005987 
L 149.951456 298.224305 
L 151.550071 297.390779 
L 153.148686 299.365695 
L 154.747302 296.124933 
L 156.345917 295.699163 
L 157.944533 297.821461 
L 159.543148 297.159881 
L 161.141764 296.668608 
L 162.740379 297.186082 
L 164.338994 295.20134 
L 165.93761 290.727482 
L 167.536225 282.808166 
L 169.134841 261.991301 
L 170.733456 237.670024 
L 172.332071 239.94953 
L 173.930687 249.873239 
L 175.529302 274.292771 
L 177.127918 291.140152 
L 178.726533 298.345485 
L 180.325148 301.366813 
L 181.923764 302.49019 
L 183.522379 302.311694 
L 185.120995 301.532208 
L 186.71961 301.599349 
L 188.318226 302.627746 
L 189.916841 303.282777 
L 191.515456 302.719451 
L 193.114072 304.306262 
L 194.712687 304.142504 
L 196.311303 302.418137 
L 199.508533 303.297515 
L 201.107149 302.691612 
L 202.705764 301.884287 
L 205.902995 303.707728 
L 207.50161 302.916779 
L 209.100226 302.549143 
L 210.698841 302.92251 
L 212.297457 302.791504 
L 213.896072 301.501094 
L 215.494688 299.606419 
L 217.093303 299.838955 
L 218.691918 299.467225 
L 220.290534 301.055674 
L 221.889149 303.071529 
L 223.487765 304.709105 
L 225.08638 305.078379 
L 226.684995 305.238861 
L 228.283611 304.926084 
L 229.882226 303.999216 
L 231.480842 303.44244 
L 233.079457 303.398226 
L 234.678073 303.912425 
L 236.276688 304.146598 
L 237.875303 303.965646 
L 239.473919 304.186719 
L 241.072534 304.130222 
L 242.67115 303.848559 
L 244.269765 303.710184 
L 245.86838 304.068813 
L 247.466996 304.303805 
L 249.065611 303.98284 
L 252.262842 303.622574 
L 253.861457 304.132679 
L 255.460073 304.28006 
L 257.058688 303.630762 
L 258.657304 303.650413 
L 260.255919 305.296176 
L 261.854535 305.145519 
L 263.45315 304.245671 
L 265.051765 303.765862 
L 266.650381 303.679889 
L 268.248996 303.719191 
L 269.847612 303.877217 
L 271.446227 304.396328 
L 273.044842 304.397966 
L 274.643458 303.911606 
L 276.242073 303.652869 
L 277.840689 303.823177 
L 279.439304 303.747848 
L 281.037919 303.99021 
L 282.636535 304.352933 
L 285.833766 304.229296 
L 287.432381 305.000594 
L 289.030997 305.369867 
L 290.629612 303.786331 
L 292.228227 302.611371 
L 293.826843 301.641926 
L 295.425458 301.725442 
L 297.024074 301.587886 
L 298.622689 302.421412 
L 300.221304 302.935611 
L 303.418535 304.63869 
L 305.017151 305.843966 
L 306.615766 305.318693 
L 308.214381 304.09092 
L 309.812997 304.975211 
L 311.411612 305.181546 
L 313.010228 303.756855 
L 314.608843 303.245931 
L 317.806074 304.703374 
L 321.003305 303.516131 
L 322.60192 303.581634 
L 324.200536 303.887042 
L 325.799151 304.026236 
L 328.996382 304.103202 
L 330.594997 303.824814 
L 332.193613 303.7937 
L 333.792228 304.108115 
L 335.390844 303.67907 
L 336.989459 303.073167 
L 338.588074 303.36138 
L 340.18669 303.473554 
L 341.785305 302.047226 
L 343.383921 299.786552 
L 344.982536 295.767941 
L 346.581151 280.626914 
L 348.179767 239.622014 
L 349.778382 183.603819 
L 351.376998 116.161893 
L 352.975613 176.817704 
L 354.574228 214.547452 
L 356.172844 68.842501 
L 357.771459 61.923284 
L 359.370075 61.923284 
L 360.96869 200.438099 
L 362.567306 269.5176 
L 364.165921 284.478493 
L 365.764536 295.001556 
L 367.363152 298.289808 
L 368.961767 299.974873 
L 370.560383 301.006546 
L 372.158998 301.813871 
L 373.757613 302.242916 
L 375.356229 302.316607 
L 378.55346 302.030031 
L 380.152075 301.990729 
L 383.349306 304.379953 
L 386.546537 304.686179 
L 388.145152 303.851016 
L 389.743768 302.796417 
L 392.940998 303.42934 
L 396.138229 303.555433 
L 397.736845 303.366293 
L 399.33546 303.061704 
L 400.934075 303.113288 
L 402.532691 303.409689 
L 404.131306 303.555433 
L 407.328537 303.42934 
L 408.927152 303.144402 
L 413.722999 303.063342 
L 415.321614 303.528413 
L 416.92023 304.194088 
L 418.518845 304.100746 
L 420.11746 304.867131 
L 421.716076 304.177712 
L 423.314691 301.764744 
L 424.913307 302.26748 
L 426.511922 302.889759 
L 428.110537 302.043132 
L 429.709153 302.637572 
L 431.307768 302.958537 
L 432.906384 302.418137 
L 434.504999 302.378835 
L 436.103615 302.522942 
L 437.70223 303.238562 
L 439.300845 303.346642 
L 440.899461 302.791504 
L 442.498076 302.950349 
L 444.096692 303.29424 
L 445.695307 302.80788 
L 447.293922 302.650672 
L 450.491153 303.200898 
L 452.089769 303.014214 
L 453.688384 301.46343 
L 455.286999 300.945956 
L 456.885615 301.486356 
L 460.082846 303.879673 
L 461.681461 304.036062 
L 463.280077 303.259851 
L 468.075923 303.473554 
L 469.674538 303.448991 
L 472.871769 305.013694 
L 474.470384 304.311174 
L 476.069 304.224383 
L 477.667615 305.117681 
L 479.266231 305.373142 
L 480.864846 304.622314 
L 482.463461 303.608654 
L 485.660692 303.223005 
L 487.259308 302.693249 
L 488.857923 302.555693 
L 490.456539 302.784954 
L 492.055154 303.171422 
L 493.653769 302.794779 
L 495.252385 302.631022 
L 496.851 302.726001 
L 498.449616 301.153928 
L 500.048231 299.380433 
L 501.646846 295.594358 
L 503.245462 293.927306 
L 504.844077 298.591122 
L 506.442693 296.344368 
L 508.041308 296.668608 
L 509.639923 297.326913 
L 511.238539 298.43719 
L 512.837154 299.847143 
L 514.43577 299.850418 
L 516.034385 300.076403 
L 517.633001 302.244554 
L 519.231616 305.405894 
L 520.830231 304.839293 
L 522.428847 303.565259 
L 524.027462 304.256316 
L 525.626078 304.642784 
L 527.224693 305.448471 
L 528.823308 305.520524 
L 530.421924 304.803266 
L 532.020539 303.872304 
L 533.619155 302.739102 
L 535.21777 303.621755 
L 536.816385 304.725481 
L 540.013616 302.943799 
L 541.612232 303.262307 
L 543.210847 304.44955 
L 544.809463 305.843966 
L 546.408078 304.425395 
L 548.006693 303.286871 
L 549.605309 303.884586 
L 551.203924 303.548064 
L 552.80254 302.218352 
L 554.401155 302.693249 
L 555.99977 302.758752 
L 557.598386 302.272392 
L 559.197001 301.944877 
L 562.394232 303.130482 
L 563.992848 302.138111 
L 565.591463 302.472177 
L 567.190078 303.290146 
L 568.788694 303.160777 
L 570.387309 302.357546 
L 571.985925 302.036582 
L 573.58454 302.136474 
L 575.183155 302.578619 
L 576.781771 303.27377 
L 579.979002 303.623393 
L 581.577617 303.965646 
L 583.176232 303.940263 
L 584.774848 303.769956 
L 586.373463 304.121216 
L 587.972079 305.596671 
L 589.570694 305.157801 
L 591.16931 303.195985 
L 592.767925 301.730355 
L 594.36654 302.575344 
L 595.965156 302.840631 
L 597.563771 302.827531 
L 599.162387 303.262307 
L 600.761002 303.453903 
L 602.359617 302.988013 
L 605.556848 301.468343 
L 607.155464 301.792583 
L 608.754079 301.181767 
L 610.352694 302.092259 
L 611.95131 304.808179 
L 613.549925 304.046706 
L 615.148541 302.670323 
L 616.747156 302.395211 
L 618.345772 302.421412 
L 619.944387 302.657223 
L 623.141618 302.513116 
L 624.740233 302.365734 
L 626.338849 302.084071 
L 627.937464 302.378835 
L 629.536079 302.49674 
L 631.134695 303.73966 
L 632.73331 305.423088 
L 634.331926 304.628864 
L 635.930541 303.14522 
L 637.529156 302.960174 
L 639.127772 303.323716 
L 640.726387 303.520225 
L 642.325003 303.114106 
L 645.522234 305.843966 
L 647.120849 305.780899 
L 648.719464 304.480664 
L 651.916695 302.867651 
L 653.515311 302.770216 
L 655.113926 302.406674 
L 656.712541 301.353712 
L 658.311157 299.35587 
L 659.909772 295.217716 
L 661.508388 289.898869 
L 663.107003 276.578827 
L 664.705619 248.504226 
L 667.902849 155.096898 
L 669.501465 61.923284 
L 671.10008 61.923284 
L 672.698696 93.943264 
L 674.297311 69.628537 
L 675.895926 109.139968 
L 677.494542 93.628849 
L 679.093157 93.995666 
L 680.691773 216.826958 
L 682.290388 119.253637 
L 683.889003 61.923284 
L 685.487619 99.104903 
L 688.68485 261.657235 
L 690.283465 288.120462 
L 691.882081 294.683866 
L 693.480696 296.799614 
L 695.079311 299.182287 
L 696.677927 300.679031 
L 703.072388 301.697603 
L 704.671004 301.473255 
L 706.269619 301.751643 
L 707.868235 301.756556 
L 712.664081 301.371726 
L 714.262696 301.78112 
L 715.861312 301.820421 
L 717.459927 301.620637 
L 719.058543 301.600986 
L 720.657158 301.971078 
L 722.255773 302.134836 
L 723.854389 302.128286 
L 725.453004 302.53768 
L 727.05162 302.80788 
L 728.650235 302.788229 
L 731.847466 302.095534 
L 733.446081 302.11846 
L 735.044697 301.859723 
L 736.643312 302.349359 
L 738.241927 302.329708 
L 743.037774 301.489631 
L 746.235005 301.25382 
L 747.83362 301.417578 
L 749.432235 301.99728 
L 752.629466 302.062783 
L 755.826697 302.663773 
L 759.023928 303.608654 
L 760.622543 303.489111 
L 762.221159 303.76668 
L 765.41839 304.019686 
L 768.61562 303.471917 
L 770.214236 303.396588 
L 771.812851 303.434253 
L 773.411467 303.355649 
L 776.608697 303.823177 
L 779.805928 304.211282 
L 781.404544 303.955002 
L 783.003159 303.565259 
L 784.601774 303.393313 
L 786.20039 303.452266 
L 787.799005 303.633218 
L 789.397621 303.371206 
L 794.193467 303.525957 
L 797.390698 303.382669 
L 798.989313 302.794779 
L 800.587929 302.783316 
L 802.186544 303.41542 
L 803.785159 303.741298 
L 805.383775 302.955262 
L 808.581006 301.915401 
L 810.179621 301.072049 
L 811.778236 301.013097 
L 813.376852 300.715058 
L 814.975467 301.088425 
L 816.574083 301.651751 
L 818.172698 301.900663 
L 819.771314 302.329708 
L 821.369929 302.991288 
L 822.968544 303.460454 
L 824.56716 301.834341 
L 827.764391 298.974315 
L 829.363006 296.445897 
L 830.961621 293.059391 
L 832.560237 285.06802 
L 834.158852 258.290379 
L 835.757468 238.600167 
L 837.356083 183.787227 
L 838.954698 112.598528 
L 840.553314 61.923284 
L 842.151929 61.923284 
L 843.750545 119.096429 
L 845.34916 249.630878 
L 846.947776 278.465314 
L 848.546391 279.67712 
L 850.145006 290.196908 
L 853.342237 297.539798 
L 854.940853 298.820382 
L 856.539468 300.248349 
L 858.138083 302.168406 
L 859.736699 303.737204 
L 861.335314 305.058728 
L 862.93393 305.438645 
L 864.532545 305.470578 
L 866.131161 304.998956 
L 867.729776 304.268597 
L 869.328391 304.21292 
L 870.927007 304.741038 
L 872.525622 304.628045 
L 874.124238 303.924707 
L 875.722853 303.872304 
L 877.321468 303.965646 
L 878.920084 304.178531 
L 880.518699 304.072907 
L 882.117315 303.193529 
L 883.71593 302.177413 
L 885.314545 300.670843 
L 885.314545 300.670843 
" clip-path="url(#pd1bfb9613a)" style="fill: none; stroke: #000000; stroke-width: 1.2; stroke-linecap: square"/>
   </g>
   <g id="line2d_15">
    <path d="M 87.605455 270.46019 
L 89.20407 270.931679 
L 92.401301 270.511972 
L 93.999916 261.604479 
L 95.598532 262.987754 
L 97.197147 246.786779 
L 98.795762 242.193454 
L 100.394378 244.69065 
L 101.992993 259.528387 
L 103.591609 247.754966 
L 105.190224 251.136918 
L 106.788839 251.645794 
L 108.387455 257.089872 
L 109.98607 256.778892 
L 111.584686 252.680276 
L 113.183301 245.900713 
L 114.781917 251.361864 
L 116.380532 267.297113 
L 117.979147 273.38328 
L 119.577763 277.590606 
L 121.176378 280.874647 
L 122.774994 265.868779 
L 124.373609 261.34981 
L 125.972224 250.759516 
L 127.57084 250.178888 
L 129.169455 272.734389 
L 130.768071 274.859015 
L 132.366686 248.974506 
L 133.965302 254.356291 
L 135.563917 268.239648 
L 137.162532 234.912659 
L 138.761148 253.579521 
L 140.359763 256.250428 
L 141.958379 260.204767 
L 143.556994 256.486795 
L 145.155609 244.431309 
L 146.754225 240.54266 
L 148.35284 262.303583 
L 149.951456 259.646092 
L 151.550071 251.645998 
L 153.148686 247.876145 
L 154.747302 248.384968 
L 156.345917 268.163012 
L 157.944533 278.956074 
L 159.543148 263.281981 
L 162.740379 248.65399 
L 164.338994 240.884876 
L 165.93761 246.166667 
L 167.536225 242.370937 
L 169.134841 250.124068 
L 170.733456 241.373216 
L 172.332071 219.639442 
L 173.930687 267.858771 
L 175.529302 260.370212 
L 177.127918 260.961868 
L 178.726533 248.626572 
L 180.325148 258.491878 
L 181.923764 263.894997 
L 183.522379 264.807382 
L 185.120995 273.543458 
L 186.71961 263.039457 
L 188.318226 266.828456 
L 189.916841 267.407762 
L 191.515456 270.332124 
L 193.114072 270.559646 
L 194.712687 290.328424 
L 196.311303 257.728919 
L 197.909918 273.793465 
L 199.508533 277.941843 
L 201.107149 288.728242 
L 202.705764 282.025483 
L 204.30438 267.162465 
L 205.902995 272.750278 
L 207.50161 283.982394 
L 209.100226 276.535742 
L 210.698841 277.029186 
L 212.297457 275.010469 
L 213.896072 266.236654 
L 215.494688 276.102003 
L 217.093303 222.207422 
L 218.691918 262.706071 
L 220.290534 279.262567 
L 221.889149 287.537966 
L 223.487765 281.405198 
L 225.08638 281.650051 
L 226.684995 279.453666 
L 228.283611 283.627578 
L 229.882226 276.68893 
L 231.480842 285.983029 
L 233.079457 281.329961 
L 234.678073 277.317915 
L 236.276688 286.907618 
L 237.875303 283.427593 
L 239.473919 290.100164 
L 241.072534 295.415 
L 242.67115 289.990358 
L 244.269765 278.370013 
L 245.86838 288.103623 
L 247.466996 289.129175 
L 249.065611 270.836289 
L 250.664227 262.661509 
L 252.262842 253.38352 
L 253.861457 277.75472 
L 255.460073 272.098248 
L 257.058688 289.963098 
L 258.657304 281.660304 
L 260.255919 275.700028 
L 261.854535 267.798896 
L 263.45315 262.446543 
L 265.051765 272.2189 
L 266.650381 278.345796 
L 268.248996 269.279778 
L 269.847612 275.617406 
L 271.446227 281.480451 
L 273.044842 264.449714 
L 274.643458 259.474835 
L 276.242073 269.672824 
L 277.840689 275.340033 
L 279.439304 263.192539 
L 281.037919 273.726602 
L 282.636535 266.519988 
L 284.23515 275.179257 
L 285.833766 271.150752 
L 287.432381 260.593763 
L 289.030997 270.355707 
L 290.629612 266.49392 
L 292.228227 249.169026 
L 293.826843 251.920291 
L 295.425458 222.363569 
L 297.024074 273.889866 
L 298.622689 248.136015 
L 300.221304 262.454936 
L 301.81992 234.02016 
L 303.418535 251.425249 
L 305.017151 252.516917 
L 306.615766 246.882796 
L 308.214381 265.257991 
L 309.812997 244.094913 
L 311.411612 241.458386 
L 313.010228 258.033907 
L 314.608843 264.165337 
L 316.207459 238.745059 
L 317.806074 261.293678 
L 319.404689 258.550209 
L 321.003305 270.7191 
L 322.60192 248.109004 
L 324.200536 271.468651 
L 325.799151 276.671934 
L 327.397766 250.309849 
L 328.996382 235.743223 
L 330.594997 237.524004 
L 332.193613 261.803713 
L 333.792228 236.635062 
L 335.390844 264.187936 
L 336.989459 274.450419 
L 338.588074 253.453591 
L 340.18669 238.970563 
L 341.785305 262.90784 
L 343.383921 233.098 
L 344.982536 291.64729 
L 346.581151 303.43266 
L 348.179767 303.15135 
L 349.778382 285.900438 
L 351.376998 220.296194 
L 352.975613 134.713214 
L 354.574228 61.923284 
L 356.172844 215.9583 
L 357.771459 104.749348 
L 359.370075 222.843843 
L 360.96869 61.923284 
L 362.567306 234.949484 
L 364.165921 286.7604 
L 365.764536 288.120288 
L 367.363152 211.803778 
L 368.961767 263.431277 
L 370.560383 240.865916 
L 372.158998 286.498161 
L 373.757613 203.478171 
L 375.356229 236.463439 
L 376.954844 210.194491 
L 378.55346 274.710559 
L 380.152075 222.756221 
L 381.75069 264.766942 
L 383.349306 190.473506 
L 384.947921 281.268328 
L 386.546537 283.497936 
L 388.145152 280.683104 
L 389.743768 237.142118 
L 391.342383 239.052421 
L 392.940998 214.269823 
L 394.539614 239.005077 
L 396.138229 211.074984 
L 397.736845 277.161666 
L 399.33546 248.464695 
L 400.934075 279.542714 
L 402.532691 269.254375 
L 404.131306 298.943556 
L 405.729922 304.745798 
L 407.328537 305.843966 
M 432.906384 305.843966 
L 434.504999 305.376611 
L 436.103615 285.466474 
L 437.70223 292.367691 
L 439.300845 219.685763 
L 440.899461 283.815506 
L 442.498076 270.325024 
L 444.096692 281.14236 
L 445.695307 255.337177 
L 447.293922 302.106494 
L 448.892538 303.494541 
L 450.491153 265.565192 
L 452.089769 282.785164 
L 453.688384 305.739533 
L 456.885615 305.843966 
L 458.48423 305.123698 
L 460.082846 303.153608 
L 461.681461 275.827368 
L 463.280077 300.880528 
L 464.878692 305.781967 
L 466.477307 288.443534 
L 468.075923 286.941165 
L 469.674538 293.380845 
L 471.273154 303.005985 
L 472.871769 304.149944 
L 474.470384 283.01017 
L 476.069 305.843966 
L 477.667615 297.101231 
L 479.266231 286.136978 
L 480.864846 305.798902 
L 482.463461 290.320969 
L 484.062077 285.152164 
L 485.660692 265.838304 
L 487.259308 290.600017 
L 488.857923 285.573787 
L 490.456539 292.087579 
L 492.055154 290.369746 
L 493.653769 266.592622 
L 495.252385 286.370548 
L 496.851 304.142088 
L 498.449616 298.296878 
L 500.048231 284.495282 
L 501.646846 301.009515 
L 503.245462 282.685249 
L 504.844077 293.902491 
L 506.442693 296.446764 
L 508.041308 283.617283 
L 509.639923 255.745495 
L 511.238539 282.972369 
L 512.837154 266.239036 
L 514.43577 300.886757 
L 516.034385 292.147857 
L 517.633001 274.795353 
L 519.231616 294.112843 
L 520.830231 297.021849 
L 522.428847 282.256939 
L 524.027462 301.483601 
L 525.626078 305.010682 
L 527.224693 300.496826 
L 528.823308 300.357953 
L 530.421924 283.036638 
L 532.020539 283.965091 
L 533.619155 267.765571 
L 535.21777 296.602349 
L 536.816385 294.806229 
L 538.415001 305.669613 
L 541.612232 272.143774 
L 543.210847 274.86698 
L 544.809463 265.454649 
L 546.408078 265.355519 
L 548.006693 265.896004 
L 549.605309 269.136774 
L 551.203924 249.413946 
L 552.80254 246.67138 
L 554.401155 268.981628 
L 555.99977 249.986637 
L 557.598386 235.253453 
L 559.197001 261.641768 
L 560.795617 247.633788 
L 562.394232 274.049282 
L 563.992848 260.76069 
L 565.591463 274.75972 
L 567.190078 249.268637 
L 568.788694 262.266217 
L 570.387309 238.902561 
L 571.985925 232.194597 
L 573.58454 253.336877 
L 575.183155 191.828769 
L 576.781771 280.916992 
L 578.380386 205.167623 
L 579.979002 262.324253 
L 581.577617 248.555985 
L 583.176232 259.36731 
L 584.774848 252.287833 
L 586.373463 263.381474 
L 587.972079 278.372694 
L 589.570694 261.24991 
L 591.16931 276.179173 
L 592.767925 274.749681 
L 594.36654 232.581248 
L 595.965156 255.335797 
L 597.563771 276.107703 
L 599.162387 274.812851 
L 600.761002 264.315609 
L 602.359617 238.459492 
L 603.958233 232.500069 
L 605.556848 224.853487 
L 607.155464 243.889201 
L 608.754079 218.511622 
L 610.352694 268.03557 
L 611.95131 261.538002 
L 613.549925 265.452226 
L 615.148541 261.461424 
L 616.747156 265.512589 
L 618.345772 260.516784 
L 619.944387 266.403422 
L 621.543002 273.747373 
L 623.141618 264.606005 
L 624.740233 276.25751 
L 626.338849 269.469831 
L 627.937464 271.08094 
L 629.536079 264.515432 
L 631.134695 263.368869 
L 632.73331 273.273812 
L 634.331926 271.057803 
L 635.930541 270.768762 
L 637.529156 261.404456 
L 639.127772 245.290709 
L 640.726387 223.781881 
L 642.325003 259.762486 
L 643.923618 272.850979 
L 645.522234 260.950524 
L 647.120849 234.180639 
L 648.719464 249.733319 
L 650.31808 269.962717 
L 651.916695 276.691203 
L 653.515311 278.229599 
L 655.113926 258.153966 
L 656.712541 265.362941 
L 658.311157 250.237432 
L 659.909772 251.680492 
L 661.508388 236.667545 
L 663.107003 215.522874 
L 664.705619 224.34509 
L 667.902849 171.341492 
L 669.501465 194.487546 
L 671.10008 198.702037 
L 672.698696 123.208295 
L 674.297311 61.923284 
L 675.895926 61.923284 
L 677.494542 168.656298 
L 679.093157 225.075733 
L 680.691773 61.923284 
L 682.290388 90.503926 
L 683.889003 177.484242 
L 685.487619 236.391143 
L 687.086234 237.675421 
L 688.68485 255.511141 
L 690.283465 255.005145 
L 691.882081 259.832093 
L 693.480696 268.648227 
L 695.079311 257.59233 
L 696.677927 255.14007 
L 698.276542 250.734844 
L 699.875158 254.238924 
L 701.473773 230.722119 
L 703.072388 253.459853 
L 704.671004 242.231876 
L 706.269619 244.817758 
L 707.868235 240.527637 
L 709.46685 224.083519 
L 711.065465 261.57597 
L 712.664081 242.757905 
L 714.262696 271.159403 
L 715.861312 259.976407 
L 717.459927 242.724679 
L 719.058543 252.785265 
L 720.657158 266.168635 
L 722.255773 263.736757 
L 723.854389 259.976177 
L 725.453004 254.607507 
L 727.05162 268.490559 
L 728.650235 266.78494 
L 730.24885 273.017811 
L 731.847466 247.360966 
L 733.446081 235.357545 
L 735.044697 261.712921 
L 736.643312 253.265514 
L 738.241927 267.925291 
L 739.840543 242.448273 
L 741.439158 250.587292 
L 743.037774 266.851877 
L 744.636389 260.236677 
L 746.235005 248.309743 
L 747.83362 259.645506 
L 749.432235 253.309952 
L 751.030851 270.177202 
L 752.629466 263.881188 
L 754.228082 282.214236 
L 755.826697 246.749805 
L 757.425312 266.741115 
L 759.023928 263.842125 
L 760.622543 251.046949 
L 762.221159 259.544869 
L 763.819774 250.560943 
L 765.41839 252.974195 
L 767.017005 248.10379 
L 768.61562 275.488128 
L 770.214236 261.892978 
L 771.812851 263.396384 
L 773.411467 262.699652 
L 775.010082 258.229787 
L 776.608697 246.345129 
L 778.207313 250.427268 
L 779.805928 226.56418 
L 781.404544 261.700533 
L 783.003159 249.746862 
L 784.601774 266.452751 
L 786.20039 260.12112 
L 787.799005 265.153533 
L 789.397621 270.662462 
L 790.996236 266.898299 
L 792.594852 264.527434 
L 794.193467 272.903678 
L 795.792082 243.787247 
L 797.390698 257.490853 
L 798.989313 257.722055 
L 800.587929 256.789724 
L 802.186544 268.048111 
L 803.785159 270.779927 
L 805.383775 273.114172 
L 806.98239 271.373424 
L 808.581006 268.401327 
L 810.179621 252.775291 
L 811.778236 201.242958 
L 813.376852 248.53433 
L 814.975467 257.864304 
L 816.574083 260.282285 
L 818.172698 259.919146 
L 819.771314 271.094695 
L 821.369929 264.126161 
L 822.968544 263.679722 
L 824.56716 275.644227 
L 826.165775 247.832843 
L 827.764391 269.246583 
L 829.363006 254.567708 
L 830.961621 235.986336 
L 832.560237 202.505723 
L 834.158852 217.051251 
L 835.757468 247.528966 
L 837.356083 235.028488 
L 838.954698 185.28166 
L 840.553314 171.066883 
L 842.151929 153.417432 
L 843.750545 71.188324 
L 845.34916 61.923284 
L 846.947776 185.797079 
L 848.546391 256.666866 
L 850.145006 237.086259 
L 851.743622 224.156699 
L 853.342237 218.384932 
L 854.940853 188.864535 
L 856.539468 251.73792 
L 858.138083 247.565035 
L 859.736699 270.444902 
L 862.93393 271.384567 
L 864.532545 272.391449 
L 866.131161 268.975162 
L 867.729776 259.176205 
L 869.328391 274.812736 
L 870.927007 270.271385 
L 872.525622 268.278729 
L 874.124238 253.193977 
L 875.722853 266.687235 
L 877.321468 258.109258 
L 878.920084 272.707513 
L 880.518699 261.658383 
L 882.117315 267.315753 
L 883.71593 270.256024 
L 885.314545 263.399327 
L 885.314545 263.399327 
" clip-path="url(#pd1bfb9613a)" style="fill: none; stroke: #ff7f0e; stroke-width: 1.2; stroke-linecap: square"/>
   </g>
   <g id="line2d_16">
    <path d="M 87.605455 270.840209 
L 89.20407 278.023278 
L 90.802685 268.719625 
L 92.401301 267.674176 
L 93.999916 265.037207 
L 95.598532 246.65703 
L 97.197147 249.185839 
L 98.795762 255.001582 
L 100.394378 240.065358 
L 101.992993 264.764482 
L 103.591609 231.86536 
L 105.190224 248.390273 
L 106.788839 259.597309 
L 108.387455 267.569264 
L 109.98607 268.83224 
L 111.584686 257.43825 
L 113.183301 263.002165 
L 114.781917 267.132793 
L 116.380532 284.951425 
L 117.979147 269.516859 
L 119.577763 283.728083 
L 121.176378 288.674943 
L 122.774994 272.112289 
L 124.373609 273.726446 
L 125.972224 258.343546 
L 127.57084 258.070033 
L 129.169455 274.231404 
L 130.768071 276.171853 
L 132.366686 263.740191 
L 133.965302 249.999578 
L 135.563917 264.110485 
L 137.162532 252.251619 
L 138.761148 256.585234 
L 143.556994 274.567827 
L 145.155609 257.156082 
L 146.754225 263.006212 
L 148.35284 270.026805 
L 149.951456 268.750726 
L 151.550071 253.805066 
L 153.148686 253.464508 
L 154.747302 258.666207 
L 156.345917 272.179447 
L 157.944533 300.500614 
L 159.543148 271.281647 
L 161.141764 267.895968 
L 162.740379 243.389594 
L 164.338994 228.661239 
L 165.93761 236.408323 
L 167.536225 225.904017 
L 169.134841 213.915383 
L 170.733456 157.917978 
L 172.332071 189.157775 
L 173.930687 230.668075 
L 175.529302 255.530561 
L 177.127918 244.822189 
L 178.726533 247.005187 
L 180.325148 258.984245 
L 181.923764 266.972927 
L 183.522379 257.565468 
L 185.120995 251.15963 
L 186.71961 266.084992 
L 188.318226 271.682249 
L 189.916841 268.844561 
L 191.515456 266.878674 
L 193.114072 290.438715 
L 194.712687 289.610018 
L 196.311303 260.113383 
L 197.909918 264.860978 
L 199.508533 283.152972 
L 202.705764 285.730143 
L 204.30438 293.403917 
L 205.902995 277.072347 
L 207.50161 278.7336 
L 209.100226 270.794403 
L 210.698841 264.670441 
L 212.297457 276.881818 
L 213.896072 279.577566 
L 215.494688 274.620651 
L 217.093303 266.398757 
L 218.691918 284.074062 
L 220.290534 260.328127 
L 221.889149 283.480183 
L 223.487765 260.430918 
L 225.08638 275.378175 
L 226.684995 276.819465 
L 228.283611 267.282696 
L 229.882226 270.47804 
L 231.480842 274.961383 
L 233.079457 273.834812 
L 234.678073 267.55404 
L 236.276688 271.964397 
L 237.875303 288.214989 
L 239.473919 288.736203 
L 241.072534 288.053214 
L 242.67115 288.902142 
L 244.269765 279.966948 
L 245.86838 278.250939 
L 247.466996 268.504562 
L 249.065611 277.502849 
L 250.664227 271.425156 
L 252.262842 275.070867 
L 253.861457 290.233817 
L 255.460073 255.649692 
L 257.058688 287.394347 
L 258.657304 284.885686 
L 260.255919 270.928533 
L 261.854535 274.132479 
L 263.45315 274.968024 
L 265.051765 285.929025 
L 266.650381 273.571606 
L 268.248996 263.329849 
L 269.847612 276.987717 
L 271.446227 266.878719 
L 273.044842 271.839964 
L 274.643458 271.302751 
L 276.242073 274.735173 
L 277.840689 267.703379 
L 279.439304 246.217739 
L 281.037919 276.757046 
L 282.636535 259.239521 
L 284.23515 262.381638 
L 285.833766 246.967124 
L 287.432381 252.328601 
L 289.030997 250.860842 
L 290.629612 262.438502 
L 292.228227 260.433637 
L 293.826843 234.479425 
L 295.425458 224.505206 
L 297.024074 264.06705 
L 298.622689 272.677326 
L 300.221304 275.580265 
L 301.81992 255.74519 
L 303.418535 256.105763 
L 305.017151 241.25077 
L 306.615766 250.715613 
L 308.214381 267.636225 
L 309.812997 262.429705 
L 311.411612 262.719549 
L 313.010228 272.472763 
L 314.608843 282.929581 
L 316.207459 240.863281 
L 317.806074 252.658362 
L 319.404689 279.782457 
L 321.003305 261.46336 
L 322.60192 252.166285 
L 324.200536 272.629608 
L 325.799151 266.867154 
L 327.397766 292.94794 
L 328.996382 273.450475 
L 330.594997 284.189747 
L 332.193613 293.793174 
L 333.792228 283.848857 
L 335.390844 294.311497 
L 336.989459 284.691426 
L 338.588074 297.112392 
L 340.18669 287.428993 
L 341.785305 295.145863 
L 343.383921 295.714053 
L 344.982536 300.262437 
L 346.581151 305.843966 
L 348.179767 303.762515 
L 349.778382 286.609582 
L 351.376998 221.737507 
L 352.975613 139.550211 
L 354.574228 139.011494 
L 356.172844 129.53945 
L 357.771459 145.075691 
L 359.370075 138.574638 
L 362.567306 211.58534 
L 364.165921 249.797894 
L 365.764536 285.14747 
L 367.363152 287.123505 
L 368.961767 287.946141 
L 370.560383 285.547392 
L 372.158998 289.583945 
L 373.757613 285.830259 
L 375.356229 279.616116 
L 376.954844 281.257744 
L 378.55346 287.957684 
L 380.152075 300.16431 
L 381.75069 295.223567 
L 383.349306 289.09756 
L 384.947921 298.133302 
L 386.546537 300.317137 
L 388.145152 305.843966 
L 389.743768 284.020095 
L 391.342383 249.438637 
L 392.940998 272.247092 
L 394.539614 279.787929 
L 396.138229 250.347166 
L 397.736845 274.203116 
L 399.33546 255.78066 
L 400.934075 284.18881 
L 402.532691 288.927985 
L 404.131306 274.294681 
L 405.729922 273.303068 
M 434.504999 305.843966 
L 436.103615 301.129901 
L 437.70223 300.361567 
L 439.300845 295.980576 
L 440.899461 303.170128 
L 442.498076 305.737666 
L 444.096692 296.915932 
L 445.695307 303.341321 
L 447.293922 305.843966 
L 448.892538 295.777877 
L 450.491153 295.743609 
L 452.089769 296.168113 
L 453.688384 303.004047 
L 455.286999 305.843966 
L 456.885615 305.843966 
L 458.48423 300.88106 
L 460.082846 300.762024 
L 461.681461 301.124342 
L 463.280077 305.843966 
L 464.878692 305.843966 
L 466.477307 300.491608 
L 468.075923 303.80252 
L 469.674538 302.403343 
L 471.273154 305.843966 
L 472.871769 297.311273 
L 474.470384 294.28676 
L 476.069 305.843966 
L 477.667615 300.33154 
L 479.266231 295.410149 
L 480.864846 302.057564 
L 482.463461 305.843966 
L 484.062077 305.843966 
L 485.660692 304.455666 
L 487.259308 305.843966 
L 488.857923 303.020267 
L 490.456539 297.718104 
L 492.055154 294.670301 
L 493.653769 277.030354 
L 495.252385 295.186337 
L 496.851 287.452789 
L 500.048231 305.843966 
L 501.646846 305.843966 
L 503.245462 289.248835 
L 504.844077 289.623649 
L 506.442693 301.571942 
L 508.041308 294.562677 
L 509.639923 303.661251 
L 511.238539 305.843966 
L 512.837154 298.824884 
L 514.43577 298.451335 
L 516.034385 305.640688 
L 517.633001 305.843966 
L 519.231616 300.85266 
L 520.830231 302.960161 
L 522.428847 296.968782 
L 524.027462 296.738488 
L 525.626078 292.612841 
L 527.224693 297.969001 
L 528.823308 297.226826 
L 530.421924 289.071991 
L 532.020539 297.170516 
L 533.619155 296.513431 
L 535.21777 305.843966 
L 536.816385 299.970194 
L 538.415001 305.826772 
L 540.013616 305.843966 
L 541.612232 283.19325 
L 543.210847 290.40055 
L 544.809463 270.080902 
L 546.408078 276.959378 
L 548.006693 271.686781 
L 549.605309 281.251044 
L 551.203924 265.162705 
L 552.80254 263.708514 
L 554.401155 279.441971 
L 555.99977 270.793223 
L 557.598386 272.991681 
L 559.197001 283.497166 
L 560.795617 271.240474 
L 562.394232 283.28629 
L 563.992848 283.427046 
L 565.591463 292.519086 
L 567.190078 294.728523 
L 568.788694 274.30465 
L 570.387309 279.403185 
L 571.985925 270.249295 
L 575.183155 244.124639 
L 576.781771 255.892223 
L 578.380386 222.076446 
L 579.979002 238.754462 
L 581.577617 239.742299 
L 583.176232 258.229094 
L 584.774848 264.409559 
L 586.373463 255.275923 
L 587.972079 254.001982 
L 589.570694 260.59562 
L 591.16931 266.465221 
L 592.767925 266.702639 
L 594.36654 255.547952 
L 595.965156 228.551941 
L 597.563771 247.993024 
L 599.162387 249.422209 
L 600.761002 267.980837 
L 602.359617 270.533472 
L 603.958233 268.419712 
L 605.556848 278.184703 
L 607.155464 271.199369 
L 608.754079 268.196096 
L 610.352694 264.799535 
L 611.95131 263.123018 
L 613.549925 272.30572 
L 615.148541 271.880648 
L 616.747156 283.121311 
L 618.345772 276.853978 
L 619.944387 284.562183 
L 621.543002 278.432071 
L 623.141618 266.021698 
L 624.740233 292.628771 
L 626.338849 282.745485 
L 627.937464 282.214359 
L 629.536079 267.913255 
L 631.134695 263.448945 
L 632.73331 282.375022 
L 635.930541 281.117534 
L 639.127772 268.227484 
L 640.726387 258.283062 
L 642.325003 274.315076 
L 643.923618 273.442801 
L 645.522234 243.708106 
L 647.120849 243.185316 
L 648.719464 265.54009 
L 650.31808 272.051175 
L 651.916695 256.019584 
L 653.515311 266.306569 
L 655.113926 272.125115 
L 656.712541 252.026671 
L 658.311157 263.058534 
L 659.909772 263.15627 
L 661.508388 262.488958 
L 663.107003 235.846982 
L 664.705619 233.768832 
L 666.304234 211.164044 
L 667.902849 171.38389 
L 669.501465 174.658921 
L 671.10008 126.498008 
L 672.698696 132.341356 
L 674.297311 72.809781 
L 675.895926 61.923284 
L 677.494542 170.585825 
L 679.093157 219.542966 
L 680.691773 168.859786 
L 682.290388 186.900296 
L 683.889003 169.907055 
L 685.487619 241.743038 
L 687.086234 271.548188 
L 688.68485 278.386609 
L 690.283465 266.719737 
L 691.882081 277.040474 
L 693.480696 284.654331 
L 695.079311 276.101645 
L 696.677927 250.738686 
L 698.276542 252.624579 
L 699.875158 260.194441 
L 701.473773 253.259164 
L 703.072388 260.492428 
L 704.671004 245.64843 
L 706.269619 255.594499 
L 707.868235 242.60439 
L 709.46685 245.97917 
L 711.065465 253.801694 
L 712.664081 244.439295 
L 714.262696 264.161781 
L 715.861312 262.491618 
L 717.459927 246.857656 
L 719.058543 246.271698 
L 720.657158 260.620854 
L 722.255773 245.686983 
L 723.854389 257.387814 
L 725.453004 254.11919 
L 728.650235 239.141339 
L 730.24885 235.370056 
L 731.847466 250.89936 
L 733.446081 263.737501 
L 735.044697 252.421159 
L 736.643312 248.599884 
L 738.241927 252.876914 
L 739.840543 241.127159 
L 741.439158 271.113484 
L 743.037774 272.097184 
L 744.636389 270.669516 
L 746.235005 263.415507 
L 747.83362 265.543053 
L 749.432235 252.483301 
L 751.030851 262.652436 
L 752.629466 257.032277 
L 754.228082 291.53151 
L 755.826697 254.865878 
L 757.425312 265.186482 
L 759.023928 261.150725 
L 760.622543 264.31086 
L 762.221159 269.860124 
L 763.819774 240.991397 
L 765.41839 244.647641 
L 767.017005 244.80459 
L 768.61562 279.033896 
L 770.214236 267.047109 
L 771.812851 279.334886 
L 773.411467 266.686789 
L 775.010082 255.49255 
L 778.207313 259.335843 
L 779.805928 251.810018 
L 781.404544 261.934097 
L 783.003159 281.013261 
L 784.601774 286.54035 
L 786.20039 277.012944 
L 787.799005 263.718022 
L 789.397621 284.676755 
L 790.996236 280.948966 
L 792.594852 272.07311 
L 794.193467 274.918667 
L 795.792082 267.249338 
L 797.390698 271.154427 
L 798.989313 282.330177 
L 800.587929 265.964313 
L 802.186544 275.393796 
L 803.785159 280.247318 
L 805.383775 287.572233 
L 806.98239 292.379918 
L 808.581006 283.157521 
L 810.179621 283.136345 
L 811.778236 255.449076 
L 813.376852 273.722268 
L 814.975467 267.079084 
L 816.574083 271.893719 
L 818.172698 281.033619 
L 819.771314 278.734159 
L 821.369929 276.974973 
L 822.968544 281.870336 
L 824.56716 281.492716 
L 826.165775 268.720644 
L 827.764391 272.194715 
L 829.363006 266.658343 
L 830.961621 267.81217 
L 832.560237 236.29447 
L 834.158852 228.016638 
L 835.757468 246.137051 
L 837.356083 215.52479 
L 838.954698 189.055523 
L 842.151929 104.091519 
L 843.750545 79.436293 
L 845.34916 118.590552 
L 846.947776 196.951695 
L 848.546391 239.239792 
L 850.145006 245.290081 
L 851.743622 250.624472 
L 853.342237 251.238047 
L 854.940853 248.672704 
L 856.539468 254.868772 
L 858.138083 254.667527 
L 859.736699 269.270509 
L 861.335314 274.247533 
L 862.93393 268.87261 
L 864.532545 268.056151 
L 866.131161 264.9477 
L 867.729776 279.025354 
L 869.328391 280.782287 
L 870.927007 272.849235 
L 872.525622 263.521082 
L 874.124238 279.826769 
L 875.722853 286.004979 
L 877.321468 276.475864 
L 878.920084 272.355943 
L 880.518699 279.794858 
L 882.117315 283.490591 
L 883.71593 284.225134 
L 885.314545 279.375522 
L 885.314545 279.375522 
" clip-path="url(#pd1bfb9613a)" style="fill: none; stroke-dasharray: 4.44,1.92; stroke-dashoffset: 0; stroke: #9467bd; stroke-width: 1.2"/>
   </g>
   <g id="patch_3">
    <path d="M 47.72 318.04 
L 47.72 49.72725 
" style="fill: none; stroke: #000000; stroke-width: 0.8; stroke-linejoin: miter; stroke-linecap: square"/>
   </g>
   <g id="patch_4">
    <path d="M 925.2 318.04 
L 925.2 49.72725 
" style="fill: none; stroke: #000000; stroke-width: 0.8; stroke-linejoin: miter; stroke-linecap: square"/>
   </g>
   <g id="patch_5">
    <path d="M 47.72 318.04 
L 925.2 318.04 
" style="fill: none; stroke: #000000; stroke-width: 0.8; stroke-linejoin: miter; stroke-linecap: square"/>
   </g>
   <g id="patch_6">
    <path d="M 47.72 49.72725 
L 925.2 49.72725 
" style="fill: none; stroke: #000000; stroke-width: 0.8; stroke-linejoin: miter; stroke-linecap: square"/>
   </g>
   <g id="legend_1">
    <g id="line2d_17">
     <path d="M 56.72 62.825688 
L 66.72 62.825688 
L 76.72 62.825688 
" style="fill: none; stroke: #2ca02c; stroke-width: 1.2; stroke-linecap: square"/>
    </g>
    <g id="text_16">
     <!-- ENCSR203XPU -->
     <g transform="translate(84.72 66.325688) scale(0.1 -0.1)">
      <defs>
       <path id="DejaVuSans-45" d="M 628 4666 
L 3578 4666 
L 3578 4134 
L 1259 4134 
L 1259 2753 
L 3481 2753 
L 3481 2222 
L 1259 2222 
L 1259 531 
L 3634 531 
L 3634 0 
L 628 0 
L 628 4666 
z
" transform="scale(0.015625)"/>
       <path id="DejaVuSans-4e" d="M 628 4666 
L 1478 4666 
L 3547 763 
L 3547 4666 
L 4159 4666 
L 4159 0 
L 3309 0 
L 1241 3903 
L 1241 0 
L 628 0 
L 628 4666 
z
" transform="scale(0.015625)"/>
       <path id="DejaVuSans-43" d="M 4122 4306 
L 4122 3641 
Q 3803 3938 3442 4084 
Q 3081 4231 2675 4231 
Q 1875 4231 1450 3742 
Q 1025 3253 1025 2328 
Q 1025 1406 1450 917 
Q 1875 428 2675 428 
Q 3081 428 3442 575 
Q 3803 722 4122 1019 
L 4122 359 
Q 3791 134 3420 21 
Q 3050 -91 2638 -91 
Q 1578 -91 968 557 
Q 359 1206 359 2328 
Q 359 3453 968 4101 
Q 1578 4750 2638 4750 
Q 3056 4750 3426 4639 
Q 3797 4528 4122 4306 
z
" transform="scale(0.015625)"/>
       <path id="DejaVuSans-53" d="M 3425 4513 
L 3425 3897 
Q 3066 4069 2747 4153 
Q 2428 4238 2131 4238 
Q 1616 4238 1336 4038 
Q 1056 3838 1056 3469 
Q 1056 3159 1242 3001 
Q 1428 2844 1947 2747 
L 2328 2669 
Q 3034 2534 3370 2195 
Q 3706 1856 3706 1288 
Q 3706 609 3251 259 
Q 2797 -91 1919 -91 
Q 1588 -91 1214 -16 
Q 841 59 441 206 
L 441 856 
Q 825 641 1194 531 
Q 1563 422 1919 422 
Q 2459 422 2753 634 
Q 3047 847 3047 1241 
Q 3047 1584 2836 1778 
Q 2625 1972 2144 2069 
L 1759 2144 
Q 1053 2284 737 2584 
Q 422 2884 422 3419 
Q 422 4038 858 4394 
Q 1294 4750 2059 4750 
Q 2388 4750 2728 4690 
Q 3069 4631 3425 4513 
z
" transform="scale(0.015625)"/>
       <path id="DejaVuSans-52" d="M 2841 2188 
Q 3044 2119 3236 1894 
Q 3428 1669 3622 1275 
L 4263 0 
L 3584 0 
L 2988 1197 
Q 2756 1666 2539 1819 
Q 2322 1972 1947 1972 
L 1259 1972 
L 1259 0 
L 628 0 
L 628 4666 
L 2053 4666 
Q 2853 4666 3247 4331 
Q 3641 3997 3641 3322 
Q 3641 2881 3436 2590 
Q 3231 2300 2841 2188 
z
M 1259 4147 
L 1259 2491 
L 2053 2491 
Q 2509 2491 2742 2702 
Q 2975 2913 2975 3322 
Q 2975 3731 2742 3939 
Q 2509 4147 2053 4147 
L 1259 4147 
z
" transform="scale(0.015625)"/>
       <path id="DejaVuSans-58" d="M 403 4666 
L 1081 4666 
L 2241 2931 
L 3406 4666 
L 4084 4666 
L 2584 2425 
L 4184 0 
L 3506 0 
L 2194 1984 
L 872 0 
L 191 0 
L 1856 2491 
L 403 4666 
z
" transform="scale(0.015625)"/>
       <path id="DejaVuSans-50" d="M 1259 4147 
L 1259 2394 
L 2053 2394 
Q 2494 2394 2734 2622 
Q 2975 2850 2975 3272 
Q 2975 3691 2734 3919 
Q 2494 4147 2053 4147 
L 1259 4147 
z
M 628 4666 
L 2053 4666 
Q 2838 4666 3239 4311 
Q 3641 3956 3641 3272 
Q 3641 2581 3239 2228 
Q 2838 1875 2053 1875 
L 1259 1875 
L 1259 0 
L 628 0 
L 628 4666 
z
" transform="scale(0.015625)"/>
       <path id="DejaVuSans-55" d="M 556 4666 
L 1191 4666 
L 1191 1831 
Q 1191 1081 1462 751 
Q 1734 422 2344 422 
Q 2950 422 3222 751 
Q 3494 1081 3494 1831 
L 3494 4666 
L 4128 4666 
L 4128 1753 
Q 4128 841 3676 375 
Q 3225 -91 2344 -91 
Q 1459 -91 1007 375 
Q 556 841 556 1753 
L 556 4666 
z
" transform="scale(0.015625)"/>
      </defs>
      <use xlink:href="#DejaVuSans-45"/>
      <use xlink:href="#DejaVuSans-4e" transform="translate(63.183594 0)"/>
      <use xlink:href="#DejaVuSans-43" transform="translate(137.988281 0)"/>
      <use xlink:href="#DejaVuSans-53" transform="translate(207.8125 0)"/>
      <use xlink:href="#DejaVuSans-52" transform="translate(271.289062 0)"/>
      <use xlink:href="#DejaVuSans-32" transform="translate(340.771484 0)"/>
      <use xlink:href="#DejaVuSans-30" transform="translate(404.394531 0)"/>
      <use xlink:href="#DejaVuSans-33" transform="translate(468.017578 0)"/>
      <use xlink:href="#DejaVuSans-58" transform="translate(531.640625 0)"/>
      <use xlink:href="#DejaVuSans-50" transform="translate(600.146484 0)"/>
      <use xlink:href="#DejaVuSans-55" transform="translate(660.449219 0)"/>
     </g>
    </g>
    <g id="line2d_18">
     <path d="M 56.72 77.503813 
L 66.72 77.503813 
L 76.72 77.503813 
" style="fill: none; stroke: #000000; stroke-width: 1.2; stroke-linecap: square"/>
    </g>
    <g id="text_17">
     <!-- AlphaGenome -->
     <g transform="translate(84.72 81.003813) scale(0.1 -0.1)">
      <defs>
       <path id="DejaVuSans-41" d="M 2188 4044 
L 1331 1722 
L 3047 1722 
L 2188 4044 
z
M 1831 4666 
L 2547 4666 
L 4325 0 
L 3669 0 
L 3244 1197 
L 1141 1197 
L 716 0 
L 50 0 
L 1831 4666 
z
" transform="scale(0.015625)"/>
       <path id="DejaVuSans-70" d="M 1159 525 
L 1159 -1331 
L 581 -1331 
L 581 3500 
L 1159 3500 
L 1159 2969 
Q 1341 3281 1617 3432 
Q 1894 3584 2278 3584 
Q 2916 3584 3314 3078 
Q 3713 2572 3713 1747 
Q 3713 922 3314 415 
Q 2916 -91 2278 -91 
Q 1894 -91 1617 61 
Q 1341 213 1159 525 
z
M 3116 1747 
Q 3116 2381 2855 2742 
Q 2594 3103 2138 3103 
Q 1681 3103 1420 2742 
Q 1159 2381 1159 1747 
Q 1159 1113 1420 752 
Q 1681 391 2138 391 
Q 2594 391 2855 752 
Q 3116 1113 3116 1747 
z
" transform="scale(0.015625)"/>
       <path id="DejaVuSans-47" d="M 3809 666 
L 3809 1919 
L 2778 1919 
L 2778 2438 
L 4434 2438 
L 4434 434 
Q 4069 175 3628 42 
Q 3188 -91 2688 -91 
Q 1594 -91 976 548 
Q 359 1188 359 2328 
Q 359 3472 976 4111 
Q 1594 4750 2688 4750 
Q 3144 4750 3555 4637 
Q 3966 4525 4313 4306 
L 4313 3634 
Q 3963 3931 3569 4081 
Q 3175 4231 2741 4231 
Q 1884 4231 1454 3753 
Q 1025 3275 1025 2328 
Q 1025 1384 1454 906 
Q 1884 428 2741 428 
Q 3075 428 3337 486 
Q 3600 544 3809 666 
z
" transform="scale(0.015625)"/>
      </defs>
      <use xlink:href="#DejaVuSans-41"/>
      <use xlink:href="#DejaVuSans-6c" transform="translate(68.408203 0)"/>
      <use xlink:href="#DejaVuSans-70" transform="translate(96.191406 0)"/>
      <use xlink:href="#DejaVuSans-68" transform="translate(159.667969 0)"/>
      <use xlink:href="#DejaVuSans-61" transform="translate(223.046875 0)"/>
      <use xlink:href="#DejaVuSans-47" transform="translate(284.326172 0)"/>
      <use xlink:href="#DejaVuSans-65" transform="translate(361.816406 0)"/>
      <use xlink:href="#DejaVuSans-6e" transform="translate(423.339844 0)"/>
      <use xlink:href="#DejaVuSans-6f" transform="translate(486.71875 0)"/>
      <use xlink:href="#DejaVuSans-6d" transform="translate(547.900391 0)"/>
      <use xlink:href="#DejaVuSans-65" transform="translate(645.3125 0)"/>
     </g>
    </g>
    <g id="line2d_19">
     <path d="M 178.085625 62.825688 
L 188.085625 62.825688 
L 198.085625 62.825688 
" style="fill: none; stroke: #ff7f0e; stroke-width: 1.2; stroke-linecap: square"/>
    </g>
    <g id="text_18">
     <!-- DiMeLo pooled -->
     <g transform="translate(206.085625 66.325688) scale(0.1 -0.1)">
      <defs>
       <path id="DejaVuSans-44" d="M 1259 4147 
L 1259 519 
L 2022 519 
Q 2988 519 3436 956 
Q 3884 1394 3884 2338 
Q 3884 3275 3436 3711 
Q 2988 4147 2022 4147 
L 1259 4147 
z
M 628 4666 
L 1925 4666 
Q 3281 4666 3915 4102 
Q 4550 3538 4550 2338 
Q 4550 1131 3912 565 
Q 3275 0 1925 0 
L 628 0 
L 628 4666 
z
" transform="scale(0.015625)"/>
       <path id="DejaVuSans-4d" d="M 628 4666 
L 1569 4666 
L 2759 1491 
L 3956 4666 
L 4897 4666 
L 4897 0 
L 4281 0 
L 4281 4097 
L 3078 897 
L 2444 897 
L 1241 4097 
L 1241 0 
L 628 0 
L 628 4666 
z
" transform="scale(0.015625)"/>
       <path id="DejaVuSans-4c" d="M 628 4666 
L 1259 4666 
L 1259 531 
L 3531 531 
L 3531 0 
L 628 0 
L 628 4666 
z
" transform="scale(0.015625)"/>
      </defs>
      <use xlink:href="#DejaVuSans-44"/>
      <use xlink:href="#DejaVuSans-69" transform="translate(77.001953 0)"/>
      <use xlink:href="#DejaVuSans-4d" transform="translate(104.785156 0)"/>
      <use xlink:href="#DejaVuSans-65" transform="translate(191.064453 0)"/>
      <use xlink:href="#DejaVuSans-4c" transform="translate(252.587891 0)"/>
      <use xlink:href="#DejaVuSans-6f" transform="translate(306.550781 0)"/>
      <use xlink:href="#DejaVuSans-20" transform="translate(367.732422 0)"/>
      <use xlink:href="#DejaVuSans-70" transform="translate(399.519531 0)"/>
      <use xlink:href="#DejaVuSans-6f" transform="translate(462.996094 0)"/>
      <use xlink:href="#DejaVuSans-6f" transform="translate(524.177734 0)"/>
      <use xlink:href="#DejaVuSans-6c" transform="translate(585.359375 0)"/>
      <use xlink:href="#DejaVuSans-65" transform="translate(613.142578 0)"/>
      <use xlink:href="#DejaVuSans-64" transform="translate(674.666016 0)"/>
     </g>
    </g>
    <g id="line2d_20">
     <path d="M 178.085625 77.503813 
L 188.085625 77.503813 
L 198.085625 77.503813 
" style="fill: none; stroke-dasharray: 4.44,1.92; stroke-dashoffset: 0; stroke: #9467bd; stroke-width: 1.2"/>
    </g>
    <g id="text_19">
     <!-- HyenaDNA pooled -->
     <g transform="translate(206.085625 81.003813) scale(0.1 -0.1)">
      <defs>
       <path id="DejaVuSans-48" d="M 628 4666 
L 1259 4666 
L 1259 2753 
L 3553 2753 
L 3553 4666 
L 4184 4666 
L 4184 0 
L 3553 0 
L 3553 2222 
L 1259 2222 
L 1259 0 
L 628 0 
L 628 4666 
z
" transform="scale(0.015625)"/>
       <path id="DejaVuSans-79" d="M 2059 -325 
Q 1816 -950 1584 -1140 
Q 1353 -1331 966 -1331 
L 506 -1331 
L 506 -850 
L 844 -850 
Q 1081 -850 1212 -737 
Q 1344 -625 1503 -206 
L 1606 56 
L 191 3500 
L 800 3500 
L 1894 763 
L 2988 3500 
L 3597 3500 
L 2059 -325 
z
" transform="scale(0.015625)"/>
      </defs>
      <use xlink:href="#DejaVuSans-48"/>
      <use xlink:href="#DejaVuSans-79" transform="translate(75.195312 0)"/>
      <use xlink:href="#DejaVuSans-65" transform="translate(134.375 0)"/>
      <use xlink:href="#DejaVuSans-6e" transform="translate(195.898438 0)"/>
      <use xlink:href="#DejaVuSans-61" transform="translate(259.277344 0)"/>
      <use xlink:href="#DejaVuSans-44" transform="translate(320.556641 0)"/>
      <use xlink:href="#DejaVuSans-4e" transform="translate(397.558594 0)"/>
      <use xlink:href="#DejaVuSans-41" transform="translate(472.363281 0)"/>
      <use xlink:href="#DejaVuSans-20" transform="translate(540.771484 0)"/>
      <use xlink:href="#DejaVuSans-70" transform="translate(572.558594 0)"/>
      <use xlink:href="#DejaVuSans-6f" transform="translate(636.035156 0)"/>
      <use xlink:href="#DejaVuSans-6f" transform="translate(697.216797 0)"/>
      <use xlink:href="#DejaVuSans-6c" transform="translate(758.398438 0)"/>
      <use xlink:href="#DejaVuSans-65" transform="translate(786.181641 0)"/>
      <use xlink:href="#DejaVuSans-64" transform="translate(847.705078 0)"/>
     </g>
    </g>
   </g>
  </g>
  <g id="text_20">
   <!-- chr16 region 27: overlay -->
   <g transform="translate(394.170938 16.318125) scale(0.12 -0.12)">
    <defs>
     <path id="DejaVuSans-3a" d="M 750 794 
L 1409 794 
L 1409 0 
L 750 0 
L 750 794 
z
M 750 3309 
L 1409 3309 
L 1409 2516 
L 750 2516 
L 750 3309 
z
" transform="scale(0.015625)"/>
     <path id="DejaVuSans-76" d="M 191 3500 
L 800 3500 
L 1894 563 
L 2988 3500 
L 3597 3500 
L 2284 0 
L 1503 0 
L 191 3500 
z
" transform="scale(0.015625)"/>
    </defs>
    <use xlink:href="#DejaVuSans-63"/>
    <use xlink:href="#DejaVuSans-68" transform="translate(54.980469 0)"/>
    <use xlink:href="#DejaVuSans-72" transform="translate(118.359375 0)"/>
    <use xlink:href="#DejaVuSans-31" transform="translate(159.472656 0)"/>
    <use xlink:href="#DejaVuSans-36" transform="translate(223.095703 0)"/>
    <use xlink:href="#DejaVuSans-20" transform="translate(286.71875 0)"/>
    <use xlink:href="#DejaVuSans-72" transform="translate(318.505859 0)"/>
    <use xlink:href="#DejaVuSans-65" transform="translate(357.369141 0)"/>
    <use xlink:href="#DejaVuSans-67" transform="translate(418.892578 0)"/>
    <use xlink:href="#DejaVuSans-69" transform="translate(482.369141 0)"/>
    <use xlink:href="#DejaVuSans-6f" transform="translate(510.152344 0)"/>
    <use xlink:href="#DejaVuSans-6e" transform="translate(571.333984 0)"/>
    <use xlink:href="#DejaVuSans-20" transform="translate(634.712891 0)"/>
    <use xlink:href="#DejaVuSans-32" transform="translate(666.5 0)"/>
    <use xlink:href="#DejaVuSans-37" transform="translate(730.123047 0)"/>
    <use xlink:href="#DejaVuSans-3a" transform="translate(793.746094 0)"/>
    <use xlink:href="#DejaVuSans-20" transform="translate(827.4375 0)"/>
    <use xlink:href="#DejaVuSans-6f" transform="translate(859.224609 0)"/>
    <use xlink:href="#DejaVuSans-76" transform="translate(920.40625 0)"/>
    <use xlink:href="#DejaVuSans-65" transform="translate(979.585938 0)"/>
    <use xlink:href="#DejaVuSans-72" transform="translate(1041.109375 0)"/>
    <use xlink:href="#DejaVuSans-6c" transform="translate(1082.222656 0)"/>
    <use xlink:href="#DejaVuSans-61" transform="translate(1110.005859 0)"/>
    <use xlink:href="#DejaVuSans-79" transform="translate(1171.285156 0)"/>
   </g>
   <!-- chr16_rank28_score2.759_reads388 -->
   <g transform="translate(359.357813 29.7555) scale(0.12 -0.12)">
    <defs>
     <path id="DejaVuSans-5f" d="M 3263 -1063 
L 3263 -1509 
L -63 -1509 
L -63 -1063 
L 3263 -1063 
z
" transform="scale(0.015625)"/>
     <path id="DejaVuSans-6b" d="M 581 4863 
L 1159 4863 
L 1159 1991 
L 2875 3500 
L 3609 3500 
L 1753 1863 
L 3688 0 
L 2938 0 
L 1159 1709 
L 1159 0 
L 581 0 
L 581 4863 
z
" transform="scale(0.015625)"/>
     <path id="DejaVuSans-35" d="M 691 4666 
L 3169 4666 
L 3169 4134 
L 1269 4134 
L 1269 2991 
Q 1406 3038 1543 3061 
Q 1681 3084 1819 3084 
Q 2600 3084 3056 2656 
Q 3513 2228 3513 1497 
Q 3513 744 3044 326 
Q 2575 -91 1722 -91 
Q 1428 -91 1123 -41 
Q 819 9 494 109 
L 494 744 
Q 775 591 1075 516 
Q 1375 441 1709 441 
Q 2250 441 2565 725 
Q 2881 1009 2881 1497 
Q 2881 1984 2565 2268 
Q 2250 2553 1709 2553 
Q 1456 2553 1204 2497 
Q 953 2441 691 2322 
L 691 4666 
z
" transform="scale(0.015625)"/>
     <path id="DejaVuSans-39" d="M 703 97 
L 703 672 
Q 941 559 1184 500 
Q 1428 441 1663 441 
Q 2288 441 2617 861 
Q 2947 1281 2994 2138 
Q 2813 1869 2534 1725 
Q 2256 1581 1919 1581 
Q 1219 1581 811 2004 
Q 403 2428 403 3163 
Q 403 3881 828 4315 
Q 1253 4750 1959 4750 
Q 2769 4750 3195 4129 
Q 3622 3509 3622 2328 
Q 3622 1225 3098 567 
Q 2575 -91 1691 -91 
Q 1453 -91 1209 -44 
Q 966 3 703 97 
z
M 1959 2075 
Q 2384 2075 2632 2365 
Q 2881 2656 2881 3163 
Q 2881 3666 2632 3958 
Q 2384 4250 1959 4250 
Q 1534 4250 1286 3958 
Q 1038 3666 1038 3163 
Q 1038 2656 1286 2365 
Q 1534 2075 1959 2075 
z
" transform="scale(0.015625)"/>
    </defs>
    <use xlink:href="#DejaVuSans-63"/>
    <use xlink:href="#DejaVuSans-68" transform="translate(54.980469 0)"/>
    <use xlink:href="#DejaVuSans-72" transform="translate(118.359375 0)"/>
    <use xlink:href="#DejaVuSans-31" transform="translate(159.472656 0)"/>
    <use xlink:href="#DejaVuSans-36" transform="translate(223.095703 0)"/>
    <use xlink:href="#DejaVuSans-5f" transform="translate(286.71875 0)"/>
    <use xlink:href="#DejaVuSans-72" transform="translate(336.71875 0)"/>
    <use xlink:href="#DejaVuSans-61" transform="translate(377.832031 0)"/>
    <use xlink:href="#DejaVuSans-6e" transform="translate(439.111328 0)"/>
    <use xlink:href="#DejaVuSans-6b" transform="translate(502.490234 0)"/>
    <use xlink:href="#DejaVuSans-32" transform="translate(560.400391 0)"/>
    <use xlink:href="#DejaVuSans-38" transform="translate(624.023438 0)"/>
    <use xlink:href="#DejaVuSans-5f" transform="translate(687.646484 0)"/>
    <use xlink:href="#DejaVuSans-73" transform="translate(737.646484 0)"/>
    <use xlink:href="#DejaVuSans-63" transform="translate(789.746094 0)"/>
    <use xlink:href="#DejaVuSans-6f" transform="translate(844.726562 0)"/>
    <use xlink:href="#DejaVuSans-72" transform="translate(905.908203 0)"/>
    <use xlink:href="#DejaVuSans-65" transform="translate(944.771484 0)"/>
    <use xlink:href="#DejaVuSans-32" transform="translate(1006.294922 0)"/>
    <use xlink:href="#DejaVuSans-2e" transform="translate(1069.917969 0)"/>
    <use xlink:href="#DejaVuSans-37" transform="translate(1101.705078 0)"/>
    <use xlink:href="#DejaVuSans-35" transform="translate(1165.328125 0)"/>
    <use xlink:href="#DejaVuSans-39" transform="translate(1228.951172 0)"/>
    <use xlink:href="#DejaVuSans-5f" transform="translate(1292.574219 0)"/>
    <use xlink:href="#DejaVuSans-72" transform="translate(1342.574219 0)"/>
    <use xlink:href="#DejaVuSans-65" transform="translate(1381.4375 0)"/>
    <use xlink:href="#DejaVuSans-61" transform="translate(1442.960938 0)"/>
    <use xlink:href="#DejaVuSans-64" transform="translate(1504.240234 0)"/>
    <use xlink:href="#DejaVuSans-73" transform="translate(1567.716797 0)"/>
    <use xlink:href="#DejaVuSans-33" transform="translate(1619.816406 0)"/>
    <use xlink:href="#DejaVuSans-38" transform="translate(1683.439453 0)"/>
    <use xlink:href="#DejaVuSans-38" transform="translate(1747.0625 0)"/>
   </g>
  </g>
 </g>
 <defs>
  <clipPath id="pd1bfb9613a">
   <rect x="47.72" y="49.72725" width="877.48" height="268.31275"/>
  </clipPath>
 </defs>
</svg>
