<?xml version="1.0" encoding="utf-8" standalone="no"?>
<!DOCTYPE svg PUBLIC "-//W3C//DTD SVG 1.1//EN"
  "http://www.w3.org/Graphics/SVG/1.1/DTD/svg11.dtd">
<svg xmlns:xlink="http://www.w3.org/1999/xlink" width="936pt" height="360pt" viewBox="0 0 936 360" xmlns="http://www.w3.org/2000/svg" version="1.1">
 <metadata>
  <rdf:RDF xmlns:dc="http://purl.org/dc/elements/1.1/" xmlns:cc="http://creativecommons.org/ns#" xmlns:rdf="http://www.w3.org/1999/02/22-rdf-syntax-ns#">
   <cc:Work>
    <dc:type rdf:resource="http://purl.org/dc/dcmitype/StillImage"/>
    <dc:date>2026-07-17T20:22:15.472563</dc:date>
    <dc:format>image/svg+xml</dc:format>
    <dc:creator>
     <cc:Agent>
      <dc:title>Matplotlib v3.10.8, https://matplotlib.org/</dc:title>
     </cc:Agent>
    </dc:creator>
   </cc:Work>
  </rdf:RDF>
 </metadata>
 <defs>
  <style type="text/css">*{stroke-linejoin: round; stroke-linecap: butt}</style>
 </defs>
 <g id="figure_1">
  <g id="patch_1">
   <path d="M 0 360 
L 936 360 
L 936 0 
L 0 0 
z
" style="fill: #ffffff"/>
  </g>
  <g id="axes_1">
   <g id="patch_2">
    <path d="M 47.72 318.04 
L 925.2 318.04 
L 925.2 49.72725 
L 47.72 49.72725 
z
" style="fill: #ffffff"/>
   </g>
   <g id="matplotlib.axis_1">
    <g id="xtick_1">
     <g id="line2d_1">
      <defs>
       <path id="m354598c9a1" d="M 0 0 
L 0 3.5 
" style="stroke: #000000; stroke-width: 0.8"/>
      </defs>
      <g>
       <use xlink:href="#m354598c9a1" x="86.806147" y="318.04" style="stroke: #000000; stroke-width: 0.8"/>
      </g>
     </g>
     <g id="text_1">
      <!-- 1.30 -->
      <g transform="translate(75.673334 332.638438) scale(0.1 -0.1)">
       <defs>
        <path id="DejaVuSans-31" d="M 794 531 
L 1825 531 
L 1825 4091 
L 703 3866 
L 703 4441 
L 1819 4666 
L 2450 4666 
L 2450 531 
L 3481 531 
L 3481 0 
L 794 0 
L 794 531 
z
" transform="scale(0.015625)"/>
        <path id="DejaVuSans-2e" d="M 684 794 
L 1344 794 
L 1344 0 
L 684 0 
L 684 794 
z
" transform="scale(0.015625)"/>
        <path id="DejaVuSans-33" d="M 2597 2516 
Q 3050 2419 3304 2112 
Q 3559 1806 3559 1356 
Q 3559 666 3084 287 
Q 2609 -91 1734 -91 
Q 1441 -91 1130 -33 
Q 819 25 488 141 
L 488 750 
Q 750 597 1062 519 
Q 1375 441 1716 441 
Q 2309 441 2620 675 
Q 2931 909 2931 1356 
Q 2931 1769 2642 2001 
Q 2353 2234 1838 2234 
L 1294 2234 
L 1294 2753 
L 1863 2753 
Q 2328 2753 2575 2939 
Q 2822 3125 2822 3475 
Q 2822 3834 2567 4026 
Q 2313 4219 1838 4219 
Q 1578 4219 1281 4162 
Q 984 4106 628 3988 
L 628 4550 
Q 988 4650 1302 4700 
Q 1616 4750 1894 4750 
Q 2613 4750 3031 4423 
Q 3450 4097 3450 3541 
Q 3450 3153 3228 2886 
Q 3006 2619 2597 2516 
z
" transform="scale(0.015625)"/>
        <path id="DejaVuSans-30" d="M 2034 4250 
Q 1547 4250 1301 3770 
Q 1056 3291 1056 2328 
Q 1056 1369 1301 889 
Q 1547 409 2034 409 
Q 2525 409 2770 889 
Q 3016 1369 3016 2328 
Q 3016 3291 2770 3770 
Q 2525 4250 2034 4250 
z
M 2034 4750 
Q 2819 4750 3233 4129 
Q 3647 3509 3647 2328 
Q 3647 1150 3233 529 
Q 2819 -91 2034 -91 
Q 1250 -91 836 529 
Q 422 1150 422 2328 
Q 422 3509 836 4129 
Q 1250 4750 2034 4750 
z
" transform="scale(0.015625)"/>
       </defs>
       <use xlink:href="#DejaVuSans-31"/>
       <use xlink:href="#DejaVuSans-2e" transform="translate(63.623047 0)"/>
       <use xlink:href="#DejaVuSans-33" transform="translate(95.410156 0)"/>
       <use xlink:href="#DejaVuSans-30" transform="translate(159.033203 0)"/>
      </g>
     </g>
    </g>
    <g id="xtick_2">
     <g id="line2d_2">
      <g>
       <use xlink:href="#m354598c9a1" x="246.667688" y="318.04" style="stroke: #000000; stroke-width: 0.8"/>
      </g>
     </g>
     <g id="text_2">
      <!-- 1.32 -->
      <g transform="translate(235.534876 332.638438) scale(0.1 -0.1)">
       <defs>
        <path id="DejaVuSans-32" d="M 1228 531 
L 3431 531 
L 3431 0 
L 469 0 
L 469 531 
Q 828 903 1448 1529 
Q 2069 2156 2228 2338 
Q 2531 2678 2651 2914 
Q 2772 3150 2772 3378 
Q 2772 3750 2511 3984 
Q 2250 4219 1831 4219 
Q 1534 4219 1204 4116 
Q 875 4013 500 3803 
L 500 4441 
Q 881 4594 1212 4672 
Q 1544 4750 1819 4750 
Q 2544 4750 2975 4387 
Q 3406 4025 3406 3419 
Q 3406 3131 3298 2873 
Q 3191 2616 2906 2266 
Q 2828 2175 2409 1742 
Q 1991 1309 1228 531 
z
" transform="scale(0.015625)"/>
       </defs>
       <use xlink:href="#DejaVuSans-31"/>
       <use xlink:href="#DejaVuSans-2e" transform="translate(63.623047 0)"/>
       <use xlink:href="#DejaVuSans-33" transform="translate(95.410156 0)"/>
       <use xlink:href="#DejaVuSans-32" transform="translate(159.033203 0)"/>
      </g>
     </g>
    </g>
    <g id="xtick_3">
     <g id="line2d_3">
      <g>
       <use xlink:href="#m354598c9a1" x="406.529229" y="318.04" style="stroke: #000000; stroke-width: 0.8"/>
      </g>
     </g>
     <g id="text_3">
      <!-- 1.34 -->
      <g transform="translate(395.396417 332.638438) scale(0.1 -0.1)">
       <defs>
        <path id="DejaVuSans-34" d="M 2419 4116 
L 825 1625 
L 2419 1625 
L 2419 4116 
z
M 2253 4666 
L 3047 4666 
L 3047 1625 
L 3713 1625 
L 3713 1100 
L 3047 1100 
L 3047 0 
L 2419 0 
L 2419 1100 
L 313 1100 
L 313 1709 
L 2253 4666 
z
" transform="scale(0.015625)"/>
       </defs>
       <use xlink:href="#DejaVuSans-31"/>
       <use xlink:href="#DejaVuSans-2e" transform="translate(63.623047 0)"/>
       <use xlink:href="#DejaVuSans-33" transform="translate(95.410156 0)"/>
       <use xlink:href="#DejaVuSans-34" transform="translate(159.033203 0)"/>
      </g>
     </g>
    </g>
    <g id="xtick_4">
     <g id="line2d_4">
      <g>
       <use xlink:href="#m354598c9a1" x="566.390771" y="318.04" style="stroke: #000000; stroke-width: 0.8"/>
      </g>
     </g>
     <g id="text_4">
      <!-- 1.36 -->
      <g transform="translate(555.257958 332.638438) scale(0.1 -0.1)">
       <defs>
        <path id="DejaVuSans-36" d="M 2113 2584 
Q 1688 2584 1439 2293 
Q 1191 2003 1191 1497 
Q 1191 994 1439 701 
Q 1688 409 2113 409 
Q 2538 409 2786 701 
Q 3034 994 3034 1497 
Q 3034 2003 2786 2293 
Q 2538 2584 2113 2584 
z
M 3366 4563 
L 3366 3988 
Q 3128 4100 2886 4159 
Q 2644 4219 2406 4219 
Q 1781 4219 1451 3797 
Q 1122 3375 1075 2522 
Q 1259 2794 1537 2939 
Q 1816 3084 2150 3084 
Q 2853 3084 3261 2657 
Q 3669 2231 3669 1497 
Q 3669 778 3244 343 
Q 2819 -91 2113 -91 
Q 1303 -91 875 529 
Q 447 1150 447 2328 
Q 447 3434 972 4092 
Q 1497 4750 2381 4750 
Q 2619 4750 2861 4703 
Q 3103 4656 3366 4563 
z
" transform="scale(0.015625)"/>
       </defs>
       <use xlink:href="#DejaVuSans-31"/>
       <use xlink:href="#DejaVuSans-2e" transform="translate(63.623047 0)"/>
       <use xlink:href="#DejaVuSans-33" transform="translate(95.410156 0)"/>
       <use xlink:href="#DejaVuSans-36" transform="translate(159.033203 0)"/>
      </g>
     </g>
    </g>
    <g id="xtick_5">
     <g id="line2d_5">
      <g>
       <use xlink:href="#m354598c9a1" x="726.252312" y="318.04" style="stroke: #000000; stroke-width: 0.8"/>
      </g>
     </g>
     <g id="text_5">
      <!-- 1.38 -->
      <g transform="translate(715.119499 332.638438) scale(0.1 -0.1)">
       <defs>
        <path id="DejaVuSans-38" d="M 2034 2216 
Q 1584 2216 1326 1975 
Q 1069 1734 1069 1313 
Q 1069 891 1326 650 
Q 1584 409 2034 409 
Q 2484 409 2743 651 
Q 3003 894 3003 1313 
Q 3003 1734 2745 1975 
Q 2488 2216 2034 2216 
z
M 1403 2484 
Q 997 2584 770 2862 
Q 544 3141 544 3541 
Q 544 4100 942 4425 
Q 1341 4750 2034 4750 
Q 2731 4750 3128 4425 
Q 3525 4100 3525 3541 
Q 3525 3141 3298 2862 
Q 3072 2584 2669 2484 
Q 3125 2378 3379 2068 
Q 3634 1759 3634 1313 
Q 3634 634 3220 271 
Q 2806 -91 2034 -91 
Q 1263 -91 848 271 
Q 434 634 434 1313 
Q 434 1759 690 2068 
Q 947 2378 1403 2484 
z
M 1172 3481 
Q 1172 3119 1398 2916 
Q 1625 2713 2034 2713 
Q 2441 2713 2670 2916 
Q 2900 3119 2900 3481 
Q 2900 3844 2670 4047 
Q 2441 4250 2034 4250 
Q 1625 4250 1398 4047 
Q 1172 3844 1172 3481 
z
" transform="scale(0.015625)"/>
       </defs>
       <use xlink:href="#DejaVuSans-31"/>
       <use xlink:href="#DejaVuSans-2e" transform="translate(63.623047 0)"/>
       <use xlink:href="#DejaVuSans-33" transform="translate(95.410156 0)"/>
       <use xlink:href="#DejaVuSans-38" transform="translate(159.033203 0)"/>
      </g>
     </g>
    </g>
    <g id="xtick_6">
     <g id="line2d_6">
      <g>
       <use xlink:href="#m354598c9a1" x="886.113853" y="318.04" style="stroke: #000000; stroke-width: 0.8"/>
      </g>
     </g>
     <g id="text_6">
      <!-- 1.40 -->
      <g transform="translate(874.981041 332.638438) scale(0.1 -0.1)">
       <use xlink:href="#DejaVuSans-31"/>
       <use xlink:href="#DejaVuSans-2e" transform="translate(63.623047 0)"/>
       <use xlink:href="#DejaVuSans-34" transform="translate(95.410156 0)"/>
       <use xlink:href="#DejaVuSans-30" transform="translate(159.033203 0)"/>
      </g>
     </g>
    </g>
    <g id="text_7">
     <!-- chr16 coordinate (hg38) -->
     <g transform="translate(425.670156 346.316563) scale(0.1 -0.1)">
      <defs>
       <path id="DejaVuSans-63" d="M 3122 3366 
L 3122 2828 
Q 2878 2963 2633 3030 
Q 2388 3097 2138 3097 
Q 1578 3097 1268 2742 
Q 959 2388 959 1747 
Q 959 1106 1268 751 
Q 1578 397 2138 397 
Q 2388 397 2633 464 
Q 2878 531 3122 666 
L 3122 134 
Q 2881 22 2623 -34 
Q 2366 -91 2075 -91 
Q 1284 -91 818 406 
Q 353 903 353 1747 
Q 353 2603 823 3093 
Q 1294 3584 2113 3584 
Q 2378 3584 2631 3529 
Q 2884 3475 3122 3366 
z
" transform="scale(0.015625)"/>
       <path id="DejaVuSans-68" d="M 3513 2113 
L 3513 0 
L 2938 0 
L 2938 2094 
Q 2938 2591 2744 2837 
Q 2550 3084 2163 3084 
Q 1697 3084 1428 2787 
Q 1159 2491 1159 1978 
L 1159 0 
L 581 0 
L 581 4863 
L 1159 4863 
L 1159 2956 
Q 1366 3272 1645 3428 
Q 1925 3584 2291 3584 
Q 2894 3584 3203 3211 
Q 3513 2838 3513 2113 
z
" transform="scale(0.015625)"/>
       <path id="DejaVuSans-72" d="M 2631 2963 
Q 2534 3019 2420 3045 
Q 2306 3072 2169 3072 
Q 1681 3072 1420 2755 
Q 1159 2438 1159 1844 
L 1159 0 
L 581 0 
L 581 3500 
L 1159 3500 
L 1159 2956 
Q 1341 3275 1631 3429 
Q 1922 3584 2338 3584 
Q 2397 3584 2469 3576 
Q 2541 3569 2628 3553 
L 2631 2963 
z
" transform="scale(0.015625)"/>
       <path id="DejaVuSans-20" transform="scale(0.015625)"/>
       <path id="DejaVuSans-6f" d="M 1959 3097 
Q 1497 3097 1228 2736 
Q 959 2375 959 1747 
Q 959 1119 1226 758 
Q 1494 397 1959 397 
Q 2419 397 2687 759 
Q 2956 1122 2956 1747 
Q 2956 2369 2687 2733 
Q 2419 3097 1959 3097 
z
M 1959 3584 
Q 2709 3584 3137 3096 
Q 3566 2609 3566 1747 
Q 3566 888 3137 398 
Q 2709 -91 1959 -91 
Q 1206 -91 779 398 
Q 353 888 353 1747 
Q 353 2609 779 3096 
Q 1206 3584 1959 3584 
z
" transform="scale(0.015625)"/>
       <path id="DejaVuSans-64" d="M 2906 2969 
L 2906 4863 
L 3481 4863 
L 3481 0 
L 2906 0 
L 2906 525 
Q 2725 213 2448 61 
Q 2172 -91 1784 -91 
Q 1150 -91 751 415 
Q 353 922 353 1747 
Q 353 2572 751 3078 
Q 1150 3584 1784 3584 
Q 2172 3584 2448 3432 
Q 2725 3281 2906 2969 
z
M 947 1747 
Q 947 1113 1208 752 
Q 1469 391 1925 391 
Q 2381 391 2643 752 
Q 2906 1113 2906 1747 
Q 2906 2381 2643 2742 
Q 2381 3103 1925 3103 
Q 1469 3103 1208 2742 
Q 947 2381 947 1747 
z
" transform="scale(0.015625)"/>
       <path id="DejaVuSans-69" d="M 603 3500 
L 1178 3500 
L 1178 0 
L 603 0 
L 603 3500 
z
M 603 4863 
L 1178 4863 
L 1178 4134 
L 603 4134 
L 603 4863 
z
" transform="scale(0.015625)"/>
       <path id="DejaVuSans-6e" d="M 3513 2113 
L 3513 0 
L 2938 0 
L 2938 2094 
Q 2938 2591 2744 2837 
Q 2550 3084 2163 3084 
Q 1697 3084 1428 2787 
Q 1159 2491 1159 1978 
L 1159 0 
L 581 0 
L 581 3500 
L 1159 3500 
L 1159 2956 
Q 1366 3272 1645 3428 
Q 1925 3584 2291 3584 
Q 2894 3584 3203 3211 
Q 3513 2838 3513 2113 
z
" transform="scale(0.015625)"/>
       <path id="DejaVuSans-61" d="M 2194 1759 
Q 1497 1759 1228 1600 
Q 959 1441 959 1056 
Q 959 750 1161 570 
Q 1363 391 1709 391 
Q 2188 391 2477 730 
Q 2766 1069 2766 1631 
L 2766 1759 
L 2194 1759 
z
M 3341 1997 
L 3341 0 
L 2766 0 
L 2766 531 
Q 2569 213 2275 61 
Q 1981 -91 1556 -91 
Q 1019 -91 701 211 
Q 384 513 384 1019 
Q 384 1609 779 1909 
Q 1175 2209 1959 2209 
L 2766 2209 
L 2766 2266 
Q 2766 2663 2505 2880 
Q 2244 3097 1772 3097 
Q 1472 3097 1187 3025 
Q 903 2953 641 2809 
L 641 3341 
Q 956 3463 1253 3523 
Q 1550 3584 1831 3584 
Q 2591 3584 2966 3190 
Q 3341 2797 3341 1997 
z
" transform="scale(0.015625)"/>
       <path id="DejaVuSans-74" d="M 1172 4494 
L 1172 3500 
L 2356 3500 
L 2356 3053 
L 1172 3053 
L 1172 1153 
Q 1172 725 1289 603 
Q 1406 481 1766 481 
L 2356 481 
L 2356 0 
L 1766 0 
Q 1100 0 847 248 
Q 594 497 594 1153 
L 594 3053 
L 172 3053 
L 172 3500 
L 594 3500 
L 594 4494 
L 1172 4494 
z
" transform="scale(0.015625)"/>
       <path id="DejaVuSans-65" d="M 3597 1894 
L 3597 1613 
L 953 1613 
Q 991 1019 1311 708 
Q 1631 397 2203 397 
Q 2534 397 2845 478 
Q 3156 559 3463 722 
L 3463 178 
Q 3153 47 2828 -22 
Q 2503 -91 2169 -91 
Q 1331 -91 842 396 
Q 353 884 353 1716 
Q 353 2575 817 3079 
Q 1281 3584 2069 3584 
Q 2775 3584 3186 3129 
Q 3597 2675 3597 1894 
z
M 3022 2063 
Q 3016 2534 2758 2815 
Q 2500 3097 2075 3097 
Q 1594 3097 1305 2825 
Q 1016 2553 972 2059 
L 3022 2063 
z
" transform="scale(0.015625)"/>
       <path id="DejaVuSans-28" d="M 1984 4856 
Q 1566 4138 1362 3434 
Q 1159 2731 1159 2009 
Q 1159 1288 1364 580 
Q 1569 -128 1984 -844 
L 1484 -844 
Q 1016 -109 783 600 
Q 550 1309 550 2009 
Q 550 2706 781 3412 
Q 1013 4119 1484 4856 
L 1984 4856 
z
" transform="scale(0.015625)"/>
       <path id="DejaVuSans-67" d="M 2906 1791 
Q 2906 2416 2648 2759 
Q 2391 3103 1925 3103 
Q 1463 3103 1205 2759 
Q 947 2416 947 1791 
Q 947 1169 1205 825 
Q 1463 481 1925 481 
Q 2391 481 2648 825 
Q 2906 1169 2906 1791 
z
M 3481 434 
Q 3481 -459 3084 -895 
Q 2688 -1331 1869 -1331 
Q 1566 -1331 1297 -1286 
Q 1028 -1241 775 -1147 
L 775 -588 
Q 1028 -725 1275 -790 
Q 1522 -856 1778 -856 
Q 2344 -856 2625 -561 
Q 2906 -266 2906 331 
L 2906 616 
Q 2728 306 2450 153 
Q 2172 0 1784 0 
Q 1141 0 747 490 
Q 353 981 353 1791 
Q 353 2603 747 3093 
Q 1141 3584 1784 3584 
Q 2172 3584 2450 3431 
Q 2728 3278 2906 2969 
L 2906 3500 
L 3481 3500 
L 3481 434 
z
" transform="scale(0.015625)"/>
       <path id="DejaVuSans-29" d="M 513 4856 
L 1013 4856 
Q 1481 4119 1714 3412 
Q 1947 2706 1947 2009 
Q 1947 1309 1714 600 
Q 1481 -109 1013 -844 
L 513 -844 
Q 928 -128 1133 580 
Q 1338 1288 1338 2009 
Q 1338 2731 1133 3434 
Q 928 4138 513 4856 
z
" transform="scale(0.015625)"/>
      </defs>
      <use xlink:href="#DejaVuSans-63"/>
      <use xlink:href="#DejaVuSans-68" transform="translate(54.980469 0)"/>
      <use xlink:href="#DejaVuSans-72" transform="translate(118.359375 0)"/>
      <use xlink:href="#DejaVuSans-31" transform="translate(159.472656 0)"/>
      <use xlink:href="#DejaVuSans-36" transform="translate(223.095703 0)"/>
      <use xlink:href="#DejaVuSans-20" transform="translate(286.71875 0)"/>
      <use xlink:href="#DejaVuSans-63" transform="translate(318.505859 0)"/>
      <use xlink:href="#DejaVuSans-6f" transform="translate(373.486328 0)"/>
      <use xlink:href="#DejaVuSans-6f" transform="translate(434.667969 0)"/>
      <use xlink:href="#DejaVuSans-72" transform="translate(495.849609 0)"/>
      <use xlink:href="#DejaVuSans-64" transform="translate(535.212891 0)"/>
      <use xlink:href="#DejaVuSans-69" transform="translate(598.689453 0)"/>
      <use xlink:href="#DejaVuSans-6e" transform="translate(626.472656 0)"/>
      <use xlink:href="#DejaVuSans-61" transform="translate(689.851562 0)"/>
      <use xlink:href="#DejaVuSans-74" transform="translate(751.130859 0)"/>
      <use xlink:href="#DejaVuSans-65" transform="translate(790.339844 0)"/>
      <use xlink:href="#DejaVuSans-20" transform="translate(851.863281 0)"/>
      <use xlink:href="#DejaVuSans-28" transform="translate(883.650391 0)"/>
      <use xlink:href="#DejaVuSans-68" transform="translate(922.664062 0)"/>
      <use xlink:href="#DejaVuSans-67" transform="translate(986.042969 0)"/>
      <use xlink:href="#DejaVuSans-33" transform="translate(1049.519531 0)"/>
      <use xlink:href="#DejaVuSans-38" transform="translate(1113.142578 0)"/>
      <use xlink:href="#DejaVuSans-29" transform="translate(1176.765625 0)"/>
     </g>
    </g>
    <g id="text_8">
     <!-- 1e6 -->
     <g transform="translate(906.321875 345.316563) scale(0.1 -0.1)">
      <use xlink:href="#DejaVuSans-31"/>
      <use xlink:href="#DejaVuSans-65" transform="translate(63.623047 0)"/>
      <use xlink:href="#DejaVuSans-36" transform="translate(125.146484 0)"/>
     </g>
    </g>
   </g>
   <g id="matplotlib.axis_2">
    <g id="ytick_1">
     <g id="line2d_7">
      <defs>
       <path id="md73cc05243" d="M 0 0 
L -3.5 0 
" style="stroke: #000000; stroke-width: 0.8"/>
      </defs>
      <g>
       <use xlink:href="#md73cc05243" x="47.72" y="305.843966" style="stroke: #000000; stroke-width: 0.8"/>
      </g>
     </g>
     <g id="text_9">
      <!-- 0.0 -->
      <g transform="translate(24.816875 309.643185) scale(0.1 -0.1)">
       <use xlink:href="#DejaVuSans-30"/>
       <use xlink:href="#DejaVuSans-2e" transform="translate(63.623047 0)"/>
       <use xlink:href="#DejaVuSans-30" transform="translate(95.410156 0)"/>
      </g>
     </g>
    </g>
    <g id="ytick_2">
     <g id="line2d_8">
      <g>
       <use xlink:href="#md73cc05243" x="47.72" y="257.05983" style="stroke: #000000; stroke-width: 0.8"/>
      </g>
     </g>
     <g id="text_10">
      <!-- 0.2 -->
      <g transform="translate(24.816875 260.859048) scale(0.1 -0.1)">
       <use xlink:href="#DejaVuSans-30"/>
       <use xlink:href="#DejaVuSans-2e" transform="translate(63.623047 0)"/>
       <use xlink:href="#DejaVuSans-32" transform="translate(95.410156 0)"/>
      </g>
     </g>
    </g>
    <g id="ytick_3">
     <g id="line2d_9">
      <g>
       <use xlink:href="#md73cc05243" x="47.72" y="208.275693" style="stroke: #000000; stroke-width: 0.8"/>
      </g>
     </g>
     <g id="text_11">
      <!-- 0.4 -->
      <g transform="translate(24.816875 212.074912) scale(0.1 -0.1)">
       <use xlink:href="#DejaVuSans-30"/>
       <use xlink:href="#DejaVuSans-2e" transform="translate(63.623047 0)"/>
       <use xlink:href="#DejaVuSans-34" transform="translate(95.410156 0)"/>
      </g>
     </g>
    </g>
    <g id="ytick_4">
     <g id="line2d_10">
      <g>
       <use xlink:href="#md73cc05243" x="47.72" y="159.491557" style="stroke: #000000; stroke-width: 0.8"/>
      </g>
     </g>
     <g id="text_12">
      <!-- 0.6 -->
      <g transform="translate(24.816875 163.290776) scale(0.1 -0.1)">
       <use xlink:href="#DejaVuSans-30"/>
       <use xlink:href="#DejaVuSans-2e" transform="translate(63.623047 0)"/>
       <use xlink:href="#DejaVuSans-36" transform="translate(95.410156 0)"/>
      </g>
     </g>
    </g>
    <g id="ytick_5">
     <g id="line2d_11">
      <g>
       <use xlink:href="#md73cc05243" x="47.72" y="110.70742" style="stroke: #000000; stroke-width: 0.8"/>
      </g>
     </g>
     <g id="text_13">
      <!-- 0.8 -->
      <g transform="translate(24.816875 114.506639) scale(0.1 -0.1)">
       <use xlink:href="#DejaVuSans-30"/>
       <use xlink:href="#DejaVuSans-2e" transform="translate(63.623047 0)"/>
       <use xlink:href="#DejaVuSans-38" transform="translate(95.410156 0)"/>
      </g>
     </g>
    </g>
    <g id="ytick_6">
     <g id="line2d_12">
      <g>
       <use xlink:href="#md73cc05243" x="47.72" y="61.923284" style="stroke: #000000; stroke-width: 0.8"/>
      </g>
     </g>
     <g id="text_14">
      <!-- 1.0 -->
      <g transform="translate(24.816875 65.722503) scale(0.1 -0.1)">
       <use xlink:href="#DejaVuSans-31"/>
       <use xlink:href="#DejaVuSans-2e" transform="translate(63.623047 0)"/>
       <use xlink:href="#DejaVuSans-30" transform="translate(95.410156 0)"/>
      </g>
     </g>
    </g>
    <g id="text_15">
     <!-- global robust normalized signal -->
     <g transform="translate(18.737188 262.384406) rotate(-90) scale(0.1 -0.1)">
      <defs>
       <path id="DejaVuSans-6c" d="M 603 4863 
L 1178 4863 
L 1178 0 
L 603 0 
L 603 4863 
z
" transform="scale(0.015625)"/>
       <path id="DejaVuSans-62" d="M 3116 1747 
Q 3116 2381 2855 2742 
Q 2594 3103 2138 3103 
Q 1681 3103 1420 2742 
Q 1159 2381 1159 1747 
Q 1159 1113 1420 752 
Q 1681 391 2138 391 
Q 2594 391 2855 752 
Q 3116 1113 3116 1747 
z
M 1159 2969 
Q 1341 3281 1617 3432 
Q 1894 3584 2278 3584 
Q 2916 3584 3314 3078 
Q 3713 2572 3713 1747 
Q 3713 922 3314 415 
Q 2916 -91 2278 -91 
Q 1894 -91 1617 61 
Q 1341 213 1159 525 
L 1159 0 
L 581 0 
L 581 4863 
L 1159 4863 
L 1159 2969 
z
" transform="scale(0.015625)"/>
       <path id="DejaVuSans-75" d="M 544 1381 
L 544 3500 
L 1119 3500 
L 1119 1403 
Q 1119 906 1312 657 
Q 1506 409 1894 409 
Q 2359 409 2629 706 
Q 2900 1003 2900 1516 
L 2900 3500 
L 3475 3500 
L 3475 0 
L 2900 0 
L 2900 538 
Q 2691 219 2414 64 
Q 2138 -91 1772 -91 
Q 1169 -91 856 284 
Q 544 659 544 1381 
z
M 1991 3584 
L 1991 3584 
z
" transform="scale(0.015625)"/>
       <path id="DejaVuSans-73" d="M 2834 3397 
L 2834 2853 
Q 2591 2978 2328 3040 
Q 2066 3103 1784 3103 
Q 1356 3103 1142 2972 
Q 928 2841 928 2578 
Q 928 2378 1081 2264 
Q 1234 2150 1697 2047 
L 1894 2003 
Q 2506 1872 2764 1633 
Q 3022 1394 3022 966 
Q 3022 478 2636 193 
Q 2250 -91 1575 -91 
Q 1294 -91 989 -36 
Q 684 19 347 128 
L 347 722 
Q 666 556 975 473 
Q 1284 391 1588 391 
Q 1994 391 2212 530 
Q 2431 669 2431 922 
Q 2431 1156 2273 1281 
Q 2116 1406 1581 1522 
L 1381 1569 
Q 847 1681 609 1914 
Q 372 2147 372 2553 
Q 372 3047 722 3315 
Q 1072 3584 1716 3584 
Q 2034 3584 2315 3537 
Q 2597 3491 2834 3397 
z
" transform="scale(0.015625)"/>
       <path id="DejaVuSans-6d" d="M 3328 2828 
Q 3544 3216 3844 3400 
Q 4144 3584 4550 3584 
Q 5097 3584 5394 3201 
Q 5691 2819 5691 2113 
L 5691 0 
L 5113 0 
L 5113 2094 
Q 5113 2597 4934 2840 
Q 4756 3084 4391 3084 
Q 3944 3084 3684 2787 
Q 3425 2491 3425 1978 
L 3425 0 
L 2847 0 
L 2847 2094 
Q 2847 2600 2669 2842 
Q 2491 3084 2119 3084 
Q 1678 3084 1418 2786 
Q 1159 2488 1159 1978 
L 1159 0 
L 581 0 
L 581 3500 
L 1159 3500 
L 1159 2956 
Q 1356 3278 1631 3431 
Q 1906 3584 2284 3584 
Q 2666 3584 2933 3390 
Q 3200 3197 3328 2828 
z
" transform="scale(0.015625)"/>
       <path id="DejaVuSans-7a" d="M 353 3500 
L 3084 3500 
L 3084 2975 
L 922 459 
L 3084 459 
L 3084 0 
L 275 0 
L 275 525 
L 2438 3041 
L 353 3041 
L 353 3500 
z
" transform="scale(0.015625)"/>
      </defs>
      <use xlink:href="#DejaVuSans-67"/>
      <use xlink:href="#DejaVuSans-6c" transform="translate(63.476562 0)"/>
      <use xlink:href="#DejaVuSans-6f" transform="translate(91.259766 0)"/>
      <use xlink:href="#DejaVuSans-62" transform="translate(152.441406 0)"/>
      <use xlink:href="#DejaVuSans-61" transform="translate(215.917969 0)"/>
      <use xlink:href="#DejaVuSans-6c" transform="translate(277.197266 0)"/>
      <use xlink:href="#DejaVuSans-20" transform="translate(304.980469 0)"/>
      <use xlink:href="#DejaVuSans-72" transform="translate(336.767578 0)"/>
      <use xlink:href="#DejaVuSans-6f" transform="translate(375.630859 0)"/>
      <use xlink:href="#DejaVuSans-62" transform="translate(436.8125 0)"/>
      <use xlink:href="#DejaVuSans-75" transform="translate(500.289062 0)"/>
      <use xlink:href="#DejaVuSans-73" transform="translate(563.667969 0)"/>
      <use xlink:href="#DejaVuSans-74" transform="translate(615.767578 0)"/>
      <use xlink:href="#DejaVuSans-20" transform="translate(654.976562 0)"/>
      <use xlink:href="#DejaVuSans-6e" transform="translate(686.763672 0)"/>
      <use xlink:href="#DejaVuSans-6f" transform="translate(750.142578 0)"/>
      <use xlink:href="#DejaVuSans-72" transform="translate(811.324219 0)"/>
      <use xlink:href="#DejaVuSans-6d" transform="translate(850.6875 0)"/>
      <use xlink:href="#DejaVuSans-61" transform="translate(948.099609 0)"/>
      <use xlink:href="#DejaVuSans-6c" transform="translate(1009.378906 0)"/>
      <use xlink:href="#DejaVuSans-69" transform="translate(1037.162109 0)"/>
      <use xlink:href="#DejaVuSans-7a" transform="translate(1064.945312 0)"/>
      <use xlink:href="#DejaVuSans-65" transform="translate(1117.435547 0)"/>
      <use xlink:href="#DejaVuSans-64" transform="translate(1178.958984 0)"/>
      <use xlink:href="#DejaVuSans-20" transform="translate(1242.435547 0)"/>
      <use xlink:href="#DejaVuSans-73" transform="translate(1274.222656 0)"/>
      <use xlink:href="#DejaVuSans-69" transform="translate(1326.322266 0)"/>
      <use xlink:href="#DejaVuSans-67" transform="translate(1354.105469 0)"/>
      <use xlink:href="#DejaVuSans-6e" transform="translate(1417.582031 0)"/>
      <use xlink:href="#DejaVuSans-61" transform="translate(1480.960938 0)"/>
      <use xlink:href="#DejaVuSans-6c" transform="translate(1542.240234 0)"/>
     </g>
    </g>
   </g>
   <g id="line2d_13">
    <path d="M 87.605455 299.281228 
L 89.20407 299.118858 
L 90.802685 296.424795 
L 92.401301 286.822113 
L 93.999916 280.096644 
L 95.598532 286.882655 
L 97.197147 272.161565 
L 98.795762 290.693574 
L 100.394378 301.081295 
L 101.992993 302.336072 
L 103.591609 302.414298 
L 105.190224 303.433669 
L 108.387455 301.667341 
L 109.98607 300.248007 
L 111.584686 302.688828 
L 113.183301 298.751099 
L 114.781917 300.373805 
L 116.380532 300.490397 
L 117.979147 303.860544 
L 119.577763 301.632746 
L 121.176378 304.914796 
L 122.774994 305.843966 
L 124.373609 305.466024 
L 125.972224 301.310816 
L 127.57084 302.811377 
L 129.169455 301.9379 
L 130.768071 300.496956 
L 132.366686 303.740283 
L 133.965302 302.62514 
L 135.563917 304.568397 
L 137.162532 304.211296 
L 138.761148 304.071476 
L 140.359763 302.368669 
L 141.958379 303.968781 
L 143.556994 305.843966 
L 145.155609 301.226833 
L 146.754225 300.598179 
L 148.35284 301.122195 
L 149.951456 301.010342 
L 151.550071 292.720928 
L 153.148686 286.162754 
L 154.747302 235.762562 
L 156.345917 112.309644 
L 157.944533 146.849164 
L 159.543148 261.391787 
L 161.141764 228.950245 
L 162.740379 243.723284 
L 164.338994 150.746021 
L 165.93761 64.284004 
L 167.536225 61.923284 
L 170.733456 61.923284 
L 172.332071 72.860409 
L 173.930687 108.878484 
L 175.529302 171.238904 
L 177.127918 216.501673 
L 180.325148 274.04382 
L 181.923764 278.986119 
L 183.522379 296.223434 
L 185.120995 297.303056 
L 186.71961 293.781121 
L 188.318226 292.651004 
L 189.916841 294.461723 
L 191.515456 294.121413 
L 193.114072 300.022437 
L 194.712687 297.960482 
L 196.311303 299.407058 
L 197.909918 297.964074 
L 199.508533 302.668895 
L 201.107149 302.076914 
L 202.705764 299.508349 
L 204.30438 299.734781 
L 205.902995 299.153294 
L 207.50161 299.535523 
L 209.100226 299.520056 
L 210.698841 299.991347 
L 212.297457 300.654211 
L 213.896072 304.441041 
L 215.494688 302.634958 
L 217.093303 301.235392 
L 218.691918 300.971852 
L 220.290534 301.165338 
L 221.889149 295.20251 
L 223.487765 299.622502 
L 225.08638 300.452048 
L 226.684995 301.811605 
L 228.283611 299.077082 
L 229.882226 299.084577 
L 231.480842 301.483326 
L 233.079457 300.025974 
L 234.678073 300.722165 
L 236.276688 300.389846 
L 237.875303 302.628522 
L 239.473919 302.206046 
L 241.072534 300.676739 
L 242.67115 297.251534 
L 244.269765 302.987316 
L 245.86838 301.511801 
L 247.466996 302.840806 
L 249.065611 300.798923 
L 250.664227 304.642501 
L 252.262842 299.96184 
L 253.861457 301.156778 
L 255.460073 301.734917 
L 257.058688 298.683188 
L 258.657304 301.409669 
L 260.255919 300.073854 
L 261.854535 303.240746 
L 263.45315 303.329402 
L 265.051765 299.695708 
L 266.650381 301.074183 
L 268.248996 296.146098 
L 269.847612 300.580135 
L 271.446227 303.074809 
L 273.044842 302.342884 
L 274.643458 298.768578 
L 276.242073 300.637363 
L 277.840689 304.29602 
L 279.439304 300.50544 
L 281.037919 297.843234 
L 282.636535 301.852351 
L 285.833766 303.880617 
L 287.432381 298.746144 
L 289.030997 301.015633 
L 290.629612 302.794496 
L 292.228227 305.843966 
L 293.826843 303.274947 
L 295.425458 298.352388 
L 297.024074 303.343207 
L 298.622689 300.281261 
L 300.221304 300.262395 
L 301.81992 297.740916 
L 303.418535 300.941982 
L 306.615766 301.342485 
L 308.214381 301.122625 
L 309.812997 300.099851 
L 311.411612 304.419114 
L 313.010228 303.962627 
L 314.608843 304.861852 
L 316.207459 303.196219 
L 317.806074 300.412527 
L 319.404689 299.719496 
L 321.003305 303.615185 
L 322.60192 303.11062 
L 324.200536 303.328819 
L 325.799151 301.901226 
L 327.397766 296.614304 
L 328.996382 302.174605 
L 332.193613 297.103098 
L 333.792228 299.96745 
L 335.390844 298.09152 
L 336.989459 299.106764 
L 338.588074 302.645472 
L 340.18669 291.976156 
L 341.785305 294.707734 
L 343.383921 292.601832 
L 344.982536 298.731623 
L 346.581151 297.036284 
L 348.179767 297.339432 
L 349.778382 297.353671 
L 351.376998 271.848661 
L 352.975613 195.194957 
L 354.574228 168.083958 
L 356.172844 194.820899 
L 357.771459 182.01158 
L 359.370075 237.846492 
L 360.96869 256.391906 
L 362.567306 281.2609 
L 364.165921 295.971109 
L 365.764536 296.617545 
L 367.363152 299.703879 
L 368.961767 296.06666 
L 370.560383 299.118343 
L 372.158998 297.751816 
L 373.757613 299.320044 
L 375.356229 299.16929 
L 376.954844 297.488607 
L 378.55346 302.634021 
L 380.152075 302.725535 
L 381.75069 302.097795 
L 383.349306 303.488891 
L 384.947921 301.502809 
L 386.546537 300.55189 
L 388.145152 296.993736 
L 389.743768 301.131826 
L 391.342383 300.007233 
L 392.940998 299.902381 
L 394.539614 292.443678 
L 396.138229 294.489561 
L 397.736845 298.183337 
L 399.33546 302.795092 
L 400.934075 305.241522 
L 402.532691 298.310587 
L 404.131306 303.318988 
L 405.729922 302.391045 
L 407.328537 302.708874 
L 410.525768 303.898262 
L 412.124383 301.420753 
L 413.722999 301.840715 
L 415.321614 303.853123 
L 416.92023 302.911489 
L 418.518845 303.728607 
L 420.11746 301.428523 
L 421.716076 298.329577 
L 423.314691 296.963426 
L 424.913307 295.325607 
L 426.511922 290.950129 
L 428.110537 282.301605 
L 429.709153 277.666961 
L 431.307768 296.568963 
L 432.906384 300.910849 
L 434.504999 286.770878 
L 436.103615 288.867559 
L 437.70223 296.054659 
L 439.300845 296.127878 
L 440.899461 301.678035 
L 442.498076 302.375122 
L 444.096692 302.127788 
L 445.695307 300.568072 
L 447.293922 301.825474 
L 448.892538 303.269776 
L 450.491153 303.196823 
L 452.089769 305.843966 
L 453.688384 303.41569 
L 455.286999 300.423991 
L 456.885615 300.336389 
L 458.48423 300.693654 
L 460.082846 298.01995 
L 461.681461 297.600987 
L 463.280077 295.243138 
L 464.878692 300.175975 
L 466.477307 303.146389 
L 468.075923 303.109334 
L 469.674538 302.440918 
L 471.273154 301.072932 
L 472.871769 298.546911 
L 474.470384 302.41292 
L 476.069 300.130933 
L 479.266231 303.033245 
L 480.864846 300.406729 
L 482.463461 296.902463 
L 484.062077 300.943615 
L 485.660692 298.089636 
L 487.259308 293.754424 
L 488.857923 296.639765 
L 490.456539 289.567963 
L 492.055154 286.307778 
L 493.653769 267.331999 
L 495.252385 190.731328 
L 496.851 61.923284 
L 500.048231 61.923284 
L 501.646846 199.315924 
L 503.245462 91.464357 
L 504.844077 74.441717 
L 506.442693 187.815452 
L 508.041308 241.390156 
L 509.639923 279.688686 
L 511.238539 293.897604 
L 512.837154 296.562591 
L 514.43577 303.182839 
L 516.034385 301.948657 
L 517.633001 298.493628 
L 519.231616 299.606845 
L 520.830231 301.054657 
L 522.428847 304.441818 
L 524.027462 300.584302 
L 525.626078 297.711464 
L 528.823308 303.647718 
L 530.421924 301.211025 
L 532.020539 302.511717 
L 533.619155 300.464034 
L 535.21777 300.78549 
L 536.816385 299.238946 
L 538.415001 302.062908 
L 540.013616 297.299456 
L 541.612232 301.048691 
L 543.210847 298.024975 
L 544.809463 295.929706 
L 546.408078 300.280549 
L 548.006693 300.225556 
L 549.605309 297.086174 
L 551.203924 298.8946 
L 552.80254 290.437714 
L 554.401155 292.040638 
L 555.99977 298.421989 
L 557.598386 303.04024 
L 559.197001 302.125071 
L 560.795617 301.619838 
L 562.394232 303.643236 
L 563.992848 301.947618 
L 565.591463 300.438362 
L 567.190078 296.89377 
L 568.788694 298.497306 
L 570.387309 298.731785 
L 571.985925 300.132191 
L 573.58454 300.293699 
L 575.183155 302.218143 
L 576.781771 304.700527 
L 578.380386 304.806032 
L 579.979002 301.954684 
L 581.577617 300.630177 
L 584.774848 302.464193 
L 586.373463 301.637893 
L 587.972079 297.39633 
L 589.570694 295.604047 
L 591.16931 299.248153 
L 592.767925 300.467035 
L 594.36654 297.871577 
L 595.965156 297.600243 
L 597.563771 297.644166 
L 599.162387 298.44207 
L 600.761002 298.53335 
L 602.359617 300.004794 
L 603.958233 296.471871 
L 605.556848 297.830636 
L 607.155464 302.992949 
L 608.754079 301.178082 
L 610.352694 301.577877 
L 611.95131 303.937321 
L 613.549925 304.535209 
L 615.148541 301.406794 
L 616.747156 299.338697 
L 618.345772 301.520216 
L 619.944387 304.085027 
L 621.543002 304.212326 
L 623.141618 300.612397 
L 624.740233 301.574079 
L 626.338849 304.008057 
L 627.937464 300.586236 
L 629.536079 299.327603 
L 631.134695 298.908239 
L 632.73331 303.58718 
L 634.331926 305.654875 
L 635.930541 302.440471 
L 637.529156 297.682494 
L 639.127772 296.999744 
L 640.726387 302.790854 
L 642.325003 301.183996 
L 645.522234 300.437181 
L 647.120849 299.335844 
L 648.719464 295.139117 
L 650.31808 297.685198 
L 651.916695 296.079202 
L 653.515311 304.081249 
L 655.113926 304.160623 
L 656.712541 300.914522 
L 658.311157 296.223241 
L 659.909772 295.475456 
L 661.508388 301.915919 
L 663.107003 304.288617 
L 664.705619 296.566959 
L 666.304234 299.323607 
L 667.902849 303.068727 
L 669.501465 305.843966 
L 677.494542 305.843966 
L 679.093157 304.947364 
L 680.691773 302.890916 
L 682.290388 303.206672 
L 683.889003 297.758272 
L 685.487619 293.563941 
L 687.086234 294.115092 
L 688.68485 296.551391 
L 690.283465 297.147156 
L 691.882081 297.360607 
L 693.480696 299.798906 
L 695.079311 299.375326 
L 696.677927 301.196234 
L 699.875158 294.217763 
L 701.473773 290.994885 
L 703.072388 293.499193 
L 704.671004 260.816878 
L 706.269619 247.315287 
L 707.868235 251.938992 
L 709.46685 233.471845 
L 711.065465 173.683926 
L 712.664081 135.292135 
L 714.262696 147.290192 
L 715.861312 72.716743 
L 717.459927 89.730495 
L 719.058543 61.923284 
L 722.255773 61.923284 
L 723.854389 194.793225 
L 725.453004 94.700353 
L 728.650235 280.185877 
L 730.24885 297.852277 
L 731.847466 300.182816 
L 733.446081 297.17917 
L 735.044697 298.923425 
L 736.643312 295.010581 
L 738.241927 300.109253 
L 739.840543 301.718901 
L 741.439158 302.336415 
L 743.037774 303.285275 
L 744.636389 303.317355 
L 746.235005 303.533033 
L 747.83362 303.996161 
L 749.432235 303.334281 
L 751.030851 304.935158 
L 752.629466 302.062305 
L 754.228082 300.118193 
L 755.826697 303.751854 
L 757.425312 302.593541 
L 759.023928 303.022542 
L 760.622543 303.142733 
L 762.221159 302.275805 
L 763.819774 304.325203 
L 765.41839 299.622513 
L 767.017005 301.047956 
L 768.61562 304.82142 
L 770.214236 304.819273 
L 771.812851 302.885767 
L 773.411467 302.552835 
L 775.010082 301.780104 
L 776.608697 305.599995 
L 778.207313 302.092829 
L 779.805928 302.696645 
L 781.404544 304.044653 
L 783.003159 303.038219 
L 784.601774 301.495057 
L 786.20039 301.165672 
L 787.799005 303.472594 
L 789.397621 303.667533 
L 790.996236 304.329551 
L 792.594852 301.126499 
L 794.193467 302.531968 
L 795.792082 303.73966 
L 797.390698 303.916546 
L 798.989313 298.405658 
L 800.587929 298.225924 
L 802.186544 300.222495 
L 803.785159 298.00341 
L 805.383775 301.779181 
L 806.98239 303.388669 
L 808.581006 302.886692 
L 810.179621 300.884999 
L 811.778236 299.509097 
L 814.975467 304.24757 
L 816.574083 303.329468 
L 818.172698 303.97616 
L 819.771314 303.964919 
L 821.369929 304.86144 
L 822.968544 302.638184 
L 824.56716 302.511042 
L 826.165775 305.843966 
L 827.764391 300.354524 
L 829.363006 296.184731 
L 830.961621 301.854937 
L 832.560237 304.5143 
L 835.757468 303.160198 
L 837.356083 302.813627 
L 838.954698 305.29524 
L 840.553314 305.484908 
L 842.151929 302.568578 
L 843.750545 300.779104 
L 845.34916 302.385676 
L 846.947776 301.244975 
L 848.546391 297.92075 
L 850.145006 299.86648 
L 851.743622 300.406702 
L 853.342237 303.825262 
L 854.940853 300.835646 
L 856.539468 302.995536 
L 858.138083 302.966463 
L 859.736699 302.409979 
L 861.335314 302.916259 
L 862.93393 305.843966 
L 864.532545 303.526169 
L 866.131161 305.539012 
L 867.729776 305.843966 
L 869.328391 304.551641 
L 870.927007 298.757886 
L 872.525622 298.454812 
L 874.124238 296.794946 
L 875.722853 301.586552 
L 877.321468 303.215121 
L 878.920084 300.75091 
L 880.518699 299.209605 
L 882.117315 298.560225 
L 883.71593 304.354678 
L 885.314545 302.745697 
L 885.314545 302.745697 
" clip-path="url(#paf19d4bf94)" style="fill: none; stroke: #2ca02c; stroke-width: 1.2; stroke-linecap: square"/>
   </g>
   <g id="line2d_14">
    <path d="M 87.605455 294.939328 
L 89.20407 295.699163 
L 90.802685 293.367255 
L 92.401301 283.476296 
L 93.999916 274.423777 
L 95.598532 276.716383 
L 97.197147 271.227229 
L 98.795762 289.201262 
L 100.394378 299.380433 
L 101.992993 301.921951 
L 103.591609 303.326173 
L 105.190224 303.69954 
L 106.788839 303.137033 
L 108.387455 301.487994 
L 109.98607 298.55182 
L 111.584686 295.250467 
L 113.183301 295.938249 
L 114.781917 296.219912 
L 116.380532 286.384631 
L 117.979147 287.078963 
L 119.577763 291.254782 
L 121.176378 293.174021 
L 122.774994 297.913165 
L 124.373609 301.476531 
L 125.972224 302.746471 
L 127.57084 303.245931 
L 129.169455 302.883208 
L 130.768071 302.843906 
L 132.366686 302.413224 
L 133.965302 302.416499 
L 135.563917 302.254379 
L 137.162532 302.49019 
L 140.359763 302.401761 
L 141.958379 303.407233 
L 143.556994 303.184522 
L 145.155609 301.447054 
L 146.754225 301.201418 
L 148.35284 301.581335 
L 149.951456 301.188317 
L 151.550071 299.940484 
L 153.148686 295.040857 
L 154.747302 257.700852 
L 156.345917 195.603975 
L 157.944533 178.966204 
L 159.543148 227.386047 
L 161.141764 154.834885 
L 162.740379 175.114625 
L 164.338994 115.428259 
L 165.93761 68.737696 
L 167.536225 61.923284 
L 169.134841 71.41022 
L 170.733456 129.734122 
L 172.332071 172.180089 
L 173.930687 211.246099 
L 175.529302 246.250922 
L 177.127918 264.840683 
L 178.726533 275.766589 
L 180.325148 285.883533 
L 181.923764 291.64125 
L 183.522379 295.787592 
L 185.120995 297.503771 
L 186.71961 298.401163 
L 188.318226 298.682826 
L 189.916841 299.549104 
L 191.515456 300.567676 
L 193.114072 302.540955 
L 194.712687 303.028952 
L 196.311303 302.270755 
L 197.909918 301.989092 
L 199.508533 301.822059 
L 201.107149 302.26748 
L 202.705764 302.313332 
L 204.30438 302.640847 
L 207.50161 302.819343 
L 209.100226 303.543151 
L 210.698841 303.302428 
L 212.297457 302.794779 
L 215.494688 302.906134 
L 218.691918 302.516391 
L 223.487765 302.758752 
L 225.08638 302.519666 
L 226.684995 302.486915 
L 228.283611 302.843906 
L 229.882226 303.027315 
L 231.480842 302.997839 
L 234.678073 302.585169 
L 236.276688 302.965087 
L 241.072534 303.393313 
L 244.269765 303.177972 
L 245.86838 302.92251 
L 249.065611 302.92251 
L 250.664227 302.92251 
L 253.861457 303.2402 
L 257.058688 302.925785 
L 258.657304 303.210723 
L 260.255919 303.073167 
L 261.854535 302.637572 
L 263.45315 302.732551 
L 265.051765 303.99021 
L 266.650381 303.331904 
L 268.248996 302.447613 
L 269.847612 303.260669 
L 271.446227 304.613307 
L 273.044842 303.785513 
L 274.643458 303.102643 
L 277.840689 303.276226 
L 279.439304 303.012577 
L 284.23515 303.012577 
L 285.833766 303.312253 
L 287.432381 303.176334 
L 290.629612 302.527854 
L 292.228227 302.513116 
L 295.425458 302.91596 
L 297.024074 302.726001 
L 298.622689 302.676874 
L 300.221304 302.794779 
L 301.81992 302.784954 
L 305.017151 303.254119 
L 306.615766 303.904237 
L 308.214381 304.230933 
L 309.812997 304.055713 
L 311.411612 304.202276 
L 313.010228 304.585468 
L 314.608843 304.55763 
L 316.207459 304.17935 
L 317.806074 304.437268 
L 321.003305 303.896868 
L 322.60192 303.986934 
L 324.200536 303.575084 
L 325.799151 303.394951 
L 327.397766 302.036582 
L 328.996382 300.92303 
L 330.594997 300.148457 
L 332.193613 300.643004 
L 336.989459 296.626031 
L 338.588074 290.678355 
L 340.18669 282.140035 
L 341.785305 285.375884 
L 343.383921 279.44786 
L 344.982536 287.072413 
L 346.581151 293.177296 
L 348.179767 294.12054 
L 349.778382 289.312617 
L 351.376998 273.487084 
L 352.975613 239.857825 
L 354.574228 219.263671 
L 356.172844 190.678146 
L 357.771459 182.241355 
L 359.370075 222.827036 
L 360.96869 240.067435 
L 362.567306 262.744586 
L 364.165921 280.705518 
L 365.764536 292.712224 
L 367.363152 297.959018 
L 368.961767 299.721049 
L 370.560383 300.186121 
L 372.158998 300.053477 
L 375.356229 300.343328 
L 376.954844 300.769098 
L 380.152075 301.234169 
L 381.75069 301.655026 
L 383.349306 302.870108 
L 384.947921 303.5104 
L 388.145152 300.796937 
L 389.743768 300.75436 
L 391.342383 299.930659 
L 394.539614 300.171383 
L 396.138229 300.688857 
L 397.736845 302.008743 
L 399.33546 302.644122 
L 400.934075 302.942161 
L 402.532691 303.986934 
L 405.729922 305.783355 
L 407.328537 305.843966 
L 408.927152 305.676503 
L 410.525768 304.869588 
L 412.124383 304.517509 
L 413.722999 304.42908 
L 415.321614 304.80081 
L 418.518845 304.464288 
L 420.11746 304.289886 
L 423.314691 302.509841 
L 424.913307 299.172461 
L 426.511922 290.982944 
L 428.110537 270.847311 
L 429.709153 259.882103 
L 431.307768 286.207773 
L 432.906384 287.917402 
L 434.504999 264.814482 
L 436.103615 278.062471 
L 437.70223 293.187121 
L 439.300845 300.295838 
L 440.899461 302.647397 
L 442.498076 303.616842 
L 444.096692 304.078639 
L 447.293922 303.964008 
L 448.892538 304.463878 
L 450.491153 305.843966 
L 452.089769 305.843966 
L 453.688384 304.972755 
L 455.286999 304.940822 
L 456.885615 304.757414 
L 458.48423 304.833561 
L 460.082846 304.704193 
L 461.681461 304.21292 
L 466.477307 304.474113 
L 468.075923 304.607576 
L 469.674538 305.092298 
L 474.470384 304.528153 
L 477.667615 303.643862 
L 479.266231 303.47683 
L 480.864846 302.883208 
L 482.463461 302.611371 
L 484.062077 302.467264 
L 485.660692 301.897388 
L 487.259308 299.973236 
L 488.857923 299.056193 
L 490.456539 293.914205 
L 492.055154 286.02764 
L 493.653769 268.508853 
L 495.252385 209.870536 
L 496.851 105.995822 
L 498.449616 61.923284 
L 500.048231 61.923284 
L 501.646846 127.74283 
L 503.245462 61.923284 
L 504.844077 61.923284 
L 506.442693 118.729612 
L 508.041308 209.490618 
L 509.639923 268.404048 
L 511.238539 291.854135 
L 512.837154 295.820343 
L 514.43577 297.552899 
L 516.034385 298.826933 
L 517.633001 299.616244 
L 522.428847 302.611371 
L 524.027462 302.847182 
L 525.626078 303.396588 
L 527.224693 304.359483 
L 530.421924 303.385944 
L 532.020539 303.89523 
L 533.619155 304.101565 
L 535.21777 304.105659 
L 538.415001 303.679889 
L 540.013616 303.711003 
L 541.612232 303.924707 
L 544.809463 302.157762 
L 546.408078 302.660498 
L 548.006693 302.545868 
L 549.605309 299.09877 
L 551.203924 298.013058 
L 552.80254 298.501055 
L 554.401155 298.198104 
L 555.99977 298.76143 
L 557.598386 300.919755 
L 559.197001 302.187238 
L 560.795617 302.48364 
L 562.394232 302.215077 
L 563.992848 302.817705 
L 565.591463 302.968362 
L 567.190078 302.768578 
L 570.387309 303.26722 
L 571.985925 303.350736 
L 573.58454 303.086268 
L 575.183155 303.276226 
L 576.781771 304.153148 
L 578.380386 305.358404 
L 579.979002 304.370946 
L 581.577617 303.630762 
L 583.176232 303.682345 
L 586.373463 302.716176 
L 587.972079 302.139749 
L 591.16931 301.671402 
L 592.767925 301.299672 
L 594.36654 301.830247 
L 595.965156 301.730355 
L 597.563771 300.777286 
L 599.162387 301.57151 
L 600.761002 302.088984 
L 602.359617 302.773491 
L 607.155464 304.274329 
L 608.754079 303.403957 
L 610.352694 302.758752 
L 611.95131 303.268039 
L 613.549925 302.943799 
L 616.747156 303.827271 
L 618.345772 303.821539 
L 619.944387 303.626668 
L 621.543002 303.754399 
L 623.141618 303.711822 
L 624.740233 304.220289 
L 626.338849 305.712121 
L 627.937464 304.727937 
L 629.536079 303.434253 
L 631.134695 303.166509 
L 632.73331 304.743494 
L 634.331926 305.843966 
L 637.529156 302.665411 
L 640.726387 304.267779 
L 643.923618 303.978747 
L 645.522234 303.230374 
L 648.719464 302.735826 
L 650.31808 302.750565 
L 651.916695 302.491828 
L 653.515311 304.256316 
L 655.113926 304.130222 
L 656.712541 302.627746 
L 659.909772 302.947892 
L 663.107003 304.671441 
L 664.705619 303.680708 
L 666.304234 302.925785 
L 667.902849 303.559527 
L 669.501465 305.843966 
L 679.093157 305.843966 
L 680.691773 302.545868 
L 682.290388 301.903938 
L 683.889003 301.638651 
L 687.086234 302.141386 
L 688.68485 302.680149 
L 690.283465 301.828609 
L 691.882081 300.762547 
L 693.480696 300.523461 
L 695.079311 301.972716 
L 696.677927 301.520745 
L 699.875158 298.242318 
L 701.473773 299.205213 
L 703.072388 298.609135 
L 704.671004 295.014656 
L 707.868235 282.952272 
L 709.46685 274.338623 
L 711.065465 261.342821 
L 712.664081 244.49544 
L 714.262696 213.027782 
L 717.459927 134.502743 
L 719.058543 137.751694 
L 720.657158 61.923284 
L 722.255773 61.923284 
L 723.854389 206.621585 
L 725.453004 231.014915 
L 727.05162 262.580828 
L 728.650235 291.389063 
L 730.24885 297.911528 
L 731.847466 301.99728 
L 733.446081 303.194348 
L 735.044697 302.822618 
L 736.643312 303.489111 
L 738.241927 303.757674 
L 739.840543 303.258213 
L 741.439158 303.071529 
L 744.636389 303.803526 
L 746.235005 304.099108 
L 749.432235 305.464847 
L 751.030851 305.569651 
L 754.228082 304.548623 
L 755.826697 304.789347 
L 757.425312 304.797534 
L 763.819774 304.263685 
L 765.41839 304.331644 
L 767.017005 304.208826 
L 768.61562 303.923069 
L 770.214236 304.465107 
L 771.812851 304.17198 
L 773.411467 304.000035 
L 775.010082 304.428261 
L 776.608697 305.255237 
L 778.207313 304.863037 
L 779.805928 304.352114 
L 781.404544 304.671441 
L 783.003159 305.108674 
L 786.20039 304.872863 
L 787.799005 305.307639 
L 789.397621 305.284713 
L 790.996236 304.949829 
L 792.594852 304.967842 
L 794.193467 304.727937 
L 798.989313 304.428261 
L 802.186544 304.115484 
L 803.785159 304.068813 
L 805.383775 304.507684 
L 806.98239 304.640327 
L 808.581006 304.641965 
L 810.179621 304.392234 
L 813.376852 304.748407 
L 814.975467 305.206928 
L 818.172698 303.99021 
L 819.771314 304.671441 
L 821.369929 305.067734 
L 822.968544 304.239121 
L 824.56716 304.095014 
L 826.165775 304.917896 
L 827.764391 305.166808 
L 829.363006 304.379953 
L 830.961621 304.342288 
L 834.158852 304.936728 
L 835.757468 304.725481 
L 837.356083 304.828648 
L 838.954698 304.48967 
L 843.750545 304.398785 
L 845.34916 304.845843 
L 846.947776 305.142244 
L 848.546391 305.229036 
L 851.743622 304.055713 
L 853.342237 304.20637 
L 856.539468 304.162974 
L 858.138083 304.214557 
L 859.736699 304.633777 
L 861.335314 304.22602 
L 862.93393 304.134316 
L 864.532545 305.148385 
L 866.131161 305.843966 
L 867.729776 305.843966 
L 869.328391 305.658081 
L 870.927007 304.519147 
L 872.525622 304.034424 
L 875.722853 304.666528 
L 880.518699 304.953104 
L 882.117315 304.736944 
L 885.314545 304.191631 
L 885.314545 304.191631 
" clip-path="url(#paf19d4bf94)" style="fill: none; stroke: #000000; stroke-width: 1.2; stroke-linecap: square"/>
   </g>
   <g id="line2d_15">
    <path d="M 87.605455 273.522363 
L 89.20407 275.105486 
L 90.802685 269.615018 
L 92.401301 226.525365 
L 93.999916 208.217452 
L 95.598532 79.736372 
L 97.197147 191.457532 
L 98.795762 239.295728 
L 100.394378 255.480218 
L 101.992993 256.159833 
L 103.591609 267.837325 
L 105.190224 265.343885 
L 106.788839 263.770624 
L 108.387455 277.373803 
L 109.98607 266.142409 
L 111.584686 263.654739 
L 113.183301 254.046719 
L 114.781917 202.609518 
L 116.380532 224.245407 
L 117.979147 252.949898 
L 119.577763 260.050388 
L 121.176378 251.539296 
L 122.774994 241.188273 
L 124.373609 268.786437 
L 125.972224 266.651102 
L 127.57084 261.997063 
L 129.169455 270.542321 
L 130.768071 271.681257 
L 132.366686 266.873386 
L 133.965302 259.033161 
L 135.563917 257.614783 
L 137.162532 226.356823 
L 138.761148 206.409938 
L 140.359763 251.447568 
L 141.958379 259.171486 
L 143.556994 261.815167 
L 145.155609 247.021565 
L 146.754225 245.132864 
L 148.35284 248.839027 
L 149.951456 248.64128 
L 151.550071 234.297034 
L 153.148686 246.867573 
L 154.747302 177.99317 
L 156.345917 155.615959 
L 157.944533 88.778553 
L 159.543148 139.751975 
L 161.141764 146.990623 
L 162.740379 100.408536 
L 164.338994 61.923284 
L 167.536225 144.290308 
L 169.134841 206.811063 
L 170.733456 226.400103 
L 172.332071 206.075891 
L 173.930687 211.059677 
L 175.529302 226.331483 
L 177.127918 227.971653 
L 178.726533 216.185857 
L 180.325148 196.818045 
L 183.522379 237.043568 
L 185.120995 228.936404 
L 186.71961 240.796881 
L 188.318226 242.638241 
L 189.916841 267.254768 
L 191.515456 235.641183 
L 193.114072 267.927199 
L 194.712687 271.97279 
L 196.311303 246.473031 
L 197.909918 248.422284 
L 199.508533 265.056815 
L 201.107149 271.910647 
L 202.705764 265.016914 
L 204.30438 259.608001 
L 205.902995 261.23628 
L 207.50161 265.916742 
L 209.100226 252.820742 
L 210.698841 245.636172 
L 212.297457 260.240913 
L 213.896072 256.383436 
L 215.494688 247.760961 
L 217.093303 263.149275 
L 218.691918 261.126864 
L 220.290534 280.216362 
L 221.889149 270.202781 
L 223.487765 277.317317 
L 225.08638 273.037599 
L 226.684995 255.411257 
L 228.283611 255.32755 
L 229.882226 269.186321 
L 231.480842 259.267771 
L 233.079457 266.946839 
L 234.678073 249.641969 
L 236.276688 268.435279 
L 237.875303 255.407646 
L 239.473919 260.588997 
L 241.072534 251.361135 
L 242.67115 249.289813 
L 244.269765 248.219646 
L 245.86838 257.46619 
L 247.466996 249.818332 
L 249.065611 251.522666 
L 250.664227 257.702843 
L 252.262842 226.453763 
L 253.861457 250.324319 
L 255.460073 227.633066 
L 257.058688 232.059364 
L 258.657304 251.489544 
L 260.255919 268.918002 
L 261.854535 256.016936 
L 263.45315 269.088224 
L 265.051765 271.980664 
L 266.650381 258.380962 
L 268.248996 264.676229 
L 269.847612 268.381386 
L 271.446227 266.548337 
L 273.044842 266.488647 
L 274.643458 259.426347 
L 276.242073 244.23331 
L 277.840689 231.606531 
L 279.439304 253.634772 
L 281.037919 251.555479 
L 282.636535 255.273633 
L 284.23515 278.246419 
L 285.833766 277.229216 
L 287.432381 278.771466 
L 289.030997 277.497066 
L 290.629612 271.550419 
L 292.228227 260.312135 
L 293.826843 258.688628 
L 295.425458 256.809358 
L 297.024074 257.406801 
L 298.622689 262.204062 
L 300.221304 284.131542 
L 301.81992 272.613495 
L 303.418535 266.646557 
L 305.017151 234.931334 
L 306.615766 254.14422 
L 308.214381 217.799312 
L 309.812997 226.551058 
L 311.411612 250.239496 
L 313.010228 269.782596 
L 314.608843 273.204921 
L 316.207459 275.658275 
L 317.806074 285.750291 
L 319.404689 292.050516 
L 321.003305 285.759372 
L 322.60192 275.701207 
L 324.200536 273.516768 
L 325.799151 275.656559 
L 327.397766 257.656151 
L 328.996382 224.795147 
L 330.594997 253.953939 
L 332.193613 159.851519 
L 333.792228 238.593336 
L 335.390844 262.832898 
L 336.989459 251.377455 
L 338.588074 245.557571 
L 340.18669 220.019482 
L 341.785305 242.519232 
L 343.383921 229.738086 
L 344.982536 246.282985 
L 346.581151 248.929476 
L 348.179767 238.196828 
L 349.778382 236.478746 
L 351.376998 220.54098 
L 352.975613 210.343146 
L 354.574228 93.27893 
L 356.172844 64.220658 
L 357.771459 200.000128 
L 359.370075 197.528109 
L 360.96869 241.809489 
L 362.567306 168.358065 
L 364.165921 220.624541 
L 365.764536 179.092468 
L 367.363152 179.453542 
L 368.961767 216.18786 
L 370.560383 209.552451 
L 372.158998 111.156457 
L 373.757613 236.15874 
L 375.356229 215.341687 
L 376.954844 225.995044 
L 378.55346 243.738646 
L 380.152075 211.753394 
L 381.75069 193.452448 
L 383.349306 195.702228 
L 384.947921 229.135318 
L 386.546537 267.801085 
L 388.145152 234.402257 
L 389.743768 247.993327 
L 391.342383 232.498883 
L 392.940998 134.987942 
L 394.539614 168.580308 
L 396.138229 189.328458 
L 397.736845 231.183811 
L 399.33546 258.012065 
L 400.934075 243.236994 
L 402.532691 245.167923 
L 404.131306 284.853294 
L 405.729922 269.264774 
L 407.328537 244.179454 
L 408.927152 227.2728 
L 410.525768 252.467435 
L 412.124383 212.250322 
L 413.722999 212.273871 
L 415.321614 266.874786 
L 416.92023 300.940522 
L 418.518845 276.682892 
L 420.11746 285.099285 
L 421.716076 291.712035 
L 423.314691 296.900933 
L 424.913307 282.926599 
L 426.511922 271.974651 
L 428.110537 265.06176 
L 429.709153 133.330558 
L 431.307768 61.923284 
L 432.906384 61.923284 
L 434.504999 226.144953 
L 436.103615 265.783864 
L 437.70223 252.677521 
L 439.300845 225.6953 
L 440.899461 242.220339 
L 442.498076 236.960219 
L 444.096692 235.641147 
L 445.695307 217.784243 
L 447.293922 293.764959 
L 448.892538 272.903593 
L 450.491153 275.092693 
L 452.089769 277.848678 
L 453.688384 218.759337 
L 455.286999 248.578654 
L 456.885615 257.208882 
L 458.48423 293.919881 
L 460.082846 285.585403 
L 461.681461 265.754797 
L 463.280077 287.226781 
L 464.878692 280.945688 
L 466.477307 288.42439 
L 468.075923 276.090497 
L 469.674538 246.721773 
L 471.273154 285.981788 
L 472.871769 297.494063 
L 474.470384 238.933786 
L 477.667615 286.21717 
L 479.266231 267.570157 
L 480.864846 264.316474 
L 482.463461 288.165461 
L 484.062077 264.326559 
L 485.660692 234.246654 
L 487.259308 281.753734 
L 488.857923 279.803805 
L 490.456539 263.839778 
L 492.055154 279.629265 
L 493.653769 273.937859 
L 495.252385 276.192078 
L 498.449616 229.948412 
L 500.048231 212.80164 
L 501.646846 61.923284 
L 503.245462 186.175702 
L 504.844077 235.056378 
L 506.442693 257.059717 
L 508.041308 272.078503 
L 509.639923 295.017892 
L 511.238539 291.562933 
L 512.837154 283.217398 
L 514.43577 280.602882 
L 516.034385 253.628921 
L 517.633001 256.790953 
L 519.231616 290.059097 
L 520.830231 275.852175 
L 522.428847 274.710013 
L 524.027462 292.884473 
L 525.626078 265.80444 
L 527.224693 253.419597 
L 528.823308 254.968059 
L 530.421924 261.692473 
L 532.020539 196.851053 
L 533.619155 252.168393 
L 535.21777 262.739843 
L 536.816385 254.813078 
L 538.415001 276.134994 
L 540.013616 241.473353 
L 541.612232 258.588955 
L 543.210847 226.790893 
L 544.809463 254.094539 
L 546.408078 283.49542 
L 548.006693 290.031441 
L 549.605309 248.04145 
L 551.203924 172.8705 
L 552.80254 190.95098 
L 554.401155 253.109573 
L 555.99977 288.836138 
L 557.598386 275.658007 
L 559.197001 264.396169 
L 560.795617 294.027948 
L 562.394232 302.301166 
L 563.992848 288.785184 
L 565.591463 293.71612 
L 567.190078 282.191374 
L 568.788694 282.437356 
L 570.387309 265.381264 
L 571.985925 272.481831 
L 573.58454 285.6903 
L 575.183155 281.530366 
L 576.781771 286.831739 
L 578.380386 268.534423 
L 579.979002 265.473964 
L 581.577617 253.381766 
L 583.176232 256.626137 
L 584.774848 257.639547 
L 586.373463 250.692586 
L 587.972079 257.398409 
L 589.570694 261.316046 
L 591.16931 257.528812 
L 592.767925 282.790858 
L 594.36654 212.519709 
L 595.965156 177.108607 
L 597.563771 230.22423 
L 599.162387 257.32095 
L 600.761002 271.672138 
L 602.359617 241.05379 
L 603.958233 245.091452 
L 605.556848 250.237745 
L 607.155464 260.07189 
L 608.754079 245.761656 
L 610.352694 272.543037 
L 611.95131 276.983806 
L 613.549925 256.866917 
L 615.148541 269.79946 
L 616.747156 226.018936 
L 618.345772 222.063771 
L 619.944387 218.536091 
L 621.543002 217.73987 
L 623.141618 232.333201 
L 624.740233 261.028978 
L 626.338849 251.63071 
L 627.937464 265.12297 
L 629.536079 256.826424 
L 631.134695 257.065741 
L 632.73331 259.305362 
L 634.331926 269.094424 
L 635.930541 252.189597 
L 637.529156 256.77475 
L 639.127772 241.199604 
L 640.726387 248.910738 
L 642.325003 244.815798 
L 643.923618 257.409057 
L 647.120849 235.399712 
L 648.719464 200.180998 
L 650.31808 193.739132 
L 651.916695 265.441897 
L 653.515311 257.70931 
L 655.113926 274.355971 
L 656.712541 252.168811 
L 658.311157 261.869239 
L 659.909772 252.748011 
L 661.508388 253.468554 
L 663.107003 243.606288 
L 664.705619 245.075304 
L 666.304234 213.082428 
L 667.902849 218.380237 
L 669.501465 260.399257 
L 671.10008 280.206373 
L 672.698696 256.618459 
L 674.297311 282.31414 
M 677.494542 163.15874 
L 679.093157 221.263874 
L 680.691773 240.044393 
L 682.290388 214.574079 
L 683.889003 223.437228 
L 685.487619 234.389667 
L 687.086234 210.441214 
L 688.68485 252.564281 
L 690.283465 224.142614 
L 691.882081 235.084939 
L 693.480696 244.725359 
L 695.079311 209.540461 
L 696.677927 205.337951 
L 698.276542 208.217788 
L 699.875158 236.030654 
L 701.473773 236.718951 
L 703.072388 225.427931 
L 704.671004 218.142546 
L 706.269619 181.942802 
L 707.868235 173.175879 
L 709.46685 173.470221 
L 711.065465 191.010938 
L 712.664081 156.30431 
L 714.262696 165.529704 
L 715.861312 159.025492 
L 717.459927 181.84784 
L 719.058543 163.138881 
L 720.657158 83.973593 
L 722.255773 97.514707 
L 723.854389 61.923284 
L 725.453004 149.487581 
L 727.05162 217.028473 
L 728.650235 243.685024 
L 730.24885 239.372146 
L 731.847466 255.888919 
L 733.446081 257.703916 
L 735.044697 279.5969 
L 736.643312 282.763097 
L 738.241927 272.5162 
L 739.840543 255.708829 
L 741.439158 269.973535 
L 743.037774 252.362794 
L 744.636389 241.00927 
L 746.235005 238.739021 
L 747.83362 259.902168 
L 749.432235 259.965415 
L 751.030851 265.208281 
L 752.629466 280.704732 
L 754.228082 244.246494 
L 755.826697 248.176528 
L 757.425312 229.393613 
L 759.023928 232.588287 
L 760.622543 234.103107 
L 762.221159 227.340718 
L 763.819774 253.681002 
L 765.41839 252.56636 
L 767.017005 263.314325 
L 768.61562 257.806626 
L 770.214236 255.360969 
L 771.812851 244.86895 
L 773.411467 265.903426 
L 775.010082 269.973669 
L 776.608697 267.325073 
L 778.207313 275.165685 
L 779.805928 266.774882 
L 781.404544 247.195699 
L 783.003159 251.79216 
L 784.601774 242.543458 
L 786.20039 250.165035 
L 787.799005 251.220018 
L 789.397621 249.261832 
L 790.996236 254.385192 
L 792.594852 238.168974 
L 794.193467 249.016478 
L 795.792082 252.420331 
L 797.390698 257.37125 
L 798.989313 247.425624 
L 800.587929 270.036987 
L 802.186544 254.256356 
L 803.785159 266.367587 
L 805.383775 251.208462 
L 806.98239 273.591486 
L 808.581006 272.475082 
L 810.179621 272.143169 
L 811.778236 266.915092 
L 813.376852 274.818621 
L 814.975467 276.946117 
L 816.574083 272.261997 
L 818.172698 254.120291 
L 819.771314 259.869551 
L 821.369929 259.251141 
L 822.968544 260.941304 
L 824.56716 257.301648 
L 826.165775 253.179826 
L 827.764391 252.117096 
L 829.363006 251.98026 
L 830.961621 258.952169 
L 832.560237 262.040316 
L 835.757468 233.849135 
L 837.356083 228.964991 
L 838.954698 264.140908 
L 840.553314 262.293939 
L 842.151929 261.090091 
L 843.750545 241.552387 
L 845.34916 262.007128 
L 846.947776 262.604068 
L 848.546391 258.467038 
L 850.145006 257.832418 
L 851.743622 249.469849 
L 853.342237 259.489848 
L 854.940853 273.529132 
L 856.539468 260.226736 
L 858.138083 266.620919 
L 859.736699 249.989924 
L 861.335314 258.333911 
L 862.93393 256.744532 
L 864.532545 243.138096 
L 866.131161 237.346081 
L 867.729776 244.77382 
L 869.328391 247.653477 
L 870.927007 267.681578 
L 872.525622 273.450231 
L 874.124238 267.798616 
L 875.722853 247.983844 
L 877.321468 252.09334 
L 878.920084 238.906979 
L 880.518699 238.332546 
L 882.117315 254.663967 
L 883.71593 257.800993 
L 885.314545 247.253944 
L 885.314545 247.253944 
" clip-path="url(#paf19d4bf94)" style="fill: none; stroke: #ff7f0e; stroke-width: 1.2; stroke-linecap: square"/>
   </g>
   <g id="line2d_16">
    <path d="M 87.605455 252.776614 
L 89.20407 257.364089 
L 90.802685 264.910588 
L 92.401301 217.714287 
L 93.999916 191.160552 
L 95.598532 129.392008 
L 97.197147 122.100928 
L 98.795762 185.029892 
L 100.394378 213.923728 
L 101.992993 217.287395 
L 105.190224 254.775849 
L 106.788839 248.706099 
L 108.387455 267.047828 
L 109.98607 250.700158 
L 111.584686 259.98563 
L 113.183301 245.973514 
L 114.781917 212.627004 
L 116.380532 220.279139 
L 117.979147 237.63988 
L 119.577763 238.008141 
L 121.176378 230.494048 
L 122.774994 250.019074 
L 124.373609 249.112134 
L 125.972224 245.900907 
L 127.57084 255.317306 
L 129.169455 259.277479 
L 130.768071 268.692646 
L 132.366686 249.743178 
L 133.965302 235.173992 
L 135.563917 229.51509 
L 137.162532 237.260581 
L 138.761148 246.113584 
L 140.359763 244.455575 
L 141.958379 249.127018 
L 143.556994 260.192455 
L 145.155609 224.447482 
L 146.754225 237.909348 
L 148.35284 270.066415 
L 149.951456 274.095207 
L 151.550071 269.268419 
L 153.148686 263.600931 
L 154.747302 255.371901 
L 156.345917 219.555517 
L 157.944533 61.923284 
L 159.543148 110.735851 
L 161.141764 117.874457 
L 162.740379 61.923284 
L 167.536225 61.923284 
L 169.134841 187.309578 
L 170.733456 218.822805 
L 172.332071 196.599282 
L 173.930687 180.92198 
L 175.529302 205.77003 
L 177.127918 223.135124 
L 178.726533 194.545608 
L 180.325148 204.577203 
L 181.923764 205.398394 
L 183.522379 192.457797 
L 185.120995 216.928859 
L 186.71961 215.513831 
L 188.318226 220.223352 
L 189.916841 249.184667 
L 191.515456 222.259227 
L 193.114072 246.669665 
L 194.712687 260.793151 
L 196.311303 223.126865 
L 197.909918 214.822126 
L 199.508533 232.612845 
L 201.107149 244.570964 
L 202.705764 211.350925 
L 204.30438 210.763085 
L 205.902995 224.693832 
L 207.50161 231.947478 
L 209.100226 215.522246 
L 210.698841 219.826358 
L 212.297457 238.053433 
L 213.896072 228.581428 
L 215.494688 231.367884 
L 217.093303 230.205633 
L 218.691918 248.787492 
L 220.290534 276.466098 
L 221.889149 257.918636 
L 223.487765 270.1651 
L 225.08638 274.223137 
L 226.684995 240.329511 
L 228.283611 235.444013 
L 229.882226 249.566833 
L 231.480842 243.178809 
L 233.079457 240.400022 
L 234.678073 235.128943 
L 236.276688 259.905749 
L 237.875303 247.545375 
L 239.473919 246.977291 
L 241.072534 215.624249 
L 242.67115 219.772352 
L 244.269765 240.645939 
L 245.86838 223.789586 
L 247.466996 249.146728 
L 249.065611 233.284857 
L 250.664227 241.035607 
L 252.262842 201.031751 
L 253.861457 207.315761 
L 255.460073 222.047157 
L 257.058688 220.172473 
L 258.657304 228.273464 
L 260.255919 259.817933 
L 261.854535 227.991193 
L 263.45315 257.996951 
L 265.051765 255.629776 
L 266.650381 249.032915 
L 268.248996 255.313334 
L 269.847612 268.740731 
L 271.446227 254.248587 
L 273.044842 255.828795 
L 274.643458 244.203179 
L 276.242073 229.654769 
L 277.840689 234.391602 
L 279.439304 236.388342 
L 281.037919 257.650509 
L 282.636535 241.683075 
L 284.23515 246.906244 
L 285.833766 263.796689 
L 287.432381 266.772892 
L 289.030997 267.934809 
L 292.228227 228.875735 
L 293.826843 233.034123 
L 295.425458 218.627937 
L 297.024074 224.832999 
L 298.622689 244.910726 
L 300.221304 285.383707 
L 301.81992 281.227802 
L 303.418535 251.748509 
L 305.017151 236.899524 
L 306.615766 238.941221 
L 308.214381 260.553843 
L 309.812997 253.546557 
L 311.411612 264.388174 
L 313.010228 247.187421 
L 314.608843 255.135993 
L 316.207459 275.906603 
L 317.806074 256.290716 
L 319.404689 272.811468 
L 321.003305 274.716929 
L 322.60192 258.806278 
L 324.200536 280.794047 
L 325.799151 275.012934 
L 327.397766 248.184371 
L 328.996382 244.052145 
L 330.594997 237.315091 
L 332.193613 238.204309 
L 333.792228 250.311307 
L 335.390844 224.113949 
L 336.989459 224.479235 
L 338.588074 229.165178 
L 340.18669 245.40772 
L 341.785305 219.86378 
L 343.383921 203.352691 
L 344.982536 198.870301 
L 346.581151 211.81323 
L 348.179767 230.335633 
L 349.778382 232.685831 
L 351.376998 177.020364 
L 352.975613 131.555932 
L 354.574228 61.923284 
L 356.172844 61.923284 
L 357.771459 74.468969 
L 359.370075 61.923284 
L 360.96869 148.446827 
L 362.567306 72.401336 
L 364.165921 122.446267 
L 365.764536 167.301094 
L 367.363152 192.46669 
L 368.961767 181.782297 
L 370.560383 193.909189 
L 372.158998 194.979287 
L 373.757613 193.524208 
L 375.356229 216.564176 
L 376.954844 149.430354 
L 378.55346 192.587987 
L 380.152075 157.639489 
L 381.75069 143.055507 
L 383.349306 174.412175 
L 384.947921 225.157801 
L 386.546537 234.582226 
L 388.145152 194.91714 
L 389.743768 191.474768 
L 391.342383 197.05101 
L 392.940998 135.409679 
L 396.138229 166.859555 
L 397.736845 157.352336 
L 399.33546 150.71614 
L 400.934075 165.937484 
L 402.532691 149.185931 
L 404.131306 191.847626 
L 405.729922 219.888153 
L 407.328537 171.260425 
L 408.927152 159.85973 
L 410.525768 157.685118 
L 412.124383 167.675095 
L 413.722999 129.736693 
L 415.321614 130.380423 
L 416.92023 113.499672 
L 418.518845 132.863377 
L 420.11746 115.977318 
L 421.716076 131.986357 
L 423.314691 144.880125 
L 424.913307 146.00722 
L 426.511922 175.948489 
L 428.110537 143.96019 
L 429.709153 119.663053 
L 431.307768 115.968196 
L 432.906384 157.823945 
L 434.504999 172.018053 
L 436.103615 197.998672 
L 437.70223 207.321119 
L 439.300845 194.703108 
L 440.899461 218.185754 
L 442.498076 226.733682 
L 444.096692 231.309559 
L 445.695307 201.747768 
L 447.293922 209.354593 
L 448.892538 191.006025 
L 450.491153 175.723509 
L 452.089769 180.452207 
L 453.688384 186.975648 
L 455.286999 203.126096 
L 456.885615 203.428388 
L 458.48423 225.717564 
L 460.082846 214.811008 
L 461.681461 219.958421 
L 463.280077 212.535566 
L 464.878692 220.030831 
L 466.477307 216.93665 
L 468.075923 235.684901 
L 469.674538 218.346563 
L 471.273154 226.040458 
L 472.871769 215.162251 
L 474.470384 230.451042 
L 476.069 230.539861 
L 477.667615 229.171612 
L 479.266231 230.502148 
L 480.864846 250.636363 
L 482.463461 249.191438 
L 484.062077 233.230815 
L 485.660692 234.024529 
L 487.259308 233.960986 
L 488.857923 239.859396 
L 490.456539 237.739358 
L 492.055154 219.894586 
L 493.653769 217.27121 
L 495.252385 221.346419 
L 496.851 187.29747 
L 498.449616 93.724107 
L 500.048231 61.923284 
L 501.646846 61.923284 
L 503.245462 62.254646 
L 504.844077 132.663325 
L 506.442693 235.872985 
L 508.041308 260.120252 
L 509.639923 275.43932 
L 511.238539 263.649877 
L 512.837154 266.961009 
L 514.43577 277.608382 
L 516.034385 261.743099 
L 517.633001 255.087541 
L 519.231616 265.954135 
L 520.830231 250.110246 
L 522.428847 264.988651 
L 524.027462 277.895611 
L 525.626078 256.307021 
L 527.224693 259.915282 
L 528.823308 256.151665 
L 532.020539 229.170848 
L 533.619155 239.588372 
L 535.21777 222.794915 
L 536.816385 245.706234 
L 538.415001 226.959048 
L 540.013616 235.856441 
L 541.612232 237.01516 
L 543.210847 236.262168 
L 544.809463 235.07671 
L 546.408078 253.994337 
L 548.006693 255.48221 
L 549.605309 249.661195 
L 551.203924 237.679953 
L 554.401155 275.113155 
L 555.99977 289.396718 
L 557.598386 291.81226 
L 559.197001 288.224905 
L 560.795617 288.662526 
L 562.394232 285.082793 
L 563.992848 298.743104 
L 565.591463 286.383127 
L 567.190078 291.351012 
L 568.788694 299.988371 
L 570.387309 269.018516 
L 571.985925 279.308492 
L 573.58454 276.40183 
L 575.183155 281.996385 
L 576.781771 282.980154 
L 578.380386 269.964912 
L 579.979002 268.564164 
L 581.577617 241.903544 
L 583.176232 233.805443 
L 584.774848 235.884083 
L 586.373463 227.163527 
L 587.972079 257.43891 
L 589.570694 264.016337 
L 591.16931 248.02215 
L 592.767925 293.546606 
L 594.36654 262.031584 
L 595.965156 213.282379 
L 597.563771 230.523728 
L 599.162387 277.595057 
L 600.761002 284.936217 
L 602.359617 241.405939 
L 603.958233 232.768147 
L 605.556848 245.42344 
L 607.155464 250.427329 
L 608.754079 265.349474 
L 610.352694 259.05013 
L 611.95131 294.564103 
L 613.549925 270.99047 
L 615.148541 254.144694 
L 616.747156 217.49399 
L 618.345772 219.286678 
L 619.944387 224.963393 
L 621.543002 223.720556 
L 623.141618 218.035039 
L 624.740233 227.805891 
L 626.338849 207.263782 
L 627.937464 221.046005 
L 629.536079 219.726383 
L 631.134695 235.751302 
L 632.73331 259.135952 
L 634.331926 251.078682 
L 635.930541 269.507393 
L 637.529156 270.552051 
L 639.127772 261.41543 
L 640.726387 250.281172 
L 642.325003 240.432728 
L 643.923618 238.038589 
L 645.522234 227.054074 
L 647.120849 206.284828 
L 648.719464 205.759867 
L 650.31808 203.102735 
L 651.916695 257.387736 
L 653.515311 247.765775 
L 655.113926 265.644341 
L 656.712541 230.028252 
L 658.311157 239.863038 
L 659.909772 243.512292 
L 661.508388 257.544161 
L 663.107003 259.544365 
L 664.705619 266.066726 
L 666.304234 228.652402 
L 667.902849 227.814725 
L 669.501465 218.772279 
L 671.10008 219.928944 
L 672.698696 125.483683 
L 674.297311 117.383508 
M 679.093157 243.326045 
L 680.691773 218.645356 
L 682.290388 207.411649 
L 683.889003 216.868844 
L 685.487619 230.879563 
L 687.086234 199.609104 
L 688.68485 202.577151 
L 690.283465 206.677152 
L 691.882081 234.532232 
L 693.480696 233.116219 
L 695.079311 236.40513 
L 696.677927 237.065054 
L 698.276542 242.069297 
L 699.875158 255.96771 
L 701.473773 258.162735 
L 703.072388 246.802217 
L 704.671004 248.617186 
L 706.269619 225.84193 
L 707.868235 210.262801 
L 709.46685 225.696209 
L 711.065465 199.53685 
L 712.664081 182.840078 
L 714.262696 192.539328 
L 715.861312 169.897524 
L 717.459927 186.465666 
L 720.657158 61.923284 
L 723.854389 61.923284 
L 725.453004 86.845166 
L 727.05162 208.777948 
L 728.650235 249.566815 
L 730.24885 228.74359 
L 731.847466 264.423459 
L 733.446081 252.439448 
L 735.044697 258.824569 
L 736.643312 272.504587 
L 738.241927 248.67913 
L 739.840543 267.83592 
L 741.439158 259.233056 
L 743.037774 257.645477 
L 744.636389 250.4518 
L 746.235005 233.507895 
L 747.83362 249.262904 
L 749.432235 251.644451 
L 751.030851 255.43396 
L 752.629466 269.973953 
L 754.228082 228.940344 
L 755.826697 222.371328 
L 757.425312 205.239949 
L 759.023928 234.55483 
L 760.622543 224.260316 
L 762.221159 239.205736 
L 763.819774 255.93022 
L 765.41839 226.063391 
L 767.017005 244.325672 
L 768.61562 204.875525 
L 770.214236 223.642825 
L 773.411467 248.025538 
L 775.010082 249.483529 
L 776.608697 258.499522 
L 778.207313 264.220539 
L 779.805928 268.978252 
L 781.404544 235.502323 
L 783.003159 232.113658 
L 784.601774 228.36959 
L 786.20039 228.204683 
L 787.799005 212.890029 
L 789.397621 221.457264 
L 790.996236 220.714464 
L 792.594852 224.622575 
L 794.193467 232.377426 
L 795.792082 231.006985 
L 797.390698 252.758512 
L 798.989313 237.904229 
L 800.587929 251.207423 
L 802.186544 257.717544 
L 803.785159 238.399157 
L 805.383775 257.902772 
L 806.98239 249.503019 
L 808.581006 242.349092 
L 810.179621 247.223409 
L 811.778236 250.605419 
L 813.376852 249.584978 
L 814.975467 270.244495 
L 816.574083 268.38478 
L 818.172698 256.197986 
L 819.771314 257.730348 
L 821.369929 252.123269 
L 822.968544 256.990326 
L 824.56716 255.236146 
L 826.165775 257.014232 
L 827.764391 255.536097 
L 829.363006 244.673982 
L 830.961621 244.096502 
L 832.560237 257.470722 
L 834.158852 242.619623 
L 835.757468 221.838088 
L 837.356083 225.958192 
L 838.954698 237.796788 
L 840.553314 252.918747 
L 842.151929 250.154429 
L 843.750545 233.510446 
L 846.947776 259.757077 
L 848.546391 251.716022 
L 850.145006 250.309733 
L 851.743622 237.982211 
L 853.342237 251.380535 
L 854.940853 252.818117 
L 856.539468 249.693434 
L 858.138083 257.81268 
L 859.736699 248.791517 
L 861.335314 253.25554 
L 862.93393 237.112855 
L 864.532545 206.956947 
L 866.131161 200.887692 
L 867.729776 211.933381 
L 869.328391 210.087906 
L 870.927007 253.879747 
L 872.525622 274.491457 
L 874.124238 257.15963 
L 875.722853 229.173854 
L 877.321468 224.477507 
L 878.920084 196.633948 
L 880.518699 199.942738 
L 882.117315 211.841903 
L 883.71593 233.336283 
L 885.314545 242.102473 
L 885.314545 242.102473 
" clip-path="url(#paf19d4bf94)" style="fill: none; stroke-dasharray: 4.44,1.92; stroke-dashoffset: 0; stroke: #9467bd; stroke-width: 1.2"/>
   </g>
   <g id="patch_3">
    <path d="M 47.72 318.04 
L 47.72 49.72725 
" style="fill: none; stroke: #000000; stroke-width: 0.8; stroke-linejoin: miter; stroke-linecap: square"/>
   </g>
   <g id="patch_4">
    <path d="M 925.2 318.04 
L 925.2 49.72725 
" style="fill: none; stroke: #000000; stroke-width: 0.8; stroke-linejoin: miter; stroke-linecap: square"/>
   </g>
   <g id="patch_5">
    <path d="M 47.72 318.04 
L 925.2 318.04 
" style="fill: none; stroke: #000000; stroke-width: 0.8; stroke-linejoin: miter; stroke-linecap: square"/>
   </g>
   <g id="patch_6">
    <path d="M 47.72 49.72725 
L 925.2 49.72725 
" style="fill: none; stroke: #000000; stroke-width: 0.8; stroke-linejoin: miter; stroke-linecap: square"/>
   </g>
   <g id="legend_1">
    <g id="line2d_17">
     <path d="M 675.710938 62.825688 
L 685.710938 62.825688 
L 695.710938 62.825688 
" style="fill: none; stroke: #2ca02c; stroke-width: 1.2; stroke-linecap: square"/>
    </g>
    <g id="text_16">
     <!-- ENCSR203XPU -->
     <g transform="translate(703.710938 66.325688) scale(0.1 -0.1)">
      <defs>
       <path id="DejaVuSans-45" d="M 628 4666 
L 3578 4666 
L 3578 4134 
L 1259 4134 
L 1259 2753 
L 3481 2753 
L 3481 2222 
L 1259 2222 
L 1259 531 
L 3634 531 
L 3634 0 
L 628 0 
L 628 4666 
z
" transform="scale(0.015625)"/>
       <path id="DejaVuSans-4e" d="M 628 4666 
L 1478 4666 
L 3547 763 
L 3547 4666 
L 4159 4666 
L 4159 0 
L 3309 0 
L 1241 3903 
L 1241 0 
L 628 0 
L 628 4666 
z
" transform="scale(0.015625)"/>
       <path id="DejaVuSans-43" d="M 4122 4306 
L 4122 3641 
Q 3803 3938 3442 4084 
Q 3081 4231 2675 4231 
Q 1875 4231 1450 3742 
Q 1025 3253 1025 2328 
Q 1025 1406 1450 917 
Q 1875 428 2675 428 
Q 3081 428 3442 575 
Q 3803 722 4122 1019 
L 4122 359 
Q 3791 134 3420 21 
Q 3050 -91 2638 -91 
Q 1578 -91 968 557 
Q 359 1206 359 2328 
Q 359 3453 968 4101 
Q 1578 4750 2638 4750 
Q 3056 4750 3426 4639 
Q 3797 4528 4122 4306 
z
" transform="scale(0.015625)"/>
       <path id="DejaVuSans-53" d="M 3425 4513 
L 3425 3897 
Q 3066 4069 2747 4153 
Q 2428 4238 2131 4238 
Q 1616 4238 1336 4038 
Q 1056 3838 1056 3469 
Q 1056 3159 1242 3001 
Q 1428 2844 1947 2747 
L 2328 2669 
Q 3034 2534 3370 2195 
Q 3706 1856 3706 1288 
Q 3706 609 3251 259 
Q 2797 -91 1919 -91 
Q 1588 -91 1214 -16 
Q 841 59 441 206 
L 441 856 
Q 825 641 1194 531 
Q 1563 422 1919 422 
Q 2459 422 2753 634 
Q 3047 847 3047 1241 
Q 3047 1584 2836 1778 
Q 2625 1972 2144 2069 
L 1759 2144 
Q 1053 2284 737 2584 
Q 422 2884 422 3419 
Q 422 4038 858 4394 
Q 1294 4750 2059 4750 
Q 2388 4750 2728 4690 
Q 3069 4631 3425 4513 
z
" transform="scale(0.015625)"/>
       <path id="DejaVuSans-52" d="M 2841 2188 
Q 3044 2119 3236 1894 
Q 3428 1669 3622 1275 
L 4263 0 
L 3584 0 
L 2988 1197 
Q 2756 1666 2539 1819 
Q 2322 1972 1947 1972 
L 1259 1972 
L 1259 0 
L 628 0 
L 628 4666 
L 2053 4666 
Q 2853 4666 3247 4331 
Q 3641 3997 3641 3322 
Q 3641 2881 3436 2590 
Q 3231 2300 2841 2188 
z
M 1259 4147 
L 1259 2491 
L 2053 2491 
Q 2509 2491 2742 2702 
Q 2975 2913 2975 3322 
Q 2975 3731 2742 3939 
Q 2509 4147 2053 4147 
L 1259 4147 
z
" transform="scale(0.015625)"/>
       <path id="DejaVuSans-58" d="M 403 4666 
L 1081 4666 
L 2241 2931 
L 3406 4666 
L 4084 4666 
L 2584 2425 
L 4184 0 
L 3506 0 
L 2194 1984 
L 872 0 
L 191 0 
L 1856 2491 
L 403 4666 
z
" transform="scale(0.015625)"/>
       <path id="DejaVuSans-50" d="M 1259 4147 
L 1259 2394 
L 2053 2394 
Q 2494 2394 2734 2622 
Q 2975 2850 2975 3272 
Q 2975 3691 2734 3919 
Q 2494 4147 2053 4147 
L 1259 4147 
z
M 628 4666 
L 2053 4666 
Q 2838 4666 3239 4311 
Q 3641 3956 3641 3272 
Q 3641 2581 3239 2228 
Q 2838 1875 2053 1875 
L 1259 1875 
L 1259 0 
L 628 0 
L 628 4666 
z
" transform="scale(0.015625)"/>
       <path id="DejaVuSans-55" d="M 556 4666 
L 1191 4666 
L 1191 1831 
Q 1191 1081 1462 751 
Q 1734 422 2344 422 
Q 2950 422 3222 751 
Q 3494 1081 3494 1831 
L 3494 4666 
L 4128 4666 
L 4128 1753 
Q 4128 841 3676 375 
Q 3225 -91 2344 -91 
Q 1459 -91 1007 375 
Q 556 841 556 1753 
L 556 4666 
z
" transform="scale(0.015625)"/>
      </defs>
      <use xlink:href="#DejaVuSans-45"/>
      <use xlink:href="#DejaVuSans-4e" transform="translate(63.183594 0)"/>
      <use xlink:href="#DejaVuSans-43" transform="translate(137.988281 0)"/>
      <use xlink:href="#DejaVuSans-53" transform="translate(207.8125 0)"/>
      <use xlink:href="#DejaVuSans-52" transform="translate(271.289062 0)"/>
      <use xlink:href="#DejaVuSans-32" transform="translate(340.771484 0)"/>
      <use xlink:href="#DejaVuSans-30" transform="translate(404.394531 0)"/>
      <use xlink:href="#DejaVuSans-33" transform="translate(468.017578 0)"/>
      <use xlink:href="#DejaVuSans-58" transform="translate(531.640625 0)"/>
      <use xlink:href="#DejaVuSans-50" transform="translate(600.146484 0)"/>
      <use xlink:href="#DejaVuSans-55" transform="translate(660.449219 0)"/>
     </g>
    </g>
    <g id="line2d_18">
     <path d="M 675.710938 77.503813 
L 685.710938 77.503813 
L 695.710938 77.503813 
" style="fill: none; stroke: #000000; stroke-width: 1.2; stroke-linecap: square"/>
    </g>
    <g id="text_17">
     <!-- AlphaGenome -->
     <g transform="translate(703.710938 81.003813) scale(0.1 -0.1)">
      <defs>
       <path id="DejaVuSans-41" d="M 2188 4044 
L 1331 1722 
L 3047 1722 
L 2188 4044 
z
M 1831 4666 
L 2547 4666 
L 4325 0 
L 3669 0 
L 3244 1197 
L 1141 1197 
L 716 0 
L 50 0 
L 1831 4666 
z
" transform="scale(0.015625)"/>
       <path id="DejaVuSans-70" d="M 1159 525 
L 1159 -1331 
L 581 -1331 
L 581 3500 
L 1159 3500 
L 1159 2969 
Q 1341 3281 1617 3432 
Q 1894 3584 2278 3584 
Q 2916 3584 3314 3078 
Q 3713 2572 3713 1747 
Q 3713 922 3314 415 
Q 2916 -91 2278 -91 
Q 1894 -91 1617 61 
Q 1341 213 1159 525 
z
M 3116 1747 
Q 3116 2381 2855 2742 
Q 2594 3103 2138 3103 
Q 1681 3103 1420 2742 
Q 1159 2381 1159 1747 
Q 1159 1113 1420 752 
Q 1681 391 2138 391 
Q 2594 391 2855 752 
Q 3116 1113 3116 1747 
z
" transform="scale(0.015625)"/>
       <path id="DejaVuSans-47" d="M 3809 666 
L 3809 1919 
L 2778 1919 
L 2778 2438 
L 4434 2438 
L 4434 434 
Q 4069 175 3628 42 
Q 3188 -91 2688 -91 
Q 1594 -91 976 548 
Q 359 1188 359 2328 
Q 359 3472 976 4111 
Q 1594 4750 2688 4750 
Q 3144 4750 3555 4637 
Q 3966 4525 4313 4306 
L 4313 3634 
Q 3963 3931 3569 4081 
Q 3175 4231 2741 4231 
Q 1884 4231 1454 3753 
Q 1025 3275 1025 2328 
Q 1025 1384 1454 906 
Q 1884 428 2741 428 
Q 3075 428 3337 486 
Q 3600 544 3809 666 
z
" transform="scale(0.015625)"/>
      </defs>
      <use xlink:href="#DejaVuSans-41"/>
      <use xlink:href="#DejaVuSans-6c" transform="translate(68.408203 0)"/>
      <use xlink:href="#DejaVuSans-70" transform="translate(96.191406 0)"/>
      <use xlink:href="#DejaVuSans-68" transform="translate(159.667969 0)"/>
      <use xlink:href="#DejaVuSans-61" transform="translate(223.046875 0)"/>
      <use xlink:href="#DejaVuSans-47" transform="translate(284.326172 0)"/>
      <use xlink:href="#DejaVuSans-65" transform="translate(361.816406 0)"/>
      <use xlink:href="#DejaVuSans-6e" transform="translate(423.339844 0)"/>
      <use xlink:href="#DejaVuSans-6f" transform="translate(486.71875 0)"/>
      <use xlink:href="#DejaVuSans-6d" transform="translate(547.900391 0)"/>
      <use xlink:href="#DejaVuSans-65" transform="translate(645.3125 0)"/>
     </g>
    </g>
    <g id="line2d_19">
     <path d="M 797.076563 62.825688 
L 807.076563 62.825688 
L 817.076563 62.825688 
" style="fill: none; stroke: #ff7f0e; stroke-width: 1.2; stroke-linecap: square"/>
    </g>
    <g id="text_18">
     <!-- DiMeLo pooled -->
     <g transform="translate(825.076563 66.325688) scale(0.1 -0.1)">
      <defs>
       <path id="DejaVuSans-44" d="M 1259 4147 
L 1259 519 
L 2022 519 
Q 2988 519 3436 956 
Q 3884 1394 3884 2338 
Q 3884 3275 3436 3711 
Q 2988 4147 2022 4147 
L 1259 4147 
z
M 628 4666 
L 1925 4666 
Q 3281 4666 3915 4102 
Q 4550 3538 4550 2338 
Q 4550 1131 3912 565 
Q 3275 0 1925 0 
L 628 0 
L 628 4666 
z
" transform="scale(0.015625)"/>
       <path id="DejaVuSans-4d" d="M 628 4666 
L 1569 4666 
L 2759 1491 
L 3956 4666 
L 4897 4666 
L 4897 0 
L 4281 0 
L 4281 4097 
L 3078 897 
L 2444 897 
L 1241 4097 
L 1241 0 
L 628 0 
L 628 4666 
z
" transform="scale(0.015625)"/>
       <path id="DejaVuSans-4c" d="M 628 4666 
L 1259 4666 
L 1259 531 
L 3531 531 
L 3531 0 
L 628 0 
L 628 4666 
z
" transform="scale(0.015625)"/>
      </defs>
      <use xlink:href="#DejaVuSans-44"/>
      <use xlink:href="#DejaVuSans-69" transform="translate(77.001953 0)"/>
      <use xlink:href="#DejaVuSans-4d" transform="translate(104.785156 0)"/>
      <use xlink:href="#DejaVuSans-65" transform="translate(191.064453 0)"/>
      <use xlink:href="#DejaVuSans-4c" transform="translate(252.587891 0)"/>
      <use xlink:href="#DejaVuSans-6f" transform="translate(306.550781 0)"/>
      <use xlink:href="#DejaVuSans-20" transform="translate(367.732422 0)"/>
      <use xlink:href="#DejaVuSans-70" transform="translate(399.519531 0)"/>
      <use xlink:href="#DejaVuSans-6f" transform="translate(462.996094 0)"/>
      <use xlink:href="#DejaVuSans-6f" transform="translate(524.177734 0)"/>
      <use xlink:href="#DejaVuSans-6c" transform="translate(585.359375 0)"/>
      <use xlink:href="#DejaVuSans-65" transform="translate(613.142578 0)"/>
      <use xlink:href="#DejaVuSans-64" transform="translate(674.666016 0)"/>
     </g>
    </g>
    <g id="line2d_20">
     <path d="M 797.076563 77.503813 
L 807.076563 77.503813 
L 817.076563 77.503813 
" style="fill: none; stroke-dasharray: 4.44,1.92; stroke-dashoffset: 0; stroke: #9467bd; stroke-width: 1.2"/>
    </g>
    <g id="text_19">
     <!-- HyenaDNA pooled -->
     <g transform="translate(825.076563 81.003813) scale(0.1 -0.1)">
      <defs>
       <path id="DejaVuSans-48" d="M 628 4666 
L 1259 4666 
L 1259 2753 
L 3553 2753 
L 3553 4666 
L 4184 4666 
L 4184 0 
L 3553 0 
L 3553 2222 
L 1259 2222 
L 1259 0 
L 628 0 
L 628 4666 
z
" transform="scale(0.015625)"/>
       <path id="DejaVuSans-79" d="M 2059 -325 
Q 1816 -950 1584 -1140 
Q 1353 -1331 966 -1331 
L 506 -1331 
L 506 -850 
L 844 -850 
Q 1081 -850 1212 -737 
Q 1344 -625 1503 -206 
L 1606 56 
L 191 3500 
L 800 3500 
L 1894 763 
L 2988 3500 
L 3597 3500 
L 2059 -325 
z
" transform="scale(0.015625)"/>
      </defs>
      <use xlink:href="#DejaVuSans-48"/>
      <use xlink:href="#DejaVuSans-79" transform="translate(75.195312 0)"/>
      <use xlink:href="#DejaVuSans-65" transform="translate(134.375 0)"/>
      <use xlink:href="#DejaVuSans-6e" transform="translate(195.898438 0)"/>
      <use xlink:href="#DejaVuSans-61" transform="translate(259.277344 0)"/>
      <use xlink:href="#DejaVuSans-44" transform="translate(320.556641 0)"/>
      <use xlink:href="#DejaVuSans-4e" transform="translate(397.558594 0)"/>
      <use xlink:href="#DejaVuSans-41" transform="translate(472.363281 0)"/>
      <use xlink:href="#DejaVuSans-20" transform="translate(540.771484 0)"/>
      <use xlink:href="#DejaVuSans-70" transform="translate(572.558594 0)"/>
      <use xlink:href="#DejaVuSans-6f" transform="translate(636.035156 0)"/>
      <use xlink:href="#DejaVuSans-6f" transform="translate(697.216797 0)"/>
      <use xlink:href="#DejaVuSans-6c" transform="translate(758.398438 0)"/>
      <use xlink:href="#DejaVuSans-65" transform="translate(786.181641 0)"/>
      <use xlink:href="#DejaVuSans-64" transform="translate(847.705078 0)"/>
     </g>
    </g>
   </g>
  </g>
  <g id="text_20">
   <!-- chr16 region 12: overlay -->
   <g transform="translate(394.170938 16.318125) scale(0.12 -0.12)">
    <defs>
     <path id="DejaVuSans-3a" d="M 750 794 
L 1409 794 
L 1409 0 
L 750 0 
L 750 794 
z
M 750 3309 
L 1409 3309 
L 1409 2516 
L 750 2516 
L 750 3309 
z
" transform="scale(0.015625)"/>
     <path id="DejaVuSans-76" d="M 191 3500 
L 800 3500 
L 1894 563 
L 2988 3500 
L 3597 3500 
L 2284 0 
L 1503 0 
L 191 3500 
z
" transform="scale(0.015625)"/>
    </defs>
    <use xlink:href="#DejaVuSans-63"/>
    <use xlink:href="#DejaVuSans-68" transform="translate(54.980469 0)"/>
    <use xlink:href="#DejaVuSans-72" transform="translate(118.359375 0)"/>
    <use xlink:href="#DejaVuSans-31" transform="translate(159.472656 0)"/>
    <use xlink:href="#DejaVuSans-36" transform="translate(223.095703 0)"/>
    <use xlink:href="#DejaVuSans-20" transform="translate(286.71875 0)"/>
    <use xlink:href="#DejaVuSans-72" transform="translate(318.505859 0)"/>
    <use xlink:href="#DejaVuSans-65" transform="translate(357.369141 0)"/>
    <use xlink:href="#DejaVuSans-67" transform="translate(418.892578 0)"/>
    <use xlink:href="#DejaVuSans-69" transform="translate(482.369141 0)"/>
    <use xlink:href="#DejaVuSans-6f" transform="translate(510.152344 0)"/>
    <use xlink:href="#DejaVuSans-6e" transform="translate(571.333984 0)"/>
    <use xlink:href="#DejaVuSans-20" transform="translate(634.712891 0)"/>
    <use xlink:href="#DejaVuSans-31" transform="translate(666.5 0)"/>
    <use xlink:href="#DejaVuSans-32" transform="translate(730.123047 0)"/>
    <use xlink:href="#DejaVuSans-3a" transform="translate(793.746094 0)"/>
    <use xlink:href="#DejaVuSans-20" transform="translate(827.4375 0)"/>
    <use xlink:href="#DejaVuSans-6f" transform="translate(859.224609 0)"/>
    <use xlink:href="#DejaVuSans-76" transform="translate(920.40625 0)"/>
    <use xlink:href="#DejaVuSans-65" transform="translate(979.585938 0)"/>
    <use xlink:href="#DejaVuSans-72" transform="translate(1041.109375 0)"/>
    <use xlink:href="#DejaVuSans-6c" transform="translate(1082.222656 0)"/>
    <use xlink:href="#DejaVuSans-61" transform="translate(1110.005859 0)"/>
    <use xlink:href="#DejaVuSans-79" transform="translate(1171.285156 0)"/>
   </g>
   <!-- chr16_rank13_score3.528_reads360 -->
   <g transform="translate(359.357813 29.7555) scale(0.12 -0.12)">
    <defs>
     <path id="DejaVuSans-5f" d="M 3263 -1063 
L 3263 -1509 
L -63 -1509 
L -63 -1063 
L 3263 -1063 
z
" transform="scale(0.015625)"/>
     <path id="DejaVuSans-6b" d="M 581 4863 
L 1159 4863 
L 1159 1991 
L 2875 3500 
L 3609 3500 
L 1753 1863 
L 3688 0 
L 2938 0 
L 1159 1709 
L 1159 0 
L 581 0 
L 581 4863 
z
" transform="scale(0.015625)"/>
     <path id="DejaVuSans-35" d="M 691 4666 
L 3169 4666 
L 3169 4134 
L 1269 4134 
L 1269 2991 
Q 1406 3038 1543 3061 
Q 1681 3084 1819 3084 
Q 2600 3084 3056 2656 
Q 3513 2228 3513 1497 
Q 3513 744 3044 326 
Q 2575 -91 1722 -91 
Q 1428 -91 1123 -41 
Q 819 9 494 109 
L 494 744 
Q 775 591 1075 516 
Q 1375 441 1709 441 
Q 2250 441 2565 725 
Q 2881 1009 2881 1497 
Q 2881 1984 2565 2268 
Q 2250 2553 1709 2553 
Q 1456 2553 1204 2497 
Q 953 2441 691 2322 
L 691 4666 
z
" transform="scale(0.015625)"/>
    </defs>
    <use xlink:href="#DejaVuSans-63"/>
    <use xlink:href="#DejaVuSans-68" transform="translate(54.980469 0)"/>
    <use xlink:href="#DejaVuSans-72" transform="translate(118.359375 0)"/>
    <use xlink:href="#DejaVuSans-31" transform="translate(159.472656 0)"/>
    <use xlink:href="#DejaVuSans-36" transform="translate(223.095703 0)"/>
    <use xlink:href="#DejaVuSans-5f" transform="translate(286.71875 0)"/>
    <use xlink:href="#DejaVuSans-72" transform="translate(336.71875 0)"/>
    <use xlink:href="#DejaVuSans-61" transform="translate(377.832031 0)"/>
    <use xlink:href="#DejaVuSans-6e" transform="translate(439.111328 0)"/>
    <use xlink:href="#DejaVuSans-6b" transform="translate(502.490234 0)"/>
    <use xlink:href="#DejaVuSans-31" transform="translate(560.400391 0)"/>
    <use xlink:href="#DejaVuSans-33" transform="translate(624.023438 0)"/>
    <use xlink:href="#DejaVuSans-5f" transform="translate(687.646484 0)"/>
    <use xlink:href="#DejaVuSans-73" transform="translate(737.646484 0)"/>
    <use xlink:href="#DejaVuSans-63" transform="translate(789.746094 0)"/>
    <use xlink:href="#DejaVuSans-6f" transform="translate(844.726562 0)"/>
    <use xlink:href="#DejaVuSans-72" transform="translate(905.908203 0)"/>
    <use xlink:href="#DejaVuSans-65" transform="translate(944.771484 0)"/>
    <use xlink:href="#DejaVuSans-33" transform="translate(1006.294922 0)"/>
    <use xlink:href="#DejaVuSans-2e" transform="translate(1069.917969 0)"/>
    <use xlink:href="#DejaVuSans-35" transform="translate(1101.705078 0)"/>
    <use xlink:href="#DejaVuSans-32" transform="translate(1165.328125 0)"/>
    <use xlink:href="#DejaVuSans-38" transform="translate(1228.951172 0)"/>
    <use xlink:href="#DejaVuSans-5f" transform="translate(1292.574219 0)"/>
    <use xlink:href="#DejaVuSans-72" transform="translate(1342.574219 0)"/>
    <use xlink:href="#DejaVuSans-65" transform="translate(1381.4375 0)"/>
    <use xlink:href="#DejaVuSans-61" transform="translate(1442.960938 0)"/>
    <use xlink:href="#DejaVuSans-64" transform="translate(1504.240234 0)"/>
    <use xlink:href="#DejaVuSans-73" transform="translate(1567.716797 0)"/>
    <use xlink:href="#DejaVuSans-33" transform="translate(1619.816406 0)"/>
    <use xlink:href="#DejaVuSans-36" transform="translate(1683.439453 0)"/>
    <use xlink:href="#DejaVuSans-30" transform="translate(1747.0625 0)"/>
   </g>
  </g>
 </g>
 <defs>
  <clipPath id="paf19d4bf94">
   <rect x="47.72" y="49.72725" width="877.48" height="268.31275"/>
  </clipPath>
 </defs>
</svg>
