<?xml version="1.0" encoding="utf-8" standalone="no"?>
<!DOCTYPE svg PUBLIC "-//W3C//DTD SVG 1.1//EN"
  "http://www.w3.org/Graphics/SVG/1.1/DTD/svg11.dtd">
<svg xmlns:xlink="http://www.w3.org/1999/xlink" width="936pt" height="360pt" viewBox="0 0 936 360" xmlns="http://www.w3.org/2000/svg" version="1.1">
 <metadata>
  <rdf:RDF xmlns:dc="http://purl.org/dc/elements/1.1/" xmlns:cc="http://creativecommons.org/ns#" xmlns:rdf="http://www.w3.org/1999/02/22-rdf-syntax-ns#">
   <cc:Work>
    <dc:type rdf:resource="http://purl.org/dc/dcmitype/StillImage"/>
    <dc:date>2026-07-17T20:22:14.522951</dc:date>
    <dc:format>image/svg+xml</dc:format>
    <dc:creator>
     <cc:Agent>
      <dc:title>Matplotlib v3.10.8, https://matplotlib.org/</dc:title>
     </cc:Agent>
    </dc:creator>
   </cc:Work>
  </rdf:RDF>
 </metadata>
 <defs>
  <style type="text/css">*{stroke-linejoin: round; stroke-linecap: butt}</style>
 </defs>
 <g id="figure_1">
  <g id="patch_1">
   <path d="M 0 360 
L 936 360 
L 936 0 
L 0 0 
z
" style="fill: #ffffff"/>
  </g>
  <g id="axes_1">
   <g id="patch_2">
    <path d="M 47.72 318.04 
L 925.2 318.04 
L 925.2 49.72725 
L 47.72 49.72725 
z
" style="fill: #ffffff"/>
   </g>
   <g id="matplotlib.axis_1">
    <g id="xtick_1">
     <g id="line2d_1">
      <defs>
       <path id="m9c612d9aa0" d="M 0 0 
L 0 3.5 
" style="stroke: #000000; stroke-width: 0.8"/>
      </defs>
      <g>
       <use xlink:href="#m9c612d9aa0" x="86.806147" y="318.04" style="stroke: #000000; stroke-width: 0.8"/>
      </g>
     </g>
     <g id="text_1">
      <!-- 4.30 -->
      <g transform="translate(75.673334 332.638438) scale(0.1 -0.1)">
       <defs>
        <path id="DejaVuSans-34" d="M 2419 4116 
L 825 1625 
L 2419 1625 
L 2419 4116 
z
M 2253 4666 
L 3047 4666 
L 3047 1625 
L 3713 1625 
L 3713 1100 
L 3047 1100 
L 3047 0 
L 2419 0 
L 2419 1100 
L 313 1100 
L 313 1709 
L 2253 4666 
z
" transform="scale(0.015625)"/>
        <path id="DejaVuSans-2e" d="M 684 794 
L 1344 794 
L 1344 0 
L 684 0 
L 684 794 
z
" transform="scale(0.015625)"/>
        <path id="DejaVuSans-33" d="M 2597 2516 
Q 3050 2419 3304 2112 
Q 3559 1806 3559 1356 
Q 3559 666 3084 287 
Q 2609 -91 1734 -91 
Q 1441 -91 1130 -33 
Q 819 25 488 141 
L 488 750 
Q 750 597 1062 519 
Q 1375 441 1716 441 
Q 2309 441 2620 675 
Q 2931 909 2931 1356 
Q 2931 1769 2642 2001 
Q 2353 2234 1838 2234 
L 1294 2234 
L 1294 2753 
L 1863 2753 
Q 2328 2753 2575 2939 
Q 2822 3125 2822 3475 
Q 2822 3834 2567 4026 
Q 2313 4219 1838 4219 
Q 1578 4219 1281 4162 
Q 984 4106 628 3988 
L 628 4550 
Q 988 4650 1302 4700 
Q 1616 4750 1894 4750 
Q 2613 4750 3031 4423 
Q 3450 4097 3450 3541 
Q 3450 3153 3228 2886 
Q 3006 2619 2597 2516 
z
" transform="scale(0.015625)"/>
        <path id="DejaVuSans-30" d="M 2034 4250 
Q 1547 4250 1301 3770 
Q 1056 3291 1056 2328 
Q 1056 1369 1301 889 
Q 1547 409 2034 409 
Q 2525 409 2770 889 
Q 3016 1369 3016 2328 
Q 3016 3291 2770 3770 
Q 2525 4250 2034 4250 
z
M 2034 4750 
Q 2819 4750 3233 4129 
Q 3647 3509 3647 2328 
Q 3647 1150 3233 529 
Q 2819 -91 2034 -91 
Q 1250 -91 836 529 
Q 422 1150 422 2328 
Q 422 3509 836 4129 
Q 1250 4750 2034 4750 
z
" transform="scale(0.015625)"/>
       </defs>
       <use xlink:href="#DejaVuSans-34"/>
       <use xlink:href="#DejaVuSans-2e" transform="translate(63.623047 0)"/>
       <use xlink:href="#DejaVuSans-33" transform="translate(95.410156 0)"/>
       <use xlink:href="#DejaVuSans-30" transform="translate(159.033203 0)"/>
      </g>
     </g>
    </g>
    <g id="xtick_2">
     <g id="line2d_2">
      <g>
       <use xlink:href="#m9c612d9aa0" x="246.667688" y="318.04" style="stroke: #000000; stroke-width: 0.8"/>
      </g>
     </g>
     <g id="text_2">
      <!-- 4.32 -->
      <g transform="translate(235.534876 332.638438) scale(0.1 -0.1)">
       <defs>
        <path id="DejaVuSans-32" d="M 1228 531 
L 3431 531 
L 3431 0 
L 469 0 
L 469 531 
Q 828 903 1448 1529 
Q 2069 2156 2228 2338 
Q 2531 2678 2651 2914 
Q 2772 3150 2772 3378 
Q 2772 3750 2511 3984 
Q 2250 4219 1831 4219 
Q 1534 4219 1204 4116 
Q 875 4013 500 3803 
L 500 4441 
Q 881 4594 1212 4672 
Q 1544 4750 1819 4750 
Q 2544 4750 2975 4387 
Q 3406 4025 3406 3419 
Q 3406 3131 3298 2873 
Q 3191 2616 2906 2266 
Q 2828 2175 2409 1742 
Q 1991 1309 1228 531 
z
" transform="scale(0.015625)"/>
       </defs>
       <use xlink:href="#DejaVuSans-34"/>
       <use xlink:href="#DejaVuSans-2e" transform="translate(63.623047 0)"/>
       <use xlink:href="#DejaVuSans-33" transform="translate(95.410156 0)"/>
       <use xlink:href="#DejaVuSans-32" transform="translate(159.033203 0)"/>
      </g>
     </g>
    </g>
    <g id="xtick_3">
     <g id="line2d_3">
      <g>
       <use xlink:href="#m9c612d9aa0" x="406.529229" y="318.04" style="stroke: #000000; stroke-width: 0.8"/>
      </g>
     </g>
     <g id="text_3">
      <!-- 4.34 -->
      <g transform="translate(395.396417 332.638438) scale(0.1 -0.1)">
       <use xlink:href="#DejaVuSans-34"/>
       <use xlink:href="#DejaVuSans-2e" transform="translate(63.623047 0)"/>
       <use xlink:href="#DejaVuSans-33" transform="translate(95.410156 0)"/>
       <use xlink:href="#DejaVuSans-34" transform="translate(159.033203 0)"/>
      </g>
     </g>
    </g>
    <g id="xtick_4">
     <g id="line2d_4">
      <g>
       <use xlink:href="#m9c612d9aa0" x="566.390771" y="318.04" style="stroke: #000000; stroke-width: 0.8"/>
      </g>
     </g>
     <g id="text_4">
      <!-- 4.36 -->
      <g transform="translate(555.257958 332.638438) scale(0.1 -0.1)">
       <defs>
        <path id="DejaVuSans-36" d="M 2113 2584 
Q 1688 2584 1439 2293 
Q 1191 2003 1191 1497 
Q 1191 994 1439 701 
Q 1688 409 2113 409 
Q 2538 409 2786 701 
Q 3034 994 3034 1497 
Q 3034 2003 2786 2293 
Q 2538 2584 2113 2584 
z
M 3366 4563 
L 3366 3988 
Q 3128 4100 2886 4159 
Q 2644 4219 2406 4219 
Q 1781 4219 1451 3797 
Q 1122 3375 1075 2522 
Q 1259 2794 1537 2939 
Q 1816 3084 2150 3084 
Q 2853 3084 3261 2657 
Q 3669 2231 3669 1497 
Q 3669 778 3244 343 
Q 2819 -91 2113 -91 
Q 1303 -91 875 529 
Q 447 1150 447 2328 
Q 447 3434 972 4092 
Q 1497 4750 2381 4750 
Q 2619 4750 2861 4703 
Q 3103 4656 3366 4563 
z
" transform="scale(0.015625)"/>
       </defs>
       <use xlink:href="#DejaVuSans-34"/>
       <use xlink:href="#DejaVuSans-2e" transform="translate(63.623047 0)"/>
       <use xlink:href="#DejaVuSans-33" transform="translate(95.410156 0)"/>
       <use xlink:href="#DejaVuSans-36" transform="translate(159.033203 0)"/>
      </g>
     </g>
    </g>
    <g id="xtick_5">
     <g id="line2d_5">
      <g>
       <use xlink:href="#m9c612d9aa0" x="726.252312" y="318.04" style="stroke: #000000; stroke-width: 0.8"/>
      </g>
     </g>
     <g id="text_5">
      <!-- 4.38 -->
      <g transform="translate(715.119499 332.638438) scale(0.1 -0.1)">
       <defs>
        <path id="DejaVuSans-38" d="M 2034 2216 
Q 1584 2216 1326 1975 
Q 1069 1734 1069 1313 
Q 1069 891 1326 650 
Q 1584 409 2034 409 
Q 2484 409 2743 651 
Q 3003 894 3003 1313 
Q 3003 1734 2745 1975 
Q 2488 2216 2034 2216 
z
M 1403 2484 
Q 997 2584 770 2862 
Q 544 3141 544 3541 
Q 544 4100 942 4425 
Q 1341 4750 2034 4750 
Q 2731 4750 3128 4425 
Q 3525 4100 3525 3541 
Q 3525 3141 3298 2862 
Q 3072 2584 2669 2484 
Q 3125 2378 3379 2068 
Q 3634 1759 3634 1313 
Q 3634 634 3220 271 
Q 2806 -91 2034 -91 
Q 1263 -91 848 271 
Q 434 634 434 1313 
Q 434 1759 690 2068 
Q 947 2378 1403 2484 
z
M 1172 3481 
Q 1172 3119 1398 2916 
Q 1625 2713 2034 2713 
Q 2441 2713 2670 2916 
Q 2900 3119 2900 3481 
Q 2900 3844 2670 4047 
Q 2441 4250 2034 4250 
Q 1625 4250 1398 4047 
Q 1172 3844 1172 3481 
z
" transform="scale(0.015625)"/>
       </defs>
       <use xlink:href="#DejaVuSans-34"/>
       <use xlink:href="#DejaVuSans-2e" transform="translate(63.623047 0)"/>
       <use xlink:href="#DejaVuSans-33" transform="translate(95.410156 0)"/>
       <use xlink:href="#DejaVuSans-38" transform="translate(159.033203 0)"/>
      </g>
     </g>
    </g>
    <g id="xtick_6">
     <g id="line2d_6">
      <g>
       <use xlink:href="#m9c612d9aa0" x="886.113853" y="318.04" style="stroke: #000000; stroke-width: 0.8"/>
      </g>
     </g>
     <g id="text_6">
      <!-- 4.40 -->
      <g transform="translate(874.981041 332.638438) scale(0.1 -0.1)">
       <use xlink:href="#DejaVuSans-34"/>
       <use xlink:href="#DejaVuSans-2e" transform="translate(63.623047 0)"/>
       <use xlink:href="#DejaVuSans-34" transform="translate(95.410156 0)"/>
       <use xlink:href="#DejaVuSans-30" transform="translate(159.033203 0)"/>
      </g>
     </g>
    </g>
    <g id="text_7">
     <!-- chr16 coordinate (hg38) -->
     <g transform="translate(425.670156 346.316563) scale(0.1 -0.1)">
      <defs>
       <path id="DejaVuSans-63" d="M 3122 3366 
L 3122 2828 
Q 2878 2963 2633 3030 
Q 2388 3097 2138 3097 
Q 1578 3097 1268 2742 
Q 959 2388 959 1747 
Q 959 1106 1268 751 
Q 1578 397 2138 397 
Q 2388 397 2633 464 
Q 2878 531 3122 666 
L 3122 134 
Q 2881 22 2623 -34 
Q 2366 -91 2075 -91 
Q 1284 -91 818 406 
Q 353 903 353 1747 
Q 353 2603 823 3093 
Q 1294 3584 2113 3584 
Q 2378 3584 2631 3529 
Q 2884 3475 3122 3366 
z
" transform="scale(0.015625)"/>
       <path id="DejaVuSans-68" d="M 3513 2113 
L 3513 0 
L 2938 0 
L 2938 2094 
Q 2938 2591 2744 2837 
Q 2550 3084 2163 3084 
Q 1697 3084 1428 2787 
Q 1159 2491 1159 1978 
L 1159 0 
L 581 0 
L 581 4863 
L 1159 4863 
L 1159 2956 
Q 1366 3272 1645 3428 
Q 1925 3584 2291 3584 
Q 2894 3584 3203 3211 
Q 3513 2838 3513 2113 
z
" transform="scale(0.015625)"/>
       <path id="DejaVuSans-72" d="M 2631 2963 
Q 2534 3019 2420 3045 
Q 2306 3072 2169 3072 
Q 1681 3072 1420 2755 
Q 1159 2438 1159 1844 
L 1159 0 
L 581 0 
L 581 3500 
L 1159 3500 
L 1159 2956 
Q 1341 3275 1631 3429 
Q 1922 3584 2338 3584 
Q 2397 3584 2469 3576 
Q 2541 3569 2628 3553 
L 2631 2963 
z
" transform="scale(0.015625)"/>
       <path id="DejaVuSans-31" d="M 794 531 
L 1825 531 
L 1825 4091 
L 703 3866 
L 703 4441 
L 1819 4666 
L 2450 4666 
L 2450 531 
L 3481 531 
L 3481 0 
L 794 0 
L 794 531 
z
" transform="scale(0.015625)"/>
       <path id="DejaVuSans-20" transform="scale(0.015625)"/>
       <path id="DejaVuSans-6f" d="M 1959 3097 
Q 1497 3097 1228 2736 
Q 959 2375 959 1747 
Q 959 1119 1226 758 
Q 1494 397 1959 397 
Q 2419 397 2687 759 
Q 2956 1122 2956 1747 
Q 2956 2369 2687 2733 
Q 2419 3097 1959 3097 
z
M 1959 3584 
Q 2709 3584 3137 3096 
Q 3566 2609 3566 1747 
Q 3566 888 3137 398 
Q 2709 -91 1959 -91 
Q 1206 -91 779 398 
Q 353 888 353 1747 
Q 353 2609 779 3096 
Q 1206 3584 1959 3584 
z
" transform="scale(0.015625)"/>
       <path id="DejaVuSans-64" d="M 2906 2969 
L 2906 4863 
L 3481 4863 
L 3481 0 
L 2906 0 
L 2906 525 
Q 2725 213 2448 61 
Q 2172 -91 1784 -91 
Q 1150 -91 751 415 
Q 353 922 353 1747 
Q 353 2572 751 3078 
Q 1150 3584 1784 3584 
Q 2172 3584 2448 3432 
Q 2725 3281 2906 2969 
z
M 947 1747 
Q 947 1113 1208 752 
Q 1469 391 1925 391 
Q 2381 391 2643 752 
Q 2906 1113 2906 1747 
Q 2906 2381 2643 2742 
Q 2381 3103 1925 3103 
Q 1469 3103 1208 2742 
Q 947 2381 947 1747 
z
" transform="scale(0.015625)"/>
       <path id="DejaVuSans-69" d="M 603 3500 
L 1178 3500 
L 1178 0 
L 603 0 
L 603 3500 
z
M 603 4863 
L 1178 4863 
L 1178 4134 
L 603 4134 
L 603 4863 
z
" transform="scale(0.015625)"/>
       <path id="DejaVuSans-6e" d="M 3513 2113 
L 3513 0 
L 2938 0 
L 2938 2094 
Q 2938 2591 2744 2837 
Q 2550 3084 2163 3084 
Q 1697 3084 1428 2787 
Q 1159 2491 1159 1978 
L 1159 0 
L 581 0 
L 581 3500 
L 1159 3500 
L 1159 2956 
Q 1366 3272 1645 3428 
Q 1925 3584 2291 3584 
Q 2894 3584 3203 3211 
Q 3513 2838 3513 2113 
z
" transform="scale(0.015625)"/>
       <path id="DejaVuSans-61" d="M 2194 1759 
Q 1497 1759 1228 1600 
Q 959 1441 959 1056 
Q 959 750 1161 570 
Q 1363 391 1709 391 
Q 2188 391 2477 730 
Q 2766 1069 2766 1631 
L 2766 1759 
L 2194 1759 
z
M 3341 1997 
L 3341 0 
L 2766 0 
L 2766 531 
Q 2569 213 2275 61 
Q 1981 -91 1556 -91 
Q 1019 -91 701 211 
Q 384 513 384 1019 
Q 384 1609 779 1909 
Q 1175 2209 1959 2209 
L 2766 2209 
L 2766 2266 
Q 2766 2663 2505 2880 
Q 2244 3097 1772 3097 
Q 1472 3097 1187 3025 
Q 903 2953 641 2809 
L 641 3341 
Q 956 3463 1253 3523 
Q 1550 3584 1831 3584 
Q 2591 3584 2966 3190 
Q 3341 2797 3341 1997 
z
" transform="scale(0.015625)"/>
       <path id="DejaVuSans-74" d="M 1172 4494 
L 1172 3500 
L 2356 3500 
L 2356 3053 
L 1172 3053 
L 1172 1153 
Q 1172 725 1289 603 
Q 1406 481 1766 481 
L 2356 481 
L 2356 0 
L 1766 0 
Q 1100 0 847 248 
Q 594 497 594 1153 
L 594 3053 
L 172 3053 
L 172 3500 
L 594 3500 
L 594 4494 
L 1172 4494 
z
" transform="scale(0.015625)"/>
       <path id="DejaVuSans-65" d="M 3597 1894 
L 3597 1613 
L 953 1613 
Q 991 1019 1311 708 
Q 1631 397 2203 397 
Q 2534 397 2845 478 
Q 3156 559 3463 722 
L 3463 178 
Q 3153 47 2828 -22 
Q 2503 -91 2169 -91 
Q 1331 -91 842 396 
Q 353 884 353 1716 
Q 353 2575 817 3079 
Q 1281 3584 2069 3584 
Q 2775 3584 3186 3129 
Q 3597 2675 3597 1894 
z
M 3022 2063 
Q 3016 2534 2758 2815 
Q 2500 3097 2075 3097 
Q 1594 3097 1305 2825 
Q 1016 2553 972 2059 
L 3022 2063 
z
" transform="scale(0.015625)"/>
       <path id="DejaVuSans-28" d="M 1984 4856 
Q 1566 4138 1362 3434 
Q 1159 2731 1159 2009 
Q 1159 1288 1364 580 
Q 1569 -128 1984 -844 
L 1484 -844 
Q 1016 -109 783 600 
Q 550 1309 550 2009 
Q 550 2706 781 3412 
Q 1013 4119 1484 4856 
L 1984 4856 
z
" transform="scale(0.015625)"/>
       <path id="DejaVuSans-67" d="M 2906 1791 
Q 2906 2416 2648 2759 
Q 2391 3103 1925 3103 
Q 1463 3103 1205 2759 
Q 947 2416 947 1791 
Q 947 1169 1205 825 
Q 1463 481 1925 481 
Q 2391 481 2648 825 
Q 2906 1169 2906 1791 
z
M 3481 434 
Q 3481 -459 3084 -895 
Q 2688 -1331 1869 -1331 
Q 1566 -1331 1297 -1286 
Q 1028 -1241 775 -1147 
L 775 -588 
Q 1028 -725 1275 -790 
Q 1522 -856 1778 -856 
Q 2344 -856 2625 -561 
Q 2906 -266 2906 331 
L 2906 616 
Q 2728 306 2450 153 
Q 2172 0 1784 0 
Q 1141 0 747 490 
Q 353 981 353 1791 
Q 353 2603 747 3093 
Q 1141 3584 1784 3584 
Q 2172 3584 2450 3431 
Q 2728 3278 2906 2969 
L 2906 3500 
L 3481 3500 
L 3481 434 
z
" transform="scale(0.015625)"/>
       <path id="DejaVuSans-29" d="M 513 4856 
L 1013 4856 
Q 1481 4119 1714 3412 
Q 1947 2706 1947 2009 
Q 1947 1309 1714 600 
Q 1481 -109 1013 -844 
L 513 -844 
Q 928 -128 1133 580 
Q 1338 1288 1338 2009 
Q 1338 2731 1133 3434 
Q 928 4138 513 4856 
z
" transform="scale(0.015625)"/>
      </defs>
      <use xlink:href="#DejaVuSans-63"/>
      <use xlink:href="#DejaVuSans-68" transform="translate(54.980469 0)"/>
      <use xlink:href="#DejaVuSans-72" transform="translate(118.359375 0)"/>
      <use xlink:href="#DejaVuSans-31" transform="translate(159.472656 0)"/>
      <use xlink:href="#DejaVuSans-36" transform="translate(223.095703 0)"/>
      <use xlink:href="#DejaVuSans-20" transform="translate(286.71875 0)"/>
      <use xlink:href="#DejaVuSans-63" transform="translate(318.505859 0)"/>
      <use xlink:href="#DejaVuSans-6f" transform="translate(373.486328 0)"/>
      <use xlink:href="#DejaVuSans-6f" transform="translate(434.667969 0)"/>
      <use xlink:href="#DejaVuSans-72" transform="translate(495.849609 0)"/>
      <use xlink:href="#DejaVuSans-64" transform="translate(535.212891 0)"/>
      <use xlink:href="#DejaVuSans-69" transform="translate(598.689453 0)"/>
      <use xlink:href="#DejaVuSans-6e" transform="translate(626.472656 0)"/>
      <use xlink:href="#DejaVuSans-61" transform="translate(689.851562 0)"/>
      <use xlink:href="#DejaVuSans-74" transform="translate(751.130859 0)"/>
      <use xlink:href="#DejaVuSans-65" transform="translate(790.339844 0)"/>
      <use xlink:href="#DejaVuSans-20" transform="translate(851.863281 0)"/>
      <use xlink:href="#DejaVuSans-28" transform="translate(883.650391 0)"/>
      <use xlink:href="#DejaVuSans-68" transform="translate(922.664062 0)"/>
      <use xlink:href="#DejaVuSans-67" transform="translate(986.042969 0)"/>
      <use xlink:href="#DejaVuSans-33" transform="translate(1049.519531 0)"/>
      <use xlink:href="#DejaVuSans-38" transform="translate(1113.142578 0)"/>
      <use xlink:href="#DejaVuSans-29" transform="translate(1176.765625 0)"/>
     </g>
    </g>
    <g id="text_8">
     <!-- 1e6 -->
     <g transform="translate(906.321875 345.316563) scale(0.1 -0.1)">
      <use xlink:href="#DejaVuSans-31"/>
      <use xlink:href="#DejaVuSans-65" transform="translate(63.623047 0)"/>
      <use xlink:href="#DejaVuSans-36" transform="translate(125.146484 0)"/>
     </g>
    </g>
   </g>
   <g id="matplotlib.axis_2">
    <g id="ytick_1">
     <g id="line2d_7">
      <defs>
       <path id="m6df947d60a" d="M 0 0 
L -3.5 0 
" style="stroke: #000000; stroke-width: 0.8"/>
      </defs>
      <g>
       <use xlink:href="#m6df947d60a" x="47.72" y="305.843966" style="stroke: #000000; stroke-width: 0.8"/>
      </g>
     </g>
     <g id="text_9">
      <!-- 0.0 -->
      <g transform="translate(24.816875 309.643185) scale(0.1 -0.1)">
       <use xlink:href="#DejaVuSans-30"/>
       <use xlink:href="#DejaVuSans-2e" transform="translate(63.623047 0)"/>
       <use xlink:href="#DejaVuSans-30" transform="translate(95.410156 0)"/>
      </g>
     </g>
    </g>
    <g id="ytick_2">
     <g id="line2d_8">
      <g>
       <use xlink:href="#m6df947d60a" x="47.72" y="257.05983" style="stroke: #000000; stroke-width: 0.8"/>
      </g>
     </g>
     <g id="text_10">
      <!-- 0.2 -->
      <g transform="translate(24.816875 260.859048) scale(0.1 -0.1)">
       <use xlink:href="#DejaVuSans-30"/>
       <use xlink:href="#DejaVuSans-2e" transform="translate(63.623047 0)"/>
       <use xlink:href="#DejaVuSans-32" transform="translate(95.410156 0)"/>
      </g>
     </g>
    </g>
    <g id="ytick_3">
     <g id="line2d_9">
      <g>
       <use xlink:href="#m6df947d60a" x="47.72" y="208.275693" style="stroke: #000000; stroke-width: 0.8"/>
      </g>
     </g>
     <g id="text_11">
      <!-- 0.4 -->
      <g transform="translate(24.816875 212.074912) scale(0.1 -0.1)">
       <use xlink:href="#DejaVuSans-30"/>
       <use xlink:href="#DejaVuSans-2e" transform="translate(63.623047 0)"/>
       <use xlink:href="#DejaVuSans-34" transform="translate(95.410156 0)"/>
      </g>
     </g>
    </g>
    <g id="ytick_4">
     <g id="line2d_10">
      <g>
       <use xlink:href="#m6df947d60a" x="47.72" y="159.491557" style="stroke: #000000; stroke-width: 0.8"/>
      </g>
     </g>
     <g id="text_12">
      <!-- 0.6 -->
      <g transform="translate(24.816875 163.290776) scale(0.1 -0.1)">
       <use xlink:href="#DejaVuSans-30"/>
       <use xlink:href="#DejaVuSans-2e" transform="translate(63.623047 0)"/>
       <use xlink:href="#DejaVuSans-36" transform="translate(95.410156 0)"/>
      </g>
     </g>
    </g>
    <g id="ytick_5">
     <g id="line2d_11">
      <g>
       <use xlink:href="#m6df947d60a" x="47.72" y="110.70742" style="stroke: #000000; stroke-width: 0.8"/>
      </g>
     </g>
     <g id="text_13">
      <!-- 0.8 -->
      <g transform="translate(24.816875 114.506639) scale(0.1 -0.1)">
       <use xlink:href="#DejaVuSans-30"/>
       <use xlink:href="#DejaVuSans-2e" transform="translate(63.623047 0)"/>
       <use xlink:href="#DejaVuSans-38" transform="translate(95.410156 0)"/>
      </g>
     </g>
    </g>
    <g id="ytick_6">
     <g id="line2d_12">
      <g>
       <use xlink:href="#m6df947d60a" x="47.72" y="61.923284" style="stroke: #000000; stroke-width: 0.8"/>
      </g>
     </g>
     <g id="text_14">
      <!-- 1.0 -->
      <g transform="translate(24.816875 65.722503) scale(0.1 -0.1)">
       <use xlink:href="#DejaVuSans-31"/>
       <use xlink:href="#DejaVuSans-2e" transform="translate(63.623047 0)"/>
       <use xlink:href="#DejaVuSans-30" transform="translate(95.410156 0)"/>
      </g>
     </g>
    </g>
    <g id="text_15">
     <!-- global robust normalized signal -->
     <g transform="translate(18.737188 262.384406) rotate(-90) scale(0.1 -0.1)">
      <defs>
       <path id="DejaVuSans-6c" d="M 603 4863 
L 1178 4863 
L 1178 0 
L 603 0 
L 603 4863 
z
" transform="scale(0.015625)"/>
       <path id="DejaVuSans-62" d="M 3116 1747 
Q 3116 2381 2855 2742 
Q 2594 3103 2138 3103 
Q 1681 3103 1420 2742 
Q 1159 2381 1159 1747 
Q 1159 1113 1420 752 
Q 1681 391 2138 391 
Q 2594 391 2855 752 
Q 3116 1113 3116 1747 
z
M 1159 2969 
Q 1341 3281 1617 3432 
Q 1894 3584 2278 3584 
Q 2916 3584 3314 3078 
Q 3713 2572 3713 1747 
Q 3713 922 3314 415 
Q 2916 -91 2278 -91 
Q 1894 -91 1617 61 
Q 1341 213 1159 525 
L 1159 0 
L 581 0 
L 581 4863 
L 1159 4863 
L 1159 2969 
z
" transform="scale(0.015625)"/>
       <path id="DejaVuSans-75" d="M 544 1381 
L 544 3500 
L 1119 3500 
L 1119 1403 
Q 1119 906 1312 657 
Q 1506 409 1894 409 
Q 2359 409 2629 706 
Q 2900 1003 2900 1516 
L 2900 3500 
L 3475 3500 
L 3475 0 
L 2900 0 
L 2900 538 
Q 2691 219 2414 64 
Q 2138 -91 1772 -91 
Q 1169 -91 856 284 
Q 544 659 544 1381 
z
M 1991 3584 
L 1991 3584 
z
" transform="scale(0.015625)"/>
       <path id="DejaVuSans-73" d="M 2834 3397 
L 2834 2853 
Q 2591 2978 2328 3040 
Q 2066 3103 1784 3103 
Q 1356 3103 1142 2972 
Q 928 2841 928 2578 
Q 928 2378 1081 2264 
Q 1234 2150 1697 2047 
L 1894 2003 
Q 2506 1872 2764 1633 
Q 3022 1394 3022 966 
Q 3022 478 2636 193 
Q 2250 -91 1575 -91 
Q 1294 -91 989 -36 
Q 684 19 347 128 
L 347 722 
Q 666 556 975 473 
Q 1284 391 1588 391 
Q 1994 391 2212 530 
Q 2431 669 2431 922 
Q 2431 1156 2273 1281 
Q 2116 1406 1581 1522 
L 1381 1569 
Q 847 1681 609 1914 
Q 372 2147 372 2553 
Q 372 3047 722 3315 
Q 1072 3584 1716 3584 
Q 2034 3584 2315 3537 
Q 2597 3491 2834 3397 
z
" transform="scale(0.015625)"/>
       <path id="DejaVuSans-6d" d="M 3328 2828 
Q 3544 3216 3844 3400 
Q 4144 3584 4550 3584 
Q 5097 3584 5394 3201 
Q 5691 2819 5691 2113 
L 5691 0 
L 5113 0 
L 5113 2094 
Q 5113 2597 4934 2840 
Q 4756 3084 4391 3084 
Q 3944 3084 3684 2787 
Q 3425 2491 3425 1978 
L 3425 0 
L 2847 0 
L 2847 2094 
Q 2847 2600 2669 2842 
Q 2491 3084 2119 3084 
Q 1678 3084 1418 2786 
Q 1159 2488 1159 1978 
L 1159 0 
L 581 0 
L 581 3500 
L 1159 3500 
L 1159 2956 
Q 1356 3278 1631 3431 
Q 1906 3584 2284 3584 
Q 2666 3584 2933 3390 
Q 3200 3197 3328 2828 
z
" transform="scale(0.015625)"/>
       <path id="DejaVuSans-7a" d="M 353 3500 
L 3084 3500 
L 3084 2975 
L 922 459 
L 3084 459 
L 3084 0 
L 275 0 
L 275 525 
L 2438 3041 
L 353 3041 
L 353 3500 
z
" transform="scale(0.015625)"/>
      </defs>
      <use xlink:href="#DejaVuSans-67"/>
      <use xlink:href="#DejaVuSans-6c" transform="translate(63.476562 0)"/>
      <use xlink:href="#DejaVuSans-6f" transform="translate(91.259766 0)"/>
      <use xlink:href="#DejaVuSans-62" transform="translate(152.441406 0)"/>
      <use xlink:href="#DejaVuSans-61" transform="translate(215.917969 0)"/>
      <use xlink:href="#DejaVuSans-6c" transform="translate(277.197266 0)"/>
      <use xlink:href="#DejaVuSans-20" transform="translate(304.980469 0)"/>
      <use xlink:href="#DejaVuSans-72" transform="translate(336.767578 0)"/>
      <use xlink:href="#DejaVuSans-6f" transform="translate(375.630859 0)"/>
      <use xlink:href="#DejaVuSans-62" transform="translate(436.8125 0)"/>
      <use xlink:href="#DejaVuSans-75" transform="translate(500.289062 0)"/>
      <use xlink:href="#DejaVuSans-73" transform="translate(563.667969 0)"/>
      <use xlink:href="#DejaVuSans-74" transform="translate(615.767578 0)"/>
      <use xlink:href="#DejaVuSans-20" transform="translate(654.976562 0)"/>
      <use xlink:href="#DejaVuSans-6e" transform="translate(686.763672 0)"/>
      <use xlink:href="#DejaVuSans-6f" transform="translate(750.142578 0)"/>
      <use xlink:href="#DejaVuSans-72" transform="translate(811.324219 0)"/>
      <use xlink:href="#DejaVuSans-6d" transform="translate(850.6875 0)"/>
      <use xlink:href="#DejaVuSans-61" transform="translate(948.099609 0)"/>
      <use xlink:href="#DejaVuSans-6c" transform="translate(1009.378906 0)"/>
      <use xlink:href="#DejaVuSans-69" transform="translate(1037.162109 0)"/>
      <use xlink:href="#DejaVuSans-7a" transform="translate(1064.945312 0)"/>
      <use xlink:href="#DejaVuSans-65" transform="translate(1117.435547 0)"/>
      <use xlink:href="#DejaVuSans-64" transform="translate(1178.958984 0)"/>
      <use xlink:href="#DejaVuSans-20" transform="translate(1242.435547 0)"/>
      <use xlink:href="#DejaVuSans-73" transform="translate(1274.222656 0)"/>
      <use xlink:href="#DejaVuSans-69" transform="translate(1326.322266 0)"/>
      <use xlink:href="#DejaVuSans-67" transform="translate(1354.105469 0)"/>
      <use xlink:href="#DejaVuSans-6e" transform="translate(1417.582031 0)"/>
      <use xlink:href="#DejaVuSans-61" transform="translate(1480.960938 0)"/>
      <use xlink:href="#DejaVuSans-6c" transform="translate(1542.240234 0)"/>
     </g>
    </g>
   </g>
   <g id="line2d_13">
    <path d="M 87.605455 290.116648 
L 89.20407 293.741434 
L 90.802685 295.381476 
L 92.401301 297.472504 
L 93.999916 298.104607 
L 95.598532 303.278908 
L 97.197147 301.032638 
L 98.795762 301.226401 
L 100.394378 301.22362 
L 101.992993 303.354184 
L 103.591609 300.899715 
L 105.190224 299.689209 
L 106.788839 303.610454 
L 108.387455 304.274757 
L 109.98607 301.193405 
L 111.584686 299.66086 
L 113.183301 299.771777 
L 114.781917 302.47689 
L 116.380532 301.213011 
L 117.979147 301.792487 
L 121.176378 297.77749 
L 122.774994 298.502535 
L 124.373609 300.057486 
L 125.972224 301.796628 
L 127.57084 299.884457 
L 129.169455 298.351268 
L 133.965302 295.705524 
L 135.563917 303.962038 
L 137.162532 293.5013 
L 138.761148 293.383678 
L 140.359763 270.185229 
L 141.958379 213.273247 
L 145.155609 75.327659 
L 146.754225 100.203429 
L 148.35284 264.259077 
L 149.951456 256.486264 
L 151.550071 257.365764 
L 153.148686 249.055897 
L 154.747302 294.793219 
L 156.345917 296.628243 
L 157.944533 300.569488 
L 159.543148 302.019928 
L 161.141764 300.043936 
L 162.740379 301.162573 
L 164.338994 298.794053 
L 165.93761 299.595416 
L 167.536225 297.538777 
L 169.134841 296.833629 
L 170.733456 301.961375 
L 172.332071 303.136315 
L 173.930687 305.525012 
L 175.529302 303.763185 
L 177.127918 302.845291 
L 178.726533 300.03863 
L 180.325148 299.743477 
L 181.923764 304.173031 
L 183.522379 305.343202 
L 185.120995 301.693656 
L 186.71961 303.393538 
L 188.318226 304.832188 
L 189.916841 302.62565 
L 191.515456 299.718922 
L 193.114072 299.772926 
L 194.712687 296.646281 
L 196.311303 293.76478 
L 197.909918 288.381551 
L 199.508533 290.804766 
L 201.107149 289.818075 
L 202.705764 293.013224 
L 204.30438 291.28629 
L 205.902995 263.798371 
L 207.50161 206.372554 
L 209.100226 175.775244 
L 210.698841 184.720261 
L 212.297457 230.081724 
L 213.896072 198.516892 
L 215.494688 137.784701 
L 217.093303 61.923284 
L 220.290534 61.923284 
L 221.889149 107.804273 
L 223.487765 192.328522 
L 225.08638 205.100612 
L 226.684995 214.851869 
L 228.283611 231.678009 
L 229.882226 226.799166 
L 231.480842 253.156426 
L 233.079457 264.851233 
L 234.678073 272.478856 
L 236.276688 283.617145 
L 237.875303 283.629657 
L 239.473919 290.66819 
L 241.072534 285.189322 
L 242.67115 286.406273 
L 244.269765 292.544232 
L 245.86838 289.999085 
L 247.466996 294.476148 
L 249.065611 292.898581 
L 250.664227 294.119341 
L 252.262842 294.298046 
L 253.861457 296.839748 
L 255.460073 296.95159 
L 257.058688 299.782143 
L 258.657304 299.73053 
L 260.255919 298.182107 
L 261.854535 301.375274 
L 263.45315 301.156829 
L 265.051765 296.360949 
L 266.650381 295.954743 
L 268.248996 298.389715 
L 269.847612 293.424024 
L 271.446227 283.912942 
L 273.044842 287.083359 
L 274.643458 291.084695 
L 276.242073 282.132039 
L 277.840689 282.245406 
L 279.439304 271.841777 
L 281.037919 290.677222 
L 282.636535 289.712664 
L 284.23515 292.118485 
L 285.833766 295.769034 
L 287.432381 299.881943 
L 289.030997 301.724597 
L 290.629612 301.817237 
L 292.228227 301.335538 
L 297.024074 300.488248 
L 298.622689 299.528265 
L 300.221304 301.256566 
L 301.81992 300.272684 
L 303.418535 295.391823 
L 305.017151 295.233897 
L 308.214381 301.847335 
L 309.812997 300.361291 
L 311.411612 297.448808 
L 313.010228 296.952765 
L 314.608843 296.087052 
L 316.207459 292.314303 
L 317.806074 297.477574 
L 319.404689 297.737461 
L 321.003305 294.002499 
L 322.60192 296.821284 
L 324.200536 301.288846 
L 325.799151 301.888062 
L 327.397766 300.153424 
L 328.996382 298.875695 
L 330.594997 301.213176 
L 332.193613 300.360528 
L 333.792228 304.330721 
L 335.390844 305.82333 
L 336.989459 303.352952 
L 338.588074 305.034919 
L 340.18669 305.666588 
L 341.785305 302.767729 
L 343.383921 303.781647 
L 344.982536 299.910095 
L 346.581151 302.6747 
L 348.179767 304.719311 
L 349.778382 303.827336 
L 351.376998 304.994046 
L 352.975613 301.16966 
L 354.574228 298.463417 
L 356.172844 302.025148 
L 357.771459 300.49039 
L 359.370075 299.980666 
L 360.96869 303.256855 
L 362.567306 302.320353 
L 365.764536 298.539486 
L 367.363152 302.830096 
L 368.961767 299.865362 
L 370.560383 300.448144 
L 372.158998 304.230097 
L 373.757613 299.830511 
L 375.356229 299.36558 
L 376.954844 300.893693 
L 378.55346 300.358026 
L 380.152075 302.283478 
L 381.75069 299.234922 
L 384.947921 298.996841 
L 386.546537 299.462128 
L 388.145152 302.227884 
L 389.743768 302.761612 
L 391.342383 299.673627 
L 392.940998 302.574782 
L 394.539614 302.251365 
L 396.138229 298.795706 
L 397.736845 299.59645 
L 399.33546 298.997084 
L 400.934075 300.553197 
L 402.532691 299.364147 
L 404.131306 297.710173 
L 405.729922 298.949612 
L 407.328537 296.204773 
L 408.927152 294.129246 
L 410.525768 301.001039 
L 412.124383 300.185919 
L 413.722999 302.528205 
L 415.321614 304.665488 
L 416.92023 300.387125 
L 420.11746 302.61366 
L 421.716076 303.237956 
L 423.314691 300.227322 
L 424.913307 302.767873 
L 426.511922 305.707063 
L 428.110537 303.624446 
L 429.709153 303.418974 
L 431.307768 303.403364 
L 432.906384 304.076351 
L 434.504999 301.900415 
L 436.103615 297.458435 
L 437.70223 295.115852 
L 439.300845 302.44681 
L 440.899461 305.843966 
L 442.498076 304.350482 
L 444.096692 305.201975 
L 445.695307 302.564906 
L 447.293922 299.22723 
L 448.892538 296.461019 
L 450.491153 301.581193 
L 452.089769 299.060586 
L 453.688384 298.620443 
L 455.286999 299.993872 
L 456.885615 299.094662 
L 458.48423 295.593661 
L 460.082846 299.89723 
L 461.681461 297.921186 
L 463.280077 298.504295 
L 464.878692 297.295215 
L 466.477307 298.936481 
L 468.075923 299.492876 
L 469.674538 302.966534 
L 471.273154 303.480242 
L 472.871769 301.040019 
L 474.470384 301.728709 
L 476.069 300.876208 
L 477.667615 301.351537 
L 479.266231 304.046769 
L 480.864846 301.14384 
L 482.463461 291.442668 
L 484.062077 289.43323 
L 487.259308 272.993106 
L 488.857923 267.738077 
L 490.456539 219.715091 
L 492.055154 179.76861 
L 493.653769 73.036681 
L 495.252385 61.923284 
L 498.449616 288.004845 
L 500.048231 290.524608 
L 501.646846 299.253742 
L 503.245462 299.28891 
L 504.844077 299.521466 
L 508.041308 301.83786 
L 509.639923 301.772896 
L 511.238539 300.170654 
L 512.837154 299.932747 
L 514.43577 302.370644 
L 516.034385 301.538472 
L 517.633001 299.387636 
L 519.231616 301.479934 
L 520.830231 304.188212 
L 522.428847 304.688716 
L 524.027462 304.205058 
L 525.626078 304.858237 
L 527.224693 300.578206 
L 528.823308 298.929753 
L 530.421924 301.652547 
L 532.020539 305.742847 
L 533.619155 302.752807 
L 535.21777 302.804287 
L 536.816385 304.544799 
L 538.415001 300.824112 
L 540.013616 304.370843 
L 541.612232 303.550389 
L 543.210847 303.015638 
L 544.809463 305.44749 
L 546.408078 305.801268 
L 548.006693 303.099223 
L 551.203924 300.223625 
L 552.80254 302.956379 
L 554.401155 304.150185 
L 555.99977 301.019644 
L 557.598386 300.473517 
L 559.197001 299.679618 
L 560.795617 299.036333 
L 562.394232 300.039624 
L 563.992848 300.872913 
L 565.591463 303.86832 
L 567.190078 302.610152 
L 568.788694 299.781668 
L 570.387309 300.646599 
L 571.985925 301.275492 
L 573.58454 304.171816 
L 575.183155 300.194372 
L 576.781771 298.982046 
L 578.380386 302.445604 
L 579.979002 305.051042 
L 581.577617 304.025878 
L 583.176232 303.198042 
L 584.774848 299.870421 
L 586.373463 300.822561 
L 587.972079 302.243757 
L 589.570694 299.92547 
L 591.16931 301.441676 
L 595.965156 300.213086 
L 599.162387 300.887198 
L 600.761002 299.788943 
L 602.359617 299.478747 
L 603.958233 303.721365 
L 605.556848 303.867743 
L 607.155464 302.696668 
L 608.754079 300.427644 
L 610.352694 302.107102 
L 611.95131 304.374029 
L 613.549925 303.648174 
L 615.148541 298.823472 
L 616.747156 302.17652 
L 618.345772 302.019939 
L 619.944387 299.420255 
L 621.543002 300.283204 
L 623.141618 301.356349 
L 624.740233 299.502114 
L 626.338849 301.47797 
L 627.937464 301.148189 
L 629.536079 303.269933 
L 631.134695 301.88333 
L 632.73331 300.128692 
L 634.331926 302.182207 
L 635.930541 302.074612 
L 637.529156 300.47452 
L 639.127772 298.366639 
L 640.726387 300.305817 
L 642.325003 301.175532 
L 643.923618 297.992697 
L 645.522234 302.304317 
L 647.120849 304.274462 
L 648.719464 301.244603 
L 651.916695 302.145654 
L 653.515311 303.336982 
L 655.113926 299.664597 
L 656.712541 295.209304 
L 658.311157 271.943453 
L 659.909772 253.90743 
L 661.508388 136.403561 
L 663.107003 82.303657 
L 664.705619 141.190367 
L 666.304234 164.250813 
L 667.902849 223.363205 
L 669.501465 228.369662 
L 671.10008 273.30946 
L 672.698696 290.762538 
L 674.297311 282.218368 
L 675.895926 283.819521 
L 677.494542 268.762621 
L 679.093157 284.924379 
L 680.691773 284.649143 
L 682.290388 285.798895 
L 683.889003 293.303352 
L 685.487619 289.381067 
L 687.086234 292.401272 
L 688.68485 294.977315 
L 690.283465 300.650289 
L 691.882081 297.940192 
L 693.480696 298.293505 
L 695.079311 302.462747 
L 696.677927 299.593525 
L 698.276542 297.643141 
L 699.875158 299.473739 
L 701.473773 298.479014 
L 703.072388 298.892809 
L 704.671004 300.131519 
L 706.269619 299.321933 
L 707.868235 304.216476 
L 709.46685 299.651068 
L 711.065465 301.436893 
L 712.664081 300.768796 
L 714.262696 298.134791 
L 715.861312 296.625899 
L 717.459927 298.926928 
L 719.058543 299.774973 
L 720.657158 301.541701 
L 722.255773 299.238027 
L 723.854389 298.940647 
L 725.453004 301.812243 
L 727.05162 302.769924 
L 728.650235 301.364294 
L 730.24885 303.727486 
L 731.847466 302.511495 
L 733.446081 302.184319 
L 736.643312 297.719461 
L 738.241927 299.61638 
L 739.840543 300.299548 
L 741.439158 303.556679 
L 743.037774 303.983641 
L 744.636389 304.544813 
L 746.235005 305.843966 
L 747.83362 305.508482 
L 749.432235 305.477986 
L 751.030851 305.843966 
L 752.629466 302.449849 
L 754.228082 301.037007 
L 755.826697 302.601694 
L 757.425312 300.711451 
L 759.023928 301.653644 
L 760.622543 304.173065 
L 762.221159 300.366646 
L 763.819774 301.78358 
L 765.41839 302.912615 
L 767.017005 301.129992 
L 768.61562 302.452691 
L 771.812851 297.141671 
L 773.411467 302.92231 
L 775.010082 299.189256 
L 776.608697 298.076485 
L 778.207313 302.715916 
L 779.805928 300.450449 
L 781.404544 300.179285 
L 783.003159 298.784754 
L 784.601774 298.868411 
L 786.20039 297.169369 
L 787.799005 301.756838 
L 789.397621 302.1233 
L 790.996236 298.71979 
L 792.594852 302.473196 
L 794.193467 297.086556 
L 795.792082 297.245151 
L 797.390698 302.422192 
L 798.989313 302.031822 
L 800.587929 302.30179 
L 802.186544 301.440156 
L 803.785159 304.203224 
L 805.383775 300.269797 
L 808.581006 297.120564 
L 810.179621 302.568808 
L 811.778236 299.544426 
L 813.376852 300.868248 
L 814.975467 299.341931 
L 816.574083 300.86069 
L 818.172698 303.325281 
L 819.771314 298.291468 
L 821.369929 297.384418 
L 822.968544 305.759106 
L 824.56716 303.316097 
L 826.165775 300.470301 
L 827.764391 300.693232 
L 829.363006 299.552638 
L 830.961621 302.288279 
L 832.560237 303.245617 
L 834.158852 299.327465 
L 835.757468 300.366828 
L 837.356083 301.24497 
L 838.954698 299.097926 
L 840.553314 301.59302 
L 842.151929 303.483453 
L 843.750545 303.783886 
L 845.34916 303.956541 
L 846.947776 303.373623 
L 848.546391 302.615324 
L 850.145006 302.452083 
L 851.743622 300.459688 
L 853.342237 303.489313 
L 854.940853 302.946053 
L 856.539468 302.117966 
L 858.138083 303.390524 
L 859.736699 302.020178 
L 861.335314 300.922918 
L 862.93393 304.994894 
L 864.532545 303.75667 
L 866.131161 297.514202 
L 867.729776 302.248613 
L 869.328391 302.152964 
L 870.927007 300.440146 
L 872.525622 298.991219 
L 874.124238 302.499826 
L 875.722853 303.215368 
L 877.321468 302.918588 
L 878.920084 302.951584 
L 880.518699 303.994751 
L 882.117315 301.317838 
L 883.71593 302.582579 
L 885.314545 304.176648 
L 885.314545 304.176648 
" clip-path="url(#pe3c9cfd4c3)" style="fill: none; stroke: #2ca02c; stroke-width: 1.2; stroke-linecap: square"/>
   </g>
   <g id="line2d_14">
    <path d="M 87.605455 295.4306 
L 90.802685 300.54475 
L 92.401301 300.629904 
L 93.999916 301.525658 
L 95.598532 301.528933 
L 97.197147 301.201418 
L 98.795762 301.162116 
L 100.394378 301.509282 
L 101.992993 301.548584 
L 103.591609 302.084071 
L 106.788839 302.748927 
L 108.387455 302.847182 
L 109.98607 303.326173 
L 111.584686 302.584351 
L 113.183301 302.398486 
L 114.781917 302.405036 
L 116.380532 302.285493 
L 117.979147 301.948152 
L 119.577763 301.784395 
L 121.176378 302.062783 
L 122.774994 301.67959 
L 124.373609 301.486356 
L 125.972224 301.718892 
L 127.57084 302.449251 
L 129.169455 302.686699 
L 130.768071 301.134277 
L 133.965302 297.669167 
L 135.563917 294.071412 
L 137.162532 290.796261 
L 138.761148 285.736151 
L 140.359763 267.061236 
L 141.958379 232.338077 
L 143.556994 165.996603 
L 145.155609 107.934712 
L 146.754225 144.092388 
L 148.35284 261.074258 
L 149.951456 262.869042 
L 151.550071 228.5127 
L 153.148686 236.94949 
L 154.747302 282.424973 
L 156.345917 295.695888 
L 157.944533 299.128247 
L 159.543148 300.182846 
L 161.141764 299.879894 
L 162.740379 298.82857 
L 164.338994 297.330188 
L 165.93761 299.459037 
L 167.536225 298.794181 
L 169.134841 299.213401 
L 170.733456 301.001634 
L 172.332071 302.396848 
L 175.529302 304.104021 
L 177.127918 303.88213 
L 178.726533 303.236925 
L 180.325148 302.893034 
L 181.923764 302.853732 
L 186.71961 303.695446 
L 189.916841 303.540695 
L 193.114072 300.279463 
L 194.712687 297.977031 
L 196.311303 291.081199 
L 197.909918 287.825698 
L 199.508533 275.838643 
L 201.107149 271.25343 
L 202.705764 276.107205 
L 204.30438 269.714109 
L 205.902995 237.499716 
L 207.50161 183.682422 
L 209.100226 112.336516 
L 210.698841 83.305571 
L 212.297457 126.432769 
L 213.896072 129.210098 
L 215.494688 130.362951 
L 217.093303 73.191902 
L 218.691918 61.923284 
L 220.290534 107.305883 
L 223.487765 217.115171 
L 225.08638 237.250804 
L 226.684995 249.329564 
L 228.283611 263.27516 
L 229.882226 271.515442 
L 231.480842 281.209891 
L 233.079457 286.168471 
L 234.678073 289.627031 
L 236.276688 292.161999 
L 237.875303 292.970961 
L 239.473919 294.01246 
L 241.072534 294.317049 
L 242.67115 295.64021 
L 244.269765 296.265764 
L 245.86838 296.495025 
L 247.466996 298.964489 
L 249.065611 299.481963 
L 252.262842 299.242877 
L 253.861457 299.069294 
L 255.460073 299.226501 
L 257.058688 298.971039 
L 258.657304 298.925187 
L 260.255919 299.287092 
L 261.854535 299.447574 
L 263.45315 299.133159 
L 265.051765 298.989053 
L 268.248996 298.520706 
L 271.446227 294.218794 
L 273.044842 292.781003 
L 274.643458 293.914205 
L 276.242073 291.559371 
L 277.840689 289.627031 
L 279.439304 290.868314 
L 281.037919 295.217716 
L 282.636535 294.317049 
L 284.23515 295.181689 
L 285.833766 297.719931 
L 287.432381 298.453565 
L 290.629612 299.573667 
L 292.228227 300.367892 
L 293.826843 302.100447 
L 295.425458 302.364097 
L 297.024074 300.981983 
L 298.622689 300.231973 
L 300.221304 301.515832 
L 301.81992 301.612449 
L 303.418535 298.700839 
L 305.017151 293.7963 
L 306.615766 285.477414 
L 308.214381 255.198636 
L 309.812997 248.38632 
L 311.411612 261.513129 
L 313.010228 282.749213 
L 314.608843 290.530973 
L 316.207459 291.186004 
L 317.806074 295.152213 
L 319.404689 298.053997 
L 321.003305 298.561645 
L 322.60192 299.40991 
L 324.200536 299.986337 
L 325.799151 300.16647 
L 327.397766 299.897907 
L 328.996382 299.858606 
L 330.594997 300.777286 
L 332.193613 299.712861 
L 335.390844 303.629943 
L 336.989459 303.806801 
L 338.588074 303.34828 
L 341.785305 303.350736 
L 344.982536 303.419514 
L 348.179767 303.250025 
L 349.778382 303.363837 
L 354.574228 302.948711 
L 356.172844 302.840631 
L 357.771459 303.02404 
L 359.370075 304.343926 
L 360.96869 305.028433 
L 362.567306 303.585728 
L 364.165921 302.884846 
L 365.764536 302.801329 
L 368.961767 303.127207 
L 372.158998 302.408311 
L 373.757613 302.513116 
L 376.954844 303.508762 
L 378.55346 303.168146 
L 380.152075 303.36138 
L 381.75069 303.688896 
L 383.349306 303.636493 
L 384.947921 303.444897 
L 392.940998 301.709066 
L 396.138229 301.545309 
L 397.736845 301.599349 
L 400.934075 301.268558 
L 402.532691 301.51747 
L 404.131306 301.487994 
L 405.729922 301.589523 
L 407.328537 301.918676 
L 408.927152 302.062783 
L 410.525768 301.746731 
L 413.722999 301.899025 
L 416.92023 302.59827 
L 420.11746 302.676874 
L 421.716076 302.59827 
L 423.314691 303.149314 
L 426.511922 304.649334 
L 428.110537 303.920613 
L 429.709153 302.932336 
L 432.906384 302.251104 
L 434.504999 302.244554 
L 436.103615 301.833522 
L 437.70223 301.185042 
L 439.300845 302.028394 
L 440.899461 303.862479 
L 442.498076 304.703374 
L 444.096692 303.702815 
L 445.695307 300.867352 
L 447.293922 299.013616 
L 448.892538 298.741779 
L 450.491153 298.165352 
L 452.089769 298.024521 
L 453.688384 298.024521 
L 455.286999 297.493946 
L 456.885615 297.199182 
L 460.082846 298.620598 
L 461.681461 300.009263 
L 463.280077 300.228698 
L 466.477307 299.473775 
L 468.075923 299.278904 
L 471.273154 299.590043 
L 474.470384 299.131522 
L 476.069 299.770176 
L 477.667615 301.676315 
L 479.266231 303.028952 
L 480.864846 300.831326 
L 485.660692 291.356312 
L 487.259308 279.605067 
L 488.857923 262.417071 
L 490.456539 171.289248 
L 492.055154 64.388294 
L 493.653769 61.923284 
L 495.252385 61.923284 
L 496.851 187.481598 
L 498.449616 289.823541 
L 500.048231 280.833249 
L 501.646846 291.091024 
L 503.245462 298.830208 
L 504.844077 301.142465 
L 508.041308 302.816068 
L 509.639923 303.424427 
L 512.837154 303.75358 
L 514.43577 303.756855 
L 516.034385 303.470279 
L 517.633001 303.59146 
L 520.830231 304.176893 
L 528.823308 304.701736 
L 530.421924 305.324015 
L 532.020539 305.61141 
L 533.619155 304.959654 
L 535.21777 305.018607 
L 536.816385 304.743494 
L 538.415001 304.781977 
L 540.013616 304.495402 
L 541.612232 303.987753 
L 543.210847 304.169524 
L 546.408078 305.108674 
L 549.605309 304.034424 
L 551.203924 303.826452 
L 552.80254 303.970559 
L 554.401155 303.466185 
L 555.99977 302.608095 
L 557.598386 302.215077 
L 559.197001 302.542592 
L 560.795617 301.820421 
L 562.394232 300.631541 
L 563.992848 302.954443 
L 565.591463 304.688636 
L 567.190078 304.033605 
L 568.788694 302.67278 
L 570.387309 302.441063 
L 571.985925 303.995122 
L 573.58454 303.643043 
L 575.183155 302.488552 
L 576.781771 303.070711 
L 578.380386 303.835459 
L 579.979002 304.135135 
L 583.176232 304.414342 
L 586.373463 304.174437 
L 587.972079 304.208826 
L 589.570694 303.898505 
L 591.16931 303.869029 
L 592.767925 304.371765 
L 594.36654 304.610851 
L 595.965156 304.992406 
L 597.563771 305.092298 
L 600.761002 304.391416 
L 603.958233 304.789347 
L 605.556848 304.850756 
L 607.155464 304.506865 
L 608.754079 304.326731 
L 611.95131 304.864675 
L 613.549925 304.804085 
L 615.148541 304.913802 
L 616.747156 304.830286 
L 619.944387 304.316087 
L 621.543002 303.392494 
L 623.141618 302.835719 
L 624.740233 302.578619 
L 627.937464 302.329708 
L 631.134695 303.066617 
L 632.73331 303.14522 
L 634.331926 303.335998 
L 635.930541 303.046147 
L 637.529156 301.905575 
L 639.127772 302.164312 
L 640.726387 301.717254 
L 643.923618 302.7129 
L 647.120849 303.045328 
L 648.719464 302.897946 
L 650.31808 302.513116 
L 651.916695 302.270755 
L 653.515311 303.328629 
L 655.113926 301.268558 
L 656.712541 294.166392 
L 659.909772 250.521719 
L 661.508388 157.402604 
L 663.107003 91.847167 
L 664.705619 137.542084 
L 666.304234 174.643003 
L 667.902849 216.119525 
L 669.501465 232.154668 
L 671.10008 252.093792 
L 672.698696 264.172552 
L 674.297311 261.290418 
L 675.895926 260.648489 
L 677.494542 261.408324 
L 679.093157 273.008911 
L 682.290388 275.9893 
L 683.889003 286.587691 
L 685.487619 289.584455 
L 687.086234 294.215519 
L 688.68485 295.184964 
L 690.283465 298.519069 
L 691.882081 298.889161 
L 693.480696 295.784317 
L 695.079311 293.989534 
L 696.677927 295.928423 
L 698.276542 294.477531 
L 699.875158 295.512479 
L 701.473773 296.789788 
L 703.072388 298.650075 
L 706.269619 300.400643 
L 707.868235 300.397368 
L 709.46685 300.587327 
L 711.065465 300.302389 
L 712.664081 300.508723 
L 714.262696 300.500535 
L 715.861312 301.181767 
L 717.459927 302.463989 
L 722.255773 302.866832 
L 723.854389 303.528413 
L 725.453004 304.401241 
L 727.05162 303.925525 
L 728.650235 302.684243 
L 730.24885 302.195426 
L 731.847466 302.529492 
L 736.643312 304.14496 
L 739.840543 304.350476 
L 741.439158 304.666528 
L 743.037774 304.539616 
L 746.235005 304.629683 
L 747.83362 304.30053 
L 752.629466 303.864116 
L 755.826697 304.174437 
L 757.425312 304.17935 
L 759.023928 303.950908 
L 760.622543 304.255497 
L 762.221159 304.877776 
L 765.41839 305.382968 
L 767.017005 305.268338 
L 768.61562 304.607576 
L 771.812851 304.218651 
L 773.411467 304.14496 
L 775.010082 303.663513 
L 776.608697 303.555433 
L 778.207313 303.802707 
L 779.805928 303.570171 
L 781.404544 303.096093 
L 783.003159 302.906134 
L 784.601774 302.904497 
L 786.20039 303.212361 
L 787.799005 302.811155 
L 789.397621 302.742377 
L 790.996236 302.817705 
L 792.594852 303.105919 
L 794.193467 303.171422 
L 795.792082 303.058429 
L 800.587929 304.12531 
L 803.785159 304.167068 
L 805.383775 303.51695 
L 806.98239 303.368749 
L 810.179621 303.694627 
L 813.376852 303.80107 
L 814.975467 303.722466 
L 816.574083 304.831924 
L 818.172698 305.046446 
L 819.771314 304.257134 
L 822.968544 303.960733 
L 824.56716 303.626668 
L 826.165775 303.481742 
L 827.764391 303.168965 
L 829.363006 302.480365 
L 830.961621 302.454163 
L 834.158852 302.054595 
L 835.757468 302.156125 
L 838.954698 303.984478 
L 840.553314 304.413523 
L 842.151929 304.238302 
L 843.750545 303.75358 
L 845.34916 303.814989 
L 846.947776 304.027874 
L 850.145006 304.15888 
L 851.743622 303.827271 
L 853.342237 303.678251 
L 854.940853 304.400422 
L 856.539468 304.637871 
L 858.138083 303.805982 
L 859.736699 303.958277 
L 861.335314 304.339013 
L 862.93393 304.129403 
L 864.532545 303.534963 
L 866.131161 303.669245 
L 867.729776 303.933713 
L 870.927007 302.378835 
L 872.525622 303.158321 
L 874.124238 304.16543 
L 875.722853 304.656703 
L 877.321468 304.006585 
L 878.920084 303.112469 
L 880.518699 302.611371 
L 882.117315 302.670323 
L 885.314545 303.127207 
L 885.314545 303.127207 
" clip-path="url(#pe3c9cfd4c3)" style="fill: none; stroke: #000000; stroke-width: 1.2; stroke-linecap: square"/>
   </g>
   <g id="line2d_15">
    <path d="M 87.605455 234.283686 
L 89.20407 280.290823 
L 90.802685 263.826633 
L 92.401301 269.708236 
L 93.999916 273.518325 
L 95.598532 269.199045 
L 97.197147 269.032213 
L 98.795762 269.039803 
L 100.394378 264.050115 
L 101.992993 249.485586 
L 103.591609 280.597902 
L 105.190224 259.956048 
L 106.788839 276.211163 
L 108.387455 267.992786 
L 109.98607 283.111128 
L 111.584686 265.749292 
L 113.183301 269.637181 
L 114.781917 267.006053 
L 116.380532 273.705494 
L 119.577763 249.81676 
L 121.176378 256.779348 
L 122.774994 251.321882 
L 124.373609 265.09009 
L 125.972224 269.671243 
L 127.57084 268.642781 
L 129.169455 262.216568 
L 130.768071 257.464374 
L 132.366686 247.736571 
L 133.965302 239.51998 
L 135.563917 239.63284 
L 137.162532 244.791528 
L 138.761148 255.132266 
L 140.359763 249.01462 
L 141.958379 248.809912 
L 143.556994 239.359015 
L 145.155609 223.108028 
L 146.754225 164.079286 
L 148.35284 61.923284 
L 149.951456 61.923284 
L 151.550071 165.289826 
L 153.148686 233.813019 
L 154.747302 274.432613 
L 156.345917 276.66923 
L 157.944533 266.593511 
L 159.543148 244.305355 
L 161.141764 232.490153 
L 162.740379 233.444837 
L 164.338994 201.970004 
L 165.93761 61.923284 
L 167.536225 154.268839 
L 169.134841 240.145945 
L 170.733456 268.631435 
L 172.332071 264.500257 
L 173.930687 269.643217 
L 175.529302 257.639203 
L 177.127918 256.348221 
L 178.726533 264.084359 
L 180.325148 244.641655 
L 181.923764 256.482527 
L 183.522379 265.541743 
L 185.120995 268.655195 
L 186.71961 267.894746 
L 188.318226 245.897785 
L 189.916841 272.04596 
L 191.515456 274.13638 
L 193.114072 266.797335 
L 194.712687 252.693896 
L 196.311303 264.699003 
L 197.909918 206.733729 
L 199.508533 63.555945 
L 201.107149 200.959291 
L 202.705764 249.530876 
L 204.30438 172.501233 
L 205.902995 207.316554 
L 207.50161 147.016206 
L 210.698841 83.398508 
L 212.297457 61.923284 
L 215.494688 61.923284 
L 217.093303 69.596335 
L 218.691918 74.478307 
L 220.290534 146.688502 
L 221.889149 95.151007 
L 223.487765 61.923284 
L 225.08638 89.148939 
L 226.684995 81.06976 
L 228.283611 146.983923 
L 229.882226 172.274842 
L 231.480842 134.664392 
L 233.079457 205.033084 
L 234.678073 237.89489 
L 236.276688 205.020734 
L 237.875303 219.973192 
L 239.473919 242.256532 
L 241.072534 266.318466 
L 242.67115 236.590851 
L 244.269765 229.835066 
L 245.86838 165.078122 
L 247.466996 221.395959 
L 249.065611 226.536598 
L 250.664227 232.982394 
L 252.262842 187.854592 
L 253.861457 233.29932 
L 255.460073 197.754891 
L 257.058688 227.64509 
L 258.657304 233.114789 
L 260.255919 183.132352 
L 261.854535 197.302558 
L 263.45315 159.871137 
L 265.051765 219.001724 
L 266.650381 173.605558 
L 268.248996 234.57431 
L 269.847612 190.850574 
L 271.446227 189.246643 
L 273.044842 194.340187 
L 274.643458 175.604458 
L 276.242073 222.49891 
L 277.840689 183.4891 
L 279.439304 166.827548 
L 281.037919 147.495374 
L 282.636535 213.160503 
L 284.23515 243.377559 
L 285.833766 211.607694 
L 287.432381 241.341049 
L 289.030997 246.900514 
L 290.629612 258.453798 
L 292.228227 229.844278 
L 293.826843 197.767181 
L 295.425458 230.768101 
L 297.024074 233.295578 
L 298.622689 237.766374 
L 300.221304 257.51778 
L 301.81992 254.912833 
L 303.418535 272.906107 
L 305.017151 249.180738 
L 306.615766 263.921723 
L 308.214381 265.041501 
L 309.812997 251.434901 
L 311.411612 241.071834 
L 313.010228 102.496552 
M 514.43577 62.303367 
L 516.034385 101.906799 
L 517.633001 243.046901 
L 519.231616 305.843966 
L 520.830231 293.586524 
L 522.428847 273.470285 
L 524.027462 263.158276 
L 527.224693 296.235408 
L 528.823308 276.400943 
L 530.421924 305.038578 
L 532.020539 289.106319 
L 533.619155 305.843966 
L 535.21777 305.843966 
L 536.816385 286.645728 
L 538.415001 287.285441 
L 540.013616 300.907282 
L 541.612232 302.884004 
L 543.210847 264.560491 
L 544.809463 301.862183 
L 548.006693 287.933663 
L 549.605309 224.414169 
L 551.203924 288.059692 
L 552.80254 219.654303 
L 555.99977 302.848653 
L 557.598386 271.236571 
L 559.197001 291.993718 
L 560.795617 284.843096 
L 562.394232 284.491261 
L 563.992848 275.328708 
L 565.591463 293.003547 
L 567.190078 248.178072 
L 568.788694 270.719202 
L 570.387309 132.695057 
L 571.985925 61.923284 
L 573.58454 250.339222 
L 575.183155 269.693619 
L 576.781771 277.187388 
L 578.380386 264.388769 
L 579.979002 273.193164 
L 581.577617 266.350348 
L 583.176232 265.604058 
L 584.774848 252.558234 
L 586.373463 215.136996 
L 587.972079 241.321109 
L 589.570694 252.619221 
L 591.16931 256.047218 
L 592.767925 293.313057 
L 594.36654 269.769364 
L 595.965156 268.836299 
L 597.563771 264.661222 
L 599.162387 281.646835 
L 600.761002 253.726014 
L 602.359617 231.91273 
L 603.958233 249.653988 
L 605.556848 264.99109 
L 607.155464 249.582226 
L 608.754079 251.153507 
L 610.352694 216.774195 
L 611.95131 238.642156 
L 613.549925 250.52864 
L 615.148541 277.759847 
L 616.747156 252.850121 
L 618.345772 236.782588 
L 619.944387 249.476219 
L 621.543002 225.078061 
L 623.141618 238.25844 
L 624.740233 234.211185 
L 626.338849 250.924463 
L 627.937464 255.926736 
L 629.536079 263.010961 
L 631.134695 271.84426 
L 632.73331 273.32258 
L 634.331926 244.203123 
L 635.930541 282.036737 
L 637.529156 224.628781 
L 639.127772 125.27486 
L 640.726387 162.459707 
L 642.325003 222.8131 
L 643.923618 258.072311 
L 645.522234 247.875704 
L 647.120849 249.541601 
L 648.719464 255.373706 
L 650.31808 269.735569 
L 651.916695 231.020397 
L 653.515311 241.547769 
L 655.113926 227.690492 
L 656.712541 245.987625 
L 658.311157 247.119437 
L 659.909772 118.450555 
L 661.508388 81.064945 
L 663.107003 133.037197 
L 664.705619 92.951479 
L 666.304234 187.035921 
L 667.902849 140.29762 
L 669.501465 187.614387 
L 671.10008 170.545056 
L 672.698696 158.357793 
L 674.297311 186.223459 
L 675.895926 191.361582 
L 677.494542 192.316112 
L 679.093157 180.509326 
L 680.691773 164.771827 
L 682.290388 212.512182 
L 683.889003 246.857547 
L 685.487619 249.165804 
L 687.086234 238.451405 
L 688.68485 254.779021 
L 690.283465 260.140328 
L 691.882081 274.811869 
L 693.480696 266.825566 
L 695.079311 263.031428 
L 696.677927 248.676767 
L 698.276542 260.30846 
L 699.875158 252.074832 
L 701.473773 267.719356 
L 703.072388 257.797057 
L 704.671004 276.056369 
L 706.269619 268.859774 
L 707.868235 243.837752 
L 709.46685 256.438229 
L 711.065465 256.422924 
L 712.664081 243.125837 
L 714.262696 239.670567 
L 715.861312 245.484183 
L 717.459927 258.051716 
L 719.058543 248.932406 
L 720.657158 261.842713 
L 722.255773 259.802842 
L 723.854389 258.014002 
L 725.453004 269.99874 
L 727.05162 257.063322 
L 728.650235 260.873685 
L 730.24885 252.258708 
L 731.847466 262.202003 
L 733.446081 256.688117 
L 735.044697 269.920731 
L 736.643312 261.363299 
L 738.241927 258.51929 
L 739.840543 236.795552 
L 741.439158 263.802484 
L 743.037774 248.409763 
L 744.636389 246.011178 
L 746.235005 254.778174 
L 747.83362 251.479826 
L 749.432235 241.851523 
L 751.030851 243.921685 
L 752.629466 270.766806 
L 754.228082 271.110368 
L 755.826697 234.446252 
L 757.425312 250.631133 
L 759.023928 237.323085 
L 760.622543 252.294813 
L 763.819774 259.619035 
L 765.41839 266.574323 
L 767.017005 243.697351 
L 768.61562 234.252469 
L 770.214236 257.494133 
L 771.812851 255.597939 
L 773.411467 250.491969 
L 775.010082 243.534646 
L 776.608697 250.669016 
L 778.207313 248.332544 
L 779.805928 222.425551 
L 781.404544 258.810293 
L 783.003159 268.548373 
L 784.601774 256.677044 
L 786.20039 254.810152 
L 787.799005 260.610114 
L 789.397621 266.855609 
L 790.996236 253.19888 
L 792.594852 243.981707 
L 794.193467 257.37584 
L 795.792082 258.572828 
L 797.390698 266.628315 
L 798.989313 259.493341 
L 800.587929 242.137993 
L 802.186544 257.793891 
L 803.785159 259.738388 
L 805.383775 270.954087 
L 806.98239 270.033415 
L 810.179621 267.578833 
L 811.778236 232.866395 
L 813.376852 233.95752 
L 814.975467 269.040202 
L 816.574083 279.023018 
L 818.172698 281.859941 
L 819.771314 261.986586 
L 821.369929 255.182026 
L 822.968544 250.117543 
L 824.56716 250.183854 
L 826.165775 255.604755 
L 827.764391 247.40647 
L 830.961621 264.35777 
L 832.560237 268.42716 
L 834.158852 261.322805 
L 835.757468 269.179964 
L 837.356083 280.72146 
L 838.954698 276.030227 
L 840.553314 274.687118 
L 842.151929 277.618811 
L 843.750545 260.157553 
L 845.34916 273.946027 
L 846.947776 258.041407 
L 848.546391 259.438436 
L 850.145006 260.440034 
L 851.743622 271.66788 
L 853.342237 281.179805 
L 854.940853 270.375992 
L 856.539468 276.727236 
L 858.138083 274.820183 
L 859.736699 280.012089 
L 861.335314 276.121665 
L 862.93393 285.643645 
L 864.532545 279.857172 
L 866.131161 279.291853 
L 867.729776 271.862988 
L 869.328391 267.941009 
L 870.927007 278.849178 
L 872.525622 283.287381 
L 874.124238 278.786126 
L 875.722853 284.870108 
L 877.321468 278.674604 
L 878.920084 284.401859 
L 880.518699 280.665047 
L 882.117315 283.333243 
L 883.71593 283.244706 
L 885.314545 286.198374 
L 885.314545 286.198374 
" clip-path="url(#pe3c9cfd4c3)" style="fill: none; stroke: #ff7f0e; stroke-width: 1.2; stroke-linecap: square"/>
   </g>
   <g id="line2d_16">
    <path d="M 87.605455 247.190304 
L 89.20407 286.073831 
L 90.802685 251.564129 
L 92.401301 270.071593 
L 93.999916 277.154411 
L 95.598532 271.863722 
L 97.197147 271.544789 
L 98.795762 271.744669 
L 100.394378 281.330165 
L 101.992993 269.668494 
L 103.591609 278.071245 
L 105.190224 270.365848 
L 106.788839 276.654637 
L 108.387455 259.061665 
L 109.98607 262.745896 
L 111.584686 267.496535 
L 113.183301 267.09479 
L 114.781917 254.184169 
L 116.380532 266.13893 
L 117.979147 266.867614 
L 119.577763 256.346087 
L 121.176378 254.869788 
L 122.774994 257.367309 
L 124.373609 264.491277 
L 125.972224 275.08347 
L 127.57084 272.739555 
L 129.169455 249.249475 
L 130.768071 247.596121 
L 132.366686 265.574328 
L 133.965302 265.597912 
L 135.563917 266.348515 
L 137.162532 258.574683 
L 138.761148 245.894412 
L 140.359763 222.928534 
L 141.958379 238.99012 
L 143.556994 237.348386 
L 145.155609 219.649108 
L 146.754225 150.510196 
L 148.35284 70.944321 
L 149.951456 113.737756 
L 151.550071 180.901933 
L 153.148686 235.059427 
L 154.747302 264.286254 
L 156.345917 248.346516 
L 157.944533 252.8862 
L 159.543148 241.702562 
L 161.141764 246.109406 
L 162.740379 244.351875 
L 164.338994 228.578472 
L 165.93761 209.10943 
L 167.536225 234.789843 
L 169.134841 235.090691 
L 170.733456 258.694312 
L 172.332071 253.288184 
L 173.930687 257.464496 
L 175.529302 259.413818 
L 177.127918 268.563372 
L 178.726533 261.821855 
L 180.325148 251.308059 
L 181.923764 269.335684 
L 183.522379 269.898204 
L 185.120995 263.753903 
L 186.71961 259.856871 
L 188.318226 247.786086 
L 189.916841 258.320111 
L 191.515456 266.544448 
L 193.114072 260.991346 
L 196.311303 220.719808 
L 197.909918 194.119577 
L 199.508533 155.91378 
L 201.107149 211.27811 
L 202.705764 227.996655 
L 204.30438 196.084301 
L 205.902995 199.636438 
L 207.50161 97.951758 
L 209.100226 85.164045 
L 210.698841 61.923284 
L 217.093303 61.923284 
L 218.691918 81.211675 
L 220.290534 115.233789 
L 221.889149 107.997648 
L 223.487765 143.196462 
L 225.08638 166.934368 
L 226.684995 159.747109 
L 228.283611 197.236917 
L 229.882226 219.265142 
L 231.480842 211.579133 
L 233.079457 216.911489 
L 234.678073 242.197718 
L 236.276688 227.109143 
L 237.875303 234.93514 
L 239.473919 233.291745 
L 241.072534 244.364426 
L 242.67115 231.318351 
L 244.269765 223.418154 
L 245.86838 211.931964 
L 247.466996 225.414721 
L 249.065611 223.115672 
L 250.664227 241.194647 
L 252.262842 226.344822 
L 253.861457 234.47568 
L 255.460073 227.137293 
L 257.058688 234.448095 
L 258.657304 259.241405 
L 260.255919 238.40977 
L 261.854535 224.505029 
L 263.45315 205.045411 
L 265.051765 235.046262 
L 266.650381 237.003743 
L 268.248996 236.069072 
L 269.847612 221.593244 
L 271.446227 235.03926 
L 273.044842 220.208576 
L 274.643458 218.022563 
L 276.242073 236.454532 
L 277.840689 244.449533 
L 279.439304 237.302388 
L 281.037919 240.227597 
L 282.636535 253.877191 
L 284.23515 265.317094 
L 285.833766 250.582364 
L 287.432381 246.555794 
L 289.030997 264.308764 
L 290.629612 262.916864 
L 292.228227 255.234726 
L 293.826843 251.533525 
L 295.425458 240.225178 
L 297.024074 258.33612 
L 298.622689 234.217455 
L 300.221304 267.775562 
L 301.81992 251.181394 
L 303.418535 242.192315 
L 305.017151 239.195049 
L 306.615766 208.627588 
L 308.214381 172.243751 
L 309.812997 231.997728 
L 311.411612 264.181377 
L 313.010228 281.542565 
M 514.43577 296.668443 
L 516.034385 265.36146 
L 517.633001 264.44532 
L 519.231616 278.32431 
L 520.830231 280.103529 
L 522.428847 268.097106 
L 524.027462 252.599323 
L 525.626078 266.289385 
L 527.224693 263.218324 
L 528.823308 241.088002 
L 530.421924 272.443542 
L 532.020539 285.738048 
L 533.619155 292.774576 
L 535.21777 294.642602 
L 536.816385 299.629987 
L 538.415001 298.115804 
L 540.013616 305.843966 
L 541.612232 278.759555 
L 543.210847 261.541279 
L 544.809463 263.629963 
L 546.408078 275.467492 
L 548.006693 277.262071 
L 549.605309 279.324834 
L 551.203924 263.308874 
L 552.80254 267.744908 
L 554.401155 265.962329 
L 555.99977 289.106449 
L 557.598386 296.22077 
L 559.197001 284.173725 
L 560.795617 221.980109 
L 562.394232 183.336649 
L 563.992848 195.142601 
L 565.591463 253.602473 
L 567.190078 276.483009 
L 568.788694 263.107799 
L 570.387309 239.313682 
L 571.985925 257.393191 
L 573.58454 229.792764 
L 575.183155 196.301648 
L 576.781771 244.02967 
L 578.380386 229.625678 
L 579.979002 250.415548 
L 581.577617 253.087963 
L 583.176232 253.318696 
L 584.774848 260.028867 
L 586.373463 245.969469 
L 587.972079 230.900464 
L 589.570694 218.969396 
L 591.16931 274.429726 
L 592.767925 261.625789 
L 594.36654 275.669293 
L 595.965156 278.691428 
L 597.563771 271.653991 
L 599.162387 277.387681 
L 600.761002 239.869512 
L 602.359617 218.896466 
L 603.958233 219.72947 
L 605.556848 230.647269 
L 607.155464 247.769403 
L 608.754079 254.846663 
L 610.352694 225.748145 
L 611.95131 240.011102 
L 613.549925 229.092841 
L 615.148541 247.154434 
L 616.747156 222.663584 
L 618.345772 258.002187 
L 619.944387 253.854996 
L 621.543002 247.90939 
L 623.141618 229.353187 
L 624.740233 241.052136 
L 626.338849 244.100934 
L 627.937464 254.785523 
L 629.536079 246.946192 
L 631.134695 270.967921 
L 632.73331 268.641313 
L 634.331926 262.111923 
L 635.930541 272.452235 
L 637.529156 261.441736 
L 639.127772 220.452555 
L 640.726387 226.127079 
L 642.325003 246.297713 
L 643.923618 241.434429 
L 645.522234 259.836788 
L 647.120849 250.447759 
L 648.719464 248.168156 
L 650.31808 273.043382 
L 651.916695 244.313088 
L 653.515311 244.270286 
L 655.113926 230.260056 
L 656.712541 254.01618 
L 658.311157 211.313288 
L 659.909772 154.801481 
L 661.508388 61.923284 
L 663.107003 61.923284 
L 664.705619 159.421059 
L 666.304234 187.940181 
L 667.902849 191.268935 
L 669.501465 206.679653 
L 671.10008 217.696017 
L 672.698696 196.334133 
L 674.297311 197.151749 
L 675.895926 212.053824 
L 677.494542 211.376915 
L 679.093157 218.66681 
L 680.691773 192.868349 
L 682.290388 190.942902 
L 683.889003 209.200816 
L 685.487619 237.738863 
L 687.086234 239.5402 
L 688.68485 236.20481 
L 690.283465 261.720378 
L 691.882081 265.650768 
L 693.480696 257.662133 
L 695.079311 251.501015 
L 696.677927 228.068072 
L 698.276542 242.686612 
L 699.875158 248.440276 
L 701.473773 267.383916 
L 703.072388 247.261707 
L 704.671004 245.486464 
L 706.269619 263.623979 
L 707.868235 251.575856 
L 709.46685 252.862069 
L 711.065465 259.290101 
L 712.664081 251.143215 
L 714.262696 238.062609 
L 715.861312 249.228327 
L 717.459927 255.127739 
L 719.058543 241.430329 
L 720.657158 242.610638 
L 722.255773 250.319401 
L 723.854389 258.985772 
L 725.453004 274.018911 
L 727.05162 260.907409 
L 728.650235 242.185108 
L 730.24885 238.792743 
L 731.847466 256.000939 
L 733.446081 223.341224 
L 735.044697 229.23922 
L 736.643312 225.284868 
L 739.840543 195.693743 
L 741.439158 216.198674 
L 743.037774 212.339567 
L 744.636389 218.02629 
L 746.235005 225.39888 
L 747.83362 217.889657 
L 749.432235 233.331316 
L 751.030851 239.479963 
L 752.629466 271.828677 
L 754.228082 283.694127 
L 755.826697 248.291192 
L 757.425312 242.192564 
L 759.023928 233.648889 
L 760.622543 249.549726 
L 762.221159 241.368952 
L 763.819774 244.389714 
L 765.41839 238.437286 
L 767.017005 241.279736 
L 768.61562 251.529298 
L 770.214236 263.853094 
L 771.812851 248.168974 
L 773.411467 260.249671 
L 775.010082 233.344311 
L 776.608697 251.707234 
L 778.207313 243.762965 
L 779.805928 245.909977 
L 781.404544 248.920556 
L 783.003159 258.261499 
L 784.601774 246.591159 
L 786.20039 247.880362 
L 787.799005 257.67317 
L 789.397621 243.75959 
L 790.996236 236.355374 
L 792.594852 248.860286 
L 794.193467 233.807573 
L 795.792082 235.289716 
L 797.390698 240.016355 
L 798.989313 248.631238 
L 800.587929 230.844688 
L 802.186544 253.490661 
L 803.785159 243.941384 
L 805.383775 262.377346 
L 806.98239 268.731773 
L 808.581006 280.544933 
L 810.179621 264.904291 
L 811.778236 258.931154 
L 813.376852 256.966867 
L 814.975467 267.962157 
L 816.574083 274.087784 
L 818.172698 271.65284 
L 821.369929 242.261016 
L 822.968544 250.594002 
L 824.56716 251.426762 
L 826.165775 256.990002 
L 827.764391 239.969935 
L 829.363006 236.832469 
L 830.961621 240.311599 
L 832.560237 264.297494 
L 834.158852 271.60493 
L 835.757468 270.202016 
L 837.356083 273.217751 
L 838.954698 268.769696 
L 840.553314 271.588542 
L 842.151929 271.967114 
L 843.750545 262.873317 
L 845.34916 263.805357 
L 846.947776 254.57354 
L 848.546391 263.601014 
L 850.145006 251.073516 
L 851.743622 269.50461 
L 853.342237 286.510198 
L 854.940853 277.549902 
L 856.539468 275.76094 
L 858.138083 290.277196 
L 859.736699 284.777898 
L 861.335314 268.521151 
L 862.93393 290.783345 
L 864.532545 270.46477 
L 866.131161 280.778061 
L 867.729776 270.339865 
L 869.328391 262.447529 
L 870.927007 269.592582 
L 872.525622 289.075714 
L 874.124238 267.522561 
L 875.722853 272.506998 
L 878.920084 284.224915 
L 880.518699 287.421512 
L 882.117315 291.794002 
L 883.71593 285.31502 
L 885.314545 302.099184 
L 885.314545 302.099184 
" clip-path="url(#pe3c9cfd4c3)" style="fill: none; stroke-dasharray: 4.44,1.92; stroke-dashoffset: 0; stroke: #9467bd; stroke-width: 1.2"/>
   </g>
   <g id="patch_3">
    <path d="M 47.72 318.04 
L 47.72 49.72725 
" style="fill: none; stroke: #000000; stroke-width: 0.8; stroke-linejoin: miter; stroke-linecap: square"/>
   </g>
   <g id="patch_4">
    <path d="M 925.2 318.04 
L 925.2 49.72725 
" style="fill: none; stroke: #000000; stroke-width: 0.8; stroke-linejoin: miter; stroke-linecap: square"/>
   </g>
   <g id="patch_5">
    <path d="M 47.72 318.04 
L 925.2 318.04 
" style="fill: none; stroke: #000000; stroke-width: 0.8; stroke-linejoin: miter; stroke-linecap: square"/>
   </g>
   <g id="patch_6">
    <path d="M 47.72 49.72725 
L 925.2 49.72725 
" style="fill: none; stroke: #000000; stroke-width: 0.8; stroke-linejoin: miter; stroke-linecap: square"/>
   </g>
   <g id="legend_1">
    <g id="line2d_17">
     <path d="M 675.710937 62.825688 
L 685.710937 62.825688 
L 695.710937 62.825688 
" style="fill: none; stroke: #2ca02c; stroke-width: 1.2; stroke-linecap: square"/>
    </g>
    <g id="text_16">
     <!-- ENCSR203XPU -->
     <g transform="translate(703.710937 66.325688) scale(0.1 -0.1)">
      <defs>
       <path id="DejaVuSans-45" d="M 628 4666 
L 3578 4666 
L 3578 4134 
L 1259 4134 
L 1259 2753 
L 3481 2753 
L 3481 2222 
L 1259 2222 
L 1259 531 
L 3634 531 
L 3634 0 
L 628 0 
L 628 4666 
z
" transform="scale(0.015625)"/>
       <path id="DejaVuSans-4e" d="M 628 4666 
L 1478 4666 
L 3547 763 
L 3547 4666 
L 4159 4666 
L 4159 0 
L 3309 0 
L 1241 3903 
L 1241 0 
L 628 0 
L 628 4666 
z
" transform="scale(0.015625)"/>
       <path id="DejaVuSans-43" d="M 4122 4306 
L 4122 3641 
Q 3803 3938 3442 4084 
Q 3081 4231 2675 4231 
Q 1875 4231 1450 3742 
Q 1025 3253 1025 2328 
Q 1025 1406 1450 917 
Q 1875 428 2675 428 
Q 3081 428 3442 575 
Q 3803 722 4122 1019 
L 4122 359 
Q 3791 134 3420 21 
Q 3050 -91 2638 -91 
Q 1578 -91 968 557 
Q 359 1206 359 2328 
Q 359 3453 968 4101 
Q 1578 4750 2638 4750 
Q 3056 4750 3426 4639 
Q 3797 4528 4122 4306 
z
" transform="scale(0.015625)"/>
       <path id="DejaVuSans-53" d="M 3425 4513 
L 3425 3897 
Q 3066 4069 2747 4153 
Q 2428 4238 2131 4238 
Q 1616 4238 1336 4038 
Q 1056 3838 1056 3469 
Q 1056 3159 1242 3001 
Q 1428 2844 1947 2747 
L 2328 2669 
Q 3034 2534 3370 2195 
Q 3706 1856 3706 1288 
Q 3706 609 3251 259 
Q 2797 -91 1919 -91 
Q 1588 -91 1214 -16 
Q 841 59 441 206 
L 441 856 
Q 825 641 1194 531 
Q 1563 422 1919 422 
Q 2459 422 2753 634 
Q 3047 847 3047 1241 
Q 3047 1584 2836 1778 
Q 2625 1972 2144 2069 
L 1759 2144 
Q 1053 2284 737 2584 
Q 422 2884 422 3419 
Q 422 4038 858 4394 
Q 1294 4750 2059 4750 
Q 2388 4750 2728 4690 
Q 3069 4631 3425 4513 
z
" transform="scale(0.015625)"/>
       <path id="DejaVuSans-52" d="M 2841 2188 
Q 3044 2119 3236 1894 
Q 3428 1669 3622 1275 
L 4263 0 
L 3584 0 
L 2988 1197 
Q 2756 1666 2539 1819 
Q 2322 1972 1947 1972 
L 1259 1972 
L 1259 0 
L 628 0 
L 628 4666 
L 2053 4666 
Q 2853 4666 3247 4331 
Q 3641 3997 3641 3322 
Q 3641 2881 3436 2590 
Q 3231 2300 2841 2188 
z
M 1259 4147 
L 1259 2491 
L 2053 2491 
Q 2509 2491 2742 2702 
Q 2975 2913 2975 3322 
Q 2975 3731 2742 3939 
Q 2509 4147 2053 4147 
L 1259 4147 
z
" transform="scale(0.015625)"/>
       <path id="DejaVuSans-58" d="M 403 4666 
L 1081 4666 
L 2241 2931 
L 3406 4666 
L 4084 4666 
L 2584 2425 
L 4184 0 
L 3506 0 
L 2194 1984 
L 872 0 
L 191 0 
L 1856 2491 
L 403 4666 
z
" transform="scale(0.015625)"/>
       <path id="DejaVuSans-50" d="M 1259 4147 
L 1259 2394 
L 2053 2394 
Q 2494 2394 2734 2622 
Q 2975 2850 2975 3272 
Q 2975 3691 2734 3919 
Q 2494 4147 2053 4147 
L 1259 4147 
z
M 628 4666 
L 2053 4666 
Q 2838 4666 3239 4311 
Q 3641 3956 3641 3272 
Q 3641 2581 3239 2228 
Q 2838 1875 2053 1875 
L 1259 1875 
L 1259 0 
L 628 0 
L 628 4666 
z
" transform="scale(0.015625)"/>
       <path id="DejaVuSans-55" d="M 556 4666 
L 1191 4666 
L 1191 1831 
Q 1191 1081 1462 751 
Q 1734 422 2344 422 
Q 2950 422 3222 751 
Q 3494 1081 3494 1831 
L 3494 4666 
L 4128 4666 
L 4128 1753 
Q 4128 841 3676 375 
Q 3225 -91 2344 -91 
Q 1459 -91 1007 375 
Q 556 841 556 1753 
L 556 4666 
z
" transform="scale(0.015625)"/>
      </defs>
      <use xlink:href="#DejaVuSans-45"/>
      <use xlink:href="#DejaVuSans-4e" transform="translate(63.183594 0)"/>
      <use xlink:href="#DejaVuSans-43" transform="translate(137.988281 0)"/>
      <use xlink:href="#DejaVuSans-53" transform="translate(207.8125 0)"/>
      <use xlink:href="#DejaVuSans-52" transform="translate(271.289062 0)"/>
      <use xlink:href="#DejaVuSans-32" transform="translate(340.771484 0)"/>
      <use xlink:href="#DejaVuSans-30" transform="translate(404.394531 0)"/>
      <use xlink:href="#DejaVuSans-33" transform="translate(468.017578 0)"/>
      <use xlink:href="#DejaVuSans-58" transform="translate(531.640625 0)"/>
      <use xlink:href="#DejaVuSans-50" transform="translate(600.146484 0)"/>
      <use xlink:href="#DejaVuSans-55" transform="translate(660.449219 0)"/>
     </g>
    </g>
    <g id="line2d_18">
     <path d="M 675.710937 77.503813 
L 685.710937 77.503813 
L 695.710937 77.503813 
" style="fill: none; stroke: #000000; stroke-width: 1.2; stroke-linecap: square"/>
    </g>
    <g id="text_17">
     <!-- AlphaGenome -->
     <g transform="translate(703.710937 81.003813) scale(0.1 -0.1)">
      <defs>
       <path id="DejaVuSans-41" d="M 2188 4044 
L 1331 1722 
L 3047 1722 
L 2188 4044 
z
M 1831 4666 
L 2547 4666 
L 4325 0 
L 3669 0 
L 3244 1197 
L 1141 1197 
L 716 0 
L 50 0 
L 1831 4666 
z
" transform="scale(0.015625)"/>
       <path id="DejaVuSans-70" d="M 1159 525 
L 1159 -1331 
L 581 -1331 
L 581 3500 
L 1159 3500 
L 1159 2969 
Q 1341 3281 1617 3432 
Q 1894 3584 2278 3584 
Q 2916 3584 3314 3078 
Q 3713 2572 3713 1747 
Q 3713 922 3314 415 
Q 2916 -91 2278 -91 
Q 1894 -91 1617 61 
Q 1341 213 1159 525 
z
M 3116 1747 
Q 3116 2381 2855 2742 
Q 2594 3103 2138 3103 
Q 1681 3103 1420 2742 
Q 1159 2381 1159 1747 
Q 1159 1113 1420 752 
Q 1681 391 2138 391 
Q 2594 391 2855 752 
Q 3116 1113 3116 1747 
z
" transform="scale(0.015625)"/>
       <path id="DejaVuSans-47" d="M 3809 666 
L 3809 1919 
L 2778 1919 
L 2778 2438 
L 4434 2438 
L 4434 434 
Q 4069 175 3628 42 
Q 3188 -91 2688 -91 
Q 1594 -91 976 548 
Q 359 1188 359 2328 
Q 359 3472 976 4111 
Q 1594 4750 2688 4750 
Q 3144 4750 3555 4637 
Q 3966 4525 4313 4306 
L 4313 3634 
Q 3963 3931 3569 4081 
Q 3175 4231 2741 4231 
Q 1884 4231 1454 3753 
Q 1025 3275 1025 2328 
Q 1025 1384 1454 906 
Q 1884 428 2741 428 
Q 3075 428 3337 486 
Q 3600 544 3809 666 
z
" transform="scale(0.015625)"/>
      </defs>
      <use xlink:href="#DejaVuSans-41"/>
      <use xlink:href="#DejaVuSans-6c" transform="translate(68.408203 0)"/>
      <use xlink:href="#DejaVuSans-70" transform="translate(96.191406 0)"/>
      <use xlink:href="#DejaVuSans-68" transform="translate(159.667969 0)"/>
      <use xlink:href="#DejaVuSans-61" transform="translate(223.046875 0)"/>
      <use xlink:href="#DejaVuSans-47" transform="translate(284.326172 0)"/>
      <use xlink:href="#DejaVuSans-65" transform="translate(361.816406 0)"/>
      <use xlink:href="#DejaVuSans-6e" transform="translate(423.339844 0)"/>
      <use xlink:href="#DejaVuSans-6f" transform="translate(486.71875 0)"/>
      <use xlink:href="#DejaVuSans-6d" transform="translate(547.900391 0)"/>
      <use xlink:href="#DejaVuSans-65" transform="translate(645.3125 0)"/>
     </g>
    </g>
    <g id="line2d_19">
     <path d="M 797.076562 62.825688 
L 807.076562 62.825688 
L 817.076562 62.825688 
" style="fill: none; stroke: #ff7f0e; stroke-width: 1.2; stroke-linecap: square"/>
    </g>
    <g id="text_18">
     <!-- DiMeLo pooled -->
     <g transform="translate(825.076562 66.325688) scale(0.1 -0.1)">
      <defs>
       <path id="DejaVuSans-44" d="M 1259 4147 
L 1259 519 
L 2022 519 
Q 2988 519 3436 956 
Q 3884 1394 3884 2338 
Q 3884 3275 3436 3711 
Q 2988 4147 2022 4147 
L 1259 4147 
z
M 628 4666 
L 1925 4666 
Q 3281 4666 3915 4102 
Q 4550 3538 4550 2338 
Q 4550 1131 3912 565 
Q 3275 0 1925 0 
L 628 0 
L 628 4666 
z
" transform="scale(0.015625)"/>
       <path id="DejaVuSans-4d" d="M 628 4666 
L 1569 4666 
L 2759 1491 
L 3956 4666 
L 4897 4666 
L 4897 0 
L 4281 0 
L 4281 4097 
L 3078 897 
L 2444 897 
L 1241 4097 
L 1241 0 
L 628 0 
L 628 4666 
z
" transform="scale(0.015625)"/>
       <path id="DejaVuSans-4c" d="M 628 4666 
L 1259 4666 
L 1259 531 
L 3531 531 
L 3531 0 
L 628 0 
L 628 4666 
z
" transform="scale(0.015625)"/>
      </defs>
      <use xlink:href="#DejaVuSans-44"/>
      <use xlink:href="#DejaVuSans-69" transform="translate(77.001953 0)"/>
      <use xlink:href="#DejaVuSans-4d" transform="translate(104.785156 0)"/>
      <use xlink:href="#DejaVuSans-65" transform="translate(191.064453 0)"/>
      <use xlink:href="#DejaVuSans-4c" transform="translate(252.587891 0)"/>
      <use xlink:href="#DejaVuSans-6f" transform="translate(306.550781 0)"/>
      <use xlink:href="#DejaVuSans-20" transform="translate(367.732422 0)"/>
      <use xlink:href="#DejaVuSans-70" transform="translate(399.519531 0)"/>
      <use xlink:href="#DejaVuSans-6f" transform="translate(462.996094 0)"/>
      <use xlink:href="#DejaVuSans-6f" transform="translate(524.177734 0)"/>
      <use xlink:href="#DejaVuSans-6c" transform="translate(585.359375 0)"/>
      <use xlink:href="#DejaVuSans-65" transform="translate(613.142578 0)"/>
      <use xlink:href="#DejaVuSans-64" transform="translate(674.666016 0)"/>
     </g>
    </g>
    <g id="line2d_20">
     <path d="M 797.076562 77.503813 
L 807.076562 77.503813 
L 817.076562 77.503813 
" style="fill: none; stroke-dasharray: 4.44,1.92; stroke-dashoffset: 0; stroke: #9467bd; stroke-width: 1.2"/>
    </g>
    <g id="text_19">
     <!-- HyenaDNA pooled -->
     <g transform="translate(825.076562 81.003813) scale(0.1 -0.1)">
      <defs>
       <path id="DejaVuSans-48" d="M 628 4666 
L 1259 4666 
L 1259 2753 
L 3553 2753 
L 3553 4666 
L 4184 4666 
L 4184 0 
L 3553 0 
L 3553 2222 
L 1259 2222 
L 1259 0 
L 628 0 
L 628 4666 
z
" transform="scale(0.015625)"/>
       <path id="DejaVuSans-79" d="M 2059 -325 
Q 1816 -950 1584 -1140 
Q 1353 -1331 966 -1331 
L 506 -1331 
L 506 -850 
L 844 -850 
Q 1081 -850 1212 -737 
Q 1344 -625 1503 -206 
L 1606 56 
L 191 3500 
L 800 3500 
L 1894 763 
L 2988 3500 
L 3597 3500 
L 2059 -325 
z
" transform="scale(0.015625)"/>
      </defs>
      <use xlink:href="#DejaVuSans-48"/>
      <use xlink:href="#DejaVuSans-79" transform="translate(75.195312 0)"/>
      <use xlink:href="#DejaVuSans-65" transform="translate(134.375 0)"/>
      <use xlink:href="#DejaVuSans-6e" transform="translate(195.898438 0)"/>
      <use xlink:href="#DejaVuSans-61" transform="translate(259.277344 0)"/>
      <use xlink:href="#DejaVuSans-44" transform="translate(320.556641 0)"/>
      <use xlink:href="#DejaVuSans-4e" transform="translate(397.558594 0)"/>
      <use xlink:href="#DejaVuSans-41" transform="translate(472.363281 0)"/>
      <use xlink:href="#DejaVuSans-20" transform="translate(540.771484 0)"/>
      <use xlink:href="#DejaVuSans-70" transform="translate(572.558594 0)"/>
      <use xlink:href="#DejaVuSans-6f" transform="translate(636.035156 0)"/>
      <use xlink:href="#DejaVuSans-6f" transform="translate(697.216797 0)"/>
      <use xlink:href="#DejaVuSans-6c" transform="translate(758.398438 0)"/>
      <use xlink:href="#DejaVuSans-65" transform="translate(786.181641 0)"/>
      <use xlink:href="#DejaVuSans-64" transform="translate(847.705078 0)"/>
     </g>
    </g>
   </g>
  </g>
  <g id="text_20">
   <!-- chr16 region 4: overlay -->
   <g transform="translate(397.988438 16.318125) scale(0.12 -0.12)">
    <defs>
     <path id="DejaVuSans-3a" d="M 750 794 
L 1409 794 
L 1409 0 
L 750 0 
L 750 794 
z
M 750 3309 
L 1409 3309 
L 1409 2516 
L 750 2516 
L 750 3309 
z
" transform="scale(0.015625)"/>
     <path id="DejaVuSans-76" d="M 191 3500 
L 800 3500 
L 1894 563 
L 2988 3500 
L 3597 3500 
L 2284 0 
L 1503 0 
L 191 3500 
z
" transform="scale(0.015625)"/>
    </defs>
    <use xlink:href="#DejaVuSans-63"/>
    <use xlink:href="#DejaVuSans-68" transform="translate(54.980469 0)"/>
    <use xlink:href="#DejaVuSans-72" transform="translate(118.359375 0)"/>
    <use xlink:href="#DejaVuSans-31" transform="translate(159.472656 0)"/>
    <use xlink:href="#DejaVuSans-36" transform="translate(223.095703 0)"/>
    <use xlink:href="#DejaVuSans-20" transform="translate(286.71875 0)"/>
    <use xlink:href="#DejaVuSans-72" transform="translate(318.505859 0)"/>
    <use xlink:href="#DejaVuSans-65" transform="translate(357.369141 0)"/>
    <use xlink:href="#DejaVuSans-67" transform="translate(418.892578 0)"/>
    <use xlink:href="#DejaVuSans-69" transform="translate(482.369141 0)"/>
    <use xlink:href="#DejaVuSans-6f" transform="translate(510.152344 0)"/>
    <use xlink:href="#DejaVuSans-6e" transform="translate(571.333984 0)"/>
    <use xlink:href="#DejaVuSans-20" transform="translate(634.712891 0)"/>
    <use xlink:href="#DejaVuSans-34" transform="translate(666.5 0)"/>
    <use xlink:href="#DejaVuSans-3a" transform="translate(730.123047 0)"/>
    <use xlink:href="#DejaVuSans-20" transform="translate(763.814453 0)"/>
    <use xlink:href="#DejaVuSans-6f" transform="translate(795.601562 0)"/>
    <use xlink:href="#DejaVuSans-76" transform="translate(856.783203 0)"/>
    <use xlink:href="#DejaVuSans-65" transform="translate(915.962891 0)"/>
    <use xlink:href="#DejaVuSans-72" transform="translate(977.486328 0)"/>
    <use xlink:href="#DejaVuSans-6c" transform="translate(1018.599609 0)"/>
    <use xlink:href="#DejaVuSans-61" transform="translate(1046.382812 0)"/>
    <use xlink:href="#DejaVuSans-79" transform="translate(1107.662109 0)"/>
   </g>
   <!-- chr16_rank5_score4.345_reads484 -->
   <g transform="translate(363.175313 29.7555) scale(0.12 -0.12)">
    <defs>
     <path id="DejaVuSans-5f" d="M 3263 -1063 
L 3263 -1509 
L -63 -1509 
L -63 -1063 
L 3263 -1063 
z
" transform="scale(0.015625)"/>
     <path id="DejaVuSans-6b" d="M 581 4863 
L 1159 4863 
L 1159 1991 
L 2875 3500 
L 3609 3500 
L 1753 1863 
L 3688 0 
L 2938 0 
L 1159 1709 
L 1159 0 
L 581 0 
L 581 4863 
z
" transform="scale(0.015625)"/>
     <path id="DejaVuSans-35" d="M 691 4666 
L 3169 4666 
L 3169 4134 
L 1269 4134 
L 1269 2991 
Q 1406 3038 1543 3061 
Q 1681 3084 1819 3084 
Q 2600 3084 3056 2656 
Q 3513 2228 3513 1497 
Q 3513 744 3044 326 
Q 2575 -91 1722 -91 
Q 1428 -91 1123 -41 
Q 819 9 494 109 
L 494 744 
Q 775 591 1075 516 
Q 1375 441 1709 441 
Q 2250 441 2565 725 
Q 2881 1009 2881 1497 
Q 2881 1984 2565 2268 
Q 2250 2553 1709 2553 
Q 1456 2553 1204 2497 
Q 953 2441 691 2322 
L 691 4666 
z
" transform="scale(0.015625)"/>
    </defs>
    <use xlink:href="#DejaVuSans-63"/>
    <use xlink:href="#DejaVuSans-68" transform="translate(54.980469 0)"/>
    <use xlink:href="#DejaVuSans-72" transform="translate(118.359375 0)"/>
    <use xlink:href="#DejaVuSans-31" transform="translate(159.472656 0)"/>
    <use xlink:href="#DejaVuSans-36" transform="translate(223.095703 0)"/>
    <use xlink:href="#DejaVuSans-5f" transform="translate(286.71875 0)"/>
    <use xlink:href="#DejaVuSans-72" transform="translate(336.71875 0)"/>
    <use xlink:href="#DejaVuSans-61" transform="translate(377.832031 0)"/>
    <use xlink:href="#DejaVuSans-6e" transform="translate(439.111328 0)"/>
    <use xlink:href="#DejaVuSans-6b" transform="translate(502.490234 0)"/>
    <use xlink:href="#DejaVuSans-35" transform="translate(560.400391 0)"/>
    <use xlink:href="#DejaVuSans-5f" transform="translate(624.023438 0)"/>
    <use xlink:href="#DejaVuSans-73" transform="translate(674.023438 0)"/>
    <use xlink:href="#DejaVuSans-63" transform="translate(726.123047 0)"/>
    <use xlink:href="#DejaVuSans-6f" transform="translate(781.103516 0)"/>
    <use xlink:href="#DejaVuSans-72" transform="translate(842.285156 0)"/>
    <use xlink:href="#DejaVuSans-65" transform="translate(881.148438 0)"/>
    <use xlink:href="#DejaVuSans-34" transform="translate(942.671875 0)"/>
    <use xlink:href="#DejaVuSans-2e" transform="translate(1006.294922 0)"/>
    <use xlink:href="#DejaVuSans-33" transform="translate(1038.082031 0)"/>
    <use xlink:href="#DejaVuSans-34" transform="translate(1101.705078 0)"/>
    <use xlink:href="#DejaVuSans-35" transform="translate(1165.328125 0)"/>
    <use xlink:href="#DejaVuSans-5f" transform="translate(1228.951172 0)"/>
    <use xlink:href="#DejaVuSans-72" transform="translate(1278.951172 0)"/>
    <use xlink:href="#DejaVuSans-65" transform="translate(1317.814453 0)"/>
    <use xlink:href="#DejaVuSans-61" transform="translate(1379.337891 0)"/>
    <use xlink:href="#DejaVuSans-64" transform="translate(1440.617188 0)"/>
    <use xlink:href="#DejaVuSans-73" transform="translate(1504.09375 0)"/>
    <use xlink:href="#DejaVuSans-34" transform="translate(1556.193359 0)"/>
    <use xlink:href="#DejaVuSans-38" transform="translate(1619.816406 0)"/>
    <use xlink:href="#DejaVuSans-34" transform="translate(1683.439453 0)"/>
   </g>
  </g>
 </g>
 <defs>
  <clipPath id="pe3c9cfd4c3">
   <rect x="47.72" y="49.72725" width="877.48" height="268.31275"/>
  </clipPath>
 </defs>
</svg>
