<?xml version="1.0" encoding="utf-8" standalone="no"?>
<!DOCTYPE svg PUBLIC "-//W3C//DTD SVG 1.1//EN"
  "http://www.w3.org/Graphics/SVG/1.1/DTD/svg11.dtd">
<svg xmlns:xlink="http://www.w3.org/1999/xlink" width="546.943525pt" height="414.690375pt" viewBox="0 0 546.943525 414.690375" xmlns="http://www.w3.org/2000/svg" version="1.1">
 <metadata>
  <rdf:RDF xmlns:dc="http://purl.org/dc/elements/1.1/" xmlns:cc="http://creativecommons.org/ns#" xmlns:rdf="http://www.w3.org/1999/02/22-rdf-syntax-ns#">
   <cc:Work>
    <dc:type rdf:resource="http://purl.org/dc/dcmitype/StillImage"/>
    <dc:date>2026-03-06T14:45:21.107982</dc:date>
    <dc:format>image/svg+xml</dc:format>
    <dc:creator>
     <cc:Agent>
      <dc:title>Matplotlib v3.10.8, https://matplotlib.org/</dc:title>
     </cc:Agent>
    </dc:creator>
   </cc:Work>
  </rdf:RDF>
 </metadata>
 <defs>
  <style type="text/css">*{stroke-linejoin: round; stroke-linecap: butt}</style>
 </defs>
 <g id="figure_1">
  <g id="patch_1">
   <path d="M 0 414.690375 
L 546.943525 414.690375 
L 546.943525 0 
L 0 0 
z
" style="fill: #ffffff"/>
  </g>
  <g id="axes_1">
   <g id="patch_2">
    <path d="M 43.78125 377.134125 
L 442.30125 377.134125 
L 442.30125 22.318125 
L 43.78125 22.318125 
z
" style="fill: #ffffff"/>
   </g>
   <g id="matplotlib.axis_1">
    <g id="xtick_1">
     <g id="line2d_1">
      <defs>
       <path id="mdf1c73e828" d="M 0 0 
L 0 3.5 
" style="stroke: #000000; stroke-width: 0.8"/>
      </defs>
      <g>
       <use xlink:href="#mdf1c73e828" x="43.78125" y="377.134125" style="stroke: #000000; stroke-width: 0.8"/>
      </g>
     </g>
     <g id="text_1">
      <!-- 0.0 -->
      <g transform="translate(35.829688 391.732563) scale(0.1 -0.1)">
       <defs>
        <path id="DejaVuSans-30" d="M 2034 4250 
Q 1547 4250 1301 3770 
Q 1056 3291 1056 2328 
Q 1056 1369 1301 889 
Q 1547 409 2034 409 
Q 2525 409 2770 889 
Q 3016 1369 3016 2328 
Q 3016 3291 2770 3770 
Q 2525 4250 2034 4250 
z
M 2034 4750 
Q 2819 4750 3233 4129 
Q 3647 3509 3647 2328 
Q 3647 1150 3233 529 
Q 2819 -91 2034 -91 
Q 1250 -91 836 529 
Q 422 1150 422 2328 
Q 422 3509 836 4129 
Q 1250 4750 2034 4750 
z
" transform="scale(0.015625)"/>
        <path id="DejaVuSans-2e" d="M 684 794 
L 1344 794 
L 1344 0 
L 684 0 
L 684 794 
z
" transform="scale(0.015625)"/>
       </defs>
       <use xlink:href="#DejaVuSans-30"/>
       <use xlink:href="#DejaVuSans-2e" transform="translate(63.623047 0)"/>
       <use xlink:href="#DejaVuSans-30" transform="translate(95.410156 0)"/>
      </g>
     </g>
    </g>
    <g id="xtick_2">
     <g id="line2d_2">
      <g>
       <use xlink:href="#mdf1c73e828" x="123.48525" y="377.134125" style="stroke: #000000; stroke-width: 0.8"/>
      </g>
     </g>
     <g id="text_2">
      <!-- 0.2 -->
      <g transform="translate(115.533688 391.732563) scale(0.1 -0.1)">
       <defs>
        <path id="DejaVuSans-32" d="M 1228 531 
L 3431 531 
L 3431 0 
L 469 0 
L 469 531 
Q 828 903 1448 1529 
Q 2069 2156 2228 2338 
Q 2531 2678 2651 2914 
Q 2772 3150 2772 3378 
Q 2772 3750 2511 3984 
Q 2250 4219 1831 4219 
Q 1534 4219 1204 4116 
Q 875 4013 500 3803 
L 500 4441 
Q 881 4594 1212 4672 
Q 1544 4750 1819 4750 
Q 2544 4750 2975 4387 
Q 3406 4025 3406 3419 
Q 3406 3131 3298 2873 
Q 3191 2616 2906 2266 
Q 2828 2175 2409 1742 
Q 1991 1309 1228 531 
z
" transform="scale(0.015625)"/>
       </defs>
       <use xlink:href="#DejaVuSans-30"/>
       <use xlink:href="#DejaVuSans-2e" transform="translate(63.623047 0)"/>
       <use xlink:href="#DejaVuSans-32" transform="translate(95.410156 0)"/>
      </g>
     </g>
    </g>
    <g id="xtick_3">
     <g id="line2d_3">
      <g>
       <use xlink:href="#mdf1c73e828" x="203.18925" y="377.134125" style="stroke: #000000; stroke-width: 0.8"/>
      </g>
     </g>
     <g id="text_3">
      <!-- 0.4 -->
      <g transform="translate(195.237688 391.732563) scale(0.1 -0.1)">
       <defs>
        <path id="DejaVuSans-34" d="M 2419 4116 
L 825 1625 
L 2419 1625 
L 2419 4116 
z
M 2253 4666 
L 3047 4666 
L 3047 1625 
L 3713 1625 
L 3713 1100 
L 3047 1100 
L 3047 0 
L 2419 0 
L 2419 1100 
L 313 1100 
L 313 1709 
L 2253 4666 
z
" transform="scale(0.015625)"/>
       </defs>
       <use xlink:href="#DejaVuSans-30"/>
       <use xlink:href="#DejaVuSans-2e" transform="translate(63.623047 0)"/>
       <use xlink:href="#DejaVuSans-34" transform="translate(95.410156 0)"/>
      </g>
     </g>
    </g>
    <g id="xtick_4">
     <g id="line2d_4">
      <g>
       <use xlink:href="#mdf1c73e828" x="282.89325" y="377.134125" style="stroke: #000000; stroke-width: 0.8"/>
      </g>
     </g>
     <g id="text_4">
      <!-- 0.6 -->
      <g transform="translate(274.941688 391.732563) scale(0.1 -0.1)">
       <defs>
        <path id="DejaVuSans-36" d="M 2113 2584 
Q 1688 2584 1439 2293 
Q 1191 2003 1191 1497 
Q 1191 994 1439 701 
Q 1688 409 2113 409 
Q 2538 409 2786 701 
Q 3034 994 3034 1497 
Q 3034 2003 2786 2293 
Q 2538 2584 2113 2584 
z
M 3366 4563 
L 3366 3988 
Q 3128 4100 2886 4159 
Q 2644 4219 2406 4219 
Q 1781 4219 1451 3797 
Q 1122 3375 1075 2522 
Q 1259 2794 1537 2939 
Q 1816 3084 2150 3084 
Q 2853 3084 3261 2657 
Q 3669 2231 3669 1497 
Q 3669 778 3244 343 
Q 2819 -91 2113 -91 
Q 1303 -91 875 529 
Q 447 1150 447 2328 
Q 447 3434 972 4092 
Q 1497 4750 2381 4750 
Q 2619 4750 2861 4703 
Q 3103 4656 3366 4563 
z
" transform="scale(0.015625)"/>
       </defs>
       <use xlink:href="#DejaVuSans-30"/>
       <use xlink:href="#DejaVuSans-2e" transform="translate(63.623047 0)"/>
       <use xlink:href="#DejaVuSans-36" transform="translate(95.410156 0)"/>
      </g>
     </g>
    </g>
    <g id="xtick_5">
     <g id="line2d_5">
      <g>
       <use xlink:href="#mdf1c73e828" x="362.59725" y="377.134125" style="stroke: #000000; stroke-width: 0.8"/>
      </g>
     </g>
     <g id="text_5">
      <!-- 0.8 -->
      <g transform="translate(354.645688 391.732563) scale(0.1 -0.1)">
       <defs>
        <path id="DejaVuSans-38" d="M 2034 2216 
Q 1584 2216 1326 1975 
Q 1069 1734 1069 1313 
Q 1069 891 1326 650 
Q 1584 409 2034 409 
Q 2484 409 2743 651 
Q 3003 894 3003 1313 
Q 3003 1734 2745 1975 
Q 2488 2216 2034 2216 
z
M 1403 2484 
Q 997 2584 770 2862 
Q 544 3141 544 3541 
Q 544 4100 942 4425 
Q 1341 4750 2034 4750 
Q 2731 4750 3128 4425 
Q 3525 4100 3525 3541 
Q 3525 3141 3298 2862 
Q 3072 2584 2669 2484 
Q 3125 2378 3379 2068 
Q 3634 1759 3634 1313 
Q 3634 634 3220 271 
Q 2806 -91 2034 -91 
Q 1263 -91 848 271 
Q 434 634 434 1313 
Q 434 1759 690 2068 
Q 947 2378 1403 2484 
z
M 1172 3481 
Q 1172 3119 1398 2916 
Q 1625 2713 2034 2713 
Q 2441 2713 2670 2916 
Q 2900 3119 2900 3481 
Q 2900 3844 2670 4047 
Q 2441 4250 2034 4250 
Q 1625 4250 1398 4047 
Q 1172 3844 1172 3481 
z
" transform="scale(0.015625)"/>
       </defs>
       <use xlink:href="#DejaVuSans-30"/>
       <use xlink:href="#DejaVuSans-2e" transform="translate(63.623047 0)"/>
       <use xlink:href="#DejaVuSans-38" transform="translate(95.410156 0)"/>
      </g>
     </g>
    </g>
    <g id="xtick_6">
     <g id="line2d_6">
      <g>
       <use xlink:href="#mdf1c73e828" x="442.30125" y="377.134125" style="stroke: #000000; stroke-width: 0.8"/>
      </g>
     </g>
     <g id="text_6">
      <!-- 1.0 -->
      <g transform="translate(434.349687 391.732563) scale(0.1 -0.1)">
       <defs>
        <path id="DejaVuSans-31" d="M 794 531 
L 1825 531 
L 1825 4091 
L 703 3866 
L 703 4441 
L 1819 4666 
L 2450 4666 
L 2450 531 
L 3481 531 
L 3481 0 
L 794 0 
L 794 531 
z
" transform="scale(0.015625)"/>
       </defs>
       <use xlink:href="#DejaVuSans-31"/>
       <use xlink:href="#DejaVuSans-2e" transform="translate(63.623047 0)"/>
       <use xlink:href="#DejaVuSans-30" transform="translate(95.410156 0)"/>
      </g>
     </g>
    </g>
    <g id="text_7">
     <!-- Reg normalized [0,1] -->
     <g transform="translate(190.726406 405.410687) scale(0.1 -0.1)">
      <defs>
       <path id="DejaVuSans-52" d="M 2841 2188 
Q 3044 2119 3236 1894 
Q 3428 1669 3622 1275 
L 4263 0 
L 3584 0 
L 2988 1197 
Q 2756 1666 2539 1819 
Q 2322 1972 1947 1972 
L 1259 1972 
L 1259 0 
L 628 0 
L 628 4666 
L 2053 4666 
Q 2853 4666 3247 4331 
Q 3641 3997 3641 3322 
Q 3641 2881 3436 2590 
Q 3231 2300 2841 2188 
z
M 1259 4147 
L 1259 2491 
L 2053 2491 
Q 2509 2491 2742 2702 
Q 2975 2913 2975 3322 
Q 2975 3731 2742 3939 
Q 2509 4147 2053 4147 
L 1259 4147 
z
" transform="scale(0.015625)"/>
       <path id="DejaVuSans-65" d="M 3597 1894 
L 3597 1613 
L 953 1613 
Q 991 1019 1311 708 
Q 1631 397 2203 397 
Q 2534 397 2845 478 
Q 3156 559 3463 722 
L 3463 178 
Q 3153 47 2828 -22 
Q 2503 -91 2169 -91 
Q 1331 -91 842 396 
Q 353 884 353 1716 
Q 353 2575 817 3079 
Q 1281 3584 2069 3584 
Q 2775 3584 3186 3129 
Q 3597 2675 3597 1894 
z
M 3022 2063 
Q 3016 2534 2758 2815 
Q 2500 3097 2075 3097 
Q 1594 3097 1305 2825 
Q 1016 2553 972 2059 
L 3022 2063 
z
" transform="scale(0.015625)"/>
       <path id="DejaVuSans-67" d="M 2906 1791 
Q 2906 2416 2648 2759 
Q 2391 3103 1925 3103 
Q 1463 3103 1205 2759 
Q 947 2416 947 1791 
Q 947 1169 1205 825 
Q 1463 481 1925 481 
Q 2391 481 2648 825 
Q 2906 1169 2906 1791 
z
M 3481 434 
Q 3481 -459 3084 -895 
Q 2688 -1331 1869 -1331 
Q 1566 -1331 1297 -1286 
Q 1028 -1241 775 -1147 
L 775 -588 
Q 1028 -725 1275 -790 
Q 1522 -856 1778 -856 
Q 2344 -856 2625 -561 
Q 2906 -266 2906 331 
L 2906 616 
Q 2728 306 2450 153 
Q 2172 0 1784 0 
Q 1141 0 747 490 
Q 353 981 353 1791 
Q 353 2603 747 3093 
Q 1141 3584 1784 3584 
Q 2172 3584 2450 3431 
Q 2728 3278 2906 2969 
L 2906 3500 
L 3481 3500 
L 3481 434 
z
" transform="scale(0.015625)"/>
       <path id="DejaVuSans-20" transform="scale(0.015625)"/>
       <path id="DejaVuSans-6e" d="M 3513 2113 
L 3513 0 
L 2938 0 
L 2938 2094 
Q 2938 2591 2744 2837 
Q 2550 3084 2163 3084 
Q 1697 3084 1428 2787 
Q 1159 2491 1159 1978 
L 1159 0 
L 581 0 
L 581 3500 
L 1159 3500 
L 1159 2956 
Q 1366 3272 1645 3428 
Q 1925 3584 2291 3584 
Q 2894 3584 3203 3211 
Q 3513 2838 3513 2113 
z
" transform="scale(0.015625)"/>
       <path id="DejaVuSans-6f" d="M 1959 3097 
Q 1497 3097 1228 2736 
Q 959 2375 959 1747 
Q 959 1119 1226 758 
Q 1494 397 1959 397 
Q 2419 397 2687 759 
Q 2956 1122 2956 1747 
Q 2956 2369 2687 2733 
Q 2419 3097 1959 3097 
z
M 1959 3584 
Q 2709 3584 3137 3096 
Q 3566 2609 3566 1747 
Q 3566 888 3137 398 
Q 2709 -91 1959 -91 
Q 1206 -91 779 398 
Q 353 888 353 1747 
Q 353 2609 779 3096 
Q 1206 3584 1959 3584 
z
" transform="scale(0.015625)"/>
       <path id="DejaVuSans-72" d="M 2631 2963 
Q 2534 3019 2420 3045 
Q 2306 3072 2169 3072 
Q 1681 3072 1420 2755 
Q 1159 2438 1159 1844 
L 1159 0 
L 581 0 
L 581 3500 
L 1159 3500 
L 1159 2956 
Q 1341 3275 1631 3429 
Q 1922 3584 2338 3584 
Q 2397 3584 2469 3576 
Q 2541 3569 2628 3553 
L 2631 2963 
z
" transform="scale(0.015625)"/>
       <path id="DejaVuSans-6d" d="M 3328 2828 
Q 3544 3216 3844 3400 
Q 4144 3584 4550 3584 
Q 5097 3584 5394 3201 
Q 5691 2819 5691 2113 
L 5691 0 
L 5113 0 
L 5113 2094 
Q 5113 2597 4934 2840 
Q 4756 3084 4391 3084 
Q 3944 3084 3684 2787 
Q 3425 2491 3425 1978 
L 3425 0 
L 2847 0 
L 2847 2094 
Q 2847 2600 2669 2842 
Q 2491 3084 2119 3084 
Q 1678 3084 1418 2786 
Q 1159 2488 1159 1978 
L 1159 0 
L 581 0 
L 581 3500 
L 1159 3500 
L 1159 2956 
Q 1356 3278 1631 3431 
Q 1906 3584 2284 3584 
Q 2666 3584 2933 3390 
Q 3200 3197 3328 2828 
z
" transform="scale(0.015625)"/>
       <path id="DejaVuSans-61" d="M 2194 1759 
Q 1497 1759 1228 1600 
Q 959 1441 959 1056 
Q 959 750 1161 570 
Q 1363 391 1709 391 
Q 2188 391 2477 730 
Q 2766 1069 2766 1631 
L 2766 1759 
L 2194 1759 
z
M 3341 1997 
L 3341 0 
L 2766 0 
L 2766 531 
Q 2569 213 2275 61 
Q 1981 -91 1556 -91 
Q 1019 -91 701 211 
Q 384 513 384 1019 
Q 384 1609 779 1909 
Q 1175 2209 1959 2209 
L 2766 2209 
L 2766 2266 
Q 2766 2663 2505 2880 
Q 2244 3097 1772 3097 
Q 1472 3097 1187 3025 
Q 903 2953 641 2809 
L 641 3341 
Q 956 3463 1253 3523 
Q 1550 3584 1831 3584 
Q 2591 3584 2966 3190 
Q 3341 2797 3341 1997 
z
" transform="scale(0.015625)"/>
       <path id="DejaVuSans-6c" d="M 603 4863 
L 1178 4863 
L 1178 0 
L 603 0 
L 603 4863 
z
" transform="scale(0.015625)"/>
       <path id="DejaVuSans-69" d="M 603 3500 
L 1178 3500 
L 1178 0 
L 603 0 
L 603 3500 
z
M 603 4863 
L 1178 4863 
L 1178 4134 
L 603 4134 
L 603 4863 
z
" transform="scale(0.015625)"/>
       <path id="DejaVuSans-7a" d="M 353 3500 
L 3084 3500 
L 3084 2975 
L 922 459 
L 3084 459 
L 3084 0 
L 275 0 
L 275 525 
L 2438 3041 
L 353 3041 
L 353 3500 
z
" transform="scale(0.015625)"/>
       <path id="DejaVuSans-64" d="M 2906 2969 
L 2906 4863 
L 3481 4863 
L 3481 0 
L 2906 0 
L 2906 525 
Q 2725 213 2448 61 
Q 2172 -91 1784 -91 
Q 1150 -91 751 415 
Q 353 922 353 1747 
Q 353 2572 751 3078 
Q 1150 3584 1784 3584 
Q 2172 3584 2448 3432 
Q 2725 3281 2906 2969 
z
M 947 1747 
Q 947 1113 1208 752 
Q 1469 391 1925 391 
Q 2381 391 2643 752 
Q 2906 1113 2906 1747 
Q 2906 2381 2643 2742 
Q 2381 3103 1925 3103 
Q 1469 3103 1208 2742 
Q 947 2381 947 1747 
z
" transform="scale(0.015625)"/>
       <path id="DejaVuSans-5b" d="M 550 4863 
L 1875 4863 
L 1875 4416 
L 1125 4416 
L 1125 -397 
L 1875 -397 
L 1875 -844 
L 550 -844 
L 550 4863 
z
" transform="scale(0.015625)"/>
       <path id="DejaVuSans-2c" d="M 750 794 
L 1409 794 
L 1409 256 
L 897 -744 
L 494 -744 
L 750 256 
L 750 794 
z
" transform="scale(0.015625)"/>
       <path id="DejaVuSans-5d" d="M 1947 4863 
L 1947 -844 
L 622 -844 
L 622 -397 
L 1369 -397 
L 1369 4416 
L 622 4416 
L 622 4863 
L 1947 4863 
z
" transform="scale(0.015625)"/>
      </defs>
      <use xlink:href="#DejaVuSans-52"/>
      <use xlink:href="#DejaVuSans-65" transform="translate(64.982422 0)"/>
      <use xlink:href="#DejaVuSans-67" transform="translate(126.505859 0)"/>
      <use xlink:href="#DejaVuSans-20" transform="translate(189.982422 0)"/>
      <use xlink:href="#DejaVuSans-6e" transform="translate(221.769531 0)"/>
      <use xlink:href="#DejaVuSans-6f" transform="translate(285.148438 0)"/>
      <use xlink:href="#DejaVuSans-72" transform="translate(346.330078 0)"/>
      <use xlink:href="#DejaVuSans-6d" transform="translate(385.693359 0)"/>
      <use xlink:href="#DejaVuSans-61" transform="translate(483.105469 0)"/>
      <use xlink:href="#DejaVuSans-6c" transform="translate(544.384766 0)"/>
      <use xlink:href="#DejaVuSans-69" transform="translate(572.167969 0)"/>
      <use xlink:href="#DejaVuSans-7a" transform="translate(599.951172 0)"/>
      <use xlink:href="#DejaVuSans-65" transform="translate(652.441406 0)"/>
      <use xlink:href="#DejaVuSans-64" transform="translate(713.964844 0)"/>
      <use xlink:href="#DejaVuSans-20" transform="translate(777.441406 0)"/>
      <use xlink:href="#DejaVuSans-5b" transform="translate(809.228516 0)"/>
      <use xlink:href="#DejaVuSans-30" transform="translate(848.242188 0)"/>
      <use xlink:href="#DejaVuSans-2c" transform="translate(911.865234 0)"/>
      <use xlink:href="#DejaVuSans-31" transform="translate(943.652344 0)"/>
      <use xlink:href="#DejaVuSans-5d" transform="translate(1007.275391 0)"/>
     </g>
    </g>
   </g>
   <g id="matplotlib.axis_2">
    <g id="ytick_1">
     <g id="line2d_7">
      <defs>
       <path id="mddaedd0c7d" d="M 0 0 
L -3.5 0 
" style="stroke: #000000; stroke-width: 0.8"/>
      </defs>
      <g>
       <use xlink:href="#mddaedd0c7d" x="43.78125" y="347.566125" style="stroke: #000000; stroke-width: 0.8"/>
      </g>
     </g>
     <g id="text_8">
      <!-- 0.0 -->
      <g transform="translate(20.878125 351.365344) scale(0.1 -0.1)">
       <use xlink:href="#DejaVuSans-30"/>
       <use xlink:href="#DejaVuSans-2e" transform="translate(63.623047 0)"/>
       <use xlink:href="#DejaVuSans-30" transform="translate(95.410156 0)"/>
      </g>
     </g>
    </g>
    <g id="ytick_2">
     <g id="line2d_8">
      <g>
       <use xlink:href="#mddaedd0c7d" x="43.78125" y="288.430125" style="stroke: #000000; stroke-width: 0.8"/>
      </g>
     </g>
     <g id="text_9">
      <!-- 0.2 -->
      <g transform="translate(20.878125 292.229344) scale(0.1 -0.1)">
       <use xlink:href="#DejaVuSans-30"/>
       <use xlink:href="#DejaVuSans-2e" transform="translate(63.623047 0)"/>
       <use xlink:href="#DejaVuSans-32" transform="translate(95.410156 0)"/>
      </g>
     </g>
    </g>
    <g id="ytick_3">
     <g id="line2d_9">
      <g>
       <use xlink:href="#mddaedd0c7d" x="43.78125" y="229.294125" style="stroke: #000000; stroke-width: 0.8"/>
      </g>
     </g>
     <g id="text_10">
      <!-- 0.4 -->
      <g transform="translate(20.878125 233.093344) scale(0.1 -0.1)">
       <use xlink:href="#DejaVuSans-30"/>
       <use xlink:href="#DejaVuSans-2e" transform="translate(63.623047 0)"/>
       <use xlink:href="#DejaVuSans-34" transform="translate(95.410156 0)"/>
      </g>
     </g>
    </g>
    <g id="ytick_4">
     <g id="line2d_10">
      <g>
       <use xlink:href="#mddaedd0c7d" x="43.78125" y="170.158125" style="stroke: #000000; stroke-width: 0.8"/>
      </g>
     </g>
     <g id="text_11">
      <!-- 0.6 -->
      <g transform="translate(20.878125 173.957344) scale(0.1 -0.1)">
       <use xlink:href="#DejaVuSans-30"/>
       <use xlink:href="#DejaVuSans-2e" transform="translate(63.623047 0)"/>
       <use xlink:href="#DejaVuSans-36" transform="translate(95.410156 0)"/>
      </g>
     </g>
    </g>
    <g id="ytick_5">
     <g id="line2d_11">
      <g>
       <use xlink:href="#mddaedd0c7d" x="43.78125" y="111.022125" style="stroke: #000000; stroke-width: 0.8"/>
      </g>
     </g>
     <g id="text_12">
      <!-- 0.8 -->
      <g transform="translate(20.878125 114.821344) scale(0.1 -0.1)">
       <use xlink:href="#DejaVuSans-30"/>
       <use xlink:href="#DejaVuSans-2e" transform="translate(63.623047 0)"/>
       <use xlink:href="#DejaVuSans-38" transform="translate(95.410156 0)"/>
      </g>
     </g>
    </g>
    <g id="ytick_6">
     <g id="line2d_12">
      <g>
       <use xlink:href="#mddaedd0c7d" x="43.78125" y="51.886125" style="stroke: #000000; stroke-width: 0.8"/>
      </g>
     </g>
     <g id="text_13">
      <!-- 1.0 -->
      <g transform="translate(20.878125 55.685344) scale(0.1 -0.1)">
       <use xlink:href="#DejaVuSans-31"/>
       <use xlink:href="#DejaVuSans-2e" transform="translate(63.623047 0)"/>
       <use xlink:href="#DejaVuSans-30" transform="translate(95.410156 0)"/>
      </g>
     </g>
    </g>
    <g id="text_14">
     <!-- M binary (0/1, jittered for contour) -->
     <g transform="translate(14.798437 285.398781) rotate(-90) scale(0.1 -0.1)">
      <defs>
       <path id="DejaVuSans-4d" d="M 628 4666 
L 1569 4666 
L 2759 1491 
L 3956 4666 
L 4897 4666 
L 4897 0 
L 4281 0 
L 4281 4097 
L 3078 897 
L 2444 897 
L 1241 4097 
L 1241 0 
L 628 0 
L 628 4666 
z
" transform="scale(0.015625)"/>
       <path id="DejaVuSans-62" d="M 3116 1747 
Q 3116 2381 2855 2742 
Q 2594 3103 2138 3103 
Q 1681 3103 1420 2742 
Q 1159 2381 1159 1747 
Q 1159 1113 1420 752 
Q 1681 391 2138 391 
Q 2594 391 2855 752 
Q 3116 1113 3116 1747 
z
M 1159 2969 
Q 1341 3281 1617 3432 
Q 1894 3584 2278 3584 
Q 2916 3584 3314 3078 
Q 3713 2572 3713 1747 
Q 3713 922 3314 415 
Q 2916 -91 2278 -91 
Q 1894 -91 1617 61 
Q 1341 213 1159 525 
L 1159 0 
L 581 0 
L 581 4863 
L 1159 4863 
L 1159 2969 
z
" transform="scale(0.015625)"/>
       <path id="DejaVuSans-79" d="M 2059 -325 
Q 1816 -950 1584 -1140 
Q 1353 -1331 966 -1331 
L 506 -1331 
L 506 -850 
L 844 -850 
Q 1081 -850 1212 -737 
Q 1344 -625 1503 -206 
L 1606 56 
L 191 3500 
L 800 3500 
L 1894 763 
L 2988 3500 
L 3597 3500 
L 2059 -325 
z
" transform="scale(0.015625)"/>
       <path id="DejaVuSans-28" d="M 1984 4856 
Q 1566 4138 1362 3434 
Q 1159 2731 1159 2009 
Q 1159 1288 1364 580 
Q 1569 -128 1984 -844 
L 1484 -844 
Q 1016 -109 783 600 
Q 550 1309 550 2009 
Q 550 2706 781 3412 
Q 1013 4119 1484 4856 
L 1984 4856 
z
" transform="scale(0.015625)"/>
       <path id="DejaVuSans-2f" d="M 1625 4666 
L 2156 4666 
L 531 -594 
L 0 -594 
L 1625 4666 
z
" transform="scale(0.015625)"/>
       <path id="DejaVuSans-6a" d="M 603 3500 
L 1178 3500 
L 1178 -63 
Q 1178 -731 923 -1031 
Q 669 -1331 103 -1331 
L -116 -1331 
L -116 -844 
L 38 -844 
Q 366 -844 484 -692 
Q 603 -541 603 -63 
L 603 3500 
z
M 603 4863 
L 1178 4863 
L 1178 4134 
L 603 4134 
L 603 4863 
z
" transform="scale(0.015625)"/>
       <path id="DejaVuSans-74" d="M 1172 4494 
L 1172 3500 
L 2356 3500 
L 2356 3053 
L 1172 3053 
L 1172 1153 
Q 1172 725 1289 603 
Q 1406 481 1766 481 
L 2356 481 
L 2356 0 
L 1766 0 
Q 1100 0 847 248 
Q 594 497 594 1153 
L 594 3053 
L 172 3053 
L 172 3500 
L 594 3500 
L 594 4494 
L 1172 4494 
z
" transform="scale(0.015625)"/>
       <path id="DejaVuSans-66" d="M 2375 4863 
L 2375 4384 
L 1825 4384 
Q 1516 4384 1395 4259 
Q 1275 4134 1275 3809 
L 1275 3500 
L 2222 3500 
L 2222 3053 
L 1275 3053 
L 1275 0 
L 697 0 
L 697 3053 
L 147 3053 
L 147 3500 
L 697 3500 
L 697 3744 
Q 697 4328 969 4595 
Q 1241 4863 1831 4863 
L 2375 4863 
z
" transform="scale(0.015625)"/>
       <path id="DejaVuSans-63" d="M 3122 3366 
L 3122 2828 
Q 2878 2963 2633 3030 
Q 2388 3097 2138 3097 
Q 1578 3097 1268 2742 
Q 959 2388 959 1747 
Q 959 1106 1268 751 
Q 1578 397 2138 397 
Q 2388 397 2633 464 
Q 2878 531 3122 666 
L 3122 134 
Q 2881 22 2623 -34 
Q 2366 -91 2075 -91 
Q 1284 -91 818 406 
Q 353 903 353 1747 
Q 353 2603 823 3093 
Q 1294 3584 2113 3584 
Q 2378 3584 2631 3529 
Q 2884 3475 3122 3366 
z
" transform="scale(0.015625)"/>
       <path id="DejaVuSans-75" d="M 544 1381 
L 544 3500 
L 1119 3500 
L 1119 1403 
Q 1119 906 1312 657 
Q 1506 409 1894 409 
Q 2359 409 2629 706 
Q 2900 1003 2900 1516 
L 2900 3500 
L 3475 3500 
L 3475 0 
L 2900 0 
L 2900 538 
Q 2691 219 2414 64 
Q 2138 -91 1772 -91 
Q 1169 -91 856 284 
Q 544 659 544 1381 
z
M 1991 3584 
L 1991 3584 
z
" transform="scale(0.015625)"/>
       <path id="DejaVuSans-29" d="M 513 4856 
L 1013 4856 
Q 1481 4119 1714 3412 
Q 1947 2706 1947 2009 
Q 1947 1309 1714 600 
Q 1481 -109 1013 -844 
L 513 -844 
Q 928 -128 1133 580 
Q 1338 1288 1338 2009 
Q 1338 2731 1133 3434 
Q 928 4138 513 4856 
z
" transform="scale(0.015625)"/>
      </defs>
      <use xlink:href="#DejaVuSans-4d"/>
      <use xlink:href="#DejaVuSans-20" transform="translate(86.279297 0)"/>
      <use xlink:href="#DejaVuSans-62" transform="translate(118.066406 0)"/>
      <use xlink:href="#DejaVuSans-69" transform="translate(181.542969 0)"/>
      <use xlink:href="#DejaVuSans-6e" transform="translate(209.326172 0)"/>
      <use xlink:href="#DejaVuSans-61" transform="translate(272.705078 0)"/>
      <use xlink:href="#DejaVuSans-72" transform="translate(333.984375 0)"/>
      <use xlink:href="#DejaVuSans-79" transform="translate(375.097656 0)"/>
      <use xlink:href="#DejaVuSans-20" transform="translate(434.277344 0)"/>
      <use xlink:href="#DejaVuSans-28" transform="translate(466.064453 0)"/>
      <use xlink:href="#DejaVuSans-30" transform="translate(505.078125 0)"/>
      <use xlink:href="#DejaVuSans-2f" transform="translate(568.701172 0)"/>
      <use xlink:href="#DejaVuSans-31" transform="translate(602.392578 0)"/>
      <use xlink:href="#DejaVuSans-2c" transform="translate(666.015625 0)"/>
      <use xlink:href="#DejaVuSans-20" transform="translate(697.802734 0)"/>
      <use xlink:href="#DejaVuSans-6a" transform="translate(729.589844 0)"/>
      <use xlink:href="#DejaVuSans-69" transform="translate(757.373047 0)"/>
      <use xlink:href="#DejaVuSans-74" transform="translate(785.15625 0)"/>
      <use xlink:href="#DejaVuSans-74" transform="translate(824.365234 0)"/>
      <use xlink:href="#DejaVuSans-65" transform="translate(863.574219 0)"/>
      <use xlink:href="#DejaVuSans-72" transform="translate(925.097656 0)"/>
      <use xlink:href="#DejaVuSans-65" transform="translate(963.960938 0)"/>
      <use xlink:href="#DejaVuSans-64" transform="translate(1025.484375 0)"/>
      <use xlink:href="#DejaVuSans-20" transform="translate(1088.960938 0)"/>
      <use xlink:href="#DejaVuSans-66" transform="translate(1120.748047 0)"/>
      <use xlink:href="#DejaVuSans-6f" transform="translate(1155.953125 0)"/>
      <use xlink:href="#DejaVuSans-72" transform="translate(1217.134766 0)"/>
      <use xlink:href="#DejaVuSans-20" transform="translate(1258.248047 0)"/>
      <use xlink:href="#DejaVuSans-63" transform="translate(1290.035156 0)"/>
      <use xlink:href="#DejaVuSans-6f" transform="translate(1345.015625 0)"/>
      <use xlink:href="#DejaVuSans-6e" transform="translate(1406.197266 0)"/>
      <use xlink:href="#DejaVuSans-74" transform="translate(1469.576172 0)"/>
      <use xlink:href="#DejaVuSans-6f" transform="translate(1508.785156 0)"/>
      <use xlink:href="#DejaVuSans-75" transform="translate(1569.966797 0)"/>
      <use xlink:href="#DejaVuSans-72" transform="translate(1633.345703 0)"/>
      <use xlink:href="#DejaVuSans-29" transform="translate(1674.458984 0)"/>
     </g>
    </g>
   </g>
   <g id="QuadContourSet_1">
    <path d="M 439.8105 329.253923 
L 434.829 327.625308 
L 429.8475 329.503222 
L 428.036475 330.564525 
L 424.866 332.530376 
L 419.926281 334.999725 
L 419.8845 335.025138 
L 414.903 338.261391 
L 413.289307 339.434925 
L 409.9215 342.310001 
L 406.656652 343.870125 
L 404.94 345.486527 
L 401.249666 348.305325 
L 404.94 352.573156 
L 405.02469 352.740525 
L 409.9215 355.743772 
L 412.247637 357.175725 
L 414.903 358.334915 
L 419.8845 360.800565 
L 421.346366 361.610925 
L 424.866 363.315526 
L 429.8475 365.454717 
L 431.799034 366.046125 
L 434.829 367.227767 
L 438.518178 366.046125 
L 439.8105 365.692289 
M 46.272 86.360472 
L 46.975702 86.628525 
L 51.2535 88.606653 
L 56.235 89.104859 
L 61.2165 89.145294 
L 66.198 89.080672 
L 71.1795 89.013822 
L 76.161 89.034949 
L 81.1425 89.076167 
L 86.124 89.043059 
L 91.1055 88.997896 
L 96.087 88.944948 
L 101.0685 88.921556 
L 106.05 88.935362 
L 111.0315 88.782007 
L 116.013 88.498562 
L 120.9945 88.414912 
L 125.976 88.590265 
L 130.9575 88.794796 
L 135.939 88.908861 
L 140.9205 89.062267 
L 145.902 89.232728 
L 150.8835 89.229362 
L 155.865 89.023708 
L 160.8465 88.767141 
L 165.828 88.607576 
L 170.8095 88.508735 
L 175.791 88.450073 
L 180.7725 88.447795 
L 185.754 88.499341 
L 190.7355 88.672891 
L 195.717 89.001373 
L 200.6985 89.399126 
L 205.68 89.676505 
L 210.6615 89.717314 
L 215.643 89.686409 
L 220.6245 89.741723 
L 225.606 89.803798 
L 230.5875 89.798061 
L 235.569 89.685353 
L 240.5505 89.45379 
L 245.532 89.332621 
L 250.5135 89.562626 
L 255.495 89.899771 
L 260.4765 89.91787 
L 265.458 89.625412 
L 270.4395 89.313588 
L 275.421 89.167266 
L 280.4025 89.172748 
L 285.384 89.309379 
L 290.3655 89.472429 
L 295.347 89.54334 
L 300.3285 89.548195 
L 305.31 89.496298 
L 310.2915 89.354292 
L 315.273 89.173984 
L 320.2545 89.12035 
L 325.236 89.22735 
L 330.2175 89.459033 
L 335.199 89.760728 
L 340.1805 89.94175 
L 345.162 89.925956 
L 350.1435 89.768311 
L 355.125 89.494598 
L 360.1065 89.295782 
L 365.088 89.315011 
L 370.0695 89.357858 
L 375.051 89.261201 
L 380.0325 89.096993 
L 385.014 88.962046 
L 389.9955 88.946034 
L 394.977 89.132866 
L 399.9585 89.356446 
L 404.94 89.325217 
L 409.9215 89.088535 
L 414.903 88.944456 
L 419.8845 88.828649 
L 424.866 88.576508 
L 429.8475 88.34522 
L 434.829 87.636995 
L 436.778942 86.628525 
L 439.8105 85.321396 
M 160.8465 357.278572 
L 165.828 358.215392 
L 170.8095 357.77969 
L 172.423478 357.175725 
L 175.791 355.428868 
L 180.7725 353.651322 
L 184.682739 352.740525 
L 185.754 352.266891 
L 190.7355 351.423374 
L 194.643906 348.305325 
L 191.355841 343.870125 
L 190.7355 343.46943 
L 185.754 342.691562 
L 180.7725 341.724467 
L 175.791 340.171313 
L 173.891247 339.434925 
L 170.8095 338.483674 
L 165.828 338.204615 
L 160.8465 338.303012 
L 155.865 337.957162 
L 150.8835 339.00148 
L 150.007349 339.434925 
L 145.902 343.111028 
L 145.041868 343.870125 
L 143.887869 348.305325 
L 145.902 351.991415 
L 146.349002 352.740525 
L 150.8835 355.057932 
L 155.865 356.169344 
L 160.215495 357.175725 
L 160.8465 357.278572 
z
M 61.2165 352.888366 
L 61.608602 352.740525 
L 65.391342 348.305325 
L 62.27207 343.870125 
L 61.2165 343.182659 
L 57.809343 343.870125 
L 56.235 344.970134 
L 55.506061 348.305325 
L 56.235 350.560505 
L 60.52637 352.740525 
L 61.2165 352.888366 
z
M 111.0315 346.026258 
L 115.470171 343.870125 
L 111.0315 342.969827 
L 109.668307 343.870125 
L 111.0315 346.026258 
z
" clip-path="url(#pe2d5822a86)" style="fill: none; stroke: #d62728; stroke-width: 1.4"/>
    <path d="M 46.272 67.89261 
L 47.212482 68.887725 
L 51.2535 72.276448 
L 56.235 73.211155 
L 66.198 73.557041 
L 76.161 73.875873 
L 96.087 73.721177 
L 111.0315 73.17592 
L 128.021837 73.322925 
L 135.939 73.555701 
L 150.8835 73.366622 
L 155.865 73.529209 
L 165.828 73.473217 
L 173.002597 73.322925 
L 185.754 72.923811 
L 195.717 73.203271 
L 200.6985 73.556839 
L 205.68 73.955645 
L 215.643 74.262236 
L 220.6245 74.317587 
L 235.569 73.734363 
L 255.495 74.043039 
L 260.4765 74.404057 
L 265.458 74.526906 
L 285.384 73.817831 
L 290.3655 73.549633 
L 295.347 73.397364 
L 300.3285 73.540629 
L 305.31 73.813254 
L 310.2915 73.963185 
L 320.2545 74.019857 
L 335.199 74.304606 
L 350.1435 74.042848 
L 365.088 73.344176 
L 370.0695 73.508289 
L 376.198473 73.322925 
L 380.0325 73.087128 
L 385.014 72.950928 
L 389.9955 73.063563 
L 404.94 73.799867 
L 414.903 73.419011 
L 424.866 72.996638 
L 429.8475 72.562201 
L 434.829 71.166141 
L 437.447457 68.887725 
L 439.8105 66.060471 
M 439.8105 38.98283 
L 439.057377 37.841325 
L 434.829 33.031083 
L 429.8475 31.02561 
L 424.866 30.442961 
L 414.903 29.612451 
L 389.9955 28.844175 
L 380.0325 28.804379 
L 370.0695 28.970501 
L 360.1065 28.767388 
L 350.1435 29.333985 
L 345.162 29.317251 
L 330.2175 28.802259 
L 305.31 28.215123 
L 275.421 28.907894 
L 270.43836 28.970925 
L 250.5135 28.784669 
L 245.532 28.861074 
L 240.5505 28.7634 
L 235.569 28.535684 
L 230.5875 28.429556 
L 220.6245 28.635627 
L 215.643 28.513881 
L 210.6615 28.547325 
L 200.6985 29.2272 
L 195.717 29.514941 
L 180.7725 29.56071 
L 170.8095 29.627023 
L 160.8465 29.928596 
L 155.865 29.780511 
L 150.8835 29.512374 
L 145.902 29.4283 
L 135.939 29.563958 
L 116.013 29.050942 
L 101.0685 29.692722 
L 96.087 29.693949 
L 91.1055 29.416908 
L 85.985587 28.970925 
L 81.1425 28.712478 
L 76.161 28.776244 
L 66.198 29.237196 
L 56.235 29.384969 
L 51.2535 30.389194 
L 47.857892 33.406125 
L 46.272 35.123284 
L 46.272 35.123284 
" clip-path="url(#pe2d5822a86)" style="fill: none; stroke: #d62728; stroke-width: 1.4"/>
    <path d="M 76.161 64.57873 
L 81.1425 64.565362 
L 84.219316 64.452525 
L 86.124 64.373814 
L 91.1055 64.211436 
L 96.087 64.271814 
L 101.0685 64.393531 
L 106.05 64.434051 
L 111.0315 64.365758 
L 116.013 64.34735 
L 120.108115 64.452525 
L 120.9945 64.472287 
L 125.976 64.583138 
L 130.9575 64.772663 
L 135.939 65.091422 
L 140.9205 65.231905 
L 145.902 65.059804 
L 150.8835 64.857113 
L 155.865 64.69945 
L 160.8465 64.465887 
L 161.194107 64.452525 
L 165.828 64.258279 
L 170.8095 64.208731 
L 175.791 64.238258 
L 180.7725 64.320025 
L 184.643193 64.452525 
L 185.754 64.485997 
L 190.7355 64.53503 
L 195.717 64.457929 
L 200.6985 64.625488 
L 205.68 65.084593 
L 210.6615 65.467396 
L 215.643 65.66627 
L 220.6245 65.686931 
L 225.606 65.437408 
L 230.5875 65.141699 
L 235.569 65.123643 
L 240.5505 65.269633 
L 245.532 65.281144 
L 250.5135 65.192111 
L 255.495 65.239793 
L 260.4765 65.4357 
L 265.458 65.599165 
L 270.4395 65.611945 
L 275.421 65.601096 
L 280.4025 65.603108 
L 285.384 65.457867 
L 290.3655 65.203092 
L 295.347 64.998259 
L 300.3285 64.932767 
L 305.31 65.063043 
L 310.2915 65.225639 
L 315.273 65.235191 
L 320.2545 65.087143 
L 325.236 64.895667 
L 330.2175 64.795819 
L 335.199 64.774122 
L 340.1805 64.743704 
L 345.162 64.68672 
L 350.1435 64.591661 
L 354.645273 64.452525 
L 355.125 64.436111 
L 360.1065 64.440913 
L 360.298957 64.452525 
L 365.088 64.700009 
L 370.0695 64.907639 
L 375.051 64.801791 
L 380.0325 64.524949 
L 382.266012 64.452525 
L 385.014 64.350938 
L 389.9955 64.328546 
L 394.977 64.398434 
L 396.694167 64.452525 
L 399.9585 64.54569 
L 404.94 64.68958 
L 409.9215 64.699929 
L 414.903 64.454574 
L 414.925531 64.452525 
L 419.8845 63.933012 
L 424.866 63.412783 
L 429.8475 62.670574 
L 434.556474 60.017325 
L 434.829 59.749986 
L 436.474778 55.582125 
L 436.810578 51.146925 
L 435.76422 46.711725 
L 434.829 44.95703 
L 431.591131 42.276525 
L 429.8475 41.252135 
L 424.866 40.167756 
L 419.8845 39.795687 
L 414.903 39.749663 
L 409.9215 39.787533 
L 404.94 39.731617 
L 399.9585 39.570746 
L 394.977 39.322389 
L 389.9955 39.174384 
L 385.014 39.262662 
L 380.0325 39.559059 
L 375.051 39.873472 
L 370.0695 39.794685 
L 365.088 39.374855 
L 360.1065 39.080409 
L 355.125 39.072271 
L 350.1435 39.127002 
L 345.162 39.060456 
L 340.1805 39.022885 
L 335.199 38.998092 
L 330.2175 38.779467 
L 325.236 38.529477 
L 320.2545 38.536768 
L 315.273 38.679196 
L 310.2915 38.583973 
L 305.31 38.190762 
L 300.3285 37.987564 
L 295.347 38.2389 
L 290.3655 38.607215 
L 285.384 38.766888 
L 280.4025 38.749809 
L 275.421 38.669099 
L 270.4395 38.666952 
L 265.458 38.751758 
L 260.4765 38.653103 
L 255.495 38.340601 
L 250.5135 38.184345 
L 245.532 38.289485 
L 240.5505 38.329693 
L 235.569 38.150377 
L 230.5875 37.975886 
L 225.606 38.024281 
L 220.6245 38.164086 
L 215.643 38.201737 
L 210.6615 38.337163 
L 205.68 38.759356 
L 200.6985 39.173703 
L 195.717 39.434213 
L 190.7355 39.579277 
L 185.754 39.555177 
L 180.7725 39.474488 
L 175.791 39.556534 
L 170.8095 39.838739 
L 165.828 40.052214 
L 160.8465 40.092286 
L 155.865 40.085031 
L 150.8835 39.942408 
L 145.902 39.701168 
L 140.9205 39.524669 
L 135.939 39.355971 
L 130.9575 39.267487 
L 125.976 39.380519 
L 120.9945 39.543178 
L 116.013 39.565553 
L 111.0315 39.528592 
L 106.05 39.458889 
L 101.0685 39.377485 
L 96.087 39.39843 
L 91.1055 39.365098 
L 86.124 39.154311 
L 81.1425 38.93876 
L 76.161 38.802728 
L 71.1795 38.710744 
L 66.198 38.772249 
L 61.2165 39.036468 
L 56.235 39.533166 
L 51.2535 41.549203 
L 50.683877 42.276525 
L 48.375396 46.711725 
L 47.583255 51.146925 
L 48.1037 55.582125 
L 49.98451 60.017325 
L 51.2535 61.737524 
L 56.235 63.584699 
L 61.2165 63.817958 
L 66.198 64.057366 
L 71.1795 64.385497 
L 72.786316 64.452525 
L 76.161 64.57873 
z
" clip-path="url(#pe2d5822a86)" style="fill: none; stroke: #d62728; stroke-width: 1.4"/>
    <path d="M 270.4395 60.033307 
L 275.421 60.130161 
L 280.4025 60.127317 
L 285.384 60.019393 
L 285.453586 60.017325 
L 290.3655 59.807639 
L 295.347 59.414854 
L 300.3285 58.801863 
L 305.31 58.442814 
L 310.2915 58.587722 
L 315.273 58.759539 
L 320.2545 58.45771 
L 325.236 58.026858 
L 330.2175 57.999867 
L 335.199 58.159858 
L 340.1805 58.120164 
L 345.162 57.900649 
L 350.1435 57.488056 
L 355.125 57.184805 
L 360.1065 57.574104 
L 365.088 58.332541 
L 370.0695 58.781259 
L 375.051 58.685404 
L 380.0325 58.321501 
L 385.014 57.846697 
L 389.9955 57.481368 
L 394.977 57.454975 
L 399.9585 57.469389 
L 404.94 57.247747 
L 409.9215 56.900089 
L 414.903 56.511223 
L 419.8845 56.164965 
L 424.866 55.783674 
L 425.604493 55.582125 
L 429.680383 51.146925 
L 424.866 47.981557 
L 419.8845 46.897841 
L 414.903 46.932189 
L 409.9215 46.887922 
L 408.448764 46.711725 
L 404.94 46.542521 
L 399.9585 46.145512 
L 394.977 45.714799 
L 389.9955 45.535082 
L 385.014 45.71528 
L 380.0325 46.201704 
L 375.108712 46.711725 
L 375.051 46.721844 
L 373.395171 46.711725 
L 370.0695 46.699266 
L 365.088 46.286181 
L 360.1065 46.130364 
L 355.125 46.153451 
L 350.1435 45.856873 
L 345.162 45.495758 
L 340.1805 45.442433 
L 335.199 45.427138 
L 330.2175 45.166271 
L 325.236 44.919135 
L 320.2545 45.075872 
L 315.273 45.501577 
L 310.2915 45.685566 
L 305.31 45.24605 
L 300.3285 44.59957 
L 295.347 44.486633 
L 290.3655 44.76068 
L 285.384 44.935882 
L 280.4025 44.870111 
L 275.421 44.765713 
L 270.4395 44.831253 
L 265.458 44.945544 
L 260.4765 44.813463 
L 255.495 44.296571 
L 250.5135 43.798959 
L 245.532 43.81711 
L 240.5505 43.985571 
L 235.569 43.957306 
L 230.5875 43.968407 
L 225.606 44.230547 
L 220.6245 44.63547 
L 215.643 45.065035 
L 210.6615 45.563567 
L 205.68 45.9867 
L 200.6985 46.089974 
L 195.717 46.164495 
L 190.7355 46.302651 
L 185.754 46.26065 
L 180.7725 46.254672 
L 175.791 46.56729 
L 173.104079 46.711725 
L 170.8095 46.963305 
L 166.428326 46.711725 
L 165.828 46.696336 
L 160.8465 46.623651 
L 159.222368 46.711725 
L 155.865 47.072436 
L 150.8835 47.281363 
L 145.950734 46.711725 
L 145.902 46.708631 
L 140.9205 46.319558 
L 135.939 46.036938 
L 130.9575 45.894893 
L 125.976 45.937856 
L 120.9945 46.098475 
L 116.013 46.261627 
L 111.0315 46.343825 
L 106.05 46.308527 
L 101.0685 46.302026 
L 96.087 46.436062 
L 91.1055 46.549193 
L 86.124 46.42928 
L 81.1425 46.160929 
L 76.161 45.950143 
L 71.1795 45.829285 
L 66.198 45.81948 
L 61.2165 46.005775 
L 56.235 46.711137 
L 56.234045 46.711725 
L 53.535277 51.146925 
L 55.854793 55.582125 
L 56.235 55.831368 
L 61.2165 56.490126 
L 66.198 56.900302 
L 71.1795 57.242578 
L 76.161 57.414955 
L 81.1425 57.306312 
L 86.124 57.05888 
L 91.1055 57.138779 
L 96.087 57.513035 
L 101.0685 57.75868 
L 106.05 57.625221 
L 111.0315 57.24056 
L 116.013 57.33256 
L 120.9945 57.910177 
L 125.976 58.196807 
L 130.9575 58.117924 
L 135.939 58.101961 
L 140.9205 58.113797 
L 145.902 57.90884 
L 150.8835 57.670965 
L 155.865 57.545189 
L 160.8465 57.456219 
L 165.828 57.235046 
L 170.8095 56.992887 
L 175.791 57.192656 
L 180.7725 57.726643 
L 185.754 58.047492 
L 190.7355 57.898125 
L 195.717 57.546572 
L 200.6985 57.553617 
L 205.68 58.156365 
L 210.6615 58.965312 
L 215.643 59.378452 
L 220.6245 59.347543 
L 225.606 59.127609 
L 230.5875 59.065846 
L 235.569 59.392078 
L 240.5505 59.758804 
L 245.532 59.685486 
L 250.5135 59.403533 
L 255.495 59.331456 
L 260.4765 59.484657 
L 265.458 59.76958 
L 269.999039 60.017325 
L 270.4395 60.033307 
z
" clip-path="url(#pe2d5822a86)" style="fill: none; stroke: #d62728; stroke-width: 1.4"/>
    <path d="M 210.6615 55.664113 
L 215.643 56.087522 
L 220.6245 56.04325 
L 225.606 55.956101 
L 230.5875 56.101043 
L 235.569 56.543504 
L 240.5505 56.960192 
L 245.532 56.966023 
L 250.5135 56.741363 
L 255.495 56.62558 
L 260.4765 56.683729 
L 265.458 56.879244 
L 270.4395 57.101995 
L 275.421 57.23446 
L 280.4025 57.265209 
L 285.384 57.232104 
L 290.3655 57.114699 
L 295.347 56.659718 
L 300.3285 55.862194 
L 302.899681 55.582125 
L 305.31 54.430511 
L 310.2915 54.609265 
L 314.073933 55.582125 
L 315.273 55.643003 
L 316.889875 55.582125 
L 320.2545 55.189452 
L 325.236 54.393616 
L 330.2175 54.389535 
L 335.199 54.666105 
L 340.1805 54.246799 
L 345.162 53.225926 
L 350.1435 51.276891 
L 350.619823 51.146925 
L 350.1435 51.06973 
L 345.162 49.876874 
L 340.1805 49.423528 
L 335.199 49.192594 
L 330.2175 48.794025 
L 325.236 48.455227 
L 320.2545 48.766209 
L 315.273 49.473774 
L 310.2915 49.998472 
L 305.31 49.625883 
L 300.3285 48.215073 
L 295.347 47.371947 
L 290.3655 47.471048 
L 285.384 47.682667 
L 280.4025 47.643407 
L 275.421 47.56803 
L 270.4395 47.722066 
L 265.458 47.866167 
L 260.4765 47.650893 
L 255.495 46.722788 
L 255.446998 46.711725 
L 250.5135 46.188792 
L 245.532 46.147016 
L 240.5505 46.335484 
L 235.569 46.430114 
L 230.5875 46.595225 
L 228.790266 46.711725 
L 225.606 47.247062 
L 220.6245 48.080202 
L 215.643 48.81832 
L 210.6615 49.747562 
L 205.68 50.682703 
L 200.6985 51.008541 
L 195.717 50.924428 
L 190.7355 50.749543 
L 185.754 50.550745 
L 180.7725 50.883342 
L 179.464846 51.146925 
L 180.7725 51.869703 
L 185.754 53.144119 
L 190.7355 52.344894 
L 195.717 51.623112 
L 200.6985 51.427141 
L 205.68 52.427194 
L 210.141076 55.582125 
L 210.6615 55.664113 
z
M 370.0695 55.585952 
L 370.598179 55.582125 
L 375.051 55.159811 
L 380.0325 54.384723 
L 385.014 53.453156 
L 389.9955 52.760759 
L 394.977 52.466144 
L 399.9585 51.478316 
L 400.751575 51.146925 
L 399.9585 50.974818 
L 394.977 50.226221 
L 389.9955 49.901023 
L 385.014 49.866377 
L 380.0325 50.251414 
L 375.051 50.759901 
L 370.0695 50.783663 
L 365.088 50.640988 
L 360.593773 51.146925 
L 365.088 53.334655 
L 370.01603 55.582125 
L 370.0695 55.585952 
z
M 71.1795 51.339619 
L 74.252547 51.146925 
L 71.1795 51.017916 
L 67.660609 51.146925 
L 71.1795 51.339619 
z
M 101.0685 51.382338 
L 102.726068 51.146925 
L 101.0685 51.068019 
L 99.331376 51.146925 
L 101.0685 51.382338 
z
M 120.9945 52.856211 
L 125.976 53.706043 
L 130.9575 52.354941 
L 135.221224 51.146925 
L 130.9575 50.687524 
L 125.976 50.263159 
L 120.9945 50.483032 
L 116.834569 51.146925 
L 120.9945 52.856211 
z
" clip-path="url(#pe2d5822a86)" style="fill: none; stroke: #d62728; stroke-width: 1.4"/>
   </g>
   <g id="QuadContourSet_2">
    <path d="M 439.8105 326.175746 
L 439.731152 326.129325 
L 434.829 323.573443 
L 429.8475 323.90029 
L 424.866 325.599244 
L 423.589036 326.129325 
L 419.8845 327.724145 
L 414.903 330.143033 
L 413.963868 330.564525 
L 409.9215 332.549065 
L 404.94 334.196785 
L 401.882745 334.999725 
L 399.9585 335.470061 
L 394.977 337.140516 
L 389.9955 339.387299 
L 389.869274 339.434925 
L 385.014 342.035786 
L 380.0325 342.936987 
L 375.051 343.024224 
L 370.406799 343.870125 
L 370.0695 344.288891 
L 368.664767 348.305325 
L 370.0695 349.594229 
L 375.051 352.325333 
L 378.450678 352.740525 
L 380.0325 352.823816 
L 385.014 353.730272 
L 389.9955 355.726501 
L 393.114931 357.175725 
L 394.977 357.921492 
L 399.9585 360.070735 
L 403.199437 361.610925 
L 404.94 362.376596 
L 409.9215 364.29608 
L 414.903 365.743791 
L 415.855025 366.046125 
L 419.8845 367.561854 
L 424.866 369.665099 
L 426.943563 370.481325 
L 429.8475 371.509412 
L 434.829 372.247498 
L 438.625295 370.481325 
L 439.8105 369.791441 
M 46.272 84.199543 
L 51.2535 86.006376 
L 56.235 86.262003 
L 61.2165 86.397423 
L 66.198 86.558855 
L 71.1795 86.536834 
L 76.161 86.497829 
L 81.1425 86.615331 
L 81.540788 86.628525 
L 86.124 86.868123 
L 91.1055 86.866654 
L 95.027007 86.628525 
L 96.087 86.585204 
L 101.0685 86.408584 
L 106.05 86.408232 
L 111.0315 86.523943 
L 114.719636 86.628525 
L 116.013 86.685754 
L 120.9945 86.854554 
L 125.976 86.914094 
L 130.9575 86.809607 
L 135.894912 86.628525 
L 135.939 86.627498 
L 140.9205 86.584021 
L 145.902 86.532783 
L 150.8835 86.378573 
L 155.865 86.227283 
L 160.8465 86.162351 
L 165.828 86.162368 
L 170.8095 86.239443 
L 175.791 86.43155 
L 180.7725 86.597908 
L 185.754 86.532159 
L 190.7355 86.326546 
L 195.717 86.200601 
L 200.6985 86.222804 
L 205.68 86.505038 
L 206.950521 86.628525 
L 210.6615 87.166181 
L 215.643 87.559822 
L 220.6245 87.380476 
L 225.606 86.890276 
L 228.946713 86.628525 
L 230.5875 86.552213 
L 235.569 86.442443 
L 240.5505 86.462365 
L 244.325258 86.628525 
L 245.532 86.715345 
L 250.5135 87.269326 
L 255.495 87.577403 
L 260.4765 87.480678 
L 265.458 87.243315 
L 270.4395 87.051173 
L 275.421 86.926949 
L 280.4025 86.849447 
L 285.384 86.772966 
L 290.3655 86.834477 
L 295.347 86.927455 
L 300.3285 86.969602 
L 305.31 87.066287 
L 310.2915 86.98023 
L 315.273 86.657777 
L 315.740588 86.628525 
L 320.2545 86.450295 
L 325.236 86.314756 
L 330.2175 86.278612 
L 335.199 86.461493 
L 337.57321 86.628525 
L 340.1805 86.920623 
L 345.162 87.294364 
L 350.1435 87.382181 
L 355.125 87.117646 
L 359.102728 86.628525 
L 360.1065 86.547224 
L 365.088 86.193182 
L 370.0695 85.94081 
L 375.051 85.732549 
L 380.0325 85.789641 
L 385.014 86.13629 
L 389.9955 86.429357 
L 394.977 86.446386 
L 399.9585 86.229734 
L 404.94 85.999694 
L 409.9215 85.835031 
L 414.903 85.654328 
L 419.8845 85.508798 
L 424.866 85.373337 
L 429.8475 85.101437 
L 434.829 84.124827 
L 437.914903 82.193325 
L 439.8105 80.942178 
M 160.8465 358.069542 
L 165.828 358.411125 
L 170.8095 358.001749 
L 175.791 358.210171 
L 180.7725 358.231722 
L 185.754 358.276059 
L 190.7355 357.197655 
L 190.781193 357.175725 
L 195.717 352.814788 
L 195.839889 352.740525 
L 197.963344 348.305325 
L 196.837896 343.870125 
L 195.717 342.382522 
L 193.551148 339.434925 
L 190.7355 337.405397 
L 185.754 336.21296 
L 180.7725 337.647854 
L 175.791 338.921275 
L 173.393988 339.434925 
L 170.8095 340.191233 
L 165.828 340.380568 
L 160.8465 339.518701 
L 155.865 342.455108 
L 154.66811 343.870125 
L 153.986258 348.305325 
L 155.722941 352.740525 
L 155.865 352.933755 
L 159.567521 357.175725 
L 160.8465 358.069542 
z
M 111.0315 352.79147 
L 116.013 353.045686 
L 116.993121 352.740525 
L 120.787993 348.305325 
L 118.264262 343.870125 
L 116.013 342.817775 
L 111.0315 342.756403 
L 107.502164 343.870125 
L 106.05 345.353077 
L 101.0685 348.212896 
L 100.900876 348.305325 
L 101.0685 348.346676 
L 106.05 350.138386 
L 110.801457 352.740525 
L 111.0315 352.79147 
z
M 61.2165 350.097776 
L 62.205875 348.305325 
L 61.2165 346.8923 
L 59.920556 348.305325 
L 61.2165 350.097776 
z
" clip-path="url(#pe2d5822a86)" style="fill: none; stroke: #1f77b4; stroke-width: 1.4"/>
    <path d="M 46.272 68.604781 
L 46.548698 68.887725 
L 51.2535 72.779226 
L 56.235 73.747965 
L 61.2165 73.880322 
L 101.0685 73.774348 
L 120.9945 73.305356 
L 140.9205 73.32531 
L 150.8835 73.869443 
L 155.865 73.956938 
L 175.791 73.335215 
L 185.754 73.540649 
L 195.717 73.406399 
L 202.169536 73.322925 
L 205.68 73.406806 
L 220.6245 74.651708 
L 225.606 74.782813 
L 240.5505 74.324102 
L 250.5135 74.683692 
L 255.495 74.627737 
L 265.458 74.194144 
L 275.421 74.031238 
L 280.4025 74.076546 
L 290.3655 74.32331 
L 320.2545 73.81615 
L 330.2175 73.497087 
L 335.199 73.499976 
L 350.1435 73.974254 
L 375.051 73.077747 
L 381.721947 73.322925 
L 385.014 73.547517 
L 389.9955 73.701972 
L 394.977 73.557413 
L 404.94 73.000217 
L 414.903 72.711381 
L 419.8845 72.308253 
L 424.866 71.640884 
L 429.8475 70.819365 
L 434.889722 68.887725 
L 439.215324 64.452525 
L 439.8105 63.469289 
M 439.8105 39.567354 
L 438.525476 37.841325 
L 434.829 34.241533 
L 429.8475 32.389899 
L 424.866 31.390485 
L 419.8845 30.907641 
L 409.9215 30.589267 
L 399.9585 29.852026 
L 380.0325 29.151062 
L 365.088 29.014915 
L 355.125 28.757746 
L 335.199 29.09341 
L 327.870519 28.970925 
L 320.2545 28.661056 
L 305.31 28.393941 
L 300.3285 28.242016 
L 290.3655 28.205099 
L 285.384 28.043203 
L 280.4025 28.073442 
L 275.421 28.230866 
L 270.4395 28.217274 
L 260.4765 27.653045 
L 255.495 27.709113 
L 245.532 28.194494 
L 240.5505 28.202728 
L 225.606 27.810035 
L 205.68 28.49658 
L 195.717 28.401373 
L 180.7725 29.338314 
L 175.791 29.479428 
L 170.8095 29.478253 
L 160.8465 29.208374 
L 145.902 28.40083 
L 140.9205 28.543135 
L 130.9575 29.034911 
L 116.013 28.971935 
L 106.05 29.428877 
L 101.0685 29.506923 
L 86.124 28.91878 
L 76.161 29.161594 
L 71.1795 29.307099 
L 56.235 29.160502 
L 51.2535 30.307956 
L 47.994063 33.406125 
L 46.272 35.359077 
L 46.272 35.359077 
" clip-path="url(#pe2d5822a86)" style="fill: none; stroke: #1f77b4; stroke-width: 1.4"/>
    <path d="M 56.235 64.701838 
L 61.2165 64.845387 
L 66.198 64.926774 
L 71.1795 65.078911 
L 76.161 65.113769 
L 81.1425 64.859411 
L 86.124 64.457475 
L 86.276995 64.452525 
L 91.1055 64.270495 
L 95.969814 64.452525 
L 96.087 64.456415 
L 101.0685 64.685291 
L 106.05 64.699155 
L 111.0315 64.514027 
L 112.838133 64.452525 
L 116.013 64.330382 
L 120.9945 64.423215 
L 121.585466 64.452525 
L 125.976 64.639106 
L 130.9575 64.671926 
L 135.939 64.60485 
L 140.9205 64.572606 
L 145.902 64.539348 
L 150.8835 64.470252 
L 151.37518 64.452525 
L 155.865 64.255649 
L 160.8465 63.983886 
L 165.828 63.983026 
L 170.8095 64.144931 
L 175.791 64.230246 
L 180.7725 64.235815 
L 185.754 64.161415 
L 190.7355 64.147977 
L 195.717 64.348064 
L 197.110471 64.452525 
L 200.6985 64.673427 
L 205.68 65.093702 
L 210.6615 65.564721 
L 215.643 65.868689 
L 220.6245 65.97098 
L 225.606 65.958948 
L 230.5875 65.882292 
L 235.569 65.854507 
L 240.5505 65.969492 
L 245.532 66.179282 
L 250.5135 66.279769 
L 255.495 66.16251 
L 260.4765 65.88534 
L 265.458 65.599659 
L 270.4395 65.362052 
L 275.421 65.191676 
L 280.4025 65.142097 
L 285.384 65.254216 
L 290.3655 65.379943 
L 295.347 65.447695 
L 300.3285 65.523481 
L 305.31 65.531459 
L 310.2915 65.489976 
L 315.273 65.486041 
L 320.2545 65.369424 
L 325.236 65.063518 
L 330.2175 64.739685 
L 335.199 64.560676 
L 340.1805 64.563959 
L 345.162 64.665425 
L 350.1435 64.697035 
L 355.125 64.601408 
L 360.1065 64.510602 
L 365.088 64.469626 
L 366.833652 64.452525 
L 370.0695 64.414227 
L 375.051 64.348745 
L 380.0325 64.370037 
L 385.014 64.370769 
L 389.9955 64.035216 
L 394.977 63.567314 
L 399.9585 63.38495 
L 404.94 63.398062 
L 409.9215 63.221334 
L 414.903 62.68367 
L 419.8845 61.940748 
L 424.866 61.100705 
L 429.165394 60.017325 
L 429.8475 59.733503 
L 433.75199 55.582125 
L 434.721875 51.146925 
L 432.827128 46.711725 
L 429.8475 44.261541 
L 424.866 42.613877 
L 422.991699 42.276525 
L 419.8845 41.864766 
L 414.903 41.322968 
L 409.9215 40.792964 
L 404.94 40.36453 
L 399.9585 40.07292 
L 394.977 39.845129 
L 389.9955 39.497314 
L 385.014 38.948525 
L 380.0325 38.579165 
L 375.051 38.669271 
L 370.0695 38.862097 
L 365.088 38.895587 
L 360.1065 38.945219 
L 355.125 39.091533 
L 350.1435 39.16699 
L 345.162 39.12035 
L 340.1805 38.981162 
L 335.199 38.736352 
L 330.2175 38.489008 
L 325.236 38.353366 
L 320.2545 38.429567 
L 315.273 38.627996 
L 310.2915 38.661578 
L 305.31 38.393938 
L 300.3285 38.033889 
L 295.347 37.968319 
L 290.3655 38.068131 
L 285.384 37.98499 
L 281.32301 37.841325 
L 280.4025 37.808359 
L 275.421 37.748976 
L 270.4395 37.745511 
L 265.458 37.700831 
L 260.4765 37.707301 
L 256.917291 37.841325 
L 255.495 37.896713 
L 250.5135 38.023423 
L 245.532 37.870655 
L 244.887508 37.841325 
L 240.5505 37.649045 
L 235.569 37.582912 
L 230.5875 37.620688 
L 225.606 37.677394 
L 220.6245 37.729181 
L 216.214141 37.841325 
L 215.643 37.856555 
L 210.6615 38.193542 
L 205.68 38.667347 
L 200.6985 39.102973 
L 195.717 39.534237 
L 190.7355 39.836456 
L 185.754 39.634621 
L 180.7725 39.237794 
L 175.791 39.254605 
L 170.8095 39.39193 
L 165.828 39.478105 
L 160.8465 39.533381 
L 155.865 39.267356 
L 150.8835 38.909879 
L 145.902 38.79966 
L 140.9205 38.844214 
L 135.939 39.018443 
L 130.9575 39.295385 
L 125.976 39.396247 
L 120.9945 39.332048 
L 116.013 39.342859 
L 111.0315 39.350964 
L 106.05 39.271167 
L 101.0685 39.244261 
L 96.087 39.256897 
L 91.1055 39.019898 
L 86.124 38.584947 
L 81.1425 38.327579 
L 76.161 38.405027 
L 71.1795 38.690545 
L 66.198 39.00296 
L 61.2165 39.158424 
L 56.235 39.485208 
L 51.2535 41.685384 
L 50.799453 42.276525 
L 48.491145 46.711725 
L 47.386724 51.146925 
L 47.441306 55.582125 
L 49.03871 60.017325 
L 51.2535 62.926228 
L 55.419331 64.452525 
L 56.235 64.701838 
z
" clip-path="url(#pe2d5822a86)" style="fill: none; stroke: #1f77b4; stroke-width: 1.4"/>
    <path d="M 210.6615 60.30108 
L 215.643 60.6447 
L 220.6245 60.613902 
L 225.606 60.420545 
L 230.5875 60.38141 
L 235.569 60.582749 
L 240.5505 60.779673 
L 245.532 60.854411 
L 250.5135 60.81189 
L 255.495 60.632157 
L 260.4765 60.422562 
L 265.458 60.336353 
L 270.4395 60.243086 
L 275.421 60.037946 
L 275.909009 60.017325 
L 280.4025 59.753075 
L 285.384 59.667313 
L 290.3655 59.624455 
L 295.347 59.562888 
L 300.3285 59.654805 
L 305.31 59.684002 
L 310.2915 59.579531 
L 315.273 59.612712 
L 320.2545 59.596511 
L 325.236 59.217449 
L 330.2175 58.676218 
L 335.199 58.359222 
L 340.1805 58.319605 
L 345.162 58.239539 
L 350.1435 58.053951 
L 355.125 57.987833 
L 360.1065 57.982373 
L 365.088 57.683699 
L 370.0695 57.31201 
L 375.051 57.354328 
L 380.0325 57.558219 
L 385.014 57.529537 
L 389.9955 57.167869 
L 394.977 56.675519 
L 399.9585 56.306844 
L 404.94 56.102413 
L 409.9215 55.772065 
L 411.376022 55.582125 
L 414.903 53.879163 
L 417.812466 51.146925 
L 414.903 49.915133 
L 409.9215 48.567647 
L 404.94 47.665801 
L 399.9585 46.74078 
L 399.800503 46.711725 
L 394.977 46.325717 
L 389.9955 46.014801 
L 385.014 45.496646 
L 380.0325 44.948352 
L 375.051 44.982199 
L 370.0695 45.311542 
L 365.088 45.472907 
L 360.1065 45.550681 
L 355.125 45.619763 
L 350.1435 45.604933 
L 345.162 45.575991 
L 340.1805 45.575436 
L 335.199 45.349425 
L 330.2175 44.847604 
L 325.236 44.452044 
L 320.2545 44.419031 
L 315.273 44.567081 
L 310.2915 44.681948 
L 305.31 44.631993 
L 300.3285 44.25796 
L 295.347 43.833431 
L 290.3655 43.589918 
L 285.384 43.278069 
L 280.4025 42.873329 
L 275.421 42.637359 
L 270.4395 42.595565 
L 265.458 42.789874 
L 260.4765 43.324818 
L 255.495 43.78211 
L 250.5135 43.636754 
L 245.532 43.097466 
L 240.5505 42.553963 
L 235.569 42.354647 
L 230.5875 42.570179 
L 225.606 42.915064 
L 220.6245 43.172251 
L 215.643 43.641561 
L 210.6615 44.597391 
L 205.68 45.679564 
L 200.6985 46.333995 
L 195.886454 46.711725 
L 195.717 46.736355 
L 190.7355 47.66772 
L 185.754 48.293428 
L 180.7725 47.812827 
L 175.791 46.800597 
L 175.361004 46.711725 
L 170.8095 46.307487 
L 165.828 46.271047 
L 160.8465 46.5544 
L 155.865 46.297207 
L 150.8835 45.698378 
L 145.902 45.532561 
L 140.9205 45.718858 
L 135.939 45.878067 
L 130.9575 45.961883 
L 125.976 46.048666 
L 120.9945 46.159809 
L 116.013 46.257225 
L 111.0315 46.074487 
L 106.05 45.644082 
L 101.0685 45.567763 
L 96.087 45.898407 
L 91.1055 45.723955 
L 86.124 45.018793 
L 81.1425 44.647683 
L 76.161 44.745573 
L 71.1795 45.082548 
L 66.198 45.828501 
L 61.2165 46.710102 
L 61.203063 46.711725 
L 56.235 47.947133 
L 53.419574 51.146925 
L 54.010319 55.582125 
L 56.235 56.96146 
L 61.2165 56.981648 
L 66.198 57.668751 
L 71.1795 58.299178 
L 76.161 58.468141 
L 81.1425 58.365705 
L 86.124 57.877676 
L 91.1055 57.124238 
L 96.087 56.850114 
L 101.0685 57.382434 
L 106.05 57.861706 
L 111.0315 57.819215 
L 116.013 57.748401 
L 120.9945 58.085904 
L 125.976 58.559453 
L 130.9575 58.547054 
L 135.939 58.174537 
L 140.9205 57.901481 
L 145.902 57.694249 
L 150.8835 57.315929 
L 155.865 56.663369 
L 160.8465 56.442252 
L 165.828 56.939367 
L 170.8095 57.241474 
L 175.791 56.969549 
L 180.7725 56.504993 
L 185.754 56.358264 
L 190.7355 56.802634 
L 195.717 57.451032 
L 200.6985 58.144723 
L 205.68 59.257045 
L 208.539383 60.017325 
L 210.6615 60.30108 
z
" clip-path="url(#pe2d5822a86)" style="fill: none; stroke: #1f77b4; stroke-width: 1.4"/>
    <path d="M 210.6615 56.213651 
L 215.643 57.236983 
L 220.6245 57.458051 
L 225.606 57.294162 
L 230.5875 57.342221 
L 235.569 57.708031 
L 240.5505 57.965513 
L 245.532 57.936034 
L 250.5135 57.667702 
L 255.495 57.159911 
L 260.4765 56.841063 
L 265.458 57.025813 
L 270.4395 57.185625 
L 275.421 57.042029 
L 280.4025 56.793272 
L 285.384 56.680989 
L 290.3655 56.551219 
L 295.347 56.272788 
L 300.3285 56.047785 
L 305.31 55.856887 
L 310.2915 55.703863 
L 315.273 55.762471 
L 320.2545 55.862873 
L 325.236 55.648524 
L 325.923352 55.582125 
L 330.2175 54.061621 
L 335.199 52.637355 
L 340.1805 52.282156 
L 345.162 52.093039 
L 350.1435 51.519673 
L 355.125 51.22906 
L 356.81047 51.146925 
L 355.125 51.10514 
L 350.1435 50.95593 
L 345.162 50.716203 
L 340.1805 50.679898 
L 335.199 50.461093 
L 330.2175 49.595336 
L 325.236 48.747107 
L 320.2545 48.542229 
L 315.273 48.645316 
L 310.2915 48.822872 
L 305.31 48.765895 
L 300.3285 47.949982 
L 295.731704 46.711725 
L 295.347 46.666849 
L 290.3655 46.244798 
L 285.384 45.896433 
L 280.4025 45.526942 
L 275.421 45.32486 
L 270.4395 45.33815 
L 265.458 45.668466 
L 260.4765 46.340786 
L 255.495 46.700042 
L 250.5135 46.332277 
L 245.532 45.699853 
L 240.5505 45.169173 
L 235.569 45.000153 
L 230.5875 45.274825 
L 225.606 45.688979 
L 220.6245 46.045034 
L 215.711801 46.711725 
L 215.643 46.733768 
L 210.6615 49.344245 
L 207.027583 51.146925 
L 208.426324 55.582125 
L 210.6615 56.213651 
z
M 71.1795 51.322191 
L 76.161 51.872167 
L 81.1425 52.370608 
L 86.124 51.502556 
L 86.795557 51.146925 
L 86.124 50.881057 
L 81.1425 50.258185 
L 76.161 50.648407 
L 71.1795 51.038766 
L 70.88118 51.146925 
L 71.1795 51.322191 
z
" clip-path="url(#pe2d5822a86)" style="fill: none; stroke: #1f77b4; stroke-width: 1.4"/>
   </g>
   <g id="QuadContourSet_3">
    <path d="M 439.8105 328.300349 
L 435.645852 326.129325 
L 434.829 325.734881 
L 429.8475 325.90126 
L 429.21651 326.129325 
L 424.866 327.799665 
L 420.732608 330.564525 
L 419.8845 331.156827 
L 414.903 333.655766 
L 410.546827 334.999725 
L 409.9215 335.248272 
L 404.94 336.874518 
L 399.9585 338.379978 
L 396.861726 339.434925 
L 394.977 340.28799 
L 389.9955 343.320314 
L 388.535207 343.870125 
L 385.014 347.780533 
L 380.0325 344.574555 
L 378.70867 343.870125 
L 375.051 342.897483 
L 370.0695 343.537412 
L 369.362945 343.870125 
L 365.787027 348.305325 
L 368.300324 352.740525 
L 370.0695 353.609239 
L 375.051 354.38438 
L 380.0325 353.480942 
L 382.24843 352.740525 
L 385.014 348.984399 
L 388.209523 352.740525 
L 389.9955 353.323117 
L 394.977 357.063736 
L 395.194563 357.175725 
L 399.9585 358.745919 
L 404.94 360.061757 
L 409.9215 361.403187 
L 410.613787 361.610925 
L 414.903 362.793354 
L 419.8845 364.370677 
L 424.807733 366.046125 
L 424.866 366.069837 
L 429.8475 368.277728 
L 434.829 369.256248 
L 439.8105 366.91118 
M 46.272 85.20702 
L 49.647446 86.628525 
L 51.2535 87.403543 
L 56.235 88.186957 
L 61.2165 88.321756 
L 66.198 88.256312 
L 71.1795 88.326696 
L 76.161 88.576724 
L 81.1425 88.694381 
L 86.124 88.580275 
L 91.1055 88.391305 
L 96.087 88.207579 
L 101.0685 87.955642 
L 106.05 87.670726 
L 111.0315 87.572594 
L 116.013 87.82805 
L 120.9945 88.221592 
L 125.976 88.536986 
L 130.9575 88.846748 
L 135.939 88.930604 
L 140.9205 88.437128 
L 145.902 87.581755 
L 150.8835 87.116187 
L 155.865 87.22602 
L 160.8465 87.571953 
L 165.828 87.999166 
L 170.8095 88.291568 
L 175.791 88.311145 
L 180.7725 88.25795 
L 185.754 88.32097 
L 190.7355 88.386342 
L 195.717 88.312075 
L 200.6985 88.235592 
L 205.68 88.328113 
L 210.6615 88.472396 
L 215.643 88.469318 
L 220.6245 88.296688 
L 225.606 88.232272 
L 230.5875 88.453382 
L 235.569 88.863977 
L 240.5505 89.248219 
L 245.532 89.273606 
L 250.5135 89.037951 
L 255.495 88.86531 
L 260.4765 88.694658 
L 265.458 88.590423 
L 270.4395 88.633035 
L 275.421 88.643769 
L 280.4025 88.636668 
L 285.384 88.762074 
L 290.3655 88.823155 
L 295.347 88.677602 
L 300.3285 88.432653 
L 305.31 88.236854 
L 310.2915 88.213032 
L 315.273 88.213516 
L 320.2545 88.031558 
L 325.236 87.858187 
L 330.2175 87.888752 
L 335.199 87.955101 
L 340.1805 87.880358 
L 345.162 87.762713 
L 350.1435 87.732452 
L 355.125 87.811211 
L 360.1065 87.897841 
L 365.088 87.929151 
L 370.0695 88.13668 
L 375.051 88.545783 
L 380.0325 88.808536 
L 385.014 88.765734 
L 389.9955 88.551359 
L 394.977 88.351721 
L 399.9585 88.298525 
L 404.94 88.196387 
L 409.9215 87.933638 
L 414.903 87.685797 
L 419.8845 87.257201 
L 424.866 86.74887 
L 427.668928 86.628525 
L 429.8475 86.572873 
L 434.829 86.178857 
L 439.8105 84.104087 
M 150.8835 357.843451 
L 155.865 357.345624 
L 157.562336 357.175725 
L 160.8465 356.800298 
L 165.828 355.698072 
L 170.8095 355.084108 
L 175.791 353.592805 
L 176.480433 352.740525 
L 177.294282 348.305325 
L 175.791 344.186907 
L 175.256095 343.870125 
L 170.8095 342.565993 
L 165.832236 339.434925 
L 165.828 339.433568 
L 160.8465 337.852359 
L 155.865 338.373501 
L 151.906106 339.434925 
L 150.8835 339.827775 
L 145.902 342.527017 
L 144.478751 343.870125 
L 142.022602 348.305325 
L 142.298209 352.740525 
L 145.902 356.760405 
L 147.369104 357.175725 
L 150.8835 357.843451 
z
M 96.087 352.996278 
L 101.0685 354.222499 
L 106.05 353.034368 
L 106.348889 352.740525 
L 107.581645 348.305325 
L 106.05 343.904435 
L 106.013467 343.870125 
L 101.0685 342.577686 
L 96.087 342.656795 
L 91.1055 341.832483 
L 88.110543 343.870125 
L 87.964329 348.305325 
L 91.1055 351.983607 
L 94.256417 352.740525 
L 96.087 352.996278 
z
" clip-path="url(#pe2d5822a86)" style="fill: none; stroke: #2ca02c; stroke-width: 1.4"/>
    <path d="M 46.272 68.742423 
L 46.424845 68.887725 
L 51.2535 72.549759 
L 56.235 73.598404 
L 61.2165 73.948962 
L 66.198 74.180055 
L 71.1795 74.195095 
L 76.161 73.899667 
L 83.451814 73.322925 
L 86.124 73.183709 
L 92.744228 73.322925 
L 96.087 73.585792 
L 101.0685 73.836559 
L 116.013 73.680638 
L 120.9945 73.836614 
L 140.9205 73.776609 
L 150.8835 73.646312 
L 160.8465 73.89051 
L 165.828 74.125993 
L 170.8095 74.192614 
L 180.7725 73.921815 
L 195.717 74.359841 
L 205.68 74.301152 
L 220.6245 74.509552 
L 225.606 74.408329 
L 230.5875 74.430534 
L 240.5505 74.835366 
L 245.532 74.743991 
L 255.495 74.400534 
L 270.4395 74.016399 
L 285.384 74.457773 
L 290.3655 74.352631 
L 300.3285 73.795904 
L 305.31 73.845468 
L 315.273 74.110116 
L 325.236 74.21521 
L 330.2175 74.145453 
L 345.162 73.573015 
L 350.1435 73.716105 
L 355.125 74.045796 
L 360.1065 74.170907 
L 370.0695 73.731623 
L 380.0325 73.320096 
L 389.9955 73.23354 
L 399.9585 73.298184 
L 409.9215 73.144648 
L 419.8845 73.173644 
L 424.866 72.978237 
L 429.8475 72.460917 
L 434.829 70.831181 
L 436.875004 68.887725 
L 439.8105 65.137458 
M 439.8105 37.788777 
L 435.924795 33.406125 
L 434.829 32.408172 
L 429.8475 30.892702 
L 424.866 30.384346 
L 414.903 29.686557 
L 404.94 29.237169 
L 399.9585 29.113367 
L 389.9955 29.211574 
L 382.662718 28.970925 
L 375.051 28.673416 
L 358.790727 28.970925 
L 355.125 28.807339 
L 350.1435 28.400862 
L 345.162 28.117569 
L 335.199 27.9811 
L 330.2175 28.034184 
L 325.236 28.204389 
L 315.273 28.881805 
L 310.2915 28.835112 
L 300.3285 28.03819 
L 285.384 27.979158 
L 280.4025 27.893474 
L 260.4765 28.199179 
L 255.495 28.112699 
L 245.532 27.780412 
L 240.5505 27.827709 
L 230.5875 28.23875 
L 225.606 28.226801 
L 215.643 27.953052 
L 195.717 27.771283 
L 190.7355 28.024971 
L 175.791 29.401814 
L 170.8095 29.635119 
L 165.828 29.564535 
L 155.865 29.234916 
L 145.902 29.202305 
L 140.527454 28.970925 
L 135.939 28.65909 
L 130.9575 28.641043 
L 120.9945 29.330387 
L 116.013 29.372252 
L 103.627935 28.970925 
L 96.087 28.990166 
L 91.1055 29.106034 
L 86.124 29.105536 
L 76.161 28.674305 
L 71.1795 28.715817 
L 61.2165 29.068544 
L 56.235 29.162695 
L 51.2535 30.123528 
L 46.272 34.771958 
L 46.272 34.771958 
" clip-path="url(#pe2d5822a86)" style="fill: none; stroke: #2ca02c; stroke-width: 1.4"/>
    <path d="M 66.198 64.813305 
L 71.1795 64.889954 
L 76.161 64.643563 
L 79.369632 64.452525 
L 81.1425 64.335538 
L 86.124 64.01618 
L 91.1055 63.922558 
L 96.087 64.219053 
L 99.82698 64.452525 
L 101.0685 64.520051 
L 106.05 64.653685 
L 111.0315 64.828117 
L 116.013 65.026334 
L 120.9945 65.07305 
L 125.976 64.972209 
L 130.9575 64.907653 
L 135.939 64.877068 
L 140.9205 64.718985 
L 145.57155 64.452525 
L 145.902 64.429748 
L 150.8835 64.184491 
L 155.865 64.121115 
L 160.8465 64.318023 
L 162.401008 64.452525 
L 165.828 64.71875 
L 170.8095 64.887374 
L 175.791 64.722958 
L 180.7725 64.632331 
L 185.754 64.886488 
L 190.7355 65.157101 
L 195.717 65.214936 
L 200.6985 65.268087 
L 205.68 65.351582 
L 210.6615 65.451687 
L 215.643 65.582643 
L 220.6245 65.630694 
L 225.606 65.630989 
L 230.5875 65.676157 
L 235.569 65.747199 
L 240.5505 65.829362 
L 245.532 65.810915 
L 250.5135 65.62223 
L 255.495 65.385029 
L 260.4765 65.190937 
L 265.458 65.114757 
L 270.4395 65.268441 
L 275.421 65.505891 
L 280.4025 65.579242 
L 285.384 65.436942 
L 290.3655 65.179021 
L 295.347 64.958294 
L 300.3285 65.040526 
L 305.31 65.448121 
L 310.2915 65.758656 
L 315.273 65.665585 
L 320.2545 65.347202 
L 325.236 65.099862 
L 330.2175 64.94406 
L 335.199 64.793649 
L 340.1805 64.72692 
L 345.162 64.885636 
L 350.1435 65.090081 
L 355.125 65.041982 
L 360.1065 64.796889 
L 365.088 64.627464 
L 369.88308 64.452525 
L 370.0695 64.445087 
L 375.051 64.187873 
L 380.0325 64.157909 
L 385.014 64.339447 
L 389.9955 64.371451 
L 394.977 64.221554 
L 399.9585 64.055591 
L 404.94 63.849773 
L 409.9215 63.614829 
L 414.903 63.37258 
L 419.8845 63.055829 
L 424.866 62.525933 
L 429.8475 61.430341 
L 432.126282 60.017325 
L 434.829 57.399451 
L 435.599703 55.582125 
L 436.173463 51.146925 
L 435.279972 46.711725 
L 434.829 45.822725 
L 430.186034 42.276525 
L 429.8475 42.100294 
L 424.866 41.103222 
L 419.8845 40.406657 
L 414.903 40.018683 
L 409.9215 40.055408 
L 404.94 40.124386 
L 399.9585 39.87131 
L 394.977 39.513883 
L 389.9955 39.399702 
L 385.014 39.412258 
L 380.0325 39.407848 
L 375.051 39.410841 
L 370.0695 39.315468 
L 365.088 39.182091 
L 360.1065 39.165115 
L 355.125 39.233019 
L 350.1435 39.136519 
L 345.162 38.795821 
L 340.1805 38.559834 
L 335.199 38.464 
L 330.2175 38.272216 
L 325.236 38.108303 
L 320.2545 38.306809 
L 315.273 38.711333 
L 310.2915 38.781176 
L 305.31 38.433245 
L 300.3285 38.127303 
L 295.347 38.059275 
L 290.3655 38.016768 
L 285.384 37.979413 
L 280.4025 38.084419 
L 275.421 38.143796 
L 270.4395 38.020293 
L 265.458 37.874137 
L 263.446628 37.841325 
L 260.4765 37.794318 
L 256.40726 37.841325 
L 255.495 37.852258 
L 250.5135 38.172816 
L 245.532 38.596248 
L 240.5505 38.719032 
L 235.569 38.417939 
L 230.5875 37.960059 
L 228.833249 37.841325 
L 225.606 37.638083 
L 220.6245 37.51257 
L 215.643 37.460266 
L 210.6615 37.447071 
L 205.68 37.467784 
L 200.6985 37.446831 
L 195.717 37.47856 
L 190.7355 37.768114 
L 190.033442 37.841325 
L 185.754 38.322982 
L 180.7725 38.943564 
L 175.791 39.524226 
L 170.8095 39.951328 
L 165.828 40.082622 
L 160.8465 39.917222 
L 155.865 39.65217 
L 150.8835 39.529856 
L 145.902 39.39909 
L 140.9205 39.174157 
L 135.939 39.027149 
L 130.9575 38.959686 
L 125.976 38.951586 
L 120.9945 38.986525 
L 116.013 39.021297 
L 111.0315 39.183512 
L 106.05 39.441408 
L 101.0685 39.383717 
L 96.087 38.986015 
L 91.1055 38.704412 
L 86.124 38.664549 
L 81.1425 38.619012 
L 76.161 38.576082 
L 71.1795 38.816547 
L 66.198 39.174846 
L 61.2165 39.276326 
L 56.235 39.461192 
L 51.2535 41.308683 
L 50.486325 42.276525 
L 48.302446 46.711725 
L 47.370921 51.146925 
L 47.581223 55.582125 
L 49.328994 60.017325 
L 51.2535 62.505685 
L 56.235 64.073199 
L 61.2165 64.440249 
L 61.355705 64.452525 
L 66.198 64.813305 
z
" clip-path="url(#pe2d5822a86)" style="fill: none; stroke: #2ca02c; stroke-width: 1.4"/>
    <path d="M 215.643 60.041896 
L 220.6245 60.125505 
L 225.606 60.307903 
L 230.5875 60.47396 
L 235.569 60.476356 
L 240.5505 60.38202 
L 245.532 60.21194 
L 249.198977 60.017325 
L 250.5135 59.91475 
L 255.495 59.614413 
L 260.4765 59.563426 
L 265.458 59.722252 
L 270.4395 60.015172 
L 270.494622 60.017325 
L 275.421 60.152739 
L 280.4025 60.063282 
L 281.241445 60.017325 
L 285.384 59.62475 
L 290.3655 59.161529 
L 295.347 58.941438 
L 300.3285 59.040408 
L 305.31 59.541389 
L 310.2915 59.975593 
L 315.273 59.700485 
L 320.2545 59.089674 
L 325.236 58.336477 
L 330.2175 57.544351 
L 335.199 57.135422 
L 340.1805 57.491211 
L 345.162 58.446233 
L 350.1435 59.060037 
L 355.125 58.694787 
L 360.1065 58.087031 
L 365.088 57.839802 
L 370.0695 57.713232 
L 375.051 57.579309 
L 380.0325 57.77399 
L 385.014 58.167233 
L 389.9955 58.036079 
L 394.977 57.416724 
L 399.9585 57.090776 
L 404.94 57.043292 
L 409.9215 56.670178 
L 414.903 55.923631 
L 416.814043 55.582125 
L 419.8845 53.311726 
L 422.453798 51.146925 
L 419.8845 50.105196 
L 414.903 48.642639 
L 409.9215 47.561608 
L 404.94 46.763726 
L 404.66159 46.711725 
L 399.9585 46.298661 
L 394.977 45.759993 
L 389.9955 45.573989 
L 385.014 45.838493 
L 380.0325 46.317864 
L 375.051 46.626469 
L 370.0695 46.285781 
L 365.088 45.634702 
L 360.1065 45.302003 
L 355.125 45.470101 
L 350.1435 45.774431 
L 345.162 45.771639 
L 340.1805 45.656759 
L 335.199 45.714125 
L 330.2175 45.684288 
L 325.236 45.446801 
L 320.2545 45.26169 
L 315.273 45.257616 
L 310.2915 45.170013 
L 305.31 44.725029 
L 300.3285 44.185944 
L 295.347 44.076642 
L 290.3655 44.328932 
L 285.384 44.519966 
L 280.4025 44.39878 
L 275.421 44.062595 
L 270.4395 43.689405 
L 265.458 43.407567 
L 260.4765 43.297319 
L 255.495 43.473958 
L 250.5135 43.945229 
L 245.532 44.425481 
L 240.5505 44.549263 
L 235.569 44.199683 
L 230.5875 43.632754 
L 225.606 43.257366 
L 220.6245 43.173966 
L 215.643 43.076365 
L 210.6615 42.942021 
L 205.68 42.862812 
L 200.6985 42.736973 
L 195.717 42.875705 
L 190.7355 43.726601 
L 185.754 44.867405 
L 180.7725 45.573677 
L 175.791 46.120684 
L 170.8095 46.593447 
L 166.61599 46.711725 
L 165.828 46.754193 
L 165.257366 46.711725 
L 160.8465 46.541574 
L 155.865 46.178949 
L 150.8835 46.00138 
L 145.902 45.937446 
L 140.9205 45.866793 
L 135.939 45.96988 
L 130.9575 45.919103 
L 125.976 45.610041 
L 120.9945 45.352987 
L 116.013 45.301731 
L 111.0315 45.690936 
L 106.05 46.298015 
L 101.0685 46.318243 
L 96.087 45.701814 
L 91.1055 45.232462 
L 86.124 45.042046 
L 81.1425 44.8171 
L 76.161 44.842377 
L 71.1795 45.269703 
L 66.198 45.5751 
L 61.2165 45.603293 
L 56.235 46.083013 
L 55.233372 46.711725 
L 52.334439 51.146925 
L 54.089928 55.582125 
L 56.235 56.838486 
L 61.2165 57.31257 
L 66.198 57.857919 
L 71.1795 58.315346 
L 76.161 58.322262 
L 81.1425 57.996297 
L 86.124 57.4878 
L 91.1055 57.19319 
L 96.087 57.320588 
L 101.0685 57.556717 
L 106.05 57.93193 
L 111.0315 58.528652 
L 116.013 58.795564 
L 120.9945 58.492078 
L 125.976 58.115431 
L 130.9575 57.947993 
L 135.939 57.791127 
L 140.9205 57.48034 
L 145.902 57.237679 
L 150.8835 57.217298 
L 155.865 57.188085 
L 160.8465 57.300891 
L 165.828 57.609904 
L 170.8095 57.584242 
L 175.791 57.356687 
L 180.7725 57.524235 
L 185.754 58.16209 
L 190.7355 58.86077 
L 195.717 59.320939 
L 200.6985 59.702956 
L 205.68 59.940742 
L 210.6615 60.008895 
L 211.641139 60.017325 
L 215.643 60.041896 
z
" clip-path="url(#pe2d5822a86)" style="fill: none; stroke: #2ca02c; stroke-width: 1.4"/>
    <path d="M 195.717 56.188582 
L 200.6985 56.732542 
L 205.68 56.925854 
L 210.6615 56.867771 
L 215.643 56.809 
L 220.6245 57.004142 
L 225.606 57.379485 
L 230.5875 57.62166 
L 235.569 57.521653 
L 240.5505 57.216389 
L 245.532 56.871854 
L 250.5135 56.547683 
L 255.495 56.349793 
L 260.4765 56.453677 
L 265.458 56.750828 
L 270.4395 56.938579 
L 275.421 56.796045 
L 280.4025 56.272802 
L 285.384 55.740289 
L 290.353552 55.582125 
L 290.3655 55.580781 
L 290.417194 55.582125 
L 295.347 55.613196 
L 297.735702 55.582125 
L 300.3285 55.469884 
L 305.31 54.897695 
L 310.2915 54.220011 
L 315.273 53.617251 
L 320.2545 51.934396 
L 321.483428 51.146925 
L 320.2545 50.915874 
L 315.273 50.476105 
L 310.2915 50.273433 
L 305.31 49.460081 
L 300.3285 48.05006 
L 295.347 47.722026 
L 290.3655 48.68012 
L 285.384 49.243316 
L 280.4025 48.490817 
L 275.421 47.138739 
L 273.577718 46.711725 
L 270.4395 46.393038 
L 265.458 46.129599 
L 260.4765 46.13541 
L 255.495 46.33377 
L 250.5135 46.654779 
L 249.674116 46.711725 
L 245.532 47.264687 
L 240.5505 47.367953 
L 235.569 46.837319 
L 234.735874 46.711725 
L 230.5875 46.358174 
L 225.606 46.126599 
L 220.6245 46.113541 
L 215.643 46.016104 
L 210.6615 45.85753 
L 205.68 45.759254 
L 200.6985 45.638992 
L 195.717 45.888817 
L 191.884981 46.711725 
L 190.7355 47.551274 
L 185.754 51.100115 
L 185.591291 51.146925 
L 185.754 51.209464 
L 190.7355 54.745043 
L 192.21286 55.582125 
L 195.717 56.188582 
z
M 66.198 51.432908 
L 71.1795 52.637771 
L 76.161 53.754847 
L 81.1425 53.380591 
L 86.124 51.985822 
L 90.371709 51.146925 
L 86.124 50.402428 
L 81.1425 49.368289 
L 76.161 49.354625 
L 71.1795 50.303189 
L 66.198 50.96717 
L 63.346258 51.146925 
L 66.198 51.432908 
z
M 111.0315 51.290097 
L 116.013 52.960102 
L 120.9945 52.037105 
L 123.817697 51.146925 
L 120.9945 50.688709 
L 116.013 50.405199 
L 111.0315 51.098998 
L 110.812067 51.146925 
L 111.0315 51.290097 
z
M 350.1435 53.251693 
L 355.125 53.496146 
L 360.1065 52.74506 
L 365.088 51.591327 
L 366.160383 51.146925 
L 365.088 50.888593 
L 360.1065 50.098985 
L 355.125 50.161816 
L 350.1435 50.691819 
L 346.937361 51.146925 
L 350.1435 53.251693 
z
M 385.014 51.893351 
L 389.9955 52.342857 
L 393.487615 51.146925 
L 389.9955 50.511968 
L 385.014 50.860619 
L 383.74099 51.146925 
L 385.014 51.893351 
z
" clip-path="url(#pe2d5822a86)" style="fill: none; stroke: #2ca02c; stroke-width: 1.4"/>
   </g>
   <g id="patch_3">
    <path d="M 43.78125 377.134125 
L 43.78125 22.318125 
" style="fill: none; stroke: #000000; stroke-width: 0.8; stroke-linejoin: miter; stroke-linecap: square"/>
   </g>
   <g id="patch_4">
    <path d="M 442.30125 377.134125 
L 442.30125 22.318125 
" style="fill: none; stroke: #000000; stroke-width: 0.8; stroke-linejoin: miter; stroke-linecap: square"/>
   </g>
   <g id="patch_5">
    <path d="M 43.78125 377.134125 
L 442.30125 377.134125 
" style="fill: none; stroke: #000000; stroke-width: 0.8; stroke-linejoin: miter; stroke-linecap: square"/>
   </g>
   <g id="patch_6">
    <path d="M 43.78125 22.318125 
L 442.30125 22.318125 
" style="fill: none; stroke: #000000; stroke-width: 0.8; stroke-linejoin: miter; stroke-linecap: square"/>
   </g>
   <g id="text_15">
    <!-- Topographic contour overlay by histone mark -->
    <g transform="translate(106.904063 16.318125) scale(0.12 -0.12)">
     <defs>
      <path id="DejaVuSans-54" d="M -19 4666 
L 3928 4666 
L 3928 4134 
L 2272 4134 
L 2272 0 
L 1638 0 
L 1638 4134 
L -19 4134 
L -19 4666 
z
" transform="scale(0.015625)"/>
      <path id="DejaVuSans-70" d="M 1159 525 
L 1159 -1331 
L 581 -1331 
L 581 3500 
L 1159 3500 
L 1159 2969 
Q 1341 3281 1617 3432 
Q 1894 3584 2278 3584 
Q 2916 3584 3314 3078 
Q 3713 2572 3713 1747 
Q 3713 922 3314 415 
Q 2916 -91 2278 -91 
Q 1894 -91 1617 61 
Q 1341 213 1159 525 
z
M 3116 1747 
Q 3116 2381 2855 2742 
Q 2594 3103 2138 3103 
Q 1681 3103 1420 2742 
Q 1159 2381 1159 1747 
Q 1159 1113 1420 752 
Q 1681 391 2138 391 
Q 2594 391 2855 752 
Q 3116 1113 3116 1747 
z
" transform="scale(0.015625)"/>
      <path id="DejaVuSans-68" d="M 3513 2113 
L 3513 0 
L 2938 0 
L 2938 2094 
Q 2938 2591 2744 2837 
Q 2550 3084 2163 3084 
Q 1697 3084 1428 2787 
Q 1159 2491 1159 1978 
L 1159 0 
L 581 0 
L 581 4863 
L 1159 4863 
L 1159 2956 
Q 1366 3272 1645 3428 
Q 1925 3584 2291 3584 
Q 2894 3584 3203 3211 
Q 3513 2838 3513 2113 
z
" transform="scale(0.015625)"/>
      <path id="DejaVuSans-76" d="M 191 3500 
L 800 3500 
L 1894 563 
L 2988 3500 
L 3597 3500 
L 2284 0 
L 1503 0 
L 191 3500 
z
" transform="scale(0.015625)"/>
      <path id="DejaVuSans-73" d="M 2834 3397 
L 2834 2853 
Q 2591 2978 2328 3040 
Q 2066 3103 1784 3103 
Q 1356 3103 1142 2972 
Q 928 2841 928 2578 
Q 928 2378 1081 2264 
Q 1234 2150 1697 2047 
L 1894 2003 
Q 2506 1872 2764 1633 
Q 3022 1394 3022 966 
Q 3022 478 2636 193 
Q 2250 -91 1575 -91 
Q 1294 -91 989 -36 
Q 684 19 347 128 
L 347 722 
Q 666 556 975 473 
Q 1284 391 1588 391 
Q 1994 391 2212 530 
Q 2431 669 2431 922 
Q 2431 1156 2273 1281 
Q 2116 1406 1581 1522 
L 1381 1569 
Q 847 1681 609 1914 
Q 372 2147 372 2553 
Q 372 3047 722 3315 
Q 1072 3584 1716 3584 
Q 2034 3584 2315 3537 
Q 2597 3491 2834 3397 
z
" transform="scale(0.015625)"/>
      <path id="DejaVuSans-6b" d="M 581 4863 
L 1159 4863 
L 1159 1991 
L 2875 3500 
L 3609 3500 
L 1753 1863 
L 3688 0 
L 2938 0 
L 1159 1709 
L 1159 0 
L 581 0 
L 581 4863 
z
" transform="scale(0.015625)"/>
     </defs>
     <use xlink:href="#DejaVuSans-54"/>
     <use xlink:href="#DejaVuSans-6f" transform="translate(44.083984 0)"/>
     <use xlink:href="#DejaVuSans-70" transform="translate(105.265625 0)"/>
     <use xlink:href="#DejaVuSans-6f" transform="translate(168.742188 0)"/>
     <use xlink:href="#DejaVuSans-67" transform="translate(229.923828 0)"/>
     <use xlink:href="#DejaVuSans-72" transform="translate(293.400391 0)"/>
     <use xlink:href="#DejaVuSans-61" transform="translate(334.513672 0)"/>
     <use xlink:href="#DejaVuSans-70" transform="translate(395.792969 0)"/>
     <use xlink:href="#DejaVuSans-68" transform="translate(459.269531 0)"/>
     <use xlink:href="#DejaVuSans-69" transform="translate(522.648438 0)"/>
     <use xlink:href="#DejaVuSans-63" transform="translate(550.431641 0)"/>
     <use xlink:href="#DejaVuSans-20" transform="translate(605.412109 0)"/>
     <use xlink:href="#DejaVuSans-63" transform="translate(637.199219 0)"/>
     <use xlink:href="#DejaVuSans-6f" transform="translate(692.179688 0)"/>
     <use xlink:href="#DejaVuSans-6e" transform="translate(753.361328 0)"/>
     <use xlink:href="#DejaVuSans-74" transform="translate(816.740234 0)"/>
     <use xlink:href="#DejaVuSans-6f" transform="translate(855.949219 0)"/>
     <use xlink:href="#DejaVuSans-75" transform="translate(917.130859 0)"/>
     <use xlink:href="#DejaVuSans-72" transform="translate(980.509766 0)"/>
     <use xlink:href="#DejaVuSans-20" transform="translate(1021.623047 0)"/>
     <use xlink:href="#DejaVuSans-6f" transform="translate(1053.410156 0)"/>
     <use xlink:href="#DejaVuSans-76" transform="translate(1114.591797 0)"/>
     <use xlink:href="#DejaVuSans-65" transform="translate(1173.771484 0)"/>
     <use xlink:href="#DejaVuSans-72" transform="translate(1235.294922 0)"/>
     <use xlink:href="#DejaVuSans-6c" transform="translate(1276.408203 0)"/>
     <use xlink:href="#DejaVuSans-61" transform="translate(1304.191406 0)"/>
     <use xlink:href="#DejaVuSans-79" transform="translate(1365.470703 0)"/>
     <use xlink:href="#DejaVuSans-20" transform="translate(1424.650391 0)"/>
     <use xlink:href="#DejaVuSans-62" transform="translate(1456.4375 0)"/>
     <use xlink:href="#DejaVuSans-79" transform="translate(1519.914062 0)"/>
     <use xlink:href="#DejaVuSans-20" transform="translate(1579.09375 0)"/>
     <use xlink:href="#DejaVuSans-68" transform="translate(1610.880859 0)"/>
     <use xlink:href="#DejaVuSans-69" transform="translate(1674.259766 0)"/>
     <use xlink:href="#DejaVuSans-73" transform="translate(1702.042969 0)"/>
     <use xlink:href="#DejaVuSans-74" transform="translate(1754.142578 0)"/>
     <use xlink:href="#DejaVuSans-6f" transform="translate(1793.351562 0)"/>
     <use xlink:href="#DejaVuSans-6e" transform="translate(1854.533203 0)"/>
     <use xlink:href="#DejaVuSans-65" transform="translate(1917.912109 0)"/>
     <use xlink:href="#DejaVuSans-20" transform="translate(1979.435547 0)"/>
     <use xlink:href="#DejaVuSans-6d" transform="translate(2011.222656 0)"/>
     <use xlink:href="#DejaVuSans-61" transform="translate(2108.634766 0)"/>
     <use xlink:href="#DejaVuSans-72" transform="translate(2169.914062 0)"/>
     <use xlink:href="#DejaVuSans-6b" transform="translate(2211.027344 0)"/>
    </g>
   </g>
   <g id="legend_1">
    <g id="patch_7">
     <path d="M 452.27165 230.582375 
L 537.743525 230.582375 
Q 539.743525 230.582375 539.743525 228.582375 
L 539.743525 170.869875 
Q 539.743525 168.869875 537.743525 168.869875 
L 452.27165 168.869875 
Q 450.27165 168.869875 450.27165 170.869875 
L 450.27165 228.582375 
Q 450.27165 230.582375 452.27165 230.582375 
z
" style="fill: #ffffff; opacity: 0.8; stroke: #cccccc; stroke-linejoin: miter"/>
    </g>
    <g id="text_16">
     <!-- Mark -->
     <g transform="translate(482.678681 180.468313) scale(0.1 -0.1)">
      <use xlink:href="#DejaVuSans-4d"/>
      <use xlink:href="#DejaVuSans-61" transform="translate(86.279297 0)"/>
      <use xlink:href="#DejaVuSans-72" transform="translate(147.558594 0)"/>
      <use xlink:href="#DejaVuSans-6b" transform="translate(188.671875 0)"/>
     </g>
    </g>
    <g id="line2d_13">
     <path d="M 454.27165 191.646438 
L 464.27165 191.646438 
L 474.27165 191.646438 
" style="fill: none; stroke: #d62728; stroke-width: 2; stroke-linecap: square"/>
    </g>
    <g id="text_17">
     <!-- h3k27ac -->
     <g transform="translate(482.27165 195.146438) scale(0.1 -0.1)">
      <defs>
       <path id="DejaVuSans-33" d="M 2597 2516 
Q 3050 2419 3304 2112 
Q 3559 1806 3559 1356 
Q 3559 666 3084 287 
Q 2609 -91 1734 -91 
Q 1441 -91 1130 -33 
Q 819 25 488 141 
L 488 750 
Q 750 597 1062 519 
Q 1375 441 1716 441 
Q 2309 441 2620 675 
Q 2931 909 2931 1356 
Q 2931 1769 2642 2001 
Q 2353 2234 1838 2234 
L 1294 2234 
L 1294 2753 
L 1863 2753 
Q 2328 2753 2575 2939 
Q 2822 3125 2822 3475 
Q 2822 3834 2567 4026 
Q 2313 4219 1838 4219 
Q 1578 4219 1281 4162 
Q 984 4106 628 3988 
L 628 4550 
Q 988 4650 1302 4700 
Q 1616 4750 1894 4750 
Q 2613 4750 3031 4423 
Q 3450 4097 3450 3541 
Q 3450 3153 3228 2886 
Q 3006 2619 2597 2516 
z
" transform="scale(0.015625)"/>
       <path id="DejaVuSans-37" d="M 525 4666 
L 3525 4666 
L 3525 4397 
L 1831 0 
L 1172 0 
L 2766 4134 
L 525 4134 
L 525 4666 
z
" transform="scale(0.015625)"/>
      </defs>
      <use xlink:href="#DejaVuSans-68"/>
      <use xlink:href="#DejaVuSans-33" transform="translate(63.378906 0)"/>
      <use xlink:href="#DejaVuSans-6b" transform="translate(127.001953 0)"/>
      <use xlink:href="#DejaVuSans-32" transform="translate(184.912109 0)"/>
      <use xlink:href="#DejaVuSans-37" transform="translate(248.535156 0)"/>
      <use xlink:href="#DejaVuSans-61" transform="translate(312.158203 0)"/>
      <use xlink:href="#DejaVuSans-63" transform="translate(373.4375 0)"/>
     </g>
    </g>
    <g id="line2d_14">
     <path d="M 454.27165 206.324563 
L 464.27165 206.324563 
L 474.27165 206.324563 
" style="fill: none; stroke: #1f77b4; stroke-width: 2; stroke-linecap: square"/>
    </g>
    <g id="text_18">
     <!-- h3k27me3 -->
     <g transform="translate(482.27165 209.824563) scale(0.1 -0.1)">
      <use xlink:href="#DejaVuSans-68"/>
      <use xlink:href="#DejaVuSans-33" transform="translate(63.378906 0)"/>
      <use xlink:href="#DejaVuSans-6b" transform="translate(127.001953 0)"/>
      <use xlink:href="#DejaVuSans-32" transform="translate(184.912109 0)"/>
      <use xlink:href="#DejaVuSans-37" transform="translate(248.535156 0)"/>
      <use xlink:href="#DejaVuSans-6d" transform="translate(312.158203 0)"/>
      <use xlink:href="#DejaVuSans-65" transform="translate(409.570312 0)"/>
      <use xlink:href="#DejaVuSans-33" transform="translate(471.09375 0)"/>
     </g>
    </g>
    <g id="line2d_15">
     <path d="M 454.27165 221.002688 
L 464.27165 221.002688 
L 474.27165 221.002688 
" style="fill: none; stroke: #2ca02c; stroke-width: 2; stroke-linecap: square"/>
    </g>
    <g id="text_19">
     <!-- h3k4me3 -->
     <g transform="translate(482.27165 224.502688) scale(0.1 -0.1)">
      <use xlink:href="#DejaVuSans-68"/>
      <use xlink:href="#DejaVuSans-33" transform="translate(63.378906 0)"/>
      <use xlink:href="#DejaVuSans-6b" transform="translate(127.001953 0)"/>
      <use xlink:href="#DejaVuSans-34" transform="translate(184.912109 0)"/>
      <use xlink:href="#DejaVuSans-6d" transform="translate(248.535156 0)"/>
      <use xlink:href="#DejaVuSans-65" transform="translate(345.947266 0)"/>
      <use xlink:href="#DejaVuSans-33" transform="translate(407.470703 0)"/>
     </g>
    </g>
   </g>
  </g>
 </g>
 <defs>
  <clipPath id="pe2d5822a86">
   <rect x="43.78125" y="22.318125" width="398.52" height="354.816"/>
  </clipPath>
 </defs>
</svg>
