<?xml version="1.0" encoding="utf-8" standalone="no"?>
<!DOCTYPE svg PUBLIC "-//W3C//DTD SVG 1.1//EN"
  "http://www.w3.org/Graphics/SVG/1.1/DTD/svg11.dtd">
<svg xmlns:xlink="http://www.w3.org/1999/xlink" width="640.88375pt" height="525.5525pt" viewBox="0 0 640.88375 525.5525" xmlns="http://www.w3.org/2000/svg" version="1.1">
 <metadata>
  <rdf:RDF xmlns:dc="http://purl.org/dc/elements/1.1/" xmlns:cc="http://creativecommons.org/ns#" xmlns:rdf="http://www.w3.org/1999/02/22-rdf-syntax-ns#">
   <cc:Work>
    <dc:type rdf:resource="http://purl.org/dc/dcmitype/StillImage"/>
    <dc:date>2026-03-06T14:45:21.786785</dc:date>
    <dc:format>image/svg+xml</dc:format>
    <dc:creator>
     <cc:Agent>
      <dc:title>Matplotlib v3.10.8, https://matplotlib.org/</dc:title>
     </cc:Agent>
    </dc:creator>
   </cc:Work>
  </rdf:RDF>
 </metadata>
 <defs>
  <style type="text/css">*{stroke-linejoin: round; stroke-linecap: butt}</style>
 </defs>
 <g id="figure_1">
  <g id="patch_1">
   <path d="M 0 525.5525 
L 640.88375 525.5525 
L 640.88375 0 
L 0 0 
z
" style="fill: #ffffff"/>
  </g>
  <g id="axes_1">
   <g id="patch_2">
    <path d="M 50.14375 226.718125 
L 633.68375 226.718125 
L 633.68375 22.318125 
L 50.14375 22.318125 
z
" style="fill: #ffffff"/>
   </g>
   <g id="matplotlib.axis_1">
    <g id="xtick_1">
     <g id="line2d_1">
      <defs>
       <path id="med8c0fac8a" d="M 0 0 
L 0 3.5 
" style="stroke: #000000; stroke-width: 0.8"/>
      </defs>
      <g>
       <use xlink:href="#med8c0fac8a" x="76.668295" y="226.718125" style="stroke: #000000; stroke-width: 0.8"/>
      </g>
     </g>
     <g id="text_1">
      <!-- 0 -->
      <g transform="translate(73.487045 241.316562) scale(0.1 -0.1)">
       <defs>
        <path id="DejaVuSans-30" d="M 2034 4250 
Q 1547 4250 1301 3770 
Q 1056 3291 1056 2328 
Q 1056 1369 1301 889 
Q 1547 409 2034 409 
Q 2525 409 2770 889 
Q 3016 1369 3016 2328 
Q 3016 3291 2770 3770 
Q 2525 4250 2034 4250 
z
M 2034 4750 
Q 2819 4750 3233 4129 
Q 3647 3509 3647 2328 
Q 3647 1150 3233 529 
Q 2819 -91 2034 -91 
Q 1250 -91 836 529 
Q 422 1150 422 2328 
Q 422 3509 836 4129 
Q 1250 4750 2034 4750 
z
" transform="scale(0.015625)"/>
       </defs>
       <use xlink:href="#DejaVuSans-30"/>
      </g>
     </g>
    </g>
    <g id="xtick_2">
     <g id="line2d_2">
      <g>
       <use xlink:href="#med8c0fac8a" x="152.205588" y="226.718125" style="stroke: #000000; stroke-width: 0.8"/>
      </g>
     </g>
     <g id="text_2">
      <!-- 50 -->
      <g transform="translate(145.843088 241.316562) scale(0.1 -0.1)">
       <defs>
        <path id="DejaVuSans-35" d="M 691 4666 
L 3169 4666 
L 3169 4134 
L 1269 4134 
L 1269 2991 
Q 1406 3038 1543 3061 
Q 1681 3084 1819 3084 
Q 2600 3084 3056 2656 
Q 3513 2228 3513 1497 
Q 3513 744 3044 326 
Q 2575 -91 1722 -91 
Q 1428 -91 1123 -41 
Q 819 9 494 109 
L 494 744 
Q 775 591 1075 516 
Q 1375 441 1709 441 
Q 2250 441 2565 725 
Q 2881 1009 2881 1497 
Q 2881 1984 2565 2268 
Q 2250 2553 1709 2553 
Q 1456 2553 1204 2497 
Q 953 2441 691 2322 
L 691 4666 
z
" transform="scale(0.015625)"/>
       </defs>
       <use xlink:href="#DejaVuSans-35"/>
       <use xlink:href="#DejaVuSans-30" transform="translate(63.623047 0)"/>
      </g>
     </g>
    </g>
    <g id="xtick_3">
     <g id="line2d_3">
      <g>
       <use xlink:href="#med8c0fac8a" x="227.74288" y="226.718125" style="stroke: #000000; stroke-width: 0.8"/>
      </g>
     </g>
     <g id="text_3">
      <!-- 100 -->
      <g transform="translate(218.19913 241.316562) scale(0.1 -0.1)">
       <defs>
        <path id="DejaVuSans-31" d="M 794 531 
L 1825 531 
L 1825 4091 
L 703 3866 
L 703 4441 
L 1819 4666 
L 2450 4666 
L 2450 531 
L 3481 531 
L 3481 0 
L 794 0 
L 794 531 
z
" transform="scale(0.015625)"/>
       </defs>
       <use xlink:href="#DejaVuSans-31"/>
       <use xlink:href="#DejaVuSans-30" transform="translate(63.623047 0)"/>
       <use xlink:href="#DejaVuSans-30" transform="translate(127.246094 0)"/>
      </g>
     </g>
    </g>
    <g id="xtick_4">
     <g id="line2d_4">
      <g>
       <use xlink:href="#med8c0fac8a" x="303.280173" y="226.718125" style="stroke: #000000; stroke-width: 0.8"/>
      </g>
     </g>
     <g id="text_4">
      <!-- 150 -->
      <g transform="translate(293.736423 241.316562) scale(0.1 -0.1)">
       <use xlink:href="#DejaVuSans-31"/>
       <use xlink:href="#DejaVuSans-35" transform="translate(63.623047 0)"/>
       <use xlink:href="#DejaVuSans-30" transform="translate(127.246094 0)"/>
      </g>
     </g>
    </g>
    <g id="xtick_5">
     <g id="line2d_5">
      <g>
       <use xlink:href="#med8c0fac8a" x="378.817465" y="226.718125" style="stroke: #000000; stroke-width: 0.8"/>
      </g>
     </g>
     <g id="text_5">
      <!-- 200 -->
      <g transform="translate(369.273715 241.316562) scale(0.1 -0.1)">
       <defs>
        <path id="DejaVuSans-32" d="M 1228 531 
L 3431 531 
L 3431 0 
L 469 0 
L 469 531 
Q 828 903 1448 1529 
Q 2069 2156 2228 2338 
Q 2531 2678 2651 2914 
Q 2772 3150 2772 3378 
Q 2772 3750 2511 3984 
Q 2250 4219 1831 4219 
Q 1534 4219 1204 4116 
Q 875 4013 500 3803 
L 500 4441 
Q 881 4594 1212 4672 
Q 1544 4750 1819 4750 
Q 2544 4750 2975 4387 
Q 3406 4025 3406 3419 
Q 3406 3131 3298 2873 
Q 3191 2616 2906 2266 
Q 2828 2175 2409 1742 
Q 1991 1309 1228 531 
z
" transform="scale(0.015625)"/>
       </defs>
       <use xlink:href="#DejaVuSans-32"/>
       <use xlink:href="#DejaVuSans-30" transform="translate(63.623047 0)"/>
       <use xlink:href="#DejaVuSans-30" transform="translate(127.246094 0)"/>
      </g>
     </g>
    </g>
    <g id="xtick_6">
     <g id="line2d_6">
      <g>
       <use xlink:href="#med8c0fac8a" x="454.354758" y="226.718125" style="stroke: #000000; stroke-width: 0.8"/>
      </g>
     </g>
     <g id="text_6">
      <!-- 250 -->
      <g transform="translate(444.811008 241.316562) scale(0.1 -0.1)">
       <use xlink:href="#DejaVuSans-32"/>
       <use xlink:href="#DejaVuSans-35" transform="translate(63.623047 0)"/>
       <use xlink:href="#DejaVuSans-30" transform="translate(127.246094 0)"/>
      </g>
     </g>
    </g>
    <g id="xtick_7">
     <g id="line2d_7">
      <g>
       <use xlink:href="#med8c0fac8a" x="529.89205" y="226.718125" style="stroke: #000000; stroke-width: 0.8"/>
      </g>
     </g>
     <g id="text_7">
      <!-- 300 -->
      <g transform="translate(520.3483 241.316562) scale(0.1 -0.1)">
       <defs>
        <path id="DejaVuSans-33" d="M 2597 2516 
Q 3050 2419 3304 2112 
Q 3559 1806 3559 1356 
Q 3559 666 3084 287 
Q 2609 -91 1734 -91 
Q 1441 -91 1130 -33 
Q 819 25 488 141 
L 488 750 
Q 750 597 1062 519 
Q 1375 441 1716 441 
Q 2309 441 2620 675 
Q 2931 909 2931 1356 
Q 2931 1769 2642 2001 
Q 2353 2234 1838 2234 
L 1294 2234 
L 1294 2753 
L 1863 2753 
Q 2328 2753 2575 2939 
Q 2822 3125 2822 3475 
Q 2822 3834 2567 4026 
Q 2313 4219 1838 4219 
Q 1578 4219 1281 4162 
Q 984 4106 628 3988 
L 628 4550 
Q 988 4650 1302 4700 
Q 1616 4750 1894 4750 
Q 2613 4750 3031 4423 
Q 3450 4097 3450 3541 
Q 3450 3153 3228 2886 
Q 3006 2619 2597 2516 
z
" transform="scale(0.015625)"/>
       </defs>
       <use xlink:href="#DejaVuSans-33"/>
       <use xlink:href="#DejaVuSans-30" transform="translate(63.623047 0)"/>
       <use xlink:href="#DejaVuSans-30" transform="translate(127.246094 0)"/>
      </g>
     </g>
    </g>
    <g id="xtick_8">
     <g id="line2d_8">
      <g>
       <use xlink:href="#med8c0fac8a" x="605.429343" y="226.718125" style="stroke: #000000; stroke-width: 0.8"/>
      </g>
     </g>
     <g id="text_8">
      <!-- 350 -->
      <g transform="translate(595.885593 241.316562) scale(0.1 -0.1)">
       <use xlink:href="#DejaVuSans-33"/>
       <use xlink:href="#DejaVuSans-35" transform="translate(63.623047 0)"/>
       <use xlink:href="#DejaVuSans-30" transform="translate(127.246094 0)"/>
      </g>
     </g>
    </g>
    <g id="text_9">
     <!-- A_mod_density_per_kb (raw) -->
     <g transform="translate(269.981719 254.994687) scale(0.1 -0.1)">
      <defs>
       <path id="DejaVuSans-41" d="M 2188 4044 
L 1331 1722 
L 3047 1722 
L 2188 4044 
z
M 1831 4666 
L 2547 4666 
L 4325 0 
L 3669 0 
L 3244 1197 
L 1141 1197 
L 716 0 
L 50 0 
L 1831 4666 
z
" transform="scale(0.015625)"/>
       <path id="DejaVuSans-5f" d="M 3263 -1063 
L 3263 -1509 
L -63 -1509 
L -63 -1063 
L 3263 -1063 
z
" transform="scale(0.015625)"/>
       <path id="DejaVuSans-6d" d="M 3328 2828 
Q 3544 3216 3844 3400 
Q 4144 3584 4550 3584 
Q 5097 3584 5394 3201 
Q 5691 2819 5691 2113 
L 5691 0 
L 5113 0 
L 5113 2094 
Q 5113 2597 4934 2840 
Q 4756 3084 4391 3084 
Q 3944 3084 3684 2787 
Q 3425 2491 3425 1978 
L 3425 0 
L 2847 0 
L 2847 2094 
Q 2847 2600 2669 2842 
Q 2491 3084 2119 3084 
Q 1678 3084 1418 2786 
Q 1159 2488 1159 1978 
L 1159 0 
L 581 0 
L 581 3500 
L 1159 3500 
L 1159 2956 
Q 1356 3278 1631 3431 
Q 1906 3584 2284 3584 
Q 2666 3584 2933 3390 
Q 3200 3197 3328 2828 
z
" transform="scale(0.015625)"/>
       <path id="DejaVuSans-6f" d="M 1959 3097 
Q 1497 3097 1228 2736 
Q 959 2375 959 1747 
Q 959 1119 1226 758 
Q 1494 397 1959 397 
Q 2419 397 2687 759 
Q 2956 1122 2956 1747 
Q 2956 2369 2687 2733 
Q 2419 3097 1959 3097 
z
M 1959 3584 
Q 2709 3584 3137 3096 
Q 3566 2609 3566 1747 
Q 3566 888 3137 398 
Q 2709 -91 1959 -91 
Q 1206 -91 779 398 
Q 353 888 353 1747 
Q 353 2609 779 3096 
Q 1206 3584 1959 3584 
z
" transform="scale(0.015625)"/>
       <path id="DejaVuSans-64" d="M 2906 2969 
L 2906 4863 
L 3481 4863 
L 3481 0 
L 2906 0 
L 2906 525 
Q 2725 213 2448 61 
Q 2172 -91 1784 -91 
Q 1150 -91 751 415 
Q 353 922 353 1747 
Q 353 2572 751 3078 
Q 1150 3584 1784 3584 
Q 2172 3584 2448 3432 
Q 2725 3281 2906 2969 
z
M 947 1747 
Q 947 1113 1208 752 
Q 1469 391 1925 391 
Q 2381 391 2643 752 
Q 2906 1113 2906 1747 
Q 2906 2381 2643 2742 
Q 2381 3103 1925 3103 
Q 1469 3103 1208 2742 
Q 947 2381 947 1747 
z
" transform="scale(0.015625)"/>
       <path id="DejaVuSans-65" d="M 3597 1894 
L 3597 1613 
L 953 1613 
Q 991 1019 1311 708 
Q 1631 397 2203 397 
Q 2534 397 2845 478 
Q 3156 559 3463 722 
L 3463 178 
Q 3153 47 2828 -22 
Q 2503 -91 2169 -91 
Q 1331 -91 842 396 
Q 353 884 353 1716 
Q 353 2575 817 3079 
Q 1281 3584 2069 3584 
Q 2775 3584 3186 3129 
Q 3597 2675 3597 1894 
z
M 3022 2063 
Q 3016 2534 2758 2815 
Q 2500 3097 2075 3097 
Q 1594 3097 1305 2825 
Q 1016 2553 972 2059 
L 3022 2063 
z
" transform="scale(0.015625)"/>
       <path id="DejaVuSans-6e" d="M 3513 2113 
L 3513 0 
L 2938 0 
L 2938 2094 
Q 2938 2591 2744 2837 
Q 2550 3084 2163 3084 
Q 1697 3084 1428 2787 
Q 1159 2491 1159 1978 
L 1159 0 
L 581 0 
L 581 3500 
L 1159 3500 
L 1159 2956 
Q 1366 3272 1645 3428 
Q 1925 3584 2291 3584 
Q 2894 3584 3203 3211 
Q 3513 2838 3513 2113 
z
" transform="scale(0.015625)"/>
       <path id="DejaVuSans-73" d="M 2834 3397 
L 2834 2853 
Q 2591 2978 2328 3040 
Q 2066 3103 1784 3103 
Q 1356 3103 1142 2972 
Q 928 2841 928 2578 
Q 928 2378 1081 2264 
Q 1234 2150 1697 2047 
L 1894 2003 
Q 2506 1872 2764 1633 
Q 3022 1394 3022 966 
Q 3022 478 2636 193 
Q 2250 -91 1575 -91 
Q 1294 -91 989 -36 
Q 684 19 347 128 
L 347 722 
Q 666 556 975 473 
Q 1284 391 1588 391 
Q 1994 391 2212 530 
Q 2431 669 2431 922 
Q 2431 1156 2273 1281 
Q 2116 1406 1581 1522 
L 1381 1569 
Q 847 1681 609 1914 
Q 372 2147 372 2553 
Q 372 3047 722 3315 
Q 1072 3584 1716 3584 
Q 2034 3584 2315 3537 
Q 2597 3491 2834 3397 
z
" transform="scale(0.015625)"/>
       <path id="DejaVuSans-69" d="M 603 3500 
L 1178 3500 
L 1178 0 
L 603 0 
L 603 3500 
z
M 603 4863 
L 1178 4863 
L 1178 4134 
L 603 4134 
L 603 4863 
z
" transform="scale(0.015625)"/>
       <path id="DejaVuSans-74" d="M 1172 4494 
L 1172 3500 
L 2356 3500 
L 2356 3053 
L 1172 3053 
L 1172 1153 
Q 1172 725 1289 603 
Q 1406 481 1766 481 
L 2356 481 
L 2356 0 
L 1766 0 
Q 1100 0 847 248 
Q 594 497 594 1153 
L 594 3053 
L 172 3053 
L 172 3500 
L 594 3500 
L 594 4494 
L 1172 4494 
z
" transform="scale(0.015625)"/>
       <path id="DejaVuSans-79" d="M 2059 -325 
Q 1816 -950 1584 -1140 
Q 1353 -1331 966 -1331 
L 506 -1331 
L 506 -850 
L 844 -850 
Q 1081 -850 1212 -737 
Q 1344 -625 1503 -206 
L 1606 56 
L 191 3500 
L 800 3500 
L 1894 763 
L 2988 3500 
L 3597 3500 
L 2059 -325 
z
" transform="scale(0.015625)"/>
       <path id="DejaVuSans-70" d="M 1159 525 
L 1159 -1331 
L 581 -1331 
L 581 3500 
L 1159 3500 
L 1159 2969 
Q 1341 3281 1617 3432 
Q 1894 3584 2278 3584 
Q 2916 3584 3314 3078 
Q 3713 2572 3713 1747 
Q 3713 922 3314 415 
Q 2916 -91 2278 -91 
Q 1894 -91 1617 61 
Q 1341 213 1159 525 
z
M 3116 1747 
Q 3116 2381 2855 2742 
Q 2594 3103 2138 3103 
Q 1681 3103 1420 2742 
Q 1159 2381 1159 1747 
Q 1159 1113 1420 752 
Q 1681 391 2138 391 
Q 2594 391 2855 752 
Q 3116 1113 3116 1747 
z
" transform="scale(0.015625)"/>
       <path id="DejaVuSans-72" d="M 2631 2963 
Q 2534 3019 2420 3045 
Q 2306 3072 2169 3072 
Q 1681 3072 1420 2755 
Q 1159 2438 1159 1844 
L 1159 0 
L 581 0 
L 581 3500 
L 1159 3500 
L 1159 2956 
Q 1341 3275 1631 3429 
Q 1922 3584 2338 3584 
Q 2397 3584 2469 3576 
Q 2541 3569 2628 3553 
L 2631 2963 
z
" transform="scale(0.015625)"/>
       <path id="DejaVuSans-6b" d="M 581 4863 
L 1159 4863 
L 1159 1991 
L 2875 3500 
L 3609 3500 
L 1753 1863 
L 3688 0 
L 2938 0 
L 1159 1709 
L 1159 0 
L 581 0 
L 581 4863 
z
" transform="scale(0.015625)"/>
       <path id="DejaVuSans-62" d="M 3116 1747 
Q 3116 2381 2855 2742 
Q 2594 3103 2138 3103 
Q 1681 3103 1420 2742 
Q 1159 2381 1159 1747 
Q 1159 1113 1420 752 
Q 1681 391 2138 391 
Q 2594 391 2855 752 
Q 3116 1113 3116 1747 
z
M 1159 2969 
Q 1341 3281 1617 3432 
Q 1894 3584 2278 3584 
Q 2916 3584 3314 3078 
Q 3713 2572 3713 1747 
Q 3713 922 3314 415 
Q 2916 -91 2278 -91 
Q 1894 -91 1617 61 
Q 1341 213 1159 525 
L 1159 0 
L 581 0 
L 581 4863 
L 1159 4863 
L 1159 2969 
z
" transform="scale(0.015625)"/>
       <path id="DejaVuSans-20" transform="scale(0.015625)"/>
       <path id="DejaVuSans-28" d="M 1984 4856 
Q 1566 4138 1362 3434 
Q 1159 2731 1159 2009 
Q 1159 1288 1364 580 
Q 1569 -128 1984 -844 
L 1484 -844 
Q 1016 -109 783 600 
Q 550 1309 550 2009 
Q 550 2706 781 3412 
Q 1013 4119 1484 4856 
L 1984 4856 
z
" transform="scale(0.015625)"/>
       <path id="DejaVuSans-61" d="M 2194 1759 
Q 1497 1759 1228 1600 
Q 959 1441 959 1056 
Q 959 750 1161 570 
Q 1363 391 1709 391 
Q 2188 391 2477 730 
Q 2766 1069 2766 1631 
L 2766 1759 
L 2194 1759 
z
M 3341 1997 
L 3341 0 
L 2766 0 
L 2766 531 
Q 2569 213 2275 61 
Q 1981 -91 1556 -91 
Q 1019 -91 701 211 
Q 384 513 384 1019 
Q 384 1609 779 1909 
Q 1175 2209 1959 2209 
L 2766 2209 
L 2766 2266 
Q 2766 2663 2505 2880 
Q 2244 3097 1772 3097 
Q 1472 3097 1187 3025 
Q 903 2953 641 2809 
L 641 3341 
Q 956 3463 1253 3523 
Q 1550 3584 1831 3584 
Q 2591 3584 2966 3190 
Q 3341 2797 3341 1997 
z
" transform="scale(0.015625)"/>
       <path id="DejaVuSans-77" d="M 269 3500 
L 844 3500 
L 1563 769 
L 2278 3500 
L 2956 3500 
L 3675 769 
L 4391 3500 
L 4966 3500 
L 4050 0 
L 3372 0 
L 2619 2869 
L 1863 0 
L 1184 0 
L 269 3500 
z
" transform="scale(0.015625)"/>
       <path id="DejaVuSans-29" d="M 513 4856 
L 1013 4856 
Q 1481 4119 1714 3412 
Q 1947 2706 1947 2009 
Q 1947 1309 1714 600 
Q 1481 -109 1013 -844 
L 513 -844 
Q 928 -128 1133 580 
Q 1338 1288 1338 2009 
Q 1338 2731 1133 3434 
Q 928 4138 513 4856 
z
" transform="scale(0.015625)"/>
      </defs>
      <use xlink:href="#DejaVuSans-41"/>
      <use xlink:href="#DejaVuSans-5f" transform="translate(68.408203 0)"/>
      <use xlink:href="#DejaVuSans-6d" transform="translate(118.408203 0)"/>
      <use xlink:href="#DejaVuSans-6f" transform="translate(215.820312 0)"/>
      <use xlink:href="#DejaVuSans-64" transform="translate(277.001953 0)"/>
      <use xlink:href="#DejaVuSans-5f" transform="translate(340.478516 0)"/>
      <use xlink:href="#DejaVuSans-64" transform="translate(390.478516 0)"/>
      <use xlink:href="#DejaVuSans-65" transform="translate(453.955078 0)"/>
      <use xlink:href="#DejaVuSans-6e" transform="translate(515.478516 0)"/>
      <use xlink:href="#DejaVuSans-73" transform="translate(578.857422 0)"/>
      <use xlink:href="#DejaVuSans-69" transform="translate(630.957031 0)"/>
      <use xlink:href="#DejaVuSans-74" transform="translate(658.740234 0)"/>
      <use xlink:href="#DejaVuSans-79" transform="translate(697.949219 0)"/>
      <use xlink:href="#DejaVuSans-5f" transform="translate(757.128906 0)"/>
      <use xlink:href="#DejaVuSans-70" transform="translate(807.128906 0)"/>
      <use xlink:href="#DejaVuSans-65" transform="translate(870.605469 0)"/>
      <use xlink:href="#DejaVuSans-72" transform="translate(932.128906 0)"/>
      <use xlink:href="#DejaVuSans-5f" transform="translate(973.242188 0)"/>
      <use xlink:href="#DejaVuSans-6b" transform="translate(1023.242188 0)"/>
      <use xlink:href="#DejaVuSans-62" transform="translate(1081.152344 0)"/>
      <use xlink:href="#DejaVuSans-20" transform="translate(1144.628906 0)"/>
      <use xlink:href="#DejaVuSans-28" transform="translate(1176.416016 0)"/>
      <use xlink:href="#DejaVuSans-72" transform="translate(1215.429688 0)"/>
      <use xlink:href="#DejaVuSans-61" transform="translate(1256.542969 0)"/>
      <use xlink:href="#DejaVuSans-77" transform="translate(1317.822266 0)"/>
      <use xlink:href="#DejaVuSans-29" transform="translate(1399.609375 0)"/>
     </g>
    </g>
   </g>
   <g id="matplotlib.axis_2">
    <g id="ytick_1">
     <g id="line2d_9">
      <defs>
       <path id="m827b88651d" d="M 0 0 
L -3.5 0 
" style="stroke: #000000; stroke-width: 0.8"/>
      </defs>
      <g>
       <use xlink:href="#m827b88651d" x="50.14375" y="226.718125" style="stroke: #000000; stroke-width: 0.8"/>
      </g>
     </g>
     <g id="text_10">
      <!-- 0.00 -->
      <g transform="translate(20.878125 230.517344) scale(0.1 -0.1)">
       <defs>
        <path id="DejaVuSans-2e" d="M 684 794 
L 1344 794 
L 1344 0 
L 684 0 
L 684 794 
z
" transform="scale(0.015625)"/>
       </defs>
       <use xlink:href="#DejaVuSans-30"/>
       <use xlink:href="#DejaVuSans-2e" transform="translate(63.623047 0)"/>
       <use xlink:href="#DejaVuSans-30" transform="translate(95.410156 0)"/>
       <use xlink:href="#DejaVuSans-30" transform="translate(159.033203 0)"/>
      </g>
     </g>
    </g>
    <g id="ytick_2">
     <g id="line2d_10">
      <g>
       <use xlink:href="#m827b88651d" x="50.14375" y="181.714877" style="stroke: #000000; stroke-width: 0.8"/>
      </g>
     </g>
     <g id="text_11">
      <!-- 0.05 -->
      <g transform="translate(20.878125 185.514096) scale(0.1 -0.1)">
       <use xlink:href="#DejaVuSans-30"/>
       <use xlink:href="#DejaVuSans-2e" transform="translate(63.623047 0)"/>
       <use xlink:href="#DejaVuSans-30" transform="translate(95.410156 0)"/>
       <use xlink:href="#DejaVuSans-35" transform="translate(159.033203 0)"/>
      </g>
     </g>
    </g>
    <g id="ytick_3">
     <g id="line2d_11">
      <g>
       <use xlink:href="#m827b88651d" x="50.14375" y="136.711629" style="stroke: #000000; stroke-width: 0.8"/>
      </g>
     </g>
     <g id="text_12">
      <!-- 0.10 -->
      <g transform="translate(20.878125 140.510848) scale(0.1 -0.1)">
       <use xlink:href="#DejaVuSans-30"/>
       <use xlink:href="#DejaVuSans-2e" transform="translate(63.623047 0)"/>
       <use xlink:href="#DejaVuSans-31" transform="translate(95.410156 0)"/>
       <use xlink:href="#DejaVuSans-30" transform="translate(159.033203 0)"/>
      </g>
     </g>
    </g>
    <g id="ytick_4">
     <g id="line2d_12">
      <g>
       <use xlink:href="#m827b88651d" x="50.14375" y="91.708381" style="stroke: #000000; stroke-width: 0.8"/>
      </g>
     </g>
     <g id="text_13">
      <!-- 0.15 -->
      <g transform="translate(20.878125 95.5076) scale(0.1 -0.1)">
       <use xlink:href="#DejaVuSans-30"/>
       <use xlink:href="#DejaVuSans-2e" transform="translate(63.623047 0)"/>
       <use xlink:href="#DejaVuSans-31" transform="translate(95.410156 0)"/>
       <use xlink:href="#DejaVuSans-35" transform="translate(159.033203 0)"/>
      </g>
     </g>
    </g>
    <g id="ytick_5">
     <g id="line2d_13">
      <g>
       <use xlink:href="#m827b88651d" x="50.14375" y="46.705133" style="stroke: #000000; stroke-width: 0.8"/>
      </g>
     </g>
     <g id="text_14">
      <!-- 0.20 -->
      <g transform="translate(20.878125 50.504352) scale(0.1 -0.1)">
       <use xlink:href="#DejaVuSans-30"/>
       <use xlink:href="#DejaVuSans-2e" transform="translate(63.623047 0)"/>
       <use xlink:href="#DejaVuSans-32" transform="translate(95.410156 0)"/>
       <use xlink:href="#DejaVuSans-30" transform="translate(159.033203 0)"/>
      </g>
     </g>
    </g>
    <g id="text_15">
     <!-- Density -->
     <g transform="translate(14.798438 143.526719) rotate(-90) scale(0.1 -0.1)">
      <defs>
       <path id="DejaVuSans-44" d="M 1259 4147 
L 1259 519 
L 2022 519 
Q 2988 519 3436 956 
Q 3884 1394 3884 2338 
Q 3884 3275 3436 3711 
Q 2988 4147 2022 4147 
L 1259 4147 
z
M 628 4666 
L 1925 4666 
Q 3281 4666 3915 4102 
Q 4550 3538 4550 2338 
Q 4550 1131 3912 565 
Q 3275 0 1925 0 
L 628 0 
L 628 4666 
z
" transform="scale(0.015625)"/>
      </defs>
      <use xlink:href="#DejaVuSans-44"/>
      <use xlink:href="#DejaVuSans-65" transform="translate(77.001953 0)"/>
      <use xlink:href="#DejaVuSans-6e" transform="translate(138.525391 0)"/>
      <use xlink:href="#DejaVuSans-73" transform="translate(201.904297 0)"/>
      <use xlink:href="#DejaVuSans-69" transform="translate(254.003906 0)"/>
      <use xlink:href="#DejaVuSans-74" transform="translate(281.787109 0)"/>
      <use xlink:href="#DejaVuSans-79" transform="translate(320.996094 0)"/>
     </g>
    </g>
   </g>
   <g id="patch_3">
    <path d="M 76.668295 226.718125 
L 76.668295 32.051458 
L 82.440796 32.051458 
L 82.440796 208.751975 
L 88.213296 208.751975 
L 88.213296 218.833937 
L 93.985797 218.833937 
L 93.985797 222.379112 
L 99.758298 222.379112 
L 99.758298 223.924385 
L 105.530798 223.924385 
L 105.530798 224.765334 
L 111.303299 224.765334 
L 111.303299 225.455524 
L 117.075799 225.455524 
L 117.075799 225.759396 
L 122.8483 225.759396 
L 122.8483 225.974934 
L 128.6208 225.974934 
L 128.6208 226.130403 
L 134.393301 226.130403 
L 134.393301 226.267028 
L 140.165801 226.267028 
L 140.165801 226.378919 
L 151.710802 226.427209 
L 151.710802 226.496699 
L 180.573305 226.597989 
L 180.573305 226.641568 
L 538.468337 226.716947 
L 538.468337 226.718125 
" clip-path="url(#p94b4707c20)" style="fill: none; stroke: #d62728; stroke-width: 1.8; stroke-linejoin: miter"/>
   </g>
   <g id="patch_4">
    <path d="M 76.668295 226.718125 
L 76.668295 51.6518 
L 82.76758 51.6518 
L 82.76758 207.216521 
L 88.866864 207.216521 
L 88.866864 216.883164 
L 94.966149 216.883164 
L 94.966149 220.85371 
L 101.065433 220.85371 
L 101.065433 223.042973 
L 107.164718 223.042973 
L 107.164718 224.343823 
L 113.264002 224.343823 
L 113.264002 225.038278 
L 119.363287 225.038278 
L 119.363287 225.516483 
L 125.462571 225.516483 
L 125.462571 225.841974 
L 131.561856 225.841974 
L 131.561856 226.097239 
L 137.66114 226.097239 
L 137.66114 226.251067 
L 149.859709 226.359193 
L 149.859709 226.456171 
L 168.157563 226.520824 
L 168.157563 226.5721 
L 204.75327 226.680225 
L 204.75327 226.689143 
L 564.611054 226.71701 
L 564.611054 226.718125 
" clip-path="url(#p94b4707c20)" style="fill: none; stroke: #1f77b4; stroke-width: 1.8; stroke-linejoin: miter"/>
   </g>
   <g id="patch_5">
    <path d="M 76.668295 226.718125 
L 76.668295 61.613402 
L 83.299432 61.613402 
L 83.299432 209.298424 
L 89.930568 209.298424 
L 89.930568 218.92591 
L 96.561705 218.92591 
L 96.561705 222.30322 
L 103.192841 222.30322 
L 103.192841 223.890371 
L 109.823977 223.890371 
L 109.823977 224.894132 
L 116.455114 224.894132 
L 116.455114 225.383196 
L 123.08625 225.383196 
L 123.08625 225.714365 
L 129.717386 225.714365 
L 129.717386 225.948131 
L 136.348523 225.948131 
L 136.348523 226.181898 
L 142.979659 226.181898 
L 142.979659 226.304933 
L 149.610795 226.304933 
L 149.610795 226.41874 
L 169.504205 226.499738 
L 169.504205 226.55818 
L 209.291023 226.662759 
L 209.291023 226.671987 
L 607.159205 226.7171 
L 607.159205 226.718125 
" clip-path="url(#p94b4707c20)" style="fill: none; stroke: #2ca02c; stroke-width: 1.8; stroke-linejoin: miter"/>
   </g>
   <g id="patch_6">
    <path d="M 50.14375 226.718125 
L 50.14375 22.318125 
" style="fill: none; stroke: #000000; stroke-width: 0.8; stroke-linejoin: miter; stroke-linecap: square"/>
   </g>
   <g id="patch_7">
    <path d="M 633.68375 226.718125 
L 633.68375 22.318125 
" style="fill: none; stroke: #000000; stroke-width: 0.8; stroke-linejoin: miter; stroke-linecap: square"/>
   </g>
   <g id="patch_8">
    <path d="M 50.14375 226.718125 
L 633.68375 226.718125 
" style="fill: none; stroke: #000000; stroke-width: 0.8; stroke-linejoin: miter; stroke-linecap: square"/>
   </g>
   <g id="patch_9">
    <path d="M 50.14375 22.318125 
L 633.68375 22.318125 
" style="fill: none; stroke: #000000; stroke-width: 0.8; stroke-linejoin: miter; stroke-linecap: square"/>
   </g>
   <g id="text_16">
    <!-- Raw Reg distribution by mark -->
    <g transform="translate(253.254375 16.318125) scale(0.12 -0.12)">
     <defs>
      <path id="DejaVuSans-52" d="M 2841 2188 
Q 3044 2119 3236 1894 
Q 3428 1669 3622 1275 
L 4263 0 
L 3584 0 
L 2988 1197 
Q 2756 1666 2539 1819 
Q 2322 1972 1947 1972 
L 1259 1972 
L 1259 0 
L 628 0 
L 628 4666 
L 2053 4666 
Q 2853 4666 3247 4331 
Q 3641 3997 3641 3322 
Q 3641 2881 3436 2590 
Q 3231 2300 2841 2188 
z
M 1259 4147 
L 1259 2491 
L 2053 2491 
Q 2509 2491 2742 2702 
Q 2975 2913 2975 3322 
Q 2975 3731 2742 3939 
Q 2509 4147 2053 4147 
L 1259 4147 
z
" transform="scale(0.015625)"/>
      <path id="DejaVuSans-67" d="M 2906 1791 
Q 2906 2416 2648 2759 
Q 2391 3103 1925 3103 
Q 1463 3103 1205 2759 
Q 947 2416 947 1791 
Q 947 1169 1205 825 
Q 1463 481 1925 481 
Q 2391 481 2648 825 
Q 2906 1169 2906 1791 
z
M 3481 434 
Q 3481 -459 3084 -895 
Q 2688 -1331 1869 -1331 
Q 1566 -1331 1297 -1286 
Q 1028 -1241 775 -1147 
L 775 -588 
Q 1028 -725 1275 -790 
Q 1522 -856 1778 -856 
Q 2344 -856 2625 -561 
Q 2906 -266 2906 331 
L 2906 616 
Q 2728 306 2450 153 
Q 2172 0 1784 0 
Q 1141 0 747 490 
Q 353 981 353 1791 
Q 353 2603 747 3093 
Q 1141 3584 1784 3584 
Q 2172 3584 2450 3431 
Q 2728 3278 2906 2969 
L 2906 3500 
L 3481 3500 
L 3481 434 
z
" transform="scale(0.015625)"/>
      <path id="DejaVuSans-75" d="M 544 1381 
L 544 3500 
L 1119 3500 
L 1119 1403 
Q 1119 906 1312 657 
Q 1506 409 1894 409 
Q 2359 409 2629 706 
Q 2900 1003 2900 1516 
L 2900 3500 
L 3475 3500 
L 3475 0 
L 2900 0 
L 2900 538 
Q 2691 219 2414 64 
Q 2138 -91 1772 -91 
Q 1169 -91 856 284 
Q 544 659 544 1381 
z
M 1991 3584 
L 1991 3584 
z
" transform="scale(0.015625)"/>
     </defs>
     <use xlink:href="#DejaVuSans-52"/>
     <use xlink:href="#DejaVuSans-61" transform="translate(67.232422 0)"/>
     <use xlink:href="#DejaVuSans-77" transform="translate(128.511719 0)"/>
     <use xlink:href="#DejaVuSans-20" transform="translate(210.298828 0)"/>
     <use xlink:href="#DejaVuSans-52" transform="translate(242.085938 0)"/>
     <use xlink:href="#DejaVuSans-65" transform="translate(307.068359 0)"/>
     <use xlink:href="#DejaVuSans-67" transform="translate(368.591797 0)"/>
     <use xlink:href="#DejaVuSans-20" transform="translate(432.068359 0)"/>
     <use xlink:href="#DejaVuSans-64" transform="translate(463.855469 0)"/>
     <use xlink:href="#DejaVuSans-69" transform="translate(527.332031 0)"/>
     <use xlink:href="#DejaVuSans-73" transform="translate(555.115234 0)"/>
     <use xlink:href="#DejaVuSans-74" transform="translate(607.214844 0)"/>
     <use xlink:href="#DejaVuSans-72" transform="translate(646.423828 0)"/>
     <use xlink:href="#DejaVuSans-69" transform="translate(687.537109 0)"/>
     <use xlink:href="#DejaVuSans-62" transform="translate(715.320312 0)"/>
     <use xlink:href="#DejaVuSans-75" transform="translate(778.796875 0)"/>
     <use xlink:href="#DejaVuSans-74" transform="translate(842.175781 0)"/>
     <use xlink:href="#DejaVuSans-69" transform="translate(881.384766 0)"/>
     <use xlink:href="#DejaVuSans-6f" transform="translate(909.167969 0)"/>
     <use xlink:href="#DejaVuSans-6e" transform="translate(970.349609 0)"/>
     <use xlink:href="#DejaVuSans-20" transform="translate(1033.728516 0)"/>
     <use xlink:href="#DejaVuSans-62" transform="translate(1065.515625 0)"/>
     <use xlink:href="#DejaVuSans-79" transform="translate(1128.992188 0)"/>
     <use xlink:href="#DejaVuSans-20" transform="translate(1188.171875 0)"/>
     <use xlink:href="#DejaVuSans-6d" transform="translate(1219.958984 0)"/>
     <use xlink:href="#DejaVuSans-61" transform="translate(1317.371094 0)"/>
     <use xlink:href="#DejaVuSans-72" transform="translate(1378.650391 0)"/>
     <use xlink:href="#DejaVuSans-6b" transform="translate(1419.763672 0)"/>
    </g>
   </g>
   <g id="legend_1">
    <g id="patch_10">
     <path d="M 541.211875 89.030625 
L 626.68375 89.030625 
Q 628.68375 89.030625 628.68375 87.030625 
L 628.68375 29.318125 
Q 628.68375 27.318125 626.68375 27.318125 
L 541.211875 27.318125 
Q 539.211875 27.318125 539.211875 29.318125 
L 539.211875 87.030625 
Q 539.211875 89.030625 541.211875 89.030625 
z
" style="fill: #ffffff; opacity: 0.8; stroke: #cccccc; stroke-linejoin: miter"/>
    </g>
    <g id="text_17">
     <!-- Mark -->
     <g transform="translate(571.618906 38.916562) scale(0.1 -0.1)">
      <defs>
       <path id="DejaVuSans-4d" d="M 628 4666 
L 1569 4666 
L 2759 1491 
L 3956 4666 
L 4897 4666 
L 4897 0 
L 4281 0 
L 4281 4097 
L 3078 897 
L 2444 897 
L 1241 4097 
L 1241 0 
L 628 0 
L 628 4666 
z
" transform="scale(0.015625)"/>
      </defs>
      <use xlink:href="#DejaVuSans-4d"/>
      <use xlink:href="#DejaVuSans-61" transform="translate(86.279297 0)"/>
      <use xlink:href="#DejaVuSans-72" transform="translate(147.558594 0)"/>
      <use xlink:href="#DejaVuSans-6b" transform="translate(188.671875 0)"/>
     </g>
    </g>
    <g id="patch_11">
     <path d="M 543.211875 53.594687 
L 563.211875 53.594687 
L 563.211875 46.594687 
L 543.211875 46.594687 
L 543.211875 53.594687 
z
" style="fill: none; stroke: #d62728; stroke-width: 1.8; stroke-linejoin: miter"/>
    </g>
    <g id="text_18">
     <!-- h3k27ac -->
     <g transform="translate(571.211875 53.594687) scale(0.1 -0.1)">
      <defs>
       <path id="DejaVuSans-68" d="M 3513 2113 
L 3513 0 
L 2938 0 
L 2938 2094 
Q 2938 2591 2744 2837 
Q 2550 3084 2163 3084 
Q 1697 3084 1428 2787 
Q 1159 2491 1159 1978 
L 1159 0 
L 581 0 
L 581 4863 
L 1159 4863 
L 1159 2956 
Q 1366 3272 1645 3428 
Q 1925 3584 2291 3584 
Q 2894 3584 3203 3211 
Q 3513 2838 3513 2113 
z
" transform="scale(0.015625)"/>
       <path id="DejaVuSans-37" d="M 525 4666 
L 3525 4666 
L 3525 4397 
L 1831 0 
L 1172 0 
L 2766 4134 
L 525 4134 
L 525 4666 
z
" transform="scale(0.015625)"/>
       <path id="DejaVuSans-63" d="M 3122 3366 
L 3122 2828 
Q 2878 2963 2633 3030 
Q 2388 3097 2138 3097 
Q 1578 3097 1268 2742 
Q 959 2388 959 1747 
Q 959 1106 1268 751 
Q 1578 397 2138 397 
Q 2388 397 2633 464 
Q 2878 531 3122 666 
L 3122 134 
Q 2881 22 2623 -34 
Q 2366 -91 2075 -91 
Q 1284 -91 818 406 
Q 353 903 353 1747 
Q 353 2603 823 3093 
Q 1294 3584 2113 3584 
Q 2378 3584 2631 3529 
Q 2884 3475 3122 3366 
z
" transform="scale(0.015625)"/>
      </defs>
      <use xlink:href="#DejaVuSans-68"/>
      <use xlink:href="#DejaVuSans-33" transform="translate(63.378906 0)"/>
      <use xlink:href="#DejaVuSans-6b" transform="translate(127.001953 0)"/>
      <use xlink:href="#DejaVuSans-32" transform="translate(184.912109 0)"/>
      <use xlink:href="#DejaVuSans-37" transform="translate(248.535156 0)"/>
      <use xlink:href="#DejaVuSans-61" transform="translate(312.158203 0)"/>
      <use xlink:href="#DejaVuSans-63" transform="translate(373.4375 0)"/>
     </g>
    </g>
    <g id="patch_12">
     <path d="M 543.211875 68.272812 
L 563.211875 68.272812 
L 563.211875 61.272812 
L 543.211875 61.272812 
L 543.211875 68.272812 
z
" style="fill: none; stroke: #1f77b4; stroke-width: 1.8; stroke-linejoin: miter"/>
    </g>
    <g id="text_19">
     <!-- h3k27me3 -->
     <g transform="translate(571.211875 68.272812) scale(0.1 -0.1)">
      <use xlink:href="#DejaVuSans-68"/>
      <use xlink:href="#DejaVuSans-33" transform="translate(63.378906 0)"/>
      <use xlink:href="#DejaVuSans-6b" transform="translate(127.001953 0)"/>
      <use xlink:href="#DejaVuSans-32" transform="translate(184.912109 0)"/>
      <use xlink:href="#DejaVuSans-37" transform="translate(248.535156 0)"/>
      <use xlink:href="#DejaVuSans-6d" transform="translate(312.158203 0)"/>
      <use xlink:href="#DejaVuSans-65" transform="translate(409.570312 0)"/>
      <use xlink:href="#DejaVuSans-33" transform="translate(471.09375 0)"/>
     </g>
    </g>
    <g id="patch_13">
     <path d="M 543.211875 82.950937 
L 563.211875 82.950937 
L 563.211875 75.950937 
L 543.211875 75.950937 
L 543.211875 82.950937 
z
" style="fill: none; stroke: #2ca02c; stroke-width: 1.8; stroke-linejoin: miter"/>
    </g>
    <g id="text_20">
     <!-- h3k4me3 -->
     <g transform="translate(571.211875 82.950937) scale(0.1 -0.1)">
      <defs>
       <path id="DejaVuSans-34" d="M 2419 4116 
L 825 1625 
L 2419 1625 
L 2419 4116 
z
M 2253 4666 
L 3047 4666 
L 3047 1625 
L 3713 1625 
L 3713 1100 
L 3047 1100 
L 3047 0 
L 2419 0 
L 2419 1100 
L 313 1100 
L 313 1709 
L 2253 4666 
z
" transform="scale(0.015625)"/>
      </defs>
      <use xlink:href="#DejaVuSans-68"/>
      <use xlink:href="#DejaVuSans-33" transform="translate(63.378906 0)"/>
      <use xlink:href="#DejaVuSans-6b" transform="translate(127.001953 0)"/>
      <use xlink:href="#DejaVuSans-34" transform="translate(184.912109 0)"/>
      <use xlink:href="#DejaVuSans-6d" transform="translate(248.535156 0)"/>
      <use xlink:href="#DejaVuSans-65" transform="translate(345.947266 0)"/>
      <use xlink:href="#DejaVuSans-33" transform="translate(407.470703 0)"/>
     </g>
    </g>
   </g>
  </g>
  <g id="axes_2">
   <g id="patch_14">
    <path d="M 50.14375 487.718125 
L 633.68375 487.718125 
L 633.68375 283.318125 
L 50.14375 283.318125 
z
" style="fill: #ffffff"/>
   </g>
   <g id="matplotlib.axis_3">
    <g id="xtick_9">
     <g id="line2d_14">
      <g>
       <use xlink:href="#med8c0fac8a" x="76.668295" y="487.718125" style="stroke: #000000; stroke-width: 0.8"/>
      </g>
     </g>
     <g id="text_21">
      <!-- 0 -->
      <g transform="translate(73.487045 502.316563) scale(0.1 -0.1)">
       <use xlink:href="#DejaVuSans-30"/>
      </g>
     </g>
    </g>
    <g id="xtick_10">
     <g id="line2d_15">
      <g>
       <use xlink:href="#med8c0fac8a" x="167.133338" y="487.718125" style="stroke: #000000; stroke-width: 0.8"/>
      </g>
     </g>
     <g id="text_22">
      <!-- 1 -->
      <g transform="translate(163.952088 502.316563) scale(0.1 -0.1)">
       <use xlink:href="#DejaVuSans-31"/>
      </g>
     </g>
    </g>
    <g id="xtick_11">
     <g id="line2d_16">
      <g>
       <use xlink:href="#med8c0fac8a" x="257.59838" y="487.718125" style="stroke: #000000; stroke-width: 0.8"/>
      </g>
     </g>
     <g id="text_23">
      <!-- 2 -->
      <g transform="translate(254.41713 502.316563) scale(0.1 -0.1)">
       <use xlink:href="#DejaVuSans-32"/>
      </g>
     </g>
    </g>
    <g id="xtick_12">
     <g id="line2d_17">
      <g>
       <use xlink:href="#med8c0fac8a" x="348.063422" y="487.718125" style="stroke: #000000; stroke-width: 0.8"/>
      </g>
     </g>
     <g id="text_24">
      <!-- 3 -->
      <g transform="translate(344.882172 502.316563) scale(0.1 -0.1)">
       <use xlink:href="#DejaVuSans-33"/>
      </g>
     </g>
    </g>
    <g id="xtick_13">
     <g id="line2d_18">
      <g>
       <use xlink:href="#med8c0fac8a" x="438.528464" y="487.718125" style="stroke: #000000; stroke-width: 0.8"/>
      </g>
     </g>
     <g id="text_25">
      <!-- 4 -->
      <g transform="translate(435.347214 502.316563) scale(0.1 -0.1)">
       <use xlink:href="#DejaVuSans-34"/>
      </g>
     </g>
    </g>
    <g id="xtick_14">
     <g id="line2d_19">
      <g>
       <use xlink:href="#med8c0fac8a" x="528.993506" y="487.718125" style="stroke: #000000; stroke-width: 0.8"/>
      </g>
     </g>
     <g id="text_26">
      <!-- 5 -->
      <g transform="translate(525.812256 502.316563) scale(0.1 -0.1)">
       <use xlink:href="#DejaVuSans-35"/>
      </g>
     </g>
    </g>
    <g id="xtick_15">
     <g id="line2d_20">
      <g>
       <use xlink:href="#med8c0fac8a" x="619.458548" y="487.718125" style="stroke: #000000; stroke-width: 0.8"/>
      </g>
     </g>
     <g id="text_27">
      <!-- 6 -->
      <g transform="translate(616.277298 502.316563) scale(0.1 -0.1)">
       <defs>
        <path id="DejaVuSans-36" d="M 2113 2584 
Q 1688 2584 1439 2293 
Q 1191 2003 1191 1497 
Q 1191 994 1439 701 
Q 1688 409 2113 409 
Q 2538 409 2786 701 
Q 3034 994 3034 1497 
Q 3034 2003 2786 2293 
Q 2538 2584 2113 2584 
z
M 3366 4563 
L 3366 3988 
Q 3128 4100 2886 4159 
Q 2644 4219 2406 4219 
Q 1781 4219 1451 3797 
Q 1122 3375 1075 2522 
Q 1259 2794 1537 2939 
Q 1816 3084 2150 3084 
Q 2853 3084 3261 2657 
Q 3669 2231 3669 1497 
Q 3669 778 3244 343 
Q 2819 -91 2113 -91 
Q 1303 -91 875 529 
Q 447 1150 447 2328 
Q 447 3434 972 4092 
Q 1497 4750 2381 4750 
Q 2619 4750 2861 4703 
Q 3103 4656 3366 4563 
z
" transform="scale(0.015625)"/>
       </defs>
       <use xlink:href="#DejaVuSans-36"/>
      </g>
     </g>
    </g>
    <g id="text_28">
     <!-- log1p(A_mod_density_per_kb) -->
     <g transform="translate(266.80125 515.994688) scale(0.1 -0.1)">
      <defs>
       <path id="DejaVuSans-6c" d="M 603 4863 
L 1178 4863 
L 1178 0 
L 603 0 
L 603 4863 
z
" transform="scale(0.015625)"/>
      </defs>
      <use xlink:href="#DejaVuSans-6c"/>
      <use xlink:href="#DejaVuSans-6f" transform="translate(27.783203 0)"/>
      <use xlink:href="#DejaVuSans-67" transform="translate(88.964844 0)"/>
      <use xlink:href="#DejaVuSans-31" transform="translate(152.441406 0)"/>
      <use xlink:href="#DejaVuSans-70" transform="translate(216.064453 0)"/>
      <use xlink:href="#DejaVuSans-28" transform="translate(279.541016 0)"/>
      <use xlink:href="#DejaVuSans-41" transform="translate(318.554688 0)"/>
      <use xlink:href="#DejaVuSans-5f" transform="translate(386.962891 0)"/>
      <use xlink:href="#DejaVuSans-6d" transform="translate(436.962891 0)"/>
      <use xlink:href="#DejaVuSans-6f" transform="translate(534.375 0)"/>
      <use xlink:href="#DejaVuSans-64" transform="translate(595.556641 0)"/>
      <use xlink:href="#DejaVuSans-5f" transform="translate(659.033203 0)"/>
      <use xlink:href="#DejaVuSans-64" transform="translate(709.033203 0)"/>
      <use xlink:href="#DejaVuSans-65" transform="translate(772.509766 0)"/>
      <use xlink:href="#DejaVuSans-6e" transform="translate(834.033203 0)"/>
      <use xlink:href="#DejaVuSans-73" transform="translate(897.412109 0)"/>
      <use xlink:href="#DejaVuSans-69" transform="translate(949.511719 0)"/>
      <use xlink:href="#DejaVuSans-74" transform="translate(977.294922 0)"/>
      <use xlink:href="#DejaVuSans-79" transform="translate(1016.503906 0)"/>
      <use xlink:href="#DejaVuSans-5f" transform="translate(1075.683594 0)"/>
      <use xlink:href="#DejaVuSans-70" transform="translate(1125.683594 0)"/>
      <use xlink:href="#DejaVuSans-65" transform="translate(1189.160156 0)"/>
      <use xlink:href="#DejaVuSans-72" transform="translate(1250.683594 0)"/>
      <use xlink:href="#DejaVuSans-5f" transform="translate(1291.796875 0)"/>
      <use xlink:href="#DejaVuSans-6b" transform="translate(1341.796875 0)"/>
      <use xlink:href="#DejaVuSans-62" transform="translate(1399.707031 0)"/>
      <use xlink:href="#DejaVuSans-29" transform="translate(1463.183594 0)"/>
     </g>
    </g>
   </g>
   <g id="matplotlib.axis_4">
    <g id="ytick_6">
     <g id="line2d_21">
      <g>
       <use xlink:href="#m827b88651d" x="50.14375" y="487.718125" style="stroke: #000000; stroke-width: 0.8"/>
      </g>
     </g>
     <g id="text_29">
      <!-- 0 -->
      <g transform="translate(36.78125 491.517344) scale(0.1 -0.1)">
       <use xlink:href="#DejaVuSans-30"/>
      </g>
     </g>
    </g>
    <g id="ytick_7">
     <g id="line2d_22">
      <g>
       <use xlink:href="#m827b88651d" x="50.14375" y="454.775886" style="stroke: #000000; stroke-width: 0.8"/>
      </g>
     </g>
     <g id="text_30">
      <!-- 1 -->
      <g transform="translate(36.78125 458.575105) scale(0.1 -0.1)">
       <use xlink:href="#DejaVuSans-31"/>
      </g>
     </g>
    </g>
    <g id="ytick_8">
     <g id="line2d_23">
      <g>
       <use xlink:href="#m827b88651d" x="50.14375" y="421.833648" style="stroke: #000000; stroke-width: 0.8"/>
      </g>
     </g>
     <g id="text_31">
      <!-- 2 -->
      <g transform="translate(36.78125 425.632866) scale(0.1 -0.1)">
       <use xlink:href="#DejaVuSans-32"/>
      </g>
     </g>
    </g>
    <g id="ytick_9">
     <g id="line2d_24">
      <g>
       <use xlink:href="#m827b88651d" x="50.14375" y="388.891409" style="stroke: #000000; stroke-width: 0.8"/>
      </g>
     </g>
     <g id="text_32">
      <!-- 3 -->
      <g transform="translate(36.78125 392.690628) scale(0.1 -0.1)">
       <use xlink:href="#DejaVuSans-33"/>
      </g>
     </g>
    </g>
    <g id="ytick_10">
     <g id="line2d_25">
      <g>
       <use xlink:href="#m827b88651d" x="50.14375" y="355.94917" style="stroke: #000000; stroke-width: 0.8"/>
      </g>
     </g>
     <g id="text_33">
      <!-- 4 -->
      <g transform="translate(36.78125 359.748389) scale(0.1 -0.1)">
       <use xlink:href="#DejaVuSans-34"/>
      </g>
     </g>
    </g>
    <g id="ytick_11">
     <g id="line2d_26">
      <g>
       <use xlink:href="#m827b88651d" x="50.14375" y="323.006931" style="stroke: #000000; stroke-width: 0.8"/>
      </g>
     </g>
     <g id="text_34">
      <!-- 5 -->
      <g transform="translate(36.78125 326.80615) scale(0.1 -0.1)">
       <use xlink:href="#DejaVuSans-35"/>
      </g>
     </g>
    </g>
    <g id="ytick_12">
     <g id="line2d_27">
      <g>
       <use xlink:href="#m827b88651d" x="50.14375" y="290.064693" style="stroke: #000000; stroke-width: 0.8"/>
      </g>
     </g>
     <g id="text_35">
      <!-- 6 -->
      <g transform="translate(36.78125 293.863911) scale(0.1 -0.1)">
       <use xlink:href="#DejaVuSans-36"/>
      </g>
     </g>
    </g>
    <g id="text_36">
     <!-- Density -->
     <g transform="translate(30.701562 404.526719) rotate(-90) scale(0.1 -0.1)">
      <use xlink:href="#DejaVuSans-44"/>
      <use xlink:href="#DejaVuSans-65" transform="translate(77.001953 0)"/>
      <use xlink:href="#DejaVuSans-6e" transform="translate(138.525391 0)"/>
      <use xlink:href="#DejaVuSans-73" transform="translate(201.904297 0)"/>
      <use xlink:href="#DejaVuSans-69" transform="translate(254.003906 0)"/>
      <use xlink:href="#DejaVuSans-74" transform="translate(281.787109 0)"/>
      <use xlink:href="#DejaVuSans-79" transform="translate(320.996094 0)"/>
     </g>
    </g>
   </g>
   <g id="patch_15">
    <path d="M 76.668295 487.718125 
L 76.668295 294.736189 
L 83.143099 294.736189 
L 83.143099 475.949166 
L 89.617902 475.949166 
L 89.617902 474.975707 
L 96.092705 474.975707 
L 96.092705 474.621303 
L 102.567508 474.621303 
L 102.567508 475.509613 
L 109.042311 475.509613 
L 109.042311 476.20001 
L 115.517114 476.20001 
L 115.517114 476.825969 
L 121.991917 476.825969 
L 121.991917 477.203386 
L 128.466721 477.203386 
L 128.466721 477.932905 
L 134.941524 477.932905 
L 134.941524 478.291911 
L 141.416327 478.291911 
L 141.416327 478.696944 
L 147.89113 478.696944 
L 147.89113 478.943185 
L 154.365933 478.943185 
L 154.365933 479.520817 
L 160.840736 479.520817 
L 160.840736 479.796976 
L 173.790342 479.836098 
L 173.790342 480.512687 
L 180.265146 480.512687 
L 180.265146 481.108729 
L 193.214752 481.136345 
L 193.214752 481.373381 
L 199.689555 481.373381 
L 199.689555 481.73699 
L 206.164358 481.73699 
L 206.164358 482.162734 
L 219.113964 482.234075 
L 219.113964 482.494125 
L 225.588767 482.494125 
L 225.588767 482.733462 
L 232.063571 482.733462 
L 232.063571 483.214438 
L 245.013177 483.228246 
L 245.013177 483.453776 
L 251.48798 483.453776 
L 251.48798 483.911739 
L 257.962783 483.911739 
L 257.962783 484.075133 
L 270.912389 484.111954 
L 270.912389 484.300662 
L 277.387193 484.300662 
L 277.387193 484.553808 
L 283.861996 484.553808 
L 283.861996 484.684983 
L 290.336799 484.684983 
L 290.336799 484.970347 
L 303.286405 484.903609 
L 303.286405 485.101522 
L 309.761208 485.101522 
L 309.761208 485.46283 
L 322.710814 485.430611 
L 322.710814 485.709071 
L 335.660421 485.805727 
L 335.660421 485.833343 
L 342.135224 485.833343 
L 342.135224 485.955313 
L 355.08483 485.994435 
L 355.08483 486.222266 
L 361.559633 486.222266 
L 361.559633 486.431686 
L 374.509239 486.498424 
L 374.509239 486.634202 
L 387.458846 486.698639 
L 387.458846 486.749269 
L 400.408452 486.834417 
L 400.408452 486.94258 
L 413.358058 487.050742 
L 413.358058 487.103672 
L 426.307665 487.115179 
L 426.307665 487.234847 
L 445.732074 487.315394 
L 445.732074 487.428158 
L 471.631286 487.51791 
L 471.631286 487.580046 
L 523.429712 487.685906 
L 523.429712 487.69281 
L 594.652546 487.715824 
L 594.652546 487.718125 
" clip-path="url(#p7fbe565be8)" style="fill: none; stroke: #d62728; stroke-width: 1.8; stroke-linejoin: miter"/>
   </g>
   <g id="patch_16">
    <path d="M 76.668295 487.718125 
L 76.668295 293.051458 
L 83.20517 293.051458 
L 83.20517 477.811552 
L 89.742046 477.811552 
L 89.742046 477.264479 
L 96.278921 477.264479 
L 96.278921 477.802434 
L 102.815796 477.802434 
L 102.815796 478.354066 
L 109.352671 478.354066 
L 109.352671 478.885182 
L 115.889546 478.885182 
L 115.889546 479.113129 
L 122.426421 479.113129 
L 122.426421 479.359312 
L 128.963296 479.359312 
L 128.963296 480.056829 
L 135.500171 480.056829 
L 135.500171 479.885869 
L 142.037046 479.885869 
L 142.037046 480.200436 
L 148.573921 480.200436 
L 148.573921 480.344042 
L 155.110796 480.344042 
L 155.110796 480.717875 
L 168.184546 480.633535 
L 168.184546 480.289335 
L 174.721421 480.289335 
L 174.721421 481.098547 
L 181.258296 481.098547 
L 181.258296 481.294581 
L 194.332046 481.194284 
L 194.332046 481.007368 
L 200.868921 481.007368 
L 200.868921 481.488336 
L 207.405796 481.488336 
L 207.405796 481.891802 
L 213.942671 481.891802 
L 213.942671 482.053644 
L 220.479546 482.053644 
L 220.479546 482.254237 
L 227.016421 482.254237 
L 227.016421 482.493582 
L 246.627046 482.404682 
L 246.627046 482.771677 
L 253.163921 482.771677 
L 253.163921 483.024698 
L 259.700797 483.024698 
L 259.700797 483.35978 
L 285.848297 483.286837 
L 285.848297 483.772364 
L 298.922047 483.813394 
L 298.922047 484.080092 
L 305.458922 484.080092 
L 305.458922 484.223699 
L 318.532672 484.296642 
L 318.532672 484.624885 
L 331.606422 484.636283 
L 331.606422 484.852832 
L 338.143297 484.852832 
L 338.143297 485.108133 
L 344.680172 485.108133 
L 344.680172 485.240342 
L 351.217047 485.240342 
L 351.217047 485.534394 
L 357.753922 485.534394 
L 357.753922 485.668882 
L 364.290797 485.668882 
L 364.290797 485.855799 
L 370.827672 485.855799 
L 370.827672 486.017641 
L 377.364547 486.017641 
L 377.364547 486.241029 
L 390.438297 486.291177 
L 390.438297 486.45074 
L 396.975172 486.45074 
L 396.975172 486.630818 
L 410.048922 486.731115 
L 410.048922 486.963621 
L 423.122672 487.002372 
L 423.122672 487.107227 
L 429.659547 487.107227 
L 429.659547 487.234878 
L 449.270173 487.296423 
L 449.270173 487.389881 
L 468.880798 487.490178 
L 468.880798 487.542606 
L 495.028298 487.622387 
L 495.028298 487.663418 
L 599.618298 487.715846 
L 599.618298 487.718125 
" clip-path="url(#p7fbe565be8)" style="fill: none; stroke: #1f77b4; stroke-width: 1.8; stroke-linejoin: miter"/>
   </g>
   <g id="patch_17">
    <path d="M 76.668295 487.718125 
L 76.668295 320.682429 
L 83.299432 320.682429 
L 83.299432 477.147924 
L 89.930568 477.147924 
L 89.930568 475.810919 
L 96.561705 475.810919 
L 96.561705 476.013155 
L 109.823977 476.109779 
L 109.823977 476.878276 
L 116.455114 476.878276 
L 116.455114 477.287242 
L 129.717386 477.226571 
L 129.717386 477.833279 
L 136.348523 477.833279 
L 136.348523 478.251233 
L 142.979659 478.251233 
L 142.979659 478.637729 
L 156.241932 478.601776 
L 156.241932 479.473638 
L 162.873068 479.473638 
L 162.873068 479.237696 
L 176.135341 479.18826 
L 176.135341 479.87811 
L 182.766477 479.87811 
L 182.766477 480.221911 
L 189.397614 480.221911 
L 189.397614 480.40617 
L 196.02875 480.40617 
L 196.02875 480.707277 
L 202.659886 480.707277 
L 202.659886 481.199385 
L 209.291023 481.199385 
L 209.291023 481.367915 
L 215.922159 481.367915 
L 215.922159 481.529704 
L 222.553295 481.529704 
L 222.553295 481.860022 
L 229.184432 481.860022 
L 229.184432 482.376848 
L 242.446705 482.289212 
L 242.446705 482.572342 
L 249.077841 482.572342 
L 249.077841 483.250957 
L 268.97125 483.15658 
L 268.97125 483.565546 
L 282.233523 483.673405 
L 282.233523 484.03743 
L 295.495795 484.136301 
L 295.495795 484.365502 
L 308.758068 484.473361 
L 308.758068 484.563243 
L 315.389205 484.563243 
L 315.389205 484.884574 
L 322.020341 484.884574 
L 322.020341 485.019398 
L 335.282614 485.120516 
L 335.282614 485.363199 
L 348.544886 485.381176 
L 348.544886 485.686777 
L 361.807159 485.785648 
L 361.807159 485.949684 
L 368.438295 485.949684 
L 368.438295 486.154167 
L 381.700568 486.205849 
L 381.700568 486.338426 
L 394.962841 486.34292 
L 394.962841 486.583356 
L 408.225114 486.617062 
L 408.225114 486.742898 
L 414.85625 486.742898 
L 414.85625 486.893452 
L 421.487386 486.893452 
L 421.487386 487.039511 
L 434.749659 487.104676 
L 434.749659 487.237253 
L 454.643068 487.2777 
L 454.643068 487.390053 
L 467.905341 487.434995 
L 467.905341 487.513642 
L 494.429886 487.596783 
L 494.429886 487.625995 
L 607.159205 487.715878 
L 607.159205 487.718125 
" clip-path="url(#p7fbe565be8)" style="fill: none; stroke: #2ca02c; stroke-width: 1.8; stroke-linejoin: miter"/>
   </g>
   <g id="patch_18">
    <path d="M 50.14375 487.718125 
L 50.14375 283.318125 
" style="fill: none; stroke: #000000; stroke-width: 0.8; stroke-linejoin: miter; stroke-linecap: square"/>
   </g>
   <g id="patch_19">
    <path d="M 633.68375 487.718125 
L 633.68375 283.318125 
" style="fill: none; stroke: #000000; stroke-width: 0.8; stroke-linejoin: miter; stroke-linecap: square"/>
   </g>
   <g id="patch_20">
    <path d="M 50.14375 487.718125 
L 633.68375 487.718125 
" style="fill: none; stroke: #000000; stroke-width: 0.8; stroke-linejoin: miter; stroke-linecap: square"/>
   </g>
   <g id="patch_21">
    <path d="M 50.14375 283.318125 
L 633.68375 283.318125 
" style="fill: none; stroke: #000000; stroke-width: 0.8; stroke-linejoin: miter; stroke-linecap: square"/>
   </g>
   <g id="text_37">
    <!-- Reg distribution by mark (log1p transformed) -->
    <g transform="translate(205.595625 277.318125) scale(0.12 -0.12)">
     <defs>
      <path id="DejaVuSans-66" d="M 2375 4863 
L 2375 4384 
L 1825 4384 
Q 1516 4384 1395 4259 
Q 1275 4134 1275 3809 
L 1275 3500 
L 2222 3500 
L 2222 3053 
L 1275 3053 
L 1275 0 
L 697 0 
L 697 3053 
L 147 3053 
L 147 3500 
L 697 3500 
L 697 3744 
Q 697 4328 969 4595 
Q 1241 4863 1831 4863 
L 2375 4863 
z
" transform="scale(0.015625)"/>
     </defs>
     <use xlink:href="#DejaVuSans-52"/>
     <use xlink:href="#DejaVuSans-65" transform="translate(64.982422 0)"/>
     <use xlink:href="#DejaVuSans-67" transform="translate(126.505859 0)"/>
     <use xlink:href="#DejaVuSans-20" transform="translate(189.982422 0)"/>
     <use xlink:href="#DejaVuSans-64" transform="translate(221.769531 0)"/>
     <use xlink:href="#DejaVuSans-69" transform="translate(285.246094 0)"/>
     <use xlink:href="#DejaVuSans-73" transform="translate(313.029297 0)"/>
     <use xlink:href="#DejaVuSans-74" transform="translate(365.128906 0)"/>
     <use xlink:href="#DejaVuSans-72" transform="translate(404.337891 0)"/>
     <use xlink:href="#DejaVuSans-69" transform="translate(445.451172 0)"/>
     <use xlink:href="#DejaVuSans-62" transform="translate(473.234375 0)"/>
     <use xlink:href="#DejaVuSans-75" transform="translate(536.710938 0)"/>
     <use xlink:href="#DejaVuSans-74" transform="translate(600.089844 0)"/>
     <use xlink:href="#DejaVuSans-69" transform="translate(639.298828 0)"/>
     <use xlink:href="#DejaVuSans-6f" transform="translate(667.082031 0)"/>
     <use xlink:href="#DejaVuSans-6e" transform="translate(728.263672 0)"/>
     <use xlink:href="#DejaVuSans-20" transform="translate(791.642578 0)"/>
     <use xlink:href="#DejaVuSans-62" transform="translate(823.429688 0)"/>
     <use xlink:href="#DejaVuSans-79" transform="translate(886.90625 0)"/>
     <use xlink:href="#DejaVuSans-20" transform="translate(946.085938 0)"/>
     <use xlink:href="#DejaVuSans-6d" transform="translate(977.873047 0)"/>
     <use xlink:href="#DejaVuSans-61" transform="translate(1075.285156 0)"/>
     <use xlink:href="#DejaVuSans-72" transform="translate(1136.564453 0)"/>
     <use xlink:href="#DejaVuSans-6b" transform="translate(1177.677734 0)"/>
     <use xlink:href="#DejaVuSans-20" transform="translate(1235.587891 0)"/>
     <use xlink:href="#DejaVuSans-28" transform="translate(1267.375 0)"/>
     <use xlink:href="#DejaVuSans-6c" transform="translate(1306.388672 0)"/>
     <use xlink:href="#DejaVuSans-6f" transform="translate(1334.171875 0)"/>
     <use xlink:href="#DejaVuSans-67" transform="translate(1395.353516 0)"/>
     <use xlink:href="#DejaVuSans-31" transform="translate(1458.830078 0)"/>
     <use xlink:href="#DejaVuSans-70" transform="translate(1522.453125 0)"/>
     <use xlink:href="#DejaVuSans-20" transform="translate(1585.929688 0)"/>
     <use xlink:href="#DejaVuSans-74" transform="translate(1617.716797 0)"/>
     <use xlink:href="#DejaVuSans-72" transform="translate(1656.925781 0)"/>
     <use xlink:href="#DejaVuSans-61" transform="translate(1698.039062 0)"/>
     <use xlink:href="#DejaVuSans-6e" transform="translate(1759.318359 0)"/>
     <use xlink:href="#DejaVuSans-73" transform="translate(1822.697266 0)"/>
     <use xlink:href="#DejaVuSans-66" transform="translate(1874.796875 0)"/>
     <use xlink:href="#DejaVuSans-6f" transform="translate(1910.001953 0)"/>
     <use xlink:href="#DejaVuSans-72" transform="translate(1971.183594 0)"/>
     <use xlink:href="#DejaVuSans-6d" transform="translate(2010.546875 0)"/>
     <use xlink:href="#DejaVuSans-65" transform="translate(2107.958984 0)"/>
     <use xlink:href="#DejaVuSans-64" transform="translate(2169.482422 0)"/>
     <use xlink:href="#DejaVuSans-29" transform="translate(2232.958984 0)"/>
    </g>
   </g>
  </g>
 </g>
 <defs>
  <clipPath id="p94b4707c20">
   <rect x="50.14375" y="22.318125" width="583.54" height="204.4"/>
  </clipPath>
  <clipPath id="p7fbe565be8">
   <rect x="50.14375" y="283.318125" width="583.54" height="204.4"/>
  </clipPath>
 </defs>
</svg>
