<?xml version="1.0" encoding="utf-8" standalone="no"?>
<!DOCTYPE svg PUBLIC "-//W3C//DTD SVG 1.1//EN"
  "http://www.w3.org/Graphics/SVG/1.1/DTD/svg11.dtd">
<svg xmlns:xlink="http://www.w3.org/1999/xlink" width="546.943525pt" height="414.690375pt" viewBox="0 0 546.943525 414.690375" xmlns="http://www.w3.org/2000/svg" version="1.1">
 <metadata>
  <rdf:RDF xmlns:dc="http://purl.org/dc/elements/1.1/" xmlns:cc="http://creativecommons.org/ns#" xmlns:rdf="http://www.w3.org/1999/02/22-rdf-syntax-ns#">
   <cc:Work>
    <dc:type rdf:resource="http://purl.org/dc/dcmitype/StillImage"/>
    <dc:date>2026-03-06T14:45:20.639286</dc:date>
    <dc:format>image/svg+xml</dc:format>
    <dc:creator>
     <cc:Agent>
      <dc:title>Matplotlib v3.10.8, https://matplotlib.org/</dc:title>
     </cc:Agent>
    </dc:creator>
   </cc:Work>
  </rdf:RDF>
 </metadata>
 <defs>
  <style type="text/css">*{stroke-linejoin: round; stroke-linecap: butt}</style>
 </defs>
 <g id="figure_1">
  <g id="patch_1">
   <path d="M 0 414.690375 
L 546.943525 414.690375 
L 546.943525 0 
L 0 0 
z
" style="fill: #ffffff"/>
  </g>
  <g id="axes_1">
   <g id="patch_2">
    <path d="M 43.78125 377.134125 
L 442.30125 377.134125 
L 442.30125 22.318125 
L 43.78125 22.318125 
z
" style="fill: #ffffff"/>
   </g>
   <g id="matplotlib.axis_1">
    <g id="xtick_1">
     <g id="line2d_1">
      <defs>
       <path id="ma5ae0eac55" d="M 0 0 
L 0 3.5 
" style="stroke: #000000; stroke-width: 0.8"/>
      </defs>
      <g>
       <use xlink:href="#ma5ae0eac55" x="43.78125" y="377.134125" style="stroke: #000000; stroke-width: 0.8"/>
      </g>
     </g>
     <g id="text_1">
      <!-- 0.0 -->
      <g transform="translate(35.829688 391.732563) scale(0.1 -0.1)">
       <defs>
        <path id="DejaVuSans-30" d="M 2034 4250 
Q 1547 4250 1301 3770 
Q 1056 3291 1056 2328 
Q 1056 1369 1301 889 
Q 1547 409 2034 409 
Q 2525 409 2770 889 
Q 3016 1369 3016 2328 
Q 3016 3291 2770 3770 
Q 2525 4250 2034 4250 
z
M 2034 4750 
Q 2819 4750 3233 4129 
Q 3647 3509 3647 2328 
Q 3647 1150 3233 529 
Q 2819 -91 2034 -91 
Q 1250 -91 836 529 
Q 422 1150 422 2328 
Q 422 3509 836 4129 
Q 1250 4750 2034 4750 
z
" transform="scale(0.015625)"/>
        <path id="DejaVuSans-2e" d="M 684 794 
L 1344 794 
L 1344 0 
L 684 0 
L 684 794 
z
" transform="scale(0.015625)"/>
       </defs>
       <use xlink:href="#DejaVuSans-30"/>
       <use xlink:href="#DejaVuSans-2e" transform="translate(63.623047 0)"/>
       <use xlink:href="#DejaVuSans-30" transform="translate(95.410156 0)"/>
      </g>
     </g>
    </g>
    <g id="xtick_2">
     <g id="line2d_2">
      <g>
       <use xlink:href="#ma5ae0eac55" x="123.48525" y="377.134125" style="stroke: #000000; stroke-width: 0.8"/>
      </g>
     </g>
     <g id="text_2">
      <!-- 0.2 -->
      <g transform="translate(115.533688 391.732563) scale(0.1 -0.1)">
       <defs>
        <path id="DejaVuSans-32" d="M 1228 531 
L 3431 531 
L 3431 0 
L 469 0 
L 469 531 
Q 828 903 1448 1529 
Q 2069 2156 2228 2338 
Q 2531 2678 2651 2914 
Q 2772 3150 2772 3378 
Q 2772 3750 2511 3984 
Q 2250 4219 1831 4219 
Q 1534 4219 1204 4116 
Q 875 4013 500 3803 
L 500 4441 
Q 881 4594 1212 4672 
Q 1544 4750 1819 4750 
Q 2544 4750 2975 4387 
Q 3406 4025 3406 3419 
Q 3406 3131 3298 2873 
Q 3191 2616 2906 2266 
Q 2828 2175 2409 1742 
Q 1991 1309 1228 531 
z
" transform="scale(0.015625)"/>
       </defs>
       <use xlink:href="#DejaVuSans-30"/>
       <use xlink:href="#DejaVuSans-2e" transform="translate(63.623047 0)"/>
       <use xlink:href="#DejaVuSans-32" transform="translate(95.410156 0)"/>
      </g>
     </g>
    </g>
    <g id="xtick_3">
     <g id="line2d_3">
      <g>
       <use xlink:href="#ma5ae0eac55" x="203.18925" y="377.134125" style="stroke: #000000; stroke-width: 0.8"/>
      </g>
     </g>
     <g id="text_3">
      <!-- 0.4 -->
      <g transform="translate(195.237688 391.732563) scale(0.1 -0.1)">
       <defs>
        <path id="DejaVuSans-34" d="M 2419 4116 
L 825 1625 
L 2419 1625 
L 2419 4116 
z
M 2253 4666 
L 3047 4666 
L 3047 1625 
L 3713 1625 
L 3713 1100 
L 3047 1100 
L 3047 0 
L 2419 0 
L 2419 1100 
L 313 1100 
L 313 1709 
L 2253 4666 
z
" transform="scale(0.015625)"/>
       </defs>
       <use xlink:href="#DejaVuSans-30"/>
       <use xlink:href="#DejaVuSans-2e" transform="translate(63.623047 0)"/>
       <use xlink:href="#DejaVuSans-34" transform="translate(95.410156 0)"/>
      </g>
     </g>
    </g>
    <g id="xtick_4">
     <g id="line2d_4">
      <g>
       <use xlink:href="#ma5ae0eac55" x="282.89325" y="377.134125" style="stroke: #000000; stroke-width: 0.8"/>
      </g>
     </g>
     <g id="text_4">
      <!-- 0.6 -->
      <g transform="translate(274.941688 391.732563) scale(0.1 -0.1)">
       <defs>
        <path id="DejaVuSans-36" d="M 2113 2584 
Q 1688 2584 1439 2293 
Q 1191 2003 1191 1497 
Q 1191 994 1439 701 
Q 1688 409 2113 409 
Q 2538 409 2786 701 
Q 3034 994 3034 1497 
Q 3034 2003 2786 2293 
Q 2538 2584 2113 2584 
z
M 3366 4563 
L 3366 3988 
Q 3128 4100 2886 4159 
Q 2644 4219 2406 4219 
Q 1781 4219 1451 3797 
Q 1122 3375 1075 2522 
Q 1259 2794 1537 2939 
Q 1816 3084 2150 3084 
Q 2853 3084 3261 2657 
Q 3669 2231 3669 1497 
Q 3669 778 3244 343 
Q 2819 -91 2113 -91 
Q 1303 -91 875 529 
Q 447 1150 447 2328 
Q 447 3434 972 4092 
Q 1497 4750 2381 4750 
Q 2619 4750 2861 4703 
Q 3103 4656 3366 4563 
z
" transform="scale(0.015625)"/>
       </defs>
       <use xlink:href="#DejaVuSans-30"/>
       <use xlink:href="#DejaVuSans-2e" transform="translate(63.623047 0)"/>
       <use xlink:href="#DejaVuSans-36" transform="translate(95.410156 0)"/>
      </g>
     </g>
    </g>
    <g id="xtick_5">
     <g id="line2d_5">
      <g>
       <use xlink:href="#ma5ae0eac55" x="362.59725" y="377.134125" style="stroke: #000000; stroke-width: 0.8"/>
      </g>
     </g>
     <g id="text_5">
      <!-- 0.8 -->
      <g transform="translate(354.645688 391.732563) scale(0.1 -0.1)">
       <defs>
        <path id="DejaVuSans-38" d="M 2034 2216 
Q 1584 2216 1326 1975 
Q 1069 1734 1069 1313 
Q 1069 891 1326 650 
Q 1584 409 2034 409 
Q 2484 409 2743 651 
Q 3003 894 3003 1313 
Q 3003 1734 2745 1975 
Q 2488 2216 2034 2216 
z
M 1403 2484 
Q 997 2584 770 2862 
Q 544 3141 544 3541 
Q 544 4100 942 4425 
Q 1341 4750 2034 4750 
Q 2731 4750 3128 4425 
Q 3525 4100 3525 3541 
Q 3525 3141 3298 2862 
Q 3072 2584 2669 2484 
Q 3125 2378 3379 2068 
Q 3634 1759 3634 1313 
Q 3634 634 3220 271 
Q 2806 -91 2034 -91 
Q 1263 -91 848 271 
Q 434 634 434 1313 
Q 434 1759 690 2068 
Q 947 2378 1403 2484 
z
M 1172 3481 
Q 1172 3119 1398 2916 
Q 1625 2713 2034 2713 
Q 2441 2713 2670 2916 
Q 2900 3119 2900 3481 
Q 2900 3844 2670 4047 
Q 2441 4250 2034 4250 
Q 1625 4250 1398 4047 
Q 1172 3844 1172 3481 
z
" transform="scale(0.015625)"/>
       </defs>
       <use xlink:href="#DejaVuSans-30"/>
       <use xlink:href="#DejaVuSans-2e" transform="translate(63.623047 0)"/>
       <use xlink:href="#DejaVuSans-38" transform="translate(95.410156 0)"/>
      </g>
     </g>
    </g>
    <g id="xtick_6">
     <g id="line2d_6">
      <g>
       <use xlink:href="#ma5ae0eac55" x="442.30125" y="377.134125" style="stroke: #000000; stroke-width: 0.8"/>
      </g>
     </g>
     <g id="text_6">
      <!-- 1.0 -->
      <g transform="translate(434.349687 391.732563) scale(0.1 -0.1)">
       <defs>
        <path id="DejaVuSans-31" d="M 794 531 
L 1825 531 
L 1825 4091 
L 703 3866 
L 703 4441 
L 1819 4666 
L 2450 4666 
L 2450 531 
L 3481 531 
L 3481 0 
L 794 0 
L 794 531 
z
" transform="scale(0.015625)"/>
       </defs>
       <use xlink:href="#DejaVuSans-31"/>
       <use xlink:href="#DejaVuSans-2e" transform="translate(63.623047 0)"/>
       <use xlink:href="#DejaVuSans-30" transform="translate(95.410156 0)"/>
      </g>
     </g>
    </g>
    <g id="text_7">
     <!-- Reg normalized [0,1] (peak-only) -->
     <g transform="translate(160.551406 405.410687) scale(0.1 -0.1)">
      <defs>
       <path id="DejaVuSans-52" d="M 2841 2188 
Q 3044 2119 3236 1894 
Q 3428 1669 3622 1275 
L 4263 0 
L 3584 0 
L 2988 1197 
Q 2756 1666 2539 1819 
Q 2322 1972 1947 1972 
L 1259 1972 
L 1259 0 
L 628 0 
L 628 4666 
L 2053 4666 
Q 2853 4666 3247 4331 
Q 3641 3997 3641 3322 
Q 3641 2881 3436 2590 
Q 3231 2300 2841 2188 
z
M 1259 4147 
L 1259 2491 
L 2053 2491 
Q 2509 2491 2742 2702 
Q 2975 2913 2975 3322 
Q 2975 3731 2742 3939 
Q 2509 4147 2053 4147 
L 1259 4147 
z
" transform="scale(0.015625)"/>
       <path id="DejaVuSans-65" d="M 3597 1894 
L 3597 1613 
L 953 1613 
Q 991 1019 1311 708 
Q 1631 397 2203 397 
Q 2534 397 2845 478 
Q 3156 559 3463 722 
L 3463 178 
Q 3153 47 2828 -22 
Q 2503 -91 2169 -91 
Q 1331 -91 842 396 
Q 353 884 353 1716 
Q 353 2575 817 3079 
Q 1281 3584 2069 3584 
Q 2775 3584 3186 3129 
Q 3597 2675 3597 1894 
z
M 3022 2063 
Q 3016 2534 2758 2815 
Q 2500 3097 2075 3097 
Q 1594 3097 1305 2825 
Q 1016 2553 972 2059 
L 3022 2063 
z
" transform="scale(0.015625)"/>
       <path id="DejaVuSans-67" d="M 2906 1791 
Q 2906 2416 2648 2759 
Q 2391 3103 1925 3103 
Q 1463 3103 1205 2759 
Q 947 2416 947 1791 
Q 947 1169 1205 825 
Q 1463 481 1925 481 
Q 2391 481 2648 825 
Q 2906 1169 2906 1791 
z
M 3481 434 
Q 3481 -459 3084 -895 
Q 2688 -1331 1869 -1331 
Q 1566 -1331 1297 -1286 
Q 1028 -1241 775 -1147 
L 775 -588 
Q 1028 -725 1275 -790 
Q 1522 -856 1778 -856 
Q 2344 -856 2625 -561 
Q 2906 -266 2906 331 
L 2906 616 
Q 2728 306 2450 153 
Q 2172 0 1784 0 
Q 1141 0 747 490 
Q 353 981 353 1791 
Q 353 2603 747 3093 
Q 1141 3584 1784 3584 
Q 2172 3584 2450 3431 
Q 2728 3278 2906 2969 
L 2906 3500 
L 3481 3500 
L 3481 434 
z
" transform="scale(0.015625)"/>
       <path id="DejaVuSans-20" transform="scale(0.015625)"/>
       <path id="DejaVuSans-6e" d="M 3513 2113 
L 3513 0 
L 2938 0 
L 2938 2094 
Q 2938 2591 2744 2837 
Q 2550 3084 2163 3084 
Q 1697 3084 1428 2787 
Q 1159 2491 1159 1978 
L 1159 0 
L 581 0 
L 581 3500 
L 1159 3500 
L 1159 2956 
Q 1366 3272 1645 3428 
Q 1925 3584 2291 3584 
Q 2894 3584 3203 3211 
Q 3513 2838 3513 2113 
z
" transform="scale(0.015625)"/>
       <path id="DejaVuSans-6f" d="M 1959 3097 
Q 1497 3097 1228 2736 
Q 959 2375 959 1747 
Q 959 1119 1226 758 
Q 1494 397 1959 397 
Q 2419 397 2687 759 
Q 2956 1122 2956 1747 
Q 2956 2369 2687 2733 
Q 2419 3097 1959 3097 
z
M 1959 3584 
Q 2709 3584 3137 3096 
Q 3566 2609 3566 1747 
Q 3566 888 3137 398 
Q 2709 -91 1959 -91 
Q 1206 -91 779 398 
Q 353 888 353 1747 
Q 353 2609 779 3096 
Q 1206 3584 1959 3584 
z
" transform="scale(0.015625)"/>
       <path id="DejaVuSans-72" d="M 2631 2963 
Q 2534 3019 2420 3045 
Q 2306 3072 2169 3072 
Q 1681 3072 1420 2755 
Q 1159 2438 1159 1844 
L 1159 0 
L 581 0 
L 581 3500 
L 1159 3500 
L 1159 2956 
Q 1341 3275 1631 3429 
Q 1922 3584 2338 3584 
Q 2397 3584 2469 3576 
Q 2541 3569 2628 3553 
L 2631 2963 
z
" transform="scale(0.015625)"/>
       <path id="DejaVuSans-6d" d="M 3328 2828 
Q 3544 3216 3844 3400 
Q 4144 3584 4550 3584 
Q 5097 3584 5394 3201 
Q 5691 2819 5691 2113 
L 5691 0 
L 5113 0 
L 5113 2094 
Q 5113 2597 4934 2840 
Q 4756 3084 4391 3084 
Q 3944 3084 3684 2787 
Q 3425 2491 3425 1978 
L 3425 0 
L 2847 0 
L 2847 2094 
Q 2847 2600 2669 2842 
Q 2491 3084 2119 3084 
Q 1678 3084 1418 2786 
Q 1159 2488 1159 1978 
L 1159 0 
L 581 0 
L 581 3500 
L 1159 3500 
L 1159 2956 
Q 1356 3278 1631 3431 
Q 1906 3584 2284 3584 
Q 2666 3584 2933 3390 
Q 3200 3197 3328 2828 
z
" transform="scale(0.015625)"/>
       <path id="DejaVuSans-61" d="M 2194 1759 
Q 1497 1759 1228 1600 
Q 959 1441 959 1056 
Q 959 750 1161 570 
Q 1363 391 1709 391 
Q 2188 391 2477 730 
Q 2766 1069 2766 1631 
L 2766 1759 
L 2194 1759 
z
M 3341 1997 
L 3341 0 
L 2766 0 
L 2766 531 
Q 2569 213 2275 61 
Q 1981 -91 1556 -91 
Q 1019 -91 701 211 
Q 384 513 384 1019 
Q 384 1609 779 1909 
Q 1175 2209 1959 2209 
L 2766 2209 
L 2766 2266 
Q 2766 2663 2505 2880 
Q 2244 3097 1772 3097 
Q 1472 3097 1187 3025 
Q 903 2953 641 2809 
L 641 3341 
Q 956 3463 1253 3523 
Q 1550 3584 1831 3584 
Q 2591 3584 2966 3190 
Q 3341 2797 3341 1997 
z
" transform="scale(0.015625)"/>
       <path id="DejaVuSans-6c" d="M 603 4863 
L 1178 4863 
L 1178 0 
L 603 0 
L 603 4863 
z
" transform="scale(0.015625)"/>
       <path id="DejaVuSans-69" d="M 603 3500 
L 1178 3500 
L 1178 0 
L 603 0 
L 603 3500 
z
M 603 4863 
L 1178 4863 
L 1178 4134 
L 603 4134 
L 603 4863 
z
" transform="scale(0.015625)"/>
       <path id="DejaVuSans-7a" d="M 353 3500 
L 3084 3500 
L 3084 2975 
L 922 459 
L 3084 459 
L 3084 0 
L 275 0 
L 275 525 
L 2438 3041 
L 353 3041 
L 353 3500 
z
" transform="scale(0.015625)"/>
       <path id="DejaVuSans-64" d="M 2906 2969 
L 2906 4863 
L 3481 4863 
L 3481 0 
L 2906 0 
L 2906 525 
Q 2725 213 2448 61 
Q 2172 -91 1784 -91 
Q 1150 -91 751 415 
Q 353 922 353 1747 
Q 353 2572 751 3078 
Q 1150 3584 1784 3584 
Q 2172 3584 2448 3432 
Q 2725 3281 2906 2969 
z
M 947 1747 
Q 947 1113 1208 752 
Q 1469 391 1925 391 
Q 2381 391 2643 752 
Q 2906 1113 2906 1747 
Q 2906 2381 2643 2742 
Q 2381 3103 1925 3103 
Q 1469 3103 1208 2742 
Q 947 2381 947 1747 
z
" transform="scale(0.015625)"/>
       <path id="DejaVuSans-5b" d="M 550 4863 
L 1875 4863 
L 1875 4416 
L 1125 4416 
L 1125 -397 
L 1875 -397 
L 1875 -844 
L 550 -844 
L 550 4863 
z
" transform="scale(0.015625)"/>
       <path id="DejaVuSans-2c" d="M 750 794 
L 1409 794 
L 1409 256 
L 897 -744 
L 494 -744 
L 750 256 
L 750 794 
z
" transform="scale(0.015625)"/>
       <path id="DejaVuSans-5d" d="M 1947 4863 
L 1947 -844 
L 622 -844 
L 622 -397 
L 1369 -397 
L 1369 4416 
L 622 4416 
L 622 4863 
L 1947 4863 
z
" transform="scale(0.015625)"/>
       <path id="DejaVuSans-28" d="M 1984 4856 
Q 1566 4138 1362 3434 
Q 1159 2731 1159 2009 
Q 1159 1288 1364 580 
Q 1569 -128 1984 -844 
L 1484 -844 
Q 1016 -109 783 600 
Q 550 1309 550 2009 
Q 550 2706 781 3412 
Q 1013 4119 1484 4856 
L 1984 4856 
z
" transform="scale(0.015625)"/>
       <path id="DejaVuSans-70" d="M 1159 525 
L 1159 -1331 
L 581 -1331 
L 581 3500 
L 1159 3500 
L 1159 2969 
Q 1341 3281 1617 3432 
Q 1894 3584 2278 3584 
Q 2916 3584 3314 3078 
Q 3713 2572 3713 1747 
Q 3713 922 3314 415 
Q 2916 -91 2278 -91 
Q 1894 -91 1617 61 
Q 1341 213 1159 525 
z
M 3116 1747 
Q 3116 2381 2855 2742 
Q 2594 3103 2138 3103 
Q 1681 3103 1420 2742 
Q 1159 2381 1159 1747 
Q 1159 1113 1420 752 
Q 1681 391 2138 391 
Q 2594 391 2855 752 
Q 3116 1113 3116 1747 
z
" transform="scale(0.015625)"/>
       <path id="DejaVuSans-6b" d="M 581 4863 
L 1159 4863 
L 1159 1991 
L 2875 3500 
L 3609 3500 
L 1753 1863 
L 3688 0 
L 2938 0 
L 1159 1709 
L 1159 0 
L 581 0 
L 581 4863 
z
" transform="scale(0.015625)"/>
       <path id="DejaVuSans-2d" d="M 313 2009 
L 1997 2009 
L 1997 1497 
L 313 1497 
L 313 2009 
z
" transform="scale(0.015625)"/>
       <path id="DejaVuSans-79" d="M 2059 -325 
Q 1816 -950 1584 -1140 
Q 1353 -1331 966 -1331 
L 506 -1331 
L 506 -850 
L 844 -850 
Q 1081 -850 1212 -737 
Q 1344 -625 1503 -206 
L 1606 56 
L 191 3500 
L 800 3500 
L 1894 763 
L 2988 3500 
L 3597 3500 
L 2059 -325 
z
" transform="scale(0.015625)"/>
       <path id="DejaVuSans-29" d="M 513 4856 
L 1013 4856 
Q 1481 4119 1714 3412 
Q 1947 2706 1947 2009 
Q 1947 1309 1714 600 
Q 1481 -109 1013 -844 
L 513 -844 
Q 928 -128 1133 580 
Q 1338 1288 1338 2009 
Q 1338 2731 1133 3434 
Q 928 4138 513 4856 
z
" transform="scale(0.015625)"/>
      </defs>
      <use xlink:href="#DejaVuSans-52"/>
      <use xlink:href="#DejaVuSans-65" transform="translate(64.982422 0)"/>
      <use xlink:href="#DejaVuSans-67" transform="translate(126.505859 0)"/>
      <use xlink:href="#DejaVuSans-20" transform="translate(189.982422 0)"/>
      <use xlink:href="#DejaVuSans-6e" transform="translate(221.769531 0)"/>
      <use xlink:href="#DejaVuSans-6f" transform="translate(285.148438 0)"/>
      <use xlink:href="#DejaVuSans-72" transform="translate(346.330078 0)"/>
      <use xlink:href="#DejaVuSans-6d" transform="translate(385.693359 0)"/>
      <use xlink:href="#DejaVuSans-61" transform="translate(483.105469 0)"/>
      <use xlink:href="#DejaVuSans-6c" transform="translate(544.384766 0)"/>
      <use xlink:href="#DejaVuSans-69" transform="translate(572.167969 0)"/>
      <use xlink:href="#DejaVuSans-7a" transform="translate(599.951172 0)"/>
      <use xlink:href="#DejaVuSans-65" transform="translate(652.441406 0)"/>
      <use xlink:href="#DejaVuSans-64" transform="translate(713.964844 0)"/>
      <use xlink:href="#DejaVuSans-20" transform="translate(777.441406 0)"/>
      <use xlink:href="#DejaVuSans-5b" transform="translate(809.228516 0)"/>
      <use xlink:href="#DejaVuSans-30" transform="translate(848.242188 0)"/>
      <use xlink:href="#DejaVuSans-2c" transform="translate(911.865234 0)"/>
      <use xlink:href="#DejaVuSans-31" transform="translate(943.652344 0)"/>
      <use xlink:href="#DejaVuSans-5d" transform="translate(1007.275391 0)"/>
      <use xlink:href="#DejaVuSans-20" transform="translate(1046.289062 0)"/>
      <use xlink:href="#DejaVuSans-28" transform="translate(1078.076172 0)"/>
      <use xlink:href="#DejaVuSans-70" transform="translate(1117.089844 0)"/>
      <use xlink:href="#DejaVuSans-65" transform="translate(1180.566406 0)"/>
      <use xlink:href="#DejaVuSans-61" transform="translate(1242.089844 0)"/>
      <use xlink:href="#DejaVuSans-6b" transform="translate(1303.369141 0)"/>
      <use xlink:href="#DejaVuSans-2d" transform="translate(1361.279297 0)"/>
      <use xlink:href="#DejaVuSans-6f" transform="translate(1399.238281 0)"/>
      <use xlink:href="#DejaVuSans-6e" transform="translate(1460.419922 0)"/>
      <use xlink:href="#DejaVuSans-6c" transform="translate(1523.798828 0)"/>
      <use xlink:href="#DejaVuSans-79" transform="translate(1551.582031 0)"/>
      <use xlink:href="#DejaVuSans-29" transform="translate(1610.761719 0)"/>
     </g>
    </g>
   </g>
   <g id="matplotlib.axis_2">
    <g id="ytick_1">
     <g id="line2d_7">
      <defs>
       <path id="ma47a8c9749" d="M 0 0 
L -3.5 0 
" style="stroke: #000000; stroke-width: 0.8"/>
      </defs>
      <g>
       <use xlink:href="#ma47a8c9749" x="43.78125" y="377.134125" style="stroke: #000000; stroke-width: 0.8"/>
      </g>
     </g>
     <g id="text_8">
      <!-- 0.0 -->
      <g transform="translate(20.878125 380.933344) scale(0.1 -0.1)">
       <use xlink:href="#DejaVuSans-30"/>
       <use xlink:href="#DejaVuSans-2e" transform="translate(63.623047 0)"/>
       <use xlink:href="#DejaVuSans-30" transform="translate(95.410156 0)"/>
      </g>
     </g>
    </g>
    <g id="ytick_2">
     <g id="line2d_8">
      <g>
       <use xlink:href="#ma47a8c9749" x="43.78125" y="306.170925" style="stroke: #000000; stroke-width: 0.8"/>
      </g>
     </g>
     <g id="text_9">
      <!-- 0.2 -->
      <g transform="translate(20.878125 309.970144) scale(0.1 -0.1)">
       <use xlink:href="#DejaVuSans-30"/>
       <use xlink:href="#DejaVuSans-2e" transform="translate(63.623047 0)"/>
       <use xlink:href="#DejaVuSans-32" transform="translate(95.410156 0)"/>
      </g>
     </g>
    </g>
    <g id="ytick_3">
     <g id="line2d_9">
      <g>
       <use xlink:href="#ma47a8c9749" x="43.78125" y="235.207725" style="stroke: #000000; stroke-width: 0.8"/>
      </g>
     </g>
     <g id="text_10">
      <!-- 0.4 -->
      <g transform="translate(20.878125 239.006944) scale(0.1 -0.1)">
       <use xlink:href="#DejaVuSans-30"/>
       <use xlink:href="#DejaVuSans-2e" transform="translate(63.623047 0)"/>
       <use xlink:href="#DejaVuSans-34" transform="translate(95.410156 0)"/>
      </g>
     </g>
    </g>
    <g id="ytick_4">
     <g id="line2d_10">
      <g>
       <use xlink:href="#ma47a8c9749" x="43.78125" y="164.244525" style="stroke: #000000; stroke-width: 0.8"/>
      </g>
     </g>
     <g id="text_11">
      <!-- 0.6 -->
      <g transform="translate(20.878125 168.043744) scale(0.1 -0.1)">
       <use xlink:href="#DejaVuSans-30"/>
       <use xlink:href="#DejaVuSans-2e" transform="translate(63.623047 0)"/>
       <use xlink:href="#DejaVuSans-36" transform="translate(95.410156 0)"/>
      </g>
     </g>
    </g>
    <g id="ytick_5">
     <g id="line2d_11">
      <g>
       <use xlink:href="#ma47a8c9749" x="43.78125" y="93.281325" style="stroke: #000000; stroke-width: 0.8"/>
      </g>
     </g>
     <g id="text_12">
      <!-- 0.8 -->
      <g transform="translate(20.878125 97.080544) scale(0.1 -0.1)">
       <use xlink:href="#DejaVuSans-30"/>
       <use xlink:href="#DejaVuSans-2e" transform="translate(63.623047 0)"/>
       <use xlink:href="#DejaVuSans-38" transform="translate(95.410156 0)"/>
      </g>
     </g>
    </g>
    <g id="ytick_6">
     <g id="line2d_12">
      <g>
       <use xlink:href="#ma47a8c9749" x="43.78125" y="22.318125" style="stroke: #000000; stroke-width: 0.8"/>
      </g>
     </g>
     <g id="text_13">
      <!-- 1.0 -->
      <g transform="translate(20.878125 26.117344) scale(0.1 -0.1)">
       <use xlink:href="#DejaVuSans-31"/>
       <use xlink:href="#DejaVuSans-2e" transform="translate(63.623047 0)"/>
       <use xlink:href="#DejaVuSans-30" transform="translate(95.410156 0)"/>
      </g>
     </g>
    </g>
    <g id="text_14">
     <!-- Methylation fraction [0,1] (peak-only) -->
     <g transform="translate(14.798437 293.648) rotate(-90) scale(0.1 -0.1)">
      <defs>
       <path id="DejaVuSans-4d" d="M 628 4666 
L 1569 4666 
L 2759 1491 
L 3956 4666 
L 4897 4666 
L 4897 0 
L 4281 0 
L 4281 4097 
L 3078 897 
L 2444 897 
L 1241 4097 
L 1241 0 
L 628 0 
L 628 4666 
z
" transform="scale(0.015625)"/>
       <path id="DejaVuSans-74" d="M 1172 4494 
L 1172 3500 
L 2356 3500 
L 2356 3053 
L 1172 3053 
L 1172 1153 
Q 1172 725 1289 603 
Q 1406 481 1766 481 
L 2356 481 
L 2356 0 
L 1766 0 
Q 1100 0 847 248 
Q 594 497 594 1153 
L 594 3053 
L 172 3053 
L 172 3500 
L 594 3500 
L 594 4494 
L 1172 4494 
z
" transform="scale(0.015625)"/>
       <path id="DejaVuSans-68" d="M 3513 2113 
L 3513 0 
L 2938 0 
L 2938 2094 
Q 2938 2591 2744 2837 
Q 2550 3084 2163 3084 
Q 1697 3084 1428 2787 
Q 1159 2491 1159 1978 
L 1159 0 
L 581 0 
L 581 4863 
L 1159 4863 
L 1159 2956 
Q 1366 3272 1645 3428 
Q 1925 3584 2291 3584 
Q 2894 3584 3203 3211 
Q 3513 2838 3513 2113 
z
" transform="scale(0.015625)"/>
       <path id="DejaVuSans-66" d="M 2375 4863 
L 2375 4384 
L 1825 4384 
Q 1516 4384 1395 4259 
Q 1275 4134 1275 3809 
L 1275 3500 
L 2222 3500 
L 2222 3053 
L 1275 3053 
L 1275 0 
L 697 0 
L 697 3053 
L 147 3053 
L 147 3500 
L 697 3500 
L 697 3744 
Q 697 4328 969 4595 
Q 1241 4863 1831 4863 
L 2375 4863 
z
" transform="scale(0.015625)"/>
       <path id="DejaVuSans-63" d="M 3122 3366 
L 3122 2828 
Q 2878 2963 2633 3030 
Q 2388 3097 2138 3097 
Q 1578 3097 1268 2742 
Q 959 2388 959 1747 
Q 959 1106 1268 751 
Q 1578 397 2138 397 
Q 2388 397 2633 464 
Q 2878 531 3122 666 
L 3122 134 
Q 2881 22 2623 -34 
Q 2366 -91 2075 -91 
Q 1284 -91 818 406 
Q 353 903 353 1747 
Q 353 2603 823 3093 
Q 1294 3584 2113 3584 
Q 2378 3584 2631 3529 
Q 2884 3475 3122 3366 
z
" transform="scale(0.015625)"/>
      </defs>
      <use xlink:href="#DejaVuSans-4d"/>
      <use xlink:href="#DejaVuSans-65" transform="translate(86.279297 0)"/>
      <use xlink:href="#DejaVuSans-74" transform="translate(147.802734 0)"/>
      <use xlink:href="#DejaVuSans-68" transform="translate(187.011719 0)"/>
      <use xlink:href="#DejaVuSans-79" transform="translate(250.390625 0)"/>
      <use xlink:href="#DejaVuSans-6c" transform="translate(309.570312 0)"/>
      <use xlink:href="#DejaVuSans-61" transform="translate(337.353516 0)"/>
      <use xlink:href="#DejaVuSans-74" transform="translate(398.632812 0)"/>
      <use xlink:href="#DejaVuSans-69" transform="translate(437.841797 0)"/>
      <use xlink:href="#DejaVuSans-6f" transform="translate(465.625 0)"/>
      <use xlink:href="#DejaVuSans-6e" transform="translate(526.806641 0)"/>
      <use xlink:href="#DejaVuSans-20" transform="translate(590.185547 0)"/>
      <use xlink:href="#DejaVuSans-66" transform="translate(621.972656 0)"/>
      <use xlink:href="#DejaVuSans-72" transform="translate(657.177734 0)"/>
      <use xlink:href="#DejaVuSans-61" transform="translate(698.291016 0)"/>
      <use xlink:href="#DejaVuSans-63" transform="translate(759.570312 0)"/>
      <use xlink:href="#DejaVuSans-74" transform="translate(814.550781 0)"/>
      <use xlink:href="#DejaVuSans-69" transform="translate(853.759766 0)"/>
      <use xlink:href="#DejaVuSans-6f" transform="translate(881.542969 0)"/>
      <use xlink:href="#DejaVuSans-6e" transform="translate(942.724609 0)"/>
      <use xlink:href="#DejaVuSans-20" transform="translate(1006.103516 0)"/>
      <use xlink:href="#DejaVuSans-5b" transform="translate(1037.890625 0)"/>
      <use xlink:href="#DejaVuSans-30" transform="translate(1076.904297 0)"/>
      <use xlink:href="#DejaVuSans-2c" transform="translate(1140.527344 0)"/>
      <use xlink:href="#DejaVuSans-31" transform="translate(1172.314453 0)"/>
      <use xlink:href="#DejaVuSans-5d" transform="translate(1235.9375 0)"/>
      <use xlink:href="#DejaVuSans-20" transform="translate(1274.951172 0)"/>
      <use xlink:href="#DejaVuSans-28" transform="translate(1306.738281 0)"/>
      <use xlink:href="#DejaVuSans-70" transform="translate(1345.751953 0)"/>
      <use xlink:href="#DejaVuSans-65" transform="translate(1409.228516 0)"/>
      <use xlink:href="#DejaVuSans-61" transform="translate(1470.751953 0)"/>
      <use xlink:href="#DejaVuSans-6b" transform="translate(1532.03125 0)"/>
      <use xlink:href="#DejaVuSans-2d" transform="translate(1589.941406 0)"/>
      <use xlink:href="#DejaVuSans-6f" transform="translate(1627.900391 0)"/>
      <use xlink:href="#DejaVuSans-6e" transform="translate(1689.082031 0)"/>
      <use xlink:href="#DejaVuSans-6c" transform="translate(1752.460938 0)"/>
      <use xlink:href="#DejaVuSans-79" transform="translate(1780.244141 0)"/>
      <use xlink:href="#DejaVuSans-29" transform="translate(1839.423828 0)"/>
     </g>
    </g>
   </g>
   <g id="QuadContourSet_1">
    <path d="M 439.8105 282.369708 
L 439.525011 281.777325 
L 438.659304 277.342125 
L 439.13686 272.906925 
L 439.441828 268.471725 
L 439.793549 264.036525 
L 439.8105 263.902653 
M 439.8105 255.303069 
L 439.789979 255.166125 
L 438.091398 250.730925 
L 435.530383 246.295725 
L 434.829 245.428784 
L 429.8475 242.555986 
L 429.164793 241.860525 
L 429.770337 237.425325 
L 429.8475 237.237162 
L 431.246701 232.990125 
L 431.752009 228.554925 
L 432.368371 224.119725 
L 433.220488 219.684525 
L 431.990576 215.249325 
L 429.8475 211.199891 
L 429.454349 210.814125 
L 426.700432 206.378925 
L 425.161336 201.943725 
L 424.866 200.96191 
L 423.958241 197.508525 
L 422.841782 193.073325 
L 420.837849 188.638125 
L 419.8845 186.886247 
L 417.377389 184.202925 
L 419.8845 181.210849 
L 424.866 180.639566 
L 425.458875 179.767725 
L 427.693166 175.332525 
L 428.569254 170.897325 
L 427.205333 166.462125 
L 424.866 163.465897 
L 421.376187 162.026925 
L 419.8845 161.395602 
L 418.378851 162.026925 
L 414.903 164.433474 
L 411.809812 166.462125 
L 409.9215 168.070332 
L 404.94 166.58277 
L 404.693878 166.462125 
L 399.9585 164.817464 
L 394.977 162.914656 
L 391.635603 162.026925 
L 389.9955 161.588873 
L 385.014 160.956151 
L 380.0325 159.824487 
L 375.051 158.136388 
L 373.754293 157.591725 
L 370.0695 155.685902 
L 365.088 154.71356 
L 360.1065 156.347192 
L 358.882143 157.591725 
L 356.239632 162.026925 
L 355.125 165.643286 
L 354.994604 166.462125 
L 355.125 167.304707 
L 356.595534 170.897325 
L 358.963753 175.332525 
L 355.485518 179.767725 
L 355.125 179.915809 
L 350.1435 181.180573 
L 345.162 180.966885 
L 343.041475 179.767725 
L 340.1805 176.341561 
L 339.169349 175.332525 
L 335.199 171.684842 
L 330.2175 172.62971 
L 326.066244 175.332525 
L 325.236 175.770949 
L 320.345614 179.767725 
L 320.2545 181.115754 
L 320.115057 184.202925 
L 320.2545 186.160241 
L 320.44279 188.638125 
L 321.229463 193.073325 
L 323.038709 197.508525 
L 325.236 201.002703 
L 325.514744 201.943725 
L 325.379935 206.378925 
L 325.642427 210.814125 
L 325.236 214.874475 
L 325.173278 215.249325 
L 323.29669 219.684525 
L 320.60986 224.119725 
L 320.2545 224.505233 
L 319.809293 224.119725 
L 315.273 219.798076 
L 315.172855 219.684525 
L 314.397916 215.249325 
L 315.273 213.899939 
L 318.722903 210.814125 
L 320.2545 209.263173 
L 324.683627 206.378925 
L 320.2545 201.979676 
L 315.273 203.916521 
L 310.2915 205.372067 
L 307.716741 206.378925 
L 305.31 210.532225 
L 305.243941 210.814125 
L 305.31 211.428472 
L 306.031726 215.249325 
L 305.412518 219.684525 
L 305.31 219.868478 
L 304.160944 224.119725 
L 303.918326 228.554925 
L 300.974118 232.990125 
L 300.3285 233.280337 
L 297.627045 232.990125 
L 295.347 232.632969 
L 291.254603 228.554925 
L 290.3655 226.918337 
L 288.921652 224.119725 
L 285.542777 219.684525 
L 285.384 219.52393 
L 285.118647 219.684525 
L 280.4025 220.972036 
L 278.123696 224.119725 
L 277.21129 228.554925 
L 278.519035 232.990125 
L 279.675106 237.425325 
L 279.903908 241.860525 
L 280.4025 243.539062 
L 282.622552 246.295725 
L 285.384 248.534577 
L 287.779032 250.730925 
L 285.384 254.636409 
L 280.4025 254.349796 
L 279.13836 255.166125 
L 275.421 257.622678 
L 271.058587 259.601325 
L 270.4395 260.476297 
L 265.458 262.928013 
L 264.337227 264.036525 
L 265.299197 268.471725 
L 265.458 269.005728 
L 265.66362 268.471725 
L 270.4395 265.757864 
L 275.40204 268.471725 
L 271.208483 272.906925 
L 270.4395 274.107293 
L 265.458 275.486709 
L 264.37059 277.342125 
L 260.4765 279.856278 
L 259.90335 281.777325 
L 255.495 286.074741 
L 255.354696 286.212525 
L 250.5135 288.404094 
L 245.532 290.499789 
L 243.701584 290.647725 
L 240.5505 290.88396 
L 237.35824 290.647725 
L 235.569 290.059048 
L 234.443802 290.647725 
L 230.5875 291.919154 
L 227.042102 290.647725 
L 227.628217 286.212525 
L 230.5875 284.374508 
L 235.569 283.406952 
L 236.456735 281.777325 
L 240.140484 277.342125 
L 240.5505 276.938853 
L 245.532 275.158968 
L 250.5135 274.792427 
L 255.495 273.527558 
L 257.676448 272.906925 
L 255.495 272.062777 
L 253.138742 268.471725 
L 250.5135 267.178196 
L 245.532 265.632802 
L 240.5505 266.185719 
L 235.569 266.980595 
L 230.5875 266.488294 
L 226.580223 264.036525 
L 225.606 262.711921 
L 224.548578 259.601325 
L 224.028976 255.166125 
L 223.613057 250.730925 
L 224.06058 246.295725 
L 225.606 244.456186 
L 230.5875 242.235747 
L 231.087141 241.860525 
L 235.558632 237.425325 
L 235.569 237.401678 
L 237.039582 232.990125 
L 236.643462 228.554925 
L 235.569 226.900387 
L 230.5875 224.549437 
L 226.876218 224.119725 
L 225.606 223.904601 
L 222.591924 219.684525 
L 222.731202 215.249325 
L 223.20467 210.814125 
L 223.454905 206.378925 
L 222.383424 201.943725 
L 220.6245 199.334355 
L 219.154101 197.508525 
L 218.21502 193.073325 
L 219.84723 188.638125 
L 220.065416 184.202925 
L 218.979356 179.767725 
L 219.26253 175.332525 
L 220.111642 170.897325 
L 219.475841 166.462125 
L 217.420618 162.026925 
L 215.893598 157.591725 
L 215.643 156.883982 
L 212.9361 153.156525 
L 210.6615 151.386984 
L 209.325079 153.156525 
L 208.97601 157.591725 
L 209.223824 162.026925 
L 207.707045 166.462125 
L 205.856902 170.897325 
L 205.852908 175.332525 
L 207.597542 179.767725 
L 207.6111 184.202925 
L 207.19021 188.638125 
L 207.91516 193.073325 
L 207.550048 197.508525 
L 205.924668 201.943725 
L 205.68 202.594866 
L 204.666538 206.378925 
L 203.327481 210.814125 
L 202.566749 215.249325 
L 202.321504 219.684525 
L 202.065729 224.119725 
L 202.057949 228.554925 
L 202.074367 232.990125 
L 201.59346 237.425325 
L 200.740005 241.860525 
L 200.6985 243.1767 
L 200.560263 246.295725 
L 200.6985 246.584437 
L 202.37493 250.730925 
L 204.937523 255.166125 
L 205.68 258.261478 
L 206.071377 259.601325 
L 205.736739 264.036525 
L 205.68 264.600915 
L 205.339685 268.471725 
L 205.625767 272.906925 
L 205.155651 277.342125 
L 203.767236 281.777325 
L 203.137852 286.212525 
L 203.882444 290.647725 
L 204.163547 295.082925 
L 201.423024 299.518125 
L 200.6985 300.390017 
L 198.28277 303.953325 
L 199.029518 308.388525 
L 200.390698 312.823725 
L 200.23978 317.258925 
L 199.043177 321.694125 
L 196.300644 326.129325 
L 195.717 326.632112 
L 190.7355 326.947025 
L 185.754 327.334069 
L 180.7725 327.85366 
L 175.791 327.582581 
L 170.8095 328.738648 
L 165.828 328.986548 
L 160.8465 328.448143 
L 155.865 327.5635 
L 154.074899 326.129325 
L 152.060396 321.694125 
L 151.655558 317.258925 
L 150.8835 316.005126 
L 148.974311 312.823725 
L 145.902 309.488159 
L 142.925652 308.388525 
L 140.9205 306.500942 
L 135.939 306.41105 
L 132.257583 308.388525 
L 130.9575 309.133886 
L 129.1896 312.823725 
L 128.066543 317.258925 
L 126.773033 321.694125 
L 125.976 323.805221 
L 124.751501 326.129325 
L 120.9945 329.308121 
L 116.013 330.245593 
L 111.0315 330.305021 
L 106.05 330.072548 
L 101.0685 329.996258 
L 96.660842 330.564525 
L 96.087 330.616422 
L 95.895616 330.564525 
L 91.1055 327.681634 
L 89.973648 326.129325 
L 86.124 322.384702 
L 84.805439 321.694125 
L 81.1425 320.26206 
L 76.161 319.584837 
L 71.1795 320.099185 
L 68.018584 321.694125 
L 66.198 322.664093 
L 61.2165 326.006389 
L 56.235 323.112921 
L 54.520404 321.694125 
L 51.2535 318.099412 
L 48.013777 321.694125 
L 46.272 322.782642 
M 260.4765 217.238757 
L 264.31421 215.249325 
L 265.032624 210.814125 
L 260.4765 210.510388 
L 259.683724 210.814125 
L 256.076958 215.249325 
L 260.4765 217.238757 
z
M 414.903 179.995832 
L 414.787905 179.767725 
L 414.903 179.609609 
L 415.400491 179.767725 
L 414.903 179.995832 
z
M 370.0695 140.346526 
L 375.051 141.684168 
L 380.0325 140.715705 
L 381.847369 139.850925 
L 385.014 137.497939 
L 387.866344 135.415725 
L 386.133824 130.980525 
L 385.014 130.640213 
L 384.19611 130.980525 
L 380.0325 132.497227 
L 375.051 133.458066 
L 370.0695 133.045509 
L 365.088 132.339666 
L 363.649754 135.415725 
L 365.088 137.121341 
L 369.133565 139.850925 
L 370.0695 140.346526 
z
" clip-path="url(#p3ccfae2672)" style="fill: none; stroke: #d62728; stroke-width: 1.4"/>
    <path d="M 439.8105 337.209028 
L 439.033727 334.999725 
L 437.878728 330.564525 
L 437.742963 326.129325 
L 437.908193 321.694125 
L 437.745601 317.258925 
L 438.099175 312.823725 
L 438.930234 308.388525 
L 439.029074 303.953325 
L 438.664454 299.518125 
L 438.501888 295.082925 
L 438.002912 290.647725 
L 436.204564 286.212525 
L 434.829 283.851619 
L 432.843722 281.777325 
L 429.879958 277.342125 
L 429.8475 277.238532 
L 427.277261 272.906925 
L 427.700669 268.471725 
L 429.579287 264.036525 
L 429.616253 259.601325 
L 426.005153 255.166125 
L 424.866 254.333467 
L 419.967078 250.730925 
L 419.8845 250.660181 
L 414.903 246.760101 
L 414.060152 246.295725 
L 410.859301 241.860525 
L 409.9215 241.674033 
L 408.663179 241.860525 
L 404.94 242.466146 
L 401.7275 241.860525 
L 399.9585 241.523284 
L 395.818978 237.425325 
L 395.31118 232.990125 
L 394.977 231.710975 
L 389.9955 231.409734 
L 389.122032 232.990125 
L 389.324021 237.425325 
L 389.9955 238.98342 
L 393.742477 241.860525 
L 389.9955 245.286185 
L 385.014 245.884162 
L 380.0325 245.937574 
L 375.051 245.261152 
L 370.0695 244.854409 
L 365.088 245.500927 
L 360.1065 245.538997 
L 358.612423 241.860525 
L 357.45337 237.425325 
L 355.408372 232.990125 
L 355.125 232.161567 
L 350.599592 232.990125 
L 350.1435 233.220617 
L 349.659965 237.425325 
L 350.114869 241.860525 
L 350.1435 242.078951 
L 352.434911 246.295725 
L 355.125 248.818171 
L 356.496184 250.730925 
L 355.125 254.487003 
L 350.1435 253.357025 
L 345.162 250.923672 
L 340.1805 253.771183 
L 338.389375 255.166125 
L 335.199 257.521397 
L 330.2175 257.965349 
L 326.452698 259.601325 
L 325.236 260.810784 
L 323.779417 264.036525 
L 322.922028 268.471725 
L 321.82703 272.906925 
L 320.2545 275.107136 
L 315.786598 277.342125 
L 315.273 278.103957 
L 314.741203 277.342125 
L 310.2915 274.731115 
L 306.568165 272.906925 
L 305.31 272.721247 
L 300.3285 271.421491 
L 296.149271 268.471725 
L 295.347 268.234121 
L 294.177318 268.471725 
L 294.552114 272.906925 
L 295.347 273.228384 
L 300.3285 274.527031 
L 303.805715 277.342125 
L 305.31 279.635308 
L 309.473617 281.777325 
L 305.31 284.357615 
L 304.820216 286.212525 
L 303.165727 290.647725 
L 301.560803 295.082925 
L 300.3285 296.210977 
L 295.347 298.367948 
L 290.3655 299.376658 
L 289.37366 299.518125 
L 285.384 300.193929 
L 280.4025 300.839539 
L 275.421 300.271807 
L 270.4395 299.893274 
L 265.458 300.699257 
L 260.4765 302.99925 
L 259.321054 303.953325 
L 255.495 308.254359 
L 255.135318 308.388525 
L 250.5135 309.233215 
L 245.532 308.931507 
L 243.342676 308.388525 
L 240.5505 307.683607 
L 235.569 307.374321 
L 232.726516 308.388525 
L 230.5875 309.289235 
L 225.631051 312.823725 
L 225.606 312.84043 
L 220.6245 314.187304 
L 215.643 312.897488 
L 215.297318 312.823725 
L 210.6615 311.69807 
L 209.110002 312.823725 
L 206.055008 317.258925 
L 205.68 318.26898 
L 204.93134 321.694125 
L 203.557303 326.129325 
L 200.753624 330.564525 
L 200.6985 330.622018 
L 195.717 334.311523 
L 193.39396 334.999725 
L 190.7355 335.988065 
L 185.754 338.051227 
L 181.583456 339.434925 
L 180.7725 339.572624 
L 175.791 339.955673 
L 170.8095 340.059383 
L 166.377493 339.434925 
L 165.828 339.306344 
L 160.8465 338.045491 
L 155.865 336.773572 
L 153.373974 334.999725 
L 150.8835 333.112477 
L 147.518468 330.564525 
L 145.902 329.046838 
L 140.9205 327.777046 
L 135.939 330.15515 
L 135.429645 330.564525 
L 130.9575 332.859984 
L 127.823051 334.999725 
L 125.976 336.25076 
L 120.9945 338.592875 
L 116.013 338.582542 
L 111.0315 337.546758 
L 106.05 336.739185 
L 101.0685 336.858141 
L 96.087 338.491397 
L 91.1055 338.095804 
L 87.236273 334.999725 
L 86.124 333.944125 
L 81.690108 330.564525 
L 81.1425 330.099631 
L 76.161 328.630636 
L 71.1795 330.069403 
L 70.500536 330.564525 
L 66.198 333.199141 
L 61.2165 334.871627 
L 56.235 332.296803 
L 53.595597 330.564525 
L 51.2535 328.878793 
L 47.792463 330.564525 
L 46.272 331.372158 
M 210.6615 246.776412 
L 211.016247 246.295725 
L 211.64124 241.860525 
L 211.420122 237.425325 
L 210.6615 234.976966 
L 210.286976 237.425325 
L 209.628401 241.860525 
L 210.231399 246.295725 
L 210.6615 246.776412 
z
M 360.1065 225.431825 
L 363.586229 224.119725 
L 365.088 223.688816 
L 370.0695 219.711673 
L 370.098003 219.684525 
L 372.069021 215.249325 
L 370.0695 211.042679 
L 365.088 212.007817 
L 360.1065 214.122138 
L 356.666684 215.249325 
L 355.844511 219.684525 
L 357.507756 224.119725 
L 360.1065 225.431825 
z
M 210.6615 215.751659 
L 210.889523 215.249325 
L 210.6615 215.049572 
L 210.59361 215.249325 
L 210.6615 215.751659 
z
M 345.162 216.498333 
L 350.1435 216.89498 
L 352.836391 215.249325 
L 350.1435 214.388229 
L 345.162 214.649426 
L 344.698999 215.249325 
L 345.162 216.498333 
z
" clip-path="url(#p3ccfae2672)" style="fill: none; stroke: #d62728; stroke-width: 1.4"/>
    <path d="M 116.257806 374.916525 
L 120.9945 374.377399 
L 125.976 374.188084 
L 135.939 374.333798 
L 140.9205 374.430838 
L 145.902 374.734311 
L 150.8835 374.795128 
L 155.865 374.668903 
L 162.777749 374.916525 
M 169.494876 374.916525 
L 170.8095 374.869041 
L 175.791 374.40398 
L 180.7725 374.13668 
L 185.754 374.2074 
L 190.7355 374.41624 
L 193.663983 374.916525 
M 326.328626 374.916525 
L 330.2175 374.785553 
L 335.199 374.880477 
L 340.1805 374.846771 
L 355.125 374.350672 
L 360.1065 374.221899 
L 365.088 373.970852 
L 370.0695 373.862061 
L 380.0325 374.303882 
L 385.014 374.034078 
L 394.977 373.21364 
L 404.94 373.024562 
L 409.9215 372.653135 
L 414.903 371.942206 
L 424.866 370.234137 
L 429.369657 366.046125 
L 429.843152 361.610925 
L 429.024951 357.175725 
L 427.632346 352.740525 
L 428.843122 348.305325 
L 429.8475 346.876612 
L 431.319673 343.870125 
L 430.617855 339.434925 
L 429.8475 338.303707 
L 426.205527 334.999725 
L 424.866 333.582511 
L 421.214025 330.564525 
L 419.8845 328.657534 
L 418.377938 326.129325 
L 416.484544 321.694125 
L 414.903 319.875159 
L 409.9215 317.129969 
L 407.882855 312.823725 
L 409.9215 311.204506 
L 411.415423 308.388525 
L 412.136037 303.953325 
L 410.538474 299.518125 
L 409.9215 298.896853 
L 404.94 297.419927 
L 400.509053 299.518125 
L 399.9585 300.095817 
L 397.416587 303.953325 
L 394.977 308.423872 
L 389.9955 310.167849 
L 385.014 310.089107 
L 380.0325 309.664137 
L 375.051 308.774699 
L 373.541442 308.388525 
L 370.0695 307.110686 
L 365.088 305.798555 
L 360.1065 307.034845 
L 356.401297 308.388525 
L 355.125 308.704611 
L 353.051057 308.388525 
L 350.1435 307.786288 
L 345.162 307.000397 
L 342.770868 308.388525 
L 340.1805 310.64868 
L 338.601926 312.823725 
L 335.199 315.425899 
L 330.2175 315.749286 
L 325.236 314.620678 
L 320.2545 314.373517 
L 315.273 315.616592 
L 305.31 320.561427 
L 300.3285 321.874254 
L 290.3655 322.234512 
L 285.384 323.02811 
L 275.421 324.14751 
L 270.4395 326.232797 
L 265.458 327.239025 
L 260.4765 327.403836 
L 255.495 327.362892 
L 250.5135 327.503657 
L 245.532 328.120419 
L 234.555033 330.564525 
L 230.5875 330.903554 
L 215.643 330.899326 
L 210.6615 331.801153 
L 205.68 335.035549 
L 200.6985 339.718599 
L 196.763195 343.870125 
L 195.717 345.204827 
L 190.7355 347.51601 
L 185.754 347.76737 
L 175.791 348.593673 
L 170.8095 348.820769 
L 160.8465 347.249337 
L 155.865 346.910174 
L 150.357711 343.870125 
L 145.902 341.075553 
L 140.9205 340.884437 
L 135.939 342.937605 
L 134.313237 343.870125 
L 130.9575 345.172782 
L 125.976 346.827576 
L 120.9945 347.513896 
L 116.013 347.107862 
L 111.0315 346.25306 
L 106.05 345.612895 
L 101.0685 346.532476 
L 96.087 349.317947 
L 91.1055 349.146356 
L 86.124 344.805227 
L 84.699292 343.870125 
L 81.1425 341.392638 
L 76.161 340.80604 
L 71.1795 342.339786 
L 66.198 344.961399 
L 61.2165 346.669286 
L 56.101636 343.870125 
L 51.2535 340.965627 
L 47.543331 343.870125 
L 46.272 345.192693 
M 46.272 362.067636 
L 48.521906 370.481325 
L 51.2535 374.395445 
L 56.235 374.708383 
L 61.2165 372.631316 
L 66.198 371.450369 
L 72.996273 370.481325 
L 76.161 370.214451 
L 81.1425 371.108805 
L 86.124 372.912687 
L 91.1055 374.369451 
L 94.385929 374.916525 
L 94.385929 374.916525 
" clip-path="url(#p3ccfae2672)" style="fill: none; stroke: #d62728; stroke-width: 1.4"/>
    <path d="M 266.108401 374.916525 
L 270.4395 374.692292 
L 275.421 374.381745 
L 280.4025 374.15055 
L 285.384 373.956205 
L 290.3655 373.735071 
L 295.347 373.588266 
L 300.3285 373.490464 
L 305.31 373.200553 
L 310.2915 372.663277 
L 315.273 372.226873 
L 320.2545 371.870858 
L 325.236 371.296311 
L 330.2175 370.903825 
L 335.199 370.936647 
L 340.1805 370.864346 
L 345.162 370.520098 
L 345.62178 370.481325 
L 350.1435 370.147469 
L 355.125 369.801821 
L 360.1065 369.446673 
L 365.088 369.006357 
L 370.0695 368.660866 
L 375.051 368.66738 
L 380.0325 368.71509 
L 385.014 368.303803 
L 389.9955 367.549848 
L 394.977 366.681551 
L 398.200735 366.046125 
L 399.9585 365.550764 
L 404.94 363.685925 
L 409.082683 361.610925 
L 409.9215 359.298163 
L 410.570087 357.175725 
L 409.9215 356.384548 
L 406.826157 352.740525 
L 404.94 351.309252 
L 401.373168 348.305325 
L 399.9585 346.509133 
L 396.954022 343.870125 
L 394.977 342.37778 
L 389.9955 341.046383 
L 385.014 339.958183 
L 383.633214 339.434925 
L 380.0325 337.826923 
L 375.051 336.604493 
L 370.0695 336.655786 
L 365.088 336.826317 
L 360.1065 337.075284 
L 355.125 337.519746 
L 350.1435 336.749356 
L 345.676145 334.999725 
L 345.162 334.652583 
L 340.1805 333.075077 
L 335.199 333.397337 
L 330.2175 333.917851 
L 325.236 334.039969 
L 320.2545 333.67171 
L 315.273 333.143766 
L 310.2915 333.362035 
L 305.31 334.196555 
L 300.3285 334.495493 
L 295.347 333.896778 
L 290.3655 333.629063 
L 285.384 334.482098 
L 283.438082 334.999725 
L 280.4025 335.598148 
L 275.421 336.208164 
L 270.4395 336.397903 
L 265.458 336.298084 
L 260.4765 336.191299 
L 255.495 336.316211 
L 250.5135 336.708468 
L 245.532 337.177415 
L 240.5505 337.420635 
L 235.569 337.621155 
L 230.5875 337.996162 
L 225.606 338.255129 
L 220.6245 338.272269 
L 215.643 338.407902 
L 210.838217 339.434925 
L 210.6615 339.458529 
L 205.68 341.808159 
L 203.550027 343.870125 
L 200.6985 347.094666 
L 199.588211 348.305325 
L 196.071402 352.740525 
L 195.717 353.431454 
L 190.7355 356.173667 
L 185.754 356.683613 
L 184.114175 357.175725 
L 180.7725 360.804146 
L 179.741635 361.610925 
L 180.7725 362.1506 
L 185.754 365.15684 
L 187.844676 366.046125 
L 190.7355 366.645611 
L 195.717 369.434056 
L 196.462095 370.481325 
L 200.6985 373.437722 
L 203.190913 374.916525 
M 101.0685 366.821779 
L 106.05 368.263372 
L 111.0315 369.065463 
L 116.013 368.667426 
L 120.9945 367.740303 
L 125.976 367.615632 
L 130.9575 367.91131 
L 135.939 367.677016 
L 140.9205 366.701112 
L 143.05852 366.046125 
L 145.902 364.60121 
L 150.071558 361.610925 
L 149.59574 357.175725 
L 145.902 352.787825 
L 145.745646 352.740525 
L 140.9205 351.884442 
L 136.828789 352.740525 
L 135.939 352.907032 
L 130.9575 353.998891 
L 125.976 355.084075 
L 120.9945 355.609352 
L 116.013 355.68713 
L 111.0315 356.068666 
L 106.05 356.843787 
L 105.240815 357.175725 
L 101.0685 359.857311 
L 99.072927 361.610925 
L 99.147355 366.046125 
L 101.0685 366.821779 
z
M 160.8465 366.836883 
L 165.828 366.829214 
L 167.813235 366.046125 
L 170.0597 361.610925 
L 165.828 358.736562 
L 160.8465 358.116053 
L 156.539645 361.610925 
L 158.964666 366.046125 
L 160.8465 366.836883 
z
M 71.1795 358.92613 
L 76.161 360.938783 
L 81.1425 361.598984 
L 84.757514 357.175725 
L 81.196362 352.740525 
L 81.1425 352.699692 
L 76.161 352.147361 
L 74.789369 352.740525 
L 71.1795 355.859614 
L 69.97623 357.175725 
L 71.1795 358.92613 
z
" clip-path="url(#p3ccfae2672)" style="fill: none; stroke: #d62728; stroke-width: 1.4"/>
    <path d="M 210.6615 372.746139 
L 215.643 373.372516 
L 220.6245 373.141215 
L 225.606 372.641126 
L 230.5875 372.263537 
L 235.569 372.047776 
L 240.5505 371.853113 
L 245.532 371.620514 
L 250.5135 371.28087 
L 255.495 370.811291 
L 259.119112 370.481325 
L 260.4765 370.367529 
L 265.458 370.04281 
L 270.4395 369.6007 
L 275.421 369.009254 
L 280.4025 368.432693 
L 285.384 367.828043 
L 290.3655 367.221333 
L 295.347 366.780393 
L 300.3285 366.369411 
L 302.762702 366.046125 
L 305.31 365.577287 
L 310.2915 364.52608 
L 315.273 363.752616 
L 320.2545 363.016377 
L 325.236 362.117746 
L 329.116567 361.610925 
L 330.2175 361.243397 
L 335.199 359.932504 
L 340.175479 357.175725 
L 335.199 353.516745 
L 333.629431 352.740525 
L 330.2175 351.976962 
L 325.236 350.425681 
L 320.2545 349.043678 
L 315.273 348.776372 
L 310.2915 348.744052 
L 305.634743 348.305325 
L 305.31 348.277142 
L 300.3285 347.953652 
L 295.347 348.011474 
L 290.3655 347.916277 
L 285.384 347.697593 
L 280.4025 347.618257 
L 275.421 347.431542 
L 270.4395 347.044456 
L 265.458 346.744234 
L 260.4765 346.771482 
L 255.495 346.910907 
L 250.5135 347.013904 
L 245.532 347.234726 
L 240.5505 347.360385 
L 235.569 347.30305 
L 230.5875 347.370684 
L 225.606 347.381965 
L 220.6245 347.126596 
L 215.643 346.966676 
L 210.6615 347.919554 
L 210.041723 348.305325 
L 205.68 350.982325 
L 204.096027 352.740525 
L 201.541378 357.175725 
L 200.901356 361.610925 
L 201.971886 366.046125 
L 205.68 370.253066 
L 206.008238 370.481325 
L 210.6615 372.746139 
z
" clip-path="url(#p3ccfae2672)" style="fill: none; stroke: #d62728; stroke-width: 1.4"/>
   </g>
   <g id="QuadContourSet_2">
    <path d="M 439.8105 247.988608 
L 439.576553 246.295725 
L 438.732477 241.860525 
L 438.909734 237.425325 
L 439.8105 236.013705 
M 439.8105 209.766284 
L 437.195258 206.378925 
L 434.829 202.681769 
L 433.082839 201.943725 
L 429.8475 200.043484 
L 428.002488 201.943725 
L 424.866 204.623116 
L 422.370382 206.378925 
L 419.8845 208.815137 
L 415.990491 206.378925 
L 414.903 205.522605 
L 412.908191 201.943725 
L 409.9215 197.765902 
L 404.94 197.987235 
L 399.9585 199.599977 
L 396.039584 201.943725 
L 395.798329 206.378925 
L 396.928957 210.814125 
L 394.977 214.91316 
L 394.826703 215.249325 
L 391.684255 219.684525 
L 391.542793 224.119725 
L 389.9955 227.631237 
L 388.778454 224.119725 
L 385.014 222.149433 
L 380.0325 220.407272 
L 377.374378 219.684525 
L 375.051 218.723408 
L 370.0695 215.575055 
L 369.350353 215.249325 
L 365.088 212.605669 
L 360.1065 213.72529 
L 356.575791 215.249325 
L 355.125 215.813397 
L 350.1435 217.42814 
L 345.162 219.634235 
L 345.07697 219.684525 
L 341.937643 224.119725 
L 340.1805 225.984396 
L 335.199 225.304665 
L 334.4133 224.119725 
L 330.2175 221.05333 
L 327.360138 219.684525 
L 325.236 219.0546 
L 321.09043 219.684525 
L 320.2545 219.855284 
L 315.273 219.776121 
L 313.48138 219.684525 
L 310.2915 219.528756 
L 309.938274 219.684525 
L 305.923514 224.119725 
L 305.31 225.28632 
L 304.157168 228.554925 
L 303.305337 232.990125 
L 304.231758 237.425325 
L 305.31 239.106668 
L 307.302239 241.860525 
L 308.907847 246.295725 
L 305.31 250.32104 
L 300.3285 247.249984 
L 299.556219 246.295725 
L 295.347 243.063119 
L 292.241231 241.860525 
L 290.3655 240.072369 
L 287.953354 241.860525 
L 285.384 242.972843 
L 283.111137 246.295725 
L 280.4025 248.907914 
L 277.888191 250.730925 
L 275.421 252.125852 
L 270.4395 253.729458 
L 268.110937 255.166125 
L 265.458 257.097498 
L 262.328415 259.601325 
L 260.4765 261.49025 
L 255.495 262.863816 
L 250.5135 262.042913 
L 245.532 262.849448 
L 242.946008 264.036525 
L 240.767285 268.471725 
L 245.532 272.533286 
L 246.118052 272.906925 
L 248.845819 277.342125 
L 246.74603 281.777325 
L 245.532 283.100081 
L 241.987197 286.212525 
L 240.5505 286.877378 
L 235.569 286.736166 
L 233.635077 286.212525 
L 230.5875 284.158442 
L 225.721434 281.777325 
L 225.606 281.460575 
L 221.80053 281.777325 
L 220.6245 281.794443 
L 215.643 282.519526 
L 210.6615 284.106017 
L 208.585579 286.212525 
L 205.68 289.321277 
L 204.827479 290.647725 
L 202.675095 295.082925 
L 201.939628 299.518125 
L 201.988009 303.953325 
L 202.075628 308.388525 
L 202.373385 312.823725 
L 200.904762 317.258925 
L 200.6985 317.388456 
L 195.717 317.325529 
L 190.7355 317.352839 
L 185.754 318.265219 
L 180.7725 318.390865 
L 179.117456 317.258925 
L 178.322922 312.823725 
L 177.505847 308.388525 
L 175.791 305.811808 
L 173.559964 303.953325 
L 170.8095 302.670849 
L 165.828 303.341033 
L 160.8465 303.767272 
L 155.865 302.424098 
L 150.8835 302.211127 
L 145.902 302.959584 
L 142.471885 303.953325 
L 140.9205 304.297778 
L 135.939 305.943657 
L 130.9575 306.216078 
L 126.264542 303.953325 
L 125.976 303.727615 
L 120.9945 299.765457 
L 116.013 300.138629 
L 111.556996 303.953325 
L 111.035971 308.388525 
L 111.0315 308.397796 
L 108.108605 312.823725 
L 106.05 313.892114 
L 101.0685 313.80986 
L 99.63635 312.823725 
L 101.0685 311.150795 
L 104.063873 308.388525 
L 106.05 306.536082 
L 110.380553 303.953325 
L 108.974505 299.518125 
L 106.05 297.475044 
L 103.100091 295.082925 
L 101.0685 293.859753 
L 96.087 291.786628 
L 93.248149 290.647725 
L 91.1055 289.087233 
L 88.884592 286.212525 
L 86.124 283.745558 
L 83.559319 281.777325 
L 81.1425 280.63453 
L 76.161 280.982155 
L 74.924312 281.777325 
L 71.1795 285.955106 
L 70.951473 286.212525 
L 69.886904 290.647725 
L 70.417584 295.082925 
L 69.763602 299.518125 
L 66.198 301.704514 
L 63.91015 303.953325 
L 61.2165 306.139386 
L 56.235 306.999345 
L 51.898528 303.953325 
L 51.2535 303.501394 
L 50.415777 303.953325 
L 46.272 305.562776 
M 439.8105 164.207515 
L 438.249734 162.026925 
L 436.083689 157.591725 
L 436.246757 153.156525 
L 439.222151 148.721325 
L 439.8105 147.621075 
M 439.8105 138.609148 
L 437.640172 135.415725 
L 435.942537 130.980525 
L 435.059066 126.545325 
L 434.829 126.102179 
L 430.100282 122.110125 
L 430.430829 117.674925 
L 434.829 113.270069 
L 434.840273 113.239725 
L 435.24882 108.804525 
L 434.829 107.390806 
L 429.8475 106.801251 
L 428.656009 108.804525 
L 424.866 112.817258 
L 419.8845 112.62043 
L 414.903 109.945728 
L 414.430779 108.804525 
L 413.727053 104.369325 
L 414.903 100.881855 
L 419.8845 101.617252 
L 424.866 100.680859 
L 426.843646 99.934125 
L 429.8475 96.66438 
L 430.049521 95.498925 
L 429.8475 94.988937 
L 428.440008 91.063725 
L 426.170716 86.628525 
L 424.866 84.257206 
L 421.089637 82.193325 
L 419.8845 81.730242 
L 414.903 81.419201 
L 413.207153 82.193325 
L 411.405744 86.628525 
L 412.214027 91.063725 
L 412.203098 95.498925 
L 409.9215 98.461202 
L 404.94 97.274237 
L 399.9585 98.083034 
L 397.777158 99.934125 
L 394.977 102.536194 
L 393.061968 104.369325 
L 389.9955 106.918763 
L 388.089713 108.804525 
L 386.107921 113.239725 
L 388.616331 117.674925 
L 389.9955 118.256786 
L 394.977 117.898219 
L 395.613694 117.674925 
L 399.9585 116.270725 
L 404.94 115.83242 
L 409.9215 117.584043 
L 410.021209 117.674925 
L 412.130904 122.110125 
L 413.290049 126.545325 
L 414.903 129.040687 
L 415.865064 130.980525 
L 419.195027 135.415725 
L 419.8845 136.185668 
L 422.062266 139.850925 
L 423.140493 144.286125 
L 419.8845 147.689072 
L 417.343334 148.721325 
L 414.903 149.803968 
L 412.493685 153.156525 
L 410.148635 157.591725 
L 409.9215 157.866194 
L 404.94 161.179274 
L 399.9585 161.952257 
L 399.251773 162.026925 
L 394.977 162.941124 
L 390.562947 166.462125 
L 393.935203 170.897325 
L 394.732594 175.332525 
L 392.707855 179.767725 
L 390.754764 184.202925 
L 389.9955 185.873422 
L 385.014 185.418315 
L 382.989002 184.202925 
L 380.0325 182.691124 
L 375.051 182.080175 
L 371.946656 184.202925 
L 370.857724 188.638125 
L 373.479349 193.073325 
L 375.051 194.511042 
L 380.0325 196.206319 
L 385.014 196.850517 
L 389.9955 196.895057 
L 393.607325 193.073325 
L 394.977 192.358861 
L 399.9585 191.873528 
L 404.94 192.466075 
L 407.741193 193.073325 
L 409.9215 196.695608 
L 414.903 194.680417 
L 419.8845 193.199216 
L 420.459615 193.073325 
L 424.866 192.309152 
L 429.8475 190.487818 
L 432.155278 188.638125 
L 434.829 185.222817 
L 435.367558 184.202925 
L 437.858996 179.767725 
L 439.8105 177.431717 
M 220.6245 268.886775 
L 225.606 272.835548 
L 230.5875 268.516202 
L 230.609589 268.471725 
L 230.5875 268.462287 
L 225.606 267.261613 
L 220.6245 268.32027 
L 220.318427 268.471725 
L 220.6245 268.886775 
z
M 409.9215 230.267305 
L 405.466939 228.554925 
L 409.9215 225.024456 
L 412.541751 228.554925 
L 409.9215 230.267305 
M 345.162 185.204001 
L 350.1435 187.466355 
L 355.125 187.601575 
L 360.1065 185.28708 
L 361.40704 184.202925 
L 360.1065 180.561854 
L 359.929632 179.767725 
L 355.125 176.640802 
L 351.475287 175.332525 
L 350.1435 174.82883 
L 345.371265 175.332525 
L 345.162 175.372749 
L 342.524376 179.767725 
L 343.966918 184.202925 
L 345.162 185.204001 
z
" clip-path="url(#p3ccfae2672)" style="fill: none; stroke: #1f77b4; stroke-width: 1.4"/>
    <path d="M 439.8105 298.185077 
L 439.060756 295.082925 
L 438.514203 290.647725 
L 438.784466 286.212525 
L 439.517348 281.777325 
L 439.659881 277.342125 
L 437.820603 272.906925 
L 434.829 268.730517 
L 434.065335 268.471725 
L 429.8475 267.203192 
L 424.866 266.429173 
L 419.8845 264.835462 
L 418.083471 264.036525 
L 415.00795 259.601325 
L 414.903 258.80339 
L 413.045937 255.166125 
L 409.9215 253.210684 
L 407.420561 255.166125 
L 404.94 258.185559 
L 402.797917 259.601325 
L 399.9585 260.731202 
L 396.686667 259.601325 
L 394.977 259.361979 
L 389.9955 258.472465 
L 385.014 257.852427 
L 380.0325 257.389299 
L 375.051 258.813552 
L 374.283856 259.601325 
L 371.655278 264.036525 
L 372.042645 268.471725 
L 375.051 271.262357 
L 377.793292 272.906925 
L 375.051 274.12476 
L 370.0695 273.177871 
L 365.088 272.966721 
L 360.1065 274.756462 
L 355.654601 277.342125 
L 355.125 277.681838 
L 350.1435 278.456932 
L 345.162 277.977477 
L 340.1805 279.268384 
L 337.041829 281.777325 
L 335.199 282.393351 
L 332.302985 281.777325 
L 330.2175 280.889862 
L 325.236 278.208784 
L 320.2545 277.925373 
L 315.273 280.297519 
L 313.478914 281.777325 
L 310.2915 284.975842 
L 308.254098 286.212525 
L 305.31 287.794426 
L 300.3285 288.094767 
L 295.347 288.657285 
L 290.3655 289.402405 
L 285.384 289.674052 
L 280.4025 289.612344 
L 275.421 290.358861 
L 274.839615 290.647725 
L 270.4395 293.282359 
L 267.992303 295.082925 
L 265.458 296.396517 
L 260.4765 298.469787 
L 255.495 298.568395 
L 251.52909 299.518125 
L 250.5135 299.63496 
L 245.532 301.825533 
L 241.561584 303.953325 
L 240.5505 304.360311 
L 235.569 305.109732 
L 230.5875 304.200394 
L 229.690378 303.953325 
L 229.70244 299.518125 
L 225.606 299.008682 
L 220.6245 298.327753 
L 215.643 296.634586 
L 211.786907 299.518125 
L 212.581381 303.953325 
L 213.401191 308.388525 
L 212.755106 312.823725 
L 211.318219 317.258925 
L 210.6615 318.04065 
L 207.673627 321.694125 
L 205.68 323.204496 
L 200.6985 325.720735 
L 198.659273 326.129325 
L 195.717 326.667771 
L 190.7355 328.297273 
L 185.754 330.290808 
L 183.997598 330.564525 
L 180.7725 330.942387 
L 175.791 331.178351 
L 170.8095 331.0447 
L 165.828 331.202066 
L 160.8465 330.826961 
L 160.497799 330.564525 
L 156.6497 326.129325 
L 155.865 324.775383 
L 153.597582 321.694125 
L 151.221308 317.258925 
L 150.8835 316.768676 
L 145.902 315.942171 
L 143.274524 317.258925 
L 140.9205 318.813213 
L 139.030212 321.694125 
L 136.529217 326.129325 
L 135.939 326.626293 
L 130.9575 330.315229 
L 130.281122 330.564525 
L 125.976 331.425784 
L 120.9945 331.842951 
L 116.013 330.860936 
L 115.623799 330.564525 
L 111.806215 326.129325 
L 111.0315 325.469408 
L 106.05 323.462867 
L 101.0685 323.885849 
L 96.087 325.047209 
L 91.1055 323.446588 
L 88.657089 321.694125 
L 86.124 318.574632 
L 81.1425 319.159753 
L 79.283759 321.694125 
L 76.161 323.361988 
L 71.1795 323.473912 
L 66.198 323.17943 
L 61.2165 323.535163 
L 58.297574 321.694125 
L 56.235 320.361629 
L 51.465152 317.258925 
L 51.2535 317.141631 
L 50.921387 317.258925 
L 46.272 320.161866 
M 295.347 283.239366 
L 299.938092 281.777325 
L 300.3285 281.594493 
L 301.99457 277.342125 
L 300.3285 274.813645 
L 296.27768 272.906925 
L 295.347 272.702164 
L 294.259212 272.906925 
L 290.3655 274.934468 
L 288.55988 277.342125 
L 290.3655 279.672021 
L 293.196184 281.777325 
L 295.347 283.239366 
z
M 414.903 252.093789 
L 415.961852 250.730925 
L 419.8845 246.87079 
L 420.081863 246.295725 
L 419.8845 246.145313 
L 414.903 246.237245 
L 414.83293 246.295725 
L 414.045568 250.730925 
L 414.903 252.093789 
z
" clip-path="url(#p3ccfae2672)" style="fill: none; stroke: #1f77b4; stroke-width: 1.4"/>
    <path d="M 46.272 373.901818 
L 47.052545 374.916525 
M 76.84521 374.916525 
L 81.1425 374.378572 
L 85.331727 374.916525 
M 439.8105 360.330425 
L 439.094797 357.175725 
L 437.978906 352.740525 
L 436.5885 348.305325 
L 435.316312 343.870125 
L 434.829 342.246375 
L 432.244531 339.434925 
L 429.8475 336.729881 
L 426.139727 334.999725 
L 424.866 334.206746 
L 419.8845 332.281752 
L 414.903 330.870326 
L 414.292303 330.564525 
L 409.9215 328.341419 
L 404.94 326.669044 
L 399.9585 326.928502 
L 394.977 328.495832 
L 389.9955 328.477525 
L 385.014 327.324586 
L 380.893788 326.129325 
L 380.0325 325.846394 
L 375.051 323.547477 
L 370.077023 321.694125 
L 370.0695 321.691059 
L 365.088 320.314876 
L 360.1065 320.329212 
L 355.900115 321.694125 
L 355.125 321.937564 
L 350.1435 323.143879 
L 345.162 323.36238 
L 340.1805 323.33977 
L 335.199 323.011561 
L 332.925128 321.694125 
L 330.2175 320.546289 
L 325.236 319.306935 
L 320.2545 319.469884 
L 315.273 320.109928 
L 310.2915 320.074715 
L 305.31 320.091533 
L 301.050826 321.694125 
L 300.3285 322.104805 
L 295.355789 326.129325 
L 295.347 326.131864 
L 290.3655 326.265838 
L 289.603516 326.129325 
L 285.384 324.772849 
L 280.4025 323.60276 
L 275.421 323.255752 
L 270.4395 323.163374 
L 265.458 323.505737 
L 260.4765 323.994012 
L 255.495 324.231328 
L 250.5135 325.046252 
L 246.974542 326.129325 
L 245.532 326.480962 
L 240.5505 327.10163 
L 235.569 327.612157 
L 230.5875 328.337145 
L 225.606 328.583981 
L 220.6245 328.801204 
L 215.643 330.219323 
L 215.121914 330.564525 
L 210.6615 333.4455 
L 209.201407 334.999725 
L 205.68 339.035458 
L 205.294259 339.434925 
L 201.183637 343.870125 
L 200.6985 344.423182 
L 195.717 347.187252 
L 191.186331 348.305325 
L 190.7355 348.384214 
L 185.754 348.77953 
L 180.7725 348.904905 
L 175.791 348.625941 
L 173.906859 348.305325 
L 170.8095 347.637927 
L 165.828 347.271807 
L 160.8465 346.606494 
L 155.865 344.314435 
L 154.588908 343.870125 
L 150.8835 342.130135 
L 145.902 342.192354 
L 140.944272 343.870125 
L 140.9205 343.875893 
L 135.939 345.465252 
L 130.9575 347.345985 
L 126.328993 348.305325 
L 125.976 348.354321 
L 120.9945 348.387003 
L 116.013 348.395659 
L 114.418967 348.305325 
L 111.0315 348.011229 
L 106.05 347.427347 
L 101.0685 348.274346 
L 100.798392 348.305325 
L 96.087 348.634693 
L 95.267369 348.305325 
L 91.1055 346.171068 
L 87.277093 343.870125 
L 86.124 343.054685 
L 81.1425 341.536532 
L 76.161 342.574879 
L 72.804114 343.870125 
L 71.1795 344.373123 
L 66.198 345.660341 
L 61.2165 346.922961 
L 56.235 344.578118 
L 54.93256 343.870125 
L 51.2535 341.772763 
L 46.272 343.352759 
" clip-path="url(#p3ccfae2672)" style="fill: none; stroke: #1f77b4; stroke-width: 1.4"/>
    <path d="M 434.230607 374.916525 
L 434.636621 370.481325 
L 429.8475 366.412899 
L 429.199954 366.046125 
L 424.866 363.747227 
L 419.8845 361.806622 
L 419.375248 361.610925 
L 414.903 359.43501 
L 409.9215 357.521502 
L 409.004807 357.175725 
L 404.94 355.367506 
L 399.9585 353.803171 
L 394.977 352.840594 
L 394.183713 352.740525 
L 389.9955 351.95131 
L 385.014 350.979169 
L 380.0325 349.821186 
L 375.051 348.889044 
L 370.799072 348.305325 
L 370.0695 348.158048 
L 365.088 346.974332 
L 360.1065 346.274864 
L 355.125 346.696684 
L 350.1435 347.116907 
L 345.162 346.826638 
L 340.1805 346.197314 
L 335.199 345.374461 
L 330.2175 344.504811 
L 326.70496 343.870125 
L 325.236 343.556173 
L 320.2545 342.212739 
L 315.273 341.085488 
L 310.2915 340.451232 
L 305.31 340.247591 
L 300.3285 340.304713 
L 295.347 340.07254 
L 291.98291 339.434925 
L 290.3655 339.070686 
L 285.384 337.844196 
L 280.4025 337.334664 
L 275.421 337.53448 
L 270.4395 337.942952 
L 265.458 338.434116 
L 260.4765 338.906365 
L 255.495 339.070147 
L 250.5135 339.331355 
L 249.346816 339.434925 
L 245.532 339.659277 
L 240.5505 339.904759 
L 235.569 340.204583 
L 230.5875 340.400642 
L 225.606 340.284622 
L 220.6245 340.089038 
L 215.643 340.53066 
L 210.6615 343.018454 
L 209.772554 343.870125 
L 205.68 347.606023 
L 204.991766 348.305325 
L 201.075954 352.740525 
L 200.6985 353.333521 
L 195.831297 357.175725 
L 195.717 357.31417 
L 190.7355 359.850881 
L 186.104036 361.610925 
L 185.754 362.774355 
L 184.183607 366.046125 
L 185.754 366.522797 
L 190.7355 369.47448 
L 191.985409 370.481325 
L 195.717 371.881736 
L 200.6985 374.075515 
L 202.21968 374.916525 
M 140.9205 370.943979 
L 145.902 370.857449 
L 147.724506 370.481325 
L 150.8835 369.671501 
L 155.865 367.524906 
L 160.8465 366.720977 
L 165.828 368.406341 
L 170.8095 366.983907 
L 172.583839 366.046125 
L 170.8095 362.802637 
L 169.715643 361.610925 
L 165.828 360.678071 
L 160.8465 360.659279 
L 157.559621 357.175725 
L 155.865 356.174124 
L 150.8835 353.407065 
L 145.902 353.370984 
L 140.9205 355.032928 
L 136.54965 357.175725 
L 135.939 357.590694 
L 130.9575 360.136631 
L 125.976 360.952769 
L 120.9945 360.284165 
L 116.013 360.186972 
L 111.0315 360.466745 
L 106.05 361.022517 
L 104.539517 361.610925 
L 104.176982 366.046125 
L 106.05 366.734185 
L 111.0315 368.168707 
L 116.013 368.620404 
L 120.9945 367.977163 
L 125.976 367.1198 
L 130.9575 368.02311 
L 135.939 369.999111 
L 137.900238 370.481325 
L 140.9205 370.943979 
z
M 51.2535 366.607071 
L 56.235 368.530401 
L 60.148831 366.046125 
L 59.591826 361.610925 
L 56.235 359.47964 
L 51.2535 358.028004 
L 50.350279 361.610925 
L 50.978263 366.046125 
L 51.2535 366.607071 
z
M 91.1055 366.060719 
L 91.177529 366.046125 
L 93.923401 361.610925 
L 91.1055 359.38956 
L 89.331116 357.175725 
L 86.124 354.78247 
L 81.392095 352.740525 
L 81.1425 352.660925 
L 80.870442 352.740525 
L 76.161 354.655838 
L 71.594217 357.175725 
L 71.1795 357.776708 
L 66.409058 361.610925 
L 71.1795 364.277313 
L 76.161 364.309044 
L 81.1425 364.581824 
L 86.124 365.551605 
L 90.914634 366.046125 
L 91.1055 366.060719 
z
" clip-path="url(#p3ccfae2672)" style="fill: none; stroke: #1f77b4; stroke-width: 1.4"/>
    <path d="M 210.6615 373.234326 
L 215.643 374.082844 
L 220.6245 373.879439 
L 225.606 373.285966 
L 230.5875 372.700496 
L 235.569 372.195128 
L 240.5505 371.762194 
L 245.532 371.424652 
L 250.5135 371.202463 
L 255.495 371.163775 
L 260.4765 371.179725 
L 265.458 370.949921 
L 270.4395 370.502551 
L 270.703249 370.481325 
L 275.421 369.9714 
L 280.4025 369.768525 
L 285.384 370.13235 
L 288.047164 370.481325 
L 290.3655 370.694529 
L 295.347 370.887301 
L 300.3285 370.722483 
L 303.155061 370.481325 
L 305.31 370.177283 
L 310.2915 369.385045 
L 315.273 369.160384 
L 320.2545 369.609346 
L 325.236 369.786266 
L 330.2175 369.237869 
L 335.199 369.204072 
L 340.1805 370.383213 
L 340.667129 370.481325 
L 345.162 370.842086 
L 350.1435 370.90698 
L 355.125 370.923866 
L 360.1065 370.923179 
L 365.088 370.809203 
L 370.0695 370.795674 
L 375.051 370.968652 
L 380.0325 371.086016 
L 385.014 370.972541 
L 389.9955 370.660461 
L 391.269215 370.481325 
L 390.810535 366.046125 
L 389.9955 365.790295 
L 385.014 364.889187 
L 380.0325 364.661763 
L 375.051 364.846885 
L 370.0695 364.839204 
L 365.088 364.101877 
L 360.1065 363.043333 
L 355.125 362.463742 
L 350.1435 361.97635 
L 348.136168 361.610925 
L 345.162 361.246024 
L 340.1805 360.842484 
L 335.199 360.812035 
L 330.2175 360.213304 
L 325.236 359.065674 
L 320.2545 358.414905 
L 315.273 358.047884 
L 310.2915 357.28826 
L 309.768453 357.175725 
L 305.31 356.378269 
L 300.3285 355.515777 
L 295.347 354.906418 
L 290.3655 354.557642 
L 285.384 354.258733 
L 280.4025 353.726045 
L 275.421 352.917762 
L 274.479633 352.740525 
L 270.4395 351.939931 
L 265.458 351.200164 
L 260.4765 350.671045 
L 255.495 350.242434 
L 250.5135 349.856997 
L 245.532 349.468328 
L 240.5505 349.173672 
L 235.569 348.942818 
L 230.5875 348.667568 
L 225.606 348.410082 
L 221.941335 348.305325 
L 220.6245 348.251582 
L 220.047808 348.305325 
L 215.643 348.574449 
L 210.6615 350.450826 
L 208.156732 352.740525 
L 205.68 355.756002 
L 204.552771 357.175725 
L 202.600046 361.610925 
L 202.652055 366.046125 
L 205.68 370.125408 
L 205.986339 370.481325 
L 210.6615 373.234326 
z
" clip-path="url(#p3ccfae2672)" style="fill: none; stroke: #1f77b4; stroke-width: 1.4"/>
   </g>
   <g id="QuadContourSet_3">
    <path d="M 439.8105 210.915914 
L 439.783676 210.814125 
L 439.8105 210.749796 
M 439.8105 189.626297 
L 439.298426 188.638125 
L 438.116245 184.202925 
L 436.089972 179.767725 
L 434.829 177.847939 
L 432.320645 175.332525 
L 431.25568 170.897325 
L 434.829 168.454396 
L 436.429539 166.462125 
L 439.42147 162.026925 
L 439.8105 158.67825 
M 439.8105 157.115404 
L 438.572373 153.156525 
L 436.996708 148.721325 
L 435.733544 144.286125 
L 435.00194 139.850925 
L 436.305626 135.415725 
L 436.919574 130.980525 
L 436.181651 126.545325 
L 434.913243 122.110125 
L 434.829 121.879959 
L 429.8475 117.675333 
L 429.846599 117.674925 
L 424.866 115.71626 
L 419.8845 115.54723 
L 417.811016 117.674925 
L 414.903 119.336467 
L 410.606765 122.110125 
L 409.9215 122.701507 
L 404.94 125.027341 
L 402.648912 126.545325 
L 404.94 129.302986 
L 405.7141 130.980525 
L 408.847727 135.415725 
L 409.9215 137.572123 
L 411.048793 139.850925 
L 412.593243 144.286125 
L 412.479247 148.721325 
L 409.9215 150.923549 
L 406.634912 153.156525 
L 404.94 154.421171 
L 400.648731 157.591725 
L 399.9585 159.196566 
L 397.678588 162.026925 
L 396.181693 166.462125 
L 394.977 167.730588 
L 392.813852 170.897325 
L 389.9955 173.179993 
L 385.014 174.925596 
L 384.442068 175.332525 
L 381.65202 179.767725 
L 383.37809 184.202925 
L 383.22542 188.638125 
L 380.0325 190.551687 
L 375.051 192.271786 
L 373.079422 193.073325 
L 370.0695 195.071981 
L 368.150073 197.508525 
L 367.741808 201.943725 
L 366.587049 206.378925 
L 365.088 208.005461 
L 362.246586 210.814125 
L 360.1065 212.833748 
L 355.125 214.648632 
L 350.1435 213.932463 
L 345.632357 215.249325 
L 345.162 216.007273 
L 344.666731 219.684525 
L 345.162 221.137062 
L 346.259256 224.119725 
L 347.761855 228.554925 
L 347.130616 232.990125 
L 345.162 236.630736 
L 343.725135 237.425325 
L 340.1805 239.717997 
L 335.199 237.852487 
L 334.280563 237.425325 
L 330.2175 236.112796 
L 325.236 235.074103 
L 320.2545 236.868821 
L 319.688945 237.425325 
L 316.151081 241.860525 
L 315.273 242.92879 
L 311.060712 246.295725 
L 310.930402 250.730925 
L 312.439526 255.166125 
L 312.104081 259.601325 
L 310.2915 260.785175 
L 308.664466 259.601325 
L 305.31 256.735102 
L 300.3285 256.048659 
L 295.347 256.575426 
L 290.3655 257.025548 
L 287.508938 259.601325 
L 285.966356 264.036525 
L 285.384 264.538134 
L 280.4025 268.161263 
L 278.226326 268.471725 
L 275.421 268.876389 
L 273.740272 268.471725 
L 271.010074 264.036525 
L 270.4395 263.1933 
L 267.081682 259.601325 
L 265.458 258.442259 
L 262.340081 259.601325 
L 260.4765 260.871438 
L 257.031862 264.036525 
L 255.495 265.504477 
L 251.462956 268.471725 
L 250.5135 268.806718 
L 246.953903 272.906925 
L 245.532 274.224407 
L 241.439146 277.342125 
L 240.5505 277.888372 
L 235.569 278.390797 
L 230.5875 279.916528 
L 228.989721 281.777325 
L 226.070194 286.212525 
L 225.606 286.916749 
L 222.519055 290.647725 
L 220.6245 291.910331 
L 215.643 291.790255 
L 212.852789 290.647725 
L 210.6615 289.404791 
L 205.68 288.355332 
L 200.6985 288.945062 
L 195.717 290.048731 
L 194.545541 290.647725 
L 190.7355 294.176415 
L 189.892017 295.082925 
L 185.754 298.846457 
L 184.480686 299.518125 
L 180.7725 301.058953 
L 178.624825 303.953325 
L 177.722849 308.388525 
L 177.967241 312.823725 
L 175.791 314.969074 
L 170.8095 315.074077 
L 165.828 314.011095 
L 160.8465 313.232366 
L 159.352001 312.823725 
L 156.406349 308.388525 
L 157.097816 303.953325 
L 156.405682 299.518125 
L 155.865 298.376715 
L 150.8835 295.577659 
L 145.902 296.379608 
L 140.9205 296.113306 
L 135.939 296.317378 
L 132.491837 299.518125 
L 130.9575 302.52585 
L 130.398136 303.953325 
L 127.838559 308.388525 
L 125.976 309.485243 
L 120.9945 309.407496 
L 116.013 308.42252 
L 111.0315 308.433662 
L 106.05 309.443589 
L 101.0685 309.228267 
L 97.424931 308.388525 
L 96.087 307.962022 
L 91.1055 306.546355 
L 86.124 303.981756 
L 86.093481 303.953325 
L 83.114741 299.518125 
L 82.171033 295.082925 
L 81.1425 292.647922 
L 79.706141 290.647725 
L 76.161 288.656617 
L 71.1795 290.196515 
L 70.691072 290.647725 
L 68.251203 295.082925 
L 67.891413 299.518125 
L 66.891344 303.953325 
L 66.198 304.875534 
L 63.300078 303.953325 
L 61.2165 303.319987 
L 59.593217 299.518125 
L 57.255162 295.082925 
L 56.235 293.902769 
L 52.149178 290.647725 
L 51.2535 290.02099 
L 50.356912 290.647725 
L 46.272 293.866659 
M 106.05 295.541802 
L 111.0315 297.53851 
L 113.458781 295.082925 
L 111.0315 292.182797 
L 106.05 294.639561 
L 105.786975 295.082925 
L 106.05 295.541802 
z
M 135.939 283.221018 
L 140.9205 282.185837 
L 141.247102 281.777325 
L 141.744031 277.342125 
L 140.9205 276.556197 
L 135.939 276.540474 
L 135.090767 277.342125 
L 135.297227 281.777325 
L 135.939 283.221018 
z
M 300.3285 269.393123 
L 299.76743 268.471725 
L 300.3285 268.087982 
L 301.167994 268.471725 
L 300.3285 269.393123 
z
M 285.384 250.931409 
L 285.713352 250.730925 
L 290.3655 249.354638 
L 293.856121 246.295725 
L 294.403516 241.860525 
L 290.3655 237.998412 
L 289.1616 237.425325 
L 285.384 236.432849 
L 280.4025 237.339999 
L 280.277212 237.425325 
L 278.371632 241.860525 
L 279.49805 246.295725 
L 280.4025 247.974853 
L 285.199037 250.730925 
L 285.384 250.931409 
z
M 330.2175 215.520676 
L 331.31489 215.249325 
L 335.199 212.705919 
L 337.042968 210.814125 
L 335.199 208.339697 
L 330.2175 206.822152 
L 325.236 210.475583 
L 324.87046 210.814125 
L 325.236 213.047076 
L 327.445745 215.249325 
L 330.2175 215.520676 
z
M 355.125 169.343749 
L 360.1065 167.313672 
L 361.19454 166.462125 
L 363.141603 162.026925 
L 360.1065 159.361103 
L 355.125 159.985572 
L 352.90552 162.026925 
L 351.300605 166.462125 
L 355.125 169.343749 
z
M 389.9955 147.118297 
L 392.378243 144.286125 
L 392.130167 139.850925 
L 389.9955 138.15211 
L 387.152972 139.850925 
L 385.658661 144.286125 
L 389.9955 147.118297 
z
M 404.94 104.604987 
L 409.9215 106.210468 
L 414.903 107.876111 
L 419.8845 106.998441 
L 421.917898 104.369325 
L 419.954624 99.934125 
L 419.8845 99.797346 
L 414.903 95.835546 
L 409.9215 96.116422 
L 404.94 99.433909 
L 404.188437 99.934125 
L 404.116099 104.369325 
L 404.94 104.604987 
z
M 424.866 95.518394 
L 429.8475 96.247734 
L 430.557205 95.498925 
L 432.718658 91.063725 
L 431.488833 86.628525 
L 430.199276 82.193325 
L 429.8475 81.205479 
L 427.045867 77.758125 
L 424.866 76.357488 
L 421.992764 77.758125 
L 420.026746 82.193325 
L 419.8845 82.489496 
L 418.078037 86.628525 
L 416.823047 91.063725 
L 419.8845 93.653127 
L 424.817527 95.498925 
L 424.866 95.518394 
z
M 404.94 71.308133 
L 408.974327 68.887725 
L 404.94 65.707628 
L 402.858955 68.887725 
L 404.94 71.308133 
z
" clip-path="url(#p3ccfae2672)" style="fill: none; stroke: #2ca02c; stroke-width: 1.4"/>
    <path d="M 439.8105 299.66034 
L 439.776219 299.518125 
L 439.45777 295.082925 
L 439.8105 292.137743 
M 439.8105 284.810517 
L 439.01372 281.777325 
L 437.736767 277.342125 
L 437.323402 272.906925 
L 437.534981 268.471725 
L 437.457085 264.036525 
L 437.184522 259.601325 
L 436.273119 255.166125 
L 434.829 252.381013 
L 432.891799 250.730925 
L 429.8475 247.021115 
L 429.07814 246.295725 
L 427.566639 241.860525 
L 429.8475 240.530916 
L 430.840921 237.425325 
L 429.8475 234.640023 
L 425.011956 237.425325 
L 424.866 237.674569 
L 419.8845 241.759649 
L 419.494095 241.860525 
L 414.903 242.459801 
L 409.9215 245.953764 
L 409.604215 246.295725 
L 406.259234 250.730925 
L 404.94 253.675546 
L 403.725831 255.166125 
L 401.278884 259.601325 
L 399.9585 262.091155 
L 398.222239 259.601325 
L 394.977 256.514111 
L 394.068112 255.166125 
L 390.716467 250.730925 
L 389.9955 250.079431 
L 385.014 248.605913 
L 381.810064 250.730925 
L 380.0325 253.003243 
L 378.849566 255.166125 
L 375.051 257.883767 
L 371.717282 259.601325 
L 370.0695 260.379548 
L 365.309784 264.036525 
L 365.088 264.190604 
L 360.1065 267.381472 
L 356.919294 268.471725 
L 355.125 269.287348 
L 353.082978 268.471725 
L 350.1435 267.6323 
L 345.162 267.403357 
L 343.572575 268.471725 
L 342.969636 272.906925 
L 344.202629 277.342125 
L 340.1805 280.907176 
L 335.877765 281.777325 
L 335.199 281.851522 
L 335.034226 281.777325 
L 331.06368 277.342125 
L 330.2175 276.22787 
L 325.236 275.70035 
L 322.828222 277.342125 
L 320.2545 278.265008 
L 315.273 281.188572 
L 314.516039 281.777325 
L 311.081028 286.212525 
L 310.2915 287.211817 
L 305.31 290.465505 
L 304.95656 290.647725 
L 300.3285 292.348481 
L 295.740175 295.082925 
L 295.347 295.283652 
L 290.3655 297.841599 
L 287.446843 299.518125 
L 285.384 300.63879 
L 280.4025 302.310806 
L 275.421 303.061105 
L 270.4395 303.646392 
L 265.458 303.363542 
L 260.4765 303.26701 
L 255.495 303.403783 
L 250.5135 303.254825 
L 245.532 303.097258 
L 241.083469 303.953325 
L 240.5505 304.087742 
L 235.569 306.606907 
L 230.5875 308.051608 
L 228.440872 308.388525 
L 225.606 308.7769 
L 220.6245 310.472455 
L 217.140701 312.823725 
L 215.643 313.288565 
L 210.6615 314.351956 
L 205.68 314.973627 
L 200.6985 314.656322 
L 195.717 314.286353 
L 191.515621 317.258925 
L 190.7355 317.621396 
L 186.963104 321.694125 
L 185.754 322.860905 
L 182.04179 326.129325 
L 180.7725 327.308746 
L 175.851233 330.564525 
L 175.791 330.624462 
L 171.079154 334.999725 
L 170.8095 335.140162 
L 165.828 336.591577 
L 160.8465 336.656416 
L 155.865 335.784837 
L 153.178725 334.999725 
L 150.8835 333.7744 
L 147.631826 330.564525 
L 145.902 328.71378 
L 143.379859 326.129325 
L 140.9205 323.46051 
L 135.939 322.637221 
L 130.9575 323.630148 
L 125.976 324.846902 
L 123.97109 326.129325 
L 120.9945 329.05285 
L 119.481713 330.564525 
L 116.013 331.645368 
L 111.0315 332.192147 
L 106.05 331.980875 
L 101.0685 330.567328 
L 96.087 330.75039 
L 91.1055 331.622774 
L 86.80839 330.564525 
L 86.124 330.37738 
L 81.1425 326.894432 
L 79.930181 326.129325 
L 76.161 323.103467 
L 71.1795 321.990512 
L 66.198 323.622896 
L 62.527503 326.129325 
L 61.2165 327.339659 
L 56.235 326.560946 
L 55.80008 326.129325 
L 54.237794 321.694125 
L 52.159963 317.258925 
L 51.2535 316.265719 
L 49.945673 317.258925 
L 46.272 320.731408 
M 419.8845 220.738053 
L 424.866 220.121898 
L 425.177498 219.684525 
L 424.866 219.377901 
L 419.8845 217.727394 
L 418.786892 219.684525 
L 419.8845 220.738053 
z
" clip-path="url(#p3ccfae2672)" style="fill: none; stroke: #2ca02c; stroke-width: 1.4"/>
    <path d="M 118.94192 374.916525 
L 120.9945 374.584906 
L 130.9575 374.490694 
L 135.939 374.416923 
L 141.407947 374.916525 
M 155.997487 374.916525 
L 165.828 374.362405 
L 170.8095 374.615159 
L 172.714772 374.916525 
M 323.026364 374.916525 
L 325.236 374.770189 
L 345.162 374.162038 
L 350.1435 374.504617 
L 355.125 374.559788 
L 365.088 374.093988 
L 370.0695 374.059735 
L 375.051 374.169787 
L 380.0325 374.408931 
L 385.014 374.434512 
L 389.9955 374.189704 
L 399.9585 373.370614 
L 404.94 372.949008 
L 409.9215 372.705872 
L 414.903 372.287836 
L 427.910113 370.481325 
L 429.8475 365.103929 
L 430.442166 361.610925 
L 429.8475 356.075413 
L 429.369065 352.740525 
L 430.551013 348.305325 
L 432.329314 343.870125 
L 432.39494 339.434925 
L 431.160357 334.999725 
L 431.134422 326.129325 
L 429.8475 322.907577 
L 428.850114 321.694125 
L 424.866 318.951936 
L 419.8845 317.659738 
L 419.080593 317.258925 
L 411.391565 312.823725 
L 409.9215 311.72841 
L 404.94 310.188938 
L 399.9585 309.729971 
L 394.977 309.074103 
L 389.9955 307.845712 
L 385.014 307.373883 
L 382.076032 308.388525 
L 380.0325 309.24788 
L 375.051 313.4514 
L 370.0695 315.465988 
L 365.088 314.879072 
L 355.125 313.348526 
L 350.1435 312.878653 
L 345.162 313.226531 
L 335.199 315.566917 
L 330.2175 316.178313 
L 325.236 316.308237 
L 315.273 315.750701 
L 310.2915 316.734094 
L 309.217519 317.258925 
L 305.31 318.903405 
L 300.3285 320.489879 
L 294.364523 321.694125 
L 280.4025 323.293466 
L 275.421 324.279734 
L 270.4395 325.560337 
L 265.458 326.440495 
L 260.4765 326.893243 
L 245.532 327.7573 
L 240.5505 328.950606 
L 237.067315 330.564525 
L 235.569 331.114194 
L 230.5875 332.681372 
L 225.606 333.447227 
L 220.6245 333.496382 
L 215.643 333.106076 
L 205.68 331.41452 
L 200.6985 331.253256 
L 195.717 332.276253 
L 190.7355 335.199411 
L 180.7725 344.194937 
L 175.791 347.646192 
L 170.8095 350.036673 
L 165.828 351.173533 
L 160.8465 350.928508 
L 155.865 350.132217 
L 150.8835 349.879089 
L 145.726565 348.305325 
L 140.9205 344.974041 
L 135.939 344.220119 
L 130.9575 345.628944 
L 125.167039 348.305325 
L 120.9945 349.377997 
L 116.013 349.414783 
L 111.0315 349.222281 
L 106.05 349.491467 
L 101.0685 349.520261 
L 96.087 349.0249 
L 91.1055 347.535618 
L 86.124 344.908957 
L 83.782415 343.870125 
L 81.1425 342.532261 
L 76.161 341.653048 
L 71.1795 342.881052 
L 61.2165 348.622916 
L 56.235 348.657663 
L 54.489348 348.305325 
L 51.2535 347.487405 
L 50.080505 348.305325 
L 46.272 351.812089 
M 46.272 363.372515 
L 47.346838 366.046125 
L 50.40092 370.481325 
L 51.2535 371.302077 
L 56.235 372.750336 
L 61.2165 372.88406 
L 66.198 372.841708 
L 71.1795 371.778369 
L 76.161 370.848123 
L 81.1425 372.035924 
L 86.124 373.765239 
L 93.414891 374.916525 
L 93.414891 374.916525 
" clip-path="url(#p3ccfae2672)" style="fill: none; stroke: #2ca02c; stroke-width: 1.4"/>
    <path d="M 253.721607 374.916525 
L 255.495 374.872192 
L 260.4765 374.667313 
L 265.458 374.336791 
L 270.4395 374.020045 
L 275.421 373.69542 
L 280.4025 373.23801 
L 285.384 372.852903 
L 290.3655 372.614204 
L 295.347 372.257805 
L 300.3285 371.81483 
L 305.31 371.587162 
L 310.2915 371.588823 
L 315.273 371.516231 
L 320.2545 371.17064 
L 325.236 370.582742 
L 326.208245 370.481325 
L 330.2175 370.113978 
L 335.199 369.719003 
L 340.1805 369.249038 
L 345.162 369.14776 
L 350.1435 369.393721 
L 355.125 369.236626 
L 360.1065 368.694929 
L 365.088 368.241058 
L 370.0695 367.83509 
L 375.051 367.504644 
L 380.0325 367.361536 
L 385.014 366.917762 
L 388.894511 366.046125 
L 389.9955 365.672785 
L 394.977 363.246068 
L 397.628139 361.610925 
L 399.9585 358.555468 
L 401.141187 357.175725 
L 402.487867 352.740525 
L 402.033465 348.305325 
L 399.9585 345.579181 
L 397.452511 343.870125 
L 394.977 342.909599 
L 389.9955 341.133312 
L 385.014 339.694694 
L 381.943144 339.434925 
L 380.0325 339.289458 
L 375.051 337.780834 
L 370.0695 335.076487 
L 369.824673 334.999725 
L 365.088 333.249748 
L 360.1065 333.070308 
L 355.125 333.252989 
L 350.1435 333.493543 
L 345.162 334.197029 
L 340.1805 334.630556 
L 335.199 333.313471 
L 330.2175 331.952618 
L 325.236 331.986802 
L 320.2545 332.444613 
L 315.273 332.879249 
L 310.2915 333.220976 
L 305.31 333.319919 
L 300.3285 333.58601 
L 295.347 334.530398 
L 291.265276 334.999725 
L 290.3655 335.07791 
L 288.269298 334.999725 
L 285.384 334.857159 
L 283.409269 334.999725 
L 280.4025 335.17408 
L 275.421 336.080967 
L 270.4395 336.875062 
L 265.458 337.300638 
L 260.4765 337.452462 
L 255.495 337.531887 
L 250.5135 337.675229 
L 245.532 338.10629 
L 240.5505 339.126025 
L 239.370393 339.434925 
L 235.569 340.098483 
L 230.5875 340.745746 
L 225.606 340.994195 
L 220.6245 340.941151 
L 215.643 340.723997 
L 210.6615 340.379577 
L 205.68 340.070733 
L 200.6985 340.121642 
L 195.717 340.790072 
L 190.7355 342.890148 
L 189.521078 343.870125 
L 185.754 346.336362 
L 183.507559 348.305325 
L 180.7725 351.211657 
L 179.008426 352.740525 
L 175.791 356.824568 
L 175.298929 357.175725 
L 171.557934 361.610925 
L 171.302933 366.046125 
L 175.791 369.451836 
L 176.550472 370.481325 
L 180.7725 373.02461 
L 183.306789 374.916525 
M 106.05 371.347067 
L 111.0315 370.943244 
L 112.598777 370.481325 
L 116.013 369.033805 
L 120.9945 368.129761 
L 125.976 368.438573 
L 130.9575 368.605875 
L 135.939 367.764331 
L 140.567455 366.046125 
L 140.9205 365.517835 
L 143.520211 361.610925 
L 140.9205 358.109022 
L 140.323003 357.175725 
L 135.939 354.687829 
L 130.9575 354.884779 
L 125.976 356.451942 
L 122.935465 357.175725 
L 120.9945 357.820851 
L 116.013 357.618463 
L 111.0315 357.515513 
L 106.05 359.149927 
L 101.469249 361.610925 
L 101.0685 362.287062 
L 98.920488 366.046125 
L 101.0685 368.200589 
L 103.421651 370.481325 
L 106.05 371.347067 
z
M 66.198 362.846085 
L 71.1795 363.03875 
L 76.161 362.205866 
L 81.1425 362.015427 
L 83.639044 361.610925 
L 85.049601 357.175725 
L 81.1425 353.627007 
L 78.663457 352.740525 
L 76.161 352.29934 
L 74.940108 352.740525 
L 71.1795 354.7043 
L 68.009454 357.175725 
L 66.198 359.728514 
L 64.765336 361.610925 
L 66.198 362.846085 
z
" clip-path="url(#p3ccfae2672)" style="fill: none; stroke: #2ca02c; stroke-width: 1.4"/>
    <path d="M 185.754 371.144825 
L 190.7355 374.115437 
L 195.717 374.880393 
L 200.6985 374.670403 
L 205.68 374.191246 
L 210.6615 373.786581 
L 215.643 373.439713 
L 220.6245 373.05104 
L 225.606 372.592081 
L 230.5875 372.098872 
L 235.569 371.674424 
L 240.5505 371.270739 
L 245.532 370.74813 
L 248.318777 370.481325 
L 250.5135 370.255408 
L 255.495 369.877355 
L 260.4765 369.421483 
L 265.458 368.815199 
L 270.4395 368.152336 
L 275.421 367.435242 
L 280.4025 366.780116 
L 285.384 366.401791 
L 290.349213 366.046125 
L 290.3655 366.044664 
L 295.347 365.195715 
L 300.3285 364.177274 
L 305.31 363.485716 
L 310.2915 363.29764 
L 315.273 363.270947 
L 320.2545 362.89369 
L 325.236 361.924672 
L 326.465243 361.610925 
L 330.2175 358.826282 
L 332.314411 357.175725 
L 330.2175 355.045746 
L 328.177607 352.740525 
L 325.236 351.33281 
L 320.2545 350.003172 
L 315.273 349.899059 
L 310.2915 349.985477 
L 305.31 349.161841 
L 300.349577 348.305325 
L 300.3285 348.30257 
L 295.347 348.039706 
L 290.3655 347.906551 
L 285.384 347.883732 
L 280.4025 348.272094 
L 280.136667 348.305325 
L 275.421 348.818592 
L 270.4395 349.078978 
L 265.458 348.959505 
L 260.4765 348.690104 
L 255.495 348.379987 
L 253.702747 348.305325 
L 250.5135 348.162414 
L 246.996324 348.305325 
L 245.532 348.353789 
L 240.5505 348.861739 
L 235.569 349.444166 
L 230.5875 349.907992 
L 225.606 349.931694 
L 220.6245 349.476697 
L 215.643 348.870214 
L 210.6615 348.450898 
L 205.68 348.309468 
L 205.43214 348.305325 
L 200.6985 348.193633 
L 198.362927 348.305325 
L 195.717 348.381945 
L 190.7355 349.711776 
L 186.874703 352.740525 
L 185.754 353.926576 
L 183.188448 357.175725 
L 181.727521 361.610925 
L 182.040347 366.046125 
L 184.934407 370.481325 
L 185.754 371.144825 
z
" clip-path="url(#p3ccfae2672)" style="fill: none; stroke: #2ca02c; stroke-width: 1.4"/>
   </g>
   <g id="patch_3">
    <path d="M 43.78125 377.134125 
L 43.78125 22.318125 
" style="fill: none; stroke: #000000; stroke-width: 0.8; stroke-linejoin: miter; stroke-linecap: square"/>
   </g>
   <g id="patch_4">
    <path d="M 442.30125 377.134125 
L 442.30125 22.318125 
" style="fill: none; stroke: #000000; stroke-width: 0.8; stroke-linejoin: miter; stroke-linecap: square"/>
   </g>
   <g id="patch_5">
    <path d="M 43.78125 377.134125 
L 442.30125 377.134125 
" style="fill: none; stroke: #000000; stroke-width: 0.8; stroke-linejoin: miter; stroke-linecap: square"/>
   </g>
   <g id="patch_6">
    <path d="M 43.78125 22.318125 
L 442.30125 22.318125 
" style="fill: none; stroke: #000000; stroke-width: 0.8; stroke-linejoin: miter; stroke-linecap: square"/>
   </g>
   <g id="text_15">
    <!-- Option 1: peak-only contour overlay by mark -->
    <g transform="translate(107.95125 16.318125) scale(0.12 -0.12)">
     <defs>
      <path id="DejaVuSans-4f" d="M 2522 4238 
Q 1834 4238 1429 3725 
Q 1025 3213 1025 2328 
Q 1025 1447 1429 934 
Q 1834 422 2522 422 
Q 3209 422 3611 934 
Q 4013 1447 4013 2328 
Q 4013 3213 3611 3725 
Q 3209 4238 2522 4238 
z
M 2522 4750 
Q 3503 4750 4090 4092 
Q 4678 3434 4678 2328 
Q 4678 1225 4090 567 
Q 3503 -91 2522 -91 
Q 1538 -91 948 565 
Q 359 1222 359 2328 
Q 359 3434 948 4092 
Q 1538 4750 2522 4750 
z
" transform="scale(0.015625)"/>
      <path id="DejaVuSans-3a" d="M 750 794 
L 1409 794 
L 1409 0 
L 750 0 
L 750 794 
z
M 750 3309 
L 1409 3309 
L 1409 2516 
L 750 2516 
L 750 3309 
z
" transform="scale(0.015625)"/>
      <path id="DejaVuSans-75" d="M 544 1381 
L 544 3500 
L 1119 3500 
L 1119 1403 
Q 1119 906 1312 657 
Q 1506 409 1894 409 
Q 2359 409 2629 706 
Q 2900 1003 2900 1516 
L 2900 3500 
L 3475 3500 
L 3475 0 
L 2900 0 
L 2900 538 
Q 2691 219 2414 64 
Q 2138 -91 1772 -91 
Q 1169 -91 856 284 
Q 544 659 544 1381 
z
M 1991 3584 
L 1991 3584 
z
" transform="scale(0.015625)"/>
      <path id="DejaVuSans-76" d="M 191 3500 
L 800 3500 
L 1894 563 
L 2988 3500 
L 3597 3500 
L 2284 0 
L 1503 0 
L 191 3500 
z
" transform="scale(0.015625)"/>
      <path id="DejaVuSans-62" d="M 3116 1747 
Q 3116 2381 2855 2742 
Q 2594 3103 2138 3103 
Q 1681 3103 1420 2742 
Q 1159 2381 1159 1747 
Q 1159 1113 1420 752 
Q 1681 391 2138 391 
Q 2594 391 2855 752 
Q 3116 1113 3116 1747 
z
M 1159 2969 
Q 1341 3281 1617 3432 
Q 1894 3584 2278 3584 
Q 2916 3584 3314 3078 
Q 3713 2572 3713 1747 
Q 3713 922 3314 415 
Q 2916 -91 2278 -91 
Q 1894 -91 1617 61 
Q 1341 213 1159 525 
L 1159 0 
L 581 0 
L 581 4863 
L 1159 4863 
L 1159 2969 
z
" transform="scale(0.015625)"/>
     </defs>
     <use xlink:href="#DejaVuSans-4f"/>
     <use xlink:href="#DejaVuSans-70" transform="translate(78.710938 0)"/>
     <use xlink:href="#DejaVuSans-74" transform="translate(142.1875 0)"/>
     <use xlink:href="#DejaVuSans-69" transform="translate(181.396484 0)"/>
     <use xlink:href="#DejaVuSans-6f" transform="translate(209.179688 0)"/>
     <use xlink:href="#DejaVuSans-6e" transform="translate(270.361328 0)"/>
     <use xlink:href="#DejaVuSans-20" transform="translate(333.740234 0)"/>
     <use xlink:href="#DejaVuSans-31" transform="translate(365.527344 0)"/>
     <use xlink:href="#DejaVuSans-3a" transform="translate(429.150391 0)"/>
     <use xlink:href="#DejaVuSans-20" transform="translate(462.841797 0)"/>
     <use xlink:href="#DejaVuSans-70" transform="translate(494.628906 0)"/>
     <use xlink:href="#DejaVuSans-65" transform="translate(558.105469 0)"/>
     <use xlink:href="#DejaVuSans-61" transform="translate(619.628906 0)"/>
     <use xlink:href="#DejaVuSans-6b" transform="translate(680.908203 0)"/>
     <use xlink:href="#DejaVuSans-2d" transform="translate(738.818359 0)"/>
     <use xlink:href="#DejaVuSans-6f" transform="translate(776.777344 0)"/>
     <use xlink:href="#DejaVuSans-6e" transform="translate(837.958984 0)"/>
     <use xlink:href="#DejaVuSans-6c" transform="translate(901.337891 0)"/>
     <use xlink:href="#DejaVuSans-79" transform="translate(929.121094 0)"/>
     <use xlink:href="#DejaVuSans-20" transform="translate(988.300781 0)"/>
     <use xlink:href="#DejaVuSans-63" transform="translate(1020.087891 0)"/>
     <use xlink:href="#DejaVuSans-6f" transform="translate(1075.068359 0)"/>
     <use xlink:href="#DejaVuSans-6e" transform="translate(1136.25 0)"/>
     <use xlink:href="#DejaVuSans-74" transform="translate(1199.628906 0)"/>
     <use xlink:href="#DejaVuSans-6f" transform="translate(1238.837891 0)"/>
     <use xlink:href="#DejaVuSans-75" transform="translate(1300.019531 0)"/>
     <use xlink:href="#DejaVuSans-72" transform="translate(1363.398438 0)"/>
     <use xlink:href="#DejaVuSans-20" transform="translate(1404.511719 0)"/>
     <use xlink:href="#DejaVuSans-6f" transform="translate(1436.298828 0)"/>
     <use xlink:href="#DejaVuSans-76" transform="translate(1497.480469 0)"/>
     <use xlink:href="#DejaVuSans-65" transform="translate(1556.660156 0)"/>
     <use xlink:href="#DejaVuSans-72" transform="translate(1618.183594 0)"/>
     <use xlink:href="#DejaVuSans-6c" transform="translate(1659.296875 0)"/>
     <use xlink:href="#DejaVuSans-61" transform="translate(1687.080078 0)"/>
     <use xlink:href="#DejaVuSans-79" transform="translate(1748.359375 0)"/>
     <use xlink:href="#DejaVuSans-20" transform="translate(1807.539062 0)"/>
     <use xlink:href="#DejaVuSans-62" transform="translate(1839.326172 0)"/>
     <use xlink:href="#DejaVuSans-79" transform="translate(1902.802734 0)"/>
     <use xlink:href="#DejaVuSans-20" transform="translate(1961.982422 0)"/>
     <use xlink:href="#DejaVuSans-6d" transform="translate(1993.769531 0)"/>
     <use xlink:href="#DejaVuSans-61" transform="translate(2091.181641 0)"/>
     <use xlink:href="#DejaVuSans-72" transform="translate(2152.460938 0)"/>
     <use xlink:href="#DejaVuSans-6b" transform="translate(2193.574219 0)"/>
    </g>
   </g>
   <g id="legend_1">
    <g id="patch_7">
     <path d="M 452.27165 230.582375 
L 537.743525 230.582375 
Q 539.743525 230.582375 539.743525 228.582375 
L 539.743525 170.869875 
Q 539.743525 168.869875 537.743525 168.869875 
L 452.27165 168.869875 
Q 450.27165 168.869875 450.27165 170.869875 
L 450.27165 228.582375 
Q 450.27165 230.582375 452.27165 230.582375 
z
" style="fill: #ffffff; opacity: 0.8; stroke: #cccccc; stroke-linejoin: miter"/>
    </g>
    <g id="text_16">
     <!-- Mark -->
     <g transform="translate(482.678681 180.468313) scale(0.1 -0.1)">
      <use xlink:href="#DejaVuSans-4d"/>
      <use xlink:href="#DejaVuSans-61" transform="translate(86.279297 0)"/>
      <use xlink:href="#DejaVuSans-72" transform="translate(147.558594 0)"/>
      <use xlink:href="#DejaVuSans-6b" transform="translate(188.671875 0)"/>
     </g>
    </g>
    <g id="line2d_13">
     <path d="M 454.27165 191.646438 
L 464.27165 191.646438 
L 474.27165 191.646438 
" style="fill: none; stroke: #d62728; stroke-width: 2; stroke-linecap: square"/>
    </g>
    <g id="text_17">
     <!-- h3k27ac -->
     <g transform="translate(482.27165 195.146438) scale(0.1 -0.1)">
      <defs>
       <path id="DejaVuSans-33" d="M 2597 2516 
Q 3050 2419 3304 2112 
Q 3559 1806 3559 1356 
Q 3559 666 3084 287 
Q 2609 -91 1734 -91 
Q 1441 -91 1130 -33 
Q 819 25 488 141 
L 488 750 
Q 750 597 1062 519 
Q 1375 441 1716 441 
Q 2309 441 2620 675 
Q 2931 909 2931 1356 
Q 2931 1769 2642 2001 
Q 2353 2234 1838 2234 
L 1294 2234 
L 1294 2753 
L 1863 2753 
Q 2328 2753 2575 2939 
Q 2822 3125 2822 3475 
Q 2822 3834 2567 4026 
Q 2313 4219 1838 4219 
Q 1578 4219 1281 4162 
Q 984 4106 628 3988 
L 628 4550 
Q 988 4650 1302 4700 
Q 1616 4750 1894 4750 
Q 2613 4750 3031 4423 
Q 3450 4097 3450 3541 
Q 3450 3153 3228 2886 
Q 3006 2619 2597 2516 
z
" transform="scale(0.015625)"/>
       <path id="DejaVuSans-37" d="M 525 4666 
L 3525 4666 
L 3525 4397 
L 1831 0 
L 1172 0 
L 2766 4134 
L 525 4134 
L 525 4666 
z
" transform="scale(0.015625)"/>
      </defs>
      <use xlink:href="#DejaVuSans-68"/>
      <use xlink:href="#DejaVuSans-33" transform="translate(63.378906 0)"/>
      <use xlink:href="#DejaVuSans-6b" transform="translate(127.001953 0)"/>
      <use xlink:href="#DejaVuSans-32" transform="translate(184.912109 0)"/>
      <use xlink:href="#DejaVuSans-37" transform="translate(248.535156 0)"/>
      <use xlink:href="#DejaVuSans-61" transform="translate(312.158203 0)"/>
      <use xlink:href="#DejaVuSans-63" transform="translate(373.4375 0)"/>
     </g>
    </g>
    <g id="line2d_14">
     <path d="M 454.27165 206.324563 
L 464.27165 206.324563 
L 474.27165 206.324563 
" style="fill: none; stroke: #1f77b4; stroke-width: 2; stroke-linecap: square"/>
    </g>
    <g id="text_18">
     <!-- h3k27me3 -->
     <g transform="translate(482.27165 209.824563) scale(0.1 -0.1)">
      <use xlink:href="#DejaVuSans-68"/>
      <use xlink:href="#DejaVuSans-33" transform="translate(63.378906 0)"/>
      <use xlink:href="#DejaVuSans-6b" transform="translate(127.001953 0)"/>
      <use xlink:href="#DejaVuSans-32" transform="translate(184.912109 0)"/>
      <use xlink:href="#DejaVuSans-37" transform="translate(248.535156 0)"/>
      <use xlink:href="#DejaVuSans-6d" transform="translate(312.158203 0)"/>
      <use xlink:href="#DejaVuSans-65" transform="translate(409.570312 0)"/>
      <use xlink:href="#DejaVuSans-33" transform="translate(471.09375 0)"/>
     </g>
    </g>
    <g id="line2d_15">
     <path d="M 454.27165 221.002688 
L 464.27165 221.002688 
L 474.27165 221.002688 
" style="fill: none; stroke: #2ca02c; stroke-width: 2; stroke-linecap: square"/>
    </g>
    <g id="text_19">
     <!-- h3k4me3 -->
     <g transform="translate(482.27165 224.502688) scale(0.1 -0.1)">
      <use xlink:href="#DejaVuSans-68"/>
      <use xlink:href="#DejaVuSans-33" transform="translate(63.378906 0)"/>
      <use xlink:href="#DejaVuSans-6b" transform="translate(127.001953 0)"/>
      <use xlink:href="#DejaVuSans-34" transform="translate(184.912109 0)"/>
      <use xlink:href="#DejaVuSans-6d" transform="translate(248.535156 0)"/>
      <use xlink:href="#DejaVuSans-65" transform="translate(345.947266 0)"/>
      <use xlink:href="#DejaVuSans-33" transform="translate(407.470703 0)"/>
     </g>
    </g>
   </g>
  </g>
 </g>
 <defs>
  <clipPath id="p3ccfae2672">
   <rect x="43.78125" y="22.318125" width="398.52" height="354.816"/>
  </clipPath>
 </defs>
</svg>
