<?xml version="1.0" encoding="utf-8" standalone="no"?>
<!DOCTYPE svg PUBLIC "-//W3C//DTD SVG 1.1//EN"
  "http://www.w3.org/Graphics/SVG/1.1/DTD/svg11.dtd">
<svg xmlns:xlink="http://www.w3.org/1999/xlink" width="546.943525pt" height="414.9685pt" viewBox="0 0 546.943525 414.9685" xmlns="http://www.w3.org/2000/svg" version="1.1">
 <metadata>
  <rdf:RDF xmlns:dc="http://purl.org/dc/elements/1.1/" xmlns:cc="http://creativecommons.org/ns#" xmlns:rdf="http://www.w3.org/1999/02/22-rdf-syntax-ns#">
   <cc:Work>
    <dc:type rdf:resource="http://purl.org/dc/dcmitype/StillImage"/>
    <dc:date>2026-03-06T14:45:21.522953</dc:date>
    <dc:format>image/svg+xml</dc:format>
    <dc:creator>
     <cc:Agent>
      <dc:title>Matplotlib v3.10.8, https://matplotlib.org/</dc:title>
     </cc:Agent>
    </dc:creator>
   </cc:Work>
  </rdf:RDF>
 </metadata>
 <defs>
  <style type="text/css">*{stroke-linejoin: round; stroke-linecap: butt}</style>
 </defs>
 <g id="figure_1">
  <g id="patch_1">
   <path d="M 0 414.9685 
L 546.943525 414.9685 
L 546.943525 0 
L 0 0 
z
" style="fill: #ffffff"/>
  </g>
  <g id="axes_1">
   <g id="patch_2">
    <path d="M 43.78125 377.134125 
L 442.30125 377.134125 
L 442.30125 22.318125 
L 43.78125 22.318125 
z
" style="fill: #ffffff"/>
   </g>
   <g id="matplotlib.axis_1">
    <g id="xtick_1">
     <g id="line2d_1">
      <defs>
       <path id="m23c4f2ddf8" d="M 0 0 
L 0 3.5 
" style="stroke: #000000; stroke-width: 0.8"/>
      </defs>
      <g>
       <use xlink:href="#m23c4f2ddf8" x="43.78125" y="377.134125" style="stroke: #000000; stroke-width: 0.8"/>
      </g>
     </g>
     <g id="text_1">
      <!-- 0.0 -->
      <g transform="translate(35.829688 391.732562) scale(0.1 -0.1)">
       <defs>
        <path id="DejaVuSans-30" d="M 2034 4250 
Q 1547 4250 1301 3770 
Q 1056 3291 1056 2328 
Q 1056 1369 1301 889 
Q 1547 409 2034 409 
Q 2525 409 2770 889 
Q 3016 1369 3016 2328 
Q 3016 3291 2770 3770 
Q 2525 4250 2034 4250 
z
M 2034 4750 
Q 2819 4750 3233 4129 
Q 3647 3509 3647 2328 
Q 3647 1150 3233 529 
Q 2819 -91 2034 -91 
Q 1250 -91 836 529 
Q 422 1150 422 2328 
Q 422 3509 836 4129 
Q 1250 4750 2034 4750 
z
" transform="scale(0.015625)"/>
        <path id="DejaVuSans-2e" d="M 684 794 
L 1344 794 
L 1344 0 
L 684 0 
L 684 794 
z
" transform="scale(0.015625)"/>
       </defs>
       <use xlink:href="#DejaVuSans-30"/>
       <use xlink:href="#DejaVuSans-2e" transform="translate(63.623047 0)"/>
       <use xlink:href="#DejaVuSans-30" transform="translate(95.410156 0)"/>
      </g>
     </g>
    </g>
    <g id="xtick_2">
     <g id="line2d_2">
      <g>
       <use xlink:href="#m23c4f2ddf8" x="92.630441" y="377.134125" style="stroke: #000000; stroke-width: 0.8"/>
      </g>
     </g>
     <g id="text_2">
      <!-- 0.5 -->
      <g transform="translate(84.678878 391.732562) scale(0.1 -0.1)">
       <defs>
        <path id="DejaVuSans-35" d="M 691 4666 
L 3169 4666 
L 3169 4134 
L 1269 4134 
L 1269 2991 
Q 1406 3038 1543 3061 
Q 1681 3084 1819 3084 
Q 2600 3084 3056 2656 
Q 3513 2228 3513 1497 
Q 3513 744 3044 326 
Q 2575 -91 1722 -91 
Q 1428 -91 1123 -41 
Q 819 9 494 109 
L 494 744 
Q 775 591 1075 516 
Q 1375 441 1709 441 
Q 2250 441 2565 725 
Q 2881 1009 2881 1497 
Q 2881 1984 2565 2268 
Q 2250 2553 1709 2553 
Q 1456 2553 1204 2497 
Q 953 2441 691 2322 
L 691 4666 
z
" transform="scale(0.015625)"/>
       </defs>
       <use xlink:href="#DejaVuSans-30"/>
       <use xlink:href="#DejaVuSans-2e" transform="translate(63.623047 0)"/>
       <use xlink:href="#DejaVuSans-35" transform="translate(95.410156 0)"/>
      </g>
     </g>
    </g>
    <g id="xtick_3">
     <g id="line2d_3">
      <g>
       <use xlink:href="#m23c4f2ddf8" x="141.479631" y="377.134125" style="stroke: #000000; stroke-width: 0.8"/>
      </g>
     </g>
     <g id="text_3">
      <!-- 1.0 -->
      <g transform="translate(133.528069 391.732562) scale(0.1 -0.1)">
       <defs>
        <path id="DejaVuSans-31" d="M 794 531 
L 1825 531 
L 1825 4091 
L 703 3866 
L 703 4441 
L 1819 4666 
L 2450 4666 
L 2450 531 
L 3481 531 
L 3481 0 
L 794 0 
L 794 531 
z
" transform="scale(0.015625)"/>
       </defs>
       <use xlink:href="#DejaVuSans-31"/>
       <use xlink:href="#DejaVuSans-2e" transform="translate(63.623047 0)"/>
       <use xlink:href="#DejaVuSans-30" transform="translate(95.410156 0)"/>
      </g>
     </g>
    </g>
    <g id="xtick_4">
     <g id="line2d_4">
      <g>
       <use xlink:href="#m23c4f2ddf8" x="190.328822" y="377.134125" style="stroke: #000000; stroke-width: 0.8"/>
      </g>
     </g>
     <g id="text_4">
      <!-- 1.5 -->
      <g transform="translate(182.377259 391.732562) scale(0.1 -0.1)">
       <use xlink:href="#DejaVuSans-31"/>
       <use xlink:href="#DejaVuSans-2e" transform="translate(63.623047 0)"/>
       <use xlink:href="#DejaVuSans-35" transform="translate(95.410156 0)"/>
      </g>
     </g>
    </g>
    <g id="xtick_5">
     <g id="line2d_5">
      <g>
       <use xlink:href="#m23c4f2ddf8" x="239.178012" y="377.134125" style="stroke: #000000; stroke-width: 0.8"/>
      </g>
     </g>
     <g id="text_5">
      <!-- 2.0 -->
      <g transform="translate(231.22645 391.732562) scale(0.1 -0.1)">
       <defs>
        <path id="DejaVuSans-32" d="M 1228 531 
L 3431 531 
L 3431 0 
L 469 0 
L 469 531 
Q 828 903 1448 1529 
Q 2069 2156 2228 2338 
Q 2531 2678 2651 2914 
Q 2772 3150 2772 3378 
Q 2772 3750 2511 3984 
Q 2250 4219 1831 4219 
Q 1534 4219 1204 4116 
Q 875 4013 500 3803 
L 500 4441 
Q 881 4594 1212 4672 
Q 1544 4750 1819 4750 
Q 2544 4750 2975 4387 
Q 3406 4025 3406 3419 
Q 3406 3131 3298 2873 
Q 3191 2616 2906 2266 
Q 2828 2175 2409 1742 
Q 1991 1309 1228 531 
z
" transform="scale(0.015625)"/>
       </defs>
       <use xlink:href="#DejaVuSans-32"/>
       <use xlink:href="#DejaVuSans-2e" transform="translate(63.623047 0)"/>
       <use xlink:href="#DejaVuSans-30" transform="translate(95.410156 0)"/>
      </g>
     </g>
    </g>
    <g id="xtick_6">
     <g id="line2d_6">
      <g>
       <use xlink:href="#m23c4f2ddf8" x="288.027203" y="377.134125" style="stroke: #000000; stroke-width: 0.8"/>
      </g>
     </g>
     <g id="text_6">
      <!-- 2.5 -->
      <g transform="translate(280.075641 391.732562) scale(0.1 -0.1)">
       <use xlink:href="#DejaVuSans-32"/>
       <use xlink:href="#DejaVuSans-2e" transform="translate(63.623047 0)"/>
       <use xlink:href="#DejaVuSans-35" transform="translate(95.410156 0)"/>
      </g>
     </g>
    </g>
    <g id="xtick_7">
     <g id="line2d_7">
      <g>
       <use xlink:href="#m23c4f2ddf8" x="336.876394" y="377.134125" style="stroke: #000000; stroke-width: 0.8"/>
      </g>
     </g>
     <g id="text_7">
      <!-- 3.0 -->
      <g transform="translate(328.924831 391.732562) scale(0.1 -0.1)">
       <defs>
        <path id="DejaVuSans-33" d="M 2597 2516 
Q 3050 2419 3304 2112 
Q 3559 1806 3559 1356 
Q 3559 666 3084 287 
Q 2609 -91 1734 -91 
Q 1441 -91 1130 -33 
Q 819 25 488 141 
L 488 750 
Q 750 597 1062 519 
Q 1375 441 1716 441 
Q 2309 441 2620 675 
Q 2931 909 2931 1356 
Q 2931 1769 2642 2001 
Q 2353 2234 1838 2234 
L 1294 2234 
L 1294 2753 
L 1863 2753 
Q 2328 2753 2575 2939 
Q 2822 3125 2822 3475 
Q 2822 3834 2567 4026 
Q 2313 4219 1838 4219 
Q 1578 4219 1281 4162 
Q 984 4106 628 3988 
L 628 4550 
Q 988 4650 1302 4700 
Q 1616 4750 1894 4750 
Q 2613 4750 3031 4423 
Q 3450 4097 3450 3541 
Q 3450 3153 3228 2886 
Q 3006 2619 2597 2516 
z
" transform="scale(0.015625)"/>
       </defs>
       <use xlink:href="#DejaVuSans-33"/>
       <use xlink:href="#DejaVuSans-2e" transform="translate(63.623047 0)"/>
       <use xlink:href="#DejaVuSans-30" transform="translate(95.410156 0)"/>
      </g>
     </g>
    </g>
    <g id="xtick_8">
     <g id="line2d_8">
      <g>
       <use xlink:href="#m23c4f2ddf8" x="385.725584" y="377.134125" style="stroke: #000000; stroke-width: 0.8"/>
      </g>
     </g>
     <g id="text_8">
      <!-- 3.5 -->
      <g transform="translate(377.774022 391.732562) scale(0.1 -0.1)">
       <use xlink:href="#DejaVuSans-33"/>
       <use xlink:href="#DejaVuSans-2e" transform="translate(63.623047 0)"/>
       <use xlink:href="#DejaVuSans-35" transform="translate(95.410156 0)"/>
      </g>
     </g>
    </g>
    <g id="xtick_9">
     <g id="line2d_9">
      <g>
       <use xlink:href="#m23c4f2ddf8" x="434.574775" y="377.134125" style="stroke: #000000; stroke-width: 0.8"/>
      </g>
     </g>
     <g id="text_9">
      <!-- 4.0 -->
      <g transform="translate(426.623212 391.732562) scale(0.1 -0.1)">
       <defs>
        <path id="DejaVuSans-34" d="M 2419 4116 
L 825 1625 
L 2419 1625 
L 2419 4116 
z
M 2253 4666 
L 3047 4666 
L 3047 1625 
L 3713 1625 
L 3713 1100 
L 3047 1100 
L 3047 0 
L 2419 0 
L 2419 1100 
L 313 1100 
L 313 1709 
L 2253 4666 
z
" transform="scale(0.015625)"/>
       </defs>
       <use xlink:href="#DejaVuSans-34"/>
       <use xlink:href="#DejaVuSans-2e" transform="translate(63.623047 0)"/>
       <use xlink:href="#DejaVuSans-30" transform="translate(95.410156 0)"/>
      </g>
     </g>
    </g>
    <g id="text_10">
     <!-- log1p(A_mod_density_per_kb) -->
     <g transform="translate(167.92875 405.410687) scale(0.1 -0.1)">
      <defs>
       <path id="DejaVuSans-6c" d="M 603 4863 
L 1178 4863 
L 1178 0 
L 603 0 
L 603 4863 
z
" transform="scale(0.015625)"/>
       <path id="DejaVuSans-6f" d="M 1959 3097 
Q 1497 3097 1228 2736 
Q 959 2375 959 1747 
Q 959 1119 1226 758 
Q 1494 397 1959 397 
Q 2419 397 2687 759 
Q 2956 1122 2956 1747 
Q 2956 2369 2687 2733 
Q 2419 3097 1959 3097 
z
M 1959 3584 
Q 2709 3584 3137 3096 
Q 3566 2609 3566 1747 
Q 3566 888 3137 398 
Q 2709 -91 1959 -91 
Q 1206 -91 779 398 
Q 353 888 353 1747 
Q 353 2609 779 3096 
Q 1206 3584 1959 3584 
z
" transform="scale(0.015625)"/>
       <path id="DejaVuSans-67" d="M 2906 1791 
Q 2906 2416 2648 2759 
Q 2391 3103 1925 3103 
Q 1463 3103 1205 2759 
Q 947 2416 947 1791 
Q 947 1169 1205 825 
Q 1463 481 1925 481 
Q 2391 481 2648 825 
Q 2906 1169 2906 1791 
z
M 3481 434 
Q 3481 -459 3084 -895 
Q 2688 -1331 1869 -1331 
Q 1566 -1331 1297 -1286 
Q 1028 -1241 775 -1147 
L 775 -588 
Q 1028 -725 1275 -790 
Q 1522 -856 1778 -856 
Q 2344 -856 2625 -561 
Q 2906 -266 2906 331 
L 2906 616 
Q 2728 306 2450 153 
Q 2172 0 1784 0 
Q 1141 0 747 490 
Q 353 981 353 1791 
Q 353 2603 747 3093 
Q 1141 3584 1784 3584 
Q 2172 3584 2450 3431 
Q 2728 3278 2906 2969 
L 2906 3500 
L 3481 3500 
L 3481 434 
z
" transform="scale(0.015625)"/>
       <path id="DejaVuSans-70" d="M 1159 525 
L 1159 -1331 
L 581 -1331 
L 581 3500 
L 1159 3500 
L 1159 2969 
Q 1341 3281 1617 3432 
Q 1894 3584 2278 3584 
Q 2916 3584 3314 3078 
Q 3713 2572 3713 1747 
Q 3713 922 3314 415 
Q 2916 -91 2278 -91 
Q 1894 -91 1617 61 
Q 1341 213 1159 525 
z
M 3116 1747 
Q 3116 2381 2855 2742 
Q 2594 3103 2138 3103 
Q 1681 3103 1420 2742 
Q 1159 2381 1159 1747 
Q 1159 1113 1420 752 
Q 1681 391 2138 391 
Q 2594 391 2855 752 
Q 3116 1113 3116 1747 
z
" transform="scale(0.015625)"/>
       <path id="DejaVuSans-28" d="M 1984 4856 
Q 1566 4138 1362 3434 
Q 1159 2731 1159 2009 
Q 1159 1288 1364 580 
Q 1569 -128 1984 -844 
L 1484 -844 
Q 1016 -109 783 600 
Q 550 1309 550 2009 
Q 550 2706 781 3412 
Q 1013 4119 1484 4856 
L 1984 4856 
z
" transform="scale(0.015625)"/>
       <path id="DejaVuSans-41" d="M 2188 4044 
L 1331 1722 
L 3047 1722 
L 2188 4044 
z
M 1831 4666 
L 2547 4666 
L 4325 0 
L 3669 0 
L 3244 1197 
L 1141 1197 
L 716 0 
L 50 0 
L 1831 4666 
z
" transform="scale(0.015625)"/>
       <path id="DejaVuSans-5f" d="M 3263 -1063 
L 3263 -1509 
L -63 -1509 
L -63 -1063 
L 3263 -1063 
z
" transform="scale(0.015625)"/>
       <path id="DejaVuSans-6d" d="M 3328 2828 
Q 3544 3216 3844 3400 
Q 4144 3584 4550 3584 
Q 5097 3584 5394 3201 
Q 5691 2819 5691 2113 
L 5691 0 
L 5113 0 
L 5113 2094 
Q 5113 2597 4934 2840 
Q 4756 3084 4391 3084 
Q 3944 3084 3684 2787 
Q 3425 2491 3425 1978 
L 3425 0 
L 2847 0 
L 2847 2094 
Q 2847 2600 2669 2842 
Q 2491 3084 2119 3084 
Q 1678 3084 1418 2786 
Q 1159 2488 1159 1978 
L 1159 0 
L 581 0 
L 581 3500 
L 1159 3500 
L 1159 2956 
Q 1356 3278 1631 3431 
Q 1906 3584 2284 3584 
Q 2666 3584 2933 3390 
Q 3200 3197 3328 2828 
z
" transform="scale(0.015625)"/>
       <path id="DejaVuSans-64" d="M 2906 2969 
L 2906 4863 
L 3481 4863 
L 3481 0 
L 2906 0 
L 2906 525 
Q 2725 213 2448 61 
Q 2172 -91 1784 -91 
Q 1150 -91 751 415 
Q 353 922 353 1747 
Q 353 2572 751 3078 
Q 1150 3584 1784 3584 
Q 2172 3584 2448 3432 
Q 2725 3281 2906 2969 
z
M 947 1747 
Q 947 1113 1208 752 
Q 1469 391 1925 391 
Q 2381 391 2643 752 
Q 2906 1113 2906 1747 
Q 2906 2381 2643 2742 
Q 2381 3103 1925 3103 
Q 1469 3103 1208 2742 
Q 947 2381 947 1747 
z
" transform="scale(0.015625)"/>
       <path id="DejaVuSans-65" d="M 3597 1894 
L 3597 1613 
L 953 1613 
Q 991 1019 1311 708 
Q 1631 397 2203 397 
Q 2534 397 2845 478 
Q 3156 559 3463 722 
L 3463 178 
Q 3153 47 2828 -22 
Q 2503 -91 2169 -91 
Q 1331 -91 842 396 
Q 353 884 353 1716 
Q 353 2575 817 3079 
Q 1281 3584 2069 3584 
Q 2775 3584 3186 3129 
Q 3597 2675 3597 1894 
z
M 3022 2063 
Q 3016 2534 2758 2815 
Q 2500 3097 2075 3097 
Q 1594 3097 1305 2825 
Q 1016 2553 972 2059 
L 3022 2063 
z
" transform="scale(0.015625)"/>
       <path id="DejaVuSans-6e" d="M 3513 2113 
L 3513 0 
L 2938 0 
L 2938 2094 
Q 2938 2591 2744 2837 
Q 2550 3084 2163 3084 
Q 1697 3084 1428 2787 
Q 1159 2491 1159 1978 
L 1159 0 
L 581 0 
L 581 3500 
L 1159 3500 
L 1159 2956 
Q 1366 3272 1645 3428 
Q 1925 3584 2291 3584 
Q 2894 3584 3203 3211 
Q 3513 2838 3513 2113 
z
" transform="scale(0.015625)"/>
       <path id="DejaVuSans-73" d="M 2834 3397 
L 2834 2853 
Q 2591 2978 2328 3040 
Q 2066 3103 1784 3103 
Q 1356 3103 1142 2972 
Q 928 2841 928 2578 
Q 928 2378 1081 2264 
Q 1234 2150 1697 2047 
L 1894 2003 
Q 2506 1872 2764 1633 
Q 3022 1394 3022 966 
Q 3022 478 2636 193 
Q 2250 -91 1575 -91 
Q 1294 -91 989 -36 
Q 684 19 347 128 
L 347 722 
Q 666 556 975 473 
Q 1284 391 1588 391 
Q 1994 391 2212 530 
Q 2431 669 2431 922 
Q 2431 1156 2273 1281 
Q 2116 1406 1581 1522 
L 1381 1569 
Q 847 1681 609 1914 
Q 372 2147 372 2553 
Q 372 3047 722 3315 
Q 1072 3584 1716 3584 
Q 2034 3584 2315 3537 
Q 2597 3491 2834 3397 
z
" transform="scale(0.015625)"/>
       <path id="DejaVuSans-69" d="M 603 3500 
L 1178 3500 
L 1178 0 
L 603 0 
L 603 3500 
z
M 603 4863 
L 1178 4863 
L 1178 4134 
L 603 4134 
L 603 4863 
z
" transform="scale(0.015625)"/>
       <path id="DejaVuSans-74" d="M 1172 4494 
L 1172 3500 
L 2356 3500 
L 2356 3053 
L 1172 3053 
L 1172 1153 
Q 1172 725 1289 603 
Q 1406 481 1766 481 
L 2356 481 
L 2356 0 
L 1766 0 
Q 1100 0 847 248 
Q 594 497 594 1153 
L 594 3053 
L 172 3053 
L 172 3500 
L 594 3500 
L 594 4494 
L 1172 4494 
z
" transform="scale(0.015625)"/>
       <path id="DejaVuSans-79" d="M 2059 -325 
Q 1816 -950 1584 -1140 
Q 1353 -1331 966 -1331 
L 506 -1331 
L 506 -850 
L 844 -850 
Q 1081 -850 1212 -737 
Q 1344 -625 1503 -206 
L 1606 56 
L 191 3500 
L 800 3500 
L 1894 763 
L 2988 3500 
L 3597 3500 
L 2059 -325 
z
" transform="scale(0.015625)"/>
       <path id="DejaVuSans-72" d="M 2631 2963 
Q 2534 3019 2420 3045 
Q 2306 3072 2169 3072 
Q 1681 3072 1420 2755 
Q 1159 2438 1159 1844 
L 1159 0 
L 581 0 
L 581 3500 
L 1159 3500 
L 1159 2956 
Q 1341 3275 1631 3429 
Q 1922 3584 2338 3584 
Q 2397 3584 2469 3576 
Q 2541 3569 2628 3553 
L 2631 2963 
z
" transform="scale(0.015625)"/>
       <path id="DejaVuSans-6b" d="M 581 4863 
L 1159 4863 
L 1159 1991 
L 2875 3500 
L 3609 3500 
L 1753 1863 
L 3688 0 
L 2938 0 
L 1159 1709 
L 1159 0 
L 581 0 
L 581 4863 
z
" transform="scale(0.015625)"/>
       <path id="DejaVuSans-62" d="M 3116 1747 
Q 3116 2381 2855 2742 
Q 2594 3103 2138 3103 
Q 1681 3103 1420 2742 
Q 1159 2381 1159 1747 
Q 1159 1113 1420 752 
Q 1681 391 2138 391 
Q 2594 391 2855 752 
Q 3116 1113 3116 1747 
z
M 1159 2969 
Q 1341 3281 1617 3432 
Q 1894 3584 2278 3584 
Q 2916 3584 3314 3078 
Q 3713 2572 3713 1747 
Q 3713 922 3314 415 
Q 2916 -91 2278 -91 
Q 1894 -91 1617 61 
Q 1341 213 1159 525 
L 1159 0 
L 581 0 
L 581 4863 
L 1159 4863 
L 1159 2969 
z
" transform="scale(0.015625)"/>
       <path id="DejaVuSans-29" d="M 513 4856 
L 1013 4856 
Q 1481 4119 1714 3412 
Q 1947 2706 1947 2009 
Q 1947 1309 1714 600 
Q 1481 -109 1013 -844 
L 513 -844 
Q 928 -128 1133 580 
Q 1338 1288 1338 2009 
Q 1338 2731 1133 3434 
Q 928 4138 513 4856 
z
" transform="scale(0.015625)"/>
      </defs>
      <use xlink:href="#DejaVuSans-6c"/>
      <use xlink:href="#DejaVuSans-6f" transform="translate(27.783203 0)"/>
      <use xlink:href="#DejaVuSans-67" transform="translate(88.964844 0)"/>
      <use xlink:href="#DejaVuSans-31" transform="translate(152.441406 0)"/>
      <use xlink:href="#DejaVuSans-70" transform="translate(216.064453 0)"/>
      <use xlink:href="#DejaVuSans-28" transform="translate(279.541016 0)"/>
      <use xlink:href="#DejaVuSans-41" transform="translate(318.554688 0)"/>
      <use xlink:href="#DejaVuSans-5f" transform="translate(386.962891 0)"/>
      <use xlink:href="#DejaVuSans-6d" transform="translate(436.962891 0)"/>
      <use xlink:href="#DejaVuSans-6f" transform="translate(534.375 0)"/>
      <use xlink:href="#DejaVuSans-64" transform="translate(595.556641 0)"/>
      <use xlink:href="#DejaVuSans-5f" transform="translate(659.033203 0)"/>
      <use xlink:href="#DejaVuSans-64" transform="translate(709.033203 0)"/>
      <use xlink:href="#DejaVuSans-65" transform="translate(772.509766 0)"/>
      <use xlink:href="#DejaVuSans-6e" transform="translate(834.033203 0)"/>
      <use xlink:href="#DejaVuSans-73" transform="translate(897.412109 0)"/>
      <use xlink:href="#DejaVuSans-69" transform="translate(949.511719 0)"/>
      <use xlink:href="#DejaVuSans-74" transform="translate(977.294922 0)"/>
      <use xlink:href="#DejaVuSans-79" transform="translate(1016.503906 0)"/>
      <use xlink:href="#DejaVuSans-5f" transform="translate(1075.683594 0)"/>
      <use xlink:href="#DejaVuSans-70" transform="translate(1125.683594 0)"/>
      <use xlink:href="#DejaVuSans-65" transform="translate(1189.160156 0)"/>
      <use xlink:href="#DejaVuSans-72" transform="translate(1250.683594 0)"/>
      <use xlink:href="#DejaVuSans-5f" transform="translate(1291.796875 0)"/>
      <use xlink:href="#DejaVuSans-6b" transform="translate(1341.796875 0)"/>
      <use xlink:href="#DejaVuSans-62" transform="translate(1399.707031 0)"/>
      <use xlink:href="#DejaVuSans-29" transform="translate(1463.183594 0)"/>
     </g>
    </g>
   </g>
   <g id="matplotlib.axis_2">
    <g id="ytick_1">
     <g id="line2d_10">
      <defs>
       <path id="mb2737e9e8d" d="M 0 0 
L -3.5 0 
" style="stroke: #000000; stroke-width: 0.8"/>
      </defs>
      <g>
       <use xlink:href="#mb2737e9e8d" x="43.78125" y="377.134125" style="stroke: #000000; stroke-width: 0.8"/>
      </g>
     </g>
     <g id="text_11">
      <!-- 0.0 -->
      <g transform="translate(20.878125 380.933344) scale(0.1 -0.1)">
       <use xlink:href="#DejaVuSans-30"/>
       <use xlink:href="#DejaVuSans-2e" transform="translate(63.623047 0)"/>
       <use xlink:href="#DejaVuSans-30" transform="translate(95.410156 0)"/>
      </g>
     </g>
    </g>
    <g id="ytick_2">
     <g id="line2d_11">
      <g>
       <use xlink:href="#mb2737e9e8d" x="43.78125" y="306.170925" style="stroke: #000000; stroke-width: 0.8"/>
      </g>
     </g>
     <g id="text_12">
      <!-- 0.2 -->
      <g transform="translate(20.878125 309.970144) scale(0.1 -0.1)">
       <use xlink:href="#DejaVuSans-30"/>
       <use xlink:href="#DejaVuSans-2e" transform="translate(63.623047 0)"/>
       <use xlink:href="#DejaVuSans-32" transform="translate(95.410156 0)"/>
      </g>
     </g>
    </g>
    <g id="ytick_3">
     <g id="line2d_12">
      <g>
       <use xlink:href="#mb2737e9e8d" x="43.78125" y="235.207725" style="stroke: #000000; stroke-width: 0.8"/>
      </g>
     </g>
     <g id="text_13">
      <!-- 0.4 -->
      <g transform="translate(20.878125 239.006944) scale(0.1 -0.1)">
       <use xlink:href="#DejaVuSans-30"/>
       <use xlink:href="#DejaVuSans-2e" transform="translate(63.623047 0)"/>
       <use xlink:href="#DejaVuSans-34" transform="translate(95.410156 0)"/>
      </g>
     </g>
    </g>
    <g id="ytick_4">
     <g id="line2d_13">
      <g>
       <use xlink:href="#mb2737e9e8d" x="43.78125" y="164.244525" style="stroke: #000000; stroke-width: 0.8"/>
      </g>
     </g>
     <g id="text_14">
      <!-- 0.6 -->
      <g transform="translate(20.878125 168.043744) scale(0.1 -0.1)">
       <defs>
        <path id="DejaVuSans-36" d="M 2113 2584 
Q 1688 2584 1439 2293 
Q 1191 2003 1191 1497 
Q 1191 994 1439 701 
Q 1688 409 2113 409 
Q 2538 409 2786 701 
Q 3034 994 3034 1497 
Q 3034 2003 2786 2293 
Q 2538 2584 2113 2584 
z
M 3366 4563 
L 3366 3988 
Q 3128 4100 2886 4159 
Q 2644 4219 2406 4219 
Q 1781 4219 1451 3797 
Q 1122 3375 1075 2522 
Q 1259 2794 1537 2939 
Q 1816 3084 2150 3084 
Q 2853 3084 3261 2657 
Q 3669 2231 3669 1497 
Q 3669 778 3244 343 
Q 2819 -91 2113 -91 
Q 1303 -91 875 529 
Q 447 1150 447 2328 
Q 447 3434 972 4092 
Q 1497 4750 2381 4750 
Q 2619 4750 2861 4703 
Q 3103 4656 3366 4563 
z
" transform="scale(0.015625)"/>
       </defs>
       <use xlink:href="#DejaVuSans-30"/>
       <use xlink:href="#DejaVuSans-2e" transform="translate(63.623047 0)"/>
       <use xlink:href="#DejaVuSans-36" transform="translate(95.410156 0)"/>
      </g>
     </g>
    </g>
    <g id="ytick_5">
     <g id="line2d_14">
      <g>
       <use xlink:href="#mb2737e9e8d" x="43.78125" y="93.281325" style="stroke: #000000; stroke-width: 0.8"/>
      </g>
     </g>
     <g id="text_15">
      <!-- 0.8 -->
      <g transform="translate(20.878125 97.080544) scale(0.1 -0.1)">
       <defs>
        <path id="DejaVuSans-38" d="M 2034 2216 
Q 1584 2216 1326 1975 
Q 1069 1734 1069 1313 
Q 1069 891 1326 650 
Q 1584 409 2034 409 
Q 2484 409 2743 651 
Q 3003 894 3003 1313 
Q 3003 1734 2745 1975 
Q 2488 2216 2034 2216 
z
M 1403 2484 
Q 997 2584 770 2862 
Q 544 3141 544 3541 
Q 544 4100 942 4425 
Q 1341 4750 2034 4750 
Q 2731 4750 3128 4425 
Q 3525 4100 3525 3541 
Q 3525 3141 3298 2862 
Q 3072 2584 2669 2484 
Q 3125 2378 3379 2068 
Q 3634 1759 3634 1313 
Q 3634 634 3220 271 
Q 2806 -91 2034 -91 
Q 1263 -91 848 271 
Q 434 634 434 1313 
Q 434 1759 690 2068 
Q 947 2378 1403 2484 
z
M 1172 3481 
Q 1172 3119 1398 2916 
Q 1625 2713 2034 2713 
Q 2441 2713 2670 2916 
Q 2900 3119 2900 3481 
Q 2900 3844 2670 4047 
Q 2441 4250 2034 4250 
Q 1625 4250 1398 4047 
Q 1172 3844 1172 3481 
z
" transform="scale(0.015625)"/>
       </defs>
       <use xlink:href="#DejaVuSans-30"/>
       <use xlink:href="#DejaVuSans-2e" transform="translate(63.623047 0)"/>
       <use xlink:href="#DejaVuSans-38" transform="translate(95.410156 0)"/>
      </g>
     </g>
    </g>
    <g id="ytick_6">
     <g id="line2d_15">
      <g>
       <use xlink:href="#mb2737e9e8d" x="43.78125" y="22.318125" style="stroke: #000000; stroke-width: 0.8"/>
      </g>
     </g>
     <g id="text_16">
      <!-- 1.0 -->
      <g transform="translate(20.878125 26.117344) scale(0.1 -0.1)">
       <use xlink:href="#DejaVuSans-31"/>
       <use xlink:href="#DejaVuSans-2e" transform="translate(63.623047 0)"/>
       <use xlink:href="#DejaVuSans-30" transform="translate(95.410156 0)"/>
      </g>
     </g>
    </g>
    <g id="text_17">
     <!-- Methylation fraction [0,1] -->
     <g transform="translate(14.798438 263.473) rotate(-90) scale(0.1 -0.1)">
      <defs>
       <path id="DejaVuSans-4d" d="M 628 4666 
L 1569 4666 
L 2759 1491 
L 3956 4666 
L 4897 4666 
L 4897 0 
L 4281 0 
L 4281 4097 
L 3078 897 
L 2444 897 
L 1241 4097 
L 1241 0 
L 628 0 
L 628 4666 
z
" transform="scale(0.015625)"/>
       <path id="DejaVuSans-68" d="M 3513 2113 
L 3513 0 
L 2938 0 
L 2938 2094 
Q 2938 2591 2744 2837 
Q 2550 3084 2163 3084 
Q 1697 3084 1428 2787 
Q 1159 2491 1159 1978 
L 1159 0 
L 581 0 
L 581 4863 
L 1159 4863 
L 1159 2956 
Q 1366 3272 1645 3428 
Q 1925 3584 2291 3584 
Q 2894 3584 3203 3211 
Q 3513 2838 3513 2113 
z
" transform="scale(0.015625)"/>
       <path id="DejaVuSans-61" d="M 2194 1759 
Q 1497 1759 1228 1600 
Q 959 1441 959 1056 
Q 959 750 1161 570 
Q 1363 391 1709 391 
Q 2188 391 2477 730 
Q 2766 1069 2766 1631 
L 2766 1759 
L 2194 1759 
z
M 3341 1997 
L 3341 0 
L 2766 0 
L 2766 531 
Q 2569 213 2275 61 
Q 1981 -91 1556 -91 
Q 1019 -91 701 211 
Q 384 513 384 1019 
Q 384 1609 779 1909 
Q 1175 2209 1959 2209 
L 2766 2209 
L 2766 2266 
Q 2766 2663 2505 2880 
Q 2244 3097 1772 3097 
Q 1472 3097 1187 3025 
Q 903 2953 641 2809 
L 641 3341 
Q 956 3463 1253 3523 
Q 1550 3584 1831 3584 
Q 2591 3584 2966 3190 
Q 3341 2797 3341 1997 
z
" transform="scale(0.015625)"/>
       <path id="DejaVuSans-20" transform="scale(0.015625)"/>
       <path id="DejaVuSans-66" d="M 2375 4863 
L 2375 4384 
L 1825 4384 
Q 1516 4384 1395 4259 
Q 1275 4134 1275 3809 
L 1275 3500 
L 2222 3500 
L 2222 3053 
L 1275 3053 
L 1275 0 
L 697 0 
L 697 3053 
L 147 3053 
L 147 3500 
L 697 3500 
L 697 3744 
Q 697 4328 969 4595 
Q 1241 4863 1831 4863 
L 2375 4863 
z
" transform="scale(0.015625)"/>
       <path id="DejaVuSans-63" d="M 3122 3366 
L 3122 2828 
Q 2878 2963 2633 3030 
Q 2388 3097 2138 3097 
Q 1578 3097 1268 2742 
Q 959 2388 959 1747 
Q 959 1106 1268 751 
Q 1578 397 2138 397 
Q 2388 397 2633 464 
Q 2878 531 3122 666 
L 3122 134 
Q 2881 22 2623 -34 
Q 2366 -91 2075 -91 
Q 1284 -91 818 406 
Q 353 903 353 1747 
Q 353 2603 823 3093 
Q 1294 3584 2113 3584 
Q 2378 3584 2631 3529 
Q 2884 3475 3122 3366 
z
" transform="scale(0.015625)"/>
       <path id="DejaVuSans-5b" d="M 550 4863 
L 1875 4863 
L 1875 4416 
L 1125 4416 
L 1125 -397 
L 1875 -397 
L 1875 -844 
L 550 -844 
L 550 4863 
z
" transform="scale(0.015625)"/>
       <path id="DejaVuSans-2c" d="M 750 794 
L 1409 794 
L 1409 256 
L 897 -744 
L 494 -744 
L 750 256 
L 750 794 
z
" transform="scale(0.015625)"/>
       <path id="DejaVuSans-5d" d="M 1947 4863 
L 1947 -844 
L 622 -844 
L 622 -397 
L 1369 -397 
L 1369 4416 
L 622 4416 
L 622 4863 
L 1947 4863 
z
" transform="scale(0.015625)"/>
      </defs>
      <use xlink:href="#DejaVuSans-4d"/>
      <use xlink:href="#DejaVuSans-65" transform="translate(86.279297 0)"/>
      <use xlink:href="#DejaVuSans-74" transform="translate(147.802734 0)"/>
      <use xlink:href="#DejaVuSans-68" transform="translate(187.011719 0)"/>
      <use xlink:href="#DejaVuSans-79" transform="translate(250.390625 0)"/>
      <use xlink:href="#DejaVuSans-6c" transform="translate(309.570312 0)"/>
      <use xlink:href="#DejaVuSans-61" transform="translate(337.353516 0)"/>
      <use xlink:href="#DejaVuSans-74" transform="translate(398.632812 0)"/>
      <use xlink:href="#DejaVuSans-69" transform="translate(437.841797 0)"/>
      <use xlink:href="#DejaVuSans-6f" transform="translate(465.625 0)"/>
      <use xlink:href="#DejaVuSans-6e" transform="translate(526.806641 0)"/>
      <use xlink:href="#DejaVuSans-20" transform="translate(590.185547 0)"/>
      <use xlink:href="#DejaVuSans-66" transform="translate(621.972656 0)"/>
      <use xlink:href="#DejaVuSans-72" transform="translate(657.177734 0)"/>
      <use xlink:href="#DejaVuSans-61" transform="translate(698.291016 0)"/>
      <use xlink:href="#DejaVuSans-63" transform="translate(759.570312 0)"/>
      <use xlink:href="#DejaVuSans-74" transform="translate(814.550781 0)"/>
      <use xlink:href="#DejaVuSans-69" transform="translate(853.759766 0)"/>
      <use xlink:href="#DejaVuSans-6f" transform="translate(881.542969 0)"/>
      <use xlink:href="#DejaVuSans-6e" transform="translate(942.724609 0)"/>
      <use xlink:href="#DejaVuSans-20" transform="translate(1006.103516 0)"/>
      <use xlink:href="#DejaVuSans-5b" transform="translate(1037.890625 0)"/>
      <use xlink:href="#DejaVuSans-30" transform="translate(1076.904297 0)"/>
      <use xlink:href="#DejaVuSans-2c" transform="translate(1140.527344 0)"/>
      <use xlink:href="#DejaVuSans-31" transform="translate(1172.314453 0)"/>
      <use xlink:href="#DejaVuSans-5d" transform="translate(1235.9375 0)"/>
     </g>
    </g>
   </g>
   <g id="QuadContourSet_1">
    <path d="M 438.449093 374.916525 
L 435.454124 370.481325 
L 434.829 370.122688 
L 429.8475 368.645682 
L 424.866 367.80943 
L 419.8845 367.353547 
L 414.903 367.10585 
L 409.9215 366.743511 
L 403.292034 366.046125 
L 399.9585 365.340382 
L 394.977 364.406805 
L 385.014 362.740968 
L 380.0325 362.081021 
L 373.183625 361.610925 
L 370.0695 360.944948 
L 365.088 360.262548 
L 360.1065 359.040793 
L 357.382459 357.175725 
L 355.125 353.857852 
L 354.52645 352.740525 
L 353.882055 348.305325 
L 353.9052 343.870125 
L 352.94186 339.434925 
L 351.607157 334.999725 
L 350.1435 325.541944 
L 347.963227 321.694125 
L 345.162 318.091198 
L 340.1805 316.370679 
L 335.199 316.274686 
L 330.413794 312.823725 
L 330.618093 308.388525 
L 334.626359 303.953325 
L 335.199 302.768221 
L 336.42347 299.518125 
L 336.089708 295.082925 
L 335.199 294.117945 
L 330.2175 292.065123 
L 325.236 291.460465 
L 320.2545 290.193426 
L 315.273 288.712779 
L 311.547424 286.212525 
L 310.2915 284.913103 
L 305.31 281.636958 
L 300.3285 280.735229 
L 295.347 278.942503 
L 291.902095 277.342125 
L 290.3655 276.093825 
L 285.384 275.027954 
L 280.4025 274.561447 
L 275.421 273.678318 
L 270.4395 273.607519 
L 268.905661 272.906925 
L 265.674098 268.471725 
L 266.781245 264.036525 
L 268.418468 259.601325 
L 268.881953 255.166125 
L 265.458 252.543513 
L 260.4765 250.95186 
L 260.153592 250.730925 
L 255.495 247.095735 
L 250.5135 247.353458 
L 245.532 249.650517 
L 240.5505 249.237514 
L 236.764373 246.295725 
L 236.980644 241.860525 
L 238.930516 237.425325 
L 236.151774 232.990125 
L 235.569 232.770002 
L 230.5875 232.540117 
L 225.606 231.517863 
L 220.586939 228.554925 
L 214.468939 224.119725 
L 210.6615 220.838982 
L 205.68 219.746864 
L 200.6985 219.660501 
L 195.717 217.995592 
L 193.49478 215.249325 
L 192.646585 210.814125 
L 190.7355 208.702126 
L 188.224679 206.378925 
L 185.754 204.639497 
L 180.7725 203.934306 
L 175.791 207.119511 
L 170.8095 210.74538 
L 165.828 210.301053 
L 160.8465 208.309555 
L 158.14035 206.378925 
L 157.012996 201.943725 
L 158.012986 197.508525 
L 160.8465 193.016182 
L 155.865 192.322447 
L 153.45541 193.073325 
L 150.8835 194.42588 
L 148.035101 197.508525 
L 145.902 199.464422 
L 143.933027 201.943725 
L 140.9205 205.557157 
L 135.939 206.219531 
L 130.9575 204.563322 
L 125.976 203.240405 
L 120.9945 202.443508 
L 116.912082 201.943725 
L 116.013 201.636772 
L 115.441508 201.943725 
L 111.0315 206.522487 
L 106.05 206.582434 
L 105.789842 206.378925 
L 99.435071 201.943725 
L 93.37973 197.508525 
L 91.1055 193.031266 
L 90.495775 188.638125 
L 90.741721 184.202925 
L 91.1055 179.705203 
L 86.124 177.543877 
L 81.1425 176.779562 
L 78.749779 175.332525 
L 76.161 171.938415 
L 75.611765 170.897325 
L 75.781584 166.462125 
L 71.1795 162.531672 
L 68.899281 162.026925 
L 66.198 160.822393 
L 65.957226 157.591725 
L 66.198 156.433118 
L 71.321728 153.156525 
L 72.260418 148.721325 
L 71.1795 147.592482 
L 66.857969 144.286125 
L 66.198 143.928989 
L 64.61279 139.850925 
L 63.740967 135.415725 
L 63.414344 130.980525 
L 63.104133 122.110125 
L 62.110236 113.239725 
L 61.2165 109.948203 
L 61.127711 108.804525 
L 59.876259 99.934125 
L 59.555138 95.498925 
L 58.881504 82.193325 
L 58.675928 77.758125 
L 58.700511 73.322925 
L 58.969182 68.887725 
L 59.033385 64.452525 
L 58.671273 60.017325 
L 58.159978 55.582125 
L 57.835691 51.146925 
L 57.682989 46.711725 
L 57.381256 42.276525 
L 56.574501 37.841325 
L 56.235 36.673782 
L 55.756647 33.406125 
L 54.677893 28.970925 
L 52.002199 24.535725 
L 52.002199 24.535725 
" clip-path="url(#pd164e393b0)" style="fill: none; stroke: #d62728; stroke-width: 1.4"/>
    <path d="M 419.787392 374.916525 
L 414.903 373.793979 
L 409.9215 372.133359 
L 404.369412 370.481325 
L 389.9955 368.846095 
L 385.014 368.213973 
L 380.0325 367.833321 
L 375.051 367.643848 
L 370.0695 367.237175 
L 359.54677 366.046125 
L 355.125 364.968656 
L 346.906663 361.610925 
L 345.162 360.005803 
L 339.98846 357.175725 
L 335.199 355.268977 
L 330.2175 353.727515 
L 328.074103 352.740525 
L 325.236 350.724016 
L 320.2545 346.928445 
L 314.349774 343.870125 
L 310.2915 340.707659 
L 308.896966 339.434925 
L 305.31 333.859238 
L 302.079991 330.564525 
L 300.3285 328.53268 
L 297.910467 326.129325 
L 295.347 323.981867 
L 292.23589 321.694125 
L 290.3655 320.033695 
L 287.674948 317.258925 
L 285.384 313.575936 
L 284.14592 312.823725 
L 280.4025 311.287166 
L 275.421 310.957457 
L 270.4395 312.079726 
L 267.168539 308.388525 
L 265.458 307.201871 
L 262.342246 303.953325 
L 260.4765 303.158648 
L 255.495 301.464688 
L 250.5135 300.152609 
L 249.457205 299.518125 
L 245.532 297.319358 
L 240.5505 292.725873 
L 235.569 290.425342 
L 230.5875 289.805677 
L 225.606 290.216397 
L 220.6245 291.432709 
L 217.597525 290.647725 
L 215.643 289.014494 
L 210.6615 286.533817 
L 209.631188 286.212525 
L 205.68 285.159852 
L 200.206806 281.777325 
L 195.717 277.390817 
L 190.7355 277.224386 
L 190.459088 277.342125 
L 185.754 278.724135 
L 180.7725 278.689182 
L 177.610084 277.342125 
L 175.791 276.311462 
L 170.8095 273.268273 
L 169.512087 272.906925 
L 165.828 271.418697 
L 160.8465 271.645169 
L 155.865 270.819319 
L 152.55859 268.471725 
L 150.8835 265.965869 
L 145.902 261.845526 
L 140.9205 262.467281 
L 135.939 263.9209 
L 130.9575 263.197072 
L 125.976 263.168283 
L 123.961611 264.036525 
L 120.9945 264.919445 
L 116.013 265.79842 
L 111.0315 265.100911 
L 108.462483 264.036525 
L 101.0685 259.328746 
L 96.087 258.774908 
L 92.141225 259.601325 
L 91.1055 260.00425 
L 86.114718 259.601325 
L 81.1425 256.630627 
L 80.322242 255.166125 
L 76.808687 250.730925 
L 76.161 250.296556 
L 71.1795 248.169665 
L 68.746283 246.295725 
L 67.69401 241.860525 
L 68.696184 237.425325 
L 68.254117 232.990125 
L 66.198 229.746619 
L 65.057992 224.119725 
L 64.871154 219.684525 
L 65.717978 210.814125 
L 65.670365 206.378925 
L 64.708043 201.943725 
L 63.348261 197.508525 
L 62.352586 193.073325 
L 62.261121 188.638125 
L 62.523808 184.202925 
L 62.246023 179.767725 
L 61.2165 173.630552 
L 60.886475 166.462125 
L 60.558105 162.026925 
L 60.462122 157.591725 
L 60.641059 153.156525 
L 60.657381 148.721325 
L 59.777252 135.415725 
L 59.466568 126.545325 
L 59.187844 117.674925 
L 58.911823 113.239725 
L 58.343918 108.804525 
L 57.380618 104.369325 
L 56.556594 99.934125 
L 56.235 95.491928 
L 55.958994 86.628525 
L 55.528115 77.758125 
L 55.520968 73.322925 
L 55.688591 68.887725 
L 55.736088 64.452525 
L 54.850984 46.711725 
L 54.57576 42.276525 
L 54.016648 37.841325 
L 53.120298 33.406125 
L 51.2535 28.617716 
L 46.272 25.178655 
L 46.272 25.178655 
" clip-path="url(#pd164e393b0)" style="fill: none; stroke: #d62728; stroke-width: 1.4"/>
    <path d="M 343.447636 374.916525 
L 340.736429 370.481325 
L 340.1805 370.300792 
L 335.199 369.192094 
L 330.2175 368.615624 
L 325.236 368.302606 
L 320.2545 367.800317 
L 315.273 367.036801 
L 310.2915 366.44008 
L 305.31 365.960019 
L 300.3285 364.385665 
L 296.056 361.610925 
L 291.54634 357.175725 
L 290.3655 356.263578 
L 285.384 354.35377 
L 280.4025 353.898944 
L 275.421 352.994679 
L 270.4395 350.953802 
L 265.943451 348.305325 
L 265.458 347.836404 
L 262.024693 343.870125 
L 260.4765 341.675027 
L 255.495 339.564898 
L 250.5135 339.984437 
L 245.532 340.606628 
L 240.5505 340.276112 
L 238.049408 339.434925 
L 235.569 338.433743 
L 229.838424 334.999725 
L 225.606 331.939406 
L 220.6245 330.276967 
L 215.643 328.838078 
L 209.35058 326.129325 
L 205.68 324.128604 
L 200.6985 323.110285 
L 195.717 322.787652 
L 190.240293 321.694125 
L 185.754 319.927509 
L 180.7725 317.785236 
L 175.791 316.606996 
L 170.8095 315.837779 
L 165.828 315.394922 
L 160.8465 315.447062 
L 155.865 315.067057 
L 145.902 310.906835 
L 140.9205 311.011606 
L 135.939 312.11984 
L 125.976 313.16426 
L 120.9945 314.441659 
L 116.013 315.974855 
L 111.0315 316.258389 
L 106.05 315.751459 
L 91.1055 315.59405 
L 86.124 315.700319 
L 81.1425 315.932493 
L 76.161 316.030051 
L 71.1795 316.401247 
L 66.198 317.213551 
L 64.503327 312.823725 
L 62.413417 308.388525 
L 61.2165 305.526465 
L 60.857665 299.518125 
L 60.645732 295.082925 
L 60.557339 286.212525 
L 60.09218 277.342125 
L 59.979998 268.471725 
L 59.977178 259.601325 
L 59.645182 241.860525 
L 59.648954 237.425325 
L 59.531994 232.990125 
L 59.010556 224.119725 
L 58.963745 210.814125 
L 58.367441 201.943725 
L 57.605615 193.073325 
L 57.492393 184.202925 
L 56.659 170.897325 
L 55.999367 162.026925 
L 55.888098 157.591725 
L 55.959036 153.156525 
L 55.905385 148.721325 
L 53.989821 113.239725 
L 53.494293 108.804525 
L 52.767519 104.369325 
L 52.189303 99.934125 
L 51.786216 91.063725 
L 51.2535 86.211323 
L 50.303265 82.193325 
L 49.481358 77.758125 
L 49.349022 73.322925 
L 49.845471 68.887725 
L 49.986691 64.452525 
L 49.386687 60.017325 
L 48.6061 55.582125 
L 47.940438 51.146925 
L 47.140755 46.711725 
L 46.272 43.291454 
L 46.272 43.291454 
" clip-path="url(#pd164e393b0)" style="fill: none; stroke: #d62728; stroke-width: 1.4"/>
    <path d="M 182.813806 374.916525 
L 185.754 374.34607 
L 190.7355 373.825673 
L 195.717 373.66727 
L 200.6985 373.291809 
L 205.68 372.573493 
L 210.6615 371.687256 
L 215.643 371.018635 
L 220.6245 370.677727 
L 221.594151 370.481325 
L 223.330183 366.046125 
L 221.566324 361.610925 
L 220.6245 360.819847 
L 216.320197 357.175725 
L 215.643 356.876637 
L 210.6615 354.116189 
L 207.82242 352.740525 
L 205.68 351.815807 
L 200.6985 350.46673 
L 195.717 349.330484 
L 190.7355 348.322824 
L 190.649624 348.305325 
L 185.754 347.3064 
L 180.7725 346.217462 
L 175.791 345.085121 
L 170.8095 344.107577 
L 169.306116 343.870125 
L 165.828 343.158259 
L 160.8465 341.809954 
L 155.865 340.169126 
L 152.777388 339.434925 
L 150.8835 338.944184 
L 145.902 338.278699 
L 140.9205 337.968777 
L 135.939 337.581283 
L 130.9575 336.695661 
L 125.976 335.680772 
L 120.9945 335.317307 
L 116.013 335.21489 
L 113.325769 334.999725 
L 111.0315 334.7556 
L 106.05 334.377558 
L 101.0685 334.540627 
L 96.087 334.802828 
L 91.1055 334.825954 
L 86.124 334.811695 
L 81.1425 334.911927 
L 76.161 334.940199 
L 71.1795 334.998328 
L 66.198 334.967434 
L 61.2165 331.438629 
L 60.974652 330.564525 
L 59.958306 326.129325 
L 59.033932 321.694125 
L 58.229262 317.258925 
L 57.491901 312.823725 
L 56.842899 308.388525 
L 56.306978 303.953325 
L 56.235 303.36748 
L 56.014854 299.518125 
L 55.783201 295.082925 
L 55.679867 290.647725 
L 55.582569 286.212525 
L 55.360508 281.777325 
L 55.159822 277.342125 
L 55.036317 272.906925 
L 54.916536 268.471725 
L 54.828845 264.036525 
L 54.746943 259.601325 
L 54.658429 255.166125 
L 54.59734 250.730925 
L 54.530741 246.295725 
L 54.447947 241.860525 
L 54.355552 237.425325 
L 54.214046 232.990125 
L 54.015859 228.554925 
L 53.87256 224.119725 
L 53.869645 219.684525 
L 53.846812 215.249325 
L 53.604415 210.814125 
L 53.218155 206.378925 
L 52.924482 201.943725 
L 52.642294 197.508525 
L 52.335463 193.073325 
L 52.230378 188.638125 
L 52.121282 184.202925 
L 51.766834 179.767725 
L 51.368043 175.332525 
L 51.2535 173.181243 
L 51.039535 170.897325 
L 50.477086 166.462125 
L 49.554165 162.026925 
L 49.047484 157.591725 
L 49.150066 153.156525 
L 48.921976 148.721325 
L 48.1355 144.286125 
L 47.334412 139.850925 
L 46.615081 135.415725 
L 46.272 133.974626 
" clip-path="url(#pd164e393b0)" style="fill: none; stroke: #d62728; stroke-width: 1.4"/>
    <path d="M 63.683204 374.916525 
L 66.198 374.030359 
L 71.1795 373.700928 
L 76.161 373.36681 
L 81.1425 372.988702 
L 86.124 372.681409 
L 91.1055 372.366763 
L 96.087 371.9268 
L 101.0685 371.391884 
L 106.05 370.886671 
L 111.0315 370.482775 
L 111.051781 370.481325 
L 116.013 369.972459 
L 120.9945 369.220522 
L 125.976 368.122994 
L 130.9575 366.729791 
L 133.253855 366.046125 
L 135.939 363.84021 
L 139.189344 361.610925 
L 136.158079 357.175725 
L 135.939 357.100256 
L 130.9575 355.068192 
L 125.976 353.326857 
L 123.867684 352.740525 
L 120.9945 352.127888 
L 116.013 351.252202 
L 111.0315 350.293829 
L 106.05 349.203506 
L 101.0685 348.357271 
L 100.620485 348.305325 
L 96.087 347.757418 
L 91.1055 347.293608 
L 86.124 346.894534 
L 81.1425 346.533457 
L 76.161 346.180879 
L 71.1795 345.954614 
L 66.198 345.773247 
L 61.2165 343.900555 
L 61.200844 343.870125 
L 59.247918 339.434925 
L 57.21727 334.999725 
L 56.235 332.666707 
L 55.769305 330.564525 
L 54.861213 326.129325 
L 53.908929 321.694125 
L 52.967838 317.258925 
L 52.140048 312.823725 
L 51.498851 308.388525 
L 51.2535 306.265128 
L 50.794905 303.953325 
L 49.802593 299.518125 
L 48.797935 295.082925 
L 48.166919 290.647725 
L 47.582417 286.212525 
L 46.710135 281.777325 
L 46.272 279.032716 
" clip-path="url(#pd164e393b0)" style="fill: none; stroke: #d62728; stroke-width: 1.4"/>
   </g>
   <g id="QuadContourSet_2">
    <path d="M 439.8105 360.853467 
L 437.567531 357.175725 
L 437.270608 352.740525 
L 436.824502 348.305325 
L 434.829 343.871183 
L 434.827664 343.870125 
L 429.8475 339.829765 
L 429.408917 339.434925 
L 427.212126 334.999725 
L 424.866 332.37993 
L 421.507101 330.564525 
L 419.8845 329.925028 
L 414.903 327.055928 
L 413.994996 326.129325 
L 412.862628 321.694125 
L 414.903 317.524929 
L 414.994417 317.258925 
L 415.206 312.823725 
L 414.903 312.348016 
L 409.9215 310.203037 
L 404.94 310.585221 
L 403.715646 308.388525 
L 399.9585 304.56169 
L 399.682326 303.953325 
L 396.172544 299.518125 
L 394.977 298.524016 
L 391.12711 295.082925 
L 389.9955 294.149829 
L 385.014 291.941619 
L 382.914317 290.647725 
L 381.375822 286.212525 
L 380.0325 282.856645 
L 379.602858 281.777325 
L 375.051 278.074298 
L 373.13765 277.342125 
L 370.0695 276.280255 
L 365.088 275.524542 
L 360.1065 275.275903 
L 355.125 274.772749 
L 350.1435 273.260586 
L 349.484256 272.906925 
L 345.162 271.028117 
L 340.1805 269.465808 
L 337.21562 268.471725 
L 335.199 267.2375 
L 331.960011 264.036525 
L 330.2175 262.526065 
L 326.652792 259.601325 
L 325.236 258.72228 
L 320.2545 256.401577 
L 315.273 255.732913 
L 310.2915 255.176473 
L 310.261426 255.166125 
L 305.31 252.374893 
L 304.038288 250.730925 
L 301.066785 246.295725 
L 300.3285 245.644334 
L 295.347 243.065639 
L 290.3655 242.698193 
L 285.384 245.181294 
L 284.213634 246.295725 
L 282.761199 250.730925 
L 281.683719 255.166125 
L 280.4025 257.270601 
L 275.421 255.970868 
L 274.635215 255.166125 
L 271.377897 250.730925 
L 270.4395 248.635521 
L 268.550165 246.295725 
L 265.458 243.674704 
L 260.4765 244.800582 
L 255.495 246.211529 
L 255.126428 246.295725 
L 250.5135 247.97957 
L 248.756288 250.730925 
L 245.532 252.415385 
L 240.5505 253.618345 
L 235.569 252.33847 
L 232.515245 250.730925 
L 230.5875 246.853494 
L 230.317443 246.295725 
L 229.564027 241.860525 
L 229.578636 237.425325 
L 228.684013 232.990125 
L 225.606 229.938113 
L 223.865257 228.554925 
L 220.6245 226.912419 
L 215.643 226.189071 
L 210.6615 228.217671 
L 210.118009 228.554925 
L 205.68 231.282648 
L 200.6985 230.993469 
L 195.717 230.460558 
L 190.7355 231.254925 
L 187.775388 232.990125 
L 185.754 235.409486 
L 184.051624 237.425325 
L 180.7725 239.891892 
L 175.791 240.291946 
L 170.8095 240.10547 
L 165.828 241.400558 
L 164.78026 241.860525 
L 160.8465 245.458157 
L 155.865 244.927629 
L 150.8835 243.599506 
L 148.282357 246.295725 
L 145.902 247.160761 
L 140.9205 248.376513 
L 135.939 248.361736 
L 130.9575 249.974629 
L 126.818732 250.730925 
L 125.976 250.784667 
L 125.157908 250.730925 
L 120.9945 250.192818 
L 119.945655 250.730925 
L 116.013 251.390536 
L 111.0315 253.238769 
L 106.992642 255.166125 
L 106.05 255.479981 
L 101.0685 256.659494 
L 96.087 257.27315 
L 91.1055 255.29855 
L 90.97226 255.166125 
L 87.533603 250.730925 
L 86.124 249.055077 
L 81.696002 250.730925 
L 81.1425 250.864648 
L 76.161 254.84601 
L 75.195915 255.166125 
L 71.1795 256.152869 
L 66.198 255.64505 
L 65.909771 255.166125 
L 63.331234 250.730925 
L 61.300286 246.295725 
L 61.2165 245.869298 
L 61.055385 241.860525 
L 61.036456 237.425325 
L 61.049665 232.990125 
L 60.95552 228.554925 
L 60.616934 224.119725 
L 60.238117 219.684525 
L 60.019994 215.249325 
L 59.891829 210.814125 
L 59.677137 206.378925 
L 59.272677 201.943725 
L 59.14362 197.508525 
L 59.338591 193.073325 
L 59.327208 188.638125 
L 58.852031 184.202925 
L 58.177586 179.767725 
L 57.826423 175.332525 
L 57.949642 170.897325 
L 58.032716 166.462125 
L 57.808129 162.026925 
L 57.637739 157.591725 
L 57.53246 153.156525 
L 57.158897 148.721325 
L 56.825197 144.286125 
L 56.771967 139.850925 
L 56.667422 135.415725 
L 56.311551 130.980525 
L 56.235 130.470866 
L 55.97429 126.545325 
L 55.763309 122.110125 
L 55.656843 117.674925 
L 55.447785 113.239725 
L 55.370311 108.804525 
L 55.4487 104.369325 
L 55.568459 99.934125 
L 55.833961 95.498925 
L 56.10844 91.063725 
L 56.187336 86.628525 
L 56.111568 82.193325 
L 56.057654 77.758125 
L 55.896098 73.322925 
L 55.516446 68.887725 
L 55.351309 64.452525 
L 55.266582 60.017325 
L 54.918942 55.582125 
L 54.484214 51.146925 
L 54.49026 46.711725 
L 54.83085 42.276525 
L 54.995262 37.841325 
L 54.899143 33.406125 
L 54.078129 28.970925 
L 51.2535 24.865764 
L 50.668419 24.535725 
M 130.9575 237.589377 
L 135.939 239.660801 
L 140.9205 238.689085 
L 144.793465 237.425325 
L 145.902 236.570876 
L 148.140865 232.990125 
L 145.902654 228.554925 
L 145.902 228.554338 
L 140.9205 226.905121 
L 137.807474 228.554925 
L 135.939 229.766616 
L 132.309198 232.990125 
L 130.9575 237.23624 
L 130.058012 237.425325 
L 130.9575 237.589377 
z
" clip-path="url(#pd164e393b0)" style="fill: none; stroke: #1f77b4; stroke-width: 1.4"/>
    <path d="M 439.8105 368.614665 
L 434.644233 366.046125 
L 429.8475 364.332163 
L 424.866 363.287217 
L 419.8845 362.458989 
L 413.516293 361.610925 
L 404.94 358.222688 
L 401.379241 357.175725 
L 399.9585 356.408101 
L 394.392754 352.740525 
L 389.9955 347.590639 
L 384.492688 343.870125 
L 380.0325 340.136936 
L 379.374398 339.434925 
L 374.957801 334.999725 
L 372.603443 330.564525 
L 370.0695 327.602221 
L 368.03953 326.129325 
L 365.088 324.467927 
L 360.1065 323.438845 
L 355.125 322.202661 
L 350.1435 320.545921 
L 344.771217 317.258925 
L 340.1805 313.026043 
L 339.754672 312.823725 
L 335.199 310.024826 
L 331.829666 308.388525 
L 330.2175 307.866643 
L 325.236 306.071635 
L 315.273 303.452165 
L 310.2915 301.139118 
L 305.31 298.996045 
L 300.3285 297.689892 
L 295.347 295.26021 
L 290.3655 295.103741 
L 285.384 297.848948 
L 280.4025 298.402141 
L 275.421 296.658584 
L 272.645629 295.082925 
L 270.4395 291.995042 
L 269.174351 290.647725 
L 265.458 287.534507 
L 260.4765 286.979851 
L 255.495 287.512905 
L 250.5135 288.266999 
L 245.532 288.768859 
L 235.569 288.970883 
L 230.5875 288.831065 
L 225.606 288.33717 
L 220.6245 287.653427 
L 215.643 287.501727 
L 210.6615 288.518397 
L 205.68 289.697684 
L 200.6985 289.386877 
L 190.7355 285.81904 
L 185.754 285.326654 
L 180.7725 285.599945 
L 170.8095 285.529077 
L 165.828 285.278794 
L 160.8465 283.838516 
L 155.865 282.780371 
L 150.8835 283.628456 
L 145.902 286.476823 
L 140.9205 288.443721 
L 135.939 288.7097 
L 130.9575 287.755091 
L 125.976 287.135328 
L 120.9945 287.815504 
L 116.013 289.072103 
L 111.0315 288.440626 
L 106.05 286.788037 
L 101.0685 285.92388 
L 96.087 285.795603 
L 94.411216 286.212525 
L 91.1055 286.719354 
L 86.124 288.361806 
L 76.161 292.831944 
L 71.1795 294.211359 
L 66.198 293.194827 
L 62.383975 281.777325 
L 61.193772 277.342125 
L 60.590599 268.471725 
L 59.474069 259.601325 
L 58.893386 255.166125 
L 56.868778 241.860525 
L 56.739896 232.990125 
L 56.235 228.552913 
L 55.592097 219.684525 
L 55.293108 210.814125 
L 54.550449 201.943725 
L 54.229375 188.638125 
L 52.864029 179.767725 
L 52.590961 175.332525 
L 53.033023 166.462125 
L 52.469837 153.156525 
L 52.046243 148.721325 
L 51.2535 142.909061 
L 50.554964 139.850925 
L 49.894253 135.415725 
L 49.426593 130.980525 
L 48.530854 126.545325 
L 48.016551 122.110125 
L 48.014186 117.674925 
L 47.645049 113.239725 
L 47.448292 108.804525 
L 47.558921 99.934125 
L 48.912543 91.063725 
L 48.851354 86.628525 
L 47.803054 82.193325 
L 46.532733 77.758125 
L 46.272 76.258348 
L 46.272 76.258348 
" clip-path="url(#pd164e393b0)" style="fill: none; stroke: #1f77b4; stroke-width: 1.4"/>
    <path d="M 424.524421 374.916525 
L 419.8845 372.042013 
L 416.521319 370.481325 
L 414.903 370.198757 
L 409.9215 369.336443 
L 404.94 368.222841 
L 399.9585 367.106796 
L 394.977 366.315855 
L 392.7431 366.046125 
L 389.9955 365.524771 
L 385.014 364.590965 
L 380.0325 363.845277 
L 375.051 363.288881 
L 370.0695 362.785815 
L 365.088 362.202076 
L 361.377016 361.610925 
L 360.1065 361.118964 
L 355.125 359.004475 
L 350.1435 357.731436 
L 346.050179 357.175725 
L 345.162 356.996457 
L 340.1805 355.725526 
L 335.199 353.981315 
L 331.77526 352.740525 
L 330.2175 351.97272 
L 325.236 349.843707 
L 320.2545 348.326819 
L 320.17344 348.305325 
L 315.273 346.797258 
L 310.2915 345.454642 
L 305.31 344.532371 
L 300.3285 344.241594 
L 295.488163 343.870125 
L 295.347 343.8477 
L 290.3655 341.319389 
L 285.384 339.437281 
L 285.375036 339.434925 
L 280.4025 337.945996 
L 275.421 336.350872 
L 270.4395 335.499543 
L 266.912114 334.999725 
L 265.458 334.728247 
L 260.4765 333.198439 
L 255.495 331.843405 
L 250.5135 330.855084 
L 248.056728 330.564525 
L 245.532 330.138082 
L 240.5505 329.512756 
L 235.569 328.670662 
L 230.5875 327.126266 
L 228.550796 326.129325 
L 225.606 324.567134 
L 220.6245 322.897065 
L 215.643 322.537136 
L 210.6615 322.803661 
L 205.68 323.666658 
L 200.6985 324.623025 
L 195.717 324.821653 
L 190.7355 323.66748 
L 186.339815 321.694125 
L 185.754 321.375972 
L 180.7725 319.683547 
L 175.791 318.883151 
L 170.8095 317.924853 
L 165.848458 317.258925 
L 165.828 317.255716 
L 165.772788 317.258925 
L 160.8465 317.45312 
L 155.865 317.916372 
L 150.8835 317.864667 
L 146.380939 317.258925 
L 145.902 317.171985 
L 140.9205 316.721021 
L 135.939 317.093075 
L 134.294171 317.258925 
L 130.9575 317.539666 
L 125.976 317.884962 
L 120.9945 318.261118 
L 116.013 318.582834 
L 111.0315 318.552414 
L 106.05 318.364534 
L 101.0685 318.38115 
L 96.087 318.397066 
L 91.1055 318.401556 
L 86.124 318.638491 
L 81.1425 319.114402 
L 76.161 319.667197 
L 71.1795 320.056913 
L 66.198 319.621593 
L 64.369614 317.258925 
L 61.2165 313.126313 
L 61.167906 312.823725 
L 60.594116 308.388525 
L 60.049781 303.953325 
L 59.50286 299.518125 
L 58.896294 295.082925 
L 58.146644 290.647725 
L 57.311725 286.212525 
L 56.528711 281.777325 
L 56.235 280.087563 
L 56.003151 277.342125 
L 55.537391 272.906925 
L 54.971189 268.471725 
L 54.37345 264.036525 
L 53.805149 259.601325 
L 53.219204 255.166125 
L 52.436249 250.730925 
L 51.446855 246.295725 
L 51.2535 245.030383 
L 50.420689 241.860525 
L 50.249716 237.425325 
L 50.085422 232.990125 
L 48.909026 228.554925 
L 47.0674 224.119725 
L 46.272 221.127141 
" clip-path="url(#pd164e393b0)" style="fill: none; stroke: #1f77b4; stroke-width: 1.4"/>
    <path d="M 355.65771 374.916525 
L 355.125 374.566306 
L 350.1435 372.043675 
L 346.527221 370.481325 
L 345.162 370.299128 
L 340.1805 369.612458 
L 335.199 368.865664 
L 330.2175 368.076335 
L 325.236 367.240376 
L 320.2545 366.58875 
L 315.273 366.29224 
L 310.782649 366.046125 
L 310.2915 366.01146 
L 305.31 365.231259 
L 300.3285 364.213092 
L 295.347 363.37254 
L 290.3655 362.831505 
L 285.384 362.434688 
L 280.4025 361.881217 
L 278.71981 361.610925 
L 275.421 360.861898 
L 270.4395 359.834007 
L 265.458 359.143829 
L 260.4765 358.722385 
L 255.495 358.402551 
L 250.5135 358.028332 
L 245.532 357.577247 
L 242.064699 357.175725 
L 240.5505 356.921778 
L 235.569 356.000869 
L 230.5875 355.040601 
L 225.606 354.145196 
L 220.6245 353.682921 
L 215.643 353.611943 
L 210.6615 353.439313 
L 205.68 352.929509 
L 204.471644 352.740525 
L 200.6985 351.898922 
L 195.717 350.737505 
L 190.7355 349.875474 
L 185.754 349.22433 
L 180.7725 348.440028 
L 179.998861 348.305325 
L 175.791 347.360286 
L 170.8095 346.659465 
L 165.828 346.370818 
L 160.8465 346.161934 
L 155.865 345.646493 
L 150.8835 344.715123 
L 146.457603 343.870125 
L 145.902 343.719984 
L 140.9205 342.935096 
L 135.939 342.67005 
L 130.9575 342.466809 
L 125.976 342.081807 
L 120.9945 341.352135 
L 116.013 340.533905 
L 111.0315 340.168541 
L 106.05 340.098423 
L 101.0685 339.870686 
L 96.087 339.523201 
L 94.237102 339.434925 
L 91.1055 339.24763 
L 86.124 339.174892 
L 81.1425 339.268826 
L 76.161 339.281536 
L 71.1795 339.180519 
L 66.198 338.775714 
L 61.2165 335.073834 
L 61.193532 334.999725 
L 60.022008 330.564525 
L 58.749334 326.129325 
L 57.310399 321.694125 
L 56.235 318.584567 
L 55.992337 317.258925 
L 55.226659 312.823725 
L 54.481167 308.388525 
L 53.745166 303.953325 
L 52.913927 299.518125 
L 51.897667 295.082925 
L 51.2535 292.557969 
L 50.355278 290.647725 
L 48.447337 286.212525 
L 46.728994 281.777325 
L 46.272 280.671346 
" clip-path="url(#pd164e393b0)" style="fill: none; stroke: #1f77b4; stroke-width: 1.4"/>
    <path d="M 64.830881 374.916525 
L 66.198 374.07773 
L 71.1795 373.555912 
L 76.161 373.350695 
L 81.1425 373.105751 
L 86.124 372.881173 
L 91.1055 372.736884 
L 96.087 372.571863 
L 101.0685 372.412747 
L 106.05 372.302038 
L 111.0315 372.187309 
L 116.013 372.102298 
L 120.9945 372.074227 
L 125.976 372.01541 
L 130.9575 371.920198 
L 135.939 372.080005 
L 140.9205 372.408605 
L 145.902 372.317946 
L 150.8835 371.788109 
L 155.865 371.384628 
L 160.8465 371.370899 
L 165.828 371.666261 
L 170.8095 372.00511 
L 175.791 371.948604 
L 180.7725 371.361123 
L 185.754 370.706332 
L 188.358198 370.481325 
L 185.754 368.721956 
L 183.689266 366.046125 
L 180.7725 365.37084 
L 175.791 364.289233 
L 170.8095 363.815442 
L 165.828 363.471236 
L 160.8465 362.763873 
L 155.865 361.73954 
L 155.405929 361.610925 
L 150.8835 360.82885 
L 145.902 359.908852 
L 140.9205 359.439695 
L 135.939 359.300605 
L 130.9575 358.979286 
L 125.976 358.30034 
L 120.9945 357.327613 
L 120.339555 357.175725 
L 116.013 356.314153 
L 111.0315 355.543829 
L 106.05 355.033316 
L 101.0685 354.396506 
L 96.087 353.532027 
L 91.143453 352.740525 
L 91.1055 352.733965 
L 86.124 352.041981 
L 81.1425 351.381939 
L 76.161 350.676663 
L 71.1795 350.053859 
L 66.198 349.388471 
L 64.173117 348.305325 
L 61.2165 346.506836 
L 60.060103 343.870125 
L 58.018416 339.434925 
L 56.235 335.837683 
L 55.995584 334.999725 
L 54.866973 330.564525 
L 53.606454 326.129325 
L 52.145741 321.694125 
L 51.2535 319.110499 
L 50.022667 317.258925 
L 47.162986 312.823725 
L 46.272 311.266516 
" clip-path="url(#pd164e393b0)" style="fill: none; stroke: #1f77b4; stroke-width: 1.4"/>
   </g>
   <g id="QuadContourSet_3">
    <path d="M 439.8105 364.498232 
L 434.750378 361.610925 
L 430.542365 357.175725 
L 430.06227 352.740525 
L 431.293681 348.305325 
L 430.613413 343.870125 
L 427.922859 339.434925 
L 424.823621 330.564525 
L 420.02681 326.129325 
L 419.8845 325.491071 
L 418.325143 321.694125 
L 419.8845 319.339693 
L 420.574353 317.258925 
L 419.8845 316.554722 
L 414.903 314.343984 
L 409.9215 312.725604 
L 404.94 310.088633 
L 399.622581 303.953325 
L 395.993254 299.518125 
L 394.977 297.258897 
L 394.306483 295.082925 
L 392.732841 290.647725 
L 389.9955 288.930542 
L 380.0325 286.683195 
L 377.572487 286.212525 
L 375.051 285.518912 
L 370.0695 282.970598 
L 368.939982 281.777325 
L 364.236601 272.906925 
L 361.945854 268.471725 
L 360.1065 266.820558 
L 354.747525 264.036525 
L 349.105005 259.601325 
L 345.162 255.549515 
L 344.128855 255.166125 
L 340.1805 254.682259 
L 335.199 251.719309 
L 330.2175 247.941938 
L 326.572491 246.295725 
L 325.236 245.378414 
L 320.2545 243.396464 
L 315.273 243.138445 
L 310.2915 243.766369 
L 305.31 246.608183 
L 300.3285 248.629039 
L 295.347 247.69239 
L 291.6214 246.295725 
L 290.3655 244.461068 
L 288.829869 241.860525 
L 289.037928 237.425325 
L 285.064229 232.990125 
L 280.4025 231.593635 
L 275.421 231.564559 
L 270.843687 232.990125 
L 270.4395 233.285982 
L 265.458 236.784422 
L 260.4765 236.518354 
L 255.495 236.993393 
L 254.112518 237.425325 
L 250.5135 238.197262 
L 245.532 238.296078 
L 240.5505 237.750772 
L 239.574475 237.425325 
L 235.569 235.344494 
L 233.57161 232.990125 
L 230.5875 231.064211 
L 225.606 229.471512 
L 220.6245 228.308729 
L 215.643 228.327845 
L 214.971226 228.554925 
L 213.494024 232.990125 
L 214.248359 237.425325 
L 213.061981 241.860525 
L 210.6615 243.001029 
L 205.68 243.577334 
L 199.239279 241.860525 
L 197.993049 237.425325 
L 199.787841 232.990125 
L 195.717 229.608908 
L 193.919822 232.990125 
L 193.845412 237.425325 
L 192.75592 241.860525 
L 190.7355 242.640591 
L 185.754 245.391782 
L 180.7725 246.683873 
L 175.791 246.70309 
L 173.883301 246.295725 
L 170.8095 245.244128 
L 165.828 243.814236 
L 160.8465 244.901844 
L 158.610127 246.295725 
L 155.865 247.72 
L 150.323715 250.730925 
L 145.902 253.59254 
L 144.309849 255.166125 
L 135.939 258.628837 
L 130.9575 259.774045 
L 125.976 260.443717 
L 120.9945 259.950118 
L 120.278509 259.601325 
L 116.013 256.581336 
L 111.0315 256.619445 
L 105.964443 255.166125 
L 101.193559 250.730925 
L 101.0685 250.297041 
L 98.002562 246.295725 
L 96.087 245.499952 
L 95.410288 246.295725 
L 91.008257 250.730925 
L 86.124 254.088123 
L 85.244343 255.166125 
L 83.082333 259.601325 
L 81.1425 261.896123 
L 78.369836 264.036525 
L 76.161 265.101681 
L 71.92862 268.471725 
L 71.1795 269.647154 
L 68.094654 272.906925 
L 66.198 273.62098 
L 65.896269 272.906925 
L 64.427667 268.471725 
L 63.206791 264.036525 
L 62.540707 259.601325 
L 61.694178 255.166125 
L 61.2165 253.762542 
L 60.657004 246.295725 
L 60.354687 237.425325 
L 60.120069 224.119725 
L 59.758584 219.684525 
L 58.5963 210.814125 
L 58.53108 206.378925 
L 58.826725 201.943725 
L 58.791574 197.508525 
L 58.203193 193.073325 
L 57.397904 188.638125 
L 57.041029 184.202925 
L 57.139865 179.767725 
L 56.990233 175.332525 
L 55.501365 162.026925 
L 55.184162 157.591725 
L 55.11593 148.721325 
L 54.295572 139.850925 
L 54.230851 135.415725 
L 54.551353 130.980525 
L 54.62977 126.545325 
L 53.734549 117.674925 
L 53.923148 113.239725 
L 54.517661 108.804525 
L 54.667825 104.369325 
L 54.352963 99.934125 
L 54.178295 95.498925 
L 54.278267 91.063725 
L 54.01807 86.628525 
L 52.11843 77.758125 
L 52.069872 73.322925 
L 52.179271 68.887725 
L 51.033409 60.017325 
L 51.403012 55.582125 
L 51.753527 51.146925 
L 51.947396 46.711725 
L 51.98742 42.276525 
L 51.624503 37.841325 
L 51.2535 35.782601 
L 50.492593 33.406125 
L 48.229965 28.970925 
L 46.272 27.202239 
L 46.272 27.202239 
" clip-path="url(#pd164e393b0)" style="fill: none; stroke: #2ca02c; stroke-width: 1.4"/>
    <path d="M 438.132106 374.916525 
L 435.624561 370.481325 
L 434.829 370.025368 
L 419.8845 365.787427 
L 414.903 364.657762 
L 404.94 362.775999 
L 399.9585 362.115418 
L 394.96036 361.610925 
L 389.9955 359.14872 
L 385.014 357.372687 
L 384.109464 357.175725 
L 380.0325 355.288851 
L 375.051 353.532079 
L 373.895944 352.740525 
L 373.041536 348.305325 
L 375.051 344.389624 
L 378.783492 343.870125 
L 375.051 339.295077 
L 370.0695 338.445539 
L 365.088 338.623622 
L 360.1065 338.406299 
L 355.881249 334.999725 
L 355.840505 330.564525 
L 360.1065 327.566553 
L 365.088 326.678224 
L 366.193903 326.129325 
L 365.088 325.666807 
L 360.1065 321.457894 
L 355.125 318.039763 
L 354.431552 317.258925 
L 350.891584 312.823725 
L 350.1435 312.144982 
L 345.162 310.110361 
L 340.1805 309.720342 
L 337.260233 308.388525 
L 335.199 307.292465 
L 332.351576 303.953325 
L 330.2175 301.060599 
L 328.8744 299.518125 
L 325.236 296.415257 
L 319.966503 295.082925 
L 315.273 294.295139 
L 310.2915 292.956593 
L 305.31 291.138558 
L 304.514366 290.647725 
L 301.575964 286.212525 
L 300.3285 285.538579 
L 295.347 284.102269 
L 290.3655 284.396841 
L 288.306331 286.212525 
L 284.705434 290.647725 
L 280.4025 291.973799 
L 275.421 291.727396 
L 273.460079 290.647725 
L 269.69167 286.212525 
L 265.458 282.887664 
L 260.4765 281.397677 
L 255.495 280.01702 
L 250.5135 279.68232 
L 245.532 279.885834 
L 235.569 279.137245 
L 230.5875 279.353621 
L 225.606 280.110676 
L 220.6245 280.192414 
L 215.643 278.925999 
L 210.6615 277.159496 
L 205.68 277.782979 
L 200.6985 279.874204 
L 195.717 280.461083 
L 190.7355 278.756388 
L 185.754 278.198982 
L 180.7725 279.491921 
L 175.612198 281.777325 
L 170.8095 283.621926 
L 165.828 283.231774 
L 160.8465 281.555892 
L 155.865 281.414499 
L 150.8835 282.978324 
L 145.902 285.502957 
L 143.991335 286.212525 
L 140.9205 287.184409 
L 135.939 288.581069 
L 130.9575 289.609411 
L 125.976 289.233979 
L 120.9945 289.060406 
L 116.013 289.687701 
L 110.409574 290.647725 
L 106.05 291.828605 
L 101.0685 294.403025 
L 99.336061 295.082925 
L 96.087 296.02817 
L 91.1055 295.699308 
L 86.124 295.042198 
L 81.1425 294.534138 
L 76.161 294.329882 
L 71.1795 294.683218 
L 66.198 295.400358 
L 65.969116 295.082925 
L 63.178368 290.647725 
L 61.2165 287.269753 
L 60.68324 281.777325 
L 58.728817 264.036525 
L 58.413011 259.601325 
L 57.868992 255.166125 
L 56.306804 246.295725 
L 56.235 245.544428 
L 55.013789 219.684525 
L 53.554135 206.378925 
L 53.727226 197.508525 
L 53.250998 193.073325 
L 52.385402 188.638125 
L 51.930092 184.202925 
L 51.96193 179.767725 
L 51.816889 175.332525 
L 51.240073 170.897325 
L 49.630999 166.462125 
L 47.602831 162.026925 
L 46.272 157.610456 
L 46.272 157.610456 
" clip-path="url(#pd164e393b0)" style="fill: none; stroke: #2ca02c; stroke-width: 1.4"/>
    <path d="M 389.09719 374.916525 
L 385.014 372.951448 
L 380.0325 370.520227 
L 379.934095 370.481325 
L 375.051 369.829506 
L 370.0695 369.157377 
L 365.088 368.502906 
L 360.1065 367.988172 
L 355.125 367.560245 
L 350.1435 367.089383 
L 345.162 366.438289 
L 342.752267 366.046125 
L 340.1805 365.345868 
L 335.199 364.022322 
L 330.2175 362.726081 
L 325.952631 361.610925 
L 325.236 361.246196 
L 320.2545 359.202048 
L 316.049239 357.175725 
L 315.273 356.419284 
L 311.484134 352.740525 
L 310.2915 351.890879 
L 305.31 348.847073 
L 304.469772 348.305325 
L 300.3285 345.236708 
L 298.514888 343.870125 
L 295.347 341.374401 
L 290.3655 339.577963 
L 290.078894 339.434925 
L 285.384 337.05522 
L 281.559026 334.999725 
L 280.4025 334.358662 
L 275.421 333.134962 
L 270.4395 331.808901 
L 268.029012 330.564525 
L 265.458 329.117925 
L 260.849076 326.129325 
L 260.4765 325.88611 
L 255.495 323.00399 
L 251.919514 321.694125 
L 250.5135 321.240596 
L 245.532 320.196324 
L 240.5505 320.213829 
L 235.569 320.419776 
L 230.5875 319.071898 
L 226.128996 317.258925 
L 225.606 317.071569 
L 220.6245 316.21823 
L 215.643 316.124479 
L 210.6615 315.721821 
L 205.68 314.898002 
L 200.6985 314.07867 
L 195.717 313.170785 
L 193.910741 312.823725 
L 190.7355 311.960554 
L 185.754 311.592964 
L 180.7725 312.183108 
L 177.762008 312.823725 
L 175.791 313.151884 
L 170.8095 314.100911 
L 165.828 314.592895 
L 160.8465 314.322706 
L 155.865 313.515403 
L 150.886613 312.823725 
L 150.8835 312.823182 
L 150.852025 312.823725 
L 145.902 312.892026 
L 140.9205 313.578797 
L 135.939 314.481576 
L 130.9575 315.346615 
L 125.976 316.068812 
L 120.9945 316.519091 
L 116.013 316.909645 
L 111.0315 317.238736 
L 106.05 317.196489 
L 104.39844 317.258925 
L 101.0685 317.353479 
L 96.087 317.992603 
L 91.1055 318.683592 
L 86.124 319.004961 
L 81.1425 319.153687 
L 76.161 319.872236 
L 71.1795 321.530934 
L 70.543547 321.694125 
L 66.198 322.529175 
L 65.248185 321.694125 
L 61.2165 317.95423 
L 61.082248 317.258925 
L 60.30324 312.823725 
L 59.577094 308.388525 
L 58.909009 303.953325 
L 58.159766 299.518125 
L 57.27894 295.082925 
L 56.325392 290.647725 
L 56.235 290.140617 
L 55.907853 286.212525 
L 55.548548 281.777325 
L 55.127761 277.342125 
L 54.61778 272.906925 
L 54.00789 268.471725 
L 53.450347 264.036525 
L 52.949983 259.601325 
L 52.218591 255.166125 
L 51.2535 250.732039 
L 51.25307 250.730925 
L 49.981925 246.295725 
L 49.154666 241.860525 
L 48.18036 237.425325 
L 46.953261 232.990125 
L 46.272 229.988146 
" clip-path="url(#pd164e393b0)" style="fill: none; stroke: #2ca02c; stroke-width: 1.4"/>
    <path d="M 234.034499 374.916525 
L 235.569 374.31002 
L 240.5505 373.147014 
L 245.532 372.946237 
L 250.5135 372.88477 
L 255.495 372.621766 
L 260.4765 372.228524 
L 265.458 371.431495 
L 269.234088 370.481325 
L 265.458 369.428257 
L 260.4765 367.798292 
L 257.117389 366.046125 
L 255.495 365.034339 
L 250.728695 361.610925 
L 250.5135 361.442223 
L 245.532 359.335472 
L 240.5505 358.873256 
L 235.826321 357.175725 
L 235.569 357.112117 
L 230.5875 353.763402 
L 229.005361 352.740525 
L 225.606 350.65689 
L 220.626768 348.305325 
L 220.6245 348.3042 
L 215.643 346.563926 
L 210.6615 345.675248 
L 205.68 344.810231 
L 202.152773 343.870125 
L 200.6985 343.403321 
L 195.717 341.645723 
L 190.7355 340.396296 
L 185.754 339.454947 
L 185.602015 339.434925 
L 180.7725 338.674995 
L 175.791 337.967946 
L 170.8095 337.082872 
L 165.828 336.333979 
L 160.8465 335.87187 
L 155.865 335.409251 
L 153.211994 334.999725 
L 150.8835 334.568774 
L 145.902 333.651703 
L 140.9205 333.190853 
L 135.939 333.204473 
L 130.9575 333.506215 
L 125.976 333.919834 
L 120.9945 334.102531 
L 116.013 333.932708 
L 111.0315 333.858563 
L 106.05 334.004419 
L 101.0685 334.238956 
L 96.087 334.493013 
L 91.1055 334.833374 
L 89.430274 334.999725 
L 86.124 335.23128 
L 81.1425 335.637848 
L 76.161 336.098338 
L 71.1795 336.595198 
L 66.198 336.697989 
L 63.289766 334.999725 
L 61.2165 333.455389 
L 60.388921 330.564525 
L 59.086253 326.129325 
L 57.675219 321.694125 
L 56.235 317.448215 
L 56.202014 317.258925 
L 55.47838 312.823725 
L 54.731917 308.388525 
L 53.990578 303.953325 
L 53.179313 299.518125 
L 52.252589 295.082925 
L 51.2535 290.652005 
L 51.251768 290.647725 
L 49.859532 286.212525 
L 48.580939 281.777325 
L 47.14415 277.342125 
L 46.272 275.11078 
" clip-path="url(#pd164e393b0)" style="fill: none; stroke: #2ca02c; stroke-width: 1.4"/>
    <path d="M 65.604534 374.916525 
L 66.198 374.712826 
L 71.1795 374.468362 
L 76.161 374.265201 
L 81.1425 373.93533 
L 86.124 373.531727 
L 91.1055 373.166923 
L 96.087 372.906541 
L 101.0685 372.659601 
L 106.05 372.352682 
L 111.0315 371.965252 
L 116.013 371.484543 
L 120.9945 370.950999 
L 124.926397 370.481325 
L 125.976 370.284636 
L 130.9575 369.174675 
L 135.939 368.317176 
L 140.9205 368.217851 
L 145.902 368.135837 
L 150.8835 367.060622 
L 153.575499 366.046125 
L 155.865 363.456175 
L 157.531737 361.610925 
L 155.865 359.319373 
L 153.99627 357.175725 
L 150.8835 356.111124 
L 145.902 354.892252 
L 140.9205 353.853772 
L 135.9535 352.740525 
L 135.939 352.738084 
L 130.9575 351.798033 
L 125.976 351.049725 
L 120.9945 350.660625 
L 116.013 350.475101 
L 111.0315 350.222942 
L 106.05 349.718859 
L 101.0685 349.043701 
L 96.087 348.519841 
L 91.1055 348.360935 
L 86.124 348.394099 
L 81.1425 348.386976 
L 76.161 348.321649 
L 75.085866 348.305325 
L 71.1795 348.22987 
L 66.198 347.949179 
L 61.2165 345.68892 
L 60.291409 343.870125 
L 58.145458 339.434925 
L 56.235 335.665821 
L 56.04766 334.999725 
L 54.888045 330.564525 
L 53.576074 326.129325 
L 52.149968 321.694125 
L 51.2535 318.916789 
L 50.243258 317.258925 
L 47.531869 312.823725 
L 46.272 310.70985 
" clip-path="url(#pd164e393b0)" style="fill: none; stroke: #2ca02c; stroke-width: 1.4"/>
   </g>
   <g id="patch_3">
    <path d="M 43.78125 377.134125 
L 43.78125 22.318125 
" style="fill: none; stroke: #000000; stroke-width: 0.8; stroke-linejoin: miter; stroke-linecap: square"/>
   </g>
   <g id="patch_4">
    <path d="M 442.30125 377.134125 
L 442.30125 22.318125 
" style="fill: none; stroke: #000000; stroke-width: 0.8; stroke-linejoin: miter; stroke-linecap: square"/>
   </g>
   <g id="patch_5">
    <path d="M 43.78125 377.134125 
L 442.30125 377.134125 
" style="fill: none; stroke: #000000; stroke-width: 0.8; stroke-linejoin: miter; stroke-linecap: square"/>
   </g>
   <g id="patch_6">
    <path d="M 43.78125 22.318125 
L 442.30125 22.318125 
" style="fill: none; stroke: #000000; stroke-width: 0.8; stroke-linejoin: miter; stroke-linecap: square"/>
   </g>
   <g id="text_18">
    <!-- Option 3: contour overlay by mark (Reg density vs M fraction) -->
    <g transform="translate(56.9625 16.318125) scale(0.12 -0.12)">
     <defs>
      <path id="DejaVuSans-4f" d="M 2522 4238 
Q 1834 4238 1429 3725 
Q 1025 3213 1025 2328 
Q 1025 1447 1429 934 
Q 1834 422 2522 422 
Q 3209 422 3611 934 
Q 4013 1447 4013 2328 
Q 4013 3213 3611 3725 
Q 3209 4238 2522 4238 
z
M 2522 4750 
Q 3503 4750 4090 4092 
Q 4678 3434 4678 2328 
Q 4678 1225 4090 567 
Q 3503 -91 2522 -91 
Q 1538 -91 948 565 
Q 359 1222 359 2328 
Q 359 3434 948 4092 
Q 1538 4750 2522 4750 
z
" transform="scale(0.015625)"/>
      <path id="DejaVuSans-3a" d="M 750 794 
L 1409 794 
L 1409 0 
L 750 0 
L 750 794 
z
M 750 3309 
L 1409 3309 
L 1409 2516 
L 750 2516 
L 750 3309 
z
" transform="scale(0.015625)"/>
      <path id="DejaVuSans-75" d="M 544 1381 
L 544 3500 
L 1119 3500 
L 1119 1403 
Q 1119 906 1312 657 
Q 1506 409 1894 409 
Q 2359 409 2629 706 
Q 2900 1003 2900 1516 
L 2900 3500 
L 3475 3500 
L 3475 0 
L 2900 0 
L 2900 538 
Q 2691 219 2414 64 
Q 2138 -91 1772 -91 
Q 1169 -91 856 284 
Q 544 659 544 1381 
z
M 1991 3584 
L 1991 3584 
z
" transform="scale(0.015625)"/>
      <path id="DejaVuSans-76" d="M 191 3500 
L 800 3500 
L 1894 563 
L 2988 3500 
L 3597 3500 
L 2284 0 
L 1503 0 
L 191 3500 
z
" transform="scale(0.015625)"/>
      <path id="DejaVuSans-52" d="M 2841 2188 
Q 3044 2119 3236 1894 
Q 3428 1669 3622 1275 
L 4263 0 
L 3584 0 
L 2988 1197 
Q 2756 1666 2539 1819 
Q 2322 1972 1947 1972 
L 1259 1972 
L 1259 0 
L 628 0 
L 628 4666 
L 2053 4666 
Q 2853 4666 3247 4331 
Q 3641 3997 3641 3322 
Q 3641 2881 3436 2590 
Q 3231 2300 2841 2188 
z
M 1259 4147 
L 1259 2491 
L 2053 2491 
Q 2509 2491 2742 2702 
Q 2975 2913 2975 3322 
Q 2975 3731 2742 3939 
Q 2509 4147 2053 4147 
L 1259 4147 
z
" transform="scale(0.015625)"/>
     </defs>
     <use xlink:href="#DejaVuSans-4f"/>
     <use xlink:href="#DejaVuSans-70" transform="translate(78.710938 0)"/>
     <use xlink:href="#DejaVuSans-74" transform="translate(142.1875 0)"/>
     <use xlink:href="#DejaVuSans-69" transform="translate(181.396484 0)"/>
     <use xlink:href="#DejaVuSans-6f" transform="translate(209.179688 0)"/>
     <use xlink:href="#DejaVuSans-6e" transform="translate(270.361328 0)"/>
     <use xlink:href="#DejaVuSans-20" transform="translate(333.740234 0)"/>
     <use xlink:href="#DejaVuSans-33" transform="translate(365.527344 0)"/>
     <use xlink:href="#DejaVuSans-3a" transform="translate(429.150391 0)"/>
     <use xlink:href="#DejaVuSans-20" transform="translate(462.841797 0)"/>
     <use xlink:href="#DejaVuSans-63" transform="translate(494.628906 0)"/>
     <use xlink:href="#DejaVuSans-6f" transform="translate(549.609375 0)"/>
     <use xlink:href="#DejaVuSans-6e" transform="translate(610.791016 0)"/>
     <use xlink:href="#DejaVuSans-74" transform="translate(674.169922 0)"/>
     <use xlink:href="#DejaVuSans-6f" transform="translate(713.378906 0)"/>
     <use xlink:href="#DejaVuSans-75" transform="translate(774.560547 0)"/>
     <use xlink:href="#DejaVuSans-72" transform="translate(837.939453 0)"/>
     <use xlink:href="#DejaVuSans-20" transform="translate(879.052734 0)"/>
     <use xlink:href="#DejaVuSans-6f" transform="translate(910.839844 0)"/>
     <use xlink:href="#DejaVuSans-76" transform="translate(972.021484 0)"/>
     <use xlink:href="#DejaVuSans-65" transform="translate(1031.201172 0)"/>
     <use xlink:href="#DejaVuSans-72" transform="translate(1092.724609 0)"/>
     <use xlink:href="#DejaVuSans-6c" transform="translate(1133.837891 0)"/>
     <use xlink:href="#DejaVuSans-61" transform="translate(1161.621094 0)"/>
     <use xlink:href="#DejaVuSans-79" transform="translate(1222.900391 0)"/>
     <use xlink:href="#DejaVuSans-20" transform="translate(1282.080078 0)"/>
     <use xlink:href="#DejaVuSans-62" transform="translate(1313.867188 0)"/>
     <use xlink:href="#DejaVuSans-79" transform="translate(1377.34375 0)"/>
     <use xlink:href="#DejaVuSans-20" transform="translate(1436.523438 0)"/>
     <use xlink:href="#DejaVuSans-6d" transform="translate(1468.310547 0)"/>
     <use xlink:href="#DejaVuSans-61" transform="translate(1565.722656 0)"/>
     <use xlink:href="#DejaVuSans-72" transform="translate(1627.001953 0)"/>
     <use xlink:href="#DejaVuSans-6b" transform="translate(1668.115234 0)"/>
     <use xlink:href="#DejaVuSans-20" transform="translate(1726.025391 0)"/>
     <use xlink:href="#DejaVuSans-28" transform="translate(1757.8125 0)"/>
     <use xlink:href="#DejaVuSans-52" transform="translate(1796.826172 0)"/>
     <use xlink:href="#DejaVuSans-65" transform="translate(1861.808594 0)"/>
     <use xlink:href="#DejaVuSans-67" transform="translate(1923.332031 0)"/>
     <use xlink:href="#DejaVuSans-20" transform="translate(1986.808594 0)"/>
     <use xlink:href="#DejaVuSans-64" transform="translate(2018.595703 0)"/>
     <use xlink:href="#DejaVuSans-65" transform="translate(2082.072266 0)"/>
     <use xlink:href="#DejaVuSans-6e" transform="translate(2143.595703 0)"/>
     <use xlink:href="#DejaVuSans-73" transform="translate(2206.974609 0)"/>
     <use xlink:href="#DejaVuSans-69" transform="translate(2259.074219 0)"/>
     <use xlink:href="#DejaVuSans-74" transform="translate(2286.857422 0)"/>
     <use xlink:href="#DejaVuSans-79" transform="translate(2326.066406 0)"/>
     <use xlink:href="#DejaVuSans-20" transform="translate(2385.246094 0)"/>
     <use xlink:href="#DejaVuSans-76" transform="translate(2417.033203 0)"/>
     <use xlink:href="#DejaVuSans-73" transform="translate(2476.212891 0)"/>
     <use xlink:href="#DejaVuSans-20" transform="translate(2528.3125 0)"/>
     <use xlink:href="#DejaVuSans-4d" transform="translate(2560.099609 0)"/>
     <use xlink:href="#DejaVuSans-20" transform="translate(2646.378906 0)"/>
     <use xlink:href="#DejaVuSans-66" transform="translate(2678.166016 0)"/>
     <use xlink:href="#DejaVuSans-72" transform="translate(2713.371094 0)"/>
     <use xlink:href="#DejaVuSans-61" transform="translate(2754.484375 0)"/>
     <use xlink:href="#DejaVuSans-63" transform="translate(2815.763672 0)"/>
     <use xlink:href="#DejaVuSans-74" transform="translate(2870.744141 0)"/>
     <use xlink:href="#DejaVuSans-69" transform="translate(2909.953125 0)"/>
     <use xlink:href="#DejaVuSans-6f" transform="translate(2937.736328 0)"/>
     <use xlink:href="#DejaVuSans-6e" transform="translate(2998.917969 0)"/>
     <use xlink:href="#DejaVuSans-29" transform="translate(3062.296875 0)"/>
    </g>
   </g>
   <g id="legend_1">
    <g id="patch_7">
     <path d="M 452.27165 230.582375 
L 537.743525 230.582375 
Q 539.743525 230.582375 539.743525 228.582375 
L 539.743525 170.869875 
Q 539.743525 168.869875 537.743525 168.869875 
L 452.27165 168.869875 
Q 450.27165 168.869875 450.27165 170.869875 
L 450.27165 228.582375 
Q 450.27165 230.582375 452.27165 230.582375 
z
" style="fill: #ffffff; opacity: 0.8; stroke: #cccccc; stroke-linejoin: miter"/>
    </g>
    <g id="text_19">
     <!-- Mark -->
     <g transform="translate(482.678681 180.468312) scale(0.1 -0.1)">
      <use xlink:href="#DejaVuSans-4d"/>
      <use xlink:href="#DejaVuSans-61" transform="translate(86.279297 0)"/>
      <use xlink:href="#DejaVuSans-72" transform="translate(147.558594 0)"/>
      <use xlink:href="#DejaVuSans-6b" transform="translate(188.671875 0)"/>
     </g>
    </g>
    <g id="line2d_16">
     <path d="M 454.27165 191.646437 
L 464.27165 191.646437 
L 474.27165 191.646437 
" style="fill: none; stroke: #d62728; stroke-width: 2; stroke-linecap: square"/>
    </g>
    <g id="text_20">
     <!-- h3k27ac -->
     <g transform="translate(482.27165 195.146437) scale(0.1 -0.1)">
      <defs>
       <path id="DejaVuSans-37" d="M 525 4666 
L 3525 4666 
L 3525 4397 
L 1831 0 
L 1172 0 
L 2766 4134 
L 525 4134 
L 525 4666 
z
" transform="scale(0.015625)"/>
      </defs>
      <use xlink:href="#DejaVuSans-68"/>
      <use xlink:href="#DejaVuSans-33" transform="translate(63.378906 0)"/>
      <use xlink:href="#DejaVuSans-6b" transform="translate(127.001953 0)"/>
      <use xlink:href="#DejaVuSans-32" transform="translate(184.912109 0)"/>
      <use xlink:href="#DejaVuSans-37" transform="translate(248.535156 0)"/>
      <use xlink:href="#DejaVuSans-61" transform="translate(312.158203 0)"/>
      <use xlink:href="#DejaVuSans-63" transform="translate(373.4375 0)"/>
     </g>
    </g>
    <g id="line2d_17">
     <path d="M 454.27165 206.324562 
L 464.27165 206.324562 
L 474.27165 206.324562 
" style="fill: none; stroke: #1f77b4; stroke-width: 2; stroke-linecap: square"/>
    </g>
    <g id="text_21">
     <!-- h3k27me3 -->
     <g transform="translate(482.27165 209.824562) scale(0.1 -0.1)">
      <use xlink:href="#DejaVuSans-68"/>
      <use xlink:href="#DejaVuSans-33" transform="translate(63.378906 0)"/>
      <use xlink:href="#DejaVuSans-6b" transform="translate(127.001953 0)"/>
      <use xlink:href="#DejaVuSans-32" transform="translate(184.912109 0)"/>
      <use xlink:href="#DejaVuSans-37" transform="translate(248.535156 0)"/>
      <use xlink:href="#DejaVuSans-6d" transform="translate(312.158203 0)"/>
      <use xlink:href="#DejaVuSans-65" transform="translate(409.570312 0)"/>
      <use xlink:href="#DejaVuSans-33" transform="translate(471.09375 0)"/>
     </g>
    </g>
    <g id="line2d_18">
     <path d="M 454.27165 221.002687 
L 464.27165 221.002687 
L 474.27165 221.002687 
" style="fill: none; stroke: #2ca02c; stroke-width: 2; stroke-linecap: square"/>
    </g>
    <g id="text_22">
     <!-- h3k4me3 -->
     <g transform="translate(482.27165 224.502687) scale(0.1 -0.1)">
      <use xlink:href="#DejaVuSans-68"/>
      <use xlink:href="#DejaVuSans-33" transform="translate(63.378906 0)"/>
      <use xlink:href="#DejaVuSans-6b" transform="translate(127.001953 0)"/>
      <use xlink:href="#DejaVuSans-34" transform="translate(184.912109 0)"/>
      <use xlink:href="#DejaVuSans-6d" transform="translate(248.535156 0)"/>
      <use xlink:href="#DejaVuSans-65" transform="translate(345.947266 0)"/>
      <use xlink:href="#DejaVuSans-33" transform="translate(407.470703 0)"/>
     </g>
    </g>
   </g>
  </g>
 </g>
 <defs>
  <clipPath id="pd164e393b0">
   <rect x="43.78125" y="22.318125" width="398.52" height="354.816"/>
  </clipPath>
 </defs>
</svg>
