<?xml version="1.0" encoding="utf-8" standalone="no"?>
<!DOCTYPE svg PUBLIC "-//W3C//DTD SVG 1.1//EN"
  "http://www.w3.org/Graphics/SVG/1.1/DTD/svg11.dtd">
<svg xmlns:xlink="http://www.w3.org/1999/xlink" width="546.943525pt" height="414.690375pt" viewBox="0 0 546.943525 414.690375" xmlns="http://www.w3.org/2000/svg" version="1.1">
 <metadata>
  <rdf:RDF xmlns:dc="http://purl.org/dc/elements/1.1/" xmlns:cc="http://creativecommons.org/ns#" xmlns:rdf="http://www.w3.org/1999/02/22-rdf-syntax-ns#">
   <cc:Work>
    <dc:type rdf:resource="http://purl.org/dc/dcmitype/StillImage"/>
    <dc:date>2026-03-06T14:45:21.279074</dc:date>
    <dc:format>image/svg+xml</dc:format>
    <dc:creator>
     <cc:Agent>
      <dc:title>Matplotlib v3.10.8, https://matplotlib.org/</dc:title>
     </cc:Agent>
    </dc:creator>
   </cc:Work>
  </rdf:RDF>
 </metadata>
 <defs>
  <style type="text/css">*{stroke-linejoin: round; stroke-linecap: butt}</style>
 </defs>
 <g id="figure_1">
  <g id="patch_1">
   <path d="M 0 414.690375 
L 546.943525 414.690375 
L 546.943525 0 
L 0 0 
z
" style="fill: #ffffff"/>
  </g>
  <g id="axes_1">
   <g id="patch_2">
    <path d="M 43.78125 377.134125 
L 442.30125 377.134125 
L 442.30125 22.318125 
L 43.78125 22.318125 
z
" style="fill: #ffffff"/>
   </g>
   <g id="matplotlib.axis_1">
    <g id="xtick_1">
     <g id="line2d_1">
      <defs>
       <path id="m3228e2dd8d" d="M 0 0 
L 0 3.5 
" style="stroke: #000000; stroke-width: 0.8"/>
      </defs>
      <g>
       <use xlink:href="#m3228e2dd8d" x="43.78125" y="377.134125" style="stroke: #000000; stroke-width: 0.8"/>
      </g>
     </g>
     <g id="text_1">
      <!-- 0.0 -->
      <g transform="translate(35.829688 391.732563) scale(0.1 -0.1)">
       <defs>
        <path id="DejaVuSans-30" d="M 2034 4250 
Q 1547 4250 1301 3770 
Q 1056 3291 1056 2328 
Q 1056 1369 1301 889 
Q 1547 409 2034 409 
Q 2525 409 2770 889 
Q 3016 1369 3016 2328 
Q 3016 3291 2770 3770 
Q 2525 4250 2034 4250 
z
M 2034 4750 
Q 2819 4750 3233 4129 
Q 3647 3509 3647 2328 
Q 3647 1150 3233 529 
Q 2819 -91 2034 -91 
Q 1250 -91 836 529 
Q 422 1150 422 2328 
Q 422 3509 836 4129 
Q 1250 4750 2034 4750 
z
" transform="scale(0.015625)"/>
        <path id="DejaVuSans-2e" d="M 684 794 
L 1344 794 
L 1344 0 
L 684 0 
L 684 794 
z
" transform="scale(0.015625)"/>
       </defs>
       <use xlink:href="#DejaVuSans-30"/>
       <use xlink:href="#DejaVuSans-2e" transform="translate(63.623047 0)"/>
       <use xlink:href="#DejaVuSans-30" transform="translate(95.410156 0)"/>
      </g>
     </g>
    </g>
    <g id="xtick_2">
     <g id="line2d_2">
      <g>
       <use xlink:href="#m3228e2dd8d" x="123.48525" y="377.134125" style="stroke: #000000; stroke-width: 0.8"/>
      </g>
     </g>
     <g id="text_2">
      <!-- 0.2 -->
      <g transform="translate(115.533688 391.732563) scale(0.1 -0.1)">
       <defs>
        <path id="DejaVuSans-32" d="M 1228 531 
L 3431 531 
L 3431 0 
L 469 0 
L 469 531 
Q 828 903 1448 1529 
Q 2069 2156 2228 2338 
Q 2531 2678 2651 2914 
Q 2772 3150 2772 3378 
Q 2772 3750 2511 3984 
Q 2250 4219 1831 4219 
Q 1534 4219 1204 4116 
Q 875 4013 500 3803 
L 500 4441 
Q 881 4594 1212 4672 
Q 1544 4750 1819 4750 
Q 2544 4750 2975 4387 
Q 3406 4025 3406 3419 
Q 3406 3131 3298 2873 
Q 3191 2616 2906 2266 
Q 2828 2175 2409 1742 
Q 1991 1309 1228 531 
z
" transform="scale(0.015625)"/>
       </defs>
       <use xlink:href="#DejaVuSans-30"/>
       <use xlink:href="#DejaVuSans-2e" transform="translate(63.623047 0)"/>
       <use xlink:href="#DejaVuSans-32" transform="translate(95.410156 0)"/>
      </g>
     </g>
    </g>
    <g id="xtick_3">
     <g id="line2d_3">
      <g>
       <use xlink:href="#m3228e2dd8d" x="203.18925" y="377.134125" style="stroke: #000000; stroke-width: 0.8"/>
      </g>
     </g>
     <g id="text_3">
      <!-- 0.4 -->
      <g transform="translate(195.237688 391.732563) scale(0.1 -0.1)">
       <defs>
        <path id="DejaVuSans-34" d="M 2419 4116 
L 825 1625 
L 2419 1625 
L 2419 4116 
z
M 2253 4666 
L 3047 4666 
L 3047 1625 
L 3713 1625 
L 3713 1100 
L 3047 1100 
L 3047 0 
L 2419 0 
L 2419 1100 
L 313 1100 
L 313 1709 
L 2253 4666 
z
" transform="scale(0.015625)"/>
       </defs>
       <use xlink:href="#DejaVuSans-30"/>
       <use xlink:href="#DejaVuSans-2e" transform="translate(63.623047 0)"/>
       <use xlink:href="#DejaVuSans-34" transform="translate(95.410156 0)"/>
      </g>
     </g>
    </g>
    <g id="xtick_4">
     <g id="line2d_4">
      <g>
       <use xlink:href="#m3228e2dd8d" x="282.89325" y="377.134125" style="stroke: #000000; stroke-width: 0.8"/>
      </g>
     </g>
     <g id="text_4">
      <!-- 0.6 -->
      <g transform="translate(274.941688 391.732563) scale(0.1 -0.1)">
       <defs>
        <path id="DejaVuSans-36" d="M 2113 2584 
Q 1688 2584 1439 2293 
Q 1191 2003 1191 1497 
Q 1191 994 1439 701 
Q 1688 409 2113 409 
Q 2538 409 2786 701 
Q 3034 994 3034 1497 
Q 3034 2003 2786 2293 
Q 2538 2584 2113 2584 
z
M 3366 4563 
L 3366 3988 
Q 3128 4100 2886 4159 
Q 2644 4219 2406 4219 
Q 1781 4219 1451 3797 
Q 1122 3375 1075 2522 
Q 1259 2794 1537 2939 
Q 1816 3084 2150 3084 
Q 2853 3084 3261 2657 
Q 3669 2231 3669 1497 
Q 3669 778 3244 343 
Q 2819 -91 2113 -91 
Q 1303 -91 875 529 
Q 447 1150 447 2328 
Q 447 3434 972 4092 
Q 1497 4750 2381 4750 
Q 2619 4750 2861 4703 
Q 3103 4656 3366 4563 
z
" transform="scale(0.015625)"/>
       </defs>
       <use xlink:href="#DejaVuSans-30"/>
       <use xlink:href="#DejaVuSans-2e" transform="translate(63.623047 0)"/>
       <use xlink:href="#DejaVuSans-36" transform="translate(95.410156 0)"/>
      </g>
     </g>
    </g>
    <g id="xtick_5">
     <g id="line2d_5">
      <g>
       <use xlink:href="#m3228e2dd8d" x="362.59725" y="377.134125" style="stroke: #000000; stroke-width: 0.8"/>
      </g>
     </g>
     <g id="text_5">
      <!-- 0.8 -->
      <g transform="translate(354.645688 391.732563) scale(0.1 -0.1)">
       <defs>
        <path id="DejaVuSans-38" d="M 2034 2216 
Q 1584 2216 1326 1975 
Q 1069 1734 1069 1313 
Q 1069 891 1326 650 
Q 1584 409 2034 409 
Q 2484 409 2743 651 
Q 3003 894 3003 1313 
Q 3003 1734 2745 1975 
Q 2488 2216 2034 2216 
z
M 1403 2484 
Q 997 2584 770 2862 
Q 544 3141 544 3541 
Q 544 4100 942 4425 
Q 1341 4750 2034 4750 
Q 2731 4750 3128 4425 
Q 3525 4100 3525 3541 
Q 3525 3141 3298 2862 
Q 3072 2584 2669 2484 
Q 3125 2378 3379 2068 
Q 3634 1759 3634 1313 
Q 3634 634 3220 271 
Q 2806 -91 2034 -91 
Q 1263 -91 848 271 
Q 434 634 434 1313 
Q 434 1759 690 2068 
Q 947 2378 1403 2484 
z
M 1172 3481 
Q 1172 3119 1398 2916 
Q 1625 2713 2034 2713 
Q 2441 2713 2670 2916 
Q 2900 3119 2900 3481 
Q 2900 3844 2670 4047 
Q 2441 4250 2034 4250 
Q 1625 4250 1398 4047 
Q 1172 3844 1172 3481 
z
" transform="scale(0.015625)"/>
       </defs>
       <use xlink:href="#DejaVuSans-30"/>
       <use xlink:href="#DejaVuSans-2e" transform="translate(63.623047 0)"/>
       <use xlink:href="#DejaVuSans-38" transform="translate(95.410156 0)"/>
      </g>
     </g>
    </g>
    <g id="xtick_6">
     <g id="line2d_6">
      <g>
       <use xlink:href="#m3228e2dd8d" x="442.30125" y="377.134125" style="stroke: #000000; stroke-width: 0.8"/>
      </g>
     </g>
     <g id="text_6">
      <!-- 1.0 -->
      <g transform="translate(434.349687 391.732563) scale(0.1 -0.1)">
       <defs>
        <path id="DejaVuSans-31" d="M 794 531 
L 1825 531 
L 1825 4091 
L 703 3866 
L 703 4441 
L 1819 4666 
L 2450 4666 
L 2450 531 
L 3481 531 
L 3481 0 
L 794 0 
L 794 531 
z
" transform="scale(0.015625)"/>
       </defs>
       <use xlink:href="#DejaVuSans-31"/>
       <use xlink:href="#DejaVuSans-2e" transform="translate(63.623047 0)"/>
       <use xlink:href="#DejaVuSans-30" transform="translate(95.410156 0)"/>
      </g>
     </g>
    </g>
    <g id="text_7">
     <!-- Reg normalized [0,1] -->
     <g transform="translate(190.726406 405.410687) scale(0.1 -0.1)">
      <defs>
       <path id="DejaVuSans-52" d="M 2841 2188 
Q 3044 2119 3236 1894 
Q 3428 1669 3622 1275 
L 4263 0 
L 3584 0 
L 2988 1197 
Q 2756 1666 2539 1819 
Q 2322 1972 1947 1972 
L 1259 1972 
L 1259 0 
L 628 0 
L 628 4666 
L 2053 4666 
Q 2853 4666 3247 4331 
Q 3641 3997 3641 3322 
Q 3641 2881 3436 2590 
Q 3231 2300 2841 2188 
z
M 1259 4147 
L 1259 2491 
L 2053 2491 
Q 2509 2491 2742 2702 
Q 2975 2913 2975 3322 
Q 2975 3731 2742 3939 
Q 2509 4147 2053 4147 
L 1259 4147 
z
" transform="scale(0.015625)"/>
       <path id="DejaVuSans-65" d="M 3597 1894 
L 3597 1613 
L 953 1613 
Q 991 1019 1311 708 
Q 1631 397 2203 397 
Q 2534 397 2845 478 
Q 3156 559 3463 722 
L 3463 178 
Q 3153 47 2828 -22 
Q 2503 -91 2169 -91 
Q 1331 -91 842 396 
Q 353 884 353 1716 
Q 353 2575 817 3079 
Q 1281 3584 2069 3584 
Q 2775 3584 3186 3129 
Q 3597 2675 3597 1894 
z
M 3022 2063 
Q 3016 2534 2758 2815 
Q 2500 3097 2075 3097 
Q 1594 3097 1305 2825 
Q 1016 2553 972 2059 
L 3022 2063 
z
" transform="scale(0.015625)"/>
       <path id="DejaVuSans-67" d="M 2906 1791 
Q 2906 2416 2648 2759 
Q 2391 3103 1925 3103 
Q 1463 3103 1205 2759 
Q 947 2416 947 1791 
Q 947 1169 1205 825 
Q 1463 481 1925 481 
Q 2391 481 2648 825 
Q 2906 1169 2906 1791 
z
M 3481 434 
Q 3481 -459 3084 -895 
Q 2688 -1331 1869 -1331 
Q 1566 -1331 1297 -1286 
Q 1028 -1241 775 -1147 
L 775 -588 
Q 1028 -725 1275 -790 
Q 1522 -856 1778 -856 
Q 2344 -856 2625 -561 
Q 2906 -266 2906 331 
L 2906 616 
Q 2728 306 2450 153 
Q 2172 0 1784 0 
Q 1141 0 747 490 
Q 353 981 353 1791 
Q 353 2603 747 3093 
Q 1141 3584 1784 3584 
Q 2172 3584 2450 3431 
Q 2728 3278 2906 2969 
L 2906 3500 
L 3481 3500 
L 3481 434 
z
" transform="scale(0.015625)"/>
       <path id="DejaVuSans-20" transform="scale(0.015625)"/>
       <path id="DejaVuSans-6e" d="M 3513 2113 
L 3513 0 
L 2938 0 
L 2938 2094 
Q 2938 2591 2744 2837 
Q 2550 3084 2163 3084 
Q 1697 3084 1428 2787 
Q 1159 2491 1159 1978 
L 1159 0 
L 581 0 
L 581 3500 
L 1159 3500 
L 1159 2956 
Q 1366 3272 1645 3428 
Q 1925 3584 2291 3584 
Q 2894 3584 3203 3211 
Q 3513 2838 3513 2113 
z
" transform="scale(0.015625)"/>
       <path id="DejaVuSans-6f" d="M 1959 3097 
Q 1497 3097 1228 2736 
Q 959 2375 959 1747 
Q 959 1119 1226 758 
Q 1494 397 1959 397 
Q 2419 397 2687 759 
Q 2956 1122 2956 1747 
Q 2956 2369 2687 2733 
Q 2419 3097 1959 3097 
z
M 1959 3584 
Q 2709 3584 3137 3096 
Q 3566 2609 3566 1747 
Q 3566 888 3137 398 
Q 2709 -91 1959 -91 
Q 1206 -91 779 398 
Q 353 888 353 1747 
Q 353 2609 779 3096 
Q 1206 3584 1959 3584 
z
" transform="scale(0.015625)"/>
       <path id="DejaVuSans-72" d="M 2631 2963 
Q 2534 3019 2420 3045 
Q 2306 3072 2169 3072 
Q 1681 3072 1420 2755 
Q 1159 2438 1159 1844 
L 1159 0 
L 581 0 
L 581 3500 
L 1159 3500 
L 1159 2956 
Q 1341 3275 1631 3429 
Q 1922 3584 2338 3584 
Q 2397 3584 2469 3576 
Q 2541 3569 2628 3553 
L 2631 2963 
z
" transform="scale(0.015625)"/>
       <path id="DejaVuSans-6d" d="M 3328 2828 
Q 3544 3216 3844 3400 
Q 4144 3584 4550 3584 
Q 5097 3584 5394 3201 
Q 5691 2819 5691 2113 
L 5691 0 
L 5113 0 
L 5113 2094 
Q 5113 2597 4934 2840 
Q 4756 3084 4391 3084 
Q 3944 3084 3684 2787 
Q 3425 2491 3425 1978 
L 3425 0 
L 2847 0 
L 2847 2094 
Q 2847 2600 2669 2842 
Q 2491 3084 2119 3084 
Q 1678 3084 1418 2786 
Q 1159 2488 1159 1978 
L 1159 0 
L 581 0 
L 581 3500 
L 1159 3500 
L 1159 2956 
Q 1356 3278 1631 3431 
Q 1906 3584 2284 3584 
Q 2666 3584 2933 3390 
Q 3200 3197 3328 2828 
z
" transform="scale(0.015625)"/>
       <path id="DejaVuSans-61" d="M 2194 1759 
Q 1497 1759 1228 1600 
Q 959 1441 959 1056 
Q 959 750 1161 570 
Q 1363 391 1709 391 
Q 2188 391 2477 730 
Q 2766 1069 2766 1631 
L 2766 1759 
L 2194 1759 
z
M 3341 1997 
L 3341 0 
L 2766 0 
L 2766 531 
Q 2569 213 2275 61 
Q 1981 -91 1556 -91 
Q 1019 -91 701 211 
Q 384 513 384 1019 
Q 384 1609 779 1909 
Q 1175 2209 1959 2209 
L 2766 2209 
L 2766 2266 
Q 2766 2663 2505 2880 
Q 2244 3097 1772 3097 
Q 1472 3097 1187 3025 
Q 903 2953 641 2809 
L 641 3341 
Q 956 3463 1253 3523 
Q 1550 3584 1831 3584 
Q 2591 3584 2966 3190 
Q 3341 2797 3341 1997 
z
" transform="scale(0.015625)"/>
       <path id="DejaVuSans-6c" d="M 603 4863 
L 1178 4863 
L 1178 0 
L 603 0 
L 603 4863 
z
" transform="scale(0.015625)"/>
       <path id="DejaVuSans-69" d="M 603 3500 
L 1178 3500 
L 1178 0 
L 603 0 
L 603 3500 
z
M 603 4863 
L 1178 4863 
L 1178 4134 
L 603 4134 
L 603 4863 
z
" transform="scale(0.015625)"/>
       <path id="DejaVuSans-7a" d="M 353 3500 
L 3084 3500 
L 3084 2975 
L 922 459 
L 3084 459 
L 3084 0 
L 275 0 
L 275 525 
L 2438 3041 
L 353 3041 
L 353 3500 
z
" transform="scale(0.015625)"/>
       <path id="DejaVuSans-64" d="M 2906 2969 
L 2906 4863 
L 3481 4863 
L 3481 0 
L 2906 0 
L 2906 525 
Q 2725 213 2448 61 
Q 2172 -91 1784 -91 
Q 1150 -91 751 415 
Q 353 922 353 1747 
Q 353 2572 751 3078 
Q 1150 3584 1784 3584 
Q 2172 3584 2448 3432 
Q 2725 3281 2906 2969 
z
M 947 1747 
Q 947 1113 1208 752 
Q 1469 391 1925 391 
Q 2381 391 2643 752 
Q 2906 1113 2906 1747 
Q 2906 2381 2643 2742 
Q 2381 3103 1925 3103 
Q 1469 3103 1208 2742 
Q 947 2381 947 1747 
z
" transform="scale(0.015625)"/>
       <path id="DejaVuSans-5b" d="M 550 4863 
L 1875 4863 
L 1875 4416 
L 1125 4416 
L 1125 -397 
L 1875 -397 
L 1875 -844 
L 550 -844 
L 550 4863 
z
" transform="scale(0.015625)"/>
       <path id="DejaVuSans-2c" d="M 750 794 
L 1409 794 
L 1409 256 
L 897 -744 
L 494 -744 
L 750 256 
L 750 794 
z
" transform="scale(0.015625)"/>
       <path id="DejaVuSans-5d" d="M 1947 4863 
L 1947 -844 
L 622 -844 
L 622 -397 
L 1369 -397 
L 1369 4416 
L 622 4416 
L 622 4863 
L 1947 4863 
z
" transform="scale(0.015625)"/>
      </defs>
      <use xlink:href="#DejaVuSans-52"/>
      <use xlink:href="#DejaVuSans-65" transform="translate(64.982422 0)"/>
      <use xlink:href="#DejaVuSans-67" transform="translate(126.505859 0)"/>
      <use xlink:href="#DejaVuSans-20" transform="translate(189.982422 0)"/>
      <use xlink:href="#DejaVuSans-6e" transform="translate(221.769531 0)"/>
      <use xlink:href="#DejaVuSans-6f" transform="translate(285.148438 0)"/>
      <use xlink:href="#DejaVuSans-72" transform="translate(346.330078 0)"/>
      <use xlink:href="#DejaVuSans-6d" transform="translate(385.693359 0)"/>
      <use xlink:href="#DejaVuSans-61" transform="translate(483.105469 0)"/>
      <use xlink:href="#DejaVuSans-6c" transform="translate(544.384766 0)"/>
      <use xlink:href="#DejaVuSans-69" transform="translate(572.167969 0)"/>
      <use xlink:href="#DejaVuSans-7a" transform="translate(599.951172 0)"/>
      <use xlink:href="#DejaVuSans-65" transform="translate(652.441406 0)"/>
      <use xlink:href="#DejaVuSans-64" transform="translate(713.964844 0)"/>
      <use xlink:href="#DejaVuSans-20" transform="translate(777.441406 0)"/>
      <use xlink:href="#DejaVuSans-5b" transform="translate(809.228516 0)"/>
      <use xlink:href="#DejaVuSans-30" transform="translate(848.242188 0)"/>
      <use xlink:href="#DejaVuSans-2c" transform="translate(911.865234 0)"/>
      <use xlink:href="#DejaVuSans-31" transform="translate(943.652344 0)"/>
      <use xlink:href="#DejaVuSans-5d" transform="translate(1007.275391 0)"/>
     </g>
    </g>
   </g>
   <g id="matplotlib.axis_2">
    <g id="ytick_1">
     <g id="line2d_7">
      <defs>
       <path id="m705d53255f" d="M 0 0 
L -3.5 0 
" style="stroke: #000000; stroke-width: 0.8"/>
      </defs>
      <g>
       <use xlink:href="#m705d53255f" x="43.78125" y="377.134125" style="stroke: #000000; stroke-width: 0.8"/>
      </g>
     </g>
     <g id="text_8">
      <!-- 0.0 -->
      <g transform="translate(20.878125 380.933344) scale(0.1 -0.1)">
       <use xlink:href="#DejaVuSans-30"/>
       <use xlink:href="#DejaVuSans-2e" transform="translate(63.623047 0)"/>
       <use xlink:href="#DejaVuSans-30" transform="translate(95.410156 0)"/>
      </g>
     </g>
    </g>
    <g id="ytick_2">
     <g id="line2d_8">
      <g>
       <use xlink:href="#m705d53255f" x="43.78125" y="306.170925" style="stroke: #000000; stroke-width: 0.8"/>
      </g>
     </g>
     <g id="text_9">
      <!-- 0.2 -->
      <g transform="translate(20.878125 309.970144) scale(0.1 -0.1)">
       <use xlink:href="#DejaVuSans-30"/>
       <use xlink:href="#DejaVuSans-2e" transform="translate(63.623047 0)"/>
       <use xlink:href="#DejaVuSans-32" transform="translate(95.410156 0)"/>
      </g>
     </g>
    </g>
    <g id="ytick_3">
     <g id="line2d_9">
      <g>
       <use xlink:href="#m705d53255f" x="43.78125" y="235.207725" style="stroke: #000000; stroke-width: 0.8"/>
      </g>
     </g>
     <g id="text_10">
      <!-- 0.4 -->
      <g transform="translate(20.878125 239.006944) scale(0.1 -0.1)">
       <use xlink:href="#DejaVuSans-30"/>
       <use xlink:href="#DejaVuSans-2e" transform="translate(63.623047 0)"/>
       <use xlink:href="#DejaVuSans-34" transform="translate(95.410156 0)"/>
      </g>
     </g>
    </g>
    <g id="ytick_4">
     <g id="line2d_10">
      <g>
       <use xlink:href="#m705d53255f" x="43.78125" y="164.244525" style="stroke: #000000; stroke-width: 0.8"/>
      </g>
     </g>
     <g id="text_11">
      <!-- 0.6 -->
      <g transform="translate(20.878125 168.043744) scale(0.1 -0.1)">
       <use xlink:href="#DejaVuSans-30"/>
       <use xlink:href="#DejaVuSans-2e" transform="translate(63.623047 0)"/>
       <use xlink:href="#DejaVuSans-36" transform="translate(95.410156 0)"/>
      </g>
     </g>
    </g>
    <g id="ytick_5">
     <g id="line2d_11">
      <g>
       <use xlink:href="#m705d53255f" x="43.78125" y="93.281325" style="stroke: #000000; stroke-width: 0.8"/>
      </g>
     </g>
     <g id="text_12">
      <!-- 0.8 -->
      <g transform="translate(20.878125 97.080544) scale(0.1 -0.1)">
       <use xlink:href="#DejaVuSans-30"/>
       <use xlink:href="#DejaVuSans-2e" transform="translate(63.623047 0)"/>
       <use xlink:href="#DejaVuSans-38" transform="translate(95.410156 0)"/>
      </g>
     </g>
    </g>
    <g id="ytick_6">
     <g id="line2d_12">
      <g>
       <use xlink:href="#m705d53255f" x="43.78125" y="22.318125" style="stroke: #000000; stroke-width: 0.8"/>
      </g>
     </g>
     <g id="text_13">
      <!-- 1.0 -->
      <g transform="translate(20.878125 26.117344) scale(0.1 -0.1)">
       <use xlink:href="#DejaVuSans-31"/>
       <use xlink:href="#DejaVuSans-2e" transform="translate(63.623047 0)"/>
       <use xlink:href="#DejaVuSans-30" transform="translate(95.410156 0)"/>
      </g>
     </g>
    </g>
    <g id="text_14">
     <!-- Methylation fraction [0,1] -->
     <g transform="translate(14.798438 263.473) rotate(-90) scale(0.1 -0.1)">
      <defs>
       <path id="DejaVuSans-4d" d="M 628 4666 
L 1569 4666 
L 2759 1491 
L 3956 4666 
L 4897 4666 
L 4897 0 
L 4281 0 
L 4281 4097 
L 3078 897 
L 2444 897 
L 1241 4097 
L 1241 0 
L 628 0 
L 628 4666 
z
" transform="scale(0.015625)"/>
       <path id="DejaVuSans-74" d="M 1172 4494 
L 1172 3500 
L 2356 3500 
L 2356 3053 
L 1172 3053 
L 1172 1153 
Q 1172 725 1289 603 
Q 1406 481 1766 481 
L 2356 481 
L 2356 0 
L 1766 0 
Q 1100 0 847 248 
Q 594 497 594 1153 
L 594 3053 
L 172 3053 
L 172 3500 
L 594 3500 
L 594 4494 
L 1172 4494 
z
" transform="scale(0.015625)"/>
       <path id="DejaVuSans-68" d="M 3513 2113 
L 3513 0 
L 2938 0 
L 2938 2094 
Q 2938 2591 2744 2837 
Q 2550 3084 2163 3084 
Q 1697 3084 1428 2787 
Q 1159 2491 1159 1978 
L 1159 0 
L 581 0 
L 581 4863 
L 1159 4863 
L 1159 2956 
Q 1366 3272 1645 3428 
Q 1925 3584 2291 3584 
Q 2894 3584 3203 3211 
Q 3513 2838 3513 2113 
z
" transform="scale(0.015625)"/>
       <path id="DejaVuSans-79" d="M 2059 -325 
Q 1816 -950 1584 -1140 
Q 1353 -1331 966 -1331 
L 506 -1331 
L 506 -850 
L 844 -850 
Q 1081 -850 1212 -737 
Q 1344 -625 1503 -206 
L 1606 56 
L 191 3500 
L 800 3500 
L 1894 763 
L 2988 3500 
L 3597 3500 
L 2059 -325 
z
" transform="scale(0.015625)"/>
       <path id="DejaVuSans-66" d="M 2375 4863 
L 2375 4384 
L 1825 4384 
Q 1516 4384 1395 4259 
Q 1275 4134 1275 3809 
L 1275 3500 
L 2222 3500 
L 2222 3053 
L 1275 3053 
L 1275 0 
L 697 0 
L 697 3053 
L 147 3053 
L 147 3500 
L 697 3500 
L 697 3744 
Q 697 4328 969 4595 
Q 1241 4863 1831 4863 
L 2375 4863 
z
" transform="scale(0.015625)"/>
       <path id="DejaVuSans-63" d="M 3122 3366 
L 3122 2828 
Q 2878 2963 2633 3030 
Q 2388 3097 2138 3097 
Q 1578 3097 1268 2742 
Q 959 2388 959 1747 
Q 959 1106 1268 751 
Q 1578 397 2138 397 
Q 2388 397 2633 464 
Q 2878 531 3122 666 
L 3122 134 
Q 2881 22 2623 -34 
Q 2366 -91 2075 -91 
Q 1284 -91 818 406 
Q 353 903 353 1747 
Q 353 2603 823 3093 
Q 1294 3584 2113 3584 
Q 2378 3584 2631 3529 
Q 2884 3475 3122 3366 
z
" transform="scale(0.015625)"/>
      </defs>
      <use xlink:href="#DejaVuSans-4d"/>
      <use xlink:href="#DejaVuSans-65" transform="translate(86.279297 0)"/>
      <use xlink:href="#DejaVuSans-74" transform="translate(147.802734 0)"/>
      <use xlink:href="#DejaVuSans-68" transform="translate(187.011719 0)"/>
      <use xlink:href="#DejaVuSans-79" transform="translate(250.390625 0)"/>
      <use xlink:href="#DejaVuSans-6c" transform="translate(309.570312 0)"/>
      <use xlink:href="#DejaVuSans-61" transform="translate(337.353516 0)"/>
      <use xlink:href="#DejaVuSans-74" transform="translate(398.632812 0)"/>
      <use xlink:href="#DejaVuSans-69" transform="translate(437.841797 0)"/>
      <use xlink:href="#DejaVuSans-6f" transform="translate(465.625 0)"/>
      <use xlink:href="#DejaVuSans-6e" transform="translate(526.806641 0)"/>
      <use xlink:href="#DejaVuSans-20" transform="translate(590.185547 0)"/>
      <use xlink:href="#DejaVuSans-66" transform="translate(621.972656 0)"/>
      <use xlink:href="#DejaVuSans-72" transform="translate(657.177734 0)"/>
      <use xlink:href="#DejaVuSans-61" transform="translate(698.291016 0)"/>
      <use xlink:href="#DejaVuSans-63" transform="translate(759.570312 0)"/>
      <use xlink:href="#DejaVuSans-74" transform="translate(814.550781 0)"/>
      <use xlink:href="#DejaVuSans-69" transform="translate(853.759766 0)"/>
      <use xlink:href="#DejaVuSans-6f" transform="translate(881.542969 0)"/>
      <use xlink:href="#DejaVuSans-6e" transform="translate(942.724609 0)"/>
      <use xlink:href="#DejaVuSans-20" transform="translate(1006.103516 0)"/>
      <use xlink:href="#DejaVuSans-5b" transform="translate(1037.890625 0)"/>
      <use xlink:href="#DejaVuSans-30" transform="translate(1076.904297 0)"/>
      <use xlink:href="#DejaVuSans-2c" transform="translate(1140.527344 0)"/>
      <use xlink:href="#DejaVuSans-31" transform="translate(1172.314453 0)"/>
      <use xlink:href="#DejaVuSans-5d" transform="translate(1235.9375 0)"/>
     </g>
    </g>
   </g>
   <g id="QuadContourSet_1">
    <path d="M 439.8105 242.180662 
L 439.71649 241.860525 
L 438.864252 237.425325 
L 438.334341 232.990125 
L 437.668312 228.554925 
L 435.468231 219.684525 
L 434.829 214.332018 
L 433.206078 206.378925 
L 432.318954 201.943725 
L 430.445336 197.508525 
L 429.8475 196.813991 
L 424.866 194.529968 
L 419.8845 192.615051 
L 414.903 192.430542 
L 414.074372 193.073325 
L 411.999902 197.508525 
L 410.697524 206.378925 
L 409.9215 207.900787 
L 406.358828 210.814125 
L 404.94 211.56714 
L 399.9585 212.702357 
L 397.241038 215.249325 
L 394.977 216.914185 
L 389.9955 218.778358 
L 385.014 217.38331 
L 380.0325 216.710798 
L 375.051 218.088104 
L 371.737886 219.684525 
L 370.0695 220.736616 
L 365.088 225.308191 
L 360.1065 226.105032 
L 355.125 227.274053 
L 353.067804 228.554925 
L 346.341528 232.990125 
L 345.101559 237.425325 
L 344.915414 241.860525 
L 340.1805 246.0876 
L 335.199 245.599166 
L 330.2175 242.760576 
L 325.236 243.959689 
L 323.371518 246.295725 
L 321.005779 250.730925 
L 319.633688 255.166125 
L 316.53595 259.601325 
L 315.273 260.399781 
L 310.2915 264.521657 
L 305.31 266.550564 
L 295.347 268.10214 
L 293.596561 268.471725 
L 290.89671 272.906925 
L 292.500121 277.342125 
L 291.4246 281.777325 
L 290.3655 283.049736 
L 285.384 286.350338 
L 280.4025 284.921062 
L 275.421 283.978854 
L 271.339011 286.212525 
L 270.4395 287.026165 
L 266.903137 290.647725 
L 265.458 294.295556 
L 260.4765 292.002342 
L 258.037337 290.647725 
L 255.495 289.559454 
L 250.466416 290.647725 
L 245.532 293.774295 
L 243.063318 295.082925 
L 240.5505 296.229779 
L 234.863378 299.518125 
L 230.5875 302.378704 
L 228.646159 303.953325 
L 225.606 305.869427 
L 222.475186 308.388525 
L 220.6245 309.464125 
L 215.643 310.349298 
L 213.540924 308.388525 
L 210.6615 304.914116 
L 208.495096 299.518125 
L 207.869387 295.082925 
L 208.549506 290.647725 
L 208.630808 286.212525 
L 207.849172 281.777325 
L 205.773095 272.906925 
L 205.582286 268.471725 
L 204.065292 264.036525 
L 200.33767 259.601325 
L 198.793844 255.166125 
L 199.520808 250.730925 
L 200.6985 248.932813 
L 202.229818 246.295725 
L 202.751839 241.860525 
L 200.6985 240.774945 
L 195.717 241.047237 
L 190.7355 244.170401 
L 185.754 244.88107 
L 180.7725 246.308591 
L 175.791 249.255921 
L 171.182998 250.730925 
L 170.8095 251.168301 
L 170.065518 250.730925 
L 160.8465 248.277807 
L 157.23953 250.730925 
L 160.8465 256.012215 
L 165.828 256.704625 
L 169.961871 259.601325 
L 168.564692 264.036525 
L 165.828 264.680327 
L 161.891837 264.036525 
L 160.8465 263.396428 
L 155.865 262.811903 
L 150.8835 262.441059 
L 145.902 260.73347 
L 144.000565 259.601325 
L 140.9205 257.241466 
L 135.939 256.014725 
L 133.23041 255.166125 
L 130.9575 250.697096 
L 130.049331 246.295725 
L 125.976 243.332253 
L 120.9945 241.891355 
L 116.013 241.777534 
L 111.0315 241.449895 
L 106.04318 237.425325 
L 103.528834 232.990125 
L 101.0685 231.359817 
L 96.087 230.703935 
L 91.1055 230.981827 
L 86.124 230.235459 
L 81.1425 230.647234 
L 78.645877 232.990125 
L 77.111754 237.425325 
L 77.143006 241.860525 
L 77.781511 246.295725 
L 78.872396 250.730925 
L 77.679851 255.166125 
L 76.161 255.930064 
L 73.910895 259.601325 
L 73.392534 264.036525 
L 71.1795 268.489714 
L 71.023416 268.471725 
L 66.198 267.24698 
L 62.792084 264.036525 
L 61.2165 262.972275 
L 56.235 259.935524 
L 53.504452 264.036525 
L 51.2535 267.956332 
L 51.168502 268.471725 
L 50.15566 272.906925 
L 50.333732 281.777325 
L 48.908926 286.212525 
L 46.272 292.364808 
M 86.124 267.636795 
L 84.458232 264.036525 
L 83.402606 259.601325 
L 82.554527 255.166125 
L 84.481318 250.730925 
L 86.124 249.416208 
L 91.1055 244.182758 
L 96.087 245.145217 
L 96.917695 246.295725 
L 96.087 250.741954 
L 93.518244 255.166125 
L 92.288023 259.601325 
L 91.892582 264.036525 
L 91.1055 267.144409 
L 86.124 267.636795 
L 86.124 267.636795 
" clip-path="url(#pbb5cc87323)" style="fill: none; stroke: #d62728; stroke-width: 1.4"/>
    <path d="M 439.8105 284.773056 
L 439.206 281.777325 
L 436.97685 268.471725 
L 436.589502 264.036525 
L 436.540342 259.601325 
L 436.215935 255.166125 
L 435.259241 250.730925 
L 434.829 249.393376 
L 429.8475 246.021907 
L 429.322875 246.295725 
L 424.866 247.837606 
L 419.8845 247.768407 
L 414.903 246.628854 
L 409.9215 247.847359 
L 406.815384 250.730925 
L 404.94 252.077452 
L 399.9585 255.406684 
L 395.58525 259.601325 
L 394.977 260.438332 
L 391.754361 264.036525 
L 389.9955 266.435054 
L 388.287795 268.471725 
L 382.432626 272.906925 
L 380.0325 274.446797 
L 374.901687 277.342125 
L 370.0695 279.367025 
L 365.088 280.87562 
L 360.1065 281.45296 
L 355.125 281.577985 
L 354.178187 281.777325 
L 350.1435 283.927603 
L 348.351113 286.212525 
L 345.162 288.622602 
L 341.18002 290.647725 
L 340.1805 290.994327 
L 335.199 291.955429 
L 330.2175 293.99198 
L 328.645431 295.082925 
L 325.236 296.374261 
L 320.2545 298.851655 
L 312.990281 303.953325 
L 310.2915 304.989682 
L 300.3285 307.567204 
L 297.942412 308.388525 
L 295.347 309.060236 
L 290.3655 310.028918 
L 280.4025 313.081863 
L 275.421 313.398452 
L 270.4395 313.55024 
L 265.458 314.466865 
L 254.597271 317.258925 
L 250.5135 318.022932 
L 245.532 318.787954 
L 240.5505 319.732341 
L 235.569 321.701084 
L 225.606 324.461109 
L 218.774487 326.129325 
L 215.643 326.517135 
L 212.954621 326.129325 
L 210.6615 325.556521 
L 205.68 321.110689 
L 202.137078 317.258925 
L 200.6985 315.262872 
L 198.153615 312.823725 
L 196.627549 308.388525 
L 195.717 305.377509 
L 194.536181 303.953325 
L 190.7355 301.911361 
L 185.754 304.272932 
L 180.7725 307.905785 
L 179.781925 308.388525 
L 175.791 309.864776 
L 169.985827 312.823725 
L 165.828 314.419924 
L 160.8465 314.989843 
L 155.865 313.372513 
L 155.232487 312.823725 
L 150.8835 306.843975 
L 148.507491 303.953325 
L 145.902 301.78192 
L 140.9205 299.561869 
L 135.939 301.122628 
L 132.652551 303.953325 
L 130.9575 306.02744 
L 128.561069 308.388525 
L 125.976 310.370067 
L 120.9945 310.04102 
L 116.013 309.30608 
L 110.810582 308.388525 
L 106.05 305.686586 
L 101.0685 306.533147 
L 99.6217 308.388525 
L 96.087 310.225627 
L 91.1055 312.27212 
L 86.124 311.298075 
L 81.1425 308.729081 
L 79.783326 308.388525 
L 76.161 307.207949 
L 71.1795 308.135987 
L 70.760694 308.388525 
L 66.198 310.363114 
L 61.2165 311.217178 
L 59.030966 308.388525 
L 56.892734 303.953325 
L 56.235 303.470428 
L 51.2535 302.598652 
L 50.362652 303.953325 
L 46.272 312.745282 
L 46.272 312.745282 
" clip-path="url(#pbb5cc87323)" style="fill: none; stroke: #d62728; stroke-width: 1.4"/>
    <path d="M 439.8105 362.873232 
L 437.942904 361.610925 
L 435.400544 357.175725 
L 434.829 355.119754 
L 433.696547 352.740525 
L 431.926143 348.305325 
L 430.277559 343.870125 
L 429.8475 342.911135 
L 426.342489 339.434925 
L 424.866 338.009593 
L 421.104582 334.999725 
L 419.8845 333.622581 
L 417.146927 330.564525 
L 414.903 328.922064 
L 409.9215 326.71201 
L 404.94 326.358972 
L 399.9585 326.726821 
L 394.977 327.519178 
L 389.9955 328.17559 
L 385.014 328.46675 
L 380.0325 328.696046 
L 375.051 328.796438 
L 370.0695 328.80131 
L 365.088 328.692053 
L 360.1065 328.688127 
L 355.125 329.228024 
L 350.1435 329.401928 
L 345.162 328.726936 
L 340.1805 328.51923 
L 335.199 329.250458 
L 330.2175 330.285374 
L 328.014684 330.564525 
L 325.236 330.833337 
L 320.2545 330.755745 
L 316.810738 330.564525 
L 315.273 330.454932 
L 314.246697 330.564525 
L 310.2915 330.844078 
L 305.31 331.648271 
L 300.3285 331.86234 
L 295.347 331.559134 
L 290.3655 331.765509 
L 285.384 332.621228 
L 280.4025 333.582465 
L 275.421 334.364919 
L 270.483356 334.999725 
L 270.4395 335.003257 
L 265.458 335.263218 
L 260.4765 335.512131 
L 255.495 335.918438 
L 250.5135 336.362234 
L 245.532 336.565004 
L 240.5505 336.626096 
L 235.569 336.885719 
L 230.5875 337.345021 
L 225.606 337.910554 
L 220.6245 338.663838 
L 215.643 339.405407 
L 214.862015 339.434925 
L 210.6615 339.536945 
L 209.126645 339.434925 
L 205.68 339.031375 
L 200.6985 338.112856 
L 195.717 337.167735 
L 190.7355 336.138656 
L 185.754 335.895374 
L 180.7725 336.467753 
L 175.791 336.883678 
L 170.8095 337.297919 
L 165.828 337.380476 
L 160.8465 336.942084 
L 155.865 336.561611 
L 150.8835 335.554031 
L 148.974959 334.999725 
L 145.902 333.668935 
L 140.9205 332.82513 
L 135.939 334.086541 
L 133.367958 334.999725 
L 130.9575 335.605144 
L 125.976 336.24117 
L 120.9945 336.580491 
L 116.013 337.524748 
L 111.0315 338.285291 
L 106.05 337.546557 
L 101.0685 336.868726 
L 96.087 336.832996 
L 91.1055 335.987077 
L 88.331232 334.999725 
L 86.124 334.035906 
L 81.1425 332.157221 
L 76.161 331.489409 
L 71.1795 332.012121 
L 66.198 333.10041 
L 61.2165 333.78673 
L 56.235 332.733156 
L 51.2535 331.637272 
L 47.250909 334.999725 
L 46.272 335.888871 
" clip-path="url(#pbb5cc87323)" style="fill: none; stroke: #d62728; stroke-width: 1.4"/>
    <path d="M 64.601191 374.916525 
L 66.198 374.343298 
L 71.1795 372.016281 
L 76.171672 370.481325 
L 81.1425 371.265399 
L 86.124 374.276152 
L 87.470369 374.916525 
M 122.03762 374.916525 
L 125.976 374.551964 
L 130.9575 374.341444 
L 135.939 373.825809 
L 140.9205 373.46834 
L 145.902 374.564 
L 146.618677 374.916525 
M 200.595663 374.916525 
L 200.6985 374.900376 
L 205.68 373.734232 
L 210.6615 373.089672 
L 215.643 372.906412 
L 225.606 372.968043 
L 235.569 373.033956 
L 260.4765 372.667858 
L 270.4395 372.707916 
L 280.4025 372.477055 
L 290.3655 372.160069 
L 305.31 372.395649 
L 320.2545 371.929353 
L 335.199 371.382846 
L 340.1805 371.42416 
L 350.1435 371.857192 
L 355.125 371.815966 
L 365.088 370.806076 
L 370.0695 370.572288 
L 380.160646 370.481325 
L 394.977 370.694574 
L 404.94 370.849377 
L 409.9215 371.200852 
L 414.903 372.184011 
L 419.069397 374.916525 
M 439.8105 373.445858 
L 437.866259 370.481325 
L 434.829 368.927806 
L 429.8475 368.395792 
L 424.866 368.432909 
L 419.8845 368.743084 
L 409.9215 369.603447 
L 404.94 369.751155 
L 399.9585 369.579882 
L 394.977 367.747794 
L 394.070211 366.046125 
L 389.954436 361.610925 
L 385.014 358.092295 
L 383.411984 357.175725 
L 380.0325 356.221138 
L 370.0695 354.997946 
L 365.088 354.091157 
L 358.622705 352.740525 
L 340.1805 349.843004 
L 335.199 349.137324 
L 327.708577 348.305325 
L 325.236 348.074767 
L 320.2545 347.860302 
L 310.2915 347.812899 
L 300.3285 347.338019 
L 290.3655 346.587141 
L 285.384 346.526095 
L 275.421 346.852723 
L 260.4765 346.836611 
L 250.5135 347.076347 
L 230.5875 347.728658 
L 225.606 347.809338 
L 219.025916 348.305325 
L 210.6615 349.07832 
L 205.68 349.81329 
L 200.6985 350.884417 
L 195.717 351.831104 
L 185.754 352.252678 
L 180.7725 352.754265 
L 170.8095 353.371434 
L 165.828 353.37523 
L 155.865 352.6354 
L 150.8835 351.521665 
L 145.902 350.150975 
L 140.9205 349.839682 
L 130.9575 350.646698 
L 120.9945 350.834557 
L 116.013 351.475627 
L 111.0315 351.987165 
L 101.0685 351.267462 
L 96.087 351.717032 
L 91.1055 351.596472 
L 81.1425 347.223444 
L 76.161 347.065113 
L 71.1795 348.321561 
L 66.198 349.944099 
L 61.2165 351.230167 
L 56.235 351.645255 
L 53.290018 352.740525 
L 51.2535 354.420707 
L 50.471021 357.175725 
L 50.088034 361.610925 
L 50.154488 366.046125 
L 50.661353 370.481325 
L 51.2535 371.488561 
L 55.007704 374.916525 
L 55.007704 374.916525 
" clip-path="url(#pbb5cc87323)" style="fill: none; stroke: #d62728; stroke-width: 1.4"/>
    <path d="M 91.1055 370.746869 
L 96.087 370.836619 
L 98.640696 370.481325 
L 101.0685 369.373026 
L 104.133458 370.481325 
L 106.05 370.691245 
L 111.0315 371.434319 
L 116.013 370.798271 
L 117.42448 370.481325 
L 120.9945 368.54417 
L 125.976 367.974004 
L 130.9575 367.442096 
L 135.080794 366.046125 
L 135.939 364.892929 
L 138.493311 361.610925 
L 135.939 360.175781 
L 130.9575 359.042313 
L 125.976 359.097886 
L 120.9945 359.603213 
L 116.013 360.094422 
L 111.0315 360.433233 
L 106.05 360.590468 
L 101.0685 360.490653 
L 96.087 360.647432 
L 91.1055 361.233466 
L 89.226151 361.610925 
L 87.797223 366.046125 
L 90.577569 370.481325 
L 91.1055 370.746869 
z
M 155.865 371.800995 
L 160.8465 372.13955 
L 165.828 372.392868 
L 170.8095 372.284333 
L 175.791 371.805863 
L 180.7725 371.160844 
L 184.696909 370.481325 
L 185.754 369.536353 
L 190.7355 369.519507 
L 195.272406 370.481325 
L 195.717 370.505522 
L 196.084858 370.481325 
L 200.6985 369.945932 
L 205.68 369.643408 
L 210.6615 369.775136 
L 215.643 369.93715 
L 220.6245 370.009949 
L 225.606 370.0416 
L 230.5875 370.082824 
L 235.569 370.066579 
L 240.5505 369.920679 
L 245.532 369.693588 
L 250.5135 369.480121 
L 255.495 369.320995 
L 260.4765 369.251331 
L 265.458 369.245406 
L 270.4395 369.157732 
L 275.421 368.950506 
L 280.4025 368.628687 
L 285.384 368.175088 
L 290.3655 367.771537 
L 295.347 367.59777 
L 300.3285 367.513408 
L 305.31 367.196566 
L 310.2915 366.58233 
L 313.640268 366.046125 
L 315.273 365.342551 
L 320.2545 362.965352 
L 323.434377 361.610925 
L 320.2545 358.849729 
L 318.278203 357.175725 
L 315.273 356.543732 
L 310.2915 355.773067 
L 305.31 355.105403 
L 300.3285 354.463379 
L 295.347 353.790417 
L 290.3655 353.055451 
L 287.435945 352.740525 
L 285.384 352.565937 
L 280.4025 352.3806 
L 275.421 352.228897 
L 270.4395 352.083964 
L 265.458 352.031584 
L 260.4765 352.01547 
L 255.495 351.938991 
L 250.5135 351.864733 
L 245.532 351.953931 
L 240.5505 352.190087 
L 235.569 352.304809 
L 230.5875 352.178982 
L 225.606 352.068233 
L 220.6245 352.224461 
L 215.643 352.686789 
L 215.295657 352.740525 
L 210.6615 353.49463 
L 205.68 354.97196 
L 200.824473 357.175725 
L 200.6985 357.288413 
L 195.717 359.92771 
L 190.7355 361.154344 
L 188.373543 361.610925 
L 185.754 362.918091 
L 180.7725 363.189838 
L 175.791 363.098945 
L 170.8095 362.997873 
L 165.828 362.630585 
L 160.8465 362.31215 
L 155.865 362.872801 
L 150.886009 366.046125 
L 151.978527 370.481325 
L 155.865 371.800995 
z
" clip-path="url(#pbb5cc87323)" style="fill: none; stroke: #d62728; stroke-width: 1.4"/>
   </g>
   <g id="QuadContourSet_2">
    <path d="M 439.8105 211.36457 
L 439.530815 210.814125 
L 437.798814 206.378925 
L 438.376751 201.943725 
L 439.8105 196.541099 
M 439.8105 182.380686 
L 439.067631 179.767725 
L 439.007343 175.332525 
L 439.717936 170.897325 
L 438.927615 166.462125 
L 436.723947 162.026925 
L 435.312569 157.591725 
L 435.691466 153.156525 
L 436.212572 148.721325 
L 435.856926 144.286125 
L 434.829 138.490094 
L 429.8475 135.784628 
L 428.52202 139.850925 
L 427.585007 148.721325 
L 429.321656 157.591725 
L 426.809709 162.026925 
L 424.866 164.084913 
L 421.933269 166.462125 
L 419.8845 168.41446 
L 418.659047 170.897325 
L 417.915684 175.332525 
L 416.901771 179.767725 
L 414.903 183.834139 
L 414.556282 184.202925 
L 412.732768 188.638125 
L 414.903 192.693536 
L 415.4645 193.073325 
L 419.8845 193.98151 
L 424.866 194.824935 
L 429.399584 197.508525 
L 429.8475 198.31879 
L 431.464518 201.943725 
L 429.113167 206.378925 
L 424.866 208.715666 
L 419.8845 210.818839 
L 415.034776 215.249325 
L 414.749115 219.684525 
L 414.903 224.41577 
L 414.033781 228.554925 
L 412.026944 232.990125 
L 409.9215 234.443707 
L 404.94 236.159044 
L 399.9585 237.094158 
L 394.977 237.379428 
L 389.9955 236.429648 
L 385.014 234.503276 
L 380.0325 231.628487 
L 375.051 228.371479 
L 370.0695 226.811097 
L 365.088 226.685321 
L 360.1065 228.860528 
L 355.125 230.614533 
L 350.1435 232.692805 
L 349.739859 232.990125 
L 345.964262 237.425325 
L 345.162 238.59252 
L 340.1805 242.360569 
L 335.199 245.518035 
L 334.343174 246.295725 
L 332.694791 250.730925 
L 330.2175 252.6133 
L 325.236 252.150101 
L 320.2545 251.818264 
L 315.273 252.752813 
L 310.024143 255.166125 
L 305.31 256.341681 
L 300.3285 256.680677 
L 295.347 257.350447 
L 290.3655 257.333183 
L 285.384 257.952026 
L 280.4025 259.725955 
L 275.421 261.357915 
L 270.4395 263.213173 
L 268.876526 264.036525 
L 265.458 268.679552 
L 260.4765 273.085519 
L 255.495 277.526586 
L 250.5135 280.772766 
L 245.532 282.190742 
L 240.5505 282.362938 
L 237.098355 281.777325 
L 235.569 280.845306 
L 230.5875 280.035228 
L 229.519346 281.777325 
L 225.606 284.569115 
L 224.371181 286.212525 
L 220.6245 289.408974 
L 215.643 290.421751 
L 210.624926 286.212525 
L 207.193758 281.777325 
L 205.68 279.374583 
L 203.763859 277.342125 
L 201.606419 272.906925 
L 200.6985 270.102223 
L 195.717 269.261723 
L 190.7355 268.97134 
L 189.065079 268.471725 
L 185.754 266.90924 
L 182.605802 264.036525 
L 180.7725 261.401736 
L 179.138444 259.601325 
L 175.791 257.122599 
L 170.8095 258.444753 
L 169.827912 259.601325 
L 168.479451 264.036525 
L 165.828 267.813879 
L 160.8465 267.517114 
L 155.865 264.573932 
L 150.8835 264.171045 
L 140.9205 264.576335 
L 130.9575 264.789209 
L 125.976 264.65732 
L 116.084404 264.036525 
L 116.013 264.020788 
L 111.0315 260.610302 
L 109.199117 259.601325 
L 106.05 258.635092 
L 100.60489 259.601325 
L 96.087 261.127861 
L 91.1055 262.230126 
L 86.124 262.52463 
L 81.1425 262.313131 
L 76.161 261.00532 
L 73.432737 259.601325 
L 71.1795 257.926657 
L 68.087501 259.601325 
L 66.198 260.803373 
L 62.758696 264.036525 
L 61.2165 264.71114 
L 58.176557 264.036525 
L 56.235 263.352575 
L 51.2535 257.210689 
L 49.501545 259.601325 
L 47.976711 264.036525 
L 46.733295 268.471725 
L 46.272 269.64069 
L 46.272 269.64069 
" clip-path="url(#pbb5cc87323)" style="fill: none; stroke: #1f77b4; stroke-width: 1.4"/>
    <path d="M 439.8105 296.292642 
L 439.513471 295.082925 
L 438.813934 290.647725 
L 438.147719 286.212525 
L 436.8427 281.777325 
L 434.829 277.668017 
L 434.287734 277.342125 
L 429.8475 275.091838 
L 424.866 274.893827 
L 419.8845 275.752751 
L 414.903 276.898155 
L 410.312404 277.342125 
L 409.9215 277.383795 
L 404.94 278.414697 
L 399.9585 280.647813 
L 397.746476 281.777325 
L 394.977 282.970424 
L 389.9955 284.577958 
L 385.560606 286.212525 
L 385.014 286.429874 
L 380.0325 288.13906 
L 375.051 288.903431 
L 370.0695 289.110822 
L 365.088 289.632354 
L 360.711694 290.647725 
L 360.1065 290.750273 
L 355.125 291.421257 
L 350.1435 291.806301 
L 345.162 292.312708 
L 340.1805 292.879092 
L 335.199 293.226057 
L 330.2175 293.238409 
L 325.236 292.097372 
L 320.2545 291.566114 
L 315.273 293.784369 
L 313.172294 295.082925 
L 310.2915 296.887024 
L 305.31 298.732827 
L 300.3285 299.25587 
L 296.814329 299.518125 
L 295.347 299.613203 
L 290.3655 301.081484 
L 285.384 302.448007 
L 280.4025 303.363314 
L 277.130729 303.953325 
L 275.421 304.256684 
L 270.4395 305.517448 
L 265.458 306.500822 
L 260.4765 306.277681 
L 255.495 306.806866 
L 251.735122 308.388525 
L 250.5135 308.721812 
L 245.532 310.267304 
L 240.5505 311.845227 
L 237.865905 312.823725 
L 235.569 313.355956 
L 230.5875 314.602622 
L 225.606 316.484027 
L 224.190963 317.258925 
L 220.6245 318.842824 
L 215.643 320.392061 
L 210.6615 318.307926 
L 209.634847 317.258925 
L 206.546966 312.823725 
L 205.68 311.188221 
L 203.213719 308.388525 
L 200.6985 306.304723 
L 195.717 305.846465 
L 190.7355 306.771195 
L 185.754 307.078093 
L 180.7725 304.807487 
L 176.525514 303.953325 
L 175.791 303.828005 
L 175.371447 303.953325 
L 170.8095 304.901795 
L 165.828 305.589567 
L 160.8465 304.68471 
L 159.078045 303.953325 
L 155.865 302.372788 
L 150.8835 301.643964 
L 145.902 302.946455 
L 142.299433 303.953325 
L 140.9205 304.301698 
L 135.939 304.647302 
L 130.9575 304.741601 
L 125.976 304.351589 
L 124.022788 303.953325 
L 120.9945 303.089852 
L 116.013 302.285792 
L 111.0315 301.669335 
L 106.05 301.229808 
L 101.0685 301.825575 
L 96.087 301.944457 
L 91.1055 300.205674 
L 89.468699 299.518125 
L 86.124 298.095781 
L 81.1425 297.517368 
L 76.794779 299.518125 
L 76.161 299.815292 
L 71.1795 301.594673 
L 66.198 301.404986 
L 61.2165 299.980419 
L 60.511097 299.518125 
L 56.235 297.093932 
L 51.2535 296.25624 
L 49.127511 299.518125 
L 46.858631 303.953325 
L 46.272 304.74415 
" clip-path="url(#pbb5cc87323)" style="fill: none; stroke: #1f77b4; stroke-width: 1.4"/>
    <path d="M 439.8105 356.509203 
L 438.174448 352.740525 
L 436.387674 348.305325 
L 434.829 344.46675 
L 434.062521 343.870125 
L 429.8475 340.421491 
L 424.866 340.001984 
L 419.8845 339.900512 
L 414.903 339.47224 
L 414.688742 339.434925 
L 409.9215 338.18131 
L 404.94 336.836763 
L 399.9585 336.219889 
L 394.977 335.649892 
L 391.621681 334.999725 
L 389.9955 334.63475 
L 385.014 333.621287 
L 380.0325 333.07683 
L 375.051 332.538762 
L 370.0695 331.734856 
L 365.088 331.267365 
L 360.1065 331.517598 
L 355.125 331.716004 
L 350.1435 331.527672 
L 345.162 331.107096 
L 340.1805 330.6688 
L 338.090444 330.564525 
L 335.199 330.387555 
L 330.2175 330.34433 
L 326.441395 330.564525 
L 325.236 330.622557 
L 320.2545 330.719686 
L 315.273 330.569268 
L 310.2915 330.58186 
L 305.31 330.871466 
L 300.3285 331.10894 
L 295.347 330.866974 
L 292.274175 330.564525 
L 290.3655 330.345101 
L 285.384 330.206859 
L 280.4025 330.531793 
L 279.832507 330.564525 
L 275.421 330.7664 
L 270.4395 330.789664 
L 265.458 330.871357 
L 260.4765 331.338154 
L 255.495 332.086962 
L 250.5135 332.952732 
L 245.532 333.713706 
L 240.5505 334.198875 
L 235.569 334.805453 
L 234.288268 334.999725 
L 230.5875 335.384929 
L 225.606 335.809576 
L 220.6245 336.397423 
L 215.643 337.316059 
L 210.6615 338.134103 
L 205.68 338.040131 
L 200.6985 336.752574 
L 195.717 335.562252 
L 190.7355 335.181938 
L 188.805748 334.999725 
L 185.754 334.606142 
L 180.7725 333.734693 
L 175.791 333.872288 
L 170.8095 334.576855 
L 166.974152 334.999725 
L 165.828 335.090258 
L 163.814772 334.999725 
L 160.8465 334.812148 
L 155.865 333.247137 
L 150.8835 332.372484 
L 145.902 333.023231 
L 140.9205 334.318188 
L 136.151525 334.999725 
L 135.939 335.019959 
L 135.198949 334.999725 
L 130.9575 334.808219 
L 125.976 334.326483 
L 121.314883 334.999725 
L 120.9945 335.031784 
L 116.013 335.886082 
L 111.0315 335.749983 
L 106.05 335.118212 
L 101.0685 335.115769 
L 96.087 335.138373 
L 95.5029 334.999725 
L 91.1055 333.631937 
L 86.124 331.712303 
L 81.1425 330.800051 
L 76.161 331.116159 
L 71.1795 331.857661 
L 66.198 332.77189 
L 61.2165 333.790831 
L 56.235 332.726961 
L 51.2535 331.113658 
L 46.272 334.022502 
" clip-path="url(#pbb5cc87323)" style="fill: none; stroke: #1f77b4; stroke-width: 1.4"/>
    <path d="M 73.672202 374.916525 
L 76.161 374.206697 
L 81.1425 373.637312 
L 85.240176 374.916525 
M 213.946468 374.916525 
L 215.643 374.56396 
L 220.6245 374.085408 
L 225.606 373.92591 
L 230.5875 373.882173 
L 235.569 373.879908 
L 240.5505 373.90946 
L 245.532 373.970182 
L 250.5135 374.013582 
L 255.495 374.069534 
L 260.4765 374.202958 
L 265.458 374.365519 
L 270.4395 374.501602 
L 275.421 374.61938 
L 280.4025 374.753555 
L 284.054113 374.916525 
M 439.8105 368.664256 
L 434.829 366.147242 
L 434.337451 366.046125 
L 429.8475 364.663191 
L 424.866 363.83523 
L 419.8845 363.196797 
L 414.903 362.599048 
L 409.9215 361.996896 
L 406.355706 361.610925 
L 404.94 361.367631 
L 399.9585 360.629589 
L 394.977 359.940561 
L 389.9955 359.287196 
L 385.014 358.75396 
L 380.0325 358.456664 
L 375.051 358.294399 
L 370.0695 358.055277 
L 365.088 357.709676 
L 360.1065 357.281737 
L 359.067779 357.175725 
L 355.125 356.65547 
L 350.1435 356.121317 
L 345.162 355.723534 
L 340.1805 355.321841 
L 335.199 354.913518 
L 330.2175 354.460195 
L 325.236 353.996281 
L 320.2545 353.621673 
L 315.273 353.324398 
L 310.2915 353.088568 
L 305.31 352.832499 
L 303.730758 352.740525 
L 300.3285 352.492985 
L 295.347 352.181226 
L 290.3655 351.794648 
L 285.384 351.334206 
L 280.4025 350.995584 
L 275.421 350.799137 
L 270.4395 350.575059 
L 265.458 350.310943 
L 260.4765 350.067764 
L 255.495 349.861911 
L 250.5135 349.715665 
L 245.532 349.599184 
L 240.5505 349.518392 
L 235.569 349.515605 
L 230.5875 349.596886 
L 225.606 349.722156 
L 220.6245 349.869514 
L 215.643 350.22214 
L 210.6615 351.14127 
L 205.68 352.599736 
L 204.921478 352.740525 
L 200.6985 353.425546 
L 195.717 353.718557 
L 190.7355 354.139594 
L 185.754 354.381246 
L 180.7725 354.376463 
L 175.791 354.5815 
L 170.8095 354.565809 
L 165.828 354.407739 
L 160.8465 353.878042 
L 157.052884 352.740525 
L 155.865 352.340941 
L 150.8835 351.137007 
L 145.902 351.298589 
L 140.9205 352.116434 
L 135.960838 352.740525 
L 135.939 352.742772 
L 130.9575 352.812364 
L 127.605157 352.740525 
L 125.976 352.699447 
L 125.204567 352.740525 
L 120.9945 352.932592 
L 116.013 353.354818 
L 111.0315 353.34181 
L 106.05 352.970422 
L 101.0685 353.059211 
L 96.087 353.117176 
L 94.586263 352.740525 
L 91.1055 351.771072 
L 86.124 349.706153 
L 81.1425 348.824781 
L 76.161 349.406602 
L 71.1795 350.326653 
L 66.198 351.437733 
L 61.579131 352.740525 
L 61.2165 352.852715 
L 56.235 352.96542 
L 51.2535 353.595802 
L 49.031625 357.175725 
L 47.771017 361.610925 
L 47.470132 366.046125 
L 48.070407 370.481325 
L 51.125836 374.916525 
" clip-path="url(#pbb5cc87323)" style="fill: none; stroke: #1f77b4; stroke-width: 1.4"/>
    <path d="M 437.284559 374.916525 
L 434.829 370.656867 
L 434.559938 370.481325 
L 429.8475 369.393253 
L 424.866 368.954641 
L 419.8845 368.701559 
L 414.903 368.50431 
L 409.9215 368.285136 
L 404.94 368.087544 
L 399.9585 367.938352 
L 394.977 367.842179 
L 389.9955 367.760352 
L 385.014 367.597596 
L 380.0325 367.551304 
L 375.051 367.73175 
L 370.0695 367.900782 
L 365.088 367.70927 
L 360.1065 366.937718 
L 355.125 366.046482 
L 355.119916 366.046125 
L 350.1435 365.935091 
L 345.162 365.902709 
L 340.1805 365.872439 
L 335.199 365.896578 
L 330.2175 365.74833 
L 325.236 365.319359 
L 320.2545 365.053793 
L 315.273 365.004737 
L 310.2915 364.797723 
L 305.31 364.442629 
L 300.3285 363.9992 
L 295.347 363.351656 
L 290.3655 362.48617 
L 287.050985 361.610925 
L 285.384 361.445966 
L 280.4025 360.865702 
L 275.421 360.325252 
L 270.4395 359.933595 
L 265.458 359.590155 
L 260.4765 359.114959 
L 255.495 358.425424 
L 250.5135 357.649127 
L 247.204505 357.175725 
L 245.532 357.016464 
L 240.5505 356.637489 
L 235.569 356.341497 
L 230.5875 356.07823 
L 225.606 355.851428 
L 220.6245 355.728446 
L 215.643 356.012096 
L 210.754589 357.175725 
L 210.6615 357.20556 
L 205.68 359.380249 
L 200.6985 360.84477 
L 196.626277 361.610925 
L 195.717 361.898125 
L 190.7355 363.324979 
L 185.754 364.244723 
L 180.7725 364.73773 
L 175.791 364.803999 
L 170.8095 364.504502 
L 165.828 364.330435 
L 160.8465 364.877757 
L 156.493529 366.046125 
L 157.015178 370.481325 
L 160.8465 372.224104 
L 165.828 372.864345 
L 170.8095 372.779617 
L 175.791 372.634832 
L 180.7725 372.525283 
L 185.754 372.865622 
L 190.7355 372.649838 
L 195.717 372.206382 
L 200.6985 372.222647 
L 205.68 371.91563 
L 210.6615 371.075133 
L 214.905299 370.481325 
L 215.643 370.350832 
L 220.6245 369.867438 
L 225.606 369.541526 
L 230.5875 369.243785 
L 235.569 368.979644 
L 240.5505 368.802502 
L 245.532 368.672547 
L 250.5135 368.466402 
L 255.495 368.251173 
L 260.4765 368.164046 
L 265.458 368.172956 
L 270.4395 368.161263 
L 275.421 368.015172 
L 280.4025 367.769077 
L 285.384 367.661921 
L 290.3655 367.814675 
L 295.347 367.993204 
L 300.3285 368.014873 
L 305.31 368.042903 
L 310.2915 368.021246 
L 315.273 367.997434 
L 320.2545 368.210883 
L 325.236 368.40855 
L 330.2175 369.176278 
L 331.375147 370.481325 
L 335.199 370.717499 
L 340.1805 370.9707 
L 345.162 371.170122 
L 350.1435 371.39363 
L 355.125 371.644986 
L 360.1065 371.822851 
L 365.088 371.977669 
L 370.0695 372.318889 
L 375.051 372.718589 
L 380.0325 373.0348 
L 385.014 373.479442 
L 389.9955 374.436156 
L 391.498209 374.916525 
M 61.2165 371.012726 
L 62.996426 370.481325 
L 62.274716 366.046125 
L 61.2165 365.960581 
L 60.922319 366.046125 
L 58.864237 370.481325 
L 61.2165 371.012726 
z
M 96.087 371.572198 
L 101.0685 371.448146 
L 106.05 371.370725 
L 111.0315 371.96727 
L 116.013 371.972009 
L 120.9945 371.2271 
L 125.976 370.799644 
L 130.9575 370.897862 
L 135.939 370.83418 
L 138.894536 370.481325 
L 140.9205 369.711817 
L 145.902 367.396649 
L 149.976062 366.046125 
L 145.902 362.107167 
L 141.189702 361.610925 
L 140.9205 361.605336 
L 140.683425 361.610925 
L 135.939 361.821169 
L 130.9575 361.764908 
L 125.976 361.682383 
L 120.9945 362.306769 
L 116.013 363.142918 
L 111.0315 363.722514 
L 106.05 363.994942 
L 101.0685 363.934608 
L 96.087 364.133665 
L 91.1055 365.658905 
L 90.677109 366.046125 
L 91.1055 366.758703 
L 92.853563 370.481325 
L 96.087 371.572198 
z
" clip-path="url(#pbb5cc87323)" style="fill: none; stroke: #1f77b4; stroke-width: 1.4"/>
   </g>
   <g id="QuadContourSet_3">
    <path d="M 439.8105 182.655849 
L 438.936601 179.767725 
L 437.387275 175.332525 
L 436.569057 170.897325 
L 436.540182 162.026925 
L 436.111972 157.591725 
L 434.829 151.63614 
L 432.98548 148.721325 
L 432.122649 144.286125 
L 433.002434 139.850925 
L 432.593691 135.415725 
L 430.370505 130.980525 
L 429.8475 130.369476 
L 428.364621 130.980525 
L 424.866 133.359904 
L 423.898402 135.415725 
L 423.370201 139.850925 
L 423.683862 144.286125 
L 422.21518 148.721325 
L 421.519938 153.156525 
L 421.708078 157.591725 
L 422.032424 162.026925 
L 422.662036 166.462125 
L 421.936893 170.897325 
L 419.8845 171.563307 
L 414.903 174.58348 
L 414.147277 175.332525 
L 411.343625 179.767725 
L 409.751081 184.202925 
L 404.94 186.912476 
L 404.011003 188.638125 
L 401.167198 193.073325 
L 398.477863 197.508525 
L 394.977 200.773038 
L 389.9955 202.378041 
L 385.304577 206.378925 
L 386.481238 210.814125 
L 389.9955 213.179196 
L 394.980224 215.249325 
L 395.936403 219.684525 
L 394.977 220.644088 
L 390.928223 224.119725 
L 389.9955 224.734505 
L 385.014 225.772875 
L 380.0325 224.819096 
L 370.0695 223.56609 
L 365.088 224.300191 
L 360.560336 228.554925 
L 360.840072 232.990125 
L 363.286362 237.425325 
L 360.1065 240.677058 
L 359.241713 241.860525 
L 355.125 244.097831 
L 352.665073 246.295725 
L 350.1435 247.996719 
L 345.162 249.066245 
L 335.199 248.997614 
L 330.2175 249.43634 
L 326.761217 250.730925 
L 325.236 251.454005 
L 321.812148 255.166125 
L 320.2545 257.910666 
L 319.053422 259.601325 
L 315.273 263.305467 
L 313.544984 264.036525 
L 310.2915 266.241963 
L 305.31 269.005614 
L 300.3285 269.039652 
L 295.347 268.008493 
L 294.020115 268.471725 
L 290.3655 269.579254 
L 285.384 273.149638 
L 278.240597 277.342125 
L 275.421 278.926021 
L 270.4395 280.184161 
L 265.458 280.485803 
L 260.4765 280.23431 
L 255.495 279.575376 
L 250.5135 280.991018 
L 249.402348 281.777325 
L 245.532 284.313121 
L 240.5505 285.696372 
L 234.588189 286.212525 
L 230.5875 286.842984 
L 225.606 288.075086 
L 220.6245 289.049185 
L 215.643 288.796227 
L 210.6615 288.724294 
L 207.978505 290.647725 
L 205.68 292.749176 
L 204.178683 295.082925 
L 200.6985 301.472797 
L 195.717 303.645337 
L 193.478194 299.518125 
L 190.7355 294.008929 
L 186.47067 281.777325 
L 185.754 280.113215 
L 184.404317 277.342125 
L 182.554107 272.906925 
L 181.273679 268.471725 
L 180.7725 267.357542 
L 175.791 265.273768 
L 170.8095 267.25995 
L 168.760324 268.471725 
L 165.828 269.409522 
L 160.8465 270.105065 
L 155.865 269.880524 
L 150.8835 268.467833 
L 145.889981 264.036525 
L 142.69233 259.601325 
L 140.9205 258.24752 
L 135.939 257.344552 
L 130.9575 258.28081 
L 125.976 258.282104 
L 120.9945 255.992378 
L 116.013 255.195128 
L 110.929941 259.601325 
L 109.384221 264.036525 
L 106.924054 268.471725 
L 106.05 269.343069 
L 101.0685 270.792625 
L 96.087 271.175611 
L 91.1055 269.512507 
L 89.912524 268.471725 
L 81.949245 264.036525 
L 81.1425 263.210752 
L 78.526031 259.601325 
L 78.155285 255.166125 
L 77.29193 250.730925 
L 76.161 249.443045 
L 72.086808 250.730925 
L 71.1795 251.240817 
L 67.902534 255.166125 
L 66.198 256.92636 
L 61.2165 257.537006 
L 57.39021 255.166125 
L 56.235 254.784878 
L 51.2535 254.464268 
L 50.698625 255.166125 
L 49.332086 259.601325 
L 48.801907 264.036525 
L 46.272 267.858524 
L 46.272 267.858524 
" clip-path="url(#pbb5cc87323)" style="fill: none; stroke: #2ca02c; stroke-width: 1.4"/>
    <path d="M 439.8105 288.192975 
L 439.025721 286.212525 
L 437.036965 281.777325 
L 436.236697 277.342125 
L 436.593966 272.906925 
L 436.77156 268.471725 
L 435.831319 264.036525 
L 434.829 260.799215 
L 433.636006 259.601325 
L 431.616721 255.166125 
L 429.8475 252.692333 
L 424.866 254.191433 
L 423.034498 255.166125 
L 419.8845 257.152848 
L 415.887841 259.601325 
L 414.903 260.156423 
L 409.9215 263.971919 
L 409.862188 264.036525 
L 405.327804 268.471725 
L 404.94 268.713426 
L 399.9585 271.653566 
L 396.901375 272.906925 
L 394.977 273.591799 
L 389.9955 274.962546 
L 385.014 276.267153 
L 381.392766 277.342125 
L 380.0325 277.71354 
L 375.051 279.329884 
L 370.0695 280.65491 
L 366.226114 281.777325 
L 365.088 282.081223 
L 360.1065 284.604339 
L 357.415752 286.212525 
L 355.125 287.041736 
L 350.1435 287.622426 
L 345.162 288.32912 
L 341.020854 290.647725 
L 340.1805 291.079226 
L 335.199 294.211066 
L 332.620674 295.082925 
L 330.2175 295.7552 
L 325.236 295.59341 
L 320.2545 295.392689 
L 315.273 296.841154 
L 310.2915 299.421927 
L 310.06786 299.518125 
L 305.31 301.144075 
L 300.3285 302.183886 
L 295.347 303.213925 
L 292.980709 303.953325 
L 290.3655 304.664623 
L 285.384 306.136692 
L 280.4025 306.838388 
L 275.421 306.710929 
L 270.4395 306.902734 
L 265.458 308.320005 
L 265.298772 308.388525 
L 260.4765 309.868157 
L 255.495 311.253553 
L 250.5135 312.335154 
L 247.483446 312.823725 
L 245.532 313.078018 
L 240.5505 313.351724 
L 235.569 313.104063 
L 230.5875 313.076232 
L 225.606 314.348632 
L 220.6245 316.468454 
L 218.855064 317.258925 
L 215.643 318.396136 
L 210.6615 319.980593 
L 205.68 321.210319 
L 203.661887 321.694125 
L 200.6985 322.215434 
L 195.717 322.690669 
L 192.848323 321.694125 
L 190.7355 320.639625 
L 187.577186 317.258925 
L 185.754 315.226561 
L 181.929484 312.823725 
L 180.7725 312.00368 
L 175.791 311.44896 
L 170.8095 311.048498 
L 165.828 310.281185 
L 160.8465 309.57155 
L 157.222271 308.388525 
L 155.865 307.647825 
L 150.8835 305.164929 
L 145.902 303.956308 
L 145.888442 303.953325 
L 140.9205 302.989714 
L 135.939 302.441766 
L 130.9575 302.689306 
L 125.976 303.90552 
L 125.851295 303.953325 
L 120.9945 306.348462 
L 116.700285 308.388525 
L 116.013 308.650417 
L 111.0315 310.793998 
L 106.05 312.121451 
L 101.0685 311.172495 
L 96.087 310.372173 
L 91.1055 310.248416 
L 86.149825 308.388525 
L 86.124 308.376299 
L 81.1425 304.026371 
L 81.027173 303.953325 
L 76.161 300.694854 
L 71.1795 300.676497 
L 66.198 301.395967 
L 61.2165 301.227852 
L 56.235 299.529778 
L 56.194982 299.518125 
L 51.2535 298.217684 
L 49.942546 299.518125 
L 47.013373 303.953325 
L 46.272 305.276958 
" clip-path="url(#pbb5cc87323)" style="fill: none; stroke: #2ca02c; stroke-width: 1.4"/>
    <path d="M 439.8105 362.945602 
L 437.799778 361.610925 
L 434.981203 357.175725 
L 434.829 356.632428 
L 432.906248 352.740525 
L 431.413989 348.305325 
L 429.8475 344.885399 
L 429.040972 343.870125 
L 424.866 339.909197 
L 424.250862 339.434925 
L 420.411675 334.999725 
L 419.8845 334.078951 
L 416.945003 330.564525 
L 414.903 329.054053 
L 409.9215 327.607428 
L 404.94 327.578554 
L 399.9585 327.319494 
L 394.977 326.377771 
L 393.460998 326.129325 
L 389.9955 325.619346 
L 385.014 325.388124 
L 380.0325 325.561876 
L 375.051 325.722421 
L 370.0695 325.67401 
L 365.088 325.69093 
L 360.1065 326.034858 
L 359.394744 326.129325 
L 355.125 326.666027 
L 350.1435 327.324281 
L 345.162 327.658966 
L 340.1805 327.727377 
L 335.199 327.770288 
L 330.2175 327.961397 
L 325.236 328.801631 
L 320.2545 329.903347 
L 315.273 330.274545 
L 310.2915 330.076016 
L 305.31 329.82602 
L 300.3285 329.958694 
L 296.528657 330.564525 
L 295.347 330.728299 
L 290.3655 331.579285 
L 285.384 332.082163 
L 280.4025 332.370743 
L 275.421 332.68304 
L 270.4395 333.100406 
L 265.458 333.737048 
L 260.4765 334.550372 
L 257.126507 334.999725 
L 255.495 335.149905 
L 250.5135 335.441601 
L 245.532 335.800241 
L 240.5505 336.296092 
L 235.569 336.905665 
L 230.5875 337.60452 
L 225.606 338.252912 
L 220.6245 338.8524 
L 215.691988 339.434925 
L 215.643 339.438607 
L 210.6615 339.664973 
L 205.68 339.774821 
L 200.6985 340.076103 
L 195.717 340.612351 
L 190.7355 340.787219 
L 185.754 339.88123 
L 183.805817 339.434925 
L 180.7725 338.421221 
L 175.791 338.206949 
L 170.8095 338.470467 
L 165.828 338.749845 
L 160.8465 339.306776 
L 156.649968 339.434925 
L 155.865 339.450885 
L 155.507087 339.434925 
L 150.8835 339.125276 
L 145.902 337.527967 
L 140.9205 335.536772 
L 135.939 335.04249 
L 130.9575 335.698373 
L 125.976 336.522408 
L 120.9945 337.134681 
L 116.013 337.608206 
L 111.0315 338.472842 
L 106.05 339.009567 
L 101.0685 338.237259 
L 96.087 337.672154 
L 91.1055 337.904079 
L 86.124 336.817116 
L 82.31205 334.999725 
L 81.1425 334.356972 
L 76.161 332.543084 
L 71.1795 332.829811 
L 66.198 334.306542 
L 62.889987 334.999725 
L 61.2165 335.302603 
L 56.235 335.025848 
L 56.004407 334.999725 
L 51.2535 334.28967 
L 50.26215 334.999725 
L 46.272 337.886115 
" clip-path="url(#pbb5cc87323)" style="fill: none; stroke: #2ca02c; stroke-width: 1.4"/>
    <path d="M 65.762304 374.916525 
L 66.198 374.771275 
L 71.1795 372.690913 
L 76.161 372.166619 
L 81.1425 374.187512 
L 82.524455 374.916525 
M 129.271805 374.916525 
L 130.9575 374.662809 
L 135.939 374.514387 
L 137.154817 374.916525 
M 192.120717 374.916525 
L 195.717 374.555115 
L 200.6985 374.262536 
L 205.68 374.118277 
L 225.606 373.952475 
L 250.5135 373.259042 
L 265.458 373.274254 
L 280.4025 372.93968 
L 290.3655 372.596341 
L 295.347 372.336338 
L 300.3285 372.250593 
L 310.2915 372.824417 
L 315.273 372.815683 
L 320.2545 372.57971 
L 325.236 372.458852 
L 335.199 372.867248 
L 340.1805 372.724168 
L 345.162 372.38551 
L 355.125 372.172782 
L 360.1065 372.120302 
L 365.088 372.209933 
L 375.051 372.635608 
L 380.0325 372.32177 
L 385.014 371.816352 
L 389.9955 372.089758 
L 399.9585 374.431408 
L 403.122189 374.916525 
M 439.8105 374.173765 
L 437.852029 370.481325 
L 434.829 368.765686 
L 429.8475 368.126996 
L 414.903 368.084251 
L 409.9215 367.800073 
L 404.94 367.167502 
L 399.9585 366.256917 
L 398.066405 366.046125 
L 394.977 365.571792 
L 389.9955 365.082494 
L 385.014 363.140173 
L 382.824245 361.610925 
L 375.051 358.439501 
L 372.345633 357.175725 
L 365.088 354.832315 
L 360.1065 353.405004 
L 355.125 352.340042 
L 350.1435 351.596095 
L 345.162 350.996372 
L 340.1805 350.532474 
L 335.199 349.881574 
L 330.2175 349.074149 
L 325.236 348.579752 
L 315.273 348.55366 
L 310.2915 348.134122 
L 305.31 347.380672 
L 300.3285 346.999352 
L 295.347 347.098826 
L 270.4395 348.285804 
L 265.458 348.242904 
L 255.495 347.790457 
L 250.5135 347.759896 
L 245.532 347.954655 
L 235.569 348.586297 
L 225.606 349.007702 
L 220.6245 349.102368 
L 210.6615 349.025368 
L 200.6985 349.283608 
L 195.717 349.598835 
L 190.7355 350.192089 
L 185.754 350.968918 
L 175.791 352.175196 
L 170.8095 352.52371 
L 160.8465 353.023896 
L 150.8835 352.975283 
L 145.902 352.253237 
L 140.9205 350.440631 
L 135.939 349.508337 
L 130.9575 349.842012 
L 125.976 350.608366 
L 120.9945 351.09538 
L 116.013 351.213878 
L 106.05 351.957297 
L 96.087 351.019328 
L 91.1055 351.087438 
L 86.124 350.494962 
L 81.1425 348.788241 
L 76.161 347.373321 
L 71.1795 347.888437 
L 66.198 349.473853 
L 61.2165 350.696155 
L 56.235 351.017931 
L 51.2535 352.105742 
L 50.767811 352.740525 
L 48.916181 357.175725 
L 48.418092 361.610925 
L 48.550098 366.046125 
L 49.384537 370.481325 
L 51.2535 373.158991 
L 53.739062 374.916525 
L 53.739062 374.916525 
" clip-path="url(#pbb5cc87323)" style="fill: none; stroke: #2ca02c; stroke-width: 1.4"/>
    <path d="M 86.124 370.515161 
L 91.1055 371.638615 
L 96.087 371.540647 
L 101.0685 372.10195 
L 106.05 372.591293 
L 111.0315 371.8489 
L 116.013 370.954876 
L 120.9945 370.551285 
L 121.562584 370.481325 
L 125.976 369.278274 
L 130.9575 367.509066 
L 135.939 366.077905 
L 140.9205 366.587001 
L 143.013672 370.481325 
L 145.902 372.01254 
L 150.8835 373.150271 
L 155.865 373.238221 
L 160.8465 373.27194 
L 165.828 372.905727 
L 170.8095 372.731882 
L 175.791 372.342751 
L 180.7725 371.859168 
L 185.754 371.828302 
L 190.7355 371.761192 
L 195.717 371.513855 
L 200.6985 371.232793 
L 205.68 371.023325 
L 210.6615 370.914631 
L 215.643 370.842242 
L 220.6245 370.750172 
L 225.606 370.56944 
L 227.25432 370.481325 
L 230.5875 370.217679 
L 235.569 369.836012 
L 240.5505 369.454469 
L 245.532 369.029253 
L 250.5135 368.712935 
L 255.495 368.55019 
L 260.4765 368.362444 
L 265.458 368.088434 
L 270.4395 367.773208 
L 275.421 367.33465 
L 280.4025 366.716119 
L 285.383047 366.046125 
L 285.384 366.045781 
L 290.3655 364.436256 
L 295.347 362.773757 
L 298.598289 361.610925 
L 295.347 359.244024 
L 291.393942 357.175725 
L 290.3655 357.028484 
L 285.384 356.520964 
L 280.4025 356.341975 
L 275.421 356.348777 
L 270.4395 356.303818 
L 265.458 356.095683 
L 260.4765 355.710425 
L 255.495 355.218773 
L 250.5135 354.777809 
L 245.532 354.59898 
L 240.5505 354.660923 
L 235.569 354.762271 
L 230.5875 354.838125 
L 225.606 354.848161 
L 220.6245 354.709829 
L 215.643 354.453598 
L 210.6615 354.225663 
L 205.68 354.124028 
L 200.6985 354.115609 
L 195.717 354.338363 
L 190.7355 355.181977 
L 185.754 356.837269 
L 184.7541 357.175725 
L 180.7725 359.095461 
L 175.791 360.700944 
L 170.8095 361.411843 
L 167.707247 361.610925 
L 165.828 361.773744 
L 160.8465 361.936794 
L 155.865 361.835911 
L 150.8835 362.110197 
L 145.902 363.009538 
L 140.9205 364.91419 
L 138.384426 361.610925 
L 135.939 360.558149 
L 130.9575 359.26098 
L 125.976 359.250674 
L 120.9945 359.328886 
L 116.013 359.263893 
L 111.0315 359.481984 
L 106.05 359.863823 
L 101.0685 359.928664 
L 96.087 359.850841 
L 91.1055 360.024149 
L 86.124 360.204476 
L 81.1425 360.551455 
L 76.904838 361.610925 
L 81.1425 363.220838 
L 82.418305 366.046125 
L 86.062426 370.481325 
L 86.124 370.515161 
z
M 61.2165 367.937582 
L 64.640957 366.046125 
L 61.2165 363.823632 
L 58.528567 366.046125 
L 61.2165 367.937582 
z
M 66.198 361.732117 
L 71.1795 361.688343 
L 72.919672 361.610925 
L 71.1795 361.429111 
L 66.198 361.594516 
L 66.134898 361.610925 
L 66.198 361.732117 
z
" clip-path="url(#pbb5cc87323)" style="fill: none; stroke: #2ca02c; stroke-width: 1.4"/>
   </g>
   <g id="patch_3">
    <path d="M 43.78125 377.134125 
L 43.78125 22.318125 
" style="fill: none; stroke: #000000; stroke-width: 0.8; stroke-linejoin: miter; stroke-linecap: square"/>
   </g>
   <g id="patch_4">
    <path d="M 442.30125 377.134125 
L 442.30125 22.318125 
" style="fill: none; stroke: #000000; stroke-width: 0.8; stroke-linejoin: miter; stroke-linecap: square"/>
   </g>
   <g id="patch_5">
    <path d="M 43.78125 377.134125 
L 442.30125 377.134125 
" style="fill: none; stroke: #000000; stroke-width: 0.8; stroke-linejoin: miter; stroke-linecap: square"/>
   </g>
   <g id="patch_6">
    <path d="M 43.78125 22.318125 
L 442.30125 22.318125 
" style="fill: none; stroke: #000000; stroke-width: 0.8; stroke-linejoin: miter; stroke-linecap: square"/>
   </g>
   <g id="text_15">
    <!-- Option 2: contour overlay by mark (Reg normalized vs M fraction) -->
    <g transform="translate(45.621563 16.318125) scale(0.12 -0.12)">
     <defs>
      <path id="DejaVuSans-4f" d="M 2522 4238 
Q 1834 4238 1429 3725 
Q 1025 3213 1025 2328 
Q 1025 1447 1429 934 
Q 1834 422 2522 422 
Q 3209 422 3611 934 
Q 4013 1447 4013 2328 
Q 4013 3213 3611 3725 
Q 3209 4238 2522 4238 
z
M 2522 4750 
Q 3503 4750 4090 4092 
Q 4678 3434 4678 2328 
Q 4678 1225 4090 567 
Q 3503 -91 2522 -91 
Q 1538 -91 948 565 
Q 359 1222 359 2328 
Q 359 3434 948 4092 
Q 1538 4750 2522 4750 
z
" transform="scale(0.015625)"/>
      <path id="DejaVuSans-70" d="M 1159 525 
L 1159 -1331 
L 581 -1331 
L 581 3500 
L 1159 3500 
L 1159 2969 
Q 1341 3281 1617 3432 
Q 1894 3584 2278 3584 
Q 2916 3584 3314 3078 
Q 3713 2572 3713 1747 
Q 3713 922 3314 415 
Q 2916 -91 2278 -91 
Q 1894 -91 1617 61 
Q 1341 213 1159 525 
z
M 3116 1747 
Q 3116 2381 2855 2742 
Q 2594 3103 2138 3103 
Q 1681 3103 1420 2742 
Q 1159 2381 1159 1747 
Q 1159 1113 1420 752 
Q 1681 391 2138 391 
Q 2594 391 2855 752 
Q 3116 1113 3116 1747 
z
" transform="scale(0.015625)"/>
      <path id="DejaVuSans-3a" d="M 750 794 
L 1409 794 
L 1409 0 
L 750 0 
L 750 794 
z
M 750 3309 
L 1409 3309 
L 1409 2516 
L 750 2516 
L 750 3309 
z
" transform="scale(0.015625)"/>
      <path id="DejaVuSans-75" d="M 544 1381 
L 544 3500 
L 1119 3500 
L 1119 1403 
Q 1119 906 1312 657 
Q 1506 409 1894 409 
Q 2359 409 2629 706 
Q 2900 1003 2900 1516 
L 2900 3500 
L 3475 3500 
L 3475 0 
L 2900 0 
L 2900 538 
Q 2691 219 2414 64 
Q 2138 -91 1772 -91 
Q 1169 -91 856 284 
Q 544 659 544 1381 
z
M 1991 3584 
L 1991 3584 
z
" transform="scale(0.015625)"/>
      <path id="DejaVuSans-76" d="M 191 3500 
L 800 3500 
L 1894 563 
L 2988 3500 
L 3597 3500 
L 2284 0 
L 1503 0 
L 191 3500 
z
" transform="scale(0.015625)"/>
      <path id="DejaVuSans-62" d="M 3116 1747 
Q 3116 2381 2855 2742 
Q 2594 3103 2138 3103 
Q 1681 3103 1420 2742 
Q 1159 2381 1159 1747 
Q 1159 1113 1420 752 
Q 1681 391 2138 391 
Q 2594 391 2855 752 
Q 3116 1113 3116 1747 
z
M 1159 2969 
Q 1341 3281 1617 3432 
Q 1894 3584 2278 3584 
Q 2916 3584 3314 3078 
Q 3713 2572 3713 1747 
Q 3713 922 3314 415 
Q 2916 -91 2278 -91 
Q 1894 -91 1617 61 
Q 1341 213 1159 525 
L 1159 0 
L 581 0 
L 581 4863 
L 1159 4863 
L 1159 2969 
z
" transform="scale(0.015625)"/>
      <path id="DejaVuSans-6b" d="M 581 4863 
L 1159 4863 
L 1159 1991 
L 2875 3500 
L 3609 3500 
L 1753 1863 
L 3688 0 
L 2938 0 
L 1159 1709 
L 1159 0 
L 581 0 
L 581 4863 
z
" transform="scale(0.015625)"/>
      <path id="DejaVuSans-28" d="M 1984 4856 
Q 1566 4138 1362 3434 
Q 1159 2731 1159 2009 
Q 1159 1288 1364 580 
Q 1569 -128 1984 -844 
L 1484 -844 
Q 1016 -109 783 600 
Q 550 1309 550 2009 
Q 550 2706 781 3412 
Q 1013 4119 1484 4856 
L 1984 4856 
z
" transform="scale(0.015625)"/>
      <path id="DejaVuSans-73" d="M 2834 3397 
L 2834 2853 
Q 2591 2978 2328 3040 
Q 2066 3103 1784 3103 
Q 1356 3103 1142 2972 
Q 928 2841 928 2578 
Q 928 2378 1081 2264 
Q 1234 2150 1697 2047 
L 1894 2003 
Q 2506 1872 2764 1633 
Q 3022 1394 3022 966 
Q 3022 478 2636 193 
Q 2250 -91 1575 -91 
Q 1294 -91 989 -36 
Q 684 19 347 128 
L 347 722 
Q 666 556 975 473 
Q 1284 391 1588 391 
Q 1994 391 2212 530 
Q 2431 669 2431 922 
Q 2431 1156 2273 1281 
Q 2116 1406 1581 1522 
L 1381 1569 
Q 847 1681 609 1914 
Q 372 2147 372 2553 
Q 372 3047 722 3315 
Q 1072 3584 1716 3584 
Q 2034 3584 2315 3537 
Q 2597 3491 2834 3397 
z
" transform="scale(0.015625)"/>
      <path id="DejaVuSans-29" d="M 513 4856 
L 1013 4856 
Q 1481 4119 1714 3412 
Q 1947 2706 1947 2009 
Q 1947 1309 1714 600 
Q 1481 -109 1013 -844 
L 513 -844 
Q 928 -128 1133 580 
Q 1338 1288 1338 2009 
Q 1338 2731 1133 3434 
Q 928 4138 513 4856 
z
" transform="scale(0.015625)"/>
     </defs>
     <use xlink:href="#DejaVuSans-4f"/>
     <use xlink:href="#DejaVuSans-70" transform="translate(78.710938 0)"/>
     <use xlink:href="#DejaVuSans-74" transform="translate(142.1875 0)"/>
     <use xlink:href="#DejaVuSans-69" transform="translate(181.396484 0)"/>
     <use xlink:href="#DejaVuSans-6f" transform="translate(209.179688 0)"/>
     <use xlink:href="#DejaVuSans-6e" transform="translate(270.361328 0)"/>
     <use xlink:href="#DejaVuSans-20" transform="translate(333.740234 0)"/>
     <use xlink:href="#DejaVuSans-32" transform="translate(365.527344 0)"/>
     <use xlink:href="#DejaVuSans-3a" transform="translate(429.150391 0)"/>
     <use xlink:href="#DejaVuSans-20" transform="translate(462.841797 0)"/>
     <use xlink:href="#DejaVuSans-63" transform="translate(494.628906 0)"/>
     <use xlink:href="#DejaVuSans-6f" transform="translate(549.609375 0)"/>
     <use xlink:href="#DejaVuSans-6e" transform="translate(610.791016 0)"/>
     <use xlink:href="#DejaVuSans-74" transform="translate(674.169922 0)"/>
     <use xlink:href="#DejaVuSans-6f" transform="translate(713.378906 0)"/>
     <use xlink:href="#DejaVuSans-75" transform="translate(774.560547 0)"/>
     <use xlink:href="#DejaVuSans-72" transform="translate(837.939453 0)"/>
     <use xlink:href="#DejaVuSans-20" transform="translate(879.052734 0)"/>
     <use xlink:href="#DejaVuSans-6f" transform="translate(910.839844 0)"/>
     <use xlink:href="#DejaVuSans-76" transform="translate(972.021484 0)"/>
     <use xlink:href="#DejaVuSans-65" transform="translate(1031.201172 0)"/>
     <use xlink:href="#DejaVuSans-72" transform="translate(1092.724609 0)"/>
     <use xlink:href="#DejaVuSans-6c" transform="translate(1133.837891 0)"/>
     <use xlink:href="#DejaVuSans-61" transform="translate(1161.621094 0)"/>
     <use xlink:href="#DejaVuSans-79" transform="translate(1222.900391 0)"/>
     <use xlink:href="#DejaVuSans-20" transform="translate(1282.080078 0)"/>
     <use xlink:href="#DejaVuSans-62" transform="translate(1313.867188 0)"/>
     <use xlink:href="#DejaVuSans-79" transform="translate(1377.34375 0)"/>
     <use xlink:href="#DejaVuSans-20" transform="translate(1436.523438 0)"/>
     <use xlink:href="#DejaVuSans-6d" transform="translate(1468.310547 0)"/>
     <use xlink:href="#DejaVuSans-61" transform="translate(1565.722656 0)"/>
     <use xlink:href="#DejaVuSans-72" transform="translate(1627.001953 0)"/>
     <use xlink:href="#DejaVuSans-6b" transform="translate(1668.115234 0)"/>
     <use xlink:href="#DejaVuSans-20" transform="translate(1726.025391 0)"/>
     <use xlink:href="#DejaVuSans-28" transform="translate(1757.8125 0)"/>
     <use xlink:href="#DejaVuSans-52" transform="translate(1796.826172 0)"/>
     <use xlink:href="#DejaVuSans-65" transform="translate(1861.808594 0)"/>
     <use xlink:href="#DejaVuSans-67" transform="translate(1923.332031 0)"/>
     <use xlink:href="#DejaVuSans-20" transform="translate(1986.808594 0)"/>
     <use xlink:href="#DejaVuSans-6e" transform="translate(2018.595703 0)"/>
     <use xlink:href="#DejaVuSans-6f" transform="translate(2081.974609 0)"/>
     <use xlink:href="#DejaVuSans-72" transform="translate(2143.15625 0)"/>
     <use xlink:href="#DejaVuSans-6d" transform="translate(2182.519531 0)"/>
     <use xlink:href="#DejaVuSans-61" transform="translate(2279.931641 0)"/>
     <use xlink:href="#DejaVuSans-6c" transform="translate(2341.210938 0)"/>
     <use xlink:href="#DejaVuSans-69" transform="translate(2368.994141 0)"/>
     <use xlink:href="#DejaVuSans-7a" transform="translate(2396.777344 0)"/>
     <use xlink:href="#DejaVuSans-65" transform="translate(2449.267578 0)"/>
     <use xlink:href="#DejaVuSans-64" transform="translate(2510.791016 0)"/>
     <use xlink:href="#DejaVuSans-20" transform="translate(2574.267578 0)"/>
     <use xlink:href="#DejaVuSans-76" transform="translate(2606.054688 0)"/>
     <use xlink:href="#DejaVuSans-73" transform="translate(2665.234375 0)"/>
     <use xlink:href="#DejaVuSans-20" transform="translate(2717.333984 0)"/>
     <use xlink:href="#DejaVuSans-4d" transform="translate(2749.121094 0)"/>
     <use xlink:href="#DejaVuSans-20" transform="translate(2835.400391 0)"/>
     <use xlink:href="#DejaVuSans-66" transform="translate(2867.1875 0)"/>
     <use xlink:href="#DejaVuSans-72" transform="translate(2902.392578 0)"/>
     <use xlink:href="#DejaVuSans-61" transform="translate(2943.505859 0)"/>
     <use xlink:href="#DejaVuSans-63" transform="translate(3004.785156 0)"/>
     <use xlink:href="#DejaVuSans-74" transform="translate(3059.765625 0)"/>
     <use xlink:href="#DejaVuSans-69" transform="translate(3098.974609 0)"/>
     <use xlink:href="#DejaVuSans-6f" transform="translate(3126.757812 0)"/>
     <use xlink:href="#DejaVuSans-6e" transform="translate(3187.939453 0)"/>
     <use xlink:href="#DejaVuSans-29" transform="translate(3251.318359 0)"/>
    </g>
   </g>
   <g id="legend_1">
    <g id="patch_7">
     <path d="M 452.27165 230.582375 
L 537.743525 230.582375 
Q 539.743525 230.582375 539.743525 228.582375 
L 539.743525 170.869875 
Q 539.743525 168.869875 537.743525 168.869875 
L 452.27165 168.869875 
Q 450.27165 168.869875 450.27165 170.869875 
L 450.27165 228.582375 
Q 450.27165 230.582375 452.27165 230.582375 
z
" style="fill: #ffffff; opacity: 0.8; stroke: #cccccc; stroke-linejoin: miter"/>
    </g>
    <g id="text_16">
     <!-- Mark -->
     <g transform="translate(482.678681 180.468313) scale(0.1 -0.1)">
      <use xlink:href="#DejaVuSans-4d"/>
      <use xlink:href="#DejaVuSans-61" transform="translate(86.279297 0)"/>
      <use xlink:href="#DejaVuSans-72" transform="translate(147.558594 0)"/>
      <use xlink:href="#DejaVuSans-6b" transform="translate(188.671875 0)"/>
     </g>
    </g>
    <g id="line2d_13">
     <path d="M 454.27165 191.646438 
L 464.27165 191.646438 
L 474.27165 191.646438 
" style="fill: none; stroke: #d62728; stroke-width: 2; stroke-linecap: square"/>
    </g>
    <g id="text_17">
     <!-- h3k27ac -->
     <g transform="translate(482.27165 195.146438) scale(0.1 -0.1)">
      <defs>
       <path id="DejaVuSans-33" d="M 2597 2516 
Q 3050 2419 3304 2112 
Q 3559 1806 3559 1356 
Q 3559 666 3084 287 
Q 2609 -91 1734 -91 
Q 1441 -91 1130 -33 
Q 819 25 488 141 
L 488 750 
Q 750 597 1062 519 
Q 1375 441 1716 441 
Q 2309 441 2620 675 
Q 2931 909 2931 1356 
Q 2931 1769 2642 2001 
Q 2353 2234 1838 2234 
L 1294 2234 
L 1294 2753 
L 1863 2753 
Q 2328 2753 2575 2939 
Q 2822 3125 2822 3475 
Q 2822 3834 2567 4026 
Q 2313 4219 1838 4219 
Q 1578 4219 1281 4162 
Q 984 4106 628 3988 
L 628 4550 
Q 988 4650 1302 4700 
Q 1616 4750 1894 4750 
Q 2613 4750 3031 4423 
Q 3450 4097 3450 3541 
Q 3450 3153 3228 2886 
Q 3006 2619 2597 2516 
z
" transform="scale(0.015625)"/>
       <path id="DejaVuSans-37" d="M 525 4666 
L 3525 4666 
L 3525 4397 
L 1831 0 
L 1172 0 
L 2766 4134 
L 525 4134 
L 525 4666 
z
" transform="scale(0.015625)"/>
      </defs>
      <use xlink:href="#DejaVuSans-68"/>
      <use xlink:href="#DejaVuSans-33" transform="translate(63.378906 0)"/>
      <use xlink:href="#DejaVuSans-6b" transform="translate(127.001953 0)"/>
      <use xlink:href="#DejaVuSans-32" transform="translate(184.912109 0)"/>
      <use xlink:href="#DejaVuSans-37" transform="translate(248.535156 0)"/>
      <use xlink:href="#DejaVuSans-61" transform="translate(312.158203 0)"/>
      <use xlink:href="#DejaVuSans-63" transform="translate(373.4375 0)"/>
     </g>
    </g>
    <g id="line2d_14">
     <path d="M 454.27165 206.324563 
L 464.27165 206.324563 
L 474.27165 206.324563 
" style="fill: none; stroke: #1f77b4; stroke-width: 2; stroke-linecap: square"/>
    </g>
    <g id="text_18">
     <!-- h3k27me3 -->
     <g transform="translate(482.27165 209.824563) scale(0.1 -0.1)">
      <use xlink:href="#DejaVuSans-68"/>
      <use xlink:href="#DejaVuSans-33" transform="translate(63.378906 0)"/>
      <use xlink:href="#DejaVuSans-6b" transform="translate(127.001953 0)"/>
      <use xlink:href="#DejaVuSans-32" transform="translate(184.912109 0)"/>
      <use xlink:href="#DejaVuSans-37" transform="translate(248.535156 0)"/>
      <use xlink:href="#DejaVuSans-6d" transform="translate(312.158203 0)"/>
      <use xlink:href="#DejaVuSans-65" transform="translate(409.570312 0)"/>
      <use xlink:href="#DejaVuSans-33" transform="translate(471.09375 0)"/>
     </g>
    </g>
    <g id="line2d_15">
     <path d="M 454.27165 221.002688 
L 464.27165 221.002688 
L 474.27165 221.002688 
" style="fill: none; stroke: #2ca02c; stroke-width: 2; stroke-linecap: square"/>
    </g>
    <g id="text_19">
     <!-- h3k4me3 -->
     <g transform="translate(482.27165 224.502688) scale(0.1 -0.1)">
      <use xlink:href="#DejaVuSans-68"/>
      <use xlink:href="#DejaVuSans-33" transform="translate(63.378906 0)"/>
      <use xlink:href="#DejaVuSans-6b" transform="translate(127.001953 0)"/>
      <use xlink:href="#DejaVuSans-34" transform="translate(184.912109 0)"/>
      <use xlink:href="#DejaVuSans-6d" transform="translate(248.535156 0)"/>
      <use xlink:href="#DejaVuSans-65" transform="translate(345.947266 0)"/>
      <use xlink:href="#DejaVuSans-33" transform="translate(407.470703 0)"/>
     </g>
    </g>
   </g>
  </g>
 </g>
 <defs>
  <clipPath id="pbb5cc87323">
   <rect x="43.78125" y="22.318125" width="398.52" height="354.816"/>
  </clipPath>
 </defs>
</svg>
