<?xml version="1.0" encoding="utf-8" standalone="no"?>
<!DOCTYPE svg PUBLIC "-//W3C//DTD SVG 1.1//EN"
  "http://www.w3.org/Graphics/SVG/1.1/DTD/svg11.dtd">
<svg xmlns:xlink="http://www.w3.org/1999/xlink" width="546.943525pt" height="414.690375pt" viewBox="0 0 546.943525 414.690375" xmlns="http://www.w3.org/2000/svg" version="1.1">
 <metadata>
  <rdf:RDF xmlns:dc="http://purl.org/dc/elements/1.1/" xmlns:cc="http://creativecommons.org/ns#" xmlns:rdf="http://www.w3.org/1999/02/22-rdf-syntax-ns#">
   <cc:Work>
    <dc:type rdf:resource="http://purl.org/dc/dcmitype/StillImage"/>
    <dc:date>2026-03-06T14:45:20.780198</dc:date>
    <dc:format>image/svg+xml</dc:format>
    <dc:creator>
     <cc:Agent>
      <dc:title>Matplotlib v3.10.8, https://matplotlib.org/</dc:title>
     </cc:Agent>
    </dc:creator>
   </cc:Work>
  </rdf:RDF>
 </metadata>
 <defs>
  <style type="text/css">*{stroke-linejoin: round; stroke-linecap: butt}</style>
 </defs>
 <g id="figure_1">
  <g id="patch_1">
   <path d="M 0 414.690375 
L 546.943525 414.690375 
L 546.943525 0 
L 0 0 
z
" style="fill: #ffffff"/>
  </g>
  <g id="axes_1">
   <g id="patch_2">
    <path d="M 43.78125 377.134125 
L 442.30125 377.134125 
L 442.30125 22.318125 
L 43.78125 22.318125 
z
" style="fill: #ffffff"/>
   </g>
   <g id="matplotlib.axis_1">
    <g id="xtick_1">
     <g id="line2d_1">
      <defs>
       <path id="m420ad2189e" d="M 0 0 
L 0 3.5 
" style="stroke: #000000; stroke-width: 0.8"/>
      </defs>
      <g>
       <use xlink:href="#m420ad2189e" x="43.78125" y="377.134125" style="stroke: #000000; stroke-width: 0.8"/>
      </g>
     </g>
     <g id="text_1">
      <!-- 0.0 -->
      <g transform="translate(35.829688 391.732563) scale(0.1 -0.1)">
       <defs>
        <path id="DejaVuSans-30" d="M 2034 4250 
Q 1547 4250 1301 3770 
Q 1056 3291 1056 2328 
Q 1056 1369 1301 889 
Q 1547 409 2034 409 
Q 2525 409 2770 889 
Q 3016 1369 3016 2328 
Q 3016 3291 2770 3770 
Q 2525 4250 2034 4250 
z
M 2034 4750 
Q 2819 4750 3233 4129 
Q 3647 3509 3647 2328 
Q 3647 1150 3233 529 
Q 2819 -91 2034 -91 
Q 1250 -91 836 529 
Q 422 1150 422 2328 
Q 422 3509 836 4129 
Q 1250 4750 2034 4750 
z
" transform="scale(0.015625)"/>
        <path id="DejaVuSans-2e" d="M 684 794 
L 1344 794 
L 1344 0 
L 684 0 
L 684 794 
z
" transform="scale(0.015625)"/>
       </defs>
       <use xlink:href="#DejaVuSans-30"/>
       <use xlink:href="#DejaVuSans-2e" transform="translate(63.623047 0)"/>
       <use xlink:href="#DejaVuSans-30" transform="translate(95.410156 0)"/>
      </g>
     </g>
    </g>
    <g id="xtick_2">
     <g id="line2d_2">
      <g>
       <use xlink:href="#m420ad2189e" x="123.48525" y="377.134125" style="stroke: #000000; stroke-width: 0.8"/>
      </g>
     </g>
     <g id="text_2">
      <!-- 0.2 -->
      <g transform="translate(115.533688 391.732563) scale(0.1 -0.1)">
       <defs>
        <path id="DejaVuSans-32" d="M 1228 531 
L 3431 531 
L 3431 0 
L 469 0 
L 469 531 
Q 828 903 1448 1529 
Q 2069 2156 2228 2338 
Q 2531 2678 2651 2914 
Q 2772 3150 2772 3378 
Q 2772 3750 2511 3984 
Q 2250 4219 1831 4219 
Q 1534 4219 1204 4116 
Q 875 4013 500 3803 
L 500 4441 
Q 881 4594 1212 4672 
Q 1544 4750 1819 4750 
Q 2544 4750 2975 4387 
Q 3406 4025 3406 3419 
Q 3406 3131 3298 2873 
Q 3191 2616 2906 2266 
Q 2828 2175 2409 1742 
Q 1991 1309 1228 531 
z
" transform="scale(0.015625)"/>
       </defs>
       <use xlink:href="#DejaVuSans-30"/>
       <use xlink:href="#DejaVuSans-2e" transform="translate(63.623047 0)"/>
       <use xlink:href="#DejaVuSans-32" transform="translate(95.410156 0)"/>
      </g>
     </g>
    </g>
    <g id="xtick_3">
     <g id="line2d_3">
      <g>
       <use xlink:href="#m420ad2189e" x="203.18925" y="377.134125" style="stroke: #000000; stroke-width: 0.8"/>
      </g>
     </g>
     <g id="text_3">
      <!-- 0.4 -->
      <g transform="translate(195.237688 391.732563) scale(0.1 -0.1)">
       <defs>
        <path id="DejaVuSans-34" d="M 2419 4116 
L 825 1625 
L 2419 1625 
L 2419 4116 
z
M 2253 4666 
L 3047 4666 
L 3047 1625 
L 3713 1625 
L 3713 1100 
L 3047 1100 
L 3047 0 
L 2419 0 
L 2419 1100 
L 313 1100 
L 313 1709 
L 2253 4666 
z
" transform="scale(0.015625)"/>
       </defs>
       <use xlink:href="#DejaVuSans-30"/>
       <use xlink:href="#DejaVuSans-2e" transform="translate(63.623047 0)"/>
       <use xlink:href="#DejaVuSans-34" transform="translate(95.410156 0)"/>
      </g>
     </g>
    </g>
    <g id="xtick_4">
     <g id="line2d_4">
      <g>
       <use xlink:href="#m420ad2189e" x="282.89325" y="377.134125" style="stroke: #000000; stroke-width: 0.8"/>
      </g>
     </g>
     <g id="text_4">
      <!-- 0.6 -->
      <g transform="translate(274.941688 391.732563) scale(0.1 -0.1)">
       <defs>
        <path id="DejaVuSans-36" d="M 2113 2584 
Q 1688 2584 1439 2293 
Q 1191 2003 1191 1497 
Q 1191 994 1439 701 
Q 1688 409 2113 409 
Q 2538 409 2786 701 
Q 3034 994 3034 1497 
Q 3034 2003 2786 2293 
Q 2538 2584 2113 2584 
z
M 3366 4563 
L 3366 3988 
Q 3128 4100 2886 4159 
Q 2644 4219 2406 4219 
Q 1781 4219 1451 3797 
Q 1122 3375 1075 2522 
Q 1259 2794 1537 2939 
Q 1816 3084 2150 3084 
Q 2853 3084 3261 2657 
Q 3669 2231 3669 1497 
Q 3669 778 3244 343 
Q 2819 -91 2113 -91 
Q 1303 -91 875 529 
Q 447 1150 447 2328 
Q 447 3434 972 4092 
Q 1497 4750 2381 4750 
Q 2619 4750 2861 4703 
Q 3103 4656 3366 4563 
z
" transform="scale(0.015625)"/>
       </defs>
       <use xlink:href="#DejaVuSans-30"/>
       <use xlink:href="#DejaVuSans-2e" transform="translate(63.623047 0)"/>
       <use xlink:href="#DejaVuSans-36" transform="translate(95.410156 0)"/>
      </g>
     </g>
    </g>
    <g id="xtick_5">
     <g id="line2d_5">
      <g>
       <use xlink:href="#m420ad2189e" x="362.59725" y="377.134125" style="stroke: #000000; stroke-width: 0.8"/>
      </g>
     </g>
     <g id="text_5">
      <!-- 0.8 -->
      <g transform="translate(354.645688 391.732563) scale(0.1 -0.1)">
       <defs>
        <path id="DejaVuSans-38" d="M 2034 2216 
Q 1584 2216 1326 1975 
Q 1069 1734 1069 1313 
Q 1069 891 1326 650 
Q 1584 409 2034 409 
Q 2484 409 2743 651 
Q 3003 894 3003 1313 
Q 3003 1734 2745 1975 
Q 2488 2216 2034 2216 
z
M 1403 2484 
Q 997 2584 770 2862 
Q 544 3141 544 3541 
Q 544 4100 942 4425 
Q 1341 4750 2034 4750 
Q 2731 4750 3128 4425 
Q 3525 4100 3525 3541 
Q 3525 3141 3298 2862 
Q 3072 2584 2669 2484 
Q 3125 2378 3379 2068 
Q 3634 1759 3634 1313 
Q 3634 634 3220 271 
Q 2806 -91 2034 -91 
Q 1263 -91 848 271 
Q 434 634 434 1313 
Q 434 1759 690 2068 
Q 947 2378 1403 2484 
z
M 1172 3481 
Q 1172 3119 1398 2916 
Q 1625 2713 2034 2713 
Q 2441 2713 2670 2916 
Q 2900 3119 2900 3481 
Q 2900 3844 2670 4047 
Q 2441 4250 2034 4250 
Q 1625 4250 1398 4047 
Q 1172 3844 1172 3481 
z
" transform="scale(0.015625)"/>
       </defs>
       <use xlink:href="#DejaVuSans-30"/>
       <use xlink:href="#DejaVuSans-2e" transform="translate(63.623047 0)"/>
       <use xlink:href="#DejaVuSans-38" transform="translate(95.410156 0)"/>
      </g>
     </g>
    </g>
    <g id="xtick_6">
     <g id="line2d_6">
      <g>
       <use xlink:href="#m420ad2189e" x="442.30125" y="377.134125" style="stroke: #000000; stroke-width: 0.8"/>
      </g>
     </g>
     <g id="text_6">
      <!-- 1.0 -->
      <g transform="translate(434.349687 391.732563) scale(0.1 -0.1)">
       <defs>
        <path id="DejaVuSans-31" d="M 794 531 
L 1825 531 
L 1825 4091 
L 703 3866 
L 703 4441 
L 1819 4666 
L 2450 4666 
L 2450 531 
L 3481 531 
L 3481 0 
L 794 0 
L 794 531 
z
" transform="scale(0.015625)"/>
       </defs>
       <use xlink:href="#DejaVuSans-31"/>
       <use xlink:href="#DejaVuSans-2e" transform="translate(63.623047 0)"/>
       <use xlink:href="#DejaVuSans-30" transform="translate(95.410156 0)"/>
      </g>
     </g>
    </g>
    <g id="text_7">
     <!-- Reg normalized [0,1] (peak-only) -->
     <g transform="translate(160.551406 405.410687) scale(0.1 -0.1)">
      <defs>
       <path id="DejaVuSans-52" d="M 2841 2188 
Q 3044 2119 3236 1894 
Q 3428 1669 3622 1275 
L 4263 0 
L 3584 0 
L 2988 1197 
Q 2756 1666 2539 1819 
Q 2322 1972 1947 1972 
L 1259 1972 
L 1259 0 
L 628 0 
L 628 4666 
L 2053 4666 
Q 2853 4666 3247 4331 
Q 3641 3997 3641 3322 
Q 3641 2881 3436 2590 
Q 3231 2300 2841 2188 
z
M 1259 4147 
L 1259 2491 
L 2053 2491 
Q 2509 2491 2742 2702 
Q 2975 2913 2975 3322 
Q 2975 3731 2742 3939 
Q 2509 4147 2053 4147 
L 1259 4147 
z
" transform="scale(0.015625)"/>
       <path id="DejaVuSans-65" d="M 3597 1894 
L 3597 1613 
L 953 1613 
Q 991 1019 1311 708 
Q 1631 397 2203 397 
Q 2534 397 2845 478 
Q 3156 559 3463 722 
L 3463 178 
Q 3153 47 2828 -22 
Q 2503 -91 2169 -91 
Q 1331 -91 842 396 
Q 353 884 353 1716 
Q 353 2575 817 3079 
Q 1281 3584 2069 3584 
Q 2775 3584 3186 3129 
Q 3597 2675 3597 1894 
z
M 3022 2063 
Q 3016 2534 2758 2815 
Q 2500 3097 2075 3097 
Q 1594 3097 1305 2825 
Q 1016 2553 972 2059 
L 3022 2063 
z
" transform="scale(0.015625)"/>
       <path id="DejaVuSans-67" d="M 2906 1791 
Q 2906 2416 2648 2759 
Q 2391 3103 1925 3103 
Q 1463 3103 1205 2759 
Q 947 2416 947 1791 
Q 947 1169 1205 825 
Q 1463 481 1925 481 
Q 2391 481 2648 825 
Q 2906 1169 2906 1791 
z
M 3481 434 
Q 3481 -459 3084 -895 
Q 2688 -1331 1869 -1331 
Q 1566 -1331 1297 -1286 
Q 1028 -1241 775 -1147 
L 775 -588 
Q 1028 -725 1275 -790 
Q 1522 -856 1778 -856 
Q 2344 -856 2625 -561 
Q 2906 -266 2906 331 
L 2906 616 
Q 2728 306 2450 153 
Q 2172 0 1784 0 
Q 1141 0 747 490 
Q 353 981 353 1791 
Q 353 2603 747 3093 
Q 1141 3584 1784 3584 
Q 2172 3584 2450 3431 
Q 2728 3278 2906 2969 
L 2906 3500 
L 3481 3500 
L 3481 434 
z
" transform="scale(0.015625)"/>
       <path id="DejaVuSans-20" transform="scale(0.015625)"/>
       <path id="DejaVuSans-6e" d="M 3513 2113 
L 3513 0 
L 2938 0 
L 2938 2094 
Q 2938 2591 2744 2837 
Q 2550 3084 2163 3084 
Q 1697 3084 1428 2787 
Q 1159 2491 1159 1978 
L 1159 0 
L 581 0 
L 581 3500 
L 1159 3500 
L 1159 2956 
Q 1366 3272 1645 3428 
Q 1925 3584 2291 3584 
Q 2894 3584 3203 3211 
Q 3513 2838 3513 2113 
z
" transform="scale(0.015625)"/>
       <path id="DejaVuSans-6f" d="M 1959 3097 
Q 1497 3097 1228 2736 
Q 959 2375 959 1747 
Q 959 1119 1226 758 
Q 1494 397 1959 397 
Q 2419 397 2687 759 
Q 2956 1122 2956 1747 
Q 2956 2369 2687 2733 
Q 2419 3097 1959 3097 
z
M 1959 3584 
Q 2709 3584 3137 3096 
Q 3566 2609 3566 1747 
Q 3566 888 3137 398 
Q 2709 -91 1959 -91 
Q 1206 -91 779 398 
Q 353 888 353 1747 
Q 353 2609 779 3096 
Q 1206 3584 1959 3584 
z
" transform="scale(0.015625)"/>
       <path id="DejaVuSans-72" d="M 2631 2963 
Q 2534 3019 2420 3045 
Q 2306 3072 2169 3072 
Q 1681 3072 1420 2755 
Q 1159 2438 1159 1844 
L 1159 0 
L 581 0 
L 581 3500 
L 1159 3500 
L 1159 2956 
Q 1341 3275 1631 3429 
Q 1922 3584 2338 3584 
Q 2397 3584 2469 3576 
Q 2541 3569 2628 3553 
L 2631 2963 
z
" transform="scale(0.015625)"/>
       <path id="DejaVuSans-6d" d="M 3328 2828 
Q 3544 3216 3844 3400 
Q 4144 3584 4550 3584 
Q 5097 3584 5394 3201 
Q 5691 2819 5691 2113 
L 5691 0 
L 5113 0 
L 5113 2094 
Q 5113 2597 4934 2840 
Q 4756 3084 4391 3084 
Q 3944 3084 3684 2787 
Q 3425 2491 3425 1978 
L 3425 0 
L 2847 0 
L 2847 2094 
Q 2847 2600 2669 2842 
Q 2491 3084 2119 3084 
Q 1678 3084 1418 2786 
Q 1159 2488 1159 1978 
L 1159 0 
L 581 0 
L 581 3500 
L 1159 3500 
L 1159 2956 
Q 1356 3278 1631 3431 
Q 1906 3584 2284 3584 
Q 2666 3584 2933 3390 
Q 3200 3197 3328 2828 
z
" transform="scale(0.015625)"/>
       <path id="DejaVuSans-61" d="M 2194 1759 
Q 1497 1759 1228 1600 
Q 959 1441 959 1056 
Q 959 750 1161 570 
Q 1363 391 1709 391 
Q 2188 391 2477 730 
Q 2766 1069 2766 1631 
L 2766 1759 
L 2194 1759 
z
M 3341 1997 
L 3341 0 
L 2766 0 
L 2766 531 
Q 2569 213 2275 61 
Q 1981 -91 1556 -91 
Q 1019 -91 701 211 
Q 384 513 384 1019 
Q 384 1609 779 1909 
Q 1175 2209 1959 2209 
L 2766 2209 
L 2766 2266 
Q 2766 2663 2505 2880 
Q 2244 3097 1772 3097 
Q 1472 3097 1187 3025 
Q 903 2953 641 2809 
L 641 3341 
Q 956 3463 1253 3523 
Q 1550 3584 1831 3584 
Q 2591 3584 2966 3190 
Q 3341 2797 3341 1997 
z
" transform="scale(0.015625)"/>
       <path id="DejaVuSans-6c" d="M 603 4863 
L 1178 4863 
L 1178 0 
L 603 0 
L 603 4863 
z
" transform="scale(0.015625)"/>
       <path id="DejaVuSans-69" d="M 603 3500 
L 1178 3500 
L 1178 0 
L 603 0 
L 603 3500 
z
M 603 4863 
L 1178 4863 
L 1178 4134 
L 603 4134 
L 603 4863 
z
" transform="scale(0.015625)"/>
       <path id="DejaVuSans-7a" d="M 353 3500 
L 3084 3500 
L 3084 2975 
L 922 459 
L 3084 459 
L 3084 0 
L 275 0 
L 275 525 
L 2438 3041 
L 353 3041 
L 353 3500 
z
" transform="scale(0.015625)"/>
       <path id="DejaVuSans-64" d="M 2906 2969 
L 2906 4863 
L 3481 4863 
L 3481 0 
L 2906 0 
L 2906 525 
Q 2725 213 2448 61 
Q 2172 -91 1784 -91 
Q 1150 -91 751 415 
Q 353 922 353 1747 
Q 353 2572 751 3078 
Q 1150 3584 1784 3584 
Q 2172 3584 2448 3432 
Q 2725 3281 2906 2969 
z
M 947 1747 
Q 947 1113 1208 752 
Q 1469 391 1925 391 
Q 2381 391 2643 752 
Q 2906 1113 2906 1747 
Q 2906 2381 2643 2742 
Q 2381 3103 1925 3103 
Q 1469 3103 1208 2742 
Q 947 2381 947 1747 
z
" transform="scale(0.015625)"/>
       <path id="DejaVuSans-5b" d="M 550 4863 
L 1875 4863 
L 1875 4416 
L 1125 4416 
L 1125 -397 
L 1875 -397 
L 1875 -844 
L 550 -844 
L 550 4863 
z
" transform="scale(0.015625)"/>
       <path id="DejaVuSans-2c" d="M 750 794 
L 1409 794 
L 1409 256 
L 897 -744 
L 494 -744 
L 750 256 
L 750 794 
z
" transform="scale(0.015625)"/>
       <path id="DejaVuSans-5d" d="M 1947 4863 
L 1947 -844 
L 622 -844 
L 622 -397 
L 1369 -397 
L 1369 4416 
L 622 4416 
L 622 4863 
L 1947 4863 
z
" transform="scale(0.015625)"/>
       <path id="DejaVuSans-28" d="M 1984 4856 
Q 1566 4138 1362 3434 
Q 1159 2731 1159 2009 
Q 1159 1288 1364 580 
Q 1569 -128 1984 -844 
L 1484 -844 
Q 1016 -109 783 600 
Q 550 1309 550 2009 
Q 550 2706 781 3412 
Q 1013 4119 1484 4856 
L 1984 4856 
z
" transform="scale(0.015625)"/>
       <path id="DejaVuSans-70" d="M 1159 525 
L 1159 -1331 
L 581 -1331 
L 581 3500 
L 1159 3500 
L 1159 2969 
Q 1341 3281 1617 3432 
Q 1894 3584 2278 3584 
Q 2916 3584 3314 3078 
Q 3713 2572 3713 1747 
Q 3713 922 3314 415 
Q 2916 -91 2278 -91 
Q 1894 -91 1617 61 
Q 1341 213 1159 525 
z
M 3116 1747 
Q 3116 2381 2855 2742 
Q 2594 3103 2138 3103 
Q 1681 3103 1420 2742 
Q 1159 2381 1159 1747 
Q 1159 1113 1420 752 
Q 1681 391 2138 391 
Q 2594 391 2855 752 
Q 3116 1113 3116 1747 
z
" transform="scale(0.015625)"/>
       <path id="DejaVuSans-6b" d="M 581 4863 
L 1159 4863 
L 1159 1991 
L 2875 3500 
L 3609 3500 
L 1753 1863 
L 3688 0 
L 2938 0 
L 1159 1709 
L 1159 0 
L 581 0 
L 581 4863 
z
" transform="scale(0.015625)"/>
       <path id="DejaVuSans-2d" d="M 313 2009 
L 1997 2009 
L 1997 1497 
L 313 1497 
L 313 2009 
z
" transform="scale(0.015625)"/>
       <path id="DejaVuSans-79" d="M 2059 -325 
Q 1816 -950 1584 -1140 
Q 1353 -1331 966 -1331 
L 506 -1331 
L 506 -850 
L 844 -850 
Q 1081 -850 1212 -737 
Q 1344 -625 1503 -206 
L 1606 56 
L 191 3500 
L 800 3500 
L 1894 763 
L 2988 3500 
L 3597 3500 
L 2059 -325 
z
" transform="scale(0.015625)"/>
       <path id="DejaVuSans-29" d="M 513 4856 
L 1013 4856 
Q 1481 4119 1714 3412 
Q 1947 2706 1947 2009 
Q 1947 1309 1714 600 
Q 1481 -109 1013 -844 
L 513 -844 
Q 928 -128 1133 580 
Q 1338 1288 1338 2009 
Q 1338 2731 1133 3434 
Q 928 4138 513 4856 
z
" transform="scale(0.015625)"/>
      </defs>
      <use xlink:href="#DejaVuSans-52"/>
      <use xlink:href="#DejaVuSans-65" transform="translate(64.982422 0)"/>
      <use xlink:href="#DejaVuSans-67" transform="translate(126.505859 0)"/>
      <use xlink:href="#DejaVuSans-20" transform="translate(189.982422 0)"/>
      <use xlink:href="#DejaVuSans-6e" transform="translate(221.769531 0)"/>
      <use xlink:href="#DejaVuSans-6f" transform="translate(285.148438 0)"/>
      <use xlink:href="#DejaVuSans-72" transform="translate(346.330078 0)"/>
      <use xlink:href="#DejaVuSans-6d" transform="translate(385.693359 0)"/>
      <use xlink:href="#DejaVuSans-61" transform="translate(483.105469 0)"/>
      <use xlink:href="#DejaVuSans-6c" transform="translate(544.384766 0)"/>
      <use xlink:href="#DejaVuSans-69" transform="translate(572.167969 0)"/>
      <use xlink:href="#DejaVuSans-7a" transform="translate(599.951172 0)"/>
      <use xlink:href="#DejaVuSans-65" transform="translate(652.441406 0)"/>
      <use xlink:href="#DejaVuSans-64" transform="translate(713.964844 0)"/>
      <use xlink:href="#DejaVuSans-20" transform="translate(777.441406 0)"/>
      <use xlink:href="#DejaVuSans-5b" transform="translate(809.228516 0)"/>
      <use xlink:href="#DejaVuSans-30" transform="translate(848.242188 0)"/>
      <use xlink:href="#DejaVuSans-2c" transform="translate(911.865234 0)"/>
      <use xlink:href="#DejaVuSans-31" transform="translate(943.652344 0)"/>
      <use xlink:href="#DejaVuSans-5d" transform="translate(1007.275391 0)"/>
      <use xlink:href="#DejaVuSans-20" transform="translate(1046.289062 0)"/>
      <use xlink:href="#DejaVuSans-28" transform="translate(1078.076172 0)"/>
      <use xlink:href="#DejaVuSans-70" transform="translate(1117.089844 0)"/>
      <use xlink:href="#DejaVuSans-65" transform="translate(1180.566406 0)"/>
      <use xlink:href="#DejaVuSans-61" transform="translate(1242.089844 0)"/>
      <use xlink:href="#DejaVuSans-6b" transform="translate(1303.369141 0)"/>
      <use xlink:href="#DejaVuSans-2d" transform="translate(1361.279297 0)"/>
      <use xlink:href="#DejaVuSans-6f" transform="translate(1399.238281 0)"/>
      <use xlink:href="#DejaVuSans-6e" transform="translate(1460.419922 0)"/>
      <use xlink:href="#DejaVuSans-6c" transform="translate(1523.798828 0)"/>
      <use xlink:href="#DejaVuSans-79" transform="translate(1551.582031 0)"/>
      <use xlink:href="#DejaVuSans-29" transform="translate(1610.761719 0)"/>
     </g>
    </g>
   </g>
   <g id="matplotlib.axis_2">
    <g id="ytick_1">
     <g id="line2d_7">
      <defs>
       <path id="mc9db71ff6b" d="M 0 0 
L -3.5 0 
" style="stroke: #000000; stroke-width: 0.8"/>
      </defs>
      <g>
       <use xlink:href="#mc9db71ff6b" x="43.78125" y="347.566125" style="stroke: #000000; stroke-width: 0.8"/>
      </g>
     </g>
     <g id="text_8">
      <!-- 0.0 -->
      <g transform="translate(20.878125 351.365344) scale(0.1 -0.1)">
       <use xlink:href="#DejaVuSans-30"/>
       <use xlink:href="#DejaVuSans-2e" transform="translate(63.623047 0)"/>
       <use xlink:href="#DejaVuSans-30" transform="translate(95.410156 0)"/>
      </g>
     </g>
    </g>
    <g id="ytick_2">
     <g id="line2d_8">
      <g>
       <use xlink:href="#mc9db71ff6b" x="43.78125" y="288.430125" style="stroke: #000000; stroke-width: 0.8"/>
      </g>
     </g>
     <g id="text_9">
      <!-- 0.2 -->
      <g transform="translate(20.878125 292.229344) scale(0.1 -0.1)">
       <use xlink:href="#DejaVuSans-30"/>
       <use xlink:href="#DejaVuSans-2e" transform="translate(63.623047 0)"/>
       <use xlink:href="#DejaVuSans-32" transform="translate(95.410156 0)"/>
      </g>
     </g>
    </g>
    <g id="ytick_3">
     <g id="line2d_9">
      <g>
       <use xlink:href="#mc9db71ff6b" x="43.78125" y="229.294125" style="stroke: #000000; stroke-width: 0.8"/>
      </g>
     </g>
     <g id="text_10">
      <!-- 0.4 -->
      <g transform="translate(20.878125 233.093344) scale(0.1 -0.1)">
       <use xlink:href="#DejaVuSans-30"/>
       <use xlink:href="#DejaVuSans-2e" transform="translate(63.623047 0)"/>
       <use xlink:href="#DejaVuSans-34" transform="translate(95.410156 0)"/>
      </g>
     </g>
    </g>
    <g id="ytick_4">
     <g id="line2d_10">
      <g>
       <use xlink:href="#mc9db71ff6b" x="43.78125" y="170.158125" style="stroke: #000000; stroke-width: 0.8"/>
      </g>
     </g>
     <g id="text_11">
      <!-- 0.6 -->
      <g transform="translate(20.878125 173.957344) scale(0.1 -0.1)">
       <use xlink:href="#DejaVuSans-30"/>
       <use xlink:href="#DejaVuSans-2e" transform="translate(63.623047 0)"/>
       <use xlink:href="#DejaVuSans-36" transform="translate(95.410156 0)"/>
      </g>
     </g>
    </g>
    <g id="ytick_5">
     <g id="line2d_11">
      <g>
       <use xlink:href="#mc9db71ff6b" x="43.78125" y="111.022125" style="stroke: #000000; stroke-width: 0.8"/>
      </g>
     </g>
     <g id="text_12">
      <!-- 0.8 -->
      <g transform="translate(20.878125 114.821344) scale(0.1 -0.1)">
       <use xlink:href="#DejaVuSans-30"/>
       <use xlink:href="#DejaVuSans-2e" transform="translate(63.623047 0)"/>
       <use xlink:href="#DejaVuSans-38" transform="translate(95.410156 0)"/>
      </g>
     </g>
    </g>
    <g id="ytick_6">
     <g id="line2d_12">
      <g>
       <use xlink:href="#mc9db71ff6b" x="43.78125" y="51.886125" style="stroke: #000000; stroke-width: 0.8"/>
      </g>
     </g>
     <g id="text_13">
      <!-- 1.0 -->
      <g transform="translate(20.878125 55.685344) scale(0.1 -0.1)">
       <use xlink:href="#DejaVuSans-31"/>
       <use xlink:href="#DejaVuSans-2e" transform="translate(63.623047 0)"/>
       <use xlink:href="#DejaVuSans-30" transform="translate(95.410156 0)"/>
      </g>
     </g>
    </g>
    <g id="text_14">
     <!-- M binary (0/1, jittered for contour) -->
     <g transform="translate(14.798437 285.398781) rotate(-90) scale(0.1 -0.1)">
      <defs>
       <path id="DejaVuSans-4d" d="M 628 4666 
L 1569 4666 
L 2759 1491 
L 3956 4666 
L 4897 4666 
L 4897 0 
L 4281 0 
L 4281 4097 
L 3078 897 
L 2444 897 
L 1241 4097 
L 1241 0 
L 628 0 
L 628 4666 
z
" transform="scale(0.015625)"/>
       <path id="DejaVuSans-62" d="M 3116 1747 
Q 3116 2381 2855 2742 
Q 2594 3103 2138 3103 
Q 1681 3103 1420 2742 
Q 1159 2381 1159 1747 
Q 1159 1113 1420 752 
Q 1681 391 2138 391 
Q 2594 391 2855 752 
Q 3116 1113 3116 1747 
z
M 1159 2969 
Q 1341 3281 1617 3432 
Q 1894 3584 2278 3584 
Q 2916 3584 3314 3078 
Q 3713 2572 3713 1747 
Q 3713 922 3314 415 
Q 2916 -91 2278 -91 
Q 1894 -91 1617 61 
Q 1341 213 1159 525 
L 1159 0 
L 581 0 
L 581 4863 
L 1159 4863 
L 1159 2969 
z
" transform="scale(0.015625)"/>
       <path id="DejaVuSans-2f" d="M 1625 4666 
L 2156 4666 
L 531 -594 
L 0 -594 
L 1625 4666 
z
" transform="scale(0.015625)"/>
       <path id="DejaVuSans-6a" d="M 603 3500 
L 1178 3500 
L 1178 -63 
Q 1178 -731 923 -1031 
Q 669 -1331 103 -1331 
L -116 -1331 
L -116 -844 
L 38 -844 
Q 366 -844 484 -692 
Q 603 -541 603 -63 
L 603 3500 
z
M 603 4863 
L 1178 4863 
L 1178 4134 
L 603 4134 
L 603 4863 
z
" transform="scale(0.015625)"/>
       <path id="DejaVuSans-74" d="M 1172 4494 
L 1172 3500 
L 2356 3500 
L 2356 3053 
L 1172 3053 
L 1172 1153 
Q 1172 725 1289 603 
Q 1406 481 1766 481 
L 2356 481 
L 2356 0 
L 1766 0 
Q 1100 0 847 248 
Q 594 497 594 1153 
L 594 3053 
L 172 3053 
L 172 3500 
L 594 3500 
L 594 4494 
L 1172 4494 
z
" transform="scale(0.015625)"/>
       <path id="DejaVuSans-66" d="M 2375 4863 
L 2375 4384 
L 1825 4384 
Q 1516 4384 1395 4259 
Q 1275 4134 1275 3809 
L 1275 3500 
L 2222 3500 
L 2222 3053 
L 1275 3053 
L 1275 0 
L 697 0 
L 697 3053 
L 147 3053 
L 147 3500 
L 697 3500 
L 697 3744 
Q 697 4328 969 4595 
Q 1241 4863 1831 4863 
L 2375 4863 
z
" transform="scale(0.015625)"/>
       <path id="DejaVuSans-63" d="M 3122 3366 
L 3122 2828 
Q 2878 2963 2633 3030 
Q 2388 3097 2138 3097 
Q 1578 3097 1268 2742 
Q 959 2388 959 1747 
Q 959 1106 1268 751 
Q 1578 397 2138 397 
Q 2388 397 2633 464 
Q 2878 531 3122 666 
L 3122 134 
Q 2881 22 2623 -34 
Q 2366 -91 2075 -91 
Q 1284 -91 818 406 
Q 353 903 353 1747 
Q 353 2603 823 3093 
Q 1294 3584 2113 3584 
Q 2378 3584 2631 3529 
Q 2884 3475 3122 3366 
z
" transform="scale(0.015625)"/>
       <path id="DejaVuSans-75" d="M 544 1381 
L 544 3500 
L 1119 3500 
L 1119 1403 
Q 1119 906 1312 657 
Q 1506 409 1894 409 
Q 2359 409 2629 706 
Q 2900 1003 2900 1516 
L 2900 3500 
L 3475 3500 
L 3475 0 
L 2900 0 
L 2900 538 
Q 2691 219 2414 64 
Q 2138 -91 1772 -91 
Q 1169 -91 856 284 
Q 544 659 544 1381 
z
M 1991 3584 
L 1991 3584 
z
" transform="scale(0.015625)"/>
      </defs>
      <use xlink:href="#DejaVuSans-4d"/>
      <use xlink:href="#DejaVuSans-20" transform="translate(86.279297 0)"/>
      <use xlink:href="#DejaVuSans-62" transform="translate(118.066406 0)"/>
      <use xlink:href="#DejaVuSans-69" transform="translate(181.542969 0)"/>
      <use xlink:href="#DejaVuSans-6e" transform="translate(209.326172 0)"/>
      <use xlink:href="#DejaVuSans-61" transform="translate(272.705078 0)"/>
      <use xlink:href="#DejaVuSans-72" transform="translate(333.984375 0)"/>
      <use xlink:href="#DejaVuSans-79" transform="translate(375.097656 0)"/>
      <use xlink:href="#DejaVuSans-20" transform="translate(434.277344 0)"/>
      <use xlink:href="#DejaVuSans-28" transform="translate(466.064453 0)"/>
      <use xlink:href="#DejaVuSans-30" transform="translate(505.078125 0)"/>
      <use xlink:href="#DejaVuSans-2f" transform="translate(568.701172 0)"/>
      <use xlink:href="#DejaVuSans-31" transform="translate(602.392578 0)"/>
      <use xlink:href="#DejaVuSans-2c" transform="translate(666.015625 0)"/>
      <use xlink:href="#DejaVuSans-20" transform="translate(697.802734 0)"/>
      <use xlink:href="#DejaVuSans-6a" transform="translate(729.589844 0)"/>
      <use xlink:href="#DejaVuSans-69" transform="translate(757.373047 0)"/>
      <use xlink:href="#DejaVuSans-74" transform="translate(785.15625 0)"/>
      <use xlink:href="#DejaVuSans-74" transform="translate(824.365234 0)"/>
      <use xlink:href="#DejaVuSans-65" transform="translate(863.574219 0)"/>
      <use xlink:href="#DejaVuSans-72" transform="translate(925.097656 0)"/>
      <use xlink:href="#DejaVuSans-65" transform="translate(963.960938 0)"/>
      <use xlink:href="#DejaVuSans-64" transform="translate(1025.484375 0)"/>
      <use xlink:href="#DejaVuSans-20" transform="translate(1088.960938 0)"/>
      <use xlink:href="#DejaVuSans-66" transform="translate(1120.748047 0)"/>
      <use xlink:href="#DejaVuSans-6f" transform="translate(1155.953125 0)"/>
      <use xlink:href="#DejaVuSans-72" transform="translate(1217.134766 0)"/>
      <use xlink:href="#DejaVuSans-20" transform="translate(1258.248047 0)"/>
      <use xlink:href="#DejaVuSans-63" transform="translate(1290.035156 0)"/>
      <use xlink:href="#DejaVuSans-6f" transform="translate(1345.015625 0)"/>
      <use xlink:href="#DejaVuSans-6e" transform="translate(1406.197266 0)"/>
      <use xlink:href="#DejaVuSans-74" transform="translate(1469.576172 0)"/>
      <use xlink:href="#DejaVuSans-6f" transform="translate(1508.785156 0)"/>
      <use xlink:href="#DejaVuSans-75" transform="translate(1569.966797 0)"/>
      <use xlink:href="#DejaVuSans-72" transform="translate(1633.345703 0)"/>
      <use xlink:href="#DejaVuSans-29" transform="translate(1674.458984 0)"/>
     </g>
    </g>
   </g>
   <g id="QuadContourSet_1">
    <path d="M 46.272 77.643292 
L 46.500231 77.758125 
L 51.2535 80.426311 
L 56.235 80.704625 
L 61.2165 81.182619 
L 66.198 82.160542 
L 67.006747 82.193325 
L 71.1795 82.441503 
L 74.078552 82.193325 
L 76.161 82.077324 
L 81.1425 81.596085 
L 86.124 80.923553 
L 91.1055 80.585216 
L 96.087 81.202864 
L 101.0685 81.943704 
L 105.891095 82.193325 
L 106.05 82.206623 
L 106.303879 82.193325 
L 111.0315 82.047727 
L 116.013 81.6896 
L 120.9945 81.867027 
L 122.33273 82.193325 
L 125.976 83.622159 
L 130.9575 85.255015 
L 135.939 85.158535 
L 140.9205 84.218495 
L 145.902 83.247954 
L 149.965417 82.193325 
L 150.8835 82.006688 
L 155.865 81.374976 
L 160.8465 81.23559 
L 165.828 80.235858 
L 170.8095 79.091264 
L 175.791 79.441379 
L 180.7725 80.495182 
L 185.754 81.587362 
L 189.941392 82.193325 
L 190.7355 82.358635 
L 195.717 83.629066 
L 200.6985 86.626311 
L 200.701825 86.628525 
L 205.68 90.129395 
L 208.791265 91.063725 
L 210.6615 92.020409 
L 215.643 92.82892 
L 220.6245 92.663207 
L 225.606 92.718819 
L 230.5875 93.101983 
L 235.569 92.951522 
L 240.5505 91.856016 
L 243.665832 91.063725 
L 245.532 90.823922 
L 250.5135 90.599803 
L 255.495 90.578085 
L 260.4765 90.636149 
L 265.458 90.888796 
L 268.063056 91.063725 
L 270.4395 91.343057 
L 275.421 91.446437 
L 279.472397 91.063725 
L 280.4025 91.005509 
L 285.384 90.551636 
L 290.3655 90.422607 
L 295.347 90.580943 
L 300.3285 90.606653 
L 305.31 90.49953 
L 310.2915 90.401516 
L 315.273 90.243097 
L 320.2545 90.026233 
L 325.236 89.714069 
L 330.2175 89.303102 
L 335.199 89.381029 
L 340.1805 89.788731 
L 345.162 89.84501 
L 350.1435 89.800538 
L 355.125 89.904638 
L 360.1065 89.988772 
L 365.088 89.997049 
L 370.0695 89.820438 
L 375.051 89.221049 
L 380.0325 88.520539 
L 385.014 88.529385 
L 389.9955 89.025856 
L 394.977 89.077328 
L 399.9585 88.52773 
L 404.94 87.887406 
L 409.9215 87.745858 
L 414.903 87.900502 
L 419.8845 87.692394 
L 424.866 87.027722 
L 427.550251 86.628525 
L 429.8475 86.374927 
L 434.829 84.956502 
L 438.07364 82.193325 
L 439.8105 80.729383 
" clip-path="url(#pfd3ec66bbf)" style="fill: none; stroke: #d62728; stroke-width: 1.4"/>
    <path d="M 46.272 57.418664 
L 47.480007 60.017325 
L 51.2535 64.475407 
L 56.235 64.07206 
L 61.2165 62.521464 
L 66.850973 64.452525 
L 71.1795 65.522602 
L 76.161 65.698233 
L 81.1425 64.742802 
L 81.835511 64.452525 
L 86.124 62.28405 
L 90.201204 60.017325 
L 91.1055 58.94164 
L 93.341679 60.017325 
L 96.087 60.910562 
L 99.990519 64.452525 
L 101.0685 65.081107 
L 106.05 65.578955 
L 111.0315 64.086441 
L 116.013 62.966574 
L 120.9945 63.870564 
L 122.212995 64.452525 
L 125.976 65.72818 
L 130.9575 66.790026 
L 135.939 66.967264 
L 140.9205 66.660352 
L 145.902 65.406667 
L 150.8835 63.338217 
L 155.865 63.062498 
L 160.8465 64.413317 
L 165.828 64.066684 
L 170.8095 62.323758 
L 175.791 61.542059 
L 180.7725 62.275536 
L 185.754 63.382727 
L 190.7355 63.93 
L 191.849818 64.452525 
L 195.717 65.944498 
L 197.935376 68.887725 
L 200.6985 71.897628 
L 201.653631 73.322925 
L 205.68 77.819253 
L 210.6615 80.444582 
L 215.643 80.806947 
L 235.569 79.794339 
L 240.5505 79.864205 
L 245.532 80.20386 
L 250.5135 80.308321 
L 260.4765 79.621472 
L 265.458 79.524299 
L 270.4395 79.312547 
L 280.4025 78.346778 
L 285.384 78.167835 
L 290.3655 78.509019 
L 295.347 79.106305 
L 300.3285 79.481254 
L 305.31 79.41757 
L 315.273 78.680847 
L 320.2545 78.446256 
L 328.244424 77.758125 
L 330.2175 77.639732 
L 335.199 77.607577 
L 340.1805 77.403781 
L 350.1435 76.306807 
L 355.125 76.423706 
L 360.1065 76.785399 
L 365.088 76.798734 
L 370.0695 76.549615 
L 380.0325 76.469443 
L 385.014 76.19399 
L 394.977 75.337854 
L 399.9585 75.206954 
L 404.94 75.297113 
L 409.9215 75.258975 
L 414.903 74.848948 
L 419.8845 73.785112 
L 421.321508 73.322925 
L 424.866 71.99353 
L 429.8475 69.662492 
L 430.967554 68.887725 
L 434.829 65.955667 
L 435.916843 64.452525 
L 438.288396 60.017325 
L 439.650565 55.582125 
L 439.8105 54.603628 
M 439.8105 44.768479 
L 439.047262 42.276525 
L 435.872141 37.841325 
L 434.829 36.834598 
L 429.372801 33.406125 
L 424.866 30.711387 
L 419.822361 28.970925 
L 414.903 28.199468 
L 404.94 26.931177 
L 399.9585 26.173996 
L 394.977 25.774307 
L 385.014 25.95599 
L 380.0325 25.479438 
L 373.975388 24.535725 
M 206.29234 24.535725 
L 205.68 24.888131 
L 201.512711 28.970925 
L 200.6985 30.155165 
L 197.8096 33.406125 
L 195.717 36.673315 
L 193.633126 37.841325 
L 190.7355 39.664485 
L 185.754 40.50816 
L 180.7725 41.057714 
L 175.791 41.734996 
L 170.738372 42.276525 
L 165.828 41.309534 
L 160.8465 40.579842 
L 155.865 40.466833 
L 150.343181 37.841325 
L 145.902 35.626346 
L 140.9205 35.298715 
L 135.939 36.686309 
L 130.9575 38.263303 
L 125.976 39.164198 
L 120.9945 38.821232 
L 116.013 38.000786 
L 111.0315 38.092821 
L 106.05 38.666661 
L 101.0685 39.853016 
L 96.087 42.566923 
L 91.1055 42.882483 
L 90.385382 42.276525 
L 86.124 40.432024 
L 81.1425 39.133765 
L 76.161 39.332854 
L 71.1795 41.005496 
L 68.540975 42.276525 
L 66.198 43.765 
L 61.2165 44.456221 
L 58.529675 42.276525 
L 56.235 40.868928 
L 51.2535 39.530066 
L 48.925742 42.276525 
L 46.272 46.285297 
M 357.340755 24.535725 
L 355.125 24.685937 
L 350.1435 24.886664 
L 340.1805 24.551614 
L 335.199 25.198813 
L 330.2175 26.010759 
L 325.236 26.113142 
L 315.273 24.926192 
L 310.2915 24.819989 
L 305.31 24.901682 
L 300.3285 25.151787 
L 295.347 25.286752 
L 285.384 24.851607 
L 280.29184 24.535725 
L 280.29184 24.535725 
" clip-path="url(#pfd3ec66bbf)" style="fill: none; stroke: #d62728; stroke-width: 1.4"/>
    <path d="M 210.6615 73.933847 
L 215.643 74.927612 
L 220.6245 74.690929 
L 225.606 74.061736 
L 229.8891 73.322925 
L 230.5875 73.204314 
L 235.569 72.631177 
L 240.5505 72.597465 
L 245.532 73.10868 
L 248.212082 73.322925 
L 250.5135 73.519595 
L 254.985071 73.322925 
L 255.495 73.303335 
L 260.4765 72.949345 
L 265.458 72.643698 
L 270.4395 72.126253 
L 275.421 71.518925 
L 280.4025 71.177251 
L 285.384 71.115354 
L 290.3655 71.140409 
L 295.347 71.400379 
L 300.3285 71.975445 
L 305.31 72.282529 
L 310.2915 72.054773 
L 315.273 71.804378 
L 320.2545 71.594898 
L 325.236 71.114243 
L 330.2175 70.790617 
L 335.199 70.732148 
L 340.1805 70.347365 
L 345.162 69.58138 
L 350.1435 69.015139 
L 355.125 69.161208 
L 360.1065 69.592973 
L 365.088 69.416718 
L 369.500514 68.887725 
L 370.0695 68.81841 
L 375.051 68.832298 
L 376.022279 68.887725 
L 380.0325 69.120926 
L 383.309513 68.887725 
L 385.014 68.767989 
L 389.9955 67.999776 
L 394.977 67.498197 
L 399.9585 67.459621 
L 404.94 67.333771 
L 409.9215 66.505001 
L 414.903 64.809061 
L 415.722672 64.452525 
L 419.8845 62.678685 
L 424.866 60.529039 
L 425.821532 60.017325 
L 429.8475 57.044022 
L 430.940876 55.582125 
L 431.91217 51.146925 
L 430.037363 46.711725 
L 429.8475 46.506251 
L 424.866 43.075313 
L 423.085495 42.276525 
L 419.8845 40.924033 
L 414.903 39.52235 
L 409.9215 38.137534 
L 409.062469 37.841325 
L 404.94 36.548302 
L 399.9585 35.336225 
L 394.977 34.806821 
L 389.9955 34.670573 
L 385.014 34.339589 
L 380.0325 33.606711 
L 378.932125 33.406125 
L 375.051 32.601413 
L 370.0695 32.019275 
L 365.088 32.328867 
L 360.1065 33.095393 
L 355.877695 33.406125 
L 355.125 33.451429 
L 350.755597 33.406125 
L 350.1435 33.398666 
L 345.162 33.115965 
L 340.1805 32.567002 
L 335.199 32.361019 
L 330.2175 32.688714 
L 325.236 32.965122 
L 320.2545 32.886553 
L 315.273 32.480354 
L 310.2915 31.985249 
L 305.31 31.882341 
L 300.3285 32.235785 
L 295.347 32.310328 
L 290.3655 31.923868 
L 285.384 31.626966 
L 280.4025 31.409717 
L 275.421 30.970367 
L 270.4395 30.47856 
L 265.458 30.286676 
L 260.4765 30.4505 
L 255.495 30.570041 
L 250.5135 30.202766 
L 245.532 29.620845 
L 240.5505 29.125616 
L 238.576506 28.970925 
L 235.569 28.738249 
L 230.5875 28.519327 
L 225.606 28.179423 
L 220.6245 27.489873 
L 215.643 27.031546 
L 210.6615 27.963466 
L 209.126293 28.970925 
L 205.68 31.758819 
L 204.350076 33.406125 
L 201.517839 37.841325 
L 200.6985 39.615541 
L 199.004144 42.276525 
L 197.336355 46.711725 
L 196.870876 51.146925 
L 197.419007 55.582125 
L 199.241813 60.017325 
L 200.6985 62.118649 
L 201.837498 64.452525 
L 204.774825 68.887725 
L 205.68 70.034721 
L 209.771506 73.322925 
L 210.6615 73.933847 
z
" clip-path="url(#pfd3ec66bbf)" style="fill: none; stroke: #d62728; stroke-width: 1.4"/>
    <path d="M 210.6615 66.952045 
L 215.643 68.326892 
L 220.6245 67.815058 
L 225.606 66.642283 
L 230.5875 65.718609 
L 235.569 65.359598 
L 240.5505 65.236288 
L 245.532 65.464562 
L 250.5135 65.825746 
L 255.495 65.711007 
L 260.4765 65.326273 
L 265.458 64.830847 
L 268.401939 64.452525 
L 270.4395 64.181065 
L 275.421 63.648052 
L 280.4025 63.345809 
L 285.384 63.072896 
L 290.3655 62.79335 
L 295.347 62.855869 
L 300.3285 63.341413 
L 305.31 63.786274 
L 310.2915 63.585898 
L 315.273 63.198293 
L 320.2545 62.964028 
L 325.236 62.787991 
L 330.2175 62.717213 
L 335.199 62.612399 
L 340.1805 62.37213 
L 345.162 61.952582 
L 350.1435 61.308849 
L 355.125 61.041656 
L 360.1065 61.025929 
L 365.088 60.171603 
L 365.821943 60.017325 
L 370.0695 58.829997 
L 375.051 58.832372 
L 380.0325 59.13329 
L 385.014 58.170826 
L 389.9955 56.553001 
L 394.977 55.589236 
L 395.205689 55.582125 
L 399.9585 54.907983 
L 402.727433 51.146925 
L 399.9585 49.402528 
L 396.435249 46.711725 
L 394.977 46.215766 
L 389.9955 45.180098 
L 385.014 44.579933 
L 380.0325 44.267213 
L 375.051 44.113108 
L 370.0695 43.940302 
L 365.088 43.80227 
L 360.1065 43.582219 
L 355.125 43.285577 
L 350.1435 43.128167 
L 345.162 43.051037 
L 340.1805 42.797017 
L 335.199 42.32756 
L 334.625782 42.276525 
L 330.2175 41.960544 
L 325.236 41.515075 
L 320.2545 41.131593 
L 315.273 40.98308 
L 310.2915 41.057854 
L 305.31 41.435389 
L 300.3285 41.710656 
L 295.347 41.256606 
L 290.3655 40.348844 
L 285.384 39.721197 
L 280.4025 39.55397 
L 275.421 39.459368 
L 270.4395 39.09486 
L 265.458 38.631809 
L 260.4765 38.363096 
L 255.495 38.075361 
L 253.4973 37.841325 
L 250.5135 37.50429 
L 245.532 36.942893 
L 240.5505 36.683062 
L 235.569 36.62694 
L 230.5875 36.539808 
L 225.606 35.902803 
L 220.6245 34.641718 
L 215.643 33.705945 
L 210.6615 34.748708 
L 207.285564 37.841325 
L 205.68 39.61017 
L 204.100679 42.276525 
L 202.538667 46.711725 
L 202.148368 51.146925 
L 202.839249 55.582125 
L 204.701375 60.017325 
L 205.68 61.629819 
L 208.062151 64.452525 
L 210.6615 66.952045 
z
" clip-path="url(#pfd3ec66bbf)" style="fill: none; stroke: #d62728; stroke-width: 1.4"/>
    <path d="M 210.6615 62.229148 
L 215.643 63.845524 
L 220.6245 62.971673 
L 225.606 61.306602 
L 230.5875 60.279276 
L 235.569 60.158104 
L 240.5505 60.105982 
L 245.028089 60.017325 
L 245.532 59.999366 
L 250.5135 59.864849 
L 255.495 59.464965 
L 260.4765 59.075526 
L 265.458 58.553044 
L 270.4395 57.743843 
L 275.421 57.041291 
L 280.4025 56.666583 
L 285.384 56.270718 
L 290.3655 55.930648 
L 295.347 55.766192 
L 296.624753 55.582125 
L 298.658319 51.146925 
L 295.347 49.805553 
L 290.3655 48.134711 
L 286.406062 46.711725 
L 285.384 46.52112 
L 280.4025 46.134438 
L 275.421 46.0131 
L 270.4395 45.51151 
L 265.458 44.753746 
L 260.4765 44.183703 
L 255.495 43.627123 
L 250.5135 42.89318 
L 245.532 42.450129 
L 240.5505 42.519132 
L 235.569 42.555295 
L 231.137664 42.276525 
L 230.5875 42.251007 
L 225.606 41.22336 
L 220.6245 39.528006 
L 215.643 38.238516 
L 210.6615 39.220827 
L 207.777228 42.276525 
L 205.68 45.856963 
L 205.338939 46.711725 
L 204.879136 51.146925 
L 205.68 54.917124 
L 205.871931 55.582125 
L 208.697861 60.017325 
L 210.6615 62.229148 
z
" clip-path="url(#pfd3ec66bbf)" style="fill: none; stroke: #d62728; stroke-width: 1.4"/>
   </g>
   <g id="QuadContourSet_2">
    <path d="M 46.272 78.942433 
L 51.040351 82.193325 
L 51.2535 82.332587 
L 52.347437 82.193325 
L 56.235 81.761126 
L 61.2165 79.802051 
L 66.198 79.618847 
L 71.1795 80.293108 
L 76.161 81.159425 
L 81.1425 81.76755 
L 86.124 81.46579 
L 91.1055 80.306411 
L 96.087 79.331009 
L 101.0685 79.525374 
L 106.05 79.786927 
L 111.0315 79.769943 
L 116.013 79.912987 
L 120.9945 79.92904 
L 125.976 79.927752 
L 130.9575 80.6345 
L 135.939 81.539225 
L 140.9205 82.081496 
L 141.918476 82.193325 
L 145.902 82.967377 
L 150.8835 83.429789 
L 155.865 82.212123 
L 155.922421 82.193325 
L 160.8465 81.061718 
L 165.828 80.254814 
L 170.8095 79.024522 
L 175.791 78.023494 
L 180.7725 78.554954 
L 185.754 79.915331 
L 190.7355 81.556642 
L 193.492955 82.193325 
L 195.717 82.864022 
L 200.6985 84.384605 
L 203.915959 86.628525 
L 205.68 87.803562 
L 210.6615 90.649331 
L 214.168248 91.063725 
L 215.643 91.328301 
L 217.505607 91.063725 
L 220.6245 90.825299 
L 225.606 90.220269 
L 230.5875 89.69239 
L 235.569 89.400757 
L 240.5505 89.76282 
L 245.532 90.45176 
L 250.5135 90.598561 
L 255.495 90.468261 
L 260.4765 90.689655 
L 265.05015 91.063725 
L 265.458 91.122062 
L 267.309255 91.063725 
L 270.4395 90.999377 
L 275.421 90.557353 
L 280.4025 90.342635 
L 285.384 90.084036 
L 290.3655 89.487181 
L 295.347 89.065792 
L 300.3285 88.998282 
L 305.31 88.740747 
L 310.2915 88.204985 
L 315.273 88.089334 
L 320.2545 88.707226 
L 325.236 89.18884 
L 330.2175 89.11941 
L 335.199 88.880556 
L 340.1805 88.720357 
L 345.162 88.901974 
L 350.1435 89.363392 
L 355.125 89.296995 
L 360.1065 88.78007 
L 365.088 88.481667 
L 370.0695 88.742411 
L 375.051 89.520833 
L 380.0325 90.142939 
L 385.014 90.081368 
L 389.9955 89.601455 
L 394.977 89.063124 
L 399.9585 88.26423 
L 404.94 87.125213 
L 407.430127 86.628525 
L 409.9215 86.253584 
L 414.903 85.521815 
L 419.8845 84.441043 
L 424.866 83.753687 
L 429.8475 83.636624 
L 434.829 82.716909 
L 435.688739 82.193325 
L 439.8105 79.592337 
M 101.244197 24.535725 
L 101.0685 24.576973 
L 96.087 25.09655 
L 93.075802 24.535725 
M 191.757842 24.535725 
L 190.7355 24.752668 
L 185.754 24.721518 
L 184.242449 24.535725 
" clip-path="url(#pfd3ec66bbf)" style="fill: none; stroke: #1f77b4; stroke-width: 1.4"/>
    <path d="M 46.272 56.51095 
L 47.336045 60.017325 
L 50.629226 64.452525 
L 51.2535 65.025621 
L 53.164143 64.452525 
L 56.235 63.382802 
L 61.2165 59.853736 
L 62.408777 60.017325 
L 66.198 60.410378 
L 71.1795 61.634135 
L 76.161 63.302165 
L 78.643727 64.452525 
L 81.1425 65.398962 
L 86.124 65.448604 
L 89.702844 64.452525 
L 91.1055 63.8836 
L 96.087 61.230768 
L 101.0685 60.209082 
L 106.05 61.038268 
L 111.0315 61.641363 
L 116.013 62.616781 
L 120.9945 62.822153 
L 125.976 61.508758 
L 130.9575 62.004319 
L 135.050093 64.452525 
L 135.939 64.853436 
L 140.9205 67.479508 
L 145.902 69.195267 
L 150.8835 68.556804 
L 160.8465 60.980604 
L 165.828 61.55241 
L 170.8095 60.532527 
L 171.716638 60.017325 
L 175.791 56.778536 
L 180.7725 57.386095 
L 190.7355 61.711646 
L 195.717 65.018703 
L 199.454764 68.887725 
L 200.6985 69.775848 
L 203.401593 73.322925 
L 207.737892 77.758125 
L 210.6615 80.380352 
L 215.643 82.085194 
L 220.6245 81.996056 
L 235.569 80.590006 
L 240.5505 80.331463 
L 250.5135 80.403133 
L 260.4765 79.813032 
L 265.458 79.526597 
L 280.4025 79.083119 
L 295.347 77.920872 
L 305.31 78.40913 
L 310.2915 78.407642 
L 320.2545 78.109791 
L 330.2175 76.910172 
L 335.199 76.5805 
L 340.1805 76.618026 
L 345.162 76.873874 
L 355.125 77.580429 
L 360.1065 77.61069 
L 365.088 77.313731 
L 370.0695 77.202425 
L 375.162074 77.758125 
L 380.0325 78.509562 
L 385.014 78.574761 
L 390.666005 77.758125 
L 404.94 74.816431 
L 409.9215 73.973362 
L 414.913474 73.322925 
L 424.866 72.626122 
L 429.8475 71.480656 
L 434.829 68.546447 
L 437.67906 64.452525 
L 439.8105 59.461934 
M 439.8105 42.37027 
L 439.780654 42.276525 
L 437.754701 37.841325 
L 434.829 33.757294 
L 434.324893 33.406125 
L 429.8475 30.774107 
L 424.866 29.541063 
L 419.8845 28.848702 
L 414.903 28.409852 
L 409.9215 28.085301 
L 399.9585 27.198728 
L 394.977 27.054362 
L 389.9955 26.751058 
L 380.0325 25.71789 
L 375.051 25.384524 
L 370.0695 25.274508 
L 360.1065 25.461439 
L 350.1435 25.806083 
L 345.162 25.652286 
L 335.199 25.667341 
L 330.2175 25.107451 
L 326.898254 24.535725 
M 207.993575 24.535725 
L 204.520794 28.970925 
L 200.6985 35.176819 
L 197.568698 37.841325 
L 195.717 40.004366 
L 192.476212 42.276525 
L 190.7355 43.898535 
L 186.327336 46.711725 
L 185.754 47.211973 
L 180.7725 49.421735 
L 175.791 49.691238 
L 171.98879 46.711725 
L 170.8095 45.99915 
L 165.828 44.270765 
L 160.8465 44.093527 
L 158.738808 42.276525 
L 155.865 40.5883 
L 152.390946 37.841325 
L 150.8835 36.911797 
L 145.902 35.900088 
L 140.9205 37.314088 
L 139.943266 37.841325 
L 133.556254 42.276525 
L 130.9575 44.511668 
L 125.976 46.694226 
L 120.9945 46.178103 
L 116.013 44.125781 
L 112.969109 42.276525 
L 111.0315 41.417158 
L 106.05 40.949806 
L 102.280847 42.276525 
L 101.0685 43.177853 
L 96.087 45.062004 
L 92.363848 42.276525 
L 91.1055 41.768138 
L 86.124 39.240166 
L 81.1425 38.52578 
L 76.161 39.19663 
L 71.1795 40.380563 
L 66.198 42.378594 
L 61.2165 43.03655 
L 60.3956 42.276525 
L 56.235 39.948167 
L 51.2535 39.12517 
L 49.120205 42.276525 
L 47.127501 46.711725 
L 46.272 50.339894 
L 46.272 50.339894 
" clip-path="url(#pfd3ec66bbf)" style="fill: none; stroke: #1f77b4; stroke-width: 1.4"/>
    <path d="M 210.6615 73.471549 
L 215.643 76.104937 
L 220.6245 76.32779 
L 225.606 75.709499 
L 230.5875 74.981568 
L 235.569 74.350352 
L 240.5505 73.704371 
L 244.837172 73.322925 
L 245.532 73.266819 
L 250.5135 73.112757 
L 255.495 72.86162 
L 260.4765 72.464509 
L 265.458 72.115671 
L 270.4395 71.940832 
L 275.421 71.811981 
L 280.4025 71.614511 
L 285.384 71.410976 
L 290.3655 71.212476 
L 295.347 70.943652 
L 300.3285 70.795634 
L 305.31 70.815766 
L 310.2915 70.686235 
L 315.273 70.231116 
L 320.2545 69.755027 
L 325.236 69.514598 
L 330.2175 69.293487 
L 335.199 69.161221 
L 340.1805 69.328129 
L 345.162 69.553939 
L 350.1435 69.671411 
L 355.125 69.707468 
L 360.1065 69.592701 
L 365.088 69.37743 
L 370.0695 69.432233 
L 375.051 69.795036 
L 380.0325 69.908629 
L 385.014 69.538434 
L 389.403911 68.887725 
L 389.9955 68.801891 
L 394.977 67.734791 
L 399.9585 66.685163 
L 404.94 65.671369 
L 409.900936 64.452525 
L 409.9215 64.44688 
L 414.903 63.568723 
L 419.8845 63.121289 
L 424.866 61.692503 
L 427.549368 60.017325 
L 429.8475 57.805112 
L 431.342598 55.582125 
L 432.155839 51.146925 
L 430.908927 46.711725 
L 429.8475 44.922498 
L 427.336615 42.276525 
L 424.866 40.785399 
L 419.8845 38.737712 
L 416.377519 37.841325 
L 414.903 37.574644 
L 409.9215 37.274335 
L 404.94 37.378277 
L 399.9585 37.194055 
L 394.977 36.636682 
L 389.9955 36.183681 
L 385.014 35.666102 
L 380.0325 34.758603 
L 375.051 33.89692 
L 370.462361 33.406125 
L 370.0695 33.365347 
L 365.088 32.990178 
L 360.1065 32.862664 
L 355.125 33.263114 
L 353.836307 33.406125 
L 350.1435 33.799158 
L 345.162 33.905214 
L 340.1805 34.082143 
L 335.199 34.421976 
L 330.2175 33.899066 
L 328.10015 33.406125 
L 325.236 32.661757 
L 320.2545 32.048574 
L 315.273 32.187858 
L 310.2915 32.198996 
L 305.31 31.792677 
L 300.3285 31.340174 
L 295.347 31.070877 
L 290.3655 30.996685 
L 285.384 31.164711 
L 280.4025 31.383074 
L 275.421 31.326651 
L 270.4395 30.938171 
L 265.458 30.510316 
L 260.4765 30.425694 
L 255.495 30.543321 
L 250.5135 30.278646 
L 245.532 29.537466 
L 240.5505 29.03369 
L 236.730518 28.970925 
L 235.569 28.951459 
L 230.5875 28.365269 
L 225.606 27.324942 
L 220.6245 26.616435 
L 215.643 26.90337 
L 211.920949 28.970925 
L 210.6615 29.75595 
L 207.880615 33.406125 
L 205.68 36.665034 
L 204.823961 37.841325 
L 202.402366 42.276525 
L 201.228422 46.711725 
L 200.863979 51.146925 
L 201.072748 55.582125 
L 201.757368 60.017325 
L 203.334359 64.452525 
L 205.68 67.790497 
L 206.419414 68.887725 
L 210.512232 73.322925 
L 210.6615 73.471549 
z
" clip-path="url(#pfd3ec66bbf)" style="fill: none; stroke: #1f77b4; stroke-width: 1.4"/>
    <path d="M 215.643 70.187959 
L 220.6245 70.314185 
L 225.606 69.434877 
L 229.360916 68.887725 
L 230.5875 68.723744 
L 235.569 68.146427 
L 240.5505 67.248884 
L 245.532 66.255349 
L 250.5135 65.654114 
L 255.495 65.382051 
L 260.4765 65.070068 
L 265.458 64.63572 
L 267.226004 64.452525 
L 270.4395 64.062826 
L 275.421 63.431024 
L 280.4025 63.019018 
L 285.384 63.00925 
L 290.3655 63.346039 
L 295.347 63.360683 
L 300.3285 62.928534 
L 305.31 62.197128 
L 310.2915 61.063368 
L 315.273 60.196559 
L 320.2545 60.284555 
L 325.236 60.752164 
L 330.2175 60.694966 
L 335.199 60.355661 
L 340.1805 60.414448 
L 345.162 60.435976 
L 350.1435 60.192807 
L 355.125 60.241354 
L 360.1065 60.48758 
L 365.088 60.475243 
L 370.0695 60.087409 
L 370.560433 60.017325 
L 375.051 58.832676 
L 380.0325 57.827973 
L 385.014 57.332021 
L 389.9955 56.671068 
L 394.977 55.613431 
L 395.086923 55.582125 
L 399.949033 51.146925 
L 394.977 49.07114 
L 389.9955 48.155644 
L 385.157642 46.711725 
L 385.014 46.691855 
L 380.0325 46.020613 
L 375.051 45.579152 
L 370.0695 44.745135 
L 365.088 43.647842 
L 360.1065 43.510327 
L 355.125 44.074807 
L 350.1435 43.930026 
L 345.162 43.639058 
L 340.1805 44.263528 
L 335.199 45.071697 
L 330.2175 44.464152 
L 325.236 42.403859 
L 324.759531 42.276525 
L 320.2545 41.428029 
L 315.273 41.506273 
L 310.2915 41.534947 
L 305.31 41.132228 
L 300.3285 40.697618 
L 295.347 40.415735 
L 290.3655 40.361843 
L 285.384 40.608177 
L 280.4025 40.772237 
L 275.421 40.43973 
L 270.4395 39.659756 
L 265.458 38.721721 
L 260.4765 38.000339 
L 258.850859 37.841325 
L 255.495 37.553654 
L 250.5135 37.084256 
L 245.532 36.611448 
L 240.5505 36.565087 
L 235.569 36.631612 
L 230.5875 35.882742 
L 225.606 34.541137 
L 220.6245 33.488987 
L 215.643 33.718859 
L 210.6615 36.878115 
L 209.908459 37.841325 
L 207.272102 42.276525 
L 206.006194 46.711725 
L 205.68 50.14844 
L 205.552996 51.146925 
L 205.68 53.901092 
L 205.734339 55.582125 
L 206.495853 60.017325 
L 208.420368 64.452525 
L 210.6615 67.324462 
L 213.322357 68.887725 
L 215.643 70.187959 
z
" clip-path="url(#pfd3ec66bbf)" style="fill: none; stroke: #1f77b4; stroke-width: 1.4"/>
    <path d="M 215.643 66.183936 
L 220.6245 66.092178 
L 225.606 65.095179 
L 230.432114 64.452525 
L 230.5875 64.428911 
L 235.569 63.558402 
L 240.5505 62.032615 
L 245.532 60.45403 
L 248.516495 60.017325 
L 250.5135 59.603982 
L 255.495 59.262594 
L 260.4765 58.427254 
L 265.458 57.244365 
L 270.4395 56.276751 
L 275.039308 55.582125 
L 275.421 55.404135 
L 280.4025 52.937084 
L 285.384 51.332487 
L 290.3655 52.197916 
L 295.347 53.810104 
L 298.944254 51.146925 
L 295.347 50.079321 
L 290.3655 50.483837 
L 285.384 51.026016 
L 280.4025 50.203737 
L 275.421 48.676364 
L 271.228943 46.711725 
L 270.4395 46.546712 
L 265.458 45.484015 
L 260.4765 44.581394 
L 255.495 43.544009 
L 250.5135 42.283616 
L 250.470051 42.276525 
L 245.532 41.790712 
L 240.5505 41.774723 
L 235.569 41.671976 
L 230.5875 40.85431 
L 225.606 39.335638 
L 220.711235 37.841325 
L 220.6245 37.817157 
L 215.643 37.835349 
L 215.633966 37.841325 
L 210.6615 41.776989 
L 210.349419 42.276525 
L 208.718066 46.711725 
L 208.114405 51.146925 
L 208.281868 55.582125 
L 209.335437 60.017325 
L 210.6615 62.54879 
L 212.863965 64.452525 
L 215.643 66.183936 
z
" clip-path="url(#pfd3ec66bbf)" style="fill: none; stroke: #1f77b4; stroke-width: 1.4"/>
   </g>
   <g id="QuadContourSet_3">
    <path d="M 46.272 75.609086 
L 49.94357 77.758125 
L 51.2535 78.328761 
L 54.294003 77.758125 
L 56.235 77.40428 
L 61.2165 77.165427 
L 63.138523 77.758125 
L 66.198 78.736102 
L 71.1795 80.09145 
L 76.161 80.904734 
L 81.1425 80.833444 
L 86.124 79.823993 
L 91.1055 78.636552 
L 96.087 78.148253 
L 101.0685 78.063136 
L 106.05 78.100828 
L 111.0315 78.5463 
L 116.013 78.815264 
L 120.9945 78.907847 
L 125.976 79.442401 
L 130.9575 79.990364 
L 135.939 79.801471 
L 140.9205 78.51828 
L 142.892709 77.758125 
L 145.902 76.585063 
L 150.8835 75.437765 
L 155.865 75.344028 
L 160.8465 75.178415 
L 165.828 75.40162 
L 170.8095 76.695548 
L 173.01264 77.758125 
L 175.791 79.018465 
L 180.7725 82.172019 
L 180.796934 82.193325 
L 185.754 85.985874 
L 187.204137 86.628525 
L 190.7355 88.351246 
L 195.717 89.284444 
L 200.6985 89.529318 
L 205.68 89.522773 
L 210.6615 89.429663 
L 215.643 89.312161 
L 220.6245 89.237541 
L 225.606 89.227077 
L 230.5875 88.98558 
L 235.569 88.275805 
L 240.5505 87.754064 
L 245.532 87.686464 
L 250.5135 87.703963 
L 255.495 87.914418 
L 260.4765 88.332855 
L 265.458 88.610332 
L 270.4395 88.760101 
L 275.421 89.044158 
L 280.4025 89.139292 
L 285.384 88.456202 
L 290.3655 87.032283 
L 292.879485 86.628525 
L 295.347 86.399477 
L 300.3285 86.588937 
L 301.253114 86.628525 
L 305.31 86.913854 
L 310.2915 86.68057 
L 312.198116 86.628525 
L 315.273 86.571661 
L 319.933717 86.628525 
L 320.2545 86.635007 
L 320.383786 86.628525 
L 325.236 86.489426 
L 330.2175 86.303791 
L 335.199 86.185144 
L 340.1805 86.143273 
L 345.162 86.422242 
L 347.686382 86.628525 
L 350.1435 86.900448 
L 355.125 86.876503 
L 358.133824 86.628525 
L 360.1065 86.504267 
L 365.088 86.126478 
L 370.0695 85.549822 
L 375.051 85.197773 
L 380.0325 85.401976 
L 385.014 85.501792 
L 389.9955 85.269856 
L 394.977 85.009242 
L 399.9585 84.940111 
L 404.94 85.331043 
L 409.9215 85.772425 
L 414.903 85.485496 
L 419.8845 84.568521 
L 424.866 83.652819 
L 429.8475 82.697861 
L 431.52042 82.193325 
L 434.829 81.303728 
L 439.8105 77.846619 
M 64.910994 24.535725 
L 61.2165 26.231374 
L 56.235 26.693036 
L 51.2535 26.330784 
L 46.99925 28.970925 
L 46.272 29.461772 
M 104.077283 24.535725 
L 101.0685 25.148646 
L 96.087 26.091075 
L 91.1055 25.840748 
L 86.760853 24.535725 
M 173.837854 24.535725 
L 170.8095 25.882395 
L 165.828 27.016686 
L 160.8465 25.690128 
L 157.639569 24.535725 
" clip-path="url(#pfd3ec66bbf)" style="fill: none; stroke: #2ca02c; stroke-width: 1.4"/>
    <path d="M 439.8105 49.272594 
L 439.242605 46.711725 
L 438.028839 42.276525 
L 436.084362 37.841325 
L 434.829 35.956553 
L 429.8475 32.798002 
L 424.866 31.553571 
L 414.903 29.507756 
L 409.9215 29.054374 
L 403.996493 28.970925 
L 399.9585 28.728502 
L 394.977 27.698498 
L 389.9955 26.418165 
L 385.014 25.806256 
L 380.0325 26.215719 
L 375.051 26.89676 
L 370.0695 27.005013 
L 360.1065 26.317898 
L 355.125 25.818155 
L 350.1435 25.533856 
L 345.162 25.877046 
L 340.1805 26.571127 
L 335.199 26.786479 
L 330.2175 26.274824 
L 325.236 25.437747 
L 320.2545 24.761988 
L 317.155543 24.535725 
M 188.151049 24.535725 
L 185.754 26.621216 
L 183.514355 28.970925 
L 180.7725 33.870139 
L 177.831237 37.841325 
L 175.791 41.326299 
L 174.355254 42.276525 
L 170.8095 45.497479 
L 167.574057 46.711725 
L 165.828 49.796373 
L 160.8465 50.282923 
L 158.782892 46.711725 
L 155.865 45.307934 
L 150.8835 43.367638 
L 149.045983 42.276525 
L 145.902 41.552463 
L 140.9205 39.860188 
L 135.939 39.283884 
L 130.9575 40.349296 
L 125.976 42.478111 
L 120.9945 44.17389 
L 111.0315 41.267768 
L 106.05 41.600223 
L 104.212349 42.276525 
L 101.0685 44.300246 
L 97.544253 46.711725 
L 96.087 48.440971 
L 91.1055 48.25447 
L 89.141741 46.711725 
L 86.124 45.288954 
L 81.1425 43.43334 
L 76.161 43.131505 
L 71.1795 43.783708 
L 66.198 45.606377 
L 63.978384 46.711725 
L 61.2165 50.357008 
L 56.235 47.96078 
L 51.2535 47.099084 
L 50.912755 51.146925 
L 51.2535 55.642799 
L 52.046806 55.582125 
L 56.235 54.442198 
L 61.2165 53.479521 
L 61.589734 55.582125 
L 66.198 59.363403 
L 67.998923 60.017325 
L 71.1795 60.897875 
L 76.161 60.632098 
L 81.1425 60.484332 
L 86.792199 60.017325 
L 91.1055 58.434865 
L 96.087 57.630477 
L 101.0685 60.053827 
L 106.05 62.32048 
L 111.0315 62.987539 
L 116.013 61.2252 
L 120.9945 60.417617 
L 125.976 62.456874 
L 130.9575 64.125686 
L 135.939 64.062239 
L 140.9205 62.052599 
L 143.986415 60.017325 
L 145.902 57.993833 
L 150.680495 55.582125 
L 150.8835 55.341082 
L 155.865 54.529893 
L 160.8465 51.60136 
L 165.828 52.107945 
L 168.557423 55.582125 
L 170.8095 56.657998 
L 173.428468 60.017325 
L 175.791 62.223424 
L 176.848699 64.452525 
L 180.7725 69.536189 
L 183.143902 73.322925 
L 185.754 76.0568 
L 187.792681 77.758125 
L 190.7355 79.868042 
L 195.717 81.184144 
L 200.6985 81.191983 
L 215.643 80.00486 
L 225.606 79.625634 
L 235.569 78.585726 
L 240.5505 78.800644 
L 245.532 79.250114 
L 250.5135 79.188262 
L 260.4765 78.203149 
L 265.458 77.957582 
L 270.4395 78.00886 
L 280.4025 78.651976 
L 285.384 78.456039 
L 290.3655 77.492009 
L 295.347 76.686938 
L 305.31 75.836878 
L 310.2915 75.598135 
L 325.236 76.199739 
L 330.2175 75.962402 
L 335.199 75.367001 
L 340.1805 74.905207 
L 345.162 75.202818 
L 350.1435 75.770836 
L 355.125 75.80083 
L 365.088 75.123222 
L 380.0325 74.898713 
L 394.977 75.131516 
L 409.9215 74.992819 
L 414.903 74.59071 
L 419.8845 73.852317 
L 424.866 72.757005 
L 429.8475 71.010542 
L 434.829 67.981407 
L 437.756552 64.452525 
L 439.8105 60.285852 
M 254.728656 24.535725 
L 250.5135 24.792249 
L 245.532 24.717381 
L 243.593736 24.535725 
M 276.527636 24.535725 
L 275.421 24.638523 
L 271.138298 24.535725 
L 271.138298 24.535725 
" clip-path="url(#pfd3ec66bbf)" style="fill: none; stroke: #2ca02c; stroke-width: 1.4"/>
    <path d="M 195.717 74.538777 
L 200.6985 74.467448 
L 205.68 73.994328 
L 210.6615 73.600151 
L 213.432461 73.322925 
L 215.643 73.114354 
L 220.6245 72.432347 
L 225.606 71.512011 
L 230.5875 70.696792 
L 235.569 70.54636 
L 240.5505 70.919195 
L 245.532 71.479523 
L 250.5135 71.639424 
L 255.495 71.232602 
L 260.4765 70.688823 
L 265.458 70.328829 
L 270.4395 70.002457 
L 275.421 69.592287 
L 280.4025 69.374432 
L 285.384 69.209061 
L 288.237948 68.887725 
L 290.3655 68.696003 
L 295.347 68.194744 
L 300.3285 67.926972 
L 305.31 67.814729 
L 310.2915 67.886864 
L 315.273 68.162191 
L 320.2545 68.386885 
L 325.236 68.111224 
L 330.2175 67.273582 
L 335.199 66.447036 
L 340.1805 66.257165 
L 345.162 66.653738 
L 350.1435 67.106502 
L 355.125 67.252936 
L 360.1065 67.185487 
L 365.088 67.179568 
L 370.0695 67.226407 
L 375.051 67.038839 
L 380.0325 66.593028 
L 385.014 65.979639 
L 389.9955 65.296793 
L 394.977 64.696465 
L 399.733527 64.452525 
L 399.9585 64.438724 
L 400.349665 64.452525 
L 404.94 64.598662 
L 409.9215 64.473771 
L 410.037431 64.452525 
L 414.903 63.297159 
L 419.8845 61.631631 
L 424.866 60.101959 
L 425.07159 60.017325 
L 429.8475 56.486491 
L 430.363439 55.582125 
L 429.8475 51.928625 
L 429.701416 51.146925 
L 426.74435 46.711725 
L 424.866 45.130078 
L 419.8845 42.317787 
L 419.769683 42.276525 
L 414.903 41.011983 
L 409.9215 40.418857 
L 404.94 39.998817 
L 399.9585 39.167387 
L 394.977 37.848756 
L 394.950563 37.841325 
L 389.9955 36.484292 
L 385.014 35.894068 
L 380.0325 36.351691 
L 375.051 37.267123 
L 370.0695 37.802265 
L 365.088 37.618259 
L 360.1065 36.845209 
L 355.125 35.846404 
L 350.1435 35.215195 
L 345.162 35.237526 
L 340.1805 35.304683 
L 335.199 35.193567 
L 330.2175 35.048418 
L 325.236 34.624175 
L 320.2545 33.999631 
L 315.273 33.817229 
L 310.2915 33.931953 
L 305.31 33.687546 
L 302.200802 33.406125 
L 300.3285 33.240244 
L 295.347 33.080613 
L 290.3655 33.185121 
L 287.423904 33.406125 
L 285.384 33.545197 
L 280.4025 34.000524 
L 275.421 34.137366 
L 270.4395 33.9544 
L 265.458 33.63214 
L 260.630734 33.406125 
L 260.4765 33.398445 
L 255.495 33.234826 
L 250.5135 32.93247 
L 245.532 32.385977 
L 240.5505 31.884757 
L 235.569 31.872391 
L 230.5875 32.181865 
L 225.606 32.160796 
L 220.6245 31.626182 
L 215.643 30.657627 
L 210.6615 29.562115 
L 207.765054 28.970925 
L 205.68 28.610387 
L 200.6985 27.809536 
L 195.717 27.622606 
L 192.191333 28.970925 
L 190.7355 29.593078 
L 187.398317 33.406125 
L 185.754 36.139141 
L 184.786987 37.841325 
L 182.986487 42.276525 
L 181.936731 46.711725 
L 181.66157 51.146925 
L 181.961952 55.582125 
L 182.757596 60.017325 
L 184.379136 64.452525 
L 185.754 66.766461 
L 187.055354 68.887725 
L 190.7355 72.711291 
L 192.426612 73.322925 
L 195.717 74.538777 
z
" clip-path="url(#pfd3ec66bbf)" style="fill: none; stroke: #2ca02c; stroke-width: 1.4"/>
    <path d="M 195.717 69.572431 
L 200.6985 69.420712 
L 205.096996 68.887725 
L 205.68 68.81134 
L 210.6615 68.245707 
L 215.643 67.434955 
L 220.6245 66.310013 
L 225.606 64.970482 
L 228.273038 64.452525 
L 230.5875 63.975929 
L 235.569 63.847896 
L 240.5505 64.08599 
L 245.532 64.436193 
L 245.83079 64.452525 
L 250.5135 64.71806 
L 255.495 64.55632 
L 256.881234 64.452525 
L 260.4765 64.163277 
L 265.458 63.758161 
L 270.4395 63.235607 
L 275.421 62.712935 
L 280.4025 62.317001 
L 285.384 62.048936 
L 290.3655 61.931856 
L 295.347 61.952796 
L 300.3285 62.012246 
L 305.31 62.015847 
L 310.2915 62.069578 
L 315.273 62.212215 
L 320.2545 62.169255 
L 325.236 61.434186 
L 330.2175 60.067337 
L 330.455315 60.017325 
L 335.199 58.652428 
L 340.1805 58.367946 
L 345.162 58.799042 
L 350.1435 59.174468 
L 355.125 59.141142 
L 360.1065 58.986757 
L 365.088 59.02323 
L 370.0695 58.764317 
L 375.051 57.760028 
L 380.0325 57.01192 
L 385.014 56.508393 
L 388.566696 55.582125 
L 389.9955 54.524089 
L 393.913236 51.146925 
L 389.9955 47.865998 
L 385.014 46.852653 
L 380.0325 47.590732 
L 375.051 47.891104 
L 370.0695 46.785011 
L 369.923626 46.711725 
L 365.088 45.432715 
L 360.1065 43.935298 
L 355.125 42.797115 
L 350.1435 42.575216 
L 345.162 42.979286 
L 340.1805 43.06592 
L 335.199 42.581254 
L 332.881188 42.276525 
L 330.2175 42.063404 
L 325.236 41.868078 
L 320.2545 42.054297 
L 318.368667 42.276525 
L 315.273 42.693085 
L 310.2915 43.283844 
L 305.31 43.332623 
L 300.3285 42.807059 
L 297.165217 42.276525 
L 295.347 42.020477 
L 290.3655 41.535099 
L 285.384 41.646488 
L 280.4025 42.069789 
L 277.643742 42.276525 
L 275.421 42.478555 
L 270.4395 42.923313 
L 265.458 42.840617 
L 262.626154 42.276525 
L 260.4765 41.92332 
L 255.495 40.886882 
L 250.5135 40.040968 
L 245.532 39.353074 
L 240.5505 38.936578 
L 235.569 38.967263 
L 230.5875 39.173713 
L 225.606 39.120401 
L 220.6245 38.545059 
L 217.00875 37.841325 
L 215.643 37.56889 
L 210.6615 36.428109 
L 205.68 35.171856 
L 200.6985 33.846528 
L 196.445623 33.406125 
L 195.717 33.330204 
L 195.554857 33.406125 
L 190.7355 35.87248 
L 189.347999 37.841325 
L 187.25655 42.276525 
L 186.096163 46.711725 
L 185.754 50.732655 
L 185.712674 51.146925 
L 185.754 51.69763 
L 185.984633 55.582125 
L 186.877725 60.017325 
L 188.775593 64.452525 
L 190.7355 67.122155 
L 194.159089 68.887725 
L 195.717 69.572431 
z
" clip-path="url(#pfd3ec66bbf)" style="fill: none; stroke: #2ca02c; stroke-width: 1.4"/>
    <path d="M 195.717 65.818216 
L 200.6985 65.553214 
L 205.68 64.636042 
L 206.783074 64.452525 
L 210.6615 63.535971 
L 215.643 62.099189 
L 220.6245 60.707656 
L 223.253091 60.017325 
L 225.606 59.193681 
L 230.5875 58.205124 
L 235.569 58.389182 
L 240.5505 58.805026 
L 245.532 58.828065 
L 250.5135 58.514573 
L 255.495 58.081826 
L 260.4765 57.325669 
L 265.458 55.956569 
L 267.434893 55.582125 
L 265.458 54.206254 
L 263.294285 51.146925 
L 260.4765 50.206817 
L 255.495 48.290421 
L 251.207947 46.711725 
L 250.5135 46.542051 
L 245.532 45.613082 
L 240.5505 45.017248 
L 235.569 44.892159 
L 230.5875 45.030976 
L 225.606 44.81223 
L 220.6245 43.804542 
L 215.643 42.283495 
L 215.619966 42.276525 
L 210.6615 41.099142 
L 205.68 39.873384 
L 200.6985 38.38157 
L 196.689892 37.841325 
L 195.717 37.717539 
L 195.494547 37.841325 
L 190.7355 41.404627 
L 190.287556 42.276525 
L 188.838132 46.711725 
L 188.278182 51.146925 
L 188.527824 55.582125 
L 189.627869 60.017325 
L 190.7355 62.247318 
L 193.337051 64.452525 
L 195.717 65.818216 
z
M 315.273 52.684594 
L 320.2545 55.069646 
L 325.236 51.19157 
L 325.274238 51.146925 
L 325.236 51.121213 
L 320.2545 50.132045 
L 315.273 51.055787 
L 314.957547 51.146925 
L 315.273 52.684594 
z
" clip-path="url(#pfd3ec66bbf)" style="fill: none; stroke: #2ca02c; stroke-width: 1.4"/>
   </g>
   <g id="patch_3">
    <path d="M 43.78125 377.134125 
L 43.78125 22.318125 
" style="fill: none; stroke: #000000; stroke-width: 0.8; stroke-linejoin: miter; stroke-linecap: square"/>
   </g>
   <g id="patch_4">
    <path d="M 442.30125 377.134125 
L 442.30125 22.318125 
" style="fill: none; stroke: #000000; stroke-width: 0.8; stroke-linejoin: miter; stroke-linecap: square"/>
   </g>
   <g id="patch_5">
    <path d="M 43.78125 377.134125 
L 442.30125 377.134125 
" style="fill: none; stroke: #000000; stroke-width: 0.8; stroke-linejoin: miter; stroke-linecap: square"/>
   </g>
   <g id="patch_6">
    <path d="M 43.78125 22.318125 
L 442.30125 22.318125 
" style="fill: none; stroke: #000000; stroke-width: 0.8; stroke-linejoin: miter; stroke-linecap: square"/>
   </g>
   <g id="text_15">
    <!-- Option 1: peak-only binary-M contour overlay by mark -->
    <g transform="translate(79.834688 16.318125) scale(0.12 -0.12)">
     <defs>
      <path id="DejaVuSans-4f" d="M 2522 4238 
Q 1834 4238 1429 3725 
Q 1025 3213 1025 2328 
Q 1025 1447 1429 934 
Q 1834 422 2522 422 
Q 3209 422 3611 934 
Q 4013 1447 4013 2328 
Q 4013 3213 3611 3725 
Q 3209 4238 2522 4238 
z
M 2522 4750 
Q 3503 4750 4090 4092 
Q 4678 3434 4678 2328 
Q 4678 1225 4090 567 
Q 3503 -91 2522 -91 
Q 1538 -91 948 565 
Q 359 1222 359 2328 
Q 359 3434 948 4092 
Q 1538 4750 2522 4750 
z
" transform="scale(0.015625)"/>
      <path id="DejaVuSans-3a" d="M 750 794 
L 1409 794 
L 1409 0 
L 750 0 
L 750 794 
z
M 750 3309 
L 1409 3309 
L 1409 2516 
L 750 2516 
L 750 3309 
z
" transform="scale(0.015625)"/>
      <path id="DejaVuSans-76" d="M 191 3500 
L 800 3500 
L 1894 563 
L 2988 3500 
L 3597 3500 
L 2284 0 
L 1503 0 
L 191 3500 
z
" transform="scale(0.015625)"/>
     </defs>
     <use xlink:href="#DejaVuSans-4f"/>
     <use xlink:href="#DejaVuSans-70" transform="translate(78.710938 0)"/>
     <use xlink:href="#DejaVuSans-74" transform="translate(142.1875 0)"/>
     <use xlink:href="#DejaVuSans-69" transform="translate(181.396484 0)"/>
     <use xlink:href="#DejaVuSans-6f" transform="translate(209.179688 0)"/>
     <use xlink:href="#DejaVuSans-6e" transform="translate(270.361328 0)"/>
     <use xlink:href="#DejaVuSans-20" transform="translate(333.740234 0)"/>
     <use xlink:href="#DejaVuSans-31" transform="translate(365.527344 0)"/>
     <use xlink:href="#DejaVuSans-3a" transform="translate(429.150391 0)"/>
     <use xlink:href="#DejaVuSans-20" transform="translate(462.841797 0)"/>
     <use xlink:href="#DejaVuSans-70" transform="translate(494.628906 0)"/>
     <use xlink:href="#DejaVuSans-65" transform="translate(558.105469 0)"/>
     <use xlink:href="#DejaVuSans-61" transform="translate(619.628906 0)"/>
     <use xlink:href="#DejaVuSans-6b" transform="translate(680.908203 0)"/>
     <use xlink:href="#DejaVuSans-2d" transform="translate(738.818359 0)"/>
     <use xlink:href="#DejaVuSans-6f" transform="translate(776.777344 0)"/>
     <use xlink:href="#DejaVuSans-6e" transform="translate(837.958984 0)"/>
     <use xlink:href="#DejaVuSans-6c" transform="translate(901.337891 0)"/>
     <use xlink:href="#DejaVuSans-79" transform="translate(929.121094 0)"/>
     <use xlink:href="#DejaVuSans-20" transform="translate(988.300781 0)"/>
     <use xlink:href="#DejaVuSans-62" transform="translate(1020.087891 0)"/>
     <use xlink:href="#DejaVuSans-69" transform="translate(1083.564453 0)"/>
     <use xlink:href="#DejaVuSans-6e" transform="translate(1111.347656 0)"/>
     <use xlink:href="#DejaVuSans-61" transform="translate(1174.726562 0)"/>
     <use xlink:href="#DejaVuSans-72" transform="translate(1236.005859 0)"/>
     <use xlink:href="#DejaVuSans-79" transform="translate(1277.119141 0)"/>
     <use xlink:href="#DejaVuSans-2d" transform="translate(1334.548828 0)"/>
     <use xlink:href="#DejaVuSans-4d" transform="translate(1370.632812 0)"/>
     <use xlink:href="#DejaVuSans-20" transform="translate(1456.912109 0)"/>
     <use xlink:href="#DejaVuSans-63" transform="translate(1488.699219 0)"/>
     <use xlink:href="#DejaVuSans-6f" transform="translate(1543.679688 0)"/>
     <use xlink:href="#DejaVuSans-6e" transform="translate(1604.861328 0)"/>
     <use xlink:href="#DejaVuSans-74" transform="translate(1668.240234 0)"/>
     <use xlink:href="#DejaVuSans-6f" transform="translate(1707.449219 0)"/>
     <use xlink:href="#DejaVuSans-75" transform="translate(1768.630859 0)"/>
     <use xlink:href="#DejaVuSans-72" transform="translate(1832.009766 0)"/>
     <use xlink:href="#DejaVuSans-20" transform="translate(1873.123047 0)"/>
     <use xlink:href="#DejaVuSans-6f" transform="translate(1904.910156 0)"/>
     <use xlink:href="#DejaVuSans-76" transform="translate(1966.091797 0)"/>
     <use xlink:href="#DejaVuSans-65" transform="translate(2025.271484 0)"/>
     <use xlink:href="#DejaVuSans-72" transform="translate(2086.794922 0)"/>
     <use xlink:href="#DejaVuSans-6c" transform="translate(2127.908203 0)"/>
     <use xlink:href="#DejaVuSans-61" transform="translate(2155.691406 0)"/>
     <use xlink:href="#DejaVuSans-79" transform="translate(2216.970703 0)"/>
     <use xlink:href="#DejaVuSans-20" transform="translate(2276.150391 0)"/>
     <use xlink:href="#DejaVuSans-62" transform="translate(2307.9375 0)"/>
     <use xlink:href="#DejaVuSans-79" transform="translate(2371.414062 0)"/>
     <use xlink:href="#DejaVuSans-20" transform="translate(2430.59375 0)"/>
     <use xlink:href="#DejaVuSans-6d" transform="translate(2462.380859 0)"/>
     <use xlink:href="#DejaVuSans-61" transform="translate(2559.792969 0)"/>
     <use xlink:href="#DejaVuSans-72" transform="translate(2621.072266 0)"/>
     <use xlink:href="#DejaVuSans-6b" transform="translate(2662.185547 0)"/>
    </g>
   </g>
   <g id="legend_1">
    <g id="patch_7">
     <path d="M 452.27165 230.582375 
L 537.743525 230.582375 
Q 539.743525 230.582375 539.743525 228.582375 
L 539.743525 170.869875 
Q 539.743525 168.869875 537.743525 168.869875 
L 452.27165 168.869875 
Q 450.27165 168.869875 450.27165 170.869875 
L 450.27165 228.582375 
Q 450.27165 230.582375 452.27165 230.582375 
z
" style="fill: #ffffff; opacity: 0.8; stroke: #cccccc; stroke-linejoin: miter"/>
    </g>
    <g id="text_16">
     <!-- Mark -->
     <g transform="translate(482.678681 180.468313) scale(0.1 -0.1)">
      <use xlink:href="#DejaVuSans-4d"/>
      <use xlink:href="#DejaVuSans-61" transform="translate(86.279297 0)"/>
      <use xlink:href="#DejaVuSans-72" transform="translate(147.558594 0)"/>
      <use xlink:href="#DejaVuSans-6b" transform="translate(188.671875 0)"/>
     </g>
    </g>
    <g id="line2d_13">
     <path d="M 454.27165 191.646438 
L 464.27165 191.646438 
L 474.27165 191.646438 
" style="fill: none; stroke: #d62728; stroke-width: 2; stroke-linecap: square"/>
    </g>
    <g id="text_17">
     <!-- h3k27ac -->
     <g transform="translate(482.27165 195.146438) scale(0.1 -0.1)">
      <defs>
       <path id="DejaVuSans-68" d="M 3513 2113 
L 3513 0 
L 2938 0 
L 2938 2094 
Q 2938 2591 2744 2837 
Q 2550 3084 2163 3084 
Q 1697 3084 1428 2787 
Q 1159 2491 1159 1978 
L 1159 0 
L 581 0 
L 581 4863 
L 1159 4863 
L 1159 2956 
Q 1366 3272 1645 3428 
Q 1925 3584 2291 3584 
Q 2894 3584 3203 3211 
Q 3513 2838 3513 2113 
z
" transform="scale(0.015625)"/>
       <path id="DejaVuSans-33" d="M 2597 2516 
Q 3050 2419 3304 2112 
Q 3559 1806 3559 1356 
Q 3559 666 3084 287 
Q 2609 -91 1734 -91 
Q 1441 -91 1130 -33 
Q 819 25 488 141 
L 488 750 
Q 750 597 1062 519 
Q 1375 441 1716 441 
Q 2309 441 2620 675 
Q 2931 909 2931 1356 
Q 2931 1769 2642 2001 
Q 2353 2234 1838 2234 
L 1294 2234 
L 1294 2753 
L 1863 2753 
Q 2328 2753 2575 2939 
Q 2822 3125 2822 3475 
Q 2822 3834 2567 4026 
Q 2313 4219 1838 4219 
Q 1578 4219 1281 4162 
Q 984 4106 628 3988 
L 628 4550 
Q 988 4650 1302 4700 
Q 1616 4750 1894 4750 
Q 2613 4750 3031 4423 
Q 3450 4097 3450 3541 
Q 3450 3153 3228 2886 
Q 3006 2619 2597 2516 
z
" transform="scale(0.015625)"/>
       <path id="DejaVuSans-37" d="M 525 4666 
L 3525 4666 
L 3525 4397 
L 1831 0 
L 1172 0 
L 2766 4134 
L 525 4134 
L 525 4666 
z
" transform="scale(0.015625)"/>
      </defs>
      <use xlink:href="#DejaVuSans-68"/>
      <use xlink:href="#DejaVuSans-33" transform="translate(63.378906 0)"/>
      <use xlink:href="#DejaVuSans-6b" transform="translate(127.001953 0)"/>
      <use xlink:href="#DejaVuSans-32" transform="translate(184.912109 0)"/>
      <use xlink:href="#DejaVuSans-37" transform="translate(248.535156 0)"/>
      <use xlink:href="#DejaVuSans-61" transform="translate(312.158203 0)"/>
      <use xlink:href="#DejaVuSans-63" transform="translate(373.4375 0)"/>
     </g>
    </g>
    <g id="line2d_14">
     <path d="M 454.27165 206.324563 
L 464.27165 206.324563 
L 474.27165 206.324563 
" style="fill: none; stroke: #1f77b4; stroke-width: 2; stroke-linecap: square"/>
    </g>
    <g id="text_18">
     <!-- h3k27me3 -->
     <g transform="translate(482.27165 209.824563) scale(0.1 -0.1)">
      <use xlink:href="#DejaVuSans-68"/>
      <use xlink:href="#DejaVuSans-33" transform="translate(63.378906 0)"/>
      <use xlink:href="#DejaVuSans-6b" transform="translate(127.001953 0)"/>
      <use xlink:href="#DejaVuSans-32" transform="translate(184.912109 0)"/>
      <use xlink:href="#DejaVuSans-37" transform="translate(248.535156 0)"/>
      <use xlink:href="#DejaVuSans-6d" transform="translate(312.158203 0)"/>
      <use xlink:href="#DejaVuSans-65" transform="translate(409.570312 0)"/>
      <use xlink:href="#DejaVuSans-33" transform="translate(471.09375 0)"/>
     </g>
    </g>
    <g id="line2d_15">
     <path d="M 454.27165 221.002688 
L 464.27165 221.002688 
L 474.27165 221.002688 
" style="fill: none; stroke: #2ca02c; stroke-width: 2; stroke-linecap: square"/>
    </g>
    <g id="text_19">
     <!-- h3k4me3 -->
     <g transform="translate(482.27165 224.502688) scale(0.1 -0.1)">
      <use xlink:href="#DejaVuSans-68"/>
      <use xlink:href="#DejaVuSans-33" transform="translate(63.378906 0)"/>
      <use xlink:href="#DejaVuSans-6b" transform="translate(127.001953 0)"/>
      <use xlink:href="#DejaVuSans-34" transform="translate(184.912109 0)"/>
      <use xlink:href="#DejaVuSans-6d" transform="translate(248.535156 0)"/>
      <use xlink:href="#DejaVuSans-65" transform="translate(345.947266 0)"/>
      <use xlink:href="#DejaVuSans-33" transform="translate(407.470703 0)"/>
     </g>
    </g>
   </g>
  </g>
 </g>
 <defs>
  <clipPath id="pfd3ec66bbf">
   <rect x="43.78125" y="22.318125" width="398.52" height="354.816"/>
  </clipPath>
 </defs>
</svg>
