<?xml version="1.0" encoding="utf-8" standalone="no"?>
<!DOCTYPE svg PUBLIC "-//W3C//DTD SVG 1.1//EN"
  "http://www.w3.org/Graphics/SVG/1.1/DTD/svg11.dtd">
<svg xmlns:xlink="http://www.w3.org/1999/xlink" width="864pt" height="288pt" viewBox="0 0 864 288" xmlns="http://www.w3.org/2000/svg" version="1.1">
 <metadata>
  <rdf:RDF xmlns:dc="http://purl.org/dc/elements/1.1/" xmlns:cc="http://creativecommons.org/ns#" xmlns:rdf="http://www.w3.org/1999/02/22-rdf-syntax-ns#">
   <cc:Work>
    <dc:type rdf:resource="http://purl.org/dc/dcmitype/StillImage"/>
    <dc:date>2026-07-18T10:45:02.347619</dc:date>
    <dc:format>image/svg+xml</dc:format>
    <dc:creator>
     <cc:Agent>
      <dc:title>Matplotlib v3.10.8, https://matplotlib.org/</dc:title>
     </cc:Agent>
    </dc:creator>
   </cc:Work>
  </rdf:RDF>
 </metadata>
 <defs>
  <style type="text/css">*{stroke-linejoin: round; stroke-linecap: butt}</style>
 </defs>
 <g id="figure_1">
  <g id="patch_1">
   <path d="M 0 288 
L 864 288 
L 864 0 
L 0 0 
z
" style="fill: #ffffff"/>
  </g>
  <g id="axes_1">
   <g id="patch_2">
    <path d="M 47.72 246.04 
L 853.2 246.04 
L 853.2 26.88 
L 47.72 26.88 
z
" style="fill: #ffffff"/>
   </g>
   <g id="matplotlib.axis_1">
    <g id="xtick_1">
     <g id="line2d_1">
      <defs>
       <path id="m0bf4d8cc04" d="M 0 0 
L 0 3.5 
" style="stroke: #000000; stroke-width: 0.8"/>
      </defs>
      <g>
       <use xlink:href="#m0bf4d8cc04" x="83.599005" y="246.04" style="stroke: #000000; stroke-width: 0.8"/>
      </g>
     </g>
     <g id="text_1">
      <!-- 2.40 -->
      <g transform="translate(72.466193 260.638438) scale(0.1 -0.1)">
       <defs>
        <path id="DejaVuSans-32" d="M 1228 531 
L 3431 531 
L 3431 0 
L 469 0 
L 469 531 
Q 828 903 1448 1529 
Q 2069 2156 2228 2338 
Q 2531 2678 2651 2914 
Q 2772 3150 2772 3378 
Q 2772 3750 2511 3984 
Q 2250 4219 1831 4219 
Q 1534 4219 1204 4116 
Q 875 4013 500 3803 
L 500 4441 
Q 881 4594 1212 4672 
Q 1544 4750 1819 4750 
Q 2544 4750 2975 4387 
Q 3406 4025 3406 3419 
Q 3406 3131 3298 2873 
Q 3191 2616 2906 2266 
Q 2828 2175 2409 1742 
Q 1991 1309 1228 531 
z
" transform="scale(0.015625)"/>
        <path id="DejaVuSans-2e" d="M 684 794 
L 1344 794 
L 1344 0 
L 684 0 
L 684 794 
z
" transform="scale(0.015625)"/>
        <path id="DejaVuSans-34" d="M 2419 4116 
L 825 1625 
L 2419 1625 
L 2419 4116 
z
M 2253 4666 
L 3047 4666 
L 3047 1625 
L 3713 1625 
L 3713 1100 
L 3047 1100 
L 3047 0 
L 2419 0 
L 2419 1100 
L 313 1100 
L 313 1709 
L 2253 4666 
z
" transform="scale(0.015625)"/>
        <path id="DejaVuSans-30" d="M 2034 4250 
Q 1547 4250 1301 3770 
Q 1056 3291 1056 2328 
Q 1056 1369 1301 889 
Q 1547 409 2034 409 
Q 2525 409 2770 889 
Q 3016 1369 3016 2328 
Q 3016 3291 2770 3770 
Q 2525 4250 2034 4250 
z
M 2034 4750 
Q 2819 4750 3233 4129 
Q 3647 3509 3647 2328 
Q 3647 1150 3233 529 
Q 2819 -91 2034 -91 
Q 1250 -91 836 529 
Q 422 1150 422 2328 
Q 422 3509 836 4129 
Q 1250 4750 2034 4750 
z
" transform="scale(0.015625)"/>
       </defs>
       <use xlink:href="#DejaVuSans-32"/>
       <use xlink:href="#DejaVuSans-2e" transform="translate(63.623047 0)"/>
       <use xlink:href="#DejaVuSans-34" transform="translate(95.410156 0)"/>
       <use xlink:href="#DejaVuSans-30" transform="translate(159.033203 0)"/>
      </g>
     </g>
    </g>
    <g id="xtick_2">
     <g id="line2d_2">
      <g>
       <use xlink:href="#m0bf4d8cc04" x="230.343403" y="246.04" style="stroke: #000000; stroke-width: 0.8"/>
      </g>
     </g>
     <g id="text_2">
      <!-- 2.42 -->
      <g transform="translate(219.210591 260.638438) scale(0.1 -0.1)">
       <use xlink:href="#DejaVuSans-32"/>
       <use xlink:href="#DejaVuSans-2e" transform="translate(63.623047 0)"/>
       <use xlink:href="#DejaVuSans-34" transform="translate(95.410156 0)"/>
       <use xlink:href="#DejaVuSans-32" transform="translate(159.033203 0)"/>
      </g>
     </g>
    </g>
    <g id="xtick_3">
     <g id="line2d_3">
      <g>
       <use xlink:href="#m0bf4d8cc04" x="377.087801" y="246.04" style="stroke: #000000; stroke-width: 0.8"/>
      </g>
     </g>
     <g id="text_3">
      <!-- 2.44 -->
      <g transform="translate(365.954989 260.638438) scale(0.1 -0.1)">
       <use xlink:href="#DejaVuSans-32"/>
       <use xlink:href="#DejaVuSans-2e" transform="translate(63.623047 0)"/>
       <use xlink:href="#DejaVuSans-34" transform="translate(95.410156 0)"/>
       <use xlink:href="#DejaVuSans-34" transform="translate(159.033203 0)"/>
      </g>
     </g>
    </g>
    <g id="xtick_4">
     <g id="line2d_4">
      <g>
       <use xlink:href="#m0bf4d8cc04" x="523.832199" y="246.04" style="stroke: #000000; stroke-width: 0.8"/>
      </g>
     </g>
     <g id="text_4">
      <!-- 2.46 -->
      <g transform="translate(512.699386 260.638438) scale(0.1 -0.1)">
       <defs>
        <path id="DejaVuSans-36" d="M 2113 2584 
Q 1688 2584 1439 2293 
Q 1191 2003 1191 1497 
Q 1191 994 1439 701 
Q 1688 409 2113 409 
Q 2538 409 2786 701 
Q 3034 994 3034 1497 
Q 3034 2003 2786 2293 
Q 2538 2584 2113 2584 
z
M 3366 4563 
L 3366 3988 
Q 3128 4100 2886 4159 
Q 2644 4219 2406 4219 
Q 1781 4219 1451 3797 
Q 1122 3375 1075 2522 
Q 1259 2794 1537 2939 
Q 1816 3084 2150 3084 
Q 2853 3084 3261 2657 
Q 3669 2231 3669 1497 
Q 3669 778 3244 343 
Q 2819 -91 2113 -91 
Q 1303 -91 875 529 
Q 447 1150 447 2328 
Q 447 3434 972 4092 
Q 1497 4750 2381 4750 
Q 2619 4750 2861 4703 
Q 3103 4656 3366 4563 
z
" transform="scale(0.015625)"/>
       </defs>
       <use xlink:href="#DejaVuSans-32"/>
       <use xlink:href="#DejaVuSans-2e" transform="translate(63.623047 0)"/>
       <use xlink:href="#DejaVuSans-34" transform="translate(95.410156 0)"/>
       <use xlink:href="#DejaVuSans-36" transform="translate(159.033203 0)"/>
      </g>
     </g>
    </g>
    <g id="xtick_5">
     <g id="line2d_5">
      <g>
       <use xlink:href="#m0bf4d8cc04" x="670.576597" y="246.04" style="stroke: #000000; stroke-width: 0.8"/>
      </g>
     </g>
     <g id="text_5">
      <!-- 2.48 -->
      <g transform="translate(659.443784 260.638438) scale(0.1 -0.1)">
       <defs>
        <path id="DejaVuSans-38" d="M 2034 2216 
Q 1584 2216 1326 1975 
Q 1069 1734 1069 1313 
Q 1069 891 1326 650 
Q 1584 409 2034 409 
Q 2484 409 2743 651 
Q 3003 894 3003 1313 
Q 3003 1734 2745 1975 
Q 2488 2216 2034 2216 
z
M 1403 2484 
Q 997 2584 770 2862 
Q 544 3141 544 3541 
Q 544 4100 942 4425 
Q 1341 4750 2034 4750 
Q 2731 4750 3128 4425 
Q 3525 4100 3525 3541 
Q 3525 3141 3298 2862 
Q 3072 2584 2669 2484 
Q 3125 2378 3379 2068 
Q 3634 1759 3634 1313 
Q 3634 634 3220 271 
Q 2806 -91 2034 -91 
Q 1263 -91 848 271 
Q 434 634 434 1313 
Q 434 1759 690 2068 
Q 947 2378 1403 2484 
z
M 1172 3481 
Q 1172 3119 1398 2916 
Q 1625 2713 2034 2713 
Q 2441 2713 2670 2916 
Q 2900 3119 2900 3481 
Q 2900 3844 2670 4047 
Q 2441 4250 2034 4250 
Q 1625 4250 1398 4047 
Q 1172 3844 1172 3481 
z
" transform="scale(0.015625)"/>
       </defs>
       <use xlink:href="#DejaVuSans-32"/>
       <use xlink:href="#DejaVuSans-2e" transform="translate(63.623047 0)"/>
       <use xlink:href="#DejaVuSans-34" transform="translate(95.410156 0)"/>
       <use xlink:href="#DejaVuSans-38" transform="translate(159.033203 0)"/>
      </g>
     </g>
    </g>
    <g id="xtick_6">
     <g id="line2d_6">
      <g>
       <use xlink:href="#m0bf4d8cc04" x="817.320995" y="246.04" style="stroke: #000000; stroke-width: 0.8"/>
      </g>
     </g>
     <g id="text_6">
      <!-- 2.50 -->
      <g transform="translate(806.188182 260.638438) scale(0.1 -0.1)">
       <defs>
        <path id="DejaVuSans-35" d="M 691 4666 
L 3169 4666 
L 3169 4134 
L 1269 4134 
L 1269 2991 
Q 1406 3038 1543 3061 
Q 1681 3084 1819 3084 
Q 2600 3084 3056 2656 
Q 3513 2228 3513 1497 
Q 3513 744 3044 326 
Q 2575 -91 1722 -91 
Q 1428 -91 1123 -41 
Q 819 9 494 109 
L 494 744 
Q 775 591 1075 516 
Q 1375 441 1709 441 
Q 2250 441 2565 725 
Q 2881 1009 2881 1497 
Q 2881 1984 2565 2268 
Q 2250 2553 1709 2553 
Q 1456 2553 1204 2497 
Q 953 2441 691 2322 
L 691 4666 
z
" transform="scale(0.015625)"/>
       </defs>
       <use xlink:href="#DejaVuSans-32"/>
       <use xlink:href="#DejaVuSans-2e" transform="translate(63.623047 0)"/>
       <use xlink:href="#DejaVuSans-35" transform="translate(95.410156 0)"/>
       <use xlink:href="#DejaVuSans-30" transform="translate(159.033203 0)"/>
      </g>
     </g>
    </g>
    <g id="text_7">
     <!-- chr16 coordinate (GRCh38) -->
     <g transform="translate(382.254531 274.316562) scale(0.1 -0.1)">
      <defs>
       <path id="DejaVuSans-63" d="M 3122 3366 
L 3122 2828 
Q 2878 2963 2633 3030 
Q 2388 3097 2138 3097 
Q 1578 3097 1268 2742 
Q 959 2388 959 1747 
Q 959 1106 1268 751 
Q 1578 397 2138 397 
Q 2388 397 2633 464 
Q 2878 531 3122 666 
L 3122 134 
Q 2881 22 2623 -34 
Q 2366 -91 2075 -91 
Q 1284 -91 818 406 
Q 353 903 353 1747 
Q 353 2603 823 3093 
Q 1294 3584 2113 3584 
Q 2378 3584 2631 3529 
Q 2884 3475 3122 3366 
z
" transform="scale(0.015625)"/>
       <path id="DejaVuSans-68" d="M 3513 2113 
L 3513 0 
L 2938 0 
L 2938 2094 
Q 2938 2591 2744 2837 
Q 2550 3084 2163 3084 
Q 1697 3084 1428 2787 
Q 1159 2491 1159 1978 
L 1159 0 
L 581 0 
L 581 4863 
L 1159 4863 
L 1159 2956 
Q 1366 3272 1645 3428 
Q 1925 3584 2291 3584 
Q 2894 3584 3203 3211 
Q 3513 2838 3513 2113 
z
" transform="scale(0.015625)"/>
       <path id="DejaVuSans-72" d="M 2631 2963 
Q 2534 3019 2420 3045 
Q 2306 3072 2169 3072 
Q 1681 3072 1420 2755 
Q 1159 2438 1159 1844 
L 1159 0 
L 581 0 
L 581 3500 
L 1159 3500 
L 1159 2956 
Q 1341 3275 1631 3429 
Q 1922 3584 2338 3584 
Q 2397 3584 2469 3576 
Q 2541 3569 2628 3553 
L 2631 2963 
z
" transform="scale(0.015625)"/>
       <path id="DejaVuSans-31" d="M 794 531 
L 1825 531 
L 1825 4091 
L 703 3866 
L 703 4441 
L 1819 4666 
L 2450 4666 
L 2450 531 
L 3481 531 
L 3481 0 
L 794 0 
L 794 531 
z
" transform="scale(0.015625)"/>
       <path id="DejaVuSans-20" transform="scale(0.015625)"/>
       <path id="DejaVuSans-6f" d="M 1959 3097 
Q 1497 3097 1228 2736 
Q 959 2375 959 1747 
Q 959 1119 1226 758 
Q 1494 397 1959 397 
Q 2419 397 2687 759 
Q 2956 1122 2956 1747 
Q 2956 2369 2687 2733 
Q 2419 3097 1959 3097 
z
M 1959 3584 
Q 2709 3584 3137 3096 
Q 3566 2609 3566 1747 
Q 3566 888 3137 398 
Q 2709 -91 1959 -91 
Q 1206 -91 779 398 
Q 353 888 353 1747 
Q 353 2609 779 3096 
Q 1206 3584 1959 3584 
z
" transform="scale(0.015625)"/>
       <path id="DejaVuSans-64" d="M 2906 2969 
L 2906 4863 
L 3481 4863 
L 3481 0 
L 2906 0 
L 2906 525 
Q 2725 213 2448 61 
Q 2172 -91 1784 -91 
Q 1150 -91 751 415 
Q 353 922 353 1747 
Q 353 2572 751 3078 
Q 1150 3584 1784 3584 
Q 2172 3584 2448 3432 
Q 2725 3281 2906 2969 
z
M 947 1747 
Q 947 1113 1208 752 
Q 1469 391 1925 391 
Q 2381 391 2643 752 
Q 2906 1113 2906 1747 
Q 2906 2381 2643 2742 
Q 2381 3103 1925 3103 
Q 1469 3103 1208 2742 
Q 947 2381 947 1747 
z
" transform="scale(0.015625)"/>
       <path id="DejaVuSans-69" d="M 603 3500 
L 1178 3500 
L 1178 0 
L 603 0 
L 603 3500 
z
M 603 4863 
L 1178 4863 
L 1178 4134 
L 603 4134 
L 603 4863 
z
" transform="scale(0.015625)"/>
       <path id="DejaVuSans-6e" d="M 3513 2113 
L 3513 0 
L 2938 0 
L 2938 2094 
Q 2938 2591 2744 2837 
Q 2550 3084 2163 3084 
Q 1697 3084 1428 2787 
Q 1159 2491 1159 1978 
L 1159 0 
L 581 0 
L 581 3500 
L 1159 3500 
L 1159 2956 
Q 1366 3272 1645 3428 
Q 1925 3584 2291 3584 
Q 2894 3584 3203 3211 
Q 3513 2838 3513 2113 
z
" transform="scale(0.015625)"/>
       <path id="DejaVuSans-61" d="M 2194 1759 
Q 1497 1759 1228 1600 
Q 959 1441 959 1056 
Q 959 750 1161 570 
Q 1363 391 1709 391 
Q 2188 391 2477 730 
Q 2766 1069 2766 1631 
L 2766 1759 
L 2194 1759 
z
M 3341 1997 
L 3341 0 
L 2766 0 
L 2766 531 
Q 2569 213 2275 61 
Q 1981 -91 1556 -91 
Q 1019 -91 701 211 
Q 384 513 384 1019 
Q 384 1609 779 1909 
Q 1175 2209 1959 2209 
L 2766 2209 
L 2766 2266 
Q 2766 2663 2505 2880 
Q 2244 3097 1772 3097 
Q 1472 3097 1187 3025 
Q 903 2953 641 2809 
L 641 3341 
Q 956 3463 1253 3523 
Q 1550 3584 1831 3584 
Q 2591 3584 2966 3190 
Q 3341 2797 3341 1997 
z
" transform="scale(0.015625)"/>
       <path id="DejaVuSans-74" d="M 1172 4494 
L 1172 3500 
L 2356 3500 
L 2356 3053 
L 1172 3053 
L 1172 1153 
Q 1172 725 1289 603 
Q 1406 481 1766 481 
L 2356 481 
L 2356 0 
L 1766 0 
Q 1100 0 847 248 
Q 594 497 594 1153 
L 594 3053 
L 172 3053 
L 172 3500 
L 594 3500 
L 594 4494 
L 1172 4494 
z
" transform="scale(0.015625)"/>
       <path id="DejaVuSans-65" d="M 3597 1894 
L 3597 1613 
L 953 1613 
Q 991 1019 1311 708 
Q 1631 397 2203 397 
Q 2534 397 2845 478 
Q 3156 559 3463 722 
L 3463 178 
Q 3153 47 2828 -22 
Q 2503 -91 2169 -91 
Q 1331 -91 842 396 
Q 353 884 353 1716 
Q 353 2575 817 3079 
Q 1281 3584 2069 3584 
Q 2775 3584 3186 3129 
Q 3597 2675 3597 1894 
z
M 3022 2063 
Q 3016 2534 2758 2815 
Q 2500 3097 2075 3097 
Q 1594 3097 1305 2825 
Q 1016 2553 972 2059 
L 3022 2063 
z
" transform="scale(0.015625)"/>
       <path id="DejaVuSans-28" d="M 1984 4856 
Q 1566 4138 1362 3434 
Q 1159 2731 1159 2009 
Q 1159 1288 1364 580 
Q 1569 -128 1984 -844 
L 1484 -844 
Q 1016 -109 783 600 
Q 550 1309 550 2009 
Q 550 2706 781 3412 
Q 1013 4119 1484 4856 
L 1984 4856 
z
" transform="scale(0.015625)"/>
       <path id="DejaVuSans-47" d="M 3809 666 
L 3809 1919 
L 2778 1919 
L 2778 2438 
L 4434 2438 
L 4434 434 
Q 4069 175 3628 42 
Q 3188 -91 2688 -91 
Q 1594 -91 976 548 
Q 359 1188 359 2328 
Q 359 3472 976 4111 
Q 1594 4750 2688 4750 
Q 3144 4750 3555 4637 
Q 3966 4525 4313 4306 
L 4313 3634 
Q 3963 3931 3569 4081 
Q 3175 4231 2741 4231 
Q 1884 4231 1454 3753 
Q 1025 3275 1025 2328 
Q 1025 1384 1454 906 
Q 1884 428 2741 428 
Q 3075 428 3337 486 
Q 3600 544 3809 666 
z
" transform="scale(0.015625)"/>
       <path id="DejaVuSans-52" d="M 2841 2188 
Q 3044 2119 3236 1894 
Q 3428 1669 3622 1275 
L 4263 0 
L 3584 0 
L 2988 1197 
Q 2756 1666 2539 1819 
Q 2322 1972 1947 1972 
L 1259 1972 
L 1259 0 
L 628 0 
L 628 4666 
L 2053 4666 
Q 2853 4666 3247 4331 
Q 3641 3997 3641 3322 
Q 3641 2881 3436 2590 
Q 3231 2300 2841 2188 
z
M 1259 4147 
L 1259 2491 
L 2053 2491 
Q 2509 2491 2742 2702 
Q 2975 2913 2975 3322 
Q 2975 3731 2742 3939 
Q 2509 4147 2053 4147 
L 1259 4147 
z
" transform="scale(0.015625)"/>
       <path id="DejaVuSans-43" d="M 4122 4306 
L 4122 3641 
Q 3803 3938 3442 4084 
Q 3081 4231 2675 4231 
Q 1875 4231 1450 3742 
Q 1025 3253 1025 2328 
Q 1025 1406 1450 917 
Q 1875 428 2675 428 
Q 3081 428 3442 575 
Q 3803 722 4122 1019 
L 4122 359 
Q 3791 134 3420 21 
Q 3050 -91 2638 -91 
Q 1578 -91 968 557 
Q 359 1206 359 2328 
Q 359 3453 968 4101 
Q 1578 4750 2638 4750 
Q 3056 4750 3426 4639 
Q 3797 4528 4122 4306 
z
" transform="scale(0.015625)"/>
       <path id="DejaVuSans-33" d="M 2597 2516 
Q 3050 2419 3304 2112 
Q 3559 1806 3559 1356 
Q 3559 666 3084 287 
Q 2609 -91 1734 -91 
Q 1441 -91 1130 -33 
Q 819 25 488 141 
L 488 750 
Q 750 597 1062 519 
Q 1375 441 1716 441 
Q 2309 441 2620 675 
Q 2931 909 2931 1356 
Q 2931 1769 2642 2001 
Q 2353 2234 1838 2234 
L 1294 2234 
L 1294 2753 
L 1863 2753 
Q 2328 2753 2575 2939 
Q 2822 3125 2822 3475 
Q 2822 3834 2567 4026 
Q 2313 4219 1838 4219 
Q 1578 4219 1281 4162 
Q 984 4106 628 3988 
L 628 4550 
Q 988 4650 1302 4700 
Q 1616 4750 1894 4750 
Q 2613 4750 3031 4423 
Q 3450 4097 3450 3541 
Q 3450 3153 3228 2886 
Q 3006 2619 2597 2516 
z
" transform="scale(0.015625)"/>
       <path id="DejaVuSans-29" d="M 513 4856 
L 1013 4856 
Q 1481 4119 1714 3412 
Q 1947 2706 1947 2009 
Q 1947 1309 1714 600 
Q 1481 -109 1013 -844 
L 513 -844 
Q 928 -128 1133 580 
Q 1338 1288 1338 2009 
Q 1338 2731 1133 3434 
Q 928 4138 513 4856 
z
" transform="scale(0.015625)"/>
      </defs>
      <use xlink:href="#DejaVuSans-63"/>
      <use xlink:href="#DejaVuSans-68" transform="translate(54.980469 0)"/>
      <use xlink:href="#DejaVuSans-72" transform="translate(118.359375 0)"/>
      <use xlink:href="#DejaVuSans-31" transform="translate(159.472656 0)"/>
      <use xlink:href="#DejaVuSans-36" transform="translate(223.095703 0)"/>
      <use xlink:href="#DejaVuSans-20" transform="translate(286.71875 0)"/>
      <use xlink:href="#DejaVuSans-63" transform="translate(318.505859 0)"/>
      <use xlink:href="#DejaVuSans-6f" transform="translate(373.486328 0)"/>
      <use xlink:href="#DejaVuSans-6f" transform="translate(434.667969 0)"/>
      <use xlink:href="#DejaVuSans-72" transform="translate(495.849609 0)"/>
      <use xlink:href="#DejaVuSans-64" transform="translate(535.212891 0)"/>
      <use xlink:href="#DejaVuSans-69" transform="translate(598.689453 0)"/>
      <use xlink:href="#DejaVuSans-6e" transform="translate(626.472656 0)"/>
      <use xlink:href="#DejaVuSans-61" transform="translate(689.851562 0)"/>
      <use xlink:href="#DejaVuSans-74" transform="translate(751.130859 0)"/>
      <use xlink:href="#DejaVuSans-65" transform="translate(790.339844 0)"/>
      <use xlink:href="#DejaVuSans-20" transform="translate(851.863281 0)"/>
      <use xlink:href="#DejaVuSans-28" transform="translate(883.650391 0)"/>
      <use xlink:href="#DejaVuSans-47" transform="translate(922.664062 0)"/>
      <use xlink:href="#DejaVuSans-52" transform="translate(1000.154297 0)"/>
      <use xlink:href="#DejaVuSans-43" transform="translate(1064.636719 0)"/>
      <use xlink:href="#DejaVuSans-68" transform="translate(1134.460938 0)"/>
      <use xlink:href="#DejaVuSans-33" transform="translate(1197.839844 0)"/>
      <use xlink:href="#DejaVuSans-38" transform="translate(1261.462891 0)"/>
      <use xlink:href="#DejaVuSans-29" transform="translate(1325.085938 0)"/>
     </g>
    </g>
    <g id="text_8">
     <!-- 1e6 -->
     <g transform="translate(834.321875 273.316562) scale(0.1 -0.1)">
      <use xlink:href="#DejaVuSans-31"/>
      <use xlink:href="#DejaVuSans-65" transform="translate(63.623047 0)"/>
      <use xlink:href="#DejaVuSans-36" transform="translate(125.146484 0)"/>
     </g>
    </g>
   </g>
   <g id="matplotlib.axis_2">
    <g id="ytick_1">
     <g id="line2d_7">
      <defs>
       <path id="m433896771b" d="M 0 0 
L -3.5 0 
" style="stroke: #000000; stroke-width: 0.8"/>
      </defs>
      <g>
       <use xlink:href="#m433896771b" x="47.72" y="236.078182" style="stroke: #000000; stroke-width: 0.8"/>
      </g>
     </g>
     <g id="text_9">
      <!-- 0.0 -->
      <g transform="translate(24.816875 239.877401) scale(0.1 -0.1)">
       <use xlink:href="#DejaVuSans-30"/>
       <use xlink:href="#DejaVuSans-2e" transform="translate(63.623047 0)"/>
       <use xlink:href="#DejaVuSans-30" transform="translate(95.410156 0)"/>
      </g>
     </g>
    </g>
    <g id="ytick_2">
     <g id="line2d_8">
      <g>
       <use xlink:href="#m433896771b" x="47.72" y="196.230909" style="stroke: #000000; stroke-width: 0.8"/>
      </g>
     </g>
     <g id="text_10">
      <!-- 0.2 -->
      <g transform="translate(24.816875 200.030128) scale(0.1 -0.1)">
       <use xlink:href="#DejaVuSans-30"/>
       <use xlink:href="#DejaVuSans-2e" transform="translate(63.623047 0)"/>
       <use xlink:href="#DejaVuSans-32" transform="translate(95.410156 0)"/>
      </g>
     </g>
    </g>
    <g id="ytick_3">
     <g id="line2d_9">
      <g>
       <use xlink:href="#m433896771b" x="47.72" y="156.383636" style="stroke: #000000; stroke-width: 0.8"/>
      </g>
     </g>
     <g id="text_11">
      <!-- 0.4 -->
      <g transform="translate(24.816875 160.182855) scale(0.1 -0.1)">
       <use xlink:href="#DejaVuSans-30"/>
       <use xlink:href="#DejaVuSans-2e" transform="translate(63.623047 0)"/>
       <use xlink:href="#DejaVuSans-34" transform="translate(95.410156 0)"/>
      </g>
     </g>
    </g>
    <g id="ytick_4">
     <g id="line2d_10">
      <g>
       <use xlink:href="#m433896771b" x="47.72" y="116.536364" style="stroke: #000000; stroke-width: 0.8"/>
      </g>
     </g>
     <g id="text_12">
      <!-- 0.6 -->
      <g transform="translate(24.816875 120.335582) scale(0.1 -0.1)">
       <use xlink:href="#DejaVuSans-30"/>
       <use xlink:href="#DejaVuSans-2e" transform="translate(63.623047 0)"/>
       <use xlink:href="#DejaVuSans-36" transform="translate(95.410156 0)"/>
      </g>
     </g>
    </g>
    <g id="ytick_5">
     <g id="line2d_11">
      <g>
       <use xlink:href="#m433896771b" x="47.72" y="76.689091" style="stroke: #000000; stroke-width: 0.8"/>
      </g>
     </g>
     <g id="text_13">
      <!-- 0.8 -->
      <g transform="translate(24.816875 80.48831) scale(0.1 -0.1)">
       <use xlink:href="#DejaVuSans-30"/>
       <use xlink:href="#DejaVuSans-2e" transform="translate(63.623047 0)"/>
       <use xlink:href="#DejaVuSans-38" transform="translate(95.410156 0)"/>
      </g>
     </g>
    </g>
    <g id="ytick_6">
     <g id="line2d_12">
      <g>
       <use xlink:href="#m433896771b" x="47.72" y="36.841818" style="stroke: #000000; stroke-width: 0.8"/>
      </g>
     </g>
     <g id="text_14">
      <!-- 1.0 -->
      <g transform="translate(24.816875 40.641037) scale(0.1 -0.1)">
       <use xlink:href="#DejaVuSans-31"/>
       <use xlink:href="#DejaVuSans-2e" transform="translate(63.623047 0)"/>
       <use xlink:href="#DejaVuSans-30" transform="translate(95.410156 0)"/>
      </g>
     </g>
    </g>
    <g id="text_15">
     <!-- global robust-normalized signal -->
     <g transform="translate(18.737188 215.175625) rotate(-90) scale(0.1 -0.1)">
      <defs>
       <path id="DejaVuSans-67" d="M 2906 1791 
Q 2906 2416 2648 2759 
Q 2391 3103 1925 3103 
Q 1463 3103 1205 2759 
Q 947 2416 947 1791 
Q 947 1169 1205 825 
Q 1463 481 1925 481 
Q 2391 481 2648 825 
Q 2906 1169 2906 1791 
z
M 3481 434 
Q 3481 -459 3084 -895 
Q 2688 -1331 1869 -1331 
Q 1566 -1331 1297 -1286 
Q 1028 -1241 775 -1147 
L 775 -588 
Q 1028 -725 1275 -790 
Q 1522 -856 1778 -856 
Q 2344 -856 2625 -561 
Q 2906 -266 2906 331 
L 2906 616 
Q 2728 306 2450 153 
Q 2172 0 1784 0 
Q 1141 0 747 490 
Q 353 981 353 1791 
Q 353 2603 747 3093 
Q 1141 3584 1784 3584 
Q 2172 3584 2450 3431 
Q 2728 3278 2906 2969 
L 2906 3500 
L 3481 3500 
L 3481 434 
z
" transform="scale(0.015625)"/>
       <path id="DejaVuSans-6c" d="M 603 4863 
L 1178 4863 
L 1178 0 
L 603 0 
L 603 4863 
z
" transform="scale(0.015625)"/>
       <path id="DejaVuSans-62" d="M 3116 1747 
Q 3116 2381 2855 2742 
Q 2594 3103 2138 3103 
Q 1681 3103 1420 2742 
Q 1159 2381 1159 1747 
Q 1159 1113 1420 752 
Q 1681 391 2138 391 
Q 2594 391 2855 752 
Q 3116 1113 3116 1747 
z
M 1159 2969 
Q 1341 3281 1617 3432 
Q 1894 3584 2278 3584 
Q 2916 3584 3314 3078 
Q 3713 2572 3713 1747 
Q 3713 922 3314 415 
Q 2916 -91 2278 -91 
Q 1894 -91 1617 61 
Q 1341 213 1159 525 
L 1159 0 
L 581 0 
L 581 4863 
L 1159 4863 
L 1159 2969 
z
" transform="scale(0.015625)"/>
       <path id="DejaVuSans-75" d="M 544 1381 
L 544 3500 
L 1119 3500 
L 1119 1403 
Q 1119 906 1312 657 
Q 1506 409 1894 409 
Q 2359 409 2629 706 
Q 2900 1003 2900 1516 
L 2900 3500 
L 3475 3500 
L 3475 0 
L 2900 0 
L 2900 538 
Q 2691 219 2414 64 
Q 2138 -91 1772 -91 
Q 1169 -91 856 284 
Q 544 659 544 1381 
z
M 1991 3584 
L 1991 3584 
z
" transform="scale(0.015625)"/>
       <path id="DejaVuSans-73" d="M 2834 3397 
L 2834 2853 
Q 2591 2978 2328 3040 
Q 2066 3103 1784 3103 
Q 1356 3103 1142 2972 
Q 928 2841 928 2578 
Q 928 2378 1081 2264 
Q 1234 2150 1697 2047 
L 1894 2003 
Q 2506 1872 2764 1633 
Q 3022 1394 3022 966 
Q 3022 478 2636 193 
Q 2250 -91 1575 -91 
Q 1294 -91 989 -36 
Q 684 19 347 128 
L 347 722 
Q 666 556 975 473 
Q 1284 391 1588 391 
Q 1994 391 2212 530 
Q 2431 669 2431 922 
Q 2431 1156 2273 1281 
Q 2116 1406 1581 1522 
L 1381 1569 
Q 847 1681 609 1914 
Q 372 2147 372 2553 
Q 372 3047 722 3315 
Q 1072 3584 1716 3584 
Q 2034 3584 2315 3537 
Q 2597 3491 2834 3397 
z
" transform="scale(0.015625)"/>
       <path id="DejaVuSans-2d" d="M 313 2009 
L 1997 2009 
L 1997 1497 
L 313 1497 
L 313 2009 
z
" transform="scale(0.015625)"/>
       <path id="DejaVuSans-6d" d="M 3328 2828 
Q 3544 3216 3844 3400 
Q 4144 3584 4550 3584 
Q 5097 3584 5394 3201 
Q 5691 2819 5691 2113 
L 5691 0 
L 5113 0 
L 5113 2094 
Q 5113 2597 4934 2840 
Q 4756 3084 4391 3084 
Q 3944 3084 3684 2787 
Q 3425 2491 3425 1978 
L 3425 0 
L 2847 0 
L 2847 2094 
Q 2847 2600 2669 2842 
Q 2491 3084 2119 3084 
Q 1678 3084 1418 2786 
Q 1159 2488 1159 1978 
L 1159 0 
L 581 0 
L 581 3500 
L 1159 3500 
L 1159 2956 
Q 1356 3278 1631 3431 
Q 1906 3584 2284 3584 
Q 2666 3584 2933 3390 
Q 3200 3197 3328 2828 
z
" transform="scale(0.015625)"/>
       <path id="DejaVuSans-7a" d="M 353 3500 
L 3084 3500 
L 3084 2975 
L 922 459 
L 3084 459 
L 3084 0 
L 275 0 
L 275 525 
L 2438 3041 
L 353 3041 
L 353 3500 
z
" transform="scale(0.015625)"/>
      </defs>
      <use xlink:href="#DejaVuSans-67"/>
      <use xlink:href="#DejaVuSans-6c" transform="translate(63.476562 0)"/>
      <use xlink:href="#DejaVuSans-6f" transform="translate(91.259766 0)"/>
      <use xlink:href="#DejaVuSans-62" transform="translate(152.441406 0)"/>
      <use xlink:href="#DejaVuSans-61" transform="translate(215.917969 0)"/>
      <use xlink:href="#DejaVuSans-6c" transform="translate(277.197266 0)"/>
      <use xlink:href="#DejaVuSans-20" transform="translate(304.980469 0)"/>
      <use xlink:href="#DejaVuSans-72" transform="translate(336.767578 0)"/>
      <use xlink:href="#DejaVuSans-6f" transform="translate(375.630859 0)"/>
      <use xlink:href="#DejaVuSans-62" transform="translate(436.8125 0)"/>
      <use xlink:href="#DejaVuSans-75" transform="translate(500.289062 0)"/>
      <use xlink:href="#DejaVuSans-73" transform="translate(563.667969 0)"/>
      <use xlink:href="#DejaVuSans-74" transform="translate(615.767578 0)"/>
      <use xlink:href="#DejaVuSans-2d" transform="translate(654.976562 0)"/>
      <use xlink:href="#DejaVuSans-6e" transform="translate(691.060547 0)"/>
      <use xlink:href="#DejaVuSans-6f" transform="translate(754.439453 0)"/>
      <use xlink:href="#DejaVuSans-72" transform="translate(815.621094 0)"/>
      <use xlink:href="#DejaVuSans-6d" transform="translate(854.984375 0)"/>
      <use xlink:href="#DejaVuSans-61" transform="translate(952.396484 0)"/>
      <use xlink:href="#DejaVuSans-6c" transform="translate(1013.675781 0)"/>
      <use xlink:href="#DejaVuSans-69" transform="translate(1041.458984 0)"/>
      <use xlink:href="#DejaVuSans-7a" transform="translate(1069.242188 0)"/>
      <use xlink:href="#DejaVuSans-65" transform="translate(1121.732422 0)"/>
      <use xlink:href="#DejaVuSans-64" transform="translate(1183.255859 0)"/>
      <use xlink:href="#DejaVuSans-20" transform="translate(1246.732422 0)"/>
      <use xlink:href="#DejaVuSans-73" transform="translate(1278.519531 0)"/>
      <use xlink:href="#DejaVuSans-69" transform="translate(1330.619141 0)"/>
      <use xlink:href="#DejaVuSans-67" transform="translate(1358.402344 0)"/>
      <use xlink:href="#DejaVuSans-6e" transform="translate(1421.878906 0)"/>
      <use xlink:href="#DejaVuSans-61" transform="translate(1485.257812 0)"/>
      <use xlink:href="#DejaVuSans-6c" transform="translate(1546.537109 0)"/>
     </g>
    </g>
   </g>
   <g id="line2d_13">
    <path d="M 84.332727 235.467198 
L 85.800171 236.013412 
L 87.267615 233.826272 
L 88.735059 235.156512 
L 90.202503 230.817086 
L 91.669947 230.85284 
L 93.137391 230.130798 
L 94.604835 232.864448 
L 96.072279 233.215325 
L 99.007167 236.078182 
L 100.474611 235.016769 
L 101.942055 233.535756 
L 103.409499 231.410379 
L 104.876943 233.671034 
L 106.344387 233.312669 
L 107.811831 230.397029 
L 109.279275 230.375041 
L 112.214163 233.301941 
L 113.681607 233.929981 
L 115.149051 231.648551 
L 116.616495 233.364311 
L 118.083939 234.335093 
L 119.551383 234.613466 
L 121.018827 234.498879 
L 122.486271 233.931059 
L 123.953715 229.804854 
L 125.421159 233.178681 
L 126.888603 233.937946 
L 128.356047 234.839248 
L 129.823491 233.706459 
L 131.290935 231.67958 
L 132.758379 231.663223 
L 135.693267 232.604804 
L 137.160711 234.071535 
L 138.628154 232.790022 
L 140.095598 234.006765 
L 141.563042 233.153421 
L 143.030486 230.619632 
L 144.49793 231.183312 
L 145.965374 229.173792 
L 147.432818 229.093397 
L 148.900262 230.96892 
L 150.367706 235.187763 
L 151.83515 235.480856 
L 153.302594 234.892459 
L 154.770038 231.659053 
L 156.237482 232.989293 
L 157.704926 229.477153 
L 159.17237 231.494099 
L 160.639814 234.326433 
L 162.107258 233.198257 
L 163.574702 233.283775 
L 165.042146 233.08066 
L 166.50959 229.529453 
L 167.977034 231.666475 
L 170.911922 231.338253 
L 173.84681 229.055385 
L 175.314254 232.623255 
L 176.781698 233.939521 
L 178.249142 228.751709 
L 179.716586 230.571171 
L 181.18403 231.666321 
L 182.651474 232.479742 
L 184.118918 230.870447 
L 185.586362 234.384906 
L 187.053806 235.395764 
L 188.52125 232.887139 
L 189.988694 233.829005 
L 191.456138 230.94607 
L 192.923582 229.874074 
L 194.391026 230.818003 
L 195.85847 229.799516 
L 197.325914 231.969409 
L 198.793358 232.748437 
L 200.260802 234.973737 
L 201.728246 231.897239 
L 203.19569 229.910217 
L 204.663134 225.415851 
L 207.598021 233.995411 
L 209.065465 233.036748 
L 210.532909 233.220731 
L 212.000353 234.235005 
L 213.467797 231.751323 
L 214.935241 234.740666 
L 216.402685 232.558429 
L 217.870129 233.575492 
L 219.337573 231.924498 
L 220.805017 233.079786 
L 222.272461 232.689945 
L 223.739905 233.981352 
L 225.207349 233.264558 
L 228.142237 236.078182 
L 229.609681 235.469216 
L 231.077125 232.488909 
L 232.544569 231.712049 
L 234.012013 228.012778 
L 235.479457 230.648281 
L 236.946901 233.741598 
L 238.414345 231.880998 
L 239.881789 230.578147 
L 241.349233 232.497229 
L 244.284121 235.339028 
L 245.751565 232.112606 
L 247.219009 233.567501 
L 248.686453 234.17711 
L 250.153897 230.459709 
L 251.621341 229.649466 
L 253.088785 230.815953 
L 254.556229 229.424769 
L 256.023673 232.764703 
L 257.491117 235.276564 
L 258.958561 235.383778 
L 261.893449 230.8595 
L 263.360893 232.02977 
L 264.828337 231.387205 
L 266.295781 233.471884 
L 267.763225 232.406253 
L 269.230669 232.793604 
L 270.698113 234.965326 
L 272.165557 233.16044 
L 273.633001 233.00375 
L 275.100445 234.05513 
L 276.567889 232.381727 
L 278.035332 233.640023 
L 279.502776 233.660026 
L 280.97022 232.501838 
L 282.437664 233.355761 
L 283.905108 231.006996 
L 285.372552 232.467231 
L 286.839996 232.798986 
L 288.30744 231.181678 
L 289.774884 231.814871 
L 291.242328 226.241514 
L 292.709772 212.218705 
L 294.177216 154.579539 
L 295.64466 56.353886 
L 297.112104 114.289693 
L 298.579548 198.927592 
L 300.046992 83.835366 
L 301.514436 36.841818 
L 302.98188 36.841818 
L 304.449324 120.962694 
L 305.916768 136.43827 
L 307.384212 198.001214 
L 308.851656 219.918816 
L 310.3191 227.69732 
L 311.786544 227.161588 
L 313.253988 228.552877 
L 314.721432 229.343885 
L 316.188876 227.687042 
L 319.123764 234.253675 
L 320.591208 234.125609 
L 322.058652 233.684663 
L 323.526096 231.222901 
L 324.99354 233.084197 
L 326.460984 233.089883 
L 327.928428 231.928658 
L 329.395872 231.203881 
L 330.863316 232.776498 
L 332.33076 231.836352 
L 333.798204 232.714623 
L 335.265648 232.558822 
L 336.733092 233.928851 
L 339.66798 232.191684 
L 341.135424 232.918585 
L 342.602868 232.717707 
L 344.070312 235.002459 
L 345.537756 234.882057 
L 347.005199 235.747984 
L 349.940087 232.924526 
L 351.407531 230.782548 
L 352.874975 231.315319 
L 354.342419 228.575338 
L 355.809863 229.073346 
L 357.277307 228.827757 
L 358.744751 232.32855 
L 360.212195 235.333013 
L 361.679639 231.610011 
L 363.147083 231.333754 
L 364.614527 232.362117 
L 366.081971 231.247631 
L 367.549415 231.74873 
L 369.016859 235.530168 
L 370.484303 234.872544 
L 371.951747 233.999763 
L 373.419191 232.972321 
L 374.886635 232.215703 
L 376.354079 236.024433 
L 377.821523 235.070184 
L 379.288967 234.301304 
L 380.756411 230.50241 
L 382.223855 233.963829 
L 383.691299 232.024745 
L 385.158743 230.498215 
L 386.626187 231.703906 
L 388.093631 229.479901 
L 389.561075 228.384426 
L 391.028519 229.422112 
L 392.495963 234.38059 
L 393.963407 235.076803 
L 395.430851 236.078182 
L 398.365739 236.078182 
L 399.833183 234.407769 
L 401.300627 231.712093 
L 402.768071 232.025078 
L 404.235515 233.428975 
L 407.170403 234.758755 
L 408.637847 234.56365 
L 410.105291 236.078182 
L 411.572735 235.530161 
L 413.040179 231.878281 
L 414.507623 231.750319 
L 415.975066 234.94227 
L 417.44251 235.993507 
L 418.909954 231.051243 
L 420.377398 234.663278 
L 421.844842 233.517404 
L 423.312286 233.960797 
L 424.77973 235.584218 
L 426.247174 232.68228 
L 427.714618 228.531147 
L 429.182062 227.868046 
L 430.649506 232.111939 
L 432.11695 233.487521 
L 433.584394 234.349406 
L 435.051838 232.193879 
L 436.519282 233.632175 
L 437.986726 233.028113 
L 439.45417 233.188774 
L 440.921614 234.188925 
L 442.389058 234.357276 
L 443.856502 234.135083 
L 445.323946 233.172725 
L 446.79139 232.00782 
L 448.258834 234.414178 
L 449.726278 234.33445 
L 451.193722 233.901022 
L 452.661166 234.738011 
L 454.12861 234.738024 
L 455.596054 233.897534 
L 457.063498 231.626685 
L 458.530942 233.088939 
L 459.998386 233.158833 
L 461.46583 234.458942 
L 462.933274 234.633084 
L 464.400718 234.052762 
L 465.868162 231.158961 
L 467.335606 229.33361 
L 468.80305 233.102668 
L 470.270494 235.031536 
L 471.737938 231.398648 
L 473.205382 231.303104 
L 474.672826 229.918787 
L 476.14027 233.283238 
L 477.607714 234.953166 
L 479.075158 234.426194 
L 480.542602 232.083004 
L 482.010046 233.662165 
L 483.47749 236.078182 
L 484.944934 234.186262 
L 486.412377 233.442665 
L 487.879821 233.516661 
L 490.814709 234.102638 
L 492.282153 231.933592 
L 493.749597 233.443485 
L 495.217041 233.51408 
L 496.684485 232.587015 
L 498.151929 232.309454 
L 499.619373 233.276465 
L 501.086817 234.487218 
L 502.554261 233.15146 
L 504.021705 230.98943 
L 505.489149 230.434005 
L 506.956593 231.116332 
L 508.424037 229.143152 
L 509.891481 228.623287 
L 511.358925 230.800094 
L 512.826369 234.231292 
L 514.293813 232.565464 
L 515.761257 228.491912 
L 517.228701 230.466628 
L 518.696145 230.857011 
L 520.163589 208.777021 
L 521.631033 170.731009 
L 523.098477 165.701556 
L 524.565921 180.506354 
L 526.033365 112.242541 
L 527.500809 117.952214 
L 528.968253 166.269235 
L 530.435697 205.014168 
L 531.903141 223.491505 
L 533.370585 226.73821 
L 534.838029 232.050495 
L 536.305473 228.484608 
L 537.772917 228.589207 
L 539.240361 230.483992 
L 540.707805 232.197256 
L 542.175249 229.799543 
L 543.642693 232.450233 
L 545.110137 233.047947 
L 546.577581 234.284437 
L 548.045025 233.749191 
L 549.512469 232.339083 
L 550.979913 231.714754 
L 552.447357 232.255977 
L 553.914801 232.355061 
L 555.382244 231.459235 
L 558.317132 233.912589 
L 559.784576 234.064978 
L 561.25202 233.265224 
L 562.719464 235.299367 
L 564.186908 231.459234 
L 565.654352 232.593047 
L 567.121796 235.068243 
L 568.58924 229.317004 
L 570.056684 232.466957 
L 571.524128 234.476641 
L 572.991572 230.391209 
L 574.459016 227.230494 
L 575.92646 229.478374 
L 577.393904 222.772775 
L 578.861348 221.089123 
L 580.328792 209.681633 
L 581.796236 128.651536 
L 583.26368 117.072172 
L 587.666012 207.741605 
L 589.133456 214.835298 
L 590.6009 219.493977 
L 592.068344 220.294965 
L 593.535788 228.023621 
L 595.003232 229.907133 
L 596.470676 229.079171 
L 597.93812 230.641246 
L 599.405564 228.641991 
L 600.873008 229.402073 
L 602.340452 230.755422 
L 603.807896 234.458368 
L 605.27534 230.006518 
L 606.742784 223.772973 
L 608.210228 227.151583 
L 609.677672 235.20433 
L 611.145116 231.715897 
L 612.61256 230.903088 
L 614.080004 232.410388 
L 615.547448 231.744848 
L 617.014892 231.887699 
L 618.482336 230.508088 
L 619.94978 229.626658 
L 621.417224 218.312938 
L 622.884668 197.015577 
L 624.352111 161.408508 
L 625.819555 99.790826 
L 627.286999 132.687781 
L 628.754443 92.186818 
L 630.221887 36.841818 
L 633.156775 36.841818 
L 634.624219 155.315791 
L 636.091663 36.841818 
L 637.559107 36.841818 
L 639.026551 63.07568 
L 640.493995 160.995744 
L 641.961439 215.067827 
L 643.428883 228.043219 
L 644.896327 229.26091 
L 646.363771 226.651475 
L 647.831215 228.519879 
L 649.298659 231.449457 
L 650.766103 227.694388 
L 652.233547 232.119125 
L 653.700991 232.650961 
L 655.168435 232.401509 
L 656.635879 234.482669 
L 658.103323 233.726927 
L 659.570767 233.391864 
L 661.038211 231.907488 
L 662.505655 230.253064 
L 663.973099 232.09739 
L 665.440543 229.520839 
L 666.907987 229.441568 
L 668.375431 231.851323 
L 669.842875 234.594758 
L 671.310319 234.163386 
L 672.777763 232.226404 
L 674.245207 233.786459 
L 675.712651 230.144489 
L 677.180095 233.412762 
L 678.647539 232.745169 
L 680.114983 228.730111 
L 681.582427 232.228212 
L 683.049871 231.499627 
L 685.984759 230.881858 
L 687.452203 234.589415 
L 688.919647 233.653028 
L 690.387091 231.863334 
L 691.854535 235.315917 
L 693.321979 234.025568 
L 694.789422 233.642339 
L 696.256866 233.79638 
L 697.72431 234.259034 
L 699.191754 235.416545 
L 700.659198 231.960088 
L 702.126642 234.326177 
L 703.594086 235.470467 
L 705.06153 234.6334 
L 706.528974 233.965902 
L 707.996418 230.602857 
L 710.931306 234.355151 
L 712.39875 233.288228 
L 713.866194 235.128845 
L 715.333638 234.354394 
L 716.801082 234.473963 
L 718.268526 233.796617 
L 719.73597 231.168738 
L 721.203414 231.816301 
L 722.670858 234.025582 
L 724.138302 232.610651 
L 727.07319 236.078182 
L 728.540634 234.837663 
L 730.008078 231.180869 
L 731.475522 231.96437 
L 732.942966 231.599873 
L 734.41041 232.234209 
L 735.877854 235.973575 
L 737.345298 234.522182 
L 738.812742 234.399749 
L 740.280186 235.005346 
L 741.74763 234.479779 
L 743.215074 235.400554 
L 744.682518 233.746573 
L 747.617406 233.382894 
L 749.08485 230.672611 
L 750.552294 231.629167 
L 752.019738 233.199162 
L 753.487182 229.394083 
L 754.954626 231.051244 
L 756.42207 231.067004 
L 757.889514 235.184903 
L 759.356958 233.774665 
L 760.824402 231.607961 
L 762.291846 232.918328 
L 763.759289 234.543703 
L 765.226733 234.289626 
L 766.694177 234.18168 
L 768.161621 232.983846 
L 771.096509 234.886462 
L 772.563953 235.153341 
L 774.031397 233.585109 
L 775.498841 235.013344 
L 776.966285 234.074045 
L 779.901173 235.060626 
L 781.368617 231.686709 
L 782.836061 232.158328 
L 784.303505 234.875523 
L 785.770949 230.478379 
L 787.238393 228.694289 
L 788.705837 231.183107 
L 790.173281 229.524985 
L 791.640725 231.444838 
L 793.108169 232.264066 
L 794.575613 232.027038 
L 796.043057 231.419687 
L 797.510501 228.460359 
L 798.977945 230.214432 
L 800.445389 232.499836 
L 801.912833 233.05012 
L 803.380277 234.832162 
L 804.847721 234.046361 
L 806.315165 232.05454 
L 807.782609 232.569417 
L 809.250053 233.936066 
L 810.717497 233.498205 
L 812.184941 231.775917 
L 813.652385 234.92898 
L 815.119829 234.640678 
L 816.587273 235.34851 
L 816.587273 235.34851 
" clip-path="url(#p9c0a138a9e)" style="fill: none; stroke: #2ca02c; stroke-width: 1.2; stroke-linecap: square"/>
   </g>
   <g id="line2d_14">
    <path d="M 84.332727 236.078182 
L 88.735059 236.078182 
L 91.669947 234.200864 
L 93.137391 234.101214 
L 94.604835 233.608983 
L 96.072279 233.825672 
L 97.539723 234.41956 
L 99.007167 234.226279 
L 100.474611 234.362712 
L 101.942055 235.542462 
L 103.409499 235.03953 
L 104.876943 235.105741 
L 106.344387 234.767332 
L 107.811831 233.658474 
L 109.279275 233.814971 
L 110.746719 234.538605 
L 112.214163 234.461025 
L 113.681607 232.668661 
L 115.149051 232.050696 
L 116.616495 232.648597 
L 118.083939 234.459687 
L 119.551383 235.840075 
L 121.018827 235.227461 
L 123.953715 233.657805 
L 125.421159 233.341466 
L 126.888603 233.80427 
L 129.823491 235.028161 
L 131.290935 234.350674 
L 132.758379 233.340797 
L 134.225823 233.255192 
L 135.693267 234.297171 
L 137.160711 234.604146 
L 138.628154 234.154718 
L 140.095598 233.558155 
L 141.563042 233.582231 
L 143.030486 233.291975 
L 144.49793 232.727514 
L 145.965374 232.647259 
L 147.432818 233.053885 
L 148.900262 233.063248 
L 150.367706 233.242485 
L 151.83515 233.728697 
L 153.302594 234.401502 
L 154.770038 234.427585 
L 156.237482 233.697264 
L 159.17237 233.09 
L 165.042146 233.223759 
L 166.50959 233.689238 
L 167.977034 234.951918 
L 169.444478 234.530579 
L 170.911922 233.011083 
L 172.379366 232.409169 
L 173.84681 232.58573 
L 175.314254 232.957579 
L 176.781698 232.41987 
L 178.249142 232.501463 
L 179.716586 233.266561 
L 181.18403 233.365543 
L 182.651474 232.862611 
L 185.586362 233.274587 
L 187.053806 233.146179 
L 188.52125 233.764143 
L 189.988694 234.255705 
L 191.456138 233.927997 
L 192.923582 233.745417 
L 194.391026 233.132803 
L 195.85847 233.048535 
L 197.325914 233.160892 
L 200.260802 233.55548 
L 201.728246 234.233635 
L 203.19569 234.131979 
L 204.663134 232.700763 
L 206.130578 232.615157 
L 207.598021 233.031146 
L 209.065465 233.63306 
L 210.532909 234.041692 
L 213.467797 233.917296 
L 214.935241 234.386789 
L 216.402685 235.007428 
L 217.870129 235.07832 
L 222.272461 233.282612 
L 223.739905 233.505989 
L 228.142237 236.078182 
L 229.609681 236.078182 
L 231.077125 234.605484 
L 232.544569 232.732865 
L 234.012013 232.854585 
L 235.479457 233.83771 
L 236.946901 234.158731 
L 238.414345 233.889876 
L 239.881789 234.052392 
L 241.349233 234.022966 
L 242.816677 234.331279 
L 244.284121 234.466375 
L 245.751565 233.913952 
L 247.219009 233.812296 
L 248.686453 233.899239 
L 250.153897 233.851086 
L 251.621341 233.392294 
L 253.088785 232.76898 
L 256.023673 233.282612 
L 257.491117 234.370069 
L 258.958561 234.363381 
L 260.426005 234.142011 
L 261.893449 234.342648 
L 263.360893 234.758637 
L 264.828337 234.996728 
L 266.295781 235.032174 
L 267.763225 234.760644 
L 270.698113 234.824179 
L 272.165557 234.91246 
L 275.100445 234.460356 
L 279.502776 233.130128 
L 280.97022 232.871974 
L 285.372552 232.569679 
L 288.30744 229.966739 
L 289.774884 225.277166 
L 291.242328 212.661063 
L 292.709772 186.738664 
L 294.177216 139.65567 
L 295.64466 64.066062 
L 297.112104 114.573274 
L 298.579548 196.26227 
L 300.046992 78.083953 
L 301.514436 36.841818 
L 302.98188 36.841818 
L 304.449324 84.418756 
L 305.916768 146.225888 
L 307.384212 192.982512 
L 308.851656 213.067689 
L 310.3191 224.731431 
L 311.786544 228.444567 
L 314.721432 232.105537 
L 316.188876 233.194332 
L 319.123764 233.170255 
L 320.591208 232.405156 
L 322.058652 232.248659 
L 324.99354 232.727514 
L 326.460984 233.037834 
L 329.395872 233.231784 
L 330.863316 233.564843 
L 332.33076 233.722678 
L 333.798204 233.472549 
L 336.733092 234.510515 
L 338.200536 233.419046 
L 339.66798 233.242485 
L 341.135424 234.517203 
L 342.602868 234.370738 
L 344.070312 234.558 
L 345.537756 235.07297 
L 347.005199 233.889207 
L 348.472643 233.629047 
L 349.940087 233.824334 
L 351.407531 233.852424 
L 352.874975 233.750767 
L 355.809863 234.172775 
L 358.744751 234.084495 
L 360.212195 234.287139 
L 363.147083 233.931341 
L 364.614527 234.07045 
L 366.081971 234.661663 
L 367.549415 234.926504 
L 369.016859 234.77937 
L 370.484303 234.92918 
L 373.419191 234.176788 
L 377.821523 234.033666 
L 379.288967 234.172775 
L 383.691299 233.964781 
L 385.158743 234.411534 
L 388.093631 233.676531 
L 389.561075 233.678537 
L 391.028519 234.925167 
L 392.495963 234.567363 
L 393.963407 235.223448 
L 395.430851 236.078182 
L 399.833183 236.078182 
L 401.300627 233.489938 
L 402.768071 232.814458 
L 404.235515 233.592263 
L 405.702959 235.007428 
L 407.170403 236.078182 
L 408.637847 236.025665 
L 410.105291 235.766508 
L 411.572735 234.798096 
L 413.040179 234.33061 
L 417.44251 234.537936 
L 418.909954 234.990708 
L 420.377398 235.202047 
L 421.844842 234.65765 
L 424.77973 234.120609 
L 429.182062 234.080482 
L 430.649506 234.544624 
L 432.11695 234.647618 
L 435.051838 231.76044 
L 436.519282 231.438082 
L 437.986726 231.290948 
L 439.45417 232.027957 
L 440.921614 232.38108 
L 442.389058 233.34481 
L 443.856502 234.113921 
L 445.323946 234.329273 
L 448.258834 234.303858 
L 451.193722 235.093034 
L 452.661166 235.264245 
L 454.12861 234.940549 
L 455.596054 234.410865 
L 459.998386 234.828861 
L 462.933274 234.289145 
L 464.400718 234.230291 
L 465.868162 234.051724 
L 467.335606 233.694588 
L 468.80305 233.4886 
L 470.270494 232.85726 
L 471.737938 232.724839 
L 474.672826 233.913284 
L 476.14027 234.124622 
L 479.075158 234.178794 
L 480.542602 233.891213 
L 484.944934 234.318572 
L 486.412377 234.717841 
L 487.879821 234.581407 
L 489.347265 234.295164 
L 490.814709 234.479751 
L 495.217041 234.194845 
L 496.684485 234.280451 
L 498.151929 234.531917 
L 499.619373 234.616185 
L 501.086817 234.315897 
L 502.554261 234.171438 
L 504.021705 234.200864 
L 505.489149 233.899908 
L 506.956593 233.792232 
L 508.424037 233.003057 
L 509.891481 232.817133 
L 511.358925 232.875986 
L 514.293813 231.591905 
L 515.761257 230.911074 
L 517.228701 227.513608 
L 518.696145 214.014699 
L 520.163589 183.656868 
L 521.631033 130.624295 
L 523.098477 144.663588 
L 524.565921 177.429072 
L 526.033365 108.816308 
L 527.500809 100.940607 
L 528.968253 160.222378 
L 530.435697 198.653872 
L 531.903141 219.637907 
L 533.370585 225.825575 
L 534.838029 229.391577 
L 536.305473 231.117062 
L 537.772917 232.173754 
L 542.175249 233.544779 
L 543.642693 233.539429 
L 545.110137 233.787551 
L 546.577581 234.630229 
L 548.045025 234.811472 
L 549.512469 233.774844 
L 550.979913 233.72134 
L 552.447357 232.827833 
L 553.914801 232.802419 
L 555.382244 233.489938 
L 556.849688 233.689238 
L 558.317132 233.625034 
L 561.25202 234.096533 
L 562.719464 234.039685 
L 564.186908 233.587582 
L 565.654352 233.728028 
L 568.58924 233.539429 
L 570.056684 233.99822 
L 571.524128 234.759306 
L 572.991572 234.533254 
L 574.459016 233.774844 
L 575.92646 232.271398 
L 577.393904 228.268006 
L 578.861348 217.695733 
L 580.328792 199.793495 
L 581.796236 140.682935 
L 583.26368 127.028867 
L 584.731124 150.784377 
L 586.198568 181.613038 
L 587.666012 203.0251 
L 589.133456 218.795228 
L 590.6009 225.10328 
L 592.068344 228.02189 
L 595.003232 231.170565 
L 596.470676 232.114901 
L 597.93812 232.573692 
L 599.405564 232.62452 
L 600.873008 232.454647 
L 602.340452 231.844708 
L 603.807896 229.602916 
L 605.27534 222.235497 
L 606.742784 213.570621 
L 608.210228 211.869213 
L 609.677672 218.880834 
L 611.145116 228.300108 
L 612.61256 233.186975 
L 614.080004 234.277107 
L 615.547448 234.564019 
L 617.014892 234.300515 
L 618.482336 233.663824 
L 619.94978 232.410507 
L 621.417224 227.655392 
L 622.884668 218.720324 
L 625.819555 169.317956 
L 627.286999 158.510269 
L 628.754443 94.777015 
L 630.221887 43.007122 
L 631.689331 36.841818 
L 633.156775 47.308796 
L 634.624219 129.404418 
L 636.091663 36.841818 
L 637.559107 36.841818 
L 639.026551 115.215315 
L 640.493995 178.167419 
L 641.961439 216.443754 
L 643.428883 227.117683 
L 644.896327 230.024255 
L 646.363771 230.861583 
L 647.831215 231.525025 
L 649.298659 232.052034 
L 650.766103 232.013244 
L 652.233547 232.494775 
L 653.700991 232.645922 
L 656.635879 233.261211 
L 658.103323 232.884012 
L 659.570767 233.023121 
L 661.038211 233.962106 
L 662.505655 234.564019 
L 668.375431 234.832873 
L 669.842875 235.112429 
L 671.310319 234.962619 
L 672.777763 234.471725 
L 674.245207 234.257043 
L 678.647539 234.336629 
L 681.582427 233.962774 
L 684.517315 234.133985 
L 685.984759 233.973475 
L 687.452203 234.459018 
L 690.387091 234.787395 
L 691.854535 235.242174 
L 693.321979 234.992046 
L 697.72431 234.921154 
L 702.126642 233.925991 
L 703.594086 233.805608 
L 705.06153 233.802933 
L 706.528974 233.63841 
L 707.996418 233.686563 
L 710.931306 234.03166 
L 712.39875 234.856281 
L 713.866194 235.494309 
L 715.333638 235.767177 
L 716.801082 235.749788 
L 719.73597 235.309054 
L 721.203414 235.209404 
L 724.138302 234.690421 
L 725.605746 234.754625 
L 728.540634 235.149881 
L 730.008078 234.765994 
L 731.475522 234.561344 
L 732.942966 234.862969 
L 734.41041 235.675552 
L 735.877854 236.078182 
L 738.812742 235.62138 
L 740.280186 234.766663 
L 741.74763 234.631567 
L 744.682518 234.568032 
L 746.149962 234.728542 
L 749.08485 234.652299 
L 750.552294 234.687077 
L 752.019738 234.374082 
L 753.487182 234.226947 
L 754.954626 234.41956 
L 756.42207 234.820835 
L 757.889514 234.291151 
L 759.356958 233.56618 
L 760.824402 233.309364 
L 762.291846 233.221083 
L 763.759289 233.606308 
L 765.226733 234.497808 
L 766.694177 235.218767 
L 768.161621 235.403353 
L 771.096509 234.287139 
L 772.563953 234.267075 
L 775.498841 235.476252 
L 776.966285 234.838893 
L 778.433729 234.509847 
L 779.901173 234.760644 
L 781.368617 234.664338 
L 782.836061 234.750612 
L 784.303505 234.982014 
L 785.770949 235.087015 
L 787.238393 234.854275 
L 788.705837 234.848924 
L 790.173281 235.052237 
L 791.640725 235.003415 
L 794.575613 234.437617 
L 796.043057 233.989526 
L 797.510501 233.825003 
L 798.977945 234.13131 
L 801.912833 234.135992 
L 803.380277 234.699784 
L 804.847721 235.062269 
L 807.782609 234.986027 
L 809.250053 235.182652 
L 810.717497 235.064944 
L 813.652385 235.280964 
L 815.119829 235.036186 
L 816.587273 235.062938 
L 816.587273 235.062938 
" clip-path="url(#p9c0a138a9e)" style="fill: none; stroke: #000000; stroke-width: 1.2; stroke-linecap: square"/>
   </g>
   <g id="line2d_15">
    <path d="M 84.332727 204.297756 
L 85.800171 204.175064 
L 87.267615 207.445649 
L 88.735059 205.579001 
L 90.202503 216.39982 
L 91.669947 209.185081 
L 93.137391 207.628132 
L 94.604835 212.198175 
L 96.072279 209.683001 
L 97.539723 206.876329 
L 99.007167 204.812538 
L 100.474611 209.993424 
L 101.942055 224.744633 
L 103.409499 221.989388 
L 104.876943 204.384127 
L 106.344387 217.818279 
L 107.811831 216.89629 
L 109.279275 217.657079 
L 110.746719 209.358247 
L 112.214163 216.935664 
L 113.681607 211.150783 
L 115.149051 217.098407 
L 116.616495 215.927458 
L 118.083939 217.217654 
L 119.551383 211.760054 
L 121.018827 211.204982 
L 122.486271 212.37041 
L 123.953715 210.795765 
L 125.421159 206.605439 
L 126.888603 215.008731 
L 128.356047 216.478381 
L 129.823491 210.517466 
L 131.290935 209.193142 
L 132.758379 213.057 
L 134.225823 209.863412 
L 135.693267 215.722138 
L 137.160711 211.751009 
L 138.628154 214.518395 
L 140.095598 211.527188 
L 141.563042 217.141582 
L 143.030486 213.887352 
L 144.49793 215.839115 
L 145.965374 216.224367 
L 147.432818 216.101395 
L 148.900262 211.993128 
L 150.367706 212.953287 
L 151.83515 211.318895 
L 153.302594 215.155549 
L 154.770038 213.831985 
L 156.237482 215.028443 
L 157.704926 212.575778 
L 159.17237 205.511163 
L 160.639814 212.617618 
L 162.107258 209.586945 
L 163.574702 192.778729 
L 165.042146 207.500751 
L 166.50959 212.487443 
L 169.444478 216.121161 
L 170.911922 205.40925 
L 172.379366 215.838279 
L 173.84681 215.430601 
L 175.314254 223.121913 
L 176.781698 217.034608 
L 178.249142 226.124374 
L 179.716586 222.298213 
L 181.18403 215.584622 
L 182.651474 216.723902 
L 184.118918 221.008968 
L 185.586362 216.439858 
L 187.053806 218.474136 
L 188.52125 222.192968 
L 189.988694 214.426561 
L 191.456138 222.440969 
L 192.923582 224.741812 
L 194.391026 221.088248 
L 195.85847 210.243296 
L 197.325914 215.170954 
L 198.793358 227.217359 
L 200.260802 225.235249 
L 201.728246 221.972945 
L 203.19569 207.551748 
L 204.663134 207.686294 
L 206.130578 210.275125 
L 207.598021 214.233853 
L 209.065465 216.246445 
L 210.532909 209.341593 
L 212.000353 206.148138 
L 213.467797 217.175462 
L 214.935241 224.164236 
L 216.402685 215.895079 
L 217.870129 219.442105 
L 219.337573 215.583234 
L 220.805017 219.208262 
L 222.272461 220.630138 
L 223.739905 211.166568 
L 225.207349 216.954474 
L 226.674793 217.386345 
L 228.142237 210.61322 
L 229.609681 215.819349 
L 231.077125 218.060639 
L 232.544569 203.336226 
L 234.012013 209.962357 
L 235.479457 209.342697 
L 236.946901 190.940665 
L 238.414345 207.446488 
L 239.881789 203.804779 
L 241.349233 220.164766 
L 242.816677 207.820423 
L 244.284121 202.900585 
L 245.751565 208.930002 
L 247.219009 198.5138 
L 248.686453 197.587828 
L 250.153897 187.028227 
L 251.621341 179.567498 
L 253.088785 196.83777 
L 254.556229 161.862109 
L 256.023673 205.263683 
L 257.491117 210.562705 
L 258.958561 208.676548 
L 260.426005 208.90753 
L 261.893449 203.360451 
L 263.360893 198.66066 
L 264.828337 196.932108 
L 266.295781 202.180836 
L 267.763225 201.460024 
L 269.230669 195.081509 
L 270.698113 195.125441 
L 272.165557 193.734643 
L 273.633001 200.788549 
L 275.100445 201.445326 
L 276.567889 195.680932 
L 278.035332 196.8353 
L 279.502776 200.256873 
L 280.97022 191.63454 
L 282.437664 194.518924 
L 283.905108 170.862437 
L 285.372552 199.172182 
L 286.839996 176.823837 
L 288.30744 188.315606 
L 289.774884 189.622711 
L 291.242328 176.461781 
L 292.709772 176.165931 
L 294.177216 176.525657 
L 295.64466 180.813086 
L 297.112104 36.841818 
L 298.579548 36.841818 
L 300.046992 48.107477 
L 301.514436 113.565167 
L 302.98188 75.278317 
L 304.449324 185.074398 
L 305.916768 138.794597 
L 307.384212 157.837327 
L 308.851656 178.397039 
L 310.3191 212.379522 
L 311.786544 198.153951 
L 313.253988 201.875504 
L 314.721432 197.855167 
L 316.188876 217.92964 
L 317.65632 208.050409 
L 319.123764 228.962468 
L 320.591208 224.889588 
L 322.058652 222.47041 
L 323.526096 206.850733 
L 324.99354 219.999554 
M 429.182062 236.078182 
L 430.649506 236.078182 
L 432.11695 233.554505 
L 433.584394 217.899377 
L 435.051838 234.22265 
L 436.519282 214.03301 
L 437.986726 220.566247 
L 439.45417 208.399175 
L 440.921614 210.432895 
L 442.389058 228.99709 
L 443.856502 234.952363 
L 445.323946 235.805595 
L 446.79139 232.642307 
L 448.258834 236.047184 
L 454.12861 236.078182 
L 455.596054 232.38208 
L 457.063498 216.416564 
L 458.530942 232.565796 
L 459.998386 182.674669 
L 461.46583 208.429818 
L 462.933274 205.515292 
L 464.400718 217.763013 
L 465.868162 219.706856 
L 467.335606 222.290365 
L 468.80305 227.451148 
L 470.270494 236.078182 
L 471.737938 228.825813 
L 473.205382 217.020412 
L 474.672826 220.462091 
L 476.14027 219.590247 
L 477.607714 214.059331 
L 479.075158 230.887561 
L 480.542602 192.930854 
L 482.010046 209.490167 
L 483.47749 227.619675 
L 484.944934 201.201333 
L 486.412377 231.617338 
L 487.879821 186.889629 
L 489.347265 218.272248 
L 490.814709 199.087252 
L 492.282153 208.543484 
L 493.749597 234.738059 
L 495.217041 235.589417 
L 496.684485 236.078182 
L 499.619373 199.761499 
L 501.086817 114.140128 
L 502.554261 218.856221 
L 504.021705 200.91673 
L 505.489149 206.490355 
L 506.956593 215.288089 
L 508.424037 200.879269 
L 509.891481 185.203899 
L 511.358925 204.902517 
L 512.826369 186.410945 
L 514.293813 169.447554 
L 515.761257 112.782922 
L 517.228701 163.981551 
L 518.696145 179.382989 
L 520.163589 113.220467 
L 521.631033 149.163627 
L 523.098477 52.027939 
L 524.565921 36.841818 
L 526.033365 66.912904 
L 527.500809 108.170719 
L 528.968253 167.198105 
L 530.435697 188.743939 
L 531.903141 165.757521 
L 533.370585 179.812687 
L 534.838029 165.873182 
L 536.305473 189.018773 
L 537.772917 187.506348 
L 539.240361 189.314787 
L 540.707805 180.627278 
L 542.175249 179.068184 
L 543.642693 157.107789 
L 545.110137 204.414395 
L 546.577581 194.924997 
L 548.045025 200.561634 
L 549.512469 193.877302 
L 550.979913 198.200182 
L 553.914801 172.944108 
L 555.382244 176.185465 
L 556.849688 165.34258 
L 558.317132 182.423973 
L 559.784576 201.814371 
L 561.25202 208.640966 
L 562.719464 203.287066 
L 564.186908 208.893944 
L 565.654352 185.12032 
L 567.121796 174.715337 
L 568.58924 179.369791 
L 570.056684 199.343716 
L 571.524128 203.232448 
L 572.991572 192.362158 
L 574.459016 176.303989 
L 575.92646 184.839154 
L 577.393904 191.264426 
L 578.861348 139.204544 
L 580.328792 93.103751 
L 581.796236 85.781065 
L 583.26368 112.586601 
L 584.731124 126.249949 
L 586.198568 144.987518 
L 587.666012 153.548805 
L 589.133456 138.428198 
L 590.6009 170.947288 
L 592.068344 146.481506 
L 593.535788 174.082646 
L 595.003232 194.863871 
L 596.470676 177.998094 
L 597.93812 174.707701 
L 599.405564 182.662437 
L 600.873008 184.91731 
L 602.340452 181.387142 
L 603.807896 182.606907 
L 605.27534 161.819008 
L 606.742784 166.833356 
L 608.210228 172.48322 
L 609.677672 169.324188 
L 611.145116 158.324544 
L 612.61256 173.690424 
L 614.080004 169.216073 
L 615.547448 166.849513 
L 617.014892 160.646904 
L 618.482336 173.723121 
L 619.94978 198.026361 
L 621.417224 184.446193 
L 622.884668 166.284817 
L 624.352111 127.054695 
L 625.819555 69.049711 
L 627.286999 48.656945 
L 628.754443 76.365656 
L 630.221887 90.846437 
L 631.689331 99.933795 
L 633.156775 81.496708 
L 634.624219 36.841818 
L 636.091663 71.489617 
L 637.559107 103.265963 
L 639.026551 111.004978 
L 640.493995 168.028699 
L 641.961439 176.415363 
L 643.428883 199.659901 
L 644.896327 213.438481 
L 646.363771 198.205181 
L 647.831215 203.75173 
L 649.298659 211.312998 
L 650.766103 206.589701 
L 652.233547 200.131898 
L 653.700991 201.143371 
L 655.168435 181.881144 
L 656.635879 178.884246 
L 658.103323 178.646466 
L 659.570767 195.518853 
L 661.038211 201.92193 
L 662.505655 201.312969 
L 663.973099 200.178302 
L 665.440543 198.276772 
L 666.907987 188.827144 
L 668.375431 192.918224 
L 669.842875 203.175986 
L 671.310319 207.034876 
L 672.777763 197.73634 
L 674.245207 198.851485 
L 675.712651 195.161137 
L 677.180095 194.554957 
L 678.647539 195.732514 
L 680.114983 205.655275 
L 681.582427 199.039804 
L 683.049871 190.907849 
L 684.517315 192.012757 
L 685.984759 194.012261 
L 687.452203 195.293226 
L 688.919647 191.906742 
L 690.387091 192.498897 
L 691.854535 170.075539 
L 693.321979 174.228943 
L 694.789422 194.382539 
L 696.256866 192.331547 
L 697.72431 193.126723 
L 699.191754 199.242068 
L 700.659198 178.402332 
L 702.126642 185.119391 
L 703.594086 193.362881 
L 705.06153 199.520725 
L 706.528974 195.31096 
L 707.996418 204.948132 
L 709.463862 198.506811 
L 710.931306 208.57054 
L 712.39875 205.952202 
L 713.866194 205.158647 
L 715.333638 198.166183 
L 716.801082 202.809244 
L 718.268526 198.31379 
L 719.73597 192.051398 
L 722.670858 199.252853 
L 724.138302 204.844147 
L 725.605746 206.281162 
L 727.07319 198.100432 
L 728.540634 195.714094 
L 730.008078 196.261141 
L 731.475522 200.076074 
L 732.942966 208.907075 
L 734.41041 208.076215 
L 735.877854 207.854682 
L 737.345298 216.38005 
L 738.812742 206.319917 
L 740.280186 218.712958 
L 741.74763 200.328495 
L 743.215074 208.995208 
L 744.682518 201.915959 
L 746.149962 199.445709 
L 747.617406 194.158444 
L 749.08485 206.582446 
L 750.552294 208.072138 
L 752.019738 211.449882 
L 753.487182 218.981279 
L 754.954626 214.408094 
L 756.42207 208.560047 
L 757.889514 213.653456 
L 759.356958 208.628269 
L 760.824402 202.387512 
L 762.291846 203.837448 
L 763.759289 206.353477 
L 765.226733 211.801251 
L 766.694177 213.010394 
L 769.629065 216.296466 
L 771.096509 205.715994 
L 772.563953 200.963335 
L 774.031397 210.578569 
L 775.498841 208.485084 
L 776.966285 206.058321 
L 778.433729 206.280168 
L 779.901173 214.722997 
L 781.368617 215.027547 
L 782.836061 204.382618 
L 784.303505 212.481715 
L 785.770949 205.358986 
L 787.238393 207.757424 
L 788.705837 210.684446 
L 790.173281 203.670196 
L 791.640725 201.454722 
L 793.108169 202.389123 
L 794.575613 201.85185 
L 796.043057 194.482966 
L 797.510501 181.236275 
L 798.977945 183.980518 
L 800.445389 205.968686 
L 801.912833 203.060735 
L 803.380277 199.695508 
L 804.847721 201.486463 
L 806.315165 192.085993 
L 807.782609 189.607142 
L 809.250053 182.005624 
L 810.717497 188.491589 
L 812.184941 190.967741 
L 813.652385 176.127375 
L 815.119829 189.053036 
L 816.587273 200.3234 
L 816.587273 200.3234 
" clip-path="url(#p9c0a138a9e)" style="fill: none; stroke: #ff7f0e; stroke-width: 1.2; stroke-linecap: square"/>
   </g>
   <g id="line2d_16">
    <path d="M 84.332727 202.710949 
L 85.800171 206.843843 
L 87.267615 199.412461 
L 88.735059 202.077875 
L 90.202503 229.402138 
L 91.669947 223.433036 
L 93.137391 219.362191 
L 94.604835 224.758458 
L 96.072279 224.995796 
L 97.539723 219.10219 
L 99.007167 223.474949 
L 100.474611 227.401637 
L 101.942055 236.078182 
L 103.409499 236.078182 
L 104.876943 219.065742 
L 106.344387 229.551021 
L 107.811831 227.727027 
L 109.279275 232.049434 
L 110.746719 219.184592 
L 112.214163 224.857972 
L 113.681607 223.082223 
L 115.149051 226.114375 
L 118.083939 230.039347 
L 119.551383 227.729299 
L 122.486271 220.527339 
L 123.953715 224.070177 
L 125.421159 223.159456 
L 126.888603 224.669671 
L 128.356047 221.705396 
L 129.823491 220.664548 
L 131.290935 221.777456 
L 132.758379 221.032866 
L 134.225823 222.082201 
L 135.693267 229.013654 
L 137.160711 226.437186 
L 140.095598 222.864743 
L 141.563042 226.627298 
L 143.030486 217.447268 
L 144.49793 222.910481 
L 145.965374 229.515077 
L 147.432818 232.900827 
L 148.900262 226.889387 
L 150.367706 222.280919 
L 151.83515 220.158557 
L 153.302594 223.167968 
L 156.237482 220.692074 
L 157.704926 218.17388 
L 159.17237 216.031596 
L 160.639814 224.923939 
L 162.107258 214.821985 
L 163.574702 206.844678 
L 165.042146 221.4392 
L 166.50959 223.148877 
L 167.977034 214.980186 
L 169.444478 222.899059 
L 170.911922 209.439624 
L 172.379366 223.677927 
L 175.314254 236.078182 
L 179.716586 236.078182 
L 181.18403 228.232176 
L 182.651474 232.377025 
L 184.118918 236.078182 
L 185.586362 232.920952 
L 187.053806 225.728813 
L 188.52125 236.078182 
L 189.988694 217.151935 
L 191.456138 230.096635 
L 192.923582 232.211724 
L 195.85847 219.789114 
L 197.325914 220.981102 
L 198.793358 233.842816 
L 200.260802 235.777445 
L 201.728246 227.64412 
L 203.19569 206.080391 
L 204.663134 214.730756 
L 206.130578 234.00135 
L 207.598021 231.094088 
L 209.065465 229.009346 
L 210.532909 225.296165 
L 212.000353 226.492854 
L 213.467797 222.83229 
L 214.935241 231.853654 
L 216.402685 217.472745 
L 217.870129 229.115849 
L 219.337573 223.347142 
L 220.805017 233.574775 
L 222.272461 230.569593 
L 223.739905 223.115442 
L 225.207349 233.497456 
L 226.674793 231.862144 
L 228.142237 229.314507 
L 229.609681 230.105047 
L 231.077125 235.848627 
L 232.544569 236.078182 
L 234.012013 235.766118 
L 235.479457 221.263256 
L 236.946901 214.220012 
L 238.414345 213.760829 
L 239.881789 220.012359 
L 241.349233 227.562039 
L 242.816677 223.702147 
L 244.284121 220.4539 
L 245.751565 222.771926 
L 247.219009 211.046954 
L 248.686453 205.062553 
L 250.153897 207.778664 
L 251.621341 203.46616 
L 253.088785 215.286804 
L 254.556229 208.144731 
L 256.023673 224.212102 
L 257.491117 220.902797 
L 258.958561 211.934606 
L 260.426005 200.985046 
L 261.893449 200.886514 
L 263.360893 194.720519 
L 264.828337 187.541322 
L 266.295781 191.854756 
L 267.763225 202.557351 
L 269.230669 206.029152 
L 270.698113 194.52884 
L 272.165557 189.569109 
L 275.100445 206.077786 
L 276.567889 201.936533 
L 278.035332 207.535638 
L 279.502776 215.562149 
L 280.97022 207.882346 
L 282.437664 203.198962 
L 283.905108 193.94932 
L 285.372552 199.635935 
L 286.839996 199.353718 
L 288.30744 209.501882 
L 289.774884 195.072982 
L 291.242328 178.937318 
L 292.709772 154.600558 
L 294.177216 98.091514 
L 295.64466 36.841818 
L 301.514436 36.841818 
L 304.449324 197.680992 
L 305.916768 209.891983 
L 307.384212 208.747915 
L 308.851656 215.18481 
L 310.3191 222.879924 
L 311.786544 221.912582 
L 313.253988 214.300125 
L 314.721432 214.093438 
L 316.188876 216.138951 
L 317.65632 214.927382 
L 319.123764 220.725055 
L 320.591208 214.86227 
L 322.058652 196.135822 
L 323.526096 209.215562 
L 324.99354 211.353601 
M 429.182062 234.225121 
L 430.649506 228.752769 
L 432.11695 210.024531 
L 433.584394 206.065005 
L 435.051838 203.410861 
L 436.519282 208.762622 
L 437.986726 218.605921 
L 439.45417 222.911014 
L 440.921614 196.74655 
L 442.389058 203.324423 
L 443.856502 186.547479 
L 445.323946 186.183477 
L 448.258834 216.704609 
L 449.726278 212.105177 
L 451.193722 219.037399 
L 454.12861 207.979402 
L 455.596054 206.4321 
L 457.063498 185.277654 
L 458.530942 189.627845 
L 459.998386 196.592047 
L 461.46583 194.496021 
L 462.933274 202.111556 
L 464.400718 183.686369 
L 465.868162 184.443108 
L 467.335606 193.618294 
L 468.80305 224.083208 
L 470.270494 233.334222 
L 471.737938 230.290492 
L 473.205382 210.767948 
L 474.672826 187.713195 
L 476.14027 187.623095 
L 477.607714 186.437796 
L 479.075158 190.156909 
L 480.542602 199.409843 
L 482.010046 198.180322 
L 483.47749 194.851521 
L 484.944934 203.325699 
L 486.412377 218.595438 
L 487.879821 196.698913 
L 489.347265 190.133433 
L 490.814709 193.868976 
L 492.282153 203.593772 
L 493.749597 217.335057 
L 495.217041 207.402473 
L 496.684485 206.991559 
L 498.151929 198.776535 
L 499.619373 192.056882 
L 501.086817 205.775822 
L 502.554261 210.277927 
L 504.021705 202.706265 
L 505.489149 199.705102 
L 506.956593 217.955979 
L 508.424037 211.81659 
L 509.891481 190.398928 
L 511.358925 219.926984 
L 512.826369 209.683862 
L 514.293813 210.759097 
L 515.761257 202.404615 
L 517.228701 188.943592 
L 518.696145 199.44135 
L 520.163589 162.556541 
L 521.631033 186.363245 
L 523.098477 167.654426 
L 524.565921 105.011499 
L 526.033365 107.517684 
L 527.500809 137.933386 
L 528.968253 173.710713 
L 530.435697 189.593902 
L 531.903141 177.418448 
L 533.370585 183.184691 
L 534.838029 189.454045 
L 536.305473 189.352147 
L 537.772917 192.538512 
L 539.240361 194.831887 
L 540.707805 191.47205 
L 542.175249 185.441125 
L 543.642693 183.12999 
L 546.577581 214.63262 
L 548.045025 203.540564 
L 549.512469 218.572241 
L 550.979913 222.58041 
L 553.914801 187.328712 
L 555.382244 184.054897 
L 556.849688 179.235252 
L 558.317132 188.990168 
L 559.784576 209.694764 
L 561.25202 222.536258 
L 562.719464 223.556746 
L 564.186908 219.4511 
L 565.654352 211.576774 
L 567.121796 198.093381 
L 571.524128 217.401714 
L 572.991572 210.421592 
L 574.459016 191.698362 
L 575.92646 188.570582 
L 577.393904 180.852867 
L 578.861348 174.26655 
L 580.328792 131.127152 
L 581.796236 44.6004 
L 583.26368 66.825259 
L 584.731124 133.541522 
L 586.198568 143.031851 
L 587.666012 179.310354 
L 589.133456 173.334895 
L 590.6009 182.633945 
L 592.068344 186.405845 
L 593.535788 193.746775 
L 595.003232 202.03184 
L 596.470676 189.083671 
L 597.93812 191.86097 
L 599.405564 193.425288 
L 600.873008 191.093106 
L 602.340452 198.609942 
L 603.807896 184.46826 
L 605.27534 124.032386 
L 606.742784 91.640207 
L 608.210228 112.263081 
L 609.677672 122.466263 
L 611.145116 133.654329 
L 612.61256 168.770793 
L 614.080004 169.242263 
L 615.547448 172.605101 
L 617.014892 162.575573 
L 618.482336 172.021526 
L 619.94978 171.117992 
L 621.417224 171.273738 
L 622.884668 138.575619 
L 624.352111 40.437132 
L 625.819555 36.841818 
L 627.286999 36.841818 
L 628.754443 84.465617 
L 631.689331 36.841818 
L 636.091663 36.841818 
L 637.559107 114.398679 
L 639.026551 120.97351 
L 640.493995 176.825656 
L 641.961439 197.767352 
L 644.896327 217.576158 
L 646.363771 213.204367 
L 647.831215 216.607186 
L 649.298659 227.56377 
L 652.233547 217.591645 
L 653.700991 215.615904 
L 655.168435 205.400996 
L 656.635879 202.939334 
L 658.103323 207.426285 
L 659.570767 206.662966 
L 661.038211 220.237651 
L 662.505655 215.976374 
L 663.973099 214.955237 
L 665.440543 203.916377 
L 666.907987 203.062048 
L 668.375431 210.108628 
L 669.842875 223.453693 
L 671.310319 221.454311 
L 674.245207 216.018785 
L 675.712651 205.782126 
L 677.180095 206.820693 
L 678.647539 204.427922 
L 680.114983 217.792514 
L 681.582427 214.018315 
L 683.049871 200.949498 
L 684.517315 206.35925 
L 685.984759 211.137563 
L 687.452203 198.090745 
L 688.919647 191.981017 
L 691.854535 176.744681 
L 693.321979 179.493336 
L 694.789422 178.870788 
L 696.256866 189.489217 
L 697.72431 188.735963 
L 699.191754 194.034586 
L 700.659198 192.622734 
L 702.126642 195.803178 
L 703.594086 201.304604 
L 705.06153 203.357661 
L 706.528974 197.014923 
L 707.996418 207.989443 
L 709.463862 205.100092 
L 710.931306 216.671822 
L 712.39875 199.628697 
L 713.866194 186.4773 
L 715.333638 181.023821 
L 716.801082 188.255984 
L 718.268526 189.741319 
L 719.73597 190.556799 
L 721.203414 183.101111 
L 722.670858 179.644768 
L 724.138302 189.928736 
L 725.605746 212.114427 
L 727.07319 199.468523 
L 728.540634 181.186326 
L 730.008078 192.796914 
L 731.475522 205.48925 
L 732.942966 224.829134 
L 734.41041 223.175982 
L 735.877854 212.945997 
L 737.345298 220.597914 
L 738.812742 208.820124 
L 740.280186 221.545524 
L 741.74763 198.289698 
L 743.215074 203.71975 
L 744.682518 201.807032 
L 746.149962 198.758308 
L 747.617406 195.018547 
L 749.08485 201.4184 
L 750.552294 199.624826 
L 752.019738 218.048715 
L 753.487182 231.438567 
L 754.954626 228.594363 
L 756.42207 217.094296 
L 757.889514 222.341306 
L 759.356958 220.434274 
L 760.824402 208.402466 
L 762.291846 213.141509 
L 763.759289 208.109055 
L 765.226733 216.887669 
L 766.694177 221.538651 
L 768.161621 218.120058 
L 769.629065 222.78263 
L 771.096509 211.545794 
L 772.563953 210.126176 
L 774.031397 215.757141 
L 775.498841 214.251082 
L 776.966285 216.966088 
L 778.433729 217.948386 
L 779.901173 227.149599 
L 781.368617 221.817619 
L 782.836061 215.900946 
L 784.303505 220.935821 
L 785.770949 217.065931 
L 787.238393 216.742091 
L 788.705837 203.101455 
L 790.173281 168.69702 
L 791.640725 159.129217 
L 793.108169 171.525475 
L 794.575613 174.625526 
L 796.043057 172.18296 
L 797.510501 186.651208 
L 798.977945 187.598894 
L 800.445389 206.00489 
L 801.912833 199.817792 
L 803.380277 195.707536 
L 804.847721 186.589644 
L 806.315165 191.126967 
L 807.782609 187.615484 
L 809.250053 192.396845 
L 810.717497 186.912055 
L 812.184941 192.087751 
L 813.652385 191.54602 
L 815.119829 188.654419 
L 816.587273 200.147226 
L 816.587273 200.147226 
" clip-path="url(#p9c0a138a9e)" style="fill: none; stroke: #9467bd; stroke-width: 1.2; stroke-linecap: square"/>
   </g>
   <g id="line2d_17">
    <path d="M 84.332727 162.059087 
L 85.800171 159.619346 
L 87.267615 167.315778 
L 88.735059 177.027446 
L 90.202503 225.101246 
L 91.669947 213.732798 
L 93.137391 213.083337 
L 94.604835 223.343236 
L 96.072279 219.493625 
L 97.539723 212.595763 
L 99.007167 221.989703 
L 100.474611 222.999895 
L 101.942055 236.078182 
L 103.409499 231.392088 
L 104.876943 203.671355 
L 106.344387 227.422764 
L 107.811831 230.75411 
L 109.279275 233.492017 
L 110.746719 218.196855 
L 112.214163 220.775562 
L 113.681607 221.2234 
L 115.149051 227.255107 
L 116.616495 228.410132 
L 118.083939 223.532028 
L 119.551383 224.579086 
L 121.018827 213.538096 
L 122.486271 219.28254 
L 123.953715 223.454144 
L 125.421159 206.001767 
L 126.888603 205.878651 
L 128.356047 207.837866 
L 129.823491 203.66063 
L 131.290935 225.631108 
L 132.758379 222.888304 
L 134.225823 215.140355 
L 135.693267 227.742467 
L 137.160711 213.276608 
L 138.628154 218.572468 
L 140.095598 205.869763 
L 141.563042 223.941231 
L 143.030486 208.142721 
L 144.49793 216.674052 
L 145.965374 227.042988 
L 147.432818 232.148532 
L 148.900262 224.237816 
L 150.367706 222.155712 
L 151.83515 212.827629 
L 153.302594 211.181482 
L 154.770038 219.055047 
L 156.237482 217.304171 
L 157.704926 212.229409 
L 159.17237 218.056934 
L 160.639814 224.505293 
L 162.107258 219.453444 
L 163.574702 203.589255 
L 165.042146 219.123207 
L 166.50959 214.286188 
L 167.977034 207.197437 
L 169.444478 202.105563 
L 170.911922 192.923124 
L 172.379366 220.510478 
L 173.84681 224.870083 
L 175.314254 235.270106 
L 176.781698 224.19084 
L 179.716586 233.763787 
L 181.18403 226.867369 
L 182.651474 225.142272 
L 184.118918 232.829243 
L 185.586362 220.831899 
L 187.053806 222.837156 
L 188.52125 236.078182 
L 189.988694 220.138043 
L 191.456138 226.232156 
L 192.923582 229.949059 
L 194.391026 224.497101 
L 195.85847 214.150182 
L 197.325914 217.718779 
L 198.793358 231.654792 
L 200.260802 228.826718 
L 201.728246 208.54257 
L 203.19569 198.019193 
L 204.663134 206.897397 
L 206.130578 222.433128 
L 207.598021 221.664659 
L 209.065465 217.151466 
L 210.532909 200.174073 
L 212.000353 221.058544 
L 213.467797 213.88266 
L 214.935241 224.584572 
L 216.402685 200.574708 
L 217.870129 214.928612 
L 219.337573 211.586819 
L 220.805017 232.45513 
L 222.272461 229.290799 
L 223.739905 216.888018 
L 225.207349 233.634239 
L 226.674793 225.567112 
L 228.142237 224.245212 
L 229.609681 215.844257 
L 231.077125 234.471674 
L 232.544569 222.726661 
L 234.012013 223.759775 
L 235.479457 214.667307 
L 236.946901 210.925815 
L 238.414345 210.576964 
L 239.881789 216.053601 
L 241.349233 224.812041 
L 244.284121 217.959708 
L 245.751565 217.13075 
L 247.219009 212.90831 
L 248.686453 197.555029 
L 250.153897 200.092653 
L 251.621341 191.146641 
L 253.088785 195.253623 
L 254.556229 177.077771 
L 256.023673 215.655409 
L 257.491117 199.78977 
L 258.958561 210.270244 
L 260.426005 200.691745 
L 261.893449 202.159775 
L 263.360893 196.862087 
L 264.828337 187.770065 
L 266.295781 190.860762 
L 267.763225 204.72989 
L 270.698113 189.716396 
L 272.165557 191.728609 
L 273.633001 192.367073 
L 275.100445 204.928797 
L 276.567889 188.14808 
L 278.035332 196.405798 
L 279.502776 209.771177 
L 280.97022 202.130635 
L 282.437664 202.139654 
L 283.905108 183.121314 
L 285.372552 183.599848 
L 286.839996 180.154403 
L 288.30744 198.032813 
L 289.774884 188.099366 
L 291.242328 166.872557 
L 292.709772 151.68613 
L 294.177216 111.473888 
L 295.64466 62.210114 
L 297.112104 36.841818 
L 301.514436 36.841818 
L 302.98188 90.536873 
L 304.449324 180.890677 
L 305.916768 190.210288 
L 307.384212 187.018297 
L 308.851656 212.604235 
L 310.3191 223.957539 
L 311.786544 221.023719 
L 313.253988 216.424999 
L 314.721432 216.156748 
L 316.188876 228.2569 
L 317.65632 227.910033 
L 319.123764 231.723263 
L 320.591208 231.046595 
L 322.058652 216.527862 
L 324.99354 229.638868 
M 429.182062 227.898906 
L 430.649506 236.078182 
L 432.11695 230.387777 
L 433.584394 229.986016 
L 435.051838 220.288866 
L 436.519282 230.534999 
L 437.986726 228.114022 
L 439.45417 231.62248 
L 440.921614 212.818225 
L 442.389058 224.707472 
L 443.856502 223.891004 
L 445.323946 199.079826 
L 446.79139 220.243544 
L 448.258834 226.073968 
L 449.726278 225.650405 
L 451.193722 221.914368 
L 452.661166 220.046499 
L 454.12861 231.048386 
L 455.596054 232.796903 
L 457.063498 219.407612 
L 458.530942 203.863757 
L 459.998386 216.685825 
L 461.46583 223.562437 
L 462.933274 218.96807 
L 464.400718 210.932573 
L 465.868162 213.485272 
L 467.335606 203.880607 
L 468.80305 235.201574 
L 470.270494 225.942047 
L 471.737938 234.232011 
L 473.205382 234.544664 
L 474.672826 222.6 
L 476.14027 216.408621 
L 477.607714 215.600199 
L 479.075158 219.576465 
L 480.542602 222.505038 
L 482.010046 218.585467 
L 483.47749 215.699704 
L 484.944934 214.043499 
L 486.412377 225.707514 
L 487.879821 219.368355 
L 489.347265 217.035235 
L 492.282153 203.813578 
L 493.749597 216.698011 
L 495.217041 220.276009 
L 496.684485 216.696492 
L 498.151929 208.614602 
L 499.619373 199.4047 
L 501.086817 213.082832 
L 502.554261 223.061047 
L 505.489149 208.979952 
L 506.956593 217.026659 
L 508.424037 207.889162 
L 509.891481 187.046547 
L 511.358925 205.413181 
L 512.826369 203.961981 
L 514.293813 199.203809 
L 515.761257 197.406277 
L 517.228701 172.148331 
L 518.696145 190.53359 
L 520.163589 142.091811 
L 521.631033 147.111338 
L 523.098477 120.205489 
L 524.565921 55.55248 
L 526.033365 48.815299 
L 527.500809 85.216832 
L 528.968253 133.253676 
L 530.435697 172.654841 
L 531.903141 156.405374 
L 533.370585 168.885854 
L 534.838029 174.681157 
L 537.772917 184.89878 
L 539.240361 176.475401 
L 540.707805 182.461121 
L 542.175249 179.08722 
L 543.642693 175.133083 
L 545.110137 186.812135 
L 546.577581 211.197405 
L 548.045025 206.84841 
L 549.512469 204.725409 
L 550.979913 220.713758 
L 552.447357 202.783751 
L 553.914801 173.689954 
L 555.382244 174.468795 
L 556.849688 167.179948 
L 558.317132 177.282386 
L 559.784576 206.319115 
L 561.25202 207.651497 
L 562.719464 208.515797 
L 564.186908 205.075961 
L 565.654352 192.441545 
L 567.121796 178.10057 
L 568.58924 184.431253 
L 570.056684 197.839927 
L 571.524128 196.544466 
L 572.991572 194.154186 
L 574.459016 180.29811 
L 575.92646 186.462803 
L 577.393904 169.886992 
L 578.861348 156.908257 
L 580.328792 101.703408 
L 581.796236 36.841818 
L 583.26368 36.841818 
L 584.731124 87.564547 
L 586.198568 107.547765 
L 587.666012 161.070867 
L 589.133456 155.997926 
L 590.6009 160.60946 
L 592.068344 163.572283 
L 593.535788 179.711403 
L 595.003232 186.857181 
L 596.470676 174.495674 
L 597.93812 173.592606 
L 599.405564 179.215661 
L 600.873008 175.442319 
L 602.340452 186.230353 
L 603.807896 178.753278 
L 605.27534 143.094305 
L 606.742784 98.339111 
L 608.210228 133.323051 
L 609.677672 153.089121 
L 611.145116 149.697641 
L 612.61256 165.055849 
L 614.080004 156.261879 
L 615.547448 168.907276 
L 617.014892 156.430108 
L 618.482336 157.397172 
L 619.94978 161.041445 
L 621.417224 145.441554 
L 622.884668 142.261935 
L 624.352111 64.97074 
L 625.819555 36.841818 
L 627.286999 36.841818 
L 628.754443 59.232885 
L 630.221887 64.588811 
L 631.689331 62.880287 
L 633.156775 36.841818 
L 636.091663 36.841818 
L 637.559107 93.932392 
L 639.026551 90.826286 
L 640.493995 154.819509 
L 641.961439 190.872801 
L 643.428883 196.672643 
L 644.896327 210.790787 
L 646.363771 204.939792 
L 647.831215 214.273174 
L 649.298659 222.002867 
L 650.766103 213.478782 
L 652.233547 209.607717 
L 653.700991 203.880213 
L 655.168435 200.84791 
L 656.635879 202.701596 
L 658.103323 204.081919 
L 659.570767 199.799118 
L 661.038211 214.931386 
L 662.505655 211.227067 
L 663.973099 210.280546 
L 665.440543 203.688721 
L 666.907987 195.222048 
L 668.375431 195.676436 
L 669.842875 213.220254 
L 671.310319 209.211375 
L 672.777763 205.598524 
L 674.245207 207.451614 
L 675.712651 203.702681 
L 678.647539 188.653977 
L 680.114983 203.632808 
L 681.582427 201.674543 
L 683.049871 193.070096 
L 684.517315 191.642745 
L 685.984759 204.042575 
L 687.452203 181.222916 
L 688.919647 179.667075 
L 690.387091 184.711499 
L 691.854535 174.721745 
L 693.321979 183.994999 
L 694.789422 183.375154 
L 696.256866 185.211867 
L 697.72431 192.709246 
L 699.191754 194.511148 
L 700.659198 188.227793 
L 702.126642 194.698227 
L 703.594086 198.590072 
L 705.06153 196.736513 
L 706.528974 189.144139 
L 707.996418 202.391843 
L 709.463862 196.503516 
L 710.931306 205.683211 
L 712.39875 188.531839 
L 713.866194 183.967373 
L 715.333638 173.130312 
L 716.801082 176.200763 
L 718.268526 187.160088 
L 719.73597 195.779932 
L 721.203414 182.752294 
L 722.670858 185.743377 
L 724.138302 182.014377 
L 725.605746 199.411534 
L 727.07319 193.037844 
L 728.540634 182.824256 
L 730.008078 183.989716 
L 731.475522 186.616551 
L 732.942966 207.462972 
L 734.41041 202.718628 
L 735.877854 202.732976 
L 737.345298 205.508911 
L 738.812742 195.016647 
L 740.280186 212.892239 
L 741.74763 188.327921 
L 743.215074 195.952548 
L 744.682518 192.076242 
L 746.149962 185.277547 
L 747.617406 188.429075 
L 749.08485 198.116771 
L 750.552294 191.67876 
L 752.019738 215.240175 
L 753.487182 230.646124 
L 754.954626 208.938999 
L 756.42207 202.335232 
L 757.889514 204.400586 
L 759.356958 204.120971 
L 760.824402 200.194371 
L 762.291846 198.87692 
L 763.759289 192.784745 
L 765.226733 196.708541 
L 766.694177 211.735453 
L 768.161621 196.535848 
L 769.629065 214.724423 
L 771.096509 196.947479 
L 772.563953 199.995966 
L 774.031397 205.052618 
L 775.498841 196.253643 
L 776.966285 210.987276 
L 778.433729 204.269845 
L 779.901173 213.17732 
L 781.368617 216.755044 
L 782.836061 199.378946 
L 785.770949 205.75699 
L 787.238393 207.266165 
L 791.640725 162.768891 
L 793.108169 171.236886 
L 794.575613 162.72606 
L 796.043057 166.786463 
L 797.510501 165.90844 
L 798.977945 165.66736 
L 800.445389 203.865095 
L 801.912833 191.290126 
L 803.380277 181.218373 
L 804.847721 174.857024 
L 806.315165 181.788537 
L 807.782609 177.613415 
L 809.250053 180.443571 
L 810.717497 173.322459 
L 812.184941 187.22273 
L 813.652385 183.363668 
L 815.119829 171.770776 
L 816.587273 183.180609 
L 816.587273 183.180609 
" clip-path="url(#p9c0a138a9e)" style="fill: none; stroke: #ff1493; stroke-width: 1.2; stroke-linecap: square"/>
   </g>
   <g id="patch_3">
    <path d="M 47.72 246.04 
L 47.72 26.88 
" style="fill: none; stroke: #000000; stroke-width: 0.8; stroke-linejoin: miter; stroke-linecap: square"/>
   </g>
   <g id="patch_4">
    <path d="M 853.2 246.04 
L 853.2 26.88 
" style="fill: none; stroke: #000000; stroke-width: 0.8; stroke-linejoin: miter; stroke-linecap: square"/>
   </g>
   <g id="patch_5">
    <path d="M 47.72 246.04 
L 853.2 246.04 
" style="fill: none; stroke: #000000; stroke-width: 0.8; stroke-linejoin: miter; stroke-linecap: square"/>
   </g>
   <g id="patch_6">
    <path d="M 47.72 26.88 
L 853.2 26.88 
" style="fill: none; stroke: #000000; stroke-width: 0.8; stroke-linejoin: miter; stroke-linecap: square"/>
   </g>
   <g id="text_16">
    <!-- chr16 region 46: old vs DNA+5mC HyenaDNA -->
    <g transform="translate(312.821875 20.88) scale(0.12 -0.12)">
     <defs>
      <path id="DejaVuSans-3a" d="M 750 794 
L 1409 794 
L 1409 0 
L 750 0 
L 750 794 
z
M 750 3309 
L 1409 3309 
L 1409 2516 
L 750 2516 
L 750 3309 
z
" transform="scale(0.015625)"/>
      <path id="DejaVuSans-76" d="M 191 3500 
L 800 3500 
L 1894 563 
L 2988 3500 
L 3597 3500 
L 2284 0 
L 1503 0 
L 191 3500 
z
" transform="scale(0.015625)"/>
      <path id="DejaVuSans-44" d="M 1259 4147 
L 1259 519 
L 2022 519 
Q 2988 519 3436 956 
Q 3884 1394 3884 2338 
Q 3884 3275 3436 3711 
Q 2988 4147 2022 4147 
L 1259 4147 
z
M 628 4666 
L 1925 4666 
Q 3281 4666 3915 4102 
Q 4550 3538 4550 2338 
Q 4550 1131 3912 565 
Q 3275 0 1925 0 
L 628 0 
L 628 4666 
z
" transform="scale(0.015625)"/>
      <path id="DejaVuSans-4e" d="M 628 4666 
L 1478 4666 
L 3547 763 
L 3547 4666 
L 4159 4666 
L 4159 0 
L 3309 0 
L 1241 3903 
L 1241 0 
L 628 0 
L 628 4666 
z
" transform="scale(0.015625)"/>
      <path id="DejaVuSans-41" d="M 2188 4044 
L 1331 1722 
L 3047 1722 
L 2188 4044 
z
M 1831 4666 
L 2547 4666 
L 4325 0 
L 3669 0 
L 3244 1197 
L 1141 1197 
L 716 0 
L 50 0 
L 1831 4666 
z
" transform="scale(0.015625)"/>
      <path id="DejaVuSans-2b" d="M 2944 4013 
L 2944 2272 
L 4684 2272 
L 4684 1741 
L 2944 1741 
L 2944 0 
L 2419 0 
L 2419 1741 
L 678 1741 
L 678 2272 
L 2419 2272 
L 2419 4013 
L 2944 4013 
z
" transform="scale(0.015625)"/>
      <path id="DejaVuSans-48" d="M 628 4666 
L 1259 4666 
L 1259 2753 
L 3553 2753 
L 3553 4666 
L 4184 4666 
L 4184 0 
L 3553 0 
L 3553 2222 
L 1259 2222 
L 1259 0 
L 628 0 
L 628 4666 
z
" transform="scale(0.015625)"/>
      <path id="DejaVuSans-79" d="M 2059 -325 
Q 1816 -950 1584 -1140 
Q 1353 -1331 966 -1331 
L 506 -1331 
L 506 -850 
L 844 -850 
Q 1081 -850 1212 -737 
Q 1344 -625 1503 -206 
L 1606 56 
L 191 3500 
L 800 3500 
L 1894 763 
L 2988 3500 
L 3597 3500 
L 2059 -325 
z
" transform="scale(0.015625)"/>
     </defs>
     <use xlink:href="#DejaVuSans-63"/>
     <use xlink:href="#DejaVuSans-68" transform="translate(54.980469 0)"/>
     <use xlink:href="#DejaVuSans-72" transform="translate(118.359375 0)"/>
     <use xlink:href="#DejaVuSans-31" transform="translate(159.472656 0)"/>
     <use xlink:href="#DejaVuSans-36" transform="translate(223.095703 0)"/>
     <use xlink:href="#DejaVuSans-20" transform="translate(286.71875 0)"/>
     <use xlink:href="#DejaVuSans-72" transform="translate(318.505859 0)"/>
     <use xlink:href="#DejaVuSans-65" transform="translate(357.369141 0)"/>
     <use xlink:href="#DejaVuSans-67" transform="translate(418.892578 0)"/>
     <use xlink:href="#DejaVuSans-69" transform="translate(482.369141 0)"/>
     <use xlink:href="#DejaVuSans-6f" transform="translate(510.152344 0)"/>
     <use xlink:href="#DejaVuSans-6e" transform="translate(571.333984 0)"/>
     <use xlink:href="#DejaVuSans-20" transform="translate(634.712891 0)"/>
     <use xlink:href="#DejaVuSans-34" transform="translate(666.5 0)"/>
     <use xlink:href="#DejaVuSans-36" transform="translate(730.123047 0)"/>
     <use xlink:href="#DejaVuSans-3a" transform="translate(793.746094 0)"/>
     <use xlink:href="#DejaVuSans-20" transform="translate(827.4375 0)"/>
     <use xlink:href="#DejaVuSans-6f" transform="translate(859.224609 0)"/>
     <use xlink:href="#DejaVuSans-6c" transform="translate(920.40625 0)"/>
     <use xlink:href="#DejaVuSans-64" transform="translate(948.189453 0)"/>
     <use xlink:href="#DejaVuSans-20" transform="translate(1011.666016 0)"/>
     <use xlink:href="#DejaVuSans-76" transform="translate(1043.453125 0)"/>
     <use xlink:href="#DejaVuSans-73" transform="translate(1102.632812 0)"/>
     <use xlink:href="#DejaVuSans-20" transform="translate(1154.732422 0)"/>
     <use xlink:href="#DejaVuSans-44" transform="translate(1186.519531 0)"/>
     <use xlink:href="#DejaVuSans-4e" transform="translate(1263.521484 0)"/>
     <use xlink:href="#DejaVuSans-41" transform="translate(1338.326172 0)"/>
     <use xlink:href="#DejaVuSans-2b" transform="translate(1406.734375 0)"/>
     <use xlink:href="#DejaVuSans-35" transform="translate(1490.523438 0)"/>
     <use xlink:href="#DejaVuSans-6d" transform="translate(1554.146484 0)"/>
     <use xlink:href="#DejaVuSans-43" transform="translate(1651.558594 0)"/>
     <use xlink:href="#DejaVuSans-20" transform="translate(1721.382812 0)"/>
     <use xlink:href="#DejaVuSans-48" transform="translate(1753.169922 0)"/>
     <use xlink:href="#DejaVuSans-79" transform="translate(1828.365234 0)"/>
     <use xlink:href="#DejaVuSans-65" transform="translate(1887.544922 0)"/>
     <use xlink:href="#DejaVuSans-6e" transform="translate(1949.068359 0)"/>
     <use xlink:href="#DejaVuSans-61" transform="translate(2012.447266 0)"/>
     <use xlink:href="#DejaVuSans-44" transform="translate(2073.726562 0)"/>
     <use xlink:href="#DejaVuSans-4e" transform="translate(2150.728516 0)"/>
     <use xlink:href="#DejaVuSans-41" transform="translate(2225.533203 0)"/>
    </g>
   </g>
   <g id="legend_1">
    <g id="patch_7">
     <path d="M 573.38125 68.5075 
L 847.6 68.5075 
Q 849.2 68.5075 849.2 66.9075 
L 849.2 32.48 
Q 849.2 30.88 847.6 30.88 
L 573.38125 30.88 
Q 571.78125 30.88 571.78125 32.48 
L 571.78125 66.9075 
Q 571.78125 68.5075 573.38125 68.5075 
z
" style="fill: #ffffff; opacity: 0.8; stroke: #cccccc; stroke-linejoin: miter"/>
    </g>
    <g id="line2d_18">
     <path d="M 574.98125 37.35875 
L 582.98125 37.35875 
L 590.98125 37.35875 
" style="fill: none; stroke: #2ca02c; stroke-width: 1.2; stroke-linecap: square"/>
    </g>
    <g id="text_17">
     <!-- ENCODE A549 H3K4me3 -->
     <g transform="translate(597.38125 40.15875) scale(0.08 -0.08)">
      <defs>
       <path id="DejaVuSans-45" d="M 628 4666 
L 3578 4666 
L 3578 4134 
L 1259 4134 
L 1259 2753 
L 3481 2753 
L 3481 2222 
L 1259 2222 
L 1259 531 
L 3634 531 
L 3634 0 
L 628 0 
L 628 4666 
z
" transform="scale(0.015625)"/>
       <path id="DejaVuSans-4f" d="M 2522 4238 
Q 1834 4238 1429 3725 
Q 1025 3213 1025 2328 
Q 1025 1447 1429 934 
Q 1834 422 2522 422 
Q 3209 422 3611 934 
Q 4013 1447 4013 2328 
Q 4013 3213 3611 3725 
Q 3209 4238 2522 4238 
z
M 2522 4750 
Q 3503 4750 4090 4092 
Q 4678 3434 4678 2328 
Q 4678 1225 4090 567 
Q 3503 -91 2522 -91 
Q 1538 -91 948 565 
Q 359 1222 359 2328 
Q 359 3434 948 4092 
Q 1538 4750 2522 4750 
z
" transform="scale(0.015625)"/>
       <path id="DejaVuSans-39" d="M 703 97 
L 703 672 
Q 941 559 1184 500 
Q 1428 441 1663 441 
Q 2288 441 2617 861 
Q 2947 1281 2994 2138 
Q 2813 1869 2534 1725 
Q 2256 1581 1919 1581 
Q 1219 1581 811 2004 
Q 403 2428 403 3163 
Q 403 3881 828 4315 
Q 1253 4750 1959 4750 
Q 2769 4750 3195 4129 
Q 3622 3509 3622 2328 
Q 3622 1225 3098 567 
Q 2575 -91 1691 -91 
Q 1453 -91 1209 -44 
Q 966 3 703 97 
z
M 1959 2075 
Q 2384 2075 2632 2365 
Q 2881 2656 2881 3163 
Q 2881 3666 2632 3958 
Q 2384 4250 1959 4250 
Q 1534 4250 1286 3958 
Q 1038 3666 1038 3163 
Q 1038 2656 1286 2365 
Q 1534 2075 1959 2075 
z
" transform="scale(0.015625)"/>
       <path id="DejaVuSans-4b" d="M 628 4666 
L 1259 4666 
L 1259 2694 
L 3353 4666 
L 4166 4666 
L 1850 2491 
L 4331 0 
L 3500 0 
L 1259 2247 
L 1259 0 
L 628 0 
L 628 4666 
z
" transform="scale(0.015625)"/>
      </defs>
      <use xlink:href="#DejaVuSans-45"/>
      <use xlink:href="#DejaVuSans-4e" transform="translate(63.183594 0)"/>
      <use xlink:href="#DejaVuSans-43" transform="translate(137.988281 0)"/>
      <use xlink:href="#DejaVuSans-4f" transform="translate(207.8125 0)"/>
      <use xlink:href="#DejaVuSans-44" transform="translate(286.523438 0)"/>
      <use xlink:href="#DejaVuSans-45" transform="translate(363.525391 0)"/>
      <use xlink:href="#DejaVuSans-20" transform="translate(426.708984 0)"/>
      <use xlink:href="#DejaVuSans-41" transform="translate(458.496094 0)"/>
      <use xlink:href="#DejaVuSans-35" transform="translate(526.904297 0)"/>
      <use xlink:href="#DejaVuSans-34" transform="translate(590.527344 0)"/>
      <use xlink:href="#DejaVuSans-39" transform="translate(654.150391 0)"/>
      <use xlink:href="#DejaVuSans-20" transform="translate(717.773438 0)"/>
      <use xlink:href="#DejaVuSans-48" transform="translate(749.560547 0)"/>
      <use xlink:href="#DejaVuSans-33" transform="translate(824.755859 0)"/>
      <use xlink:href="#DejaVuSans-4b" transform="translate(888.378906 0)"/>
      <use xlink:href="#DejaVuSans-34" transform="translate(953.955078 0)"/>
      <use xlink:href="#DejaVuSans-6d" transform="translate(1017.578125 0)"/>
      <use xlink:href="#DejaVuSans-65" transform="translate(1114.990234 0)"/>
      <use xlink:href="#DejaVuSans-33" transform="translate(1176.513672 0)"/>
     </g>
    </g>
    <g id="line2d_19">
     <path d="M 574.98125 49.10125 
L 582.98125 49.10125 
L 590.98125 49.10125 
" style="fill: none; stroke: #000000; stroke-width: 1.2; stroke-linecap: square"/>
    </g>
    <g id="text_18">
     <!-- AlphaGenome A549 H3K4me3 -->
     <g transform="translate(597.38125 51.90125) scale(0.08 -0.08)">
      <defs>
       <path id="DejaVuSans-70" d="M 1159 525 
L 1159 -1331 
L 581 -1331 
L 581 3500 
L 1159 3500 
L 1159 2969 
Q 1341 3281 1617 3432 
Q 1894 3584 2278 3584 
Q 2916 3584 3314 3078 
Q 3713 2572 3713 1747 
Q 3713 922 3314 415 
Q 2916 -91 2278 -91 
Q 1894 -91 1617 61 
Q 1341 213 1159 525 
z
M 3116 1747 
Q 3116 2381 2855 2742 
Q 2594 3103 2138 3103 
Q 1681 3103 1420 2742 
Q 1159 2381 1159 1747 
Q 1159 1113 1420 752 
Q 1681 391 2138 391 
Q 2594 391 2855 752 
Q 3116 1113 3116 1747 
z
" transform="scale(0.015625)"/>
      </defs>
      <use xlink:href="#DejaVuSans-41"/>
      <use xlink:href="#DejaVuSans-6c" transform="translate(68.408203 0)"/>
      <use xlink:href="#DejaVuSans-70" transform="translate(96.191406 0)"/>
      <use xlink:href="#DejaVuSans-68" transform="translate(159.667969 0)"/>
      <use xlink:href="#DejaVuSans-61" transform="translate(223.046875 0)"/>
      <use xlink:href="#DejaVuSans-47" transform="translate(284.326172 0)"/>
      <use xlink:href="#DejaVuSans-65" transform="translate(361.816406 0)"/>
      <use xlink:href="#DejaVuSans-6e" transform="translate(423.339844 0)"/>
      <use xlink:href="#DejaVuSans-6f" transform="translate(486.71875 0)"/>
      <use xlink:href="#DejaVuSans-6d" transform="translate(547.900391 0)"/>
      <use xlink:href="#DejaVuSans-65" transform="translate(645.3125 0)"/>
      <use xlink:href="#DejaVuSans-20" transform="translate(706.835938 0)"/>
      <use xlink:href="#DejaVuSans-41" transform="translate(738.623047 0)"/>
      <use xlink:href="#DejaVuSans-35" transform="translate(807.03125 0)"/>
      <use xlink:href="#DejaVuSans-34" transform="translate(870.654297 0)"/>
      <use xlink:href="#DejaVuSans-39" transform="translate(934.277344 0)"/>
      <use xlink:href="#DejaVuSans-20" transform="translate(997.900391 0)"/>
      <use xlink:href="#DejaVuSans-48" transform="translate(1029.6875 0)"/>
      <use xlink:href="#DejaVuSans-33" transform="translate(1104.882812 0)"/>
      <use xlink:href="#DejaVuSans-4b" transform="translate(1168.505859 0)"/>
      <use xlink:href="#DejaVuSans-34" transform="translate(1234.082031 0)"/>
      <use xlink:href="#DejaVuSans-6d" transform="translate(1297.705078 0)"/>
      <use xlink:href="#DejaVuSans-65" transform="translate(1395.117188 0)"/>
      <use xlink:href="#DejaVuSans-33" transform="translate(1456.640625 0)"/>
     </g>
    </g>
    <g id="line2d_20">
     <path d="M 574.98125 60.84375 
L 582.98125 60.84375 
L 590.98125 60.84375 
" style="fill: none; stroke: #ff7f0e; stroke-width: 1.2; stroke-linecap: square"/>
    </g>
    <g id="text_19">
     <!-- DiMeLo observed 6mA -->
     <g transform="translate(597.38125 63.64375) scale(0.08 -0.08)">
      <defs>
       <path id="DejaVuSans-4d" d="M 628 4666 
L 1569 4666 
L 2759 1491 
L 3956 4666 
L 4897 4666 
L 4897 0 
L 4281 0 
L 4281 4097 
L 3078 897 
L 2444 897 
L 1241 4097 
L 1241 0 
L 628 0 
L 628 4666 
z
" transform="scale(0.015625)"/>
       <path id="DejaVuSans-4c" d="M 628 4666 
L 1259 4666 
L 1259 531 
L 3531 531 
L 3531 0 
L 628 0 
L 628 4666 
z
" transform="scale(0.015625)"/>
      </defs>
      <use xlink:href="#DejaVuSans-44"/>
      <use xlink:href="#DejaVuSans-69" transform="translate(77.001953 0)"/>
      <use xlink:href="#DejaVuSans-4d" transform="translate(104.785156 0)"/>
      <use xlink:href="#DejaVuSans-65" transform="translate(191.064453 0)"/>
      <use xlink:href="#DejaVuSans-4c" transform="translate(252.587891 0)"/>
      <use xlink:href="#DejaVuSans-6f" transform="translate(306.550781 0)"/>
      <use xlink:href="#DejaVuSans-20" transform="translate(367.732422 0)"/>
      <use xlink:href="#DejaVuSans-6f" transform="translate(399.519531 0)"/>
      <use xlink:href="#DejaVuSans-62" transform="translate(460.701172 0)"/>
      <use xlink:href="#DejaVuSans-73" transform="translate(524.177734 0)"/>
      <use xlink:href="#DejaVuSans-65" transform="translate(576.277344 0)"/>
      <use xlink:href="#DejaVuSans-72" transform="translate(637.800781 0)"/>
      <use xlink:href="#DejaVuSans-76" transform="translate(678.914062 0)"/>
      <use xlink:href="#DejaVuSans-65" transform="translate(738.09375 0)"/>
      <use xlink:href="#DejaVuSans-64" transform="translate(799.617188 0)"/>
      <use xlink:href="#DejaVuSans-20" transform="translate(863.09375 0)"/>
      <use xlink:href="#DejaVuSans-36" transform="translate(894.880859 0)"/>
      <use xlink:href="#DejaVuSans-6d" transform="translate(958.503906 0)"/>
      <use xlink:href="#DejaVuSans-41" transform="translate(1055.916016 0)"/>
     </g>
    </g>
    <g id="line2d_21">
     <path d="M 735.00375 37.35875 
L 743.00375 37.35875 
L 751.00375 37.35875 
" style="fill: none; stroke: #9467bd; stroke-width: 1.2; stroke-linecap: square"/>
    </g>
    <g id="text_20">
     <!-- HyenaDNA old -->
     <g transform="translate(757.40375 40.15875) scale(0.08 -0.08)">
      <use xlink:href="#DejaVuSans-48"/>
      <use xlink:href="#DejaVuSans-79" transform="translate(75.195312 0)"/>
      <use xlink:href="#DejaVuSans-65" transform="translate(134.375 0)"/>
      <use xlink:href="#DejaVuSans-6e" transform="translate(195.898438 0)"/>
      <use xlink:href="#DejaVuSans-61" transform="translate(259.277344 0)"/>
      <use xlink:href="#DejaVuSans-44" transform="translate(320.556641 0)"/>
      <use xlink:href="#DejaVuSans-4e" transform="translate(397.558594 0)"/>
      <use xlink:href="#DejaVuSans-41" transform="translate(472.363281 0)"/>
      <use xlink:href="#DejaVuSans-20" transform="translate(540.771484 0)"/>
      <use xlink:href="#DejaVuSans-6f" transform="translate(572.558594 0)"/>
      <use xlink:href="#DejaVuSans-6c" transform="translate(633.740234 0)"/>
      <use xlink:href="#DejaVuSans-64" transform="translate(661.523438 0)"/>
     </g>
    </g>
    <g id="line2d_22">
     <path d="M 735.00375 49.10125 
L 743.00375 49.10125 
L 751.00375 49.10125 
" style="fill: none; stroke: #ff1493; stroke-width: 1.2; stroke-linecap: square"/>
    </g>
    <g id="text_21">
     <!-- HyenaDNA DNA+5mC -->
     <g transform="translate(757.40375 51.90125) scale(0.08 -0.08)">
      <use xlink:href="#DejaVuSans-48"/>
      <use xlink:href="#DejaVuSans-79" transform="translate(75.195312 0)"/>
      <use xlink:href="#DejaVuSans-65" transform="translate(134.375 0)"/>
      <use xlink:href="#DejaVuSans-6e" transform="translate(195.898438 0)"/>
      <use xlink:href="#DejaVuSans-61" transform="translate(259.277344 0)"/>
      <use xlink:href="#DejaVuSans-44" transform="translate(320.556641 0)"/>
      <use xlink:href="#DejaVuSans-4e" transform="translate(397.558594 0)"/>
      <use xlink:href="#DejaVuSans-41" transform="translate(472.363281 0)"/>
      <use xlink:href="#DejaVuSans-20" transform="translate(540.771484 0)"/>
      <use xlink:href="#DejaVuSans-44" transform="translate(572.558594 0)"/>
      <use xlink:href="#DejaVuSans-4e" transform="translate(649.560547 0)"/>
      <use xlink:href="#DejaVuSans-41" transform="translate(724.365234 0)"/>
      <use xlink:href="#DejaVuSans-2b" transform="translate(792.773438 0)"/>
      <use xlink:href="#DejaVuSans-35" transform="translate(876.5625 0)"/>
      <use xlink:href="#DejaVuSans-6d" transform="translate(940.185547 0)"/>
      <use xlink:href="#DejaVuSans-43" transform="translate(1037.597656 0)"/>
     </g>
    </g>
   </g>
  </g>
 </g>
 <defs>
  <clipPath id="p9c0a138a9e">
   <rect x="47.72" y="26.88" width="805.48" height="219.16"/>
  </clipPath>
 </defs>
</svg>
