<?xml version="1.0" encoding="utf-8" standalone="no"?>
<!DOCTYPE svg PUBLIC "-//W3C//DTD SVG 1.1//EN"
  "http://www.w3.org/Graphics/SVG/1.1/DTD/svg11.dtd">
<svg xmlns:xlink="http://www.w3.org/1999/xlink" width="864pt" height="288pt" viewBox="0 0 864 288" xmlns="http://www.w3.org/2000/svg" version="1.1">
 <metadata>
  <rdf:RDF xmlns:dc="http://purl.org/dc/elements/1.1/" xmlns:cc="http://creativecommons.org/ns#" xmlns:rdf="http://www.w3.org/1999/02/22-rdf-syntax-ns#">
   <cc:Work>
    <dc:type rdf:resource="http://purl.org/dc/dcmitype/StillImage"/>
    <dc:date>2026-07-18T10:44:59.852362</dc:date>
    <dc:format>image/svg+xml</dc:format>
    <dc:creator>
     <cc:Agent>
      <dc:title>Matplotlib v3.10.8, https://matplotlib.org/</dc:title>
     </cc:Agent>
    </dc:creator>
   </cc:Work>
  </rdf:RDF>
 </metadata>
 <defs>
  <style type="text/css">*{stroke-linejoin: round; stroke-linecap: butt}</style>
 </defs>
 <g id="figure_1">
  <g id="patch_1">
   <path d="M 0 288 
L 864 288 
L 864 0 
L 0 0 
z
" style="fill: #ffffff"/>
  </g>
  <g id="axes_1">
   <g id="patch_2">
    <path d="M 47.72 246.04 
L 853.2 246.04 
L 853.2 26.88 
L 47.72 26.88 
z
" style="fill: #ffffff"/>
   </g>
   <g id="matplotlib.axis_1">
    <g id="xtick_1">
     <g id="line2d_1">
      <defs>
       <path id="m76533fe245" d="M 0 0 
L 0 3.5 
" style="stroke: #000000; stroke-width: 0.8"/>
      </defs>
      <g>
       <use xlink:href="#m76533fe245" x="83.599005" y="246.04" style="stroke: #000000; stroke-width: 0.8"/>
      </g>
     </g>
     <g id="text_1">
      <!-- 3.090 -->
      <g transform="translate(69.284943 260.638438) scale(0.1 -0.1)">
       <defs>
        <path id="DejaVuSans-33" d="M 2597 2516 
Q 3050 2419 3304 2112 
Q 3559 1806 3559 1356 
Q 3559 666 3084 287 
Q 2609 -91 1734 -91 
Q 1441 -91 1130 -33 
Q 819 25 488 141 
L 488 750 
Q 750 597 1062 519 
Q 1375 441 1716 441 
Q 2309 441 2620 675 
Q 2931 909 2931 1356 
Q 2931 1769 2642 2001 
Q 2353 2234 1838 2234 
L 1294 2234 
L 1294 2753 
L 1863 2753 
Q 2328 2753 2575 2939 
Q 2822 3125 2822 3475 
Q 2822 3834 2567 4026 
Q 2313 4219 1838 4219 
Q 1578 4219 1281 4162 
Q 984 4106 628 3988 
L 628 4550 
Q 988 4650 1302 4700 
Q 1616 4750 1894 4750 
Q 2613 4750 3031 4423 
Q 3450 4097 3450 3541 
Q 3450 3153 3228 2886 
Q 3006 2619 2597 2516 
z
" transform="scale(0.015625)"/>
        <path id="DejaVuSans-2e" d="M 684 794 
L 1344 794 
L 1344 0 
L 684 0 
L 684 794 
z
" transform="scale(0.015625)"/>
        <path id="DejaVuSans-30" d="M 2034 4250 
Q 1547 4250 1301 3770 
Q 1056 3291 1056 2328 
Q 1056 1369 1301 889 
Q 1547 409 2034 409 
Q 2525 409 2770 889 
Q 3016 1369 3016 2328 
Q 3016 3291 2770 3770 
Q 2525 4250 2034 4250 
z
M 2034 4750 
Q 2819 4750 3233 4129 
Q 3647 3509 3647 2328 
Q 3647 1150 3233 529 
Q 2819 -91 2034 -91 
Q 1250 -91 836 529 
Q 422 1150 422 2328 
Q 422 3509 836 4129 
Q 1250 4750 2034 4750 
z
" transform="scale(0.015625)"/>
        <path id="DejaVuSans-39" d="M 703 97 
L 703 672 
Q 941 559 1184 500 
Q 1428 441 1663 441 
Q 2288 441 2617 861 
Q 2947 1281 2994 2138 
Q 2813 1869 2534 1725 
Q 2256 1581 1919 1581 
Q 1219 1581 811 2004 
Q 403 2428 403 3163 
Q 403 3881 828 4315 
Q 1253 4750 1959 4750 
Q 2769 4750 3195 4129 
Q 3622 3509 3622 2328 
Q 3622 1225 3098 567 
Q 2575 -91 1691 -91 
Q 1453 -91 1209 -44 
Q 966 3 703 97 
z
M 1959 2075 
Q 2384 2075 2632 2365 
Q 2881 2656 2881 3163 
Q 2881 3666 2632 3958 
Q 2384 4250 1959 4250 
Q 1534 4250 1286 3958 
Q 1038 3666 1038 3163 
Q 1038 2656 1286 2365 
Q 1534 2075 1959 2075 
z
" transform="scale(0.015625)"/>
       </defs>
       <use xlink:href="#DejaVuSans-33"/>
       <use xlink:href="#DejaVuSans-2e" transform="translate(63.623047 0)"/>
       <use xlink:href="#DejaVuSans-30" transform="translate(95.410156 0)"/>
       <use xlink:href="#DejaVuSans-39" transform="translate(159.033203 0)"/>
       <use xlink:href="#DejaVuSans-30" transform="translate(222.65625 0)"/>
      </g>
     </g>
    </g>
    <g id="xtick_2">
     <g id="line2d_2">
      <g>
       <use xlink:href="#m76533fe245" x="230.343403" y="246.04" style="stroke: #000000; stroke-width: 0.8"/>
      </g>
     </g>
     <g id="text_2">
      <!-- 3.092 -->
      <g transform="translate(216.029341 260.638438) scale(0.1 -0.1)">
       <defs>
        <path id="DejaVuSans-32" d="M 1228 531 
L 3431 531 
L 3431 0 
L 469 0 
L 469 531 
Q 828 903 1448 1529 
Q 2069 2156 2228 2338 
Q 2531 2678 2651 2914 
Q 2772 3150 2772 3378 
Q 2772 3750 2511 3984 
Q 2250 4219 1831 4219 
Q 1534 4219 1204 4116 
Q 875 4013 500 3803 
L 500 4441 
Q 881 4594 1212 4672 
Q 1544 4750 1819 4750 
Q 2544 4750 2975 4387 
Q 3406 4025 3406 3419 
Q 3406 3131 3298 2873 
Q 3191 2616 2906 2266 
Q 2828 2175 2409 1742 
Q 1991 1309 1228 531 
z
" transform="scale(0.015625)"/>
       </defs>
       <use xlink:href="#DejaVuSans-33"/>
       <use xlink:href="#DejaVuSans-2e" transform="translate(63.623047 0)"/>
       <use xlink:href="#DejaVuSans-30" transform="translate(95.410156 0)"/>
       <use xlink:href="#DejaVuSans-39" transform="translate(159.033203 0)"/>
       <use xlink:href="#DejaVuSans-32" transform="translate(222.65625 0)"/>
      </g>
     </g>
    </g>
    <g id="xtick_3">
     <g id="line2d_3">
      <g>
       <use xlink:href="#m76533fe245" x="377.087801" y="246.04" style="stroke: #000000; stroke-width: 0.8"/>
      </g>
     </g>
     <g id="text_3">
      <!-- 3.094 -->
      <g transform="translate(362.773739 260.638438) scale(0.1 -0.1)">
       <defs>
        <path id="DejaVuSans-34" d="M 2419 4116 
L 825 1625 
L 2419 1625 
L 2419 4116 
z
M 2253 4666 
L 3047 4666 
L 3047 1625 
L 3713 1625 
L 3713 1100 
L 3047 1100 
L 3047 0 
L 2419 0 
L 2419 1100 
L 313 1100 
L 313 1709 
L 2253 4666 
z
" transform="scale(0.015625)"/>
       </defs>
       <use xlink:href="#DejaVuSans-33"/>
       <use xlink:href="#DejaVuSans-2e" transform="translate(63.623047 0)"/>
       <use xlink:href="#DejaVuSans-30" transform="translate(95.410156 0)"/>
       <use xlink:href="#DejaVuSans-39" transform="translate(159.033203 0)"/>
       <use xlink:href="#DejaVuSans-34" transform="translate(222.65625 0)"/>
      </g>
     </g>
    </g>
    <g id="xtick_4">
     <g id="line2d_4">
      <g>
       <use xlink:href="#m76533fe245" x="523.832199" y="246.04" style="stroke: #000000; stroke-width: 0.8"/>
      </g>
     </g>
     <g id="text_4">
      <!-- 3.096 -->
      <g transform="translate(509.518136 260.638438) scale(0.1 -0.1)">
       <defs>
        <path id="DejaVuSans-36" d="M 2113 2584 
Q 1688 2584 1439 2293 
Q 1191 2003 1191 1497 
Q 1191 994 1439 701 
Q 1688 409 2113 409 
Q 2538 409 2786 701 
Q 3034 994 3034 1497 
Q 3034 2003 2786 2293 
Q 2538 2584 2113 2584 
z
M 3366 4563 
L 3366 3988 
Q 3128 4100 2886 4159 
Q 2644 4219 2406 4219 
Q 1781 4219 1451 3797 
Q 1122 3375 1075 2522 
Q 1259 2794 1537 2939 
Q 1816 3084 2150 3084 
Q 2853 3084 3261 2657 
Q 3669 2231 3669 1497 
Q 3669 778 3244 343 
Q 2819 -91 2113 -91 
Q 1303 -91 875 529 
Q 447 1150 447 2328 
Q 447 3434 972 4092 
Q 1497 4750 2381 4750 
Q 2619 4750 2861 4703 
Q 3103 4656 3366 4563 
z
" transform="scale(0.015625)"/>
       </defs>
       <use xlink:href="#DejaVuSans-33"/>
       <use xlink:href="#DejaVuSans-2e" transform="translate(63.623047 0)"/>
       <use xlink:href="#DejaVuSans-30" transform="translate(95.410156 0)"/>
       <use xlink:href="#DejaVuSans-39" transform="translate(159.033203 0)"/>
       <use xlink:href="#DejaVuSans-36" transform="translate(222.65625 0)"/>
      </g>
     </g>
    </g>
    <g id="xtick_5">
     <g id="line2d_5">
      <g>
       <use xlink:href="#m76533fe245" x="670.576597" y="246.04" style="stroke: #000000; stroke-width: 0.8"/>
      </g>
     </g>
     <g id="text_5">
      <!-- 3.098 -->
      <g transform="translate(656.262534 260.638438) scale(0.1 -0.1)">
       <defs>
        <path id="DejaVuSans-38" d="M 2034 2216 
Q 1584 2216 1326 1975 
Q 1069 1734 1069 1313 
Q 1069 891 1326 650 
Q 1584 409 2034 409 
Q 2484 409 2743 651 
Q 3003 894 3003 1313 
Q 3003 1734 2745 1975 
Q 2488 2216 2034 2216 
z
M 1403 2484 
Q 997 2584 770 2862 
Q 544 3141 544 3541 
Q 544 4100 942 4425 
Q 1341 4750 2034 4750 
Q 2731 4750 3128 4425 
Q 3525 4100 3525 3541 
Q 3525 3141 3298 2862 
Q 3072 2584 2669 2484 
Q 3125 2378 3379 2068 
Q 3634 1759 3634 1313 
Q 3634 634 3220 271 
Q 2806 -91 2034 -91 
Q 1263 -91 848 271 
Q 434 634 434 1313 
Q 434 1759 690 2068 
Q 947 2378 1403 2484 
z
M 1172 3481 
Q 1172 3119 1398 2916 
Q 1625 2713 2034 2713 
Q 2441 2713 2670 2916 
Q 2900 3119 2900 3481 
Q 2900 3844 2670 4047 
Q 2441 4250 2034 4250 
Q 1625 4250 1398 4047 
Q 1172 3844 1172 3481 
z
" transform="scale(0.015625)"/>
       </defs>
       <use xlink:href="#DejaVuSans-33"/>
       <use xlink:href="#DejaVuSans-2e" transform="translate(63.623047 0)"/>
       <use xlink:href="#DejaVuSans-30" transform="translate(95.410156 0)"/>
       <use xlink:href="#DejaVuSans-39" transform="translate(159.033203 0)"/>
       <use xlink:href="#DejaVuSans-38" transform="translate(222.65625 0)"/>
      </g>
     </g>
    </g>
    <g id="xtick_6">
     <g id="line2d_6">
      <g>
       <use xlink:href="#m76533fe245" x="817.320995" y="246.04" style="stroke: #000000; stroke-width: 0.8"/>
      </g>
     </g>
     <g id="text_6">
      <!-- 3.100 -->
      <g transform="translate(803.006932 260.638438) scale(0.1 -0.1)">
       <defs>
        <path id="DejaVuSans-31" d="M 794 531 
L 1825 531 
L 1825 4091 
L 703 3866 
L 703 4441 
L 1819 4666 
L 2450 4666 
L 2450 531 
L 3481 531 
L 3481 0 
L 794 0 
L 794 531 
z
" transform="scale(0.015625)"/>
       </defs>
       <use xlink:href="#DejaVuSans-33"/>
       <use xlink:href="#DejaVuSans-2e" transform="translate(63.623047 0)"/>
       <use xlink:href="#DejaVuSans-31" transform="translate(95.410156 0)"/>
       <use xlink:href="#DejaVuSans-30" transform="translate(159.033203 0)"/>
       <use xlink:href="#DejaVuSans-30" transform="translate(222.65625 0)"/>
      </g>
     </g>
    </g>
    <g id="text_7">
     <!-- chr16 coordinate (GRCh38) -->
     <g transform="translate(382.254531 274.316562) scale(0.1 -0.1)">
      <defs>
       <path id="DejaVuSans-63" d="M 3122 3366 
L 3122 2828 
Q 2878 2963 2633 3030 
Q 2388 3097 2138 3097 
Q 1578 3097 1268 2742 
Q 959 2388 959 1747 
Q 959 1106 1268 751 
Q 1578 397 2138 397 
Q 2388 397 2633 464 
Q 2878 531 3122 666 
L 3122 134 
Q 2881 22 2623 -34 
Q 2366 -91 2075 -91 
Q 1284 -91 818 406 
Q 353 903 353 1747 
Q 353 2603 823 3093 
Q 1294 3584 2113 3584 
Q 2378 3584 2631 3529 
Q 2884 3475 3122 3366 
z
" transform="scale(0.015625)"/>
       <path id="DejaVuSans-68" d="M 3513 2113 
L 3513 0 
L 2938 0 
L 2938 2094 
Q 2938 2591 2744 2837 
Q 2550 3084 2163 3084 
Q 1697 3084 1428 2787 
Q 1159 2491 1159 1978 
L 1159 0 
L 581 0 
L 581 4863 
L 1159 4863 
L 1159 2956 
Q 1366 3272 1645 3428 
Q 1925 3584 2291 3584 
Q 2894 3584 3203 3211 
Q 3513 2838 3513 2113 
z
" transform="scale(0.015625)"/>
       <path id="DejaVuSans-72" d="M 2631 2963 
Q 2534 3019 2420 3045 
Q 2306 3072 2169 3072 
Q 1681 3072 1420 2755 
Q 1159 2438 1159 1844 
L 1159 0 
L 581 0 
L 581 3500 
L 1159 3500 
L 1159 2956 
Q 1341 3275 1631 3429 
Q 1922 3584 2338 3584 
Q 2397 3584 2469 3576 
Q 2541 3569 2628 3553 
L 2631 2963 
z
" transform="scale(0.015625)"/>
       <path id="DejaVuSans-20" transform="scale(0.015625)"/>
       <path id="DejaVuSans-6f" d="M 1959 3097 
Q 1497 3097 1228 2736 
Q 959 2375 959 1747 
Q 959 1119 1226 758 
Q 1494 397 1959 397 
Q 2419 397 2687 759 
Q 2956 1122 2956 1747 
Q 2956 2369 2687 2733 
Q 2419 3097 1959 3097 
z
M 1959 3584 
Q 2709 3584 3137 3096 
Q 3566 2609 3566 1747 
Q 3566 888 3137 398 
Q 2709 -91 1959 -91 
Q 1206 -91 779 398 
Q 353 888 353 1747 
Q 353 2609 779 3096 
Q 1206 3584 1959 3584 
z
" transform="scale(0.015625)"/>
       <path id="DejaVuSans-64" d="M 2906 2969 
L 2906 4863 
L 3481 4863 
L 3481 0 
L 2906 0 
L 2906 525 
Q 2725 213 2448 61 
Q 2172 -91 1784 -91 
Q 1150 -91 751 415 
Q 353 922 353 1747 
Q 353 2572 751 3078 
Q 1150 3584 1784 3584 
Q 2172 3584 2448 3432 
Q 2725 3281 2906 2969 
z
M 947 1747 
Q 947 1113 1208 752 
Q 1469 391 1925 391 
Q 2381 391 2643 752 
Q 2906 1113 2906 1747 
Q 2906 2381 2643 2742 
Q 2381 3103 1925 3103 
Q 1469 3103 1208 2742 
Q 947 2381 947 1747 
z
" transform="scale(0.015625)"/>
       <path id="DejaVuSans-69" d="M 603 3500 
L 1178 3500 
L 1178 0 
L 603 0 
L 603 3500 
z
M 603 4863 
L 1178 4863 
L 1178 4134 
L 603 4134 
L 603 4863 
z
" transform="scale(0.015625)"/>
       <path id="DejaVuSans-6e" d="M 3513 2113 
L 3513 0 
L 2938 0 
L 2938 2094 
Q 2938 2591 2744 2837 
Q 2550 3084 2163 3084 
Q 1697 3084 1428 2787 
Q 1159 2491 1159 1978 
L 1159 0 
L 581 0 
L 581 3500 
L 1159 3500 
L 1159 2956 
Q 1366 3272 1645 3428 
Q 1925 3584 2291 3584 
Q 2894 3584 3203 3211 
Q 3513 2838 3513 2113 
z
" transform="scale(0.015625)"/>
       <path id="DejaVuSans-61" d="M 2194 1759 
Q 1497 1759 1228 1600 
Q 959 1441 959 1056 
Q 959 750 1161 570 
Q 1363 391 1709 391 
Q 2188 391 2477 730 
Q 2766 1069 2766 1631 
L 2766 1759 
L 2194 1759 
z
M 3341 1997 
L 3341 0 
L 2766 0 
L 2766 531 
Q 2569 213 2275 61 
Q 1981 -91 1556 -91 
Q 1019 -91 701 211 
Q 384 513 384 1019 
Q 384 1609 779 1909 
Q 1175 2209 1959 2209 
L 2766 2209 
L 2766 2266 
Q 2766 2663 2505 2880 
Q 2244 3097 1772 3097 
Q 1472 3097 1187 3025 
Q 903 2953 641 2809 
L 641 3341 
Q 956 3463 1253 3523 
Q 1550 3584 1831 3584 
Q 2591 3584 2966 3190 
Q 3341 2797 3341 1997 
z
" transform="scale(0.015625)"/>
       <path id="DejaVuSans-74" d="M 1172 4494 
L 1172 3500 
L 2356 3500 
L 2356 3053 
L 1172 3053 
L 1172 1153 
Q 1172 725 1289 603 
Q 1406 481 1766 481 
L 2356 481 
L 2356 0 
L 1766 0 
Q 1100 0 847 248 
Q 594 497 594 1153 
L 594 3053 
L 172 3053 
L 172 3500 
L 594 3500 
L 594 4494 
L 1172 4494 
z
" transform="scale(0.015625)"/>
       <path id="DejaVuSans-65" d="M 3597 1894 
L 3597 1613 
L 953 1613 
Q 991 1019 1311 708 
Q 1631 397 2203 397 
Q 2534 397 2845 478 
Q 3156 559 3463 722 
L 3463 178 
Q 3153 47 2828 -22 
Q 2503 -91 2169 -91 
Q 1331 -91 842 396 
Q 353 884 353 1716 
Q 353 2575 817 3079 
Q 1281 3584 2069 3584 
Q 2775 3584 3186 3129 
Q 3597 2675 3597 1894 
z
M 3022 2063 
Q 3016 2534 2758 2815 
Q 2500 3097 2075 3097 
Q 1594 3097 1305 2825 
Q 1016 2553 972 2059 
L 3022 2063 
z
" transform="scale(0.015625)"/>
       <path id="DejaVuSans-28" d="M 1984 4856 
Q 1566 4138 1362 3434 
Q 1159 2731 1159 2009 
Q 1159 1288 1364 580 
Q 1569 -128 1984 -844 
L 1484 -844 
Q 1016 -109 783 600 
Q 550 1309 550 2009 
Q 550 2706 781 3412 
Q 1013 4119 1484 4856 
L 1984 4856 
z
" transform="scale(0.015625)"/>
       <path id="DejaVuSans-47" d="M 3809 666 
L 3809 1919 
L 2778 1919 
L 2778 2438 
L 4434 2438 
L 4434 434 
Q 4069 175 3628 42 
Q 3188 -91 2688 -91 
Q 1594 -91 976 548 
Q 359 1188 359 2328 
Q 359 3472 976 4111 
Q 1594 4750 2688 4750 
Q 3144 4750 3555 4637 
Q 3966 4525 4313 4306 
L 4313 3634 
Q 3963 3931 3569 4081 
Q 3175 4231 2741 4231 
Q 1884 4231 1454 3753 
Q 1025 3275 1025 2328 
Q 1025 1384 1454 906 
Q 1884 428 2741 428 
Q 3075 428 3337 486 
Q 3600 544 3809 666 
z
" transform="scale(0.015625)"/>
       <path id="DejaVuSans-52" d="M 2841 2188 
Q 3044 2119 3236 1894 
Q 3428 1669 3622 1275 
L 4263 0 
L 3584 0 
L 2988 1197 
Q 2756 1666 2539 1819 
Q 2322 1972 1947 1972 
L 1259 1972 
L 1259 0 
L 628 0 
L 628 4666 
L 2053 4666 
Q 2853 4666 3247 4331 
Q 3641 3997 3641 3322 
Q 3641 2881 3436 2590 
Q 3231 2300 2841 2188 
z
M 1259 4147 
L 1259 2491 
L 2053 2491 
Q 2509 2491 2742 2702 
Q 2975 2913 2975 3322 
Q 2975 3731 2742 3939 
Q 2509 4147 2053 4147 
L 1259 4147 
z
" transform="scale(0.015625)"/>
       <path id="DejaVuSans-43" d="M 4122 4306 
L 4122 3641 
Q 3803 3938 3442 4084 
Q 3081 4231 2675 4231 
Q 1875 4231 1450 3742 
Q 1025 3253 1025 2328 
Q 1025 1406 1450 917 
Q 1875 428 2675 428 
Q 3081 428 3442 575 
Q 3803 722 4122 1019 
L 4122 359 
Q 3791 134 3420 21 
Q 3050 -91 2638 -91 
Q 1578 -91 968 557 
Q 359 1206 359 2328 
Q 359 3453 968 4101 
Q 1578 4750 2638 4750 
Q 3056 4750 3426 4639 
Q 3797 4528 4122 4306 
z
" transform="scale(0.015625)"/>
       <path id="DejaVuSans-29" d="M 513 4856 
L 1013 4856 
Q 1481 4119 1714 3412 
Q 1947 2706 1947 2009 
Q 1947 1309 1714 600 
Q 1481 -109 1013 -844 
L 513 -844 
Q 928 -128 1133 580 
Q 1338 1288 1338 2009 
Q 1338 2731 1133 3434 
Q 928 4138 513 4856 
z
" transform="scale(0.015625)"/>
      </defs>
      <use xlink:href="#DejaVuSans-63"/>
      <use xlink:href="#DejaVuSans-68" transform="translate(54.980469 0)"/>
      <use xlink:href="#DejaVuSans-72" transform="translate(118.359375 0)"/>
      <use xlink:href="#DejaVuSans-31" transform="translate(159.472656 0)"/>
      <use xlink:href="#DejaVuSans-36" transform="translate(223.095703 0)"/>
      <use xlink:href="#DejaVuSans-20" transform="translate(286.71875 0)"/>
      <use xlink:href="#DejaVuSans-63" transform="translate(318.505859 0)"/>
      <use xlink:href="#DejaVuSans-6f" transform="translate(373.486328 0)"/>
      <use xlink:href="#DejaVuSans-6f" transform="translate(434.667969 0)"/>
      <use xlink:href="#DejaVuSans-72" transform="translate(495.849609 0)"/>
      <use xlink:href="#DejaVuSans-64" transform="translate(535.212891 0)"/>
      <use xlink:href="#DejaVuSans-69" transform="translate(598.689453 0)"/>
      <use xlink:href="#DejaVuSans-6e" transform="translate(626.472656 0)"/>
      <use xlink:href="#DejaVuSans-61" transform="translate(689.851562 0)"/>
      <use xlink:href="#DejaVuSans-74" transform="translate(751.130859 0)"/>
      <use xlink:href="#DejaVuSans-65" transform="translate(790.339844 0)"/>
      <use xlink:href="#DejaVuSans-20" transform="translate(851.863281 0)"/>
      <use xlink:href="#DejaVuSans-28" transform="translate(883.650391 0)"/>
      <use xlink:href="#DejaVuSans-47" transform="translate(922.664062 0)"/>
      <use xlink:href="#DejaVuSans-52" transform="translate(1000.154297 0)"/>
      <use xlink:href="#DejaVuSans-43" transform="translate(1064.636719 0)"/>
      <use xlink:href="#DejaVuSans-68" transform="translate(1134.460938 0)"/>
      <use xlink:href="#DejaVuSans-33" transform="translate(1197.839844 0)"/>
      <use xlink:href="#DejaVuSans-38" transform="translate(1261.462891 0)"/>
      <use xlink:href="#DejaVuSans-29" transform="translate(1325.085938 0)"/>
     </g>
    </g>
    <g id="text_8">
     <!-- 1e7 -->
     <g transform="translate(834.321875 273.316562) scale(0.1 -0.1)">
      <defs>
       <path id="DejaVuSans-37" d="M 525 4666 
L 3525 4666 
L 3525 4397 
L 1831 0 
L 1172 0 
L 2766 4134 
L 525 4134 
L 525 4666 
z
" transform="scale(0.015625)"/>
      </defs>
      <use xlink:href="#DejaVuSans-31"/>
      <use xlink:href="#DejaVuSans-65" transform="translate(63.623047 0)"/>
      <use xlink:href="#DejaVuSans-37" transform="translate(125.146484 0)"/>
     </g>
    </g>
   </g>
   <g id="matplotlib.axis_2">
    <g id="ytick_1">
     <g id="line2d_7">
      <defs>
       <path id="mca0e38bea0" d="M 0 0 
L -3.5 0 
" style="stroke: #000000; stroke-width: 0.8"/>
      </defs>
      <g>
       <use xlink:href="#mca0e38bea0" x="47.72" y="236.078182" style="stroke: #000000; stroke-width: 0.8"/>
      </g>
     </g>
     <g id="text_9">
      <!-- 0.0 -->
      <g transform="translate(24.816875 239.877401) scale(0.1 -0.1)">
       <use xlink:href="#DejaVuSans-30"/>
       <use xlink:href="#DejaVuSans-2e" transform="translate(63.623047 0)"/>
       <use xlink:href="#DejaVuSans-30" transform="translate(95.410156 0)"/>
      </g>
     </g>
    </g>
    <g id="ytick_2">
     <g id="line2d_8">
      <g>
       <use xlink:href="#mca0e38bea0" x="47.72" y="196.230909" style="stroke: #000000; stroke-width: 0.8"/>
      </g>
     </g>
     <g id="text_10">
      <!-- 0.2 -->
      <g transform="translate(24.816875 200.030128) scale(0.1 -0.1)">
       <use xlink:href="#DejaVuSans-30"/>
       <use xlink:href="#DejaVuSans-2e" transform="translate(63.623047 0)"/>
       <use xlink:href="#DejaVuSans-32" transform="translate(95.410156 0)"/>
      </g>
     </g>
    </g>
    <g id="ytick_3">
     <g id="line2d_9">
      <g>
       <use xlink:href="#mca0e38bea0" x="47.72" y="156.383636" style="stroke: #000000; stroke-width: 0.8"/>
      </g>
     </g>
     <g id="text_11">
      <!-- 0.4 -->
      <g transform="translate(24.816875 160.182855) scale(0.1 -0.1)">
       <use xlink:href="#DejaVuSans-30"/>
       <use xlink:href="#DejaVuSans-2e" transform="translate(63.623047 0)"/>
       <use xlink:href="#DejaVuSans-34" transform="translate(95.410156 0)"/>
      </g>
     </g>
    </g>
    <g id="ytick_4">
     <g id="line2d_10">
      <g>
       <use xlink:href="#mca0e38bea0" x="47.72" y="116.536364" style="stroke: #000000; stroke-width: 0.8"/>
      </g>
     </g>
     <g id="text_12">
      <!-- 0.6 -->
      <g transform="translate(24.816875 120.335582) scale(0.1 -0.1)">
       <use xlink:href="#DejaVuSans-30"/>
       <use xlink:href="#DejaVuSans-2e" transform="translate(63.623047 0)"/>
       <use xlink:href="#DejaVuSans-36" transform="translate(95.410156 0)"/>
      </g>
     </g>
    </g>
    <g id="ytick_5">
     <g id="line2d_11">
      <g>
       <use xlink:href="#mca0e38bea0" x="47.72" y="76.689091" style="stroke: #000000; stroke-width: 0.8"/>
      </g>
     </g>
     <g id="text_13">
      <!-- 0.8 -->
      <g transform="translate(24.816875 80.48831) scale(0.1 -0.1)">
       <use xlink:href="#DejaVuSans-30"/>
       <use xlink:href="#DejaVuSans-2e" transform="translate(63.623047 0)"/>
       <use xlink:href="#DejaVuSans-38" transform="translate(95.410156 0)"/>
      </g>
     </g>
    </g>
    <g id="ytick_6">
     <g id="line2d_12">
      <g>
       <use xlink:href="#mca0e38bea0" x="47.72" y="36.841818" style="stroke: #000000; stroke-width: 0.8"/>
      </g>
     </g>
     <g id="text_14">
      <!-- 1.0 -->
      <g transform="translate(24.816875 40.641037) scale(0.1 -0.1)">
       <use xlink:href="#DejaVuSans-31"/>
       <use xlink:href="#DejaVuSans-2e" transform="translate(63.623047 0)"/>
       <use xlink:href="#DejaVuSans-30" transform="translate(95.410156 0)"/>
      </g>
     </g>
    </g>
    <g id="text_15">
     <!-- global robust-normalized signal -->
     <g transform="translate(18.737188 215.175625) rotate(-90) scale(0.1 -0.1)">
      <defs>
       <path id="DejaVuSans-67" d="M 2906 1791 
Q 2906 2416 2648 2759 
Q 2391 3103 1925 3103 
Q 1463 3103 1205 2759 
Q 947 2416 947 1791 
Q 947 1169 1205 825 
Q 1463 481 1925 481 
Q 2391 481 2648 825 
Q 2906 1169 2906 1791 
z
M 3481 434 
Q 3481 -459 3084 -895 
Q 2688 -1331 1869 -1331 
Q 1566 -1331 1297 -1286 
Q 1028 -1241 775 -1147 
L 775 -588 
Q 1028 -725 1275 -790 
Q 1522 -856 1778 -856 
Q 2344 -856 2625 -561 
Q 2906 -266 2906 331 
L 2906 616 
Q 2728 306 2450 153 
Q 2172 0 1784 0 
Q 1141 0 747 490 
Q 353 981 353 1791 
Q 353 2603 747 3093 
Q 1141 3584 1784 3584 
Q 2172 3584 2450 3431 
Q 2728 3278 2906 2969 
L 2906 3500 
L 3481 3500 
L 3481 434 
z
" transform="scale(0.015625)"/>
       <path id="DejaVuSans-6c" d="M 603 4863 
L 1178 4863 
L 1178 0 
L 603 0 
L 603 4863 
z
" transform="scale(0.015625)"/>
       <path id="DejaVuSans-62" d="M 3116 1747 
Q 3116 2381 2855 2742 
Q 2594 3103 2138 3103 
Q 1681 3103 1420 2742 
Q 1159 2381 1159 1747 
Q 1159 1113 1420 752 
Q 1681 391 2138 391 
Q 2594 391 2855 752 
Q 3116 1113 3116 1747 
z
M 1159 2969 
Q 1341 3281 1617 3432 
Q 1894 3584 2278 3584 
Q 2916 3584 3314 3078 
Q 3713 2572 3713 1747 
Q 3713 922 3314 415 
Q 2916 -91 2278 -91 
Q 1894 -91 1617 61 
Q 1341 213 1159 525 
L 1159 0 
L 581 0 
L 581 4863 
L 1159 4863 
L 1159 2969 
z
" transform="scale(0.015625)"/>
       <path id="DejaVuSans-75" d="M 544 1381 
L 544 3500 
L 1119 3500 
L 1119 1403 
Q 1119 906 1312 657 
Q 1506 409 1894 409 
Q 2359 409 2629 706 
Q 2900 1003 2900 1516 
L 2900 3500 
L 3475 3500 
L 3475 0 
L 2900 0 
L 2900 538 
Q 2691 219 2414 64 
Q 2138 -91 1772 -91 
Q 1169 -91 856 284 
Q 544 659 544 1381 
z
M 1991 3584 
L 1991 3584 
z
" transform="scale(0.015625)"/>
       <path id="DejaVuSans-73" d="M 2834 3397 
L 2834 2853 
Q 2591 2978 2328 3040 
Q 2066 3103 1784 3103 
Q 1356 3103 1142 2972 
Q 928 2841 928 2578 
Q 928 2378 1081 2264 
Q 1234 2150 1697 2047 
L 1894 2003 
Q 2506 1872 2764 1633 
Q 3022 1394 3022 966 
Q 3022 478 2636 193 
Q 2250 -91 1575 -91 
Q 1294 -91 989 -36 
Q 684 19 347 128 
L 347 722 
Q 666 556 975 473 
Q 1284 391 1588 391 
Q 1994 391 2212 530 
Q 2431 669 2431 922 
Q 2431 1156 2273 1281 
Q 2116 1406 1581 1522 
L 1381 1569 
Q 847 1681 609 1914 
Q 372 2147 372 2553 
Q 372 3047 722 3315 
Q 1072 3584 1716 3584 
Q 2034 3584 2315 3537 
Q 2597 3491 2834 3397 
z
" transform="scale(0.015625)"/>
       <path id="DejaVuSans-2d" d="M 313 2009 
L 1997 2009 
L 1997 1497 
L 313 1497 
L 313 2009 
z
" transform="scale(0.015625)"/>
       <path id="DejaVuSans-6d" d="M 3328 2828 
Q 3544 3216 3844 3400 
Q 4144 3584 4550 3584 
Q 5097 3584 5394 3201 
Q 5691 2819 5691 2113 
L 5691 0 
L 5113 0 
L 5113 2094 
Q 5113 2597 4934 2840 
Q 4756 3084 4391 3084 
Q 3944 3084 3684 2787 
Q 3425 2491 3425 1978 
L 3425 0 
L 2847 0 
L 2847 2094 
Q 2847 2600 2669 2842 
Q 2491 3084 2119 3084 
Q 1678 3084 1418 2786 
Q 1159 2488 1159 1978 
L 1159 0 
L 581 0 
L 581 3500 
L 1159 3500 
L 1159 2956 
Q 1356 3278 1631 3431 
Q 1906 3584 2284 3584 
Q 2666 3584 2933 3390 
Q 3200 3197 3328 2828 
z
" transform="scale(0.015625)"/>
       <path id="DejaVuSans-7a" d="M 353 3500 
L 3084 3500 
L 3084 2975 
L 922 459 
L 3084 459 
L 3084 0 
L 275 0 
L 275 525 
L 2438 3041 
L 353 3041 
L 353 3500 
z
" transform="scale(0.015625)"/>
      </defs>
      <use xlink:href="#DejaVuSans-67"/>
      <use xlink:href="#DejaVuSans-6c" transform="translate(63.476562 0)"/>
      <use xlink:href="#DejaVuSans-6f" transform="translate(91.259766 0)"/>
      <use xlink:href="#DejaVuSans-62" transform="translate(152.441406 0)"/>
      <use xlink:href="#DejaVuSans-61" transform="translate(215.917969 0)"/>
      <use xlink:href="#DejaVuSans-6c" transform="translate(277.197266 0)"/>
      <use xlink:href="#DejaVuSans-20" transform="translate(304.980469 0)"/>
      <use xlink:href="#DejaVuSans-72" transform="translate(336.767578 0)"/>
      <use xlink:href="#DejaVuSans-6f" transform="translate(375.630859 0)"/>
      <use xlink:href="#DejaVuSans-62" transform="translate(436.8125 0)"/>
      <use xlink:href="#DejaVuSans-75" transform="translate(500.289062 0)"/>
      <use xlink:href="#DejaVuSans-73" transform="translate(563.667969 0)"/>
      <use xlink:href="#DejaVuSans-74" transform="translate(615.767578 0)"/>
      <use xlink:href="#DejaVuSans-2d" transform="translate(654.976562 0)"/>
      <use xlink:href="#DejaVuSans-6e" transform="translate(691.060547 0)"/>
      <use xlink:href="#DejaVuSans-6f" transform="translate(754.439453 0)"/>
      <use xlink:href="#DejaVuSans-72" transform="translate(815.621094 0)"/>
      <use xlink:href="#DejaVuSans-6d" transform="translate(854.984375 0)"/>
      <use xlink:href="#DejaVuSans-61" transform="translate(952.396484 0)"/>
      <use xlink:href="#DejaVuSans-6c" transform="translate(1013.675781 0)"/>
      <use xlink:href="#DejaVuSans-69" transform="translate(1041.458984 0)"/>
      <use xlink:href="#DejaVuSans-7a" transform="translate(1069.242188 0)"/>
      <use xlink:href="#DejaVuSans-65" transform="translate(1121.732422 0)"/>
      <use xlink:href="#DejaVuSans-64" transform="translate(1183.255859 0)"/>
      <use xlink:href="#DejaVuSans-20" transform="translate(1246.732422 0)"/>
      <use xlink:href="#DejaVuSans-73" transform="translate(1278.519531 0)"/>
      <use xlink:href="#DejaVuSans-69" transform="translate(1330.619141 0)"/>
      <use xlink:href="#DejaVuSans-67" transform="translate(1358.402344 0)"/>
      <use xlink:href="#DejaVuSans-6e" transform="translate(1421.878906 0)"/>
      <use xlink:href="#DejaVuSans-61" transform="translate(1485.257812 0)"/>
      <use xlink:href="#DejaVuSans-6c" transform="translate(1546.537109 0)"/>
     </g>
    </g>
   </g>
   <g id="line2d_13">
    <path d="M 84.332727 234.128015 
L 85.800171 234.477388 
L 87.267615 235.36699 
L 88.735059 234.715106 
L 90.202503 234.313242 
L 91.669947 232.262194 
L 93.137391 231.626778 
L 94.604835 230.439861 
L 96.072279 220.110798 
L 97.539723 187.056892 
L 99.007167 142.937054 
L 100.474611 179.154525 
L 101.942055 165.185207 
L 103.409499 206.854757 
L 104.876943 229.241604 
L 106.344387 231.10189 
L 107.811831 233.621906 
L 109.279275 233.726133 
L 110.746719 232.300008 
L 112.214163 232.938346 
L 113.681607 233.001444 
L 115.149051 231.698309 
L 116.616495 232.583638 
L 118.083939 234.664162 
L 119.551383 234.877387 
L 121.018827 233.271638 
L 122.486271 233.794763 
L 123.953715 233.648837 
L 125.421159 232.851805 
L 126.888603 233.89041 
L 128.356047 232.42802 
L 129.823491 234.079866 
L 131.290935 233.839545 
L 132.758379 231.148558 
L 134.225823 234.681411 
L 135.693267 232.918414 
L 137.160711 232.746592 
L 138.628154 232.419448 
L 140.095598 232.639123 
L 141.563042 234.799977 
L 143.030486 233.573895 
L 144.49793 232.591645 
L 145.965374 232.386455 
L 147.432818 235.839054 
L 148.900262 234.491265 
L 150.367706 232.970218 
L 151.83515 231.694935 
L 153.302594 235.794212 
L 154.770038 234.279673 
L 156.237482 232.949443 
L 159.17237 233.103899 
L 160.639814 232.339027 
L 162.107258 234.196644 
L 163.574702 234.483514 
L 165.042146 232.300796 
L 167.977034 231.661883 
L 169.444478 233.633511 
L 170.911922 235.256151 
L 172.379366 234.409201 
L 173.84681 234.897444 
L 175.314254 233.662108 
L 176.781698 234.16978 
L 178.249142 234.515949 
L 179.716586 233.682489 
L 181.18403 234.632648 
L 182.651474 232.953791 
L 184.118918 229.410048 
L 185.586362 232.791469 
L 187.053806 234.648325 
L 188.52125 233.093919 
L 189.988694 233.093915 
L 191.456138 230.752268 
L 192.923582 234.284257 
L 194.391026 233.119473 
L 197.325914 233.16114 
L 198.793358 233.677642 
L 200.260802 233.084063 
L 201.728246 231.885282 
L 203.19569 231.972737 
L 204.663134 231.880927 
L 206.130578 230.710002 
L 207.598021 229.777354 
L 209.065465 231.358147 
L 210.532909 231.881916 
L 212.000353 230.405163 
L 213.467797 225.356876 
L 214.935241 227.749918 
L 216.402685 231.609009 
L 217.870129 234.984924 
L 220.805017 233.143678 
L 222.272461 230.810031 
L 223.739905 235.095552 
L 225.207349 235.698304 
L 226.674793 235.162709 
L 228.142237 234.076042 
L 229.609681 232.297221 
L 231.077125 230.88469 
L 232.544569 229.726306 
L 234.012013 232.008536 
L 235.479457 230.385971 
L 236.946901 228.93212 
L 238.414345 230.887678 
L 239.881789 228.809397 
L 241.349233 225.377531 
L 242.816677 216.633159 
L 244.284121 181.595008 
L 245.751565 153.415384 
L 247.219009 148.131693 
L 248.686453 193.913247 
L 250.153897 211.804795 
L 251.621341 83.679223 
L 253.088785 36.841818 
L 254.556229 145.018208 
L 256.023673 172.944837 
L 257.491117 36.841818 
L 261.893449 36.841818 
L 263.360893 119.291155 
L 264.828337 143.912857 
L 266.295781 196.010882 
L 267.763225 208.688103 
L 269.230669 227.17733 
L 270.698113 230.799979 
L 272.165557 230.219623 
L 273.633001 233.675953 
L 275.100445 232.998351 
L 276.567889 230.288804 
L 278.035332 231.940333 
L 279.502776 232.43301 
L 280.97022 234.741365 
L 282.437664 229.629066 
L 283.905108 230.560253 
L 285.372552 231.030769 
L 286.839996 231.090539 
L 288.30744 232.011837 
L 289.774884 228.497769 
L 291.242328 230.634355 
L 292.709772 227.0983 
L 294.177216 227.990873 
L 295.64466 231.501036 
L 298.579548 234.896993 
L 300.046992 232.61328 
L 301.514436 233.458126 
L 302.98188 233.651626 
L 304.449324 233.687963 
L 305.916768 233.033508 
L 307.384212 231.755972 
L 308.851656 233.620491 
L 310.3191 229.252199 
L 311.786544 231.453613 
L 313.253988 231.346745 
L 314.721432 231.815171 
L 316.188876 232.767465 
L 317.65632 234.942112 
L 319.123764 230.747773 
L 320.591208 230.158842 
L 322.058652 231.612855 
L 323.526096 234.699727 
L 324.99354 234.802818 
L 326.460984 233.238055 
L 327.928428 234.857583 
L 329.395872 232.814935 
L 330.863316 234.648985 
L 332.33076 233.934365 
L 333.798204 232.35445 
L 335.265648 234.952896 
L 336.733092 234.359054 
L 338.200536 235.27115 
L 339.66798 232.262523 
L 341.135424 235.240455 
L 342.602868 231.957808 
L 344.070312 231.438375 
L 345.537756 234.038684 
L 347.005199 234.076647 
L 348.472643 230.872356 
L 349.940087 230.319842 
L 351.407531 234.523969 
L 352.874975 236.06882 
L 355.809863 233.129993 
L 357.277307 235.773025 
L 358.744751 232.24102 
L 360.212195 232.555913 
L 361.679639 231.761634 
L 363.147083 234.624594 
L 364.614527 232.679914 
L 366.081971 232.261241 
L 367.549415 233.439491 
L 369.016859 233.48526 
L 370.484303 234.774715 
L 371.951747 235.112289 
L 373.419191 233.701111 
L 374.886635 234.489756 
L 376.354079 232.012703 
L 377.821523 231.519141 
L 379.288967 233.038042 
L 380.756411 232.042145 
L 382.223855 233.76536 
L 383.691299 232.12003 
L 385.158743 233.033185 
L 386.626187 232.878595 
L 388.093631 230.521767 
L 389.561075 229.290628 
L 391.028519 230.556795 
L 392.495963 230.064651 
L 393.963407 225.261973 
L 395.430851 226.673893 
L 396.898295 230.416381 
L 398.365739 228.334798 
L 399.833183 234.160317 
L 401.300627 235.315782 
L 402.768071 234.879042 
L 404.235515 233.343798 
L 405.702959 230.670881 
L 407.170403 231.356317 
L 408.637847 233.80479 
L 410.105291 232.720745 
L 411.572735 233.08787 
L 413.040179 231.471223 
L 414.507623 232.700116 
L 415.975066 234.457078 
L 417.44251 235.585808 
L 418.909954 232.800539 
L 420.377398 233.56446 
L 421.844842 233.182356 
L 423.312286 235.875481 
L 424.77973 234.400756 
L 426.247174 233.677783 
L 427.714618 235.542297 
L 429.182062 233.323141 
L 430.649506 233.225976 
L 432.11695 234.629416 
L 433.584394 235.437351 
L 435.051838 233.073292 
L 436.519282 232.109057 
L 437.986726 219.909562 
L 439.45417 188.836246 
L 440.921614 130.136591 
L 442.389058 98.307993 
L 443.856502 119.38486 
L 445.323946 55.092615 
L 446.79139 124.56731 
L 448.258834 118.089388 
L 449.726278 125.022718 
L 451.193722 180.52272 
L 452.661166 214.51553 
L 454.12861 212.749232 
L 455.596054 222.4928 
L 457.063498 229.314032 
L 458.530942 228.488959 
L 459.998386 228.601784 
L 461.46583 230.207991 
L 462.933274 232.288094 
L 464.400718 233.668516 
L 465.868162 234.550848 
L 467.335606 233.850237 
L 468.80305 233.010699 
L 470.270494 233.34682 
L 471.737938 232.644356 
L 473.205382 234.701954 
L 474.672826 232.21838 
L 476.14027 227.641065 
L 477.607714 228.782091 
L 479.075158 230.769493 
L 480.542602 229.158699 
L 482.010046 234.178949 
L 483.47749 234.981586 
L 484.944934 232.32302 
L 486.412377 233.571495 
L 487.879821 235.02165 
L 489.347265 233.195571 
L 490.814709 232.783111 
L 492.282153 234.567482 
L 493.749597 235.600486 
L 495.217041 235.018638 
L 496.684485 233.451302 
L 498.151929 230.1509 
L 499.619373 214.481719 
L 501.086817 173.372435 
L 502.554261 163.099116 
L 504.021705 108.98387 
L 505.489149 85.533341 
L 506.956593 164.281863 
L 508.424037 107.291631 
L 509.891481 65.347358 
L 511.358925 95.472712 
L 512.826369 70.69909 
L 514.293813 78.262414 
L 515.761257 154.489603 
L 517.228701 203.206279 
L 518.696145 222.66556 
L 520.163589 229.464018 
L 524.565921 229.983808 
L 527.500809 231.413315 
L 528.968253 232.646348 
L 530.435697 234.077842 
L 531.903141 232.970541 
L 533.370585 234.032981 
L 534.838029 233.728537 
L 536.305473 233.253935 
L 537.772917 233.885393 
L 539.240361 232.2104 
L 540.707805 232.544784 
L 542.175249 231.975217 
L 543.642693 232.833442 
L 545.110137 233.963469 
L 546.577581 229.838213 
L 548.045025 231.324241 
L 549.512469 231.432199 
L 550.979913 232.47225 
L 552.447357 231.96124 
L 553.914801 234.679316 
L 555.382244 235.242726 
L 556.849688 233.256016 
L 558.317132 235.750252 
L 559.784576 234.546586 
L 561.25202 235.592311 
L 562.719464 233.598356 
L 564.186908 231.367293 
L 565.654352 234.434094 
L 567.121796 231.7288 
L 568.58924 231.819464 
L 570.056684 232.983436 
L 571.524128 233.354013 
L 572.991572 231.842355 
L 574.459016 231.364963 
L 575.92646 232.867034 
L 577.393904 233.582173 
L 578.861348 233.063269 
L 580.328792 231.248629 
L 581.796236 230.642715 
L 583.26368 229.458453 
L 584.731124 228.944076 
L 586.198568 230.425644 
L 587.666012 234.226634 
L 589.133456 235.028924 
L 590.6009 230.133462 
L 592.068344 230.590657 
L 593.535788 234.472693 
L 595.003232 232.89772 
L 596.470676 234.73883 
L 597.93812 234.74298 
L 599.405564 234.045496 
L 600.873008 231.928104 
L 602.340452 233.251034 
L 603.807896 234.893812 
L 605.27534 233.126294 
L 606.742784 234.956036 
L 608.210228 231.584341 
L 609.677672 232.047266 
L 611.145116 235.106231 
L 612.61256 235.940776 
L 615.547448 231.858093 
L 617.014892 233.166198 
L 618.482336 232.679571 
L 619.94978 234.219568 
L 621.417224 233.043044 
L 624.352111 231.906183 
L 625.819555 233.318215 
L 627.286999 234.195221 
L 628.754443 229.904024 
L 630.221887 231.262019 
L 631.689331 231.177323 
L 633.156775 231.79359 
L 634.624219 231.813669 
L 636.091663 234.405361 
L 637.559107 233.400103 
L 639.026551 233.311258 
L 640.493995 235.046193 
L 641.961439 233.592005 
L 643.428883 232.502186 
L 644.896327 231.878275 
L 646.363771 232.431298 
L 647.831215 234.723125 
L 649.298659 234.547607 
L 650.766103 232.632183 
L 652.233547 231.295877 
L 653.700991 232.730235 
L 655.168435 233.638689 
L 656.635879 232.122578 
L 659.570767 234.283474 
L 661.038211 230.934122 
L 662.505655 231.606182 
L 663.973099 232.972915 
L 665.440543 233.059225 
L 666.907987 230.478303 
L 668.375431 233.891048 
L 669.842875 233.203543 
L 671.310319 234.145152 
L 672.777763 232.83486 
L 674.245207 232.52596 
L 675.712651 234.404216 
L 677.180095 235.045698 
L 678.647539 232.631312 
L 680.114983 232.472747 
L 681.582427 234.611245 
L 683.049871 233.942472 
L 684.517315 231.853369 
L 685.984759 232.246962 
L 687.452203 232.332884 
L 690.387091 234.822191 
L 691.854535 232.772001 
L 693.321979 232.735902 
L 694.789422 235.89909 
L 696.256866 235.395658 
L 697.72431 232.680414 
L 700.659198 233.465869 
L 702.126642 232.954663 
L 703.594086 233.954113 
L 705.06153 231.799055 
L 706.528974 226.583098 
L 707.996418 219.315294 
L 709.463862 166.645046 
L 710.931306 185.318948 
L 712.39875 210.31751 
L 713.866194 217.428867 
L 715.333638 223.493962 
L 716.801082 227.283276 
L 718.268526 230.552716 
L 719.73597 230.037344 
L 721.203414 231.733511 
L 722.670858 234.879488 
L 724.138302 235.70566 
L 725.605746 231.782957 
L 727.07319 233.415936 
L 728.540634 234.028401 
L 730.008078 234.389609 
L 731.475522 235.072593 
L 732.942966 235.166439 
L 734.41041 232.076488 
L 735.877854 234.321513 
L 737.345298 234.558716 
L 738.812742 233.631532 
L 740.280186 235.700448 
L 741.74763 235.126412 
L 743.215074 233.170581 
L 744.682518 233.452797 
L 746.149962 233.944915 
L 747.617406 231.186713 
L 749.08485 229.061784 
L 750.552294 229.729297 
L 752.019738 231.36009 
L 753.487182 230.291331 
L 754.954626 229.397142 
L 756.42207 234.553292 
L 757.889514 234.036557 
L 759.356958 233.727706 
L 760.824402 234.855531 
L 762.291846 231.404545 
L 763.759289 230.513115 
L 765.226733 232.945644 
L 766.694177 232.376096 
L 768.161621 228.066212 
L 769.629065 232.431306 
L 771.096509 235.202543 
L 772.563953 234.005009 
L 774.031397 234.002575 
L 775.498841 230.841556 
L 776.966285 231.868598 
L 778.433729 232.156673 
L 779.901173 231.430091 
L 781.368617 232.341404 
L 782.836061 228.42219 
L 784.303505 228.441759 
L 785.770949 232.2613 
L 787.238393 230.269782 
L 788.705837 218.504985 
L 790.173281 188.49664 
L 791.640725 161.284533 
L 793.108169 154.076641 
L 794.575613 74.045689 
L 796.043057 134.882881 
L 797.510501 187.213443 
L 798.977945 148.198246 
L 800.445389 145.436506 
L 801.912833 197.60352 
L 803.380277 218.504199 
L 804.847721 227.28672 
L 806.315165 226.050258 
L 807.782609 228.445137 
L 809.250053 229.505581 
L 810.717497 230.893762 
L 812.184941 226.943026 
L 813.652385 226.84419 
L 815.119829 230.1282 
L 816.587273 231.10414 
L 816.587273 231.10414 
" clip-path="url(#pef535a7d47)" style="fill: none; stroke: #2ca02c; stroke-width: 1.2; stroke-linecap: square"/>
   </g>
   <g id="line2d_14">
    <path d="M 84.332727 234.076469 
L 87.267615 233.670512 
L 90.202503 233.235797 
L 91.669947 232.631208 
L 93.137391 231.606618 
L 94.604835 228.754887 
L 96.072279 217.893696 
L 97.539723 194.68927 
L 99.007167 166.728392 
L 100.474611 180.339657 
L 101.942055 167.242024 
L 103.409499 196.840107 
L 104.876943 218.883509 
L 106.344387 229.498584 
L 107.811831 231.739039 
L 112.214163 233.946054 
L 113.681607 234.014271 
L 115.149051 234.561344 
L 116.616495 234.831536 
L 118.083939 234.486439 
L 119.551383 234.280451 
L 122.486271 234.660325 
L 123.953715 234.450324 
L 125.421159 233.928666 
L 126.888603 234.328604 
L 128.356047 234.491789 
L 129.823491 234.023634 
L 131.290935 233.839048 
L 132.758379 234.061087 
L 134.225823 234.440292 
L 135.693267 234.457681 
L 137.160711 234.291151 
L 140.095598 234.444305 
L 141.563042 234.198189 
L 143.030486 234.166087 
L 144.49793 234.578063 
L 145.965374 235.529086 
L 147.432818 235.692272 
L 148.900262 234.943893 
L 150.367706 234.372744 
L 151.83515 234.411534 
L 153.302594 235.099053 
L 154.770038 234.855612 
L 156.237482 234.095864 
L 157.704926 234.276438 
L 159.17237 234.608159 
L 160.639814 234.776026 
L 163.574702 234.379432 
L 165.042146 234.332617 
L 167.977034 234.564019 
L 169.444478 235.402016 
L 170.911922 236.078182 
L 173.84681 236.078182 
L 175.314254 235.862814 
L 178.249142 234.631567 
L 179.716586 234.40284 
L 182.651474 234.872332 
L 184.118918 235.168607 
L 185.586362 235.898929 
L 187.053806 236.078165 
L 188.52125 234.759306 
L 189.988694 234.094526 
L 191.456138 234.41956 
L 194.391026 234.002902 
L 195.85847 234.058412 
L 197.325914 234.440961 
L 200.260802 233.851086 
L 203.19569 233.453823 
L 204.663134 233.572868 
L 206.130578 233.999558 
L 209.065465 233.544779 
L 210.532909 233.218408 
L 213.467797 233.033821 
L 214.935241 233.608983 
L 216.402685 235.149212 
L 217.870129 235.153225 
L 219.337573 233.659811 
L 220.805017 234.317903 
L 222.272461 235.624055 
L 225.207349 235.347175 
L 228.142237 233.885863 
L 229.609681 233.95943 
L 231.077125 234.162743 
L 232.544569 233.813634 
L 235.479457 233.542104 
L 236.946901 232.991019 
L 238.414345 231.91025 
L 239.881789 230.180752 
L 241.349233 225.295892 
L 242.816677 218.011403 
L 244.284121 165.813483 
L 245.751565 122.406172 
L 247.219009 128.954989 
L 248.686453 170.858854 
L 250.153897 202.575672 
L 251.621341 141.945615 
L 253.088785 109.971982 
L 254.556229 173.261157 
L 256.023673 187.632171 
L 257.491117 62.824783 
L 258.958561 36.841818 
L 260.426005 47.458605 
L 261.893449 83.926525 
L 263.360893 159.494732 
L 264.828337 186.04312 
L 266.295781 208.771366 
L 267.763225 219.964278 
L 269.230669 228.02189 
L 270.698113 230.868271 
L 272.165557 232.233946 
L 273.633001 232.958917 
L 275.100445 232.980318 
L 276.567889 232.889362 
L 278.035332 233.17293 
L 279.502776 233.295988 
L 280.97022 232.714139 
L 282.437664 232.692737 
L 283.905108 232.350315 
L 285.372552 230.590054 
L 286.839996 226.483667 
L 288.30744 227.810552 
L 289.774884 233.32809 
L 291.242328 233.309364 
L 292.709772 231.393942 
L 294.177216 231.396617 
L 295.64466 232.374392 
L 297.112104 232.550953 
L 298.579548 232.884012 
L 301.514436 234.194845 
L 302.98188 234.521216 
L 304.449324 234.505834 
L 305.916768 234.610165 
L 307.384212 234.323253 
L 308.851656 233.861787 
L 310.3191 233.728028 
L 311.786544 233.880513 
L 314.721432 233.461849 
L 316.188876 233.600958 
L 317.65632 234.091851 
L 319.123764 233.765481 
L 320.591208 233.170255 
L 322.058652 233.234459 
L 323.526096 233.63841 
L 326.460984 235.090359 
L 327.928428 234.953256 
L 329.395872 234.2751 
L 330.863316 234.224272 
L 332.33076 234.495802 
L 333.798204 234.02631 
L 335.265648 234.162743 
L 336.733092 234.805453 
L 338.200536 233.37825 
L 339.66798 232.500125 
L 341.135424 232.393118 
L 342.602868 233.036497 
L 344.070312 232.611145 
L 345.537756 232.616495 
L 347.005199 233.263886 
L 348.472643 232.972293 
L 349.940087 233.346816 
L 351.407531 234.732555 
L 352.874975 235.696953 
L 354.342419 234.904434 
L 355.809863 233.671181 
L 357.277307 233.314714 
L 360.212195 233.32809 
L 361.679639 233.440447 
L 363.147083 233.691913 
L 364.614527 233.435097 
L 366.081971 233.357517 
L 367.549415 234.101214 
L 369.016859 233.827009 
L 370.484303 233.885863 
L 371.951747 234.247011 
L 373.419191 233.219746 
L 376.354079 230.76929 
L 377.821523 231.619994 
L 379.288967 232.045346 
L 380.756411 231.824645 
L 382.223855 232.006556 
L 383.691299 232.548278 
L 385.158743 232.486749 
L 386.626187 232.196493 
L 388.093631 231.581204 
L 389.561075 230.561964 
L 391.028519 230.000179 
L 392.495963 230.804067 
L 393.963407 223.024672 
L 395.430851 224.594997 
L 396.898295 228.698708 
L 398.365739 229.132086 
L 399.833183 230.009542 
L 402.768071 235.302366 
L 404.235515 233.618346 
L 405.702959 232.10955 
L 407.170403 232.65261 
L 408.637847 232.893375 
L 410.105291 232.387768 
L 411.572735 232.176429 
L 413.040179 232.274073 
L 415.975066 233.579556 
L 417.44251 234.568032 
L 421.844842 233.713983 
L 423.312286 234.204877 
L 424.77973 234.088507 
L 426.247174 234.172775 
L 427.714618 234.477745 
L 430.649506 234.065768 
L 432.11695 234.16475 
L 433.584394 233.614333 
L 435.051838 231.035469 
L 436.519282 228.000489 
L 437.986726 226.513094 
L 439.45417 207.776202 
L 440.921614 148.922459 
L 442.389058 110.164594 
L 443.856502 96.382117 
L 445.323946 62.139939 
L 449.726278 157.26899 
L 451.193722 199.461774 
L 452.661166 218.262869 
L 454.12861 219.573703 
L 455.596054 226.427489 
L 457.063498 230.319861 
L 458.530942 231.967766 
L 459.998386 232.039996 
L 461.46583 232.286111 
L 462.933274 232.399806 
L 464.400718 232.755604 
L 465.868162 233.651117 
L 467.335606 234.12596 
L 468.80305 233.520702 
L 470.270494 233.590257 
L 471.737938 233.852424 
L 473.205382 233.392294 
L 474.672826 233.479237 
L 476.14027 233.005732 
L 477.607714 232.886687 
L 479.075158 232.592418 
L 480.542602 231.981142 
L 482.010046 232.839872 
L 483.47749 233.25051 
L 484.944934 233.40032 
L 486.412377 233.301338 
L 489.347265 233.764143 
L 490.814709 234.66835 
L 492.282153 234.650293 
L 493.749597 233.792901 
L 495.217041 232.715476 
L 496.684485 231.249483 
L 498.151929 227.465455 
L 499.619373 215.459291 
L 501.086817 186.567453 
L 502.554261 171.137072 
L 504.021705 125.316758 
L 505.489149 99.677927 
L 506.956593 138.221778 
L 508.424037 67.597286 
L 509.891481 43.820374 
L 511.358925 44.590823 
L 512.826369 76.436049 
L 514.293813 126.686445 
L 515.761257 185.021205 
L 517.228701 215.946172 
L 518.696145 225.646339 
L 520.163589 228.931448 
L 521.631033 230.741201 
L 523.098477 231.359165 
L 524.565921 231.688211 
L 526.033365 232.167066 
L 527.500809 232.393118 
L 528.968253 233.4779 
L 530.435697 233.818984 
L 531.903141 233.306689 
L 533.370585 233.049872 
L 536.305473 233.210383 
L 537.772917 233.336116 
L 539.240361 233.997552 
L 540.707805 233.830353 
L 542.175249 233.330765 
L 543.642693 233.357517 
L 546.577581 233.120764 
L 548.045025 233.401657 
L 549.512469 233.415033 
L 550.979913 234.354687 
L 552.447357 235.154563 
L 555.382244 233.818315 
L 558.317132 234.357362 
L 559.784576 234.338636 
L 561.25202 234.198189 
L 562.719464 233.839048 
L 564.186908 234.10389 
L 565.654352 234.893734 
L 567.121796 234.539273 
L 568.58924 233.99822 
L 570.056684 233.749429 
L 574.459016 233.877838 
L 577.393904 235.169945 
L 578.861348 233.971469 
L 580.328792 233.378918 
L 583.26368 233.365543 
L 584.731124 233.855099 
L 586.198568 234.737236 
L 587.666012 234.852268 
L 589.133456 234.089176 
L 590.6009 233.649111 
L 595.003232 233.691913 
L 596.470676 233.967456 
L 597.93812 234.782045 
L 599.405564 235.060263 
L 600.873008 234.290483 
L 602.340452 233.66583 
L 603.807896 233.56083 
L 608.210228 233.923984 
L 609.677672 233.408345 
L 612.61256 233.099363 
L 614.080004 233.738729 
L 615.547448 234.744593 
L 617.014892 234.601471 
L 618.482336 233.913952 
L 619.94978 233.583569 
L 621.417224 233.546117 
L 622.884668 233.770831 
L 624.352111 233.839048 
L 625.819555 233.63306 
L 630.221887 233.919303 
L 633.156775 234.892396 
L 634.624219 234.79609 
L 636.091663 234.475738 
L 637.559107 234.388795 
L 639.026551 233.895226 
L 640.493995 233.810958 
L 641.961439 234.139336 
L 647.831215 233.909271 
L 649.298659 234.137998 
L 652.233547 233.384269 
L 653.700991 233.523378 
L 655.168435 233.844398 
L 656.635879 234.87367 
L 658.103323 234.543286 
L 659.570767 233.678537 
L 661.038211 233.619684 
L 663.973099 234.827523 
L 665.440543 235.011441 
L 668.375431 234.868319 
L 669.842875 235.118448 
L 671.310319 234.778701 
L 672.777763 233.956086 
L 674.245207 234.061087 
L 675.712651 234.360706 
L 678.647539 233.923984 
L 680.114983 234.02631 
L 681.582427 234.70179 
L 684.517315 233.794907 
L 685.984759 234.232298 
L 687.452203 235.301028 
L 688.919647 235.218098 
L 690.387091 234.007583 
L 691.854535 233.921309 
L 694.789422 234.036341 
L 696.256866 234.00959 
L 697.72431 234.129972 
L 699.191754 233.97615 
L 700.659198 233.480575 
L 702.126642 232.817133 
L 703.594086 231.953053 
L 705.06153 230.666296 
L 706.528974 226.834115 
L 707.996418 221.41422 
L 709.463862 166.000745 
L 710.931306 162.127099 
L 712.39875 185.112161 
L 713.866194 204.5874 
L 715.333638 217.149999 
L 716.801082 223.019322 
L 719.73597 229.380877 
L 721.203414 230.886997 
L 722.670858 230.742538 
L 724.138302 231.47286 
L 727.07319 233.726022 
L 728.540634 234.590102 
L 731.475522 234.310546 
L 732.942966 234.242998 
L 740.280186 235.10641 
L 743.215074 234.79609 
L 747.617406 234.788733 
L 750.552294 234.282457 
L 752.019738 234.039017 
L 753.487182 234.158062 
L 756.42207 234.800103 
L 757.889514 234.570038 
L 759.356958 234.132648 
L 760.824402 234.100546 
L 762.291846 234.487776 
L 763.759289 235.076314 
L 765.226733 234.858956 
L 766.694177 234.49112 
L 769.629065 233.317389 
L 772.563953 233.13414 
L 774.031397 232.89605 
L 776.966285 229.998841 
L 778.433729 231.119737 
L 779.901173 228.896671 
L 781.368617 229.148137 
L 782.836061 230.196804 
L 784.303505 232.042671 
L 785.770949 232.521526 
L 787.238393 230.755914 
L 788.705837 227.585837 
L 790.173281 216.794201 
L 791.640725 203.249815 
L 793.108169 176.476712 
L 794.575613 130.089261 
L 796.043057 126.836254 
L 797.510501 174.914412 
L 798.977945 168.301392 
L 800.445389 169.628276 
L 801.912833 200.638848 
L 803.380277 218.669495 
L 804.847721 225.962009 
L 806.315165 225.750671 
L 807.782609 226.114494 
L 809.250053 227.141759 
L 810.717497 229.942662 
L 812.184941 231.538401 
L 813.652385 231.854071 
L 816.587273 232.989681 
L 816.587273 232.989681 
" clip-path="url(#pef535a7d47)" style="fill: none; stroke: #000000; stroke-width: 1.2; stroke-linecap: square"/>
   </g>
   <g id="line2d_15">
    <path d="M 84.332727 201.317094 
L 85.800171 198.893197 
L 87.267615 204.204054 
L 88.735059 210.91509 
L 90.202503 204.164499 
L 91.669947 204.762766 
L 93.137391 201.977156 
L 94.604835 201.717761 
L 96.072279 187.959591 
L 97.539723 187.331732 
L 99.007167 104.404262 
L 100.474611 36.841818 
L 101.942055 104.890048 
L 103.409499 162.938955 
L 104.876943 197.627369 
L 106.344387 191.09616 
L 107.811831 182.586334 
L 109.279275 206.535764 
L 110.746719 193.290447 
L 112.214163 196.372753 
L 113.681607 189.75741 
L 115.149051 188.477809 
L 116.616495 187.921657 
L 118.083939 192.491131 
L 119.551383 193.800921 
L 121.018827 205.114972 
L 122.486271 202.429121 
L 123.953715 214.637662 
L 125.421159 200.861681 
L 126.888603 212.074153 
L 129.823491 189.721696 
L 131.290935 196.593627 
L 132.758379 195.041923 
L 134.225823 202.177989 
L 135.693267 191.480583 
L 137.160711 192.071136 
L 138.628154 180.379923 
L 140.095598 198.907677 
L 141.563042 195.826592 
L 143.030486 202.76492 
L 144.49793 200.46162 
L 145.965374 197.253386 
L 147.432818 202.067277 
L 148.900262 201.97845 
L 150.367706 193.424021 
L 151.83515 197.924487 
L 153.302594 196.829364 
L 154.770038 188.546781 
L 156.237482 200.75146 
L 157.704926 181.905207 
L 159.17237 165.563419 
L 160.639814 165.972651 
L 162.107258 168.088379 
L 163.574702 179.059655 
L 165.042146 182.252834 
L 166.50959 177.182787 
L 167.977034 192.513459 
L 169.444478 188.846268 
L 170.911922 191.210379 
L 172.379366 186.162576 
L 173.84681 187.080794 
L 175.314254 180.620211 
L 176.781698 187.312124 
L 178.249142 180.865039 
L 179.716586 186.991938 
L 181.18403 190.728452 
L 182.651474 186.616859 
L 184.118918 197.201448 
L 185.586362 202.922947 
L 187.053806 202.565118 
L 188.52125 196.195729 
L 189.988694 203.269471 
L 191.456138 202.960578 
L 192.923582 194.484278 
L 194.391026 184.340967 
L 195.85847 195.831055 
L 197.325914 186.733235 
L 198.793358 207.543 
L 200.260802 215.11661 
L 203.19569 197.860307 
L 204.663134 194.182424 
L 206.130578 203.73134 
L 207.598021 196.821505 
L 209.065465 214.636642 
L 210.532909 199.12365 
L 212.000353 178.485755 
L 213.467797 192.33097 
L 214.935241 203.947817 
L 216.402685 209.660754 
L 217.870129 197.557532 
L 219.337573 202.803016 
L 220.805017 201.167329 
L 222.272461 212.643744 
L 223.739905 199.11237 
L 225.207349 217.974837 
L 226.674793 203.889835 
L 228.142237 217.572891 
L 229.609681 219.158945 
L 231.077125 221.677854 
L 232.544569 216.814682 
L 234.012013 218.219355 
L 235.479457 218.81296 
L 236.946901 208.268013 
L 238.414345 199.222807 
L 239.881789 202.087784 
L 241.349233 201.985812 
L 242.816677 120.151365 
L 244.284121 152.723635 
L 245.751565 164.541527 
L 247.219009 89.243201 
L 248.686453 47.295613 
L 250.153897 36.841818 
L 251.621341 98.46722 
L 253.088785 72.302869 
L 254.556229 36.841818 
L 256.023673 36.841818 
L 257.491117 160.622692 
L 258.958561 156.541492 
L 260.426005 78.592287 
L 261.893449 96.679688 
L 263.360893 119.663421 
L 264.828337 158.888965 
L 266.295781 183.730817 
L 267.763225 165.301022 
L 269.230669 194.463362 
L 270.698113 175.825108 
L 272.165557 192.407328 
L 273.633001 211.594515 
L 275.100445 219.056744 
L 276.567889 213.423651 
L 278.035332 219.776982 
L 279.502776 202.20806 
L 280.97022 214.791083 
L 282.437664 215.226381 
L 283.905108 213.776834 
L 285.372552 191.234479 
L 286.839996 177.528322 
L 288.30744 179.931938 
L 289.774884 134.081763 
L 291.242328 175.163415 
L 292.709772 203.727449 
L 294.177216 174.811597 
L 295.64466 220.729353 
L 297.112104 226.267198 
L 298.579548 219.737876 
L 300.046992 190.507211 
L 301.514436 228.57795 
L 302.98188 223.161961 
L 304.449324 215.147399 
L 305.916768 169.184762 
L 308.851656 217.884488 
L 310.3191 221.022826 
L 311.786544 159.707665 
L 313.253988 177.045249 
L 314.721432 200.355873 
L 316.188876 189.295719 
L 317.65632 197.500358 
L 319.123764 215.510815 
L 320.591208 222.609842 
L 322.058652 208.793523 
L 323.526096 192.394806 
L 324.99354 199.242339 
L 326.460984 203.975046 
L 327.928428 174.701202 
L 329.395872 191.967692 
L 330.863316 191.933687 
L 332.33076 222.036337 
L 333.798204 190.146385 
L 335.265648 222.031008 
L 336.733092 189.087618 
L 338.200536 208.159391 
L 339.66798 218.409302 
L 341.135424 205.355947 
L 342.602868 208.941495 
L 344.070312 199.391257 
L 345.537756 195.835203 
L 347.005199 201.271096 
L 348.472643 186.101182 
L 349.940087 212.524102 
L 351.407531 231.416717 
L 352.874975 224.736795 
L 354.342419 218.880037 
L 355.809863 192.059164 
L 357.277307 214.462873 
L 358.744751 197.410979 
L 360.212195 197.561367 
L 361.679639 215.33121 
L 363.147083 217.784439 
L 364.614527 211.225344 
L 366.081971 191.757258 
L 367.549415 208.748213 
L 369.016859 205.194744 
L 370.484303 213.430938 
L 371.951747 223.273541 
L 373.419191 228.635699 
L 374.886635 205.696558 
L 376.354079 206.573985 
L 377.821523 202.591452 
L 379.288967 193.761175 
L 380.756411 212.243066 
L 382.223855 204.12741 
L 383.691299 188.59133 
L 385.158743 206.353218 
L 386.626187 231.181494 
L 389.561075 182.120075 
L 391.028519 202.047458 
L 392.495963 113.973323 
L 393.963407 144.421929 
L 395.430851 198.168624 
L 396.898295 200.021506 
L 398.365739 176.228278 
L 399.833183 215.996298 
L 401.300627 201.31572 
L 402.768071 227.083318 
L 404.235515 185.675782 
L 405.702959 192.172378 
L 407.170403 211.406068 
L 408.637847 206.950148 
L 410.105291 196.871195 
L 411.572735 189.006416 
L 413.040179 190.454128 
L 414.507623 210.149131 
L 415.975066 207.092106 
L 417.44251 204.683201 
M 553.914801 136.318875 
L 556.849688 203.164817 
L 558.317132 188.520793 
L 559.784576 198.225296 
L 561.25202 166.741188 
L 562.719464 204.763393 
L 564.186908 193.088336 
L 565.654352 206.840608 
L 567.121796 213.726202 
L 568.58924 191.686173 
L 570.056684 206.997494 
L 571.524128 151.756026 
L 572.991572 192.935085 
L 574.459016 212.227071 
L 575.92646 200.818385 
L 577.393904 215.172358 
L 578.861348 218.605139 
L 580.328792 223.114142 
L 581.796236 206.442434 
L 583.26368 219.905681 
L 584.731124 218.935146 
L 586.198568 231.126188 
L 587.666012 228.147759 
L 589.133456 222.559064 
L 590.6009 227.024142 
L 592.068344 215.579326 
L 593.535788 211.272746 
L 595.003232 209.229453 
L 596.470676 213.339489 
L 597.93812 218.516302 
L 599.405564 216.205107 
L 600.873008 220.223578 
L 602.340452 218.109192 
L 603.807896 221.255335 
L 605.27534 206.404912 
L 606.742784 213.501715 
L 608.210228 216.209544 
L 609.677672 215.492861 
L 611.145116 220.546466 
L 612.61256 223.174973 
L 614.080004 214.41643 
L 615.547448 220.529468 
L 617.014892 218.627273 
L 618.482336 215.630836 
L 619.94978 206.535333 
L 621.417224 219.576809 
L 622.884668 219.442174 
L 624.352111 205.730716 
L 625.819555 209.603752 
L 627.286999 216.195354 
L 628.754443 208.160297 
L 630.221887 202.609944 
L 631.689331 211.382524 
L 633.156775 221.699335 
L 634.624219 221.44855 
L 636.091663 215.803091 
L 637.559107 201.974052 
L 639.026551 219.430312 
L 640.493995 210.543441 
L 641.961439 211.229287 
L 643.428883 202.214397 
L 644.896327 197.793721 
L 646.363771 199.910665 
L 647.831215 214.144922 
L 649.298659 211.204944 
L 650.766103 212.231386 
L 653.700991 170.434333 
L 655.168435 212.609687 
L 656.635879 215.419142 
L 658.103323 219.747519 
L 659.570767 219.872179 
L 661.038211 221.936831 
L 662.505655 210.009089 
L 663.973099 205.981383 
L 665.440543 204.132522 
L 666.907987 192.912711 
L 668.375431 204.190767 
L 669.842875 199.445455 
L 671.310319 212.015623 
L 672.777763 196.16303 
L 674.245207 209.498592 
L 675.712651 194.53704 
L 677.180095 187.39485 
L 678.647539 202.926722 
L 680.114983 195.6483 
L 681.582427 205.347029 
L 683.049871 207.894802 
L 684.517315 209.893317 
L 685.984759 213.524086 
L 687.452203 208.404674 
L 690.387091 214.083134 
L 691.854535 211.605369 
L 693.321979 207.164256 
L 694.789422 199.250822 
L 696.256866 177.039211 
L 697.72431 202.739327 
L 699.191754 202.822185 
L 700.659198 205.40692 
L 702.126642 202.885692 
L 703.594086 200.13956 
L 705.06153 203.757089 
L 706.528974 178.970423 
L 707.996418 91.00682 
L 709.463862 163.820545 
L 710.931306 198.482195 
L 712.39875 197.20431 
L 713.866194 189.812911 
L 715.333638 188.932344 
L 716.801082 197.655635 
L 718.268526 200.85446 
L 719.73597 202.809408 
L 721.203414 192.230141 
L 722.670858 204.876008 
L 724.138302 206.435219 
L 725.605746 205.520485 
L 727.07319 189.044921 
L 728.540634 195.72101 
L 730.008078 203.124979 
L 732.942966 210.088037 
L 734.41041 202.153303 
L 735.877854 203.894726 
L 737.345298 198.845562 
L 738.812742 194.344055 
L 740.280186 207.584713 
L 741.74763 212.977511 
L 743.215074 207.162924 
L 744.682518 213.196859 
L 746.149962 209.382672 
L 747.617406 212.183246 
L 749.08485 210.162097 
L 750.552294 186.945551 
L 752.019738 196.665771 
L 753.487182 183.633289 
L 754.954626 198.858408 
L 756.42207 212.013001 
L 757.889514 216.546241 
L 759.356958 203.070604 
L 760.824402 205.899036 
L 762.291846 205.168391 
L 763.759289 195.833817 
L 765.226733 199.19668 
L 766.694177 203.677428 
L 768.161621 196.822375 
L 769.629065 213.16426 
L 771.096509 208.738453 
L 772.563953 205.007469 
L 774.031397 209.663902 
L 775.498841 204.83138 
L 776.966285 199.274634 
L 778.433729 174.76766 
L 779.901173 197.019379 
L 781.368617 209.881849 
L 782.836061 207.121875 
L 784.303505 194.139352 
L 787.238393 207.559127 
L 788.705837 201.233376 
L 790.173281 175.676036 
L 791.640725 135.117889 
L 793.108169 118.520093 
L 794.575613 125.243575 
L 796.043057 126.724345 
L 797.510501 36.841818 
L 798.977945 75.065246 
L 800.445389 137.705309 
L 803.380277 169.425122 
L 804.847721 118.938864 
L 806.315165 185.55945 
L 807.782609 181.024409 
L 809.250053 187.687588 
L 810.717497 198.524074 
L 812.184941 185.807564 
L 813.652385 191.582 
L 815.119829 201.520409 
L 816.587273 193.434929 
L 816.587273 193.434929 
" clip-path="url(#pef535a7d47)" style="fill: none; stroke: #ff7f0e; stroke-width: 1.2; stroke-linecap: square"/>
   </g>
   <g id="line2d_16">
    <path d="M 84.332727 216.078138 
L 85.800171 218.992135 
L 87.267615 221.072557 
L 88.735059 228.04417 
L 90.202503 224.102453 
L 91.669947 218.122867 
L 93.137391 222.146189 
L 94.604835 224.236446 
L 96.072279 210.805666 
L 97.539723 211.632916 
L 99.007167 45.927197 
L 100.474611 36.841818 
L 101.942055 115.403053 
L 103.409499 186.291073 
L 104.876943 214.477462 
L 106.344387 200.117634 
L 107.811831 196.140824 
L 109.279275 222.39648 
L 110.746719 215.228295 
L 112.214163 210.138661 
L 113.681607 210.083509 
L 115.149051 207.676098 
L 116.616495 196.10482 
L 118.083939 189.108544 
L 119.551383 201.855789 
L 121.018827 216.53944 
L 122.486271 224.546891 
L 123.953715 235.554445 
L 125.421159 223.319594 
L 126.888603 233.170398 
L 128.356047 218.591903 
L 131.290935 216.679079 
L 132.758379 220.50578 
L 134.225823 222.704143 
L 135.693267 212.699632 
L 137.160711 210.786379 
L 138.628154 192.888759 
L 140.095598 209.840387 
L 141.563042 221.944266 
L 143.030486 223.204123 
L 144.49793 222.804439 
L 145.965374 217.765796 
L 147.432818 223.723793 
L 148.900262 220.480384 
L 150.367706 217.650568 
L 151.83515 223.662786 
L 153.302594 222.011532 
L 154.770038 217.542629 
L 156.237482 230.656938 
L 157.704926 213.595969 
L 159.17237 198.114358 
L 160.639814 199.826149 
L 162.107258 194.449011 
L 163.574702 216.086545 
L 165.042146 208.373729 
L 166.50959 206.805529 
L 167.977034 221.396662 
L 170.911922 218.643433 
L 172.379366 219.807296 
L 173.84681 220.068347 
L 175.314254 219.597952 
L 176.781698 219.463969 
L 178.249142 220.277533 
L 179.716586 221.260017 
L 181.18403 209.252389 
L 182.651474 208.444444 
L 184.118918 221.15605 
L 185.586362 224.61288 
L 187.053806 218.916645 
L 188.52125 209.877295 
L 189.988694 221.319599 
L 191.456138 221.15271 
L 192.923582 214.284694 
L 194.391026 214.332869 
L 195.85847 219.814751 
L 197.325914 221.125747 
L 198.793358 232.307553 
L 200.260802 235.497407 
L 201.728246 231.226994 
L 203.19569 221.719651 
L 204.663134 214.401101 
L 206.130578 227.729309 
L 207.598021 223.102816 
L 209.065465 232.031164 
L 210.532909 222.358239 
L 213.467797 213.964879 
L 214.935241 223.625858 
L 216.402685 213.689338 
L 217.870129 221.374946 
L 219.337573 218.628446 
L 220.805017 217.298325 
L 222.272461 228.608668 
L 223.739905 218.639966 
L 225.207349 228.893727 
L 226.674793 226.132035 
L 228.142237 227.543954 
L 229.609681 228.255534 
L 231.077125 221.760403 
L 232.544569 221.904372 
L 234.012013 223.513729 
L 235.479457 217.649167 
L 236.946901 222.728646 
L 238.414345 209.51141 
L 239.881789 216.678167 
L 241.349233 216.930363 
L 242.816677 193.873566 
L 244.284121 189.181738 
L 245.751565 192.400919 
L 247.219009 166.391464 
L 248.686453 158.563418 
L 250.153897 147.806508 
L 251.621341 168.598662 
L 253.088785 181.628983 
L 254.556229 149.738654 
L 256.023673 127.50292 
L 257.491117 145.157449 
L 258.958561 90.522571 
L 260.426005 45.60242 
L 261.893449 36.841818 
L 263.360893 130.813273 
L 264.828337 163.769443 
L 266.295781 191.075604 
L 267.763225 192.199666 
L 269.230669 200.077458 
L 270.698113 185.243643 
L 272.165557 154.892897 
L 273.633001 195.641628 
L 275.100445 201.164268 
L 276.567889 210.074986 
L 278.035332 200.959866 
L 279.502776 197.927205 
L 280.97022 204.406404 
L 282.437664 212.320999 
L 283.905108 190.041177 
L 285.372552 182.536712 
L 286.839996 156.747869 
L 288.30744 165.434219 
L 289.774884 191.958002 
L 291.242328 193.532263 
L 292.709772 178.455049 
L 294.177216 185.772232 
L 295.64466 212.200998 
L 297.112104 221.286897 
L 298.579548 209.020595 
L 300.046992 216.478589 
L 301.514436 220.849415 
L 302.98188 196.015865 
L 304.449324 136.202685 
L 305.916768 122.880954 
L 307.384212 173.765619 
L 308.851656 218.529301 
L 310.3191 219.91399 
L 311.786544 207.764786 
L 313.253988 217.216439 
L 314.721432 219.890864 
L 316.188876 227.986033 
L 317.65632 234.603278 
L 319.123764 224.508314 
L 320.591208 224.961642 
L 322.058652 218.940846 
L 323.526096 231.980554 
L 324.99354 224.468277 
L 327.928428 228.680841 
L 329.395872 220.429485 
L 330.863316 222.348247 
L 332.33076 227.266142 
L 333.798204 220.664578 
L 335.265648 215.083085 
L 336.733092 218.487146 
L 338.200536 206.524211 
L 339.66798 208.32272 
L 341.135424 212.116252 
L 342.602868 211.711234 
L 344.070312 210.072176 
L 345.537756 208.968323 
L 347.005199 212.808603 
L 348.472643 219.017838 
L 349.940087 215.597088 
L 351.407531 227.272195 
L 352.874975 232.482917 
L 354.342419 222.096531 
L 355.809863 220.73495 
L 357.277307 208.381695 
L 358.744751 209.259454 
L 360.212195 205.38969 
L 361.679639 219.137598 
L 363.147083 223.908318 
L 364.614527 219.040235 
L 366.081971 222.945992 
L 369.016859 211.568558 
L 370.484303 230.785707 
L 371.951747 224.517683 
L 373.419191 231.822038 
L 374.886635 219.392662 
L 376.354079 221.276622 
L 379.288967 210.3602 
L 380.756411 222.431069 
L 382.223855 227.654493 
L 383.691299 221.731658 
L 385.158743 222.772714 
L 386.626187 222.681505 
L 388.093631 221.284349 
L 389.561075 209.734053 
L 391.028519 203.705684 
L 392.495963 187.592126 
L 393.963407 184.84899 
L 396.898295 213.897055 
L 398.365739 199.089486 
L 399.833183 219.869272 
L 401.300627 215.580328 
L 402.768071 222.960584 
L 404.235515 210.184894 
L 405.702959 204.243616 
L 407.170403 230.786032 
L 408.637847 231.197928 
L 410.105291 227.259424 
L 411.572735 208.594578 
L 413.040179 209.871378 
L 414.507623 220.241361 
L 415.975066 214.234493 
L 417.44251 216.037655 
M 553.914801 180.58762 
L 555.382244 192.987396 
L 556.849688 198.389111 
L 558.317132 185.842252 
L 559.784576 178.974545 
L 561.25202 138.122753 
L 562.719464 154.091651 
L 564.186908 166.000703 
L 565.654352 167.653471 
L 567.121796 170.049408 
L 570.056684 160.001632 
L 571.524128 176.21193 
L 572.991572 204.328681 
L 574.459016 184.447215 
L 575.92646 199.15236 
L 577.393904 217.849663 
L 578.861348 205.862441 
L 580.328792 198.207125 
L 581.796236 212.781065 
L 583.26368 213.390545 
L 584.731124 222.693805 
L 586.198568 230.561302 
L 587.666012 219.585611 
L 589.133456 216.082173 
L 590.6009 225.791231 
L 593.535788 184.315254 
L 595.003232 197.356636 
L 596.470676 214.316634 
L 597.93812 216.798443 
L 599.405564 213.673264 
L 600.873008 213.626725 
L 602.340452 208.072622 
L 603.807896 212.837767 
L 605.27534 202.094483 
L 606.742784 198.81559 
L 608.210228 190.190804 
L 609.677672 197.112999 
L 611.145116 222.093795 
L 612.61256 223.98348 
L 614.080004 218.058325 
L 615.547448 219.582247 
L 617.014892 221.50629 
L 618.482336 213.915786 
L 619.94978 202.373326 
L 621.417224 221.267114 
L 622.884668 220.364252 
L 624.352111 210.209411 
L 625.819555 205.721372 
L 627.286999 207.567612 
L 628.754443 205.348181 
L 630.221887 197.131639 
L 631.689331 210.702917 
L 633.156775 219.807544 
L 634.624219 220.790059 
L 636.091663 223.172079 
L 637.559107 218.412963 
L 639.026551 219.179795 
L 640.493995 208.909559 
L 641.961439 211.8442 
L 643.428883 208.908277 
L 644.896327 192.067817 
L 646.363771 195.50122 
L 647.831215 203.629804 
L 649.298659 214.597817 
L 650.766103 208.277601 
L 652.233547 198.364326 
L 653.700991 189.222591 
L 655.168435 201.035232 
L 656.635879 219.183833 
L 658.103323 219.633955 
L 659.570767 200.840463 
L 661.038211 212.616642 
L 663.973099 168.809163 
L 665.440543 151.759524 
L 666.907987 138.890767 
L 668.375431 149.963984 
L 669.842875 128.909458 
L 671.310319 161.616328 
L 672.777763 172.360472 
L 674.245207 170.617546 
L 675.712651 156.020928 
L 677.180095 160.703133 
L 678.647539 190.019684 
L 680.114983 200.422194 
L 681.582427 217.533499 
L 683.049871 208.710395 
L 684.517315 219.476057 
L 685.984759 206.850968 
L 687.452203 218.136837 
L 688.919647 213.099403 
L 690.387091 199.705754 
L 691.854535 193.166195 
L 693.321979 193.750094 
L 694.789422 192.137041 
L 696.256866 184.818376 
L 697.72431 180.67908 
L 699.191754 186.159126 
L 700.659198 187.96141 
L 702.126642 198.176621 
L 703.594086 196.433705 
L 705.06153 203.029456 
L 706.528974 179.931332 
L 707.996418 176.67703 
L 709.463862 179.888093 
L 710.931306 183.798102 
L 712.39875 181.852347 
L 713.866194 193.987314 
L 715.333638 190.60716 
L 716.801082 195.455633 
L 718.268526 196.389927 
L 719.73597 193.888632 
L 721.203414 190.034215 
L 722.670858 203.533994 
L 724.138302 209.798877 
L 725.605746 208.034432 
L 727.07319 191.986924 
L 728.540634 181.894804 
L 730.008078 189.852724 
L 731.475522 204.935389 
L 732.942966 213.52231 
L 734.41041 203.499474 
L 735.877854 195.176433 
L 737.345298 198.047073 
L 738.812742 195.916556 
L 740.280186 198.636268 
L 741.74763 197.057697 
L 743.215074 191.978752 
L 744.682518 197.256848 
L 746.149962 190.003563 
L 747.617406 210.172537 
L 749.08485 208.82885 
L 750.552294 199.741496 
L 752.019738 204.401735 
L 753.487182 195.238396 
L 754.954626 206.327673 
L 756.42207 219.49265 
L 757.889514 231.449747 
L 759.356958 215.398547 
L 760.824402 215.563516 
L 762.291846 205.30935 
L 763.759289 191.440143 
L 765.226733 199.650454 
L 766.694177 196.673277 
L 768.161621 198.106284 
L 769.629065 210.652121 
L 771.096509 219.588253 
L 772.563953 222.113253 
L 774.031397 222.935131 
L 775.498841 218.469314 
L 776.966285 224.711918 
L 778.433729 217.025163 
L 779.901173 222.952763 
L 781.368617 226.324504 
L 782.836061 222.200643 
L 784.303505 222.709047 
L 785.770949 220.561529 
L 787.238393 225.014007 
L 788.705837 225.464255 
L 790.173281 223.610805 
L 793.108169 188.9567 
L 794.575613 174.690709 
L 796.043057 180.099457 
L 797.510501 157.940678 
L 798.977945 129.699031 
L 800.445389 158.499898 
L 801.912833 191.264079 
L 803.380277 212.175537 
L 804.847721 210.237496 
L 806.315165 206.980914 
L 807.782609 209.850868 
L 809.250053 216.037237 
L 810.717497 223.001809 
L 812.184941 214.253385 
L 813.652385 217.003305 
L 815.119829 214.288357 
L 816.587273 216.964824 
L 816.587273 216.964824 
" clip-path="url(#pef535a7d47)" style="fill: none; stroke: #9467bd; stroke-width: 1.2; stroke-linecap: square"/>
   </g>
   <g id="line2d_17">
    <path d="M 84.332727 204.287849 
L 85.800171 209.427008 
L 87.267615 213.453983 
L 88.735059 219.511735 
L 90.202503 210.096555 
L 91.669947 198.949237 
L 93.137391 205.056648 
L 94.604835 212.880679 
L 96.072279 193.616424 
L 97.539723 177.681792 
L 99.007167 59.5577 
L 100.474611 36.841818 
L 101.942055 74.379967 
L 103.409499 154.859085 
L 104.876943 192.194998 
L 106.344387 206.141805 
L 107.811831 190.038548 
L 109.279275 215.926637 
L 110.746719 191.210528 
L 112.214163 195.630544 
L 115.149051 202.745312 
L 116.616495 186.158889 
L 118.083939 183.972961 
L 119.551383 189.676717 
L 121.018827 208.569341 
L 122.486271 211.773952 
L 123.953715 228.515663 
L 125.421159 208.304216 
L 126.888603 224.348311 
L 128.356047 208.929893 
L 129.823491 205.396236 
L 131.290935 209.439013 
L 132.758379 214.273718 
L 134.225823 205.223549 
L 135.693267 202.38818 
L 137.160711 202.519241 
L 138.628154 190.052079 
L 140.095598 200.967884 
L 141.563042 216.600353 
L 143.030486 207.167401 
L 144.49793 204.671771 
L 145.965374 197.346147 
L 147.432818 203.853345 
L 148.900262 197.457624 
L 150.367706 207.441996 
L 151.83515 206.628299 
L 153.302594 198.631975 
L 154.770038 203.62543 
L 156.237482 214.653639 
L 157.704926 203.906489 
L 159.17237 174.553304 
L 160.639814 179.023605 
L 162.107258 178.937751 
L 163.574702 191.481242 
L 165.042146 180.558939 
L 166.50959 187.355944 
L 167.977034 195.689124 
L 169.444478 182.424718 
L 170.911922 182.615672 
L 172.379366 189.892492 
L 173.84681 184.167629 
L 175.314254 200.450657 
L 176.781698 203.57286 
L 178.249142 204.92568 
L 179.716586 207.772734 
L 181.18403 203.562367 
L 182.651474 205.034477 
L 184.118918 205.169049 
L 185.586362 216.723089 
L 188.52125 194.842216 
L 189.988694 211.760676 
L 191.456138 209.862731 
L 192.923582 211.046012 
L 194.391026 203.179479 
L 195.85847 210.38497 
L 197.325914 210.085462 
L 198.793358 226.663524 
L 200.260802 233.804277 
L 201.728246 226.571527 
L 203.19569 208.910342 
L 204.663134 205.716221 
L 207.598021 218.90851 
L 209.065465 229.575146 
L 210.532909 209.263369 
L 212.000353 211.402421 
L 213.467797 208.748914 
L 214.935241 209.424076 
L 216.402685 199.451572 
L 219.337573 215.266353 
L 220.805017 211.587105 
L 222.272461 220.833837 
L 223.739905 209.01837 
L 225.207349 206.039248 
L 226.674793 204.557347 
L 228.142237 216.561401 
L 231.077125 207.02872 
L 232.544569 209.345839 
L 234.012013 200.386664 
L 235.479457 195.96321 
L 236.946901 218.351065 
L 238.414345 192.001049 
L 239.881789 196.212609 
L 241.349233 198.692874 
L 242.816677 160.915979 
L 244.284121 155.158574 
L 247.219009 127.250723 
L 248.686453 113.034079 
L 250.153897 111.018352 
L 251.621341 124.099302 
L 253.088785 127.092109 
L 254.556229 119.586963 
L 256.023673 109.589884 
L 257.491117 133.762335 
L 258.958561 55.728788 
L 260.426005 62.920101 
L 261.893449 36.841818 
L 263.360893 132.46909 
L 264.828337 167.23039 
L 266.295781 194.833268 
L 267.763225 196.46589 
L 269.230669 204.336667 
L 270.698113 183.95252 
L 272.165557 173.51904 
L 273.633001 198.590285 
L 275.100445 203.014026 
L 276.567889 210.470016 
L 278.035332 205.376221 
L 279.502776 212.170461 
L 280.97022 209.533375 
L 282.437664 212.053124 
L 283.905108 190.869387 
L 285.372552 185.799541 
L 286.839996 181.85654 
L 288.30744 181.753535 
L 289.774884 198.244564 
L 291.242328 200.484275 
L 292.709772 164.400416 
L 294.177216 182.269647 
L 295.64466 210.958325 
L 297.112104 214.951192 
L 298.579548 199.200745 
L 300.046992 212.498227 
L 301.514436 188.714371 
L 302.98188 184.596367 
L 304.449324 154.895668 
L 305.916768 181.474743 
L 307.384212 182.288582 
L 308.851656 200.700155 
L 310.3191 193.279474 
L 311.786544 187.966794 
L 313.253988 189.631928 
L 314.721432 203.221057 
L 316.188876 208.545414 
L 317.65632 215.001044 
L 319.123764 218.703081 
L 320.591208 207.824937 
L 322.058652 199.343156 
L 323.526096 202.414072 
L 324.99354 204.297642 
L 326.460984 203.772946 
L 327.928428 191.27907 
L 329.395872 196.104315 
L 330.863316 202.524394 
L 332.33076 193.612979 
L 333.798204 203.822371 
L 335.265648 183.588592 
L 336.733092 183.246865 
L 338.200536 189.468112 
L 339.66798 189.614142 
L 341.135424 174.614568 
L 342.602868 191.711353 
L 344.070312 201.604432 
L 345.537756 194.962384 
L 347.005199 197.960011 
L 348.472643 190.552789 
L 349.940087 181.920351 
L 351.407531 205.937515 
L 352.874975 203.816078 
L 354.342419 174.023469 
L 355.809863 208.353812 
L 357.277307 191.319657 
L 358.744751 194.835811 
L 360.212195 194.863011 
L 361.679639 193.242663 
L 363.147083 211.869997 
L 364.614527 210.533478 
L 366.081971 211.937402 
L 367.549415 196.275967 
L 369.016859 207.715384 
L 371.951747 213.028103 
L 373.419191 218.69711 
L 374.886635 187.982083 
L 376.354079 209.13377 
L 377.821523 195.366243 
L 379.288967 180.406142 
L 380.756411 199.302945 
L 382.223855 192.874396 
L 383.691299 192.635634 
L 385.158743 213.432412 
L 386.626187 187.291455 
L 388.093631 205.314689 
L 389.561075 192.428745 
L 391.028519 175.097248 
L 392.495963 127.301041 
L 393.963407 172.092008 
L 395.430851 186.892627 
L 396.898295 215.724458 
L 398.365739 200.885728 
L 399.833183 201.760439 
L 401.300627 194.721785 
L 402.768071 175.110668 
L 404.235515 191.519316 
L 405.702959 203.78656 
L 407.170403 228.196207 
L 410.105291 232.031668 
L 411.572735 204.983809 
L 413.040179 214.366644 
L 414.507623 229.008246 
L 415.975066 215.151497 
L 417.44251 225.868785 
M 553.914801 216.637056 
L 555.382244 208.302341 
L 556.849688 219.531555 
L 558.317132 210.414362 
L 559.784576 211.760679 
L 561.25202 191.298038 
L 562.719464 200.776204 
L 564.186908 192.568316 
L 565.654352 200.904702 
L 567.121796 206.85582 
L 568.58924 187.829213 
L 570.056684 190.140785 
L 571.524128 178.702243 
L 572.991572 207.028167 
L 574.459016 195.245239 
L 575.92646 207.077976 
L 577.393904 208.851132 
L 578.861348 209.563385 
L 580.328792 205.496037 
L 581.796236 221.359593 
L 583.26368 217.048574 
L 584.731124 220.300853 
L 586.198568 235.995989 
L 587.666012 216.782461 
L 589.133456 227.706803 
L 592.068344 217.267249 
L 593.535788 207.296355 
L 595.003232 213.331547 
L 596.470676 222.018018 
L 599.405564 212.69829 
L 600.873008 217.88993 
L 602.340452 217.80871 
L 603.807896 221.183973 
L 605.27534 207.992404 
L 606.742784 205.761408 
L 608.210228 206.873507 
L 609.677672 206.615265 
L 611.145116 231.985736 
L 612.61256 228.910001 
L 614.080004 221.87631 
L 615.547448 215.936874 
L 617.014892 221.450814 
L 618.482336 216.983478 
L 619.94978 209.540597 
L 621.417224 225.963789 
L 622.884668 216.023409 
L 624.352111 211.389974 
L 625.819555 209.79547 
L 627.286999 217.557077 
L 628.754443 221.559669 
L 630.221887 210.944425 
L 631.689331 216.078352 
L 633.156775 221.905603 
L 636.091663 215.735735 
L 637.559107 213.934707 
L 639.026551 216.993646 
L 640.493995 211.254 
L 641.961439 214.755319 
L 643.428883 217.877136 
L 644.896327 205.929174 
L 646.363771 213.457264 
L 647.831215 216.099865 
L 649.298659 213.139778 
L 652.233547 205.877066 
L 653.700991 192.428686 
L 655.168435 206.813946 
L 656.635879 210.822223 
L 658.103323 223.315238 
L 659.570767 197.997024 
L 661.038211 220.944825 
L 662.505655 203.407301 
L 663.973099 188.503889 
L 665.440543 180.451545 
L 666.907987 178.978041 
L 668.375431 182.826035 
L 669.842875 176.707793 
L 671.310319 196.3757 
L 672.777763 185.164186 
L 674.245207 181.31996 
L 675.712651 173.375031 
L 677.180095 175.054828 
L 678.647539 190.068525 
L 680.114983 197.929592 
L 681.582427 199.266529 
L 683.049871 206.564845 
L 684.517315 209.585229 
L 685.984759 210.462844 
L 687.452203 210.732228 
L 688.919647 212.38019 
L 690.387091 197.728009 
L 691.854535 203.052928 
L 693.321979 198.248179 
L 694.789422 190.853906 
L 696.256866 188.214939 
L 697.72431 189.980901 
L 699.191754 201.033246 
L 700.659198 185.706833 
L 702.126642 202.126564 
L 703.594086 175.20574 
L 705.06153 201.295102 
L 706.528974 170.951195 
L 707.996418 149.437291 
L 709.463862 143.106292 
L 710.931306 172.741883 
L 712.39875 167.508312 
L 713.866194 175.714257 
L 715.333638 177.496479 
L 716.801082 175.848793 
L 718.268526 194.915791 
L 719.73597 189.122565 
L 721.203414 184.897032 
L 722.670858 195.713264 
L 724.138302 204.8667 
L 725.605746 206.231598 
L 727.07319 183.422258 
L 728.540634 180.204194 
L 730.008078 184.650144 
L 731.475522 188.676284 
L 732.942966 198.479435 
L 734.41041 187.230866 
L 735.877854 193.498738 
L 737.345298 181.693401 
L 738.812742 178.039487 
L 740.280186 198.122053 
L 743.215074 189.897382 
L 744.682518 191.197995 
L 746.149962 179.043762 
L 747.617406 203.637287 
L 749.08485 201.270152 
L 750.552294 191.497428 
L 752.019738 190.67272 
L 753.487182 183.528784 
L 754.954626 193.369863 
L 756.42207 202.21822 
L 757.889514 217.236589 
L 759.356958 199.903721 
L 760.824402 206.828358 
L 763.759289 179.45366 
L 765.226733 191.23614 
L 766.694177 195.607526 
L 768.161621 190.720151 
L 769.629065 202.325248 
L 771.096509 206.586896 
L 772.563953 213.285585 
L 774.031397 207.450937 
L 775.498841 209.417181 
L 776.966285 218.305724 
L 778.433729 208.275588 
L 779.901173 209.76995 
L 781.368617 217.970493 
L 782.836061 210.205863 
L 784.303505 205.293411 
L 785.770949 196.836895 
L 787.238393 211.603343 
L 790.173281 202.461501 
L 791.640725 170.640523 
L 794.575613 115.156469 
L 796.043057 112.828529 
L 797.510501 103.162464 
L 798.977945 61.832815 
L 800.445389 98.239287 
L 801.912833 155.595318 
L 803.380277 170.870094 
L 804.847721 172.200657 
L 806.315165 175.351345 
L 807.782609 192.13919 
L 809.250053 199.971452 
L 810.717497 216.173309 
L 812.184941 207.603303 
L 813.652385 209.849362 
L 815.119829 202.272774 
L 816.587273 214.692867 
L 816.587273 214.692867 
" clip-path="url(#pef535a7d47)" style="fill: none; stroke: #ff1493; stroke-width: 1.2; stroke-linecap: square"/>
   </g>
   <g id="patch_3">
    <path d="M 47.72 246.04 
L 47.72 26.88 
" style="fill: none; stroke: #000000; stroke-width: 0.8; stroke-linejoin: miter; stroke-linecap: square"/>
   </g>
   <g id="patch_4">
    <path d="M 853.2 246.04 
L 853.2 26.88 
" style="fill: none; stroke: #000000; stroke-width: 0.8; stroke-linejoin: miter; stroke-linecap: square"/>
   </g>
   <g id="patch_5">
    <path d="M 47.72 246.04 
L 853.2 246.04 
" style="fill: none; stroke: #000000; stroke-width: 0.8; stroke-linejoin: miter; stroke-linecap: square"/>
   </g>
   <g id="patch_6">
    <path d="M 47.72 26.88 
L 853.2 26.88 
" style="fill: none; stroke: #000000; stroke-width: 0.8; stroke-linejoin: miter; stroke-linecap: square"/>
   </g>
   <g id="text_16">
    <!-- chr16 region 6: old vs DNA+5mC HyenaDNA -->
    <g transform="translate(316.639375 20.88) scale(0.12 -0.12)">
     <defs>
      <path id="DejaVuSans-3a" d="M 750 794 
L 1409 794 
L 1409 0 
L 750 0 
L 750 794 
z
M 750 3309 
L 1409 3309 
L 1409 2516 
L 750 2516 
L 750 3309 
z
" transform="scale(0.015625)"/>
      <path id="DejaVuSans-76" d="M 191 3500 
L 800 3500 
L 1894 563 
L 2988 3500 
L 3597 3500 
L 2284 0 
L 1503 0 
L 191 3500 
z
" transform="scale(0.015625)"/>
      <path id="DejaVuSans-44" d="M 1259 4147 
L 1259 519 
L 2022 519 
Q 2988 519 3436 956 
Q 3884 1394 3884 2338 
Q 3884 3275 3436 3711 
Q 2988 4147 2022 4147 
L 1259 4147 
z
M 628 4666 
L 1925 4666 
Q 3281 4666 3915 4102 
Q 4550 3538 4550 2338 
Q 4550 1131 3912 565 
Q 3275 0 1925 0 
L 628 0 
L 628 4666 
z
" transform="scale(0.015625)"/>
      <path id="DejaVuSans-4e" d="M 628 4666 
L 1478 4666 
L 3547 763 
L 3547 4666 
L 4159 4666 
L 4159 0 
L 3309 0 
L 1241 3903 
L 1241 0 
L 628 0 
L 628 4666 
z
" transform="scale(0.015625)"/>
      <path id="DejaVuSans-41" d="M 2188 4044 
L 1331 1722 
L 3047 1722 
L 2188 4044 
z
M 1831 4666 
L 2547 4666 
L 4325 0 
L 3669 0 
L 3244 1197 
L 1141 1197 
L 716 0 
L 50 0 
L 1831 4666 
z
" transform="scale(0.015625)"/>
      <path id="DejaVuSans-2b" d="M 2944 4013 
L 2944 2272 
L 4684 2272 
L 4684 1741 
L 2944 1741 
L 2944 0 
L 2419 0 
L 2419 1741 
L 678 1741 
L 678 2272 
L 2419 2272 
L 2419 4013 
L 2944 4013 
z
" transform="scale(0.015625)"/>
      <path id="DejaVuSans-35" d="M 691 4666 
L 3169 4666 
L 3169 4134 
L 1269 4134 
L 1269 2991 
Q 1406 3038 1543 3061 
Q 1681 3084 1819 3084 
Q 2600 3084 3056 2656 
Q 3513 2228 3513 1497 
Q 3513 744 3044 326 
Q 2575 -91 1722 -91 
Q 1428 -91 1123 -41 
Q 819 9 494 109 
L 494 744 
Q 775 591 1075 516 
Q 1375 441 1709 441 
Q 2250 441 2565 725 
Q 2881 1009 2881 1497 
Q 2881 1984 2565 2268 
Q 2250 2553 1709 2553 
Q 1456 2553 1204 2497 
Q 953 2441 691 2322 
L 691 4666 
z
" transform="scale(0.015625)"/>
      <path id="DejaVuSans-48" d="M 628 4666 
L 1259 4666 
L 1259 2753 
L 3553 2753 
L 3553 4666 
L 4184 4666 
L 4184 0 
L 3553 0 
L 3553 2222 
L 1259 2222 
L 1259 0 
L 628 0 
L 628 4666 
z
" transform="scale(0.015625)"/>
      <path id="DejaVuSans-79" d="M 2059 -325 
Q 1816 -950 1584 -1140 
Q 1353 -1331 966 -1331 
L 506 -1331 
L 506 -850 
L 844 -850 
Q 1081 -850 1212 -737 
Q 1344 -625 1503 -206 
L 1606 56 
L 191 3500 
L 800 3500 
L 1894 763 
L 2988 3500 
L 3597 3500 
L 2059 -325 
z
" transform="scale(0.015625)"/>
     </defs>
     <use xlink:href="#DejaVuSans-63"/>
     <use xlink:href="#DejaVuSans-68" transform="translate(54.980469 0)"/>
     <use xlink:href="#DejaVuSans-72" transform="translate(118.359375 0)"/>
     <use xlink:href="#DejaVuSans-31" transform="translate(159.472656 0)"/>
     <use xlink:href="#DejaVuSans-36" transform="translate(223.095703 0)"/>
     <use xlink:href="#DejaVuSans-20" transform="translate(286.71875 0)"/>
     <use xlink:href="#DejaVuSans-72" transform="translate(318.505859 0)"/>
     <use xlink:href="#DejaVuSans-65" transform="translate(357.369141 0)"/>
     <use xlink:href="#DejaVuSans-67" transform="translate(418.892578 0)"/>
     <use xlink:href="#DejaVuSans-69" transform="translate(482.369141 0)"/>
     <use xlink:href="#DejaVuSans-6f" transform="translate(510.152344 0)"/>
     <use xlink:href="#DejaVuSans-6e" transform="translate(571.333984 0)"/>
     <use xlink:href="#DejaVuSans-20" transform="translate(634.712891 0)"/>
     <use xlink:href="#DejaVuSans-36" transform="translate(666.5 0)"/>
     <use xlink:href="#DejaVuSans-3a" transform="translate(730.123047 0)"/>
     <use xlink:href="#DejaVuSans-20" transform="translate(763.814453 0)"/>
     <use xlink:href="#DejaVuSans-6f" transform="translate(795.601562 0)"/>
     <use xlink:href="#DejaVuSans-6c" transform="translate(856.783203 0)"/>
     <use xlink:href="#DejaVuSans-64" transform="translate(884.566406 0)"/>
     <use xlink:href="#DejaVuSans-20" transform="translate(948.042969 0)"/>
     <use xlink:href="#DejaVuSans-76" transform="translate(979.830078 0)"/>
     <use xlink:href="#DejaVuSans-73" transform="translate(1039.009766 0)"/>
     <use xlink:href="#DejaVuSans-20" transform="translate(1091.109375 0)"/>
     <use xlink:href="#DejaVuSans-44" transform="translate(1122.896484 0)"/>
     <use xlink:href="#DejaVuSans-4e" transform="translate(1199.898438 0)"/>
     <use xlink:href="#DejaVuSans-41" transform="translate(1274.703125 0)"/>
     <use xlink:href="#DejaVuSans-2b" transform="translate(1343.111328 0)"/>
     <use xlink:href="#DejaVuSans-35" transform="translate(1426.900391 0)"/>
     <use xlink:href="#DejaVuSans-6d" transform="translate(1490.523438 0)"/>
     <use xlink:href="#DejaVuSans-43" transform="translate(1587.935547 0)"/>
     <use xlink:href="#DejaVuSans-20" transform="translate(1657.759766 0)"/>
     <use xlink:href="#DejaVuSans-48" transform="translate(1689.546875 0)"/>
     <use xlink:href="#DejaVuSans-79" transform="translate(1764.742188 0)"/>
     <use xlink:href="#DejaVuSans-65" transform="translate(1823.921875 0)"/>
     <use xlink:href="#DejaVuSans-6e" transform="translate(1885.445312 0)"/>
     <use xlink:href="#DejaVuSans-61" transform="translate(1948.824219 0)"/>
     <use xlink:href="#DejaVuSans-44" transform="translate(2010.103516 0)"/>
     <use xlink:href="#DejaVuSans-4e" transform="translate(2087.105469 0)"/>
     <use xlink:href="#DejaVuSans-41" transform="translate(2161.910156 0)"/>
    </g>
   </g>
   <g id="legend_1">
    <g id="patch_7">
     <path d="M 573.38125 68.5075 
L 847.6 68.5075 
Q 849.2 68.5075 849.2 66.9075 
L 849.2 32.48 
Q 849.2 30.88 847.6 30.88 
L 573.38125 30.88 
Q 571.78125 30.88 571.78125 32.48 
L 571.78125 66.9075 
Q 571.78125 68.5075 573.38125 68.5075 
z
" style="fill: #ffffff; opacity: 0.8; stroke: #cccccc; stroke-linejoin: miter"/>
    </g>
    <g id="line2d_18">
     <path d="M 574.98125 37.35875 
L 582.98125 37.35875 
L 590.98125 37.35875 
" style="fill: none; stroke: #2ca02c; stroke-width: 1.2; stroke-linecap: square"/>
    </g>
    <g id="text_17">
     <!-- ENCODE A549 H3K4me3 -->
     <g transform="translate(597.38125 40.15875) scale(0.08 -0.08)">
      <defs>
       <path id="DejaVuSans-45" d="M 628 4666 
L 3578 4666 
L 3578 4134 
L 1259 4134 
L 1259 2753 
L 3481 2753 
L 3481 2222 
L 1259 2222 
L 1259 531 
L 3634 531 
L 3634 0 
L 628 0 
L 628 4666 
z
" transform="scale(0.015625)"/>
       <path id="DejaVuSans-4f" d="M 2522 4238 
Q 1834 4238 1429 3725 
Q 1025 3213 1025 2328 
Q 1025 1447 1429 934 
Q 1834 422 2522 422 
Q 3209 422 3611 934 
Q 4013 1447 4013 2328 
Q 4013 3213 3611 3725 
Q 3209 4238 2522 4238 
z
M 2522 4750 
Q 3503 4750 4090 4092 
Q 4678 3434 4678 2328 
Q 4678 1225 4090 567 
Q 3503 -91 2522 -91 
Q 1538 -91 948 565 
Q 359 1222 359 2328 
Q 359 3434 948 4092 
Q 1538 4750 2522 4750 
z
" transform="scale(0.015625)"/>
       <path id="DejaVuSans-4b" d="M 628 4666 
L 1259 4666 
L 1259 2694 
L 3353 4666 
L 4166 4666 
L 1850 2491 
L 4331 0 
L 3500 0 
L 1259 2247 
L 1259 0 
L 628 0 
L 628 4666 
z
" transform="scale(0.015625)"/>
      </defs>
      <use xlink:href="#DejaVuSans-45"/>
      <use xlink:href="#DejaVuSans-4e" transform="translate(63.183594 0)"/>
      <use xlink:href="#DejaVuSans-43" transform="translate(137.988281 0)"/>
      <use xlink:href="#DejaVuSans-4f" transform="translate(207.8125 0)"/>
      <use xlink:href="#DejaVuSans-44" transform="translate(286.523438 0)"/>
      <use xlink:href="#DejaVuSans-45" transform="translate(363.525391 0)"/>
      <use xlink:href="#DejaVuSans-20" transform="translate(426.708984 0)"/>
      <use xlink:href="#DejaVuSans-41" transform="translate(458.496094 0)"/>
      <use xlink:href="#DejaVuSans-35" transform="translate(526.904297 0)"/>
      <use xlink:href="#DejaVuSans-34" transform="translate(590.527344 0)"/>
      <use xlink:href="#DejaVuSans-39" transform="translate(654.150391 0)"/>
      <use xlink:href="#DejaVuSans-20" transform="translate(717.773438 0)"/>
      <use xlink:href="#DejaVuSans-48" transform="translate(749.560547 0)"/>
      <use xlink:href="#DejaVuSans-33" transform="translate(824.755859 0)"/>
      <use xlink:href="#DejaVuSans-4b" transform="translate(888.378906 0)"/>
      <use xlink:href="#DejaVuSans-34" transform="translate(953.955078 0)"/>
      <use xlink:href="#DejaVuSans-6d" transform="translate(1017.578125 0)"/>
      <use xlink:href="#DejaVuSans-65" transform="translate(1114.990234 0)"/>
      <use xlink:href="#DejaVuSans-33" transform="translate(1176.513672 0)"/>
     </g>
    </g>
    <g id="line2d_19">
     <path d="M 574.98125 49.10125 
L 582.98125 49.10125 
L 590.98125 49.10125 
" style="fill: none; stroke: #000000; stroke-width: 1.2; stroke-linecap: square"/>
    </g>
    <g id="text_18">
     <!-- AlphaGenome A549 H3K4me3 -->
     <g transform="translate(597.38125 51.90125) scale(0.08 -0.08)">
      <defs>
       <path id="DejaVuSans-70" d="M 1159 525 
L 1159 -1331 
L 581 -1331 
L 581 3500 
L 1159 3500 
L 1159 2969 
Q 1341 3281 1617 3432 
Q 1894 3584 2278 3584 
Q 2916 3584 3314 3078 
Q 3713 2572 3713 1747 
Q 3713 922 3314 415 
Q 2916 -91 2278 -91 
Q 1894 -91 1617 61 
Q 1341 213 1159 525 
z
M 3116 1747 
Q 3116 2381 2855 2742 
Q 2594 3103 2138 3103 
Q 1681 3103 1420 2742 
Q 1159 2381 1159 1747 
Q 1159 1113 1420 752 
Q 1681 391 2138 391 
Q 2594 391 2855 752 
Q 3116 1113 3116 1747 
z
" transform="scale(0.015625)"/>
      </defs>
      <use xlink:href="#DejaVuSans-41"/>
      <use xlink:href="#DejaVuSans-6c" transform="translate(68.408203 0)"/>
      <use xlink:href="#DejaVuSans-70" transform="translate(96.191406 0)"/>
      <use xlink:href="#DejaVuSans-68" transform="translate(159.667969 0)"/>
      <use xlink:href="#DejaVuSans-61" transform="translate(223.046875 0)"/>
      <use xlink:href="#DejaVuSans-47" transform="translate(284.326172 0)"/>
      <use xlink:href="#DejaVuSans-65" transform="translate(361.816406 0)"/>
      <use xlink:href="#DejaVuSans-6e" transform="translate(423.339844 0)"/>
      <use xlink:href="#DejaVuSans-6f" transform="translate(486.71875 0)"/>
      <use xlink:href="#DejaVuSans-6d" transform="translate(547.900391 0)"/>
      <use xlink:href="#DejaVuSans-65" transform="translate(645.3125 0)"/>
      <use xlink:href="#DejaVuSans-20" transform="translate(706.835938 0)"/>
      <use xlink:href="#DejaVuSans-41" transform="translate(738.623047 0)"/>
      <use xlink:href="#DejaVuSans-35" transform="translate(807.03125 0)"/>
      <use xlink:href="#DejaVuSans-34" transform="translate(870.654297 0)"/>
      <use xlink:href="#DejaVuSans-39" transform="translate(934.277344 0)"/>
      <use xlink:href="#DejaVuSans-20" transform="translate(997.900391 0)"/>
      <use xlink:href="#DejaVuSans-48" transform="translate(1029.6875 0)"/>
      <use xlink:href="#DejaVuSans-33" transform="translate(1104.882812 0)"/>
      <use xlink:href="#DejaVuSans-4b" transform="translate(1168.505859 0)"/>
      <use xlink:href="#DejaVuSans-34" transform="translate(1234.082031 0)"/>
      <use xlink:href="#DejaVuSans-6d" transform="translate(1297.705078 0)"/>
      <use xlink:href="#DejaVuSans-65" transform="translate(1395.117188 0)"/>
      <use xlink:href="#DejaVuSans-33" transform="translate(1456.640625 0)"/>
     </g>
    </g>
    <g id="line2d_20">
     <path d="M 574.98125 60.84375 
L 582.98125 60.84375 
L 590.98125 60.84375 
" style="fill: none; stroke: #ff7f0e; stroke-width: 1.2; stroke-linecap: square"/>
    </g>
    <g id="text_19">
     <!-- DiMeLo observed 6mA -->
     <g transform="translate(597.38125 63.64375) scale(0.08 -0.08)">
      <defs>
       <path id="DejaVuSans-4d" d="M 628 4666 
L 1569 4666 
L 2759 1491 
L 3956 4666 
L 4897 4666 
L 4897 0 
L 4281 0 
L 4281 4097 
L 3078 897 
L 2444 897 
L 1241 4097 
L 1241 0 
L 628 0 
L 628 4666 
z
" transform="scale(0.015625)"/>
       <path id="DejaVuSans-4c" d="M 628 4666 
L 1259 4666 
L 1259 531 
L 3531 531 
L 3531 0 
L 628 0 
L 628 4666 
z
" transform="scale(0.015625)"/>
      </defs>
      <use xlink:href="#DejaVuSans-44"/>
      <use xlink:href="#DejaVuSans-69" transform="translate(77.001953 0)"/>
      <use xlink:href="#DejaVuSans-4d" transform="translate(104.785156 0)"/>
      <use xlink:href="#DejaVuSans-65" transform="translate(191.064453 0)"/>
      <use xlink:href="#DejaVuSans-4c" transform="translate(252.587891 0)"/>
      <use xlink:href="#DejaVuSans-6f" transform="translate(306.550781 0)"/>
      <use xlink:href="#DejaVuSans-20" transform="translate(367.732422 0)"/>
      <use xlink:href="#DejaVuSans-6f" transform="translate(399.519531 0)"/>
      <use xlink:href="#DejaVuSans-62" transform="translate(460.701172 0)"/>
      <use xlink:href="#DejaVuSans-73" transform="translate(524.177734 0)"/>
      <use xlink:href="#DejaVuSans-65" transform="translate(576.277344 0)"/>
      <use xlink:href="#DejaVuSans-72" transform="translate(637.800781 0)"/>
      <use xlink:href="#DejaVuSans-76" transform="translate(678.914062 0)"/>
      <use xlink:href="#DejaVuSans-65" transform="translate(738.09375 0)"/>
      <use xlink:href="#DejaVuSans-64" transform="translate(799.617188 0)"/>
      <use xlink:href="#DejaVuSans-20" transform="translate(863.09375 0)"/>
      <use xlink:href="#DejaVuSans-36" transform="translate(894.880859 0)"/>
      <use xlink:href="#DejaVuSans-6d" transform="translate(958.503906 0)"/>
      <use xlink:href="#DejaVuSans-41" transform="translate(1055.916016 0)"/>
     </g>
    </g>
    <g id="line2d_21">
     <path d="M 735.00375 37.35875 
L 743.00375 37.35875 
L 751.00375 37.35875 
" style="fill: none; stroke: #9467bd; stroke-width: 1.2; stroke-linecap: square"/>
    </g>
    <g id="text_20">
     <!-- HyenaDNA old -->
     <g transform="translate(757.40375 40.15875) scale(0.08 -0.08)">
      <use xlink:href="#DejaVuSans-48"/>
      <use xlink:href="#DejaVuSans-79" transform="translate(75.195312 0)"/>
      <use xlink:href="#DejaVuSans-65" transform="translate(134.375 0)"/>
      <use xlink:href="#DejaVuSans-6e" transform="translate(195.898438 0)"/>
      <use xlink:href="#DejaVuSans-61" transform="translate(259.277344 0)"/>
      <use xlink:href="#DejaVuSans-44" transform="translate(320.556641 0)"/>
      <use xlink:href="#DejaVuSans-4e" transform="translate(397.558594 0)"/>
      <use xlink:href="#DejaVuSans-41" transform="translate(472.363281 0)"/>
      <use xlink:href="#DejaVuSans-20" transform="translate(540.771484 0)"/>
      <use xlink:href="#DejaVuSans-6f" transform="translate(572.558594 0)"/>
      <use xlink:href="#DejaVuSans-6c" transform="translate(633.740234 0)"/>
      <use xlink:href="#DejaVuSans-64" transform="translate(661.523438 0)"/>
     </g>
    </g>
    <g id="line2d_22">
     <path d="M 735.00375 49.10125 
L 743.00375 49.10125 
L 751.00375 49.10125 
" style="fill: none; stroke: #ff1493; stroke-width: 1.2; stroke-linecap: square"/>
    </g>
    <g id="text_21">
     <!-- HyenaDNA DNA+5mC -->
     <g transform="translate(757.40375 51.90125) scale(0.08 -0.08)">
      <use xlink:href="#DejaVuSans-48"/>
      <use xlink:href="#DejaVuSans-79" transform="translate(75.195312 0)"/>
      <use xlink:href="#DejaVuSans-65" transform="translate(134.375 0)"/>
      <use xlink:href="#DejaVuSans-6e" transform="translate(195.898438 0)"/>
      <use xlink:href="#DejaVuSans-61" transform="translate(259.277344 0)"/>
      <use xlink:href="#DejaVuSans-44" transform="translate(320.556641 0)"/>
      <use xlink:href="#DejaVuSans-4e" transform="translate(397.558594 0)"/>
      <use xlink:href="#DejaVuSans-41" transform="translate(472.363281 0)"/>
      <use xlink:href="#DejaVuSans-20" transform="translate(540.771484 0)"/>
      <use xlink:href="#DejaVuSans-44" transform="translate(572.558594 0)"/>
      <use xlink:href="#DejaVuSans-4e" transform="translate(649.560547 0)"/>
      <use xlink:href="#DejaVuSans-41" transform="translate(724.365234 0)"/>
      <use xlink:href="#DejaVuSans-2b" transform="translate(792.773438 0)"/>
      <use xlink:href="#DejaVuSans-35" transform="translate(876.5625 0)"/>
      <use xlink:href="#DejaVuSans-6d" transform="translate(940.185547 0)"/>
      <use xlink:href="#DejaVuSans-43" transform="translate(1037.597656 0)"/>
     </g>
    </g>
   </g>
  </g>
 </g>
 <defs>
  <clipPath id="pef535a7d47">
   <rect x="47.72" y="26.88" width="805.48" height="219.16"/>
  </clipPath>
 </defs>
</svg>
