<?xml version="1.0" encoding="utf-8" standalone="no"?>
<!DOCTYPE svg PUBLIC "-//W3C//DTD SVG 1.1//EN"
  "http://www.w3.org/Graphics/SVG/1.1/DTD/svg11.dtd">
<svg xmlns:xlink="http://www.w3.org/1999/xlink" width="864pt" height="288pt" viewBox="0 0 864 288" xmlns="http://www.w3.org/2000/svg" version="1.1">
 <metadata>
  <rdf:RDF xmlns:dc="http://purl.org/dc/elements/1.1/" xmlns:cc="http://creativecommons.org/ns#" xmlns:rdf="http://www.w3.org/1999/02/22-rdf-syntax-ns#">
   <cc:Work>
    <dc:type rdf:resource="http://purl.org/dc/dcmitype/StillImage"/>
    <dc:date>2026-07-18T10:45:00.473521</dc:date>
    <dc:format>image/svg+xml</dc:format>
    <dc:creator>
     <cc:Agent>
      <dc:title>Matplotlib v3.10.8, https://matplotlib.org/</dc:title>
     </cc:Agent>
    </dc:creator>
   </cc:Work>
  </rdf:RDF>
 </metadata>
 <defs>
  <style type="text/css">*{stroke-linejoin: round; stroke-linecap: butt}</style>
 </defs>
 <g id="figure_1">
  <g id="patch_1">
   <path d="M 0 288 
L 864 288 
L 864 0 
L 0 0 
z
" style="fill: #ffffff"/>
  </g>
  <g id="axes_1">
   <g id="patch_2">
    <path d="M 47.72 246.04 
L 853.2 246.04 
L 853.2 26.88 
L 47.72 26.88 
z
" style="fill: #ffffff"/>
   </g>
   <g id="matplotlib.axis_1">
    <g id="xtick_1">
     <g id="line2d_1">
      <defs>
       <path id="m8884614379" d="M 0 0 
L 0 3.5 
" style="stroke: #000000; stroke-width: 0.8"/>
      </defs>
      <g>
       <use xlink:href="#m8884614379" x="83.599005" y="246.04" style="stroke: #000000; stroke-width: 0.8"/>
      </g>
     </g>
     <g id="text_1">
      <!-- 500000 -->
      <g transform="translate(64.511505 260.638438) scale(0.1 -0.1)">
       <defs>
        <path id="DejaVuSans-35" d="M 691 4666 
L 3169 4666 
L 3169 4134 
L 1269 4134 
L 1269 2991 
Q 1406 3038 1543 3061 
Q 1681 3084 1819 3084 
Q 2600 3084 3056 2656 
Q 3513 2228 3513 1497 
Q 3513 744 3044 326 
Q 2575 -91 1722 -91 
Q 1428 -91 1123 -41 
Q 819 9 494 109 
L 494 744 
Q 775 591 1075 516 
Q 1375 441 1709 441 
Q 2250 441 2565 725 
Q 2881 1009 2881 1497 
Q 2881 1984 2565 2268 
Q 2250 2553 1709 2553 
Q 1456 2553 1204 2497 
Q 953 2441 691 2322 
L 691 4666 
z
" transform="scale(0.015625)"/>
        <path id="DejaVuSans-30" d="M 2034 4250 
Q 1547 4250 1301 3770 
Q 1056 3291 1056 2328 
Q 1056 1369 1301 889 
Q 1547 409 2034 409 
Q 2525 409 2770 889 
Q 3016 1369 3016 2328 
Q 3016 3291 2770 3770 
Q 2525 4250 2034 4250 
z
M 2034 4750 
Q 2819 4750 3233 4129 
Q 3647 3509 3647 2328 
Q 3647 1150 3233 529 
Q 2819 -91 2034 -91 
Q 1250 -91 836 529 
Q 422 1150 422 2328 
Q 422 3509 836 4129 
Q 1250 4750 2034 4750 
z
" transform="scale(0.015625)"/>
       </defs>
       <use xlink:href="#DejaVuSans-35"/>
       <use xlink:href="#DejaVuSans-30" transform="translate(63.623047 0)"/>
       <use xlink:href="#DejaVuSans-30" transform="translate(127.246094 0)"/>
       <use xlink:href="#DejaVuSans-30" transform="translate(190.869141 0)"/>
       <use xlink:href="#DejaVuSans-30" transform="translate(254.492188 0)"/>
       <use xlink:href="#DejaVuSans-30" transform="translate(318.115234 0)"/>
      </g>
     </g>
    </g>
    <g id="xtick_2">
     <g id="line2d_2">
      <g>
       <use xlink:href="#m8884614379" x="230.343403" y="246.04" style="stroke: #000000; stroke-width: 0.8"/>
      </g>
     </g>
     <g id="text_2">
      <!-- 520000 -->
      <g transform="translate(211.255903 260.638438) scale(0.1 -0.1)">
       <defs>
        <path id="DejaVuSans-32" d="M 1228 531 
L 3431 531 
L 3431 0 
L 469 0 
L 469 531 
Q 828 903 1448 1529 
Q 2069 2156 2228 2338 
Q 2531 2678 2651 2914 
Q 2772 3150 2772 3378 
Q 2772 3750 2511 3984 
Q 2250 4219 1831 4219 
Q 1534 4219 1204 4116 
Q 875 4013 500 3803 
L 500 4441 
Q 881 4594 1212 4672 
Q 1544 4750 1819 4750 
Q 2544 4750 2975 4387 
Q 3406 4025 3406 3419 
Q 3406 3131 3298 2873 
Q 3191 2616 2906 2266 
Q 2828 2175 2409 1742 
Q 1991 1309 1228 531 
z
" transform="scale(0.015625)"/>
       </defs>
       <use xlink:href="#DejaVuSans-35"/>
       <use xlink:href="#DejaVuSans-32" transform="translate(63.623047 0)"/>
       <use xlink:href="#DejaVuSans-30" transform="translate(127.246094 0)"/>
       <use xlink:href="#DejaVuSans-30" transform="translate(190.869141 0)"/>
       <use xlink:href="#DejaVuSans-30" transform="translate(254.492188 0)"/>
       <use xlink:href="#DejaVuSans-30" transform="translate(318.115234 0)"/>
      </g>
     </g>
    </g>
    <g id="xtick_3">
     <g id="line2d_3">
      <g>
       <use xlink:href="#m8884614379" x="377.087801" y="246.04" style="stroke: #000000; stroke-width: 0.8"/>
      </g>
     </g>
     <g id="text_3">
      <!-- 540000 -->
      <g transform="translate(358.000301 260.638438) scale(0.1 -0.1)">
       <defs>
        <path id="DejaVuSans-34" d="M 2419 4116 
L 825 1625 
L 2419 1625 
L 2419 4116 
z
M 2253 4666 
L 3047 4666 
L 3047 1625 
L 3713 1625 
L 3713 1100 
L 3047 1100 
L 3047 0 
L 2419 0 
L 2419 1100 
L 313 1100 
L 313 1709 
L 2253 4666 
z
" transform="scale(0.015625)"/>
       </defs>
       <use xlink:href="#DejaVuSans-35"/>
       <use xlink:href="#DejaVuSans-34" transform="translate(63.623047 0)"/>
       <use xlink:href="#DejaVuSans-30" transform="translate(127.246094 0)"/>
       <use xlink:href="#DejaVuSans-30" transform="translate(190.869141 0)"/>
       <use xlink:href="#DejaVuSans-30" transform="translate(254.492188 0)"/>
       <use xlink:href="#DejaVuSans-30" transform="translate(318.115234 0)"/>
      </g>
     </g>
    </g>
    <g id="xtick_4">
     <g id="line2d_4">
      <g>
       <use xlink:href="#m8884614379" x="523.832199" y="246.04" style="stroke: #000000; stroke-width: 0.8"/>
      </g>
     </g>
     <g id="text_4">
      <!-- 560000 -->
      <g transform="translate(504.744699 260.638438) scale(0.1 -0.1)">
       <defs>
        <path id="DejaVuSans-36" d="M 2113 2584 
Q 1688 2584 1439 2293 
Q 1191 2003 1191 1497 
Q 1191 994 1439 701 
Q 1688 409 2113 409 
Q 2538 409 2786 701 
Q 3034 994 3034 1497 
Q 3034 2003 2786 2293 
Q 2538 2584 2113 2584 
z
M 3366 4563 
L 3366 3988 
Q 3128 4100 2886 4159 
Q 2644 4219 2406 4219 
Q 1781 4219 1451 3797 
Q 1122 3375 1075 2522 
Q 1259 2794 1537 2939 
Q 1816 3084 2150 3084 
Q 2853 3084 3261 2657 
Q 3669 2231 3669 1497 
Q 3669 778 3244 343 
Q 2819 -91 2113 -91 
Q 1303 -91 875 529 
Q 447 1150 447 2328 
Q 447 3434 972 4092 
Q 1497 4750 2381 4750 
Q 2619 4750 2861 4703 
Q 3103 4656 3366 4563 
z
" transform="scale(0.015625)"/>
       </defs>
       <use xlink:href="#DejaVuSans-35"/>
       <use xlink:href="#DejaVuSans-36" transform="translate(63.623047 0)"/>
       <use xlink:href="#DejaVuSans-30" transform="translate(127.246094 0)"/>
       <use xlink:href="#DejaVuSans-30" transform="translate(190.869141 0)"/>
       <use xlink:href="#DejaVuSans-30" transform="translate(254.492188 0)"/>
       <use xlink:href="#DejaVuSans-30" transform="translate(318.115234 0)"/>
      </g>
     </g>
    </g>
    <g id="xtick_5">
     <g id="line2d_5">
      <g>
       <use xlink:href="#m8884614379" x="670.576597" y="246.04" style="stroke: #000000; stroke-width: 0.8"/>
      </g>
     </g>
     <g id="text_5">
      <!-- 580000 -->
      <g transform="translate(651.489097 260.638438) scale(0.1 -0.1)">
       <defs>
        <path id="DejaVuSans-38" d="M 2034 2216 
Q 1584 2216 1326 1975 
Q 1069 1734 1069 1313 
Q 1069 891 1326 650 
Q 1584 409 2034 409 
Q 2484 409 2743 651 
Q 3003 894 3003 1313 
Q 3003 1734 2745 1975 
Q 2488 2216 2034 2216 
z
M 1403 2484 
Q 997 2584 770 2862 
Q 544 3141 544 3541 
Q 544 4100 942 4425 
Q 1341 4750 2034 4750 
Q 2731 4750 3128 4425 
Q 3525 4100 3525 3541 
Q 3525 3141 3298 2862 
Q 3072 2584 2669 2484 
Q 3125 2378 3379 2068 
Q 3634 1759 3634 1313 
Q 3634 634 3220 271 
Q 2806 -91 2034 -91 
Q 1263 -91 848 271 
Q 434 634 434 1313 
Q 434 1759 690 2068 
Q 947 2378 1403 2484 
z
M 1172 3481 
Q 1172 3119 1398 2916 
Q 1625 2713 2034 2713 
Q 2441 2713 2670 2916 
Q 2900 3119 2900 3481 
Q 2900 3844 2670 4047 
Q 2441 4250 2034 4250 
Q 1625 4250 1398 4047 
Q 1172 3844 1172 3481 
z
" transform="scale(0.015625)"/>
       </defs>
       <use xlink:href="#DejaVuSans-35"/>
       <use xlink:href="#DejaVuSans-38" transform="translate(63.623047 0)"/>
       <use xlink:href="#DejaVuSans-30" transform="translate(127.246094 0)"/>
       <use xlink:href="#DejaVuSans-30" transform="translate(190.869141 0)"/>
       <use xlink:href="#DejaVuSans-30" transform="translate(254.492188 0)"/>
       <use xlink:href="#DejaVuSans-30" transform="translate(318.115234 0)"/>
      </g>
     </g>
    </g>
    <g id="xtick_6">
     <g id="line2d_6">
      <g>
       <use xlink:href="#m8884614379" x="817.320995" y="246.04" style="stroke: #000000; stroke-width: 0.8"/>
      </g>
     </g>
     <g id="text_6">
      <!-- 600000 -->
      <g transform="translate(798.233495 260.638438) scale(0.1 -0.1)">
       <use xlink:href="#DejaVuSans-36"/>
       <use xlink:href="#DejaVuSans-30" transform="translate(63.623047 0)"/>
       <use xlink:href="#DejaVuSans-30" transform="translate(127.246094 0)"/>
       <use xlink:href="#DejaVuSans-30" transform="translate(190.869141 0)"/>
       <use xlink:href="#DejaVuSans-30" transform="translate(254.492188 0)"/>
       <use xlink:href="#DejaVuSans-30" transform="translate(318.115234 0)"/>
      </g>
     </g>
    </g>
    <g id="text_7">
     <!-- chr16 coordinate (GRCh38) -->
     <g transform="translate(382.254531 274.316562) scale(0.1 -0.1)">
      <defs>
       <path id="DejaVuSans-63" d="M 3122 3366 
L 3122 2828 
Q 2878 2963 2633 3030 
Q 2388 3097 2138 3097 
Q 1578 3097 1268 2742 
Q 959 2388 959 1747 
Q 959 1106 1268 751 
Q 1578 397 2138 397 
Q 2388 397 2633 464 
Q 2878 531 3122 666 
L 3122 134 
Q 2881 22 2623 -34 
Q 2366 -91 2075 -91 
Q 1284 -91 818 406 
Q 353 903 353 1747 
Q 353 2603 823 3093 
Q 1294 3584 2113 3584 
Q 2378 3584 2631 3529 
Q 2884 3475 3122 3366 
z
" transform="scale(0.015625)"/>
       <path id="DejaVuSans-68" d="M 3513 2113 
L 3513 0 
L 2938 0 
L 2938 2094 
Q 2938 2591 2744 2837 
Q 2550 3084 2163 3084 
Q 1697 3084 1428 2787 
Q 1159 2491 1159 1978 
L 1159 0 
L 581 0 
L 581 4863 
L 1159 4863 
L 1159 2956 
Q 1366 3272 1645 3428 
Q 1925 3584 2291 3584 
Q 2894 3584 3203 3211 
Q 3513 2838 3513 2113 
z
" transform="scale(0.015625)"/>
       <path id="DejaVuSans-72" d="M 2631 2963 
Q 2534 3019 2420 3045 
Q 2306 3072 2169 3072 
Q 1681 3072 1420 2755 
Q 1159 2438 1159 1844 
L 1159 0 
L 581 0 
L 581 3500 
L 1159 3500 
L 1159 2956 
Q 1341 3275 1631 3429 
Q 1922 3584 2338 3584 
Q 2397 3584 2469 3576 
Q 2541 3569 2628 3553 
L 2631 2963 
z
" transform="scale(0.015625)"/>
       <path id="DejaVuSans-31" d="M 794 531 
L 1825 531 
L 1825 4091 
L 703 3866 
L 703 4441 
L 1819 4666 
L 2450 4666 
L 2450 531 
L 3481 531 
L 3481 0 
L 794 0 
L 794 531 
z
" transform="scale(0.015625)"/>
       <path id="DejaVuSans-20" transform="scale(0.015625)"/>
       <path id="DejaVuSans-6f" d="M 1959 3097 
Q 1497 3097 1228 2736 
Q 959 2375 959 1747 
Q 959 1119 1226 758 
Q 1494 397 1959 397 
Q 2419 397 2687 759 
Q 2956 1122 2956 1747 
Q 2956 2369 2687 2733 
Q 2419 3097 1959 3097 
z
M 1959 3584 
Q 2709 3584 3137 3096 
Q 3566 2609 3566 1747 
Q 3566 888 3137 398 
Q 2709 -91 1959 -91 
Q 1206 -91 779 398 
Q 353 888 353 1747 
Q 353 2609 779 3096 
Q 1206 3584 1959 3584 
z
" transform="scale(0.015625)"/>
       <path id="DejaVuSans-64" d="M 2906 2969 
L 2906 4863 
L 3481 4863 
L 3481 0 
L 2906 0 
L 2906 525 
Q 2725 213 2448 61 
Q 2172 -91 1784 -91 
Q 1150 -91 751 415 
Q 353 922 353 1747 
Q 353 2572 751 3078 
Q 1150 3584 1784 3584 
Q 2172 3584 2448 3432 
Q 2725 3281 2906 2969 
z
M 947 1747 
Q 947 1113 1208 752 
Q 1469 391 1925 391 
Q 2381 391 2643 752 
Q 2906 1113 2906 1747 
Q 2906 2381 2643 2742 
Q 2381 3103 1925 3103 
Q 1469 3103 1208 2742 
Q 947 2381 947 1747 
z
" transform="scale(0.015625)"/>
       <path id="DejaVuSans-69" d="M 603 3500 
L 1178 3500 
L 1178 0 
L 603 0 
L 603 3500 
z
M 603 4863 
L 1178 4863 
L 1178 4134 
L 603 4134 
L 603 4863 
z
" transform="scale(0.015625)"/>
       <path id="DejaVuSans-6e" d="M 3513 2113 
L 3513 0 
L 2938 0 
L 2938 2094 
Q 2938 2591 2744 2837 
Q 2550 3084 2163 3084 
Q 1697 3084 1428 2787 
Q 1159 2491 1159 1978 
L 1159 0 
L 581 0 
L 581 3500 
L 1159 3500 
L 1159 2956 
Q 1366 3272 1645 3428 
Q 1925 3584 2291 3584 
Q 2894 3584 3203 3211 
Q 3513 2838 3513 2113 
z
" transform="scale(0.015625)"/>
       <path id="DejaVuSans-61" d="M 2194 1759 
Q 1497 1759 1228 1600 
Q 959 1441 959 1056 
Q 959 750 1161 570 
Q 1363 391 1709 391 
Q 2188 391 2477 730 
Q 2766 1069 2766 1631 
L 2766 1759 
L 2194 1759 
z
M 3341 1997 
L 3341 0 
L 2766 0 
L 2766 531 
Q 2569 213 2275 61 
Q 1981 -91 1556 -91 
Q 1019 -91 701 211 
Q 384 513 384 1019 
Q 384 1609 779 1909 
Q 1175 2209 1959 2209 
L 2766 2209 
L 2766 2266 
Q 2766 2663 2505 2880 
Q 2244 3097 1772 3097 
Q 1472 3097 1187 3025 
Q 903 2953 641 2809 
L 641 3341 
Q 956 3463 1253 3523 
Q 1550 3584 1831 3584 
Q 2591 3584 2966 3190 
Q 3341 2797 3341 1997 
z
" transform="scale(0.015625)"/>
       <path id="DejaVuSans-74" d="M 1172 4494 
L 1172 3500 
L 2356 3500 
L 2356 3053 
L 1172 3053 
L 1172 1153 
Q 1172 725 1289 603 
Q 1406 481 1766 481 
L 2356 481 
L 2356 0 
L 1766 0 
Q 1100 0 847 248 
Q 594 497 594 1153 
L 594 3053 
L 172 3053 
L 172 3500 
L 594 3500 
L 594 4494 
L 1172 4494 
z
" transform="scale(0.015625)"/>
       <path id="DejaVuSans-65" d="M 3597 1894 
L 3597 1613 
L 953 1613 
Q 991 1019 1311 708 
Q 1631 397 2203 397 
Q 2534 397 2845 478 
Q 3156 559 3463 722 
L 3463 178 
Q 3153 47 2828 -22 
Q 2503 -91 2169 -91 
Q 1331 -91 842 396 
Q 353 884 353 1716 
Q 353 2575 817 3079 
Q 1281 3584 2069 3584 
Q 2775 3584 3186 3129 
Q 3597 2675 3597 1894 
z
M 3022 2063 
Q 3016 2534 2758 2815 
Q 2500 3097 2075 3097 
Q 1594 3097 1305 2825 
Q 1016 2553 972 2059 
L 3022 2063 
z
" transform="scale(0.015625)"/>
       <path id="DejaVuSans-28" d="M 1984 4856 
Q 1566 4138 1362 3434 
Q 1159 2731 1159 2009 
Q 1159 1288 1364 580 
Q 1569 -128 1984 -844 
L 1484 -844 
Q 1016 -109 783 600 
Q 550 1309 550 2009 
Q 550 2706 781 3412 
Q 1013 4119 1484 4856 
L 1984 4856 
z
" transform="scale(0.015625)"/>
       <path id="DejaVuSans-47" d="M 3809 666 
L 3809 1919 
L 2778 1919 
L 2778 2438 
L 4434 2438 
L 4434 434 
Q 4069 175 3628 42 
Q 3188 -91 2688 -91 
Q 1594 -91 976 548 
Q 359 1188 359 2328 
Q 359 3472 976 4111 
Q 1594 4750 2688 4750 
Q 3144 4750 3555 4637 
Q 3966 4525 4313 4306 
L 4313 3634 
Q 3963 3931 3569 4081 
Q 3175 4231 2741 4231 
Q 1884 4231 1454 3753 
Q 1025 3275 1025 2328 
Q 1025 1384 1454 906 
Q 1884 428 2741 428 
Q 3075 428 3337 486 
Q 3600 544 3809 666 
z
" transform="scale(0.015625)"/>
       <path id="DejaVuSans-52" d="M 2841 2188 
Q 3044 2119 3236 1894 
Q 3428 1669 3622 1275 
L 4263 0 
L 3584 0 
L 2988 1197 
Q 2756 1666 2539 1819 
Q 2322 1972 1947 1972 
L 1259 1972 
L 1259 0 
L 628 0 
L 628 4666 
L 2053 4666 
Q 2853 4666 3247 4331 
Q 3641 3997 3641 3322 
Q 3641 2881 3436 2590 
Q 3231 2300 2841 2188 
z
M 1259 4147 
L 1259 2491 
L 2053 2491 
Q 2509 2491 2742 2702 
Q 2975 2913 2975 3322 
Q 2975 3731 2742 3939 
Q 2509 4147 2053 4147 
L 1259 4147 
z
" transform="scale(0.015625)"/>
       <path id="DejaVuSans-43" d="M 4122 4306 
L 4122 3641 
Q 3803 3938 3442 4084 
Q 3081 4231 2675 4231 
Q 1875 4231 1450 3742 
Q 1025 3253 1025 2328 
Q 1025 1406 1450 917 
Q 1875 428 2675 428 
Q 3081 428 3442 575 
Q 3803 722 4122 1019 
L 4122 359 
Q 3791 134 3420 21 
Q 3050 -91 2638 -91 
Q 1578 -91 968 557 
Q 359 1206 359 2328 
Q 359 3453 968 4101 
Q 1578 4750 2638 4750 
Q 3056 4750 3426 4639 
Q 3797 4528 4122 4306 
z
" transform="scale(0.015625)"/>
       <path id="DejaVuSans-33" d="M 2597 2516 
Q 3050 2419 3304 2112 
Q 3559 1806 3559 1356 
Q 3559 666 3084 287 
Q 2609 -91 1734 -91 
Q 1441 -91 1130 -33 
Q 819 25 488 141 
L 488 750 
Q 750 597 1062 519 
Q 1375 441 1716 441 
Q 2309 441 2620 675 
Q 2931 909 2931 1356 
Q 2931 1769 2642 2001 
Q 2353 2234 1838 2234 
L 1294 2234 
L 1294 2753 
L 1863 2753 
Q 2328 2753 2575 2939 
Q 2822 3125 2822 3475 
Q 2822 3834 2567 4026 
Q 2313 4219 1838 4219 
Q 1578 4219 1281 4162 
Q 984 4106 628 3988 
L 628 4550 
Q 988 4650 1302 4700 
Q 1616 4750 1894 4750 
Q 2613 4750 3031 4423 
Q 3450 4097 3450 3541 
Q 3450 3153 3228 2886 
Q 3006 2619 2597 2516 
z
" transform="scale(0.015625)"/>
       <path id="DejaVuSans-29" d="M 513 4856 
L 1013 4856 
Q 1481 4119 1714 3412 
Q 1947 2706 1947 2009 
Q 1947 1309 1714 600 
Q 1481 -109 1013 -844 
L 513 -844 
Q 928 -128 1133 580 
Q 1338 1288 1338 2009 
Q 1338 2731 1133 3434 
Q 928 4138 513 4856 
z
" transform="scale(0.015625)"/>
      </defs>
      <use xlink:href="#DejaVuSans-63"/>
      <use xlink:href="#DejaVuSans-68" transform="translate(54.980469 0)"/>
      <use xlink:href="#DejaVuSans-72" transform="translate(118.359375 0)"/>
      <use xlink:href="#DejaVuSans-31" transform="translate(159.472656 0)"/>
      <use xlink:href="#DejaVuSans-36" transform="translate(223.095703 0)"/>
      <use xlink:href="#DejaVuSans-20" transform="translate(286.71875 0)"/>
      <use xlink:href="#DejaVuSans-63" transform="translate(318.505859 0)"/>
      <use xlink:href="#DejaVuSans-6f" transform="translate(373.486328 0)"/>
      <use xlink:href="#DejaVuSans-6f" transform="translate(434.667969 0)"/>
      <use xlink:href="#DejaVuSans-72" transform="translate(495.849609 0)"/>
      <use xlink:href="#DejaVuSans-64" transform="translate(535.212891 0)"/>
      <use xlink:href="#DejaVuSans-69" transform="translate(598.689453 0)"/>
      <use xlink:href="#DejaVuSans-6e" transform="translate(626.472656 0)"/>
      <use xlink:href="#DejaVuSans-61" transform="translate(689.851562 0)"/>
      <use xlink:href="#DejaVuSans-74" transform="translate(751.130859 0)"/>
      <use xlink:href="#DejaVuSans-65" transform="translate(790.339844 0)"/>
      <use xlink:href="#DejaVuSans-20" transform="translate(851.863281 0)"/>
      <use xlink:href="#DejaVuSans-28" transform="translate(883.650391 0)"/>
      <use xlink:href="#DejaVuSans-47" transform="translate(922.664062 0)"/>
      <use xlink:href="#DejaVuSans-52" transform="translate(1000.154297 0)"/>
      <use xlink:href="#DejaVuSans-43" transform="translate(1064.636719 0)"/>
      <use xlink:href="#DejaVuSans-68" transform="translate(1134.460938 0)"/>
      <use xlink:href="#DejaVuSans-33" transform="translate(1197.839844 0)"/>
      <use xlink:href="#DejaVuSans-38" transform="translate(1261.462891 0)"/>
      <use xlink:href="#DejaVuSans-29" transform="translate(1325.085938 0)"/>
     </g>
    </g>
   </g>
   <g id="matplotlib.axis_2">
    <g id="ytick_1">
     <g id="line2d_7">
      <defs>
       <path id="m905e0a5077" d="M 0 0 
L -3.5 0 
" style="stroke: #000000; stroke-width: 0.8"/>
      </defs>
      <g>
       <use xlink:href="#m905e0a5077" x="47.72" y="236.078182" style="stroke: #000000; stroke-width: 0.8"/>
      </g>
     </g>
     <g id="text_8">
      <!-- 0.0 -->
      <g transform="translate(24.816875 239.877401) scale(0.1 -0.1)">
       <defs>
        <path id="DejaVuSans-2e" d="M 684 794 
L 1344 794 
L 1344 0 
L 684 0 
L 684 794 
z
" transform="scale(0.015625)"/>
       </defs>
       <use xlink:href="#DejaVuSans-30"/>
       <use xlink:href="#DejaVuSans-2e" transform="translate(63.623047 0)"/>
       <use xlink:href="#DejaVuSans-30" transform="translate(95.410156 0)"/>
      </g>
     </g>
    </g>
    <g id="ytick_2">
     <g id="line2d_8">
      <g>
       <use xlink:href="#m905e0a5077" x="47.72" y="196.230909" style="stroke: #000000; stroke-width: 0.8"/>
      </g>
     </g>
     <g id="text_9">
      <!-- 0.2 -->
      <g transform="translate(24.816875 200.030128) scale(0.1 -0.1)">
       <use xlink:href="#DejaVuSans-30"/>
       <use xlink:href="#DejaVuSans-2e" transform="translate(63.623047 0)"/>
       <use xlink:href="#DejaVuSans-32" transform="translate(95.410156 0)"/>
      </g>
     </g>
    </g>
    <g id="ytick_3">
     <g id="line2d_9">
      <g>
       <use xlink:href="#m905e0a5077" x="47.72" y="156.383636" style="stroke: #000000; stroke-width: 0.8"/>
      </g>
     </g>
     <g id="text_10">
      <!-- 0.4 -->
      <g transform="translate(24.816875 160.182855) scale(0.1 -0.1)">
       <use xlink:href="#DejaVuSans-30"/>
       <use xlink:href="#DejaVuSans-2e" transform="translate(63.623047 0)"/>
       <use xlink:href="#DejaVuSans-34" transform="translate(95.410156 0)"/>
      </g>
     </g>
    </g>
    <g id="ytick_4">
     <g id="line2d_10">
      <g>
       <use xlink:href="#m905e0a5077" x="47.72" y="116.536364" style="stroke: #000000; stroke-width: 0.8"/>
      </g>
     </g>
     <g id="text_11">
      <!-- 0.6 -->
      <g transform="translate(24.816875 120.335582) scale(0.1 -0.1)">
       <use xlink:href="#DejaVuSans-30"/>
       <use xlink:href="#DejaVuSans-2e" transform="translate(63.623047 0)"/>
       <use xlink:href="#DejaVuSans-36" transform="translate(95.410156 0)"/>
      </g>
     </g>
    </g>
    <g id="ytick_5">
     <g id="line2d_11">
      <g>
       <use xlink:href="#m905e0a5077" x="47.72" y="76.689091" style="stroke: #000000; stroke-width: 0.8"/>
      </g>
     </g>
     <g id="text_12">
      <!-- 0.8 -->
      <g transform="translate(24.816875 80.48831) scale(0.1 -0.1)">
       <use xlink:href="#DejaVuSans-30"/>
       <use xlink:href="#DejaVuSans-2e" transform="translate(63.623047 0)"/>
       <use xlink:href="#DejaVuSans-38" transform="translate(95.410156 0)"/>
      </g>
     </g>
    </g>
    <g id="ytick_6">
     <g id="line2d_12">
      <g>
       <use xlink:href="#m905e0a5077" x="47.72" y="36.841818" style="stroke: #000000; stroke-width: 0.8"/>
      </g>
     </g>
     <g id="text_13">
      <!-- 1.0 -->
      <g transform="translate(24.816875 40.641037) scale(0.1 -0.1)">
       <use xlink:href="#DejaVuSans-31"/>
       <use xlink:href="#DejaVuSans-2e" transform="translate(63.623047 0)"/>
       <use xlink:href="#DejaVuSans-30" transform="translate(95.410156 0)"/>
      </g>
     </g>
    </g>
    <g id="text_14">
     <!-- global robust-normalized signal -->
     <g transform="translate(18.737188 215.175625) rotate(-90) scale(0.1 -0.1)">
      <defs>
       <path id="DejaVuSans-67" d="M 2906 1791 
Q 2906 2416 2648 2759 
Q 2391 3103 1925 3103 
Q 1463 3103 1205 2759 
Q 947 2416 947 1791 
Q 947 1169 1205 825 
Q 1463 481 1925 481 
Q 2391 481 2648 825 
Q 2906 1169 2906 1791 
z
M 3481 434 
Q 3481 -459 3084 -895 
Q 2688 -1331 1869 -1331 
Q 1566 -1331 1297 -1286 
Q 1028 -1241 775 -1147 
L 775 -588 
Q 1028 -725 1275 -790 
Q 1522 -856 1778 -856 
Q 2344 -856 2625 -561 
Q 2906 -266 2906 331 
L 2906 616 
Q 2728 306 2450 153 
Q 2172 0 1784 0 
Q 1141 0 747 490 
Q 353 981 353 1791 
Q 353 2603 747 3093 
Q 1141 3584 1784 3584 
Q 2172 3584 2450 3431 
Q 2728 3278 2906 2969 
L 2906 3500 
L 3481 3500 
L 3481 434 
z
" transform="scale(0.015625)"/>
       <path id="DejaVuSans-6c" d="M 603 4863 
L 1178 4863 
L 1178 0 
L 603 0 
L 603 4863 
z
" transform="scale(0.015625)"/>
       <path id="DejaVuSans-62" d="M 3116 1747 
Q 3116 2381 2855 2742 
Q 2594 3103 2138 3103 
Q 1681 3103 1420 2742 
Q 1159 2381 1159 1747 
Q 1159 1113 1420 752 
Q 1681 391 2138 391 
Q 2594 391 2855 752 
Q 3116 1113 3116 1747 
z
M 1159 2969 
Q 1341 3281 1617 3432 
Q 1894 3584 2278 3584 
Q 2916 3584 3314 3078 
Q 3713 2572 3713 1747 
Q 3713 922 3314 415 
Q 2916 -91 2278 -91 
Q 1894 -91 1617 61 
Q 1341 213 1159 525 
L 1159 0 
L 581 0 
L 581 4863 
L 1159 4863 
L 1159 2969 
z
" transform="scale(0.015625)"/>
       <path id="DejaVuSans-75" d="M 544 1381 
L 544 3500 
L 1119 3500 
L 1119 1403 
Q 1119 906 1312 657 
Q 1506 409 1894 409 
Q 2359 409 2629 706 
Q 2900 1003 2900 1516 
L 2900 3500 
L 3475 3500 
L 3475 0 
L 2900 0 
L 2900 538 
Q 2691 219 2414 64 
Q 2138 -91 1772 -91 
Q 1169 -91 856 284 
Q 544 659 544 1381 
z
M 1991 3584 
L 1991 3584 
z
" transform="scale(0.015625)"/>
       <path id="DejaVuSans-73" d="M 2834 3397 
L 2834 2853 
Q 2591 2978 2328 3040 
Q 2066 3103 1784 3103 
Q 1356 3103 1142 2972 
Q 928 2841 928 2578 
Q 928 2378 1081 2264 
Q 1234 2150 1697 2047 
L 1894 2003 
Q 2506 1872 2764 1633 
Q 3022 1394 3022 966 
Q 3022 478 2636 193 
Q 2250 -91 1575 -91 
Q 1294 -91 989 -36 
Q 684 19 347 128 
L 347 722 
Q 666 556 975 473 
Q 1284 391 1588 391 
Q 1994 391 2212 530 
Q 2431 669 2431 922 
Q 2431 1156 2273 1281 
Q 2116 1406 1581 1522 
L 1381 1569 
Q 847 1681 609 1914 
Q 372 2147 372 2553 
Q 372 3047 722 3315 
Q 1072 3584 1716 3584 
Q 2034 3584 2315 3537 
Q 2597 3491 2834 3397 
z
" transform="scale(0.015625)"/>
       <path id="DejaVuSans-2d" d="M 313 2009 
L 1997 2009 
L 1997 1497 
L 313 1497 
L 313 2009 
z
" transform="scale(0.015625)"/>
       <path id="DejaVuSans-6d" d="M 3328 2828 
Q 3544 3216 3844 3400 
Q 4144 3584 4550 3584 
Q 5097 3584 5394 3201 
Q 5691 2819 5691 2113 
L 5691 0 
L 5113 0 
L 5113 2094 
Q 5113 2597 4934 2840 
Q 4756 3084 4391 3084 
Q 3944 3084 3684 2787 
Q 3425 2491 3425 1978 
L 3425 0 
L 2847 0 
L 2847 2094 
Q 2847 2600 2669 2842 
Q 2491 3084 2119 3084 
Q 1678 3084 1418 2786 
Q 1159 2488 1159 1978 
L 1159 0 
L 581 0 
L 581 3500 
L 1159 3500 
L 1159 2956 
Q 1356 3278 1631 3431 
Q 1906 3584 2284 3584 
Q 2666 3584 2933 3390 
Q 3200 3197 3328 2828 
z
" transform="scale(0.015625)"/>
       <path id="DejaVuSans-7a" d="M 353 3500 
L 3084 3500 
L 3084 2975 
L 922 459 
L 3084 459 
L 3084 0 
L 275 0 
L 275 525 
L 2438 3041 
L 353 3041 
L 353 3500 
z
" transform="scale(0.015625)"/>
      </defs>
      <use xlink:href="#DejaVuSans-67"/>
      <use xlink:href="#DejaVuSans-6c" transform="translate(63.476562 0)"/>
      <use xlink:href="#DejaVuSans-6f" transform="translate(91.259766 0)"/>
      <use xlink:href="#DejaVuSans-62" transform="translate(152.441406 0)"/>
      <use xlink:href="#DejaVuSans-61" transform="translate(215.917969 0)"/>
      <use xlink:href="#DejaVuSans-6c" transform="translate(277.197266 0)"/>
      <use xlink:href="#DejaVuSans-20" transform="translate(304.980469 0)"/>
      <use xlink:href="#DejaVuSans-72" transform="translate(336.767578 0)"/>
      <use xlink:href="#DejaVuSans-6f" transform="translate(375.630859 0)"/>
      <use xlink:href="#DejaVuSans-62" transform="translate(436.8125 0)"/>
      <use xlink:href="#DejaVuSans-75" transform="translate(500.289062 0)"/>
      <use xlink:href="#DejaVuSans-73" transform="translate(563.667969 0)"/>
      <use xlink:href="#DejaVuSans-74" transform="translate(615.767578 0)"/>
      <use xlink:href="#DejaVuSans-2d" transform="translate(654.976562 0)"/>
      <use xlink:href="#DejaVuSans-6e" transform="translate(691.060547 0)"/>
      <use xlink:href="#DejaVuSans-6f" transform="translate(754.439453 0)"/>
      <use xlink:href="#DejaVuSans-72" transform="translate(815.621094 0)"/>
      <use xlink:href="#DejaVuSans-6d" transform="translate(854.984375 0)"/>
      <use xlink:href="#DejaVuSans-61" transform="translate(952.396484 0)"/>
      <use xlink:href="#DejaVuSans-6c" transform="translate(1013.675781 0)"/>
      <use xlink:href="#DejaVuSans-69" transform="translate(1041.458984 0)"/>
      <use xlink:href="#DejaVuSans-7a" transform="translate(1069.242188 0)"/>
      <use xlink:href="#DejaVuSans-65" transform="translate(1121.732422 0)"/>
      <use xlink:href="#DejaVuSans-64" transform="translate(1183.255859 0)"/>
      <use xlink:href="#DejaVuSans-20" transform="translate(1246.732422 0)"/>
      <use xlink:href="#DejaVuSans-73" transform="translate(1278.519531 0)"/>
      <use xlink:href="#DejaVuSans-69" transform="translate(1330.619141 0)"/>
      <use xlink:href="#DejaVuSans-67" transform="translate(1358.402344 0)"/>
      <use xlink:href="#DejaVuSans-6e" transform="translate(1421.878906 0)"/>
      <use xlink:href="#DejaVuSans-61" transform="translate(1485.257812 0)"/>
      <use xlink:href="#DejaVuSans-6c" transform="translate(1546.537109 0)"/>
     </g>
    </g>
   </g>
   <g id="line2d_13">
    <path d="M 84.332727 234.331677 
L 85.800171 236.078182 
L 87.267615 235.503342 
L 88.735059 234.10493 
L 90.202503 233.750003 
L 91.669947 232.621208 
L 93.137391 232.986619 
L 94.604835 232.148186 
L 96.072279 232.705305 
L 97.539723 232.622144 
L 99.007167 229.115656 
L 100.474611 229.127069 
L 101.942055 229.394869 
L 103.409499 227.094722 
L 104.876943 228.705039 
L 106.344387 231.931051 
L 107.811831 233.371399 
L 109.279275 231.246191 
L 110.746719 233.146354 
L 112.214163 233.466455 
L 113.681607 233.163666 
L 115.149051 235.988516 
L 116.616495 235.963589 
L 118.083939 235.69457 
L 119.551383 235.190489 
L 121.018827 234.914531 
L 122.486271 230.037179 
L 123.953715 233.136656 
L 125.421159 234.970681 
L 126.888603 234.299984 
L 128.356047 234.045498 
L 129.823491 230.27403 
L 131.290935 232.113639 
L 132.758379 231.005442 
L 134.225823 231.021344 
L 135.693267 233.527362 
L 137.160711 229.945209 
L 138.628154 231.514586 
L 140.095598 233.901017 
L 141.563042 233.266274 
L 143.030486 232.223785 
L 144.49793 230.351988 
L 145.965374 230.96655 
L 148.900262 234.404208 
L 150.367706 232.108301 
L 151.83515 233.526782 
L 153.302594 231.28388 
L 154.770038 231.640068 
L 156.237482 233.253878 
L 157.704926 231.898183 
L 159.17237 233.980741 
L 160.639814 230.206082 
L 162.107258 229.47201 
L 163.574702 234.274675 
L 165.042146 234.58856 
L 166.50959 235.589936 
L 167.977034 234.010637 
L 169.444478 232.874712 
L 170.911922 233.040674 
L 172.379366 230.712461 
L 173.84681 235.046906 
L 175.314254 235.2113 
L 176.781698 234.6093 
L 178.249142 229.76185 
L 179.716586 228.093455 
L 181.18403 230.73989 
L 182.651474 232.90199 
L 184.118918 234.5247 
L 185.586362 233.692543 
L 187.053806 234.167551 
L 188.52125 233.493626 
L 189.988694 232.635484 
L 191.456138 233.670317 
L 192.923582 234.397805 
L 194.391026 234.179688 
L 195.85847 231.714243 
L 197.325914 232.545874 
L 198.793358 234.269695 
L 200.260802 234.21988 
L 201.728246 234.515531 
L 203.19569 233.58434 
L 204.663134 234.525338 
L 206.130578 234.344423 
L 207.598021 231.948032 
L 209.065465 231.53949 
L 210.532909 231.776403 
L 212.000353 230.735085 
L 213.467797 233.156991 
L 214.935241 234.396141 
L 216.402685 234.266605 
L 217.870129 232.242615 
L 219.337573 234.537102 
L 220.805017 233.747959 
L 222.272461 233.448972 
L 223.739905 230.718466 
L 225.207349 230.867401 
L 226.674793 233.522384 
L 228.142237 232.007816 
L 229.609681 230.701359 
L 231.077125 232.3537 
L 232.544569 233.34801 
L 234.012013 234.881487 
L 235.479457 232.142047 
L 236.946901 232.776063 
L 238.414345 230.367341 
L 241.349233 228.826222 
L 242.816677 230.601302 
L 244.284121 232.008249 
L 245.751565 233.210257 
L 247.219009 234.982252 
L 248.686453 232.419504 
L 250.153897 231.417814 
L 251.621341 232.737668 
L 253.088785 231.25964 
L 254.556229 232.963658 
L 256.023673 230.789406 
L 257.491117 232.414365 
L 258.958561 232.600076 
L 260.426005 230.518569 
L 261.893449 230.278283 
L 263.360893 232.515711 
L 264.828337 230.824877 
L 266.295781 232.343444 
L 267.763225 231.83906 
L 269.230669 229.670622 
L 270.698113 226.085784 
L 272.165557 226.97398 
L 273.633001 219.86128 
L 275.100445 210.010475 
L 276.567889 192.183935 
L 278.035332 164.78647 
L 279.502776 89.929907 
L 280.97022 36.841818 
L 282.437664 36.841818 
L 283.905108 58.116359 
L 285.372552 133.851879 
L 286.839996 112.83037 
L 288.30744 58.504523 
L 289.774884 36.841818 
L 292.709772 36.841818 
L 294.177216 49.951532 
L 295.64466 140.710994 
L 297.112104 159.687745 
L 298.579548 188.003067 
L 300.046992 203.82429 
L 301.514436 224.195886 
L 302.98188 230.02532 
L 304.449324 231.533407 
L 305.916768 229.50756 
L 308.851656 229.358653 
L 310.3191 231.853801 
L 311.786544 233.652431 
L 313.253988 233.100541 
L 314.721432 231.540758 
L 316.188876 233.331411 
L 317.65632 233.577761 
L 319.123764 234.924759 
L 320.591208 234.085057 
L 322.058652 230.675278 
L 323.526096 234.261051 
L 324.99354 232.265659 
L 326.460984 232.118454 
L 327.928428 233.059514 
L 330.863316 226.743361 
L 332.33076 227.777637 
L 333.798204 226.774278 
L 335.265648 229.844451 
L 336.733092 228.166273 
L 338.200536 229.500222 
L 339.66798 232.107146 
L 341.135424 230.125544 
L 342.602868 224.237089 
L 344.070312 223.171972 
L 345.537756 229.796327 
L 347.005199 230.551175 
L 348.472643 228.702018 
L 349.940087 231.580705 
L 351.407531 231.860172 
L 352.874975 232.257524 
L 354.342419 231.130589 
L 355.809863 234.693746 
L 357.277307 236.078182 
L 358.744751 234.89319 
L 360.212195 232.961547 
L 361.679639 235.649135 
L 364.614527 230.397558 
L 366.081971 230.188206 
L 367.549415 233.35238 
L 369.016859 234.466749 
L 370.484303 232.746739 
L 371.951747 232.87735 
L 373.419191 231.417275 
L 374.886635 232.245254 
L 376.354079 233.589221 
L 377.821523 232.962516 
L 379.288967 233.532536 
L 380.756411 233.8935 
L 382.223855 235.364289 
L 383.691299 234.495946 
L 385.158743 234.097728 
L 386.626187 229.459282 
L 388.093631 232.106726 
L 389.561075 230.46335 
L 391.028519 232.565801 
L 392.495963 230.777251 
L 393.963407 229.947839 
L 395.430851 233.767942 
L 396.898295 233.831928 
L 398.365739 232.875389 
L 399.833183 232.095845 
L 401.300627 231.701756 
L 402.768071 233.373821 
L 405.702959 234.24615 
L 407.170403 233.573563 
L 408.637847 232.035614 
L 410.105291 234.33098 
L 411.572735 235.106702 
L 413.040179 236.078182 
L 414.507623 235.579978 
L 415.975066 232.831648 
L 417.44251 234.522101 
L 418.909954 231.763688 
L 420.377398 231.880507 
L 421.844842 233.287896 
L 423.312286 234.384848 
L 424.77973 234.641698 
L 426.247174 233.417997 
L 427.714618 232.548249 
L 429.182062 232.286549 
L 430.649506 228.943161 
L 432.11695 230.329003 
L 433.584394 232.451908 
L 435.051838 232.663314 
L 436.519282 232.121488 
L 440.921614 230.976499 
L 442.389058 229.541665 
L 443.856502 231.604257 
L 445.323946 236.078182 
L 446.79139 233.701747 
L 448.258834 233.532343 
L 449.726278 229.138203 
L 451.193722 231.816128 
L 452.661166 235.794197 
L 455.596054 231.967962 
L 457.063498 232.979335 
L 458.530942 235.839047 
L 459.998386 235.794192 
L 461.46583 235.560115 
L 462.933274 233.461578 
L 464.400718 230.828332 
L 465.868162 231.634155 
L 467.335606 233.622024 
L 468.80305 234.533756 
L 470.270494 232.781515 
L 471.737938 234.608489 
L 473.205382 235.614855 
L 474.672826 234.693189 
L 476.14027 232.017783 
L 477.607714 229.586495 
L 479.075158 229.818232 
L 480.542602 234.436136 
L 482.010046 234.892328 
L 483.47749 234.286452 
L 484.944934 232.633316 
L 486.412377 232.187612 
L 487.879821 233.323098 
L 489.347265 230.813327 
L 490.814709 231.898131 
L 492.282153 235.575301 
L 493.749597 233.939092 
L 495.217041 235.160462 
L 496.684485 232.548744 
L 498.151929 233.362941 
L 501.086817 236.078182 
L 502.554261 236.078182 
L 504.021705 235.151507 
L 505.489149 233.957697 
L 506.956593 234.680638 
L 508.424037 231.752514 
L 509.891481 230.743113 
L 511.358925 230.824046 
L 514.293813 226.425533 
L 515.761257 227.631074 
L 517.228701 231.375008 
L 518.696145 229.245284 
L 520.163589 229.366145 
L 521.631033 222.21341 
L 523.098477 219.653204 
L 524.565921 190.156664 
L 526.033365 151.86147 
L 527.500809 142.644874 
L 528.968253 189.323341 
L 530.435697 211.414034 
L 531.903141 218.235144 
L 533.370585 227.687908 
L 534.838029 233.12032 
L 536.305473 232.527375 
L 537.772917 234.524002 
L 539.240361 233.920947 
L 540.707805 228.742881 
L 542.175249 228.460915 
L 543.642693 232.027721 
L 545.110137 231.331926 
L 546.577581 232.670443 
L 548.045025 225.133278 
L 549.512469 231.96137 
L 550.979913 233.213466 
L 552.447357 231.016366 
L 553.914801 231.654089 
L 555.382244 229.223039 
L 556.849688 232.742396 
L 558.317132 229.890411 
L 559.784576 230.800596 
L 561.25202 233.971229 
L 562.719464 232.481793 
L 564.186908 234.635726 
L 565.654352 231.779272 
L 567.121796 230.833418 
L 568.58924 231.393985 
L 570.056684 232.112101 
L 571.524128 230.218224 
L 572.991572 232.650471 
L 574.459016 232.863686 
L 575.92646 228.195809 
L 577.393904 229.09396 
L 578.861348 233.94089 
L 580.328792 232.924522 
L 581.796236 230.981498 
L 583.26368 231.562824 
L 584.731124 231.948936 
L 586.198568 234.060814 
L 587.666012 229.36956 
L 589.133456 224.27908 
L 590.6009 219.934205 
L 592.068344 204.116328 
L 593.535788 174.453587 
L 595.003232 138.415415 
L 596.470676 131.012619 
L 597.93812 36.841818 
L 599.405564 36.841818 
L 600.873008 49.266111 
L 602.340452 44.028806 
L 605.27534 202.695802 
L 606.742784 225.325655 
L 608.210228 229.40437 
L 609.677672 231.256037 
L 611.145116 230.104551 
L 612.61256 230.972675 
L 614.080004 230.079698 
L 617.014892 232.670435 
L 618.482336 235.116637 
L 619.94978 235.938678 
L 621.417224 233.507437 
L 624.352111 230.776018 
L 625.819555 230.797705 
L 627.286999 232.536421 
L 628.754443 234.738385 
L 630.221887 234.214896 
L 631.689331 233.238721 
L 633.156775 230.996456 
L 634.624219 233.128784 
L 636.091663 236.078182 
L 637.559107 232.451222 
L 639.026551 233.472564 
L 640.493995 233.781977 
L 641.961439 234.506105 
L 643.428883 233.720596 
L 644.896327 230.791513 
L 646.363771 230.249281 
L 647.831215 233.298201 
L 649.298659 232.527463 
L 650.766103 231.408056 
L 652.233547 231.404972 
L 653.700991 232.271614 
L 655.168435 234.748957 
L 656.635879 235.36077 
L 658.103323 233.881857 
L 659.570767 231.916629 
L 661.038211 228.455028 
L 662.505655 221.789753 
L 663.973099 204.28516 
L 665.440543 222.983622 
L 668.375431 234.160101 
L 669.842875 233.278273 
L 671.310319 232.037773 
L 672.777763 233.185858 
L 674.245207 230.221618 
L 675.712651 233.904923 
L 677.180095 232.721203 
L 678.647539 234.361425 
L 680.114983 233.937124 
L 681.582427 232.994293 
L 683.049871 232.879696 
L 684.517315 233.39664 
L 685.984759 231.687301 
L 687.452203 232.243043 
L 688.919647 233.607074 
L 690.387091 227.922887 
L 691.854535 228.958209 
L 693.321979 232.459041 
L 694.789422 232.301939 
L 696.256866 227.419843 
L 697.72431 229.564966 
L 699.191754 232.705784 
L 700.659198 231.680132 
L 702.126642 227.34113 
L 703.594086 230.225031 
L 705.06153 234.496353 
L 706.528974 236.078182 
L 707.996418 236.078182 
L 709.463862 233.681439 
L 710.931306 229.684949 
L 712.39875 232.481189 
L 713.866194 228.782048 
L 715.333638 222.149793 
L 716.801082 229.455027 
L 718.268526 232.635408 
L 719.73597 235.161139 
L 721.203414 233.80762 
L 722.670858 232.059745 
L 724.138302 229.121764 
L 725.605746 226.471349 
L 727.07319 226.775603 
L 728.540634 224.038574 
L 730.008078 206.921745 
L 731.475522 186.726439 
L 732.942966 133.935364 
L 734.41041 100.446929 
L 735.877854 38.66422 
L 737.345298 36.841818 
L 738.812742 96.993152 
L 740.280186 111.22851 
L 741.74763 119.567401 
L 743.215074 192.125286 
L 744.682518 174.839803 
L 746.149962 72.214619 
L 747.617406 47.372763 
L 749.08485 71.81668 
L 750.552294 170.493395 
L 752.019738 195.79615 
L 753.487182 223.055755 
L 754.954626 230.976162 
L 757.889514 233.14037 
L 760.824402 230.801507 
L 762.291846 230.008875 
L 763.759289 232.389721 
L 765.226733 232.778793 
L 766.694177 230.518179 
L 768.161621 230.058677 
L 769.629065 230.868061 
L 771.096509 231.377856 
L 772.563953 228.816974 
L 774.031397 233.300362 
L 775.498841 231.583795 
L 776.966285 235.386525 
L 778.433729 232.481119 
L 779.901173 231.004437 
L 781.368617 232.230295 
L 782.836061 231.563619 
L 784.303505 234.121255 
L 785.770949 233.685168 
L 787.238393 234.616479 
L 788.705837 234.812103 
L 790.173281 234.201794 
L 791.640725 232.42677 
L 793.108169 230.256273 
L 794.575613 231.225618 
L 796.043057 231.607127 
L 797.510501 234.291022 
L 798.977945 232.376162 
L 800.445389 230.814995 
L 801.912833 233.258329 
L 803.380277 236.078182 
L 804.847721 235.654997 
L 806.315165 233.31941 
L 807.782609 234.010734 
L 809.250053 231.924902 
L 810.717497 231.803547 
L 812.184941 233.661887 
L 813.652385 234.927701 
L 815.119829 235.146526 
L 816.587273 235.814121 
L 816.587273 235.814121 
" clip-path="url(#pbc9d4ac9ee)" style="fill: none; stroke: #2ca02c; stroke-width: 1.2; stroke-linecap: square"/>
   </g>
   <g id="line2d_14">
    <path d="M 84.332727 234.360706 
L 85.800171 234.713828 
L 87.267615 235.193353 
L 88.735059 234.87902 
L 90.202503 234.007583 
L 91.669947 233.806946 
L 94.604835 235.218767 
L 96.072279 234.630229 
L 99.007167 232.952229 
L 100.474611 232.280761 
L 101.942055 231.935664 
L 103.409499 232.591081 
L 104.876943 231.320375 
L 106.344387 231.727001 
L 107.811831 231.99318 
L 109.279275 232.835859 
L 110.746719 233.848411 
L 112.214163 235.641444 
L 113.681607 236.078182 
L 118.083939 236.078182 
L 119.551383 235.834056 
L 121.018827 234.838224 
L 122.486271 234.603478 
L 123.953715 234.870995 
L 125.421159 234.975326 
L 128.356047 234.812141 
L 131.290935 234.792077 
L 132.758379 234.666344 
L 134.225823 234.797427 
L 135.693267 235.253544 
L 137.160711 235.463545 
L 138.628154 234.876345 
L 140.095598 234.588095 
L 141.563042 234.420897 
L 143.030486 234.12596 
L 144.49793 234.313222 
L 145.965374 234.726535 
L 148.900262 234.310546 
L 154.770038 233.785544 
L 156.237482 234.390133 
L 157.704926 234.826854 
L 159.17237 234.71851 
L 160.639814 234.461694 
L 162.107258 234.511184 
L 163.574702 235.58259 
L 165.042146 236.078182 
L 169.444478 236.078182 
L 170.911922 235.940059 
L 172.379366 235.439468 
L 173.84681 236.078182 
L 175.314254 236.078182 
L 176.781698 235.170614 
L 178.249142 234.487776 
L 179.716586 234.312553 
L 182.651474 234.400833 
L 184.118918 234.455674 
L 187.053806 234.760644 
L 189.988694 234.594114 
L 191.456138 234.678382 
L 195.85847 234.638255 
L 197.325914 235.1559 
L 198.793358 235.351188 
L 200.260802 234.919148 
L 203.19569 234.448986 
L 204.663134 234.727873 
L 206.130578 235.286984 
L 207.598021 234.78472 
L 210.532909 234.481089 
L 212.000353 234.427585 
L 213.467797 234.817491 
L 214.935241 235.332461 
L 217.870129 234.723191 
L 219.337573 235.085008 
L 222.272461 234.654306 
L 225.207349 234.8623 
L 232.544569 235.113097 
L 239.881789 234.422904 
L 244.284121 233.09 
L 245.751565 233.841723 
L 247.219009 233.911277 
L 248.686453 233.210383 
L 250.153897 233.290638 
L 251.621341 233.617009 
L 254.556229 233.857774 
L 256.023673 233.571531 
L 257.491117 234.216247 
L 258.958561 234.543955 
L 260.426005 233.349492 
L 261.893449 232.684712 
L 263.360893 232.855923 
L 264.828337 232.743566 
L 266.295781 232.271398 
L 267.763225 230.449607 
L 269.230669 228.037941 
L 270.698113 226.090417 
L 272.165557 227.371824 
L 273.633001 221.202881 
L 275.100445 212.468451 
L 276.567889 198.332852 
L 278.035332 171.714909 
L 279.502776 123.647451 
L 280.97022 52.680538 
L 282.437664 36.841818 
L 283.905108 79.325232 
L 285.372552 125.423764 
L 286.839996 140.811343 
L 288.30744 77.891341 
L 289.774884 48.186252 
L 291.242328 36.841818 
L 292.709772 36.841818 
L 294.177216 76.222035 
L 295.64466 147.103343 
L 297.112104 178.049712 
L 300.046992 213.527818 
L 301.514436 221.352691 
L 302.98188 225.884429 
L 304.449324 228.25998 
L 307.384212 230.22088 
L 310.3191 231.701587 
L 311.786544 232.324901 
L 314.721432 233.146179 
L 316.188876 233.667837 
L 319.123764 233.384269 
L 320.591208 233.528728 
L 322.058652 234.205546 
L 323.526096 235.330455 
L 324.99354 234.640261 
L 326.460984 233.325415 
L 329.395872 230.123236 
L 330.863316 227.952336 
L 332.33076 228.893996 
L 333.798204 225.282516 
L 335.265648 225.170159 
L 336.733092 226.079717 
L 338.200536 225.122006 
L 339.66798 225.162133 
L 341.135424 222.717028 
L 342.602868 219.466696 
L 344.070312 220.654472 
L 345.537756 224.63245 
L 347.005199 221.352691 
L 348.472643 221.601482 
L 349.940087 224.672577 
L 351.407531 230.013554 
L 352.874975 231.1291 
L 354.342419 230.654258 
L 357.277307 231.474197 
L 358.744751 232.450634 
L 360.212195 233.210383 
L 361.679639 233.394969 
L 364.614527 233.207708 
L 366.081971 233.223759 
L 369.016859 233.72134 
L 370.484303 233.197007 
L 371.951747 232.542928 
L 374.886635 230.667633 
L 376.354079 231.052858 
L 377.821523 232.169742 
L 379.288967 231.514325 
L 380.756411 232.562992 
L 385.158743 233.55548 
L 388.093631 233.851086 
L 389.561075 233.936023 
L 391.028519 235.004753 
L 392.495963 234.494464 
L 393.963407 233.531403 
L 395.430851 233.608983 
L 396.898295 234.047711 
L 398.365739 234.11459 
L 399.833183 233.408345 
L 401.300627 233.317389 
L 402.768071 233.734716 
L 404.235515 233.40567 
L 405.702959 233.80427 
L 408.637847 234.008921 
L 410.105291 234.379432 
L 411.572735 235.826699 
L 413.040179 235.694947 
L 414.507623 234.05908 
L 418.909954 233.9815 
L 420.377398 234.212903 
L 423.312286 234.065768 
L 424.77973 234.109909 
L 426.247174 234.313222 
L 429.182062 234.061756 
L 430.649506 233.241147 
L 432.11695 232.732865 
L 433.584394 233.476562 
L 435.051838 234.054399 
L 436.519282 233.772168 
L 437.986726 233.994208 
L 439.45417 233.745417 
L 440.921614 233.718665 
L 442.389058 233.879175 
L 443.856502 234.41956 
L 445.323946 234.752618 
L 446.79139 234.648287 
L 449.726278 233.623696 
L 451.193722 233.48325 
L 452.661166 233.649111 
L 454.12861 234.001564 
L 455.596054 234.877682 
L 457.063498 235.606666 
L 458.530942 235.689597 
L 459.998386 234.782045 
L 461.46583 234.095864 
L 464.400718 233.939367 
L 465.868162 234.375419 
L 467.335606 234.440961 
L 470.270494 234.109909 
L 471.737938 234.677714 
L 473.205382 235.789247 
L 474.672826 234.649624 
L 476.14027 233.657136 
L 477.607714 233.608983 
L 479.075158 232.739553 
L 480.542602 232.045346 
L 482.010046 231.202667 
L 483.47749 229.953363 
L 484.944934 230.710436 
L 486.412377 230.773303 
L 487.879821 231.016743 
L 489.347265 232.744903 
L 490.814709 232.945541 
L 493.749597 233.859111 
L 496.684485 234.489114 
L 498.151929 234.892396 
L 502.554261 234.988702 
L 506.956593 234.678382 
L 508.424037 234.662331 
L 509.891481 234.396821 
L 511.358925 233.778856 
L 512.826369 233.36153 
L 514.293813 232.732865 
L 515.761257 231.721651 
L 517.228701 230.285084 
L 518.696145 229.731324 
L 520.163589 227.55106 
L 521.631033 220.889887 
L 523.098477 213.131893 
L 524.565921 203.421025 
L 526.033365 195.1601 
L 527.500809 190.676515 
L 528.968253 201.848025 
L 530.435697 214.009349 
L 531.903141 222.687601 
L 533.370585 227.874756 
L 534.838029 230.314511 
L 536.305473 231.796555 
L 537.772917 232.577705 
L 539.240361 232.999044 
L 540.707805 233.844398 
L 543.642693 233.943379 
L 545.110137 234.257043 
L 546.577581 234.414878 
L 548.045025 234.700452 
L 550.979913 234.822173 
L 552.447357 235.156569 
L 553.914801 235.093034 
L 555.382244 235.262907 
L 556.849688 235.616029 
L 558.317132 235.400678 
L 559.784576 235.48829 
L 561.25202 235.400009 
L 562.719464 235.063607 
L 564.186908 234.881695 
L 565.654352 234.258381 
L 567.121796 234.603478 
L 570.056684 234.243667 
L 571.524128 233.205032 
L 572.991572 232.755604 
L 574.459016 233.716659 
L 575.92646 233.110733 
L 577.393904 233.41102 
L 578.861348 233.855099 
L 580.328792 234.533923 
L 581.796236 234.551312 
L 583.26368 234.094526 
L 584.731124 233.417708 
L 587.666012 231.214706 
L 589.133456 229.180239 
L 590.6009 224.351557 
L 592.068344 198.723427 
L 593.535788 161.741874 
L 595.003232 103.915396 
L 596.470676 111.277465 
L 597.93812 36.841818 
L 599.405564 36.841818 
L 600.873008 72.412593 
L 602.340452 140.554527 
L 605.27534 216.256492 
L 606.742784 227.853354 
L 608.210228 231.630695 
L 609.677672 233.053885 
L 611.145116 233.099363 
L 612.61256 233.294651 
L 614.080004 233.607645 
L 615.547448 234.198858 
L 617.014892 235.156569 
L 619.94978 234.752618 
L 621.417224 234.549974 
L 622.884668 234.477745 
L 624.352111 234.527904 
L 625.819555 234.914466 
L 628.754443 235.066282 
L 630.221887 235.052906 
L 633.156775 234.632236 
L 634.624219 234.584083 
L 637.559107 234.782045 
L 641.961439 234.590102 
L 643.428883 234.311884 
L 646.363771 233.927328 
L 647.831215 233.598282 
L 649.298659 233.994208 
L 650.766103 234.918479 
L 652.233547 235.143193 
L 653.700991 234.672363 
L 655.168435 234.527904 
L 656.635879 234.695102 
L 658.103323 234.374082 
L 659.570767 233.703952 
L 661.038211 232.128276 
L 662.505655 229.758076 
L 663.973099 226.066341 
L 665.440543 229.07992 
L 668.375431 235.544469 
L 669.842875 234.364719 
L 671.310319 233.885863 
L 672.777763 234.140004 
L 674.245207 234.60214 
L 675.712651 234.792077 
L 678.647539 234.654306 
L 680.114983 234.811472 
L 681.582427 235.287652 
L 683.049871 235.884884 
L 684.517315 235.439468 
L 685.984759 234.800103 
L 688.919647 234.505834 
L 690.387091 234.587427 
L 693.321979 234.259049 
L 694.789422 234.210228 
L 697.72431 233.487263 
L 699.191754 232.722164 
L 700.659198 233.271912 
L 702.126642 233.156879 
L 703.594086 233.953411 
L 705.06153 235.258894 
L 706.528974 236.078182 
L 707.996418 236.078182 
L 709.463862 235.263576 
L 710.931306 233.294651 
L 712.39875 232.557641 
L 715.333638 233.461849 
L 716.801082 233.4779 
L 718.268526 233.143503 
L 719.73597 233.057898 
L 722.670858 231.658784 
L 724.138302 230.5312 
L 725.605746 227.952336 
L 727.07319 224.924043 
L 728.540634 215.058016 
L 730.008078 194.721372 
L 731.475522 167.124317 
L 734.41041 44.676429 
L 735.877854 36.841818 
L 737.345298 36.841818 
L 738.812742 94.5416 
L 740.280186 110.164594 
L 741.74763 117.462458 
L 743.215074 186.075222 
L 744.682518 178.049712 
L 746.149962 46.516946 
L 747.617406 42.108265 
L 749.08485 106.141138 
L 750.552294 176.369705 
L 752.019738 214.314318 
L 753.487182 225.159458 
L 754.954626 230.606105 
L 756.42207 233.277262 
L 757.889514 233.068599 
L 760.824402 232.344965 
L 762.291846 231.977129 
L 765.226733 231.518338 
L 768.161621 230.120561 
L 769.629065 231.685536 
L 771.096509 232.758279 
L 772.563953 232.365029 
L 774.031397 232.958917 
L 775.498841 233.752105 
L 776.966285 234.365387 
L 778.433729 234.766663 
L 779.901173 235.412717 
L 781.368617 235.365901 
L 782.836061 235.174626 
L 784.303505 235.224117 
L 785.770949 235.404691 
L 788.705837 234.751949 
L 791.640725 234.8516 
L 796.043057 234.894402 
L 798.977945 234.561344 
L 800.445389 234.883702 
L 801.912833 235.555169 
L 803.380277 236.078182 
L 804.847721 235.901269 
L 806.315165 235.268926 
L 809.250053 234.77402 
L 810.717497 234.958606 
L 812.184941 234.812141 
L 813.652385 235.094371 
L 815.119829 236.078182 
L 816.587273 236.078182 
L 816.587273 236.078182 
" clip-path="url(#pbc9d4ac9ee)" style="fill: none; stroke: #000000; stroke-width: 1.2; stroke-linecap: square"/>
   </g>
   <g id="line2d_15">
    <path d="M 84.332727 195.813238 
L 85.800171 192.621112 
L 87.267615 210.303264 
L 88.735059 213.291262 
L 90.202503 193.010745 
L 91.669947 199.732449 
L 93.137391 195.099774 
L 94.604835 187.29725 
L 97.539723 202.524383 
L 99.007167 193.945697 
L 100.474611 189.170567 
L 101.942055 195.531909 
L 103.409499 196.130268 
L 104.876943 191.986851 
L 106.344387 193.660635 
L 107.811831 192.997204 
L 109.279275 206.840238 
L 110.746719 212.29672 
L 112.214163 195.43783 
L 113.681607 172.693237 
L 115.149051 174.466567 
L 116.616495 174.105193 
L 118.083939 178.982148 
L 119.551383 173.998767 
L 121.018827 186.213795 
L 122.486271 200.858819 
L 123.953715 202.752159 
L 126.888603 194.883184 
L 128.356047 192.426219 
L 129.823491 198.950588 
L 131.290935 188.00272 
L 132.758379 211.475443 
L 134.225823 208.734282 
L 135.693267 209.835648 
L 137.160711 203.06981 
L 138.628154 207.116147 
L 140.095598 200.627249 
L 141.563042 204.352588 
L 143.030486 202.844481 
L 144.49793 209.27819 
L 147.432818 206.344021 
L 148.900262 203.875513 
L 150.367706 202.879537 
L 151.83515 189.304116 
L 153.302594 186.14574 
L 154.770038 182.286415 
L 156.237482 190.816747 
L 157.704926 168.536977 
L 159.17237 187.576386 
L 160.639814 189.187531 
L 162.107258 194.662679 
L 163.574702 197.349227 
L 165.042146 203.06378 
L 166.50959 191.868435 
L 167.977034 189.970307 
L 169.444478 196.19021 
L 170.911922 204.115822 
L 172.379366 215.547456 
L 173.84681 200.613259 
L 175.314254 190.706168 
L 176.781698 207.03089 
L 178.249142 200.712322 
L 179.716586 200.931121 
L 181.18403 197.83556 
L 182.651474 200.522454 
L 184.118918 207.141156 
L 185.586362 192.767317 
L 187.053806 182.305076 
L 188.52125 180.517578 
L 189.988694 198.170497 
L 191.456138 192.033571 
L 192.923582 205.642361 
L 194.391026 203.614163 
L 195.85847 200.319787 
L 197.325914 187.134548 
L 198.793358 176.513566 
L 200.260802 175.13739 
L 201.728246 182.743134 
L 203.19569 201.070534 
L 204.663134 209.669244 
L 206.130578 205.746507 
L 207.598021 213.656195 
L 209.065465 194.532447 
L 210.532909 206.360028 
L 212.000353 212.913262 
L 213.467797 201.724025 
L 214.935241 210.848537 
L 216.402685 202.786319 
L 217.870129 206.103834 
L 219.337573 216.083827 
L 220.805017 209.086361 
L 222.272461 200.166939 
L 223.739905 189.357947 
L 225.207349 202.583886 
L 226.674793 207.693422 
L 228.142237 194.738182 
L 229.609681 191.266732 
L 231.077125 198.452414 
L 232.544569 186.151381 
L 234.012013 180.07858 
L 235.479457 194.971678 
L 236.946901 200.866444 
L 238.414345 190.602975 
L 239.881789 182.931051 
L 241.349233 156.23668 
L 242.816677 165.606536 
L 244.284121 190.940265 
L 245.751565 205.437224 
L 247.219009 203.893421 
L 248.686453 171.332487 
L 250.153897 169.283914 
L 251.621341 199.127215 
L 253.088785 159.310584 
L 254.556229 197.473968 
L 256.023673 174.154208 
L 257.491117 175.019619 
L 258.958561 197.959195 
L 260.426005 200.856174 
L 261.893449 178.336281 
L 263.360893 199.537975 
L 264.828337 184.463324 
L 266.295781 184.649087 
L 267.763225 182.142248 
L 270.698113 157.657837 
L 272.165557 108.78937 
L 273.633001 155.191972 
L 275.100445 168.900049 
L 276.567889 189.074482 
L 278.035332 159.657383 
L 279.502776 94.760602 
L 280.97022 127.194258 
L 282.437664 89.768851 
L 283.905108 36.841818 
L 285.372552 89.032512 
L 286.839996 36.841818 
L 288.30744 36.841818 
L 289.774884 47.59679 
L 291.242328 65.462299 
L 294.177216 128.538852 
L 295.64466 80.739729 
L 297.112104 137.684653 
L 298.579548 151.655487 
L 300.046992 154.639177 
L 301.514436 188.679708 
L 302.98188 102.331492 
L 304.449324 211.686964 
L 305.916768 100.840554 
L 307.384212 176.885185 
L 308.851656 126.298845 
L 310.3191 213.906221 
L 311.786544 213.84657 
L 313.253988 175.380136 
L 314.721432 111.820738 
L 316.188876 138.05757 
L 317.65632 196.65749 
L 319.123764 175.122646 
L 320.591208 209.533906 
L 322.058652 207.219592 
L 323.526096 228.265786 
L 324.99354 204.028494 
L 326.460984 198.88991 
L 327.928428 198.947329 
L 329.395872 109.859338 
L 330.863316 170.860197 
L 332.33076 93.01288 
L 333.798204 113.511253 
L 335.265648 165.819709 
L 336.733092 99.166874 
L 338.200536 121.035906 
L 339.66798 193.532166 
L 341.135424 85.658449 
L 342.602868 117.588903 
L 344.070312 89.653678 
L 345.537756 36.841818 
L 347.005199 36.841818 
L 348.472643 65.099502 
L 349.940087 47.87867 
L 351.407531 150.15597 
L 352.874975 181.502767 
L 354.342419 117.270553 
L 355.809863 159.020292 
L 357.277307 221.846944 
L 358.744751 223.87595 
L 360.212195 226.642379 
L 361.679639 220.091161 
L 363.147083 191.51797 
L 364.614527 141.627738 
L 366.081971 192.258951 
L 367.549415 105.854475 
L 369.016859 130.416999 
L 370.484303 201.182502 
L 371.951747 184.990347 
L 373.419191 145.64196 
L 374.886635 204.938556 
L 376.354079 222.930533 
L 377.821523 192.593961 
L 379.288967 226.625964 
M 512.826369 197.534244 
L 514.293813 221.62325 
L 515.761257 36.841818 
L 517.228701 162.966691 
L 518.696145 118.095791 
L 520.163589 212.113687 
L 521.631033 150.053691 
L 523.098477 92.9085 
L 524.565921 219.820671 
L 526.033365 213.173546 
L 527.500809 236.078182 
L 528.968253 141.302169 
L 530.435697 216.267593 
L 531.903141 139.996004 
L 533.370585 190.916326 
L 534.838029 90.568404 
L 536.305473 165.603563 
L 537.772917 204.430098 
L 540.707805 233.458208 
L 542.175249 153.861672 
L 543.642693 204.87304 
L 545.110137 164.320183 
L 546.577581 226.60059 
L 548.045025 166.781955 
L 549.512469 200.02384 
L 550.979913 159.714046 
L 552.447357 124.169404 
L 553.914801 106.090141 
L 555.382244 94.946999 
L 556.849688 148.04618 
L 558.317132 174.574645 
L 559.784576 159.15105 
L 561.25202 122.536436 
L 562.719464 149.753803 
L 564.186908 130.349759 
L 565.654352 180.296073 
L 567.121796 211.320941 
L 568.58924 109.404745 
L 570.056684 208.448798 
L 571.524128 154.15255 
L 572.991572 147.752624 
L 574.459016 176.956876 
L 575.92646 175.631806 
L 577.393904 152.646585 
L 578.861348 188.339431 
L 580.328792 147.239092 
L 581.796236 191.600275 
L 583.26368 171.508831 
L 584.731124 129.951007 
L 586.198568 148.974175 
L 587.666012 115.562237 
L 589.133456 136.373256 
L 590.6009 134.116106 
L 592.068344 151.415612 
L 593.535788 146.922136 
L 595.003232 168.44893 
L 596.470676 36.841818 
L 597.93812 39.538235 
L 600.873008 204.145884 
L 602.340452 163.440078 
L 603.807896 155.8766 
L 605.27534 204.399546 
L 606.742784 194.361077 
L 608.210228 211.370506 
L 609.677672 194.318602 
L 611.145116 203.255867 
L 612.61256 185.510294 
L 614.080004 210.078656 
L 615.547448 211.7778 
L 617.014892 176.722668 
L 618.482336 190.889205 
L 619.94978 170.638094 
L 621.417224 184.032331 
L 622.884668 205.849614 
L 624.352111 212.240445 
L 625.819555 174.64453 
L 627.286999 171.283645 
L 628.754443 185.134159 
L 630.221887 191.516685 
L 631.689331 162.601996 
L 633.156775 195.308092 
L 634.624219 205.127025 
L 636.091663 180.775871 
L 637.559107 183.004049 
L 639.026551 189.258838 
L 640.493995 191.465992 
L 641.961439 189.847152 
L 643.428883 183.247817 
L 644.896327 186.121152 
L 646.363771 178.90097 
L 647.831215 183.789351 
L 649.298659 191.434551 
L 650.766103 215.492784 
L 652.233547 213.056413 
L 653.700991 195.248062 
L 655.168435 185.644896 
L 656.635879 193.779078 
L 658.103323 199.670073 
L 661.038211 187.104946 
L 662.505655 186.176333 
L 663.973099 163.758788 
L 665.440543 129.597343 
L 666.907987 187.038588 
L 668.375431 196.865321 
L 669.842875 197.062689 
L 671.310319 183.361824 
L 672.777763 194.703563 
L 674.245207 197.397601 
L 675.712651 199.708557 
L 677.180095 203.40164 
L 678.647539 190.225887 
L 680.114983 192.100175 
L 681.582427 214.101671 
L 683.049871 210.469248 
L 684.517315 212.275101 
L 685.984759 190.129262 
L 687.452203 193.094855 
L 688.919647 182.774144 
L 690.387091 174.72227 
L 691.854535 183.183328 
L 693.321979 173.962234 
L 694.789422 188.588742 
L 696.256866 186.40396 
L 697.72431 185.252613 
L 699.191754 180.742019 
L 700.659198 188.540029 
L 702.126642 178.709628 
L 703.594086 187.416248 
L 705.06153 170.874447 
L 706.528974 186.361791 
L 707.996418 197.552041 
L 709.463862 177.871695 
L 710.931306 152.98881 
L 712.39875 174.530584 
L 713.866194 203.989577 
L 715.333638 202.730308 
L 716.801082 204.115829 
L 718.268526 196.310406 
L 719.73597 207.234598 
L 721.203414 197.746073 
L 722.670858 184.708147 
L 724.138302 170.402023 
L 725.605746 158.604619 
L 727.07319 200.671205 
L 728.540634 202.848883 
L 730.008078 184.055151 
L 731.475522 152.338682 
L 732.942966 158.379261 
L 734.41041 122.689481 
L 735.877854 109.685284 
L 737.345298 93.571085 
L 738.812742 38.563774 
L 740.280186 79.077085 
L 741.74763 107.811148 
L 743.215074 36.841818 
L 744.682518 36.841818 
L 746.149962 80.904155 
L 747.617406 87.002925 
L 749.08485 142.580742 
L 750.552294 178.254617 
L 752.019738 175.644436 
L 753.487182 187.216987 
L 754.954626 207.484723 
L 756.42207 208.710158 
L 757.889514 201.39446 
L 759.356958 191.82777 
L 760.824402 185.277395 
L 762.291846 186.057317 
L 763.759289 195.376178 
L 765.226733 196.969507 
L 766.694177 197.817805 
L 768.161621 194.790347 
L 769.629065 190.311039 
L 771.096509 203.867466 
L 772.563953 197.460079 
L 774.031397 195.694576 
L 775.498841 200.472336 
L 776.966285 203.003341 
L 778.433729 192.786845 
L 779.901173 213.938764 
L 781.368617 204.21446 
L 782.836061 198.050606 
L 784.303505 207.82 
L 785.770949 213.107985 
L 787.238393 209.176021 
L 788.705837 209.364709 
L 790.173281 205.010297 
L 791.640725 205.534035 
L 793.108169 198.929781 
L 794.575613 206.561724 
L 796.043057 196.155234 
L 797.510501 205.478631 
L 798.977945 208.7539 
L 800.445389 210.087034 
L 801.912833 207.296593 
L 803.380277 212.716197 
L 804.847721 214.162487 
L 806.315165 217.678433 
L 807.782609 213.898736 
L 809.250053 212.65984 
L 810.717497 201.934005 
L 812.184941 202.27939 
L 813.652385 210.446243 
L 815.119829 211.463958 
L 816.587273 210.896596 
L 816.587273 210.896596 
" clip-path="url(#pbc9d4ac9ee)" style="fill: none; stroke: #ff7f0e; stroke-width: 1.2; stroke-linecap: square"/>
   </g>
   <g id="line2d_16">
    <path d="M 84.332727 192.995027 
L 85.800171 198.484292 
L 87.267615 221.418234 
L 88.735059 227.336008 
L 90.202503 205.654687 
L 91.669947 215.854727 
L 93.137391 222.867047 
L 94.604835 222.438097 
L 96.072279 230.499597 
L 97.539723 232.736601 
L 99.007167 231.528505 
L 100.474611 218.205273 
L 101.942055 209.686493 
L 103.409499 214.044031 
L 104.876943 213.150677 
L 106.344387 201.939717 
L 107.811831 199.89854 
L 109.279275 205.68054 
L 110.746719 219.60398 
L 112.214163 212.855306 
L 113.681607 215.015298 
L 115.149051 214.018588 
L 116.616495 213.730965 
L 118.083939 213.137512 
L 119.551383 212.901557 
L 121.018827 208.612411 
L 122.486271 207.621135 
L 123.953715 204.179569 
L 125.421159 201.296391 
L 126.888603 206.212485 
L 128.356047 206.362609 
L 129.823491 209.766109 
L 131.290935 202.776018 
L 132.758379 218.697164 
L 134.225823 215.043747 
L 135.693267 210.933865 
L 137.160711 219.647576 
L 138.628154 220.853804 
L 140.095598 214.140972 
L 141.563042 216.810287 
L 143.030486 212.846893 
L 144.49793 219.824775 
L 145.965374 215.357682 
L 147.432818 223.337114 
L 148.900262 220.026522 
L 150.367706 217.73905 
L 151.83515 209.529129 
L 154.770038 196.451891 
L 156.237482 192.327286 
L 157.704926 182.243609 
L 159.17237 177.483665 
L 160.639814 183.756674 
L 162.107258 188.892581 
L 163.574702 193.50978 
L 165.042146 184.399544 
L 166.50959 185.313585 
L 167.977034 177.710419 
L 169.444478 178.181193 
L 170.911922 177.743022 
L 172.379366 203.382044 
L 173.84681 211.883728 
L 175.314254 219.371021 
L 176.781698 219.340331 
L 178.249142 221.247015 
L 179.716586 228.368381 
L 181.18403 219.967004 
L 182.651474 227.179564 
L 184.118918 223.373778 
L 185.586362 199.332708 
L 187.053806 194.031716 
L 188.52125 194.465449 
L 189.988694 207.285067 
L 191.456138 201.223213 
L 192.923582 202.645115 
L 194.391026 205.742636 
L 195.85847 221.500652 
L 197.325914 197.578969 
L 198.793358 187.374871 
L 200.260802 191.853962 
L 201.728246 193.96212 
L 203.19569 208.087112 
L 204.663134 219.477099 
L 206.130578 214.206316 
L 207.598021 224.878829 
L 209.065465 206.066108 
L 210.532909 212.923242 
L 212.000353 222.405349 
L 213.467797 217.324175 
L 214.935241 222.423472 
L 216.402685 222.714258 
L 217.870129 221.29762 
L 219.337573 228.19675 
L 220.805017 225.691887 
L 222.272461 208.463076 
L 223.739905 197.245451 
L 225.207349 199.941486 
L 226.674793 200.637184 
L 228.142237 196.336174 
L 229.609681 194.366233 
L 231.077125 180.52962 
L 232.544569 163.785009 
L 234.012013 195.313621 
L 235.479457 195.736577 
L 236.946901 190.665434 
L 238.414345 189.005398 
L 239.881789 192.039183 
L 241.349233 191.568429 
L 242.816677 193.567234 
L 244.284121 191.46145 
L 245.751565 216.867218 
L 247.219009 218.325367 
L 248.686453 196.316931 
L 250.153897 193.02835 
L 251.621341 207.907575 
L 253.088785 214.004379 
L 254.556229 198.316603 
L 256.023673 199.385023 
L 257.491117 207.624524 
L 258.958561 217.717288 
L 260.426005 201.181019 
L 261.893449 200.156072 
L 263.360893 191.472438 
L 264.828337 192.935859 
L 266.295781 192.436541 
L 267.763225 205.409095 
L 269.230669 205.356228 
L 270.698113 202.415191 
L 272.165557 206.825643 
L 273.633001 203.688523 
L 275.100445 199.264678 
L 276.567889 199.945291 
L 278.035332 197.150092 
L 279.502776 180.041699 
L 280.97022 147.040998 
L 283.905108 71.379571 
L 285.372552 36.841818 
L 289.774884 36.841818 
L 291.242328 44.150051 
L 292.709772 136.697464 
L 295.64466 189.820419 
L 297.112104 193.726834 
L 298.579548 185.431291 
L 300.046992 189.480466 
L 301.514436 201.812527 
L 302.98188 198.602706 
L 304.449324 197.48848 
L 305.916768 199.941101 
L 307.384212 201.373058 
L 308.851656 190.738152 
L 310.3191 193.399895 
L 311.786544 210.243829 
L 313.253988 211.753086 
L 314.721432 208.788082 
L 316.188876 190.628865 
L 317.65632 204.448741 
L 320.591208 226.799506 
L 322.058652 226.182228 
L 323.526096 217.925194 
L 324.99354 221.33114 
L 326.460984 221.549705 
L 327.928428 217.876374 
L 329.395872 197.096492 
L 330.863316 193.721522 
L 332.33076 197.403882 
L 333.798204 196.449533 
L 335.265648 183.472938 
L 336.733092 184.152005 
L 338.200536 192.385414 
L 339.66798 194.244489 
L 341.135424 194.154148 
L 342.602868 192.812192 
L 344.070312 201.767356 
L 345.537756 196.90704 
L 347.005199 186.453366 
L 348.472643 192.108009 
L 349.940087 192.850953 
L 351.407531 202.739158 
L 352.874975 210.909679 
L 354.342419 199.874071 
L 355.809863 197.663682 
L 357.277307 190.038105 
L 358.744751 189.252035 
L 360.212195 181.834462 
L 361.679639 168.19166 
L 363.147083 177.344587 
L 364.614527 194.363013 
L 366.081971 184.973956 
L 367.549415 184.62378 
L 369.016859 186.452507 
L 370.484303 211.487495 
L 371.951747 196.652766 
L 373.419191 194.05896 
L 376.354079 202.156314 
L 377.821523 183.265345 
L 379.288967 162.091105 
M 512.826369 190.360286 
L 514.293813 188.055553 
L 515.761257 175.691857 
L 517.228701 173.182265 
L 518.696145 173.657963 
L 520.163589 157.362841 
L 521.631033 122.499614 
L 523.098477 36.841818 
L 527.500809 36.841818 
L 528.968253 111.808284 
L 530.435697 159.112009 
L 531.903141 181.735223 
L 533.370585 187.227649 
L 534.838029 177.957662 
L 536.305473 188.980484 
L 537.772917 197.915441 
L 539.240361 184.657171 
L 540.707805 190.31029 
L 542.175249 213.366364 
L 543.642693 202.198523 
L 545.110137 210.98749 
L 546.577581 196.069556 
L 548.045025 183.170157 
L 549.512469 161.368163 
L 550.979913 172.332568 
L 552.447357 165.534138 
L 553.914801 164.841837 
L 555.382244 172.923465 
L 556.849688 174.089664 
L 558.317132 166.47939 
L 559.784576 169.315068 
L 561.25202 180.350164 
L 562.719464 186.783188 
L 564.186908 203.245697 
L 565.654352 187.054786 
L 567.121796 189.301607 
L 568.58924 176.318655 
L 570.056684 184.362089 
L 571.524128 187.225782 
L 572.991572 193.871868 
L 574.459016 186.047874 
L 575.92646 192.691321 
L 577.393904 195.897708 
L 578.861348 182.022613 
L 580.328792 174.858098 
L 581.796236 187.777852 
L 583.26368 191.543093 
L 584.731124 189.741512 
L 586.198568 185.323828 
L 587.666012 180.181676 
L 589.133456 188.863873 
L 590.6009 201.747024 
L 592.068344 196.951804 
L 593.535788 165.726272 
L 595.003232 87.793189 
L 596.470676 36.841818 
L 597.93812 64.126323 
L 599.405564 192.184037 
L 600.873008 217.492254 
L 602.340452 209.126373 
L 603.807896 199.220805 
L 605.27534 208.405637 
L 606.742784 196.874395 
L 608.210228 212.113239 
L 609.677672 201.846701 
L 611.145116 212.884324 
L 612.61256 209.333538 
L 614.080004 196.198856 
L 615.547448 193.975105 
L 617.014892 195.707295 
L 618.482336 188.46863 
L 619.94978 179.752304 
L 621.417224 193.662778 
L 622.884668 196.952562 
L 624.352111 205.307553 
L 625.819555 171.481002 
L 627.286999 162.475771 
L 628.754443 156.487419 
L 630.221887 171.554037 
L 631.689331 175.016009 
L 633.156775 183.700694 
L 634.624219 191.194751 
L 636.091663 189.378523 
L 637.559107 180.229017 
L 639.026551 183.95568 
L 640.493995 189.531013 
L 641.961439 170.709681 
L 643.428883 182.714751 
L 644.896327 188.036658 
L 646.363771 194.255686 
L 647.831215 197.353168 
L 649.298659 205.245579 
L 650.766103 217.837238 
L 652.233547 213.104588 
L 653.700991 201.997957 
L 655.168435 187.907586 
L 656.635879 185.868093 
L 658.103323 180.208797 
L 659.570767 183.869821 
L 661.038211 184.886835 
L 662.505655 176.099477 
L 663.973099 173.351487 
L 665.440543 168.701002 
L 666.907987 174.613926 
L 668.375431 160.857516 
L 669.842875 169.470944 
L 671.310319 179.115801 
L 672.777763 182.289327 
L 674.245207 180.164047 
L 675.712651 184.879841 
L 677.180095 183.819912 
L 678.647539 186.622872 
L 680.114983 195.149296 
L 681.582427 207.992523 
L 683.049871 219.189439 
L 684.517315 218.265532 
L 685.984759 194.949154 
L 687.452203 183.546998 
L 688.919647 185.478978 
L 690.387091 186.17991 
L 691.854535 187.526052 
L 693.321979 187.202096 
L 694.789422 187.920771 
L 696.256866 191.749782 
L 697.72431 189.857697 
L 699.191754 179.488916 
L 700.659198 181.772653 
L 703.594086 180.208365 
L 705.06153 180.074276 
L 706.528974 188.414239 
L 707.996418 187.656969 
L 709.463862 185.284842 
L 710.931306 188.588417 
L 712.39875 193.67868 
L 713.866194 216.36648 
L 715.333638 218.04187 
L 716.801082 210.472755 
L 718.268526 200.45929 
L 719.73597 204.030323 
L 721.203414 194.793731 
L 722.670858 193.631899 
L 724.138302 189.41322 
L 725.605746 192.560804 
L 727.07319 216.875565 
L 728.540634 221.521878 
L 730.008078 205.266983 
L 731.475522 201.648088 
L 732.942966 186.140752 
L 734.41041 134.338146 
L 735.877854 136.908641 
L 737.345298 36.841818 
L 738.812742 36.841818 
L 740.280186 50.302224 
L 741.74763 92.366388 
L 743.215074 74.204993 
L 744.682518 36.841818 
L 746.149962 36.841818 
L 747.617406 81.584242 
L 749.08485 135.276602 
L 750.552294 179.967036 
L 752.019738 196.121748 
L 753.487182 199.390704 
L 754.954626 218.133469 
L 756.42207 214.330314 
L 757.889514 213.884465 
L 759.356958 198.964253 
L 760.824402 191.859835 
L 762.291846 194.414847 
L 763.759289 193.269157 
L 765.226733 196.925461 
L 766.694177 201.316553 
L 768.161621 207.430023 
L 769.629065 202.366365 
L 771.096509 203.30141 
L 772.563953 196.152501 
L 774.031397 193.867688 
L 775.498841 202.478761 
L 776.966285 204.422068 
L 778.433729 206.866713 
L 779.901173 223.691883 
L 781.368617 210.558071 
L 782.836061 191.47492 
L 784.303505 200.099546 
L 785.770949 222.985806 
L 787.238393 217.292212 
L 788.705837 208.293509 
L 790.173281 193.026961 
L 791.640725 182.124507 
L 793.108169 188.003404 
L 794.575613 198.562849 
L 796.043057 196.059333 
L 797.510501 207.248782 
L 798.977945 221.103189 
L 800.445389 220.696582 
L 801.912833 223.771071 
L 803.380277 219.498672 
L 804.847721 214.234089 
L 806.315165 226.348573 
L 807.782609 219.657248 
L 809.250053 193.025295 
L 810.717497 192.885739 
L 812.184941 174.970159 
L 813.652385 205.316512 
L 815.119829 215.355426 
L 816.587273 214.188476 
L 816.587273 214.188476 
" clip-path="url(#pbc9d4ac9ee)" style="fill: none; stroke: #9467bd; stroke-width: 1.2; stroke-linecap: square"/>
   </g>
   <g id="line2d_17">
    <path d="M 84.332727 189.735456 
L 85.800171 195.281054 
L 87.267615 207.11632 
L 88.735059 225.585985 
L 90.202503 201.191357 
L 91.669947 215.725802 
L 93.137391 212.790564 
L 94.604835 209.584866 
L 96.072279 216.335179 
L 97.539723 218.429586 
L 99.007167 219.198507 
L 100.474611 205.009085 
L 101.942055 200.923439 
L 103.409499 207.735588 
L 104.876943 210.847065 
L 106.344387 198.303511 
L 107.811831 205.196193 
L 109.279275 208.740649 
L 110.746719 214.872423 
L 112.214163 210.345054 
L 113.681607 206.796323 
L 115.149051 201.084381 
L 116.616495 201.096715 
L 118.083939 202.47424 
L 119.551383 200.166858 
L 121.018827 198.504938 
L 122.486271 195.613287 
L 123.953715 194.307639 
L 125.421159 186.57883 
L 126.888603 195.85657 
L 128.356047 201.432226 
L 129.823491 203.404685 
L 131.290935 191.662697 
L 132.758379 207.135041 
L 134.225823 202.056709 
L 135.693267 200.566883 
L 137.160711 205.259689 
L 138.628154 203.837786 
L 140.095598 199.229206 
L 141.563042 198.897247 
L 143.030486 196.960248 
L 144.49793 200.9283 
L 145.965374 190.909585 
L 147.432818 202.070895 
L 148.900262 207.357408 
L 150.367706 199.586392 
L 151.83515 189.448752 
L 153.302594 183.198696 
L 154.770038 172.368367 
L 156.237482 183.156082 
L 157.704926 158.415139 
L 159.17237 154.137364 
L 160.639814 161.458096 
L 162.107258 174.616309 
L 163.574702 183.680927 
L 165.042146 170.66916 
L 166.50959 169.17904 
L 167.977034 175.269549 
L 169.444478 171.299823 
L 170.911922 177.099701 
L 172.379366 194.174924 
L 173.84681 184.573765 
L 175.314254 193.653888 
L 176.781698 192.731318 
L 178.249142 199.711155 
L 179.716586 204.993788 
L 181.18403 189.333474 
L 184.118918 211.339263 
L 185.586362 184.700324 
L 187.053806 176.584897 
L 188.52125 170.62087 
L 189.988694 190.144229 
L 191.456138 189.324613 
L 194.391026 200.352774 
L 195.85847 211.140162 
L 197.325914 194.012163 
L 198.793358 178.410431 
L 200.260802 173.71498 
L 201.728246 173.647162 
L 203.19569 190.569965 
L 204.663134 209.94555 
L 206.130578 193.718316 
L 207.598021 207.931473 
L 209.065465 189.22083 
L 210.532909 196.806757 
L 212.000353 199.947648 
L 213.467797 195.418861 
L 214.935241 197.68391 
L 216.402685 205.377487 
L 217.870129 203.767809 
L 219.337573 206.368252 
L 220.805017 207.513051 
L 223.739905 176.005331 
L 225.207349 186.145465 
L 226.674793 182.32564 
L 228.142237 178.96897 
L 229.609681 176.98163 
L 232.544569 162.759221 
L 234.012013 190.371915 
L 235.479457 184.202393 
L 236.946901 196.355752 
L 238.414345 194.788046 
L 239.881789 187.407583 
L 241.349233 175.691745 
L 242.816677 182.563084 
L 244.284121 177.564001 
L 245.751565 206.830694 
L 247.219009 219.052342 
L 248.686453 189.620749 
L 250.153897 181.110888 
L 251.621341 200.264899 
L 253.088785 205.974122 
L 256.023673 174.709066 
L 257.491117 195.473981 
L 258.958561 205.983907 
L 260.426005 203.201569 
L 261.893449 202.69179 
L 263.360893 187.894944 
L 264.828337 191.408364 
L 266.295781 192.239119 
L 267.763225 205.185594 
L 269.230669 200.83696 
L 270.698113 186.664915 
L 272.165557 178.908531 
L 273.633001 166.736464 
L 275.100445 174.752617 
L 276.567889 159.280486 
L 278.035332 177.776742 
L 279.502776 145.184964 
L 280.97022 103.687717 
L 282.437664 53.936057 
L 283.905108 36.841818 
L 285.372552 49.23289 
L 286.839996 36.841818 
L 289.774884 36.841818 
L 291.242328 62.079784 
L 292.709772 95.983498 
L 294.177216 124.012265 
L 295.64466 155.277642 
L 297.112104 165.402707 
L 298.579548 156.666146 
L 300.046992 169.543788 
L 301.514436 176.299199 
L 302.98188 174.252346 
L 304.449324 165.873656 
L 305.916768 161.715024 
L 307.384212 180.092721 
L 308.851656 163.957658 
L 310.3191 171.989376 
L 311.786544 196.466675 
L 313.253988 189.233725 
L 314.721432 189.935106 
L 316.188876 168.998722 
L 317.65632 181.65135 
L 319.123764 184.137076 
L 320.591208 200.445562 
L 322.058652 205.710278 
L 323.526096 193.190367 
L 324.99354 197.329751 
L 326.460984 186.268619 
L 327.928428 203.880329 
L 329.395872 175.133023 
L 330.863316 172.298108 
L 332.33076 170.400839 
L 333.798204 172.548731 
L 335.265648 148.940543 
L 336.733092 174.372267 
L 338.200536 148.536642 
L 339.66798 163.538278 
L 341.135424 175.089877 
L 342.602868 156.483966 
L 344.070312 144.044543 
L 345.537756 114.633755 
L 347.005199 94.109217 
L 348.472643 105.362868 
L 349.940087 133.735925 
L 351.407531 168.828301 
L 352.874975 187.052647 
L 354.342419 174.018498 
L 355.809863 176.893043 
L 357.277307 172.139818 
L 358.744751 178.411469 
L 360.212195 186.320681 
L 361.679639 155.404583 
L 363.147083 177.233603 
L 364.614527 188.310995 
L 366.081971 157.133065 
L 367.549415 161.271887 
L 369.016859 173.518795 
L 370.484303 192.319385 
L 371.951747 167.349272 
L 373.419191 172.052836 
L 374.886635 174.49678 
L 376.354079 202.365844 
L 377.821523 161.462842 
L 379.288967 149.344645 
M 514.293813 173.086685 
L 515.761257 165.902619 
L 517.228701 163.851914 
L 518.696145 166.845948 
L 520.163589 152.825202 
L 521.631033 152.131762 
L 523.098477 113.346337 
L 524.565921 50.022995 
L 526.033365 38.20954 
L 527.500809 36.841818 
L 528.968253 48.322773 
L 530.435697 126.352789 
L 531.903141 154.491048 
L 533.370585 168.449939 
L 534.838029 161.379796 
L 536.305473 159.972254 
L 537.772917 195.47074 
L 539.240361 186.247062 
L 540.707805 171.823154 
L 542.175249 160.197369 
L 543.642693 195.681968 
L 545.110137 198.294469 
L 546.577581 197.019302 
L 548.045025 185.497067 
L 549.512469 163.013074 
L 550.979913 167.325436 
L 552.447357 158.705889 
L 553.914801 153.259966 
L 555.382244 158.182316 
L 556.849688 185.104602 
L 558.317132 150.041385 
L 559.784576 154.475138 
L 561.25202 155.267626 
L 562.719464 174.676831 
L 564.186908 188.860002 
L 565.654352 175.82554 
L 567.121796 182.069669 
L 568.58924 155.313119 
L 570.056684 174.093272 
L 571.524128 170.070361 
L 572.991572 177.718821 
L 574.459016 163.676681 
L 575.92646 179.313637 
L 577.393904 183.992491 
L 578.861348 172.759881 
L 580.328792 173.867173 
L 581.796236 182.940207 
L 583.26368 180.340219 
L 584.731124 175.444417 
L 586.198568 165.036347 
L 587.666012 147.221089 
L 589.133456 161.425296 
L 590.6009 180.608506 
L 592.068344 166.029941 
L 593.535788 120.777279 
L 595.003232 87.963392 
L 596.470676 36.841818 
L 597.93812 36.841818 
L 599.405564 111.662546 
L 600.873008 157.068305 
L 602.340452 151.960301 
L 603.807896 152.344161 
L 605.27534 184.046441 
L 606.742784 189.87081 
L 608.210228 198.695471 
L 609.677672 205.107818 
L 611.145116 217.997793 
L 612.61256 210.208593 
L 614.080004 209.473076 
L 615.547448 199.526479 
L 617.014892 201.24271 
L 618.482336 199.662705 
L 619.94978 190.968676 
L 621.417224 198.32587 
L 622.884668 207.322172 
L 624.352111 218.281523 
L 625.819555 183.250944 
L 627.286999 185.025028 
L 628.754443 176.388474 
L 630.221887 188.001568 
L 631.689331 181.812039 
L 633.156775 186.946008 
L 634.624219 199.539331 
L 636.091663 194.199649 
L 637.559107 189.300016 
L 639.026551 182.298705 
L 640.493995 188.271539 
L 641.961439 169.370406 
L 644.896327 182.508182 
L 646.363771 187.662388 
L 647.831215 189.9498 
L 649.298659 185.951788 
L 650.766103 213.960168 
L 652.233547 210.337994 
L 653.700991 192.384011 
L 655.168435 183.578006 
L 656.635879 167.717089 
L 658.103323 178.493642 
L 659.570767 176.663484 
L 661.038211 176.488213 
L 662.505655 153.223863 
L 663.973099 136.292479 
L 665.440543 133.08283 
L 666.907987 144.10358 
L 668.375431 142.109251 
L 669.842875 169.165066 
L 671.310319 177.42164 
L 672.777763 187.333686 
L 674.245207 177.679534 
L 675.712651 183.558126 
L 677.180095 192.169853 
L 678.647539 178.705934 
L 680.114983 189.10394 
L 681.582427 205.549011 
L 683.049871 212.062291 
L 684.517315 203.180757 
L 685.984759 182.506094 
L 687.452203 180.032116 
L 688.919647 176.023081 
L 690.387091 172.941533 
L 691.854535 179.398277 
L 693.321979 176.17854 
L 694.789422 169.309085 
L 696.256866 177.177872 
L 697.72431 177.882466 
L 699.191754 163.881145 
L 700.659198 173.991716 
L 702.126642 173.262123 
L 703.594086 170.295422 
L 705.06153 153.54092 
L 706.528974 163.96829 
L 707.996418 141.52502 
L 709.463862 137.996625 
L 710.931306 157.314793 
L 712.39875 166.271946 
L 713.866194 203.11163 
L 715.333638 191.956483 
L 716.801082 186.521043 
L 718.268526 179.452887 
L 719.73597 186.713273 
L 721.203414 176.484216 
L 722.670858 173.858089 
L 724.138302 162.07793 
L 725.605746 172.74151 
L 727.07319 205.119213 
L 728.540634 192.316076 
L 730.008078 175.184667 
L 731.475522 161.382891 
L 732.942966 138.249811 
L 734.41041 88.982778 
L 735.877854 84.92767 
L 737.345298 36.841818 
L 738.812742 38.657561 
L 740.280186 55.989117 
L 741.74763 76.043183 
L 743.215074 46.934636 
L 744.682518 36.841818 
L 746.149962 36.841818 
L 747.617406 59.500584 
L 749.08485 108.922694 
L 750.552294 149.923551 
L 752.019738 172.254833 
L 753.487182 175.798479 
L 754.954626 202.767822 
L 756.42207 194.700053 
L 757.889514 191.657826 
L 759.356958 177.465138 
L 760.824402 176.153836 
L 762.291846 175.511078 
L 763.759289 186.176579 
L 765.226733 178.315477 
L 766.694177 189.703824 
L 768.161621 194.869597 
L 769.629065 183.767359 
L 771.096509 193.715486 
L 774.031397 172.102922 
L 775.498841 189.533071 
L 778.433729 191.536726 
L 779.901173 203.495905 
L 781.368617 184.792013 
L 782.836061 169.236986 
L 784.303505 188.901662 
L 785.770949 199.86608 
L 787.238393 198.790201 
L 788.705837 188.922965 
L 790.173281 192.487012 
L 791.640725 181.429793 
L 793.108169 185.205936 
L 794.575613 204.194906 
L 796.043057 189.538205 
L 797.510501 203.376092 
L 798.977945 215.20113 
L 800.445389 207.593964 
L 801.912833 207.03469 
L 803.380277 205.368524 
L 804.847721 209.717549 
L 806.315165 210.664321 
L 807.782609 206.344099 
L 809.250053 195.201619 
L 810.717497 194.072969 
L 812.184941 173.372799 
L 813.652385 188.50395 
L 815.119829 198.211571 
L 816.587273 196.612748 
L 816.587273 196.612748 
" clip-path="url(#pbc9d4ac9ee)" style="fill: none; stroke: #ff1493; stroke-width: 1.2; stroke-linecap: square"/>
   </g>
   <g id="patch_3">
    <path d="M 47.72 246.04 
L 47.72 26.88 
" style="fill: none; stroke: #000000; stroke-width: 0.8; stroke-linejoin: miter; stroke-linecap: square"/>
   </g>
   <g id="patch_4">
    <path d="M 853.2 246.04 
L 853.2 26.88 
" style="fill: none; stroke: #000000; stroke-width: 0.8; stroke-linejoin: miter; stroke-linecap: square"/>
   </g>
   <g id="patch_5">
    <path d="M 47.72 246.04 
L 853.2 246.04 
" style="fill: none; stroke: #000000; stroke-width: 0.8; stroke-linejoin: miter; stroke-linecap: square"/>
   </g>
   <g id="patch_6">
    <path d="M 47.72 26.88 
L 853.2 26.88 
" style="fill: none; stroke: #000000; stroke-width: 0.8; stroke-linejoin: miter; stroke-linecap: square"/>
   </g>
   <g id="text_15">
    <!-- chr16 region 9: old vs DNA+5mC HyenaDNA -->
    <g transform="translate(316.639375 20.88) scale(0.12 -0.12)">
     <defs>
      <path id="DejaVuSans-39" d="M 703 97 
L 703 672 
Q 941 559 1184 500 
Q 1428 441 1663 441 
Q 2288 441 2617 861 
Q 2947 1281 2994 2138 
Q 2813 1869 2534 1725 
Q 2256 1581 1919 1581 
Q 1219 1581 811 2004 
Q 403 2428 403 3163 
Q 403 3881 828 4315 
Q 1253 4750 1959 4750 
Q 2769 4750 3195 4129 
Q 3622 3509 3622 2328 
Q 3622 1225 3098 567 
Q 2575 -91 1691 -91 
Q 1453 -91 1209 -44 
Q 966 3 703 97 
z
M 1959 2075 
Q 2384 2075 2632 2365 
Q 2881 2656 2881 3163 
Q 2881 3666 2632 3958 
Q 2384 4250 1959 4250 
Q 1534 4250 1286 3958 
Q 1038 3666 1038 3163 
Q 1038 2656 1286 2365 
Q 1534 2075 1959 2075 
z
" transform="scale(0.015625)"/>
      <path id="DejaVuSans-3a" d="M 750 794 
L 1409 794 
L 1409 0 
L 750 0 
L 750 794 
z
M 750 3309 
L 1409 3309 
L 1409 2516 
L 750 2516 
L 750 3309 
z
" transform="scale(0.015625)"/>
      <path id="DejaVuSans-76" d="M 191 3500 
L 800 3500 
L 1894 563 
L 2988 3500 
L 3597 3500 
L 2284 0 
L 1503 0 
L 191 3500 
z
" transform="scale(0.015625)"/>
      <path id="DejaVuSans-44" d="M 1259 4147 
L 1259 519 
L 2022 519 
Q 2988 519 3436 956 
Q 3884 1394 3884 2338 
Q 3884 3275 3436 3711 
Q 2988 4147 2022 4147 
L 1259 4147 
z
M 628 4666 
L 1925 4666 
Q 3281 4666 3915 4102 
Q 4550 3538 4550 2338 
Q 4550 1131 3912 565 
Q 3275 0 1925 0 
L 628 0 
L 628 4666 
z
" transform="scale(0.015625)"/>
      <path id="DejaVuSans-4e" d="M 628 4666 
L 1478 4666 
L 3547 763 
L 3547 4666 
L 4159 4666 
L 4159 0 
L 3309 0 
L 1241 3903 
L 1241 0 
L 628 0 
L 628 4666 
z
" transform="scale(0.015625)"/>
      <path id="DejaVuSans-41" d="M 2188 4044 
L 1331 1722 
L 3047 1722 
L 2188 4044 
z
M 1831 4666 
L 2547 4666 
L 4325 0 
L 3669 0 
L 3244 1197 
L 1141 1197 
L 716 0 
L 50 0 
L 1831 4666 
z
" transform="scale(0.015625)"/>
      <path id="DejaVuSans-2b" d="M 2944 4013 
L 2944 2272 
L 4684 2272 
L 4684 1741 
L 2944 1741 
L 2944 0 
L 2419 0 
L 2419 1741 
L 678 1741 
L 678 2272 
L 2419 2272 
L 2419 4013 
L 2944 4013 
z
" transform="scale(0.015625)"/>
      <path id="DejaVuSans-48" d="M 628 4666 
L 1259 4666 
L 1259 2753 
L 3553 2753 
L 3553 4666 
L 4184 4666 
L 4184 0 
L 3553 0 
L 3553 2222 
L 1259 2222 
L 1259 0 
L 628 0 
L 628 4666 
z
" transform="scale(0.015625)"/>
      <path id="DejaVuSans-79" d="M 2059 -325 
Q 1816 -950 1584 -1140 
Q 1353 -1331 966 -1331 
L 506 -1331 
L 506 -850 
L 844 -850 
Q 1081 -850 1212 -737 
Q 1344 -625 1503 -206 
L 1606 56 
L 191 3500 
L 800 3500 
L 1894 763 
L 2988 3500 
L 3597 3500 
L 2059 -325 
z
" transform="scale(0.015625)"/>
     </defs>
     <use xlink:href="#DejaVuSans-63"/>
     <use xlink:href="#DejaVuSans-68" transform="translate(54.980469 0)"/>
     <use xlink:href="#DejaVuSans-72" transform="translate(118.359375 0)"/>
     <use xlink:href="#DejaVuSans-31" transform="translate(159.472656 0)"/>
     <use xlink:href="#DejaVuSans-36" transform="translate(223.095703 0)"/>
     <use xlink:href="#DejaVuSans-20" transform="translate(286.71875 0)"/>
     <use xlink:href="#DejaVuSans-72" transform="translate(318.505859 0)"/>
     <use xlink:href="#DejaVuSans-65" transform="translate(357.369141 0)"/>
     <use xlink:href="#DejaVuSans-67" transform="translate(418.892578 0)"/>
     <use xlink:href="#DejaVuSans-69" transform="translate(482.369141 0)"/>
     <use xlink:href="#DejaVuSans-6f" transform="translate(510.152344 0)"/>
     <use xlink:href="#DejaVuSans-6e" transform="translate(571.333984 0)"/>
     <use xlink:href="#DejaVuSans-20" transform="translate(634.712891 0)"/>
     <use xlink:href="#DejaVuSans-39" transform="translate(666.5 0)"/>
     <use xlink:href="#DejaVuSans-3a" transform="translate(730.123047 0)"/>
     <use xlink:href="#DejaVuSans-20" transform="translate(763.814453 0)"/>
     <use xlink:href="#DejaVuSans-6f" transform="translate(795.601562 0)"/>
     <use xlink:href="#DejaVuSans-6c" transform="translate(856.783203 0)"/>
     <use xlink:href="#DejaVuSans-64" transform="translate(884.566406 0)"/>
     <use xlink:href="#DejaVuSans-20" transform="translate(948.042969 0)"/>
     <use xlink:href="#DejaVuSans-76" transform="translate(979.830078 0)"/>
     <use xlink:href="#DejaVuSans-73" transform="translate(1039.009766 0)"/>
     <use xlink:href="#DejaVuSans-20" transform="translate(1091.109375 0)"/>
     <use xlink:href="#DejaVuSans-44" transform="translate(1122.896484 0)"/>
     <use xlink:href="#DejaVuSans-4e" transform="translate(1199.898438 0)"/>
     <use xlink:href="#DejaVuSans-41" transform="translate(1274.703125 0)"/>
     <use xlink:href="#DejaVuSans-2b" transform="translate(1343.111328 0)"/>
     <use xlink:href="#DejaVuSans-35" transform="translate(1426.900391 0)"/>
     <use xlink:href="#DejaVuSans-6d" transform="translate(1490.523438 0)"/>
     <use xlink:href="#DejaVuSans-43" transform="translate(1587.935547 0)"/>
     <use xlink:href="#DejaVuSans-20" transform="translate(1657.759766 0)"/>
     <use xlink:href="#DejaVuSans-48" transform="translate(1689.546875 0)"/>
     <use xlink:href="#DejaVuSans-79" transform="translate(1764.742188 0)"/>
     <use xlink:href="#DejaVuSans-65" transform="translate(1823.921875 0)"/>
     <use xlink:href="#DejaVuSans-6e" transform="translate(1885.445312 0)"/>
     <use xlink:href="#DejaVuSans-61" transform="translate(1948.824219 0)"/>
     <use xlink:href="#DejaVuSans-44" transform="translate(2010.103516 0)"/>
     <use xlink:href="#DejaVuSans-4e" transform="translate(2087.105469 0)"/>
     <use xlink:href="#DejaVuSans-41" transform="translate(2161.910156 0)"/>
    </g>
   </g>
   <g id="legend_1">
    <g id="patch_7">
     <path d="M 573.38125 68.5075 
L 847.6 68.5075 
Q 849.2 68.5075 849.2 66.9075 
L 849.2 32.48 
Q 849.2 30.88 847.6 30.88 
L 573.38125 30.88 
Q 571.78125 30.88 571.78125 32.48 
L 571.78125 66.9075 
Q 571.78125 68.5075 573.38125 68.5075 
z
" style="fill: #ffffff; opacity: 0.8; stroke: #cccccc; stroke-linejoin: miter"/>
    </g>
    <g id="line2d_18">
     <path d="M 574.98125 37.35875 
L 582.98125 37.35875 
L 590.98125 37.35875 
" style="fill: none; stroke: #2ca02c; stroke-width: 1.2; stroke-linecap: square"/>
    </g>
    <g id="text_16">
     <!-- ENCODE A549 H3K4me3 -->
     <g transform="translate(597.38125 40.15875) scale(0.08 -0.08)">
      <defs>
       <path id="DejaVuSans-45" d="M 628 4666 
L 3578 4666 
L 3578 4134 
L 1259 4134 
L 1259 2753 
L 3481 2753 
L 3481 2222 
L 1259 2222 
L 1259 531 
L 3634 531 
L 3634 0 
L 628 0 
L 628 4666 
z
" transform="scale(0.015625)"/>
       <path id="DejaVuSans-4f" d="M 2522 4238 
Q 1834 4238 1429 3725 
Q 1025 3213 1025 2328 
Q 1025 1447 1429 934 
Q 1834 422 2522 422 
Q 3209 422 3611 934 
Q 4013 1447 4013 2328 
Q 4013 3213 3611 3725 
Q 3209 4238 2522 4238 
z
M 2522 4750 
Q 3503 4750 4090 4092 
Q 4678 3434 4678 2328 
Q 4678 1225 4090 567 
Q 3503 -91 2522 -91 
Q 1538 -91 948 565 
Q 359 1222 359 2328 
Q 359 3434 948 4092 
Q 1538 4750 2522 4750 
z
" transform="scale(0.015625)"/>
       <path id="DejaVuSans-4b" d="M 628 4666 
L 1259 4666 
L 1259 2694 
L 3353 4666 
L 4166 4666 
L 1850 2491 
L 4331 0 
L 3500 0 
L 1259 2247 
L 1259 0 
L 628 0 
L 628 4666 
z
" transform="scale(0.015625)"/>
      </defs>
      <use xlink:href="#DejaVuSans-45"/>
      <use xlink:href="#DejaVuSans-4e" transform="translate(63.183594 0)"/>
      <use xlink:href="#DejaVuSans-43" transform="translate(137.988281 0)"/>
      <use xlink:href="#DejaVuSans-4f" transform="translate(207.8125 0)"/>
      <use xlink:href="#DejaVuSans-44" transform="translate(286.523438 0)"/>
      <use xlink:href="#DejaVuSans-45" transform="translate(363.525391 0)"/>
      <use xlink:href="#DejaVuSans-20" transform="translate(426.708984 0)"/>
      <use xlink:href="#DejaVuSans-41" transform="translate(458.496094 0)"/>
      <use xlink:href="#DejaVuSans-35" transform="translate(526.904297 0)"/>
      <use xlink:href="#DejaVuSans-34" transform="translate(590.527344 0)"/>
      <use xlink:href="#DejaVuSans-39" transform="translate(654.150391 0)"/>
      <use xlink:href="#DejaVuSans-20" transform="translate(717.773438 0)"/>
      <use xlink:href="#DejaVuSans-48" transform="translate(749.560547 0)"/>
      <use xlink:href="#DejaVuSans-33" transform="translate(824.755859 0)"/>
      <use xlink:href="#DejaVuSans-4b" transform="translate(888.378906 0)"/>
      <use xlink:href="#DejaVuSans-34" transform="translate(953.955078 0)"/>
      <use xlink:href="#DejaVuSans-6d" transform="translate(1017.578125 0)"/>
      <use xlink:href="#DejaVuSans-65" transform="translate(1114.990234 0)"/>
      <use xlink:href="#DejaVuSans-33" transform="translate(1176.513672 0)"/>
     </g>
    </g>
    <g id="line2d_19">
     <path d="M 574.98125 49.10125 
L 582.98125 49.10125 
L 590.98125 49.10125 
" style="fill: none; stroke: #000000; stroke-width: 1.2; stroke-linecap: square"/>
    </g>
    <g id="text_17">
     <!-- AlphaGenome A549 H3K4me3 -->
     <g transform="translate(597.38125 51.90125) scale(0.08 -0.08)">
      <defs>
       <path id="DejaVuSans-70" d="M 1159 525 
L 1159 -1331 
L 581 -1331 
L 581 3500 
L 1159 3500 
L 1159 2969 
Q 1341 3281 1617 3432 
Q 1894 3584 2278 3584 
Q 2916 3584 3314 3078 
Q 3713 2572 3713 1747 
Q 3713 922 3314 415 
Q 2916 -91 2278 -91 
Q 1894 -91 1617 61 
Q 1341 213 1159 525 
z
M 3116 1747 
Q 3116 2381 2855 2742 
Q 2594 3103 2138 3103 
Q 1681 3103 1420 2742 
Q 1159 2381 1159 1747 
Q 1159 1113 1420 752 
Q 1681 391 2138 391 
Q 2594 391 2855 752 
Q 3116 1113 3116 1747 
z
" transform="scale(0.015625)"/>
      </defs>
      <use xlink:href="#DejaVuSans-41"/>
      <use xlink:href="#DejaVuSans-6c" transform="translate(68.408203 0)"/>
      <use xlink:href="#DejaVuSans-70" transform="translate(96.191406 0)"/>
      <use xlink:href="#DejaVuSans-68" transform="translate(159.667969 0)"/>
      <use xlink:href="#DejaVuSans-61" transform="translate(223.046875 0)"/>
      <use xlink:href="#DejaVuSans-47" transform="translate(284.326172 0)"/>
      <use xlink:href="#DejaVuSans-65" transform="translate(361.816406 0)"/>
      <use xlink:href="#DejaVuSans-6e" transform="translate(423.339844 0)"/>
      <use xlink:href="#DejaVuSans-6f" transform="translate(486.71875 0)"/>
      <use xlink:href="#DejaVuSans-6d" transform="translate(547.900391 0)"/>
      <use xlink:href="#DejaVuSans-65" transform="translate(645.3125 0)"/>
      <use xlink:href="#DejaVuSans-20" transform="translate(706.835938 0)"/>
      <use xlink:href="#DejaVuSans-41" transform="translate(738.623047 0)"/>
      <use xlink:href="#DejaVuSans-35" transform="translate(807.03125 0)"/>
      <use xlink:href="#DejaVuSans-34" transform="translate(870.654297 0)"/>
      <use xlink:href="#DejaVuSans-39" transform="translate(934.277344 0)"/>
      <use xlink:href="#DejaVuSans-20" transform="translate(997.900391 0)"/>
      <use xlink:href="#DejaVuSans-48" transform="translate(1029.6875 0)"/>
      <use xlink:href="#DejaVuSans-33" transform="translate(1104.882812 0)"/>
      <use xlink:href="#DejaVuSans-4b" transform="translate(1168.505859 0)"/>
      <use xlink:href="#DejaVuSans-34" transform="translate(1234.082031 0)"/>
      <use xlink:href="#DejaVuSans-6d" transform="translate(1297.705078 0)"/>
      <use xlink:href="#DejaVuSans-65" transform="translate(1395.117188 0)"/>
      <use xlink:href="#DejaVuSans-33" transform="translate(1456.640625 0)"/>
     </g>
    </g>
    <g id="line2d_20">
     <path d="M 574.98125 60.84375 
L 582.98125 60.84375 
L 590.98125 60.84375 
" style="fill: none; stroke: #ff7f0e; stroke-width: 1.2; stroke-linecap: square"/>
    </g>
    <g id="text_18">
     <!-- DiMeLo observed 6mA -->
     <g transform="translate(597.38125 63.64375) scale(0.08 -0.08)">
      <defs>
       <path id="DejaVuSans-4d" d="M 628 4666 
L 1569 4666 
L 2759 1491 
L 3956 4666 
L 4897 4666 
L 4897 0 
L 4281 0 
L 4281 4097 
L 3078 897 
L 2444 897 
L 1241 4097 
L 1241 0 
L 628 0 
L 628 4666 
z
" transform="scale(0.015625)"/>
       <path id="DejaVuSans-4c" d="M 628 4666 
L 1259 4666 
L 1259 531 
L 3531 531 
L 3531 0 
L 628 0 
L 628 4666 
z
" transform="scale(0.015625)"/>
      </defs>
      <use xlink:href="#DejaVuSans-44"/>
      <use xlink:href="#DejaVuSans-69" transform="translate(77.001953 0)"/>
      <use xlink:href="#DejaVuSans-4d" transform="translate(104.785156 0)"/>
      <use xlink:href="#DejaVuSans-65" transform="translate(191.064453 0)"/>
      <use xlink:href="#DejaVuSans-4c" transform="translate(252.587891 0)"/>
      <use xlink:href="#DejaVuSans-6f" transform="translate(306.550781 0)"/>
      <use xlink:href="#DejaVuSans-20" transform="translate(367.732422 0)"/>
      <use xlink:href="#DejaVuSans-6f" transform="translate(399.519531 0)"/>
      <use xlink:href="#DejaVuSans-62" transform="translate(460.701172 0)"/>
      <use xlink:href="#DejaVuSans-73" transform="translate(524.177734 0)"/>
      <use xlink:href="#DejaVuSans-65" transform="translate(576.277344 0)"/>
      <use xlink:href="#DejaVuSans-72" transform="translate(637.800781 0)"/>
      <use xlink:href="#DejaVuSans-76" transform="translate(678.914062 0)"/>
      <use xlink:href="#DejaVuSans-65" transform="translate(738.09375 0)"/>
      <use xlink:href="#DejaVuSans-64" transform="translate(799.617188 0)"/>
      <use xlink:href="#DejaVuSans-20" transform="translate(863.09375 0)"/>
      <use xlink:href="#DejaVuSans-36" transform="translate(894.880859 0)"/>
      <use xlink:href="#DejaVuSans-6d" transform="translate(958.503906 0)"/>
      <use xlink:href="#DejaVuSans-41" transform="translate(1055.916016 0)"/>
     </g>
    </g>
    <g id="line2d_21">
     <path d="M 735.00375 37.35875 
L 743.00375 37.35875 
L 751.00375 37.35875 
" style="fill: none; stroke: #9467bd; stroke-width: 1.2; stroke-linecap: square"/>
    </g>
    <g id="text_19">
     <!-- HyenaDNA old -->
     <g transform="translate(757.40375 40.15875) scale(0.08 -0.08)">
      <use xlink:href="#DejaVuSans-48"/>
      <use xlink:href="#DejaVuSans-79" transform="translate(75.195312 0)"/>
      <use xlink:href="#DejaVuSans-65" transform="translate(134.375 0)"/>
      <use xlink:href="#DejaVuSans-6e" transform="translate(195.898438 0)"/>
      <use xlink:href="#DejaVuSans-61" transform="translate(259.277344 0)"/>
      <use xlink:href="#DejaVuSans-44" transform="translate(320.556641 0)"/>
      <use xlink:href="#DejaVuSans-4e" transform="translate(397.558594 0)"/>
      <use xlink:href="#DejaVuSans-41" transform="translate(472.363281 0)"/>
      <use xlink:href="#DejaVuSans-20" transform="translate(540.771484 0)"/>
      <use xlink:href="#DejaVuSans-6f" transform="translate(572.558594 0)"/>
      <use xlink:href="#DejaVuSans-6c" transform="translate(633.740234 0)"/>
      <use xlink:href="#DejaVuSans-64" transform="translate(661.523438 0)"/>
     </g>
    </g>
    <g id="line2d_22">
     <path d="M 735.00375 49.10125 
L 743.00375 49.10125 
L 751.00375 49.10125 
" style="fill: none; stroke: #ff1493; stroke-width: 1.2; stroke-linecap: square"/>
    </g>
    <g id="text_20">
     <!-- HyenaDNA DNA+5mC -->
     <g transform="translate(757.40375 51.90125) scale(0.08 -0.08)">
      <use xlink:href="#DejaVuSans-48"/>
      <use xlink:href="#DejaVuSans-79" transform="translate(75.195312 0)"/>
      <use xlink:href="#DejaVuSans-65" transform="translate(134.375 0)"/>
      <use xlink:href="#DejaVuSans-6e" transform="translate(195.898438 0)"/>
      <use xlink:href="#DejaVuSans-61" transform="translate(259.277344 0)"/>
      <use xlink:href="#DejaVuSans-44" transform="translate(320.556641 0)"/>
      <use xlink:href="#DejaVuSans-4e" transform="translate(397.558594 0)"/>
      <use xlink:href="#DejaVuSans-41" transform="translate(472.363281 0)"/>
      <use xlink:href="#DejaVuSans-20" transform="translate(540.771484 0)"/>
      <use xlink:href="#DejaVuSans-44" transform="translate(572.558594 0)"/>
      <use xlink:href="#DejaVuSans-4e" transform="translate(649.560547 0)"/>
      <use xlink:href="#DejaVuSans-41" transform="translate(724.365234 0)"/>
      <use xlink:href="#DejaVuSans-2b" transform="translate(792.773438 0)"/>
      <use xlink:href="#DejaVuSans-35" transform="translate(876.5625 0)"/>
      <use xlink:href="#DejaVuSans-6d" transform="translate(940.185547 0)"/>
      <use xlink:href="#DejaVuSans-43" transform="translate(1037.597656 0)"/>
     </g>
    </g>
   </g>
  </g>
 </g>
 <defs>
  <clipPath id="pbc9d4ac9ee">
   <rect x="47.72" y="26.88" width="805.48" height="219.16"/>
  </clipPath>
 </defs>
</svg>
