<?xml version="1.0" encoding="utf-8" standalone="no"?>
<!DOCTYPE svg PUBLIC "-//W3C//DTD SVG 1.1//EN"
  "http://www.w3.org/Graphics/SVG/1.1/DTD/svg11.dtd">
<svg xmlns:xlink="http://www.w3.org/1999/xlink" width="864pt" height="288pt" viewBox="0 0 864 288" xmlns="http://www.w3.org/2000/svg" version="1.1">
 <metadata>
  <rdf:RDF xmlns:dc="http://purl.org/dc/elements/1.1/" xmlns:cc="http://creativecommons.org/ns#" xmlns:rdf="http://www.w3.org/1999/02/22-rdf-syntax-ns#">
   <cc:Work>
    <dc:type rdf:resource="http://purl.org/dc/dcmitype/StillImage"/>
    <dc:date>2026-07-18T10:45:00.775683</dc:date>
    <dc:format>image/svg+xml</dc:format>
    <dc:creator>
     <cc:Agent>
      <dc:title>Matplotlib v3.10.8, https://matplotlib.org/</dc:title>
     </cc:Agent>
    </dc:creator>
   </cc:Work>
  </rdf:RDF>
 </metadata>
 <defs>
  <style type="text/css">*{stroke-linejoin: round; stroke-linecap: butt}</style>
 </defs>
 <g id="figure_1">
  <g id="patch_1">
   <path d="M 0 288 
L 864 288 
L 864 0 
L 0 0 
z
" style="fill: #ffffff"/>
  </g>
  <g id="axes_1">
   <g id="patch_2">
    <path d="M 47.72 246.04 
L 853.2 246.04 
L 853.2 26.88 
L 47.72 26.88 
z
" style="fill: #ffffff"/>
   </g>
   <g id="matplotlib.axis_1">
    <g id="xtick_1">
     <g id="line2d_1">
      <defs>
       <path id="m6597ed0b44" d="M 0 0 
L 0 3.5 
" style="stroke: #000000; stroke-width: 0.8"/>
      </defs>
      <g>
       <use xlink:href="#m6597ed0b44" x="83.599005" y="246.04" style="stroke: #000000; stroke-width: 0.8"/>
      </g>
     </g>
     <g id="text_1">
      <!-- 6.710 -->
      <g transform="translate(69.284943 260.638438) scale(0.1 -0.1)">
       <defs>
        <path id="DejaVuSans-36" d="M 2113 2584 
Q 1688 2584 1439 2293 
Q 1191 2003 1191 1497 
Q 1191 994 1439 701 
Q 1688 409 2113 409 
Q 2538 409 2786 701 
Q 3034 994 3034 1497 
Q 3034 2003 2786 2293 
Q 2538 2584 2113 2584 
z
M 3366 4563 
L 3366 3988 
Q 3128 4100 2886 4159 
Q 2644 4219 2406 4219 
Q 1781 4219 1451 3797 
Q 1122 3375 1075 2522 
Q 1259 2794 1537 2939 
Q 1816 3084 2150 3084 
Q 2853 3084 3261 2657 
Q 3669 2231 3669 1497 
Q 3669 778 3244 343 
Q 2819 -91 2113 -91 
Q 1303 -91 875 529 
Q 447 1150 447 2328 
Q 447 3434 972 4092 
Q 1497 4750 2381 4750 
Q 2619 4750 2861 4703 
Q 3103 4656 3366 4563 
z
" transform="scale(0.015625)"/>
        <path id="DejaVuSans-2e" d="M 684 794 
L 1344 794 
L 1344 0 
L 684 0 
L 684 794 
z
" transform="scale(0.015625)"/>
        <path id="DejaVuSans-37" d="M 525 4666 
L 3525 4666 
L 3525 4397 
L 1831 0 
L 1172 0 
L 2766 4134 
L 525 4134 
L 525 4666 
z
" transform="scale(0.015625)"/>
        <path id="DejaVuSans-31" d="M 794 531 
L 1825 531 
L 1825 4091 
L 703 3866 
L 703 4441 
L 1819 4666 
L 2450 4666 
L 2450 531 
L 3481 531 
L 3481 0 
L 794 0 
L 794 531 
z
" transform="scale(0.015625)"/>
        <path id="DejaVuSans-30" d="M 2034 4250 
Q 1547 4250 1301 3770 
Q 1056 3291 1056 2328 
Q 1056 1369 1301 889 
Q 1547 409 2034 409 
Q 2525 409 2770 889 
Q 3016 1369 3016 2328 
Q 3016 3291 2770 3770 
Q 2525 4250 2034 4250 
z
M 2034 4750 
Q 2819 4750 3233 4129 
Q 3647 3509 3647 2328 
Q 3647 1150 3233 529 
Q 2819 -91 2034 -91 
Q 1250 -91 836 529 
Q 422 1150 422 2328 
Q 422 3509 836 4129 
Q 1250 4750 2034 4750 
z
" transform="scale(0.015625)"/>
       </defs>
       <use xlink:href="#DejaVuSans-36"/>
       <use xlink:href="#DejaVuSans-2e" transform="translate(63.623047 0)"/>
       <use xlink:href="#DejaVuSans-37" transform="translate(95.410156 0)"/>
       <use xlink:href="#DejaVuSans-31" transform="translate(159.033203 0)"/>
       <use xlink:href="#DejaVuSans-30" transform="translate(222.65625 0)"/>
      </g>
     </g>
    </g>
    <g id="xtick_2">
     <g id="line2d_2">
      <g>
       <use xlink:href="#m6597ed0b44" x="230.343403" y="246.04" style="stroke: #000000; stroke-width: 0.8"/>
      </g>
     </g>
     <g id="text_2">
      <!-- 6.712 -->
      <g transform="translate(216.029341 260.638438) scale(0.1 -0.1)">
       <defs>
        <path id="DejaVuSans-32" d="M 1228 531 
L 3431 531 
L 3431 0 
L 469 0 
L 469 531 
Q 828 903 1448 1529 
Q 2069 2156 2228 2338 
Q 2531 2678 2651 2914 
Q 2772 3150 2772 3378 
Q 2772 3750 2511 3984 
Q 2250 4219 1831 4219 
Q 1534 4219 1204 4116 
Q 875 4013 500 3803 
L 500 4441 
Q 881 4594 1212 4672 
Q 1544 4750 1819 4750 
Q 2544 4750 2975 4387 
Q 3406 4025 3406 3419 
Q 3406 3131 3298 2873 
Q 3191 2616 2906 2266 
Q 2828 2175 2409 1742 
Q 1991 1309 1228 531 
z
" transform="scale(0.015625)"/>
       </defs>
       <use xlink:href="#DejaVuSans-36"/>
       <use xlink:href="#DejaVuSans-2e" transform="translate(63.623047 0)"/>
       <use xlink:href="#DejaVuSans-37" transform="translate(95.410156 0)"/>
       <use xlink:href="#DejaVuSans-31" transform="translate(159.033203 0)"/>
       <use xlink:href="#DejaVuSans-32" transform="translate(222.65625 0)"/>
      </g>
     </g>
    </g>
    <g id="xtick_3">
     <g id="line2d_3">
      <g>
       <use xlink:href="#m6597ed0b44" x="377.087801" y="246.04" style="stroke: #000000; stroke-width: 0.8"/>
      </g>
     </g>
     <g id="text_3">
      <!-- 6.714 -->
      <g transform="translate(362.773739 260.638438) scale(0.1 -0.1)">
       <defs>
        <path id="DejaVuSans-34" d="M 2419 4116 
L 825 1625 
L 2419 1625 
L 2419 4116 
z
M 2253 4666 
L 3047 4666 
L 3047 1625 
L 3713 1625 
L 3713 1100 
L 3047 1100 
L 3047 0 
L 2419 0 
L 2419 1100 
L 313 1100 
L 313 1709 
L 2253 4666 
z
" transform="scale(0.015625)"/>
       </defs>
       <use xlink:href="#DejaVuSans-36"/>
       <use xlink:href="#DejaVuSans-2e" transform="translate(63.623047 0)"/>
       <use xlink:href="#DejaVuSans-37" transform="translate(95.410156 0)"/>
       <use xlink:href="#DejaVuSans-31" transform="translate(159.033203 0)"/>
       <use xlink:href="#DejaVuSans-34" transform="translate(222.65625 0)"/>
      </g>
     </g>
    </g>
    <g id="xtick_4">
     <g id="line2d_4">
      <g>
       <use xlink:href="#m6597ed0b44" x="523.832199" y="246.04" style="stroke: #000000; stroke-width: 0.8"/>
      </g>
     </g>
     <g id="text_4">
      <!-- 6.716 -->
      <g transform="translate(509.518136 260.638438) scale(0.1 -0.1)">
       <use xlink:href="#DejaVuSans-36"/>
       <use xlink:href="#DejaVuSans-2e" transform="translate(63.623047 0)"/>
       <use xlink:href="#DejaVuSans-37" transform="translate(95.410156 0)"/>
       <use xlink:href="#DejaVuSans-31" transform="translate(159.033203 0)"/>
       <use xlink:href="#DejaVuSans-36" transform="translate(222.65625 0)"/>
      </g>
     </g>
    </g>
    <g id="xtick_5">
     <g id="line2d_5">
      <g>
       <use xlink:href="#m6597ed0b44" x="670.576597" y="246.04" style="stroke: #000000; stroke-width: 0.8"/>
      </g>
     </g>
     <g id="text_5">
      <!-- 6.718 -->
      <g transform="translate(656.262534 260.638438) scale(0.1 -0.1)">
       <defs>
        <path id="DejaVuSans-38" d="M 2034 2216 
Q 1584 2216 1326 1975 
Q 1069 1734 1069 1313 
Q 1069 891 1326 650 
Q 1584 409 2034 409 
Q 2484 409 2743 651 
Q 3003 894 3003 1313 
Q 3003 1734 2745 1975 
Q 2488 2216 2034 2216 
z
M 1403 2484 
Q 997 2584 770 2862 
Q 544 3141 544 3541 
Q 544 4100 942 4425 
Q 1341 4750 2034 4750 
Q 2731 4750 3128 4425 
Q 3525 4100 3525 3541 
Q 3525 3141 3298 2862 
Q 3072 2584 2669 2484 
Q 3125 2378 3379 2068 
Q 3634 1759 3634 1313 
Q 3634 634 3220 271 
Q 2806 -91 2034 -91 
Q 1263 -91 848 271 
Q 434 634 434 1313 
Q 434 1759 690 2068 
Q 947 2378 1403 2484 
z
M 1172 3481 
Q 1172 3119 1398 2916 
Q 1625 2713 2034 2713 
Q 2441 2713 2670 2916 
Q 2900 3119 2900 3481 
Q 2900 3844 2670 4047 
Q 2441 4250 2034 4250 
Q 1625 4250 1398 4047 
Q 1172 3844 1172 3481 
z
" transform="scale(0.015625)"/>
       </defs>
       <use xlink:href="#DejaVuSans-36"/>
       <use xlink:href="#DejaVuSans-2e" transform="translate(63.623047 0)"/>
       <use xlink:href="#DejaVuSans-37" transform="translate(95.410156 0)"/>
       <use xlink:href="#DejaVuSans-31" transform="translate(159.033203 0)"/>
       <use xlink:href="#DejaVuSans-38" transform="translate(222.65625 0)"/>
      </g>
     </g>
    </g>
    <g id="xtick_6">
     <g id="line2d_6">
      <g>
       <use xlink:href="#m6597ed0b44" x="817.320995" y="246.04" style="stroke: #000000; stroke-width: 0.8"/>
      </g>
     </g>
     <g id="text_6">
      <!-- 6.720 -->
      <g transform="translate(803.006932 260.638438) scale(0.1 -0.1)">
       <use xlink:href="#DejaVuSans-36"/>
       <use xlink:href="#DejaVuSans-2e" transform="translate(63.623047 0)"/>
       <use xlink:href="#DejaVuSans-37" transform="translate(95.410156 0)"/>
       <use xlink:href="#DejaVuSans-32" transform="translate(159.033203 0)"/>
       <use xlink:href="#DejaVuSans-30" transform="translate(222.65625 0)"/>
      </g>
     </g>
    </g>
    <g id="text_7">
     <!-- chr16 coordinate (GRCh38) -->
     <g transform="translate(382.254531 274.316562) scale(0.1 -0.1)">
      <defs>
       <path id="DejaVuSans-63" d="M 3122 3366 
L 3122 2828 
Q 2878 2963 2633 3030 
Q 2388 3097 2138 3097 
Q 1578 3097 1268 2742 
Q 959 2388 959 1747 
Q 959 1106 1268 751 
Q 1578 397 2138 397 
Q 2388 397 2633 464 
Q 2878 531 3122 666 
L 3122 134 
Q 2881 22 2623 -34 
Q 2366 -91 2075 -91 
Q 1284 -91 818 406 
Q 353 903 353 1747 
Q 353 2603 823 3093 
Q 1294 3584 2113 3584 
Q 2378 3584 2631 3529 
Q 2884 3475 3122 3366 
z
" transform="scale(0.015625)"/>
       <path id="DejaVuSans-68" d="M 3513 2113 
L 3513 0 
L 2938 0 
L 2938 2094 
Q 2938 2591 2744 2837 
Q 2550 3084 2163 3084 
Q 1697 3084 1428 2787 
Q 1159 2491 1159 1978 
L 1159 0 
L 581 0 
L 581 4863 
L 1159 4863 
L 1159 2956 
Q 1366 3272 1645 3428 
Q 1925 3584 2291 3584 
Q 2894 3584 3203 3211 
Q 3513 2838 3513 2113 
z
" transform="scale(0.015625)"/>
       <path id="DejaVuSans-72" d="M 2631 2963 
Q 2534 3019 2420 3045 
Q 2306 3072 2169 3072 
Q 1681 3072 1420 2755 
Q 1159 2438 1159 1844 
L 1159 0 
L 581 0 
L 581 3500 
L 1159 3500 
L 1159 2956 
Q 1341 3275 1631 3429 
Q 1922 3584 2338 3584 
Q 2397 3584 2469 3576 
Q 2541 3569 2628 3553 
L 2631 2963 
z
" transform="scale(0.015625)"/>
       <path id="DejaVuSans-20" transform="scale(0.015625)"/>
       <path id="DejaVuSans-6f" d="M 1959 3097 
Q 1497 3097 1228 2736 
Q 959 2375 959 1747 
Q 959 1119 1226 758 
Q 1494 397 1959 397 
Q 2419 397 2687 759 
Q 2956 1122 2956 1747 
Q 2956 2369 2687 2733 
Q 2419 3097 1959 3097 
z
M 1959 3584 
Q 2709 3584 3137 3096 
Q 3566 2609 3566 1747 
Q 3566 888 3137 398 
Q 2709 -91 1959 -91 
Q 1206 -91 779 398 
Q 353 888 353 1747 
Q 353 2609 779 3096 
Q 1206 3584 1959 3584 
z
" transform="scale(0.015625)"/>
       <path id="DejaVuSans-64" d="M 2906 2969 
L 2906 4863 
L 3481 4863 
L 3481 0 
L 2906 0 
L 2906 525 
Q 2725 213 2448 61 
Q 2172 -91 1784 -91 
Q 1150 -91 751 415 
Q 353 922 353 1747 
Q 353 2572 751 3078 
Q 1150 3584 1784 3584 
Q 2172 3584 2448 3432 
Q 2725 3281 2906 2969 
z
M 947 1747 
Q 947 1113 1208 752 
Q 1469 391 1925 391 
Q 2381 391 2643 752 
Q 2906 1113 2906 1747 
Q 2906 2381 2643 2742 
Q 2381 3103 1925 3103 
Q 1469 3103 1208 2742 
Q 947 2381 947 1747 
z
" transform="scale(0.015625)"/>
       <path id="DejaVuSans-69" d="M 603 3500 
L 1178 3500 
L 1178 0 
L 603 0 
L 603 3500 
z
M 603 4863 
L 1178 4863 
L 1178 4134 
L 603 4134 
L 603 4863 
z
" transform="scale(0.015625)"/>
       <path id="DejaVuSans-6e" d="M 3513 2113 
L 3513 0 
L 2938 0 
L 2938 2094 
Q 2938 2591 2744 2837 
Q 2550 3084 2163 3084 
Q 1697 3084 1428 2787 
Q 1159 2491 1159 1978 
L 1159 0 
L 581 0 
L 581 3500 
L 1159 3500 
L 1159 2956 
Q 1366 3272 1645 3428 
Q 1925 3584 2291 3584 
Q 2894 3584 3203 3211 
Q 3513 2838 3513 2113 
z
" transform="scale(0.015625)"/>
       <path id="DejaVuSans-61" d="M 2194 1759 
Q 1497 1759 1228 1600 
Q 959 1441 959 1056 
Q 959 750 1161 570 
Q 1363 391 1709 391 
Q 2188 391 2477 730 
Q 2766 1069 2766 1631 
L 2766 1759 
L 2194 1759 
z
M 3341 1997 
L 3341 0 
L 2766 0 
L 2766 531 
Q 2569 213 2275 61 
Q 1981 -91 1556 -91 
Q 1019 -91 701 211 
Q 384 513 384 1019 
Q 384 1609 779 1909 
Q 1175 2209 1959 2209 
L 2766 2209 
L 2766 2266 
Q 2766 2663 2505 2880 
Q 2244 3097 1772 3097 
Q 1472 3097 1187 3025 
Q 903 2953 641 2809 
L 641 3341 
Q 956 3463 1253 3523 
Q 1550 3584 1831 3584 
Q 2591 3584 2966 3190 
Q 3341 2797 3341 1997 
z
" transform="scale(0.015625)"/>
       <path id="DejaVuSans-74" d="M 1172 4494 
L 1172 3500 
L 2356 3500 
L 2356 3053 
L 1172 3053 
L 1172 1153 
Q 1172 725 1289 603 
Q 1406 481 1766 481 
L 2356 481 
L 2356 0 
L 1766 0 
Q 1100 0 847 248 
Q 594 497 594 1153 
L 594 3053 
L 172 3053 
L 172 3500 
L 594 3500 
L 594 4494 
L 1172 4494 
z
" transform="scale(0.015625)"/>
       <path id="DejaVuSans-65" d="M 3597 1894 
L 3597 1613 
L 953 1613 
Q 991 1019 1311 708 
Q 1631 397 2203 397 
Q 2534 397 2845 478 
Q 3156 559 3463 722 
L 3463 178 
Q 3153 47 2828 -22 
Q 2503 -91 2169 -91 
Q 1331 -91 842 396 
Q 353 884 353 1716 
Q 353 2575 817 3079 
Q 1281 3584 2069 3584 
Q 2775 3584 3186 3129 
Q 3597 2675 3597 1894 
z
M 3022 2063 
Q 3016 2534 2758 2815 
Q 2500 3097 2075 3097 
Q 1594 3097 1305 2825 
Q 1016 2553 972 2059 
L 3022 2063 
z
" transform="scale(0.015625)"/>
       <path id="DejaVuSans-28" d="M 1984 4856 
Q 1566 4138 1362 3434 
Q 1159 2731 1159 2009 
Q 1159 1288 1364 580 
Q 1569 -128 1984 -844 
L 1484 -844 
Q 1016 -109 783 600 
Q 550 1309 550 2009 
Q 550 2706 781 3412 
Q 1013 4119 1484 4856 
L 1984 4856 
z
" transform="scale(0.015625)"/>
       <path id="DejaVuSans-47" d="M 3809 666 
L 3809 1919 
L 2778 1919 
L 2778 2438 
L 4434 2438 
L 4434 434 
Q 4069 175 3628 42 
Q 3188 -91 2688 -91 
Q 1594 -91 976 548 
Q 359 1188 359 2328 
Q 359 3472 976 4111 
Q 1594 4750 2688 4750 
Q 3144 4750 3555 4637 
Q 3966 4525 4313 4306 
L 4313 3634 
Q 3963 3931 3569 4081 
Q 3175 4231 2741 4231 
Q 1884 4231 1454 3753 
Q 1025 3275 1025 2328 
Q 1025 1384 1454 906 
Q 1884 428 2741 428 
Q 3075 428 3337 486 
Q 3600 544 3809 666 
z
" transform="scale(0.015625)"/>
       <path id="DejaVuSans-52" d="M 2841 2188 
Q 3044 2119 3236 1894 
Q 3428 1669 3622 1275 
L 4263 0 
L 3584 0 
L 2988 1197 
Q 2756 1666 2539 1819 
Q 2322 1972 1947 1972 
L 1259 1972 
L 1259 0 
L 628 0 
L 628 4666 
L 2053 4666 
Q 2853 4666 3247 4331 
Q 3641 3997 3641 3322 
Q 3641 2881 3436 2590 
Q 3231 2300 2841 2188 
z
M 1259 4147 
L 1259 2491 
L 2053 2491 
Q 2509 2491 2742 2702 
Q 2975 2913 2975 3322 
Q 2975 3731 2742 3939 
Q 2509 4147 2053 4147 
L 1259 4147 
z
" transform="scale(0.015625)"/>
       <path id="DejaVuSans-43" d="M 4122 4306 
L 4122 3641 
Q 3803 3938 3442 4084 
Q 3081 4231 2675 4231 
Q 1875 4231 1450 3742 
Q 1025 3253 1025 2328 
Q 1025 1406 1450 917 
Q 1875 428 2675 428 
Q 3081 428 3442 575 
Q 3803 722 4122 1019 
L 4122 359 
Q 3791 134 3420 21 
Q 3050 -91 2638 -91 
Q 1578 -91 968 557 
Q 359 1206 359 2328 
Q 359 3453 968 4101 
Q 1578 4750 2638 4750 
Q 3056 4750 3426 4639 
Q 3797 4528 4122 4306 
z
" transform="scale(0.015625)"/>
       <path id="DejaVuSans-33" d="M 2597 2516 
Q 3050 2419 3304 2112 
Q 3559 1806 3559 1356 
Q 3559 666 3084 287 
Q 2609 -91 1734 -91 
Q 1441 -91 1130 -33 
Q 819 25 488 141 
L 488 750 
Q 750 597 1062 519 
Q 1375 441 1716 441 
Q 2309 441 2620 675 
Q 2931 909 2931 1356 
Q 2931 1769 2642 2001 
Q 2353 2234 1838 2234 
L 1294 2234 
L 1294 2753 
L 1863 2753 
Q 2328 2753 2575 2939 
Q 2822 3125 2822 3475 
Q 2822 3834 2567 4026 
Q 2313 4219 1838 4219 
Q 1578 4219 1281 4162 
Q 984 4106 628 3988 
L 628 4550 
Q 988 4650 1302 4700 
Q 1616 4750 1894 4750 
Q 2613 4750 3031 4423 
Q 3450 4097 3450 3541 
Q 3450 3153 3228 2886 
Q 3006 2619 2597 2516 
z
" transform="scale(0.015625)"/>
       <path id="DejaVuSans-29" d="M 513 4856 
L 1013 4856 
Q 1481 4119 1714 3412 
Q 1947 2706 1947 2009 
Q 1947 1309 1714 600 
Q 1481 -109 1013 -844 
L 513 -844 
Q 928 -128 1133 580 
Q 1338 1288 1338 2009 
Q 1338 2731 1133 3434 
Q 928 4138 513 4856 
z
" transform="scale(0.015625)"/>
      </defs>
      <use xlink:href="#DejaVuSans-63"/>
      <use xlink:href="#DejaVuSans-68" transform="translate(54.980469 0)"/>
      <use xlink:href="#DejaVuSans-72" transform="translate(118.359375 0)"/>
      <use xlink:href="#DejaVuSans-31" transform="translate(159.472656 0)"/>
      <use xlink:href="#DejaVuSans-36" transform="translate(223.095703 0)"/>
      <use xlink:href="#DejaVuSans-20" transform="translate(286.71875 0)"/>
      <use xlink:href="#DejaVuSans-63" transform="translate(318.505859 0)"/>
      <use xlink:href="#DejaVuSans-6f" transform="translate(373.486328 0)"/>
      <use xlink:href="#DejaVuSans-6f" transform="translate(434.667969 0)"/>
      <use xlink:href="#DejaVuSans-72" transform="translate(495.849609 0)"/>
      <use xlink:href="#DejaVuSans-64" transform="translate(535.212891 0)"/>
      <use xlink:href="#DejaVuSans-69" transform="translate(598.689453 0)"/>
      <use xlink:href="#DejaVuSans-6e" transform="translate(626.472656 0)"/>
      <use xlink:href="#DejaVuSans-61" transform="translate(689.851562 0)"/>
      <use xlink:href="#DejaVuSans-74" transform="translate(751.130859 0)"/>
      <use xlink:href="#DejaVuSans-65" transform="translate(790.339844 0)"/>
      <use xlink:href="#DejaVuSans-20" transform="translate(851.863281 0)"/>
      <use xlink:href="#DejaVuSans-28" transform="translate(883.650391 0)"/>
      <use xlink:href="#DejaVuSans-47" transform="translate(922.664062 0)"/>
      <use xlink:href="#DejaVuSans-52" transform="translate(1000.154297 0)"/>
      <use xlink:href="#DejaVuSans-43" transform="translate(1064.636719 0)"/>
      <use xlink:href="#DejaVuSans-68" transform="translate(1134.460938 0)"/>
      <use xlink:href="#DejaVuSans-33" transform="translate(1197.839844 0)"/>
      <use xlink:href="#DejaVuSans-38" transform="translate(1261.462891 0)"/>
      <use xlink:href="#DejaVuSans-29" transform="translate(1325.085938 0)"/>
     </g>
    </g>
    <g id="text_8">
     <!-- 1e7 -->
     <g transform="translate(834.321875 273.316562) scale(0.1 -0.1)">
      <use xlink:href="#DejaVuSans-31"/>
      <use xlink:href="#DejaVuSans-65" transform="translate(63.623047 0)"/>
      <use xlink:href="#DejaVuSans-37" transform="translate(125.146484 0)"/>
     </g>
    </g>
   </g>
   <g id="matplotlib.axis_2">
    <g id="ytick_1">
     <g id="line2d_7">
      <defs>
       <path id="mc410f27468" d="M 0 0 
L -3.5 0 
" style="stroke: #000000; stroke-width: 0.8"/>
      </defs>
      <g>
       <use xlink:href="#mc410f27468" x="47.72" y="236.078182" style="stroke: #000000; stroke-width: 0.8"/>
      </g>
     </g>
     <g id="text_9">
      <!-- 0.0 -->
      <g transform="translate(24.816875 239.877401) scale(0.1 -0.1)">
       <use xlink:href="#DejaVuSans-30"/>
       <use xlink:href="#DejaVuSans-2e" transform="translate(63.623047 0)"/>
       <use xlink:href="#DejaVuSans-30" transform="translate(95.410156 0)"/>
      </g>
     </g>
    </g>
    <g id="ytick_2">
     <g id="line2d_8">
      <g>
       <use xlink:href="#mc410f27468" x="47.72" y="196.230909" style="stroke: #000000; stroke-width: 0.8"/>
      </g>
     </g>
     <g id="text_10">
      <!-- 0.2 -->
      <g transform="translate(24.816875 200.030128) scale(0.1 -0.1)">
       <use xlink:href="#DejaVuSans-30"/>
       <use xlink:href="#DejaVuSans-2e" transform="translate(63.623047 0)"/>
       <use xlink:href="#DejaVuSans-32" transform="translate(95.410156 0)"/>
      </g>
     </g>
    </g>
    <g id="ytick_3">
     <g id="line2d_9">
      <g>
       <use xlink:href="#mc410f27468" x="47.72" y="156.383636" style="stroke: #000000; stroke-width: 0.8"/>
      </g>
     </g>
     <g id="text_11">
      <!-- 0.4 -->
      <g transform="translate(24.816875 160.182855) scale(0.1 -0.1)">
       <use xlink:href="#DejaVuSans-30"/>
       <use xlink:href="#DejaVuSans-2e" transform="translate(63.623047 0)"/>
       <use xlink:href="#DejaVuSans-34" transform="translate(95.410156 0)"/>
      </g>
     </g>
    </g>
    <g id="ytick_4">
     <g id="line2d_10">
      <g>
       <use xlink:href="#mc410f27468" x="47.72" y="116.536364" style="stroke: #000000; stroke-width: 0.8"/>
      </g>
     </g>
     <g id="text_12">
      <!-- 0.6 -->
      <g transform="translate(24.816875 120.335582) scale(0.1 -0.1)">
       <use xlink:href="#DejaVuSans-30"/>
       <use xlink:href="#DejaVuSans-2e" transform="translate(63.623047 0)"/>
       <use xlink:href="#DejaVuSans-36" transform="translate(95.410156 0)"/>
      </g>
     </g>
    </g>
    <g id="ytick_5">
     <g id="line2d_11">
      <g>
       <use xlink:href="#mc410f27468" x="47.72" y="76.689091" style="stroke: #000000; stroke-width: 0.8"/>
      </g>
     </g>
     <g id="text_13">
      <!-- 0.8 -->
      <g transform="translate(24.816875 80.48831) scale(0.1 -0.1)">
       <use xlink:href="#DejaVuSans-30"/>
       <use xlink:href="#DejaVuSans-2e" transform="translate(63.623047 0)"/>
       <use xlink:href="#DejaVuSans-38" transform="translate(95.410156 0)"/>
      </g>
     </g>
    </g>
    <g id="ytick_6">
     <g id="line2d_12">
      <g>
       <use xlink:href="#mc410f27468" x="47.72" y="36.841818" style="stroke: #000000; stroke-width: 0.8"/>
      </g>
     </g>
     <g id="text_14">
      <!-- 1.0 -->
      <g transform="translate(24.816875 40.641037) scale(0.1 -0.1)">
       <use xlink:href="#DejaVuSans-31"/>
       <use xlink:href="#DejaVuSans-2e" transform="translate(63.623047 0)"/>
       <use xlink:href="#DejaVuSans-30" transform="translate(95.410156 0)"/>
      </g>
     </g>
    </g>
    <g id="text_15">
     <!-- global robust-normalized signal -->
     <g transform="translate(18.737188 215.175625) rotate(-90) scale(0.1 -0.1)">
      <defs>
       <path id="DejaVuSans-67" d="M 2906 1791 
Q 2906 2416 2648 2759 
Q 2391 3103 1925 3103 
Q 1463 3103 1205 2759 
Q 947 2416 947 1791 
Q 947 1169 1205 825 
Q 1463 481 1925 481 
Q 2391 481 2648 825 
Q 2906 1169 2906 1791 
z
M 3481 434 
Q 3481 -459 3084 -895 
Q 2688 -1331 1869 -1331 
Q 1566 -1331 1297 -1286 
Q 1028 -1241 775 -1147 
L 775 -588 
Q 1028 -725 1275 -790 
Q 1522 -856 1778 -856 
Q 2344 -856 2625 -561 
Q 2906 -266 2906 331 
L 2906 616 
Q 2728 306 2450 153 
Q 2172 0 1784 0 
Q 1141 0 747 490 
Q 353 981 353 1791 
Q 353 2603 747 3093 
Q 1141 3584 1784 3584 
Q 2172 3584 2450 3431 
Q 2728 3278 2906 2969 
L 2906 3500 
L 3481 3500 
L 3481 434 
z
" transform="scale(0.015625)"/>
       <path id="DejaVuSans-6c" d="M 603 4863 
L 1178 4863 
L 1178 0 
L 603 0 
L 603 4863 
z
" transform="scale(0.015625)"/>
       <path id="DejaVuSans-62" d="M 3116 1747 
Q 3116 2381 2855 2742 
Q 2594 3103 2138 3103 
Q 1681 3103 1420 2742 
Q 1159 2381 1159 1747 
Q 1159 1113 1420 752 
Q 1681 391 2138 391 
Q 2594 391 2855 752 
Q 3116 1113 3116 1747 
z
M 1159 2969 
Q 1341 3281 1617 3432 
Q 1894 3584 2278 3584 
Q 2916 3584 3314 3078 
Q 3713 2572 3713 1747 
Q 3713 922 3314 415 
Q 2916 -91 2278 -91 
Q 1894 -91 1617 61 
Q 1341 213 1159 525 
L 1159 0 
L 581 0 
L 581 4863 
L 1159 4863 
L 1159 2969 
z
" transform="scale(0.015625)"/>
       <path id="DejaVuSans-75" d="M 544 1381 
L 544 3500 
L 1119 3500 
L 1119 1403 
Q 1119 906 1312 657 
Q 1506 409 1894 409 
Q 2359 409 2629 706 
Q 2900 1003 2900 1516 
L 2900 3500 
L 3475 3500 
L 3475 0 
L 2900 0 
L 2900 538 
Q 2691 219 2414 64 
Q 2138 -91 1772 -91 
Q 1169 -91 856 284 
Q 544 659 544 1381 
z
M 1991 3584 
L 1991 3584 
z
" transform="scale(0.015625)"/>
       <path id="DejaVuSans-73" d="M 2834 3397 
L 2834 2853 
Q 2591 2978 2328 3040 
Q 2066 3103 1784 3103 
Q 1356 3103 1142 2972 
Q 928 2841 928 2578 
Q 928 2378 1081 2264 
Q 1234 2150 1697 2047 
L 1894 2003 
Q 2506 1872 2764 1633 
Q 3022 1394 3022 966 
Q 3022 478 2636 193 
Q 2250 -91 1575 -91 
Q 1294 -91 989 -36 
Q 684 19 347 128 
L 347 722 
Q 666 556 975 473 
Q 1284 391 1588 391 
Q 1994 391 2212 530 
Q 2431 669 2431 922 
Q 2431 1156 2273 1281 
Q 2116 1406 1581 1522 
L 1381 1569 
Q 847 1681 609 1914 
Q 372 2147 372 2553 
Q 372 3047 722 3315 
Q 1072 3584 1716 3584 
Q 2034 3584 2315 3537 
Q 2597 3491 2834 3397 
z
" transform="scale(0.015625)"/>
       <path id="DejaVuSans-2d" d="M 313 2009 
L 1997 2009 
L 1997 1497 
L 313 1497 
L 313 2009 
z
" transform="scale(0.015625)"/>
       <path id="DejaVuSans-6d" d="M 3328 2828 
Q 3544 3216 3844 3400 
Q 4144 3584 4550 3584 
Q 5097 3584 5394 3201 
Q 5691 2819 5691 2113 
L 5691 0 
L 5113 0 
L 5113 2094 
Q 5113 2597 4934 2840 
Q 4756 3084 4391 3084 
Q 3944 3084 3684 2787 
Q 3425 2491 3425 1978 
L 3425 0 
L 2847 0 
L 2847 2094 
Q 2847 2600 2669 2842 
Q 2491 3084 2119 3084 
Q 1678 3084 1418 2786 
Q 1159 2488 1159 1978 
L 1159 0 
L 581 0 
L 581 3500 
L 1159 3500 
L 1159 2956 
Q 1356 3278 1631 3431 
Q 1906 3584 2284 3584 
Q 2666 3584 2933 3390 
Q 3200 3197 3328 2828 
z
" transform="scale(0.015625)"/>
       <path id="DejaVuSans-7a" d="M 353 3500 
L 3084 3500 
L 3084 2975 
L 922 459 
L 3084 459 
L 3084 0 
L 275 0 
L 275 525 
L 2438 3041 
L 353 3041 
L 353 3500 
z
" transform="scale(0.015625)"/>
      </defs>
      <use xlink:href="#DejaVuSans-67"/>
      <use xlink:href="#DejaVuSans-6c" transform="translate(63.476562 0)"/>
      <use xlink:href="#DejaVuSans-6f" transform="translate(91.259766 0)"/>
      <use xlink:href="#DejaVuSans-62" transform="translate(152.441406 0)"/>
      <use xlink:href="#DejaVuSans-61" transform="translate(215.917969 0)"/>
      <use xlink:href="#DejaVuSans-6c" transform="translate(277.197266 0)"/>
      <use xlink:href="#DejaVuSans-20" transform="translate(304.980469 0)"/>
      <use xlink:href="#DejaVuSans-72" transform="translate(336.767578 0)"/>
      <use xlink:href="#DejaVuSans-6f" transform="translate(375.630859 0)"/>
      <use xlink:href="#DejaVuSans-62" transform="translate(436.8125 0)"/>
      <use xlink:href="#DejaVuSans-75" transform="translate(500.289062 0)"/>
      <use xlink:href="#DejaVuSans-73" transform="translate(563.667969 0)"/>
      <use xlink:href="#DejaVuSans-74" transform="translate(615.767578 0)"/>
      <use xlink:href="#DejaVuSans-2d" transform="translate(654.976562 0)"/>
      <use xlink:href="#DejaVuSans-6e" transform="translate(691.060547 0)"/>
      <use xlink:href="#DejaVuSans-6f" transform="translate(754.439453 0)"/>
      <use xlink:href="#DejaVuSans-72" transform="translate(815.621094 0)"/>
      <use xlink:href="#DejaVuSans-6d" transform="translate(854.984375 0)"/>
      <use xlink:href="#DejaVuSans-61" transform="translate(952.396484 0)"/>
      <use xlink:href="#DejaVuSans-6c" transform="translate(1013.675781 0)"/>
      <use xlink:href="#DejaVuSans-69" transform="translate(1041.458984 0)"/>
      <use xlink:href="#DejaVuSans-7a" transform="translate(1069.242188 0)"/>
      <use xlink:href="#DejaVuSans-65" transform="translate(1121.732422 0)"/>
      <use xlink:href="#DejaVuSans-64" transform="translate(1183.255859 0)"/>
      <use xlink:href="#DejaVuSans-20" transform="translate(1246.732422 0)"/>
      <use xlink:href="#DejaVuSans-73" transform="translate(1278.519531 0)"/>
      <use xlink:href="#DejaVuSans-69" transform="translate(1330.619141 0)"/>
      <use xlink:href="#DejaVuSans-67" transform="translate(1358.402344 0)"/>
      <use xlink:href="#DejaVuSans-6e" transform="translate(1421.878906 0)"/>
      <use xlink:href="#DejaVuSans-61" transform="translate(1485.257812 0)"/>
      <use xlink:href="#DejaVuSans-6c" transform="translate(1546.537109 0)"/>
     </g>
    </g>
   </g>
   <g id="line2d_13">
    <path d="M 84.332727 229.802023 
L 85.800171 232.955106 
L 87.267615 232.616903 
L 88.735059 232.425544 
L 90.202503 234.116295 
L 91.669947 231.578456 
L 93.137391 233.316675 
L 94.604835 232.142154 
L 96.072279 234.404833 
L 97.539723 234.830206 
L 99.007167 231.756258 
L 100.474611 231.221172 
L 101.942055 233.217128 
L 103.409499 233.917504 
L 104.876943 233.742388 
L 106.344387 234.888651 
L 107.811831 231.35565 
L 110.746719 233.505961 
L 113.681607 233.677838 
L 115.149051 234.43337 
L 116.616495 230.331112 
L 118.083939 233.025243 
L 119.551383 231.612051 
L 121.018827 233.470202 
L 122.486271 234.147493 
L 123.953715 230.641287 
L 125.421159 233.765576 
L 126.888603 232.760971 
L 128.356047 233.442265 
L 129.823491 233.745098 
L 134.225823 235.228747 
L 135.693267 234.057695 
L 137.160711 231.327931 
L 138.628154 233.361922 
L 140.095598 234.075071 
L 141.563042 233.540434 
L 143.030486 233.767326 
L 144.49793 231.800005 
L 145.965374 230.630803 
L 148.900262 233.130982 
L 150.367706 230.104368 
L 151.83515 211.762635 
L 153.302594 163.583909 
L 154.770038 156.977192 
L 156.237482 178.483743 
L 157.704926 44.333416 
L 159.17237 36.841818 
L 160.639814 38.804378 
L 162.107258 120.866213 
L 163.574702 189.507297 
L 166.50959 223.394867 
L 169.444478 228.104604 
L 170.911922 230.439622 
L 172.379366 234.558032 
L 173.84681 232.498383 
L 175.314254 231.378697 
L 176.781698 231.66343 
L 178.249142 233.60723 
L 179.716586 228.183061 
L 181.18403 230.201162 
L 182.651474 233.221244 
L 184.118918 233.385955 
L 185.586362 232.990181 
L 188.52125 228.480107 
L 189.988694 230.646617 
L 191.456138 228.929472 
L 192.923582 230.44396 
L 194.391026 230.470853 
L 195.85847 225.172173 
L 197.325914 228.69685 
L 198.793358 230.879241 
L 200.260802 229.74025 
L 201.728246 229.451338 
L 203.19569 232.366348 
L 204.663134 233.574425 
L 206.130578 229.699352 
L 207.598021 232.850265 
L 209.065465 233.825659 
L 210.532909 232.65557 
L 212.000353 231.68071 
L 213.467797 234.561391 
L 214.935241 233.602044 
L 216.402685 233.987692 
L 217.870129 233.273423 
L 219.337573 233.206828 
L 220.805017 233.965959 
L 222.272461 233.634549 
L 223.739905 231.590875 
L 225.207349 232.348471 
L 226.674793 234.779821 
L 228.142237 233.635439 
L 229.609681 232.332654 
L 231.077125 232.024269 
L 232.544569 230.428477 
L 234.012013 230.964487 
L 235.479457 234.740946 
L 236.946901 229.557435 
L 238.414345 231.628359 
L 239.881789 234.348241 
L 241.349233 233.269463 
L 242.816677 230.173919 
L 244.284121 232.664868 
L 245.751565 233.092649 
L 247.219009 232.830612 
L 248.686453 233.098442 
L 251.621341 232.019168 
L 253.088785 229.917327 
L 254.556229 231.275897 
L 256.023673 234.408295 
L 257.491117 232.048507 
L 258.958561 231.294541 
L 260.426005 228.814472 
L 264.828337 235.483523 
L 266.295781 235.049718 
L 267.763225 234.777781 
L 269.230669 229.122624 
L 272.165557 235.085235 
L 275.100445 232.668945 
L 276.567889 232.865622 
L 278.035332 231.9558 
L 279.502776 233.968676 
L 280.97022 232.422571 
L 282.437664 230.42203 
L 283.905108 232.959514 
L 285.372552 234.698673 
L 286.839996 236.078182 
L 288.30744 232.63807 
L 289.774884 233.935932 
L 291.242328 232.724547 
L 292.709772 232.4437 
L 294.177216 231.418335 
L 295.64466 230.998439 
L 297.112104 232.893807 
L 298.579548 234.606112 
L 300.046992 233.348385 
L 301.514436 233.572058 
L 304.449324 233.308365 
L 305.916768 235.392557 
L 307.384212 235.177264 
L 308.851656 230.197723 
L 310.3191 234.827219 
L 311.786544 234.753841 
L 313.253988 234.238606 
L 314.721432 229.190789 
L 316.188876 228.160487 
L 317.65632 231.268592 
L 319.123764 232.143279 
L 320.591208 235.274909 
L 322.058652 231.775862 
L 323.526096 232.566969 
L 324.99354 232.190369 
L 326.460984 231.577633 
L 327.928428 233.705249 
L 329.395872 234.405269 
L 330.863316 236.078182 
L 332.33076 232.483028 
L 333.798204 231.399983 
L 335.265648 229.105958 
L 336.733092 228.185678 
L 338.200536 230.194577 
L 339.66798 235.04175 
L 341.135424 234.444189 
L 342.602868 233.377961 
L 344.070312 234.595925 
L 345.537756 234.357121 
L 347.005199 234.861456 
L 348.472643 232.905629 
L 349.940087 233.42161 
L 351.407531 235.843105 
L 352.874975 233.233807 
L 354.342419 234.68576 
L 355.809863 235.157159 
L 357.277307 232.041188 
L 358.744751 233.060457 
L 360.212195 231.771282 
L 361.679639 225.69708 
L 363.147083 227.574631 
L 366.081971 233.650283 
L 367.549415 231.625163 
L 369.016859 230.739611 
L 370.484303 230.936686 
L 371.951747 232.351964 
L 373.419191 234.688868 
L 374.886635 229.334125 
L 376.354079 230.507636 
L 377.821523 234.46289 
L 379.288967 232.092602 
L 380.756411 232.54136 
L 382.223855 232.632395 
L 383.691299 232.944381 
L 385.158743 234.073548 
L 386.626187 234.072946 
L 388.093631 233.20829 
L 389.561075 234.779275 
L 391.028519 234.401654 
L 392.495963 231.341721 
L 393.963407 232.555369 
L 395.430851 230.128727 
L 396.898295 232.431305 
L 398.365739 233.452747 
L 399.833183 229.887526 
L 401.300627 235.248807 
L 402.768071 234.949127 
L 404.235515 235.015838 
L 405.702959 233.867425 
L 407.170403 234.401876 
L 408.637847 233.168979 
L 410.105291 232.365021 
L 411.572735 233.269026 
L 413.040179 233.52776 
L 414.507623 230.884448 
L 415.975066 231.975543 
L 417.44251 232.221597 
L 418.909954 233.449112 
L 420.377398 234.348074 
L 421.844842 232.052929 
L 423.312286 233.5561 
L 424.77973 234.701403 
L 426.247174 233.651273 
L 427.714618 234.308373 
L 429.182062 234.111711 
L 430.649506 229.518772 
L 432.11695 229.382795 
L 433.584394 232.904075 
L 435.051838 234.531909 
L 436.519282 233.048551 
L 437.986726 232.058065 
L 439.45417 232.729469 
L 440.921614 231.029237 
L 442.389058 233.580667 
L 443.856502 231.298434 
L 445.323946 233.141273 
L 446.79139 233.336708 
L 448.258834 235.059959 
L 449.726278 233.593493 
L 451.193722 223.588991 
L 452.661166 212.022918 
L 454.12861 146.285238 
L 455.596054 88.898714 
L 457.063498 48.853418 
L 458.530942 128.78224 
L 459.998386 195.626569 
L 461.46583 222.832001 
L 462.933274 228.874188 
L 464.400718 233.580845 
L 465.868162 231.610215 
L 467.335606 233.761516 
L 468.80305 232.548802 
L 470.270494 234.039739 
L 471.737938 231.250615 
L 473.205382 231.709637 
L 474.672826 234.459269 
L 476.14027 234.001725 
L 477.607714 230.598436 
L 480.542602 234.674147 
L 482.010046 234.824775 
L 483.47749 234.687339 
L 484.944934 232.897478 
L 486.412377 228.995235 
L 487.879821 226.055125 
L 489.347265 215.48513 
L 490.814709 223.1142 
L 492.282153 217.301656 
L 493.749597 221.795358 
L 495.217041 230.795236 
L 496.684485 232.448993 
L 498.151929 231.570185 
L 499.619373 231.41839 
L 501.086817 231.868684 
L 502.554261 231.318649 
L 504.021705 231.865956 
L 505.489149 231.386561 
L 506.956593 230.622623 
L 508.424037 228.510648 
L 509.891481 229.481058 
L 511.358925 229.043075 
L 512.826369 232.18711 
L 514.293813 228.679218 
L 515.761257 214.888774 
L 517.228701 184.698508 
L 520.163589 36.841818 
L 521.631033 36.841818 
L 523.098477 111.211014 
L 524.565921 89.2128 
L 526.033365 122.422596 
L 527.500809 127.780902 
L 528.968253 101.879237 
L 530.435697 127.69204 
L 531.903141 198.11304 
L 533.370585 183.836883 
L 534.838029 221.064121 
L 536.305473 230.167559 
L 537.772917 228.030941 
L 539.240361 232.860801 
L 540.707805 232.570192 
L 542.175249 231.550123 
L 543.642693 231.162321 
L 546.577581 233.082434 
L 548.045025 233.133971 
L 549.512469 233.670367 
L 550.979913 233.822661 
L 552.447357 234.815639 
L 553.914801 233.486668 
L 555.382244 232.869215 
L 556.849688 232.43391 
L 558.317132 235.369224 
L 559.784576 235.045163 
L 561.25202 235.19883 
L 562.719464 232.728901 
L 564.186908 230.685862 
L 565.654352 233.473735 
L 567.121796 235.412065 
L 568.58924 236.059286 
L 570.056684 232.923456 
L 571.524128 233.24999 
L 572.991572 232.330089 
L 574.459016 232.393005 
L 575.92646 234.412881 
L 577.393904 235.934577 
L 578.861348 234.399397 
L 580.328792 230.738511 
L 581.796236 230.404231 
L 583.26368 229.82411 
L 584.731124 233.330649 
L 586.198568 236.078182 
L 587.666012 234.13664 
L 589.133456 232.926513 
L 590.6009 231.279366 
L 592.068344 231.744519 
L 593.535788 226.959815 
L 595.003232 211.952205 
L 596.470676 175.784937 
L 597.93812 130.935931 
L 599.405564 122.374197 
L 600.873008 167.673797 
L 602.340452 165.883788 
L 603.807896 167.116928 
L 605.27534 151.041101 
L 606.742784 170.851731 
L 608.210228 207.529974 
L 609.677672 224.510082 
L 611.145116 229.77091 
L 612.61256 234.109406 
L 614.080004 233.020367 
L 617.014892 232.021969 
L 618.482336 233.646783 
L 619.94978 230.403282 
L 621.417224 223.396172 
L 622.884668 206.99679 
L 624.352111 186.351829 
L 625.819555 188.467414 
L 627.286999 142.202728 
L 628.754443 164.656086 
L 630.221887 181.834224 
L 631.689331 185.309246 
L 633.156775 201.462211 
L 634.624219 219.837399 
L 636.091663 225.034526 
L 637.559107 228.287456 
L 639.026551 232.232757 
L 640.493995 232.674311 
L 641.961439 235.112818 
L 643.428883 234.290078 
L 644.896327 233.275525 
L 646.363771 232.098426 
L 647.831215 233.51047 
L 649.298659 233.016881 
L 650.766103 233.400426 
L 652.233547 231.917385 
L 653.700991 232.422507 
L 655.168435 222.528429 
L 656.635879 208.459293 
L 658.103323 178.925526 
L 659.570767 169.66356 
L 661.038211 202.055354 
L 662.505655 219.361363 
L 663.973099 228.87148 
L 665.440543 232.282871 
L 666.907987 230.861918 
L 668.375431 234.138656 
L 669.842875 232.685679 
L 671.310319 234.377572 
L 672.777763 234.95377 
L 674.245207 234.781697 
L 675.712651 233.452552 
L 677.180095 234.121434 
L 678.647539 233.501466 
L 680.114983 232.170105 
L 681.582427 231.02858 
L 683.049871 229.418897 
L 684.517315 231.037274 
L 685.984759 233.014961 
L 687.452203 231.502024 
L 688.919647 228.139381 
L 690.387091 221.452641 
L 691.854535 216.163507 
L 693.321979 194.877736 
L 694.789422 180.318338 
L 696.256866 169.080807 
L 697.72431 169.130873 
L 699.191754 109.667724 
L 700.659198 95.766929 
L 702.126642 77.141514 
L 703.594086 100.539896 
L 705.06153 178.171524 
L 706.528974 219.117485 
L 707.996418 226.337239 
L 709.463862 227.764828 
L 712.39875 225.628779 
L 713.866194 227.708712 
L 715.333638 228.130124 
L 716.801082 231.492356 
L 718.268526 229.114476 
L 719.73597 232.126462 
L 721.203414 231.404221 
L 722.670858 231.370655 
L 724.138302 234.848659 
L 727.07319 231.294046 
L 728.540634 233.576367 
L 730.008078 235.00271 
L 731.475522 234.998669 
L 732.942966 231.662219 
L 734.41041 233.207576 
L 737.345298 234.759607 
L 738.812742 234.835785 
L 740.280186 234.660764 
L 741.74763 233.878215 
L 743.215074 234.570939 
L 744.682518 233.311096 
L 746.149962 233.95879 
L 747.617406 234.449959 
L 749.08485 233.440281 
L 750.552294 228.925704 
L 753.487182 232.538524 
L 754.954626 222.619611 
L 756.42207 205.379547 
L 757.889514 182.341008 
L 759.356958 182.84175 
L 760.824402 42.431347 
L 762.291846 36.841818 
L 765.226733 36.841818 
L 766.694177 114.220032 
L 768.161621 169.328753 
L 769.629065 191.313225 
L 771.096509 203.667901 
L 772.563953 219.602994 
L 774.031397 227.114118 
L 775.498841 230.836781 
L 776.966285 227.988613 
L 778.433729 230.914936 
L 779.901173 232.018822 
L 782.836061 229.543332 
L 784.303505 229.208748 
L 785.770949 232.481554 
L 787.238393 232.954307 
L 788.705837 232.240894 
L 790.173281 230.271081 
L 791.640725 230.141726 
L 793.108169 226.491749 
L 794.575613 229.638076 
L 796.043057 228.028604 
L 797.510501 230.485954 
L 798.977945 227.130736 
L 800.445389 224.101356 
L 801.912833 225.056717 
L 803.380277 228.628166 
L 804.847721 229.672433 
L 806.315165 229.511064 
L 807.782609 228.809612 
L 809.250053 233.372057 
L 810.717497 232.756848 
L 812.184941 233.073423 
L 813.652385 231.198407 
L 815.119829 230.966544 
L 816.587273 231.599286 
L 816.587273 231.599286 
" clip-path="url(#p3cb03576fc)" style="fill: none; stroke: #2ca02c; stroke-width: 1.2; stroke-linecap: square"/>
   </g>
   <g id="line2d_14">
    <path d="M 84.332727 233.357517 
L 85.800171 232.790381 
L 88.735059 231.337764 
L 90.202503 231.309674 
L 91.669947 232.794394 
L 94.604835 232.781018 
L 96.072279 232.92949 
L 99.007167 233.952074 
L 100.474611 234.200864 
L 101.942055 234.289814 
L 103.409499 235.176633 
L 104.876943 235.01746 
L 106.344387 234.226947 
L 109.279275 233.861787 
L 110.746719 234.13131 
L 112.214163 234.537936 
L 113.681607 233.274587 
L 115.149051 232.957579 
L 116.616495 232.473373 
L 119.551383 233.945386 
L 121.018827 234.117934 
L 122.486271 233.992201 
L 123.953715 234.553987 
L 125.421159 235.326442 
L 126.888603 235.365232 
L 128.356047 234.417553 
L 129.823491 234.088507 
L 131.290935 234.096533 
L 132.758379 234.677045 
L 134.225823 235.51036 
L 135.693267 235.648131 
L 137.160711 235.362557 
L 138.628154 234.822173 
L 140.095598 234.574719 
L 141.563042 234.731217 
L 143.030486 234.511184 
L 144.49793 234.160737 
L 147.432818 233.697932 
L 148.900262 232.188468 
L 150.367706 228.389726 
L 151.83515 213.287053 
L 153.302594 175.877474 
L 154.770038 167.48814 
L 156.237482 160.061868 
L 157.704926 50.66881 
L 159.17237 36.841818 
L 160.639814 85.381818 
L 162.107258 157.761221 
L 163.574702 202.340257 
L 165.042146 219.033318 
L 166.50959 224.718055 
L 167.977034 227.644691 
L 169.444478 229.812917 
L 170.911922 231.054196 
L 172.379366 231.609293 
L 173.84681 232.328914 
L 175.314254 232.723502 
L 178.249142 232.7021 
L 179.716586 232.809107 
L 181.18403 233.247166 
L 182.651474 234.618191 
L 184.118918 235.024148 
L 185.586362 232.472036 
L 187.053806 231.232094 
L 191.456138 231.121075 
L 192.923582 231.739039 
L 194.391026 231.680185 
L 195.85847 231.470185 
L 197.325914 231.408656 
L 198.793358 232.287449 
L 200.260802 232.659298 
L 201.728246 231.899549 
L 203.19569 232.169742 
L 204.663134 232.201844 
L 206.130578 231.953053 
L 207.598021 232.180442 
L 209.065465 232.926815 
L 210.532909 233.965449 
L 212.000353 234.176788 
L 213.467797 234.180801 
L 214.935241 234.033666 
L 216.402685 234.826185 
L 217.870129 235.21141 
L 219.337573 234.488445 
L 220.805017 234.144686 
L 222.272461 233.99822 
L 223.739905 233.602295 
L 225.207349 233.678537 
L 226.674793 234.272425 
L 228.142237 234.535261 
L 231.077125 233.32809 
L 232.544569 233.386944 
L 234.012013 233.64376 
L 236.946901 233.600958 
L 238.414345 233.95408 
L 239.881789 235.098384 
L 245.751565 233.325415 
L 247.219009 233.485925 
L 248.686453 233.397645 
L 250.153897 233.831022 
L 251.621341 233.792901 
L 253.088785 234.016278 
L 256.023673 234.154718 
L 257.491117 233.726691 
L 260.426005 233.635735 
L 261.893449 233.576881 
L 263.360893 234.063762 
L 264.828337 234.938543 
L 266.295781 234.933192 
L 267.763225 233.913952 
L 269.230669 233.694588 
L 270.698113 233.785544 
L 272.165557 233.611658 
L 276.567889 233.544779 
L 278.035332 233.979494 
L 279.502776 234.728542 
L 280.97022 234.902428 
L 283.905108 233.976819 
L 285.372552 235.157907 
L 286.839996 236.078182 
L 288.30744 234.638924 
L 289.774884 233.821659 
L 291.242328 234.121278 
L 294.177216 234.245005 
L 295.64466 234.461025 
L 297.112104 234.479751 
L 298.579548 234.176788 
L 300.046992 234.230291 
L 301.514436 234.158062 
L 302.98188 234.310546 
L 304.449324 235.369579 
L 305.916768 236.078182 
L 307.384212 235.544469 
L 308.851656 234.293158 
L 310.3191 233.84908 
L 311.786544 234.318572 
L 313.253988 234.329273 
L 314.721432 233.800927 
L 316.188876 233.781532 
L 317.65632 234.066437 
L 319.123764 234.049717 
L 320.591208 233.833029 
L 323.526096 233.571531 
L 324.99354 233.358855 
L 326.460984 233.473887 
L 327.928428 233.852424 
L 330.863316 236.078182 
L 332.33076 235.167938 
L 333.798204 233.523378 
L 335.265648 233.143503 
L 338.200536 233.451148 
L 339.66798 233.440447 
L 341.135424 233.891213 
L 342.602868 234.748606 
L 344.070312 234.415547 
L 345.537756 233.857774 
L 347.005199 233.986182 
L 348.472643 234.403509 
L 351.407531 233.966787 
L 352.874975 234.13131 
L 354.342419 234.717172 
L 355.809863 234.699784 
L 357.277307 234.238317 
L 360.212195 234.094526 
L 361.679639 233.738729 
L 363.147083 233.657136 
L 366.081971 233.885863 
L 367.549415 233.794907 
L 370.484303 234.327266 
L 371.951747 234.604146 
L 373.419191 234.584083 
L 374.886635 234.02631 
L 376.354079 233.683888 
L 377.821523 233.859111 
L 383.691299 233.365543 
L 385.158743 233.376243 
L 388.093631 233.971469 
L 389.561075 233.865799 
L 391.028519 233.526053 
L 392.495963 233.389619 
L 393.963407 233.678537 
L 396.898295 233.873825 
L 398.365739 233.673187 
L 401.300627 234.097202 
L 402.768071 233.526053 
L 404.235515 233.87115 
L 405.702959 234.770007 
L 407.170403 234.281788 
L 408.637847 233.621021 
L 410.105291 233.595607 
L 413.040179 233.885863 
L 414.507623 234.140004 
L 418.909954 233.859111 
L 421.844842 233.782869 
L 424.77973 233.707964 
L 426.247174 233.889876 
L 430.649506 233.925991 
L 435.051838 233.625034 
L 436.519282 233.758793 
L 439.45417 233.147516 
L 440.921614 233.551467 
L 443.856502 233.963443 
L 445.323946 234.405515 
L 446.79139 235.055581 
L 448.258834 235.053575 
L 449.726278 234.54128 
L 451.193722 232.795731 
L 452.661166 220.701287 
L 454.12861 182.693807 
L 455.596054 135.032976 
L 457.063498 129.340214 
L 458.530942 177.129453 
L 459.998386 208.578753 
L 461.46583 225.550033 
L 462.933274 231.377891 
L 464.400718 233.658474 
L 467.335606 235.015454 
L 468.80305 235.46087 
L 470.270494 234.984689 
L 471.737938 234.380101 
L 473.205382 234.385451 
L 474.672826 234.913128 
L 476.14027 235.576571 
L 477.607714 235.102397 
L 479.075158 234.80679 
L 482.010046 234.728542 
L 483.47749 235.032842 
L 484.944934 235.18934 
L 486.412377 233.770831 
L 489.347265 216.887832 
L 490.814709 227.016026 
L 492.282153 226.502394 
L 493.749597 228.979601 
L 495.217041 232.656622 
L 496.684485 233.611658 
L 498.151929 234.335292 
L 499.619373 234.478413 
L 504.021705 233.724015 
L 506.956593 233.732041 
L 508.424037 233.392294 
L 509.891481 233.275924 
L 511.358925 232.73554 
L 512.826369 231.637383 
L 514.293813 227.514945 
L 515.761257 217.893696 
L 517.228701 194.3736 
L 518.696145 140.59733 
L 520.163589 70.935899 
L 521.631033 42.750306 
L 523.098477 90.60375 
L 524.565921 72.712212 
L 526.033365 90.432539 
L 527.500809 119.024757 
L 528.968253 109.822172 
L 530.435697 138.221778 
L 531.903141 199.08725 
L 533.370585 193.876018 
L 534.838029 213.902342 
L 536.305473 228.368325 
L 537.772917 232.480061 
L 539.240361 234.2751 
L 542.175249 234.688414 
L 543.642693 235.33313 
L 545.110137 235.82603 
L 546.577581 235.328449 
L 548.045025 233.627709 
L 549.512469 228.717434 
L 550.979913 228.683995 
L 552.447357 226.942459 
L 553.914801 221.633584 
L 555.382244 212.441699 
L 556.849688 207.711998 
L 558.317132 211.842461 
L 559.784576 206.839893 
L 561.25202 215.218526 
L 562.719464 226.993287 
L 564.186908 232.429233 
L 565.654352 233.549461 
L 567.121796 234.471057 
L 568.58924 234.54128 
L 570.056684 235.033511 
L 574.459016 234.004239 
L 575.92646 233.973475 
L 577.393904 233.745417 
L 578.861348 233.734716 
L 580.328792 234.064431 
L 583.26368 233.985513 
L 584.731124 234.166087 
L 586.198568 233.956755 
L 587.666012 233.394969 
L 590.6009 232.706113 
L 592.068344 229.768776 
L 593.535788 226.37131 
L 595.003232 217.059043 
L 596.470676 197.648008 
L 597.93812 147.937996 
L 599.405564 133.385071 
L 600.873008 136.188649 
L 602.340452 113.71722 
L 603.807896 117.33405 
L 605.27534 140.361915 
L 606.742784 174.304473 
L 608.210228 198.766229 
L 609.677672 215.60375 
L 611.145116 223.538305 
L 612.61256 227.160485 
L 614.080004 229.691196 
L 615.547448 231.301649 
L 617.014892 231.494261 
L 618.482336 232.224582 
L 619.94978 229.661769 
L 621.417224 224.533468 
L 622.884668 216.935985 
L 624.352111 206.545624 
L 625.819555 183.614066 
L 627.286999 155.781595 
L 628.754443 177.011746 
L 630.221887 188.493576 
L 631.689331 198.402406 
L 633.156775 215.389737 
L 634.624219 227.192587 
L 636.091663 228.345586 
L 637.559107 228.490045 
L 640.493995 232.909426 
L 641.961439 234.486439 
L 643.428883 233.453823 
L 644.896327 233.111401 
L 646.363771 233.491276 
L 647.831215 233.584907 
L 649.298659 233.386944 
L 652.233547 232.227258 
L 653.700991 230.76929 
L 655.168435 225.884429 
L 656.635879 215.459291 
L 658.103323 189.02861 
L 659.570767 187.803382 
L 661.038211 212.254437 
L 662.505655 226.52647 
L 663.973099 231.427382 
L 665.440543 232.704776 
L 666.907987 233.081975 
L 668.375431 232.821145 
L 669.842875 233.112739 
L 671.310319 233.237134 
L 672.777763 233.707964 
L 674.245207 234.041023 
L 675.712651 233.658474 
L 677.180095 233.120764 
L 678.647539 232.037321 
L 680.114983 231.170565 
L 681.582427 231.117062 
L 683.049871 230.579353 
L 684.517315 230.178077 
L 685.984759 232.088149 
L 687.452203 230.643557 
L 688.919647 228.070043 
L 690.387091 226.101118 
L 691.854535 220.376254 
L 693.321979 201.147131 
L 694.789422 170.965861 
L 696.256866 161.249643 
L 697.72431 169.317956 
L 699.191754 118.425519 
L 700.659198 152.7105 
L 702.126642 140.511724 
L 703.594086 158.852691 
L 705.06153 187.872937 
L 706.528974 219.913449 
L 707.996418 225.044426 
L 709.463862 225.547358 
L 710.931306 228.744186 
L 712.39875 228.821766 
L 713.866194 228.530173 
L 715.333638 231.280247 
L 716.801082 232.248659 
L 721.203414 233.079968 
L 722.670858 234.297171 
L 724.138302 234.804115 
L 725.605746 235.170614 
L 727.07319 235.074307 
L 728.540634 235.190677 
L 730.008078 235.513704 
L 731.475522 234.965294 
L 732.942966 234.712491 
L 735.877854 235.58794 
L 738.812742 235.74845 
L 740.280186 235.597303 
L 741.74763 235.126473 
L 746.149962 234.481089 
L 749.08485 233.762805 
L 750.552294 233.147516 
L 752.019738 232.294137 
L 753.487182 230.327887 
L 754.954626 223.348368 
L 756.42207 209.359903 
L 759.356958 185.968215 
L 760.824402 36.841818 
L 763.759289 36.841818 
L 765.226733 58.715721 
L 766.694177 163.23997 
L 768.161621 193.250029 
L 769.629065 212.992784 
L 771.096509 221.588106 
L 772.563953 227.682144 
L 774.031397 229.549412 
L 775.498841 230.598079 
L 776.966285 231.290948 
L 778.433729 232.195156 
L 779.901173 232.035983 
L 781.368617 232.506813 
L 782.836061 232.718151 
L 784.303505 232.7021 
L 785.770949 232.966942 
L 787.238393 233.598282 
L 790.173281 232.910764 
L 793.108169 232.909426 
L 796.043057 232.237958 
L 797.510501 232.275411 
L 798.977945 232.42522 
L 801.912833 231.733689 
L 803.380277 231.04082 
L 806.315165 230.640882 
L 807.782609 227.267492 
L 809.250053 224.867865 
L 810.717497 218.163888 
L 812.184941 204.940522 
L 813.652385 209.595318 
L 815.119829 218.396628 
L 816.587273 217.540574 
L 816.587273 217.540574 
" clip-path="url(#p3cb03576fc)" style="fill: none; stroke: #000000; stroke-width: 1.2; stroke-linecap: square"/>
   </g>
   <g id="line2d_15">
    <path d="M 84.332727 222.870979 
L 85.800171 220.182507 
L 87.267615 218.120958 
L 88.735059 217.915767 
L 90.202503 218.996797 
L 91.669947 198.75395 
L 93.137391 209.828972 
L 94.604835 216.468937 
L 96.072279 218.364979 
L 97.539723 210.228732 
L 99.007167 205.906176 
L 100.474611 211.395595 
L 101.942055 205.143924 
L 103.409499 205.321953 
L 104.876943 205.354538 
L 106.344387 214.982566 
L 107.811831 210.340629 
L 109.279275 207.352032 
L 110.746719 207.923525 
L 112.214163 205.807965 
L 113.681607 206.90893 
L 115.149051 183.631947 
L 116.616495 206.388824 
L 118.083939 213.582242 
L 119.551383 212.626443 
L 121.018827 208.244861 
L 122.486271 204.414697 
L 123.953715 197.782886 
L 125.421159 213.44368 
L 126.888603 211.424062 
L 128.356047 211.498714 
L 129.823491 209.498933 
L 131.290935 203.814347 
L 132.758379 206.384324 
L 134.225823 214.053931 
L 135.693267 199.800096 
L 137.160711 196.490344 
L 138.628154 202.567989 
L 140.095598 194.19911 
L 141.563042 202.886861 
L 143.030486 207.990619 
L 144.49793 208.813507 
L 145.965374 198.033702 
L 147.432818 209.382093 
L 148.900262 205.591942 
L 150.367706 191.493627 
L 151.83515 192.858041 
L 153.302594 147.082939 
L 154.770038 135.218494 
L 156.237482 36.841818 
L 159.17237 138.569388 
L 160.639814 154.914475 
L 162.107258 186.791513 
L 163.574702 184.305386 
L 165.042146 197.78364 
L 166.50959 197.978162 
L 167.977034 192.849353 
L 169.444478 202.041444 
L 170.911922 199.268492 
L 172.379366 193.950168 
L 173.84681 195.426561 
L 175.314254 210.824481 
L 176.781698 209.465685 
L 178.249142 206.927025 
L 179.716586 201.442975 
L 181.18403 200.326041 
L 182.651474 216.959186 
L 184.118918 212.587056 
L 185.586362 212.882707 
L 187.053806 207.107863 
L 188.52125 216.447316 
L 189.988694 207.51309 
L 191.456138 208.197521 
L 192.923582 204.397827 
L 194.391026 209.01217 
L 195.85847 195.872768 
L 197.325914 200.979617 
L 198.793358 191.403692 
L 200.260802 193.038298 
L 201.728246 204.833048 
L 203.19569 210.168172 
L 204.663134 212.385746 
L 206.130578 211.025891 
L 207.598021 217.406665 
L 209.065465 208.564538 
L 210.532909 202.833975 
L 212.000353 212.443692 
L 213.467797 201.248609 
L 214.935241 204.699205 
L 216.402685 207.487059 
L 217.870129 205.453677 
L 219.337573 205.245578 
L 220.805017 219.129794 
L 222.272461 209.589178 
L 223.739905 208.363811 
L 225.207349 211.492415 
L 226.674793 220.465949 
L 228.142237 217.253905 
L 229.609681 216.309585 
L 231.077125 217.493948 
L 232.544569 217.906712 
L 234.012013 218.901281 
L 235.479457 220.9991 
L 236.946901 225.936396 
L 238.414345 217.026254 
L 239.881789 219.004079 
L 241.349233 222.277237 
L 242.816677 218.042167 
L 244.284121 224.384041 
L 245.751565 219.590669 
L 247.219009 228.464775 
L 248.686453 212.829655 
L 250.153897 225.112637 
L 251.621341 218.804261 
L 253.088785 208.285641 
L 254.556229 225.792306 
L 256.023673 223.871845 
L 257.491117 227.892024 
L 258.958561 227.045372 
L 260.426005 227.958365 
L 261.893449 227.412769 
L 263.360893 221.244066 
L 264.828337 225.970183 
L 266.295781 214.550919 
L 267.763225 209.705869 
L 269.230669 214.187429 
L 270.698113 226.836531 
L 272.165557 224.532969 
L 273.633001 227.062964 
L 275.100445 228.213361 
L 276.567889 220.690637 
L 278.035332 233.047259 
L 279.502776 231.445086 
L 280.97022 228.760588 
L 282.437664 229.638373 
L 283.905108 221.963359 
L 285.372552 219.596337 
L 286.839996 206.836802 
L 288.30744 217.14 
L 289.774884 214.73408 
L 291.242328 209.147125 
L 292.709772 197.828308 
L 294.177216 185.273212 
L 295.64466 176.262651 
L 297.112104 213.662104 
L 298.579548 204.412585 
L 301.514436 177.521541 
L 302.98188 203.168144 
L 304.449324 209.690165 
L 305.916768 211.872553 
L 307.384212 214.412503 
L 308.851656 201.41554 
L 310.3191 199.859441 
L 311.786544 224.991253 
L 313.253988 221.055678 
L 314.721432 203.191934 
L 316.188876 226.081595 
L 317.65632 199.07287 
L 319.123764 204.29036 
L 320.591208 219.200655 
L 322.058652 193.567487 
L 323.526096 197.596915 
L 324.99354 210.989247 
L 326.460984 200.749225 
L 327.928428 218.402481 
L 329.395872 218.65107 
L 330.863316 213.695548 
L 332.33076 185.931617 
L 333.798204 182.829269 
L 335.265648 153.043772 
L 336.733092 204.758568 
L 338.200536 182.425067 
L 339.66798 199.544331 
L 341.135424 200.93453 
L 342.602868 176.237433 
L 344.070312 192.082175 
L 345.537756 195.875345 
L 347.005199 215.557988 
L 348.472643 223.720421 
L 349.940087 207.976172 
L 351.407531 208.608417 
L 352.874975 208.850803 
L 354.342419 204.574066 
L 355.809863 187.711757 
L 357.277307 210.341644 
L 358.744751 162.654129 
L 360.212195 215.529838 
L 361.679639 219.197238 
L 363.147083 222.169869 
L 364.614527 201.383298 
L 366.081971 232.981875 
L 367.549415 230.822658 
L 369.016859 221.372145 
L 370.484303 200.045839 
L 371.951747 227.193852 
L 373.419191 220.960849 
L 374.886635 187.393798 
L 376.354079 168.91378 
L 377.821523 217.160138 
L 379.288967 228.166005 
L 380.756411 202.330814 
L 382.223855 220.020582 
L 383.691299 215.386596 
L 385.158743 224.308095 
L 386.626187 202.909225 
L 388.093631 184.367445 
L 389.561075 207.789331 
L 391.028519 216.532763 
L 392.495963 207.030322 
L 393.963407 203.06872 
L 395.430851 157.464469 
L 396.898295 232.06508 
L 398.365739 199.80684 
L 399.833183 216.525099 
L 401.300627 194.124312 
L 402.768071 210.481255 
L 404.235515 182.040598 
M 568.58924 203.414694 
L 570.056684 185.477908 
L 571.524128 211.617805 
L 572.991572 215.369868 
L 574.459016 208.87296 
L 575.92646 192.263732 
L 577.393904 199.119285 
L 578.861348 140.178371 
L 580.328792 150.749012 
L 581.796236 202.953204 
L 583.26368 157.643842 
L 584.731124 215.04007 
L 586.198568 223.829476 
L 587.666012 212.829633 
L 589.133456 212.939487 
L 590.6009 173.671214 
L 592.068344 200.233496 
L 593.535788 183.732362 
L 595.003232 188.048912 
L 596.470676 183.616943 
L 597.93812 132.992609 
L 599.405564 164.944217 
L 602.340452 40.616138 
L 603.807896 118.536296 
L 605.27534 166.227503 
L 606.742784 177.950033 
L 608.210228 171.822094 
L 609.677672 184.738008 
L 611.145116 199.411458 
L 612.61256 202.768966 
L 614.080004 205.288839 
L 615.547448 220.636005 
L 617.014892 201.007664 
L 618.482336 216.263765 
L 619.94978 215.850462 
L 621.417224 195.142452 
L 622.884668 190.778857 
L 624.352111 181.793927 
L 625.819555 119.748562 
L 627.286999 98.17214 
L 628.754443 36.841818 
L 630.221887 104.772977 
L 631.689331 159.236713 
L 633.156775 194.75373 
L 634.624219 198.303716 
L 636.091663 173.977891 
L 637.559107 196.240764 
L 639.026551 203.738157 
L 640.493995 170.84938 
L 641.961439 165.903127 
L 643.428883 189.89383 
L 644.896327 188.880918 
L 646.363771 207.736129 
L 647.831215 190.609144 
L 649.298659 194.432088 
L 650.766103 184.833285 
L 652.233547 200.386469 
L 653.700991 188.494302 
L 655.168435 184.765692 
L 656.635879 151.198821 
L 658.103323 94.085392 
L 659.570767 100.613641 
L 661.038211 147.006214 
L 662.505655 184.076021 
L 663.973099 177.72576 
L 665.440543 168.357659 
L 666.907987 156.438669 
L 668.375431 164.899565 
L 669.842875 159.5698 
L 671.310319 174.979379 
L 672.777763 173.115426 
L 674.245207 168.823452 
L 675.712651 176.868226 
L 677.180095 199.147642 
L 678.647539 188.813884 
L 680.114983 188.819199 
L 681.582427 171.722817 
L 683.049871 194.624352 
L 684.517315 205.060595 
L 685.984759 201.896893 
L 687.452203 202.90867 
L 688.919647 190.111777 
L 690.387091 186.785167 
L 691.854535 199.198216 
L 693.321979 182.419691 
L 694.789422 169.095884 
L 696.256866 118.910515 
L 697.72431 36.841818 
L 699.191754 81.410873 
L 700.659198 47.577007 
L 702.126642 108.795695 
L 703.594086 100.567846 
L 705.06153 158.797418 
L 706.528974 184.448664 
L 707.996418 186.453449 
L 709.463862 175.994084 
L 710.931306 98.417474 
L 712.39875 153.49665 
L 713.866194 195.41414 
L 715.333638 196.09401 
L 716.801082 200.287957 
L 719.73597 164.381472 
L 721.203414 178.443202 
L 722.670858 182.1004 
L 724.138302 195.610845 
L 725.605746 182.147746 
L 727.07319 198.445255 
L 728.540634 194.400273 
L 730.008078 199.417558 
L 731.475522 206.55827 
L 732.942966 164.167156 
L 734.41041 170.354366 
L 735.877854 157.695134 
L 737.345298 185.561736 
L 738.812742 201.625031 
L 740.280186 195.614817 
L 741.74763 182.951396 
L 743.215074 185.591859 
L 744.682518 180.297615 
L 746.149962 180.083717 
L 747.617406 180.710692 
L 749.08485 171.383496 
L 750.552294 191.98368 
L 752.019738 201.547722 
L 753.487182 202.224537 
L 754.954626 213.205748 
L 756.42207 196.171069 
L 757.889514 181.508216 
L 759.356958 36.841818 
L 760.824402 105.3053 
L 762.291846 91.804967 
L 763.759289 154.724437 
L 765.226733 135.22611 
L 766.694177 156.512217 
L 768.161621 135.128373 
L 769.629065 177.069652 
L 771.096509 177.184255 
L 772.563953 199.335323 
L 775.498841 170.835224 
L 776.966285 172.884596 
L 778.433729 169.142428 
L 779.901173 169.797513 
L 781.368617 185.948762 
L 782.836061 203.581176 
L 784.303505 187.303212 
L 785.770949 193.683305 
L 787.238393 165.036199 
L 788.705837 184.827033 
L 790.173281 202.1147 
L 791.640725 196.11949 
L 793.108169 196.113996 
L 794.575613 182.858876 
L 796.043057 189.268631 
L 797.510501 176.137967 
L 798.977945 186.909626 
L 801.912833 174.656501 
L 803.380277 187.91301 
L 804.847721 154.890542 
L 806.315165 111.731786 
L 807.782609 176.675599 
L 809.250053 209.228673 
L 810.717497 193.06997 
L 812.184941 193.595434 
L 813.652385 189.924068 
L 815.119829 195.416749 
L 816.587273 204.08815 
L 816.587273 204.08815 
" clip-path="url(#p3cb03576fc)" style="fill: none; stroke: #ff7f0e; stroke-width: 1.2; stroke-linecap: square"/>
   </g>
   <g id="line2d_16">
    <path d="M 84.332727 232.49248 
L 85.800171 230.576232 
L 87.267615 228.030351 
L 88.735059 225.847592 
L 90.202503 226.423406 
L 91.669947 226.554333 
L 93.137391 225.671758 
L 94.604835 224.919207 
L 96.072279 226.26462 
L 97.539723 219.084605 
L 99.007167 217.512167 
L 100.474611 223.166388 
L 101.942055 220.198874 
L 103.409499 218.582521 
L 104.876943 220.053049 
L 106.344387 228.378601 
L 107.811831 221.292556 
L 109.279275 222.577929 
L 110.746719 225.512003 
L 112.214163 216.99223 
L 113.681607 218.401256 
L 115.149051 210.195686 
L 116.616495 220.539627 
L 118.083939 223.873229 
L 119.551383 220.592432 
L 121.018827 220.286625 
L 122.486271 218.833868 
L 123.953715 214.142046 
L 125.421159 220.995343 
L 126.888603 224.02897 
L 128.356047 217.973293 
L 129.823491 226.161815 
L 131.290935 214.037435 
L 132.758379 219.647963 
L 134.225823 222.593895 
L 135.693267 211.217013 
L 137.160711 224.322559 
L 138.628154 214.970891 
L 140.095598 217.490308 
L 141.563042 217.542883 
L 143.030486 220.57957 
L 144.49793 226.364079 
L 145.965374 214.991589 
L 147.432818 220.148716 
L 148.900262 211.968705 
L 150.367706 189.05218 
L 151.83515 154.779316 
L 153.302594 144.919265 
L 154.770038 152.05946 
L 156.237482 41.618924 
L 157.704926 74.542318 
L 159.17237 156.399523 
L 160.639814 194.666039 
L 162.107258 216.963859 
L 163.574702 213.632335 
L 165.042146 217.811968 
L 166.50959 215.268309 
L 167.977034 216.935458 
L 169.444478 224.592669 
L 170.911922 218.786183 
L 172.379366 214.375825 
L 173.84681 217.201783 
L 175.314254 220.678224 
L 178.249142 221.329641 
L 179.716586 218.626065 
L 181.18403 217.88058 
L 182.651474 225.163325 
L 184.118918 220.059657 
L 185.586362 218.029843 
L 187.053806 221.383129 
L 188.52125 227.737563 
L 189.988694 218.987805 
L 191.456138 218.92413 
L 194.391026 216.189867 
L 195.85847 214.112606 
L 197.325914 211.689977 
L 198.793358 212.709852 
L 200.260802 217.023322 
L 201.728246 219.226268 
L 203.19569 224.187827 
L 206.130578 218.23667 
L 207.598021 224.033225 
L 209.065465 225.61586 
L 210.532909 217.974641 
L 212.000353 219.184181 
L 213.467797 219.728414 
L 214.935241 224.051018 
L 216.402685 218.003488 
L 217.870129 227.595657 
L 219.337573 214.244793 
L 220.805017 229.847312 
L 222.272461 221.772817 
L 223.739905 224.606013 
L 225.207349 218.756799 
L 226.674793 231.346448 
L 228.142237 223.012245 
L 229.609681 223.390832 
L 231.077125 223.224574 
L 232.544569 218.855018 
L 234.012013 220.081145 
L 235.479457 218.904758 
L 236.946901 222.25944 
L 238.414345 220.130154 
L 239.881789 214.143013 
L 241.349233 223.170541 
L 242.816677 216.561522 
L 244.284121 222.748181 
L 245.751565 219.475466 
L 247.219009 224.917979 
L 248.686453 221.842053 
L 250.153897 230.197073 
L 251.621341 219.493132 
L 253.088785 218.202303 
L 254.556229 219.350876 
L 256.023673 223.319486 
L 257.491117 219.818866 
L 258.958561 226.265658 
L 260.426005 225.820601 
L 261.893449 221.940572 
L 263.360893 216.029876 
L 264.828337 219.611877 
L 266.295781 214.28503 
L 267.763225 215.705652 
L 269.230669 214.85452 
L 270.698113 219.934761 
L 272.165557 220.01011 
L 273.633001 224.728429 
L 275.100445 223.625477 
L 276.567889 218.842484 
L 278.035332 227.0442 
L 279.502776 224.631664 
L 280.97022 220.411678 
L 282.437664 213.737522 
L 283.905108 217.622192 
L 285.372552 215.082138 
L 286.839996 216.058822 
L 288.30744 221.626069 
L 289.774884 223.705698 
L 291.242328 217.123779 
L 292.709772 209.509909 
L 294.177216 207.489884 
L 295.64466 203.944862 
L 297.112104 205.640129 
L 298.579548 220.474982 
L 300.046992 216.720128 
L 301.514436 213.362608 
L 302.98188 221.547252 
L 304.449324 219.262344 
L 305.916768 218.857702 
L 307.384212 215.519622 
L 308.851656 217.816727 
L 310.3191 215.340835 
L 311.786544 229.919809 
L 313.253988 230.669202 
L 314.721432 222.826727 
L 316.188876 219.87116 
L 317.65632 222.312827 
L 319.123764 216.101776 
L 320.591208 223.027296 
L 323.526096 211.539023 
L 324.99354 214.478463 
L 326.460984 213.957924 
L 327.928428 222.727804 
L 329.395872 224.971452 
L 330.863316 219.550531 
L 332.33076 223.389506 
L 333.798204 212.567989 
L 335.265648 212.90801 
L 336.733092 223.121558 
L 338.200536 228.772861 
L 339.66798 229.327417 
L 341.135424 223.187862 
L 344.070312 228.57638 
L 345.537756 222.38423 
L 347.005199 212.807101 
L 348.472643 217.85634 
L 349.940087 208.902259 
L 351.407531 223.25452 
L 352.874975 228.673312 
L 354.342419 218.408081 
L 355.809863 210.336053 
L 357.277307 226.937391 
L 358.744751 221.850089 
L 360.212195 213.634574 
L 361.679639 215.916977 
L 363.147083 218.44225 
L 364.614527 221.507306 
L 366.081971 226.974215 
L 367.549415 227.382676 
L 369.016859 225.087573 
L 370.484303 217.751056 
L 371.951747 232.484019 
L 373.419191 216.522039 
L 374.886635 223.463079 
L 376.354079 215.91197 
L 377.821523 220.800026 
L 379.288967 216.285664 
L 380.756411 221.174987 
L 382.223855 212.210299 
L 383.691299 219.387024 
L 385.158743 219.186923 
L 386.626187 215.229677 
L 388.093631 205.009964 
L 389.561075 213.048936 
L 391.028519 230.592278 
L 392.495963 229.953795 
L 393.963407 217.433447 
L 395.430851 173.644377 
L 396.898295 186.568859 
L 398.365739 197.337507 
L 399.833183 206.245539 
L 401.300627 206.33962 
L 402.768071 206.813932 
L 404.235515 220.860641 
M 568.58924 149.113506 
L 570.056684 162.521589 
L 571.524128 181.542314 
L 572.991572 196.723724 
L 574.459016 197.490425 
L 575.92646 181.588174 
L 577.393904 200.136768 
L 578.861348 200.261119 
L 580.328792 190.199073 
L 581.796236 183.437756 
L 583.26368 203.774206 
L 584.731124 219.008422 
L 586.198568 231.825267 
L 587.666012 212.697175 
L 589.133456 191.394107 
L 590.6009 192.293045 
L 592.068344 191.635648 
L 593.535788 193.744928 
L 595.003232 181.131664 
L 596.470676 188.318352 
L 597.93812 179.873477 
L 599.405564 159.428955 
L 600.873008 116.377656 
L 602.340452 140.771835 
L 605.27534 184.889296 
L 606.742784 200.174371 
L 608.210228 190.159355 
L 609.677672 208.5785 
L 611.145116 192.994073 
L 612.61256 192.994124 
L 614.080004 204.988553 
L 615.547448 215.823871 
L 617.014892 209.283998 
L 618.482336 219.399401 
L 619.94978 217.941092 
L 621.417224 201.820956 
L 622.884668 191.345686 
L 624.352111 193.961064 
L 625.819555 173.091895 
L 627.286999 150.397273 
L 628.754443 108.573148 
L 630.221887 128.725338 
L 631.689331 153.493125 
L 633.156775 146.887765 
L 634.624219 171.830091 
L 637.559107 193.797059 
L 639.026551 217.054134 
L 640.493995 200.447038 
L 641.961439 205.556055 
L 643.428883 205.846169 
L 644.896327 199.897587 
L 646.363771 199.625818 
L 647.831215 194.346979 
L 649.298659 202.943608 
L 652.233547 197.390813 
L 653.700991 193.945965 
L 655.168435 190.966555 
L 656.635879 163.998684 
L 658.103323 124.68987 
L 659.570767 129.979614 
L 661.038211 163.217679 
L 662.505655 191.331458 
L 663.973099 189.307477 
L 665.440543 189.302042 
L 666.907987 184.876458 
L 668.375431 186.438063 
L 669.842875 198.856412 
L 671.310319 199.741293 
L 672.777763 186.930935 
L 674.245207 183.966032 
L 675.712651 194.293543 
L 677.180095 210.880044 
L 678.647539 207.375164 
L 680.114983 202.265532 
L 681.582427 202.20378 
L 683.049871 213.162887 
L 684.517315 211.815099 
L 685.984759 216.922388 
L 687.452203 218.420276 
L 688.919647 215.933622 
L 690.387091 217.599673 
L 691.854535 223.309167 
L 693.321979 208.056247 
L 696.256866 195.000215 
L 697.72431 175.983757 
L 699.191754 82.51569 
L 700.659198 62.006305 
L 702.126642 107.337433 
L 703.594086 66.269085 
L 705.06153 69.727442 
L 706.528974 79.330539 
L 707.996418 100.852101 
L 709.463862 129.172219 
L 710.931306 149.909156 
L 712.39875 187.961301 
L 713.866194 212.921881 
L 715.333638 218.615881 
L 716.801082 204.232337 
L 718.268526 202.96339 
L 719.73597 199.505786 
L 721.203414 203.205502 
L 722.670858 201.23186 
L 724.138302 189.140087 
L 725.605746 183.841616 
L 727.07319 188.514378 
L 728.540634 206.863652 
L 730.008078 221.449765 
L 731.475522 221.569157 
L 732.942966 200.847082 
L 734.41041 190.594297 
L 735.877854 183.581959 
L 737.345298 187.189395 
L 738.812742 213.337673 
L 740.280186 215.893036 
L 741.74763 196.401783 
L 743.215074 195.068883 
L 744.682518 196.499414 
L 746.149962 203.542206 
L 747.617406 204.964041 
L 749.08485 214.522511 
L 750.552294 213.217248 
L 752.019738 220.926503 
L 753.487182 217.359056 
L 754.954626 222.878228 
L 756.42207 212.271881 
L 757.889514 195.55764 
L 759.356958 154.29809 
L 760.824402 124.717421 
L 762.291846 159.732464 
L 763.759289 183.38738 
L 765.226733 192.11189 
L 766.694177 186.005593 
L 768.161621 195.923244 
L 769.629065 205.022239 
L 771.096509 207.176857 
L 772.563953 218.110778 
L 774.031397 208.7689 
L 775.498841 202.804929 
L 776.966285 195.055433 
L 778.433729 201.51848 
L 779.901173 198.258493 
L 781.368617 214.206821 
L 782.836061 216.961037 
L 784.303505 211.266662 
L 785.770949 207.310807 
L 787.238393 191.047715 
L 788.705837 201.638944 
L 790.173281 209.62743 
L 791.640725 208.053872 
L 793.108169 200.980716 
L 794.575613 203.257783 
L 796.043057 207.762392 
L 797.510501 200.339038 
L 798.977945 202.702978 
L 800.445389 203.979584 
L 801.912833 194.725865 
L 803.380277 195.237226 
L 804.847721 181.068806 
L 806.315165 181.971473 
L 807.782609 199.651091 
L 809.250053 208.675286 
L 810.717497 150.701761 
L 812.184941 147.189271 
L 813.652385 134.97114 
L 816.587273 161.872553 
L 816.587273 161.872553 
" clip-path="url(#p3cb03576fc)" style="fill: none; stroke: #9467bd; stroke-width: 1.2; stroke-linecap: square"/>
   </g>
   <g id="line2d_17">
    <path d="M 84.332727 236.078182 
L 87.267615 235.968115 
L 88.735059 235.569745 
L 90.202503 236.078182 
L 91.669947 235.001916 
L 93.137391 234.21061 
L 94.604835 234.316088 
L 96.072279 234.093733 
L 97.539723 224.415021 
L 99.007167 223.95886 
L 100.474611 213.077941 
L 101.942055 218.696472 
L 104.876943 215.778024 
L 106.344387 227.533527 
L 107.811831 224.65008 
L 109.279275 221.175377 
L 110.746719 230.917229 
L 112.214163 218.093306 
L 113.681607 218.829238 
L 115.149051 214.10387 
L 116.616495 224.578552 
L 118.083939 219.282424 
L 119.551383 222.928252 
L 121.018827 223.69344 
L 122.486271 221.236925 
L 123.953715 219.998819 
L 125.421159 220.732976 
L 126.888603 221.334179 
L 128.356047 221.808376 
L 129.823491 231.528617 
L 131.290935 219.082 
L 132.758379 222.639627 
L 134.225823 211.836735 
L 135.693267 212.238906 
L 137.160711 213.078307 
L 138.628154 220.370625 
L 140.095598 207.135034 
L 141.563042 215.08591 
L 143.030486 217.661109 
L 144.49793 223.518423 
L 145.965374 206.953236 
L 147.432818 214.050251 
L 148.900262 208.174403 
L 150.367706 195.03469 
L 153.302594 140.423778 
L 154.770038 148.255448 
L 156.237482 39.744745 
L 157.704926 69.734909 
L 159.17237 139.040318 
L 160.639814 182.218165 
L 162.107258 196.099308 
L 163.574702 211.509249 
L 165.042146 204.909776 
L 166.50959 213.36959 
L 167.977034 219.112745 
L 169.444478 220.19744 
L 170.911922 221.477019 
L 172.379366 217.022578 
L 173.84681 216.803131 
L 175.314254 219.685697 
L 176.781698 226.881019 
L 178.249142 227.735796 
L 179.716586 222.58488 
L 181.18403 216.998771 
L 182.651474 220.595691 
L 184.118918 216.601799 
L 185.586362 209.775703 
L 187.053806 223.612979 
L 188.52125 228.732277 
L 189.988694 227.035662 
L 191.456138 228.257004 
L 192.923582 228.375276 
L 194.391026 220.620452 
L 195.85847 223.571762 
L 197.325914 219.571488 
L 198.793358 213.253775 
L 200.260802 210.963857 
L 201.728246 217.641516 
L 203.19569 227.50024 
L 204.663134 222.174065 
L 206.130578 214.071923 
L 207.598021 223.9737 
L 209.065465 218.774577 
L 210.532909 219.066292 
L 212.000353 215.868367 
L 213.467797 218.719898 
L 214.935241 215.562267 
L 216.402685 213.891637 
L 217.870129 224.808299 
L 219.337573 215.126394 
L 220.805017 236.078182 
L 222.272461 223.734431 
L 223.739905 228.912887 
L 225.207349 225.41696 
L 226.674793 233.065771 
L 228.142237 225.021268 
L 229.609681 230.243169 
L 231.077125 226.145988 
L 232.544569 228.724126 
L 234.012013 232.661409 
L 235.479457 226.870915 
L 236.946901 231.595148 
L 238.414345 227.858145 
L 239.881789 226.220979 
L 241.349233 228.936007 
L 242.816677 224.783881 
L 244.284121 234.022687 
L 245.751565 229.360339 
L 247.219009 234.402931 
L 250.153897 236.078182 
L 251.621341 224.123406 
L 253.088785 230.357579 
L 254.556229 225.591059 
L 256.023673 233.746656 
L 257.491117 231.035217 
L 258.958561 235.885652 
L 260.426005 236.078182 
L 261.893449 234.868717 
L 263.360893 230.840084 
L 264.828337 220.204662 
L 266.295781 226.718901 
L 267.763225 227.685234 
L 269.230669 227.256401 
L 270.698113 234.296826 
L 272.165557 230.808186 
L 273.633001 236.078182 
L 276.567889 229.32805 
L 278.035332 236.078182 
L 279.502776 229.742219 
L 280.97022 225.635159 
L 282.437664 225.044198 
L 283.905108 225.919602 
L 285.372552 222.820013 
L 286.839996 222.848477 
L 288.30744 234.812295 
L 289.774884 234.779802 
L 291.242328 231.882005 
L 292.709772 227.845207 
L 294.177216 223.283665 
L 295.64466 226.022522 
L 297.112104 227.369271 
L 298.579548 233.640282 
L 300.046992 234.23896 
L 301.514436 228.316106 
L 302.98188 233.380429 
L 304.449324 230.101169 
L 305.916768 231.390918 
L 307.384212 225.125294 
L 308.851656 231.618487 
L 310.3191 229.947536 
L 311.786544 236.078182 
L 313.253988 236.078182 
L 314.721432 235.936122 
L 316.188876 232.42381 
L 319.123764 226.88273 
L 320.591208 234.486687 
L 322.058652 227.51194 
L 323.526096 227.442644 
L 324.99354 227.53572 
L 326.460984 231.137969 
L 327.928428 230.394113 
L 329.395872 224.755577 
L 330.863316 229.401935 
L 332.33076 228.727796 
L 333.798204 226.519743 
L 335.265648 219.984468 
L 336.733092 227.892907 
L 338.200536 227.150673 
L 339.66798 228.302899 
L 341.135424 212.817061 
L 342.602868 205.358279 
L 344.070312 229.193755 
L 345.537756 223.615758 
L 347.005199 207.365602 
L 348.472643 213.862811 
L 349.940087 217.878173 
L 351.407531 235.077035 
L 352.874975 216.529563 
L 354.342419 223.468011 
L 355.809863 212.25335 
L 357.277307 223.721961 
L 358.744751 199.656812 
L 360.212195 213.176046 
L 361.679639 212.603248 
L 363.147083 215.531065 
L 364.614527 225.918066 
L 366.081971 229.36949 
L 367.549415 227.173837 
L 369.016859 225.340776 
L 370.484303 215.762753 
L 371.951747 236.078182 
L 373.419191 207.775731 
L 374.886635 228.279502 
L 376.354079 228.685108 
L 377.821523 235.118741 
L 379.288967 221.356343 
L 380.756411 236.078182 
L 382.223855 219.96382 
L 383.691299 227.78917 
L 385.158743 222.048007 
L 386.626187 217.893189 
L 388.093631 208.427145 
L 389.561075 190.153001 
L 391.028519 204.501924 
L 392.495963 221.676947 
L 393.963407 203.081389 
L 395.430851 201.175936 
L 396.898295 185.248684 
L 398.365739 215.118065 
L 399.833183 225.142683 
L 401.300627 225.757225 
L 402.768071 223.342083 
L 404.235515 232.869398 
M 568.58924 183.859591 
L 570.056684 183.331883 
L 571.524128 208.11998 
L 572.991572 200.769321 
L 574.459016 206.486955 
L 575.92646 199.534987 
L 577.393904 215.221885 
L 578.861348 205.872255 
L 580.328792 194.952032 
L 581.796236 202.100074 
L 583.26368 214.701119 
L 584.731124 216.76975 
L 586.198568 234.588446 
L 587.666012 214.945493 
L 589.133456 199.279371 
L 590.6009 192.007292 
L 592.068344 193.139596 
L 593.535788 200.563926 
L 596.470676 174.760215 
L 597.93812 149.612276 
L 599.405564 110.18128 
L 600.873008 55.635894 
L 602.340452 86.502216 
L 603.807896 113.256528 
L 605.27534 148.458503 
L 606.742784 174.269972 
L 608.210228 158.450683 
L 609.677672 196.887837 
L 611.145116 197.295529 
L 612.61256 199.465079 
L 614.080004 197.849906 
L 615.547448 193.014709 
L 617.014892 203.430206 
L 618.482336 212.016642 
L 619.94978 202.906862 
L 621.417224 198.079956 
L 622.884668 185.413035 
L 624.352111 194.965567 
L 625.819555 151.625743 
L 627.286999 100.703348 
L 628.754443 58.467006 
L 630.221887 81.897015 
L 631.689331 114.091211 
L 633.156775 162.623863 
L 636.091663 175.120001 
L 637.559107 185.771543 
L 639.026551 209.237239 
L 640.493995 190.119796 
L 641.961439 190.508056 
L 643.428883 202.830962 
L 644.896327 198.894952 
L 646.363771 198.666803 
L 647.831215 189.382254 
L 649.298659 207.972036 
L 650.766103 195.972506 
L 652.233547 192.668875 
L 653.700991 191.711585 
L 655.168435 178.673138 
L 656.635879 145.348724 
L 658.103323 83.776061 
L 659.570767 76.711239 
L 661.038211 153.493788 
L 662.505655 179.780784 
L 663.973099 177.802427 
L 665.440543 178.510547 
L 666.907987 176.075765 
L 668.375431 171.974862 
L 669.842875 182.637191 
L 671.310319 186.033482 
L 672.777763 183.294656 
L 674.245207 179.56465 
L 675.712651 180.728579 
L 677.180095 199.118422 
L 678.647539 201.337944 
L 680.114983 200.179069 
L 681.582427 198.043309 
L 683.049871 208.972587 
L 684.517315 206.795381 
L 685.984759 201.001433 
L 687.452203 211.745097 
L 688.919647 209.067225 
L 690.387091 214.675225 
L 691.854535 211.711324 
L 693.321979 201.793295 
L 694.789422 179.867463 
L 696.256866 147.671624 
L 697.72431 145.647494 
L 699.191754 48.998502 
L 700.659198 39.523425 
L 702.126642 101.988306 
L 703.594086 36.841818 
L 706.528974 137.828529 
L 707.996418 134.835775 
L 709.463862 143.410812 
L 710.931306 134.089268 
L 712.39875 146.595674 
L 713.866194 183.518399 
L 715.333638 195.548614 
L 716.801082 172.612266 
L 718.268526 181.910035 
L 719.73597 172.394904 
L 721.203414 171.047841 
L 722.670858 177.335243 
L 724.138302 174.502229 
L 725.605746 166.024674 
L 727.07319 170.072199 
L 728.540634 183.870532 
L 730.008078 192.851288 
L 731.475522 212.358746 
L 732.942966 189.146197 
L 734.41041 177.217414 
L 735.877854 168.729734 
L 737.345298 168.981987 
L 738.812742 197.844914 
L 740.280186 187.105209 
L 741.74763 172.546134 
L 743.215074 181.01719 
L 744.682518 183.536497 
L 746.149962 189.015965 
L 747.617406 193.575961 
L 749.08485 193.360287 
L 750.552294 199.693889 
L 752.019738 200.303531 
L 753.487182 190.207077 
L 754.954626 205.208502 
L 756.42207 198.115159 
L 757.889514 170.066914 
L 759.356958 110.633647 
L 760.824402 75.360554 
L 762.291846 101.106232 
L 763.759289 133.602662 
L 765.226733 149.397038 
L 766.694177 150.382242 
L 768.161621 183.764268 
L 771.096509 197.885764 
L 772.563953 210.1034 
L 774.031397 208.500615 
L 775.498841 201.898174 
L 776.966285 187.959209 
L 778.433729 202.21275 
L 779.901173 199.550425 
L 781.368617 215.089569 
L 782.836061 212.569206 
L 784.303505 208.966178 
L 785.770949 208.659657 
L 787.238393 189.595017 
L 790.173281 216.138947 
L 791.640725 213.231237 
L 794.575613 204.85493 
L 796.043057 211.953872 
L 797.510501 200.810344 
L 798.977945 203.508567 
L 800.445389 201.51211 
L 801.912833 189.224479 
L 803.380277 194.423828 
L 804.847721 180.497739 
L 806.315165 176.386056 
L 807.782609 198.597796 
L 809.250053 211.873244 
L 810.717497 160.559032 
L 812.184941 167.139677 
L 813.652385 157.107142 
L 815.119829 174.47834 
L 816.587273 188.131862 
L 816.587273 188.131862 
" clip-path="url(#p3cb03576fc)" style="fill: none; stroke: #ff1493; stroke-width: 1.2; stroke-linecap: square"/>
   </g>
   <g id="patch_3">
    <path d="M 47.72 246.04 
L 47.72 26.88 
" style="fill: none; stroke: #000000; stroke-width: 0.8; stroke-linejoin: miter; stroke-linecap: square"/>
   </g>
   <g id="patch_4">
    <path d="M 853.2 246.04 
L 853.2 26.88 
" style="fill: none; stroke: #000000; stroke-width: 0.8; stroke-linejoin: miter; stroke-linecap: square"/>
   </g>
   <g id="patch_5">
    <path d="M 47.72 246.04 
L 853.2 246.04 
" style="fill: none; stroke: #000000; stroke-width: 0.8; stroke-linejoin: miter; stroke-linecap: square"/>
   </g>
   <g id="patch_6">
    <path d="M 47.72 26.88 
L 853.2 26.88 
" style="fill: none; stroke: #000000; stroke-width: 0.8; stroke-linejoin: miter; stroke-linecap: square"/>
   </g>
   <g id="text_16">
    <!-- chr16 region 11: old vs DNA+5mC HyenaDNA -->
    <g transform="translate(312.821875 20.88) scale(0.12 -0.12)">
     <defs>
      <path id="DejaVuSans-3a" d="M 750 794 
L 1409 794 
L 1409 0 
L 750 0 
L 750 794 
z
M 750 3309 
L 1409 3309 
L 1409 2516 
L 750 2516 
L 750 3309 
z
" transform="scale(0.015625)"/>
      <path id="DejaVuSans-76" d="M 191 3500 
L 800 3500 
L 1894 563 
L 2988 3500 
L 3597 3500 
L 2284 0 
L 1503 0 
L 191 3500 
z
" transform="scale(0.015625)"/>
      <path id="DejaVuSans-44" d="M 1259 4147 
L 1259 519 
L 2022 519 
Q 2988 519 3436 956 
Q 3884 1394 3884 2338 
Q 3884 3275 3436 3711 
Q 2988 4147 2022 4147 
L 1259 4147 
z
M 628 4666 
L 1925 4666 
Q 3281 4666 3915 4102 
Q 4550 3538 4550 2338 
Q 4550 1131 3912 565 
Q 3275 0 1925 0 
L 628 0 
L 628 4666 
z
" transform="scale(0.015625)"/>
      <path id="DejaVuSans-4e" d="M 628 4666 
L 1478 4666 
L 3547 763 
L 3547 4666 
L 4159 4666 
L 4159 0 
L 3309 0 
L 1241 3903 
L 1241 0 
L 628 0 
L 628 4666 
z
" transform="scale(0.015625)"/>
      <path id="DejaVuSans-41" d="M 2188 4044 
L 1331 1722 
L 3047 1722 
L 2188 4044 
z
M 1831 4666 
L 2547 4666 
L 4325 0 
L 3669 0 
L 3244 1197 
L 1141 1197 
L 716 0 
L 50 0 
L 1831 4666 
z
" transform="scale(0.015625)"/>
      <path id="DejaVuSans-2b" d="M 2944 4013 
L 2944 2272 
L 4684 2272 
L 4684 1741 
L 2944 1741 
L 2944 0 
L 2419 0 
L 2419 1741 
L 678 1741 
L 678 2272 
L 2419 2272 
L 2419 4013 
L 2944 4013 
z
" transform="scale(0.015625)"/>
      <path id="DejaVuSans-35" d="M 691 4666 
L 3169 4666 
L 3169 4134 
L 1269 4134 
L 1269 2991 
Q 1406 3038 1543 3061 
Q 1681 3084 1819 3084 
Q 2600 3084 3056 2656 
Q 3513 2228 3513 1497 
Q 3513 744 3044 326 
Q 2575 -91 1722 -91 
Q 1428 -91 1123 -41 
Q 819 9 494 109 
L 494 744 
Q 775 591 1075 516 
Q 1375 441 1709 441 
Q 2250 441 2565 725 
Q 2881 1009 2881 1497 
Q 2881 1984 2565 2268 
Q 2250 2553 1709 2553 
Q 1456 2553 1204 2497 
Q 953 2441 691 2322 
L 691 4666 
z
" transform="scale(0.015625)"/>
      <path id="DejaVuSans-48" d="M 628 4666 
L 1259 4666 
L 1259 2753 
L 3553 2753 
L 3553 4666 
L 4184 4666 
L 4184 0 
L 3553 0 
L 3553 2222 
L 1259 2222 
L 1259 0 
L 628 0 
L 628 4666 
z
" transform="scale(0.015625)"/>
      <path id="DejaVuSans-79" d="M 2059 -325 
Q 1816 -950 1584 -1140 
Q 1353 -1331 966 -1331 
L 506 -1331 
L 506 -850 
L 844 -850 
Q 1081 -850 1212 -737 
Q 1344 -625 1503 -206 
L 1606 56 
L 191 3500 
L 800 3500 
L 1894 763 
L 2988 3500 
L 3597 3500 
L 2059 -325 
z
" transform="scale(0.015625)"/>
     </defs>
     <use xlink:href="#DejaVuSans-63"/>
     <use xlink:href="#DejaVuSans-68" transform="translate(54.980469 0)"/>
     <use xlink:href="#DejaVuSans-72" transform="translate(118.359375 0)"/>
     <use xlink:href="#DejaVuSans-31" transform="translate(159.472656 0)"/>
     <use xlink:href="#DejaVuSans-36" transform="translate(223.095703 0)"/>
     <use xlink:href="#DejaVuSans-20" transform="translate(286.71875 0)"/>
     <use xlink:href="#DejaVuSans-72" transform="translate(318.505859 0)"/>
     <use xlink:href="#DejaVuSans-65" transform="translate(357.369141 0)"/>
     <use xlink:href="#DejaVuSans-67" transform="translate(418.892578 0)"/>
     <use xlink:href="#DejaVuSans-69" transform="translate(482.369141 0)"/>
     <use xlink:href="#DejaVuSans-6f" transform="translate(510.152344 0)"/>
     <use xlink:href="#DejaVuSans-6e" transform="translate(571.333984 0)"/>
     <use xlink:href="#DejaVuSans-20" transform="translate(634.712891 0)"/>
     <use xlink:href="#DejaVuSans-31" transform="translate(666.5 0)"/>
     <use xlink:href="#DejaVuSans-31" transform="translate(730.123047 0)"/>
     <use xlink:href="#DejaVuSans-3a" transform="translate(793.746094 0)"/>
     <use xlink:href="#DejaVuSans-20" transform="translate(827.4375 0)"/>
     <use xlink:href="#DejaVuSans-6f" transform="translate(859.224609 0)"/>
     <use xlink:href="#DejaVuSans-6c" transform="translate(920.40625 0)"/>
     <use xlink:href="#DejaVuSans-64" transform="translate(948.189453 0)"/>
     <use xlink:href="#DejaVuSans-20" transform="translate(1011.666016 0)"/>
     <use xlink:href="#DejaVuSans-76" transform="translate(1043.453125 0)"/>
     <use xlink:href="#DejaVuSans-73" transform="translate(1102.632812 0)"/>
     <use xlink:href="#DejaVuSans-20" transform="translate(1154.732422 0)"/>
     <use xlink:href="#DejaVuSans-44" transform="translate(1186.519531 0)"/>
     <use xlink:href="#DejaVuSans-4e" transform="translate(1263.521484 0)"/>
     <use xlink:href="#DejaVuSans-41" transform="translate(1338.326172 0)"/>
     <use xlink:href="#DejaVuSans-2b" transform="translate(1406.734375 0)"/>
     <use xlink:href="#DejaVuSans-35" transform="translate(1490.523438 0)"/>
     <use xlink:href="#DejaVuSans-6d" transform="translate(1554.146484 0)"/>
     <use xlink:href="#DejaVuSans-43" transform="translate(1651.558594 0)"/>
     <use xlink:href="#DejaVuSans-20" transform="translate(1721.382812 0)"/>
     <use xlink:href="#DejaVuSans-48" transform="translate(1753.169922 0)"/>
     <use xlink:href="#DejaVuSans-79" transform="translate(1828.365234 0)"/>
     <use xlink:href="#DejaVuSans-65" transform="translate(1887.544922 0)"/>
     <use xlink:href="#DejaVuSans-6e" transform="translate(1949.068359 0)"/>
     <use xlink:href="#DejaVuSans-61" transform="translate(2012.447266 0)"/>
     <use xlink:href="#DejaVuSans-44" transform="translate(2073.726562 0)"/>
     <use xlink:href="#DejaVuSans-4e" transform="translate(2150.728516 0)"/>
     <use xlink:href="#DejaVuSans-41" transform="translate(2225.533203 0)"/>
    </g>
   </g>
   <g id="legend_1">
    <g id="patch_7">
     <path d="M 573.38125 68.5075 
L 847.6 68.5075 
Q 849.2 68.5075 849.2 66.9075 
L 849.2 32.48 
Q 849.2 30.88 847.6 30.88 
L 573.38125 30.88 
Q 571.78125 30.88 571.78125 32.48 
L 571.78125 66.9075 
Q 571.78125 68.5075 573.38125 68.5075 
z
" style="fill: #ffffff; opacity: 0.8; stroke: #cccccc; stroke-linejoin: miter"/>
    </g>
    <g id="line2d_18">
     <path d="M 574.98125 37.35875 
L 582.98125 37.35875 
L 590.98125 37.35875 
" style="fill: none; stroke: #2ca02c; stroke-width: 1.2; stroke-linecap: square"/>
    </g>
    <g id="text_17">
     <!-- ENCODE A549 H3K4me3 -->
     <g transform="translate(597.38125 40.15875) scale(0.08 -0.08)">
      <defs>
       <path id="DejaVuSans-45" d="M 628 4666 
L 3578 4666 
L 3578 4134 
L 1259 4134 
L 1259 2753 
L 3481 2753 
L 3481 2222 
L 1259 2222 
L 1259 531 
L 3634 531 
L 3634 0 
L 628 0 
L 628 4666 
z
" transform="scale(0.015625)"/>
       <path id="DejaVuSans-4f" d="M 2522 4238 
Q 1834 4238 1429 3725 
Q 1025 3213 1025 2328 
Q 1025 1447 1429 934 
Q 1834 422 2522 422 
Q 3209 422 3611 934 
Q 4013 1447 4013 2328 
Q 4013 3213 3611 3725 
Q 3209 4238 2522 4238 
z
M 2522 4750 
Q 3503 4750 4090 4092 
Q 4678 3434 4678 2328 
Q 4678 1225 4090 567 
Q 3503 -91 2522 -91 
Q 1538 -91 948 565 
Q 359 1222 359 2328 
Q 359 3434 948 4092 
Q 1538 4750 2522 4750 
z
" transform="scale(0.015625)"/>
       <path id="DejaVuSans-39" d="M 703 97 
L 703 672 
Q 941 559 1184 500 
Q 1428 441 1663 441 
Q 2288 441 2617 861 
Q 2947 1281 2994 2138 
Q 2813 1869 2534 1725 
Q 2256 1581 1919 1581 
Q 1219 1581 811 2004 
Q 403 2428 403 3163 
Q 403 3881 828 4315 
Q 1253 4750 1959 4750 
Q 2769 4750 3195 4129 
Q 3622 3509 3622 2328 
Q 3622 1225 3098 567 
Q 2575 -91 1691 -91 
Q 1453 -91 1209 -44 
Q 966 3 703 97 
z
M 1959 2075 
Q 2384 2075 2632 2365 
Q 2881 2656 2881 3163 
Q 2881 3666 2632 3958 
Q 2384 4250 1959 4250 
Q 1534 4250 1286 3958 
Q 1038 3666 1038 3163 
Q 1038 2656 1286 2365 
Q 1534 2075 1959 2075 
z
" transform="scale(0.015625)"/>
       <path id="DejaVuSans-4b" d="M 628 4666 
L 1259 4666 
L 1259 2694 
L 3353 4666 
L 4166 4666 
L 1850 2491 
L 4331 0 
L 3500 0 
L 1259 2247 
L 1259 0 
L 628 0 
L 628 4666 
z
" transform="scale(0.015625)"/>
      </defs>
      <use xlink:href="#DejaVuSans-45"/>
      <use xlink:href="#DejaVuSans-4e" transform="translate(63.183594 0)"/>
      <use xlink:href="#DejaVuSans-43" transform="translate(137.988281 0)"/>
      <use xlink:href="#DejaVuSans-4f" transform="translate(207.8125 0)"/>
      <use xlink:href="#DejaVuSans-44" transform="translate(286.523438 0)"/>
      <use xlink:href="#DejaVuSans-45" transform="translate(363.525391 0)"/>
      <use xlink:href="#DejaVuSans-20" transform="translate(426.708984 0)"/>
      <use xlink:href="#DejaVuSans-41" transform="translate(458.496094 0)"/>
      <use xlink:href="#DejaVuSans-35" transform="translate(526.904297 0)"/>
      <use xlink:href="#DejaVuSans-34" transform="translate(590.527344 0)"/>
      <use xlink:href="#DejaVuSans-39" transform="translate(654.150391 0)"/>
      <use xlink:href="#DejaVuSans-20" transform="translate(717.773438 0)"/>
      <use xlink:href="#DejaVuSans-48" transform="translate(749.560547 0)"/>
      <use xlink:href="#DejaVuSans-33" transform="translate(824.755859 0)"/>
      <use xlink:href="#DejaVuSans-4b" transform="translate(888.378906 0)"/>
      <use xlink:href="#DejaVuSans-34" transform="translate(953.955078 0)"/>
      <use xlink:href="#DejaVuSans-6d" transform="translate(1017.578125 0)"/>
      <use xlink:href="#DejaVuSans-65" transform="translate(1114.990234 0)"/>
      <use xlink:href="#DejaVuSans-33" transform="translate(1176.513672 0)"/>
     </g>
    </g>
    <g id="line2d_19">
     <path d="M 574.98125 49.10125 
L 582.98125 49.10125 
L 590.98125 49.10125 
" style="fill: none; stroke: #000000; stroke-width: 1.2; stroke-linecap: square"/>
    </g>
    <g id="text_18">
     <!-- AlphaGenome A549 H3K4me3 -->
     <g transform="translate(597.38125 51.90125) scale(0.08 -0.08)">
      <defs>
       <path id="DejaVuSans-70" d="M 1159 525 
L 1159 -1331 
L 581 -1331 
L 581 3500 
L 1159 3500 
L 1159 2969 
Q 1341 3281 1617 3432 
Q 1894 3584 2278 3584 
Q 2916 3584 3314 3078 
Q 3713 2572 3713 1747 
Q 3713 922 3314 415 
Q 2916 -91 2278 -91 
Q 1894 -91 1617 61 
Q 1341 213 1159 525 
z
M 3116 1747 
Q 3116 2381 2855 2742 
Q 2594 3103 2138 3103 
Q 1681 3103 1420 2742 
Q 1159 2381 1159 1747 
Q 1159 1113 1420 752 
Q 1681 391 2138 391 
Q 2594 391 2855 752 
Q 3116 1113 3116 1747 
z
" transform="scale(0.015625)"/>
      </defs>
      <use xlink:href="#DejaVuSans-41"/>
      <use xlink:href="#DejaVuSans-6c" transform="translate(68.408203 0)"/>
      <use xlink:href="#DejaVuSans-70" transform="translate(96.191406 0)"/>
      <use xlink:href="#DejaVuSans-68" transform="translate(159.667969 0)"/>
      <use xlink:href="#DejaVuSans-61" transform="translate(223.046875 0)"/>
      <use xlink:href="#DejaVuSans-47" transform="translate(284.326172 0)"/>
      <use xlink:href="#DejaVuSans-65" transform="translate(361.816406 0)"/>
      <use xlink:href="#DejaVuSans-6e" transform="translate(423.339844 0)"/>
      <use xlink:href="#DejaVuSans-6f" transform="translate(486.71875 0)"/>
      <use xlink:href="#DejaVuSans-6d" transform="translate(547.900391 0)"/>
      <use xlink:href="#DejaVuSans-65" transform="translate(645.3125 0)"/>
      <use xlink:href="#DejaVuSans-20" transform="translate(706.835938 0)"/>
      <use xlink:href="#DejaVuSans-41" transform="translate(738.623047 0)"/>
      <use xlink:href="#DejaVuSans-35" transform="translate(807.03125 0)"/>
      <use xlink:href="#DejaVuSans-34" transform="translate(870.654297 0)"/>
      <use xlink:href="#DejaVuSans-39" transform="translate(934.277344 0)"/>
      <use xlink:href="#DejaVuSans-20" transform="translate(997.900391 0)"/>
      <use xlink:href="#DejaVuSans-48" transform="translate(1029.6875 0)"/>
      <use xlink:href="#DejaVuSans-33" transform="translate(1104.882812 0)"/>
      <use xlink:href="#DejaVuSans-4b" transform="translate(1168.505859 0)"/>
      <use xlink:href="#DejaVuSans-34" transform="translate(1234.082031 0)"/>
      <use xlink:href="#DejaVuSans-6d" transform="translate(1297.705078 0)"/>
      <use xlink:href="#DejaVuSans-65" transform="translate(1395.117188 0)"/>
      <use xlink:href="#DejaVuSans-33" transform="translate(1456.640625 0)"/>
     </g>
    </g>
    <g id="line2d_20">
     <path d="M 574.98125 60.84375 
L 582.98125 60.84375 
L 590.98125 60.84375 
" style="fill: none; stroke: #ff7f0e; stroke-width: 1.2; stroke-linecap: square"/>
    </g>
    <g id="text_19">
     <!-- DiMeLo observed 6mA -->
     <g transform="translate(597.38125 63.64375) scale(0.08 -0.08)">
      <defs>
       <path id="DejaVuSans-4d" d="M 628 4666 
L 1569 4666 
L 2759 1491 
L 3956 4666 
L 4897 4666 
L 4897 0 
L 4281 0 
L 4281 4097 
L 3078 897 
L 2444 897 
L 1241 4097 
L 1241 0 
L 628 0 
L 628 4666 
z
" transform="scale(0.015625)"/>
       <path id="DejaVuSans-4c" d="M 628 4666 
L 1259 4666 
L 1259 531 
L 3531 531 
L 3531 0 
L 628 0 
L 628 4666 
z
" transform="scale(0.015625)"/>
      </defs>
      <use xlink:href="#DejaVuSans-44"/>
      <use xlink:href="#DejaVuSans-69" transform="translate(77.001953 0)"/>
      <use xlink:href="#DejaVuSans-4d" transform="translate(104.785156 0)"/>
      <use xlink:href="#DejaVuSans-65" transform="translate(191.064453 0)"/>
      <use xlink:href="#DejaVuSans-4c" transform="translate(252.587891 0)"/>
      <use xlink:href="#DejaVuSans-6f" transform="translate(306.550781 0)"/>
      <use xlink:href="#DejaVuSans-20" transform="translate(367.732422 0)"/>
      <use xlink:href="#DejaVuSans-6f" transform="translate(399.519531 0)"/>
      <use xlink:href="#DejaVuSans-62" transform="translate(460.701172 0)"/>
      <use xlink:href="#DejaVuSans-73" transform="translate(524.177734 0)"/>
      <use xlink:href="#DejaVuSans-65" transform="translate(576.277344 0)"/>
      <use xlink:href="#DejaVuSans-72" transform="translate(637.800781 0)"/>
      <use xlink:href="#DejaVuSans-76" transform="translate(678.914062 0)"/>
      <use xlink:href="#DejaVuSans-65" transform="translate(738.09375 0)"/>
      <use xlink:href="#DejaVuSans-64" transform="translate(799.617188 0)"/>
      <use xlink:href="#DejaVuSans-20" transform="translate(863.09375 0)"/>
      <use xlink:href="#DejaVuSans-36" transform="translate(894.880859 0)"/>
      <use xlink:href="#DejaVuSans-6d" transform="translate(958.503906 0)"/>
      <use xlink:href="#DejaVuSans-41" transform="translate(1055.916016 0)"/>
     </g>
    </g>
    <g id="line2d_21">
     <path d="M 735.00375 37.35875 
L 743.00375 37.35875 
L 751.00375 37.35875 
" style="fill: none; stroke: #9467bd; stroke-width: 1.2; stroke-linecap: square"/>
    </g>
    <g id="text_20">
     <!-- HyenaDNA old -->
     <g transform="translate(757.40375 40.15875) scale(0.08 -0.08)">
      <use xlink:href="#DejaVuSans-48"/>
      <use xlink:href="#DejaVuSans-79" transform="translate(75.195312 0)"/>
      <use xlink:href="#DejaVuSans-65" transform="translate(134.375 0)"/>
      <use xlink:href="#DejaVuSans-6e" transform="translate(195.898438 0)"/>
      <use xlink:href="#DejaVuSans-61" transform="translate(259.277344 0)"/>
      <use xlink:href="#DejaVuSans-44" transform="translate(320.556641 0)"/>
      <use xlink:href="#DejaVuSans-4e" transform="translate(397.558594 0)"/>
      <use xlink:href="#DejaVuSans-41" transform="translate(472.363281 0)"/>
      <use xlink:href="#DejaVuSans-20" transform="translate(540.771484 0)"/>
      <use xlink:href="#DejaVuSans-6f" transform="translate(572.558594 0)"/>
      <use xlink:href="#DejaVuSans-6c" transform="translate(633.740234 0)"/>
      <use xlink:href="#DejaVuSans-64" transform="translate(661.523438 0)"/>
     </g>
    </g>
    <g id="line2d_22">
     <path d="M 735.00375 49.10125 
L 743.00375 49.10125 
L 751.00375 49.10125 
" style="fill: none; stroke: #ff1493; stroke-width: 1.2; stroke-linecap: square"/>
    </g>
    <g id="text_21">
     <!-- HyenaDNA DNA+5mC -->
     <g transform="translate(757.40375 51.90125) scale(0.08 -0.08)">
      <use xlink:href="#DejaVuSans-48"/>
      <use xlink:href="#DejaVuSans-79" transform="translate(75.195312 0)"/>
      <use xlink:href="#DejaVuSans-65" transform="translate(134.375 0)"/>
      <use xlink:href="#DejaVuSans-6e" transform="translate(195.898438 0)"/>
      <use xlink:href="#DejaVuSans-61" transform="translate(259.277344 0)"/>
      <use xlink:href="#DejaVuSans-44" transform="translate(320.556641 0)"/>
      <use xlink:href="#DejaVuSans-4e" transform="translate(397.558594 0)"/>
      <use xlink:href="#DejaVuSans-41" transform="translate(472.363281 0)"/>
      <use xlink:href="#DejaVuSans-20" transform="translate(540.771484 0)"/>
      <use xlink:href="#DejaVuSans-44" transform="translate(572.558594 0)"/>
      <use xlink:href="#DejaVuSans-4e" transform="translate(649.560547 0)"/>
      <use xlink:href="#DejaVuSans-41" transform="translate(724.365234 0)"/>
      <use xlink:href="#DejaVuSans-2b" transform="translate(792.773438 0)"/>
      <use xlink:href="#DejaVuSans-35" transform="translate(876.5625 0)"/>
      <use xlink:href="#DejaVuSans-6d" transform="translate(940.185547 0)"/>
      <use xlink:href="#DejaVuSans-43" transform="translate(1037.597656 0)"/>
     </g>
    </g>
   </g>
  </g>
 </g>
 <defs>
  <clipPath id="p3cb03576fc">
   <rect x="47.72" y="26.88" width="805.48" height="219.16"/>
  </clipPath>
 </defs>
</svg>
