<?xml version="1.0" encoding="utf-8" standalone="no"?>
<!DOCTYPE svg PUBLIC "-//W3C//DTD SVG 1.1//EN"
  "http://www.w3.org/Graphics/SVG/1.1/DTD/svg11.dtd">
<svg xmlns:xlink="http://www.w3.org/1999/xlink" width="864pt" height="288pt" viewBox="0 0 864 288" xmlns="http://www.w3.org/2000/svg" version="1.1">
 <metadata>
  <rdf:RDF xmlns:dc="http://purl.org/dc/elements/1.1/" xmlns:cc="http://creativecommons.org/ns#" xmlns:rdf="http://www.w3.org/1999/02/22-rdf-syntax-ns#">
   <cc:Work>
    <dc:type rdf:resource="http://purl.org/dc/dcmitype/StillImage"/>
    <dc:date>2026-07-18T10:44:59.548789</dc:date>
    <dc:format>image/svg+xml</dc:format>
    <dc:creator>
     <cc:Agent>
      <dc:title>Matplotlib v3.10.8, https://matplotlib.org/</dc:title>
     </cc:Agent>
    </dc:creator>
   </cc:Work>
  </rdf:RDF>
 </metadata>
 <defs>
  <style type="text/css">*{stroke-linejoin: round; stroke-linecap: butt}</style>
 </defs>
 <g id="figure_1">
  <g id="patch_1">
   <path d="M 0 288 
L 864 288 
L 864 0 
L 0 0 
z
" style="fill: #ffffff"/>
  </g>
  <g id="axes_1">
   <g id="patch_2">
    <path d="M 47.72 246.04 
L 853.2 246.04 
L 853.2 26.88 
L 47.72 26.88 
z
" style="fill: #ffffff"/>
   </g>
   <g id="matplotlib.axis_1">
    <g id="xtick_1">
     <g id="line2d_1">
      <defs>
       <path id="m052c905069" d="M 0 0 
L 0 3.5 
" style="stroke: #000000; stroke-width: 0.8"/>
      </defs>
      <g>
       <use xlink:href="#m052c905069" x="83.599005" y="246.04" style="stroke: #000000; stroke-width: 0.8"/>
      </g>
     </g>
     <g id="text_1">
      <!-- 4.30 -->
      <g transform="translate(72.466193 260.638438) scale(0.1 -0.1)">
       <defs>
        <path id="DejaVuSans-34" d="M 2419 4116 
L 825 1625 
L 2419 1625 
L 2419 4116 
z
M 2253 4666 
L 3047 4666 
L 3047 1625 
L 3713 1625 
L 3713 1100 
L 3047 1100 
L 3047 0 
L 2419 0 
L 2419 1100 
L 313 1100 
L 313 1709 
L 2253 4666 
z
" transform="scale(0.015625)"/>
        <path id="DejaVuSans-2e" d="M 684 794 
L 1344 794 
L 1344 0 
L 684 0 
L 684 794 
z
" transform="scale(0.015625)"/>
        <path id="DejaVuSans-33" d="M 2597 2516 
Q 3050 2419 3304 2112 
Q 3559 1806 3559 1356 
Q 3559 666 3084 287 
Q 2609 -91 1734 -91 
Q 1441 -91 1130 -33 
Q 819 25 488 141 
L 488 750 
Q 750 597 1062 519 
Q 1375 441 1716 441 
Q 2309 441 2620 675 
Q 2931 909 2931 1356 
Q 2931 1769 2642 2001 
Q 2353 2234 1838 2234 
L 1294 2234 
L 1294 2753 
L 1863 2753 
Q 2328 2753 2575 2939 
Q 2822 3125 2822 3475 
Q 2822 3834 2567 4026 
Q 2313 4219 1838 4219 
Q 1578 4219 1281 4162 
Q 984 4106 628 3988 
L 628 4550 
Q 988 4650 1302 4700 
Q 1616 4750 1894 4750 
Q 2613 4750 3031 4423 
Q 3450 4097 3450 3541 
Q 3450 3153 3228 2886 
Q 3006 2619 2597 2516 
z
" transform="scale(0.015625)"/>
        <path id="DejaVuSans-30" d="M 2034 4250 
Q 1547 4250 1301 3770 
Q 1056 3291 1056 2328 
Q 1056 1369 1301 889 
Q 1547 409 2034 409 
Q 2525 409 2770 889 
Q 3016 1369 3016 2328 
Q 3016 3291 2770 3770 
Q 2525 4250 2034 4250 
z
M 2034 4750 
Q 2819 4750 3233 4129 
Q 3647 3509 3647 2328 
Q 3647 1150 3233 529 
Q 2819 -91 2034 -91 
Q 1250 -91 836 529 
Q 422 1150 422 2328 
Q 422 3509 836 4129 
Q 1250 4750 2034 4750 
z
" transform="scale(0.015625)"/>
       </defs>
       <use xlink:href="#DejaVuSans-34"/>
       <use xlink:href="#DejaVuSans-2e" transform="translate(63.623047 0)"/>
       <use xlink:href="#DejaVuSans-33" transform="translate(95.410156 0)"/>
       <use xlink:href="#DejaVuSans-30" transform="translate(159.033203 0)"/>
      </g>
     </g>
    </g>
    <g id="xtick_2">
     <g id="line2d_2">
      <g>
       <use xlink:href="#m052c905069" x="230.343403" y="246.04" style="stroke: #000000; stroke-width: 0.8"/>
      </g>
     </g>
     <g id="text_2">
      <!-- 4.32 -->
      <g transform="translate(219.210591 260.638438) scale(0.1 -0.1)">
       <defs>
        <path id="DejaVuSans-32" d="M 1228 531 
L 3431 531 
L 3431 0 
L 469 0 
L 469 531 
Q 828 903 1448 1529 
Q 2069 2156 2228 2338 
Q 2531 2678 2651 2914 
Q 2772 3150 2772 3378 
Q 2772 3750 2511 3984 
Q 2250 4219 1831 4219 
Q 1534 4219 1204 4116 
Q 875 4013 500 3803 
L 500 4441 
Q 881 4594 1212 4672 
Q 1544 4750 1819 4750 
Q 2544 4750 2975 4387 
Q 3406 4025 3406 3419 
Q 3406 3131 3298 2873 
Q 3191 2616 2906 2266 
Q 2828 2175 2409 1742 
Q 1991 1309 1228 531 
z
" transform="scale(0.015625)"/>
       </defs>
       <use xlink:href="#DejaVuSans-34"/>
       <use xlink:href="#DejaVuSans-2e" transform="translate(63.623047 0)"/>
       <use xlink:href="#DejaVuSans-33" transform="translate(95.410156 0)"/>
       <use xlink:href="#DejaVuSans-32" transform="translate(159.033203 0)"/>
      </g>
     </g>
    </g>
    <g id="xtick_3">
     <g id="line2d_3">
      <g>
       <use xlink:href="#m052c905069" x="377.087801" y="246.04" style="stroke: #000000; stroke-width: 0.8"/>
      </g>
     </g>
     <g id="text_3">
      <!-- 4.34 -->
      <g transform="translate(365.954989 260.638438) scale(0.1 -0.1)">
       <use xlink:href="#DejaVuSans-34"/>
       <use xlink:href="#DejaVuSans-2e" transform="translate(63.623047 0)"/>
       <use xlink:href="#DejaVuSans-33" transform="translate(95.410156 0)"/>
       <use xlink:href="#DejaVuSans-34" transform="translate(159.033203 0)"/>
      </g>
     </g>
    </g>
    <g id="xtick_4">
     <g id="line2d_4">
      <g>
       <use xlink:href="#m052c905069" x="523.832199" y="246.04" style="stroke: #000000; stroke-width: 0.8"/>
      </g>
     </g>
     <g id="text_4">
      <!-- 4.36 -->
      <g transform="translate(512.699386 260.638438) scale(0.1 -0.1)">
       <defs>
        <path id="DejaVuSans-36" d="M 2113 2584 
Q 1688 2584 1439 2293 
Q 1191 2003 1191 1497 
Q 1191 994 1439 701 
Q 1688 409 2113 409 
Q 2538 409 2786 701 
Q 3034 994 3034 1497 
Q 3034 2003 2786 2293 
Q 2538 2584 2113 2584 
z
M 3366 4563 
L 3366 3988 
Q 3128 4100 2886 4159 
Q 2644 4219 2406 4219 
Q 1781 4219 1451 3797 
Q 1122 3375 1075 2522 
Q 1259 2794 1537 2939 
Q 1816 3084 2150 3084 
Q 2853 3084 3261 2657 
Q 3669 2231 3669 1497 
Q 3669 778 3244 343 
Q 2819 -91 2113 -91 
Q 1303 -91 875 529 
Q 447 1150 447 2328 
Q 447 3434 972 4092 
Q 1497 4750 2381 4750 
Q 2619 4750 2861 4703 
Q 3103 4656 3366 4563 
z
" transform="scale(0.015625)"/>
       </defs>
       <use xlink:href="#DejaVuSans-34"/>
       <use xlink:href="#DejaVuSans-2e" transform="translate(63.623047 0)"/>
       <use xlink:href="#DejaVuSans-33" transform="translate(95.410156 0)"/>
       <use xlink:href="#DejaVuSans-36" transform="translate(159.033203 0)"/>
      </g>
     </g>
    </g>
    <g id="xtick_5">
     <g id="line2d_5">
      <g>
       <use xlink:href="#m052c905069" x="670.576597" y="246.04" style="stroke: #000000; stroke-width: 0.8"/>
      </g>
     </g>
     <g id="text_5">
      <!-- 4.38 -->
      <g transform="translate(659.443784 260.638438) scale(0.1 -0.1)">
       <defs>
        <path id="DejaVuSans-38" d="M 2034 2216 
Q 1584 2216 1326 1975 
Q 1069 1734 1069 1313 
Q 1069 891 1326 650 
Q 1584 409 2034 409 
Q 2484 409 2743 651 
Q 3003 894 3003 1313 
Q 3003 1734 2745 1975 
Q 2488 2216 2034 2216 
z
M 1403 2484 
Q 997 2584 770 2862 
Q 544 3141 544 3541 
Q 544 4100 942 4425 
Q 1341 4750 2034 4750 
Q 2731 4750 3128 4425 
Q 3525 4100 3525 3541 
Q 3525 3141 3298 2862 
Q 3072 2584 2669 2484 
Q 3125 2378 3379 2068 
Q 3634 1759 3634 1313 
Q 3634 634 3220 271 
Q 2806 -91 2034 -91 
Q 1263 -91 848 271 
Q 434 634 434 1313 
Q 434 1759 690 2068 
Q 947 2378 1403 2484 
z
M 1172 3481 
Q 1172 3119 1398 2916 
Q 1625 2713 2034 2713 
Q 2441 2713 2670 2916 
Q 2900 3119 2900 3481 
Q 2900 3844 2670 4047 
Q 2441 4250 2034 4250 
Q 1625 4250 1398 4047 
Q 1172 3844 1172 3481 
z
" transform="scale(0.015625)"/>
       </defs>
       <use xlink:href="#DejaVuSans-34"/>
       <use xlink:href="#DejaVuSans-2e" transform="translate(63.623047 0)"/>
       <use xlink:href="#DejaVuSans-33" transform="translate(95.410156 0)"/>
       <use xlink:href="#DejaVuSans-38" transform="translate(159.033203 0)"/>
      </g>
     </g>
    </g>
    <g id="xtick_6">
     <g id="line2d_6">
      <g>
       <use xlink:href="#m052c905069" x="817.320995" y="246.04" style="stroke: #000000; stroke-width: 0.8"/>
      </g>
     </g>
     <g id="text_6">
      <!-- 4.40 -->
      <g transform="translate(806.188182 260.638438) scale(0.1 -0.1)">
       <use xlink:href="#DejaVuSans-34"/>
       <use xlink:href="#DejaVuSans-2e" transform="translate(63.623047 0)"/>
       <use xlink:href="#DejaVuSans-34" transform="translate(95.410156 0)"/>
       <use xlink:href="#DejaVuSans-30" transform="translate(159.033203 0)"/>
      </g>
     </g>
    </g>
    <g id="text_7">
     <!-- chr16 coordinate (GRCh38) -->
     <g transform="translate(382.254531 274.316562) scale(0.1 -0.1)">
      <defs>
       <path id="DejaVuSans-63" d="M 3122 3366 
L 3122 2828 
Q 2878 2963 2633 3030 
Q 2388 3097 2138 3097 
Q 1578 3097 1268 2742 
Q 959 2388 959 1747 
Q 959 1106 1268 751 
Q 1578 397 2138 397 
Q 2388 397 2633 464 
Q 2878 531 3122 666 
L 3122 134 
Q 2881 22 2623 -34 
Q 2366 -91 2075 -91 
Q 1284 -91 818 406 
Q 353 903 353 1747 
Q 353 2603 823 3093 
Q 1294 3584 2113 3584 
Q 2378 3584 2631 3529 
Q 2884 3475 3122 3366 
z
" transform="scale(0.015625)"/>
       <path id="DejaVuSans-68" d="M 3513 2113 
L 3513 0 
L 2938 0 
L 2938 2094 
Q 2938 2591 2744 2837 
Q 2550 3084 2163 3084 
Q 1697 3084 1428 2787 
Q 1159 2491 1159 1978 
L 1159 0 
L 581 0 
L 581 4863 
L 1159 4863 
L 1159 2956 
Q 1366 3272 1645 3428 
Q 1925 3584 2291 3584 
Q 2894 3584 3203 3211 
Q 3513 2838 3513 2113 
z
" transform="scale(0.015625)"/>
       <path id="DejaVuSans-72" d="M 2631 2963 
Q 2534 3019 2420 3045 
Q 2306 3072 2169 3072 
Q 1681 3072 1420 2755 
Q 1159 2438 1159 1844 
L 1159 0 
L 581 0 
L 581 3500 
L 1159 3500 
L 1159 2956 
Q 1341 3275 1631 3429 
Q 1922 3584 2338 3584 
Q 2397 3584 2469 3576 
Q 2541 3569 2628 3553 
L 2631 2963 
z
" transform="scale(0.015625)"/>
       <path id="DejaVuSans-31" d="M 794 531 
L 1825 531 
L 1825 4091 
L 703 3866 
L 703 4441 
L 1819 4666 
L 2450 4666 
L 2450 531 
L 3481 531 
L 3481 0 
L 794 0 
L 794 531 
z
" transform="scale(0.015625)"/>
       <path id="DejaVuSans-20" transform="scale(0.015625)"/>
       <path id="DejaVuSans-6f" d="M 1959 3097 
Q 1497 3097 1228 2736 
Q 959 2375 959 1747 
Q 959 1119 1226 758 
Q 1494 397 1959 397 
Q 2419 397 2687 759 
Q 2956 1122 2956 1747 
Q 2956 2369 2687 2733 
Q 2419 3097 1959 3097 
z
M 1959 3584 
Q 2709 3584 3137 3096 
Q 3566 2609 3566 1747 
Q 3566 888 3137 398 
Q 2709 -91 1959 -91 
Q 1206 -91 779 398 
Q 353 888 353 1747 
Q 353 2609 779 3096 
Q 1206 3584 1959 3584 
z
" transform="scale(0.015625)"/>
       <path id="DejaVuSans-64" d="M 2906 2969 
L 2906 4863 
L 3481 4863 
L 3481 0 
L 2906 0 
L 2906 525 
Q 2725 213 2448 61 
Q 2172 -91 1784 -91 
Q 1150 -91 751 415 
Q 353 922 353 1747 
Q 353 2572 751 3078 
Q 1150 3584 1784 3584 
Q 2172 3584 2448 3432 
Q 2725 3281 2906 2969 
z
M 947 1747 
Q 947 1113 1208 752 
Q 1469 391 1925 391 
Q 2381 391 2643 752 
Q 2906 1113 2906 1747 
Q 2906 2381 2643 2742 
Q 2381 3103 1925 3103 
Q 1469 3103 1208 2742 
Q 947 2381 947 1747 
z
" transform="scale(0.015625)"/>
       <path id="DejaVuSans-69" d="M 603 3500 
L 1178 3500 
L 1178 0 
L 603 0 
L 603 3500 
z
M 603 4863 
L 1178 4863 
L 1178 4134 
L 603 4134 
L 603 4863 
z
" transform="scale(0.015625)"/>
       <path id="DejaVuSans-6e" d="M 3513 2113 
L 3513 0 
L 2938 0 
L 2938 2094 
Q 2938 2591 2744 2837 
Q 2550 3084 2163 3084 
Q 1697 3084 1428 2787 
Q 1159 2491 1159 1978 
L 1159 0 
L 581 0 
L 581 3500 
L 1159 3500 
L 1159 2956 
Q 1366 3272 1645 3428 
Q 1925 3584 2291 3584 
Q 2894 3584 3203 3211 
Q 3513 2838 3513 2113 
z
" transform="scale(0.015625)"/>
       <path id="DejaVuSans-61" d="M 2194 1759 
Q 1497 1759 1228 1600 
Q 959 1441 959 1056 
Q 959 750 1161 570 
Q 1363 391 1709 391 
Q 2188 391 2477 730 
Q 2766 1069 2766 1631 
L 2766 1759 
L 2194 1759 
z
M 3341 1997 
L 3341 0 
L 2766 0 
L 2766 531 
Q 2569 213 2275 61 
Q 1981 -91 1556 -91 
Q 1019 -91 701 211 
Q 384 513 384 1019 
Q 384 1609 779 1909 
Q 1175 2209 1959 2209 
L 2766 2209 
L 2766 2266 
Q 2766 2663 2505 2880 
Q 2244 3097 1772 3097 
Q 1472 3097 1187 3025 
Q 903 2953 641 2809 
L 641 3341 
Q 956 3463 1253 3523 
Q 1550 3584 1831 3584 
Q 2591 3584 2966 3190 
Q 3341 2797 3341 1997 
z
" transform="scale(0.015625)"/>
       <path id="DejaVuSans-74" d="M 1172 4494 
L 1172 3500 
L 2356 3500 
L 2356 3053 
L 1172 3053 
L 1172 1153 
Q 1172 725 1289 603 
Q 1406 481 1766 481 
L 2356 481 
L 2356 0 
L 1766 0 
Q 1100 0 847 248 
Q 594 497 594 1153 
L 594 3053 
L 172 3053 
L 172 3500 
L 594 3500 
L 594 4494 
L 1172 4494 
z
" transform="scale(0.015625)"/>
       <path id="DejaVuSans-65" d="M 3597 1894 
L 3597 1613 
L 953 1613 
Q 991 1019 1311 708 
Q 1631 397 2203 397 
Q 2534 397 2845 478 
Q 3156 559 3463 722 
L 3463 178 
Q 3153 47 2828 -22 
Q 2503 -91 2169 -91 
Q 1331 -91 842 396 
Q 353 884 353 1716 
Q 353 2575 817 3079 
Q 1281 3584 2069 3584 
Q 2775 3584 3186 3129 
Q 3597 2675 3597 1894 
z
M 3022 2063 
Q 3016 2534 2758 2815 
Q 2500 3097 2075 3097 
Q 1594 3097 1305 2825 
Q 1016 2553 972 2059 
L 3022 2063 
z
" transform="scale(0.015625)"/>
       <path id="DejaVuSans-28" d="M 1984 4856 
Q 1566 4138 1362 3434 
Q 1159 2731 1159 2009 
Q 1159 1288 1364 580 
Q 1569 -128 1984 -844 
L 1484 -844 
Q 1016 -109 783 600 
Q 550 1309 550 2009 
Q 550 2706 781 3412 
Q 1013 4119 1484 4856 
L 1984 4856 
z
" transform="scale(0.015625)"/>
       <path id="DejaVuSans-47" d="M 3809 666 
L 3809 1919 
L 2778 1919 
L 2778 2438 
L 4434 2438 
L 4434 434 
Q 4069 175 3628 42 
Q 3188 -91 2688 -91 
Q 1594 -91 976 548 
Q 359 1188 359 2328 
Q 359 3472 976 4111 
Q 1594 4750 2688 4750 
Q 3144 4750 3555 4637 
Q 3966 4525 4313 4306 
L 4313 3634 
Q 3963 3931 3569 4081 
Q 3175 4231 2741 4231 
Q 1884 4231 1454 3753 
Q 1025 3275 1025 2328 
Q 1025 1384 1454 906 
Q 1884 428 2741 428 
Q 3075 428 3337 486 
Q 3600 544 3809 666 
z
" transform="scale(0.015625)"/>
       <path id="DejaVuSans-52" d="M 2841 2188 
Q 3044 2119 3236 1894 
Q 3428 1669 3622 1275 
L 4263 0 
L 3584 0 
L 2988 1197 
Q 2756 1666 2539 1819 
Q 2322 1972 1947 1972 
L 1259 1972 
L 1259 0 
L 628 0 
L 628 4666 
L 2053 4666 
Q 2853 4666 3247 4331 
Q 3641 3997 3641 3322 
Q 3641 2881 3436 2590 
Q 3231 2300 2841 2188 
z
M 1259 4147 
L 1259 2491 
L 2053 2491 
Q 2509 2491 2742 2702 
Q 2975 2913 2975 3322 
Q 2975 3731 2742 3939 
Q 2509 4147 2053 4147 
L 1259 4147 
z
" transform="scale(0.015625)"/>
       <path id="DejaVuSans-43" d="M 4122 4306 
L 4122 3641 
Q 3803 3938 3442 4084 
Q 3081 4231 2675 4231 
Q 1875 4231 1450 3742 
Q 1025 3253 1025 2328 
Q 1025 1406 1450 917 
Q 1875 428 2675 428 
Q 3081 428 3442 575 
Q 3803 722 4122 1019 
L 4122 359 
Q 3791 134 3420 21 
Q 3050 -91 2638 -91 
Q 1578 -91 968 557 
Q 359 1206 359 2328 
Q 359 3453 968 4101 
Q 1578 4750 2638 4750 
Q 3056 4750 3426 4639 
Q 3797 4528 4122 4306 
z
" transform="scale(0.015625)"/>
       <path id="DejaVuSans-29" d="M 513 4856 
L 1013 4856 
Q 1481 4119 1714 3412 
Q 1947 2706 1947 2009 
Q 1947 1309 1714 600 
Q 1481 -109 1013 -844 
L 513 -844 
Q 928 -128 1133 580 
Q 1338 1288 1338 2009 
Q 1338 2731 1133 3434 
Q 928 4138 513 4856 
z
" transform="scale(0.015625)"/>
      </defs>
      <use xlink:href="#DejaVuSans-63"/>
      <use xlink:href="#DejaVuSans-68" transform="translate(54.980469 0)"/>
      <use xlink:href="#DejaVuSans-72" transform="translate(118.359375 0)"/>
      <use xlink:href="#DejaVuSans-31" transform="translate(159.472656 0)"/>
      <use xlink:href="#DejaVuSans-36" transform="translate(223.095703 0)"/>
      <use xlink:href="#DejaVuSans-20" transform="translate(286.71875 0)"/>
      <use xlink:href="#DejaVuSans-63" transform="translate(318.505859 0)"/>
      <use xlink:href="#DejaVuSans-6f" transform="translate(373.486328 0)"/>
      <use xlink:href="#DejaVuSans-6f" transform="translate(434.667969 0)"/>
      <use xlink:href="#DejaVuSans-72" transform="translate(495.849609 0)"/>
      <use xlink:href="#DejaVuSans-64" transform="translate(535.212891 0)"/>
      <use xlink:href="#DejaVuSans-69" transform="translate(598.689453 0)"/>
      <use xlink:href="#DejaVuSans-6e" transform="translate(626.472656 0)"/>
      <use xlink:href="#DejaVuSans-61" transform="translate(689.851562 0)"/>
      <use xlink:href="#DejaVuSans-74" transform="translate(751.130859 0)"/>
      <use xlink:href="#DejaVuSans-65" transform="translate(790.339844 0)"/>
      <use xlink:href="#DejaVuSans-20" transform="translate(851.863281 0)"/>
      <use xlink:href="#DejaVuSans-28" transform="translate(883.650391 0)"/>
      <use xlink:href="#DejaVuSans-47" transform="translate(922.664062 0)"/>
      <use xlink:href="#DejaVuSans-52" transform="translate(1000.154297 0)"/>
      <use xlink:href="#DejaVuSans-43" transform="translate(1064.636719 0)"/>
      <use xlink:href="#DejaVuSans-68" transform="translate(1134.460938 0)"/>
      <use xlink:href="#DejaVuSans-33" transform="translate(1197.839844 0)"/>
      <use xlink:href="#DejaVuSans-38" transform="translate(1261.462891 0)"/>
      <use xlink:href="#DejaVuSans-29" transform="translate(1325.085938 0)"/>
     </g>
    </g>
    <g id="text_8">
     <!-- 1e6 -->
     <g transform="translate(834.321875 273.316562) scale(0.1 -0.1)">
      <use xlink:href="#DejaVuSans-31"/>
      <use xlink:href="#DejaVuSans-65" transform="translate(63.623047 0)"/>
      <use xlink:href="#DejaVuSans-36" transform="translate(125.146484 0)"/>
     </g>
    </g>
   </g>
   <g id="matplotlib.axis_2">
    <g id="ytick_1">
     <g id="line2d_7">
      <defs>
       <path id="m177fc0dbc3" d="M 0 0 
L -3.5 0 
" style="stroke: #000000; stroke-width: 0.8"/>
      </defs>
      <g>
       <use xlink:href="#m177fc0dbc3" x="47.72" y="236.078182" style="stroke: #000000; stroke-width: 0.8"/>
      </g>
     </g>
     <g id="text_9">
      <!-- 0.0 -->
      <g transform="translate(24.816875 239.877401) scale(0.1 -0.1)">
       <use xlink:href="#DejaVuSans-30"/>
       <use xlink:href="#DejaVuSans-2e" transform="translate(63.623047 0)"/>
       <use xlink:href="#DejaVuSans-30" transform="translate(95.410156 0)"/>
      </g>
     </g>
    </g>
    <g id="ytick_2">
     <g id="line2d_8">
      <g>
       <use xlink:href="#m177fc0dbc3" x="47.72" y="196.230909" style="stroke: #000000; stroke-width: 0.8"/>
      </g>
     </g>
     <g id="text_10">
      <!-- 0.2 -->
      <g transform="translate(24.816875 200.030128) scale(0.1 -0.1)">
       <use xlink:href="#DejaVuSans-30"/>
       <use xlink:href="#DejaVuSans-2e" transform="translate(63.623047 0)"/>
       <use xlink:href="#DejaVuSans-32" transform="translate(95.410156 0)"/>
      </g>
     </g>
    </g>
    <g id="ytick_3">
     <g id="line2d_9">
      <g>
       <use xlink:href="#m177fc0dbc3" x="47.72" y="156.383636" style="stroke: #000000; stroke-width: 0.8"/>
      </g>
     </g>
     <g id="text_11">
      <!-- 0.4 -->
      <g transform="translate(24.816875 160.182855) scale(0.1 -0.1)">
       <use xlink:href="#DejaVuSans-30"/>
       <use xlink:href="#DejaVuSans-2e" transform="translate(63.623047 0)"/>
       <use xlink:href="#DejaVuSans-34" transform="translate(95.410156 0)"/>
      </g>
     </g>
    </g>
    <g id="ytick_4">
     <g id="line2d_10">
      <g>
       <use xlink:href="#m177fc0dbc3" x="47.72" y="116.536364" style="stroke: #000000; stroke-width: 0.8"/>
      </g>
     </g>
     <g id="text_12">
      <!-- 0.6 -->
      <g transform="translate(24.816875 120.335582) scale(0.1 -0.1)">
       <use xlink:href="#DejaVuSans-30"/>
       <use xlink:href="#DejaVuSans-2e" transform="translate(63.623047 0)"/>
       <use xlink:href="#DejaVuSans-36" transform="translate(95.410156 0)"/>
      </g>
     </g>
    </g>
    <g id="ytick_5">
     <g id="line2d_11">
      <g>
       <use xlink:href="#m177fc0dbc3" x="47.72" y="76.689091" style="stroke: #000000; stroke-width: 0.8"/>
      </g>
     </g>
     <g id="text_13">
      <!-- 0.8 -->
      <g transform="translate(24.816875 80.48831) scale(0.1 -0.1)">
       <use xlink:href="#DejaVuSans-30"/>
       <use xlink:href="#DejaVuSans-2e" transform="translate(63.623047 0)"/>
       <use xlink:href="#DejaVuSans-38" transform="translate(95.410156 0)"/>
      </g>
     </g>
    </g>
    <g id="ytick_6">
     <g id="line2d_12">
      <g>
       <use xlink:href="#m177fc0dbc3" x="47.72" y="36.841818" style="stroke: #000000; stroke-width: 0.8"/>
      </g>
     </g>
     <g id="text_14">
      <!-- 1.0 -->
      <g transform="translate(24.816875 40.641037) scale(0.1 -0.1)">
       <use xlink:href="#DejaVuSans-31"/>
       <use xlink:href="#DejaVuSans-2e" transform="translate(63.623047 0)"/>
       <use xlink:href="#DejaVuSans-30" transform="translate(95.410156 0)"/>
      </g>
     </g>
    </g>
    <g id="text_15">
     <!-- global robust-normalized signal -->
     <g transform="translate(18.737188 215.175625) rotate(-90) scale(0.1 -0.1)">
      <defs>
       <path id="DejaVuSans-67" d="M 2906 1791 
Q 2906 2416 2648 2759 
Q 2391 3103 1925 3103 
Q 1463 3103 1205 2759 
Q 947 2416 947 1791 
Q 947 1169 1205 825 
Q 1463 481 1925 481 
Q 2391 481 2648 825 
Q 2906 1169 2906 1791 
z
M 3481 434 
Q 3481 -459 3084 -895 
Q 2688 -1331 1869 -1331 
Q 1566 -1331 1297 -1286 
Q 1028 -1241 775 -1147 
L 775 -588 
Q 1028 -725 1275 -790 
Q 1522 -856 1778 -856 
Q 2344 -856 2625 -561 
Q 2906 -266 2906 331 
L 2906 616 
Q 2728 306 2450 153 
Q 2172 0 1784 0 
Q 1141 0 747 490 
Q 353 981 353 1791 
Q 353 2603 747 3093 
Q 1141 3584 1784 3584 
Q 2172 3584 2450 3431 
Q 2728 3278 2906 2969 
L 2906 3500 
L 3481 3500 
L 3481 434 
z
" transform="scale(0.015625)"/>
       <path id="DejaVuSans-6c" d="M 603 4863 
L 1178 4863 
L 1178 0 
L 603 0 
L 603 4863 
z
" transform="scale(0.015625)"/>
       <path id="DejaVuSans-62" d="M 3116 1747 
Q 3116 2381 2855 2742 
Q 2594 3103 2138 3103 
Q 1681 3103 1420 2742 
Q 1159 2381 1159 1747 
Q 1159 1113 1420 752 
Q 1681 391 2138 391 
Q 2594 391 2855 752 
Q 3116 1113 3116 1747 
z
M 1159 2969 
Q 1341 3281 1617 3432 
Q 1894 3584 2278 3584 
Q 2916 3584 3314 3078 
Q 3713 2572 3713 1747 
Q 3713 922 3314 415 
Q 2916 -91 2278 -91 
Q 1894 -91 1617 61 
Q 1341 213 1159 525 
L 1159 0 
L 581 0 
L 581 4863 
L 1159 4863 
L 1159 2969 
z
" transform="scale(0.015625)"/>
       <path id="DejaVuSans-75" d="M 544 1381 
L 544 3500 
L 1119 3500 
L 1119 1403 
Q 1119 906 1312 657 
Q 1506 409 1894 409 
Q 2359 409 2629 706 
Q 2900 1003 2900 1516 
L 2900 3500 
L 3475 3500 
L 3475 0 
L 2900 0 
L 2900 538 
Q 2691 219 2414 64 
Q 2138 -91 1772 -91 
Q 1169 -91 856 284 
Q 544 659 544 1381 
z
M 1991 3584 
L 1991 3584 
z
" transform="scale(0.015625)"/>
       <path id="DejaVuSans-73" d="M 2834 3397 
L 2834 2853 
Q 2591 2978 2328 3040 
Q 2066 3103 1784 3103 
Q 1356 3103 1142 2972 
Q 928 2841 928 2578 
Q 928 2378 1081 2264 
Q 1234 2150 1697 2047 
L 1894 2003 
Q 2506 1872 2764 1633 
Q 3022 1394 3022 966 
Q 3022 478 2636 193 
Q 2250 -91 1575 -91 
Q 1294 -91 989 -36 
Q 684 19 347 128 
L 347 722 
Q 666 556 975 473 
Q 1284 391 1588 391 
Q 1994 391 2212 530 
Q 2431 669 2431 922 
Q 2431 1156 2273 1281 
Q 2116 1406 1581 1522 
L 1381 1569 
Q 847 1681 609 1914 
Q 372 2147 372 2553 
Q 372 3047 722 3315 
Q 1072 3584 1716 3584 
Q 2034 3584 2315 3537 
Q 2597 3491 2834 3397 
z
" transform="scale(0.015625)"/>
       <path id="DejaVuSans-2d" d="M 313 2009 
L 1997 2009 
L 1997 1497 
L 313 1497 
L 313 2009 
z
" transform="scale(0.015625)"/>
       <path id="DejaVuSans-6d" d="M 3328 2828 
Q 3544 3216 3844 3400 
Q 4144 3584 4550 3584 
Q 5097 3584 5394 3201 
Q 5691 2819 5691 2113 
L 5691 0 
L 5113 0 
L 5113 2094 
Q 5113 2597 4934 2840 
Q 4756 3084 4391 3084 
Q 3944 3084 3684 2787 
Q 3425 2491 3425 1978 
L 3425 0 
L 2847 0 
L 2847 2094 
Q 2847 2600 2669 2842 
Q 2491 3084 2119 3084 
Q 1678 3084 1418 2786 
Q 1159 2488 1159 1978 
L 1159 0 
L 581 0 
L 581 3500 
L 1159 3500 
L 1159 2956 
Q 1356 3278 1631 3431 
Q 1906 3584 2284 3584 
Q 2666 3584 2933 3390 
Q 3200 3197 3328 2828 
z
" transform="scale(0.015625)"/>
       <path id="DejaVuSans-7a" d="M 353 3500 
L 3084 3500 
L 3084 2975 
L 922 459 
L 3084 459 
L 3084 0 
L 275 0 
L 275 525 
L 2438 3041 
L 353 3041 
L 353 3500 
z
" transform="scale(0.015625)"/>
      </defs>
      <use xlink:href="#DejaVuSans-67"/>
      <use xlink:href="#DejaVuSans-6c" transform="translate(63.476562 0)"/>
      <use xlink:href="#DejaVuSans-6f" transform="translate(91.259766 0)"/>
      <use xlink:href="#DejaVuSans-62" transform="translate(152.441406 0)"/>
      <use xlink:href="#DejaVuSans-61" transform="translate(215.917969 0)"/>
      <use xlink:href="#DejaVuSans-6c" transform="translate(277.197266 0)"/>
      <use xlink:href="#DejaVuSans-20" transform="translate(304.980469 0)"/>
      <use xlink:href="#DejaVuSans-72" transform="translate(336.767578 0)"/>
      <use xlink:href="#DejaVuSans-6f" transform="translate(375.630859 0)"/>
      <use xlink:href="#DejaVuSans-62" transform="translate(436.8125 0)"/>
      <use xlink:href="#DejaVuSans-75" transform="translate(500.289062 0)"/>
      <use xlink:href="#DejaVuSans-73" transform="translate(563.667969 0)"/>
      <use xlink:href="#DejaVuSans-74" transform="translate(615.767578 0)"/>
      <use xlink:href="#DejaVuSans-2d" transform="translate(654.976562 0)"/>
      <use xlink:href="#DejaVuSans-6e" transform="translate(691.060547 0)"/>
      <use xlink:href="#DejaVuSans-6f" transform="translate(754.439453 0)"/>
      <use xlink:href="#DejaVuSans-72" transform="translate(815.621094 0)"/>
      <use xlink:href="#DejaVuSans-6d" transform="translate(854.984375 0)"/>
      <use xlink:href="#DejaVuSans-61" transform="translate(952.396484 0)"/>
      <use xlink:href="#DejaVuSans-6c" transform="translate(1013.675781 0)"/>
      <use xlink:href="#DejaVuSans-69" transform="translate(1041.458984 0)"/>
      <use xlink:href="#DejaVuSans-7a" transform="translate(1069.242188 0)"/>
      <use xlink:href="#DejaVuSans-65" transform="translate(1121.732422 0)"/>
      <use xlink:href="#DejaVuSans-64" transform="translate(1183.255859 0)"/>
      <use xlink:href="#DejaVuSans-20" transform="translate(1246.732422 0)"/>
      <use xlink:href="#DejaVuSans-73" transform="translate(1278.519531 0)"/>
      <use xlink:href="#DejaVuSans-69" transform="translate(1330.619141 0)"/>
      <use xlink:href="#DejaVuSans-67" transform="translate(1358.402344 0)"/>
      <use xlink:href="#DejaVuSans-6e" transform="translate(1421.878906 0)"/>
      <use xlink:href="#DejaVuSans-61" transform="translate(1485.257812 0)"/>
      <use xlink:href="#DejaVuSans-6c" transform="translate(1546.537109 0)"/>
     </g>
    </g>
   </g>
   <g id="line2d_13">
    <path d="M 84.332727 223.231983 
L 85.800171 226.192737 
L 87.267615 227.532336 
L 88.735059 229.240305 
L 90.202503 229.756612 
L 91.669947 233.983022 
L 93.137391 232.148251 
L 94.604835 232.306518 
L 96.072279 232.304246 
L 97.539723 234.044508 
L 99.007167 232.039678 
L 100.474611 231.050927 
L 101.942055 234.253831 
L 103.409499 234.796439 
L 104.876943 232.279566 
L 106.344387 231.027772 
L 107.811831 231.118369 
L 109.279275 233.327927 
L 110.746719 232.295581 
L 112.214163 232.768901 
L 115.149051 229.48942 
L 116.616495 230.081643 
L 118.083939 231.351738 
L 119.551383 232.772284 
L 121.018827 231.210407 
L 122.486271 229.958086 
L 126.888603 227.797021 
L 128.356047 234.541008 
L 129.823491 225.996594 
L 131.290935 225.900519 
L 132.758379 206.95184 
L 134.225823 160.465679 
L 137.160711 47.790619 
L 138.628154 68.109347 
L 140.095598 202.111312 
L 141.563042 195.762416 
L 143.030486 196.480799 
L 144.49793 189.693233 
L 145.965374 227.051843 
L 147.432818 228.550706 
L 148.900262 231.769946 
L 150.367706 232.954677 
L 151.83515 231.340671 
L 153.302594 232.254382 
L 154.770038 230.319756 
L 156.237482 230.974317 
L 157.704926 229.294437 
L 159.17237 228.718466 
L 160.639814 232.906851 
L 162.107258 233.866551 
L 163.574702 235.817657 
L 165.042146 234.378583 
L 166.50959 233.62884 
L 167.977034 231.336337 
L 169.444478 231.095254 
L 170.911922 234.713349 
L 172.379366 235.669154 
L 173.84681 232.688175 
L 175.314254 234.076653 
L 176.781698 235.251753 
L 178.249142 233.449436 
L 179.716586 231.075197 
L 181.18403 231.119308 
L 184.118918 226.211806 
L 185.586362 221.814742 
L 187.053806 223.794043 
L 188.52125 222.988106 
L 189.988694 225.597929 
L 191.456138 224.187356 
L 192.923582 201.735004 
L 194.391026 154.829137 
L 195.85847 129.83701 
L 197.325914 137.143371 
L 198.793358 174.194977 
L 200.260802 148.41257 
L 201.728246 98.80603 
L 203.19569 36.841818 
L 206.130578 36.841818 
L 207.598021 74.317777 
L 209.065465 143.357859 
L 210.532909 153.790205 
L 212.000353 161.75511 
L 213.467797 175.498835 
L 214.935241 171.513757 
L 216.402685 193.042578 
L 217.870129 202.59499 
L 219.337573 208.825293 
L 220.805017 217.923137 
L 222.272461 217.933357 
L 223.739905 223.682487 
L 225.207349 219.207303 
L 226.674793 220.201319 
L 228.142237 225.214853 
L 229.609681 223.135956 
L 231.077125 226.792858 
L 232.544569 225.504288 
L 234.012013 226.501415 
L 235.479457 226.647382 
L 236.946901 228.723464 
L 238.414345 228.814818 
L 239.881789 231.126837 
L 241.349233 231.084679 
L 242.816677 229.819914 
L 244.284121 232.428119 
L 245.751565 232.249691 
L 247.219009 228.332378 
L 248.686453 228.000586 
L 250.153897 229.98949 
L 251.621341 225.933474 
L 253.088785 218.164746 
L 254.556229 220.754368 
L 256.023673 224.022692 
L 257.491117 216.71009 
L 258.958561 216.802689 
L 260.426005 208.304922 
L 261.893449 223.689864 
L 263.360893 222.902005 
L 264.828337 224.8671 
L 266.295781 227.848897 
L 267.763225 231.208353 
L 269.230669 232.713449 
L 270.698113 232.789118 
L 272.165557 232.395662 
L 276.567889 231.703589 
L 278.035332 230.919467 
L 279.502776 232.331157 
L 280.97022 231.527514 
L 282.437664 227.540788 
L 283.905108 227.411793 
L 286.839996 232.813702 
L 288.30744 231.599889 
L 289.774884 229.22095 
L 291.242328 228.815778 
L 292.709772 228.108657 
L 294.177216 225.027045 
L 295.64466 229.244446 
L 297.112104 229.456724 
L 298.579548 226.405977 
L 300.046992 228.708383 
L 301.514436 232.357523 
L 302.98188 232.846968 
L 304.449324 231.430102 
L 305.916768 230.386442 
L 307.384212 232.295715 
L 308.851656 231.599266 
L 310.3191 234.842151 
L 311.786544 236.061326 
L 313.253988 234.043502 
L 314.721432 235.417346 
L 316.188876 235.933298 
L 317.65632 233.565487 
L 319.123764 234.393663 
L 320.591208 231.231349 
L 322.058652 233.4895 
L 323.526096 235.159555 
L 324.99354 234.430983 
L 326.460984 235.383961 
L 327.928428 232.260172 
L 329.395872 230.04969 
L 330.863316 232.95894 
L 332.33076 231.705338 
L 333.798204 231.288992 
L 335.265648 233.965009 
L 336.733092 233.200067 
L 339.66798 230.111824 
L 341.135424 233.616429 
L 342.602868 231.19481 
L 344.070312 231.670831 
L 345.537756 234.759961 
L 347.005199 231.166344 
L 348.472643 230.786584 
L 349.940087 232.03476 
L 351.407531 231.597222 
L 352.874975 233.169946 
L 354.342419 230.679862 
L 357.277307 230.485395 
L 358.744751 230.865445 
L 360.212195 233.124537 
L 361.679639 233.560491 
L 363.147083 231.038199 
L 364.614527 233.407886 
L 366.081971 233.143717 
L 367.549415 230.321107 
L 369.016859 230.975161 
L 370.484303 230.485594 
L 371.951747 231.756639 
L 373.419191 230.785414 
L 374.886635 229.434435 
L 376.354079 230.446819 
L 377.821523 228.204812 
L 379.288967 226.509505 
L 380.756411 232.122441 
L 382.223855 231.456644 
L 385.158743 235.115592 
L 386.626187 231.620991 
L 389.561075 233.439642 
L 391.028519 233.949572 
L 392.495963 231.490463 
L 393.963407 233.565605 
L 395.430851 235.966358 
L 396.898295 234.265261 
L 398.365739 234.097429 
L 399.833183 234.084678 
L 401.300627 234.63438 
L 402.768071 232.857058 
L 404.235515 229.228813 
L 405.702959 227.315372 
L 407.170403 233.303358 
L 408.637847 236.078182 
L 410.105291 234.858292 
L 411.572735 235.553798 
L 413.040179 233.399819 
L 414.507623 230.673579 
L 415.975066 228.414116 
L 417.44251 232.596315 
L 418.909954 230.537463 
L 420.377398 230.17795 
L 421.844842 231.299778 
L 423.312286 230.565296 
L 424.77973 227.70565 
L 426.247174 231.22084 
L 427.714618 229.606792 
L 429.182062 230.08308 
L 430.649506 229.095494 
L 432.11695 230.436093 
L 433.584394 230.890561 
L 435.051838 233.727873 
L 436.519282 234.147473 
L 437.986726 232.154279 
L 439.45417 232.716807 
L 440.921614 232.020478 
L 442.389058 232.40873 
L 443.856502 234.610217 
L 445.323946 232.239081 
L 446.79139 224.315087 
L 448.258834 222.673762 
L 451.193722 209.245337 
L 452.661166 204.952987 
L 454.12861 165.727428 
L 455.596054 133.098823 
L 457.063498 45.91933 
L 458.530942 36.841818 
L 461.46583 221.507045 
L 462.933274 223.565208 
L 464.400718 230.695235 
L 465.868162 230.72396 
L 467.335606 230.913914 
L 470.270494 232.805963 
L 471.737938 232.752899 
L 473.205382 231.444175 
L 474.672826 231.249851 
L 476.14027 233.241145 
L 477.607714 232.56142 
L 479.075158 230.8046 
L 480.542602 232.513606 
L 482.010046 234.725749 
L 483.47749 235.134565 
L 484.944934 234.739509 
L 486.412377 235.27303 
L 487.879821 231.777067 
L 489.347265 230.430597 
L 490.814709 232.654598 
L 492.282153 235.995587 
L 493.749597 233.553298 
L 495.217041 233.595348 
L 496.684485 235.017012 
L 498.151929 231.977925 
L 499.619373 234.874923 
L 501.086817 234.20477 
L 502.554261 233.767981 
L 504.021705 235.754337 
L 505.489149 236.043306 
L 506.956593 233.836254 
L 509.891481 231.487443 
L 511.358925 233.719578 
L 512.826369 234.694688 
L 514.293813 232.137637 
L 515.761257 231.691556 
L 517.228701 231.043093 
L 518.696145 230.517653 
L 520.163589 231.337149 
L 521.631033 232.017786 
L 523.098477 234.464458 
L 524.565921 233.436777 
L 526.033365 231.126449 
L 527.500809 231.832931 
L 528.968253 232.346615 
L 530.435697 234.712357 
L 531.903141 231.463548 
L 533.370585 230.473311 
L 534.838029 233.302373 
L 536.305473 235.430515 
L 537.772917 234.593153 
L 539.240361 233.91697 
L 540.707805 231.198943 
L 542.175249 231.976658 
L 543.642693 233.137502 
L 545.110137 231.243907 
L 546.577581 232.482356 
L 550.979913 231.478834 
L 553.914801 232.029454 
L 555.382244 231.132391 
L 556.849688 230.87902 
L 558.317132 234.344425 
L 559.784576 234.463987 
L 561.25202 233.507443 
L 562.719464 231.654087 
L 564.186908 233.025881 
L 565.654352 234.877525 
L 567.121796 234.284642 
L 568.58924 230.343786 
L 570.056684 233.082583 
L 571.524128 232.954686 
L 572.991572 230.831243 
L 574.459016 231.536107 
L 575.92646 232.41266 
L 577.393904 230.898107 
L 578.861348 232.512001 
L 580.328792 232.242634 
L 581.796236 233.975691 
L 583.26368 232.843103 
L 584.731124 231.4099 
L 586.198568 233.087228 
L 587.666012 232.999344 
L 589.133456 231.692375 
L 590.6009 229.970641 
L 592.068344 231.554578 
L 593.535788 232.264967 
L 595.003232 229.665203 
L 596.470676 233.186968 
L 597.93812 234.796199 
L 599.405564 232.321385 
L 602.340452 233.057371 
L 603.807896 234.030457 
L 605.27534 231.030824 
L 606.742784 227.391705 
L 608.210228 208.387972 
L 609.677672 193.656004 
L 611.145116 97.677904 
L 612.61256 53.48867 
L 614.080004 101.587805 
L 615.547448 120.423762 
L 617.014892 168.707237 
L 618.482336 172.796551 
L 619.94978 209.503738 
L 621.417224 223.759551 
L 622.884668 216.780605 
L 624.352111 218.088439 
L 625.819555 205.789843 
L 627.286999 218.990896 
L 628.754443 218.766081 
L 630.221887 219.705208 
L 631.689331 225.834908 
L 633.156775 222.631155 
L 634.624219 225.098082 
L 636.091663 227.202215 
L 637.559107 231.835945 
L 639.026551 229.622316 
L 640.493995 229.910905 
L 641.961439 233.316376 
L 643.428883 230.972771 
L 644.896327 229.379682 
L 646.363771 230.874929 
L 647.831215 230.06243 
L 649.298659 230.400421 
L 650.766103 231.412209 
L 652.233547 230.750933 
L 653.700991 234.748835 
L 655.168435 231.019773 
L 656.635879 232.478449 
L 658.103323 231.932742 
L 659.570767 229.781266 
L 661.038211 228.548791 
L 662.505655 230.42829 
L 663.973099 231.12098 
L 665.440543 232.564058 
L 666.907987 230.682398 
L 668.375431 230.439496 
L 669.842875 232.785038 
L 671.310319 233.56728 
L 672.777763 232.41915 
L 674.245207 234.349424 
L 675.712651 233.356193 
L 677.180095 233.088953 
L 680.114983 229.442021 
L 681.582427 230.99144 
L 683.049871 231.549457 
L 684.517315 234.209908 
L 687.452203 235.017024 
L 688.919647 236.078182 
L 690.387091 235.804156 
L 691.854535 235.779247 
L 693.321979 236.078182 
L 694.789422 233.30584 
L 696.256866 232.151819 
L 697.72431 233.429868 
L 699.191754 231.885903 
L 700.659198 232.655494 
L 702.126642 234.713377 
L 703.594086 231.604263 
L 705.06153 232.761626 
L 706.528974 233.683831 
L 707.996418 232.22777 
L 709.463862 233.308161 
L 712.39875 228.970077 
L 713.866194 233.69175 
L 715.333638 230.642561 
L 716.801082 229.733641 
L 718.268526 233.523165 
L 719.73597 231.672714 
L 721.203414 231.451225 
L 722.670858 230.312161 
L 724.138302 230.380493 
L 725.605746 228.992701 
L 727.07319 232.739783 
L 728.540634 233.039112 
L 730.008078 230.259098 
L 731.475522 233.32491 
L 732.942966 228.925059 
L 734.41041 229.054601 
L 735.877854 233.283249 
L 737.345298 232.964392 
L 738.812742 233.184904 
L 740.280186 232.481115 
L 741.74763 234.73801 
L 743.215074 231.525156 
L 746.149962 228.952838 
L 747.617406 233.403007 
L 749.08485 230.932668 
L 750.552294 232.013976 
L 752.019738 230.767268 
L 753.487182 232.007803 
L 754.954626 234.0209 
L 756.42207 229.909241 
L 757.889514 229.168355 
L 759.356958 236.008868 
L 760.824402 234.013399 
L 762.291846 231.68893 
L 763.759289 231.871022 
L 765.226733 230.939375 
L 766.694177 233.173868 
L 768.161621 233.95583 
L 769.629065 230.755452 
L 771.096509 231.604412 
L 772.563953 232.321685 
L 774.031397 230.567963 
L 775.498841 232.605975 
L 776.966285 234.150096 
L 779.901173 234.536518 
L 781.368617 234.060386 
L 782.836061 233.441001 
L 784.303505 233.307665 
L 785.770949 231.680261 
L 787.238393 234.154882 
L 788.705837 233.711144 
L 790.173281 233.034755 
L 791.640725 234.074191 
L 793.108169 232.954881 
L 794.575613 232.05863 
L 796.043057 235.384653 
L 797.510501 234.373262 
L 798.977945 229.274364 
L 800.445389 233.141469 
L 801.912833 233.063342 
L 803.380277 231.664299 
L 804.847721 230.480803 
L 806.315165 233.346662 
L 807.782609 233.931122 
L 809.250053 233.68871 
L 810.717497 233.715662 
L 812.184941 234.567729 
L 813.652385 232.381204 
L 815.119829 233.414255 
L 816.587273 234.716304 
L 816.587273 234.716304 
" clip-path="url(#p931f8a34dc)" style="fill: none; stroke: #2ca02c; stroke-width: 1.2; stroke-linecap: square"/>
   </g>
   <g id="line2d_14">
    <path d="M 84.332727 227.572462 
L 87.267615 231.74974 
L 88.735059 231.819294 
L 90.202503 232.550953 
L 91.669947 232.553628 
L 93.137391 232.286111 
L 94.604835 232.254009 
L 96.072279 232.537577 
L 97.539723 232.569679 
L 99.007167 233.00707 
L 101.942055 233.550129 
L 103.409499 233.630384 
L 104.876943 234.021628 
L 106.344387 233.415702 
L 107.811831 233.263886 
L 110.746719 233.171593 
L 112.214163 232.89605 
L 113.681607 232.762292 
L 115.149051 232.989681 
L 116.616495 232.676686 
L 118.083939 232.518851 
L 119.551383 232.708788 
L 121.018827 233.305351 
L 122.486271 233.499301 
L 125.421159 230.834832 
L 126.888603 229.40094 
L 128.356047 226.462266 
L 129.823491 223.787096 
L 131.290935 219.653958 
L 132.758379 204.400138 
L 134.225823 176.037984 
L 135.693267 121.849737 
L 137.160711 74.424321 
L 138.628154 103.958199 
L 140.095598 199.509927 
L 141.563042 200.97592 
L 143.030486 172.913385 
L 144.49793 179.804623 
L 145.965374 216.949361 
L 147.432818 227.78915 
L 148.900262 230.592729 
L 150.367706 231.454133 
L 151.83515 231.20668 
L 153.302594 230.347951 
L 154.770038 229.12406 
L 156.237482 230.862921 
L 157.704926 230.319861 
L 159.17237 230.662283 
L 160.639814 232.122926 
L 162.107258 233.262549 
L 165.042146 234.656981 
L 166.50959 234.475738 
L 167.977034 233.94873 
L 169.444478 233.667837 
L 170.911922 233.635735 
L 175.314254 234.323253 
L 178.249142 234.196852 
L 181.18403 231.533051 
L 182.651474 229.652406 
L 184.118918 224.019836 
L 185.586362 221.360716 
L 187.053806 211.569594 
L 188.52125 207.824356 
L 189.988694 211.788958 
L 191.456138 206.567026 
L 192.923582 180.254052 
L 194.391026 136.295656 
L 195.85847 78.019749 
L 197.325914 54.307041 
L 198.793358 89.533682 
L 200.260802 91.802226 
L 201.728246 92.743886 
L 203.19569 46.046116 
L 204.663134 36.841818 
L 206.130578 73.910688 
L 209.065465 163.603793 
L 210.532909 180.050739 
L 212.000353 189.916767 
L 213.467797 201.307641 
L 214.935241 208.038369 
L 216.402685 215.956873 
L 217.870129 220.00708 
L 219.337573 222.83206 
L 220.805017 224.902642 
L 222.272461 225.563409 
L 223.739905 226.414113 
L 225.207349 226.662904 
L 226.674793 227.743672 
L 228.142237 228.25463 
L 229.609681 228.441892 
L 231.077125 230.45897 
L 232.544569 230.881647 
L 235.479457 230.68636 
L 236.946901 230.544576 
L 238.414345 230.672984 
L 239.881789 230.464321 
L 241.349233 230.426868 
L 242.816677 230.722474 
L 244.284121 230.853558 
L 245.751565 230.596741 
L 248.686453 230.267696 
L 250.153897 230.096485 
L 253.088785 226.582649 
L 254.556229 225.408249 
L 256.023673 226.333858 
L 257.491117 224.41041 
L 258.958561 222.83206 
L 260.426005 223.84595 
L 261.893449 227.398576 
L 263.360893 226.662904 
L 264.828337 227.369149 
L 266.295781 229.442406 
L 267.763225 230.041644 
L 270.698113 230.956552 
L 272.165557 231.605281 
L 273.633001 233.020446 
L 275.100445 233.235797 
L 276.567889 232.106875 
L 278.035332 231.494261 
L 279.502776 232.542928 
L 280.97022 232.621845 
L 282.437664 230.243619 
L 283.905108 226.237552 
L 285.372552 219.442619 
L 286.839996 194.710671 
L 288.30744 189.146318 
L 289.774884 199.868399 
L 291.242328 217.214203 
L 292.709772 223.570407 
L 294.177216 224.105441 
L 295.64466 227.345072 
L 297.112104 229.715273 
L 298.579548 230.129924 
L 300.046992 230.822793 
L 301.514436 231.293623 
L 302.98188 231.440758 
L 304.449324 231.221394 
L 305.916768 231.189292 
L 307.384212 231.939677 
L 308.851656 231.070247 
L 311.786544 234.26975 
L 313.253988 234.414209 
L 314.721432 234.039685 
L 317.65632 234.041692 
L 320.591208 234.09787 
L 323.526096 233.95943 
L 324.99354 234.052392 
L 330.863316 233.625034 
L 332.33076 233.774844 
L 333.798204 234.852937 
L 335.265648 235.412048 
L 336.733092 234.233635 
L 338.200536 233.661149 
L 339.66798 233.592932 
L 342.602868 233.859111 
L 345.537756 233.271912 
L 347.005199 233.357517 
L 349.940087 234.170769 
L 351.407531 233.892551 
L 355.809863 234.2751 
L 357.277307 234.118603 
L 364.614527 232.700763 
L 367.549415 232.567004 
L 369.016859 232.611145 
L 371.951747 232.340952 
L 373.419191 232.544265 
L 376.354079 232.603119 
L 377.821523 232.871974 
L 379.288967 232.989681 
L 380.756411 232.731527 
L 383.691299 232.855923 
L 386.626187 233.427071 
L 389.561075 233.491276 
L 391.028519 233.427071 
L 392.495963 233.877169 
L 395.430851 235.102397 
L 396.898295 234.507171 
L 398.365739 233.699939 
L 401.300627 233.143503 
L 402.768071 233.138153 
L 404.235515 232.802419 
L 405.702959 232.272736 
L 407.170403 232.961592 
L 408.637847 234.459687 
L 410.105291 235.146537 
L 411.572735 234.329273 
L 413.040179 232.013244 
L 414.507623 230.499098 
L 415.975066 230.277059 
L 417.44251 229.806229 
L 418.909954 229.691196 
L 420.377398 229.691196 
L 421.844842 229.257819 
L 423.312286 229.017053 
L 426.247174 230.178077 
L 427.714618 231.312349 
L 429.182062 231.491586 
L 433.584394 230.715787 
L 436.519282 230.969928 
L 439.45417 230.595404 
L 440.921614 231.117062 
L 442.389058 232.674011 
L 443.856502 233.778856 
L 445.323946 231.983817 
L 449.726278 224.24455 
L 451.193722 214.646039 
L 452.661166 200.606746 
L 454.12861 126.172812 
L 455.596054 38.855258 
L 457.063498 36.841818 
L 458.530942 36.841818 
L 459.998386 139.398853 
L 461.46583 222.99257 
L 462.933274 215.649228 
L 464.400718 224.027861 
L 465.868162 230.349288 
L 467.335606 232.237958 
L 470.270494 233.60497 
L 471.737938 234.101883 
L 474.672826 234.370738 
L 476.14027 234.373413 
L 477.607714 234.139336 
L 479.075158 234.238317 
L 482.010046 234.716503 
L 489.347265 235.1452 
L 490.814709 235.653482 
L 492.282153 235.888228 
L 493.749597 235.355869 
L 495.217041 235.404022 
L 496.684485 235.179308 
L 498.151929 235.210741 
L 499.619373 234.976664 
L 501.086817 234.562012 
L 502.554261 234.710484 
L 505.489149 235.477589 
L 508.424037 234.600134 
L 509.891481 234.43026 
L 511.358925 234.547968 
L 512.826369 234.135992 
L 514.293813 233.435097 
L 515.761257 233.114077 
L 517.228701 233.381594 
L 518.696145 232.791719 
L 520.163589 231.820632 
L 521.631033 233.717996 
L 523.098477 235.134499 
L 524.565921 234.599465 
L 526.033365 233.487932 
L 527.500809 233.298663 
L 528.968253 234.568032 
L 530.435697 234.280451 
L 531.903141 233.337453 
L 533.370585 233.812965 
L 534.838029 234.437617 
L 536.305473 234.682395 
L 539.240361 234.910453 
L 542.175249 234.714497 
L 543.642693 234.742586 
L 545.110137 234.489114 
L 546.577581 234.465037 
L 548.045025 234.875676 
L 549.512469 235.070964 
L 550.979913 235.382621 
L 552.447357 235.464214 
L 555.382244 234.891727 
L 558.317132 235.21676 
L 559.784576 235.26692 
L 561.25202 234.986027 
L 562.719464 234.838893 
L 565.654352 235.278289 
L 567.121796 235.228799 
L 568.58924 235.318417 
L 570.056684 235.2502 
L 572.991572 234.830198 
L 574.459016 234.0758 
L 575.92646 233.621021 
L 578.861348 233.293313 
L 580.328792 233.207708 
L 583.26368 233.809621 
L 586.198568 234.029654 
L 587.666012 233.792901 
L 589.133456 232.861273 
L 590.6009 233.072611 
L 592.068344 232.707451 
L 595.003232 233.520702 
L 597.93812 233.792232 
L 599.405564 233.67185 
L 600.873008 233.357517 
L 602.340452 233.159554 
L 603.807896 234.023634 
L 605.27534 232.340952 
L 606.742784 226.539846 
L 609.677672 190.890528 
L 611.145116 114.830091 
L 612.61256 61.283885 
L 614.080004 98.607859 
L 615.547448 128.912186 
L 617.014892 162.790541 
L 618.482336 175.888174 
L 619.94978 192.17461 
L 621.417224 202.040638 
L 622.884668 199.686488 
L 624.352111 199.162155 
L 625.819555 199.782794 
L 627.286999 209.258247 
L 630.221887 211.692652 
L 631.689331 220.349502 
L 633.156775 222.797283 
L 634.624219 226.579973 
L 636.091663 227.371824 
L 637.559107 230.095147 
L 639.026551 230.397441 
L 640.493995 227.86138 
L 641.961439 226.395387 
L 643.428883 227.979087 
L 644.896327 226.793987 
L 646.363771 227.639341 
L 647.831215 228.682657 
L 649.298659 230.202154 
L 652.233547 231.632032 
L 653.700991 231.629357 
L 655.168435 231.784517 
L 656.635879 231.551777 
L 658.103323 231.720313 
L 659.570767 231.713625 
L 661.038211 232.27006 
L 662.505655 233.317389 
L 666.907987 233.646435 
L 668.375431 234.18682 
L 669.842875 234.899753 
L 671.310319 234.511184 
L 672.777763 233.497295 
L 674.245207 233.098026 
L 675.712651 233.370893 
L 680.114983 234.690421 
L 683.049871 234.858288 
L 684.517315 235.116441 
L 685.984759 235.012779 
L 688.919647 235.086346 
L 690.387091 234.817491 
L 694.789422 234.461025 
L 697.72431 234.714497 
L 699.191754 234.71851 
L 700.659198 234.531917 
L 702.126642 234.780708 
L 703.594086 235.28899 
L 706.528974 235.701635 
L 707.996418 235.608004 
L 709.463862 235.068288 
L 712.39875 234.750612 
L 713.866194 234.690421 
L 715.333638 234.297171 
L 716.801082 234.20889 
L 718.268526 234.410865 
L 719.73597 234.220928 
L 721.203414 233.833697 
L 722.670858 233.678537 
L 724.138302 233.6772 
L 725.605746 233.928666 
L 727.07319 233.600958 
L 728.540634 233.544779 
L 730.008078 233.606308 
L 731.475522 233.841723 
L 732.942966 233.895226 
L 734.41041 233.802933 
L 738.812742 234.67437 
L 741.74763 234.708478 
L 743.215074 234.177457 
L 744.682518 234.056405 
L 747.617406 234.322585 
L 752.019738 234.345324 
L 753.487182 235.251538 
L 754.954626 235.426761 
L 756.42207 234.782045 
L 759.356958 234.539942 
L 760.824402 234.267075 
L 762.291846 234.148699 
L 763.759289 233.89322 
L 765.226733 233.330765 
L 768.161621 233.178281 
L 769.629065 232.982993 
L 771.096509 233.065924 
L 774.031397 234.559337 
L 775.498841 234.909785 
L 776.966285 234.766663 
L 778.433729 234.370738 
L 779.901173 234.420897 
L 781.368617 234.594783 
L 784.303505 234.70179 
L 785.770949 234.430929 
L 787.238393 234.309209 
L 788.705837 234.899084 
L 790.173281 235.093034 
L 791.640725 234.41354 
L 793.108169 234.537936 
L 794.575613 234.848924 
L 796.043057 234.677714 
L 797.510501 234.19217 
L 800.445389 234.517872 
L 803.380277 233.247835 
L 804.847721 233.884526 
L 806.315165 234.70714 
L 807.782609 235.108416 
L 809.250053 234.577395 
L 810.717497 233.847073 
L 812.184941 233.437772 
L 813.652385 233.485925 
L 816.587273 233.859111 
L 816.587273 233.859111 
" clip-path="url(#p931f8a34dc)" style="fill: none; stroke: #000000; stroke-width: 1.2; stroke-linecap: square"/>
   </g>
   <g id="line2d_15">
    <path d="M 84.332727 177.627173 
L 85.800171 215.20617 
L 87.267615 201.758088 
L 88.735059 206.562229 
L 90.202503 209.67434 
L 91.669947 206.146317 
L 93.137391 206.010047 
L 94.604835 206.016247 
L 96.072279 201.94063 
L 97.539723 190.044206 
L 99.007167 215.456995 
L 100.474611 198.596563 
L 101.942055 211.873871 
L 103.409499 205.161035 
L 104.876943 217.509818 
L 106.344387 203.328532 
L 107.811831 206.504191 
L 109.279275 204.355064 
L 110.746719 209.827221 
L 113.681607 190.314712 
L 115.149051 196.001809 
L 116.616495 191.544108 
L 118.083939 202.79009 
L 119.551383 206.532012 
L 121.018827 205.691956 
L 122.486271 200.442975 
L 123.953715 196.561344 
L 125.421159 188.615597 
L 126.888603 181.90422 
L 128.356047 181.996405 
L 129.823491 186.210062 
L 131.290935 194.65646 
L 132.758379 189.659518 
L 134.225823 189.492311 
L 135.693267 181.772742 
L 137.160711 168.498806 
L 138.628154 120.283657 
L 140.095598 36.841818 
L 141.563042 36.841818 
L 143.030486 121.272436 
L 144.49793 177.242728 
L 145.965374 210.421138 
L 147.432818 212.248024 
L 148.900262 204.018096 
L 150.367706 185.812952 
L 151.83515 176.1622 
L 153.302594 176.941994 
L 154.770038 151.233099 
L 156.237482 36.841818 
L 159.17237 182.415513 
L 160.639814 205.682689 
L 162.107258 202.308309 
L 163.574702 206.50912 
L 165.042146 196.704146 
L 166.50959 195.649662 
L 167.977034 201.968601 
L 169.444478 186.087645 
L 170.911922 195.759364 
L 172.379366 203.159004 
L 173.84681 205.702097 
L 175.314254 205.080956 
L 176.781698 187.113662 
L 178.249142 208.471701 
L 179.716586 210.179172 
L 181.18403 204.184581 
L 182.651474 192.66478 
L 184.118918 202.470647 
L 185.586362 155.124147 
L 187.053806 38.175389 
L 188.52125 150.40754 
L 189.988694 190.081199 
L 191.456138 127.162771 
L 192.923582 155.600203 
L 194.391026 106.346397 
L 197.325914 54.382953 
L 198.793358 36.841818 
L 201.728246 36.841818 
L 203.19569 43.109227 
L 204.663134 47.096861 
L 206.130578 106.078726 
L 207.598021 63.982488 
L 209.065465 36.841818 
L 210.532909 59.079951 
L 212.000353 52.480813 
L 213.467797 106.320029 
L 214.935241 126.977853 
L 216.402685 96.257337 
L 217.870129 153.735047 
L 219.337573 180.576833 
L 220.805017 153.72496 
L 222.272461 165.938247 
L 223.739905 184.139457 
L 225.207349 203.793437 
L 226.674793 179.511684 
L 228.142237 173.993504 
L 229.609681 121.099514 
L 231.077125 167.100374 
L 232.544569 171.299289 
L 234.012013 176.564267 
L 235.479457 139.703517 
L 236.946901 176.823135 
L 238.414345 147.790161 
L 239.881789 172.204715 
L 241.349233 176.672409 
L 242.816677 135.846355 
L 244.284121 147.420691 
L 245.751565 116.846408 
L 247.219009 165.144744 
L 248.686453 128.064793 
L 250.153897 177.864557 
L 251.621341 142.15066 
L 253.088785 140.840556 
L 254.556229 145.001003 
L 256.023673 129.69751 
L 257.491117 168.001274 
L 258.958561 136.137749 
L 260.426005 122.52846 
L 261.893449 106.737786 
L 263.360893 160.373588 
L 264.828337 185.055121 
L 266.295781 159.105241 
L 267.763225 183.391684 
L 269.230669 187.932699 
L 270.698113 197.369513 
L 272.165557 174.001029 
L 273.633001 147.8002 
L 275.100445 174.755615 
L 276.567889 176.820078 
L 278.035332 180.47186 
L 279.502776 196.604966 
L 280.97022 194.477225 
L 282.437664 209.174275 
L 283.905108 189.795204 
L 285.372552 201.835759 
L 286.839996 202.750402 
L 288.30744 191.636422 
L 289.774884 183.171787 
L 291.242328 69.982388 
M 476.14027 37.152273 
L 477.607714 69.500673 
L 479.075158 184.785037 
L 480.542602 236.078182 
L 482.010046 226.066205 
L 483.47749 209.6351 
L 484.944934 201.212169 
L 487.879821 228.229835 
L 489.347265 212.028885 
L 490.814709 235.420334 
L 492.282153 222.406738 
L 493.749597 236.078182 
L 495.217041 236.078182 
L 496.684485 220.396907 
L 498.151929 220.919431 
L 499.619373 232.045859 
L 501.086817 233.660461 
L 502.554261 202.357509 
L 504.021705 232.825829 
L 506.956593 221.448903 
L 508.424037 169.565672 
L 509.891481 221.551844 
L 511.358925 165.677776 
L 514.293813 233.631586 
L 515.761257 207.810585 
L 517.228701 224.765189 
L 518.696145 218.924503 
L 520.163589 218.637121 
L 521.631033 211.153075 
L 523.098477 225.590025 
L 524.565921 188.976218 
L 526.033365 207.387994 
L 527.500809 94.648768 
L 528.968253 36.841818 
L 530.435697 190.741463 
L 531.903141 206.550289 
L 533.370585 212.67126 
L 534.838029 202.217246 
L 536.305473 209.408746 
L 537.772917 203.819479 
L 539.240361 203.209903 
L 540.707805 192.55397 
L 542.175249 161.988003 
L 543.642693 183.375396 
L 545.110137 192.603785 
L 546.577581 195.4038 
L 548.045025 225.842835 
L 549.512469 206.612159 
L 550.979913 205.850023 
L 552.447357 202.439787 
L 553.914801 216.313772 
L 555.382244 193.507822 
L 556.849688 175.690557 
L 558.317132 190.181758 
L 559.784576 202.709226 
L 561.25202 190.123143 
L 562.719464 191.406578 
L 564.186908 163.325281 
L 565.654352 181.187206 
L 567.121796 190.896181 
L 568.58924 213.138849 
L 570.056684 192.792385 
L 571.524128 179.668296 
L 572.991572 190.036556 
L 574.459016 170.107945 
L 575.92646 180.873784 
L 577.393904 177.567954 
L 578.861348 191.219493 
L 580.328792 195.305389 
L 581.796236 201.091841 
L 583.26368 208.30695 
L 584.731124 209.514454 
L 586.198568 185.729448 
L 587.666012 216.632247 
L 589.133456 169.740969 
L 590.6009 88.587892 
L 592.068344 118.960772 
L 593.535788 168.257907 
L 595.003232 197.057912 
L 596.470676 188.729242 
L 597.93812 190.08996 
L 599.405564 194.85367 
L 600.873008 206.584554 
L 602.340452 174.961692 
L 603.807896 183.560534 
L 605.27534 172.241799 
L 606.742784 187.187044 
L 608.210228 188.111517 
L 609.677672 83.013745 
L 611.145116 52.47688 
L 612.61256 94.928231 
L 614.080004 62.185896 
L 615.547448 139.034821 
L 617.014892 100.858602 
L 618.482336 139.507316 
L 619.94978 125.56495 
L 621.417224 115.610296 
L 622.884668 138.371195 
L 624.352111 142.568055 
L 625.819555 143.347723 
L 627.286999 133.703846 
L 628.754443 120.849331 
L 630.221887 159.844034 
L 631.689331 187.897603 
L 633.156775 189.783006 
L 634.624219 181.031399 
L 636.091663 194.367926 
L 637.559107 198.747085 
L 639.026551 210.730917 
L 640.493995 204.207641 
L 641.961439 201.108559 
L 643.428883 189.383556 
L 644.896327 198.884416 
L 646.363771 192.159124 
L 647.831215 204.937696 
L 649.298659 196.833082 
L 650.766103 211.747435 
L 652.233547 205.869198 
L 653.700991 185.431011 
L 655.168435 195.723181 
L 656.635879 195.71068 
L 658.103323 184.849513 
L 659.570767 182.02722 
L 661.038211 186.775828 
L 662.505655 197.04109 
L 663.973099 189.592364 
L 665.440543 200.137606 
L 666.907987 198.471424 
L 668.375431 197.010285 
L 669.842875 206.799515 
L 671.310319 196.233761 
L 672.777763 199.346097 
L 674.245207 192.309315 
L 675.712651 200.431077 
L 677.180095 195.927291 
L 678.647539 206.735796 
L 680.114983 199.746017 
L 681.582427 197.423008 
L 683.049871 179.678885 
L 684.517315 201.738363 
L 685.984759 189.165466 
L 687.452203 187.206282 
L 688.919647 194.367234 
L 690.387091 191.673118 
L 691.854535 183.808643 
L 693.321979 185.499567 
L 694.789422 207.426877 
L 696.256866 207.707501 
L 697.72431 177.759958 
L 699.191754 190.979898 
L 700.659198 180.109778 
L 702.126642 192.338806 
L 705.06153 198.321289 
L 706.528974 204.002424 
L 707.996418 185.31633 
L 709.463862 177.601675 
L 710.931306 196.585652 
L 712.39875 195.036825 
L 713.866194 190.866228 
L 715.333638 185.183431 
L 716.801082 191.010842 
L 718.268526 189.102392 
L 719.73597 167.941354 
L 721.203414 197.660702 
L 722.670858 205.614844 
L 724.138302 195.918247 
L 725.605746 194.393354 
L 728.540634 204.23218 
L 730.008078 193.077255 
L 731.475522 185.548594 
L 732.942966 196.489029 
L 734.41041 197.466738 
L 735.877854 204.046524 
L 737.345298 198.218621 
L 738.812742 184.042633 
L 740.280186 196.830496 
L 741.74763 198.418777 
L 743.215074 207.57985 
L 744.682518 206.827838 
L 747.617406 204.822915 
L 749.08485 176.469519 
L 750.552294 177.360758 
L 752.019738 206.016573 
L 753.487182 214.170617 
L 754.954626 216.487838 
L 756.42207 200.255123 
L 757.889514 194.697104 
L 759.356958 190.560394 
L 760.824402 190.614557 
L 762.291846 195.042392 
L 763.759289 188.345967 
L 766.694177 202.191925 
L 768.161621 205.515836 
L 769.629065 199.712942 
L 771.096509 206.130732 
L 772.563953 215.557918 
L 774.031397 211.726082 
L 775.498841 210.629019 
L 776.966285 213.02365 
L 778.433729 198.761154 
L 779.901173 210.02369 
L 781.368617 197.03267 
L 782.836061 198.173774 
L 784.303505 198.991887 
L 785.770949 208.162882 
L 787.238393 215.932298 
L 788.705837 207.107657 
L 790.173281 212.295404 
L 791.640725 210.737707 
L 793.108169 214.978498 
L 794.575613 211.800769 
L 796.043057 219.578398 
L 797.510501 214.851961 
L 798.977945 214.390204 
L 800.445389 208.322247 
L 801.912833 205.118743 
L 803.380277 214.028623 
L 804.847721 217.653783 
L 806.315165 213.977122 
L 807.782609 218.946567 
L 809.250053 213.88603 
L 810.717497 218.564098 
L 812.184941 215.511839 
L 813.652385 217.691243 
L 815.119829 217.618926 
L 816.587273 220.031505 
L 816.587273 220.031505 
" clip-path="url(#p931f8a34dc)" style="fill: none; stroke: #ff7f0e; stroke-width: 1.2; stroke-linecap: square"/>
   </g>
   <g id="line2d_16">
    <path d="M 84.332727 221.247887 
L 85.800171 233.122139 
L 87.267615 225.037711 
L 88.735059 233.78623 
L 90.202503 230.240779 
L 91.669947 228.91116 
L 93.137391 228.700826 
L 94.604835 229.404215 
L 96.072279 236.078182 
L 97.539723 220.771564 
L 99.007167 236.078182 
L 100.474611 228.406686 
L 101.942055 226.146915 
L 103.409499 222.806477 
L 104.876943 223.691524 
L 106.344387 222.166733 
L 107.811831 225.366297 
L 109.279275 221.900794 
L 110.746719 226.100408 
L 112.214163 218.396523 
L 113.681607 209.411728 
L 115.149051 203.940603 
L 116.616495 210.658372 
L 118.083939 219.556773 
L 119.551383 222.107146 
L 121.018827 219.539661 
L 122.486271 217.76074 
L 123.953715 214.819561 
L 125.421159 223.247825 
L 126.888603 221.212383 
L 128.356047 220.973677 
L 129.823491 211.177952 
L 131.290935 204.855571 
L 132.758379 190.621334 
L 134.225823 201.427331 
L 135.693267 207.149771 
L 137.160711 185.448594 
L 140.095598 71.439846 
L 141.563042 117.221264 
L 143.030486 193.371038 
L 144.49793 216.396767 
L 145.965374 223.803469 
L 147.432818 225.779941 
L 148.900262 221.253791 
L 150.367706 222.273624 
L 151.83515 216.342811 
L 153.302594 213.316543 
L 156.237482 202.917399 
L 157.704926 207.533086 
L 160.639814 226.243617 
L 162.107258 222.096582 
L 163.574702 221.845023 
L 165.042146 221.012472 
L 166.50959 217.067301 
L 167.977034 220.452894 
L 169.444478 210.071894 
L 170.911922 219.066343 
L 172.379366 218.367019 
L 173.84681 221.039193 
L 175.314254 223.151388 
L 176.781698 219.806167 
L 178.249142 224.289267 
L 179.716586 223.004456 
L 181.18403 228.546563 
L 182.651474 220.20389 
L 184.118918 221.988223 
L 185.586362 192.7391 
L 187.053806 186.359481 
L 188.52125 212.455071 
L 189.988694 217.991438 
L 191.456138 202.912936 
L 192.923582 185.037696 
L 194.391026 133.834785 
L 195.85847 66.018719 
L 197.325914 36.841818 
L 204.663134 36.841818 
L 206.130578 77.458074 
L 207.598021 94.932936 
L 209.065465 134.155512 
L 210.532909 160.324558 
L 213.467797 179.079629 
L 214.935241 193.444059 
L 216.402685 189.620463 
L 217.870129 195.121985 
L 219.337573 203.583059 
L 220.805017 193.853084 
L 222.272461 193.171655 
L 223.739905 195.945221 
L 225.207349 201.688958 
L 226.674793 193.376876 
L 228.142237 188.754699 
L 229.609681 180.182695 
L 231.077125 181.523606 
L 232.544569 178.762481 
L 234.012013 183.086672 
L 235.479457 176.752851 
L 236.946901 182.22911 
L 238.414345 177.988236 
L 239.881789 199.245565 
L 241.349233 209.623556 
L 242.816677 194.515413 
L 244.284121 194.577867 
L 245.751565 187.452466 
L 247.219009 196.373845 
L 248.686453 198.705485 
L 250.153897 197.079417 
L 251.621341 189.382746 
L 253.088785 192.212061 
L 254.556229 180.720922 
L 256.023673 185.789694 
L 258.958561 203.973001 
L 260.426005 194.280884 
L 261.893449 195.143786 
L 263.360893 198.880838 
L 264.828337 209.545631 
L 266.295781 196.555342 
L 267.763225 180.97301 
L 269.230669 204.637282 
L 272.165557 220.193135 
L 273.633001 211.984361 
L 275.100445 219.713672 
L 276.567889 211.041636 
L 278.035332 198.563558 
L 279.502776 218.466102 
L 280.97022 217.816341 
L 282.437664 212.947483 
L 283.905108 204.190287 
L 285.372552 118.020001 
L 286.839996 51.243015 
L 288.30744 109.073032 
L 289.774884 142.135049 
L 291.242328 188.140608 
M 476.14027 218.447563 
L 477.607714 204.13238 
L 479.075158 199.124565 
L 480.542602 213.609387 
L 482.010046 212.710294 
L 483.47749 207.66747 
L 484.944934 195.66411 
L 486.412377 188.965361 
L 487.879821 178.227261 
L 489.347265 184.38045 
L 490.814709 198.616647 
L 492.282153 206.472331 
L 493.749597 213.392875 
L 495.217041 214.20935 
L 496.684485 221.270816 
L 498.151929 216.251185 
L 499.619373 218.164028 
L 501.086817 213.003915 
L 502.554261 179.479165 
L 504.021705 182.552222 
L 505.489149 208.799914 
L 506.956593 210.323435 
L 508.424037 201.048289 
L 509.891481 187.138031 
L 511.358925 191.646167 
L 512.826369 164.813228 
L 514.293813 213.387537 
L 515.761257 229.003335 
L 517.228701 219.150297 
L 518.696145 187.839008 
L 520.163589 171.086097 
L 521.631033 181.299804 
L 523.098477 208.74372 
L 524.565921 214.60027 
L 526.033365 206.992465 
L 527.500809 192.18446 
L 528.968253 190.50874 
L 530.435697 179.828902 
L 531.903141 179.714619 
L 533.370585 191.318351 
L 534.838029 176.721156 
L 536.305473 191.168331 
L 537.772917 200.50997 
L 539.240361 194.105442 
L 540.707805 196.650633 
L 542.175249 193.574668 
L 543.642693 180.005097 
L 545.110137 196.576409 
L 546.577581 217.023855 
L 548.045025 219.057569 
L 549.512469 219.920148 
L 550.979913 215.822307 
L 552.447357 221.916732 
L 553.914801 218.053731 
L 555.382244 193.492595 
L 556.849688 179.545454 
L 558.317132 185.106602 
L 559.784576 180.327869 
L 561.25202 194.372102 
L 562.719464 198.233137 
L 564.186908 191.594812 
L 565.654352 191.445962 
L 567.121796 188.815887 
L 568.58924 194.665205 
L 570.056684 182.204924 
L 571.524128 210.736306 
L 572.991572 215.907092 
L 574.459016 206.604386 
L 575.92646 195.104715 
L 577.393904 203.289177 
L 578.861348 210.321392 
L 580.328792 209.566252 
L 581.796236 211.362101 
L 583.26368 220.700346 
L 584.731124 221.764863 
L 586.198568 215.907499 
L 587.666012 228.216121 
L 590.6009 194.783612 
L 592.068344 195.703852 
L 593.535788 199.094598 
L 595.003232 196.348547 
L 596.470676 206.059944 
L 597.93812 202.8536 
L 599.405564 201.643574 
L 600.873008 214.64761 
L 602.340452 196.765213 
L 603.807896 188.450325 
L 605.27534 190.40707 
L 606.742784 201.93956 
L 608.210228 191.417758 
L 609.677672 143.136392 
L 611.145116 60.357121 
L 612.61256 52.122886 
L 614.080004 136.178668 
L 615.547448 176.848117 
L 617.014892 186.083016 
L 618.482336 193.773122 
L 619.94978 191.817938 
L 621.417224 192.722545 
L 622.884668 196.031299 
L 624.352111 195.424559 
L 625.819555 193.661709 
L 627.286999 201.729057 
L 628.754443 190.934416 
L 630.221887 191.830873 
L 631.689331 189.600634 
L 633.156775 199.0812 
L 634.624219 191.193958 
L 636.091663 192.769174 
L 637.559107 208.68309 
L 639.026551 217.113399 
L 640.493995 202.001179 
L 641.961439 193.694166 
L 643.428883 176.433075 
L 644.896327 184.034208 
L 646.363771 192.36925 
L 647.831215 196.177294 
L 649.298659 191.607367 
L 650.766103 192.81233 
L 652.233547 205.956301 
L 653.700991 194.345227 
L 655.168435 198.137654 
L 656.635879 195.004741 
L 658.103323 196.854277 
L 659.570767 193.224847 
L 661.038211 191.701562 
L 662.505655 193.602712 
L 663.973099 188.513557 
L 665.440543 189.071137 
L 666.907987 190.354738 
L 668.375431 200.372454 
L 669.842875 220.116197 
L 671.310319 201.634656 
L 672.777763 188.068176 
L 674.245207 189.168489 
L 675.712651 195.194476 
L 677.180095 171.986198 
L 678.647539 173.186136 
L 680.114983 148.20985 
L 681.582427 135.279051 
L 683.049871 144.550833 
L 684.517315 157.044454 
L 685.984759 166.409127 
L 687.452203 158.945948 
L 688.919647 160.946579 
L 690.387091 158.266263 
L 691.854535 182.52947 
L 693.321979 187.701459 
L 694.789422 207.138946 
L 696.256866 215.948108 
L 697.72431 187.861006 
L 699.191754 191.458518 
L 700.659198 192.466495 
L 702.126642 196.742163 
L 703.594086 186.582115 
L 705.06153 189.947179 
L 706.528974 193.690281 
L 707.996418 189.153236 
L 709.463862 201.202577 
L 710.931306 203.19327 
L 712.39875 198.640358 
L 713.866194 204.981711 
L 715.333638 195.024196 
L 716.801082 200.913787 
L 718.268526 197.230031 
L 719.73597 202.253417 
L 721.203414 200.346307 
L 722.670858 209.84716 
L 724.138302 193.991229 
L 725.605746 194.710936 
L 727.07319 198.160154 
L 728.540634 189.053478 
L 730.008078 189.113466 
L 731.475522 200.12029 
L 732.942966 189.998201 
L 734.41041 189.793004 
L 735.877854 195.522155 
L 737.345298 199.541455 
L 738.812742 191.23411 
L 740.280186 197.082599 
L 741.74763 202.453037 
L 743.215074 214.887119 
L 744.682518 212.951952 
L 746.149962 219.345755 
L 747.617406 206.27431 
L 749.08485 204.545318 
L 750.552294 199.86851 
L 753.487182 220.911053 
L 754.954626 219.41232 
L 756.42207 199.46176 
L 757.889514 190.434308 
L 759.356958 191.012688 
L 760.824402 193.356713 
L 762.291846 192.844431 
L 763.759289 178.006003 
L 765.226733 177.305534 
L 766.694177 175.78331 
L 768.161621 195.044155 
L 769.629065 209.088325 
L 771.096509 209.151828 
L 772.563953 217.729663 
L 774.031397 221.131232 
L 775.498841 214.636101 
L 776.966285 215.665707 
L 778.433729 202.562276 
L 779.901173 206.161571 
L 781.368617 199.420638 
L 782.836061 198.420989 
L 784.303505 202.001876 
L 785.770949 214.626718 
L 787.238393 225.422143 
L 788.705837 226.547499 
L 790.173281 226.496688 
L 791.640725 231.312326 
L 793.108169 227.899316 
L 794.575613 220.98497 
L 796.043057 230.029828 
L 797.510501 223.245214 
L 798.977945 225.938852 
L 800.445389 222.622966 
L 801.912833 223.122351 
L 803.380277 226.845072 
L 804.847721 236.078182 
L 806.315165 219.240136 
L 807.782609 224.435551 
L 809.250053 227.443387 
L 810.717497 236.078182 
L 813.652385 236.078182 
L 815.119829 231.689123 
L 816.587273 236.078182 
L 816.587273 236.078182 
" clip-path="url(#p931f8a34dc)" style="fill: none; stroke: #9467bd; stroke-width: 1.2; stroke-linecap: square"/>
   </g>
   <g id="line2d_17">
    <path d="M 84.332727 188.169402 
L 85.800171 219.929777 
L 87.267615 191.741977 
L 88.735059 206.859022 
L 90.202503 212.644324 
L 91.669947 208.322847 
L 93.137391 208.06234 
L 94.604835 208.225603 
L 96.072279 216.055113 
L 97.539723 206.529767 
L 99.007167 213.393201 
L 100.474611 207.099372 
L 101.942055 212.236105 
L 103.409499 197.866025 
L 104.876943 200.875333 
L 106.344387 204.755694 
L 107.811831 204.427545 
L 109.279275 193.882047 
L 110.746719 203.646791 
L 112.214163 204.241986 
L 113.681607 195.647918 
L 115.149051 194.442065 
L 116.616495 196.482061 
L 118.083939 202.300975 
L 119.551383 210.952763 
L 121.018827 209.038234 
L 122.486271 189.851349 
L 123.953715 188.500876 
L 125.421159 203.185619 
L 126.888603 203.204883 
L 128.356047 203.817981 
L 129.823491 197.468253 
L 131.290935 187.110907 
L 132.758379 168.352194 
L 134.225823 181.471425 
L 135.693267 180.130444 
L 137.160711 165.673533 
L 138.628154 109.200316 
L 140.095598 44.210274 
L 141.563042 79.164293 
L 143.030486 134.02453 
L 144.49793 178.260804 
L 145.965374 202.13351 
L 147.432818 189.113805 
L 148.900262 192.821855 
L 150.367706 183.68697 
L 151.83515 187.286516 
L 153.302594 185.85095 
L 154.770038 172.967109 
L 156.237482 157.064639 
L 157.704926 178.040606 
L 159.17237 178.286341 
L 160.639814 197.565967 
L 162.107258 193.150199 
L 163.574702 196.561444 
L 165.042146 198.153666 
L 166.50959 205.627094 
L 167.977034 200.12057 
L 169.444478 191.532817 
L 170.911922 206.257925 
L 172.379366 206.717396 
L 173.84681 201.698682 
L 175.314254 198.515555 
L 176.781698 188.656041 
L 178.249142 197.260317 
L 179.716586 203.978021 
L 181.18403 199.442203 
L 184.118918 166.548089 
L 185.586362 144.820807 
L 187.053806 113.614007 
L 188.52125 158.836035 
L 189.988694 172.491875 
L 191.456138 146.42561 
L 192.923582 149.327024 
L 194.391026 66.270164 
L 195.85847 55.825058 
L 197.325914 36.841818 
L 203.19569 36.841818 
L 204.663134 52.59673 
L 206.130578 80.386265 
L 207.598021 74.475727 
L 209.065465 103.2264 
L 210.532909 122.615711 
L 212.000353 116.745101 
L 213.467797 147.367076 
L 214.935241 165.359906 
L 216.402685 159.081912 
L 217.870129 163.437423 
L 219.337573 184.091417 
L 220.805017 171.766949 
L 222.272461 178.159286 
L 223.739905 176.816948 
L 225.207349 185.861202 
L 226.674793 175.205063 
L 228.142237 168.752119 
L 229.609681 159.370108 
L 231.077125 170.382932 
L 232.544569 168.505049 
L 234.012013 183.272101 
L 235.479457 171.142645 
L 236.946901 177.783995 
L 238.414345 171.789942 
L 239.881789 177.761463 
L 241.349233 198.012837 
L 242.816677 180.997391 
L 244.284121 169.639888 
L 245.751565 153.745116 
L 247.219009 178.250051 
L 248.686453 179.848937 
L 250.153897 179.08549 
L 251.621341 167.261518 
L 253.088785 178.244332 
L 254.556229 166.130511 
L 256.023673 164.344957 
L 257.491117 179.400337 
L 258.958561 185.930718 
L 260.426005 180.092873 
L 261.893449 182.482207 
L 263.360893 193.631305 
L 264.828337 202.975509 
L 266.295781 190.940064 
L 267.763225 187.651129 
L 269.230669 202.151897 
L 270.698113 201.014982 
L 272.165557 194.74015 
L 273.633001 191.716979 
L 275.100445 182.480231 
L 276.567889 197.273393 
L 278.035332 177.573074 
L 279.502776 204.983605 
L 280.97022 191.429356 
L 282.437664 184.087004 
L 283.905108 181.638814 
L 285.372552 156.671067 
L 286.839996 126.952458 
L 288.30744 175.759984 
L 289.774884 202.047846 
L 291.242328 216.228604 
M 476.14027 228.583541 
L 477.607714 203.011747 
L 479.075158 202.263437 
L 480.542602 213.599907 
L 482.010046 215.053187 
L 483.47749 205.246244 
L 484.944934 192.587532 
L 486.412377 203.769684 
L 487.879821 201.261217 
L 489.347265 183.184993 
L 490.814709 208.796449 
L 492.282153 219.655507 
L 493.749597 225.403 
L 495.217041 226.928818 
L 496.684485 231.002554 
L 498.151929 229.765757 
L 499.619373 236.078182 
L 501.086817 213.955418 
L 502.554261 199.891393 
L 504.021705 201.597447 
L 505.489149 211.266435 
L 506.956593 212.732261 
L 508.424037 214.417142 
L 509.891481 201.335179 
L 511.358925 204.958566 
L 512.826369 203.502542 
L 514.293813 222.406844 
L 515.761257 228.217878 
L 517.228701 218.377756 
L 518.696145 167.577513 
L 520.163589 136.013226 
L 521.631033 145.656422 
L 523.098477 193.406912 
L 524.565921 212.095917 
L 526.033365 201.170939 
L 527.500809 181.735714 
L 528.968253 196.503201 
L 530.435697 173.958952 
L 531.903141 146.60314 
L 533.370585 185.587771 
L 534.838029 173.822475 
L 536.305473 190.803807 
L 537.772917 192.986657 
L 539.240361 193.175121 
L 540.707805 198.656042 
L 543.642693 174.86373 
L 545.110137 165.118339 
L 546.577581 210.418779 
L 548.045025 199.960422 
L 549.512469 211.431268 
L 550.979913 213.899772 
L 552.447357 208.151537 
L 553.914801 212.834861 
L 555.382244 182.18972 
L 556.849688 165.058769 
L 558.317132 165.739173 
L 559.784576 174.656919 
L 561.25202 188.642415 
L 562.719464 194.423177 
L 564.186908 170.655275 
L 565.654352 182.305372 
L 567.121796 173.387249 
L 568.58924 188.140103 
L 570.056684 168.13578 
L 571.524128 197.000634 
L 572.991572 193.613176 
L 574.459016 188.756757 
L 575.92646 173.599902 
L 577.393904 183.155697 
L 578.861348 185.645979 
L 580.328792 194.373237 
L 581.796236 187.970009 
L 583.26368 207.591149 
L 584.731124 205.690758 
L 586.198568 200.357499 
L 587.666012 208.803549 
L 589.133456 199.810085 
L 590.6009 166.329794 
L 592.068344 170.964791 
L 593.535788 187.440327 
L 595.003232 183.467957 
L 596.470676 198.499151 
L 597.93812 190.830117 
L 599.405564 188.968119 
L 600.873008 209.286402 
L 602.340452 185.819268 
L 603.807896 185.784307 
L 605.27534 174.34064 
L 606.742784 193.744832 
L 608.210228 158.864768 
L 609.677672 112.705472 
L 611.145116 36.841818 
L 612.61256 36.841818 
L 614.080004 116.478781 
L 615.547448 139.773428 
L 617.014892 142.49238 
L 618.482336 155.079978 
L 619.94978 164.078232 
L 621.417224 146.629675 
L 622.884668 147.29751 
L 624.352111 159.469644 
L 625.819555 158.916739 
L 627.286999 164.871183 
L 628.754443 143.798795 
L 630.221887 142.226074 
L 631.689331 157.139284 
L 633.156775 180.449389 
L 634.624219 181.920736 
L 636.091663 179.196363 
L 637.559107 200.037683 
L 639.026551 203.248056 
L 640.493995 196.722875 
L 641.961439 191.690425 
L 643.428883 172.55021 
L 644.896327 184.49075 
L 646.363771 189.190389 
L 647.831215 204.663705 
L 649.298659 188.227724 
L 650.766103 186.777692 
L 652.233547 201.592559 
L 653.700991 191.751556 
L 655.168435 192.802144 
L 656.635879 198.052613 
L 658.103323 191.398171 
L 659.570767 180.713827 
L 661.038211 189.834075 
L 662.505655 194.652762 
L 663.973099 183.464608 
L 665.440543 184.428694 
L 666.907987 190.725273 
L 668.375431 197.804034 
L 669.842875 210.083223 
L 671.310319 199.373643 
L 672.777763 184.081118 
L 674.245207 181.310207 
L 675.712651 195.365999 
L 677.180095 168.689282 
L 678.647539 173.506812 
L 680.114983 170.276866 
L 683.049871 146.106599 
L 684.517315 162.855191 
L 685.984759 159.703041 
L 687.452203 164.348002 
L 688.919647 170.369992 
L 690.387091 164.236399 
L 691.854535 176.849269 
L 693.321979 181.871533 
L 694.789422 208.294222 
L 696.256866 217.986016 
L 697.72431 189.068616 
L 699.191754 184.087208 
L 700.659198 177.108665 
L 702.126642 190.096597 
L 703.594086 183.414475 
L 705.06153 185.881857 
L 706.528974 181.019866 
L 707.996418 183.341602 
L 709.463862 191.713527 
L 710.931306 201.779702 
L 712.39875 188.968787 
L 713.866194 198.836397 
L 715.333638 176.859884 
L 716.801082 191.858866 
L 718.268526 185.369924 
L 719.73597 187.12362 
L 721.203414 189.582686 
L 722.670858 197.212443 
L 724.138302 187.680015 
L 725.605746 188.733046 
L 727.07319 196.73189 
L 728.540634 185.367167 
L 730.008078 179.319344 
L 731.475522 189.533457 
L 732.942966 177.23828 
L 734.41041 178.448906 
L 735.877854 182.309663 
L 737.345298 189.346368 
L 738.812742 174.818172 
L 740.280186 193.315584 
L 741.74763 185.515658 
L 743.215074 200.574299 
L 744.682518 205.764646 
L 746.149962 215.41373 
L 747.617406 202.638328 
L 749.08485 197.759422 
L 750.552294 196.154976 
L 752.019738 205.136017 
L 753.487182 210.139479 
L 754.954626 208.150597 
L 757.889514 184.14312 
L 759.356958 190.949569 
L 760.824402 191.629774 
L 762.291846 196.173873 
L 763.759289 182.271747 
L 765.226733 179.709039 
L 766.694177 182.55082 
L 768.161621 202.142691 
L 769.629065 208.111463 
L 771.096509 206.965552 
L 772.563953 209.428828 
L 774.031397 205.795621 
L 775.498841 208.098077 
L 776.966285 208.407298 
L 778.433729 200.979412 
L 779.901173 201.74071 
L 781.368617 194.200088 
L 782.836061 201.573801 
L 784.303505 191.34124 
L 785.770949 206.395905 
L 787.238393 220.286206 
L 788.705837 212.967364 
L 790.173281 211.506126 
L 791.640725 223.36312 
L 793.108169 218.871249 
L 794.575613 205.592608 
L 796.043057 223.776546 
L 797.510501 207.180172 
L 798.977945 215.604151 
L 800.445389 207.078149 
L 801.912833 200.631625 
L 803.380277 206.467761 
L 804.847721 222.38174 
L 806.315165 204.776952 
L 807.782609 208.84828 
L 810.717497 218.419568 
L 812.184941 221.030574 
L 813.652385 224.602059 
L 815.119829 219.309975 
L 816.587273 233.019414 
L 816.587273 233.019414 
" clip-path="url(#p931f8a34dc)" style="fill: none; stroke: #ff1493; stroke-width: 1.2; stroke-linecap: square"/>
   </g>
   <g id="patch_3">
    <path d="M 47.72 246.04 
L 47.72 26.88 
" style="fill: none; stroke: #000000; stroke-width: 0.8; stroke-linejoin: miter; stroke-linecap: square"/>
   </g>
   <g id="patch_4">
    <path d="M 853.2 246.04 
L 853.2 26.88 
" style="fill: none; stroke: #000000; stroke-width: 0.8; stroke-linejoin: miter; stroke-linecap: square"/>
   </g>
   <g id="patch_5">
    <path d="M 47.72 246.04 
L 853.2 246.04 
" style="fill: none; stroke: #000000; stroke-width: 0.8; stroke-linejoin: miter; stroke-linecap: square"/>
   </g>
   <g id="patch_6">
    <path d="M 47.72 26.88 
L 853.2 26.88 
" style="fill: none; stroke: #000000; stroke-width: 0.8; stroke-linejoin: miter; stroke-linecap: square"/>
   </g>
   <g id="text_16">
    <!-- chr16 region 4: old vs DNA+5mC HyenaDNA -->
    <g transform="translate(316.639375 20.88) scale(0.12 -0.12)">
     <defs>
      <path id="DejaVuSans-3a" d="M 750 794 
L 1409 794 
L 1409 0 
L 750 0 
L 750 794 
z
M 750 3309 
L 1409 3309 
L 1409 2516 
L 750 2516 
L 750 3309 
z
" transform="scale(0.015625)"/>
      <path id="DejaVuSans-76" d="M 191 3500 
L 800 3500 
L 1894 563 
L 2988 3500 
L 3597 3500 
L 2284 0 
L 1503 0 
L 191 3500 
z
" transform="scale(0.015625)"/>
      <path id="DejaVuSans-44" d="M 1259 4147 
L 1259 519 
L 2022 519 
Q 2988 519 3436 956 
Q 3884 1394 3884 2338 
Q 3884 3275 3436 3711 
Q 2988 4147 2022 4147 
L 1259 4147 
z
M 628 4666 
L 1925 4666 
Q 3281 4666 3915 4102 
Q 4550 3538 4550 2338 
Q 4550 1131 3912 565 
Q 3275 0 1925 0 
L 628 0 
L 628 4666 
z
" transform="scale(0.015625)"/>
      <path id="DejaVuSans-4e" d="M 628 4666 
L 1478 4666 
L 3547 763 
L 3547 4666 
L 4159 4666 
L 4159 0 
L 3309 0 
L 1241 3903 
L 1241 0 
L 628 0 
L 628 4666 
z
" transform="scale(0.015625)"/>
      <path id="DejaVuSans-41" d="M 2188 4044 
L 1331 1722 
L 3047 1722 
L 2188 4044 
z
M 1831 4666 
L 2547 4666 
L 4325 0 
L 3669 0 
L 3244 1197 
L 1141 1197 
L 716 0 
L 50 0 
L 1831 4666 
z
" transform="scale(0.015625)"/>
      <path id="DejaVuSans-2b" d="M 2944 4013 
L 2944 2272 
L 4684 2272 
L 4684 1741 
L 2944 1741 
L 2944 0 
L 2419 0 
L 2419 1741 
L 678 1741 
L 678 2272 
L 2419 2272 
L 2419 4013 
L 2944 4013 
z
" transform="scale(0.015625)"/>
      <path id="DejaVuSans-35" d="M 691 4666 
L 3169 4666 
L 3169 4134 
L 1269 4134 
L 1269 2991 
Q 1406 3038 1543 3061 
Q 1681 3084 1819 3084 
Q 2600 3084 3056 2656 
Q 3513 2228 3513 1497 
Q 3513 744 3044 326 
Q 2575 -91 1722 -91 
Q 1428 -91 1123 -41 
Q 819 9 494 109 
L 494 744 
Q 775 591 1075 516 
Q 1375 441 1709 441 
Q 2250 441 2565 725 
Q 2881 1009 2881 1497 
Q 2881 1984 2565 2268 
Q 2250 2553 1709 2553 
Q 1456 2553 1204 2497 
Q 953 2441 691 2322 
L 691 4666 
z
" transform="scale(0.015625)"/>
      <path id="DejaVuSans-48" d="M 628 4666 
L 1259 4666 
L 1259 2753 
L 3553 2753 
L 3553 4666 
L 4184 4666 
L 4184 0 
L 3553 0 
L 3553 2222 
L 1259 2222 
L 1259 0 
L 628 0 
L 628 4666 
z
" transform="scale(0.015625)"/>
      <path id="DejaVuSans-79" d="M 2059 -325 
Q 1816 -950 1584 -1140 
Q 1353 -1331 966 -1331 
L 506 -1331 
L 506 -850 
L 844 -850 
Q 1081 -850 1212 -737 
Q 1344 -625 1503 -206 
L 1606 56 
L 191 3500 
L 800 3500 
L 1894 763 
L 2988 3500 
L 3597 3500 
L 2059 -325 
z
" transform="scale(0.015625)"/>
     </defs>
     <use xlink:href="#DejaVuSans-63"/>
     <use xlink:href="#DejaVuSans-68" transform="translate(54.980469 0)"/>
     <use xlink:href="#DejaVuSans-72" transform="translate(118.359375 0)"/>
     <use xlink:href="#DejaVuSans-31" transform="translate(159.472656 0)"/>
     <use xlink:href="#DejaVuSans-36" transform="translate(223.095703 0)"/>
     <use xlink:href="#DejaVuSans-20" transform="translate(286.71875 0)"/>
     <use xlink:href="#DejaVuSans-72" transform="translate(318.505859 0)"/>
     <use xlink:href="#DejaVuSans-65" transform="translate(357.369141 0)"/>
     <use xlink:href="#DejaVuSans-67" transform="translate(418.892578 0)"/>
     <use xlink:href="#DejaVuSans-69" transform="translate(482.369141 0)"/>
     <use xlink:href="#DejaVuSans-6f" transform="translate(510.152344 0)"/>
     <use xlink:href="#DejaVuSans-6e" transform="translate(571.333984 0)"/>
     <use xlink:href="#DejaVuSans-20" transform="translate(634.712891 0)"/>
     <use xlink:href="#DejaVuSans-34" transform="translate(666.5 0)"/>
     <use xlink:href="#DejaVuSans-3a" transform="translate(730.123047 0)"/>
     <use xlink:href="#DejaVuSans-20" transform="translate(763.814453 0)"/>
     <use xlink:href="#DejaVuSans-6f" transform="translate(795.601562 0)"/>
     <use xlink:href="#DejaVuSans-6c" transform="translate(856.783203 0)"/>
     <use xlink:href="#DejaVuSans-64" transform="translate(884.566406 0)"/>
     <use xlink:href="#DejaVuSans-20" transform="translate(948.042969 0)"/>
     <use xlink:href="#DejaVuSans-76" transform="translate(979.830078 0)"/>
     <use xlink:href="#DejaVuSans-73" transform="translate(1039.009766 0)"/>
     <use xlink:href="#DejaVuSans-20" transform="translate(1091.109375 0)"/>
     <use xlink:href="#DejaVuSans-44" transform="translate(1122.896484 0)"/>
     <use xlink:href="#DejaVuSans-4e" transform="translate(1199.898438 0)"/>
     <use xlink:href="#DejaVuSans-41" transform="translate(1274.703125 0)"/>
     <use xlink:href="#DejaVuSans-2b" transform="translate(1343.111328 0)"/>
     <use xlink:href="#DejaVuSans-35" transform="translate(1426.900391 0)"/>
     <use xlink:href="#DejaVuSans-6d" transform="translate(1490.523438 0)"/>
     <use xlink:href="#DejaVuSans-43" transform="translate(1587.935547 0)"/>
     <use xlink:href="#DejaVuSans-20" transform="translate(1657.759766 0)"/>
     <use xlink:href="#DejaVuSans-48" transform="translate(1689.546875 0)"/>
     <use xlink:href="#DejaVuSans-79" transform="translate(1764.742188 0)"/>
     <use xlink:href="#DejaVuSans-65" transform="translate(1823.921875 0)"/>
     <use xlink:href="#DejaVuSans-6e" transform="translate(1885.445312 0)"/>
     <use xlink:href="#DejaVuSans-61" transform="translate(1948.824219 0)"/>
     <use xlink:href="#DejaVuSans-44" transform="translate(2010.103516 0)"/>
     <use xlink:href="#DejaVuSans-4e" transform="translate(2087.105469 0)"/>
     <use xlink:href="#DejaVuSans-41" transform="translate(2161.910156 0)"/>
    </g>
   </g>
   <g id="legend_1">
    <g id="patch_7">
     <path d="M 573.38125 68.5075 
L 847.6 68.5075 
Q 849.2 68.5075 849.2 66.9075 
L 849.2 32.48 
Q 849.2 30.88 847.6 30.88 
L 573.38125 30.88 
Q 571.78125 30.88 571.78125 32.48 
L 571.78125 66.9075 
Q 571.78125 68.5075 573.38125 68.5075 
z
" style="fill: #ffffff; opacity: 0.8; stroke: #cccccc; stroke-linejoin: miter"/>
    </g>
    <g id="line2d_18">
     <path d="M 574.98125 37.35875 
L 582.98125 37.35875 
L 590.98125 37.35875 
" style="fill: none; stroke: #2ca02c; stroke-width: 1.2; stroke-linecap: square"/>
    </g>
    <g id="text_17">
     <!-- ENCODE A549 H3K4me3 -->
     <g transform="translate(597.38125 40.15875) scale(0.08 -0.08)">
      <defs>
       <path id="DejaVuSans-45" d="M 628 4666 
L 3578 4666 
L 3578 4134 
L 1259 4134 
L 1259 2753 
L 3481 2753 
L 3481 2222 
L 1259 2222 
L 1259 531 
L 3634 531 
L 3634 0 
L 628 0 
L 628 4666 
z
" transform="scale(0.015625)"/>
       <path id="DejaVuSans-4f" d="M 2522 4238 
Q 1834 4238 1429 3725 
Q 1025 3213 1025 2328 
Q 1025 1447 1429 934 
Q 1834 422 2522 422 
Q 3209 422 3611 934 
Q 4013 1447 4013 2328 
Q 4013 3213 3611 3725 
Q 3209 4238 2522 4238 
z
M 2522 4750 
Q 3503 4750 4090 4092 
Q 4678 3434 4678 2328 
Q 4678 1225 4090 567 
Q 3503 -91 2522 -91 
Q 1538 -91 948 565 
Q 359 1222 359 2328 
Q 359 3434 948 4092 
Q 1538 4750 2522 4750 
z
" transform="scale(0.015625)"/>
       <path id="DejaVuSans-39" d="M 703 97 
L 703 672 
Q 941 559 1184 500 
Q 1428 441 1663 441 
Q 2288 441 2617 861 
Q 2947 1281 2994 2138 
Q 2813 1869 2534 1725 
Q 2256 1581 1919 1581 
Q 1219 1581 811 2004 
Q 403 2428 403 3163 
Q 403 3881 828 4315 
Q 1253 4750 1959 4750 
Q 2769 4750 3195 4129 
Q 3622 3509 3622 2328 
Q 3622 1225 3098 567 
Q 2575 -91 1691 -91 
Q 1453 -91 1209 -44 
Q 966 3 703 97 
z
M 1959 2075 
Q 2384 2075 2632 2365 
Q 2881 2656 2881 3163 
Q 2881 3666 2632 3958 
Q 2384 4250 1959 4250 
Q 1534 4250 1286 3958 
Q 1038 3666 1038 3163 
Q 1038 2656 1286 2365 
Q 1534 2075 1959 2075 
z
" transform="scale(0.015625)"/>
       <path id="DejaVuSans-4b" d="M 628 4666 
L 1259 4666 
L 1259 2694 
L 3353 4666 
L 4166 4666 
L 1850 2491 
L 4331 0 
L 3500 0 
L 1259 2247 
L 1259 0 
L 628 0 
L 628 4666 
z
" transform="scale(0.015625)"/>
      </defs>
      <use xlink:href="#DejaVuSans-45"/>
      <use xlink:href="#DejaVuSans-4e" transform="translate(63.183594 0)"/>
      <use xlink:href="#DejaVuSans-43" transform="translate(137.988281 0)"/>
      <use xlink:href="#DejaVuSans-4f" transform="translate(207.8125 0)"/>
      <use xlink:href="#DejaVuSans-44" transform="translate(286.523438 0)"/>
      <use xlink:href="#DejaVuSans-45" transform="translate(363.525391 0)"/>
      <use xlink:href="#DejaVuSans-20" transform="translate(426.708984 0)"/>
      <use xlink:href="#DejaVuSans-41" transform="translate(458.496094 0)"/>
      <use xlink:href="#DejaVuSans-35" transform="translate(526.904297 0)"/>
      <use xlink:href="#DejaVuSans-34" transform="translate(590.527344 0)"/>
      <use xlink:href="#DejaVuSans-39" transform="translate(654.150391 0)"/>
      <use xlink:href="#DejaVuSans-20" transform="translate(717.773438 0)"/>
      <use xlink:href="#DejaVuSans-48" transform="translate(749.560547 0)"/>
      <use xlink:href="#DejaVuSans-33" transform="translate(824.755859 0)"/>
      <use xlink:href="#DejaVuSans-4b" transform="translate(888.378906 0)"/>
      <use xlink:href="#DejaVuSans-34" transform="translate(953.955078 0)"/>
      <use xlink:href="#DejaVuSans-6d" transform="translate(1017.578125 0)"/>
      <use xlink:href="#DejaVuSans-65" transform="translate(1114.990234 0)"/>
      <use xlink:href="#DejaVuSans-33" transform="translate(1176.513672 0)"/>
     </g>
    </g>
    <g id="line2d_19">
     <path d="M 574.98125 49.10125 
L 582.98125 49.10125 
L 590.98125 49.10125 
" style="fill: none; stroke: #000000; stroke-width: 1.2; stroke-linecap: square"/>
    </g>
    <g id="text_18">
     <!-- AlphaGenome A549 H3K4me3 -->
     <g transform="translate(597.38125 51.90125) scale(0.08 -0.08)">
      <defs>
       <path id="DejaVuSans-70" d="M 1159 525 
L 1159 -1331 
L 581 -1331 
L 581 3500 
L 1159 3500 
L 1159 2969 
Q 1341 3281 1617 3432 
Q 1894 3584 2278 3584 
Q 2916 3584 3314 3078 
Q 3713 2572 3713 1747 
Q 3713 922 3314 415 
Q 2916 -91 2278 -91 
Q 1894 -91 1617 61 
Q 1341 213 1159 525 
z
M 3116 1747 
Q 3116 2381 2855 2742 
Q 2594 3103 2138 3103 
Q 1681 3103 1420 2742 
Q 1159 2381 1159 1747 
Q 1159 1113 1420 752 
Q 1681 391 2138 391 
Q 2594 391 2855 752 
Q 3116 1113 3116 1747 
z
" transform="scale(0.015625)"/>
      </defs>
      <use xlink:href="#DejaVuSans-41"/>
      <use xlink:href="#DejaVuSans-6c" transform="translate(68.408203 0)"/>
      <use xlink:href="#DejaVuSans-70" transform="translate(96.191406 0)"/>
      <use xlink:href="#DejaVuSans-68" transform="translate(159.667969 0)"/>
      <use xlink:href="#DejaVuSans-61" transform="translate(223.046875 0)"/>
      <use xlink:href="#DejaVuSans-47" transform="translate(284.326172 0)"/>
      <use xlink:href="#DejaVuSans-65" transform="translate(361.816406 0)"/>
      <use xlink:href="#DejaVuSans-6e" transform="translate(423.339844 0)"/>
      <use xlink:href="#DejaVuSans-6f" transform="translate(486.71875 0)"/>
      <use xlink:href="#DejaVuSans-6d" transform="translate(547.900391 0)"/>
      <use xlink:href="#DejaVuSans-65" transform="translate(645.3125 0)"/>
      <use xlink:href="#DejaVuSans-20" transform="translate(706.835938 0)"/>
      <use xlink:href="#DejaVuSans-41" transform="translate(738.623047 0)"/>
      <use xlink:href="#DejaVuSans-35" transform="translate(807.03125 0)"/>
      <use xlink:href="#DejaVuSans-34" transform="translate(870.654297 0)"/>
      <use xlink:href="#DejaVuSans-39" transform="translate(934.277344 0)"/>
      <use xlink:href="#DejaVuSans-20" transform="translate(997.900391 0)"/>
      <use xlink:href="#DejaVuSans-48" transform="translate(1029.6875 0)"/>
      <use xlink:href="#DejaVuSans-33" transform="translate(1104.882812 0)"/>
      <use xlink:href="#DejaVuSans-4b" transform="translate(1168.505859 0)"/>
      <use xlink:href="#DejaVuSans-34" transform="translate(1234.082031 0)"/>
      <use xlink:href="#DejaVuSans-6d" transform="translate(1297.705078 0)"/>
      <use xlink:href="#DejaVuSans-65" transform="translate(1395.117188 0)"/>
      <use xlink:href="#DejaVuSans-33" transform="translate(1456.640625 0)"/>
     </g>
    </g>
    <g id="line2d_20">
     <path d="M 574.98125 60.84375 
L 582.98125 60.84375 
L 590.98125 60.84375 
" style="fill: none; stroke: #ff7f0e; stroke-width: 1.2; stroke-linecap: square"/>
    </g>
    <g id="text_19">
     <!-- DiMeLo observed 6mA -->
     <g transform="translate(597.38125 63.64375) scale(0.08 -0.08)">
      <defs>
       <path id="DejaVuSans-4d" d="M 628 4666 
L 1569 4666 
L 2759 1491 
L 3956 4666 
L 4897 4666 
L 4897 0 
L 4281 0 
L 4281 4097 
L 3078 897 
L 2444 897 
L 1241 4097 
L 1241 0 
L 628 0 
L 628 4666 
z
" transform="scale(0.015625)"/>
       <path id="DejaVuSans-4c" d="M 628 4666 
L 1259 4666 
L 1259 531 
L 3531 531 
L 3531 0 
L 628 0 
L 628 4666 
z
" transform="scale(0.015625)"/>
      </defs>
      <use xlink:href="#DejaVuSans-44"/>
      <use xlink:href="#DejaVuSans-69" transform="translate(77.001953 0)"/>
      <use xlink:href="#DejaVuSans-4d" transform="translate(104.785156 0)"/>
      <use xlink:href="#DejaVuSans-65" transform="translate(191.064453 0)"/>
      <use xlink:href="#DejaVuSans-4c" transform="translate(252.587891 0)"/>
      <use xlink:href="#DejaVuSans-6f" transform="translate(306.550781 0)"/>
      <use xlink:href="#DejaVuSans-20" transform="translate(367.732422 0)"/>
      <use xlink:href="#DejaVuSans-6f" transform="translate(399.519531 0)"/>
      <use xlink:href="#DejaVuSans-62" transform="translate(460.701172 0)"/>
      <use xlink:href="#DejaVuSans-73" transform="translate(524.177734 0)"/>
      <use xlink:href="#DejaVuSans-65" transform="translate(576.277344 0)"/>
      <use xlink:href="#DejaVuSans-72" transform="translate(637.800781 0)"/>
      <use xlink:href="#DejaVuSans-76" transform="translate(678.914062 0)"/>
      <use xlink:href="#DejaVuSans-65" transform="translate(738.09375 0)"/>
      <use xlink:href="#DejaVuSans-64" transform="translate(799.617188 0)"/>
      <use xlink:href="#DejaVuSans-20" transform="translate(863.09375 0)"/>
      <use xlink:href="#DejaVuSans-36" transform="translate(894.880859 0)"/>
      <use xlink:href="#DejaVuSans-6d" transform="translate(958.503906 0)"/>
      <use xlink:href="#DejaVuSans-41" transform="translate(1055.916016 0)"/>
     </g>
    </g>
    <g id="line2d_21">
     <path d="M 735.00375 37.35875 
L 743.00375 37.35875 
L 751.00375 37.35875 
" style="fill: none; stroke: #9467bd; stroke-width: 1.2; stroke-linecap: square"/>
    </g>
    <g id="text_20">
     <!-- HyenaDNA old -->
     <g transform="translate(757.40375 40.15875) scale(0.08 -0.08)">
      <use xlink:href="#DejaVuSans-48"/>
      <use xlink:href="#DejaVuSans-79" transform="translate(75.195312 0)"/>
      <use xlink:href="#DejaVuSans-65" transform="translate(134.375 0)"/>
      <use xlink:href="#DejaVuSans-6e" transform="translate(195.898438 0)"/>
      <use xlink:href="#DejaVuSans-61" transform="translate(259.277344 0)"/>
      <use xlink:href="#DejaVuSans-44" transform="translate(320.556641 0)"/>
      <use xlink:href="#DejaVuSans-4e" transform="translate(397.558594 0)"/>
      <use xlink:href="#DejaVuSans-41" transform="translate(472.363281 0)"/>
      <use xlink:href="#DejaVuSans-20" transform="translate(540.771484 0)"/>
      <use xlink:href="#DejaVuSans-6f" transform="translate(572.558594 0)"/>
      <use xlink:href="#DejaVuSans-6c" transform="translate(633.740234 0)"/>
      <use xlink:href="#DejaVuSans-64" transform="translate(661.523438 0)"/>
     </g>
    </g>
    <g id="line2d_22">
     <path d="M 735.00375 49.10125 
L 743.00375 49.10125 
L 751.00375 49.10125 
" style="fill: none; stroke: #ff1493; stroke-width: 1.2; stroke-linecap: square"/>
    </g>
    <g id="text_21">
     <!-- HyenaDNA DNA+5mC -->
     <g transform="translate(757.40375 51.90125) scale(0.08 -0.08)">
      <use xlink:href="#DejaVuSans-48"/>
      <use xlink:href="#DejaVuSans-79" transform="translate(75.195312 0)"/>
      <use xlink:href="#DejaVuSans-65" transform="translate(134.375 0)"/>
      <use xlink:href="#DejaVuSans-6e" transform="translate(195.898438 0)"/>
      <use xlink:href="#DejaVuSans-61" transform="translate(259.277344 0)"/>
      <use xlink:href="#DejaVuSans-44" transform="translate(320.556641 0)"/>
      <use xlink:href="#DejaVuSans-4e" transform="translate(397.558594 0)"/>
      <use xlink:href="#DejaVuSans-41" transform="translate(472.363281 0)"/>
      <use xlink:href="#DejaVuSans-20" transform="translate(540.771484 0)"/>
      <use xlink:href="#DejaVuSans-44" transform="translate(572.558594 0)"/>
      <use xlink:href="#DejaVuSans-4e" transform="translate(649.560547 0)"/>
      <use xlink:href="#DejaVuSans-41" transform="translate(724.365234 0)"/>
      <use xlink:href="#DejaVuSans-2b" transform="translate(792.773438 0)"/>
      <use xlink:href="#DejaVuSans-35" transform="translate(876.5625 0)"/>
      <use xlink:href="#DejaVuSans-6d" transform="translate(940.185547 0)"/>
      <use xlink:href="#DejaVuSans-43" transform="translate(1037.597656 0)"/>
     </g>
    </g>
   </g>
  </g>
 </g>
 <defs>
  <clipPath id="p931f8a34dc">
   <rect x="47.72" y="26.88" width="805.48" height="219.16"/>
  </clipPath>
 </defs>
</svg>
