<?xml version="1.0" encoding="utf-8" standalone="no"?>
<!DOCTYPE svg PUBLIC "-//W3C//DTD SVG 1.1//EN"
  "http://www.w3.org/Graphics/SVG/1.1/DTD/svg11.dtd">
<svg xmlns:xlink="http://www.w3.org/1999/xlink" width="936pt" height="360pt" viewBox="0 0 936 360" xmlns="http://www.w3.org/2000/svg" version="1.1">
 <metadata>
  <rdf:RDF xmlns:dc="http://purl.org/dc/elements/1.1/" xmlns:cc="http://creativecommons.org/ns#" xmlns:rdf="http://www.w3.org/1999/02/22-rdf-syntax-ns#">
   <cc:Work>
    <dc:type rdf:resource="http://purl.org/dc/dcmitype/StillImage"/>
    <dc:date>2026-07-10T12:48:49.714549</dc:date>
    <dc:format>image/svg+xml</dc:format>
    <dc:creator>
     <cc:Agent>
      <dc:title>Matplotlib v3.11.0, https://matplotlib.org/</dc:title>
     </cc:Agent>
    </dc:creator>
   </cc:Work>
  </rdf:RDF>
 </metadata>
 <defs>
  <style type="text/css">*{stroke-linejoin: round; stroke-linecap: butt}</style>
 </defs>
 <g id="figure_1">
  <g id="patch_1">
   <path d="M 0 360 
L 936 360 
L 936 0 
L 0 0 
z
" style="fill: #ffffff"/>
  </g>
  <g id="axes_1">
   <g id="patch_2">
    <path d="M 47.962344 317.877656 
L 925.2 317.877656 
L 925.2 50.890312 
L 47.962344 50.890312 
z
" style="fill: #ffffff"/>
   </g>
   <g id="matplotlib.axis_1">
    <g id="xtick_1">
     <g id="line2d_1">
      <defs>
       <path id="mfcd327565d" d="M 0 0 
L 0 3.5 
" style="stroke: #000000; stroke-width: 0.8"/>
      </defs>
      <g>
       <use xlink:href="#mfcd327565d" x="87.037696" y="317.877656" style="stroke: #000000; stroke-width: 0.8"/>
      </g>
     </g>
     <g id="text_1">
      <!-- 3.090 -->
      <g transform="translate(72.723633 332.475312) scale(0.1 -0.1)">
       <defs>
        <path id="DejaVuSans-16" d="M 2597 2516 
Q 3050 2419 3304 2112 
Q 3559 1806 3559 1356 
Q 3559 666 3084 287 
Q 2609 -91 1734 -91 
Q 1441 -91 1130 -33 
Q 819 25 488 141 
L 488 750 
Q 750 597 1062 519 
Q 1375 441 1716 441 
Q 2309 441 2620 675 
Q 2931 909 2931 1356 
Q 2931 1769 2642 2001 
Q 2353 2234 1838 2234 
L 1294 2234 
L 1294 2753 
L 1863 2753 
Q 2328 2753 2575 2939 
Q 2822 3125 2822 3475 
Q 2822 3834 2567 4026 
Q 2313 4219 1838 4219 
Q 1578 4219 1281 4162 
Q 984 4106 628 3988 
L 628 4550 
Q 988 4650 1302 4700 
Q 1616 4750 1894 4750 
Q 2613 4750 3031 4423 
Q 3450 4097 3450 3541 
Q 3450 3153 3228 2886 
Q 3006 2619 2597 2516 
z
" transform="scale(0.015625)"/>
        <path id="DejaVuSans-11" d="M 684 794 
L 1344 794 
L 1344 0 
L 684 0 
L 684 794 
z
" transform="scale(0.015625)"/>
        <path id="DejaVuSans-13" d="M 2034 4250 
Q 1547 4250 1301 3770 
Q 1056 3291 1056 2328 
Q 1056 1369 1301 889 
Q 1547 409 2034 409 
Q 2525 409 2770 889 
Q 3016 1369 3016 2328 
Q 3016 3291 2770 3770 
Q 2525 4250 2034 4250 
z
M 2034 4750 
Q 2819 4750 3233 4129 
Q 3647 3509 3647 2328 
Q 3647 1150 3233 529 
Q 2819 -91 2034 -91 
Q 1250 -91 836 529 
Q 422 1150 422 2328 
Q 422 3509 836 4129 
Q 1250 4750 2034 4750 
z
" transform="scale(0.015625)"/>
        <path id="DejaVuSans-1c" d="M 703 97 
L 703 672 
Q 941 559 1184 500 
Q 1428 441 1663 441 
Q 2288 441 2617 861 
Q 2947 1281 2994 2138 
Q 2813 1869 2534 1725 
Q 2256 1581 1919 1581 
Q 1219 1581 811 2004 
Q 403 2428 403 3163 
Q 403 3881 828 4315 
Q 1253 4750 1959 4750 
Q 2769 4750 3195 4129 
Q 3622 3509 3622 2328 
Q 3622 1225 3098 567 
Q 2575 -91 1691 -91 
Q 1453 -91 1209 -44 
Q 966 3 703 97 
z
M 1959 2075 
Q 2384 2075 2632 2365 
Q 2881 2656 2881 3163 
Q 2881 3666 2632 3958 
Q 2384 4250 1959 4250 
Q 1534 4250 1286 3958 
Q 1038 3666 1038 3163 
Q 1038 2656 1286 2365 
Q 1534 2075 1959 2075 
z
" transform="scale(0.015625)"/>
       </defs>
       <use xlink:href="#DejaVuSans-16"/>
       <use xlink:href="#DejaVuSans-11" transform="translate(63.625 0)"/>
       <use xlink:href="#DejaVuSans-13" transform="translate(95.40625 0)"/>
       <use xlink:href="#DejaVuSans-1c" transform="translate(159.03125 0)"/>
       <use xlink:href="#DejaVuSans-13" transform="translate(222.65625 0)"/>
      </g>
     </g>
    </g>
    <g id="xtick_2">
     <g id="line2d_2">
      <g>
       <use xlink:href="#mfcd327565d" x="246.855086" y="317.877656" style="stroke: #000000; stroke-width: 0.8"/>
      </g>
     </g>
     <g id="text_2">
      <!-- 3.092 -->
      <g transform="translate(232.541024 332.475312) scale(0.1 -0.1)">
       <defs>
        <path id="DejaVuSans-15" d="M 1228 531 
L 3431 531 
L 3431 0 
L 469 0 
L 469 531 
Q 828 903 1448 1529 
Q 2069 2156 2228 2338 
Q 2531 2678 2651 2914 
Q 2772 3150 2772 3378 
Q 2772 3750 2511 3984 
Q 2250 4219 1831 4219 
Q 1534 4219 1204 4116 
Q 875 4013 500 3803 
L 500 4441 
Q 881 4594 1212 4672 
Q 1544 4750 1819 4750 
Q 2544 4750 2975 4387 
Q 3406 4025 3406 3419 
Q 3406 3131 3298 2873 
Q 3191 2616 2906 2266 
Q 2828 2175 2409 1742 
Q 1991 1309 1228 531 
z
" transform="scale(0.015625)"/>
       </defs>
       <use xlink:href="#DejaVuSans-16"/>
       <use xlink:href="#DejaVuSans-11" transform="translate(63.625 0)"/>
       <use xlink:href="#DejaVuSans-13" transform="translate(95.40625 0)"/>
       <use xlink:href="#DejaVuSans-1c" transform="translate(159.03125 0)"/>
       <use xlink:href="#DejaVuSans-15" transform="translate(222.65625 0)"/>
      </g>
     </g>
    </g>
    <g id="xtick_3">
     <g id="line2d_3">
      <g>
       <use xlink:href="#mfcd327565d" x="406.672477" y="317.877656" style="stroke: #000000; stroke-width: 0.8"/>
      </g>
     </g>
     <g id="text_3">
      <!-- 3.094 -->
      <g transform="translate(392.358414 332.475312) scale(0.1 -0.1)">
       <defs>
        <path id="DejaVuSans-17" d="M 2419 4116 
L 825 1625 
L 2419 1625 
L 2419 4116 
z
M 2253 4666 
L 3047 4666 
L 3047 1625 
L 3713 1625 
L 3713 1100 
L 3047 1100 
L 3047 0 
L 2419 0 
L 2419 1100 
L 313 1100 
L 313 1709 
L 2253 4666 
z
" transform="scale(0.015625)"/>
       </defs>
       <use xlink:href="#DejaVuSans-16"/>
       <use xlink:href="#DejaVuSans-11" transform="translate(63.625 0)"/>
       <use xlink:href="#DejaVuSans-13" transform="translate(95.40625 0)"/>
       <use xlink:href="#DejaVuSans-1c" transform="translate(159.03125 0)"/>
       <use xlink:href="#DejaVuSans-17" transform="translate(222.65625 0)"/>
      </g>
     </g>
    </g>
    <g id="xtick_4">
     <g id="line2d_4">
      <g>
       <use xlink:href="#mfcd327565d" x="566.489867" y="317.877656" style="stroke: #000000; stroke-width: 0.8"/>
      </g>
     </g>
     <g id="text_4">
      <!-- 3.096 -->
      <g transform="translate(552.175805 332.475312) scale(0.1 -0.1)">
       <defs>
        <path id="DejaVuSans-19" d="M 2113 2584 
Q 1688 2584 1439 2293 
Q 1191 2003 1191 1497 
Q 1191 994 1439 701 
Q 1688 409 2113 409 
Q 2538 409 2786 701 
Q 3034 994 3034 1497 
Q 3034 2003 2786 2293 
Q 2538 2584 2113 2584 
z
M 3366 4563 
L 3366 3988 
Q 3128 4100 2886 4159 
Q 2644 4219 2406 4219 
Q 1781 4219 1451 3797 
Q 1122 3375 1075 2522 
Q 1259 2794 1537 2939 
Q 1816 3084 2150 3084 
Q 2853 3084 3261 2657 
Q 3669 2231 3669 1497 
Q 3669 778 3244 343 
Q 2819 -91 2113 -91 
Q 1303 -91 875 529 
Q 447 1150 447 2328 
Q 447 3434 972 4092 
Q 1497 4750 2381 4750 
Q 2619 4750 2861 4703 
Q 3103 4656 3366 4563 
z
" transform="scale(0.015625)"/>
       </defs>
       <use xlink:href="#DejaVuSans-16"/>
       <use xlink:href="#DejaVuSans-11" transform="translate(63.625 0)"/>
       <use xlink:href="#DejaVuSans-13" transform="translate(95.40625 0)"/>
       <use xlink:href="#DejaVuSans-1c" transform="translate(159.03125 0)"/>
       <use xlink:href="#DejaVuSans-19" transform="translate(222.65625 0)"/>
      </g>
     </g>
    </g>
    <g id="xtick_5">
     <g id="line2d_5">
      <g>
       <use xlink:href="#mfcd327565d" x="726.307258" y="317.877656" style="stroke: #000000; stroke-width: 0.8"/>
      </g>
     </g>
     <g id="text_5">
      <!-- 3.098 -->
      <g transform="translate(711.993195 332.475312) scale(0.1 -0.1)">
       <defs>
        <path id="DejaVuSans-1b" d="M 2034 2216 
Q 1584 2216 1326 1975 
Q 1069 1734 1069 1313 
Q 1069 891 1326 650 
Q 1584 409 2034 409 
Q 2484 409 2743 651 
Q 3003 894 3003 1313 
Q 3003 1734 2745 1975 
Q 2488 2216 2034 2216 
z
M 1403 2484 
Q 997 2584 770 2862 
Q 544 3141 544 3541 
Q 544 4100 942 4425 
Q 1341 4750 2034 4750 
Q 2731 4750 3128 4425 
Q 3525 4100 3525 3541 
Q 3525 3141 3298 2862 
Q 3072 2584 2669 2484 
Q 3125 2378 3379 2068 
Q 3634 1759 3634 1313 
Q 3634 634 3220 271 
Q 2806 -91 2034 -91 
Q 1263 -91 848 271 
Q 434 634 434 1313 
Q 434 1759 690 2068 
Q 947 2378 1403 2484 
z
M 1172 3481 
Q 1172 3119 1398 2916 
Q 1625 2713 2034 2713 
Q 2441 2713 2670 2916 
Q 2900 3119 2900 3481 
Q 2900 3844 2670 4047 
Q 2441 4250 2034 4250 
Q 1625 4250 1398 4047 
Q 1172 3844 1172 3481 
z
" transform="scale(0.015625)"/>
       </defs>
       <use xlink:href="#DejaVuSans-16"/>
       <use xlink:href="#DejaVuSans-11" transform="translate(63.625 0)"/>
       <use xlink:href="#DejaVuSans-13" transform="translate(95.40625 0)"/>
       <use xlink:href="#DejaVuSans-1c" transform="translate(159.03125 0)"/>
       <use xlink:href="#DejaVuSans-1b" transform="translate(222.65625 0)"/>
      </g>
     </g>
    </g>
    <g id="xtick_6">
     <g id="line2d_6">
      <g>
       <use xlink:href="#mfcd327565d" x="886.124648" y="317.877656" style="stroke: #000000; stroke-width: 0.8"/>
      </g>
     </g>
     <g id="text_6">
      <!-- 3.100 -->
      <g transform="translate(871.810586 332.475312) scale(0.1 -0.1)">
       <defs>
        <path id="DejaVuSans-14" d="M 794 531 
L 1825 531 
L 1825 4091 
L 703 3866 
L 703 4441 
L 1819 4666 
L 2450 4666 
L 2450 531 
L 3481 531 
L 3481 0 
L 794 0 
L 794 531 
z
" transform="scale(0.015625)"/>
       </defs>
       <use xlink:href="#DejaVuSans-16"/>
       <use xlink:href="#DejaVuSans-11" transform="translate(63.625 0)"/>
       <use xlink:href="#DejaVuSans-14" transform="translate(95.40625 0)"/>
       <use xlink:href="#DejaVuSans-13" transform="translate(159.03125 0)"/>
       <use xlink:href="#DejaVuSans-13" transform="translate(222.65625 0)"/>
      </g>
     </g>
    </g>
    <g id="text_7">
     <!-- chr16 coordinate (hg38) -->
     <g transform="translate(425.791328 346.476094) scale(0.1 -0.1)">
      <defs>
       <path id="DejaVuSans-46" d="M 3122 3366 
L 3122 2828 
Q 2878 2963 2633 3030 
Q 2388 3097 2138 3097 
Q 1578 3097 1268 2742 
Q 959 2388 959 1747 
Q 959 1106 1268 751 
Q 1578 397 2138 397 
Q 2388 397 2633 464 
Q 2878 531 3122 666 
L 3122 134 
Q 2881 22 2623 -34 
Q 2366 -91 2075 -91 
Q 1284 -91 818 406 
Q 353 903 353 1747 
Q 353 2603 823 3093 
Q 1294 3584 2113 3584 
Q 2378 3584 2631 3529 
Q 2884 3475 3122 3366 
z
" transform="scale(0.015625)"/>
       <path id="DejaVuSans-4b" d="M 3513 2113 
L 3513 0 
L 2938 0 
L 2938 2094 
Q 2938 2591 2744 2837 
Q 2550 3084 2163 3084 
Q 1697 3084 1428 2787 
Q 1159 2491 1159 1978 
L 1159 0 
L 581 0 
L 581 4863 
L 1159 4863 
L 1159 2956 
Q 1366 3272 1645 3428 
Q 1925 3584 2291 3584 
Q 2894 3584 3203 3211 
Q 3513 2838 3513 2113 
z
" transform="scale(0.015625)"/>
       <path id="DejaVuSans-55" d="M 2631 2963 
Q 2534 3019 2420 3045 
Q 2306 3072 2169 3072 
Q 1681 3072 1420 2755 
Q 1159 2438 1159 1844 
L 1159 0 
L 581 0 
L 581 3500 
L 1159 3500 
L 1159 2956 
Q 1341 3275 1631 3429 
Q 1922 3584 2338 3584 
Q 2397 3584 2469 3576 
Q 2541 3569 2628 3553 
L 2631 2963 
z
" transform="scale(0.015625)"/>
       <path id="DejaVuSans-3" transform="scale(0.015625)"/>
       <path id="DejaVuSans-52" d="M 1959 3097 
Q 1497 3097 1228 2736 
Q 959 2375 959 1747 
Q 959 1119 1226 758 
Q 1494 397 1959 397 
Q 2419 397 2687 759 
Q 2956 1122 2956 1747 
Q 2956 2369 2687 2733 
Q 2419 3097 1959 3097 
z
M 1959 3584 
Q 2709 3584 3137 3096 
Q 3566 2609 3566 1747 
Q 3566 888 3137 398 
Q 2709 -91 1959 -91 
Q 1206 -91 779 398 
Q 353 888 353 1747 
Q 353 2609 779 3096 
Q 1206 3584 1959 3584 
z
" transform="scale(0.015625)"/>
       <path id="DejaVuSans-47" d="M 2906 2969 
L 2906 4863 
L 3481 4863 
L 3481 0 
L 2906 0 
L 2906 525 
Q 2725 213 2448 61 
Q 2172 -91 1784 -91 
Q 1150 -91 751 415 
Q 353 922 353 1747 
Q 353 2572 751 3078 
Q 1150 3584 1784 3584 
Q 2172 3584 2448 3432 
Q 2725 3281 2906 2969 
z
M 947 1747 
Q 947 1113 1208 752 
Q 1469 391 1925 391 
Q 2381 391 2643 752 
Q 2906 1113 2906 1747 
Q 2906 2381 2643 2742 
Q 2381 3103 1925 3103 
Q 1469 3103 1208 2742 
Q 947 2381 947 1747 
z
" transform="scale(0.015625)"/>
       <path id="DejaVuSans-4c" d="M 603 3500 
L 1178 3500 
L 1178 0 
L 603 0 
L 603 3500 
z
M 603 4863 
L 1178 4863 
L 1178 4134 
L 603 4134 
L 603 4863 
z
" transform="scale(0.015625)"/>
       <path id="DejaVuSans-51" d="M 3513 2113 
L 3513 0 
L 2938 0 
L 2938 2094 
Q 2938 2591 2744 2837 
Q 2550 3084 2163 3084 
Q 1697 3084 1428 2787 
Q 1159 2491 1159 1978 
L 1159 0 
L 581 0 
L 581 3500 
L 1159 3500 
L 1159 2956 
Q 1366 3272 1645 3428 
Q 1925 3584 2291 3584 
Q 2894 3584 3203 3211 
Q 3513 2838 3513 2113 
z
" transform="scale(0.015625)"/>
       <path id="DejaVuSans-44" d="M 2194 1759 
Q 1497 1759 1228 1600 
Q 959 1441 959 1056 
Q 959 750 1161 570 
Q 1363 391 1709 391 
Q 2188 391 2477 730 
Q 2766 1069 2766 1631 
L 2766 1759 
L 2194 1759 
z
M 3341 1997 
L 3341 0 
L 2766 0 
L 2766 531 
Q 2569 213 2275 61 
Q 1981 -91 1556 -91 
Q 1019 -91 701 211 
Q 384 513 384 1019 
Q 384 1609 779 1909 
Q 1175 2209 1959 2209 
L 2766 2209 
L 2766 2266 
Q 2766 2663 2505 2880 
Q 2244 3097 1772 3097 
Q 1472 3097 1187 3025 
Q 903 2953 641 2809 
L 641 3341 
Q 956 3463 1253 3523 
Q 1550 3584 1831 3584 
Q 2591 3584 2966 3190 
Q 3341 2797 3341 1997 
z
" transform="scale(0.015625)"/>
       <path id="DejaVuSans-57" d="M 1172 4494 
L 1172 3500 
L 2356 3500 
L 2356 3053 
L 1172 3053 
L 1172 1153 
Q 1172 725 1289 603 
Q 1406 481 1766 481 
L 2356 481 
L 2356 0 
L 1766 0 
Q 1100 0 847 248 
Q 594 497 594 1153 
L 594 3053 
L 172 3053 
L 172 3500 
L 594 3500 
L 594 4494 
L 1172 4494 
z
" transform="scale(0.015625)"/>
       <path id="DejaVuSans-48" d="M 3597 1894 
L 3597 1613 
L 953 1613 
Q 991 1019 1311 708 
Q 1631 397 2203 397 
Q 2534 397 2845 478 
Q 3156 559 3463 722 
L 3463 178 
Q 3153 47 2828 -22 
Q 2503 -91 2169 -91 
Q 1331 -91 842 396 
Q 353 884 353 1716 
Q 353 2575 817 3079 
Q 1281 3584 2069 3584 
Q 2775 3584 3186 3129 
Q 3597 2675 3597 1894 
z
M 3022 2063 
Q 3016 2534 2758 2815 
Q 2500 3097 2075 3097 
Q 1594 3097 1305 2825 
Q 1016 2553 972 2059 
L 3022 2063 
z
" transform="scale(0.015625)"/>
       <path id="DejaVuSans-b" d="M 1984 4856 
Q 1566 4138 1362 3434 
Q 1159 2731 1159 2009 
Q 1159 1288 1364 580 
Q 1569 -128 1984 -844 
L 1484 -844 
Q 1016 -109 783 600 
Q 550 1309 550 2009 
Q 550 2706 781 3412 
Q 1013 4119 1484 4856 
L 1984 4856 
z
" transform="scale(0.015625)"/>
       <path id="DejaVuSans-4a" d="M 2906 1791 
Q 2906 2416 2648 2759 
Q 2391 3103 1925 3103 
Q 1463 3103 1205 2759 
Q 947 2416 947 1791 
Q 947 1169 1205 825 
Q 1463 481 1925 481 
Q 2391 481 2648 825 
Q 2906 1169 2906 1791 
z
M 3481 434 
Q 3481 -459 3084 -895 
Q 2688 -1331 1869 -1331 
Q 1566 -1331 1297 -1286 
Q 1028 -1241 775 -1147 
L 775 -588 
Q 1028 -725 1275 -790 
Q 1522 -856 1778 -856 
Q 2344 -856 2625 -561 
Q 2906 -266 2906 331 
L 2906 616 
Q 2728 306 2450 153 
Q 2172 0 1784 0 
Q 1141 0 747 490 
Q 353 981 353 1791 
Q 353 2603 747 3093 
Q 1141 3584 1784 3584 
Q 2172 3584 2450 3431 
Q 2728 3278 2906 2969 
L 2906 3500 
L 3481 3500 
L 3481 434 
z
" transform="scale(0.015625)"/>
       <path id="DejaVuSans-c" d="M 513 4856 
L 1013 4856 
Q 1481 4119 1714 3412 
Q 1947 2706 1947 2009 
Q 1947 1309 1714 600 
Q 1481 -109 1013 -844 
L 513 -844 
Q 928 -128 1133 580 
Q 1338 1288 1338 2009 
Q 1338 2731 1133 3434 
Q 928 4138 513 4856 
z
" transform="scale(0.015625)"/>
      </defs>
      <use xlink:href="#DejaVuSans-46"/>
      <use xlink:href="#DejaVuSans-4b" transform="translate(54.984375 0)"/>
      <use xlink:href="#DejaVuSans-55" transform="translate(118.359375 0)"/>
      <use xlink:href="#DejaVuSans-14" transform="translate(159.46875 0)"/>
      <use xlink:href="#DejaVuSans-19" transform="translate(223.09375 0)"/>
      <use xlink:href="#DejaVuSans-3" transform="translate(286.71875 0)"/>
      <use xlink:href="#DejaVuSans-46" transform="translate(318.5 0)"/>
      <use xlink:href="#DejaVuSans-52" transform="translate(373.484375 0)"/>
      <use xlink:href="#DejaVuSans-52" transform="translate(434.671875 0)"/>
      <use xlink:href="#DejaVuSans-55" transform="translate(495.859375 0)"/>
      <use xlink:href="#DejaVuSans-47" transform="translate(535.21875 0)"/>
      <use xlink:href="#DejaVuSans-4c" transform="translate(598.703125 0)"/>
      <use xlink:href="#DejaVuSans-51" transform="translate(626.484375 0)"/>
      <use xlink:href="#DejaVuSans-44" transform="translate(689.859375 0)"/>
      <use xlink:href="#DejaVuSans-57" transform="translate(751.140625 0)"/>
      <use xlink:href="#DejaVuSans-48" transform="translate(790.34375 0)"/>
      <use xlink:href="#DejaVuSans-3" transform="translate(851.875 0)"/>
      <use xlink:href="#DejaVuSans-b" transform="translate(883.65625 0)"/>
      <use xlink:href="#DejaVuSans-4b" transform="translate(922.671875 0)"/>
      <use xlink:href="#DejaVuSans-4a" transform="translate(986.046875 0)"/>
      <use xlink:href="#DejaVuSans-16" transform="translate(1049.53125 0)"/>
      <use xlink:href="#DejaVuSans-1b" transform="translate(1113.15625 0)"/>
      <use xlink:href="#DejaVuSans-c" transform="translate(1176.78125 0)"/>
     </g>
    </g>
    <g id="text_8">
     <!-- 1e7 -->
     <g transform="translate(906.321875 345.475312) scale(0.1 -0.1)">
      <defs>
       <path id="DejaVuSans-1a" d="M 525 4666 
L 3525 4666 
L 3525 4397 
L 1831 0 
L 1172 0 
L 2766 4134 
L 525 4134 
L 525 4666 
z
" transform="scale(0.015625)"/>
      </defs>
      <use xlink:href="#DejaVuSans-14"/>
      <use xlink:href="#DejaVuSans-48" transform="translate(63.625 0)"/>
      <use xlink:href="#DejaVuSans-1a" transform="translate(125.15625 0)"/>
     </g>
    </g>
   </g>
   <g id="matplotlib.axis_2">
    <g id="ytick_1">
     <g id="line2d_7">
      <defs>
       <path id="m47ff392178" d="M 0 0 
L -3.5 0 
" style="stroke: #000000; stroke-width: 0.8"/>
      </defs>
      <g>
       <use xlink:href="#m47ff392178" x="47.962344" y="305.741868" style="stroke: #000000; stroke-width: 0.8"/>
      </g>
     </g>
     <g id="text_9">
      <!-- 0.0 -->
      <g transform="translate(25.059219 309.540696) scale(0.1 -0.1)">
       <use xlink:href="#DejaVuSans-13"/>
       <use xlink:href="#DejaVuSans-11" transform="translate(63.625 0)"/>
       <use xlink:href="#DejaVuSans-13" transform="translate(95.40625 0)"/>
      </g>
     </g>
    </g>
    <g id="ytick_2">
     <g id="line2d_8">
      <g>
       <use xlink:href="#m47ff392178" x="47.962344" y="257.198714" style="stroke: #000000; stroke-width: 0.8"/>
      </g>
     </g>
     <g id="text_10">
      <!-- 0.2 -->
      <g transform="translate(25.059219 260.997543) scale(0.1 -0.1)">
       <use xlink:href="#DejaVuSans-13"/>
       <use xlink:href="#DejaVuSans-11" transform="translate(63.625 0)"/>
       <use xlink:href="#DejaVuSans-15" transform="translate(95.40625 0)"/>
      </g>
     </g>
    </g>
    <g id="ytick_3">
     <g id="line2d_9">
      <g>
       <use xlink:href="#m47ff392178" x="47.962344" y="208.655561" style="stroke: #000000; stroke-width: 0.8"/>
      </g>
     </g>
     <g id="text_11">
      <!-- 0.4 -->
      <g transform="translate(25.059219 212.454389) scale(0.1 -0.1)">
       <use xlink:href="#DejaVuSans-13"/>
       <use xlink:href="#DejaVuSans-11" transform="translate(63.625 0)"/>
       <use xlink:href="#DejaVuSans-17" transform="translate(95.40625 0)"/>
      </g>
     </g>
    </g>
    <g id="ytick_4">
     <g id="line2d_10">
      <g>
       <use xlink:href="#m47ff392178" x="47.962344" y="160.112408" style="stroke: #000000; stroke-width: 0.8"/>
      </g>
     </g>
     <g id="text_12">
      <!-- 0.6 -->
      <g transform="translate(25.059219 163.911236) scale(0.1 -0.1)">
       <use xlink:href="#DejaVuSans-13"/>
       <use xlink:href="#DejaVuSans-11" transform="translate(63.625 0)"/>
       <use xlink:href="#DejaVuSans-19" transform="translate(95.40625 0)"/>
      </g>
     </g>
    </g>
    <g id="ytick_5">
     <g id="line2d_11">
      <g>
       <use xlink:href="#m47ff392178" x="47.962344" y="111.569254" style="stroke: #000000; stroke-width: 0.8"/>
      </g>
     </g>
     <g id="text_13">
      <!-- 0.8 -->
      <g transform="translate(25.059219 115.368082) scale(0.1 -0.1)">
       <use xlink:href="#DejaVuSans-13"/>
       <use xlink:href="#DejaVuSans-11" transform="translate(63.625 0)"/>
       <use xlink:href="#DejaVuSans-1b" transform="translate(95.40625 0)"/>
      </g>
     </g>
    </g>
    <g id="ytick_6">
     <g id="line2d_12">
      <g>
       <use xlink:href="#m47ff392178" x="47.962344" y="63.026101" style="stroke: #000000; stroke-width: 0.8"/>
      </g>
     </g>
     <g id="text_14">
      <!-- 1.0 -->
      <g transform="translate(25.059219 66.824929) scale(0.1 -0.1)">
       <use xlink:href="#DejaVuSans-14"/>
       <use xlink:href="#DejaVuSans-11" transform="translate(63.625 0)"/>
       <use xlink:href="#DejaVuSans-13" transform="translate(95.40625 0)"/>
      </g>
     </g>
    </g>
    <g id="text_15">
     <!-- global robust normalized signal -->
     <g transform="translate(18.656875 262.887109) rotate(-90) scale(0.1 -0.1)">
      <defs>
       <path id="DejaVuSans-4f" d="M 603 4863 
L 1178 4863 
L 1178 0 
L 603 0 
L 603 4863 
z
" transform="scale(0.015625)"/>
       <path id="DejaVuSans-45" d="M 3116 1747 
Q 3116 2381 2855 2742 
Q 2594 3103 2138 3103 
Q 1681 3103 1420 2742 
Q 1159 2381 1159 1747 
Q 1159 1113 1420 752 
Q 1681 391 2138 391 
Q 2594 391 2855 752 
Q 3116 1113 3116 1747 
z
M 1159 2969 
Q 1341 3281 1617 3432 
Q 1894 3584 2278 3584 
Q 2916 3584 3314 3078 
Q 3713 2572 3713 1747 
Q 3713 922 3314 415 
Q 2916 -91 2278 -91 
Q 1894 -91 1617 61 
Q 1341 213 1159 525 
L 1159 0 
L 581 0 
L 581 4863 
L 1159 4863 
L 1159 2969 
z
" transform="scale(0.015625)"/>
       <path id="DejaVuSans-58" d="M 544 1381 
L 544 3500 
L 1119 3500 
L 1119 1403 
Q 1119 906 1312 657 
Q 1506 409 1894 409 
Q 2359 409 2629 706 
Q 2900 1003 2900 1516 
L 2900 3500 
L 3475 3500 
L 3475 0 
L 2900 0 
L 2900 538 
Q 2691 219 2414 64 
Q 2138 -91 1772 -91 
Q 1169 -91 856 284 
Q 544 659 544 1381 
z
M 1991 3584 
L 1991 3584 
z
" transform="scale(0.015625)"/>
       <path id="DejaVuSans-56" d="M 2834 3397 
L 2834 2853 
Q 2591 2978 2328 3040 
Q 2066 3103 1784 3103 
Q 1356 3103 1142 2972 
Q 928 2841 928 2578 
Q 928 2378 1081 2264 
Q 1234 2150 1697 2047 
L 1894 2003 
Q 2506 1872 2764 1633 
Q 3022 1394 3022 966 
Q 3022 478 2636 193 
Q 2250 -91 1575 -91 
Q 1294 -91 989 -36 
Q 684 19 347 128 
L 347 722 
Q 666 556 975 473 
Q 1284 391 1588 391 
Q 1994 391 2212 530 
Q 2431 669 2431 922 
Q 2431 1156 2273 1281 
Q 2116 1406 1581 1522 
L 1381 1569 
Q 847 1681 609 1914 
Q 372 2147 372 2553 
Q 372 3047 722 3315 
Q 1072 3584 1716 3584 
Q 2034 3584 2315 3537 
Q 2597 3491 2834 3397 
z
" transform="scale(0.015625)"/>
       <path id="DejaVuSans-50" d="M 3328 2828 
Q 3544 3216 3844 3400 
Q 4144 3584 4550 3584 
Q 5097 3584 5394 3201 
Q 5691 2819 5691 2113 
L 5691 0 
L 5113 0 
L 5113 2094 
Q 5113 2597 4934 2840 
Q 4756 3084 4391 3084 
Q 3944 3084 3684 2787 
Q 3425 2491 3425 1978 
L 3425 0 
L 2847 0 
L 2847 2094 
Q 2847 2600 2669 2842 
Q 2491 3084 2119 3084 
Q 1678 3084 1418 2786 
Q 1159 2488 1159 1978 
L 1159 0 
L 581 0 
L 581 3500 
L 1159 3500 
L 1159 2956 
Q 1356 3278 1631 3431 
Q 1906 3584 2284 3584 
Q 2666 3584 2933 3390 
Q 3200 3197 3328 2828 
z
" transform="scale(0.015625)"/>
       <path id="DejaVuSans-5d" d="M 353 3500 
L 3084 3500 
L 3084 2975 
L 922 459 
L 3084 459 
L 3084 0 
L 275 0 
L 275 525 
L 2438 3041 
L 353 3041 
L 353 3500 
z
" transform="scale(0.015625)"/>
      </defs>
      <use xlink:href="#DejaVuSans-4a"/>
      <use xlink:href="#DejaVuSans-4f" transform="translate(63.484375 0)"/>
      <use xlink:href="#DejaVuSans-52" transform="translate(91.265625 0)"/>
      <use xlink:href="#DejaVuSans-45" transform="translate(152.453125 0)"/>
      <use xlink:href="#DejaVuSans-44" transform="translate(215.9375 0)"/>
      <use xlink:href="#DejaVuSans-4f" transform="translate(277.21875 0)"/>
      <use xlink:href="#DejaVuSans-3" transform="translate(305 0)"/>
      <use xlink:href="#DejaVuSans-55" transform="translate(336.78125 0)"/>
      <use xlink:href="#DejaVuSans-52" transform="translate(375.6875 0)"/>
      <use xlink:href="#DejaVuSans-45" transform="translate(436.875 0)"/>
      <use xlink:href="#DejaVuSans-58" transform="translate(500.359375 0)"/>
      <use xlink:href="#DejaVuSans-56" transform="translate(563.734375 0)"/>
      <use xlink:href="#DejaVuSans-57" transform="translate(615.828125 0)"/>
      <use xlink:href="#DejaVuSans-3" transform="translate(655.03125 0)"/>
      <use xlink:href="#DejaVuSans-51" transform="translate(686.8125 0)"/>
      <use xlink:href="#DejaVuSans-52" transform="translate(750.1875 0)"/>
      <use xlink:href="#DejaVuSans-55" transform="translate(811.375 0)"/>
      <use xlink:href="#DejaVuSans-50" transform="translate(850.734375 0)"/>
      <use xlink:href="#DejaVuSans-44" transform="translate(948.140625 0)"/>
      <use xlink:href="#DejaVuSans-4f" transform="translate(1009.421875 0)"/>
      <use xlink:href="#DejaVuSans-4c" transform="translate(1037.203125 0)"/>
      <use xlink:href="#DejaVuSans-5d" transform="translate(1064.984375 0)"/>
      <use xlink:href="#DejaVuSans-48" transform="translate(1117.46875 0)"/>
      <use xlink:href="#DejaVuSans-47" transform="translate(1179 0)"/>
      <use xlink:href="#DejaVuSans-3" transform="translate(1242.484375 0)"/>
      <use xlink:href="#DejaVuSans-56" transform="translate(1274.265625 0)"/>
      <use xlink:href="#DejaVuSans-4c" transform="translate(1326.359375 0)"/>
      <use xlink:href="#DejaVuSans-4a" transform="translate(1354.140625 0)"/>
      <use xlink:href="#DejaVuSans-51" transform="translate(1417.625 0)"/>
      <use xlink:href="#DejaVuSans-44" transform="translate(1481 0)"/>
      <use xlink:href="#DejaVuSans-4f" transform="translate(1542.28125 0)"/>
     </g>
    </g>
   </g>
   <g id="line2d_13">
    <path d="M 87.836783 303.366116 
L 89.434957 303.791732 
L 91.03313 304.875472 
L 92.631304 304.081327 
L 94.229478 303.591764 
L 95.827652 301.093116 
L 97.425826 300.319033 
L 99.024 298.873095 
L 100.622174 286.289918 
L 102.220348 246.022649 
L 103.818522 192.274528 
L 105.416696 236.395747 
L 107.01487 219.3779 
L 108.613043 270.141007 
L 110.211217 297.413342 
L 111.809391 299.679598 
L 113.407565 302.749558 
L 115.005739 302.876531 
L 116.603913 301.139182 
L 118.202087 301.916825 
L 119.800261 301.993693 
L 121.398435 300.406174 
L 122.996609 301.484709 
L 124.594782 304.019266 
L 126.192956 304.279023 
L 127.79113 302.322851 
L 129.389304 302.960138 
L 130.987478 302.782367 
L 132.585652 301.811397 
L 134.183826 303.076658 
L 135.782 301.29513 
L 137.380174 303.307459 
L 138.978348 303.014693 
L 140.576522 299.736451 
L 142.174695 304.04028 
L 143.772869 301.892543 
L 145.371043 301.683225 
L 146.969217 301.284687 
L 148.567391 301.552303 
L 150.165565 304.18472 
L 151.763739 302.69107 
L 153.361913 301.494463 
L 154.960087 301.244495 
L 156.558261 305.450556 
L 158.156434 303.808638 
L 159.754608 301.955652 
L 161.352782 300.402064 
L 162.950956 305.395927 
L 164.54913 303.55087 
L 166.147304 301.930343 
L 169.343652 302.118506 
L 170.941826 301.186717 
L 172.54 303.449722 
L 174.138174 303.799195 
L 175.736347 301.140142 
L 178.932695 300.361798 
L 180.530869 302.763696 
L 182.129043 304.740445 
L 183.727217 303.708665 
L 185.325391 304.303457 
L 186.923565 302.798533 
L 188.521739 303.416995 
L 190.119913 303.838709 
L 191.718086 302.823363 
L 193.31626 303.980875 
L 194.914434 301.93564 
L 196.512608 297.618545 
L 198.110782 301.737895 
L 199.708956 303.999973 
L 201.30713 302.106349 
L 202.905304 302.106344 
L 204.503478 299.253679 
L 206.101652 303.556454 
L 207.699826 302.137479 
L 209.297999 302.224217 
L 210.896173 302.18824 
L 212.494347 302.817457 
L 214.092521 302.094342 
L 215.690695 300.63395 
L 217.288869 300.740491 
L 218.887043 300.628645 
L 220.485217 299.202189 
L 222.083391 298.066009 
L 223.681565 299.991779 
L 225.279738 300.62985 
L 226.877912 298.830825 
L 228.476086 292.680849 
L 230.07426 295.596125 
L 231.672434 300.297387 
L 233.270608 304.410028 
L 234.868782 303.211706 
L 236.466956 302.166967 
L 238.06513 299.324047 
L 239.663304 304.544799 
L 241.261478 305.279089 
L 242.859651 304.626612 
L 244.457825 303.302801 
L 246.055999 301.135787 
L 247.654173 299.414999 
L 249.252347 298.00382 
L 250.850521 300.784102 
L 252.448695 298.807444 
L 254.046869 297.036319 
L 255.645043 299.418639 
L 257.243217 296.886814 
L 258.84139 292.706012 
L 260.439564 282.053352 
L 262.037738 239.368817 
L 263.635912 205.039547 
L 265.234086 198.602794 
L 266.83226 254.375269 
L 268.430434 276.171293 
L 270.028608 120.084845 
L 271.626782 63.026101 
L 273.224956 194.809852 
L 274.82313 228.830917 
L 276.421303 63.026101 
L 281.215825 63.026101 
L 282.813999 163.468378 
L 284.412173 193.46328 
L 286.010347 256.93067 
L 287.608521 272.374445 
L 289.206695 294.898581 
L 290.804869 299.311801 
L 292.403042 298.604794 
L 294.001216 302.8154 
L 295.59939 301.989925 
L 297.197564 298.689073 
L 298.795738 300.701015 
L 300.393912 301.30121 
L 301.992086 304.113317 
L 303.59026 297.885359 
L 305.188434 299.01976 
L 306.786608 299.592957 
L 308.384782 299.66577 
L 309.982955 300.788124 
L 311.581129 296.50718 
L 313.179303 299.110033 
L 314.777477 294.802304 
L 316.375651 295.889664 
L 317.973825 300.16585 
L 321.170173 304.302908 
L 322.768347 301.52082 
L 324.366521 302.550037 
L 325.964694 302.785764 
L 327.562868 302.830031 
L 329.161042 302.032754 
L 330.759216 300.476421 
L 332.35739 302.747835 
L 333.955564 297.426249 
L 335.553738 300.108078 
L 337.151912 299.977888 
L 338.750086 300.548539 
L 340.34826 301.708653 
L 341.946434 304.357874 
L 343.544607 299.248202 
L 345.142781 298.530749 
L 346.740955 300.302071 
L 348.339129 304.062593 
L 349.937303 304.188181 
L 351.535477 302.281939 
L 353.133651 304.254897 
L 354.731825 301.766481 
L 356.329999 304.000777 
L 357.928173 303.130205 
L 359.526346 301.205505 
L 361.12452 304.371011 
L 362.722694 303.647574 
L 364.320868 304.758718 
L 365.919042 301.093517 
L 367.517216 304.721323 
L 369.11539 300.722304 
L 370.713564 300.089515 
L 372.311738 303.25729 
L 373.909912 303.303537 
L 375.508086 299.399973 
L 377.106259 298.726884 
L 378.704433 303.848478 
L 380.302607 305.730463 
L 383.498955 302.150295 
L 385.097129 305.370117 
L 386.695303 301.067322 
L 388.293477 301.450933 
L 389.891651 300.483319 
L 391.489825 303.971063 
L 393.087998 301.601995 
L 394.686172 301.091955 
L 396.284346 302.527335 
L 397.88252 302.583092 
L 399.480694 304.153946 
L 401.078868 304.565188 
L 402.677042 302.846048 
L 404.275216 303.806799 
L 405.87339 300.789178 
L 407.471564 300.187906 
L 409.069738 302.038278 
L 410.667911 300.825046 
L 412.266085 302.924319 
L 413.864259 300.919928 
L 415.462433 302.032361 
L 417.060607 301.844035 
L 418.658781 298.972875 
L 420.256955 297.473064 
L 421.855129 299.015548 
L 423.453303 298.416003 
L 425.051477 292.565236 
L 426.64965 294.285279 
L 428.247824 298.844491 
L 429.845998 296.308644 
L 431.444172 303.405467 
L 433.042346 304.81309 
L 434.64052 304.281039 
L 436.238694 302.410759 
L 437.836868 299.154531 
L 439.435042 299.989549 
L 441.033216 302.972353 
L 442.631389 301.651737 
L 444.229563 302.09898 
L 445.827737 300.129532 
L 447.425911 301.626606 
L 449.024085 303.76699 
L 450.622259 305.142043 
L 452.220433 301.748944 
L 453.818607 302.679576 
L 455.416781 302.214085 
L 457.014955 305.494932 
L 458.613129 303.698377 
L 460.211302 302.817629 
L 461.809476 305.089036 
L 463.40765 302.385594 
L 465.005824 302.267224 
L 466.603998 303.976937 
L 468.202172 304.961189 
L 469.800346 302.08122 
L 471.39852 300.90656 
L 472.996694 286.044765 
L 474.594868 248.190312 
L 476.193041 176.680616 
L 477.791215 137.906055 
L 479.389389 163.582532 
L 480.987563 85.259774 
L 482.585737 169.895949 
L 484.183911 162.004349 
L 485.782085 170.450741 
L 487.380259 238.062524 
L 488.978433 279.473593 
L 490.576607 277.321836 
L 492.174781 289.191744 
L 493.772954 297.501575 
L 495.371128 296.496447 
L 496.969302 296.633894 
L 498.567476 298.590623 
L 500.16565 301.124668 
L 501.763824 302.80634 
L 503.361998 303.881223 
L 504.960172 303.027718 
L 506.558346 302.004968 
L 508.15652 302.41444 
L 509.754693 301.558677 
L 511.352867 304.065305 
L 512.951041 301.039741 
L 514.549215 295.463517 
L 516.147389 296.853549 
L 517.745563 299.274662 
L 519.343737 297.312345 
L 520.941911 303.428165 
L 522.540085 304.405961 
L 524.138259 301.167216 
L 525.736433 302.688146 
L 527.334606 304.454769 
L 528.93278 302.230184 
L 530.530954 301.727713 
L 532.129128 303.901488 
L 533.727302 305.159925 
L 535.325476 304.4511 
L 536.92365 302.541723 
L 538.521824 298.521074 
L 540.119998 279.432403 
L 541.718172 229.351829 
L 543.316345 216.836562 
L 544.914519 150.911732 
L 546.512693 122.343587 
L 548.110867 218.277419 
L 549.709041 148.850194 
L 551.307215 97.752412 
L 552.905389 134.452029 
L 554.503563 104.272054 
L 556.101737 113.485924 
L 557.699911 206.348193 
L 559.298085 265.696321 
L 560.896258 289.402207 
L 562.494432 297.684293 
L 567.288954 298.317517 
L 570.485302 300.058986 
L 572.083476 301.561105 
L 573.68165 303.304993 
L 575.279824 301.956045 
L 576.877997 303.250342 
L 578.476171 302.87946 
L 580.074345 302.301285 
L 581.672519 303.070546 
L 583.270693 301.030019 
L 584.868867 301.437376 
L 586.467041 300.743512 
L 588.065215 301.789028 
L 589.663389 303.165661 
L 591.261563 298.140149 
L 592.859737 299.950473 
L 594.45791 300.081991 
L 596.056084 301.349012 
L 597.654258 300.726485 
L 599.252432 304.037727 
L 600.850606 304.72409 
L 602.44878 302.30382 
L 604.046954 305.342374 
L 605.645128 303.876032 
L 607.243302 305.149965 
L 608.841476 302.720869 
L 610.439649 300.00292 
L 612.037823 303.738991 
L 613.635997 300.443319 
L 615.234171 300.553769 
L 616.832345 301.971755 
L 618.430519 302.423203 
L 620.028693 300.581656 
L 621.626867 300.000082 
L 623.225041 301.829951 
L 624.823215 302.701155 
L 626.421389 302.069009 
L 628.019562 299.85836 
L 629.617736 299.120218 
L 631.21591 297.677513 
L 632.814084 297.050884 
L 634.412258 298.855775 
L 636.010432 303.486256 
L 637.608606 304.46363 
L 639.20678 298.49983 
L 640.804954 299.056799 
L 642.403128 303.786013 
L 644.001301 301.867333 
L 645.599475 304.110229 
L 647.197649 304.115285 
L 648.795823 303.265588 
L 650.393997 300.686117 
L 651.992171 302.29775 
L 653.590345 304.299033 
L 655.188519 302.145789 
L 656.786693 304.374836 
L 658.384867 300.267335 
L 659.983041 300.831284 
L 661.581214 304.557807 
L 663.179388 305.574476 
L 666.375736 300.600828 
L 667.97391 302.194402 
L 669.572084 301.601577 
L 671.170258 303.477648 
L 672.768432 302.044371 
L 675.96478 300.659413 
L 677.562953 302.379593 
L 679.161127 303.447989 
L 680.759301 298.220322 
L 682.357475 299.874673 
L 683.955649 299.771493 
L 685.553823 300.522249 
L 687.151997 300.546709 
L 688.750171 303.703988 
L 690.348345 302.479352 
L 691.946519 302.371118 
L 693.544693 304.484667 
L 695.142866 302.713132 
L 696.74104 301.385482 
L 698.339214 300.625414 
L 699.937388 301.299124 
L 701.535562 304.091097 
L 703.133736 303.877275 
L 704.73191 301.543848 
L 706.330084 299.91592 
L 707.928258 301.663298 
L 709.526432 302.770004 
L 711.124605 300.923031 
L 714.320953 303.5555 
L 715.919127 299.475219 
L 717.517301 300.293942 
L 719.115475 301.958938 
L 720.713649 302.064084 
L 722.311823 298.919926 
L 723.909997 303.077435 
L 725.508171 302.239895 
L 727.106345 303.386993 
L 728.704518 301.790755 
L 730.302692 301.414444 
L 731.900866 303.702592 
L 733.49904 304.484065 
L 735.097214 301.542787 
L 736.695388 301.349618 
L 738.293562 303.954801 
L 739.891736 303.140082 
L 741.48991 300.595074 
L 743.088084 301.07456 
L 744.686257 301.179232 
L 747.882605 304.211782 
L 749.480779 301.714178 
L 751.078953 301.670201 
L 752.677127 305.523693 
L 754.275301 304.910397 
L 755.873475 301.602605 
L 759.069823 302.55947 
L 760.667997 301.936703 
L 762.26617 303.154263 
L 763.864344 300.528906 
L 765.462518 294.17467 
L 767.060692 285.320811 
L 768.658866 221.156321 
L 770.25704 243.905434 
L 771.855214 274.359438 
L 773.453388 283.022708 
L 775.051562 290.41139 
L 776.649736 295.027647 
L 778.247909 299.010578 
L 779.846083 298.382737 
L 781.444257 300.449058 
L 783.042431 304.281583 
L 784.640605 305.288051 
L 786.238779 300.509295 
L 787.836953 302.498639 
L 789.435127 303.244762 
L 791.033301 303.684797 
L 792.631475 304.51683 
L 794.229649 304.631155 
L 795.827822 300.866884 
L 797.425996 303.60184 
L 799.02417 303.890809 
L 800.622344 302.761285 
L 802.220518 305.281701 
L 803.818692 304.582393 
L 805.416866 302.199741 
L 807.01504 302.543545 
L 808.613214 303.143057 
L 810.211388 299.782932 
L 811.809561 297.19428 
L 813.407735 298.007464 
L 815.005909 299.994146 
L 816.604083 298.692151 
L 818.202257 297.602823 
L 819.800431 303.884201 
L 821.398605 303.254699 
L 822.996779 302.878447 
L 824.594953 304.252397 
L 826.193127 300.048302 
L 827.791301 298.962335 
L 829.389474 301.925716 
L 830.987648 301.231876 
L 832.585822 295.981444 
L 834.183996 301.299134 
L 835.78217 304.675139 
L 837.380344 303.216266 
L 838.978518 303.2133 
L 840.576692 299.362452 
L 842.174866 300.613625 
L 843.77304 300.964567 
L 845.371213 300.079424 
L 846.969387 301.189612 
L 848.567561 296.415107 
L 850.165735 296.438946 
L 851.763909 301.092028 
L 853.362083 298.665899 
L 854.960257 284.333668 
L 856.558431 247.776594 
L 858.156605 214.625981 
L 859.754779 205.84511 
L 861.352953 108.348982 
L 862.951126 182.462691 
L 864.5493 246.213365 
L 866.147474 198.683871 
L 867.745648 195.319435 
L 869.343822 258.870871 
L 870.941996 284.33271 
L 872.54017 295.031843 
L 874.138344 293.525547 
L 875.736518 296.443062 
L 877.334692 297.734927 
L 878.932865 299.426051 
L 880.531039 294.613145 
L 882.129213 294.492739 
L 883.727387 298.49342 
L 885.325561 299.68234 
L 885.325561 299.68234 
" clip-path="url(#pb9ba2ceaed)" style="fill: none; stroke: #2ca02c; stroke-width: 1.2; stroke-linecap: square"/>
   </g>
   <g id="line2d_14">
    <path d="M 87.836783 303.303321 
L 89.434957 302.996977 
L 92.631304 302.525241 
L 94.229478 302.279188 
L 95.827652 301.542661 
L 97.425826 300.294474 
L 99.024 296.820408 
L 100.622174 283.588977 
L 102.220348 255.320643 
L 103.818522 221.257855 
L 105.416696 237.839511 
L 107.01487 221.883578 
L 108.613043 257.940858 
L 110.211217 284.794797 
L 111.809391 297.726403 
L 113.407565 300.455793 
L 116.603913 302.295483 
L 118.202087 303.144446 
L 119.800261 303.22755 
L 121.398435 303.89401 
L 122.996609 304.223166 
L 124.594782 303.802758 
L 126.192956 303.551818 
L 129.389304 304.014592 
L 130.987478 303.758762 
L 132.585652 303.123263 
L 134.183826 303.610479 
L 135.782 303.809276 
L 137.380174 303.238956 
L 138.978348 303.014087 
L 140.576522 303.284582 
L 142.174695 303.746541 
L 143.772869 303.767724 
L 145.371043 303.564853 
L 146.969217 303.718025 
L 148.567391 303.75143 
L 150.165565 303.451604 
L 151.763739 303.412496 
L 153.361913 303.914378 
L 154.960087 305.072943 
L 156.558261 305.271741 
L 158.156434 304.360043 
L 159.754608 303.664252 
L 161.352782 303.711507 
L 162.950956 304.549063 
L 164.54913 304.252497 
L 166.147304 303.326948 
L 167.745478 303.546929 
L 169.343652 303.951042 
L 170.941826 304.155542 
L 174.138174 303.6724 
L 175.736347 303.615367 
L 177.334521 303.696842 
L 178.932695 303.897269 
L 180.530869 304.918142 
L 182.129043 305.741868 
L 185.325391 305.741868 
L 186.923565 305.4795 
L 190.119913 303.979558 
L 191.718086 303.700916 
L 193.31626 303.924155 
L 196.512608 304.633797 
L 198.110782 305.523496 
L 199.708956 305.741848 
L 201.30713 304.135174 
L 202.905304 303.325319 
L 204.503478 303.721284 
L 207.699826 303.213699 
L 209.297999 303.281323 
L 210.896173 303.747356 
L 214.092521 303.028752 
L 215.690695 302.851138 
L 217.288869 302.544795 
L 218.887043 302.689819 
L 220.485217 303.209625 
L 223.681565 302.6556 
L 225.279738 302.258005 
L 228.476086 302.033136 
L 230.07426 302.733815 
L 231.672434 304.610169 
L 233.270608 304.615058 
L 234.868782 302.795736 
L 236.466956 303.597443 
L 238.06513 305.188637 
L 241.261478 304.851333 
L 244.457825 303.071119 
L 246.055999 303.160741 
L 247.654173 303.408423 
L 249.252347 302.983127 
L 252.448695 302.652341 
L 254.046869 301.980992 
L 255.645043 300.664367 
L 257.243217 298.557441 
L 258.84139 292.606556 
L 260.439564 283.732372 
L 262.037738 220.143286 
L 263.635912 167.263186 
L 265.234086 175.241153 
L 266.83226 226.28971 
L 268.430434 264.928096 
L 270.028608 191.066727 
L 271.626782 152.115479 
L 273.224956 229.216268 
L 274.82313 246.723472 
L 276.421303 94.679335 
L 278.019477 63.026101 
L 279.617651 75.959792 
L 281.215825 120.386115 
L 282.813999 212.445591 
L 284.412173 244.787642 
L 286.010347 272.475878 
L 287.608521 286.111422 
L 289.206695 295.92745 
L 290.804869 299.394997 
L 292.403042 301.058703 
L 294.001216 301.941885 
L 295.59939 301.967957 
L 297.197564 301.857151 
L 298.795738 302.202603 
L 300.393912 302.352515 
L 301.992086 301.643689 
L 303.59026 301.617617 
L 305.188434 301.200468 
L 306.786608 299.056064 
L 308.384782 294.05354 
L 309.982955 295.669991 
L 311.581129 302.391623 
L 313.179303 302.36881 
L 314.777477 300.035385 
L 316.375651 300.038644 
L 317.973825 301.229799 
L 319.571999 301.444891 
L 321.170173 301.850633 
L 324.366521 303.44753 
L 325.964694 303.845125 
L 327.562868 303.826386 
L 329.161042 303.953486 
L 330.759216 303.603961 
L 332.35739 303.041788 
L 333.955564 302.87884 
L 335.553738 303.064601 
L 338.750086 302.554572 
L 340.34826 302.724038 
L 341.946434 303.32206 
L 343.544607 302.924465 
L 345.142781 302.199344 
L 346.740955 302.277559 
L 348.339129 302.769664 
L 351.535477 304.538472 
L 353.133651 304.371449 
L 354.731825 303.5453 
L 356.329999 303.483379 
L 357.928173 303.814165 
L 359.526346 303.242215 
L 361.12452 303.408423 
L 362.722694 304.191391 
L 364.320868 302.452729 
L 365.919042 301.382971 
L 367.517216 301.252612 
L 369.11539 302.036395 
L 370.713564 301.518218 
L 372.311738 301.524736 
L 373.909912 302.313408 
L 375.508086 301.95818 
L 377.106259 302.414436 
L 378.704433 304.102584 
L 380.302607 305.277444 
L 381.900781 304.311973 
L 383.498955 302.809586 
L 385.097129 302.375328 
L 386.695303 302.323185 
L 389.891651 302.5285 
L 391.489825 302.834843 
L 393.087998 302.521982 
L 394.686172 302.427472 
L 396.284346 303.333466 
L 397.88252 302.999422 
L 399.480694 303.071119 
L 401.078868 303.51108 
L 402.677042 302.259635 
L 405.87339 299.274415 
L 407.471564 300.310769 
L 409.069738 300.828945 
L 410.667911 300.56008 
L 412.266085 300.78169 
L 413.864259 301.441632 
L 415.462433 301.366676 
L 417.060607 301.013077 
L 418.658781 300.263514 
L 420.256955 299.021845 
L 421.855129 298.33746 
L 423.453303 299.316782 
L 425.051477 289.839688 
L 426.64965 291.752705 
L 428.247824 296.75197 
L 429.845998 297.279924 
L 431.444172 298.348867 
L 434.64052 304.796745 
L 436.238694 302.745222 
L 437.836868 300.907161 
L 439.435042 301.568732 
L 441.033216 301.86204 
L 442.631389 301.246094 
L 444.229563 300.988635 
L 445.827737 301.107588 
L 449.024085 302.697967 
L 450.622259 303.902157 
L 453.818607 303.022234 
L 455.416781 302.86173 
L 457.014955 303.459752 
L 458.613129 303.317986 
L 460.211302 303.420644 
L 461.809476 303.792167 
L 465.005824 303.290285 
L 466.603998 303.410867 
L 468.202172 302.740333 
L 469.800346 299.598683 
L 471.39852 295.901378 
L 472.996694 294.089389 
L 474.594868 271.26354 
L 476.193041 199.566129 
L 477.791215 152.350125 
L 479.389389 135.559895 
L 480.987563 93.845037 
L 485.782085 209.734126 
L 487.380259 261.134651 
L 488.978433 284.038715 
L 490.576607 285.635612 
L 492.174781 293.985102 
L 493.772954 298.726908 
L 495.371128 300.734435 
L 496.969302 300.822427 
L 498.567476 301.122253 
L 500.16565 301.260759 
L 501.763824 301.694203 
L 503.361998 302.785144 
L 504.960172 303.363612 
L 506.558346 302.626269 
L 508.15652 302.711002 
L 509.754693 303.030382 
L 511.352867 302.469838 
L 512.951041 302.575755 
L 514.549215 301.998917 
L 516.147389 301.853892 
L 517.745563 301.495405 
L 519.343737 300.75073 
L 520.941911 301.79686 
L 522.540085 302.297113 
L 524.138259 302.479615 
L 525.736433 302.359033 
L 527.334606 302.704484 
L 528.93278 302.922836 
L 530.530954 304.024369 
L 532.129128 304.002371 
L 533.727302 302.95787 
L 535.325476 301.645318 
L 536.92365 299.859401 
L 538.521824 295.249583 
L 540.119998 280.623311 
L 541.718172 245.4264 
L 543.316345 226.628643 
L 544.914519 170.808949 
L 546.512693 139.57495 
L 548.110867 186.530236 
L 549.709041 100.493343 
L 551.307215 71.527589 
L 552.905389 72.466173 
L 554.503563 111.26099 
L 556.101737 172.477544 
L 557.699911 243.542714 
L 559.298085 281.216444 
L 560.896258 293.033481 
L 562.494432 297.035501 
L 564.092606 299.240196 
L 565.69078 299.993019 
L 567.288954 300.393872 
L 568.887128 300.977229 
L 570.485302 301.252612 
L 572.083476 302.574126 
L 573.68165 302.989645 
L 575.279824 302.365551 
L 576.877997 302.05269 
L 580.074345 302.248228 
L 581.672519 302.4014 
L 583.270693 303.207181 
L 584.868867 303.003495 
L 586.467041 302.394882 
L 588.065215 302.427472 
L 591.261563 302.139053 
L 592.859737 302.481245 
L 594.45791 302.49754 
L 596.056084 303.642254 
L 597.654258 304.616687 
L 600.850606 302.98883 
L 604.046954 303.645513 
L 605.645128 303.6227 
L 607.243302 303.451604 
L 608.841476 303.014087 
L 610.439649 303.336725 
L 612.037823 304.298937 
L 613.635997 303.867123 
L 615.234171 303.207996 
L 616.832345 302.904911 
L 621.626867 303.061342 
L 624.823215 304.635426 
L 626.421389 303.175406 
L 628.019562 302.453544 
L 631.21591 302.437249 
L 632.814084 303.033641 
L 634.412258 304.108287 
L 636.010432 304.248423 
L 637.608606 303.318801 
L 639.20678 302.7827 
L 644.001301 302.834843 
L 645.599475 303.170518 
L 647.197649 304.162875 
L 648.795823 304.501808 
L 650.393997 303.564039 
L 651.992171 302.803068 
L 653.590345 302.675154 
L 655.188519 302.818549 
L 656.786693 303.093117 
L 658.384867 303.117559 
L 659.983041 302.489392 
L 663.179388 302.112981 
L 664.777562 302.891875 
L 666.375736 304.117249 
L 667.97391 303.942894 
L 669.572084 303.105338 
L 671.170258 302.702855 
L 672.768432 302.657229 
L 674.366606 302.930983 
L 675.96478 303.014087 
L 677.562953 302.763146 
L 680.759301 303.071119 
L 682.357475 303.111856 
L 685.553823 304.297308 
L 687.151997 304.179985 
L 688.750171 303.789723 
L 690.348345 303.683806 
L 691.946519 303.082525 
L 693.544693 302.979868 
L 695.142866 303.379907 
L 701.535562 303.099635 
L 703.133736 303.378277 
L 704.73191 302.857656 
L 706.330084 302.460061 
L 707.928258 302.629528 
L 709.526432 303.020605 
L 711.124605 304.274495 
L 712.722779 303.872012 
L 714.320953 302.818549 
L 715.919127 302.746851 
L 719.115475 304.218278 
L 720.713649 304.442332 
L 722.311823 304.294049 
L 723.909997 304.267977 
L 725.508171 304.572691 
L 727.106345 304.158801 
L 728.704518 303.156667 
L 730.302692 303.284582 
L 731.900866 303.649587 
L 735.097214 303.117559 
L 736.695388 303.242215 
L 738.293562 304.065106 
L 739.891736 303.57463 
L 741.48991 302.960314 
L 743.088084 303.493156 
L 744.686257 304.795116 
L 746.284431 304.694088 
L 747.882605 303.219402 
L 749.480779 303.1143 
L 751.078953 303.2414 
L 755.873475 303.3685 
L 757.471649 303.181109 
L 759.069823 302.577385 
L 760.667997 301.769159 
L 762.26617 300.716511 
L 763.864344 299.148945 
L 765.462518 294.480466 
L 767.060692 287.877786 
L 768.658866 220.371414 
L 770.25704 215.652421 
L 771.855214 243.653519 
L 773.453388 267.378844 
L 775.051562 282.682982 
L 776.649736 289.83317 
L 779.846083 297.583008 
L 781.444257 299.41781 
L 783.042431 299.241825 
L 784.640605 300.131525 
L 787.836953 302.876395 
L 789.435127 303.929044 
L 792.631475 303.588481 
L 794.229649 303.506192 
L 802.220518 304.558026 
L 805.416866 304.179985 
L 807.01504 304.175911 
L 808.613214 304.293234 
L 810.211388 304.171022 
L 813.407735 303.554262 
L 815.005909 303.257695 
L 816.604083 303.402719 
L 819.800431 304.184873 
L 821.398605 303.904601 
L 822.996779 303.371759 
L 824.594953 303.332652 
L 826.193127 303.804388 
L 827.791301 304.521362 
L 829.389474 304.25657 
L 830.987648 303.808462 
L 834.183996 302.378587 
L 837.380344 302.155347 
L 838.978518 301.865299 
L 842.174866 298.335831 
L 843.77304 299.701341 
L 845.371213 296.993134 
L 846.969387 297.299477 
L 848.567561 298.576995 
L 850.165735 300.825686 
L 851.763909 301.409043 
L 853.362083 299.25812 
L 854.960257 295.396237 
L 856.558431 282.249539 
L 858.156605 265.749358 
L 859.754779 233.133553 
L 861.352953 176.622958 
L 862.951126 172.660046 
L 864.5493 231.230313 
L 866.147474 223.174131 
L 867.745648 224.790582 
L 869.343822 262.5686 
L 870.941996 284.534079 
L 872.54017 293.41804 
L 874.138344 293.160581 
L 875.736518 293.603802 
L 877.334692 294.855247 
L 878.932865 298.267392 
L 880.531039 300.21137 
L 882.129213 300.595929 
L 885.325561 301.979363 
L 885.325561 301.979363 
" clip-path="url(#pb9ba2ceaed)" style="fill: none; stroke: #000000; stroke-width: 1.2; stroke-linecap: square"/>
   </g>
   <g id="line2d_15">
    <path d="M 87.836783 263.394859 
L 89.434957 260.441994 
L 91.03313 266.911841 
L 92.631304 275.087428 
L 94.229478 266.863654 
L 95.827652 267.59248 
L 97.425826 264.198966 
L 99.024 263.882964 
L 100.622174 247.122345 
L 102.220348 246.357467 
L 103.818522 145.332714 
L 105.416696 63.026101 
L 107.01487 145.924514 
L 108.613043 216.641448 
L 110.211217 258.899924 
L 111.809391 250.943408 
L 113.407565 240.57648 
L 115.005739 269.752401 
L 116.603913 253.616555 
L 118.202087 257.371513 
L 119.800261 249.312502 
L 121.398435 247.753653 
L 122.996609 247.076132 
L 124.594782 252.642803 
L 126.192956 254.23843 
L 127.79113 268.021549 
L 129.389304 264.749564 
L 130.987478 279.622378 
L 132.585652 262.840061 
L 134.183826 276.499434 
L 137.380174 249.268995 
L 138.978348 257.640588 
L 140.576522 255.750256 
L 142.174695 264.443627 
L 143.772869 251.411724 
L 145.371043 252.131153 
L 146.969217 237.888564 
L 148.567391 260.459634 
L 150.165565 256.706163 
L 151.763739 265.158645 
L 153.361913 262.352694 
L 154.960087 258.444326 
L 156.558261 264.308754 
L 158.156434 264.200543 
L 159.754608 253.779279 
L 161.352782 259.261882 
L 162.950956 257.92777 
L 164.54913 247.837677 
L 166.147304 262.705786 
L 167.745478 239.746711 
L 169.343652 219.83865 
L 170.941826 220.337188 
L 172.54 222.914633 
L 174.138174 236.280174 
L 175.736347 240.170201 
L 177.334521 233.993716 
L 178.932695 252.670004 
L 180.530869 248.202521 
L 182.129043 251.082553 
L 183.727217 244.933166 
L 185.325391 246.051767 
L 186.923565 238.181289 
L 188.521739 246.333581 
L 190.119913 238.479547 
L 191.718086 245.94352 
L 193.31626 250.495455 
L 194.914434 245.486587 
L 196.512608 258.381055 
L 198.110782 265.351157 
L 199.708956 264.915239 
L 201.30713 257.155857 
L 202.905304 265.773304 
L 204.503478 265.397001 
L 206.101652 255.070915 
L 207.699826 242.714027 
L 209.297999 256.7116 
L 210.896173 245.62836 
L 212.494347 270.979445 
L 214.092521 280.205847 
L 217.288869 259.183696 
L 218.887043 254.703188 
L 220.485217 266.335967 
L 222.083391 257.918196 
L 223.681565 279.621136 
L 225.279738 260.722739 
L 226.877912 235.581031 
L 228.476086 252.447691 
L 230.07426 266.599686 
L 231.672434 273.559358 
L 233.270608 258.814846 
L 234.868782 265.205054 
L 236.466956 263.212411 
L 238.06513 277.193327 
L 239.663304 260.708997 
L 241.261478 283.687826 
L 242.859651 266.52905 
L 244.457825 283.198162 
L 246.055999 285.130342 
L 247.654173 288.198953 
L 249.252347 282.27449 
L 250.850521 283.985704 
L 252.448695 284.708852 
L 254.046869 271.862679 
L 255.645043 260.843535 
L 257.243217 264.333737 
L 258.84139 264.209511 
L 260.439564 164.516312 
L 262.037738 204.196837 
L 263.635912 218.593751 
L 265.234086 126.863051 
L 266.83226 75.76123 
L 268.430434 63.026101 
L 270.028608 138.10003 
L 271.626782 106.225825 
L 273.224956 63.026101 
L 274.82313 63.026101 
L 276.421303 213.819707 
L 278.019477 208.847866 
L 279.617651 113.887786 
L 281.215825 135.922404 
L 282.813999 163.921883 
L 284.412173 211.707628 
L 286.010347 241.970724 
L 287.608521 219.51899 
L 289.206695 255.045435 
L 290.804869 232.339751 
L 292.403042 252.540713 
L 294.001216 275.915124 
L 295.59939 285.005837 
L 297.197564 278.143433 
L 298.795738 285.883252 
L 300.393912 264.480261 
L 301.992086 279.80928 
L 303.59026 280.339574 
L 305.188434 278.573691 
L 306.786608 251.111912 
L 308.384782 234.414657 
L 309.982955 237.342815 
L 311.581129 181.486744 
L 313.179303 231.533656 
L 314.777477 266.331226 
L 316.375651 231.105061 
L 317.973825 287.043461 
L 319.571999 293.78983 
L 321.170173 285.835612 
L 322.768347 250.225932 
L 324.366521 296.604858 
L 325.964694 290.006937 
L 327.562868 280.243355 
L 329.161042 224.250279 
L 332.35739 283.57776 
L 333.955564 287.400978 
L 335.553738 212.704993 
L 337.151912 233.826163 
L 338.750086 262.22387 
L 340.34826 248.750056 
L 341.946434 258.745195 
L 343.544607 280.68608 
L 345.142781 289.334329 
L 346.740955 272.502871 
L 348.339129 252.525457 
L 349.937303 260.867329 
L 351.535477 266.632856 
L 353.133651 230.970574 
L 354.731825 252.005134 
L 356.329999 251.963708 
L 357.928173 288.635668 
L 359.526346 249.786364 
L 361.12452 288.629176 
L 362.722694 248.496541 
L 364.320868 271.730352 
L 365.919042 284.217104 
L 367.517216 268.315111 
L 369.11539 272.683135 
L 370.713564 261.048746 
L 372.311738 256.716653 
L 373.909912 263.338823 
L 375.508086 244.858374 
L 377.106259 277.047575 
L 378.704433 300.063131 
L 380.302607 291.925447 
L 381.900781 284.790568 
L 383.498955 252.116568 
L 385.097129 279.409444 
L 386.695303 258.636312 
L 388.293477 258.819519 
L 389.891651 280.467279 
L 391.489825 283.455877 
L 393.087998 275.465389 
L 394.686172 251.748777 
L 396.284346 272.447673 
L 397.88252 268.11873 
L 399.480694 278.15231 
L 401.078868 290.142867 
L 402.677042 296.67521 
L 404.275216 268.730054 
L 405.87339 269.798963 
L 407.471564 264.94732 
L 409.069738 254.19001 
L 410.667911 276.705209 
L 412.266085 266.818471 
L 413.864259 247.891948 
L 415.462433 269.530017 
L 417.060607 299.776575 
L 420.256955 240.008469 
L 421.855129 264.28461 
L 423.453303 156.990034 
L 425.051477 194.083447 
L 426.64965 259.559297 
L 428.247824 261.816534 
L 429.845998 232.830905 
L 431.444172 281.277509 
L 433.042346 263.393186 
L 434.64052 294.784053 
L 436.238694 244.340139 
L 437.836868 252.254489 
L 439.435042 275.685553 
L 441.033216 270.257216 
L 442.631389 257.978731 
L 444.229563 248.397618 
L 445.827737 250.161265 
L 447.425911 274.154313 
L 449.024085 270.430154 
L 450.622259 267.495552 
M 599.252432 184.212062 
L 602.44878 265.645811 
L 604.046954 247.806018 
L 605.645128 259.628337 
L 607.243302 221.273444 
L 608.841476 267.593245 
L 610.439649 253.370337 
L 612.037823 270.123771 
L 613.635997 278.51201 
L 615.234171 251.662179 
L 616.832345 270.314893 
L 618.430519 203.018067 
L 620.028693 253.183641 
L 621.626867 276.685723 
L 623.225041 262.787316 
L 624.823215 280.273761 
L 626.421389 284.455679 
L 628.019562 289.948683 
L 629.617736 269.638704 
L 631.21591 286.040038 
L 632.814084 284.857703 
L 634.412258 299.709199 
L 636.010432 296.080787 
L 637.608606 289.272469 
L 639.20678 294.711963 
L 640.804954 280.769541 
L 642.403128 275.523135 
L 644.001301 273.033934 
L 645.599475 278.040905 
L 647.197649 284.347454 
L 648.795823 281.531887 
L 650.393997 286.427309 
L 651.992171 283.851501 
L 653.590345 287.684228 
L 655.188519 269.592992 
L 656.786693 278.238533 
L 658.384867 281.537292 
L 659.983041 280.664207 
L 661.581214 286.820662 
L 663.179388 290.022789 
L 664.777562 279.352867 
L 666.375736 286.799955 
L 667.97391 284.482642 
L 669.572084 280.832292 
L 671.170258 269.751875 
L 672.768432 285.639397 
L 674.366606 285.47538 
L 675.96478 268.771666 
L 677.562953 273.489916 
L 679.161127 281.520006 
L 680.759301 271.731456 
L 682.357475 264.969847 
L 683.955649 275.656871 
L 685.553823 288.225121 
L 687.151997 287.919608 
L 688.750171 281.042138 
L 690.348345 264.195185 
L 691.946519 285.46093 
L 693.544693 274.634673 
L 695.142866 275.470192 
L 696.74104 264.487981 
L 698.339214 259.102579 
L 699.937388 261.681504 
L 701.535562 279.022107 
L 703.133736 275.440537 
L 704.73191 276.69098 
L 707.928258 225.772545 
L 709.526432 277.151838 
L 711.124605 280.5744 
L 712.722779 285.84736 
L 714.320953 285.999225 
L 715.919127 288.514447 
L 717.517301 273.98371 
L 719.115475 269.077036 
L 720.713649 266.824699 
L 722.311823 253.156386 
L 723.909997 266.895655 
L 725.508171 261.114772 
L 727.106345 276.428131 
L 728.704518 257.116022 
L 730.302692 273.361807 
L 731.900866 255.135192 
L 733.49904 246.43436 
L 735.097214 265.355756 
L 736.695388 256.488963 
L 738.293562 268.304247 
L 739.891736 271.408022 
L 741.48991 273.842673 
L 743.088084 278.265786 
L 744.686257 272.029164 
L 747.882605 278.946835 
L 749.480779 275.928346 
L 751.078953 270.518049 
L 752.677127 260.877664 
L 754.275301 233.818807 
L 755.873475 265.127466 
L 757.471649 265.228407 
L 759.069823 268.377208 
L 760.667997 265.305772 
L 762.26617 261.960352 
L 763.864344 266.367335 
L 765.462518 236.171468 
L 767.060692 129.011545 
L 768.658866 217.715429 
L 770.25704 259.941299 
L 771.855214 258.384541 
L 773.453388 249.380115 
L 775.051562 248.307382 
L 776.649736 258.934359 
L 778.247909 262.831264 
L 779.846083 265.212841 
L 781.444257 252.324857 
L 783.042431 267.730436 
L 784.640605 269.629913 
L 786.238779 268.515557 
L 787.836953 248.444526 
L 789.435127 256.57754 
L 791.033301 265.597279 
L 794.229649 274.079888 
L 795.827822 264.413554 
L 797.425996 266.535008 
L 799.02417 260.383964 
L 800.622344 254.900091 
L 802.220518 271.030262 
L 803.818692 277.599932 
L 805.416866 270.516426 
L 807.01504 277.867148 
L 808.613214 273.22059 
L 810.211388 276.632335 
L 811.809561 274.170109 
L 813.407735 245.88701 
L 815.005909 257.728476 
L 816.604083 241.851913 
L 818.202257 260.399613 
L 819.800431 276.424936 
L 821.398605 281.947466 
L 822.996779 265.531038 
L 824.594953 268.976719 
L 826.193127 268.086626 
L 827.791301 256.714965 
L 829.389474 260.811706 
L 830.987648 266.270289 
L 832.585822 257.919256 
L 834.183996 277.827434 
L 835.78217 272.435783 
L 837.380344 267.890585 
L 838.978518 273.563193 
L 840.576692 267.676068 
L 842.174866 260.906672 
L 843.77304 231.051535 
L 845.371213 258.159253 
L 846.969387 273.828702 
L 848.567561 270.466419 
L 850.165735 254.650717 
L 853.362083 270.999092 
L 854.960257 263.292872 
L 856.558431 232.158146 
L 858.156605 182.748984 
L 859.754779 162.529047 
L 861.352953 170.719796 
L 862.951126 172.523715 
L 864.5493 63.026101 
L 866.147474 109.591037 
L 867.745648 185.901058 
L 870.941996 224.543093 
L 872.54017 163.039206 
L 874.138344 244.198421 
L 875.736518 238.673696 
L 877.334692 246.790983 
L 878.932865 259.992317 
L 880.531039 244.50068 
L 882.129213 251.535273 
L 883.727387 263.642543 
L 885.325561 253.792567 
L 885.325561 253.792567 
" clip-path="url(#pb9ba2ceaed)" style="fill: none; stroke: #ff7f0e; stroke-width: 1.2; stroke-linecap: square"/>
   </g>
   <g id="line2d_16">
    <path d="M 87.836783 281.37721 
L 89.434957 284.927128 
L 91.03313 287.461561 
L 92.631304 295.954592 
L 94.229478 291.152673 
L 95.827652 283.86816 
L 97.425826 288.769492 
L 99.024 291.315907 
L 100.622174 274.954125 
L 102.220348 275.961906 
L 103.818522 74.094184 
L 105.416696 63.026101 
L 107.01487 158.731774 
L 108.613043 245.089705 
L 110.211217 279.427218 
L 111.809391 261.933641 
L 113.407565 257.08897 
L 115.005739 289.074404 
L 116.603913 280.341905 
L 118.202087 274.141559 
L 119.800261 274.074371 
L 121.398435 271.14159 
L 122.996609 257.045109 
L 124.594782 248.522033 
L 126.192956 264.051113 
L 127.79113 281.939181 
L 129.389304 291.6941 
L 130.987478 305.103836 
L 132.585652 290.198971 
L 134.183826 302.199517 
L 135.782 284.439554 
L 138.978348 282.109294 
L 140.576522 286.771097 
L 142.174695 289.449209 
L 143.772869 277.261412 
L 145.371043 274.930628 
L 146.969217 253.127206 
L 148.567391 273.778193 
L 150.165565 288.523504 
L 151.763739 290.0583 
L 153.361913 289.571392 
L 154.960087 283.433166 
L 156.558261 290.691378 
L 158.156434 286.740158 
L 159.754608 283.292791 
L 161.352782 290.617057 
L 162.950956 288.605449 
L 164.54913 283.161296 
L 166.147304 299.137545 
L 167.745478 278.353357 
L 169.343652 259.493189 
L 170.941826 261.578545 
L 172.54 255.027952 
L 174.138174 281.387451 
L 175.736347 271.991465 
L 177.334521 270.081037 
L 178.932695 287.856396 
L 182.129043 284.502329 
L 183.727217 285.920182 
L 185.325391 286.238202 
L 186.923565 285.665154 
L 188.521739 285.501931 
L 190.119913 286.493039 
L 191.718086 287.689931 
L 193.31626 273.061876 
L 194.914434 272.077613 
L 196.512608 287.563275 
L 198.110782 291.774491 
L 199.708956 284.835165 
L 201.30713 273.823155 
L 202.905304 287.762516 
L 204.503478 287.559207 
L 206.101652 279.192382 
L 207.699826 279.25107 
L 209.297999 285.929265 
L 210.896173 287.52636 
L 212.494347 301.148374 
L 214.092521 305.03435 
L 215.690695 299.832004 
L 217.288869 288.249871 
L 218.887043 279.334192 
L 220.485217 295.571019 
L 222.083391 289.934884 
L 223.681565 300.811669 
L 225.279738 289.027818 
L 228.476086 278.802774 
L 230.07426 290.57207 
L 231.672434 278.467101 
L 233.270608 287.829941 
L 234.868782 284.484071 
L 236.466956 282.863679 
L 238.06513 296.64228 
L 239.663304 284.498106 
L 241.261478 296.989548 
L 242.859651 293.62517 
L 244.457825 295.345214 
L 246.055999 296.212081 
L 247.654173 288.299517 
L 249.252347 288.474904 
L 250.850521 290.435472 
L 252.448695 283.291085 
L 254.046869 289.479059 
L 255.645043 273.377422 
L 257.243217 282.108183 
L 258.84139 282.415415 
L 260.439564 254.326927 
L 262.037738 248.611201 
L 263.635912 252.532904 
L 265.234086 220.847399 
L 266.83226 211.311037 
L 268.430434 198.206643 
L 270.028608 223.536275 
L 271.626782 239.410206 
L 273.224956 200.560442 
L 274.82313 173.472198 
L 276.421303 194.97948 
L 278.019477 128.421619 
L 279.617651 73.698531 
L 281.215825 63.026101 
L 282.813999 177.504971 
L 284.412173 217.653175 
L 286.010347 250.918365 
L 287.608521 252.287732 
L 289.206695 261.884697 
L 290.804869 243.813695 
L 292.403042 206.839497 
L 294.001216 256.480835 
L 295.59939 263.208682 
L 297.197564 274.063988 
L 298.795738 262.959673 
L 300.393912 259.265193 
L 301.992086 267.15835 
L 303.59026 276.800149 
L 305.188434 249.658196 
L 306.786608 240.516029 
L 308.384782 209.09928 
L 309.982955 219.681255 
L 311.581129 251.99333 
L 313.179303 253.911143 
L 314.777477 235.543624 
L 316.375651 244.457638 
L 317.973825 276.65396 
L 319.571999 287.722677 
L 321.170173 272.779497 
L 322.768347 281.865051 
L 324.366521 287.189723 
L 325.964694 256.936742 
L 327.562868 184.070516 
L 329.161042 167.84158 
L 330.759216 229.830818 
L 332.35739 284.363291 
L 333.955564 286.05016 
L 335.553738 271.249632 
L 337.151912 282.763922 
L 338.750086 286.021988 
L 340.34826 295.883767 
L 341.946434 303.945095 
L 343.544607 291.647105 
L 345.142781 292.199362 
L 346.740955 284.864647 
L 348.339129 300.750014 
L 349.937303 291.598331 
L 353.133651 296.730204 
L 354.731825 286.678152 
L 356.329999 289.015646 
L 357.928173 295.006775 
L 359.526346 286.96455 
L 361.12452 280.165006 
L 362.722694 284.311936 
L 364.320868 269.738327 
L 365.919042 271.929324 
L 367.517216 276.55072 
L 369.11539 276.057315 
L 370.713564 274.060564 
L 372.311738 272.715817 
L 373.909912 277.394162 
L 375.508086 284.95844 
L 377.106259 280.79118 
L 378.704433 295.014148 
L 380.302607 301.362008 
L 381.900781 288.708997 
L 383.498955 287.050278 
L 385.097129 272.001169 
L 386.695303 273.070482 
L 388.293477 268.356219 
L 389.891651 285.104335 
L 391.489825 290.916172 
L 393.087998 284.985725 
L 394.686172 289.743837 
L 397.88252 275.883502 
L 399.480694 299.294415 
L 401.078868 291.658519 
L 402.677042 300.556904 
L 404.275216 285.415063 
L 405.87339 287.71016 
L 409.069738 274.411444 
L 410.667911 289.116542 
L 412.266085 295.479875 
L 413.864259 288.264499 
L 415.462433 289.532744 
L 417.060607 289.421631 
L 418.658781 287.719573 
L 420.256955 273.648653 
L 421.855129 266.304712 
L 423.453303 246.674688 
L 425.051477 243.332916 
L 428.247824 278.720148 
L 429.845998 260.681119 
L 431.444172 285.995683 
L 433.042346 280.770762 
L 434.64052 289.761613 
L 436.238694 274.197881 
L 437.836868 266.960037 
L 439.435042 299.29481 
L 441.033216 299.796596 
L 442.631389 294.99859 
L 444.229563 272.26051 
L 445.827737 273.815946 
L 447.425911 286.448973 
L 449.024085 279.131225 
L 450.622259 281.327891 
M 599.252432 238.141587 
L 600.850606 253.247368 
L 602.44878 259.827901 
L 604.046954 244.542939 
L 605.645128 236.17649 
L 607.243302 186.4096 
L 608.841476 205.863395 
L 610.439649 220.371363 
L 612.037823 222.384814 
L 613.635997 225.303617 
L 616.832345 213.063113 
L 618.430519 232.810989 
L 620.028693 267.063665 
L 621.626867 242.843462 
L 623.225041 260.757714 
L 624.823215 283.535334 
L 626.421389 268.932138 
L 628.019562 259.6062 
L 629.617736 277.360615 
L 631.21591 278.103103 
L 632.814084 289.436615 
L 634.412258 299.021038 
L 636.010432 285.650119 
L 637.608606 281.382125 
L 639.20678 293.209993 
L 642.403128 242.682702 
L 644.001301 258.570109 
L 645.599475 279.231292 
L 647.197649 282.254707 
L 648.795823 278.44752 
L 650.393997 278.390824 
L 651.992171 271.624648 
L 653.590345 277.429691 
L 655.188519 264.341898 
L 656.786693 260.347451 
L 658.384867 249.840475 
L 659.983041 258.273303 
L 661.581214 288.705664 
L 663.179388 291.007736 
L 664.777562 283.789533 
L 666.375736 285.646021 
L 667.97391 287.989948 
L 669.572084 278.742966 
L 671.170258 264.681593 
L 672.768432 287.698577 
L 674.366606 286.598683 
L 675.96478 274.227749 
L 677.562953 268.760283 
L 679.161127 271.009429 
L 680.759301 268.305651 
L 682.357475 258.296011 
L 683.955649 274.828953 
L 685.553823 285.920485 
L 687.151997 287.117414 
L 688.750171 290.019263 
L 690.348345 284.221564 
L 691.946519 285.155741 
L 693.544693 272.64423 
L 695.142866 276.219298 
L 696.74104 272.642668 
L 698.339214 252.12711 
L 699.937388 256.309786 
L 701.535562 266.212272 
L 703.133736 279.573837 
L 704.73191 271.87436 
L 706.330084 259.797707 
L 707.928258 248.660969 
L 709.526432 263.051486 
L 711.124605 285.160661 
L 712.722779 285.709013 
L 714.320953 262.814213 
L 715.919127 277.16031 
L 719.115475 223.792714 
L 720.713649 203.022328 
L 722.311823 187.345219 
L 723.909997 200.834946 
L 725.508171 175.185686 
L 727.106345 215.030184 
L 728.704518 228.119026 
L 730.302692 225.99574 
L 731.900866 208.213698 
L 733.49904 213.917703 
L 735.097214 249.632012 
L 736.695388 262.304664 
L 738.293562 283.150174 
L 739.891736 272.401602 
L 741.48991 285.516657 
L 743.088084 270.136391 
L 744.686257 283.885179 
L 746.284431 277.748425 
L 747.882605 261.431876 
L 749.480779 253.465187 
L 751.078953 254.176511 
L 752.677127 252.211441 
L 754.275301 243.295621 
L 755.873475 238.253005 
L 757.471649 244.928964 
L 759.069823 247.12456 
L 760.667997 259.56904 
L 762.26617 257.445767 
L 763.864344 265.480911 
L 765.462518 237.342076 
L 767.060692 233.377587 
L 768.658866 237.289401 
L 770.25704 242.052693 
L 771.855214 239.682315 
L 773.453388 254.465499 
L 775.051562 250.347693 
L 776.649736 256.254249 
L 778.247909 257.392435 
L 779.846083 254.345281 
L 781.444257 249.649714 
L 783.042431 266.095553 
L 784.640605 273.727624 
L 786.238779 271.578124 
L 787.836953 252.028564 
L 789.435127 239.734037 
L 791.033301 249.428616 
L 792.631475 267.802775 
L 794.229649 278.263622 
L 795.827822 266.0535 
L 797.425996 255.91412 
L 799.02417 259.411221 
L 800.622344 256.815761 
L 802.220518 260.128996 
L 803.818692 258.205933 
L 805.416866 252.018609 
L 807.01504 258.448545 
L 808.613214 249.612373 
L 810.211388 274.182827 
L 811.809561 272.545908 
L 813.407735 261.475418 
L 815.005909 267.152662 
L 816.604083 255.989606 
L 818.202257 269.498898 
L 819.800431 285.536871 
L 821.398605 300.103368 
L 822.996779 280.549311 
L 824.594953 280.750281 
L 826.193127 268.258346 
L 827.791301 251.362458 
L 829.389474 261.364508 
L 830.987648 257.73762 
L 832.585822 259.483353 
L 834.183996 274.767072 
L 835.78217 285.653338 
L 837.380344 288.729369 
L 838.978518 289.730606 
L 840.576692 284.290212 
L 842.174866 291.895141 
L 843.77304 282.530904 
L 845.371213 289.752085 
L 846.969387 293.859643 
L 848.567561 288.83583 
L 850.165735 289.455183 
L 851.763909 286.839012 
L 853.362083 292.263155 
L 854.960257 292.811661 
L 856.558431 290.553732 
L 859.754779 248.337053 
L 861.352953 230.95779 
L 862.951126 237.546892 
L 864.5493 210.552396 
L 866.147474 176.147567 
L 867.745648 211.233655 
L 869.343822 251.147971 
L 870.941996 276.622943 
L 872.54017 274.261963 
L 874.138344 270.294696 
L 875.736518 273.79096 
L 877.334692 281.327382 
L 878.932865 289.811835 
L 880.531039 279.15424 
L 882.129213 282.504276 
L 883.727387 279.196843 
L 885.325561 282.457397 
L 885.325561 282.457397 
" clip-path="url(#pb9ba2ceaed)" style="fill: none; stroke-dasharray: 4.44,1.92; stroke-dashoffset: 0; stroke: #9467bd; stroke-width: 1.2"/>
   </g>
   <g id="patch_3">
    <path d="M 47.962344 317.877656 
L 47.962344 50.890312 
" style="fill: none; stroke: #000000; stroke-width: 0.8; stroke-linejoin: miter; stroke-linecap: square"/>
   </g>
   <g id="patch_4">
    <path d="M 925.2 317.877656 
L 925.2 50.890312 
" style="fill: none; stroke: #000000; stroke-width: 0.8; stroke-linejoin: miter; stroke-linecap: square"/>
   </g>
   <g id="patch_5">
    <path d="M 47.962344 317.877656 
L 925.2 317.877656 
" style="fill: none; stroke: #000000; stroke-width: 0.8; stroke-linejoin: miter; stroke-linecap: square"/>
   </g>
   <g id="patch_6">
    <path d="M 47.962344 50.890312 
L 925.2 50.890312 
" style="fill: none; stroke: #000000; stroke-width: 0.8; stroke-linejoin: miter; stroke-linecap: square"/>
   </g>
   <g id="legend_1">
    <g id="line2d_17">
     <path d="M 675.710938 63.98875 
L 685.710938 63.98875 
L 695.710938 63.98875 
" style="fill: none; stroke: #2ca02c; stroke-width: 1.2; stroke-linecap: square"/>
    </g>
    <g id="text_16">
     <!-- ENCSR203XPU -->
     <g transform="translate(703.710938 67.48875) scale(0.1 -0.1)">
      <defs>
       <path id="DejaVuSans-28" d="M 628 4666 
L 3578 4666 
L 3578 4134 
L 1259 4134 
L 1259 2753 
L 3481 2753 
L 3481 2222 
L 1259 2222 
L 1259 531 
L 3634 531 
L 3634 0 
L 628 0 
L 628 4666 
z
" transform="scale(0.015625)"/>
       <path id="DejaVuSans-31" d="M 628 4666 
L 1478 4666 
L 3547 763 
L 3547 4666 
L 4159 4666 
L 4159 0 
L 3309 0 
L 1241 3903 
L 1241 0 
L 628 0 
L 628 4666 
z
" transform="scale(0.015625)"/>
       <path id="DejaVuSans-26" d="M 4122 4306 
L 4122 3641 
Q 3803 3938 3442 4084 
Q 3081 4231 2675 4231 
Q 1875 4231 1450 3742 
Q 1025 3253 1025 2328 
Q 1025 1406 1450 917 
Q 1875 428 2675 428 
Q 3081 428 3442 575 
Q 3803 722 4122 1019 
L 4122 359 
Q 3791 134 3420 21 
Q 3050 -91 2638 -91 
Q 1578 -91 968 557 
Q 359 1206 359 2328 
Q 359 3453 968 4101 
Q 1578 4750 2638 4750 
Q 3056 4750 3426 4639 
Q 3797 4528 4122 4306 
z
" transform="scale(0.015625)"/>
       <path id="DejaVuSans-36" d="M 3425 4513 
L 3425 3897 
Q 3066 4069 2747 4153 
Q 2428 4238 2131 4238 
Q 1616 4238 1336 4038 
Q 1056 3838 1056 3469 
Q 1056 3159 1242 3001 
Q 1428 2844 1947 2747 
L 2328 2669 
Q 3034 2534 3370 2195 
Q 3706 1856 3706 1288 
Q 3706 609 3251 259 
Q 2797 -91 1919 -91 
Q 1588 -91 1214 -16 
Q 841 59 441 206 
L 441 856 
Q 825 641 1194 531 
Q 1563 422 1919 422 
Q 2459 422 2753 634 
Q 3047 847 3047 1241 
Q 3047 1584 2836 1778 
Q 2625 1972 2144 2069 
L 1759 2144 
Q 1053 2284 737 2584 
Q 422 2884 422 3419 
Q 422 4038 858 4394 
Q 1294 4750 2059 4750 
Q 2388 4750 2728 4690 
Q 3069 4631 3425 4513 
z
" transform="scale(0.015625)"/>
       <path id="DejaVuSans-35" d="M 2841 2188 
Q 3044 2119 3236 1894 
Q 3428 1669 3622 1275 
L 4263 0 
L 3584 0 
L 2988 1197 
Q 2756 1666 2539 1819 
Q 2322 1972 1947 1972 
L 1259 1972 
L 1259 0 
L 628 0 
L 628 4666 
L 2053 4666 
Q 2853 4666 3247 4331 
Q 3641 3997 3641 3322 
Q 3641 2881 3436 2590 
Q 3231 2300 2841 2188 
z
M 1259 4147 
L 1259 2491 
L 2053 2491 
Q 2509 2491 2742 2702 
Q 2975 2913 2975 3322 
Q 2975 3731 2742 3939 
Q 2509 4147 2053 4147 
L 1259 4147 
z
" transform="scale(0.015625)"/>
       <path id="DejaVuSans-3b" d="M 403 4666 
L 1081 4666 
L 2241 2931 
L 3406 4666 
L 4084 4666 
L 2584 2425 
L 4184 0 
L 3506 0 
L 2194 1984 
L 872 0 
L 191 0 
L 1856 2491 
L 403 4666 
z
" transform="scale(0.015625)"/>
       <path id="DejaVuSans-33" d="M 1259 4147 
L 1259 2394 
L 2053 2394 
Q 2494 2394 2734 2622 
Q 2975 2850 2975 3272 
Q 2975 3691 2734 3919 
Q 2494 4147 2053 4147 
L 1259 4147 
z
M 628 4666 
L 2053 4666 
Q 2838 4666 3239 4311 
Q 3641 3956 3641 3272 
Q 3641 2581 3239 2228 
Q 2838 1875 2053 1875 
L 1259 1875 
L 1259 0 
L 628 0 
L 628 4666 
z
" transform="scale(0.015625)"/>
       <path id="DejaVuSans-38" d="M 556 4666 
L 1191 4666 
L 1191 1831 
Q 1191 1081 1462 751 
Q 1734 422 2344 422 
Q 2950 422 3222 751 
Q 3494 1081 3494 1831 
L 3494 4666 
L 4128 4666 
L 4128 1753 
Q 4128 841 3676 375 
Q 3225 -91 2344 -91 
Q 1459 -91 1007 375 
Q 556 841 556 1753 
L 556 4666 
z
" transform="scale(0.015625)"/>
      </defs>
      <use xlink:href="#DejaVuSans-28"/>
      <use xlink:href="#DejaVuSans-31" transform="translate(63.1875 0)"/>
      <use xlink:href="#DejaVuSans-26" transform="translate(138 0)"/>
      <use xlink:href="#DejaVuSans-36" transform="translate(207.828125 0)"/>
      <use xlink:href="#DejaVuSans-35" transform="translate(271.3125 0)"/>
      <use xlink:href="#DejaVuSans-15" transform="translate(340.796875 0)"/>
      <use xlink:href="#DejaVuSans-13" transform="translate(404.421875 0)"/>
      <use xlink:href="#DejaVuSans-16" transform="translate(468.046875 0)"/>
      <use xlink:href="#DejaVuSans-3b" transform="translate(531.671875 0)"/>
      <use xlink:href="#DejaVuSans-33" transform="translate(600.171875 0)"/>
      <use xlink:href="#DejaVuSans-38" transform="translate(660.46875 0)"/>
     </g>
    </g>
    <g id="line2d_18">
     <path d="M 675.710938 78.989531 
L 685.710938 78.989531 
L 695.710938 78.989531 
" style="fill: none; stroke: #000000; stroke-width: 1.2; stroke-linecap: square"/>
    </g>
    <g id="text_17">
     <!-- AlphaGenome -->
     <g transform="translate(703.710938 82.489531) scale(0.1 -0.1)">
      <defs>
       <path id="DejaVuSans-24" d="M 2188 4044 
L 1331 1722 
L 3047 1722 
L 2188 4044 
z
M 1831 4666 
L 2547 4666 
L 4325 0 
L 3669 0 
L 3244 1197 
L 1141 1197 
L 716 0 
L 50 0 
L 1831 4666 
z
" transform="scale(0.015625)"/>
       <path id="DejaVuSans-53" d="M 1159 525 
L 1159 -1331 
L 581 -1331 
L 581 3500 
L 1159 3500 
L 1159 2969 
Q 1341 3281 1617 3432 
Q 1894 3584 2278 3584 
Q 2916 3584 3314 3078 
Q 3713 2572 3713 1747 
Q 3713 922 3314 415 
Q 2916 -91 2278 -91 
Q 1894 -91 1617 61 
Q 1341 213 1159 525 
z
M 3116 1747 
Q 3116 2381 2855 2742 
Q 2594 3103 2138 3103 
Q 1681 3103 1420 2742 
Q 1159 2381 1159 1747 
Q 1159 1113 1420 752 
Q 1681 391 2138 391 
Q 2594 391 2855 752 
Q 3116 1113 3116 1747 
z
" transform="scale(0.015625)"/>
       <path id="DejaVuSans-2a" d="M 3809 666 
L 3809 1919 
L 2778 1919 
L 2778 2438 
L 4434 2438 
L 4434 434 
Q 4069 175 3628 42 
Q 3188 -91 2688 -91 
Q 1594 -91 976 548 
Q 359 1188 359 2328 
Q 359 3472 976 4111 
Q 1594 4750 2688 4750 
Q 3144 4750 3555 4637 
Q 3966 4525 4313 4306 
L 4313 3634 
Q 3963 3931 3569 4081 
Q 3175 4231 2741 4231 
Q 1884 4231 1454 3753 
Q 1025 3275 1025 2328 
Q 1025 1384 1454 906 
Q 1884 428 2741 428 
Q 3075 428 3337 486 
Q 3600 544 3809 666 
z
" transform="scale(0.015625)"/>
      </defs>
      <use xlink:href="#DejaVuSans-24"/>
      <use xlink:href="#DejaVuSans-4f" transform="translate(68.40625 0)"/>
      <use xlink:href="#DejaVuSans-53" transform="translate(96.1875 0)"/>
      <use xlink:href="#DejaVuSans-4b" transform="translate(159.671875 0)"/>
      <use xlink:href="#DejaVuSans-44" transform="translate(223.046875 0)"/>
      <use xlink:href="#DejaVuSans-2a" transform="translate(284.328125 0)"/>
      <use xlink:href="#DejaVuSans-48" transform="translate(361.8125 0)"/>
      <use xlink:href="#DejaVuSans-51" transform="translate(423.34375 0)"/>
      <use xlink:href="#DejaVuSans-52" transform="translate(486.71875 0)"/>
      <use xlink:href="#DejaVuSans-50" transform="translate(547.90625 0)"/>
      <use xlink:href="#DejaVuSans-48" transform="translate(645.3125 0)"/>
     </g>
    </g>
    <g id="line2d_19">
     <path d="M 797.076563 63.98875 
L 807.076563 63.98875 
L 817.076563 63.98875 
" style="fill: none; stroke: #ff7f0e; stroke-width: 1.2; stroke-linecap: square"/>
    </g>
    <g id="text_18">
     <!-- DiMeLo pooled -->
     <g transform="translate(825.076563 67.48875) scale(0.1 -0.1)">
      <defs>
       <path id="DejaVuSans-27" d="M 1259 4147 
L 1259 519 
L 2022 519 
Q 2988 519 3436 956 
Q 3884 1394 3884 2338 
Q 3884 3275 3436 3711 
Q 2988 4147 2022 4147 
L 1259 4147 
z
M 628 4666 
L 1925 4666 
Q 3281 4666 3915 4102 
Q 4550 3538 4550 2338 
Q 4550 1131 3912 565 
Q 3275 0 1925 0 
L 628 0 
L 628 4666 
z
" transform="scale(0.015625)"/>
       <path id="DejaVuSans-30" d="M 628 4666 
L 1569 4666 
L 2759 1491 
L 3956 4666 
L 4897 4666 
L 4897 0 
L 4281 0 
L 4281 4097 
L 3078 897 
L 2444 897 
L 1241 4097 
L 1241 0 
L 628 0 
L 628 4666 
z
" transform="scale(0.015625)"/>
       <path id="DejaVuSans-2f" d="M 628 4666 
L 1259 4666 
L 1259 531 
L 3531 531 
L 3531 0 
L 628 0 
L 628 4666 
z
" transform="scale(0.015625)"/>
      </defs>
      <use xlink:href="#DejaVuSans-27"/>
      <use xlink:href="#DejaVuSans-4c" transform="translate(77 0)"/>
      <use xlink:href="#DejaVuSans-30" transform="translate(104.78125 0)"/>
      <use xlink:href="#DejaVuSans-48" transform="translate(191.0625 0)"/>
      <use xlink:href="#DejaVuSans-2f" transform="translate(252.59375 0)"/>
      <use xlink:href="#DejaVuSans-52" transform="translate(306.5625 0)"/>
      <use xlink:href="#DejaVuSans-3" transform="translate(367.75 0)"/>
      <use xlink:href="#DejaVuSans-53" transform="translate(399.53125 0)"/>
      <use xlink:href="#DejaVuSans-52" transform="translate(463.015625 0)"/>
      <use xlink:href="#DejaVuSans-52" transform="translate(524.203125 0)"/>
      <use xlink:href="#DejaVuSans-4f" transform="translate(585.390625 0)"/>
      <use xlink:href="#DejaVuSans-48" transform="translate(613.171875 0)"/>
      <use xlink:href="#DejaVuSans-47" transform="translate(674.703125 0)"/>
     </g>
    </g>
    <g id="line2d_20">
     <path d="M 797.076563 78.989531 
L 807.076563 78.989531 
L 817.076563 78.989531 
" style="fill: none; stroke-dasharray: 4.44,1.92; stroke-dashoffset: 0; stroke: #9467bd; stroke-width: 1.2"/>
    </g>
    <g id="text_19">
     <!-- HyenaDNA pooled -->
     <g transform="translate(825.076563 82.489531) scale(0.1 -0.1)">
      <defs>
       <path id="DejaVuSans-2b" d="M 628 4666 
L 1259 4666 
L 1259 2753 
L 3553 2753 
L 3553 4666 
L 4184 4666 
L 4184 0 
L 3553 0 
L 3553 2222 
L 1259 2222 
L 1259 0 
L 628 0 
L 628 4666 
z
" transform="scale(0.015625)"/>
       <path id="DejaVuSans-5c" d="M 2059 -325 
Q 1816 -950 1584 -1140 
Q 1353 -1331 966 -1331 
L 506 -1331 
L 506 -850 
L 844 -850 
Q 1081 -850 1212 -737 
Q 1344 -625 1503 -206 
L 1606 56 
L 191 3500 
L 800 3500 
L 1894 763 
L 2988 3500 
L 3597 3500 
L 2059 -325 
z
" transform="scale(0.015625)"/>
      </defs>
      <use xlink:href="#DejaVuSans-2b"/>
      <use xlink:href="#DejaVuSans-5c" transform="translate(75.203125 0)"/>
      <use xlink:href="#DejaVuSans-48" transform="translate(134.390625 0)"/>
      <use xlink:href="#DejaVuSans-51" transform="translate(195.921875 0)"/>
      <use xlink:href="#DejaVuSans-44" transform="translate(259.296875 0)"/>
      <use xlink:href="#DejaVuSans-27" transform="translate(320.578125 0)"/>
      <use xlink:href="#DejaVuSans-31" transform="translate(397.578125 0)"/>
      <use xlink:href="#DejaVuSans-24" transform="translate(472.390625 0)"/>
      <use xlink:href="#DejaVuSans-3" transform="translate(540.796875 0)"/>
      <use xlink:href="#DejaVuSans-53" transform="translate(572.578125 0)"/>
      <use xlink:href="#DejaVuSans-52" transform="translate(636.0625 0)"/>
      <use xlink:href="#DejaVuSans-52" transform="translate(697.25 0)"/>
      <use xlink:href="#DejaVuSans-4f" transform="translate(758.4375 0)"/>
      <use xlink:href="#DejaVuSans-48" transform="translate(786.21875 0)"/>
      <use xlink:href="#DejaVuSans-47" transform="translate(847.75 0)"/>
     </g>
    </g>
   </g>
  </g>
  <g id="text_20">
   <!-- chr16 region 6: overlay -->
   <g transform="translate(397.985625 17.519297) scale(0.12 -0.12)">
    <defs>
     <path id="DejaVuSans-1d" d="M 750 794 
L 1409 794 
L 1409 0 
L 750 0 
L 750 794 
z
M 750 3309 
L 1409 3309 
L 1409 2516 
L 750 2516 
L 750 3309 
z
" transform="scale(0.015625)"/>
     <path id="DejaVuSans-59" d="M 191 3500 
L 800 3500 
L 1894 563 
L 2988 3500 
L 3597 3500 
L 2284 0 
L 1503 0 
L 191 3500 
z
" transform="scale(0.015625)"/>
    </defs>
    <use xlink:href="#DejaVuSans-46"/>
    <use xlink:href="#DejaVuSans-4b" transform="translate(54.984375 0)"/>
    <use xlink:href="#DejaVuSans-55" transform="translate(118.359375 0)"/>
    <use xlink:href="#DejaVuSans-14" transform="translate(159.46875 0)"/>
    <use xlink:href="#DejaVuSans-19" transform="translate(223.09375 0)"/>
    <use xlink:href="#DejaVuSans-3" transform="translate(286.71875 0)"/>
    <use xlink:href="#DejaVuSans-55" transform="translate(318.5 0)"/>
    <use xlink:href="#DejaVuSans-48" transform="translate(357.40625 0)"/>
    <use xlink:href="#DejaVuSans-4a" transform="translate(418.9375 0)"/>
    <use xlink:href="#DejaVuSans-4c" transform="translate(482.421875 0)"/>
    <use xlink:href="#DejaVuSans-52" transform="translate(510.203125 0)"/>
    <use xlink:href="#DejaVuSans-51" transform="translate(571.390625 0)"/>
    <use xlink:href="#DejaVuSans-3" transform="translate(634.765625 0)"/>
    <use xlink:href="#DejaVuSans-19" transform="translate(666.546875 0)"/>
    <use xlink:href="#DejaVuSans-1d" transform="translate(730.171875 0)"/>
    <use xlink:href="#DejaVuSans-3" transform="translate(763.859375 0)"/>
    <use xlink:href="#DejaVuSans-52" transform="translate(795.640625 0)"/>
    <use xlink:href="#DejaVuSans-59" transform="translate(856.828125 0)"/>
    <use xlink:href="#DejaVuSans-48" transform="translate(916.015625 0)"/>
    <use xlink:href="#DejaVuSans-55" transform="translate(977.546875 0)"/>
    <use xlink:href="#DejaVuSans-4f" transform="translate(1018.65625 0)"/>
    <use xlink:href="#DejaVuSans-44" transform="translate(1046.4375 0)"/>
    <use xlink:href="#DejaVuSans-5c" transform="translate(1107.71875 0)"/>
   </g>
   <!-- chr16_rank7_score3.907_reads501 -->
   <g transform="translate(363.169688 31.922578) scale(0.12 -0.12)">
    <defs>
     <path id="DejaVuSans-42" d="M 3263 -1063 
L 3263 -1509 
L -63 -1509 
L -63 -1063 
L 3263 -1063 
z
" transform="scale(0.015625)"/>
     <path id="DejaVuSans-4e" d="M 581 4863 
L 1159 4863 
L 1159 1991 
L 2875 3500 
L 3609 3500 
L 1753 1863 
L 3688 0 
L 2938 0 
L 1159 1709 
L 1159 0 
L 581 0 
L 581 4863 
z
" transform="scale(0.015625)"/>
     <path id="DejaVuSans-18" d="M 691 4666 
L 3169 4666 
L 3169 4134 
L 1269 4134 
L 1269 2991 
Q 1406 3038 1543 3061 
Q 1681 3084 1819 3084 
Q 2600 3084 3056 2656 
Q 3513 2228 3513 1497 
Q 3513 744 3044 326 
Q 2575 -91 1722 -91 
Q 1428 -91 1123 -41 
Q 819 9 494 109 
L 494 744 
Q 775 591 1075 516 
Q 1375 441 1709 441 
Q 2250 441 2565 725 
Q 2881 1009 2881 1497 
Q 2881 1984 2565 2268 
Q 2250 2553 1709 2553 
Q 1456 2553 1204 2497 
Q 953 2441 691 2322 
L 691 4666 
z
" transform="scale(0.015625)"/>
    </defs>
    <use xlink:href="#DejaVuSans-46"/>
    <use xlink:href="#DejaVuSans-4b" transform="translate(54.984375 0)"/>
    <use xlink:href="#DejaVuSans-55" transform="translate(118.359375 0)"/>
    <use xlink:href="#DejaVuSans-14" transform="translate(159.46875 0)"/>
    <use xlink:href="#DejaVuSans-19" transform="translate(223.09375 0)"/>
    <use xlink:href="#DejaVuSans-42" transform="translate(286.71875 0)"/>
    <use xlink:href="#DejaVuSans-55" transform="translate(336.71875 0)"/>
    <use xlink:href="#DejaVuSans-44" transform="translate(377.828125 0)"/>
    <use xlink:href="#DejaVuSans-51" transform="translate(439.109375 0)"/>
    <use xlink:href="#DejaVuSans-4e" transform="translate(502.484375 0)"/>
    <use xlink:href="#DejaVuSans-1a" transform="translate(560.390625 0)"/>
    <use xlink:href="#DejaVuSans-42" transform="translate(624.015625 0)"/>
    <use xlink:href="#DejaVuSans-56" transform="translate(674.015625 0)"/>
    <use xlink:href="#DejaVuSans-46" transform="translate(726.109375 0)"/>
    <use xlink:href="#DejaVuSans-52" transform="translate(781.09375 0)"/>
    <use xlink:href="#DejaVuSans-55" transform="translate(842.28125 0)"/>
    <use xlink:href="#DejaVuSans-48" transform="translate(881.1875 0)"/>
    <use xlink:href="#DejaVuSans-16" transform="translate(942.71875 0)"/>
    <use xlink:href="#DejaVuSans-11" transform="translate(1006.34375 0)"/>
    <use xlink:href="#DejaVuSans-1c" transform="translate(1038.125 0)"/>
    <use xlink:href="#DejaVuSans-13" transform="translate(1101.75 0)"/>
    <use xlink:href="#DejaVuSans-1a" transform="translate(1165.375 0)"/>
    <use xlink:href="#DejaVuSans-42" transform="translate(1229 0)"/>
    <use xlink:href="#DejaVuSans-55" transform="translate(1279 0)"/>
    <use xlink:href="#DejaVuSans-48" transform="translate(1317.90625 0)"/>
    <use xlink:href="#DejaVuSans-44" transform="translate(1379.4375 0)"/>
    <use xlink:href="#DejaVuSans-47" transform="translate(1440.71875 0)"/>
    <use xlink:href="#DejaVuSans-56" transform="translate(1504.203125 0)"/>
    <use xlink:href="#DejaVuSans-18" transform="translate(1556.296875 0)"/>
    <use xlink:href="#DejaVuSans-13" transform="translate(1619.921875 0)"/>
    <use xlink:href="#DejaVuSans-14" transform="translate(1683.546875 0)"/>
   </g>
  </g>
 </g>
 <defs>
  <clipPath id="pb9ba2ceaed">
   <rect x="47.962344" y="50.890312" width="877.237656" height="266.987344"/>
  </clipPath>
 </defs>
</svg>
