<?xml version="1.0" encoding="utf-8" standalone="no"?>
<!DOCTYPE svg PUBLIC "-//W3C//DTD SVG 1.1//EN"
  "http://www.w3.org/Graphics/SVG/1.1/DTD/svg11.dtd">
<svg xmlns:xlink="http://www.w3.org/1999/xlink" width="936pt" height="360pt" viewBox="0 0 936 360" xmlns="http://www.w3.org/2000/svg" version="1.1">
 <metadata>
  <rdf:RDF xmlns:dc="http://purl.org/dc/elements/1.1/" xmlns:cc="http://creativecommons.org/ns#" xmlns:rdf="http://www.w3.org/1999/02/22-rdf-syntax-ns#">
   <cc:Work>
    <dc:type rdf:resource="http://purl.org/dc/dcmitype/StillImage"/>
    <dc:date>2026-07-10T12:48:50.654490</dc:date>
    <dc:format>image/svg+xml</dc:format>
    <dc:creator>
     <cc:Agent>
      <dc:title>Matplotlib v3.11.0, https://matplotlib.org/</dc:title>
     </cc:Agent>
    </dc:creator>
   </cc:Work>
  </rdf:RDF>
 </metadata>
 <defs>
  <style type="text/css">*{stroke-linejoin: round; stroke-linecap: butt}</style>
 </defs>
 <g id="figure_1">
  <g id="patch_1">
   <path d="M 0 360 
L 936 360 
L 936 0 
L 0 0 
z
" style="fill: #ffffff"/>
  </g>
  <g id="axes_1">
   <g id="patch_2">
    <path d="M 47.962344 317.877656 
L 925.2 317.877656 
L 925.2 50.890312 
L 47.962344 50.890312 
z
" style="fill: #ffffff"/>
   </g>
   <g id="matplotlib.axis_1">
    <g id="xtick_1">
     <g id="line2d_1">
      <defs>
       <path id="m06dcd70fd8" d="M 0 0 
L 0 3.5 
" style="stroke: #000000; stroke-width: 0.8"/>
      </defs>
      <g>
       <use xlink:href="#m06dcd70fd8" x="87.037696" y="317.877656" style="stroke: #000000; stroke-width: 0.8"/>
      </g>
     </g>
     <g id="text_1">
      <!-- 1.30 -->
      <g transform="translate(75.904883 332.475312) scale(0.1 -0.1)">
       <defs>
        <path id="DejaVuSans-14" d="M 794 531 
L 1825 531 
L 1825 4091 
L 703 3866 
L 703 4441 
L 1819 4666 
L 2450 4666 
L 2450 531 
L 3481 531 
L 3481 0 
L 794 0 
L 794 531 
z
" transform="scale(0.015625)"/>
        <path id="DejaVuSans-11" d="M 684 794 
L 1344 794 
L 1344 0 
L 684 0 
L 684 794 
z
" transform="scale(0.015625)"/>
        <path id="DejaVuSans-16" d="M 2597 2516 
Q 3050 2419 3304 2112 
Q 3559 1806 3559 1356 
Q 3559 666 3084 287 
Q 2609 -91 1734 -91 
Q 1441 -91 1130 -33 
Q 819 25 488 141 
L 488 750 
Q 750 597 1062 519 
Q 1375 441 1716 441 
Q 2309 441 2620 675 
Q 2931 909 2931 1356 
Q 2931 1769 2642 2001 
Q 2353 2234 1838 2234 
L 1294 2234 
L 1294 2753 
L 1863 2753 
Q 2328 2753 2575 2939 
Q 2822 3125 2822 3475 
Q 2822 3834 2567 4026 
Q 2313 4219 1838 4219 
Q 1578 4219 1281 4162 
Q 984 4106 628 3988 
L 628 4550 
Q 988 4650 1302 4700 
Q 1616 4750 1894 4750 
Q 2613 4750 3031 4423 
Q 3450 4097 3450 3541 
Q 3450 3153 3228 2886 
Q 3006 2619 2597 2516 
z
" transform="scale(0.015625)"/>
        <path id="DejaVuSans-13" d="M 2034 4250 
Q 1547 4250 1301 3770 
Q 1056 3291 1056 2328 
Q 1056 1369 1301 889 
Q 1547 409 2034 409 
Q 2525 409 2770 889 
Q 3016 1369 3016 2328 
Q 3016 3291 2770 3770 
Q 2525 4250 2034 4250 
z
M 2034 4750 
Q 2819 4750 3233 4129 
Q 3647 3509 3647 2328 
Q 3647 1150 3233 529 
Q 2819 -91 2034 -91 
Q 1250 -91 836 529 
Q 422 1150 422 2328 
Q 422 3509 836 4129 
Q 1250 4750 2034 4750 
z
" transform="scale(0.015625)"/>
       </defs>
       <use xlink:href="#DejaVuSans-14"/>
       <use xlink:href="#DejaVuSans-11" transform="translate(63.625 0)"/>
       <use xlink:href="#DejaVuSans-16" transform="translate(95.40625 0)"/>
       <use xlink:href="#DejaVuSans-13" transform="translate(159.03125 0)"/>
      </g>
     </g>
    </g>
    <g id="xtick_2">
     <g id="line2d_2">
      <g>
       <use xlink:href="#m06dcd70fd8" x="246.855086" y="317.877656" style="stroke: #000000; stroke-width: 0.8"/>
      </g>
     </g>
     <g id="text_2">
      <!-- 1.32 -->
      <g transform="translate(235.722274 332.475312) scale(0.1 -0.1)">
       <defs>
        <path id="DejaVuSans-15" d="M 1228 531 
L 3431 531 
L 3431 0 
L 469 0 
L 469 531 
Q 828 903 1448 1529 
Q 2069 2156 2228 2338 
Q 2531 2678 2651 2914 
Q 2772 3150 2772 3378 
Q 2772 3750 2511 3984 
Q 2250 4219 1831 4219 
Q 1534 4219 1204 4116 
Q 875 4013 500 3803 
L 500 4441 
Q 881 4594 1212 4672 
Q 1544 4750 1819 4750 
Q 2544 4750 2975 4387 
Q 3406 4025 3406 3419 
Q 3406 3131 3298 2873 
Q 3191 2616 2906 2266 
Q 2828 2175 2409 1742 
Q 1991 1309 1228 531 
z
" transform="scale(0.015625)"/>
       </defs>
       <use xlink:href="#DejaVuSans-14"/>
       <use xlink:href="#DejaVuSans-11" transform="translate(63.625 0)"/>
       <use xlink:href="#DejaVuSans-16" transform="translate(95.40625 0)"/>
       <use xlink:href="#DejaVuSans-15" transform="translate(159.03125 0)"/>
      </g>
     </g>
    </g>
    <g id="xtick_3">
     <g id="line2d_3">
      <g>
       <use xlink:href="#m06dcd70fd8" x="406.672477" y="317.877656" style="stroke: #000000; stroke-width: 0.8"/>
      </g>
     </g>
     <g id="text_3">
      <!-- 1.34 -->
      <g transform="translate(395.539664 332.475312) scale(0.1 -0.1)">
       <defs>
        <path id="DejaVuSans-17" d="M 2419 4116 
L 825 1625 
L 2419 1625 
L 2419 4116 
z
M 2253 4666 
L 3047 4666 
L 3047 1625 
L 3713 1625 
L 3713 1100 
L 3047 1100 
L 3047 0 
L 2419 0 
L 2419 1100 
L 313 1100 
L 313 1709 
L 2253 4666 
z
" transform="scale(0.015625)"/>
       </defs>
       <use xlink:href="#DejaVuSans-14"/>
       <use xlink:href="#DejaVuSans-11" transform="translate(63.625 0)"/>
       <use xlink:href="#DejaVuSans-16" transform="translate(95.40625 0)"/>
       <use xlink:href="#DejaVuSans-17" transform="translate(159.03125 0)"/>
      </g>
     </g>
    </g>
    <g id="xtick_4">
     <g id="line2d_4">
      <g>
       <use xlink:href="#m06dcd70fd8" x="566.489867" y="317.877656" style="stroke: #000000; stroke-width: 0.8"/>
      </g>
     </g>
     <g id="text_4">
      <!-- 1.36 -->
      <g transform="translate(555.357055 332.475312) scale(0.1 -0.1)">
       <defs>
        <path id="DejaVuSans-19" d="M 2113 2584 
Q 1688 2584 1439 2293 
Q 1191 2003 1191 1497 
Q 1191 994 1439 701 
Q 1688 409 2113 409 
Q 2538 409 2786 701 
Q 3034 994 3034 1497 
Q 3034 2003 2786 2293 
Q 2538 2584 2113 2584 
z
M 3366 4563 
L 3366 3988 
Q 3128 4100 2886 4159 
Q 2644 4219 2406 4219 
Q 1781 4219 1451 3797 
Q 1122 3375 1075 2522 
Q 1259 2794 1537 2939 
Q 1816 3084 2150 3084 
Q 2853 3084 3261 2657 
Q 3669 2231 3669 1497 
Q 3669 778 3244 343 
Q 2819 -91 2113 -91 
Q 1303 -91 875 529 
Q 447 1150 447 2328 
Q 447 3434 972 4092 
Q 1497 4750 2381 4750 
Q 2619 4750 2861 4703 
Q 3103 4656 3366 4563 
z
" transform="scale(0.015625)"/>
       </defs>
       <use xlink:href="#DejaVuSans-14"/>
       <use xlink:href="#DejaVuSans-11" transform="translate(63.625 0)"/>
       <use xlink:href="#DejaVuSans-16" transform="translate(95.40625 0)"/>
       <use xlink:href="#DejaVuSans-19" transform="translate(159.03125 0)"/>
      </g>
     </g>
    </g>
    <g id="xtick_5">
     <g id="line2d_5">
      <g>
       <use xlink:href="#m06dcd70fd8" x="726.307258" y="317.877656" style="stroke: #000000; stroke-width: 0.8"/>
      </g>
     </g>
     <g id="text_5">
      <!-- 1.38 -->
      <g transform="translate(715.174445 332.475312) scale(0.1 -0.1)">
       <defs>
        <path id="DejaVuSans-1b" d="M 2034 2216 
Q 1584 2216 1326 1975 
Q 1069 1734 1069 1313 
Q 1069 891 1326 650 
Q 1584 409 2034 409 
Q 2484 409 2743 651 
Q 3003 894 3003 1313 
Q 3003 1734 2745 1975 
Q 2488 2216 2034 2216 
z
M 1403 2484 
Q 997 2584 770 2862 
Q 544 3141 544 3541 
Q 544 4100 942 4425 
Q 1341 4750 2034 4750 
Q 2731 4750 3128 4425 
Q 3525 4100 3525 3541 
Q 3525 3141 3298 2862 
Q 3072 2584 2669 2484 
Q 3125 2378 3379 2068 
Q 3634 1759 3634 1313 
Q 3634 634 3220 271 
Q 2806 -91 2034 -91 
Q 1263 -91 848 271 
Q 434 634 434 1313 
Q 434 1759 690 2068 
Q 947 2378 1403 2484 
z
M 1172 3481 
Q 1172 3119 1398 2916 
Q 1625 2713 2034 2713 
Q 2441 2713 2670 2916 
Q 2900 3119 2900 3481 
Q 2900 3844 2670 4047 
Q 2441 4250 2034 4250 
Q 1625 4250 1398 4047 
Q 1172 3844 1172 3481 
z
" transform="scale(0.015625)"/>
       </defs>
       <use xlink:href="#DejaVuSans-14"/>
       <use xlink:href="#DejaVuSans-11" transform="translate(63.625 0)"/>
       <use xlink:href="#DejaVuSans-16" transform="translate(95.40625 0)"/>
       <use xlink:href="#DejaVuSans-1b" transform="translate(159.03125 0)"/>
      </g>
     </g>
    </g>
    <g id="xtick_6">
     <g id="line2d_6">
      <g>
       <use xlink:href="#m06dcd70fd8" x="886.124648" y="317.877656" style="stroke: #000000; stroke-width: 0.8"/>
      </g>
     </g>
     <g id="text_6">
      <!-- 1.40 -->
      <g transform="translate(874.991836 332.475312) scale(0.1 -0.1)">
       <use xlink:href="#DejaVuSans-14"/>
       <use xlink:href="#DejaVuSans-11" transform="translate(63.625 0)"/>
       <use xlink:href="#DejaVuSans-17" transform="translate(95.40625 0)"/>
       <use xlink:href="#DejaVuSans-13" transform="translate(159.03125 0)"/>
      </g>
     </g>
    </g>
    <g id="text_7">
     <!-- chr16 coordinate (hg38) -->
     <g transform="translate(425.791328 346.476094) scale(0.1 -0.1)">
      <defs>
       <path id="DejaVuSans-46" d="M 3122 3366 
L 3122 2828 
Q 2878 2963 2633 3030 
Q 2388 3097 2138 3097 
Q 1578 3097 1268 2742 
Q 959 2388 959 1747 
Q 959 1106 1268 751 
Q 1578 397 2138 397 
Q 2388 397 2633 464 
Q 2878 531 3122 666 
L 3122 134 
Q 2881 22 2623 -34 
Q 2366 -91 2075 -91 
Q 1284 -91 818 406 
Q 353 903 353 1747 
Q 353 2603 823 3093 
Q 1294 3584 2113 3584 
Q 2378 3584 2631 3529 
Q 2884 3475 3122 3366 
z
" transform="scale(0.015625)"/>
       <path id="DejaVuSans-4b" d="M 3513 2113 
L 3513 0 
L 2938 0 
L 2938 2094 
Q 2938 2591 2744 2837 
Q 2550 3084 2163 3084 
Q 1697 3084 1428 2787 
Q 1159 2491 1159 1978 
L 1159 0 
L 581 0 
L 581 4863 
L 1159 4863 
L 1159 2956 
Q 1366 3272 1645 3428 
Q 1925 3584 2291 3584 
Q 2894 3584 3203 3211 
Q 3513 2838 3513 2113 
z
" transform="scale(0.015625)"/>
       <path id="DejaVuSans-55" d="M 2631 2963 
Q 2534 3019 2420 3045 
Q 2306 3072 2169 3072 
Q 1681 3072 1420 2755 
Q 1159 2438 1159 1844 
L 1159 0 
L 581 0 
L 581 3500 
L 1159 3500 
L 1159 2956 
Q 1341 3275 1631 3429 
Q 1922 3584 2338 3584 
Q 2397 3584 2469 3576 
Q 2541 3569 2628 3553 
L 2631 2963 
z
" transform="scale(0.015625)"/>
       <path id="DejaVuSans-3" transform="scale(0.015625)"/>
       <path id="DejaVuSans-52" d="M 1959 3097 
Q 1497 3097 1228 2736 
Q 959 2375 959 1747 
Q 959 1119 1226 758 
Q 1494 397 1959 397 
Q 2419 397 2687 759 
Q 2956 1122 2956 1747 
Q 2956 2369 2687 2733 
Q 2419 3097 1959 3097 
z
M 1959 3584 
Q 2709 3584 3137 3096 
Q 3566 2609 3566 1747 
Q 3566 888 3137 398 
Q 2709 -91 1959 -91 
Q 1206 -91 779 398 
Q 353 888 353 1747 
Q 353 2609 779 3096 
Q 1206 3584 1959 3584 
z
" transform="scale(0.015625)"/>
       <path id="DejaVuSans-47" d="M 2906 2969 
L 2906 4863 
L 3481 4863 
L 3481 0 
L 2906 0 
L 2906 525 
Q 2725 213 2448 61 
Q 2172 -91 1784 -91 
Q 1150 -91 751 415 
Q 353 922 353 1747 
Q 353 2572 751 3078 
Q 1150 3584 1784 3584 
Q 2172 3584 2448 3432 
Q 2725 3281 2906 2969 
z
M 947 1747 
Q 947 1113 1208 752 
Q 1469 391 1925 391 
Q 2381 391 2643 752 
Q 2906 1113 2906 1747 
Q 2906 2381 2643 2742 
Q 2381 3103 1925 3103 
Q 1469 3103 1208 2742 
Q 947 2381 947 1747 
z
" transform="scale(0.015625)"/>
       <path id="DejaVuSans-4c" d="M 603 3500 
L 1178 3500 
L 1178 0 
L 603 0 
L 603 3500 
z
M 603 4863 
L 1178 4863 
L 1178 4134 
L 603 4134 
L 603 4863 
z
" transform="scale(0.015625)"/>
       <path id="DejaVuSans-51" d="M 3513 2113 
L 3513 0 
L 2938 0 
L 2938 2094 
Q 2938 2591 2744 2837 
Q 2550 3084 2163 3084 
Q 1697 3084 1428 2787 
Q 1159 2491 1159 1978 
L 1159 0 
L 581 0 
L 581 3500 
L 1159 3500 
L 1159 2956 
Q 1366 3272 1645 3428 
Q 1925 3584 2291 3584 
Q 2894 3584 3203 3211 
Q 3513 2838 3513 2113 
z
" transform="scale(0.015625)"/>
       <path id="DejaVuSans-44" d="M 2194 1759 
Q 1497 1759 1228 1600 
Q 959 1441 959 1056 
Q 959 750 1161 570 
Q 1363 391 1709 391 
Q 2188 391 2477 730 
Q 2766 1069 2766 1631 
L 2766 1759 
L 2194 1759 
z
M 3341 1997 
L 3341 0 
L 2766 0 
L 2766 531 
Q 2569 213 2275 61 
Q 1981 -91 1556 -91 
Q 1019 -91 701 211 
Q 384 513 384 1019 
Q 384 1609 779 1909 
Q 1175 2209 1959 2209 
L 2766 2209 
L 2766 2266 
Q 2766 2663 2505 2880 
Q 2244 3097 1772 3097 
Q 1472 3097 1187 3025 
Q 903 2953 641 2809 
L 641 3341 
Q 956 3463 1253 3523 
Q 1550 3584 1831 3584 
Q 2591 3584 2966 3190 
Q 3341 2797 3341 1997 
z
" transform="scale(0.015625)"/>
       <path id="DejaVuSans-57" d="M 1172 4494 
L 1172 3500 
L 2356 3500 
L 2356 3053 
L 1172 3053 
L 1172 1153 
Q 1172 725 1289 603 
Q 1406 481 1766 481 
L 2356 481 
L 2356 0 
L 1766 0 
Q 1100 0 847 248 
Q 594 497 594 1153 
L 594 3053 
L 172 3053 
L 172 3500 
L 594 3500 
L 594 4494 
L 1172 4494 
z
" transform="scale(0.015625)"/>
       <path id="DejaVuSans-48" d="M 3597 1894 
L 3597 1613 
L 953 1613 
Q 991 1019 1311 708 
Q 1631 397 2203 397 
Q 2534 397 2845 478 
Q 3156 559 3463 722 
L 3463 178 
Q 3153 47 2828 -22 
Q 2503 -91 2169 -91 
Q 1331 -91 842 396 
Q 353 884 353 1716 
Q 353 2575 817 3079 
Q 1281 3584 2069 3584 
Q 2775 3584 3186 3129 
Q 3597 2675 3597 1894 
z
M 3022 2063 
Q 3016 2534 2758 2815 
Q 2500 3097 2075 3097 
Q 1594 3097 1305 2825 
Q 1016 2553 972 2059 
L 3022 2063 
z
" transform="scale(0.015625)"/>
       <path id="DejaVuSans-b" d="M 1984 4856 
Q 1566 4138 1362 3434 
Q 1159 2731 1159 2009 
Q 1159 1288 1364 580 
Q 1569 -128 1984 -844 
L 1484 -844 
Q 1016 -109 783 600 
Q 550 1309 550 2009 
Q 550 2706 781 3412 
Q 1013 4119 1484 4856 
L 1984 4856 
z
" transform="scale(0.015625)"/>
       <path id="DejaVuSans-4a" d="M 2906 1791 
Q 2906 2416 2648 2759 
Q 2391 3103 1925 3103 
Q 1463 3103 1205 2759 
Q 947 2416 947 1791 
Q 947 1169 1205 825 
Q 1463 481 1925 481 
Q 2391 481 2648 825 
Q 2906 1169 2906 1791 
z
M 3481 434 
Q 3481 -459 3084 -895 
Q 2688 -1331 1869 -1331 
Q 1566 -1331 1297 -1286 
Q 1028 -1241 775 -1147 
L 775 -588 
Q 1028 -725 1275 -790 
Q 1522 -856 1778 -856 
Q 2344 -856 2625 -561 
Q 2906 -266 2906 331 
L 2906 616 
Q 2728 306 2450 153 
Q 2172 0 1784 0 
Q 1141 0 747 490 
Q 353 981 353 1791 
Q 353 2603 747 3093 
Q 1141 3584 1784 3584 
Q 2172 3584 2450 3431 
Q 2728 3278 2906 2969 
L 2906 3500 
L 3481 3500 
L 3481 434 
z
" transform="scale(0.015625)"/>
       <path id="DejaVuSans-c" d="M 513 4856 
L 1013 4856 
Q 1481 4119 1714 3412 
Q 1947 2706 1947 2009 
Q 1947 1309 1714 600 
Q 1481 -109 1013 -844 
L 513 -844 
Q 928 -128 1133 580 
Q 1338 1288 1338 2009 
Q 1338 2731 1133 3434 
Q 928 4138 513 4856 
z
" transform="scale(0.015625)"/>
      </defs>
      <use xlink:href="#DejaVuSans-46"/>
      <use xlink:href="#DejaVuSans-4b" transform="translate(54.984375 0)"/>
      <use xlink:href="#DejaVuSans-55" transform="translate(118.359375 0)"/>
      <use xlink:href="#DejaVuSans-14" transform="translate(159.46875 0)"/>
      <use xlink:href="#DejaVuSans-19" transform="translate(223.09375 0)"/>
      <use xlink:href="#DejaVuSans-3" transform="translate(286.71875 0)"/>
      <use xlink:href="#DejaVuSans-46" transform="translate(318.5 0)"/>
      <use xlink:href="#DejaVuSans-52" transform="translate(373.484375 0)"/>
      <use xlink:href="#DejaVuSans-52" transform="translate(434.671875 0)"/>
      <use xlink:href="#DejaVuSans-55" transform="translate(495.859375 0)"/>
      <use xlink:href="#DejaVuSans-47" transform="translate(535.21875 0)"/>
      <use xlink:href="#DejaVuSans-4c" transform="translate(598.703125 0)"/>
      <use xlink:href="#DejaVuSans-51" transform="translate(626.484375 0)"/>
      <use xlink:href="#DejaVuSans-44" transform="translate(689.859375 0)"/>
      <use xlink:href="#DejaVuSans-57" transform="translate(751.140625 0)"/>
      <use xlink:href="#DejaVuSans-48" transform="translate(790.34375 0)"/>
      <use xlink:href="#DejaVuSans-3" transform="translate(851.875 0)"/>
      <use xlink:href="#DejaVuSans-b" transform="translate(883.65625 0)"/>
      <use xlink:href="#DejaVuSans-4b" transform="translate(922.671875 0)"/>
      <use xlink:href="#DejaVuSans-4a" transform="translate(986.046875 0)"/>
      <use xlink:href="#DejaVuSans-16" transform="translate(1049.53125 0)"/>
      <use xlink:href="#DejaVuSans-1b" transform="translate(1113.15625 0)"/>
      <use xlink:href="#DejaVuSans-c" transform="translate(1176.78125 0)"/>
     </g>
    </g>
    <g id="text_8">
     <!-- 1e6 -->
     <g transform="translate(906.321875 345.475312) scale(0.1 -0.1)">
      <use xlink:href="#DejaVuSans-14"/>
      <use xlink:href="#DejaVuSans-48" transform="translate(63.625 0)"/>
      <use xlink:href="#DejaVuSans-19" transform="translate(125.15625 0)"/>
     </g>
    </g>
   </g>
   <g id="matplotlib.axis_2">
    <g id="ytick_1">
     <g id="line2d_7">
      <defs>
       <path id="m43d15c3b3d" d="M 0 0 
L -3.5 0 
" style="stroke: #000000; stroke-width: 0.8"/>
      </defs>
      <g>
       <use xlink:href="#m43d15c3b3d" x="47.962344" y="305.741868" style="stroke: #000000; stroke-width: 0.8"/>
      </g>
     </g>
     <g id="text_9">
      <!-- 0.0 -->
      <g transform="translate(25.059219 309.540696) scale(0.1 -0.1)">
       <use xlink:href="#DejaVuSans-13"/>
       <use xlink:href="#DejaVuSans-11" transform="translate(63.625 0)"/>
       <use xlink:href="#DejaVuSans-13" transform="translate(95.40625 0)"/>
      </g>
     </g>
    </g>
    <g id="ytick_2">
     <g id="line2d_8">
      <g>
       <use xlink:href="#m43d15c3b3d" x="47.962344" y="257.198714" style="stroke: #000000; stroke-width: 0.8"/>
      </g>
     </g>
     <g id="text_10">
      <!-- 0.2 -->
      <g transform="translate(25.059219 260.997543) scale(0.1 -0.1)">
       <use xlink:href="#DejaVuSans-13"/>
       <use xlink:href="#DejaVuSans-11" transform="translate(63.625 0)"/>
       <use xlink:href="#DejaVuSans-15" transform="translate(95.40625 0)"/>
      </g>
     </g>
    </g>
    <g id="ytick_3">
     <g id="line2d_9">
      <g>
       <use xlink:href="#m43d15c3b3d" x="47.962344" y="208.655561" style="stroke: #000000; stroke-width: 0.8"/>
      </g>
     </g>
     <g id="text_11">
      <!-- 0.4 -->
      <g transform="translate(25.059219 212.454389) scale(0.1 -0.1)">
       <use xlink:href="#DejaVuSans-13"/>
       <use xlink:href="#DejaVuSans-11" transform="translate(63.625 0)"/>
       <use xlink:href="#DejaVuSans-17" transform="translate(95.40625 0)"/>
      </g>
     </g>
    </g>
    <g id="ytick_4">
     <g id="line2d_10">
      <g>
       <use xlink:href="#m43d15c3b3d" x="47.962344" y="160.112408" style="stroke: #000000; stroke-width: 0.8"/>
      </g>
     </g>
     <g id="text_12">
      <!-- 0.6 -->
      <g transform="translate(25.059219 163.911236) scale(0.1 -0.1)">
       <use xlink:href="#DejaVuSans-13"/>
       <use xlink:href="#DejaVuSans-11" transform="translate(63.625 0)"/>
       <use xlink:href="#DejaVuSans-19" transform="translate(95.40625 0)"/>
      </g>
     </g>
    </g>
    <g id="ytick_5">
     <g id="line2d_11">
      <g>
       <use xlink:href="#m43d15c3b3d" x="47.962344" y="111.569254" style="stroke: #000000; stroke-width: 0.8"/>
      </g>
     </g>
     <g id="text_13">
      <!-- 0.8 -->
      <g transform="translate(25.059219 115.368082) scale(0.1 -0.1)">
       <use xlink:href="#DejaVuSans-13"/>
       <use xlink:href="#DejaVuSans-11" transform="translate(63.625 0)"/>
       <use xlink:href="#DejaVuSans-1b" transform="translate(95.40625 0)"/>
      </g>
     </g>
    </g>
    <g id="ytick_6">
     <g id="line2d_12">
      <g>
       <use xlink:href="#m43d15c3b3d" x="47.962344" y="63.026101" style="stroke: #000000; stroke-width: 0.8"/>
      </g>
     </g>
     <g id="text_14">
      <!-- 1.0 -->
      <g transform="translate(25.059219 66.824929) scale(0.1 -0.1)">
       <use xlink:href="#DejaVuSans-14"/>
       <use xlink:href="#DejaVuSans-11" transform="translate(63.625 0)"/>
       <use xlink:href="#DejaVuSans-13" transform="translate(95.40625 0)"/>
      </g>
     </g>
    </g>
    <g id="text_15">
     <!-- global robust normalized signal -->
     <g transform="translate(18.656875 262.887109) rotate(-90) scale(0.1 -0.1)">
      <defs>
       <path id="DejaVuSans-4f" d="M 603 4863 
L 1178 4863 
L 1178 0 
L 603 0 
L 603 4863 
z
" transform="scale(0.015625)"/>
       <path id="DejaVuSans-45" d="M 3116 1747 
Q 3116 2381 2855 2742 
Q 2594 3103 2138 3103 
Q 1681 3103 1420 2742 
Q 1159 2381 1159 1747 
Q 1159 1113 1420 752 
Q 1681 391 2138 391 
Q 2594 391 2855 752 
Q 3116 1113 3116 1747 
z
M 1159 2969 
Q 1341 3281 1617 3432 
Q 1894 3584 2278 3584 
Q 2916 3584 3314 3078 
Q 3713 2572 3713 1747 
Q 3713 922 3314 415 
Q 2916 -91 2278 -91 
Q 1894 -91 1617 61 
Q 1341 213 1159 525 
L 1159 0 
L 581 0 
L 581 4863 
L 1159 4863 
L 1159 2969 
z
" transform="scale(0.015625)"/>
       <path id="DejaVuSans-58" d="M 544 1381 
L 544 3500 
L 1119 3500 
L 1119 1403 
Q 1119 906 1312 657 
Q 1506 409 1894 409 
Q 2359 409 2629 706 
Q 2900 1003 2900 1516 
L 2900 3500 
L 3475 3500 
L 3475 0 
L 2900 0 
L 2900 538 
Q 2691 219 2414 64 
Q 2138 -91 1772 -91 
Q 1169 -91 856 284 
Q 544 659 544 1381 
z
M 1991 3584 
L 1991 3584 
z
" transform="scale(0.015625)"/>
       <path id="DejaVuSans-56" d="M 2834 3397 
L 2834 2853 
Q 2591 2978 2328 3040 
Q 2066 3103 1784 3103 
Q 1356 3103 1142 2972 
Q 928 2841 928 2578 
Q 928 2378 1081 2264 
Q 1234 2150 1697 2047 
L 1894 2003 
Q 2506 1872 2764 1633 
Q 3022 1394 3022 966 
Q 3022 478 2636 193 
Q 2250 -91 1575 -91 
Q 1294 -91 989 -36 
Q 684 19 347 128 
L 347 722 
Q 666 556 975 473 
Q 1284 391 1588 391 
Q 1994 391 2212 530 
Q 2431 669 2431 922 
Q 2431 1156 2273 1281 
Q 2116 1406 1581 1522 
L 1381 1569 
Q 847 1681 609 1914 
Q 372 2147 372 2553 
Q 372 3047 722 3315 
Q 1072 3584 1716 3584 
Q 2034 3584 2315 3537 
Q 2597 3491 2834 3397 
z
" transform="scale(0.015625)"/>
       <path id="DejaVuSans-50" d="M 3328 2828 
Q 3544 3216 3844 3400 
Q 4144 3584 4550 3584 
Q 5097 3584 5394 3201 
Q 5691 2819 5691 2113 
L 5691 0 
L 5113 0 
L 5113 2094 
Q 5113 2597 4934 2840 
Q 4756 3084 4391 3084 
Q 3944 3084 3684 2787 
Q 3425 2491 3425 1978 
L 3425 0 
L 2847 0 
L 2847 2094 
Q 2847 2600 2669 2842 
Q 2491 3084 2119 3084 
Q 1678 3084 1418 2786 
Q 1159 2488 1159 1978 
L 1159 0 
L 581 0 
L 581 3500 
L 1159 3500 
L 1159 2956 
Q 1356 3278 1631 3431 
Q 1906 3584 2284 3584 
Q 2666 3584 2933 3390 
Q 3200 3197 3328 2828 
z
" transform="scale(0.015625)"/>
       <path id="DejaVuSans-5d" d="M 353 3500 
L 3084 3500 
L 3084 2975 
L 922 459 
L 3084 459 
L 3084 0 
L 275 0 
L 275 525 
L 2438 3041 
L 353 3041 
L 353 3500 
z
" transform="scale(0.015625)"/>
      </defs>
      <use xlink:href="#DejaVuSans-4a"/>
      <use xlink:href="#DejaVuSans-4f" transform="translate(63.484375 0)"/>
      <use xlink:href="#DejaVuSans-52" transform="translate(91.265625 0)"/>
      <use xlink:href="#DejaVuSans-45" transform="translate(152.453125 0)"/>
      <use xlink:href="#DejaVuSans-44" transform="translate(215.9375 0)"/>
      <use xlink:href="#DejaVuSans-4f" transform="translate(277.21875 0)"/>
      <use xlink:href="#DejaVuSans-3" transform="translate(305 0)"/>
      <use xlink:href="#DejaVuSans-55" transform="translate(336.78125 0)"/>
      <use xlink:href="#DejaVuSans-52" transform="translate(375.6875 0)"/>
      <use xlink:href="#DejaVuSans-45" transform="translate(436.875 0)"/>
      <use xlink:href="#DejaVuSans-58" transform="translate(500.359375 0)"/>
      <use xlink:href="#DejaVuSans-56" transform="translate(563.734375 0)"/>
      <use xlink:href="#DejaVuSans-57" transform="translate(615.828125 0)"/>
      <use xlink:href="#DejaVuSans-3" transform="translate(655.03125 0)"/>
      <use xlink:href="#DejaVuSans-51" transform="translate(686.8125 0)"/>
      <use xlink:href="#DejaVuSans-52" transform="translate(750.1875 0)"/>
      <use xlink:href="#DejaVuSans-55" transform="translate(811.375 0)"/>
      <use xlink:href="#DejaVuSans-50" transform="translate(850.734375 0)"/>
      <use xlink:href="#DejaVuSans-44" transform="translate(948.140625 0)"/>
      <use xlink:href="#DejaVuSans-4f" transform="translate(1009.421875 0)"/>
      <use xlink:href="#DejaVuSans-4c" transform="translate(1037.203125 0)"/>
      <use xlink:href="#DejaVuSans-5d" transform="translate(1064.984375 0)"/>
      <use xlink:href="#DejaVuSans-48" transform="translate(1117.46875 0)"/>
      <use xlink:href="#DejaVuSans-47" transform="translate(1179 0)"/>
      <use xlink:href="#DejaVuSans-3" transform="translate(1242.484375 0)"/>
      <use xlink:href="#DejaVuSans-56" transform="translate(1274.265625 0)"/>
      <use xlink:href="#DejaVuSans-4c" transform="translate(1326.359375 0)"/>
      <use xlink:href="#DejaVuSans-4a" transform="translate(1354.140625 0)"/>
      <use xlink:href="#DejaVuSans-51" transform="translate(1417.625 0)"/>
      <use xlink:href="#DejaVuSans-44" transform="translate(1481 0)"/>
      <use xlink:href="#DejaVuSans-4f" transform="translate(1542.28125 0)"/>
     </g>
    </g>
   </g>
   <g id="line2d_13">
    <path d="M 87.836783 299.211548 
L 89.434957 299.04998 
L 91.03313 296.369226 
L 92.631304 286.813979 
L 94.229478 280.121732 
L 95.827652 286.874222 
L 97.425826 272.22585 
L 99.024 290.666315 
L 100.622174 301.002723 
L 102.220348 302.251303 
L 103.818522 302.329142 
L 105.416696 303.343477 
L 108.613043 301.585874 
L 110.211217 300.173552 
L 111.809391 302.602316 
L 113.407565 298.684038 
L 115.005739 300.298728 
L 116.603913 300.414744 
L 118.202087 303.768243 
L 119.800261 301.551451 
L 121.398435 304.817288 
L 122.996609 305.741868 
L 124.594782 305.365793 
L 126.192956 301.231111 
L 127.79113 302.724259 
L 129.389304 301.855097 
L 130.987478 300.421271 
L 132.585652 303.648576 
L 134.183826 302.538943 
L 135.782 304.4726 
L 137.380174 304.117263 
L 138.978348 303.978133 
L 140.576522 302.283738 
L 142.174695 303.875945 
L 143.772869 305.741868 
L 145.371043 301.147543 
L 146.969217 300.521994 
L 148.567391 301.043422 
L 150.165565 300.932121 
L 151.763739 292.683655 
L 153.361913 286.157877 
L 154.960087 236.006651 
L 156.558261 113.163563 
L 158.156434 147.532466 
L 159.754608 261.509273 
L 161.352782 229.227985 
L 162.950956 243.928048 
L 164.54913 151.410073 
L 166.147304 65.375159 
L 167.745478 63.026101 
L 170.941826 63.026101 
L 172.54 73.909199 
L 174.138174 109.749352 
L 175.736347 171.801725 
L 177.334521 216.840906 
L 180.530869 274.098807 
L 182.129043 279.016693 
L 183.727217 296.168859 
L 185.325391 297.243148 
L 186.923565 293.738611 
L 188.521739 292.614077 
L 190.119913 294.415851 
L 191.718086 294.077221 
L 193.31626 299.949097 
L 194.914434 297.897327 
L 196.512608 299.336757 
L 198.110782 297.900901 
L 199.708956 302.582481 
L 201.30713 301.993424 
L 202.905304 299.437548 
L 204.503478 299.662861 
L 206.101652 299.084246 
L 207.699826 299.464587 
L 209.297999 299.449197 
L 210.896173 299.918159 
L 212.494347 300.577749 
L 214.092521 304.345873 
L 215.690695 302.548712 
L 217.288869 301.156059 
L 218.887043 300.893821 
L 220.485217 301.086352 
L 222.083391 295.152978 
L 223.681565 299.551136 
L 225.279738 300.376585 
L 226.877912 301.729426 
L 228.476086 299.008411 
L 230.07426 299.015869 
L 231.672434 301.402768 
L 233.270608 299.952615 
L 234.868782 300.645368 
L 236.466956 300.31469 
L 238.06513 302.542308 
L 239.663304 302.121918 
L 241.261478 300.600166 
L 242.859651 297.191881 
L 244.457825 302.899329 
L 246.055999 301.431103 
L 247.654173 302.753543 
L 249.252347 300.721747 
L 250.850521 304.546338 
L 252.448695 299.888799 
L 254.046869 301.077834 
L 255.645043 301.653116 
L 257.243217 298.616463 
L 258.84139 301.329475 
L 260.439564 300.000259 
L 262.037738 303.151508 
L 263.635912 303.239726 
L 265.234086 299.623981 
L 266.83226 300.995647 
L 268.430434 296.091905 
L 270.028608 300.504039 
L 271.626782 302.98639 
L 273.224956 302.258081 
L 274.82313 298.70143 
L 276.421303 300.560985 
L 278.019477 304.201569 
L 279.617651 300.429713 
L 281.215825 297.780658 
L 282.813999 301.769971 
L 286.010347 303.788218 
L 287.608521 298.679107 
L 289.206695 300.937386 
L 290.804869 302.707461 
L 292.403042 305.741868 
L 294.001216 303.18554 
L 295.59939 298.287296 
L 297.197564 303.253462 
L 298.795738 300.206642 
L 300.393912 300.187868 
L 301.992086 297.678845 
L 303.59026 300.864099 
L 306.786608 301.262624 
L 308.384782 301.043849 
L 309.982955 300.026127 
L 311.581129 304.324055 
L 313.179303 303.869823 
L 314.777477 304.764605 
L 316.375651 303.1072 
L 317.973825 300.337259 
L 319.571999 299.647652 
L 321.170173 303.524097 
L 322.768347 303.022025 
L 324.366521 303.239145 
L 325.964694 301.818604 
L 327.562868 296.557798 
L 329.161042 302.090633 
L 332.35739 297.044178 
L 333.955564 299.89438 
L 335.553738 298.027717 
L 337.151912 299.037946 
L 338.750086 302.559174 
L 340.34826 291.942562 
L 341.946434 294.660647 
L 343.544607 292.565147 
L 345.142781 298.664659 
L 346.740955 296.977694 
L 348.339129 297.279345 
L 349.937303 297.293514 
L 351.535477 271.914492 
L 353.133651 195.639441 
L 354.731825 168.662364 
L 356.329999 195.267231 
L 357.928173 182.521187 
L 359.526346 238.080287 
L 361.12452 256.53409 
L 362.722694 281.280237 
L 364.320868 295.917781 
L 365.919042 296.561023 
L 367.517216 299.632112 
L 369.11539 296.01286 
L 370.713564 299.049468 
L 372.311738 297.689691 
L 373.909912 299.250173 
L 375.508086 299.100163 
L 377.106259 297.427783 
L 378.704433 302.547779 
L 380.302607 302.638841 
L 381.900781 302.014202 
L 383.498955 303.398427 
L 385.097129 301.422155 
L 386.695303 300.475934 
L 388.293477 296.935356 
L 389.891651 301.053005 
L 391.489825 299.933967 
L 393.087998 299.829633 
L 394.686172 292.407774 
L 396.284346 294.443551 
L 397.88252 298.11908 
L 399.480694 302.708055 
L 401.078868 305.1424 
L 402.677042 298.245702 
L 404.275216 303.229363 
L 405.87339 302.306004 
L 407.471564 302.622263 
L 410.667911 303.805776 
L 412.266085 301.340504 
L 413.864259 301.758392 
L 415.462433 303.760859 
L 417.060607 302.823877 
L 418.658781 303.636958 
L 420.256955 301.348237 
L 421.855129 298.264598 
L 423.453303 296.905196 
L 425.051477 295.275467 
L 426.64965 290.921604 
L 428.247824 282.315801 
L 429.845998 277.704051 
L 431.444172 296.512681 
L 433.042346 300.83312 
L 434.64052 286.762997 
L 436.238694 288.849321 
L 437.836868 296.000918 
L 439.435042 296.073775 
L 441.033216 301.596515 
L 442.631389 302.29016 
L 444.229563 302.044047 
L 445.827737 300.492035 
L 447.425911 301.743227 
L 449.024085 303.180394 
L 450.622259 303.107801 
L 452.220433 305.741868 
L 453.818607 303.325587 
L 455.416781 300.348667 
L 457.014955 300.261498 
L 458.613129 300.616997 
L 460.211302 297.956501 
L 461.809476 297.539608 
L 463.40765 295.193406 
L 465.005824 300.101876 
L 466.603998 303.057616 
L 468.202172 303.020745 
L 469.800346 302.355631 
L 471.39852 300.994402 
L 472.996694 298.480859 
L 474.594868 302.327771 
L 476.193041 300.057056 
L 479.389389 302.945031 
L 480.987563 300.33149 
L 482.585737 296.844535 
L 484.183911 300.865724 
L 485.782085 298.025843 
L 487.380259 293.712045 
L 488.978433 296.583134 
L 490.576607 289.546265 
L 492.174781 286.302184 
L 493.772954 267.420142 
L 495.371128 191.197861 
L 496.969302 63.026101 
L 500.16565 63.026101 
L 501.763824 199.740052 
L 503.361998 92.421247 
L 504.960172 75.482696 
L 506.558346 188.296389 
L 508.15652 241.606446 
L 509.754693 279.71579 
L 511.352867 293.854518 
L 512.951041 296.506341 
L 514.549215 303.093886 
L 516.147389 301.865801 
L 517.745563 298.42784 
L 519.343737 299.535557 
L 520.941911 300.976217 
L 522.540085 304.346646 
L 524.138259 300.508186 
L 525.736433 297.649539 
L 528.93278 303.556469 
L 530.530954 301.131813 
L 532.129128 302.426079 
L 533.727302 300.388512 
L 535.325476 300.708379 
L 536.92365 299.169475 
L 538.521824 301.979488 
L 540.119998 297.239566 
L 541.718172 300.97028 
L 543.316345 297.961501 
L 544.914519 295.876583 
L 546.512693 300.205933 
L 548.110867 300.151212 
L 549.709041 297.027338 
L 551.307215 298.82683 
L 552.905389 290.411719 
L 554.503563 292.006725 
L 556.101737 298.356554 
L 557.699911 302.951992 
L 559.298085 302.041343 
L 560.896258 301.538606 
L 562.494432 303.552009 
L 564.092606 301.864767 
L 565.69078 300.362966 
L 567.288954 296.835884 
L 568.887128 298.431499 
L 570.485302 298.66482 
L 572.083476 300.058308 
L 573.68165 300.219018 
L 575.279824 302.133956 
L 576.877997 304.604078 
L 578.476171 304.709061 
L 580.074345 301.871798 
L 581.672519 300.553834 
L 584.868867 302.37879 
L 586.467041 301.556572 
L 588.065215 297.335961 
L 589.663389 295.552532 
L 591.261563 299.178636 
L 592.859737 300.391497 
L 594.45791 297.808861 
L 596.056084 297.538867 
L 597.654258 297.582573 
L 599.252432 298.376536 
L 600.850606 298.467365 
L 602.44878 299.931541 
L 604.046954 296.416069 
L 605.645128 297.768122 
L 607.243302 302.904934 
L 608.841476 301.099032 
L 610.439649 301.496852 
L 612.037823 303.844642 
L 613.635997 304.439576 
L 615.234171 301.326614 
L 616.832345 299.268733 
L 618.430519 301.439476 
L 620.028693 303.991618 
L 621.626867 304.118288 
L 623.225041 300.536142 
L 624.823215 301.493073 
L 626.421389 303.915028 
L 628.019562 300.51011 
L 629.617736 299.257694 
L 631.21591 298.840402 
L 632.814084 303.49623 
L 634.412258 305.553711 
L 636.010432 302.355186 
L 637.608606 297.620712 
L 639.20678 296.941335 
L 640.804954 302.703838 
L 642.403128 301.104917 
L 645.599475 300.361792 
L 647.197649 299.265895 
L 648.795823 295.089898 
L 650.393997 297.623402 
L 651.992171 296.025339 
L 653.590345 303.987859 
L 655.188519 304.066841 
L 656.786693 300.836774 
L 658.384867 296.168668 
L 659.983041 295.424576 
L 661.581214 301.833225 
L 663.179388 304.194202 
L 664.777562 296.510687 
L 666.375736 299.253718 
L 667.97391 302.980338 
L 669.572084 305.741868 
L 677.562953 305.741868 
L 679.161127 304.849695 
L 680.759301 302.803405 
L 682.357475 303.117602 
L 683.955649 297.696115 
L 685.553823 293.522504 
L 687.151997 294.070932 
L 688.750171 296.495197 
L 690.348345 297.088018 
L 691.946519 297.300415 
L 693.544693 299.726669 
L 695.142866 299.305182 
L 696.74104 301.117095 
L 699.937388 294.173096 
L 701.535562 290.966138 
L 703.133736 293.458075 
L 704.73191 260.937204 
L 706.330084 247.502308 
L 707.928258 252.103173 
L 709.526432 233.72725 
L 711.124605 174.234669 
L 712.722779 136.032526 
L 714.320953 147.971315 
L 715.919127 73.766243 
L 717.517301 90.69595 
L 719.115475 63.026101 
L 722.311823 63.026101 
L 723.909997 195.239693 
L 725.508171 95.641258 
L 728.704518 280.210525 
L 730.302692 297.789657 
L 731.900866 300.108683 
L 733.49904 297.119874 
L 735.097214 298.855512 
L 736.695388 294.961997 
L 738.293562 300.035483 
L 739.891736 301.637179 
L 741.48991 302.251643 
L 743.088084 303.195816 
L 744.686257 303.227738 
L 746.284431 303.442351 
L 747.882605 303.90319 
L 749.480779 303.244581 
L 751.078953 304.837549 
L 752.677127 301.978887 
L 754.275301 300.044379 
L 755.873475 303.66009 
L 757.471649 302.507499 
L 759.069823 302.934381 
L 760.667997 303.053979 
L 762.26617 302.191333 
L 763.864344 304.230607 
L 765.462518 299.551148 
L 767.060692 300.96955 
L 768.658866 304.724373 
L 770.25704 304.722237 
L 771.855214 302.798282 
L 773.453388 302.466994 
L 775.051562 301.698081 
L 776.649736 305.499102 
L 778.247909 302.009261 
L 779.846083 302.610094 
L 781.444257 303.951443 
L 783.042431 302.949981 
L 784.640605 301.414442 
L 786.238779 301.086684 
L 787.836953 303.38221 
L 789.435127 303.576186 
L 791.033301 304.234934 
L 792.631475 301.047704 
L 794.229649 302.44623 
L 795.827822 303.647957 
L 797.425996 303.823969 
L 799.02417 298.340303 
L 800.622344 298.161457 
L 802.220518 300.148166 
L 803.818692 297.940042 
L 805.416866 301.697163 
L 807.01504 303.2987 
L 808.613214 302.799203 
L 810.211388 300.807397 
L 811.809561 299.438291 
L 815.005909 304.153358 
L 816.604083 303.239791 
L 818.202257 303.883288 
L 819.800431 303.872103 
L 821.398605 304.764196 
L 822.996779 302.551922 
L 824.594953 302.425408 
L 826.193127 305.741868 
L 827.791301 300.279542 
L 829.389474 296.130348 
L 830.987648 301.772544 
L 832.585822 304.41877 
L 835.78217 303.071358 
L 837.380344 302.726498 
L 838.978518 305.195853 
L 840.576692 305.384583 
L 842.174866 302.48266 
L 843.77304 300.702026 
L 845.371213 302.300661 
L 846.969387 301.165595 
L 848.567561 297.857791 
L 850.165735 299.793909 
L 851.763909 300.331463 
L 853.362083 303.733136 
L 854.960257 300.758288 
L 856.558431 302.907509 
L 858.156605 302.878579 
L 859.754779 302.324844 
L 861.352953 302.828623 
L 862.951126 305.741868 
L 864.5493 303.435521 
L 866.147474 305.438421 
L 867.745648 305.741868 
L 869.343822 304.455927 
L 870.941996 298.690792 
L 872.54017 298.389214 
L 874.138344 296.737548 
L 875.736518 301.505485 
L 877.334692 303.126009 
L 878.932865 300.67397 
L 880.531039 299.140279 
L 882.129213 298.494107 
L 883.727387 304.259936 
L 885.325561 302.658903 
L 885.325561 302.658903 
" clip-path="url(#p0bb62a6fdb)" style="fill: none; stroke: #2ca02c; stroke-width: 1.2; stroke-linecap: square"/>
   </g>
   <g id="line2d_14">
    <path d="M 87.836783 294.891096 
L 89.434957 295.647178 
L 91.03313 293.326789 
L 92.631304 283.48469 
L 94.229478 274.476888 
L 95.827652 276.758169 
L 97.425826 271.29613 
L 99.024 289.181375 
L 100.622174 299.310264 
L 102.220348 301.839227 
L 103.818522 303.236512 
L 105.416696 303.608035 
L 107.01487 303.048306 
L 108.613043 301.407413 
L 110.211217 298.485744 
L 111.809391 295.200699 
L 113.407565 295.885083 
L 115.005739 296.165355 
L 116.603913 286.378658 
L 118.202087 287.06956 
L 119.800261 291.224751 
L 121.398435 293.13451 
L 122.996609 297.850244 
L 124.594782 301.396007 
L 126.192956 302.659674 
L 127.79113 303.156667 
L 129.389304 302.795736 
L 130.987478 302.756628 
L 132.585652 302.328073 
L 134.183826 302.331332 
L 135.782 302.170013 
L 137.380174 302.404659 
L 140.576522 302.316667 
L 142.174695 303.317171 
L 143.772869 303.095561 
L 145.371043 301.366676 
L 146.969217 301.122253 
L 148.567391 301.500294 
L 150.165565 301.109217 
L 151.763739 299.867548 
L 153.361913 294.992124 
L 154.960087 257.836571 
L 156.558261 196.046438 
L 158.156434 179.490854 
L 159.754608 227.671514 
L 161.352782 155.478739 
L 162.950956 175.658301 
L 164.54913 116.266773 
L 166.147304 69.806851 
L 167.745478 63.026101 
L 169.343652 72.466173 
L 170.941826 130.501968 
L 172.54 172.738261 
L 174.138174 211.611294 
L 175.736347 246.4432 
L 177.334521 264.941132 
L 178.932695 275.813067 
L 180.530869 285.880035 
L 182.129043 291.60931 
L 183.727217 295.73517 
L 185.325391 297.442872 
L 186.923565 298.335831 
L 188.521739 298.616103 
L 190.119913 299.478101 
L 191.718086 300.491642 
L 193.31626 302.455173 
L 194.914434 302.94076 
L 196.512608 302.186308 
L 198.110782 301.906036 
L 199.708956 301.739828 
L 201.30713 302.183049 
L 202.905304 302.228674 
L 204.503478 302.554572 
L 207.699826 302.732186 
L 209.297999 303.452419 
L 210.896173 303.212884 
L 212.494347 302.707743 
L 215.690695 302.818549 
L 218.887043 302.430731 
L 223.681565 302.671895 
L 225.279738 302.43399 
L 226.877912 302.4014 
L 228.476086 302.756628 
L 230.07426 302.939131 
L 231.672434 302.9098 
L 234.868782 302.499169 
L 236.466956 302.87721 
L 241.261478 303.303321 
L 244.457825 303.089043 
L 246.055999 302.834843 
L 249.252347 302.834843 
L 250.850521 302.834843 
L 254.046869 303.150964 
L 257.243217 302.838102 
L 258.84139 303.121633 
L 260.439564 302.984756 
L 262.037738 302.551313 
L 263.635912 302.645823 
L 265.234086 303.897269 
L 266.83226 303.242215 
L 268.430434 302.362292 
L 270.028608 303.171332 
L 271.626782 304.517288 
L 273.224956 303.693583 
L 274.82313 303.014087 
L 278.019477 303.186813 
L 279.617651 302.924465 
L 284.412173 302.924465 
L 286.010347 303.222661 
L 287.608521 303.087414 
L 290.804869 302.442137 
L 292.403042 302.427472 
L 295.59939 302.828325 
L 297.197564 302.639305 
L 298.795738 302.59042 
L 300.393912 302.707743 
L 301.992086 302.697967 
L 305.188434 303.164814 
L 306.786608 303.811721 
L 308.384782 304.136803 
L 309.982955 303.962448 
L 311.581129 304.108287 
L 313.179303 304.489587 
L 314.777477 304.461886 
L 316.375651 304.085474 
L 317.973825 304.342119 
L 321.170173 303.804388 
L 322.768347 303.89401 
L 324.366521 303.484194 
L 325.964694 303.30495 
L 327.562868 301.953291 
L 329.161042 300.84524 
L 330.759216 300.074493 
L 332.35739 300.566598 
L 337.151912 296.569467 
L 338.750086 290.651172 
L 340.34826 282.155029 
L 341.946434 285.374894 
L 343.544607 279.476153 
L 345.142781 287.063042 
L 346.740955 293.137769 
L 348.339129 294.076353 
L 349.937303 289.29218 
L 351.535477 273.544821 
L 353.133651 240.081684 
L 354.731825 219.589261 
L 356.329999 191.144942 
L 357.928173 182.749827 
L 359.526346 223.135024 
L 361.12452 240.290259 
L 362.722694 262.855389 
L 364.320868 280.727598 
L 365.919042 292.674994 
L 367.517216 297.895869 
L 369.11539 299.649197 
L 370.713564 300.111971 
L 372.311738 299.979983 
L 375.508086 300.268402 
L 377.106259 300.692069 
L 380.302607 301.154843 
L 381.900781 301.573621 
L 383.498955 302.7827 
L 385.097129 303.419829 
L 388.293477 300.71977 
L 389.891651 300.677403 
L 391.489825 299.857771 
L 394.686172 300.097306 
L 396.284346 300.612224 
L 397.88252 301.92559 
L 399.480694 302.557831 
L 401.078868 302.854397 
L 402.677042 303.89401 
L 405.87339 305.681557 
L 407.471564 305.741868 
L 409.069738 305.575233 
L 410.667911 304.772303 
L 412.266085 304.421963 
L 413.864259 304.333971 
L 415.462433 304.703865 
L 418.658781 304.369005 
L 420.256955 304.195465 
L 423.453303 302.424213 
L 425.051477 299.103319 
L 426.64965 290.954256 
L 428.247824 270.918089 
L 429.845998 260.007047 
L 431.444172 286.202674 
L 433.042346 287.903858 
L 434.64052 264.91506 
L 436.238694 278.097607 
L 437.836868 293.147545 
L 439.435042 300.221147 
L 441.033216 302.56109 
L 442.631389 303.525746 
L 444.229563 303.985261 
L 447.425911 303.871197 
L 449.024085 304.368598 
L 450.622259 305.741868 
L 452.220433 305.741868 
L 453.818607 304.874961 
L 455.416781 304.843186 
L 457.014955 304.660683 
L 458.613129 304.736454 
L 460.211302 304.607725 
L 461.809476 304.118879 
L 466.603998 304.378782 
L 468.202172 304.511585 
L 469.800346 304.993913 
L 474.594868 304.432555 
L 477.791215 303.552632 
L 479.389389 303.386425 
L 480.987563 302.795736 
L 482.585737 302.525241 
L 484.183911 302.381846 
L 485.782085 301.814785 
L 487.380259 299.900138 
L 488.978433 298.987626 
L 490.576607 293.871038 
L 492.174781 286.02343 
L 493.772954 268.591182 
L 495.371128 210.242525 
L 496.969302 106.88093 
L 498.567476 63.026101 
L 500.16565 63.026101 
L 501.763824 128.520513 
L 503.361998 63.026101 
L 504.960172 63.026101 
L 506.558346 119.551818 
L 508.15652 209.864485 
L 509.754693 268.486895 
L 511.352867 291.821143 
L 512.951041 295.76776 
L 514.549215 297.491757 
L 516.147389 298.759497 
L 517.745563 299.54491 
L 522.540085 302.525241 
L 524.138259 302.759887 
L 525.736433 303.30658 
L 527.334606 304.264718 
L 530.530954 303.295988 
L 532.129128 303.802758 
L 533.727302 304.008074 
L 535.325476 304.012147 
L 538.521824 303.588481 
L 540.119998 303.619441 
L 541.718172 303.832089 
L 544.914519 302.073873 
L 546.512693 302.574126 
L 548.110867 302.460061 
L 549.709041 299.029992 
L 551.307215 297.949643 
L 552.905389 298.43523 
L 554.503563 298.133775 
L 556.101737 298.694318 
L 557.699911 300.841981 
L 559.298085 302.103204 
L 560.896258 302.398141 
L 562.494432 302.130905 
L 564.092606 302.730556 
L 565.69078 302.880469 
L 567.288954 302.681672 
L 570.485302 303.17785 
L 572.083476 303.260954 
L 573.68165 302.997792 
L 575.279824 303.186813 
L 576.877997 304.059403 
L 578.476171 305.258705 
L 580.074345 304.276124 
L 581.672519 303.539596 
L 583.270693 303.590925 
L 586.467041 302.629528 
L 588.065215 302.055949 
L 591.261563 301.589916 
L 592.859737 301.220022 
L 594.45791 301.747976 
L 596.056084 301.648577 
L 597.654258 300.700216 
L 599.252432 301.490517 
L 600.850606 302.005435 
L 602.44878 302.68656 
L 607.243302 304.179985 
L 608.841476 303.313912 
L 610.439649 302.671895 
L 612.037823 303.178665 
L 613.635997 302.856027 
L 616.832345 303.735135 
L 618.430519 303.729432 
L 620.028693 303.535523 
L 621.626867 303.662623 
L 623.225041 303.620256 
L 624.823215 304.126212 
L 626.421389 305.610674 
L 628.019562 304.631352 
L 629.617736 303.344058 
L 631.21591 303.077637 
L 632.814084 304.646833 
L 634.412258 305.741868 
L 637.608606 302.579014 
L 640.804954 304.173467 
L 644.001301 303.885862 
L 645.599475 303.141187 
L 648.795823 302.649082 
L 650.393997 302.663747 
L 651.992171 302.406288 
L 653.590345 304.16206 
L 655.188519 304.03659 
L 656.786693 302.541536 
L 659.983041 302.8601 
L 663.179388 304.575135 
L 664.777562 303.589296 
L 666.375736 302.838102 
L 667.97391 303.468714 
L 669.572084 305.741868 
L 679.161127 305.741868 
L 680.759301 302.460061 
L 682.357475 301.821303 
L 683.955649 301.557326 
L 687.151997 302.057578 
L 688.750171 302.593679 
L 690.348345 301.746346 
L 691.946519 300.685551 
L 693.544693 300.447646 
L 695.142866 301.889741 
L 696.74104 301.440003 
L 699.937388 298.177771 
L 701.535562 299.135909 
L 703.133736 298.542776 
L 704.73191 294.966053 
L 707.928258 282.963254 
L 709.526432 274.392155 
L 711.124605 261.460549 
L 712.722779 244.69639 
L 714.320953 213.384176 
L 717.517301 135.247033 
L 719.115475 138.479935 
L 720.713649 63.026101 
L 722.311823 63.026101 
L 723.909997 207.009624 
L 725.508171 231.282457 
L 727.106345 262.692441 
L 728.704518 291.358369 
L 730.302692 297.848614 
L 731.900866 301.914183 
L 733.49904 303.105338 
L 735.097214 302.735445 
L 736.695388 303.398646 
L 738.293562 303.665882 
L 739.891736 303.168888 
L 741.48991 302.983127 
L 744.686257 303.711507 
L 746.284431 304.00563 
L 749.480779 305.364621 
L 751.078953 305.468909 
L 754.275301 304.452924 
L 755.873475 304.692458 
L 757.471649 304.700606 
L 763.864344 304.169393 
L 765.462518 304.237017 
L 767.060692 304.114805 
L 768.658866 303.83046 
L 770.25704 304.36982 
L 771.855214 304.078142 
L 773.453388 303.907046 
L 775.051562 304.333156 
L 776.649736 305.156047 
L 778.247909 304.765785 
L 779.846083 304.257385 
L 781.444257 304.575135 
L 783.042431 305.010208 
L 786.238779 304.775562 
L 787.836953 305.208191 
L 789.435127 305.185378 
L 791.033301 304.852148 
L 792.631475 304.870072 
L 794.229649 304.631352 
L 799.02417 304.333156 
L 802.220518 304.021924 
L 803.818692 303.975484 
L 805.416866 304.412186 
L 807.01504 304.544175 
L 808.613214 304.545804 
L 810.211388 304.297308 
L 813.407735 304.651721 
L 815.005909 305.107977 
L 818.202257 303.897269 
L 819.800431 304.575135 
L 821.398605 304.969471 
L 822.996779 304.144951 
L 824.594953 304.001556 
L 826.193127 304.820373 
L 827.791301 305.068055 
L 829.389474 304.285086 
L 830.987648 304.247608 
L 834.183996 304.839112 
L 835.78217 304.628908 
L 837.380344 304.731566 
L 838.978518 304.394262 
L 843.77304 304.303826 
L 845.371213 304.748675 
L 846.969387 305.043613 
L 848.567561 305.129975 
L 851.763909 303.962448 
L 853.362083 304.112361 
L 856.558431 304.06918 
L 858.156605 304.120508 
L 859.754779 304.537657 
L 861.352953 304.131915 
L 862.951126 304.040664 
L 864.5493 305.049723 
L 866.147474 305.741868 
L 867.745648 305.741868 
L 869.343822 305.556901 
L 870.941996 304.423593 
L 872.54017 303.941265 
L 875.736518 304.570247 
L 880.531039 304.855407 
L 882.129213 304.640315 
L 885.325561 304.097696 
L 885.325561 304.097696 
" clip-path="url(#p0bb62a6fdb)" style="fill: none; stroke: #000000; stroke-width: 1.2; stroke-linecap: square"/>
   </g>
   <g id="line2d_15">
    <path d="M 87.836783 273.579926 
L 89.434957 275.15523 
L 91.03313 269.691883 
L 92.631304 226.815083 
L 94.229478 208.597608 
L 95.827652 80.751196 
L 97.425826 191.920478 
L 99.024 239.522363 
L 100.622174 255.626906 
L 102.220348 256.303164 
L 103.818522 267.922972 
L 105.416696 265.441848 
L 107.01487 263.876359 
L 108.613043 277.412341 
L 110.211217 266.236428 
L 111.809391 263.761046 
L 113.407565 254.200488 
L 115.005739 203.017376 
L 116.603913 224.546388 
L 118.202087 253.109085 
L 119.800261 260.1745 
L 121.398435 251.705451 
L 122.996609 241.40556 
L 124.594782 268.867395 
L 126.192956 266.742608 
L 127.79113 262.111559 
L 129.389304 270.614605 
L 130.987478 271.747915 
L 132.585652 266.963794 
L 134.183826 259.162298 
L 135.782 257.750927 
L 137.380174 226.647374 
L 138.978348 206.799022 
L 140.576522 251.614176 
L 142.174695 259.29994 
L 143.772869 261.930561 
L 145.371043 247.210037 
L 146.969217 245.330665 
L 148.567391 249.018521 
L 150.165565 248.821751 
L 151.763739 234.548362 
L 153.361913 247.056806 
L 154.960087 178.522627 
L 156.558261 156.255955 
L 158.156434 89.748711 
L 159.754608 140.470335 
L 161.352782 147.673226 
L 162.950956 101.321244 
L 164.54913 63.026101 
L 167.745478 144.986249 
L 169.343652 207.198166 
L 170.941826 226.69044 
L 172.54 206.466626 
L 174.138174 211.425792 
L 175.736347 226.62216 
L 177.334521 228.254227 
L 178.932695 216.526651 
L 180.530869 197.254512 
L 183.727217 237.281329 
L 185.325391 229.214212 
L 186.923565 241.016102 
L 188.521739 242.848365 
L 190.119913 267.343292 
L 191.718086 235.885871 
L 193.31626 268.012402 
L 194.914434 272.038008 
L 196.512608 246.664212 
L 198.110782 248.603836 
L 199.708956 265.156196 
L 201.30713 271.976172 
L 202.905304 265.116492 
L 204.503478 259.734299 
L 206.101652 261.354535 
L 207.699826 266.011875 
L 209.297999 252.980567 
L 210.896173 245.831487 
L 212.494347 260.364084 
L 214.092521 256.525662 
L 215.690695 247.945781 
L 217.288869 263.25808 
L 218.887043 261.245659 
L 220.485217 280.240859 
L 222.083391 270.276743 
L 223.681565 277.356134 
L 225.279738 273.097557 
L 226.877912 255.558286 
L 228.476086 255.474993 
L 230.07426 269.265303 
L 231.672434 259.395749 
L 233.270608 267.036884 
L 234.868782 249.817497 
L 236.466956 268.517971 
L 238.06513 255.554692 
L 239.663304 260.710449 
L 241.261478 251.528171 
L 242.859651 249.46708 
L 244.457825 248.4022 
L 246.055999 257.603068 
L 247.654173 249.992988 
L 249.252347 251.688903 
L 250.850521 257.838551 
L 252.448695 226.743836 
L 254.046869 250.496476 
L 255.645043 227.917313 
L 257.243217 232.321746 
L 258.84139 251.655945 
L 260.439564 268.99831 
L 262.037738 256.160973 
L 263.635912 269.167691 
L 265.234086 272.045843 
L 266.83226 258.513321 
L 268.430434 264.777491 
L 270.028608 268.464345 
L 271.626782 266.64035 
L 273.224956 266.580956 
L 274.82313 259.553542 
L 276.421303 244.435555 
L 278.019477 231.87115 
L 279.617651 253.790576 
L 281.215825 251.721554 
L 282.813999 255.421342 
L 284.412173 278.280647 
L 286.010347 277.268468 
L 287.608521 278.803101 
L 289.206695 277.534996 
L 290.804869 271.617724 
L 292.403042 260.434954 
L 294.001216 258.819467 
L 295.59939 256.949481 
L 297.197564 257.543972 
L 298.795738 262.317535 
L 300.393912 284.136699 
L 301.992086 272.675549 
L 303.59026 266.738086 
L 305.188434 235.179529 
L 306.786608 254.297508 
L 308.384782 218.132136 
L 309.982955 226.84065 
L 311.581129 250.412072 
L 313.179303 269.858634 
L 314.777477 273.264053 
L 316.375651 275.705287 
L 317.973825 285.747451 
L 319.571999 292.016554 
L 321.170173 285.756488 
L 322.768347 275.748008 
L 324.366521 273.57436 
L 325.964694 275.70358 
L 327.562868 257.79209 
L 329.161042 225.093412 
L 330.759216 254.108166 
L 332.35739 160.470592 
L 333.955564 238.823442 
L 335.553738 262.943265 
L 337.151912 251.54441 
L 338.750086 245.753275 
L 340.34826 220.341338 
L 341.946434 242.729944 
L 343.544607 230.011935 
L 345.142781 246.475105 
L 346.740955 249.108523 
L 348.339129 238.428892 
L 349.937303 236.719297 
L 351.535477 220.86026 
L 353.133651 210.712801 
L 354.731825 94.226856 
L 356.329999 65.312126 
L 357.928173 200.420876 
L 359.526346 197.961067 
L 361.12452 242.023707 
L 362.722694 168.935117 
L 364.320868 220.943408 
L 365.919042 179.616494 
L 367.517216 179.975785 
L 369.11539 216.528643 
L 370.713564 209.926012 
L 372.311738 112.016073 
L 373.909912 236.400872 
L 375.508086 215.686651 
L 377.106259 226.287382 
L 378.704433 243.943335 
L 380.302607 212.116083 
L 381.900781 193.905539 
L 383.498955 196.144206 
L 385.097129 229.412144 
L 386.695303 267.88691 
L 388.293477 234.653065 
L 389.891651 248.176998 
L 391.489825 232.759094 
L 393.087998 135.729835 
L 394.686172 169.156262 
L 396.284346 189.801921 
L 397.88252 231.450517 
L 399.480694 258.146246 
L 401.078868 243.444161 
L 402.677042 245.365551 
L 404.275216 284.854885 
L 405.87339 269.343369 
L 407.471564 244.381965 
L 409.069738 227.558827 
L 410.667911 252.629005 
L 412.266085 212.610556 
L 413.864259 212.633989 
L 415.462433 266.965188 
L 417.060607 300.862646 
L 418.658781 276.724843 
L 420.256955 285.099661 
L 421.855129 291.679746 
L 423.453303 296.843011 
L 425.051477 282.937708 
L 426.64965 272.03986 
L 428.247824 265.161117 
L 429.845998 134.080638 
L 431.444172 63.026101 
L 433.042346 63.026101 
L 434.64052 226.43655 
L 436.238694 265.879654 
L 437.836868 252.838054 
L 439.435042 225.989119 
L 441.033216 242.432527 
L 442.631389 237.198392 
L 444.229563 235.885835 
L 445.827737 218.117141 
L 447.425911 293.722528 
L 449.024085 272.964213 
L 450.622259 275.1425 
L 452.220433 277.884871 
L 453.818607 219.087418 
L 455.416781 248.759434 
L 457.014955 257.347031 
L 458.613129 293.876686 
L 460.211302 285.583378 
L 461.809476 265.850731 
L 463.40765 287.216648 
L 465.005824 280.966582 
L 466.603998 288.408341 
L 468.202172 276.135374 
L 469.800346 246.911726 
L 471.39852 285.977805 
L 472.996694 297.433211 
L 474.594868 239.16221 
L 477.791215 286.212024 
L 479.389389 267.657123 
L 480.987563 264.419513 
L 482.585737 288.150691 
L 484.183911 264.429547 
L 485.782085 234.498231 
L 487.380259 281.770636 
L 488.978433 279.83034 
L 490.576607 263.945171 
L 492.174781 279.656662 
L 493.772954 273.99337 
L 495.371128 276.236454 
L 498.567476 230.221221 
L 500.16565 213.159151 
L 501.763824 63.026101 
L 503.361998 186.66474 
L 504.960172 235.303956 
L 506.558346 257.198602 
L 508.15652 272.143199 
L 509.754693 294.969272 
L 511.352867 291.53138 
L 512.951041 283.227071 
L 514.549215 280.62547 
L 516.147389 253.784754 
L 517.745563 256.931166 
L 519.343737 290.034972 
L 520.941911 275.89823 
L 522.540085 274.76171 
L 524.138259 292.846392 
L 525.736433 265.900128 
L 527.334606 253.576464 
L 528.93278 255.117277 
L 530.530954 261.808474 
L 532.129128 197.287356 
L 533.727302 252.33144 
L 535.325476 262.85067 
L 536.92365 254.963062 
L 538.521824 276.179651 
L 540.119998 241.689232 
L 541.718172 258.720286 
L 543.316345 227.0793 
L 544.914519 254.248072 
L 546.512693 283.503719 
L 548.110867 290.007454 
L 549.709041 248.224884 
L 551.307215 173.425261 
L 552.905389 191.416428 
L 554.503563 253.267972 
L 556.101737 288.818055 
L 557.699911 275.705021 
L 559.298085 264.498814 
L 560.896258 293.984219 
L 562.494432 302.216569 
L 564.092606 288.767353 
L 565.69078 293.673931 
L 567.288954 282.206114 
L 568.887128 282.450881 
L 570.485302 265.479042 
L 572.083476 272.544535 
L 573.68165 285.687757 
L 575.279824 281.548372 
L 576.877997 286.823557 
L 578.476171 268.616626 
L 580.074345 265.571285 
L 581.672519 253.538819 
L 583.270693 256.767164 
L 584.868867 257.775568 
L 586.467041 250.862923 
L 588.065215 257.535621 
L 589.663389 261.433906 
L 591.261563 257.66538 
L 592.859737 282.802637 
L 594.45791 212.878612 
L 596.056084 177.642434 
L 597.654258 230.495677 
L 599.252432 257.458545 
L 600.850606 271.738841 
L 602.44878 241.271742 
L 604.046954 245.289458 
L 605.645128 250.410329 
L 607.243302 260.195896 
L 608.841476 245.956352 
L 610.439649 272.605438 
L 612.037823 277.024271 
L 613.635997 257.006755 
L 615.234171 269.875414 
L 616.832345 226.311157 
L 618.430519 222.375529 
L 620.028693 218.865275 
L 621.626867 218.072987 
L 623.225041 232.59423 
L 624.823215 261.148256 
L 626.421389 251.796414 
L 628.019562 265.222025 
L 629.617736 256.966462 
L 631.21591 257.204597 
L 632.814084 259.433154 
L 634.412258 269.17386 
L 636.010432 252.352539 
L 637.608606 256.915043 
L 639.20678 241.416835 
L 640.804954 249.089878 
L 642.403128 245.015166 
L 644.001301 257.546217 
L 647.197649 235.645594 
L 648.795823 200.600852 
L 650.393997 194.190807 
L 651.992171 265.539376 
L 653.590345 257.844987 
L 655.188519 274.409416 
L 656.786693 252.331857 
L 658.384867 261.984366 
L 659.983041 252.908196 
L 661.581214 253.625179 
L 663.179388 243.811631 
L 664.777562 245.27339 
L 666.375736 213.438552 
L 667.97391 218.71019 
L 669.572084 260.521646 
L 671.170258 280.230919 
L 672.768432 256.759524 
L 674.366606 282.328274 
M 677.562953 163.761476 
L 679.161127 221.579584 
L 680.759301 240.267331 
L 682.357475 214.922834 
L 683.955649 223.742201 
L 685.553823 234.640537 
L 687.151997 210.810385 
L 688.750171 252.725373 
L 690.348345 224.444102 
L 691.946519 235.332375 
L 693.544693 244.925174 
L 695.142866 209.914081 
L 696.74104 205.732331 
L 698.339214 208.597942 
L 699.937388 236.273418 
L 701.535562 236.958315 
L 703.133736 225.723071 
L 704.73191 218.473674 
L 706.330084 182.452749 
L 707.928258 173.729132 
L 709.526432 174.02202 
L 711.124605 191.47609 
L 712.722779 156.940905 
L 714.320953 166.120727 
L 715.919127 159.648645 
L 717.517301 182.358256 
L 719.115475 163.741715 
L 720.713649 84.967486 
L 722.311823 98.44171 
L 723.909997 63.026101 
L 725.508171 150.15785 
L 727.106345 217.365104 
L 728.704518 243.889977 
L 730.302692 239.598404 
L 731.900866 256.033588 
L 733.49904 257.83962 
L 735.097214 279.624457 
L 736.695388 282.775013 
L 738.293562 272.578734 
L 739.891736 255.854387 
L 741.48991 270.04863 
L 743.088084 252.524882 
L 744.686257 241.227441 
L 746.284431 238.968406 
L 747.882605 260.027012 
L 749.480779 260.089947 
L 751.078953 265.306915 
L 752.677127 280.726817 
L 754.275301 244.448674 
L 755.873475 248.359294 
L 757.471649 229.669163 
L 759.069823 232.848056 
L 760.667997 234.355393 
L 762.26617 227.626409 
L 763.864344 253.836577 
L 765.462518 252.727442 
L 767.060692 263.422314 
L 768.658866 257.941822 
L 770.25704 255.508245 
L 771.855214 245.068055 
L 773.453388 265.998625 
L 775.051562 270.048763 
L 776.649736 267.41325 
L 778.247909 275.215131 
L 779.846083 266.865777 
L 781.444257 247.383311 
L 783.042431 251.957066 
L 784.640605 242.754051 
L 786.238779 250.337979 
L 787.836953 251.38775 
L 789.435127 249.439237 
L 791.033301 254.537289 
L 792.631475 238.401176 
L 794.229649 249.195095 
L 795.827822 252.582134 
L 797.425996 257.508597 
L 799.02417 247.6121 
L 800.622344 270.111768 
L 802.220518 254.40909 
L 803.818692 266.460494 
L 805.416866 251.376251 
L 807.01504 273.648708 
L 808.613214 272.537819 
L 810.211388 272.207545 
L 811.809561 267.005294 
L 813.407735 274.869781 
L 815.005909 276.986768 
L 816.604083 272.325786 
L 818.202257 254.273697 
L 819.800431 259.994557 
L 821.398605 259.379201 
L 822.996779 261.061015 
L 824.594953 257.439339 
L 826.193127 253.337877 
L 827.791301 252.280397 
L 829.389474 252.144237 
L 830.987648 259.081707 
L 832.585822 262.154598 
L 835.78217 234.102675 
L 837.380344 229.242659 
L 838.978518 264.244814 
L 840.576692 262.406968 
L 842.174866 261.209067 
L 843.77304 241.767876 
L 845.371213 262.121574 
L 846.969387 262.715566 
L 848.567561 258.598971 
L 850.165735 257.967487 
L 851.763909 249.646227 
L 853.362083 259.616729 
L 854.960257 273.586662 
L 856.558431 260.349977 
L 858.156605 266.712574 
L 859.754779 250.163733 
L 861.352953 258.466502 
L 862.951126 256.884975 
L 864.5493 243.345752 
L 866.147474 237.582347 
L 867.745648 244.973395 
L 869.343822 247.838827 
L 870.941996 267.767994 
L 872.54017 273.508151 
L 874.138344 267.884453 
L 875.736518 248.167563 
L 877.334692 252.256758 
L 878.932865 239.135535 
L 880.531039 238.563939 
L 882.129213 254.814687 
L 883.727387 257.936217 
L 885.325561 247.441268 
L 885.325561 247.441268 
" clip-path="url(#p0bb62a6fdb)" style="fill: none; stroke: #ff7f0e; stroke-width: 1.2; stroke-linecap: square"/>
   </g>
   <g id="line2d_16">
    <path d="M 87.836783 284.938594 
L 89.434957 289.77178 
L 91.03313 288.979942 
L 92.631304 252.143527 
L 94.229478 231.821434 
L 95.827652 196.284935 
L 97.425826 189.985741 
L 99.024 220.39438 
L 100.622174 247.38235 
L 102.220348 252.697011 
L 103.818522 280.91257 
L 105.416696 287.559895 
L 107.01487 282.963938 
L 108.613043 299.174355 
L 110.211217 286.910762 
L 111.809391 289.183275 
L 113.407565 288.891888 
L 115.005739 260.054668 
L 116.603913 253.392386 
L 118.202087 260.824533 
L 119.800261 266.153533 
L 121.398435 256.72446 
L 122.996609 263.800618 
L 124.594782 283.535434 
L 126.192956 282.825888 
L 127.79113 281.879552 
L 129.389304 288.492426 
L 130.987478 291.241374 
L 132.585652 283.294321 
L 134.183826 272.241575 
L 135.782 259.467651 
L 137.380174 262.742666 
L 138.978348 263.205236 
L 140.576522 265.382986 
L 142.174695 274.847313 
L 143.772869 290.885354 
L 145.371043 265.074602 
L 146.969217 264.357531 
L 148.567391 285.347556 
L 150.165565 292.142833 
L 151.763739 292.708426 
L 153.361913 288.263283 
L 154.960087 280.612442 
L 156.558261 246.133246 
L 158.156434 129.396659 
L 159.754608 161.827375 
L 161.352782 131.318775 
L 162.950956 63.026101 
L 167.745478 63.026101 
L 169.343652 224.975179 
L 170.941826 266.786133 
L 172.54 255.568294 
L 174.138174 246.991295 
L 175.736347 259.608996 
L 177.334521 278.263629 
L 178.932695 245.790653 
L 180.530869 234.649892 
L 182.129043 229.618706 
L 183.727217 232.02877 
L 185.325391 239.537878 
L 186.923565 241.887201 
L 188.521739 249.096512 
L 190.119913 267.702106 
L 191.718086 239.876622 
L 193.31626 268.736452 
L 194.914434 281.337573 
L 196.512608 254.665915 
L 198.110782 231.474338 
L 199.708956 242.002578 
L 201.30713 256.853063 
L 202.905304 236.377583 
L 204.503478 233.538087 
L 206.101652 247.66355 
L 207.699826 244.680676 
L 209.297999 236.526792 
L 210.896173 241.33459 
L 212.494347 263.43098 
L 214.092521 254.446422 
L 215.690695 254.400721 
L 217.288869 250.869034 
L 218.887043 273.118502 
L 220.485217 289.484024 
L 222.083391 288.128966 
L 223.681565 291.367842 
L 225.279738 290.88518 
L 226.877912 263.647669 
L 228.476086 252.817529 
L 230.07426 264.217875 
L 231.672434 259.22538 
L 233.270608 258.112458 
L 234.868782 258.576836 
L 236.466956 276.476918 
L 238.06513 284.441803 
L 239.663304 250.002956 
L 241.261478 228.462447 
L 242.859651 252.866755 
L 244.457825 269.702333 
L 246.055999 262.21714 
L 247.654173 269.414038 
L 249.252347 266.942198 
L 250.850521 267.125352 
L 252.448695 237.157631 
L 254.046869 238.034404 
L 255.645043 250.960731 
L 257.243217 254.537544 
L 258.84139 266.185785 
L 260.439564 283.284978 
L 262.037738 265.128111 
L 263.635912 274.441977 
L 265.234086 281.884226 
L 266.83226 282.6165 
L 268.430434 292.728631 
L 270.028608 283.249724 
L 271.626782 285.20845 
L 273.224956 283.363389 
L 274.82313 262.263297 
L 276.421303 246.779054 
L 278.019477 247.079344 
L 279.617651 246.745163 
L 281.215825 267.073662 
L 282.813999 240.185984 
L 284.412173 252.647681 
L 286.010347 284.070826 
L 287.608521 278.887176 
L 289.206695 278.312273 
L 292.403042 246.040739 
L 294.001216 248.565735 
L 295.59939 238.569687 
L 297.197564 241.786555 
L 298.795738 256.250288 
L 300.393912 293.083019 
L 301.992086 278.626816 
L 303.59026 251.83749 
L 305.188434 240.547018 
L 306.786608 238.199869 
L 308.384782 250.41899 
L 309.982955 249.650638 
L 311.581129 261.59152 
L 313.179303 269.572043 
L 314.777477 284.449702 
L 316.375651 269.836929 
L 317.973825 283.523085 
L 319.571999 286.167322 
L 321.170173 287.927126 
L 322.768347 282.707193 
L 324.366521 290.555627 
L 325.964694 295.631621 
L 327.562868 266.271479 
L 329.161042 252.753761 
L 330.759216 248.238654 
L 332.35739 251.889101 
L 333.955564 258.426494 
L 335.553738 252.846024 
L 337.151912 244.902745 
L 338.750086 262.616513 
L 340.34826 269.469126 
L 341.946434 260.192827 
L 343.544607 248.575319 
L 345.142781 241.372583 
L 346.740955 247.147081 
L 349.937303 273.470857 
L 351.535477 215.403282 
L 353.133651 192.536201 
L 354.731825 116.036777 
L 356.329999 63.026101 
L 359.526346 63.026101 
L 361.12452 126.552455 
L 362.722694 103.882082 
L 364.320868 123.667828 
L 367.517216 243.280051 
L 369.11539 250.640036 
L 370.713564 254.079769 
L 372.311738 265.662091 
L 373.909912 263.107699 
L 375.508086 270.263867 
L 377.106259 254.098644 
L 378.704433 254.820608 
L 380.302607 244.67681 
L 381.900781 236.963403 
L 383.498955 238.399874 
L 385.097129 274.516034 
L 386.695303 285.989702 
L 388.293477 240.0439 
L 389.891651 256.408841 
L 391.489825 256.303142 
L 393.087998 245.413697 
L 394.686172 238.934364 
L 396.284346 252.058715 
L 397.88252 251.684591 
L 399.480694 242.340897 
L 401.078868 236.846502 
L 402.677042 230.153405 
L 404.275216 273.09197 
L 405.87339 285.093733 
L 407.471564 285.426245 
L 409.069738 284.863538 
L 410.667911 285.192472 
L 412.266085 268.803263 
L 413.864259 239.31906 
L 415.462433 253.637006 
L 417.060607 238.701865 
L 418.658781 234.424405 
L 420.256955 240.414734 
L 423.453303 258.530646 
L 426.64965 244.701882 
L 428.247824 244.260981 
L 429.845998 236.705427 
L 431.444172 236.38242 
L 433.042346 247.237961 
L 434.64052 237.601073 
L 436.238694 245.444264 
L 437.836868 236.173118 
L 439.435042 228.480466 
L 441.033216 246.847056 
L 442.631389 252.369457 
L 444.229563 252.43812 
L 445.827737 243.485011 
L 447.425911 252.849623 
L 449.024085 245.684133 
L 450.622259 241.11227 
L 452.220433 237.109546 
L 453.818607 240.150589 
L 455.416781 237.662024 
L 457.014955 242.434108 
L 458.613129 242.089665 
L 460.211302 237.337131 
L 461.809476 244.045022 
L 465.005824 248.526697 
L 466.603998 241.411065 
L 468.202172 232.185506 
L 469.800346 228.900029 
L 471.39852 219.14253 
L 472.996694 220.095566 
L 474.594868 236.258782 
L 476.193041 241.435295 
L 477.791215 254.920785 
L 479.389389 253.701553 
L 480.987563 253.887097 
L 482.585737 249.419158 
L 484.183911 253.243403 
L 485.782085 262.963695 
L 487.380259 239.253311 
L 488.978433 254.534437 
L 490.576607 262.373342 
L 492.174781 245.391644 
L 493.772954 234.530951 
L 495.371128 248.340624 
L 496.969302 231.828414 
L 498.567476 134.222019 
L 500.16565 85.995455 
L 501.763824 70.12739 
L 503.361998 98.238263 
L 504.960172 195.232933 
L 506.558346 272.070973 
L 508.15652 286.796438 
L 509.754693 288.656743 
L 511.352867 290.238447 
L 512.951041 290.756702 
L 514.549215 289.80448 
L 516.147389 277.182866 
L 517.745563 273.260415 
L 519.343737 267.534205 
L 522.540085 287.583613 
L 524.138259 289.439675 
L 525.736433 261.240958 
L 527.334606 256.039998 
L 528.93278 268.170224 
L 530.530954 248.847782 
L 532.129128 235.299535 
L 533.727302 242.5892 
L 535.325476 237.499867 
L 536.92365 240.881513 
L 538.521824 243.838437 
L 540.119998 241.089151 
L 541.718172 241.244399 
L 543.316345 257.037335 
L 544.914519 261.941871 
L 546.512693 284.407135 
L 548.110867 277.060629 
L 549.709041 277.723231 
L 551.307215 262.237013 
L 552.905389 287.004293 
L 554.503563 297.560259 
L 556.101737 304.233438 
L 557.699911 295.667083 
L 559.298085 294.071489 
L 560.896258 294.783196 
L 562.494432 286.614059 
L 564.092606 301.648553 
L 565.69078 289.811916 
L 567.288954 288.409287 
L 568.887128 292.469683 
L 570.485302 281.274506 
L 572.083476 291.928847 
L 573.68165 276.024046 
L 576.877997 290.282863 
L 578.476171 279.422552 
L 580.074345 263.766864 
L 581.672519 236.345567 
L 583.270693 224.311917 
L 584.868867 226.566412 
L 586.467041 233.191979 
L 588.065215 259.037499 
L 589.663389 265.283125 
L 591.261563 253.99647 
L 592.859737 293.99794 
L 594.45791 271.074479 
L 596.056084 227.421682 
L 597.654258 237.647714 
L 599.252432 285.868961 
L 600.850606 292.437105 
L 602.44878 254.188701 
L 604.046954 230.792303 
L 605.645128 247.909157 
L 607.243302 282.196037 
L 608.841476 282.437793 
L 610.439649 277.572234 
L 612.037823 298.042058 
L 613.635997 280.024775 
L 615.234171 255.759429 
L 616.832345 216.02098 
L 618.430519 222.328322 
L 620.028693 234.987158 
L 621.626867 232.334628 
L 623.225041 215.689335 
L 624.823215 207.789813 
L 626.421389 215.977154 
L 628.019562 223.262714 
L 629.617736 236.627371 
L 632.814084 276.468219 
L 634.412258 270.767771 
L 636.010432 286.652607 
L 637.608606 297.135574 
L 639.20678 284.297534 
L 640.804954 285.190724 
L 642.403128 284.167704 
L 644.001301 282.413862 
L 645.599475 269.360214 
L 647.197649 241.739717 
L 648.795823 209.18353 
L 650.393997 239.571915 
L 651.992171 278.153052 
L 653.590345 284.878889 
L 655.188519 285.116936 
L 656.786693 263.059565 
L 658.384867 263.10509 
L 659.983041 257.17187 
L 661.581214 273.142019 
L 663.179388 282.627719 
L 664.777562 283.597779 
L 666.375736 254.368286 
L 667.97391 243.379538 
L 669.572084 235.100588 
L 671.170258 232.976547 
L 672.768432 236.134256 
L 674.366606 222.150743 
M 677.562953 220.927355 
L 679.161127 226.008105 
L 680.759301 233.604842 
L 682.357475 232.52564 
L 683.955649 237.14089 
L 685.553823 252.108453 
L 687.151997 207.625648 
L 688.750171 202.831203 
L 690.348345 216.458196 
L 691.946519 250.14991 
L 693.544693 239.407477 
L 695.142866 234.482067 
L 696.74104 237.769519 
L 698.339214 254.144439 
L 699.937388 279.347592 
L 701.535562 276.818935 
L 703.133736 272.973072 
L 704.73191 278.005375 
L 706.330084 252.677288 
L 707.928258 245.460141 
L 709.526432 257.219485 
L 711.124605 254.039602 
L 712.722779 252.614909 
L 714.320953 255.224363 
L 715.919127 245.125295 
L 717.517301 239.853151 
L 719.115475 211.400901 
L 720.713649 110.593704 
L 722.311823 80.928211 
L 723.909997 63.18171 
L 725.508171 95.251282 
L 727.106345 235.036487 
L 728.704518 265.369717 
L 730.302692 253.259423 
L 731.900866 285.855338 
L 733.49904 282.177309 
L 735.097214 286.684852 
L 736.695388 295.564176 
L 738.293562 282.722993 
L 739.891736 284.305493 
L 741.48991 288.959938 
L 743.088084 279.715809 
L 744.686257 273.804327 
L 746.284431 259.355278 
L 747.882605 277.301492 
L 749.480779 288.165673 
L 751.078953 294.74102 
L 752.677127 291.404068 
L 754.275301 253.57337 
L 755.873475 237.191931 
L 757.471649 228.153225 
L 759.069823 242.498213 
L 760.667997 246.813643 
L 762.26617 257.157469 
L 763.864344 280.96676 
L 765.462518 257.995009 
L 767.060692 268.422919 
L 768.658866 195.487292 
L 770.25704 196.606068 
L 771.855214 243.014986 
L 773.453388 272.294629 
L 775.051562 281.143523 
L 776.649736 289.322004 
L 778.247909 292.046331 
L 779.846083 290.034201 
L 781.444257 262.782839 
L 783.042431 251.908586 
L 784.640605 260.644287 
L 786.238779 256.592438 
L 787.836953 242.579888 
L 789.435127 235.451256 
L 791.033301 248.689065 
L 792.631475 240.952389 
L 794.229649 251.437645 
L 795.827822 258.81654 
L 797.425996 281.484144 
L 799.02417 282.783637 
L 800.622344 293.521416 
L 802.220518 276.757853 
L 803.818692 277.192094 
L 805.416866 286.394022 
L 807.01504 287.071778 
L 808.613214 280.565527 
L 810.211388 269.57127 
L 811.809561 272.030803 
L 813.407735 291.314824 
L 815.005909 298.941559 
L 816.604083 296.94683 
L 818.202257 283.196795 
L 819.800431 285.663088 
L 821.398605 282.002231 
L 822.996779 283.306058 
L 824.594953 277.355635 
L 826.193127 286.184959 
L 827.791301 282.032762 
L 829.389474 276.820302 
L 830.987648 268.622921 
L 832.585822 273.770451 
L 834.183996 259.117098 
L 835.78217 252.906081 
L 837.380344 239.48195 
L 838.978518 258.734689 
L 840.576692 274.41861 
L 842.174866 276.004139 
L 843.77304 259.311243 
L 845.371213 284.769728 
L 846.969387 288.60174 
L 848.567561 280.880417 
L 850.165735 278.095795 
L 851.763909 258.976424 
L 853.362083 270.809905 
L 854.960257 286.293267 
L 856.558431 286.532188 
L 858.156605 285.101 
L 859.754779 281.234438 
L 861.352953 281.360403 
L 862.951126 259.877383 
L 864.5493 239.979687 
L 866.147474 231.861501 
L 867.745648 231.055822 
L 869.343822 226.555501 
L 872.54017 290.911254 
L 874.138344 271.060362 
L 875.736518 246.858364 
L 877.334692 240.900421 
L 878.932865 229.691271 
L 880.531039 231.393143 
L 882.129213 243.105242 
L 883.727387 265.818239 
L 885.325561 283.47642 
L 885.325561 283.47642 
" clip-path="url(#p0bb62a6fdb)" style="fill: none; stroke-dasharray: 4.44,1.92; stroke-dashoffset: 0; stroke: #9467bd; stroke-width: 1.2"/>
   </g>
   <g id="patch_3">
    <path d="M 47.962344 317.877656 
L 47.962344 50.890312 
" style="fill: none; stroke: #000000; stroke-width: 0.8; stroke-linejoin: miter; stroke-linecap: square"/>
   </g>
   <g id="patch_4">
    <path d="M 925.2 317.877656 
L 925.2 50.890312 
" style="fill: none; stroke: #000000; stroke-width: 0.8; stroke-linejoin: miter; stroke-linecap: square"/>
   </g>
   <g id="patch_5">
    <path d="M 47.962344 317.877656 
L 925.2 317.877656 
" style="fill: none; stroke: #000000; stroke-width: 0.8; stroke-linejoin: miter; stroke-linecap: square"/>
   </g>
   <g id="patch_6">
    <path d="M 47.962344 50.890312 
L 925.2 50.890312 
" style="fill: none; stroke: #000000; stroke-width: 0.8; stroke-linejoin: miter; stroke-linecap: square"/>
   </g>
   <g id="legend_1">
    <g id="line2d_17">
     <path d="M 675.710938 63.98875 
L 685.710938 63.98875 
L 695.710938 63.98875 
" style="fill: none; stroke: #2ca02c; stroke-width: 1.2; stroke-linecap: square"/>
    </g>
    <g id="text_16">
     <!-- ENCSR203XPU -->
     <g transform="translate(703.710938 67.48875) scale(0.1 -0.1)">
      <defs>
       <path id="DejaVuSans-28" d="M 628 4666 
L 3578 4666 
L 3578 4134 
L 1259 4134 
L 1259 2753 
L 3481 2753 
L 3481 2222 
L 1259 2222 
L 1259 531 
L 3634 531 
L 3634 0 
L 628 0 
L 628 4666 
z
" transform="scale(0.015625)"/>
       <path id="DejaVuSans-31" d="M 628 4666 
L 1478 4666 
L 3547 763 
L 3547 4666 
L 4159 4666 
L 4159 0 
L 3309 0 
L 1241 3903 
L 1241 0 
L 628 0 
L 628 4666 
z
" transform="scale(0.015625)"/>
       <path id="DejaVuSans-26" d="M 4122 4306 
L 4122 3641 
Q 3803 3938 3442 4084 
Q 3081 4231 2675 4231 
Q 1875 4231 1450 3742 
Q 1025 3253 1025 2328 
Q 1025 1406 1450 917 
Q 1875 428 2675 428 
Q 3081 428 3442 575 
Q 3803 722 4122 1019 
L 4122 359 
Q 3791 134 3420 21 
Q 3050 -91 2638 -91 
Q 1578 -91 968 557 
Q 359 1206 359 2328 
Q 359 3453 968 4101 
Q 1578 4750 2638 4750 
Q 3056 4750 3426 4639 
Q 3797 4528 4122 4306 
z
" transform="scale(0.015625)"/>
       <path id="DejaVuSans-36" d="M 3425 4513 
L 3425 3897 
Q 3066 4069 2747 4153 
Q 2428 4238 2131 4238 
Q 1616 4238 1336 4038 
Q 1056 3838 1056 3469 
Q 1056 3159 1242 3001 
Q 1428 2844 1947 2747 
L 2328 2669 
Q 3034 2534 3370 2195 
Q 3706 1856 3706 1288 
Q 3706 609 3251 259 
Q 2797 -91 1919 -91 
Q 1588 -91 1214 -16 
Q 841 59 441 206 
L 441 856 
Q 825 641 1194 531 
Q 1563 422 1919 422 
Q 2459 422 2753 634 
Q 3047 847 3047 1241 
Q 3047 1584 2836 1778 
Q 2625 1972 2144 2069 
L 1759 2144 
Q 1053 2284 737 2584 
Q 422 2884 422 3419 
Q 422 4038 858 4394 
Q 1294 4750 2059 4750 
Q 2388 4750 2728 4690 
Q 3069 4631 3425 4513 
z
" transform="scale(0.015625)"/>
       <path id="DejaVuSans-35" d="M 2841 2188 
Q 3044 2119 3236 1894 
Q 3428 1669 3622 1275 
L 4263 0 
L 3584 0 
L 2988 1197 
Q 2756 1666 2539 1819 
Q 2322 1972 1947 1972 
L 1259 1972 
L 1259 0 
L 628 0 
L 628 4666 
L 2053 4666 
Q 2853 4666 3247 4331 
Q 3641 3997 3641 3322 
Q 3641 2881 3436 2590 
Q 3231 2300 2841 2188 
z
M 1259 4147 
L 1259 2491 
L 2053 2491 
Q 2509 2491 2742 2702 
Q 2975 2913 2975 3322 
Q 2975 3731 2742 3939 
Q 2509 4147 2053 4147 
L 1259 4147 
z
" transform="scale(0.015625)"/>
       <path id="DejaVuSans-3b" d="M 403 4666 
L 1081 4666 
L 2241 2931 
L 3406 4666 
L 4084 4666 
L 2584 2425 
L 4184 0 
L 3506 0 
L 2194 1984 
L 872 0 
L 191 0 
L 1856 2491 
L 403 4666 
z
" transform="scale(0.015625)"/>
       <path id="DejaVuSans-33" d="M 1259 4147 
L 1259 2394 
L 2053 2394 
Q 2494 2394 2734 2622 
Q 2975 2850 2975 3272 
Q 2975 3691 2734 3919 
Q 2494 4147 2053 4147 
L 1259 4147 
z
M 628 4666 
L 2053 4666 
Q 2838 4666 3239 4311 
Q 3641 3956 3641 3272 
Q 3641 2581 3239 2228 
Q 2838 1875 2053 1875 
L 1259 1875 
L 1259 0 
L 628 0 
L 628 4666 
z
" transform="scale(0.015625)"/>
       <path id="DejaVuSans-38" d="M 556 4666 
L 1191 4666 
L 1191 1831 
Q 1191 1081 1462 751 
Q 1734 422 2344 422 
Q 2950 422 3222 751 
Q 3494 1081 3494 1831 
L 3494 4666 
L 4128 4666 
L 4128 1753 
Q 4128 841 3676 375 
Q 3225 -91 2344 -91 
Q 1459 -91 1007 375 
Q 556 841 556 1753 
L 556 4666 
z
" transform="scale(0.015625)"/>
      </defs>
      <use xlink:href="#DejaVuSans-28"/>
      <use xlink:href="#DejaVuSans-31" transform="translate(63.1875 0)"/>
      <use xlink:href="#DejaVuSans-26" transform="translate(138 0)"/>
      <use xlink:href="#DejaVuSans-36" transform="translate(207.828125 0)"/>
      <use xlink:href="#DejaVuSans-35" transform="translate(271.3125 0)"/>
      <use xlink:href="#DejaVuSans-15" transform="translate(340.796875 0)"/>
      <use xlink:href="#DejaVuSans-13" transform="translate(404.421875 0)"/>
      <use xlink:href="#DejaVuSans-16" transform="translate(468.046875 0)"/>
      <use xlink:href="#DejaVuSans-3b" transform="translate(531.671875 0)"/>
      <use xlink:href="#DejaVuSans-33" transform="translate(600.171875 0)"/>
      <use xlink:href="#DejaVuSans-38" transform="translate(660.46875 0)"/>
     </g>
    </g>
    <g id="line2d_18">
     <path d="M 675.710938 78.989531 
L 685.710938 78.989531 
L 695.710938 78.989531 
" style="fill: none; stroke: #000000; stroke-width: 1.2; stroke-linecap: square"/>
    </g>
    <g id="text_17">
     <!-- AlphaGenome -->
     <g transform="translate(703.710938 82.489531) scale(0.1 -0.1)">
      <defs>
       <path id="DejaVuSans-24" d="M 2188 4044 
L 1331 1722 
L 3047 1722 
L 2188 4044 
z
M 1831 4666 
L 2547 4666 
L 4325 0 
L 3669 0 
L 3244 1197 
L 1141 1197 
L 716 0 
L 50 0 
L 1831 4666 
z
" transform="scale(0.015625)"/>
       <path id="DejaVuSans-53" d="M 1159 525 
L 1159 -1331 
L 581 -1331 
L 581 3500 
L 1159 3500 
L 1159 2969 
Q 1341 3281 1617 3432 
Q 1894 3584 2278 3584 
Q 2916 3584 3314 3078 
Q 3713 2572 3713 1747 
Q 3713 922 3314 415 
Q 2916 -91 2278 -91 
Q 1894 -91 1617 61 
Q 1341 213 1159 525 
z
M 3116 1747 
Q 3116 2381 2855 2742 
Q 2594 3103 2138 3103 
Q 1681 3103 1420 2742 
Q 1159 2381 1159 1747 
Q 1159 1113 1420 752 
Q 1681 391 2138 391 
Q 2594 391 2855 752 
Q 3116 1113 3116 1747 
z
" transform="scale(0.015625)"/>
       <path id="DejaVuSans-2a" d="M 3809 666 
L 3809 1919 
L 2778 1919 
L 2778 2438 
L 4434 2438 
L 4434 434 
Q 4069 175 3628 42 
Q 3188 -91 2688 -91 
Q 1594 -91 976 548 
Q 359 1188 359 2328 
Q 359 3472 976 4111 
Q 1594 4750 2688 4750 
Q 3144 4750 3555 4637 
Q 3966 4525 4313 4306 
L 4313 3634 
Q 3963 3931 3569 4081 
Q 3175 4231 2741 4231 
Q 1884 4231 1454 3753 
Q 1025 3275 1025 2328 
Q 1025 1384 1454 906 
Q 1884 428 2741 428 
Q 3075 428 3337 486 
Q 3600 544 3809 666 
z
" transform="scale(0.015625)"/>
      </defs>
      <use xlink:href="#DejaVuSans-24"/>
      <use xlink:href="#DejaVuSans-4f" transform="translate(68.40625 0)"/>
      <use xlink:href="#DejaVuSans-53" transform="translate(96.1875 0)"/>
      <use xlink:href="#DejaVuSans-4b" transform="translate(159.671875 0)"/>
      <use xlink:href="#DejaVuSans-44" transform="translate(223.046875 0)"/>
      <use xlink:href="#DejaVuSans-2a" transform="translate(284.328125 0)"/>
      <use xlink:href="#DejaVuSans-48" transform="translate(361.8125 0)"/>
      <use xlink:href="#DejaVuSans-51" transform="translate(423.34375 0)"/>
      <use xlink:href="#DejaVuSans-52" transform="translate(486.71875 0)"/>
      <use xlink:href="#DejaVuSans-50" transform="translate(547.90625 0)"/>
      <use xlink:href="#DejaVuSans-48" transform="translate(645.3125 0)"/>
     </g>
    </g>
    <g id="line2d_19">
     <path d="M 797.076563 63.98875 
L 807.076563 63.98875 
L 817.076563 63.98875 
" style="fill: none; stroke: #ff7f0e; stroke-width: 1.2; stroke-linecap: square"/>
    </g>
    <g id="text_18">
     <!-- DiMeLo pooled -->
     <g transform="translate(825.076563 67.48875) scale(0.1 -0.1)">
      <defs>
       <path id="DejaVuSans-27" d="M 1259 4147 
L 1259 519 
L 2022 519 
Q 2988 519 3436 956 
Q 3884 1394 3884 2338 
Q 3884 3275 3436 3711 
Q 2988 4147 2022 4147 
L 1259 4147 
z
M 628 4666 
L 1925 4666 
Q 3281 4666 3915 4102 
Q 4550 3538 4550 2338 
Q 4550 1131 3912 565 
Q 3275 0 1925 0 
L 628 0 
L 628 4666 
z
" transform="scale(0.015625)"/>
       <path id="DejaVuSans-30" d="M 628 4666 
L 1569 4666 
L 2759 1491 
L 3956 4666 
L 4897 4666 
L 4897 0 
L 4281 0 
L 4281 4097 
L 3078 897 
L 2444 897 
L 1241 4097 
L 1241 0 
L 628 0 
L 628 4666 
z
" transform="scale(0.015625)"/>
       <path id="DejaVuSans-2f" d="M 628 4666 
L 1259 4666 
L 1259 531 
L 3531 531 
L 3531 0 
L 628 0 
L 628 4666 
z
" transform="scale(0.015625)"/>
      </defs>
      <use xlink:href="#DejaVuSans-27"/>
      <use xlink:href="#DejaVuSans-4c" transform="translate(77 0)"/>
      <use xlink:href="#DejaVuSans-30" transform="translate(104.78125 0)"/>
      <use xlink:href="#DejaVuSans-48" transform="translate(191.0625 0)"/>
      <use xlink:href="#DejaVuSans-2f" transform="translate(252.59375 0)"/>
      <use xlink:href="#DejaVuSans-52" transform="translate(306.5625 0)"/>
      <use xlink:href="#DejaVuSans-3" transform="translate(367.75 0)"/>
      <use xlink:href="#DejaVuSans-53" transform="translate(399.53125 0)"/>
      <use xlink:href="#DejaVuSans-52" transform="translate(463.015625 0)"/>
      <use xlink:href="#DejaVuSans-52" transform="translate(524.203125 0)"/>
      <use xlink:href="#DejaVuSans-4f" transform="translate(585.390625 0)"/>
      <use xlink:href="#DejaVuSans-48" transform="translate(613.171875 0)"/>
      <use xlink:href="#DejaVuSans-47" transform="translate(674.703125 0)"/>
     </g>
    </g>
    <g id="line2d_20">
     <path d="M 797.076563 78.989531 
L 807.076563 78.989531 
L 817.076563 78.989531 
" style="fill: none; stroke-dasharray: 4.44,1.92; stroke-dashoffset: 0; stroke: #9467bd; stroke-width: 1.2"/>
    </g>
    <g id="text_19">
     <!-- HyenaDNA pooled -->
     <g transform="translate(825.076563 82.489531) scale(0.1 -0.1)">
      <defs>
       <path id="DejaVuSans-2b" d="M 628 4666 
L 1259 4666 
L 1259 2753 
L 3553 2753 
L 3553 4666 
L 4184 4666 
L 4184 0 
L 3553 0 
L 3553 2222 
L 1259 2222 
L 1259 0 
L 628 0 
L 628 4666 
z
" transform="scale(0.015625)"/>
       <path id="DejaVuSans-5c" d="M 2059 -325 
Q 1816 -950 1584 -1140 
Q 1353 -1331 966 -1331 
L 506 -1331 
L 506 -850 
L 844 -850 
Q 1081 -850 1212 -737 
Q 1344 -625 1503 -206 
L 1606 56 
L 191 3500 
L 800 3500 
L 1894 763 
L 2988 3500 
L 3597 3500 
L 2059 -325 
z
" transform="scale(0.015625)"/>
      </defs>
      <use xlink:href="#DejaVuSans-2b"/>
      <use xlink:href="#DejaVuSans-5c" transform="translate(75.203125 0)"/>
      <use xlink:href="#DejaVuSans-48" transform="translate(134.390625 0)"/>
      <use xlink:href="#DejaVuSans-51" transform="translate(195.921875 0)"/>
      <use xlink:href="#DejaVuSans-44" transform="translate(259.296875 0)"/>
      <use xlink:href="#DejaVuSans-27" transform="translate(320.578125 0)"/>
      <use xlink:href="#DejaVuSans-31" transform="translate(397.578125 0)"/>
      <use xlink:href="#DejaVuSans-24" transform="translate(472.390625 0)"/>
      <use xlink:href="#DejaVuSans-3" transform="translate(540.796875 0)"/>
      <use xlink:href="#DejaVuSans-53" transform="translate(572.578125 0)"/>
      <use xlink:href="#DejaVuSans-52" transform="translate(636.0625 0)"/>
      <use xlink:href="#DejaVuSans-52" transform="translate(697.25 0)"/>
      <use xlink:href="#DejaVuSans-4f" transform="translate(758.4375 0)"/>
      <use xlink:href="#DejaVuSans-48" transform="translate(786.21875 0)"/>
      <use xlink:href="#DejaVuSans-47" transform="translate(847.75 0)"/>
     </g>
    </g>
   </g>
  </g>
  <g id="text_20">
   <!-- chr16 region 12: overlay -->
   <g transform="translate(394.168125 17.519297) scale(0.12 -0.12)">
    <defs>
     <path id="DejaVuSans-1d" d="M 750 794 
L 1409 794 
L 1409 0 
L 750 0 
L 750 794 
z
M 750 3309 
L 1409 3309 
L 1409 2516 
L 750 2516 
L 750 3309 
z
" transform="scale(0.015625)"/>
     <path id="DejaVuSans-59" d="M 191 3500 
L 800 3500 
L 1894 563 
L 2988 3500 
L 3597 3500 
L 2284 0 
L 1503 0 
L 191 3500 
z
" transform="scale(0.015625)"/>
    </defs>
    <use xlink:href="#DejaVuSans-46"/>
    <use xlink:href="#DejaVuSans-4b" transform="translate(54.984375 0)"/>
    <use xlink:href="#DejaVuSans-55" transform="translate(118.359375 0)"/>
    <use xlink:href="#DejaVuSans-14" transform="translate(159.46875 0)"/>
    <use xlink:href="#DejaVuSans-19" transform="translate(223.09375 0)"/>
    <use xlink:href="#DejaVuSans-3" transform="translate(286.71875 0)"/>
    <use xlink:href="#DejaVuSans-55" transform="translate(318.5 0)"/>
    <use xlink:href="#DejaVuSans-48" transform="translate(357.40625 0)"/>
    <use xlink:href="#DejaVuSans-4a" transform="translate(418.9375 0)"/>
    <use xlink:href="#DejaVuSans-4c" transform="translate(482.421875 0)"/>
    <use xlink:href="#DejaVuSans-52" transform="translate(510.203125 0)"/>
    <use xlink:href="#DejaVuSans-51" transform="translate(571.390625 0)"/>
    <use xlink:href="#DejaVuSans-3" transform="translate(634.765625 0)"/>
    <use xlink:href="#DejaVuSans-14" transform="translate(666.546875 0)"/>
    <use xlink:href="#DejaVuSans-15" transform="translate(730.171875 0)"/>
    <use xlink:href="#DejaVuSans-1d" transform="translate(793.796875 0)"/>
    <use xlink:href="#DejaVuSans-3" transform="translate(827.484375 0)"/>
    <use xlink:href="#DejaVuSans-52" transform="translate(859.265625 0)"/>
    <use xlink:href="#DejaVuSans-59" transform="translate(920.453125 0)"/>
    <use xlink:href="#DejaVuSans-48" transform="translate(979.640625 0)"/>
    <use xlink:href="#DejaVuSans-55" transform="translate(1041.171875 0)"/>
    <use xlink:href="#DejaVuSans-4f" transform="translate(1082.28125 0)"/>
    <use xlink:href="#DejaVuSans-44" transform="translate(1110.0625 0)"/>
    <use xlink:href="#DejaVuSans-5c" transform="translate(1171.34375 0)"/>
   </g>
   <!-- chr16_rank13_score3.528_reads360 -->
   <g transform="translate(359.352188 31.922578) scale(0.12 -0.12)">
    <defs>
     <path id="DejaVuSans-42" d="M 3263 -1063 
L 3263 -1509 
L -63 -1509 
L -63 -1063 
L 3263 -1063 
z
" transform="scale(0.015625)"/>
     <path id="DejaVuSans-4e" d="M 581 4863 
L 1159 4863 
L 1159 1991 
L 2875 3500 
L 3609 3500 
L 1753 1863 
L 3688 0 
L 2938 0 
L 1159 1709 
L 1159 0 
L 581 0 
L 581 4863 
z
" transform="scale(0.015625)"/>
     <path id="DejaVuSans-18" d="M 691 4666 
L 3169 4666 
L 3169 4134 
L 1269 4134 
L 1269 2991 
Q 1406 3038 1543 3061 
Q 1681 3084 1819 3084 
Q 2600 3084 3056 2656 
Q 3513 2228 3513 1497 
Q 3513 744 3044 326 
Q 2575 -91 1722 -91 
Q 1428 -91 1123 -41 
Q 819 9 494 109 
L 494 744 
Q 775 591 1075 516 
Q 1375 441 1709 441 
Q 2250 441 2565 725 
Q 2881 1009 2881 1497 
Q 2881 1984 2565 2268 
Q 2250 2553 1709 2553 
Q 1456 2553 1204 2497 
Q 953 2441 691 2322 
L 691 4666 
z
" transform="scale(0.015625)"/>
    </defs>
    <use xlink:href="#DejaVuSans-46"/>
    <use xlink:href="#DejaVuSans-4b" transform="translate(54.984375 0)"/>
    <use xlink:href="#DejaVuSans-55" transform="translate(118.359375 0)"/>
    <use xlink:href="#DejaVuSans-14" transform="translate(159.46875 0)"/>
    <use xlink:href="#DejaVuSans-19" transform="translate(223.09375 0)"/>
    <use xlink:href="#DejaVuSans-42" transform="translate(286.71875 0)"/>
    <use xlink:href="#DejaVuSans-55" transform="translate(336.71875 0)"/>
    <use xlink:href="#DejaVuSans-44" transform="translate(377.828125 0)"/>
    <use xlink:href="#DejaVuSans-51" transform="translate(439.109375 0)"/>
    <use xlink:href="#DejaVuSans-4e" transform="translate(502.484375 0)"/>
    <use xlink:href="#DejaVuSans-14" transform="translate(560.390625 0)"/>
    <use xlink:href="#DejaVuSans-16" transform="translate(624.015625 0)"/>
    <use xlink:href="#DejaVuSans-42" transform="translate(687.640625 0)"/>
    <use xlink:href="#DejaVuSans-56" transform="translate(737.640625 0)"/>
    <use xlink:href="#DejaVuSans-46" transform="translate(789.734375 0)"/>
    <use xlink:href="#DejaVuSans-52" transform="translate(844.71875 0)"/>
    <use xlink:href="#DejaVuSans-55" transform="translate(905.90625 0)"/>
    <use xlink:href="#DejaVuSans-48" transform="translate(944.8125 0)"/>
    <use xlink:href="#DejaVuSans-16" transform="translate(1006.34375 0)"/>
    <use xlink:href="#DejaVuSans-11" transform="translate(1069.96875 0)"/>
    <use xlink:href="#DejaVuSans-18" transform="translate(1101.75 0)"/>
    <use xlink:href="#DejaVuSans-15" transform="translate(1165.375 0)"/>
    <use xlink:href="#DejaVuSans-1b" transform="translate(1229 0)"/>
    <use xlink:href="#DejaVuSans-42" transform="translate(1292.625 0)"/>
    <use xlink:href="#DejaVuSans-55" transform="translate(1342.625 0)"/>
    <use xlink:href="#DejaVuSans-48" transform="translate(1381.53125 0)"/>
    <use xlink:href="#DejaVuSans-44" transform="translate(1443.0625 0)"/>
    <use xlink:href="#DejaVuSans-47" transform="translate(1504.34375 0)"/>
    <use xlink:href="#DejaVuSans-56" transform="translate(1567.828125 0)"/>
    <use xlink:href="#DejaVuSans-16" transform="translate(1619.921875 0)"/>
    <use xlink:href="#DejaVuSans-19" transform="translate(1683.546875 0)"/>
    <use xlink:href="#DejaVuSans-13" transform="translate(1747.171875 0)"/>
   </g>
  </g>
 </g>
 <defs>
  <clipPath id="p0bb62a6fdb">
   <rect x="47.962344" y="50.890312" width="877.237656" height="266.987344"/>
  </clipPath>
 </defs>
</svg>
