<?xml version="1.0" encoding="utf-8" standalone="no"?>
<!DOCTYPE svg PUBLIC "-//W3C//DTD SVG 1.1//EN"
  "http://www.w3.org/Graphics/SVG/1.1/DTD/svg11.dtd">
<svg xmlns:xlink="http://www.w3.org/1999/xlink" width="936pt" height="360pt" viewBox="0 0 936 360" xmlns="http://www.w3.org/2000/svg" version="1.1">
 <metadata>
  <rdf:RDF xmlns:dc="http://purl.org/dc/elements/1.1/" xmlns:cc="http://creativecommons.org/ns#" xmlns:rdf="http://www.w3.org/1999/02/22-rdf-syntax-ns#">
   <cc:Work>
    <dc:type rdf:resource="http://purl.org/dc/dcmitype/StillImage"/>
    <dc:date>2026-07-10T12:48:52.000524</dc:date>
    <dc:format>image/svg+xml</dc:format>
    <dc:creator>
     <cc:Agent>
      <dc:title>Matplotlib v3.11.0, https://matplotlib.org/</dc:title>
     </cc:Agent>
    </dc:creator>
   </cc:Work>
  </rdf:RDF>
 </metadata>
 <defs>
  <style type="text/css">*{stroke-linejoin: round; stroke-linecap: butt}</style>
 </defs>
 <g id="figure_1">
  <g id="patch_1">
   <path d="M 0 360 
L 936 360 
L 936 0 
L 0 0 
z
" style="fill: #ffffff"/>
  </g>
  <g id="axes_1">
   <g id="patch_2">
    <path d="M 47.962344 317.877656 
L 925.2 317.877656 
L 925.2 50.890312 
L 47.962344 50.890312 
z
" style="fill: #ffffff"/>
   </g>
   <g id="matplotlib.axis_1">
    <g id="xtick_1">
     <g id="line2d_1">
      <defs>
       <path id="mc360ea3698" d="M 0 0 
L 0 3.5 
" style="stroke: #000000; stroke-width: 0.8"/>
      </defs>
      <g>
       <use xlink:href="#mc360ea3698" x="87.037696" y="317.877656" style="stroke: #000000; stroke-width: 0.8"/>
      </g>
     </g>
     <g id="text_1">
      <!-- 6.740 -->
      <g transform="translate(72.723633 332.475312) scale(0.1 -0.1)">
       <defs>
        <path id="DejaVuSans-19" d="M 2113 2584 
Q 1688 2584 1439 2293 
Q 1191 2003 1191 1497 
Q 1191 994 1439 701 
Q 1688 409 2113 409 
Q 2538 409 2786 701 
Q 3034 994 3034 1497 
Q 3034 2003 2786 2293 
Q 2538 2584 2113 2584 
z
M 3366 4563 
L 3366 3988 
Q 3128 4100 2886 4159 
Q 2644 4219 2406 4219 
Q 1781 4219 1451 3797 
Q 1122 3375 1075 2522 
Q 1259 2794 1537 2939 
Q 1816 3084 2150 3084 
Q 2853 3084 3261 2657 
Q 3669 2231 3669 1497 
Q 3669 778 3244 343 
Q 2819 -91 2113 -91 
Q 1303 -91 875 529 
Q 447 1150 447 2328 
Q 447 3434 972 4092 
Q 1497 4750 2381 4750 
Q 2619 4750 2861 4703 
Q 3103 4656 3366 4563 
z
" transform="scale(0.015625)"/>
        <path id="DejaVuSans-11" d="M 684 794 
L 1344 794 
L 1344 0 
L 684 0 
L 684 794 
z
" transform="scale(0.015625)"/>
        <path id="DejaVuSans-1a" d="M 525 4666 
L 3525 4666 
L 3525 4397 
L 1831 0 
L 1172 0 
L 2766 4134 
L 525 4134 
L 525 4666 
z
" transform="scale(0.015625)"/>
        <path id="DejaVuSans-17" d="M 2419 4116 
L 825 1625 
L 2419 1625 
L 2419 4116 
z
M 2253 4666 
L 3047 4666 
L 3047 1625 
L 3713 1625 
L 3713 1100 
L 3047 1100 
L 3047 0 
L 2419 0 
L 2419 1100 
L 313 1100 
L 313 1709 
L 2253 4666 
z
" transform="scale(0.015625)"/>
        <path id="DejaVuSans-13" d="M 2034 4250 
Q 1547 4250 1301 3770 
Q 1056 3291 1056 2328 
Q 1056 1369 1301 889 
Q 1547 409 2034 409 
Q 2525 409 2770 889 
Q 3016 1369 3016 2328 
Q 3016 3291 2770 3770 
Q 2525 4250 2034 4250 
z
M 2034 4750 
Q 2819 4750 3233 4129 
Q 3647 3509 3647 2328 
Q 3647 1150 3233 529 
Q 2819 -91 2034 -91 
Q 1250 -91 836 529 
Q 422 1150 422 2328 
Q 422 3509 836 4129 
Q 1250 4750 2034 4750 
z
" transform="scale(0.015625)"/>
       </defs>
       <use xlink:href="#DejaVuSans-19"/>
       <use xlink:href="#DejaVuSans-11" transform="translate(63.625 0)"/>
       <use xlink:href="#DejaVuSans-1a" transform="translate(95.40625 0)"/>
       <use xlink:href="#DejaVuSans-17" transform="translate(159.03125 0)"/>
       <use xlink:href="#DejaVuSans-13" transform="translate(222.65625 0)"/>
      </g>
     </g>
    </g>
    <g id="xtick_2">
     <g id="line2d_2">
      <g>
       <use xlink:href="#mc360ea3698" x="246.855086" y="317.877656" style="stroke: #000000; stroke-width: 0.8"/>
      </g>
     </g>
     <g id="text_2">
      <!-- 6.742 -->
      <g transform="translate(232.541024 332.475312) scale(0.1 -0.1)">
       <defs>
        <path id="DejaVuSans-15" d="M 1228 531 
L 3431 531 
L 3431 0 
L 469 0 
L 469 531 
Q 828 903 1448 1529 
Q 2069 2156 2228 2338 
Q 2531 2678 2651 2914 
Q 2772 3150 2772 3378 
Q 2772 3750 2511 3984 
Q 2250 4219 1831 4219 
Q 1534 4219 1204 4116 
Q 875 4013 500 3803 
L 500 4441 
Q 881 4594 1212 4672 
Q 1544 4750 1819 4750 
Q 2544 4750 2975 4387 
Q 3406 4025 3406 3419 
Q 3406 3131 3298 2873 
Q 3191 2616 2906 2266 
Q 2828 2175 2409 1742 
Q 1991 1309 1228 531 
z
" transform="scale(0.015625)"/>
       </defs>
       <use xlink:href="#DejaVuSans-19"/>
       <use xlink:href="#DejaVuSans-11" transform="translate(63.625 0)"/>
       <use xlink:href="#DejaVuSans-1a" transform="translate(95.40625 0)"/>
       <use xlink:href="#DejaVuSans-17" transform="translate(159.03125 0)"/>
       <use xlink:href="#DejaVuSans-15" transform="translate(222.65625 0)"/>
      </g>
     </g>
    </g>
    <g id="xtick_3">
     <g id="line2d_3">
      <g>
       <use xlink:href="#mc360ea3698" x="406.672477" y="317.877656" style="stroke: #000000; stroke-width: 0.8"/>
      </g>
     </g>
     <g id="text_3">
      <!-- 6.744 -->
      <g transform="translate(392.358414 332.475312) scale(0.1 -0.1)">
       <use xlink:href="#DejaVuSans-19"/>
       <use xlink:href="#DejaVuSans-11" transform="translate(63.625 0)"/>
       <use xlink:href="#DejaVuSans-1a" transform="translate(95.40625 0)"/>
       <use xlink:href="#DejaVuSans-17" transform="translate(159.03125 0)"/>
       <use xlink:href="#DejaVuSans-17" transform="translate(222.65625 0)"/>
      </g>
     </g>
    </g>
    <g id="xtick_4">
     <g id="line2d_4">
      <g>
       <use xlink:href="#mc360ea3698" x="566.489867" y="317.877656" style="stroke: #000000; stroke-width: 0.8"/>
      </g>
     </g>
     <g id="text_4">
      <!-- 6.746 -->
      <g transform="translate(552.175805 332.475312) scale(0.1 -0.1)">
       <use xlink:href="#DejaVuSans-19"/>
       <use xlink:href="#DejaVuSans-11" transform="translate(63.625 0)"/>
       <use xlink:href="#DejaVuSans-1a" transform="translate(95.40625 0)"/>
       <use xlink:href="#DejaVuSans-17" transform="translate(159.03125 0)"/>
       <use xlink:href="#DejaVuSans-19" transform="translate(222.65625 0)"/>
      </g>
     </g>
    </g>
    <g id="xtick_5">
     <g id="line2d_5">
      <g>
       <use xlink:href="#mc360ea3698" x="726.307258" y="317.877656" style="stroke: #000000; stroke-width: 0.8"/>
      </g>
     </g>
     <g id="text_5">
      <!-- 6.748 -->
      <g transform="translate(711.993195 332.475312) scale(0.1 -0.1)">
       <defs>
        <path id="DejaVuSans-1b" d="M 2034 2216 
Q 1584 2216 1326 1975 
Q 1069 1734 1069 1313 
Q 1069 891 1326 650 
Q 1584 409 2034 409 
Q 2484 409 2743 651 
Q 3003 894 3003 1313 
Q 3003 1734 2745 1975 
Q 2488 2216 2034 2216 
z
M 1403 2484 
Q 997 2584 770 2862 
Q 544 3141 544 3541 
Q 544 4100 942 4425 
Q 1341 4750 2034 4750 
Q 2731 4750 3128 4425 
Q 3525 4100 3525 3541 
Q 3525 3141 3298 2862 
Q 3072 2584 2669 2484 
Q 3125 2378 3379 2068 
Q 3634 1759 3634 1313 
Q 3634 634 3220 271 
Q 2806 -91 2034 -91 
Q 1263 -91 848 271 
Q 434 634 434 1313 
Q 434 1759 690 2068 
Q 947 2378 1403 2484 
z
M 1172 3481 
Q 1172 3119 1398 2916 
Q 1625 2713 2034 2713 
Q 2441 2713 2670 2916 
Q 2900 3119 2900 3481 
Q 2900 3844 2670 4047 
Q 2441 4250 2034 4250 
Q 1625 4250 1398 4047 
Q 1172 3844 1172 3481 
z
" transform="scale(0.015625)"/>
       </defs>
       <use xlink:href="#DejaVuSans-19"/>
       <use xlink:href="#DejaVuSans-11" transform="translate(63.625 0)"/>
       <use xlink:href="#DejaVuSans-1a" transform="translate(95.40625 0)"/>
       <use xlink:href="#DejaVuSans-17" transform="translate(159.03125 0)"/>
       <use xlink:href="#DejaVuSans-1b" transform="translate(222.65625 0)"/>
      </g>
     </g>
    </g>
    <g id="xtick_6">
     <g id="line2d_6">
      <g>
       <use xlink:href="#mc360ea3698" x="886.124648" y="317.877656" style="stroke: #000000; stroke-width: 0.8"/>
      </g>
     </g>
     <g id="text_6">
      <!-- 6.750 -->
      <g transform="translate(871.810586 332.475312) scale(0.1 -0.1)">
       <defs>
        <path id="DejaVuSans-18" d="M 691 4666 
L 3169 4666 
L 3169 4134 
L 1269 4134 
L 1269 2991 
Q 1406 3038 1543 3061 
Q 1681 3084 1819 3084 
Q 2600 3084 3056 2656 
Q 3513 2228 3513 1497 
Q 3513 744 3044 326 
Q 2575 -91 1722 -91 
Q 1428 -91 1123 -41 
Q 819 9 494 109 
L 494 744 
Q 775 591 1075 516 
Q 1375 441 1709 441 
Q 2250 441 2565 725 
Q 2881 1009 2881 1497 
Q 2881 1984 2565 2268 
Q 2250 2553 1709 2553 
Q 1456 2553 1204 2497 
Q 953 2441 691 2322 
L 691 4666 
z
" transform="scale(0.015625)"/>
       </defs>
       <use xlink:href="#DejaVuSans-19"/>
       <use xlink:href="#DejaVuSans-11" transform="translate(63.625 0)"/>
       <use xlink:href="#DejaVuSans-1a" transform="translate(95.40625 0)"/>
       <use xlink:href="#DejaVuSans-18" transform="translate(159.03125 0)"/>
       <use xlink:href="#DejaVuSans-13" transform="translate(222.65625 0)"/>
      </g>
     </g>
    </g>
    <g id="text_7">
     <!-- chr16 coordinate (hg38) -->
     <g transform="translate(425.791328 346.476094) scale(0.1 -0.1)">
      <defs>
       <path id="DejaVuSans-46" d="M 3122 3366 
L 3122 2828 
Q 2878 2963 2633 3030 
Q 2388 3097 2138 3097 
Q 1578 3097 1268 2742 
Q 959 2388 959 1747 
Q 959 1106 1268 751 
Q 1578 397 2138 397 
Q 2388 397 2633 464 
Q 2878 531 3122 666 
L 3122 134 
Q 2881 22 2623 -34 
Q 2366 -91 2075 -91 
Q 1284 -91 818 406 
Q 353 903 353 1747 
Q 353 2603 823 3093 
Q 1294 3584 2113 3584 
Q 2378 3584 2631 3529 
Q 2884 3475 3122 3366 
z
" transform="scale(0.015625)"/>
       <path id="DejaVuSans-4b" d="M 3513 2113 
L 3513 0 
L 2938 0 
L 2938 2094 
Q 2938 2591 2744 2837 
Q 2550 3084 2163 3084 
Q 1697 3084 1428 2787 
Q 1159 2491 1159 1978 
L 1159 0 
L 581 0 
L 581 4863 
L 1159 4863 
L 1159 2956 
Q 1366 3272 1645 3428 
Q 1925 3584 2291 3584 
Q 2894 3584 3203 3211 
Q 3513 2838 3513 2113 
z
" transform="scale(0.015625)"/>
       <path id="DejaVuSans-55" d="M 2631 2963 
Q 2534 3019 2420 3045 
Q 2306 3072 2169 3072 
Q 1681 3072 1420 2755 
Q 1159 2438 1159 1844 
L 1159 0 
L 581 0 
L 581 3500 
L 1159 3500 
L 1159 2956 
Q 1341 3275 1631 3429 
Q 1922 3584 2338 3584 
Q 2397 3584 2469 3576 
Q 2541 3569 2628 3553 
L 2631 2963 
z
" transform="scale(0.015625)"/>
       <path id="DejaVuSans-14" d="M 794 531 
L 1825 531 
L 1825 4091 
L 703 3866 
L 703 4441 
L 1819 4666 
L 2450 4666 
L 2450 531 
L 3481 531 
L 3481 0 
L 794 0 
L 794 531 
z
" transform="scale(0.015625)"/>
       <path id="DejaVuSans-3" transform="scale(0.015625)"/>
       <path id="DejaVuSans-52" d="M 1959 3097 
Q 1497 3097 1228 2736 
Q 959 2375 959 1747 
Q 959 1119 1226 758 
Q 1494 397 1959 397 
Q 2419 397 2687 759 
Q 2956 1122 2956 1747 
Q 2956 2369 2687 2733 
Q 2419 3097 1959 3097 
z
M 1959 3584 
Q 2709 3584 3137 3096 
Q 3566 2609 3566 1747 
Q 3566 888 3137 398 
Q 2709 -91 1959 -91 
Q 1206 -91 779 398 
Q 353 888 353 1747 
Q 353 2609 779 3096 
Q 1206 3584 1959 3584 
z
" transform="scale(0.015625)"/>
       <path id="DejaVuSans-47" d="M 2906 2969 
L 2906 4863 
L 3481 4863 
L 3481 0 
L 2906 0 
L 2906 525 
Q 2725 213 2448 61 
Q 2172 -91 1784 -91 
Q 1150 -91 751 415 
Q 353 922 353 1747 
Q 353 2572 751 3078 
Q 1150 3584 1784 3584 
Q 2172 3584 2448 3432 
Q 2725 3281 2906 2969 
z
M 947 1747 
Q 947 1113 1208 752 
Q 1469 391 1925 391 
Q 2381 391 2643 752 
Q 2906 1113 2906 1747 
Q 2906 2381 2643 2742 
Q 2381 3103 1925 3103 
Q 1469 3103 1208 2742 
Q 947 2381 947 1747 
z
" transform="scale(0.015625)"/>
       <path id="DejaVuSans-4c" d="M 603 3500 
L 1178 3500 
L 1178 0 
L 603 0 
L 603 3500 
z
M 603 4863 
L 1178 4863 
L 1178 4134 
L 603 4134 
L 603 4863 
z
" transform="scale(0.015625)"/>
       <path id="DejaVuSans-51" d="M 3513 2113 
L 3513 0 
L 2938 0 
L 2938 2094 
Q 2938 2591 2744 2837 
Q 2550 3084 2163 3084 
Q 1697 3084 1428 2787 
Q 1159 2491 1159 1978 
L 1159 0 
L 581 0 
L 581 3500 
L 1159 3500 
L 1159 2956 
Q 1366 3272 1645 3428 
Q 1925 3584 2291 3584 
Q 2894 3584 3203 3211 
Q 3513 2838 3513 2113 
z
" transform="scale(0.015625)"/>
       <path id="DejaVuSans-44" d="M 2194 1759 
Q 1497 1759 1228 1600 
Q 959 1441 959 1056 
Q 959 750 1161 570 
Q 1363 391 1709 391 
Q 2188 391 2477 730 
Q 2766 1069 2766 1631 
L 2766 1759 
L 2194 1759 
z
M 3341 1997 
L 3341 0 
L 2766 0 
L 2766 531 
Q 2569 213 2275 61 
Q 1981 -91 1556 -91 
Q 1019 -91 701 211 
Q 384 513 384 1019 
Q 384 1609 779 1909 
Q 1175 2209 1959 2209 
L 2766 2209 
L 2766 2266 
Q 2766 2663 2505 2880 
Q 2244 3097 1772 3097 
Q 1472 3097 1187 3025 
Q 903 2953 641 2809 
L 641 3341 
Q 956 3463 1253 3523 
Q 1550 3584 1831 3584 
Q 2591 3584 2966 3190 
Q 3341 2797 3341 1997 
z
" transform="scale(0.015625)"/>
       <path id="DejaVuSans-57" d="M 1172 4494 
L 1172 3500 
L 2356 3500 
L 2356 3053 
L 1172 3053 
L 1172 1153 
Q 1172 725 1289 603 
Q 1406 481 1766 481 
L 2356 481 
L 2356 0 
L 1766 0 
Q 1100 0 847 248 
Q 594 497 594 1153 
L 594 3053 
L 172 3053 
L 172 3500 
L 594 3500 
L 594 4494 
L 1172 4494 
z
" transform="scale(0.015625)"/>
       <path id="DejaVuSans-48" d="M 3597 1894 
L 3597 1613 
L 953 1613 
Q 991 1019 1311 708 
Q 1631 397 2203 397 
Q 2534 397 2845 478 
Q 3156 559 3463 722 
L 3463 178 
Q 3153 47 2828 -22 
Q 2503 -91 2169 -91 
Q 1331 -91 842 396 
Q 353 884 353 1716 
Q 353 2575 817 3079 
Q 1281 3584 2069 3584 
Q 2775 3584 3186 3129 
Q 3597 2675 3597 1894 
z
M 3022 2063 
Q 3016 2534 2758 2815 
Q 2500 3097 2075 3097 
Q 1594 3097 1305 2825 
Q 1016 2553 972 2059 
L 3022 2063 
z
" transform="scale(0.015625)"/>
       <path id="DejaVuSans-b" d="M 1984 4856 
Q 1566 4138 1362 3434 
Q 1159 2731 1159 2009 
Q 1159 1288 1364 580 
Q 1569 -128 1984 -844 
L 1484 -844 
Q 1016 -109 783 600 
Q 550 1309 550 2009 
Q 550 2706 781 3412 
Q 1013 4119 1484 4856 
L 1984 4856 
z
" transform="scale(0.015625)"/>
       <path id="DejaVuSans-4a" d="M 2906 1791 
Q 2906 2416 2648 2759 
Q 2391 3103 1925 3103 
Q 1463 3103 1205 2759 
Q 947 2416 947 1791 
Q 947 1169 1205 825 
Q 1463 481 1925 481 
Q 2391 481 2648 825 
Q 2906 1169 2906 1791 
z
M 3481 434 
Q 3481 -459 3084 -895 
Q 2688 -1331 1869 -1331 
Q 1566 -1331 1297 -1286 
Q 1028 -1241 775 -1147 
L 775 -588 
Q 1028 -725 1275 -790 
Q 1522 -856 1778 -856 
Q 2344 -856 2625 -561 
Q 2906 -266 2906 331 
L 2906 616 
Q 2728 306 2450 153 
Q 2172 0 1784 0 
Q 1141 0 747 490 
Q 353 981 353 1791 
Q 353 2603 747 3093 
Q 1141 3584 1784 3584 
Q 2172 3584 2450 3431 
Q 2728 3278 2906 2969 
L 2906 3500 
L 3481 3500 
L 3481 434 
z
" transform="scale(0.015625)"/>
       <path id="DejaVuSans-16" d="M 2597 2516 
Q 3050 2419 3304 2112 
Q 3559 1806 3559 1356 
Q 3559 666 3084 287 
Q 2609 -91 1734 -91 
Q 1441 -91 1130 -33 
Q 819 25 488 141 
L 488 750 
Q 750 597 1062 519 
Q 1375 441 1716 441 
Q 2309 441 2620 675 
Q 2931 909 2931 1356 
Q 2931 1769 2642 2001 
Q 2353 2234 1838 2234 
L 1294 2234 
L 1294 2753 
L 1863 2753 
Q 2328 2753 2575 2939 
Q 2822 3125 2822 3475 
Q 2822 3834 2567 4026 
Q 2313 4219 1838 4219 
Q 1578 4219 1281 4162 
Q 984 4106 628 3988 
L 628 4550 
Q 988 4650 1302 4700 
Q 1616 4750 1894 4750 
Q 2613 4750 3031 4423 
Q 3450 4097 3450 3541 
Q 3450 3153 3228 2886 
Q 3006 2619 2597 2516 
z
" transform="scale(0.015625)"/>
       <path id="DejaVuSans-c" d="M 513 4856 
L 1013 4856 
Q 1481 4119 1714 3412 
Q 1947 2706 1947 2009 
Q 1947 1309 1714 600 
Q 1481 -109 1013 -844 
L 513 -844 
Q 928 -128 1133 580 
Q 1338 1288 1338 2009 
Q 1338 2731 1133 3434 
Q 928 4138 513 4856 
z
" transform="scale(0.015625)"/>
      </defs>
      <use xlink:href="#DejaVuSans-46"/>
      <use xlink:href="#DejaVuSans-4b" transform="translate(54.984375 0)"/>
      <use xlink:href="#DejaVuSans-55" transform="translate(118.359375 0)"/>
      <use xlink:href="#DejaVuSans-14" transform="translate(159.46875 0)"/>
      <use xlink:href="#DejaVuSans-19" transform="translate(223.09375 0)"/>
      <use xlink:href="#DejaVuSans-3" transform="translate(286.71875 0)"/>
      <use xlink:href="#DejaVuSans-46" transform="translate(318.5 0)"/>
      <use xlink:href="#DejaVuSans-52" transform="translate(373.484375 0)"/>
      <use xlink:href="#DejaVuSans-52" transform="translate(434.671875 0)"/>
      <use xlink:href="#DejaVuSans-55" transform="translate(495.859375 0)"/>
      <use xlink:href="#DejaVuSans-47" transform="translate(535.21875 0)"/>
      <use xlink:href="#DejaVuSans-4c" transform="translate(598.703125 0)"/>
      <use xlink:href="#DejaVuSans-51" transform="translate(626.484375 0)"/>
      <use xlink:href="#DejaVuSans-44" transform="translate(689.859375 0)"/>
      <use xlink:href="#DejaVuSans-57" transform="translate(751.140625 0)"/>
      <use xlink:href="#DejaVuSans-48" transform="translate(790.34375 0)"/>
      <use xlink:href="#DejaVuSans-3" transform="translate(851.875 0)"/>
      <use xlink:href="#DejaVuSans-b" transform="translate(883.65625 0)"/>
      <use xlink:href="#DejaVuSans-4b" transform="translate(922.671875 0)"/>
      <use xlink:href="#DejaVuSans-4a" transform="translate(986.046875 0)"/>
      <use xlink:href="#DejaVuSans-16" transform="translate(1049.53125 0)"/>
      <use xlink:href="#DejaVuSans-1b" transform="translate(1113.15625 0)"/>
      <use xlink:href="#DejaVuSans-c" transform="translate(1176.78125 0)"/>
     </g>
    </g>
    <g id="text_8">
     <!-- 1e7 -->
     <g transform="translate(906.321875 345.475312) scale(0.1 -0.1)">
      <use xlink:href="#DejaVuSans-14"/>
      <use xlink:href="#DejaVuSans-48" transform="translate(63.625 0)"/>
      <use xlink:href="#DejaVuSans-1a" transform="translate(125.15625 0)"/>
     </g>
    </g>
   </g>
   <g id="matplotlib.axis_2">
    <g id="ytick_1">
     <g id="line2d_7">
      <defs>
       <path id="m03c54ce7de" d="M 0 0 
L -3.5 0 
" style="stroke: #000000; stroke-width: 0.8"/>
      </defs>
      <g>
       <use xlink:href="#m03c54ce7de" x="47.962344" y="305.741868" style="stroke: #000000; stroke-width: 0.8"/>
      </g>
     </g>
     <g id="text_9">
      <!-- 0.0 -->
      <g transform="translate(25.059219 309.540696) scale(0.1 -0.1)">
       <use xlink:href="#DejaVuSans-13"/>
       <use xlink:href="#DejaVuSans-11" transform="translate(63.625 0)"/>
       <use xlink:href="#DejaVuSans-13" transform="translate(95.40625 0)"/>
      </g>
     </g>
    </g>
    <g id="ytick_2">
     <g id="line2d_8">
      <g>
       <use xlink:href="#m03c54ce7de" x="47.962344" y="257.198714" style="stroke: #000000; stroke-width: 0.8"/>
      </g>
     </g>
     <g id="text_10">
      <!-- 0.2 -->
      <g transform="translate(25.059219 260.997543) scale(0.1 -0.1)">
       <use xlink:href="#DejaVuSans-13"/>
       <use xlink:href="#DejaVuSans-11" transform="translate(63.625 0)"/>
       <use xlink:href="#DejaVuSans-15" transform="translate(95.40625 0)"/>
      </g>
     </g>
    </g>
    <g id="ytick_3">
     <g id="line2d_9">
      <g>
       <use xlink:href="#m03c54ce7de" x="47.962344" y="208.655561" style="stroke: #000000; stroke-width: 0.8"/>
      </g>
     </g>
     <g id="text_11">
      <!-- 0.4 -->
      <g transform="translate(25.059219 212.454389) scale(0.1 -0.1)">
       <use xlink:href="#DejaVuSans-13"/>
       <use xlink:href="#DejaVuSans-11" transform="translate(63.625 0)"/>
       <use xlink:href="#DejaVuSans-17" transform="translate(95.40625 0)"/>
      </g>
     </g>
    </g>
    <g id="ytick_4">
     <g id="line2d_10">
      <g>
       <use xlink:href="#m03c54ce7de" x="47.962344" y="160.112408" style="stroke: #000000; stroke-width: 0.8"/>
      </g>
     </g>
     <g id="text_12">
      <!-- 0.6 -->
      <g transform="translate(25.059219 163.911236) scale(0.1 -0.1)">
       <use xlink:href="#DejaVuSans-13"/>
       <use xlink:href="#DejaVuSans-11" transform="translate(63.625 0)"/>
       <use xlink:href="#DejaVuSans-19" transform="translate(95.40625 0)"/>
      </g>
     </g>
    </g>
    <g id="ytick_5">
     <g id="line2d_11">
      <g>
       <use xlink:href="#m03c54ce7de" x="47.962344" y="111.569254" style="stroke: #000000; stroke-width: 0.8"/>
      </g>
     </g>
     <g id="text_13">
      <!-- 0.8 -->
      <g transform="translate(25.059219 115.368082) scale(0.1 -0.1)">
       <use xlink:href="#DejaVuSans-13"/>
       <use xlink:href="#DejaVuSans-11" transform="translate(63.625 0)"/>
       <use xlink:href="#DejaVuSans-1b" transform="translate(95.40625 0)"/>
      </g>
     </g>
    </g>
    <g id="ytick_6">
     <g id="line2d_12">
      <g>
       <use xlink:href="#m03c54ce7de" x="47.962344" y="63.026101" style="stroke: #000000; stroke-width: 0.8"/>
      </g>
     </g>
     <g id="text_14">
      <!-- 1.0 -->
      <g transform="translate(25.059219 66.824929) scale(0.1 -0.1)">
       <use xlink:href="#DejaVuSans-14"/>
       <use xlink:href="#DejaVuSans-11" transform="translate(63.625 0)"/>
       <use xlink:href="#DejaVuSans-13" transform="translate(95.40625 0)"/>
      </g>
     </g>
    </g>
    <g id="text_15">
     <!-- global robust normalized signal -->
     <g transform="translate(18.656875 262.887109) rotate(-90) scale(0.1 -0.1)">
      <defs>
       <path id="DejaVuSans-4f" d="M 603 4863 
L 1178 4863 
L 1178 0 
L 603 0 
L 603 4863 
z
" transform="scale(0.015625)"/>
       <path id="DejaVuSans-45" d="M 3116 1747 
Q 3116 2381 2855 2742 
Q 2594 3103 2138 3103 
Q 1681 3103 1420 2742 
Q 1159 2381 1159 1747 
Q 1159 1113 1420 752 
Q 1681 391 2138 391 
Q 2594 391 2855 752 
Q 3116 1113 3116 1747 
z
M 1159 2969 
Q 1341 3281 1617 3432 
Q 1894 3584 2278 3584 
Q 2916 3584 3314 3078 
Q 3713 2572 3713 1747 
Q 3713 922 3314 415 
Q 2916 -91 2278 -91 
Q 1894 -91 1617 61 
Q 1341 213 1159 525 
L 1159 0 
L 581 0 
L 581 4863 
L 1159 4863 
L 1159 2969 
z
" transform="scale(0.015625)"/>
       <path id="DejaVuSans-58" d="M 544 1381 
L 544 3500 
L 1119 3500 
L 1119 1403 
Q 1119 906 1312 657 
Q 1506 409 1894 409 
Q 2359 409 2629 706 
Q 2900 1003 2900 1516 
L 2900 3500 
L 3475 3500 
L 3475 0 
L 2900 0 
L 2900 538 
Q 2691 219 2414 64 
Q 2138 -91 1772 -91 
Q 1169 -91 856 284 
Q 544 659 544 1381 
z
M 1991 3584 
L 1991 3584 
z
" transform="scale(0.015625)"/>
       <path id="DejaVuSans-56" d="M 2834 3397 
L 2834 2853 
Q 2591 2978 2328 3040 
Q 2066 3103 1784 3103 
Q 1356 3103 1142 2972 
Q 928 2841 928 2578 
Q 928 2378 1081 2264 
Q 1234 2150 1697 2047 
L 1894 2003 
Q 2506 1872 2764 1633 
Q 3022 1394 3022 966 
Q 3022 478 2636 193 
Q 2250 -91 1575 -91 
Q 1294 -91 989 -36 
Q 684 19 347 128 
L 347 722 
Q 666 556 975 473 
Q 1284 391 1588 391 
Q 1994 391 2212 530 
Q 2431 669 2431 922 
Q 2431 1156 2273 1281 
Q 2116 1406 1581 1522 
L 1381 1569 
Q 847 1681 609 1914 
Q 372 2147 372 2553 
Q 372 3047 722 3315 
Q 1072 3584 1716 3584 
Q 2034 3584 2315 3537 
Q 2597 3491 2834 3397 
z
" transform="scale(0.015625)"/>
       <path id="DejaVuSans-50" d="M 3328 2828 
Q 3544 3216 3844 3400 
Q 4144 3584 4550 3584 
Q 5097 3584 5394 3201 
Q 5691 2819 5691 2113 
L 5691 0 
L 5113 0 
L 5113 2094 
Q 5113 2597 4934 2840 
Q 4756 3084 4391 3084 
Q 3944 3084 3684 2787 
Q 3425 2491 3425 1978 
L 3425 0 
L 2847 0 
L 2847 2094 
Q 2847 2600 2669 2842 
Q 2491 3084 2119 3084 
Q 1678 3084 1418 2786 
Q 1159 2488 1159 1978 
L 1159 0 
L 581 0 
L 581 3500 
L 1159 3500 
L 1159 2956 
Q 1356 3278 1631 3431 
Q 1906 3584 2284 3584 
Q 2666 3584 2933 3390 
Q 3200 3197 3328 2828 
z
" transform="scale(0.015625)"/>
       <path id="DejaVuSans-5d" d="M 353 3500 
L 3084 3500 
L 3084 2975 
L 922 459 
L 3084 459 
L 3084 0 
L 275 0 
L 275 525 
L 2438 3041 
L 353 3041 
L 353 3500 
z
" transform="scale(0.015625)"/>
      </defs>
      <use xlink:href="#DejaVuSans-4a"/>
      <use xlink:href="#DejaVuSans-4f" transform="translate(63.484375 0)"/>
      <use xlink:href="#DejaVuSans-52" transform="translate(91.265625 0)"/>
      <use xlink:href="#DejaVuSans-45" transform="translate(152.453125 0)"/>
      <use xlink:href="#DejaVuSans-44" transform="translate(215.9375 0)"/>
      <use xlink:href="#DejaVuSans-4f" transform="translate(277.21875 0)"/>
      <use xlink:href="#DejaVuSans-3" transform="translate(305 0)"/>
      <use xlink:href="#DejaVuSans-55" transform="translate(336.78125 0)"/>
      <use xlink:href="#DejaVuSans-52" transform="translate(375.6875 0)"/>
      <use xlink:href="#DejaVuSans-45" transform="translate(436.875 0)"/>
      <use xlink:href="#DejaVuSans-58" transform="translate(500.359375 0)"/>
      <use xlink:href="#DejaVuSans-56" transform="translate(563.734375 0)"/>
      <use xlink:href="#DejaVuSans-57" transform="translate(615.828125 0)"/>
      <use xlink:href="#DejaVuSans-3" transform="translate(655.03125 0)"/>
      <use xlink:href="#DejaVuSans-51" transform="translate(686.8125 0)"/>
      <use xlink:href="#DejaVuSans-52" transform="translate(750.1875 0)"/>
      <use xlink:href="#DejaVuSans-55" transform="translate(811.375 0)"/>
      <use xlink:href="#DejaVuSans-50" transform="translate(850.734375 0)"/>
      <use xlink:href="#DejaVuSans-44" transform="translate(948.140625 0)"/>
      <use xlink:href="#DejaVuSans-4f" transform="translate(1009.421875 0)"/>
      <use xlink:href="#DejaVuSans-4c" transform="translate(1037.203125 0)"/>
      <use xlink:href="#DejaVuSans-5d" transform="translate(1064.984375 0)"/>
      <use xlink:href="#DejaVuSans-48" transform="translate(1117.46875 0)"/>
      <use xlink:href="#DejaVuSans-47" transform="translate(1179 0)"/>
      <use xlink:href="#DejaVuSans-3" transform="translate(1242.484375 0)"/>
      <use xlink:href="#DejaVuSans-56" transform="translate(1274.265625 0)"/>
      <use xlink:href="#DejaVuSans-4c" transform="translate(1326.359375 0)"/>
      <use xlink:href="#DejaVuSans-4a" transform="translate(1354.140625 0)"/>
      <use xlink:href="#DejaVuSans-51" transform="translate(1417.625 0)"/>
      <use xlink:href="#DejaVuSans-44" transform="translate(1481 0)"/>
      <use xlink:href="#DejaVuSans-4f" transform="translate(1542.28125 0)"/>
     </g>
    </g>
   </g>
   <g id="line2d_13">
    <path d="M 87.836783 298.702158 
L 89.434957 302.935077 
L 91.03313 304.128239 
L 92.631304 301.868983 
L 94.229478 303.951669 
L 95.827652 301.073678 
L 97.425826 300.692021 
L 99.024 303.510592 
L 100.622174 304.200282 
L 102.220348 305.365578 
L 103.818522 304.226127 
L 105.416696 301.640854 
L 107.01487 297.093054 
L 108.613043 301.766451 
L 110.211217 302.834666 
L 111.809391 298.913858 
L 113.407565 304.643326 
L 115.005739 302.806495 
L 116.603913 302.429474 
L 118.202087 300.761453 
L 119.800261 300.63149 
L 121.398435 301.232351 
L 122.996609 302.47658 
L 124.594782 299.666459 
L 126.192956 301.4448 
L 127.79113 301.245683 
L 129.389304 301.948573 
L 130.987478 301.967426 
L 132.585652 298.974304 
L 134.183826 297.455837 
L 135.782 301.606953 
L 137.380174 298.652867 
L 138.978348 297.627153 
L 140.576522 298.859227 
L 142.174695 302.282365 
L 143.772869 297.305479 
L 145.371043 300.177141 
L 146.969217 301.787134 
L 148.567391 298.869127 
L 150.165565 299.627714 
L 151.763739 299.169156 
L 153.361913 301.9953 
L 154.960087 297.425216 
L 156.558261 301.123116 
L 158.156434 301.511572 
L 159.754608 302.130635 
L 161.352782 303.747499 
L 162.950956 302.5359 
L 164.54913 302.057786 
L 166.147304 300.880343 
L 167.745478 301.522068 
L 169.343652 302.611304 
L 170.941826 302.173779 
L 174.138174 305.456815 
L 175.736347 302.958584 
L 177.334521 299.563133 
L 178.932695 298.886566 
L 180.530869 300.077811 
L 182.129043 300.875214 
L 183.727217 301.516994 
L 185.325391 301.275349 
L 186.923565 302.408412 
L 188.521739 302.342298 
L 190.119913 303.37368 
L 191.718086 303.083 
L 193.31626 301.448247 
L 194.914434 302.787072 
L 196.512608 305.695745 
L 198.110782 305.015926 
L 199.708956 299.83792 
L 201.30713 298.492328 
L 202.905304 298.551842 
L 204.503478 299.380558 
L 206.101652 299.749821 
L 207.699826 295.806671 
L 209.297999 295.634461 
L 210.896173 282.341564 
L 212.494347 237.580114 
L 214.092521 74.495881 
L 215.690695 63.026101 
L 217.288869 63.026101 
L 218.887043 189.593833 
L 220.485217 221.171214 
L 222.083391 266.549472 
L 223.681565 300.951081 
L 225.279738 302.804202 
L 226.877912 302.723534 
L 228.476086 301.444324 
L 230.07426 300.557916 
L 231.672434 300.064884 
L 233.270608 301.935769 
L 234.868782 301.338573 
L 236.466956 300.330443 
L 238.06513 302.801497 
L 239.663304 303.819648 
L 241.261478 298.039736 
L 242.859651 299.810097 
L 244.457825 300.161541 
L 246.055999 299.96093 
L 247.654173 302.310562 
L 249.252347 300.225785 
L 250.850521 303.571841 
L 252.448695 301.348776 
L 254.046869 297.859093 
L 255.645043 299.56701 
L 257.243217 300.193461 
L 258.84139 304.210494 
L 260.439564 305.741868 
L 262.037738 305.741868 
L 263.635912 304.841401 
L 265.234086 303.196018 
L 266.83226 302.68859 
L 268.430434 304.511621 
L 270.028608 302.371181 
L 271.626782 300.838527 
L 273.224956 300.897188 
L 274.82313 302.386986 
L 278.019477 297.213647 
L 279.617651 295.641076 
L 281.215825 302.70122 
L 282.813999 304.049786 
L 284.412173 302.141978 
L 286.010347 303.487703 
L 287.608521 302.047462 
L 289.206695 301.180172 
L 290.804869 300.998534 
L 292.403042 300.349175 
L 294.001216 302.313841 
L 295.59939 304.674461 
L 297.197564 304.302084 
L 298.795738 305.153077 
L 300.393912 302.370634 
L 301.992086 300.970237 
L 303.59026 304.091957 
L 305.188434 301.834265 
L 306.786608 304.556261 
L 308.384782 301.278172 
L 309.982955 302.305114 
L 311.581129 302.407236 
L 313.179303 299.466274 
L 314.777477 299.736744 
L 316.375651 299.858724 
L 317.973825 300.387498 
L 319.571999 300.11807 
L 321.170173 298.588292 
L 322.768347 298.640203 
L 324.366521 300.233898 
L 325.964694 296.235966 
L 329.161042 278.262624 
L 330.759216 229.426082 
L 332.35739 191.467604 
L 333.955564 172.945187 
L 335.553738 196.729833 
L 337.151912 161.686032 
L 338.750086 148.804353 
L 340.34826 226.07267 
L 341.946434 276.286218 
L 343.544607 292.651008 
L 345.142781 298.108078 
L 346.740955 299.710921 
L 348.339129 303.002926 
L 349.937303 302.878178 
L 351.535477 302.88015 
L 353.133651 299.323357 
L 354.731825 297.235757 
L 356.329999 300.532639 
L 357.928173 303.563471 
L 362.722694 301.889394 
L 364.320868 302.591144 
L 365.919042 305.741868 
L 367.517216 303.199662 
L 369.11539 301.491798 
L 370.713564 302.859916 
L 372.311738 304.045061 
L 373.909912 299.399404 
L 375.508086 300.27946 
L 377.106259 303.726859 
L 378.704433 300.22939 
L 380.302607 302.844976 
L 381.900781 303.298091 
L 383.498955 301.436264 
L 385.097129 303.606059 
L 386.695303 304.072831 
L 388.293477 303.745069 
L 389.891651 302.901267 
L 391.489825 301.904966 
L 393.087998 304.127435 
L 394.686172 304.048529 
L 396.284346 303.243601 
L 397.88252 304.231018 
L 399.480694 302.83191 
L 401.078868 303.877908 
L 402.677042 305.365759 
L 404.275216 304.265273 
L 405.87339 304.681243 
L 407.471564 302.658673 
L 409.069738 304.594775 
L 410.667911 303.235243 
L 412.266085 302.500853 
L 413.864259 305.077006 
L 415.462433 303.621292 
L 417.060607 300.225746 
L 418.658781 301.882788 
L 420.256955 303.884734 
L 421.855129 301.877879 
L 423.453303 302.082746 
L 425.051477 304.776161 
L 426.64965 300.072932 
L 428.247824 298.384159 
L 429.845998 303.113857 
L 431.444172 301.305205 
L 433.042346 301.948764 
L 434.64052 300.6374 
L 436.238694 299.860557 
L 437.836868 298.381841 
L 439.435042 303.572984 
L 441.033216 305.656894 
L 442.631389 300.874264 
L 444.229563 302.591889 
L 445.827737 301.176153 
L 447.425911 301.062716 
L 449.024085 297.764079 
L 450.622259 301.752139 
L 452.220433 299.406237 
L 453.818607 300.308221 
L 455.416781 302.538 
L 457.014955 302.26844 
L 460.211302 299.120118 
L 461.809476 295.321444 
L 463.40765 299.27802 
L 465.005824 300.321943 
L 466.603998 302.579807 
L 468.202172 299.815083 
L 469.800346 300.103347 
L 471.39852 296.841338 
L 472.996694 299.209545 
L 474.594868 302.393066 
L 476.193041 302.194155 
L 477.791215 298.799847 
L 479.389389 301.459819 
L 480.987563 304.587351 
L 482.585737 302.774006 
L 484.183911 297.633224 
L 485.782085 302.243503 
L 487.380259 305.192939 
L 488.978433 304.230314 
L 490.576607 305.31421 
L 492.174781 302.046051 
L 493.772954 302.076005 
L 495.371128 303.720803 
L 496.969302 303.684393 
L 498.567476 299.241621 
L 500.16565 298.242044 
L 501.763824 300.63397 
L 503.361998 299.309482 
L 504.960172 300.347192 
L 506.558346 296.767519 
L 508.15652 298.960102 
L 509.754693 302.528745 
L 511.352867 302.496035 
L 512.951041 302.717792 
L 514.549215 303.141332 
L 516.147389 303.704544 
L 517.745563 302.995379 
L 519.343737 301.529779 
L 520.941911 304.315603 
L 522.540085 305.741868 
L 524.138259 302.885429 
L 525.736433 303.254849 
L 527.334606 301.317959 
L 528.93278 300.092308 
L 530.530954 305.302099 
L 532.129128 303.200137 
L 533.727302 303.463091 
L 535.325476 302.664253 
L 536.92365 303.582923 
L 538.521824 305.068052 
L 540.119998 304.088338 
L 541.718172 304.281337 
L 543.316345 302.626881 
L 544.914519 300.034129 
L 546.512693 303.247624 
L 548.110867 303.245306 
L 549.709041 298.148516 
L 551.307215 299.740601 
L 552.905389 297.638096 
L 554.503563 299.322141 
L 557.699911 304.937922 
L 559.298085 303.483553 
L 560.896258 300.161405 
L 562.494432 301.957256 
L 564.092606 299.419128 
L 565.69078 301.5154 
L 567.288954 299.555567 
L 568.887128 303.628664 
L 570.485302 301.024573 
L 572.083476 301.815484 
L 573.68165 304.073714 
L 575.279824 303.236239 
L 576.877997 299.959948 
L 578.476171 302.07947 
L 580.074345 301.550398 
L 581.672519 302.896394 
L 583.270693 304.721342 
L 586.467041 301.66709 
L 588.065215 301.412978 
L 589.663389 299.958718 
L 591.261563 302.844821 
L 592.859737 298.160585 
L 594.45791 303.509209 
L 596.056084 302.823053 
L 597.654258 303.731424 
L 599.252432 303.179166 
L 600.850606 301.161135 
L 602.44878 301.541402 
L 604.046954 300.985455 
L 605.645128 298.938011 
L 607.243302 300.134456 
L 608.841476 300.517821 
L 612.037823 298.700705 
L 613.635997 294.896368 
L 615.234171 294.308928 
L 616.832345 302.169657 
L 618.430519 300.510115 
L 620.028693 301.793672 
L 621.626867 300.519268 
L 623.225041 301.937594 
L 624.823215 304.562191 
L 626.421389 305.172406 
L 628.019562 305.370585 
L 629.617736 305.150833 
L 632.814084 301.56435 
L 634.412258 302.136274 
L 636.010432 303.258221 
L 637.608606 301.549284 
L 639.20678 304.33916 
L 640.804954 299.372592 
L 642.403128 299.082437 
L 644.001301 301.08381 
L 645.599475 300.053421 
L 648.795823 301.752864 
L 650.393997 304.725587 
L 651.992171 300.785862 
L 653.590345 299.612224 
L 655.188519 301.184694 
L 656.786693 303.777439 
L 658.384867 304.00664 
L 659.983041 303.937877 
L 661.581214 303.316405 
L 663.179388 300.724744 
L 664.777562 302.720017 
L 666.375736 303.312839 
L 667.97391 303.652273 
L 669.572084 301.831108 
L 671.170258 301.392147 
L 672.768432 301.232074 
L 674.366606 303.045782 
L 675.96478 305.11544 
L 677.562953 302.292974 
L 679.161127 302.30399 
L 680.759301 303.455117 
L 682.357475 302.881054 
L 683.955649 302.65824 
L 685.553823 300.307824 
L 687.151997 302.341838 
L 688.750171 298.649972 
L 690.348345 298.777968 
L 691.946519 302.361216 
L 693.544693 300.831679 
L 695.142866 300.513449 
L 696.74104 301.299792 
L 698.339214 301.925442 
L 699.937388 300.2817 
L 701.535562 300.691699 
L 703.133736 300.390445 
L 704.73191 300.232788 
L 706.330084 303.377118 
L 707.928258 302.420882 
L 709.526432 298.155264 
L 711.124605 298.381497 
L 712.722779 299.190246 
L 714.320953 299.467994 
L 715.919127 296.444195 
L 717.517301 297.139684 
L 719.115475 299.048078 
L 720.713649 299.618309 
L 722.311823 297.605535 
L 723.909997 293.64544 
L 725.508171 292.17651 
L 727.106345 287.80385 
L 728.704518 212.050393 
L 730.302692 78.99081 
L 731.900866 63.026101 
L 733.49904 63.026101 
L 735.097214 158.554804 
L 736.695388 275.672988 
L 738.293562 195.905174 
L 739.891736 174.934032 
L 741.48991 237.730131 
L 743.088084 270.571433 
L 744.686257 287.436033 
L 746.284431 294.716415 
L 747.882605 304.283281 
L 749.480779 303.561574 
L 751.078953 300.945467 
L 752.677127 301.862468 
L 754.275301 302.319673 
L 755.873475 299.622064 
L 757.471649 303.095282 
L 759.069823 303.507956 
L 760.667997 305.334345 
L 762.26617 304.997014 
L 763.864344 303.861436 
L 765.462518 302.119607 
L 767.060692 302.404538 
L 768.658866 302.19454 
L 770.25704 299.596003 
L 771.855214 303.359318 
L 773.453388 299.818435 
L 775.051562 303.765011 
L 776.649736 304.957649 
L 778.247909 299.336787 
L 779.846083 295.042691 
L 781.444257 299.030142 
L 783.042431 301.667444 
L 784.640605 302.21727 
L 786.238779 304.448703 
L 787.836953 301.931244 
L 789.435127 303.104439 
L 791.033301 300.999511 
L 792.631475 301.240566 
L 794.229649 303.025133 
L 795.827822 304.599492 
L 797.425996 304.653783 
L 799.02417 303.487865 
L 800.622344 303.387417 
L 802.220518 302.051996 
L 803.818692 303.270542 
L 805.416866 299.360253 
L 807.01504 300.313231 
L 808.613214 302.520748 
L 810.211388 300.42587 
L 811.809561 301.697111 
L 813.407735 303.904624 
L 815.005909 303.658508 
L 816.604083 304.447234 
L 818.202257 305.736838 
L 819.800431 302.276607 
L 821.398605 303.13298 
L 822.996779 302.631786 
L 824.594953 303.870257 
L 826.193127 302.210615 
L 827.791301 303.764797 
L 829.389474 302.626823 
L 830.987648 303.854653 
L 832.585822 301.580161 
L 834.183996 301.629402 
L 835.78217 302.903599 
L 837.380344 300.067192 
L 838.978518 299.924937 
L 840.576692 297.814511 
L 842.174866 299.819752 
L 843.77304 295.882217 
L 845.371213 295.532317 
L 846.969387 293.298791 
L 848.567561 301.502199 
L 850.165735 303.580121 
L 851.763909 302.371747 
L 853.362083 298.633745 
L 854.960257 301.524932 
L 856.558431 302.960573 
L 858.156605 305.391952 
L 859.754779 303.642385 
L 861.352953 303.663248 
L 862.951126 303.908994 
L 864.5493 303.506529 
L 866.147474 303.849045 
L 867.745648 302.360515 
L 869.343822 299.925845 
L 870.941996 300.479322 
L 872.54017 303.560313 
L 874.138344 303.702588 
L 877.334692 302.706647 
L 878.932865 304.013222 
L 880.531039 302.574946 
L 883.727387 305.054257 
L 885.325561 305.361681 
L 885.325561 305.361681 
" clip-path="url(#pa0dfc3f7ea)" style="fill: none; stroke: #2ca02c; stroke-width: 1.2; stroke-linecap: square"/>
   </g>
   <g id="line2d_14">
    <path d="M 87.836783 303.038529 
L 89.434957 303.977114 
L 91.03313 304.329897 
L 94.229478 304.439073 
L 95.827652 304.615058 
L 100.622174 304.199538 
L 103.818522 303.792167 
L 105.416696 303.839422 
L 107.01487 304.162875 
L 108.613043 305.189452 
L 111.809391 304.316861 
L 113.407565 304.403224 
L 116.603913 305.015911 
L 118.202087 304.916513 
L 119.800261 305.037095 
L 121.398435 304.706309 
L 122.996609 303.753059 
L 124.594782 303.598258 
L 126.192956 304.202797 
L 129.389304 302.619751 
L 130.987478 302.779441 
L 132.585652 303.074378 
L 134.183826 302.976609 
L 137.380174 303.27562 
L 138.978348 302.753369 
L 140.576522 302.743592 
L 142.174695 302.450285 
L 143.772869 301.580139 
L 145.371043 301.247723 
L 146.969217 301.622505 
L 148.567391 301.764271 
L 150.165565 301.673019 
L 153.361913 303.35465 
L 154.960087 303.529819 
L 158.156434 303.164814 
L 161.352782 303.535523 
L 162.950956 303.317171 
L 164.54913 303.584407 
L 166.147304 304.151469 
L 167.745478 304.070809 
L 169.343652 303.490712 
L 170.941826 303.649587 
L 172.54 304.299752 
L 174.138174 303.829645 
L 175.736347 302.83077 
L 177.334521 302.060837 
L 178.932695 302.220527 
L 180.530869 302.264523 
L 182.129043 303.00431 
L 183.727217 303.611294 
L 185.325391 303.000236 
L 186.923565 302.935872 
L 188.521739 303.4182 
L 190.119913 304.35434 
L 191.718086 304.189762 
L 193.31626 303.452419 
L 194.914434 303.242215 
L 196.512608 303.76528 
L 198.110782 303.613738 
L 201.30713 302.049431 
L 202.905304 301.498664 
L 204.503478 301.743087 
L 206.101652 302.293854 
L 207.699826 301.642059 
L 209.297999 297.452649 
L 210.896173 286.205932 
L 212.494347 255.372787 
L 214.092521 192.226921 
L 215.690695 119.916823 
L 217.288869 94.940052 
L 218.887043 194.286592 
L 220.485217 241.867602 
L 222.083391 277.266569 
L 223.681565 297.583008 
L 225.279738 302.228674 
L 226.877912 302.952166 
L 228.476086 302.864174 
L 231.672434 303.506192 
L 233.270608 304.087919 
L 234.868782 304.800819 
L 236.466956 304.852963 
L 238.06513 304.690829 
L 239.663304 304.058588 
L 242.859651 302.554572 
L 246.055999 302.231933 
L 247.654173 302.733815 
L 249.252347 303.95593 
L 252.448695 304.535213 
L 255.645043 303.483379 
L 257.243217 303.295173 
L 258.84139 303.513525 
L 260.439564 304.386115 
L 262.037738 304.778821 
L 265.234086 303.89238 
L 266.83226 303.942894 
L 270.028608 303.590925 
L 271.626782 303.584407 
L 276.421303 303.127336 
L 278.019477 303.290285 
L 279.617651 303.025493 
L 281.215825 303.271546 
L 284.412173 303.985261 
L 286.010347 304.009703 
L 289.206695 303.386425 
L 290.804869 303.811721 
L 294.001216 303.727802 
L 295.59939 304.078142 
L 297.197564 304.260644 
L 298.795738 304.298937 
L 300.393912 303.889936 
L 301.992086 303.894824 
L 305.188434 304.320935 
L 306.786608 304.46596 
L 308.384782 303.953486 
L 309.982955 302.814475 
L 311.581129 302.184678 
L 313.179303 302.028248 
L 314.777477 298.195695 
L 316.375651 299.707859 
L 317.973825 301.017966 
L 319.571999 301.161361 
L 321.170173 300.822427 
L 322.768347 300.121748 
L 324.366521 298.681282 
L 325.964694 295.503783 
L 327.562868 286.163566 
L 329.161042 259.857134 
L 330.759216 214.844196 
L 332.35739 160.719168 
L 333.955564 156.495539 
L 335.553738 165.881382 
L 337.151912 159.28522 
L 338.750086 167.263186 
L 340.34826 203.920117 
L 341.946434 252.426675 
L 343.544607 275.435026 
L 345.142781 288.483955 
L 346.740955 291.909136 
L 348.339129 294.874801 
L 349.937303 297.156083 
L 351.535477 299.104949 
L 354.731825 301.084775 
L 356.329999 303.122448 
L 357.928173 303.185998 
L 361.12452 303.03527 
L 362.722694 303.613738 
L 364.320868 304.387744 
L 365.919042 305.379287 
L 367.517216 305.341809 
L 369.11539 304.435814 
L 370.713564 304.075697 
L 372.311738 304.375523 
L 373.909912 304.32175 
L 378.704433 304.809781 
L 380.302607 304.884738 
L 383.498955 304.68757 
L 385.097129 304.201983 
L 386.695303 303.983631 
L 388.293477 303.577889 
L 389.891651 303.496415 
L 393.087998 304.285086 
L 394.686172 304.407298 
L 396.284346 304.068365 
L 397.88252 304.260644 
L 401.078868 304.255756 
L 402.677042 304.351895 
L 404.275216 304.762526 
L 405.87339 304.993913 
L 410.667911 303.970596 
L 415.462433 303.542041 
L 417.060607 303.647957 
L 418.658781 304.188947 
L 420.256955 303.380721 
L 421.855129 302.882099 
L 425.051477 303.515154 
L 426.64965 303.659364 
L 431.444172 303.551003 
L 434.64052 303.775057 
L 436.238694 303.46464 
L 439.435042 303.267472 
L 444.229563 303.136298 
L 445.827737 302.639305 
L 447.425911 302.427472 
L 449.024085 302.479615 
L 450.622259 302.297113 
L 452.220433 301.438373 
L 453.818607 300.033756 
L 455.416781 300.133155 
L 457.014955 300.885977 
L 458.613129 300.354765 
L 460.211302 300.325434 
L 461.809476 300.952786 
L 463.40765 301.252612 
L 465.005824 301.281943 
L 466.603998 301.027743 
L 468.202172 301.464445 
L 469.800346 301.38623 
L 471.39852 301.66976 
L 472.996694 303.058083 
L 474.594868 303.707433 
L 476.193041 303.710692 
L 477.791215 303.386425 
L 482.585737 303.54367 
L 484.183911 303.438568 
L 493.772954 304.039034 
L 495.371128 304.201983 
L 496.969302 304.024369 
L 501.763824 302.859286 
L 503.361998 302.94239 
L 504.960172 302.913059 
L 506.558346 303.401905 
L 509.754693 303.966522 
L 514.549215 304.118879 
L 516.147389 304.29079 
L 517.745563 304.06918 
L 519.343737 303.601517 
L 520.941911 303.552632 
L 522.540085 303.975484 
L 524.138259 304.280198 
L 528.93278 304.179985 
L 530.530954 303.968151 
L 532.129128 303.637366 
L 535.325476 304.094437 
L 536.92365 303.405164 
L 538.521824 303.27399 
L 540.119998 302.780256 
L 543.316345 303.012457 
L 546.512693 303.415755 
L 549.709041 303.990149 
L 552.905389 303.649587 
L 554.503563 303.366056 
L 557.699911 302.227045 
L 559.298085 302.02173 
L 560.896258 302.093427 
L 562.494432 301.751235 
L 564.092606 302.028248 
L 565.69078 301.966327 
L 567.288954 302.535018 
L 568.887128 302.658859 
L 570.485302 303.022234 
L 572.083476 303.261769 
L 573.68165 303.270731 
L 578.476171 302.769664 
L 580.074345 302.538277 
L 581.672519 302.583902 
L 583.270693 302.36881 
L 584.868867 301.156472 
L 586.467041 300.871312 
L 588.065215 301.793601 
L 591.261563 302.772923 
L 592.859737 303.164814 
L 594.45791 303.352205 
L 596.056084 303.168888 
L 597.654258 303.581148 
L 599.252432 303.755503 
L 604.046954 303.869567 
L 605.645128 303.700916 
L 607.243302 303.226735 
L 608.841476 302.386735 
L 610.439649 300.802874 
L 612.037823 298.863785 
L 613.635997 301.464445 
L 616.832345 303.674029 
L 618.430519 304.024369 
L 620.028693 303.755503 
L 621.626867 303.731061 
L 623.225041 304.058588 
L 624.823215 304.871702 
L 626.421389 304.993913 
L 628.019562 303.933117 
L 629.617736 303.82883 
L 631.21591 304.004815 
L 634.412258 303.907046 
L 637.608606 303.343243 
L 639.20678 304.074883 
L 640.804954 303.877715 
L 642.403128 303.357909 
L 644.001301 303.326134 
L 645.599475 302.922021 
L 647.197649 302.857656 
L 650.393997 303.054824 
L 651.992171 302.976609 
L 653.590345 302.645823 
L 656.786693 303.094747 
L 659.983041 304.007259 
L 661.581214 304.142506 
L 663.179388 303.759577 
L 664.777562 303.627589 
L 666.375736 303.899713 
L 667.97391 304.458627 
L 669.572084 304.191391 
L 671.170258 303.159926 
L 672.768432 303.4182 
L 674.366606 304.278569 
L 675.96478 305.364621 
L 677.562953 304.375523 
L 679.161127 303.55915 
L 680.759301 303.327763 
L 685.553823 302.994533 
L 690.348345 302.218897 
L 691.946519 302.332962 
L 695.142866 303.267472 
L 696.74104 303.159926 
L 698.339214 302.62301 
L 699.937388 302.505687 
L 701.535562 303.034456 
L 703.133736 303.098005 
L 706.330084 302.68819 
L 707.928258 302.988015 
L 711.124605 301.92559 
L 712.722779 302.143941 
L 714.320953 303.2911 
L 715.919127 303.053195 
L 717.517301 301.904407 
L 719.115475 301.350381 
L 720.713649 301.00493 
L 722.311823 298.182659 
L 723.909997 289.220483 
L 725.508171 284.859977 
L 727.106345 285.570433 
L 728.704518 193.035147 
L 730.302692 115.119615 
L 731.900866 63.026101 
L 733.49904 63.026101 
L 735.097214 132.848429 
L 736.695388 257.601924 
L 738.293562 171.304313 
L 739.891736 148.100424 
L 741.48991 202.381882 
L 743.088084 249.936819 
L 744.686257 279.078558 
L 746.284431 293.180135 
L 747.882605 297.657964 
L 749.480779 301.330827 
L 752.677127 303.344058 
L 754.275301 303.757948 
L 757.471649 304.061032 
L 759.069823 304.073253 
L 762.26617 303.808462 
L 765.462518 303.889121 
L 767.060692 303.775057 
L 768.658866 303.775057 
L 771.855214 304.32175 
L 773.453388 305.206561 
L 775.051562 305.584602 
L 776.649736 305.077832 
L 778.247909 303.889936 
L 779.846083 303.073563 
L 781.444257 302.508946 
L 787.836953 303.014087 
L 791.033301 302.897579 
L 792.631475 303.391313 
L 795.827822 303.921711 
L 800.622344 302.792477 
L 802.220518 302.759887 
L 803.818692 302.867433 
L 807.01504 303.573001 
L 808.613214 302.924465 
L 810.211388 302.838102 
L 811.809561 302.355774 
L 813.407735 302.121128 
L 815.005909 303.058083 
L 816.604083 304.620761 
L 818.202257 304.420334 
L 819.800431 303.002681 
L 821.398605 303.00594 
L 822.996779 303.755503 
L 824.594953 304.201983 
L 827.791301 303.794611 
L 829.389474 303.3685 
L 830.987648 303.098005 
L 834.183996 303.099635 
L 835.78217 302.798995 
L 837.380344 302.375328 
L 838.978518 303.024679 
L 840.576692 303.003495 
L 842.174866 302.570867 
L 843.77304 302.59042 
L 845.371213 302.974165 
L 848.567561 304.135988 
L 850.165735 305.213079 
L 851.763909 305.4795 
L 853.362083 303.913564 
L 854.960257 303.392943 
L 858.156605 304.35434 
L 861.352953 303.775057 
L 864.5493 303.975484 
L 869.343822 303.731061 
L 872.54017 305.506387 
L 874.138344 305.540606 
L 875.736518 305.032206 
L 877.334692 304.325009 
L 878.932865 303.860605 
L 880.531039 303.584407 
L 882.129213 303.519228 
L 883.727387 303.994223 
L 885.325561 304.60691 
L 885.325561 304.60691 
" clip-path="url(#pa0dfc3f7ea)" style="fill: none; stroke: #000000; stroke-width: 1.2; stroke-linecap: square"/>
   </g>
   <g id="line2d_15">
    <path d="M 87.836783 248.440266 
L 89.434957 246.220974 
L 91.03313 258.361204 
L 92.631304 256.663261 
L 94.229478 259.613066 
L 95.827652 252.739206 
L 97.425826 252.97971 
L 99.024 251.855217 
L 100.622174 254.915044 
L 102.220348 254.856123 
L 103.818522 263.480347 
L 105.416696 260.915433 
L 107.01487 260.632457 
L 108.613043 261.421742 
L 110.211217 264.383716 
L 111.809391 246.294102 
L 113.407565 268.154824 
L 115.005739 271.007669 
L 116.603913 260.135383 
L 118.202087 267.602543 
L 119.800261 265.064415 
L 121.398435 243.373965 
L 122.996609 246.569631 
L 124.594782 256.423137 
L 126.192956 260.327235 
L 127.79113 250.65247 
L 129.389304 251.419804 
L 130.987478 247.060077 
L 132.585652 260.010313 
L 134.183826 259.240376 
L 135.782 235.216701 
L 137.380174 250.127256 
L 138.978348 235.111215 
L 140.576522 234.032887 
L 142.174695 238.106053 
L 143.772869 240.18044 
L 145.371043 238.253038 
L 146.969217 254.52175 
L 148.567391 251.51975 
L 150.165565 235.800118 
L 151.763739 241.103285 
L 153.361913 256.313625 
L 154.960087 273.128019 
L 156.558261 263.86941 
L 158.156434 260.594897 
L 159.754608 247.667379 
L 161.352782 242.28744 
L 162.950956 220.666152 
L 164.54913 240.165051 
L 166.147304 230.097462 
L 167.745478 221.501652 
L 169.343652 229.990064 
L 170.941826 242.59591 
L 172.54 273.977974 
L 174.138174 266.073593 
L 175.736347 260.92145 
L 177.334521 236.986729 
L 178.932695 251.828038 
L 180.530869 272.486522 
L 182.129043 258.841189 
L 183.727217 265.198349 
L 185.325391 279.648307 
L 186.923565 279.72952 
L 188.521739 259.595963 
L 190.119913 280.042585 
L 191.718086 269.90556 
L 193.31626 277.876061 
L 194.914434 273.411683 
L 196.512608 268.605159 
L 198.110782 268.211201 
L 199.708956 259.746058 
L 201.30713 271.521247 
L 202.905304 266.310898 
L 204.503478 265.47439 
L 206.101652 270.75849 
L 207.699826 276.463433 
L 209.297999 243.945968 
L 210.896173 259.277488 
L 212.494347 244.072445 
L 214.092521 224.205814 
L 215.690695 144.050571 
L 217.288869 105.363006 
L 218.887043 63.026101 
L 220.485217 233.786241 
L 222.083391 263.275364 
L 223.681565 262.344675 
L 225.279738 260.379891 
L 226.877912 256.975131 
L 228.476086 258.558746 
L 230.07426 267.677864 
L 231.672434 268.402063 
L 233.270608 264.811795 
L 234.868782 242.140247 
L 236.466956 257.342976 
L 238.06513 264.389351 
L 239.663304 272.633664 
L 241.261478 256.61048 
L 242.859651 231.398627 
L 244.457825 254.860973 
L 246.055999 248.573857 
L 247.654173 228.214919 
L 249.252347 254.061908 
L 250.850521 265.170863 
L 252.448695 243.54378 
L 254.046869 264.162137 
L 255.645043 275.627145 
L 257.243217 257.620764 
L 258.84139 248.662468 
L 260.439564 254.5028 
L 262.037738 270.012129 
L 263.635912 267.457804 
L 265.234086 263.107149 
L 266.83226 277.106249 
L 268.430434 282.669011 
L 270.028608 281.525055 
L 271.626782 277.329218 
L 273.224956 270.168551 
L 274.82313 289.191869 
L 278.019477 275.942593 
L 279.617651 267.454284 
L 281.215825 274.369867 
L 282.813999 264.101456 
L 284.412173 273.564064 
L 286.010347 264.98019 
L 287.608521 263.731451 
L 289.206695 275.630146 
L 290.804869 267.128327 
L 292.403042 248.098908 
L 294.001216 230.668537 
L 295.59939 252.893072 
L 297.197564 247.135869 
L 298.795738 261.990288 
L 300.393912 264.358688 
L 301.992086 262.97523 
L 303.59026 247.17213 
L 305.188434 263.822451 
L 306.786608 278.104691 
L 308.384782 262.750461 
L 309.982955 259.721485 
L 311.581129 200.792848 
L 313.179303 171.56253 
L 314.777477 223.623396 
L 316.375651 245.997672 
L 317.973825 259.544486 
L 319.571999 267.399338 
L 321.170173 241.899442 
L 322.768347 250.840468 
L 324.366521 209.94841 
L 325.964694 242.771678 
L 327.562868 228.288171 
L 329.161042 238.385299 
L 330.759216 231.246714 
L 332.35739 184.296411 
L 333.955564 189.581079 
L 335.553738 160.324662 
L 337.151912 145.474873 
L 338.750086 179.778953 
L 340.34826 230.301153 
L 341.946434 240.220875 
L 343.544607 231.722127 
L 345.142781 248.967276 
L 346.740955 231.55005 
L 348.339129 219.370749 
L 349.937303 234.894792 
L 351.535477 257.366644 
L 353.133651 248.920313 
L 354.731825 217.408582 
L 356.329999 248.667421 
L 357.928173 207.893616 
L 359.526346 258.545019 
L 361.12452 254.829158 
L 362.722694 245.363145 
L 365.919042 271.095607 
L 367.517216 288.162144 
L 369.11539 295.510336 
L 370.713564 275.669545 
L 372.311738 302.10237 
L 373.909912 298.416855 
L 375.508086 293.21138 
L 378.704433 273.876201 
L 380.302607 282.633259 
L 381.900781 294.439615 
L 383.498955 288.725632 
L 385.097129 279.181083 
L 386.695303 282.055013 
L 388.293477 279.014534 
L 389.891651 270.332653 
L 391.489825 276.011444 
L 394.686172 289.233233 
L 396.284346 297.403631 
L 397.88252 271.73411 
L 399.480694 304.789428 
L 401.078868 280.911725 
L 402.677042 276.183371 
L 404.275216 281.2013 
L 405.87339 281.199194 
L 407.471564 297.686405 
L 409.069738 297.378591 
L 410.667911 292.224313 
L 412.266085 301.619341 
L 413.864259 288.553646 
L 415.462433 300.535649 
L 417.060607 305.741868 
L 418.658781 300.835384 
L 420.256955 302.065677 
L 421.855129 299.172102 
L 423.453303 295.288528 
L 425.051477 292.874794 
L 426.64965 294.076313 
L 428.247824 294.243793 
L 429.845998 288.341104 
L 431.444172 296.950293 
L 433.042346 253.028826 
L 434.64052 289.22063 
L 436.238694 288.539093 
L 437.836868 243.939139 
L 439.435042 279.266002 
L 441.033216 297.702799 
L 442.631389 281.272703 
L 444.229563 295.664803 
L 445.827737 295.913887 
L 447.425911 283.961235 
L 449.024085 274.630407 
L 450.622259 278.533573 
L 452.220433 292.744147 
L 453.818607 284.953402 
L 455.416781 284.003805 
L 457.014955 277.816565 
L 458.613129 281.115814 
L 460.211302 165.34784 
L 461.809476 263.3047 
L 463.40765 262.364628 
L 465.005824 305.348073 
L 466.603998 290.363542 
L 468.202172 305.597027 
L 469.800346 305.59614 
L 471.39852 305.741868 
L 472.996694 279.980245 
L 474.594868 301.647672 
L 476.193041 305.514934 
L 477.791215 296.582299 
L 479.389389 280.915586 
L 480.987563 289.397226 
L 482.585737 264.754086 
L 484.183911 283.138406 
L 485.782085 290.207119 
L 487.380259 305.741868 
L 488.978433 301.681462 
L 490.576607 264.526702 
L 492.174781 282.430988 
L 493.772954 241.587612 
L 495.371128 297.059484 
L 496.969302 287.453572 
L 498.567476 245.463598 
L 501.763824 295.591203 
L 503.361998 271.250043 
L 504.960172 267.296566 
L 506.558346 290.551288 
L 508.15652 239.552881 
L 509.754693 281.856024 
L 511.352867 245.569871 
L 512.951041 287.483978 
L 514.549215 304.183889 
L 516.147389 289.865252 
L 517.745563 284.188875 
L 519.343737 287.079346 
L 520.941911 287.663128 
L 522.540085 284.338009 
L 524.138259 298.572312 
L 525.736433 283.791687 
L 527.334606 303.751001 
L 528.93278 284.551226 
L 530.530954 281.445626 
L 532.129128 289.034082 
L 533.727302 305.741868 
L 535.325476 300.39929 
L 536.92365 294.235304 
L 538.521824 292.287284 
L 540.119998 281.70024 
L 541.718172 252.937093 
L 543.316345 269.420305 
L 544.914519 277.151851 
L 546.512693 298.164481 
L 548.110867 298.467246 
L 549.709041 287.329603 
L 551.307215 287.76689 
L 552.905389 274.391128 
L 554.503563 287.677272 
L 556.101737 274.17529 
L 557.699911 278.774199 
L 559.298085 273.660316 
L 560.896258 258.69743 
L 562.494432 289.472853 
L 564.092606 275.967747 
L 565.69078 248.87269 
L 567.288954 260.153687 
L 568.887128 278.888184 
L 570.485302 286.10699 
L 572.083476 285.718368 
L 573.68165 287.919485 
L 575.279824 291.859954 
L 576.877997 285.098205 
L 578.476171 285.61104 
L 580.074345 291.831668 
L 581.672519 280.973969 
L 583.270693 288.677489 
L 584.868867 291.411078 
L 586.467041 294.47027 
L 588.065215 268.630632 
L 589.663389 251.357424 
L 591.261563 276.072948 
L 592.859737 292.714272 
L 594.45791 294.914291 
L 596.056084 301.1121 
L 597.654258 285.936518 
L 599.252432 275.153974 
L 600.850606 291.978925 
L 602.44878 281.170639 
L 604.046954 283.337851 
L 605.645128 253.140533 
L 607.243302 286.75033 
L 608.841476 285.012219 
L 610.439649 274.278509 
L 612.037823 269.300548 
L 613.635997 119.36516 
L 615.234171 226.852415 
L 616.832345 291.326079 
L 618.430519 291.486509 
L 620.028693 288.134395 
L 623.225041 268.600693 
L 624.823215 285.316979 
L 626.421389 266.364791 
L 628.019562 266.931384 
L 629.617736 259.5018 
L 631.21591 243.62123 
L 632.814084 262.582611 
L 634.412258 273.025608 
L 636.010432 291.71348 
L 637.608606 278.740824 
L 639.20678 286.319466 
L 642.403128 283.820976 
L 644.001301 291.766997 
L 645.599475 295.270758 
L 647.197649 289.559388 
L 650.393997 271.073358 
L 651.992171 282.720568 
L 653.590345 282.012516 
L 655.188519 295.962703 
L 656.786693 289.901564 
L 658.384867 296.13044 
L 659.983041 296.257003 
L 661.581214 277.300994 
L 663.179388 275.087809 
L 664.777562 278.488971 
L 666.375736 290.47646 
L 667.97391 290.114217 
L 669.572084 289.246305 
L 671.170258 290.624052 
L 672.768432 286.386887 
L 674.366606 286.255025 
L 675.96478 281.914144 
L 677.562953 288.766612 
L 679.161127 272.728934 
L 680.759301 280.731525 
L 682.357475 285.395232 
L 683.955649 283.252203 
L 685.553823 282.187376 
L 687.151997 273.164572 
L 688.750171 268.896048 
L 690.348345 279.992649 
L 691.946519 280.116036 
L 693.544693 279.833906 
L 695.142866 270.63163 
L 696.74104 281.456615 
L 698.339214 285.61999 
L 699.937388 280.855989 
L 701.535562 278.467647 
L 703.133736 290.169192 
L 704.73191 289.786379 
L 706.330084 289.780687 
L 707.928258 282.922214 
L 709.526432 274.379539 
L 711.124605 276.861608 
L 712.722779 267.77743 
L 714.320953 278.909926 
L 715.919127 271.503855 
L 717.517301 265.685182 
L 719.115475 269.844267 
L 720.713649 274.467684 
L 722.311823 282.593622 
L 723.909997 275.501112 
L 725.508171 262.546738 
L 727.106345 251.419411 
L 728.704518 243.619395 
L 730.302692 211.121052 
L 731.900866 208.503131 
L 733.49904 179.405495 
L 735.097214 116.716067 
L 736.695388 66.702418 
L 738.293562 199.723032 
L 739.891736 247.864562 
L 741.48991 260.563079 
L 743.088084 274.664984 
L 744.686257 260.073107 
L 746.284431 267.382316 
L 747.882605 264.318557 
L 749.480779 253.673731 
L 751.078953 247.936239 
L 752.677127 254.002802 
L 754.275301 264.055631 
L 755.873475 268.971684 
L 757.471649 267.356664 
L 759.069823 266.028211 
L 760.667997 250.421437 
L 762.26617 262.028946 
L 763.864344 276.939602 
L 765.462518 278.328234 
L 767.060692 284.225435 
L 768.658866 273.041777 
L 770.25704 285.794161 
L 771.855214 276.857134 
L 773.453388 278.966111 
L 775.051562 279.090961 
L 776.649736 285.940027 
L 778.247909 286.03202 
L 779.846083 270.244475 
L 781.444257 266.202433 
L 783.042431 287.214067 
L 784.640605 285.581677 
L 786.238779 286.859079 
L 787.836953 285.937388 
L 789.435127 274.00377 
L 791.033301 283.662463 
L 792.631475 274.431392 
L 794.229649 288.519204 
L 795.827822 285.04263 
L 797.425996 285.979842 
L 799.02417 278.281395 
L 800.622344 279.14815 
L 802.220518 273.964611 
L 803.818692 276.76815 
L 805.416866 288.686125 
L 807.01504 290.563359 
L 808.613214 281.069631 
L 810.211388 285.399995 
L 811.809561 284.882753 
L 813.407735 282.250191 
L 815.005909 281.131453 
L 816.604083 286.192697 
L 818.202257 283.295685 
L 819.800431 287.282495 
L 821.398605 278.936924 
L 822.996779 279.261866 
L 824.594953 286.282014 
L 826.193127 282.093057 
L 827.791301 284.144363 
L 829.389474 281.968462 
L 830.987648 280.607153 
L 832.585822 290.251195 
L 834.183996 281.178112 
L 835.78217 279.77304 
L 837.380344 272.99439 
L 838.978518 228.964376 
L 840.576692 264.544438 
L 842.174866 281.179751 
L 843.77304 283.077256 
L 845.371213 282.793272 
L 846.969387 283.325857 
L 848.567561 277.68365 
L 850.165735 280.812982 
L 851.763909 287.532761 
L 853.362083 280.937276 
L 854.960257 264.367962 
L 856.558431 260.027315 
L 858.156605 280.716559 
L 859.754779 275.865958 
L 861.352953 277.069642 
L 862.951126 277.024558 
L 864.5493 272.287442 
L 866.147474 269.586388 
L 867.745648 263.561945 
L 869.343822 256.784302 
L 870.941996 276.717252 
L 872.54017 286.354977 
L 874.138344 279.671263 
L 875.736518 282.003411 
L 877.334692 276.382277 
L 878.932865 267.251615 
L 880.531039 269.125574 
L 882.129213 271.549 
L 883.727387 269.022898 
L 885.325561 287.948224 
L 885.325561 287.948224 
" clip-path="url(#pa0dfc3f7ea)" style="fill: none; stroke: #ff7f0e; stroke-width: 1.2; stroke-linecap: square"/>
   </g>
   <g id="line2d_16">
    <path d="M 87.836783 251.441038 
L 89.434957 255.647796 
L 91.03313 261.608817 
L 92.631304 270.067385 
L 94.229478 272.294209 
L 95.827652 259.018178 
L 97.425826 259.624762 
L 99.024 270.277422 
L 100.622174 269.311763 
L 102.220348 273.570738 
L 103.818522 276.662577 
L 105.416696 270.414676 
L 107.01487 273.72741 
L 108.613043 279.566543 
L 110.211217 288.801683 
L 111.809391 273.439475 
L 113.407565 289.242616 
L 115.005739 271.467452 
L 116.603913 282.23322 
L 118.202087 277.243401 
L 121.398435 251.796861 
L 124.594782 278.298437 
L 126.192956 277.088181 
L 127.79113 268.561504 
L 129.389304 268.393405 
L 130.987478 265.072662 
L 132.585652 281.086 
L 134.183826 277.103845 
L 135.782 252.918616 
L 137.380174 249.391604 
L 138.978348 256.846426 
L 140.576522 267.550626 
L 142.174695 269.57632 
L 143.772869 266.991174 
L 145.371043 257.957795 
L 148.567391 282.095151 
L 150.165565 269.289413 
L 151.763739 275.593099 
L 153.361913 286.597289 
L 154.960087 285.831613 
L 156.558261 284.485213 
L 158.156434 279.629085 
L 159.754608 271.026988 
L 161.352782 273.551929 
L 162.950956 262.128973 
L 164.54913 266.141213 
L 166.147304 257.623294 
L 167.745478 254.958192 
L 169.343652 259.626402 
L 170.941826 271.504359 
L 172.54 290.048626 
L 174.138174 287.55273 
L 175.736347 287.914579 
L 177.334521 268.999502 
L 178.932695 287.558853 
L 180.530869 302.580252 
L 182.129043 292.587251 
L 183.727217 287.215131 
L 185.325391 299.237795 
L 186.923565 282.5603 
L 188.521739 282.700118 
L 190.119913 292.34871 
L 191.718086 288.150197 
L 193.31626 289.926473 
L 194.914434 289.758613 
L 196.512608 283.686508 
L 198.110782 290.897683 
L 199.708956 288.42654 
L 201.30713 290.160439 
L 202.905304 290.471008 
L 204.503478 293.922736 
L 206.101652 284.157314 
L 207.699826 295.23614 
L 209.297999 283.968798 
L 210.896173 284.827595 
L 212.494347 287.080561 
L 214.092521 258.9993 
L 215.690695 178.585541 
L 217.288869 69.205158 
L 218.887043 101.547649 
L 220.485217 231.61902 
L 222.083391 279.38812 
L 223.681565 284.131597 
L 225.279738 282.69384 
L 226.877912 278.628301 
L 228.476086 285.622493 
L 230.07426 297.264997 
L 231.672434 290.194568 
L 233.270608 284.930157 
L 234.868782 284.970752 
L 236.466956 291.799334 
L 238.06513 292.768556 
L 239.663304 292.320964 
L 241.261478 292.06798 
L 242.859651 278.224761 
L 246.055999 301.374646 
L 249.252347 290.431164 
L 250.850521 292.474012 
L 252.448695 286.07905 
L 254.046869 286.488691 
L 257.243217 272.297644 
L 258.84139 269.612429 
L 260.439564 278.991638 
L 262.037738 298.987346 
L 263.635912 291.551403 
L 265.234086 277.391403 
L 266.83226 270.267909 
L 268.430434 270.211798 
L 270.028608 279.094298 
L 271.626782 292.04574 
L 273.224956 284.265399 
L 274.82313 301.675422 
L 276.421303 293.091742 
L 278.019477 287.812533 
L 279.617651 277.671448 
L 281.215825 284.251104 
L 282.813999 280.670809 
L 284.412173 274.200987 
L 286.010347 271.052603 
L 287.608521 277.790589 
L 289.206695 282.47613 
L 290.804869 285.552293 
L 294.001216 268.611787 
L 295.59939 265.924619 
L 297.197564 285.347515 
L 298.795738 290.663512 
L 300.393912 276.553523 
L 301.992086 268.31204 
L 303.59026 255.83164 
L 305.188434 257.279718 
L 306.786608 279.556805 
L 308.384782 275.394783 
L 309.982955 267.550504 
L 311.581129 252.744097 
L 313.179303 252.242517 
L 314.777477 252.849061 
L 316.375651 257.615362 
L 317.973825 266.809434 
L 319.571999 266.761948 
L 321.170173 263.966836 
L 322.768347 271.923435 
L 324.366521 261.432981 
L 325.964694 241.480565 
L 327.562868 244.057872 
L 329.161042 242.8015 
L 330.759216 203.383631 
L 332.35739 139.153356 
L 333.955564 126.998074 
L 335.553738 112.687399 
L 337.151912 63.026101 
L 338.750086 91.830195 
L 340.34826 145.62419 
L 341.946434 216.357094 
L 343.544607 235.308829 
L 345.142781 221.943464 
L 346.740955 238.54357 
L 349.937303 255.73582 
L 351.535477 255.781123 
L 353.133651 262.714205 
L 354.731825 257.188732 
L 356.329999 269.267304 
L 357.928173 245.292398 
L 359.526346 262.52656 
L 361.12452 263.709837 
L 362.722694 257.664109 
L 364.320868 281.680486 
L 365.919042 281.311251 
L 367.517216 293.057476 
L 369.11539 291.517248 
L 370.713564 262.997149 
L 372.311738 254.134802 
L 373.909912 253.563081 
L 375.508086 252.749159 
L 377.106259 253.544367 
L 378.704433 251.990166 
L 380.302607 254.176986 
L 381.900781 239.979009 
L 383.498955 253.657945 
L 385.097129 259.390322 
L 386.695303 278.928388 
L 388.293477 268.7263 
L 389.891651 266.063549 
L 391.489825 261.234874 
L 393.087998 268.124659 
L 394.686172 270.05936 
L 396.284346 268.713034 
L 397.88252 258.195584 
L 399.480694 255.316994 
L 401.078868 247.190905 
L 402.677042 263.92051 
L 404.275216 273.711636 
L 407.471564 284.601157 
L 409.069738 270.840074 
L 410.667911 272.039679 
L 412.266085 263.196769 
L 413.864259 264.971466 
L 415.462433 264.546752 
L 417.060607 261.895906 
L 418.658781 253.352854 
L 420.256955 274.405511 
L 421.855129 271.500164 
L 423.453303 267.459745 
L 425.051477 259.709199 
L 426.64965 264.285448 
L 428.247824 254.384597 
L 429.845998 261.14949 
L 431.444172 269.073357 
L 433.042346 269.603829 
L 434.64052 269.89545 
L 436.238694 262.744952 
L 437.836868 264.654986 
L 439.435042 257.093106 
L 441.033216 260.665143 
L 442.631389 256.757482 
L 444.229563 249.857794 
L 445.827737 260.843725 
L 447.425911 255.104512 
L 449.024085 250.608686 
L 450.622259 252.438486 
L 452.220433 253.386078 
L 453.818607 265.423699 
L 455.416781 265.54985 
L 457.014955 251.471077 
L 458.613129 261.284122 
L 461.809476 272.634103 
L 463.40765 269.120587 
L 465.005824 257.395072 
L 466.603998 260.06682 
L 468.202172 262.211595 
L 469.800346 261.847278 
L 471.39852 287.108509 
L 472.996694 275.50149 
L 474.594868 293.584394 
L 476.193041 288.916121 
L 477.791215 266.199314 
L 479.389389 264.51931 
L 480.987563 273.502724 
L 482.585737 275.616896 
L 484.183911 267.10938 
L 485.782085 264.341779 
L 487.380259 269.124938 
L 488.978433 264.10567 
L 490.576607 252.723274 
L 492.174781 264.665781 
L 493.772954 256.307218 
L 495.371128 244.400448 
L 496.969302 241.907298 
L 498.567476 252.890554 
L 500.16565 257.801645 
L 503.361998 266.343859 
L 504.960172 261.234824 
L 506.558346 267.186957 
L 508.15652 263.622465 
L 509.754693 265.111863 
L 511.352867 270.849939 
L 512.951041 265.733485 
L 514.549215 263.21504 
L 516.147389 259.755286 
L 517.745563 263.26089 
L 519.343737 265.561382 
L 520.941911 254.713428 
L 522.540085 281.832084 
L 524.138259 269.323556 
L 525.736433 261.865437 
L 527.334606 264.689781 
L 528.93278 261.189347 
L 530.530954 262.948938 
L 532.129128 267.713156 
L 533.727302 291.904786 
L 535.325476 279.831041 
L 536.92365 292.811903 
L 538.521824 273.330359 
L 540.119998 259.299787 
L 541.718172 255.381003 
L 543.316345 261.379366 
L 544.914519 259.885435 
L 546.512693 256.402403 
L 548.110867 256.17736 
L 549.709041 261.527751 
L 551.307215 263.286843 
L 552.905389 247.84431 
L 554.503563 255.722471 
L 556.101737 264.334742 
L 557.699911 259.641021 
L 559.298085 261.388813 
L 560.896258 251.43214 
L 562.494432 252.828027 
L 564.092606 256.712374 
L 565.69078 250.960077 
L 567.288954 258.385509 
L 568.887128 263.291913 
L 570.485302 262.492151 
L 572.083476 266.435874 
L 573.68165 272.504428 
L 575.279824 263.582458 
L 576.877997 268.100006 
L 578.476171 265.068142 
L 580.074345 265.083952 
L 581.672519 267.686437 
L 583.270693 261.165726 
L 584.868867 263.279506 
L 586.467041 273.35383 
L 588.065215 277.883707 
L 589.663389 279.276338 
L 591.261563 262.682454 
L 592.859737 279.150165 
L 594.45791 284.740253 
L 596.056084 280.326847 
L 597.654258 254.365255 
L 599.252432 264.871956 
L 600.850606 276.321296 
L 602.44878 267.011057 
L 604.046954 260.756038 
L 607.243302 272.821513 
L 608.841476 275.062681 
L 610.439649 265.08529 
L 612.037823 257.393996 
L 615.234171 263.648929 
L 616.832345 291.630537 
L 618.430519 282.161408 
L 620.028693 290.916002 
L 621.626867 284.177279 
L 623.225041 282.205979 
L 624.823215 282.560336 
L 626.421389 287.747436 
L 628.019562 277.559164 
L 629.617736 269.699973 
L 631.21591 284.469872 
L 632.814084 284.185688 
L 634.412258 286.178145 
L 636.010432 297.367061 
L 637.608606 282.864597 
L 639.20678 283.364639 
L 640.804954 289.426136 
L 642.403128 277.309018 
L 644.001301 290.349071 
L 645.599475 292.494083 
L 647.197649 293.627366 
L 648.795823 292.811496 
L 650.393997 263.442222 
L 651.992171 272.900487 
L 653.590345 277.166651 
L 655.188519 300.832491 
L 656.786693 292.136451 
L 658.384867 299.185326 
L 659.983041 298.581501 
L 661.581214 283.000993 
L 663.179388 253.231749 
L 666.375736 286.351331 
L 667.97391 287.923387 
L 669.572084 287.452078 
L 671.170258 280.802096 
L 672.768432 292.343841 
L 674.366606 288.258468 
L 675.96478 279.358388 
L 677.562953 290.054197 
L 679.161127 282.665805 
L 680.759301 282.27688 
L 682.357475 276.372406 
L 683.955649 271.033511 
L 685.553823 273.294221 
L 687.151997 277.649963 
L 688.750171 278.854638 
L 690.348345 281.483473 
L 691.946519 285.020849 
L 693.544693 286.832948 
L 695.142866 285.886226 
L 696.74104 292.60461 
L 698.339214 295.900312 
L 699.937388 291.519191 
L 701.535562 281.270164 
L 703.133736 300.990602 
L 704.73191 297.554126 
L 706.330084 298.434501 
L 707.928258 291.991898 
L 709.526432 284.253572 
L 711.124605 293.065845 
L 712.722779 284.313471 
L 714.320953 289.327985 
L 715.919127 288.223864 
L 717.517301 273.702117 
L 719.115475 283.717914 
L 720.713649 287.596541 
L 722.311823 290.879416 
L 725.508171 271.307666 
L 727.106345 260.067443 
L 728.704518 272.482154 
L 730.302692 247.70318 
L 731.900866 216.195709 
L 733.49904 149.296316 
L 735.097214 137.237808 
L 736.695388 149.949242 
L 738.293562 208.997068 
L 739.891736 251.654257 
L 741.48991 277.552223 
L 743.088084 270.167869 
L 744.686257 263.60555 
L 746.284431 264.066344 
L 747.882605 245.415186 
L 749.480779 249.327426 
L 751.078953 254.096993 
L 752.677127 247.855382 
L 754.275301 254.872551 
L 755.873475 268.801709 
L 757.471649 272.73886 
L 759.069823 260.357304 
L 760.667997 265.877966 
L 762.26617 277.151815 
L 763.864344 286.073693 
L 765.462518 281.963481 
L 767.060692 293.809954 
L 768.658866 263.868464 
L 770.25704 285.850784 
L 771.855214 286.432922 
L 773.453388 291.617715 
L 775.051562 292.07744 
L 776.649736 285.795176 
L 778.247909 285.519244 
L 779.846083 269.145177 
L 781.444257 272.1056 
L 783.042431 288.188107 
L 784.640605 290.442445 
L 786.238779 296.581454 
L 787.836953 291.777202 
L 789.435127 295.96854 
L 791.033301 305.741868 
L 792.631475 294.157773 
L 794.229649 296.008506 
L 795.827822 291.197431 
L 797.425996 293.25124 
L 800.622344 285.840629 
L 802.220518 276.942608 
L 803.818692 281.544511 
L 807.01504 296.017264 
L 808.613214 289.775962 
L 810.211388 293.857575 
L 811.809561 292.262784 
L 813.407735 288.57069 
L 815.005909 288.412123 
L 816.604083 292.168659 
L 818.202257 284.984138 
L 819.800431 286.167145 
L 821.398605 276.242809 
L 822.996779 281.279608 
L 824.594953 290.03174 
L 826.193127 286.352429 
L 827.791301 291.245896 
L 829.389474 285.484984 
L 830.987648 290.916515 
L 832.585822 292.814595 
L 834.183996 282.815467 
L 835.78217 294.65328 
L 837.380344 291.722556 
L 838.978518 291.945643 
L 840.576692 301.370664 
L 842.174866 290.167067 
L 843.77304 287.069225 
L 845.371213 289.17814 
L 846.969387 289.05624 
L 848.567561 289.418817 
L 850.165735 283.032395 
L 851.763909 287.600217 
L 853.362083 293.522339 
L 854.960257 273.913192 
L 856.558431 285.705001 
L 858.156605 290.771206 
L 859.754779 275.849275 
L 861.352953 277.771955 
L 862.951126 271.329979 
L 864.5493 266.158591 
L 866.147474 273.4072 
L 867.745648 271.633238 
L 869.343822 274.274092 
L 870.941996 296.208573 
L 872.54017 285.653001 
L 874.138344 285.165206 
L 875.736518 291.517458 
L 877.334692 290.201674 
L 878.932865 271.49641 
L 880.531039 265.439592 
L 882.129213 279.734436 
L 883.727387 278.026442 
L 885.325561 297.688729 
L 885.325561 297.688729 
" clip-path="url(#pa0dfc3f7ea)" style="fill: none; stroke-dasharray: 4.44,1.92; stroke-dashoffset: 0; stroke: #9467bd; stroke-width: 1.2"/>
   </g>
   <g id="patch_3">
    <path d="M 47.962344 317.877656 
L 47.962344 50.890312 
" style="fill: none; stroke: #000000; stroke-width: 0.8; stroke-linejoin: miter; stroke-linecap: square"/>
   </g>
   <g id="patch_4">
    <path d="M 925.2 317.877656 
L 925.2 50.890312 
" style="fill: none; stroke: #000000; stroke-width: 0.8; stroke-linejoin: miter; stroke-linecap: square"/>
   </g>
   <g id="patch_5">
    <path d="M 47.962344 317.877656 
L 925.2 317.877656 
" style="fill: none; stroke: #000000; stroke-width: 0.8; stroke-linejoin: miter; stroke-linecap: square"/>
   </g>
   <g id="patch_6">
    <path d="M 47.962344 50.890312 
L 925.2 50.890312 
" style="fill: none; stroke: #000000; stroke-width: 0.8; stroke-linejoin: miter; stroke-linecap: square"/>
   </g>
   <g id="legend_1">
    <g id="line2d_17">
     <path d="M 366.336641 63.98875 
L 376.336641 63.98875 
L 386.336641 63.98875 
" style="fill: none; stroke: #2ca02c; stroke-width: 1.2; stroke-linecap: square"/>
    </g>
    <g id="text_16">
     <!-- ENCSR203XPU -->
     <g transform="translate(394.336641 67.48875) scale(0.1 -0.1)">
      <defs>
       <path id="DejaVuSans-28" d="M 628 4666 
L 3578 4666 
L 3578 4134 
L 1259 4134 
L 1259 2753 
L 3481 2753 
L 3481 2222 
L 1259 2222 
L 1259 531 
L 3634 531 
L 3634 0 
L 628 0 
L 628 4666 
z
" transform="scale(0.015625)"/>
       <path id="DejaVuSans-31" d="M 628 4666 
L 1478 4666 
L 3547 763 
L 3547 4666 
L 4159 4666 
L 4159 0 
L 3309 0 
L 1241 3903 
L 1241 0 
L 628 0 
L 628 4666 
z
" transform="scale(0.015625)"/>
       <path id="DejaVuSans-26" d="M 4122 4306 
L 4122 3641 
Q 3803 3938 3442 4084 
Q 3081 4231 2675 4231 
Q 1875 4231 1450 3742 
Q 1025 3253 1025 2328 
Q 1025 1406 1450 917 
Q 1875 428 2675 428 
Q 3081 428 3442 575 
Q 3803 722 4122 1019 
L 4122 359 
Q 3791 134 3420 21 
Q 3050 -91 2638 -91 
Q 1578 -91 968 557 
Q 359 1206 359 2328 
Q 359 3453 968 4101 
Q 1578 4750 2638 4750 
Q 3056 4750 3426 4639 
Q 3797 4528 4122 4306 
z
" transform="scale(0.015625)"/>
       <path id="DejaVuSans-36" d="M 3425 4513 
L 3425 3897 
Q 3066 4069 2747 4153 
Q 2428 4238 2131 4238 
Q 1616 4238 1336 4038 
Q 1056 3838 1056 3469 
Q 1056 3159 1242 3001 
Q 1428 2844 1947 2747 
L 2328 2669 
Q 3034 2534 3370 2195 
Q 3706 1856 3706 1288 
Q 3706 609 3251 259 
Q 2797 -91 1919 -91 
Q 1588 -91 1214 -16 
Q 841 59 441 206 
L 441 856 
Q 825 641 1194 531 
Q 1563 422 1919 422 
Q 2459 422 2753 634 
Q 3047 847 3047 1241 
Q 3047 1584 2836 1778 
Q 2625 1972 2144 2069 
L 1759 2144 
Q 1053 2284 737 2584 
Q 422 2884 422 3419 
Q 422 4038 858 4394 
Q 1294 4750 2059 4750 
Q 2388 4750 2728 4690 
Q 3069 4631 3425 4513 
z
" transform="scale(0.015625)"/>
       <path id="DejaVuSans-35" d="M 2841 2188 
Q 3044 2119 3236 1894 
Q 3428 1669 3622 1275 
L 4263 0 
L 3584 0 
L 2988 1197 
Q 2756 1666 2539 1819 
Q 2322 1972 1947 1972 
L 1259 1972 
L 1259 0 
L 628 0 
L 628 4666 
L 2053 4666 
Q 2853 4666 3247 4331 
Q 3641 3997 3641 3322 
Q 3641 2881 3436 2590 
Q 3231 2300 2841 2188 
z
M 1259 4147 
L 1259 2491 
L 2053 2491 
Q 2509 2491 2742 2702 
Q 2975 2913 2975 3322 
Q 2975 3731 2742 3939 
Q 2509 4147 2053 4147 
L 1259 4147 
z
" transform="scale(0.015625)"/>
       <path id="DejaVuSans-3b" d="M 403 4666 
L 1081 4666 
L 2241 2931 
L 3406 4666 
L 4084 4666 
L 2584 2425 
L 4184 0 
L 3506 0 
L 2194 1984 
L 872 0 
L 191 0 
L 1856 2491 
L 403 4666 
z
" transform="scale(0.015625)"/>
       <path id="DejaVuSans-33" d="M 1259 4147 
L 1259 2394 
L 2053 2394 
Q 2494 2394 2734 2622 
Q 2975 2850 2975 3272 
Q 2975 3691 2734 3919 
Q 2494 4147 2053 4147 
L 1259 4147 
z
M 628 4666 
L 2053 4666 
Q 2838 4666 3239 4311 
Q 3641 3956 3641 3272 
Q 3641 2581 3239 2228 
Q 2838 1875 2053 1875 
L 1259 1875 
L 1259 0 
L 628 0 
L 628 4666 
z
" transform="scale(0.015625)"/>
       <path id="DejaVuSans-38" d="M 556 4666 
L 1191 4666 
L 1191 1831 
Q 1191 1081 1462 751 
Q 1734 422 2344 422 
Q 2950 422 3222 751 
Q 3494 1081 3494 1831 
L 3494 4666 
L 4128 4666 
L 4128 1753 
Q 4128 841 3676 375 
Q 3225 -91 2344 -91 
Q 1459 -91 1007 375 
Q 556 841 556 1753 
L 556 4666 
z
" transform="scale(0.015625)"/>
      </defs>
      <use xlink:href="#DejaVuSans-28"/>
      <use xlink:href="#DejaVuSans-31" transform="translate(63.1875 0)"/>
      <use xlink:href="#DejaVuSans-26" transform="translate(138 0)"/>
      <use xlink:href="#DejaVuSans-36" transform="translate(207.828125 0)"/>
      <use xlink:href="#DejaVuSans-35" transform="translate(271.3125 0)"/>
      <use xlink:href="#DejaVuSans-15" transform="translate(340.796875 0)"/>
      <use xlink:href="#DejaVuSans-13" transform="translate(404.421875 0)"/>
      <use xlink:href="#DejaVuSans-16" transform="translate(468.046875 0)"/>
      <use xlink:href="#DejaVuSans-3b" transform="translate(531.671875 0)"/>
      <use xlink:href="#DejaVuSans-33" transform="translate(600.171875 0)"/>
      <use xlink:href="#DejaVuSans-38" transform="translate(660.46875 0)"/>
     </g>
    </g>
    <g id="line2d_18">
     <path d="M 366.336641 78.989531 
L 376.336641 78.989531 
L 386.336641 78.989531 
" style="fill: none; stroke: #000000; stroke-width: 1.2; stroke-linecap: square"/>
    </g>
    <g id="text_17">
     <!-- AlphaGenome -->
     <g transform="translate(394.336641 82.489531) scale(0.1 -0.1)">
      <defs>
       <path id="DejaVuSans-24" d="M 2188 4044 
L 1331 1722 
L 3047 1722 
L 2188 4044 
z
M 1831 4666 
L 2547 4666 
L 4325 0 
L 3669 0 
L 3244 1197 
L 1141 1197 
L 716 0 
L 50 0 
L 1831 4666 
z
" transform="scale(0.015625)"/>
       <path id="DejaVuSans-53" d="M 1159 525 
L 1159 -1331 
L 581 -1331 
L 581 3500 
L 1159 3500 
L 1159 2969 
Q 1341 3281 1617 3432 
Q 1894 3584 2278 3584 
Q 2916 3584 3314 3078 
Q 3713 2572 3713 1747 
Q 3713 922 3314 415 
Q 2916 -91 2278 -91 
Q 1894 -91 1617 61 
Q 1341 213 1159 525 
z
M 3116 1747 
Q 3116 2381 2855 2742 
Q 2594 3103 2138 3103 
Q 1681 3103 1420 2742 
Q 1159 2381 1159 1747 
Q 1159 1113 1420 752 
Q 1681 391 2138 391 
Q 2594 391 2855 752 
Q 3116 1113 3116 1747 
z
" transform="scale(0.015625)"/>
       <path id="DejaVuSans-2a" d="M 3809 666 
L 3809 1919 
L 2778 1919 
L 2778 2438 
L 4434 2438 
L 4434 434 
Q 4069 175 3628 42 
Q 3188 -91 2688 -91 
Q 1594 -91 976 548 
Q 359 1188 359 2328 
Q 359 3472 976 4111 
Q 1594 4750 2688 4750 
Q 3144 4750 3555 4637 
Q 3966 4525 4313 4306 
L 4313 3634 
Q 3963 3931 3569 4081 
Q 3175 4231 2741 4231 
Q 1884 4231 1454 3753 
Q 1025 3275 1025 2328 
Q 1025 1384 1454 906 
Q 1884 428 2741 428 
Q 3075 428 3337 486 
Q 3600 544 3809 666 
z
" transform="scale(0.015625)"/>
      </defs>
      <use xlink:href="#DejaVuSans-24"/>
      <use xlink:href="#DejaVuSans-4f" transform="translate(68.40625 0)"/>
      <use xlink:href="#DejaVuSans-53" transform="translate(96.1875 0)"/>
      <use xlink:href="#DejaVuSans-4b" transform="translate(159.671875 0)"/>
      <use xlink:href="#DejaVuSans-44" transform="translate(223.046875 0)"/>
      <use xlink:href="#DejaVuSans-2a" transform="translate(284.328125 0)"/>
      <use xlink:href="#DejaVuSans-48" transform="translate(361.8125 0)"/>
      <use xlink:href="#DejaVuSans-51" transform="translate(423.34375 0)"/>
      <use xlink:href="#DejaVuSans-52" transform="translate(486.71875 0)"/>
      <use xlink:href="#DejaVuSans-50" transform="translate(547.90625 0)"/>
      <use xlink:href="#DejaVuSans-48" transform="translate(645.3125 0)"/>
     </g>
    </g>
    <g id="line2d_19">
     <path d="M 487.702266 63.98875 
L 497.702266 63.98875 
L 507.702266 63.98875 
" style="fill: none; stroke: #ff7f0e; stroke-width: 1.2; stroke-linecap: square"/>
    </g>
    <g id="text_18">
     <!-- DiMeLo pooled -->
     <g transform="translate(515.702266 67.48875) scale(0.1 -0.1)">
      <defs>
       <path id="DejaVuSans-27" d="M 1259 4147 
L 1259 519 
L 2022 519 
Q 2988 519 3436 956 
Q 3884 1394 3884 2338 
Q 3884 3275 3436 3711 
Q 2988 4147 2022 4147 
L 1259 4147 
z
M 628 4666 
L 1925 4666 
Q 3281 4666 3915 4102 
Q 4550 3538 4550 2338 
Q 4550 1131 3912 565 
Q 3275 0 1925 0 
L 628 0 
L 628 4666 
z
" transform="scale(0.015625)"/>
       <path id="DejaVuSans-30" d="M 628 4666 
L 1569 4666 
L 2759 1491 
L 3956 4666 
L 4897 4666 
L 4897 0 
L 4281 0 
L 4281 4097 
L 3078 897 
L 2444 897 
L 1241 4097 
L 1241 0 
L 628 0 
L 628 4666 
z
" transform="scale(0.015625)"/>
       <path id="DejaVuSans-2f" d="M 628 4666 
L 1259 4666 
L 1259 531 
L 3531 531 
L 3531 0 
L 628 0 
L 628 4666 
z
" transform="scale(0.015625)"/>
      </defs>
      <use xlink:href="#DejaVuSans-27"/>
      <use xlink:href="#DejaVuSans-4c" transform="translate(77 0)"/>
      <use xlink:href="#DejaVuSans-30" transform="translate(104.78125 0)"/>
      <use xlink:href="#DejaVuSans-48" transform="translate(191.0625 0)"/>
      <use xlink:href="#DejaVuSans-2f" transform="translate(252.59375 0)"/>
      <use xlink:href="#DejaVuSans-52" transform="translate(306.5625 0)"/>
      <use xlink:href="#DejaVuSans-3" transform="translate(367.75 0)"/>
      <use xlink:href="#DejaVuSans-53" transform="translate(399.53125 0)"/>
      <use xlink:href="#DejaVuSans-52" transform="translate(463.015625 0)"/>
      <use xlink:href="#DejaVuSans-52" transform="translate(524.203125 0)"/>
      <use xlink:href="#DejaVuSans-4f" transform="translate(585.390625 0)"/>
      <use xlink:href="#DejaVuSans-48" transform="translate(613.171875 0)"/>
      <use xlink:href="#DejaVuSans-47" transform="translate(674.703125 0)"/>
     </g>
    </g>
    <g id="line2d_20">
     <path d="M 487.702266 78.989531 
L 497.702266 78.989531 
L 507.702266 78.989531 
" style="fill: none; stroke-dasharray: 4.44,1.92; stroke-dashoffset: 0; stroke: #9467bd; stroke-width: 1.2"/>
    </g>
    <g id="text_19">
     <!-- HyenaDNA pooled -->
     <g transform="translate(515.702266 82.489531) scale(0.1 -0.1)">
      <defs>
       <path id="DejaVuSans-2b" d="M 628 4666 
L 1259 4666 
L 1259 2753 
L 3553 2753 
L 3553 4666 
L 4184 4666 
L 4184 0 
L 3553 0 
L 3553 2222 
L 1259 2222 
L 1259 0 
L 628 0 
L 628 4666 
z
" transform="scale(0.015625)"/>
       <path id="DejaVuSans-5c" d="M 2059 -325 
Q 1816 -950 1584 -1140 
Q 1353 -1331 966 -1331 
L 506 -1331 
L 506 -850 
L 844 -850 
Q 1081 -850 1212 -737 
Q 1344 -625 1503 -206 
L 1606 56 
L 191 3500 
L 800 3500 
L 1894 763 
L 2988 3500 
L 3597 3500 
L 2059 -325 
z
" transform="scale(0.015625)"/>
      </defs>
      <use xlink:href="#DejaVuSans-2b"/>
      <use xlink:href="#DejaVuSans-5c" transform="translate(75.203125 0)"/>
      <use xlink:href="#DejaVuSans-48" transform="translate(134.390625 0)"/>
      <use xlink:href="#DejaVuSans-51" transform="translate(195.921875 0)"/>
      <use xlink:href="#DejaVuSans-44" transform="translate(259.296875 0)"/>
      <use xlink:href="#DejaVuSans-27" transform="translate(320.578125 0)"/>
      <use xlink:href="#DejaVuSans-31" transform="translate(397.578125 0)"/>
      <use xlink:href="#DejaVuSans-24" transform="translate(472.390625 0)"/>
      <use xlink:href="#DejaVuSans-3" transform="translate(540.796875 0)"/>
      <use xlink:href="#DejaVuSans-53" transform="translate(572.578125 0)"/>
      <use xlink:href="#DejaVuSans-52" transform="translate(636.0625 0)"/>
      <use xlink:href="#DejaVuSans-52" transform="translate(697.25 0)"/>
      <use xlink:href="#DejaVuSans-4f" transform="translate(758.4375 0)"/>
      <use xlink:href="#DejaVuSans-48" transform="translate(786.21875 0)"/>
      <use xlink:href="#DejaVuSans-47" transform="translate(847.75 0)"/>
     </g>
    </g>
   </g>
  </g>
  <g id="text_20">
   <!-- chr16 region 64: overlay -->
   <g transform="translate(394.168125 17.519297) scale(0.12 -0.12)">
    <defs>
     <path id="DejaVuSans-1d" d="M 750 794 
L 1409 794 
L 1409 0 
L 750 0 
L 750 794 
z
M 750 3309 
L 1409 3309 
L 1409 2516 
L 750 2516 
L 750 3309 
z
" transform="scale(0.015625)"/>
     <path id="DejaVuSans-59" d="M 191 3500 
L 800 3500 
L 1894 563 
L 2988 3500 
L 3597 3500 
L 2284 0 
L 1503 0 
L 191 3500 
z
" transform="scale(0.015625)"/>
    </defs>
    <use xlink:href="#DejaVuSans-46"/>
    <use xlink:href="#DejaVuSans-4b" transform="translate(54.984375 0)"/>
    <use xlink:href="#DejaVuSans-55" transform="translate(118.359375 0)"/>
    <use xlink:href="#DejaVuSans-14" transform="translate(159.46875 0)"/>
    <use xlink:href="#DejaVuSans-19" transform="translate(223.09375 0)"/>
    <use xlink:href="#DejaVuSans-3" transform="translate(286.71875 0)"/>
    <use xlink:href="#DejaVuSans-55" transform="translate(318.5 0)"/>
    <use xlink:href="#DejaVuSans-48" transform="translate(357.40625 0)"/>
    <use xlink:href="#DejaVuSans-4a" transform="translate(418.9375 0)"/>
    <use xlink:href="#DejaVuSans-4c" transform="translate(482.421875 0)"/>
    <use xlink:href="#DejaVuSans-52" transform="translate(510.203125 0)"/>
    <use xlink:href="#DejaVuSans-51" transform="translate(571.390625 0)"/>
    <use xlink:href="#DejaVuSans-3" transform="translate(634.765625 0)"/>
    <use xlink:href="#DejaVuSans-19" transform="translate(666.546875 0)"/>
    <use xlink:href="#DejaVuSans-17" transform="translate(730.171875 0)"/>
    <use xlink:href="#DejaVuSans-1d" transform="translate(793.796875 0)"/>
    <use xlink:href="#DejaVuSans-3" transform="translate(827.484375 0)"/>
    <use xlink:href="#DejaVuSans-52" transform="translate(859.265625 0)"/>
    <use xlink:href="#DejaVuSans-59" transform="translate(920.453125 0)"/>
    <use xlink:href="#DejaVuSans-48" transform="translate(979.640625 0)"/>
    <use xlink:href="#DejaVuSans-55" transform="translate(1041.171875 0)"/>
    <use xlink:href="#DejaVuSans-4f" transform="translate(1082.28125 0)"/>
    <use xlink:href="#DejaVuSans-44" transform="translate(1110.0625 0)"/>
    <use xlink:href="#DejaVuSans-5c" transform="translate(1171.34375 0)"/>
   </g>
   <!-- chr16_rank65_score1.965_reads478 -->
   <g transform="translate(359.352188 31.922578) scale(0.12 -0.12)">
    <defs>
     <path id="DejaVuSans-42" d="M 3263 -1063 
L 3263 -1509 
L -63 -1509 
L -63 -1063 
L 3263 -1063 
z
" transform="scale(0.015625)"/>
     <path id="DejaVuSans-4e" d="M 581 4863 
L 1159 4863 
L 1159 1991 
L 2875 3500 
L 3609 3500 
L 1753 1863 
L 3688 0 
L 2938 0 
L 1159 1709 
L 1159 0 
L 581 0 
L 581 4863 
z
" transform="scale(0.015625)"/>
     <path id="DejaVuSans-1c" d="M 703 97 
L 703 672 
Q 941 559 1184 500 
Q 1428 441 1663 441 
Q 2288 441 2617 861 
Q 2947 1281 2994 2138 
Q 2813 1869 2534 1725 
Q 2256 1581 1919 1581 
Q 1219 1581 811 2004 
Q 403 2428 403 3163 
Q 403 3881 828 4315 
Q 1253 4750 1959 4750 
Q 2769 4750 3195 4129 
Q 3622 3509 3622 2328 
Q 3622 1225 3098 567 
Q 2575 -91 1691 -91 
Q 1453 -91 1209 -44 
Q 966 3 703 97 
z
M 1959 2075 
Q 2384 2075 2632 2365 
Q 2881 2656 2881 3163 
Q 2881 3666 2632 3958 
Q 2384 4250 1959 4250 
Q 1534 4250 1286 3958 
Q 1038 3666 1038 3163 
Q 1038 2656 1286 2365 
Q 1534 2075 1959 2075 
z
" transform="scale(0.015625)"/>
    </defs>
    <use xlink:href="#DejaVuSans-46"/>
    <use xlink:href="#DejaVuSans-4b" transform="translate(54.984375 0)"/>
    <use xlink:href="#DejaVuSans-55" transform="translate(118.359375 0)"/>
    <use xlink:href="#DejaVuSans-14" transform="translate(159.46875 0)"/>
    <use xlink:href="#DejaVuSans-19" transform="translate(223.09375 0)"/>
    <use xlink:href="#DejaVuSans-42" transform="translate(286.71875 0)"/>
    <use xlink:href="#DejaVuSans-55" transform="translate(336.71875 0)"/>
    <use xlink:href="#DejaVuSans-44" transform="translate(377.828125 0)"/>
    <use xlink:href="#DejaVuSans-51" transform="translate(439.109375 0)"/>
    <use xlink:href="#DejaVuSans-4e" transform="translate(502.484375 0)"/>
    <use xlink:href="#DejaVuSans-19" transform="translate(560.390625 0)"/>
    <use xlink:href="#DejaVuSans-18" transform="translate(624.015625 0)"/>
    <use xlink:href="#DejaVuSans-42" transform="translate(687.640625 0)"/>
    <use xlink:href="#DejaVuSans-56" transform="translate(737.640625 0)"/>
    <use xlink:href="#DejaVuSans-46" transform="translate(789.734375 0)"/>
    <use xlink:href="#DejaVuSans-52" transform="translate(844.71875 0)"/>
    <use xlink:href="#DejaVuSans-55" transform="translate(905.90625 0)"/>
    <use xlink:href="#DejaVuSans-48" transform="translate(944.8125 0)"/>
    <use xlink:href="#DejaVuSans-14" transform="translate(1006.34375 0)"/>
    <use xlink:href="#DejaVuSans-11" transform="translate(1069.96875 0)"/>
    <use xlink:href="#DejaVuSans-1c" transform="translate(1101.75 0)"/>
    <use xlink:href="#DejaVuSans-19" transform="translate(1165.375 0)"/>
    <use xlink:href="#DejaVuSans-18" transform="translate(1229 0)"/>
    <use xlink:href="#DejaVuSans-42" transform="translate(1292.625 0)"/>
    <use xlink:href="#DejaVuSans-55" transform="translate(1342.625 0)"/>
    <use xlink:href="#DejaVuSans-48" transform="translate(1381.53125 0)"/>
    <use xlink:href="#DejaVuSans-44" transform="translate(1443.0625 0)"/>
    <use xlink:href="#DejaVuSans-47" transform="translate(1504.34375 0)"/>
    <use xlink:href="#DejaVuSans-56" transform="translate(1567.828125 0)"/>
    <use xlink:href="#DejaVuSans-17" transform="translate(1619.921875 0)"/>
    <use xlink:href="#DejaVuSans-1a" transform="translate(1683.546875 0)"/>
    <use xlink:href="#DejaVuSans-1b" transform="translate(1747.171875 0)"/>
   </g>
  </g>
 </g>
 <defs>
  <clipPath id="pa0dfc3f7ea">
   <rect x="47.962344" y="50.890312" width="877.237656" height="266.987344"/>
  </clipPath>
 </defs>
</svg>
