<?xml version="1.0" encoding="utf-8" standalone="no"?>
<!DOCTYPE svg PUBLIC "-//W3C//DTD SVG 1.1//EN"
  "http://www.w3.org/Graphics/SVG/1.1/DTD/svg11.dtd">
<svg xmlns:xlink="http://www.w3.org/1999/xlink" width="936pt" height="360pt" viewBox="0 0 936 360" xmlns="http://www.w3.org/2000/svg" version="1.1">
 <metadata>
  <rdf:RDF xmlns:dc="http://purl.org/dc/elements/1.1/" xmlns:cc="http://creativecommons.org/ns#" xmlns:rdf="http://www.w3.org/1999/02/22-rdf-syntax-ns#">
   <cc:Work>
    <dc:type rdf:resource="http://purl.org/dc/dcmitype/StillImage"/>
    <dc:date>2026-07-10T12:48:50.881543</dc:date>
    <dc:format>image/svg+xml</dc:format>
    <dc:creator>
     <cc:Agent>
      <dc:title>Matplotlib v3.11.0, https://matplotlib.org/</dc:title>
     </cc:Agent>
    </dc:creator>
   </cc:Work>
  </rdf:RDF>
 </metadata>
 <defs>
  <style type="text/css">*{stroke-linejoin: round; stroke-linecap: butt}</style>
 </defs>
 <g id="figure_1">
  <g id="patch_1">
   <path d="M 0 360 
L 936 360 
L 936 0 
L 0 0 
z
" style="fill: #ffffff"/>
  </g>
  <g id="axes_1">
   <g id="patch_2">
    <path d="M 47.962344 317.877656 
L 925.2 317.877656 
L 925.2 50.890312 
L 47.962344 50.890312 
z
" style="fill: #ffffff"/>
   </g>
   <g id="matplotlib.axis_1">
    <g id="xtick_1">
     <g id="line2d_1">
      <defs>
       <path id="m45faa9f462" d="M 0 0 
L 0 3.5 
" style="stroke: #000000; stroke-width: 0.8"/>
      </defs>
      <g>
       <use xlink:href="#m45faa9f462" x="87.037696" y="317.877656" style="stroke: #000000; stroke-width: 0.8"/>
      </g>
     </g>
     <g id="text_1">
      <!-- 3.00 -->
      <g transform="translate(75.904883 332.475312) scale(0.1 -0.1)">
       <defs>
        <path id="DejaVuSans-16" d="M 2597 2516 
Q 3050 2419 3304 2112 
Q 3559 1806 3559 1356 
Q 3559 666 3084 287 
Q 2609 -91 1734 -91 
Q 1441 -91 1130 -33 
Q 819 25 488 141 
L 488 750 
Q 750 597 1062 519 
Q 1375 441 1716 441 
Q 2309 441 2620 675 
Q 2931 909 2931 1356 
Q 2931 1769 2642 2001 
Q 2353 2234 1838 2234 
L 1294 2234 
L 1294 2753 
L 1863 2753 
Q 2328 2753 2575 2939 
Q 2822 3125 2822 3475 
Q 2822 3834 2567 4026 
Q 2313 4219 1838 4219 
Q 1578 4219 1281 4162 
Q 984 4106 628 3988 
L 628 4550 
Q 988 4650 1302 4700 
Q 1616 4750 1894 4750 
Q 2613 4750 3031 4423 
Q 3450 4097 3450 3541 
Q 3450 3153 3228 2886 
Q 3006 2619 2597 2516 
z
" transform="scale(0.015625)"/>
        <path id="DejaVuSans-11" d="M 684 794 
L 1344 794 
L 1344 0 
L 684 0 
L 684 794 
z
" transform="scale(0.015625)"/>
        <path id="DejaVuSans-13" d="M 2034 4250 
Q 1547 4250 1301 3770 
Q 1056 3291 1056 2328 
Q 1056 1369 1301 889 
Q 1547 409 2034 409 
Q 2525 409 2770 889 
Q 3016 1369 3016 2328 
Q 3016 3291 2770 3770 
Q 2525 4250 2034 4250 
z
M 2034 4750 
Q 2819 4750 3233 4129 
Q 3647 3509 3647 2328 
Q 3647 1150 3233 529 
Q 2819 -91 2034 -91 
Q 1250 -91 836 529 
Q 422 1150 422 2328 
Q 422 3509 836 4129 
Q 1250 4750 2034 4750 
z
" transform="scale(0.015625)"/>
       </defs>
       <use xlink:href="#DejaVuSans-16"/>
       <use xlink:href="#DejaVuSans-11" transform="translate(63.625 0)"/>
       <use xlink:href="#DejaVuSans-13" transform="translate(95.40625 0)"/>
       <use xlink:href="#DejaVuSans-13" transform="translate(159.03125 0)"/>
      </g>
     </g>
    </g>
    <g id="xtick_2">
     <g id="line2d_2">
      <g>
       <use xlink:href="#m45faa9f462" x="246.855086" y="317.877656" style="stroke: #000000; stroke-width: 0.8"/>
      </g>
     </g>
     <g id="text_2">
      <!-- 3.02 -->
      <g transform="translate(235.722274 332.475312) scale(0.1 -0.1)">
       <defs>
        <path id="DejaVuSans-15" d="M 1228 531 
L 3431 531 
L 3431 0 
L 469 0 
L 469 531 
Q 828 903 1448 1529 
Q 2069 2156 2228 2338 
Q 2531 2678 2651 2914 
Q 2772 3150 2772 3378 
Q 2772 3750 2511 3984 
Q 2250 4219 1831 4219 
Q 1534 4219 1204 4116 
Q 875 4013 500 3803 
L 500 4441 
Q 881 4594 1212 4672 
Q 1544 4750 1819 4750 
Q 2544 4750 2975 4387 
Q 3406 4025 3406 3419 
Q 3406 3131 3298 2873 
Q 3191 2616 2906 2266 
Q 2828 2175 2409 1742 
Q 1991 1309 1228 531 
z
" transform="scale(0.015625)"/>
       </defs>
       <use xlink:href="#DejaVuSans-16"/>
       <use xlink:href="#DejaVuSans-11" transform="translate(63.625 0)"/>
       <use xlink:href="#DejaVuSans-13" transform="translate(95.40625 0)"/>
       <use xlink:href="#DejaVuSans-15" transform="translate(159.03125 0)"/>
      </g>
     </g>
    </g>
    <g id="xtick_3">
     <g id="line2d_3">
      <g>
       <use xlink:href="#m45faa9f462" x="406.672477" y="317.877656" style="stroke: #000000; stroke-width: 0.8"/>
      </g>
     </g>
     <g id="text_3">
      <!-- 3.04 -->
      <g transform="translate(395.539664 332.475312) scale(0.1 -0.1)">
       <defs>
        <path id="DejaVuSans-17" d="M 2419 4116 
L 825 1625 
L 2419 1625 
L 2419 4116 
z
M 2253 4666 
L 3047 4666 
L 3047 1625 
L 3713 1625 
L 3713 1100 
L 3047 1100 
L 3047 0 
L 2419 0 
L 2419 1100 
L 313 1100 
L 313 1709 
L 2253 4666 
z
" transform="scale(0.015625)"/>
       </defs>
       <use xlink:href="#DejaVuSans-16"/>
       <use xlink:href="#DejaVuSans-11" transform="translate(63.625 0)"/>
       <use xlink:href="#DejaVuSans-13" transform="translate(95.40625 0)"/>
       <use xlink:href="#DejaVuSans-17" transform="translate(159.03125 0)"/>
      </g>
     </g>
    </g>
    <g id="xtick_4">
     <g id="line2d_4">
      <g>
       <use xlink:href="#m45faa9f462" x="566.489867" y="317.877656" style="stroke: #000000; stroke-width: 0.8"/>
      </g>
     </g>
     <g id="text_4">
      <!-- 3.06 -->
      <g transform="translate(555.357055 332.475312) scale(0.1 -0.1)">
       <defs>
        <path id="DejaVuSans-19" d="M 2113 2584 
Q 1688 2584 1439 2293 
Q 1191 2003 1191 1497 
Q 1191 994 1439 701 
Q 1688 409 2113 409 
Q 2538 409 2786 701 
Q 3034 994 3034 1497 
Q 3034 2003 2786 2293 
Q 2538 2584 2113 2584 
z
M 3366 4563 
L 3366 3988 
Q 3128 4100 2886 4159 
Q 2644 4219 2406 4219 
Q 1781 4219 1451 3797 
Q 1122 3375 1075 2522 
Q 1259 2794 1537 2939 
Q 1816 3084 2150 3084 
Q 2853 3084 3261 2657 
Q 3669 2231 3669 1497 
Q 3669 778 3244 343 
Q 2819 -91 2113 -91 
Q 1303 -91 875 529 
Q 447 1150 447 2328 
Q 447 3434 972 4092 
Q 1497 4750 2381 4750 
Q 2619 4750 2861 4703 
Q 3103 4656 3366 4563 
z
" transform="scale(0.015625)"/>
       </defs>
       <use xlink:href="#DejaVuSans-16"/>
       <use xlink:href="#DejaVuSans-11" transform="translate(63.625 0)"/>
       <use xlink:href="#DejaVuSans-13" transform="translate(95.40625 0)"/>
       <use xlink:href="#DejaVuSans-19" transform="translate(159.03125 0)"/>
      </g>
     </g>
    </g>
    <g id="xtick_5">
     <g id="line2d_5">
      <g>
       <use xlink:href="#m45faa9f462" x="726.307258" y="317.877656" style="stroke: #000000; stroke-width: 0.8"/>
      </g>
     </g>
     <g id="text_5">
      <!-- 3.08 -->
      <g transform="translate(715.174445 332.475312) scale(0.1 -0.1)">
       <defs>
        <path id="DejaVuSans-1b" d="M 2034 2216 
Q 1584 2216 1326 1975 
Q 1069 1734 1069 1313 
Q 1069 891 1326 650 
Q 1584 409 2034 409 
Q 2484 409 2743 651 
Q 3003 894 3003 1313 
Q 3003 1734 2745 1975 
Q 2488 2216 2034 2216 
z
M 1403 2484 
Q 997 2584 770 2862 
Q 544 3141 544 3541 
Q 544 4100 942 4425 
Q 1341 4750 2034 4750 
Q 2731 4750 3128 4425 
Q 3525 4100 3525 3541 
Q 3525 3141 3298 2862 
Q 3072 2584 2669 2484 
Q 3125 2378 3379 2068 
Q 3634 1759 3634 1313 
Q 3634 634 3220 271 
Q 2806 -91 2034 -91 
Q 1263 -91 848 271 
Q 434 634 434 1313 
Q 434 1759 690 2068 
Q 947 2378 1403 2484 
z
M 1172 3481 
Q 1172 3119 1398 2916 
Q 1625 2713 2034 2713 
Q 2441 2713 2670 2916 
Q 2900 3119 2900 3481 
Q 2900 3844 2670 4047 
Q 2441 4250 2034 4250 
Q 1625 4250 1398 4047 
Q 1172 3844 1172 3481 
z
" transform="scale(0.015625)"/>
       </defs>
       <use xlink:href="#DejaVuSans-16"/>
       <use xlink:href="#DejaVuSans-11" transform="translate(63.625 0)"/>
       <use xlink:href="#DejaVuSans-13" transform="translate(95.40625 0)"/>
       <use xlink:href="#DejaVuSans-1b" transform="translate(159.03125 0)"/>
      </g>
     </g>
    </g>
    <g id="xtick_6">
     <g id="line2d_6">
      <g>
       <use xlink:href="#m45faa9f462" x="886.124648" y="317.877656" style="stroke: #000000; stroke-width: 0.8"/>
      </g>
     </g>
     <g id="text_6">
      <!-- 3.10 -->
      <g transform="translate(874.991836 332.475312) scale(0.1 -0.1)">
       <defs>
        <path id="DejaVuSans-14" d="M 794 531 
L 1825 531 
L 1825 4091 
L 703 3866 
L 703 4441 
L 1819 4666 
L 2450 4666 
L 2450 531 
L 3481 531 
L 3481 0 
L 794 0 
L 794 531 
z
" transform="scale(0.015625)"/>
       </defs>
       <use xlink:href="#DejaVuSans-16"/>
       <use xlink:href="#DejaVuSans-11" transform="translate(63.625 0)"/>
       <use xlink:href="#DejaVuSans-14" transform="translate(95.40625 0)"/>
       <use xlink:href="#DejaVuSans-13" transform="translate(159.03125 0)"/>
      </g>
     </g>
    </g>
    <g id="text_7">
     <!-- chr16 coordinate (hg38) -->
     <g transform="translate(425.791328 346.476094) scale(0.1 -0.1)">
      <defs>
       <path id="DejaVuSans-46" d="M 3122 3366 
L 3122 2828 
Q 2878 2963 2633 3030 
Q 2388 3097 2138 3097 
Q 1578 3097 1268 2742 
Q 959 2388 959 1747 
Q 959 1106 1268 751 
Q 1578 397 2138 397 
Q 2388 397 2633 464 
Q 2878 531 3122 666 
L 3122 134 
Q 2881 22 2623 -34 
Q 2366 -91 2075 -91 
Q 1284 -91 818 406 
Q 353 903 353 1747 
Q 353 2603 823 3093 
Q 1294 3584 2113 3584 
Q 2378 3584 2631 3529 
Q 2884 3475 3122 3366 
z
" transform="scale(0.015625)"/>
       <path id="DejaVuSans-4b" d="M 3513 2113 
L 3513 0 
L 2938 0 
L 2938 2094 
Q 2938 2591 2744 2837 
Q 2550 3084 2163 3084 
Q 1697 3084 1428 2787 
Q 1159 2491 1159 1978 
L 1159 0 
L 581 0 
L 581 4863 
L 1159 4863 
L 1159 2956 
Q 1366 3272 1645 3428 
Q 1925 3584 2291 3584 
Q 2894 3584 3203 3211 
Q 3513 2838 3513 2113 
z
" transform="scale(0.015625)"/>
       <path id="DejaVuSans-55" d="M 2631 2963 
Q 2534 3019 2420 3045 
Q 2306 3072 2169 3072 
Q 1681 3072 1420 2755 
Q 1159 2438 1159 1844 
L 1159 0 
L 581 0 
L 581 3500 
L 1159 3500 
L 1159 2956 
Q 1341 3275 1631 3429 
Q 1922 3584 2338 3584 
Q 2397 3584 2469 3576 
Q 2541 3569 2628 3553 
L 2631 2963 
z
" transform="scale(0.015625)"/>
       <path id="DejaVuSans-3" transform="scale(0.015625)"/>
       <path id="DejaVuSans-52" d="M 1959 3097 
Q 1497 3097 1228 2736 
Q 959 2375 959 1747 
Q 959 1119 1226 758 
Q 1494 397 1959 397 
Q 2419 397 2687 759 
Q 2956 1122 2956 1747 
Q 2956 2369 2687 2733 
Q 2419 3097 1959 3097 
z
M 1959 3584 
Q 2709 3584 3137 3096 
Q 3566 2609 3566 1747 
Q 3566 888 3137 398 
Q 2709 -91 1959 -91 
Q 1206 -91 779 398 
Q 353 888 353 1747 
Q 353 2609 779 3096 
Q 1206 3584 1959 3584 
z
" transform="scale(0.015625)"/>
       <path id="DejaVuSans-47" d="M 2906 2969 
L 2906 4863 
L 3481 4863 
L 3481 0 
L 2906 0 
L 2906 525 
Q 2725 213 2448 61 
Q 2172 -91 1784 -91 
Q 1150 -91 751 415 
Q 353 922 353 1747 
Q 353 2572 751 3078 
Q 1150 3584 1784 3584 
Q 2172 3584 2448 3432 
Q 2725 3281 2906 2969 
z
M 947 1747 
Q 947 1113 1208 752 
Q 1469 391 1925 391 
Q 2381 391 2643 752 
Q 2906 1113 2906 1747 
Q 2906 2381 2643 2742 
Q 2381 3103 1925 3103 
Q 1469 3103 1208 2742 
Q 947 2381 947 1747 
z
" transform="scale(0.015625)"/>
       <path id="DejaVuSans-4c" d="M 603 3500 
L 1178 3500 
L 1178 0 
L 603 0 
L 603 3500 
z
M 603 4863 
L 1178 4863 
L 1178 4134 
L 603 4134 
L 603 4863 
z
" transform="scale(0.015625)"/>
       <path id="DejaVuSans-51" d="M 3513 2113 
L 3513 0 
L 2938 0 
L 2938 2094 
Q 2938 2591 2744 2837 
Q 2550 3084 2163 3084 
Q 1697 3084 1428 2787 
Q 1159 2491 1159 1978 
L 1159 0 
L 581 0 
L 581 3500 
L 1159 3500 
L 1159 2956 
Q 1366 3272 1645 3428 
Q 1925 3584 2291 3584 
Q 2894 3584 3203 3211 
Q 3513 2838 3513 2113 
z
" transform="scale(0.015625)"/>
       <path id="DejaVuSans-44" d="M 2194 1759 
Q 1497 1759 1228 1600 
Q 959 1441 959 1056 
Q 959 750 1161 570 
Q 1363 391 1709 391 
Q 2188 391 2477 730 
Q 2766 1069 2766 1631 
L 2766 1759 
L 2194 1759 
z
M 3341 1997 
L 3341 0 
L 2766 0 
L 2766 531 
Q 2569 213 2275 61 
Q 1981 -91 1556 -91 
Q 1019 -91 701 211 
Q 384 513 384 1019 
Q 384 1609 779 1909 
Q 1175 2209 1959 2209 
L 2766 2209 
L 2766 2266 
Q 2766 2663 2505 2880 
Q 2244 3097 1772 3097 
Q 1472 3097 1187 3025 
Q 903 2953 641 2809 
L 641 3341 
Q 956 3463 1253 3523 
Q 1550 3584 1831 3584 
Q 2591 3584 2966 3190 
Q 3341 2797 3341 1997 
z
" transform="scale(0.015625)"/>
       <path id="DejaVuSans-57" d="M 1172 4494 
L 1172 3500 
L 2356 3500 
L 2356 3053 
L 1172 3053 
L 1172 1153 
Q 1172 725 1289 603 
Q 1406 481 1766 481 
L 2356 481 
L 2356 0 
L 1766 0 
Q 1100 0 847 248 
Q 594 497 594 1153 
L 594 3053 
L 172 3053 
L 172 3500 
L 594 3500 
L 594 4494 
L 1172 4494 
z
" transform="scale(0.015625)"/>
       <path id="DejaVuSans-48" d="M 3597 1894 
L 3597 1613 
L 953 1613 
Q 991 1019 1311 708 
Q 1631 397 2203 397 
Q 2534 397 2845 478 
Q 3156 559 3463 722 
L 3463 178 
Q 3153 47 2828 -22 
Q 2503 -91 2169 -91 
Q 1331 -91 842 396 
Q 353 884 353 1716 
Q 353 2575 817 3079 
Q 1281 3584 2069 3584 
Q 2775 3584 3186 3129 
Q 3597 2675 3597 1894 
z
M 3022 2063 
Q 3016 2534 2758 2815 
Q 2500 3097 2075 3097 
Q 1594 3097 1305 2825 
Q 1016 2553 972 2059 
L 3022 2063 
z
" transform="scale(0.015625)"/>
       <path id="DejaVuSans-b" d="M 1984 4856 
Q 1566 4138 1362 3434 
Q 1159 2731 1159 2009 
Q 1159 1288 1364 580 
Q 1569 -128 1984 -844 
L 1484 -844 
Q 1016 -109 783 600 
Q 550 1309 550 2009 
Q 550 2706 781 3412 
Q 1013 4119 1484 4856 
L 1984 4856 
z
" transform="scale(0.015625)"/>
       <path id="DejaVuSans-4a" d="M 2906 1791 
Q 2906 2416 2648 2759 
Q 2391 3103 1925 3103 
Q 1463 3103 1205 2759 
Q 947 2416 947 1791 
Q 947 1169 1205 825 
Q 1463 481 1925 481 
Q 2391 481 2648 825 
Q 2906 1169 2906 1791 
z
M 3481 434 
Q 3481 -459 3084 -895 
Q 2688 -1331 1869 -1331 
Q 1566 -1331 1297 -1286 
Q 1028 -1241 775 -1147 
L 775 -588 
Q 1028 -725 1275 -790 
Q 1522 -856 1778 -856 
Q 2344 -856 2625 -561 
Q 2906 -266 2906 331 
L 2906 616 
Q 2728 306 2450 153 
Q 2172 0 1784 0 
Q 1141 0 747 490 
Q 353 981 353 1791 
Q 353 2603 747 3093 
Q 1141 3584 1784 3584 
Q 2172 3584 2450 3431 
Q 2728 3278 2906 2969 
L 2906 3500 
L 3481 3500 
L 3481 434 
z
" transform="scale(0.015625)"/>
       <path id="DejaVuSans-c" d="M 513 4856 
L 1013 4856 
Q 1481 4119 1714 3412 
Q 1947 2706 1947 2009 
Q 1947 1309 1714 600 
Q 1481 -109 1013 -844 
L 513 -844 
Q 928 -128 1133 580 
Q 1338 1288 1338 2009 
Q 1338 2731 1133 3434 
Q 928 4138 513 4856 
z
" transform="scale(0.015625)"/>
      </defs>
      <use xlink:href="#DejaVuSans-46"/>
      <use xlink:href="#DejaVuSans-4b" transform="translate(54.984375 0)"/>
      <use xlink:href="#DejaVuSans-55" transform="translate(118.359375 0)"/>
      <use xlink:href="#DejaVuSans-14" transform="translate(159.46875 0)"/>
      <use xlink:href="#DejaVuSans-19" transform="translate(223.09375 0)"/>
      <use xlink:href="#DejaVuSans-3" transform="translate(286.71875 0)"/>
      <use xlink:href="#DejaVuSans-46" transform="translate(318.5 0)"/>
      <use xlink:href="#DejaVuSans-52" transform="translate(373.484375 0)"/>
      <use xlink:href="#DejaVuSans-52" transform="translate(434.671875 0)"/>
      <use xlink:href="#DejaVuSans-55" transform="translate(495.859375 0)"/>
      <use xlink:href="#DejaVuSans-47" transform="translate(535.21875 0)"/>
      <use xlink:href="#DejaVuSans-4c" transform="translate(598.703125 0)"/>
      <use xlink:href="#DejaVuSans-51" transform="translate(626.484375 0)"/>
      <use xlink:href="#DejaVuSans-44" transform="translate(689.859375 0)"/>
      <use xlink:href="#DejaVuSans-57" transform="translate(751.140625 0)"/>
      <use xlink:href="#DejaVuSans-48" transform="translate(790.34375 0)"/>
      <use xlink:href="#DejaVuSans-3" transform="translate(851.875 0)"/>
      <use xlink:href="#DejaVuSans-b" transform="translate(883.65625 0)"/>
      <use xlink:href="#DejaVuSans-4b" transform="translate(922.671875 0)"/>
      <use xlink:href="#DejaVuSans-4a" transform="translate(986.046875 0)"/>
      <use xlink:href="#DejaVuSans-16" transform="translate(1049.53125 0)"/>
      <use xlink:href="#DejaVuSans-1b" transform="translate(1113.15625 0)"/>
      <use xlink:href="#DejaVuSans-c" transform="translate(1176.78125 0)"/>
     </g>
    </g>
    <g id="text_8">
     <!-- 1e6 -->
     <g transform="translate(906.321875 345.475312) scale(0.1 -0.1)">
      <use xlink:href="#DejaVuSans-14"/>
      <use xlink:href="#DejaVuSans-48" transform="translate(63.625 0)"/>
      <use xlink:href="#DejaVuSans-19" transform="translate(125.15625 0)"/>
     </g>
    </g>
   </g>
   <g id="matplotlib.axis_2">
    <g id="ytick_1">
     <g id="line2d_7">
      <defs>
       <path id="mbcff60a668" d="M 0 0 
L -3.5 0 
" style="stroke: #000000; stroke-width: 0.8"/>
      </defs>
      <g>
       <use xlink:href="#mbcff60a668" x="47.962344" y="305.741868" style="stroke: #000000; stroke-width: 0.8"/>
      </g>
     </g>
     <g id="text_9">
      <!-- 0.0 -->
      <g transform="translate(25.059219 309.540696) scale(0.1 -0.1)">
       <use xlink:href="#DejaVuSans-13"/>
       <use xlink:href="#DejaVuSans-11" transform="translate(63.625 0)"/>
       <use xlink:href="#DejaVuSans-13" transform="translate(95.40625 0)"/>
      </g>
     </g>
    </g>
    <g id="ytick_2">
     <g id="line2d_8">
      <g>
       <use xlink:href="#mbcff60a668" x="47.962344" y="257.198714" style="stroke: #000000; stroke-width: 0.8"/>
      </g>
     </g>
     <g id="text_10">
      <!-- 0.2 -->
      <g transform="translate(25.059219 260.997543) scale(0.1 -0.1)">
       <use xlink:href="#DejaVuSans-13"/>
       <use xlink:href="#DejaVuSans-11" transform="translate(63.625 0)"/>
       <use xlink:href="#DejaVuSans-15" transform="translate(95.40625 0)"/>
      </g>
     </g>
    </g>
    <g id="ytick_3">
     <g id="line2d_9">
      <g>
       <use xlink:href="#mbcff60a668" x="47.962344" y="208.655561" style="stroke: #000000; stroke-width: 0.8"/>
      </g>
     </g>
     <g id="text_11">
      <!-- 0.4 -->
      <g transform="translate(25.059219 212.454389) scale(0.1 -0.1)">
       <use xlink:href="#DejaVuSans-13"/>
       <use xlink:href="#DejaVuSans-11" transform="translate(63.625 0)"/>
       <use xlink:href="#DejaVuSans-17" transform="translate(95.40625 0)"/>
      </g>
     </g>
    </g>
    <g id="ytick_4">
     <g id="line2d_10">
      <g>
       <use xlink:href="#mbcff60a668" x="47.962344" y="160.112408" style="stroke: #000000; stroke-width: 0.8"/>
      </g>
     </g>
     <g id="text_12">
      <!-- 0.6 -->
      <g transform="translate(25.059219 163.911236) scale(0.1 -0.1)">
       <use xlink:href="#DejaVuSans-13"/>
       <use xlink:href="#DejaVuSans-11" transform="translate(63.625 0)"/>
       <use xlink:href="#DejaVuSans-19" transform="translate(95.40625 0)"/>
      </g>
     </g>
    </g>
    <g id="ytick_5">
     <g id="line2d_11">
      <g>
       <use xlink:href="#mbcff60a668" x="47.962344" y="111.569254" style="stroke: #000000; stroke-width: 0.8"/>
      </g>
     </g>
     <g id="text_13">
      <!-- 0.8 -->
      <g transform="translate(25.059219 115.368082) scale(0.1 -0.1)">
       <use xlink:href="#DejaVuSans-13"/>
       <use xlink:href="#DejaVuSans-11" transform="translate(63.625 0)"/>
       <use xlink:href="#DejaVuSans-1b" transform="translate(95.40625 0)"/>
      </g>
     </g>
    </g>
    <g id="ytick_6">
     <g id="line2d_12">
      <g>
       <use xlink:href="#mbcff60a668" x="47.962344" y="63.026101" style="stroke: #000000; stroke-width: 0.8"/>
      </g>
     </g>
     <g id="text_14">
      <!-- 1.0 -->
      <g transform="translate(25.059219 66.824929) scale(0.1 -0.1)">
       <use xlink:href="#DejaVuSans-14"/>
       <use xlink:href="#DejaVuSans-11" transform="translate(63.625 0)"/>
       <use xlink:href="#DejaVuSans-13" transform="translate(95.40625 0)"/>
      </g>
     </g>
    </g>
    <g id="text_15">
     <!-- global robust normalized signal -->
     <g transform="translate(18.656875 262.887109) rotate(-90) scale(0.1 -0.1)">
      <defs>
       <path id="DejaVuSans-4f" d="M 603 4863 
L 1178 4863 
L 1178 0 
L 603 0 
L 603 4863 
z
" transform="scale(0.015625)"/>
       <path id="DejaVuSans-45" d="M 3116 1747 
Q 3116 2381 2855 2742 
Q 2594 3103 2138 3103 
Q 1681 3103 1420 2742 
Q 1159 2381 1159 1747 
Q 1159 1113 1420 752 
Q 1681 391 2138 391 
Q 2594 391 2855 752 
Q 3116 1113 3116 1747 
z
M 1159 2969 
Q 1341 3281 1617 3432 
Q 1894 3584 2278 3584 
Q 2916 3584 3314 3078 
Q 3713 2572 3713 1747 
Q 3713 922 3314 415 
Q 2916 -91 2278 -91 
Q 1894 -91 1617 61 
Q 1341 213 1159 525 
L 1159 0 
L 581 0 
L 581 4863 
L 1159 4863 
L 1159 2969 
z
" transform="scale(0.015625)"/>
       <path id="DejaVuSans-58" d="M 544 1381 
L 544 3500 
L 1119 3500 
L 1119 1403 
Q 1119 906 1312 657 
Q 1506 409 1894 409 
Q 2359 409 2629 706 
Q 2900 1003 2900 1516 
L 2900 3500 
L 3475 3500 
L 3475 0 
L 2900 0 
L 2900 538 
Q 2691 219 2414 64 
Q 2138 -91 1772 -91 
Q 1169 -91 856 284 
Q 544 659 544 1381 
z
M 1991 3584 
L 1991 3584 
z
" transform="scale(0.015625)"/>
       <path id="DejaVuSans-56" d="M 2834 3397 
L 2834 2853 
Q 2591 2978 2328 3040 
Q 2066 3103 1784 3103 
Q 1356 3103 1142 2972 
Q 928 2841 928 2578 
Q 928 2378 1081 2264 
Q 1234 2150 1697 2047 
L 1894 2003 
Q 2506 1872 2764 1633 
Q 3022 1394 3022 966 
Q 3022 478 2636 193 
Q 2250 -91 1575 -91 
Q 1294 -91 989 -36 
Q 684 19 347 128 
L 347 722 
Q 666 556 975 473 
Q 1284 391 1588 391 
Q 1994 391 2212 530 
Q 2431 669 2431 922 
Q 2431 1156 2273 1281 
Q 2116 1406 1581 1522 
L 1381 1569 
Q 847 1681 609 1914 
Q 372 2147 372 2553 
Q 372 3047 722 3315 
Q 1072 3584 1716 3584 
Q 2034 3584 2315 3537 
Q 2597 3491 2834 3397 
z
" transform="scale(0.015625)"/>
       <path id="DejaVuSans-50" d="M 3328 2828 
Q 3544 3216 3844 3400 
Q 4144 3584 4550 3584 
Q 5097 3584 5394 3201 
Q 5691 2819 5691 2113 
L 5691 0 
L 5113 0 
L 5113 2094 
Q 5113 2597 4934 2840 
Q 4756 3084 4391 3084 
Q 3944 3084 3684 2787 
Q 3425 2491 3425 1978 
L 3425 0 
L 2847 0 
L 2847 2094 
Q 2847 2600 2669 2842 
Q 2491 3084 2119 3084 
Q 1678 3084 1418 2786 
Q 1159 2488 1159 1978 
L 1159 0 
L 581 0 
L 581 3500 
L 1159 3500 
L 1159 2956 
Q 1356 3278 1631 3431 
Q 1906 3584 2284 3584 
Q 2666 3584 2933 3390 
Q 3200 3197 3328 2828 
z
" transform="scale(0.015625)"/>
       <path id="DejaVuSans-5d" d="M 353 3500 
L 3084 3500 
L 3084 2975 
L 922 459 
L 3084 459 
L 3084 0 
L 275 0 
L 275 525 
L 2438 3041 
L 353 3041 
L 353 3500 
z
" transform="scale(0.015625)"/>
      </defs>
      <use xlink:href="#DejaVuSans-4a"/>
      <use xlink:href="#DejaVuSans-4f" transform="translate(63.484375 0)"/>
      <use xlink:href="#DejaVuSans-52" transform="translate(91.265625 0)"/>
      <use xlink:href="#DejaVuSans-45" transform="translate(152.453125 0)"/>
      <use xlink:href="#DejaVuSans-44" transform="translate(215.9375 0)"/>
      <use xlink:href="#DejaVuSans-4f" transform="translate(277.21875 0)"/>
      <use xlink:href="#DejaVuSans-3" transform="translate(305 0)"/>
      <use xlink:href="#DejaVuSans-55" transform="translate(336.78125 0)"/>
      <use xlink:href="#DejaVuSans-52" transform="translate(375.6875 0)"/>
      <use xlink:href="#DejaVuSans-45" transform="translate(436.875 0)"/>
      <use xlink:href="#DejaVuSans-58" transform="translate(500.359375 0)"/>
      <use xlink:href="#DejaVuSans-56" transform="translate(563.734375 0)"/>
      <use xlink:href="#DejaVuSans-57" transform="translate(615.828125 0)"/>
      <use xlink:href="#DejaVuSans-3" transform="translate(655.03125 0)"/>
      <use xlink:href="#DejaVuSans-51" transform="translate(686.8125 0)"/>
      <use xlink:href="#DejaVuSans-52" transform="translate(750.1875 0)"/>
      <use xlink:href="#DejaVuSans-55" transform="translate(811.375 0)"/>
      <use xlink:href="#DejaVuSans-50" transform="translate(850.734375 0)"/>
      <use xlink:href="#DejaVuSans-44" transform="translate(948.140625 0)"/>
      <use xlink:href="#DejaVuSans-4f" transform="translate(1009.421875 0)"/>
      <use xlink:href="#DejaVuSans-4c" transform="translate(1037.203125 0)"/>
      <use xlink:href="#DejaVuSans-5d" transform="translate(1064.984375 0)"/>
      <use xlink:href="#DejaVuSans-48" transform="translate(1117.46875 0)"/>
      <use xlink:href="#DejaVuSans-47" transform="translate(1179 0)"/>
      <use xlink:href="#DejaVuSans-3" transform="translate(1242.484375 0)"/>
      <use xlink:href="#DejaVuSans-56" transform="translate(1274.265625 0)"/>
      <use xlink:href="#DejaVuSans-4c" transform="translate(1326.359375 0)"/>
      <use xlink:href="#DejaVuSans-4a" transform="translate(1354.140625 0)"/>
      <use xlink:href="#DejaVuSans-51" transform="translate(1417.625 0)"/>
      <use xlink:href="#DejaVuSans-44" transform="translate(1481 0)"/>
      <use xlink:href="#DejaVuSans-4f" transform="translate(1542.28125 0)"/>
     </g>
    </g>
   </g>
   <g id="line2d_13">
    <path d="M 87.836783 301.545429 
L 89.434957 301.136933 
L 91.03313 294.946392 
L 92.631304 294.071469 
L 94.229478 299.071652 
L 95.827652 301.711827 
L 97.425826 301.620801 
L 99.024 303.065313 
L 100.622174 299.47263 
L 102.220348 300.042248 
L 103.818522 300.327285 
L 105.416696 299.962155 
L 107.01487 301.902459 
L 108.613043 299.762521 
L 110.211217 297.813499 
L 111.809391 302.265249 
L 113.407565 304.835455 
L 115.005739 293.451114 
L 116.603913 283.465617 
L 118.202087 299.329045 
L 119.800261 290.024026 
L 121.398435 164.064965 
L 122.996609 130.291299 
L 124.594782 223.303676 
L 126.192956 188.149405 
L 127.79113 194.570848 
L 129.389304 267.754396 
L 130.987478 293.334228 
L 132.585652 300.885259 
L 134.183826 302.122209 
L 135.782 296.260099 
L 137.380174 299.768386 
L 138.978348 302.956844 
L 140.576522 299.068407 
L 142.174695 300.937966 
L 143.772869 304.399837 
L 145.371043 298.49624 
L 146.969217 297.938745 
L 148.567391 303.297071 
L 150.165565 297.619884 
L 151.763739 299.250595 
L 153.361913 302.598979 
L 154.960087 302.044215 
L 156.558261 302.806884 
L 158.156434 297.708005 
L 159.754608 302.069224 
L 161.352782 300.000591 
L 162.950956 303.041838 
L 164.54913 304.573179 
L 167.745478 300.973009 
L 169.343652 303.112636 
L 170.941826 303.202554 
L 172.54 302.220214 
L 174.138174 303.337813 
L 175.736347 304.147012 
L 177.334521 302.355518 
L 178.932695 303.565029 
L 180.530869 303.197662 
L 182.129043 303.820248 
L 183.727217 301.88028 
L 185.325391 304.307896 
L 186.923565 298.56185 
L 188.521739 298.604337 
L 190.119913 299.642192 
L 191.718086 299.604717 
L 193.31626 301.440304 
L 194.914434 293.489584 
L 196.512608 290.525445 
L 198.110782 291.982458 
L 199.708956 291.466412 
L 201.30713 301.75505 
L 202.905304 301.478549 
L 204.503478 299.349171 
L 206.101652 303.235983 
L 207.699826 297.17342 
L 209.297999 298.954576 
L 210.896173 304.877789 
L 212.494347 303.048288 
L 214.092521 304.421041 
L 215.690695 304.061378 
L 217.288869 305.127734 
L 218.887043 305.564043 
L 220.485217 303.929196 
L 222.083391 303.541523 
L 223.681565 301.737889 
L 225.279738 304.114484 
L 226.877912 303.378843 
L 228.476086 304.16913 
L 230.07426 304.236937 
L 231.672434 303.466811 
L 233.270608 301.937262 
L 234.868782 300.204328 
L 236.466956 301.063648 
L 238.06513 298.670079 
L 239.663304 300.75356 
L 241.261478 301.758819 
L 242.859651 300.075992 
L 244.457825 297.985705 
L 246.055999 269.91863 
L 247.654173 187.983197 
L 249.252347 190.103713 
L 250.850521 63.026101 
L 252.448695 63.026101 
L 254.046869 134.636914 
L 255.645043 167.711345 
L 257.243217 66.973769 
L 258.84139 153.315908 
L 260.439564 122.242429 
L 262.037738 161.236961 
L 263.635912 191.819488 
L 265.234086 217.049875 
L 266.83226 277.580718 
L 268.430434 239.803528 
L 270.028608 255.397833 
L 271.626782 241.429806 
L 273.224956 246.666302 
L 274.82313 213.831097 
L 276.421303 135.138988 
L 278.019477 141.581672 
L 279.617651 175.764219 
L 281.215825 254.429052 
L 282.813999 226.511457 
L 284.412173 242.32939 
L 286.010347 277.345255 
L 287.608521 293.182349 
L 289.206695 302.192696 
L 290.804869 297.453361 
L 292.403042 299.802189 
L 294.001216 303.026178 
L 295.59939 302.304512 
L 297.197564 299.217943 
L 298.795738 301.791597 
L 300.393912 303.297348 
L 301.992086 304.234669 
L 303.59026 304.837487 
L 305.188434 302.850273 
L 306.786608 300.015691 
L 308.384782 303.234332 
L 309.982955 296.030152 
L 311.581129 287.66454 
L 313.179303 295.672325 
L 314.777477 300.392149 
L 316.375651 296.025678 
L 317.973825 296.941446 
L 319.571999 301.663453 
L 321.170173 303.547119 
L 322.768347 303.7515 
L 324.366521 302.907649 
L 325.964694 304.446864 
L 327.562868 301.711923 
L 329.161042 299.534851 
L 330.759216 299.652712 
L 332.35739 298.260225 
L 333.955564 303.146027 
L 335.553738 302.237829 
L 337.151912 300.565785 
L 338.750086 303.688887 
L 340.34826 303.103552 
L 341.946434 299.022606 
L 343.544607 301.087216 
L 346.740955 303.242862 
L 348.339129 298.414547 
L 349.937303 300.386284 
L 351.535477 305.741868 
L 353.133651 305.147206 
L 354.731825 302.226077 
L 356.329999 302.308163 
L 357.928173 295.454335 
L 359.526346 294.733138 
L 361.12452 298.947752 
L 362.722694 302.211424 
L 364.320868 298.840313 
L 365.919042 299.560798 
L 367.517216 299.385351 
L 369.11539 298.203487 
L 370.713564 296.268084 
L 372.311738 298.758417 
L 373.909912 297.280769 
L 375.508086 287.319578 
L 377.106259 265.107059 
L 378.704433 269.378584 
L 380.302607 284.606355 
L 381.900781 294.26945 
L 383.498955 296.327075 
L 385.097129 301.016046 
L 386.695303 302.008005 
L 388.293477 301.15765 
L 389.891651 295.58291 
L 391.489825 299.305905 
L 393.087998 296.57254 
L 394.686172 289.653132 
L 396.284346 293.004777 
L 397.88252 300.176294 
L 399.480694 297.389118 
L 401.078868 296.705306 
L 402.677042 298.451272 
L 404.275216 302.434324 
L 405.87339 300.185798 
L 407.471564 302.005033 
L 409.069738 301.33435 
L 410.667911 301.384078 
L 412.266085 305.741868 
L 417.060607 303.247663 
L 418.658781 298.776888 
L 420.256955 298.1141 
L 421.855129 301.202438 
L 423.453303 303.628141 
L 425.051477 299.081127 
L 426.64965 300.289013 
L 428.247824 302.280247 
L 429.845998 300.420835 
L 431.444172 304.965841 
L 433.042346 304.554822 
L 434.64052 298.982212 
L 436.238694 295.138272 
L 437.836868 296.122554 
L 439.435042 296.774742 
L 441.033216 299.19527 
L 442.631389 302.276207 
L 444.229563 299.527837 
L 445.827737 296.197952 
L 447.425911 296.378062 
L 449.024085 284.693095 
L 450.622259 240.89497 
L 452.220433 189.497465 
L 453.818607 130.392285 
L 455.416781 63.354083 
L 457.014955 95.152362 
L 458.613129 170.701636 
L 460.211302 218.281384 
L 461.809476 277.865355 
L 463.40765 295.987066 
L 466.603998 303.241266 
L 468.202172 302.43434 
L 469.800346 301.44372 
L 471.39852 298.299473 
L 472.996694 299.410178 
L 474.594868 300.146248 
L 476.193041 295.681509 
L 477.791215 297.836965 
L 479.389389 299.42831 
L 480.987563 300.310286 
L 482.585737 305.277691 
L 484.183911 303.981807 
L 485.782085 304.073461 
L 487.380259 302.945953 
L 488.978433 304.278836 
L 490.576607 304.011613 
L 493.772954 300.445421 
L 495.371128 303.004251 
L 496.969302 302.859676 
L 498.567476 304.281265 
L 500.16565 302.70959 
L 503.361998 305.737172 
L 504.960172 303.118258 
L 506.558346 303.028884 
L 508.15652 305.450529 
L 509.754693 305.741868 
L 511.352867 304.831459 
L 512.951041 300.692163 
L 514.549215 302.816444 
L 516.147389 305.741868 
L 517.745563 303.856382 
L 519.343737 303.56817 
L 520.941911 304.470583 
L 522.540085 304.810636 
L 524.138259 303.410176 
L 525.736433 303.412793 
L 527.334606 304.282948 
L 528.93278 302.087898 
L 530.530954 298.212902 
L 532.129128 303.390631 
L 533.727302 303.635854 
L 535.325476 302.761957 
L 538.521824 303.297623 
L 540.119998 301.630191 
L 541.718172 299.572448 
L 543.316345 296.49944 
L 544.914519 301.234138 
L 546.512693 301.524877 
L 549.709041 299.473066 
L 551.307215 292.296137 
L 552.905389 289.757265 
L 554.503563 243.175831 
L 556.101737 206.221803 
L 557.699911 156.091739 
L 559.298085 63.026101 
L 560.896258 181.218497 
L 562.494432 230.782448 
L 564.092606 188.076056 
L 565.69078 269.593312 
L 567.288954 296.285622 
L 568.887128 299.336437 
L 570.485302 301.182286 
L 572.083476 301.490583 
L 575.279824 300.381599 
L 576.877997 303.577632 
L 578.476171 301.929967 
L 580.074345 302.266967 
L 581.672519 302.436093 
L 583.270693 301.733028 
L 584.868867 297.788191 
L 586.467041 300.976439 
L 588.065215 301.348688 
L 589.663389 304.132808 
L 591.261563 303.385223 
L 592.859737 304.30028 
L 594.45791 303.71491 
L 596.056084 302.364145 
L 597.654258 302.88335 
L 599.252432 301.863786 
L 600.850606 302.834596 
L 602.44878 301.766598 
L 604.046954 296.505807 
L 605.645128 297.359532 
L 607.243302 298.721609 
L 608.841476 298.739205 
L 610.439649 286.718915 
L 612.037823 275.573026 
L 613.635997 282.092311 
L 615.234171 293.039804 
L 616.832345 300.604431 
L 618.430519 301.129534 
L 620.028693 302.498169 
L 621.626867 302.229933 
L 623.225041 301.245706 
L 624.823215 302.969487 
L 626.421389 300.058575 
L 628.019562 300.975211 
L 629.617736 300.310232 
L 631.21591 298.812545 
L 632.814084 298.742881 
L 634.412258 302.045642 
L 636.010432 303.849933 
L 637.608606 301.766995 
L 639.20678 305.317018 
L 640.804954 304.060674 
L 642.403128 303.820454 
L 644.001301 303.766093 
L 645.599475 303.498611 
L 647.197649 299.607037 
L 648.795823 301.584386 
L 650.393997 303.94538 
L 651.992171 304.339853 
L 653.590345 305.068174 
L 655.188519 304.740441 
L 656.786693 301.297567 
L 658.384867 300.078456 
L 661.581214 301.078419 
L 663.179388 305.582506 
L 664.777562 305.741868 
L 666.375736 305.57799 
L 667.97391 305.741868 
L 669.572084 305.250244 
L 671.170258 304.109254 
L 672.768432 305.310952 
L 674.366606 304.245197 
L 675.96478 305.58835 
L 677.562953 303.741291 
L 679.161127 297.787013 
L 680.759301 302.379477 
L 682.357475 303.350589 
L 683.955649 302.373418 
L 685.553823 303.611549 
L 687.151997 303.561701 
L 688.750171 304.581295 
L 690.348345 303.302522 
L 691.946519 304.364802 
L 693.544693 302.488727 
L 696.74104 301.202015 
L 698.339214 300.040142 
L 699.937388 299.849516 
L 701.535562 301.102966 
L 703.133736 300.926123 
L 704.73191 299.704861 
L 706.330084 297.643425 
L 707.928258 296.496246 
L 709.526432 291.352391 
L 711.124605 302.822506 
L 712.722779 304.528269 
L 714.320953 302.201464 
L 715.919127 299.405998 
L 717.517301 301.344404 
L 719.115475 300.625032 
L 720.713649 302.865026 
L 722.311823 302.136693 
L 723.909997 299.648246 
L 725.508171 298.90777 
L 727.106345 295.085624 
L 728.704518 301.135247 
L 730.302692 298.064146 
L 731.900866 300.164118 
L 733.49904 300.777844 
L 735.097214 298.50826 
L 736.695388 305.594841 
L 738.293562 302.464458 
L 739.891736 305.037845 
L 741.48991 303.993917 
L 743.088084 301.99105 
L 744.686257 305.142243 
L 746.284431 305.741868 
L 747.882605 304.328928 
L 749.480779 302.271707 
L 751.078953 300.450277 
L 752.677127 300.21877 
L 754.275301 299.842463 
L 755.873475 302.264159 
L 757.471649 298.913863 
L 759.069823 301.65114 
L 760.667997 302.276266 
L 762.26617 304.644094 
L 763.864344 300.960084 
L 765.462518 298.094524 
L 767.060692 298.476628 
L 768.658866 300.516885 
L 770.25704 301.860541 
L 771.855214 302.661195 
L 773.453388 299.58458 
L 775.051562 300.338654 
L 776.649736 301.286432 
L 778.247909 304.525104 
L 779.846083 303.971939 
L 781.444257 301.018259 
L 783.042431 301.372373 
L 784.640605 299.506782 
L 786.238779 302.56296 
L 787.836953 304.662391 
L 789.435127 302.769558 
L 791.033301 299.68467 
L 792.631475 301.42309 
L 794.229649 301.661456 
L 795.827822 299.951715 
L 797.425996 299.982051 
L 799.02417 301.153467 
L 800.622344 303.314163 
L 802.220518 303.198821 
L 803.818692 303.787555 
L 805.416866 299.951699 
L 807.01504 301.79681 
L 808.613214 302.367345 
L 810.211388 300.686106 
L 811.809561 304.612978 
L 813.407735 305.42019 
L 815.005909 302.158818 
L 816.604083 302.566195 
L 818.202257 303.994069 
L 819.800431 302.505769 
L 821.398605 300.595054 
L 822.996779 302.043855 
L 824.594953 302.913559 
L 826.193127 300.595063 
L 827.791301 300.849995 
L 829.389474 300.161899 
L 830.987648 303.340018 
L 832.585822 302.640012 
L 834.183996 299.7402 
L 835.78217 301.15347 
L 837.380344 299.593607 
L 838.978518 300.176422 
L 840.576692 304.769796 
L 842.174866 305.004029 
L 843.77304 301.072412 
L 845.371213 297.520356 
L 846.969387 299.533915 
L 848.567561 301.174125 
L 850.165735 302.189508 
L 851.763909 302.434072 
L 853.362083 297.947563 
L 854.960257 300.660697 
L 856.558431 300.568129 
L 858.156605 298.931055 
L 859.754779 301.145006 
L 861.352953 303.028818 
L 862.951126 299.881539 
L 864.5493 298.793907 
L 866.147474 300.917022 
L 867.745648 299.418601 
L 869.343822 301.296966 
L 870.941996 305.100485 
L 872.54017 304.493376 
L 874.138344 304.17518 
L 875.736518 305.11926 
L 877.334692 304.339856 
L 878.932865 304.223306 
L 880.531039 304.218193 
L 882.129213 303.62532 
L 883.727387 303.92386 
L 885.325561 296.432893 
L 885.325561 296.432893 
" clip-path="url(#p6ef677e4e8)" style="fill: none; stroke: #2ca02c; stroke-width: 1.2; stroke-linecap: square"/>
   </g>
   <g id="line2d_14">
    <path d="M 87.836783 302.671895 
L 89.434957 302.541536 
L 92.631304 302.981497 
L 94.229478 303.628403 
L 95.827652 304.039034 
L 99.024 303.647957 
L 100.622174 302.994533 
L 102.220348 302.9098 
L 103.818522 303.141187 
L 105.416696 303.555076 
L 107.01487 304.205242 
L 108.613043 303.850014 
L 111.809391 302.248228 
L 113.407565 300.838722 
L 115.005739 292.290436 
L 116.603913 281.519529 
L 118.202087 298.313018 
L 119.800261 283.207677 
L 121.398435 207.231234 
L 122.996609 186.660595 
L 124.594782 191.614234 
L 126.192956 199.957206 
L 129.389304 267.913316 
L 130.987478 278.446317 
L 132.585652 287.763722 
L 134.183826 291.876546 
L 135.782 296.677013 
L 137.380174 297.921941 
L 138.978348 300.309139 
L 140.576522 300.27329 
L 142.174695 300.358024 
L 143.772869 301.824562 
L 145.371043 301.79686 
L 146.969217 301.643689 
L 148.567391 302.070614 
L 151.763739 302.202603 
L 153.361913 302.202603 
L 154.960087 302.711002 
L 156.558261 302.683301 
L 158.156434 303.321245 
L 159.754608 303.562409 
L 161.352782 303.413311 
L 162.950956 301.992399 
L 164.54913 301.16462 
L 166.147304 300.884348 
L 167.745478 301.48074 
L 169.343652 300.985376 
L 170.941826 302.578199 
L 172.54 303.397831 
L 174.138174 303.467084 
L 175.736347 304.452924 
L 177.334521 305.235892 
L 178.932695 304.926289 
L 180.530869 304.336415 
L 188.521739 302.196085 
L 190.119913 301.906036 
L 191.718086 300.807762 
L 193.31626 300.615483 
L 194.914434 301.3846 
L 196.512608 302.618122 
L 198.110782 303.077637 
L 199.708956 302.916318 
L 201.30713 302.867433 
L 202.905304 303.169703 
L 204.503478 303.669955 
L 206.101652 303.985261 
L 207.699826 303.781575 
L 209.297999 303.926599 
L 210.896173 304.449665 
L 212.494347 304.583283 
L 217.288869 303.833719 
L 218.887043 304.586542 
L 220.485217 305.741868 
L 222.083391 305.043613 
L 225.279738 300.450904 
L 226.877912 299.851253 
L 228.476086 297.462426 
L 230.07426 292.241551 
L 231.672434 292.587002 
L 233.270608 298.638915 
L 234.868782 300.520972 
L 236.466956 301.67139 
L 238.06513 304.033331 
L 239.663304 304.720974 
L 241.261478 303.600702 
L 242.859651 300.454163 
L 244.457825 294.865024 
L 246.055999 257.543263 
L 247.654173 225.129515 
L 249.252347 211.963263 
L 250.850521 63.026101 
L 254.046869 63.026101 
L 255.645043 95.04434 
L 257.243217 63.026101 
L 258.84139 126.539057 
L 260.439564 134.934172 
L 262.037738 160.171661 
L 263.635912 175.319368 
L 265.234086 211.507007 
L 266.83226 243.23637 
L 268.430434 212.210945 
L 270.028608 211.324505 
L 271.626782 216.382431 
L 273.224956 207.830885 
L 274.82313 184.209847 
L 276.421303 122.106853 
L 278.019477 119.082526 
L 279.617651 165.177444 
L 281.215825 207.935172 
L 282.813999 240.811694 
L 284.412173 254.69492 
L 286.010347 284.038715 
L 287.608521 294.519573 
L 289.206695 295.262619 
L 290.804869 298.942 
L 292.403042 300.618742 
L 294.001216 300.892495 
L 297.197564 301.865299 
L 298.795738 301.635541 
L 300.393912 301.886482 
L 301.992086 302.443767 
L 303.59026 302.365551 
L 306.786608 302.629528 
L 308.384782 302.029877 
L 309.982955 299.289081 
L 311.581129 292.388205 
L 313.179303 297.791582 
L 314.777477 298.691059 
L 316.375651 299.411292 
L 317.973825 302.05269 
L 319.571999 302.756628 
L 321.170173 302.988015 
L 322.768347 302.965202 
L 324.366521 302.468209 
L 325.964694 302.389994 
L 327.562868 303.700101 
L 330.759216 304.923031 
L 332.35739 305.095756 
L 333.955564 304.974359 
L 335.553738 304.689199 
L 337.151912 304.138433 
L 338.750086 302.549683 
L 340.34826 301.909295 
L 341.946434 303.25851 
L 343.544607 302.671895 
L 346.740955 302.833214 
L 348.339129 302.810401 
L 349.937303 303.364427 
L 351.535477 304.068365 
L 356.329999 303.180295 
L 357.928173 302.789218 
L 359.526346 302.730556 
L 362.722694 303.907046 
L 364.320868 303.995038 
L 365.919042 303.821498 
L 367.517216 304.021924 
L 369.11539 303.731061 
L 370.713564 301.7659 
L 372.311738 299.065841 
L 373.909912 295.428827 
L 375.508086 288.216719 
L 378.704433 264.849881 
L 380.302607 261.564836 
L 381.900781 271.576402 
L 383.498955 284.9773 
L 385.097129 296.874181 
L 386.695303 300.622001 
L 388.293477 302.381846 
L 389.891651 302.088539 
L 391.489825 301.316162 
L 393.087998 301.091293 
L 394.686172 301.246094 
L 396.284346 301.25913 
L 397.88252 301.57525 
L 399.480694 301.360158 
L 401.078868 302.078762 
L 402.677042 302.290595 
L 404.275216 301.630653 
L 405.87339 301.979363 
L 407.471564 304.061032 
L 409.069738 304.222351 
L 410.667911 303.678917 
L 412.266085 304.420334 
L 413.864259 305.540606 
L 415.462433 304.582468 
L 417.060607 303.427162 
L 418.658781 302.974165 
L 421.855129 303.985261 
L 423.453303 303.938006 
L 425.051477 303.682176 
L 428.247824 302.515464 
L 429.845998 302.855212 
L 431.444172 303.839422 
L 433.042346 304.285086 
L 434.64052 303.618626 
L 436.238694 303.633292 
L 437.836868 303.781575 
L 439.435042 302.989645 
L 441.033216 302.329703 
L 442.631389 302.200973 
L 444.229563 301.470963 
L 445.827737 299.681787 
L 447.425911 294.271891 
L 449.024085 274.75716 
L 450.622259 247.929292 
L 452.220433 223.343598 
L 453.818607 196.776448 
L 455.416781 187.051672 
L 457.014955 194.508203 
L 458.613129 216.252072 
L 460.211302 234.450179 
L 461.809476 259.335698 
L 463.40765 280.303932 
L 465.005824 292.860756 
L 466.603998 298.550923 
L 469.800346 303.017346 
L 471.39852 302.94076 
L 472.996694 302.176531 
L 474.594868 302.140682 
L 476.193041 302.704484 
L 477.791215 303.594184 
L 479.389389 303.310653 
L 482.585737 303.425532 
L 487.380259 304.136803 
L 488.978433 303.792982 
L 490.576607 303.221846 
L 493.772954 303.056454 
L 496.969302 303.392943 
L 498.567476 302.780256 
L 500.16565 302.632787 
L 501.763824 303.967337 
L 503.361998 304.451294 
L 504.960172 303.677288 
L 509.754693 303.6724 
L 511.352867 303.770169 
L 512.951041 303.71884 
L 514.549215 303.476046 
L 516.147389 303.459752 
L 517.745563 303.637366 
L 519.343737 303.948598 
L 520.941911 304.997172 
L 522.540085 305.741868 
L 525.736433 303.962448 
L 527.334606 303.527375 
L 528.93278 303.532264 
L 530.530954 303.120004 
L 532.129128 303.06786 
L 533.727302 303.382351 
L 535.325476 303.885862 
L 536.92365 303.251992 
L 538.521824 303.017346 
L 540.119998 302.639305 
L 541.718172 302.833214 
L 543.316345 303.204737 
L 544.914519 303.185183 
L 546.512693 302.530129 
L 548.110867 301.457927 
L 549.709041 299.052805 
L 551.307215 293.476702 
L 552.905389 270.220669 
L 554.503563 229.522611 
L 556.101737 180.273008 
L 557.699911 107.871658 
L 559.298085 63.026101 
L 560.896258 138.805832 
L 562.494432 252.452747 
L 564.092606 241.685099 
L 565.69078 276.497451 
L 567.288954 297.45102 
L 568.887128 301.951662 
L 570.485302 303.078452 
L 572.083476 303.603146 
L 573.68165 303.938821 
L 575.279824 304.056144 
L 578.476171 303.767724 
L 581.672519 304.182429 
L 583.270693 303.494785 
L 584.868867 303.038529 
L 588.065215 303.373389 
L 591.261563 302.927724 
L 592.859737 303.82883 
L 594.45791 304.270421 
L 596.056084 302.999422 
L 597.654258 302.461691 
L 599.252432 302.753369 
L 600.850606 303.594184 
L 602.44878 303.626774 
L 604.046954 301.172767 
L 607.243302 290.315498 
L 608.841476 283.777997 
L 610.439649 263.024856 
L 612.037823 263.155215 
L 613.635997 269.07351 
L 615.234171 277.409964 
L 616.832345 283.432546 
L 618.430519 291.224751 
L 620.028693 295.48097 
L 623.225041 300.921826 
L 624.823215 302.610789 
L 626.421389 302.996977 
L 628.019562 303.14689 
L 629.617736 303.914378 
L 631.21591 303.779131 
L 632.814084 304.031701 
L 636.010432 303.921711 
L 637.608606 304.179985 
L 639.20678 304.631352 
L 640.804954 304.82852 
L 642.403128 304.430926 
L 644.001301 304.470033 
L 647.197649 305.068055 
L 648.795823 304.517288 
L 650.393997 304.382856 
L 653.590345 304.945843 
L 655.188519 304.590615 
L 658.384867 304.507511 
L 659.983041 304.277754 
L 661.581214 304.279383 
L 663.179388 304.470033 
L 666.375736 304.407298 
L 677.562953 303.999926 
L 680.759301 303.792167 
L 682.357475 304.166134 
L 683.955649 305.138937 
L 685.553823 304.63787 
L 687.151997 303.326134 
L 688.750171 303.16237 
L 690.348345 303.207996 
L 691.946519 303.863049 
L 693.544693 304.272051 
L 698.339214 303.656919 
L 699.937388 303.652031 
L 701.535562 303.877715 
L 703.133736 303.907046 
L 704.73191 303.538782 
L 706.330084 303.462196 
L 707.928258 303.640625 
L 709.526432 303.510266 
L 711.124605 303.85979 
L 715.919127 303.985261 
L 717.517301 303.965707 
L 720.713649 303.267472 
L 722.311823 303.254436 
L 723.909997 303.383166 
L 725.508171 303.290285 
L 727.106345 303.046677 
L 730.302692 303.926599 
L 731.900866 303.796241 
L 733.49904 303.899713 
L 735.097214 304.246794 
L 736.695388 304.002371 
L 738.293562 303.357094 
L 739.891736 303.461381 
L 741.48991 303.914378 
L 743.088084 303.989335 
L 746.284431 305.232633 
L 747.882605 304.82852 
L 749.480779 305.103904 
L 754.275301 304.348636 
L 755.873475 304.572691 
L 757.471649 304.6395 
L 759.069823 304.421149 
L 760.667997 304.507511 
L 762.26617 304.350266 
L 763.864344 303.838607 
L 765.462518 303.656105 
L 767.060692 303.70173 
L 771.855214 304.478181 
L 775.051562 304.309529 
L 776.649736 304.514844 
L 778.247909 304.965397 
L 779.846083 304.755193 
L 781.444257 304.281828 
L 783.042431 303.942894 
L 784.640605 304.224795 
L 786.238779 304.123767 
L 787.836953 303.880974 
L 791.033301 303.638995 
L 792.631475 303.523302 
L 794.229649 303.683806 
L 795.827822 303.678917 
L 797.425996 303.518413 
L 799.02417 304.183244 
L 800.622344 304.521362 
L 802.220518 305.246484 
L 803.818692 305.52757 
L 808.613214 305.197599 
L 811.809561 304.694902 
L 813.407735 304.863554 
L 816.604083 304.110731 
L 819.800431 304.144136 
L 821.398605 304.561284 
L 822.996779 304.633797 
L 824.594953 304.576765 
L 826.193127 304.35271 
L 830.987648 304.023554 
L 832.585822 304.407298 
L 834.183996 304.195465 
L 835.78217 303.727802 
L 837.380344 303.620256 
L 840.576692 303.712322 
L 842.174866 303.271546 
L 843.77304 302.97172 
L 845.371213 302.479615 
L 846.969387 303.134669 
L 848.567561 304.565358 
L 850.165735 304.936881 
L 853.362083 302.801439 
L 854.960257 302.492651 
L 856.558431 302.316667 
L 858.156605 302.519538 
L 859.754779 303.759577 
L 861.352953 304.582468 
L 864.5493 304.043922 
L 867.745648 303.902157 
L 869.343822 304.379597 
L 870.941996 304.267162 
L 872.54017 303.833719 
L 874.138344 303.802758 
L 875.736518 304.232943 
L 877.334692 304.949102 
L 878.932865 304.60691 
L 880.531039 304.138433 
L 882.129213 301.998917 
L 883.727387 297.586267 
L 885.325561 288.94347 
L 885.325561 288.94347 
" clip-path="url(#p6ef677e4e8)" style="fill: none; stroke: #000000; stroke-width: 1.2; stroke-linecap: square"/>
   </g>
   <g id="line2d_15">
    <path d="M 87.836783 224.083684 
L 89.434957 217.964583 
L 91.03313 217.397517 
L 92.631304 213.280718 
L 94.229478 186.418978 
L 95.827652 219.144291 
L 97.425826 222.814897 
L 99.024 216.664061 
L 100.622174 226.822342 
L 102.220348 257.850029 
L 103.818522 279.646582 
L 105.416696 278.740218 
L 107.01487 257.571554 
L 108.613043 252.88065 
L 110.211217 274.394739 
L 111.809391 274.105104 
L 113.407565 269.877059 
L 115.005739 265.248028 
L 116.603913 246.846322 
L 118.202087 128.401981 
L 119.800261 63.026101 
L 121.398435 63.026101 
L 122.996609 107.234877 
L 124.594782 76.777908 
L 126.192956 175.350208 
L 127.79113 208.0443 
L 129.389304 236.529947 
L 130.987478 259.658903 
L 132.585652 239.655138 
L 134.183826 253.917901 
L 137.380174 223.39394 
L 138.978348 257.539631 
L 140.576522 242.284676 
L 142.174695 254.106682 
L 143.772869 240.140017 
L 145.371043 244.686568 
L 146.969217 213.432621 
L 148.567391 211.627547 
L 150.165565 243.938955 
L 151.763739 224.947504 
L 153.361913 249.427766 
L 154.960087 219.769531 
L 156.558261 219.266952 
L 158.156434 246.749075 
L 159.754608 255.341855 
L 161.352782 274.096178 
L 162.950956 266.503347 
L 164.54913 250.325273 
L 166.147304 243.988403 
L 167.745478 234.163043 
L 169.343652 230.084632 
L 170.941826 240.3249 
L 172.54 269.099392 
L 174.138174 250.355741 
L 175.736347 261.113573 
L 177.334521 264.918967 
L 178.932695 261.514262 
L 180.530869 264.225834 
L 182.129043 244.755255 
L 183.727217 254.569918 
L 185.325391 254.536899 
L 186.923565 259.672136 
L 188.521739 233.988976 
L 190.119913 234.663941 
L 191.718086 251.467115 
L 193.31626 208.675931 
L 194.914434 219.958745 
L 196.512608 233.861112 
L 198.110782 246.734544 
L 199.708956 239.023187 
L 201.30713 247.971565 
L 202.905304 250.904547 
L 204.503478 271.054081 
L 206.101652 253.845517 
L 207.699826 242.300196 
L 209.297999 260.870606 
L 210.896173 257.969515 
L 212.494347 265.01036 
L 214.092521 227.641758 
L 215.690695 241.84182 
L 217.288869 236.379316 
L 218.887043 252.786425 
L 220.485217 262.763665 
L 222.083391 263.081371 
L 223.681565 255.039402 
L 225.279738 261.482431 
L 226.877912 267.420521 
L 228.476086 247.342321 
L 230.07426 255.444074 
L 231.672434 253.98778 
L 233.270608 209.345043 
L 234.868782 251.660549 
L 236.466956 267.804285 
L 238.06513 274.998412 
L 239.663304 260.463967 
L 241.261478 261.698308 
L 242.859651 258.941894 
L 244.457825 281.744707 
L 246.055999 236.758305 
L 247.654173 217.006819 
L 249.252347 65.731252 
L 252.448695 211.039245 
L 254.046869 132.89885 
L 255.645043 131.898 
L 257.243217 138.550645 
L 258.84139 109.487586 
L 260.439564 197.908393 
L 262.037738 212.749119 
L 263.635912 184.025799 
L 265.234086 236.708007 
L 266.83226 131.801842 
L 268.430434 237.023931 
L 270.028608 246.454056 
L 271.626782 235.9074 
L 274.82313 181.307704 
L 276.421303 195.362808 
L 278.019477 201.593667 
L 279.617651 147.206604 
L 281.215825 102.336406 
L 282.813999 246.138128 
L 284.412173 280.225781 
L 286.010347 279.280001 
L 287.608521 275.280419 
L 289.206695 267.08162 
L 290.804869 269.534555 
L 292.403042 265.029004 
L 294.001216 256.978951 
L 295.59939 259.939506 
L 297.197564 255.195877 
L 298.795738 251.38026 
L 300.393912 251.371892 
L 301.992086 245.058514 
L 303.59026 204.08917 
L 305.188434 223.89471 
L 306.786608 197.196811 
L 308.384782 233.637208 
L 309.982955 232.676067 
L 311.581129 227.541751 
L 313.179303 85.199954 
L 314.777477 196.835565 
L 316.375651 190.18186 
L 317.973825 207.549852 
L 319.571999 229.427778 
L 321.170173 209.500763 
L 322.768347 247.941008 
L 324.366521 250.394777 
L 325.964694 240.315198 
L 327.562868 253.112563 
L 329.161042 214.243647 
L 330.759216 212.871601 
L 332.35739 206.956536 
L 333.955564 213.383234 
L 335.553738 203.073892 
L 337.151912 243.621536 
L 338.750086 188.224119 
L 340.34826 209.027347 
L 341.946434 248.226533 
L 343.544607 211.169838 
L 345.142781 237.131199 
L 346.740955 234.900387 
L 348.339129 263.547189 
L 349.937303 268.025554 
L 351.535477 253.31908 
L 353.133651 277.265606 
L 354.731825 262.552376 
L 356.329999 260.33364 
L 357.928173 270.21541 
L 359.526346 263.731329 
L 361.12452 251.848466 
L 362.722694 286.992085 
L 364.320868 295.493785 
L 365.919042 238.380488 
L 367.517216 258.053681 
L 369.11539 300.380632 
L 370.713564 272.75439 
L 372.311738 280.162743 
L 373.909912 295.789914 
L 375.508086 271.447353 
L 377.106259 209.872737 
L 378.704433 281.065361 
L 381.900781 244.826994 
L 383.498955 248.620349 
L 385.097129 292.450923 
L 386.695303 233.428797 
L 388.293477 271.714605 
L 389.891651 290.634153 
L 391.489825 169.919577 
L 393.087998 179.217875 
L 394.686172 217.296893 
L 396.284346 242.377103 
L 397.88252 180.462363 
L 399.480694 213.438173 
L 401.078868 303.691906 
L 402.677042 305.741868 
L 404.275216 279.735403 
L 405.87339 301.111156 
L 407.471564 283.701378 
L 409.069738 284.476732 
L 410.667911 284.359761 
L 412.266085 278.801786 
L 413.864259 297.017128 
L 415.462433 299.745113 
L 417.060607 292.494915 
L 418.658781 300.890988 
L 420.256955 295.197857 
L 421.855129 303.738928 
L 423.453303 296.208634 
L 425.051477 287.223366 
L 426.64965 280.343085 
L 428.247824 295.511242 
L 429.845998 295.843153 
L 431.444172 305.306043 
L 433.042346 273.125722 
L 434.64052 281.457156 
L 436.238694 285.767944 
L 437.836868 292.977625 
L 439.435042 297.091255 
L 441.033216 276.721997 
L 442.631389 276.551335 
L 444.229563 226.556965 
L 445.827737 245.77136 
L 447.425911 294.013847 
L 449.024085 296.737381 
L 450.622259 246.498687 
L 452.220433 263.567135 
L 453.818607 209.120452 
L 455.416781 160.125679 
L 457.014955 80.079511 
L 458.613129 211.325709 
L 460.211302 172.0579 
L 461.809476 244.016621 
L 463.40765 268.104189 
L 466.603998 184.31503 
L 468.202172 219.735106 
M 535.325476 232.068557 
L 536.92365 243.103434 
L 538.521824 196.433929 
L 540.119998 162.920715 
L 541.718172 132.357184 
L 543.316345 176.834582 
L 544.914519 195.179708 
L 546.512693 153.203428 
L 548.110867 165.29063 
L 549.709041 193.174338 
L 551.307215 116.734444 
L 552.905389 249.756531 
L 554.503563 159.891499 
L 556.101737 63.026101 
L 559.298085 63.026101 
L 560.896258 129.779535 
L 562.494432 134.288052 
L 564.092606 179.53493 
L 565.69078 217.27834 
L 567.288954 158.325421 
L 568.887128 244.056765 
L 570.485302 192.448514 
L 572.083476 195.104745 
L 573.68165 212.489861 
L 575.279824 240.527593 
L 576.877997 248.356046 
L 578.476171 219.66308 
L 581.672519 252.583918 
L 583.270693 250.108422 
L 584.868867 253.320184 
L 586.467041 255.698007 
L 588.065215 259.518591 
L 589.663389 262.147849 
L 591.261563 268.245225 
L 592.859737 269.727512 
L 594.45791 262.298449 
L 596.056084 258.746308 
L 597.654258 258.933093 
L 599.252432 264.570474 
L 600.850606 269.660023 
L 602.44878 277.359131 
L 604.046954 273.21891 
L 605.645128 256.514983 
L 607.243302 243.689839 
L 608.841476 199.91228 
L 610.439649 264.209049 
L 612.037823 218.342024 
L 613.635997 265.983837 
L 615.234171 245.221939 
L 616.832345 268.98949 
L 618.430519 235.835509 
L 620.028693 242.731921 
L 621.626867 243.220633 
L 623.225041 270.329141 
L 624.823215 265.339925 
L 626.421389 269.327283 
L 628.019562 264.496481 
L 629.617736 254.57636 
L 631.21591 258.963066 
L 632.814084 276.280541 
L 634.412258 267.377712 
L 636.010432 234.80558 
L 637.608606 224.352565 
L 639.20678 255.895861 
L 640.804954 273.585036 
L 642.403128 265.570015 
L 644.001301 262.577256 
L 645.599475 260.930699 
L 647.197649 228.805106 
L 648.795823 254.089096 
L 650.393997 257.777338 
L 651.992171 278.104061 
L 653.590345 265.599836 
L 655.188519 263.667698 
L 656.786693 271.1775 
L 658.384867 271.644383 
L 659.983041 264.072956 
L 661.581214 260.893991 
L 663.179388 264.681671 
L 664.777562 266.850474 
L 666.375736 226.810153 
L 667.97391 250.452268 
L 669.572084 256.1123 
L 671.170258 259.41511 
L 672.768432 256.794039 
L 674.366606 262.53118 
L 675.96478 265.041512 
L 677.562953 251.820435 
L 679.161127 233.157866 
L 680.759301 250.555388 
L 682.357475 257.950091 
L 683.955649 267.474499 
L 687.151997 233.430171 
L 688.750171 254.366806 
L 690.348345 261.005893 
L 691.946519 242.602039 
L 693.544693 236.120396 
L 695.142866 253.174066 
L 696.74104 256.566864 
L 698.339214 257.481322 
L 699.937388 228.586919 
L 701.535562 257.544248 
L 703.133736 265.183077 
L 704.73191 269.23415 
L 706.330084 261.299597 
L 707.928258 265.876337 
L 709.526432 260.889917 
L 711.124605 265.897208 
L 712.722779 259.256356 
L 714.320953 266.744082 
L 715.919127 270.251868 
L 717.517301 276.107456 
L 719.115475 272.163354 
L 720.713649 277.750518 
L 722.311823 274.956455 
L 723.909997 266.972092 
L 725.508171 260.226378 
L 727.106345 261.913395 
L 728.704518 257.583862 
L 730.302692 265.192624 
L 731.900866 255.918411 
L 733.49904 255.790795 
L 735.097214 264.300525 
L 736.695388 271.066753 
L 738.293562 259.777292 
L 739.891736 249.850482 
L 741.48991 250.19692 
L 743.088084 270.495735 
L 744.686257 265.762655 
L 746.284431 273.680731 
L 747.882605 267.332858 
L 749.480779 259.316163 
L 751.078953 253.738329 
L 752.677127 259.679336 
L 754.275301 245.720494 
L 755.873475 256.861331 
L 757.471649 260.658051 
L 759.069823 248.894144 
L 760.667997 263.872638 
L 762.26617 259.01124 
L 763.864344 264.533911 
L 765.462518 257.894994 
L 767.060692 263.586793 
L 768.658866 273.174001 
L 770.25704 269.81643 
L 771.855214 260.543383 
L 773.453388 263.787429 
L 776.649736 272.661805 
L 778.247909 256.009913 
L 779.846083 251.225701 
L 781.444257 253.139931 
L 783.042431 236.138592 
L 784.640605 220.359834 
L 786.238779 233.017983 
L 787.836953 250.054344 
L 789.435127 264.976705 
L 791.033301 244.890897 
L 792.631475 240.834614 
L 794.229649 260.82025 
L 795.827822 237.912725 
L 797.425996 250.67549 
L 799.02417 249.33411 
L 800.622344 257.402128 
L 802.220518 259.450047 
L 805.416866 251.873022 
L 807.01504 263.231775 
L 808.613214 261.496647 
L 810.211388 258.802541 
L 811.809561 255.278832 
L 813.407735 266.146124 
L 815.005909 265.206465 
L 816.604083 256.161234 
L 818.202257 254.048254 
L 819.800431 242.862492 
L 821.398605 246.071988 
L 822.996779 237.339864 
L 824.594953 257.930006 
L 826.193127 239.88605 
L 827.791301 236.255986 
L 829.389474 239.975398 
L 830.987648 264.028459 
L 832.585822 269.959631 
L 834.183996 262.409541 
L 835.78217 276.72406 
L 837.380344 274.610341 
L 838.978518 274.861711 
L 840.576692 278.559322 
L 842.174866 263.509858 
L 843.77304 254.65437 
L 845.371213 264.718907 
L 846.969387 267.718738 
L 848.567561 267.668362 
L 850.165735 270.401332 
L 851.763909 252.288219 
L 853.362083 255.596795 
L 854.960257 216.063973 
L 856.558431 256.955459 
L 858.156605 242.535873 
L 859.754779 252.757201 
L 861.352953 268.600607 
L 862.951126 259.122945 
L 864.5493 244.017313 
L 866.147474 252.107585 
L 867.745648 262.065946 
L 869.343822 266.062645 
L 870.941996 273.245863 
L 872.54017 252.127759 
L 874.138344 261.305787 
L 875.736518 242.639768 
L 877.334692 248.675144 
L 878.932865 244.385388 
L 880.531039 239.329284 
L 882.129213 266.605485 
L 883.727387 256.781685 
L 885.325561 251.963536 
L 885.325561 251.963536 
" clip-path="url(#p6ef677e4e8)" style="fill: none; stroke: #ff7f0e; stroke-width: 1.2; stroke-linecap: square"/>
   </g>
   <g id="line2d_16">
    <path d="M 87.836783 257.319552 
L 89.434957 257.478096 
L 91.03313 261.236667 
L 92.631304 253.103961 
L 94.229478 258.157335 
L 95.827652 253.519723 
L 97.425826 250.782461 
L 99.024 250.981624 
L 100.622174 262.989533 
L 102.220348 289.529629 
L 103.818522 294.735818 
L 105.416696 296.375574 
L 107.01487 288.221826 
L 108.613043 284.566143 
L 110.211217 291.364999 
L 111.809391 291.057725 
L 113.407565 282.19193 
L 115.005739 281.213863 
L 116.603913 252.05555 
L 118.202087 187.030354 
L 119.800261 82.171884 
L 121.398435 63.026101 
L 124.594782 63.026101 
L 126.192956 200.201311 
L 127.79113 245.271049 
L 129.389304 278.077653 
L 130.987478 287.404871 
L 132.585652 290.010804 
L 134.183826 278.583011 
L 135.782 271.234499 
L 137.380174 280.364882 
L 138.978348 294.456068 
L 140.576522 284.912111 
L 142.174695 288.131245 
L 143.772869 271.846347 
L 145.371043 279.887552 
L 146.969217 266.550552 
L 148.567391 259.00302 
L 150.165565 254.895368 
L 151.763739 256.745226 
L 153.361913 258.002642 
L 154.960087 264.747195 
L 156.558261 262.43091 
L 158.156434 265.02051 
L 159.754608 280.623308 
L 161.352782 282.968248 
L 162.950956 288.557111 
L 164.54913 268.015442 
L 166.147304 256.136018 
L 167.745478 250.82318 
L 169.343652 273.392956 
L 170.941826 283.348107 
L 172.54 290.272557 
L 174.138174 261.699818 
L 175.736347 281.638399 
L 177.334521 287.14901 
L 178.932695 284.158103 
L 180.530869 271.926748 
L 182.129043 264.534968 
L 185.325391 231.377041 
L 186.923565 227.178867 
L 188.521739 230.164545 
L 190.119913 209.757597 
L 191.718086 231.735823 
L 193.31626 248.333668 
L 194.914434 229.449109 
L 196.512608 217.922139 
L 198.110782 213.262885 
L 199.708956 243.721374 
L 201.30713 249.341354 
L 202.905304 253.216565 
L 204.503478 272.202423 
L 206.101652 270.05646 
L 207.699826 271.288041 
L 209.297999 271.463127 
L 210.896173 252.386182 
L 212.494347 248.86469 
L 214.092521 250.338004 
L 215.690695 262.183067 
L 217.288869 283.562638 
L 220.485217 288.250134 
L 222.083391 283.408071 
L 223.681565 268.764359 
L 225.279738 247.791848 
L 226.877912 213.90727 
L 228.476086 196.697803 
L 230.07426 184.208902 
L 231.672434 191.853122 
L 233.270608 209.999566 
L 234.868782 275.566959 
L 236.466956 289.384234 
L 238.06513 282.698376 
L 239.663304 285.215864 
L 241.261478 294.47455 
L 242.859651 281.059657 
L 244.457825 296.871769 
L 246.055999 252.750912 
L 247.654173 219.734202 
L 249.252347 110.444013 
L 250.850521 152.262394 
L 252.448695 217.694161 
L 254.046869 193.80808 
L 255.645043 167.076252 
L 258.84139 206.113615 
L 260.439564 235.806112 
L 262.037738 251.728545 
L 263.635912 259.260219 
L 265.234086 274.476916 
L 266.83226 261.895629 
L 268.430434 252.976248 
L 270.028608 245.874777 
L 271.626782 245.345953 
L 273.224956 237.894885 
L 278.019477 155.38285 
L 279.617651 171.345807 
L 281.215825 213.351292 
L 282.813999 272.328216 
L 284.412173 282.098656 
L 286.010347 289.487647 
L 287.608521 285.32201 
L 289.206695 277.564996 
L 290.804869 260.549417 
L 292.403042 263.540879 
L 294.001216 260.970128 
L 295.59939 263.988844 
L 297.197564 259.098259 
L 298.795738 257.132253 
L 300.393912 252.342585 
L 301.992086 250.660876 
L 305.188434 231.983945 
L 306.786608 223.03708 
L 308.384782 278.478746 
L 309.982955 251.652567 
L 311.581129 217.748002 
L 313.179303 189.299895 
L 316.375651 214.313678 
L 317.973825 211.257854 
L 319.571999 230.604988 
L 321.170173 214.711535 
L 322.768347 180.878927 
L 324.366521 127.163969 
L 325.964694 223.487615 
L 327.562868 257.715672 
L 329.161042 238.929775 
L 330.759216 227.533532 
L 332.35739 223.903303 
L 333.955564 205.14881 
L 335.553738 199.311585 
L 337.151912 242.371395 
L 338.750086 240.782449 
L 340.34826 264.610478 
L 341.946434 295.177573 
L 345.142781 273.539481 
L 346.740955 264.876976 
L 348.339129 262.651134 
L 349.937303 269.913058 
L 351.535477 279.004899 
L 353.133651 279.469228 
L 354.731825 275.336283 
L 356.329999 281.738479 
L 357.928173 276.100163 
L 359.526346 258.728201 
L 361.12452 266.234038 
L 362.722694 284.277297 
L 364.320868 280.26455 
L 365.919042 285.344661 
L 367.517216 269.379097 
L 369.11539 249.744376 
L 370.713564 223.932072 
L 372.311738 250.810828 
L 373.909912 266.947486 
L 375.508086 263.229355 
L 377.106259 236.340116 
L 378.704433 233.515402 
L 380.302607 210.740329 
L 381.900781 141.204058 
L 383.498955 195.534749 
L 385.097129 272.624866 
L 386.695303 286.375146 
L 388.293477 275.204538 
L 389.891651 284.452183 
L 391.489825 260.583836 
L 393.087998 258.769957 
L 394.686172 254.28772 
L 396.284346 252.565359 
L 397.88252 263.324098 
L 399.480694 271.131944 
L 401.078868 280.069111 
L 402.677042 281.712488 
L 404.275216 281.080137 
L 405.87339 273.688508 
L 407.471564 272.499817 
L 409.069738 285.570232 
L 410.667911 274.123419 
L 412.266085 268.636653 
L 413.864259 288.363059 
L 415.462433 303.001151 
L 418.658781 273.655448 
L 420.256955 298.649393 
L 421.855129 285.576398 
L 423.453303 287.320261 
L 425.051477 300.210808 
L 426.64965 301.895692 
L 428.247824 299.200699 
L 429.845998 301.88506 
L 431.444172 289.02198 
L 433.042346 289.527998 
L 434.64052 285.463123 
L 436.238694 305.741868 
L 439.435042 305.741868 
L 441.033216 300.367266 
L 442.631389 293.124378 
L 444.229563 305.741868 
L 445.827737 305.741868 
L 447.425911 291.466128 
L 449.024085 299.238644 
L 450.622259 290.162919 
L 452.220433 260.167844 
L 453.818607 191.834836 
L 455.416781 148.832522 
L 457.014955 111.935358 
L 458.613129 107.629719 
L 460.211302 63.026101 
L 461.809476 73.232497 
L 463.40765 74.386674 
L 465.005824 168.474765 
L 466.603998 220.369446 
L 468.202172 240.475027 
M 535.325476 277.02142 
L 536.92365 289.979337 
L 538.521824 285.018564 
L 540.119998 278.633903 
L 541.718172 257.205647 
L 543.316345 250.606139 
L 544.914519 264.644157 
L 546.512693 270.879435 
L 548.110867 288.458909 
L 549.709041 279.909245 
L 551.307215 168.874553 
L 552.905389 69.984562 
L 556.101737 217.119276 
L 557.699911 115.852398 
L 559.298085 135.327027 
L 560.896258 203.463951 
L 562.494432 241.976871 
L 564.092606 260.106659 
L 565.69078 258.865832 
L 567.288954 276.703598 
L 568.887128 276.94101 
L 570.485302 279.532016 
L 572.083476 297.813361 
L 573.68165 290.343582 
L 575.279824 283.890145 
L 576.877997 305.741868 
L 578.476171 300.184194 
L 580.074345 293.006034 
L 581.672519 291.622789 
L 583.270693 305.741868 
L 586.467041 305.741868 
L 588.065215 298.445441 
L 589.663389 305.741868 
L 591.261563 305.741868 
L 592.859737 297.530358 
L 594.45791 288.30094 
L 596.056084 301.10789 
L 597.654258 287.123016 
L 599.252432 291.007209 
L 600.850606 292.185886 
L 602.44878 281.986464 
L 604.046954 276.955452 
L 605.645128 257.95347 
L 607.243302 261.019131 
L 608.841476 260.126206 
L 610.439649 264.680666 
L 612.037823 268.374074 
L 613.635997 263.187585 
L 615.234171 255.018322 
L 616.832345 262.380439 
L 618.430519 272.389967 
L 620.028693 276.535252 
L 621.626867 275.78518 
L 623.225041 267.458215 
L 624.823215 286.566604 
L 626.421389 272.745363 
L 628.019562 265.199007 
L 629.617736 264.238937 
L 631.21591 265.297292 
L 632.814084 287.705973 
L 634.412258 289.507378 
L 636.010432 265.26345 
L 637.608606 264.475173 
L 639.20678 266.855964 
L 640.804954 263.563972 
L 642.403128 275.773529 
L 644.001301 305.741868 
L 645.599475 287.393374 
L 647.197649 298.464867 
L 648.795823 305.741868 
L 650.393997 305.741868 
L 651.992171 291.919546 
L 653.590345 279.176856 
L 655.188519 279.116688 
L 656.786693 296.974926 
L 658.384867 285.657721 
L 659.983041 285.419464 
L 661.581214 279.467451 
L 663.179388 274.66083 
L 664.777562 264.157632 
L 666.375736 265.366673 
L 667.97391 269.209408 
L 669.572084 284.208967 
L 671.170258 272.7957 
L 672.768432 276.783648 
L 674.366606 283.281773 
L 675.96478 286.120457 
L 677.562953 292.700515 
L 679.161127 295.120084 
L 680.759301 290.18639 
L 682.357475 286.53967 
L 683.955649 282.611861 
L 685.553823 279.922682 
L 687.151997 275.431103 
L 688.750171 283.081204 
L 690.348345 283.05649 
L 691.946519 250.988617 
L 693.544693 256.164137 
L 695.142866 275.99485 
L 696.74104 276.804809 
L 698.339214 284.154439 
L 699.937388 262.143097 
L 701.535562 278.223496 
L 703.133736 289.961794 
L 704.73191 286.646648 
L 706.330084 292.51771 
L 707.928258 292.519931 
L 709.526432 284.538972 
L 711.124605 293.380717 
L 712.722779 282.218656 
L 714.320953 281.169603 
L 715.919127 291.776569 
L 717.517301 297.034144 
L 719.115475 295.656652 
L 720.713649 296.346221 
L 722.311823 294.097942 
L 723.909997 291.576278 
L 725.508171 288.347904 
L 727.106345 280.881076 
L 728.704518 279.062468 
L 730.302692 294.144964 
L 731.900866 281.044919 
L 733.49904 280.936502 
L 735.097214 275.563775 
L 736.695388 290.080038 
L 738.293562 279.597221 
L 739.891736 266.690116 
L 741.48991 263.232963 
L 743.088084 269.787266 
L 744.686257 280.546422 
L 746.284431 290.169364 
L 747.882605 301.519278 
L 749.480779 283.305999 
L 751.078953 298.397042 
L 752.677127 305.741868 
L 754.275301 298.41126 
L 755.873475 288.994273 
L 757.471649 278.299488 
L 759.069823 292.844558 
L 760.667997 299.757386 
L 762.26617 291.174364 
L 763.864344 301.298858 
L 765.462518 302.683186 
L 767.060692 299.302647 
L 768.658866 294.516204 
L 770.25704 294.454852 
L 771.855214 286.566014 
L 773.453388 291.012982 
L 775.051562 299.177479 
L 776.649736 292.059529 
L 778.247909 268.979353 
L 779.846083 258.724649 
L 781.444257 253.982242 
L 783.042431 251.05793 
L 784.640605 256.899476 
L 786.238779 254.685393 
L 787.836953 266.031981 
L 789.435127 274.639848 
L 791.033301 259.633024 
L 792.631475 274.918765 
L 794.229649 285.154554 
L 795.827822 259.736147 
L 797.425996 253.770125 
L 799.02417 182.71735 
L 800.622344 144.761556 
L 802.220518 158.97843 
L 803.818692 138.390235 
L 805.416866 124.087615 
L 807.01504 131.412364 
L 808.613214 184.883062 
L 810.211388 230.953723 
L 811.809561 269.864617 
L 813.407735 290.000052 
L 815.005909 284.393457 
L 816.604083 280.26854 
L 818.202257 280.325234 
L 821.398605 251.012316 
L 822.996779 250.96406 
L 824.594953 266.467473 
L 826.193127 237.714558 
L 827.791301 225.63963 
L 829.389474 244.388188 
L 830.987648 274.704461 
L 832.585822 285.400349 
L 834.183996 281.285412 
L 835.78217 295.357414 
L 837.380344 299.265097 
L 838.978518 286.910134 
L 840.576692 294.173665 
L 842.174866 285.114133 
L 843.77304 284.521004 
L 845.371213 293.312252 
L 846.969387 289.843376 
L 848.567561 284.50575 
L 850.165735 288.740498 
L 851.763909 281.852914 
L 853.362083 289.282852 
L 854.960257 283.332705 
L 856.558431 280.466652 
L 858.156605 272.748611 
L 859.754779 284.290432 
L 861.352953 287.583101 
L 862.951126 282.349605 
L 864.5493 271.788854 
L 866.147474 270.10193 
L 867.745648 279.25429 
L 869.343822 283.767134 
L 870.941996 297.209874 
L 872.54017 280.191928 
L 874.138344 279.521183 
L 875.736518 266.160917 
L 877.334692 251.647558 
L 878.932865 235.929029 
L 880.531039 252.950613 
L 882.129213 276.908099 
L 883.727387 277.133362 
L 885.325561 260.536334 
L 885.325561 260.536334 
" clip-path="url(#p6ef677e4e8)" style="fill: none; stroke-dasharray: 4.44,1.92; stroke-dashoffset: 0; stroke: #9467bd; stroke-width: 1.2"/>
   </g>
   <g id="patch_3">
    <path d="M 47.962344 317.877656 
L 47.962344 50.890312 
" style="fill: none; stroke: #000000; stroke-width: 0.8; stroke-linejoin: miter; stroke-linecap: square"/>
   </g>
   <g id="patch_4">
    <path d="M 925.2 317.877656 
L 925.2 50.890312 
" style="fill: none; stroke: #000000; stroke-width: 0.8; stroke-linejoin: miter; stroke-linecap: square"/>
   </g>
   <g id="patch_5">
    <path d="M 47.962344 317.877656 
L 925.2 317.877656 
" style="fill: none; stroke: #000000; stroke-width: 0.8; stroke-linejoin: miter; stroke-linecap: square"/>
   </g>
   <g id="patch_6">
    <path d="M 47.962344 50.890312 
L 925.2 50.890312 
" style="fill: none; stroke: #000000; stroke-width: 0.8; stroke-linejoin: miter; stroke-linecap: square"/>
   </g>
   <g id="legend_1">
    <g id="line2d_17">
     <path d="M 675.710938 63.98875 
L 685.710938 63.98875 
L 695.710938 63.98875 
" style="fill: none; stroke: #2ca02c; stroke-width: 1.2; stroke-linecap: square"/>
    </g>
    <g id="text_16">
     <!-- ENCSR203XPU -->
     <g transform="translate(703.710938 67.48875) scale(0.1 -0.1)">
      <defs>
       <path id="DejaVuSans-28" d="M 628 4666 
L 3578 4666 
L 3578 4134 
L 1259 4134 
L 1259 2753 
L 3481 2753 
L 3481 2222 
L 1259 2222 
L 1259 531 
L 3634 531 
L 3634 0 
L 628 0 
L 628 4666 
z
" transform="scale(0.015625)"/>
       <path id="DejaVuSans-31" d="M 628 4666 
L 1478 4666 
L 3547 763 
L 3547 4666 
L 4159 4666 
L 4159 0 
L 3309 0 
L 1241 3903 
L 1241 0 
L 628 0 
L 628 4666 
z
" transform="scale(0.015625)"/>
       <path id="DejaVuSans-26" d="M 4122 4306 
L 4122 3641 
Q 3803 3938 3442 4084 
Q 3081 4231 2675 4231 
Q 1875 4231 1450 3742 
Q 1025 3253 1025 2328 
Q 1025 1406 1450 917 
Q 1875 428 2675 428 
Q 3081 428 3442 575 
Q 3803 722 4122 1019 
L 4122 359 
Q 3791 134 3420 21 
Q 3050 -91 2638 -91 
Q 1578 -91 968 557 
Q 359 1206 359 2328 
Q 359 3453 968 4101 
Q 1578 4750 2638 4750 
Q 3056 4750 3426 4639 
Q 3797 4528 4122 4306 
z
" transform="scale(0.015625)"/>
       <path id="DejaVuSans-36" d="M 3425 4513 
L 3425 3897 
Q 3066 4069 2747 4153 
Q 2428 4238 2131 4238 
Q 1616 4238 1336 4038 
Q 1056 3838 1056 3469 
Q 1056 3159 1242 3001 
Q 1428 2844 1947 2747 
L 2328 2669 
Q 3034 2534 3370 2195 
Q 3706 1856 3706 1288 
Q 3706 609 3251 259 
Q 2797 -91 1919 -91 
Q 1588 -91 1214 -16 
Q 841 59 441 206 
L 441 856 
Q 825 641 1194 531 
Q 1563 422 1919 422 
Q 2459 422 2753 634 
Q 3047 847 3047 1241 
Q 3047 1584 2836 1778 
Q 2625 1972 2144 2069 
L 1759 2144 
Q 1053 2284 737 2584 
Q 422 2884 422 3419 
Q 422 4038 858 4394 
Q 1294 4750 2059 4750 
Q 2388 4750 2728 4690 
Q 3069 4631 3425 4513 
z
" transform="scale(0.015625)"/>
       <path id="DejaVuSans-35" d="M 2841 2188 
Q 3044 2119 3236 1894 
Q 3428 1669 3622 1275 
L 4263 0 
L 3584 0 
L 2988 1197 
Q 2756 1666 2539 1819 
Q 2322 1972 1947 1972 
L 1259 1972 
L 1259 0 
L 628 0 
L 628 4666 
L 2053 4666 
Q 2853 4666 3247 4331 
Q 3641 3997 3641 3322 
Q 3641 2881 3436 2590 
Q 3231 2300 2841 2188 
z
M 1259 4147 
L 1259 2491 
L 2053 2491 
Q 2509 2491 2742 2702 
Q 2975 2913 2975 3322 
Q 2975 3731 2742 3939 
Q 2509 4147 2053 4147 
L 1259 4147 
z
" transform="scale(0.015625)"/>
       <path id="DejaVuSans-3b" d="M 403 4666 
L 1081 4666 
L 2241 2931 
L 3406 4666 
L 4084 4666 
L 2584 2425 
L 4184 0 
L 3506 0 
L 2194 1984 
L 872 0 
L 191 0 
L 1856 2491 
L 403 4666 
z
" transform="scale(0.015625)"/>
       <path id="DejaVuSans-33" d="M 1259 4147 
L 1259 2394 
L 2053 2394 
Q 2494 2394 2734 2622 
Q 2975 2850 2975 3272 
Q 2975 3691 2734 3919 
Q 2494 4147 2053 4147 
L 1259 4147 
z
M 628 4666 
L 2053 4666 
Q 2838 4666 3239 4311 
Q 3641 3956 3641 3272 
Q 3641 2581 3239 2228 
Q 2838 1875 2053 1875 
L 1259 1875 
L 1259 0 
L 628 0 
L 628 4666 
z
" transform="scale(0.015625)"/>
       <path id="DejaVuSans-38" d="M 556 4666 
L 1191 4666 
L 1191 1831 
Q 1191 1081 1462 751 
Q 1734 422 2344 422 
Q 2950 422 3222 751 
Q 3494 1081 3494 1831 
L 3494 4666 
L 4128 4666 
L 4128 1753 
Q 4128 841 3676 375 
Q 3225 -91 2344 -91 
Q 1459 -91 1007 375 
Q 556 841 556 1753 
L 556 4666 
z
" transform="scale(0.015625)"/>
      </defs>
      <use xlink:href="#DejaVuSans-28"/>
      <use xlink:href="#DejaVuSans-31" transform="translate(63.1875 0)"/>
      <use xlink:href="#DejaVuSans-26" transform="translate(138 0)"/>
      <use xlink:href="#DejaVuSans-36" transform="translate(207.828125 0)"/>
      <use xlink:href="#DejaVuSans-35" transform="translate(271.3125 0)"/>
      <use xlink:href="#DejaVuSans-15" transform="translate(340.796875 0)"/>
      <use xlink:href="#DejaVuSans-13" transform="translate(404.421875 0)"/>
      <use xlink:href="#DejaVuSans-16" transform="translate(468.046875 0)"/>
      <use xlink:href="#DejaVuSans-3b" transform="translate(531.671875 0)"/>
      <use xlink:href="#DejaVuSans-33" transform="translate(600.171875 0)"/>
      <use xlink:href="#DejaVuSans-38" transform="translate(660.46875 0)"/>
     </g>
    </g>
    <g id="line2d_18">
     <path d="M 675.710938 78.989531 
L 685.710938 78.989531 
L 695.710938 78.989531 
" style="fill: none; stroke: #000000; stroke-width: 1.2; stroke-linecap: square"/>
    </g>
    <g id="text_17">
     <!-- AlphaGenome -->
     <g transform="translate(703.710938 82.489531) scale(0.1 -0.1)">
      <defs>
       <path id="DejaVuSans-24" d="M 2188 4044 
L 1331 1722 
L 3047 1722 
L 2188 4044 
z
M 1831 4666 
L 2547 4666 
L 4325 0 
L 3669 0 
L 3244 1197 
L 1141 1197 
L 716 0 
L 50 0 
L 1831 4666 
z
" transform="scale(0.015625)"/>
       <path id="DejaVuSans-53" d="M 1159 525 
L 1159 -1331 
L 581 -1331 
L 581 3500 
L 1159 3500 
L 1159 2969 
Q 1341 3281 1617 3432 
Q 1894 3584 2278 3584 
Q 2916 3584 3314 3078 
Q 3713 2572 3713 1747 
Q 3713 922 3314 415 
Q 2916 -91 2278 -91 
Q 1894 -91 1617 61 
Q 1341 213 1159 525 
z
M 3116 1747 
Q 3116 2381 2855 2742 
Q 2594 3103 2138 3103 
Q 1681 3103 1420 2742 
Q 1159 2381 1159 1747 
Q 1159 1113 1420 752 
Q 1681 391 2138 391 
Q 2594 391 2855 752 
Q 3116 1113 3116 1747 
z
" transform="scale(0.015625)"/>
       <path id="DejaVuSans-2a" d="M 3809 666 
L 3809 1919 
L 2778 1919 
L 2778 2438 
L 4434 2438 
L 4434 434 
Q 4069 175 3628 42 
Q 3188 -91 2688 -91 
Q 1594 -91 976 548 
Q 359 1188 359 2328 
Q 359 3472 976 4111 
Q 1594 4750 2688 4750 
Q 3144 4750 3555 4637 
Q 3966 4525 4313 4306 
L 4313 3634 
Q 3963 3931 3569 4081 
Q 3175 4231 2741 4231 
Q 1884 4231 1454 3753 
Q 1025 3275 1025 2328 
Q 1025 1384 1454 906 
Q 1884 428 2741 428 
Q 3075 428 3337 486 
Q 3600 544 3809 666 
z
" transform="scale(0.015625)"/>
      </defs>
      <use xlink:href="#DejaVuSans-24"/>
      <use xlink:href="#DejaVuSans-4f" transform="translate(68.40625 0)"/>
      <use xlink:href="#DejaVuSans-53" transform="translate(96.1875 0)"/>
      <use xlink:href="#DejaVuSans-4b" transform="translate(159.671875 0)"/>
      <use xlink:href="#DejaVuSans-44" transform="translate(223.046875 0)"/>
      <use xlink:href="#DejaVuSans-2a" transform="translate(284.328125 0)"/>
      <use xlink:href="#DejaVuSans-48" transform="translate(361.8125 0)"/>
      <use xlink:href="#DejaVuSans-51" transform="translate(423.34375 0)"/>
      <use xlink:href="#DejaVuSans-52" transform="translate(486.71875 0)"/>
      <use xlink:href="#DejaVuSans-50" transform="translate(547.90625 0)"/>
      <use xlink:href="#DejaVuSans-48" transform="translate(645.3125 0)"/>
     </g>
    </g>
    <g id="line2d_19">
     <path d="M 797.076563 63.98875 
L 807.076563 63.98875 
L 817.076563 63.98875 
" style="fill: none; stroke: #ff7f0e; stroke-width: 1.2; stroke-linecap: square"/>
    </g>
    <g id="text_18">
     <!-- DiMeLo pooled -->
     <g transform="translate(825.076563 67.48875) scale(0.1 -0.1)">
      <defs>
       <path id="DejaVuSans-27" d="M 1259 4147 
L 1259 519 
L 2022 519 
Q 2988 519 3436 956 
Q 3884 1394 3884 2338 
Q 3884 3275 3436 3711 
Q 2988 4147 2022 4147 
L 1259 4147 
z
M 628 4666 
L 1925 4666 
Q 3281 4666 3915 4102 
Q 4550 3538 4550 2338 
Q 4550 1131 3912 565 
Q 3275 0 1925 0 
L 628 0 
L 628 4666 
z
" transform="scale(0.015625)"/>
       <path id="DejaVuSans-30" d="M 628 4666 
L 1569 4666 
L 2759 1491 
L 3956 4666 
L 4897 4666 
L 4897 0 
L 4281 0 
L 4281 4097 
L 3078 897 
L 2444 897 
L 1241 4097 
L 1241 0 
L 628 0 
L 628 4666 
z
" transform="scale(0.015625)"/>
       <path id="DejaVuSans-2f" d="M 628 4666 
L 1259 4666 
L 1259 531 
L 3531 531 
L 3531 0 
L 628 0 
L 628 4666 
z
" transform="scale(0.015625)"/>
      </defs>
      <use xlink:href="#DejaVuSans-27"/>
      <use xlink:href="#DejaVuSans-4c" transform="translate(77 0)"/>
      <use xlink:href="#DejaVuSans-30" transform="translate(104.78125 0)"/>
      <use xlink:href="#DejaVuSans-48" transform="translate(191.0625 0)"/>
      <use xlink:href="#DejaVuSans-2f" transform="translate(252.59375 0)"/>
      <use xlink:href="#DejaVuSans-52" transform="translate(306.5625 0)"/>
      <use xlink:href="#DejaVuSans-3" transform="translate(367.75 0)"/>
      <use xlink:href="#DejaVuSans-53" transform="translate(399.53125 0)"/>
      <use xlink:href="#DejaVuSans-52" transform="translate(463.015625 0)"/>
      <use xlink:href="#DejaVuSans-52" transform="translate(524.203125 0)"/>
      <use xlink:href="#DejaVuSans-4f" transform="translate(585.390625 0)"/>
      <use xlink:href="#DejaVuSans-48" transform="translate(613.171875 0)"/>
      <use xlink:href="#DejaVuSans-47" transform="translate(674.703125 0)"/>
     </g>
    </g>
    <g id="line2d_20">
     <path d="M 797.076563 78.989531 
L 807.076563 78.989531 
L 817.076563 78.989531 
" style="fill: none; stroke-dasharray: 4.44,1.92; stroke-dashoffset: 0; stroke: #9467bd; stroke-width: 1.2"/>
    </g>
    <g id="text_19">
     <!-- HyenaDNA pooled -->
     <g transform="translate(825.076563 82.489531) scale(0.1 -0.1)">
      <defs>
       <path id="DejaVuSans-2b" d="M 628 4666 
L 1259 4666 
L 1259 2753 
L 3553 2753 
L 3553 4666 
L 4184 4666 
L 4184 0 
L 3553 0 
L 3553 2222 
L 1259 2222 
L 1259 0 
L 628 0 
L 628 4666 
z
" transform="scale(0.015625)"/>
       <path id="DejaVuSans-5c" d="M 2059 -325 
Q 1816 -950 1584 -1140 
Q 1353 -1331 966 -1331 
L 506 -1331 
L 506 -850 
L 844 -850 
Q 1081 -850 1212 -737 
Q 1344 -625 1503 -206 
L 1606 56 
L 191 3500 
L 800 3500 
L 1894 763 
L 2988 3500 
L 3597 3500 
L 2059 -325 
z
" transform="scale(0.015625)"/>
      </defs>
      <use xlink:href="#DejaVuSans-2b"/>
      <use xlink:href="#DejaVuSans-5c" transform="translate(75.203125 0)"/>
      <use xlink:href="#DejaVuSans-48" transform="translate(134.390625 0)"/>
      <use xlink:href="#DejaVuSans-51" transform="translate(195.921875 0)"/>
      <use xlink:href="#DejaVuSans-44" transform="translate(259.296875 0)"/>
      <use xlink:href="#DejaVuSans-27" transform="translate(320.578125 0)"/>
      <use xlink:href="#DejaVuSans-31" transform="translate(397.578125 0)"/>
      <use xlink:href="#DejaVuSans-24" transform="translate(472.390625 0)"/>
      <use xlink:href="#DejaVuSans-3" transform="translate(540.796875 0)"/>
      <use xlink:href="#DejaVuSans-53" transform="translate(572.578125 0)"/>
      <use xlink:href="#DejaVuSans-52" transform="translate(636.0625 0)"/>
      <use xlink:href="#DejaVuSans-52" transform="translate(697.25 0)"/>
      <use xlink:href="#DejaVuSans-4f" transform="translate(758.4375 0)"/>
      <use xlink:href="#DejaVuSans-48" transform="translate(786.21875 0)"/>
      <use xlink:href="#DejaVuSans-47" transform="translate(847.75 0)"/>
     </g>
    </g>
   </g>
  </g>
  <g id="text_20">
   <!-- chr16 region 19: overlay -->
   <g transform="translate(394.168125 17.519297) scale(0.12 -0.12)">
    <defs>
     <path id="DejaVuSans-1c" d="M 703 97 
L 703 672 
Q 941 559 1184 500 
Q 1428 441 1663 441 
Q 2288 441 2617 861 
Q 2947 1281 2994 2138 
Q 2813 1869 2534 1725 
Q 2256 1581 1919 1581 
Q 1219 1581 811 2004 
Q 403 2428 403 3163 
Q 403 3881 828 4315 
Q 1253 4750 1959 4750 
Q 2769 4750 3195 4129 
Q 3622 3509 3622 2328 
Q 3622 1225 3098 567 
Q 2575 -91 1691 -91 
Q 1453 -91 1209 -44 
Q 966 3 703 97 
z
M 1959 2075 
Q 2384 2075 2632 2365 
Q 2881 2656 2881 3163 
Q 2881 3666 2632 3958 
Q 2384 4250 1959 4250 
Q 1534 4250 1286 3958 
Q 1038 3666 1038 3163 
Q 1038 2656 1286 2365 
Q 1534 2075 1959 2075 
z
" transform="scale(0.015625)"/>
     <path id="DejaVuSans-1d" d="M 750 794 
L 1409 794 
L 1409 0 
L 750 0 
L 750 794 
z
M 750 3309 
L 1409 3309 
L 1409 2516 
L 750 2516 
L 750 3309 
z
" transform="scale(0.015625)"/>
     <path id="DejaVuSans-59" d="M 191 3500 
L 800 3500 
L 1894 563 
L 2988 3500 
L 3597 3500 
L 2284 0 
L 1503 0 
L 191 3500 
z
" transform="scale(0.015625)"/>
    </defs>
    <use xlink:href="#DejaVuSans-46"/>
    <use xlink:href="#DejaVuSans-4b" transform="translate(54.984375 0)"/>
    <use xlink:href="#DejaVuSans-55" transform="translate(118.359375 0)"/>
    <use xlink:href="#DejaVuSans-14" transform="translate(159.46875 0)"/>
    <use xlink:href="#DejaVuSans-19" transform="translate(223.09375 0)"/>
    <use xlink:href="#DejaVuSans-3" transform="translate(286.71875 0)"/>
    <use xlink:href="#DejaVuSans-55" transform="translate(318.5 0)"/>
    <use xlink:href="#DejaVuSans-48" transform="translate(357.40625 0)"/>
    <use xlink:href="#DejaVuSans-4a" transform="translate(418.9375 0)"/>
    <use xlink:href="#DejaVuSans-4c" transform="translate(482.421875 0)"/>
    <use xlink:href="#DejaVuSans-52" transform="translate(510.203125 0)"/>
    <use xlink:href="#DejaVuSans-51" transform="translate(571.390625 0)"/>
    <use xlink:href="#DejaVuSans-3" transform="translate(634.765625 0)"/>
    <use xlink:href="#DejaVuSans-14" transform="translate(666.546875 0)"/>
    <use xlink:href="#DejaVuSans-1c" transform="translate(730.171875 0)"/>
    <use xlink:href="#DejaVuSans-1d" transform="translate(793.796875 0)"/>
    <use xlink:href="#DejaVuSans-3" transform="translate(827.484375 0)"/>
    <use xlink:href="#DejaVuSans-52" transform="translate(859.265625 0)"/>
    <use xlink:href="#DejaVuSans-59" transform="translate(920.453125 0)"/>
    <use xlink:href="#DejaVuSans-48" transform="translate(979.640625 0)"/>
    <use xlink:href="#DejaVuSans-55" transform="translate(1041.171875 0)"/>
    <use xlink:href="#DejaVuSans-4f" transform="translate(1082.28125 0)"/>
    <use xlink:href="#DejaVuSans-44" transform="translate(1110.0625 0)"/>
    <use xlink:href="#DejaVuSans-5c" transform="translate(1171.34375 0)"/>
   </g>
   <!-- chr16_rank20_score3.106_reads440 -->
   <g transform="translate(359.352188 31.922578) scale(0.12 -0.12)">
    <defs>
     <path id="DejaVuSans-42" d="M 3263 -1063 
L 3263 -1509 
L -63 -1509 
L -63 -1063 
L 3263 -1063 
z
" transform="scale(0.015625)"/>
     <path id="DejaVuSans-4e" d="M 581 4863 
L 1159 4863 
L 1159 1991 
L 2875 3500 
L 3609 3500 
L 1753 1863 
L 3688 0 
L 2938 0 
L 1159 1709 
L 1159 0 
L 581 0 
L 581 4863 
z
" transform="scale(0.015625)"/>
    </defs>
    <use xlink:href="#DejaVuSans-46"/>
    <use xlink:href="#DejaVuSans-4b" transform="translate(54.984375 0)"/>
    <use xlink:href="#DejaVuSans-55" transform="translate(118.359375 0)"/>
    <use xlink:href="#DejaVuSans-14" transform="translate(159.46875 0)"/>
    <use xlink:href="#DejaVuSans-19" transform="translate(223.09375 0)"/>
    <use xlink:href="#DejaVuSans-42" transform="translate(286.71875 0)"/>
    <use xlink:href="#DejaVuSans-55" transform="translate(336.71875 0)"/>
    <use xlink:href="#DejaVuSans-44" transform="translate(377.828125 0)"/>
    <use xlink:href="#DejaVuSans-51" transform="translate(439.109375 0)"/>
    <use xlink:href="#DejaVuSans-4e" transform="translate(502.484375 0)"/>
    <use xlink:href="#DejaVuSans-15" transform="translate(560.390625 0)"/>
    <use xlink:href="#DejaVuSans-13" transform="translate(624.015625 0)"/>
    <use xlink:href="#DejaVuSans-42" transform="translate(687.640625 0)"/>
    <use xlink:href="#DejaVuSans-56" transform="translate(737.640625 0)"/>
    <use xlink:href="#DejaVuSans-46" transform="translate(789.734375 0)"/>
    <use xlink:href="#DejaVuSans-52" transform="translate(844.71875 0)"/>
    <use xlink:href="#DejaVuSans-55" transform="translate(905.90625 0)"/>
    <use xlink:href="#DejaVuSans-48" transform="translate(944.8125 0)"/>
    <use xlink:href="#DejaVuSans-16" transform="translate(1006.34375 0)"/>
    <use xlink:href="#DejaVuSans-11" transform="translate(1069.96875 0)"/>
    <use xlink:href="#DejaVuSans-14" transform="translate(1101.75 0)"/>
    <use xlink:href="#DejaVuSans-13" transform="translate(1165.375 0)"/>
    <use xlink:href="#DejaVuSans-19" transform="translate(1229 0)"/>
    <use xlink:href="#DejaVuSans-42" transform="translate(1292.625 0)"/>
    <use xlink:href="#DejaVuSans-55" transform="translate(1342.625 0)"/>
    <use xlink:href="#DejaVuSans-48" transform="translate(1381.53125 0)"/>
    <use xlink:href="#DejaVuSans-44" transform="translate(1443.0625 0)"/>
    <use xlink:href="#DejaVuSans-47" transform="translate(1504.34375 0)"/>
    <use xlink:href="#DejaVuSans-56" transform="translate(1567.828125 0)"/>
    <use xlink:href="#DejaVuSans-17" transform="translate(1619.921875 0)"/>
    <use xlink:href="#DejaVuSans-17" transform="translate(1683.546875 0)"/>
    <use xlink:href="#DejaVuSans-13" transform="translate(1747.171875 0)"/>
   </g>
  </g>
 </g>
 <defs>
  <clipPath id="p6ef677e4e8">
   <rect x="47.962344" y="50.890312" width="877.237656" height="266.987344"/>
  </clipPath>
 </defs>
</svg>
