<?xml version="1.0" encoding="utf-8" standalone="no"?>
<!DOCTYPE svg PUBLIC "-//W3C//DTD SVG 1.1//EN"
  "http://www.w3.org/Graphics/SVG/1.1/DTD/svg11.dtd">
<svg xmlns:xlink="http://www.w3.org/1999/xlink" width="936pt" height="360pt" viewBox="0 0 936 360" xmlns="http://www.w3.org/2000/svg" version="1.1">
 <metadata>
  <rdf:RDF xmlns:dc="http://purl.org/dc/elements/1.1/" xmlns:cc="http://creativecommons.org/ns#" xmlns:rdf="http://www.w3.org/1999/02/22-rdf-syntax-ns#">
   <cc:Work>
    <dc:type rdf:resource="http://purl.org/dc/dcmitype/StillImage"/>
    <dc:date>2026-07-10T12:48:50.185945</dc:date>
    <dc:format>image/svg+xml</dc:format>
    <dc:creator>
     <cc:Agent>
      <dc:title>Matplotlib v3.11.0, https://matplotlib.org/</dc:title>
     </cc:Agent>
    </dc:creator>
   </cc:Work>
  </rdf:RDF>
 </metadata>
 <defs>
  <style type="text/css">*{stroke-linejoin: round; stroke-linecap: butt}</style>
 </defs>
 <g id="figure_1">
  <g id="patch_1">
   <path d="M 0 360 
L 936 360 
L 936 0 
L 0 0 
z
" style="fill: #ffffff"/>
  </g>
  <g id="axes_1">
   <g id="patch_2">
    <path d="M 47.962344 317.877656 
L 925.2 317.877656 
L 925.2 50.890312 
L 47.962344 50.890312 
z
" style="fill: #ffffff"/>
   </g>
   <g id="matplotlib.axis_1">
    <g id="xtick_1">
     <g id="line2d_1">
      <defs>
       <path id="m9d4168bc85" d="M 0 0 
L 0 3.5 
" style="stroke: #000000; stroke-width: 0.8"/>
      </defs>
      <g>
       <use xlink:href="#m9d4168bc85" x="87.037696" y="317.877656" style="stroke: #000000; stroke-width: 0.8"/>
      </g>
     </g>
     <g id="text_1">
      <!-- 500000 -->
      <g transform="translate(67.950196 332.475312) scale(0.1 -0.1)">
       <defs>
        <path id="DejaVuSans-18" d="M 691 4666 
L 3169 4666 
L 3169 4134 
L 1269 4134 
L 1269 2991 
Q 1406 3038 1543 3061 
Q 1681 3084 1819 3084 
Q 2600 3084 3056 2656 
Q 3513 2228 3513 1497 
Q 3513 744 3044 326 
Q 2575 -91 1722 -91 
Q 1428 -91 1123 -41 
Q 819 9 494 109 
L 494 744 
Q 775 591 1075 516 
Q 1375 441 1709 441 
Q 2250 441 2565 725 
Q 2881 1009 2881 1497 
Q 2881 1984 2565 2268 
Q 2250 2553 1709 2553 
Q 1456 2553 1204 2497 
Q 953 2441 691 2322 
L 691 4666 
z
" transform="scale(0.015625)"/>
        <path id="DejaVuSans-13" d="M 2034 4250 
Q 1547 4250 1301 3770 
Q 1056 3291 1056 2328 
Q 1056 1369 1301 889 
Q 1547 409 2034 409 
Q 2525 409 2770 889 
Q 3016 1369 3016 2328 
Q 3016 3291 2770 3770 
Q 2525 4250 2034 4250 
z
M 2034 4750 
Q 2819 4750 3233 4129 
Q 3647 3509 3647 2328 
Q 3647 1150 3233 529 
Q 2819 -91 2034 -91 
Q 1250 -91 836 529 
Q 422 1150 422 2328 
Q 422 3509 836 4129 
Q 1250 4750 2034 4750 
z
" transform="scale(0.015625)"/>
       </defs>
       <use xlink:href="#DejaVuSans-18"/>
       <use xlink:href="#DejaVuSans-13" transform="translate(63.625 0)"/>
       <use xlink:href="#DejaVuSans-13" transform="translate(127.25 0)"/>
       <use xlink:href="#DejaVuSans-13" transform="translate(190.875 0)"/>
       <use xlink:href="#DejaVuSans-13" transform="translate(254.5 0)"/>
       <use xlink:href="#DejaVuSans-13" transform="translate(318.125 0)"/>
      </g>
     </g>
    </g>
    <g id="xtick_2">
     <g id="line2d_2">
      <g>
       <use xlink:href="#m9d4168bc85" x="246.855086" y="317.877656" style="stroke: #000000; stroke-width: 0.8"/>
      </g>
     </g>
     <g id="text_2">
      <!-- 520000 -->
      <g transform="translate(227.767586 332.475312) scale(0.1 -0.1)">
       <defs>
        <path id="DejaVuSans-15" d="M 1228 531 
L 3431 531 
L 3431 0 
L 469 0 
L 469 531 
Q 828 903 1448 1529 
Q 2069 2156 2228 2338 
Q 2531 2678 2651 2914 
Q 2772 3150 2772 3378 
Q 2772 3750 2511 3984 
Q 2250 4219 1831 4219 
Q 1534 4219 1204 4116 
Q 875 4013 500 3803 
L 500 4441 
Q 881 4594 1212 4672 
Q 1544 4750 1819 4750 
Q 2544 4750 2975 4387 
Q 3406 4025 3406 3419 
Q 3406 3131 3298 2873 
Q 3191 2616 2906 2266 
Q 2828 2175 2409 1742 
Q 1991 1309 1228 531 
z
" transform="scale(0.015625)"/>
       </defs>
       <use xlink:href="#DejaVuSans-18"/>
       <use xlink:href="#DejaVuSans-15" transform="translate(63.625 0)"/>
       <use xlink:href="#DejaVuSans-13" transform="translate(127.25 0)"/>
       <use xlink:href="#DejaVuSans-13" transform="translate(190.875 0)"/>
       <use xlink:href="#DejaVuSans-13" transform="translate(254.5 0)"/>
       <use xlink:href="#DejaVuSans-13" transform="translate(318.125 0)"/>
      </g>
     </g>
    </g>
    <g id="xtick_3">
     <g id="line2d_3">
      <g>
       <use xlink:href="#m9d4168bc85" x="406.672477" y="317.877656" style="stroke: #000000; stroke-width: 0.8"/>
      </g>
     </g>
     <g id="text_3">
      <!-- 540000 -->
      <g transform="translate(387.584977 332.475312) scale(0.1 -0.1)">
       <defs>
        <path id="DejaVuSans-17" d="M 2419 4116 
L 825 1625 
L 2419 1625 
L 2419 4116 
z
M 2253 4666 
L 3047 4666 
L 3047 1625 
L 3713 1625 
L 3713 1100 
L 3047 1100 
L 3047 0 
L 2419 0 
L 2419 1100 
L 313 1100 
L 313 1709 
L 2253 4666 
z
" transform="scale(0.015625)"/>
       </defs>
       <use xlink:href="#DejaVuSans-18"/>
       <use xlink:href="#DejaVuSans-17" transform="translate(63.625 0)"/>
       <use xlink:href="#DejaVuSans-13" transform="translate(127.25 0)"/>
       <use xlink:href="#DejaVuSans-13" transform="translate(190.875 0)"/>
       <use xlink:href="#DejaVuSans-13" transform="translate(254.5 0)"/>
       <use xlink:href="#DejaVuSans-13" transform="translate(318.125 0)"/>
      </g>
     </g>
    </g>
    <g id="xtick_4">
     <g id="line2d_4">
      <g>
       <use xlink:href="#m9d4168bc85" x="566.489867" y="317.877656" style="stroke: #000000; stroke-width: 0.8"/>
      </g>
     </g>
     <g id="text_4">
      <!-- 560000 -->
      <g transform="translate(547.402367 332.475312) scale(0.1 -0.1)">
       <defs>
        <path id="DejaVuSans-19" d="M 2113 2584 
Q 1688 2584 1439 2293 
Q 1191 2003 1191 1497 
Q 1191 994 1439 701 
Q 1688 409 2113 409 
Q 2538 409 2786 701 
Q 3034 994 3034 1497 
Q 3034 2003 2786 2293 
Q 2538 2584 2113 2584 
z
M 3366 4563 
L 3366 3988 
Q 3128 4100 2886 4159 
Q 2644 4219 2406 4219 
Q 1781 4219 1451 3797 
Q 1122 3375 1075 2522 
Q 1259 2794 1537 2939 
Q 1816 3084 2150 3084 
Q 2853 3084 3261 2657 
Q 3669 2231 3669 1497 
Q 3669 778 3244 343 
Q 2819 -91 2113 -91 
Q 1303 -91 875 529 
Q 447 1150 447 2328 
Q 447 3434 972 4092 
Q 1497 4750 2381 4750 
Q 2619 4750 2861 4703 
Q 3103 4656 3366 4563 
z
" transform="scale(0.015625)"/>
       </defs>
       <use xlink:href="#DejaVuSans-18"/>
       <use xlink:href="#DejaVuSans-19" transform="translate(63.625 0)"/>
       <use xlink:href="#DejaVuSans-13" transform="translate(127.25 0)"/>
       <use xlink:href="#DejaVuSans-13" transform="translate(190.875 0)"/>
       <use xlink:href="#DejaVuSans-13" transform="translate(254.5 0)"/>
       <use xlink:href="#DejaVuSans-13" transform="translate(318.125 0)"/>
      </g>
     </g>
    </g>
    <g id="xtick_5">
     <g id="line2d_5">
      <g>
       <use xlink:href="#m9d4168bc85" x="726.307258" y="317.877656" style="stroke: #000000; stroke-width: 0.8"/>
      </g>
     </g>
     <g id="text_5">
      <!-- 580000 -->
      <g transform="translate(707.219758 332.475312) scale(0.1 -0.1)">
       <defs>
        <path id="DejaVuSans-1b" d="M 2034 2216 
Q 1584 2216 1326 1975 
Q 1069 1734 1069 1313 
Q 1069 891 1326 650 
Q 1584 409 2034 409 
Q 2484 409 2743 651 
Q 3003 894 3003 1313 
Q 3003 1734 2745 1975 
Q 2488 2216 2034 2216 
z
M 1403 2484 
Q 997 2584 770 2862 
Q 544 3141 544 3541 
Q 544 4100 942 4425 
Q 1341 4750 2034 4750 
Q 2731 4750 3128 4425 
Q 3525 4100 3525 3541 
Q 3525 3141 3298 2862 
Q 3072 2584 2669 2484 
Q 3125 2378 3379 2068 
Q 3634 1759 3634 1313 
Q 3634 634 3220 271 
Q 2806 -91 2034 -91 
Q 1263 -91 848 271 
Q 434 634 434 1313 
Q 434 1759 690 2068 
Q 947 2378 1403 2484 
z
M 1172 3481 
Q 1172 3119 1398 2916 
Q 1625 2713 2034 2713 
Q 2441 2713 2670 2916 
Q 2900 3119 2900 3481 
Q 2900 3844 2670 4047 
Q 2441 4250 2034 4250 
Q 1625 4250 1398 4047 
Q 1172 3844 1172 3481 
z
" transform="scale(0.015625)"/>
       </defs>
       <use xlink:href="#DejaVuSans-18"/>
       <use xlink:href="#DejaVuSans-1b" transform="translate(63.625 0)"/>
       <use xlink:href="#DejaVuSans-13" transform="translate(127.25 0)"/>
       <use xlink:href="#DejaVuSans-13" transform="translate(190.875 0)"/>
       <use xlink:href="#DejaVuSans-13" transform="translate(254.5 0)"/>
       <use xlink:href="#DejaVuSans-13" transform="translate(318.125 0)"/>
      </g>
     </g>
    </g>
    <g id="xtick_6">
     <g id="line2d_6">
      <g>
       <use xlink:href="#m9d4168bc85" x="886.124648" y="317.877656" style="stroke: #000000; stroke-width: 0.8"/>
      </g>
     </g>
     <g id="text_6">
      <!-- 600000 -->
      <g transform="translate(867.037148 332.475312) scale(0.1 -0.1)">
       <use xlink:href="#DejaVuSans-19"/>
       <use xlink:href="#DejaVuSans-13" transform="translate(63.625 0)"/>
       <use xlink:href="#DejaVuSans-13" transform="translate(127.25 0)"/>
       <use xlink:href="#DejaVuSans-13" transform="translate(190.875 0)"/>
       <use xlink:href="#DejaVuSans-13" transform="translate(254.5 0)"/>
       <use xlink:href="#DejaVuSans-13" transform="translate(318.125 0)"/>
      </g>
     </g>
    </g>
    <g id="text_7">
     <!-- chr16 coordinate (hg38) -->
     <g transform="translate(425.791328 346.476094) scale(0.1 -0.1)">
      <defs>
       <path id="DejaVuSans-46" d="M 3122 3366 
L 3122 2828 
Q 2878 2963 2633 3030 
Q 2388 3097 2138 3097 
Q 1578 3097 1268 2742 
Q 959 2388 959 1747 
Q 959 1106 1268 751 
Q 1578 397 2138 397 
Q 2388 397 2633 464 
Q 2878 531 3122 666 
L 3122 134 
Q 2881 22 2623 -34 
Q 2366 -91 2075 -91 
Q 1284 -91 818 406 
Q 353 903 353 1747 
Q 353 2603 823 3093 
Q 1294 3584 2113 3584 
Q 2378 3584 2631 3529 
Q 2884 3475 3122 3366 
z
" transform="scale(0.015625)"/>
       <path id="DejaVuSans-4b" d="M 3513 2113 
L 3513 0 
L 2938 0 
L 2938 2094 
Q 2938 2591 2744 2837 
Q 2550 3084 2163 3084 
Q 1697 3084 1428 2787 
Q 1159 2491 1159 1978 
L 1159 0 
L 581 0 
L 581 4863 
L 1159 4863 
L 1159 2956 
Q 1366 3272 1645 3428 
Q 1925 3584 2291 3584 
Q 2894 3584 3203 3211 
Q 3513 2838 3513 2113 
z
" transform="scale(0.015625)"/>
       <path id="DejaVuSans-55" d="M 2631 2963 
Q 2534 3019 2420 3045 
Q 2306 3072 2169 3072 
Q 1681 3072 1420 2755 
Q 1159 2438 1159 1844 
L 1159 0 
L 581 0 
L 581 3500 
L 1159 3500 
L 1159 2956 
Q 1341 3275 1631 3429 
Q 1922 3584 2338 3584 
Q 2397 3584 2469 3576 
Q 2541 3569 2628 3553 
L 2631 2963 
z
" transform="scale(0.015625)"/>
       <path id="DejaVuSans-14" d="M 794 531 
L 1825 531 
L 1825 4091 
L 703 3866 
L 703 4441 
L 1819 4666 
L 2450 4666 
L 2450 531 
L 3481 531 
L 3481 0 
L 794 0 
L 794 531 
z
" transform="scale(0.015625)"/>
       <path id="DejaVuSans-3" transform="scale(0.015625)"/>
       <path id="DejaVuSans-52" d="M 1959 3097 
Q 1497 3097 1228 2736 
Q 959 2375 959 1747 
Q 959 1119 1226 758 
Q 1494 397 1959 397 
Q 2419 397 2687 759 
Q 2956 1122 2956 1747 
Q 2956 2369 2687 2733 
Q 2419 3097 1959 3097 
z
M 1959 3584 
Q 2709 3584 3137 3096 
Q 3566 2609 3566 1747 
Q 3566 888 3137 398 
Q 2709 -91 1959 -91 
Q 1206 -91 779 398 
Q 353 888 353 1747 
Q 353 2609 779 3096 
Q 1206 3584 1959 3584 
z
" transform="scale(0.015625)"/>
       <path id="DejaVuSans-47" d="M 2906 2969 
L 2906 4863 
L 3481 4863 
L 3481 0 
L 2906 0 
L 2906 525 
Q 2725 213 2448 61 
Q 2172 -91 1784 -91 
Q 1150 -91 751 415 
Q 353 922 353 1747 
Q 353 2572 751 3078 
Q 1150 3584 1784 3584 
Q 2172 3584 2448 3432 
Q 2725 3281 2906 2969 
z
M 947 1747 
Q 947 1113 1208 752 
Q 1469 391 1925 391 
Q 2381 391 2643 752 
Q 2906 1113 2906 1747 
Q 2906 2381 2643 2742 
Q 2381 3103 1925 3103 
Q 1469 3103 1208 2742 
Q 947 2381 947 1747 
z
" transform="scale(0.015625)"/>
       <path id="DejaVuSans-4c" d="M 603 3500 
L 1178 3500 
L 1178 0 
L 603 0 
L 603 3500 
z
M 603 4863 
L 1178 4863 
L 1178 4134 
L 603 4134 
L 603 4863 
z
" transform="scale(0.015625)"/>
       <path id="DejaVuSans-51" d="M 3513 2113 
L 3513 0 
L 2938 0 
L 2938 2094 
Q 2938 2591 2744 2837 
Q 2550 3084 2163 3084 
Q 1697 3084 1428 2787 
Q 1159 2491 1159 1978 
L 1159 0 
L 581 0 
L 581 3500 
L 1159 3500 
L 1159 2956 
Q 1366 3272 1645 3428 
Q 1925 3584 2291 3584 
Q 2894 3584 3203 3211 
Q 3513 2838 3513 2113 
z
" transform="scale(0.015625)"/>
       <path id="DejaVuSans-44" d="M 2194 1759 
Q 1497 1759 1228 1600 
Q 959 1441 959 1056 
Q 959 750 1161 570 
Q 1363 391 1709 391 
Q 2188 391 2477 730 
Q 2766 1069 2766 1631 
L 2766 1759 
L 2194 1759 
z
M 3341 1997 
L 3341 0 
L 2766 0 
L 2766 531 
Q 2569 213 2275 61 
Q 1981 -91 1556 -91 
Q 1019 -91 701 211 
Q 384 513 384 1019 
Q 384 1609 779 1909 
Q 1175 2209 1959 2209 
L 2766 2209 
L 2766 2266 
Q 2766 2663 2505 2880 
Q 2244 3097 1772 3097 
Q 1472 3097 1187 3025 
Q 903 2953 641 2809 
L 641 3341 
Q 956 3463 1253 3523 
Q 1550 3584 1831 3584 
Q 2591 3584 2966 3190 
Q 3341 2797 3341 1997 
z
" transform="scale(0.015625)"/>
       <path id="DejaVuSans-57" d="M 1172 4494 
L 1172 3500 
L 2356 3500 
L 2356 3053 
L 1172 3053 
L 1172 1153 
Q 1172 725 1289 603 
Q 1406 481 1766 481 
L 2356 481 
L 2356 0 
L 1766 0 
Q 1100 0 847 248 
Q 594 497 594 1153 
L 594 3053 
L 172 3053 
L 172 3500 
L 594 3500 
L 594 4494 
L 1172 4494 
z
" transform="scale(0.015625)"/>
       <path id="DejaVuSans-48" d="M 3597 1894 
L 3597 1613 
L 953 1613 
Q 991 1019 1311 708 
Q 1631 397 2203 397 
Q 2534 397 2845 478 
Q 3156 559 3463 722 
L 3463 178 
Q 3153 47 2828 -22 
Q 2503 -91 2169 -91 
Q 1331 -91 842 396 
Q 353 884 353 1716 
Q 353 2575 817 3079 
Q 1281 3584 2069 3584 
Q 2775 3584 3186 3129 
Q 3597 2675 3597 1894 
z
M 3022 2063 
Q 3016 2534 2758 2815 
Q 2500 3097 2075 3097 
Q 1594 3097 1305 2825 
Q 1016 2553 972 2059 
L 3022 2063 
z
" transform="scale(0.015625)"/>
       <path id="DejaVuSans-b" d="M 1984 4856 
Q 1566 4138 1362 3434 
Q 1159 2731 1159 2009 
Q 1159 1288 1364 580 
Q 1569 -128 1984 -844 
L 1484 -844 
Q 1016 -109 783 600 
Q 550 1309 550 2009 
Q 550 2706 781 3412 
Q 1013 4119 1484 4856 
L 1984 4856 
z
" transform="scale(0.015625)"/>
       <path id="DejaVuSans-4a" d="M 2906 1791 
Q 2906 2416 2648 2759 
Q 2391 3103 1925 3103 
Q 1463 3103 1205 2759 
Q 947 2416 947 1791 
Q 947 1169 1205 825 
Q 1463 481 1925 481 
Q 2391 481 2648 825 
Q 2906 1169 2906 1791 
z
M 3481 434 
Q 3481 -459 3084 -895 
Q 2688 -1331 1869 -1331 
Q 1566 -1331 1297 -1286 
Q 1028 -1241 775 -1147 
L 775 -588 
Q 1028 -725 1275 -790 
Q 1522 -856 1778 -856 
Q 2344 -856 2625 -561 
Q 2906 -266 2906 331 
L 2906 616 
Q 2728 306 2450 153 
Q 2172 0 1784 0 
Q 1141 0 747 490 
Q 353 981 353 1791 
Q 353 2603 747 3093 
Q 1141 3584 1784 3584 
Q 2172 3584 2450 3431 
Q 2728 3278 2906 2969 
L 2906 3500 
L 3481 3500 
L 3481 434 
z
" transform="scale(0.015625)"/>
       <path id="DejaVuSans-16" d="M 2597 2516 
Q 3050 2419 3304 2112 
Q 3559 1806 3559 1356 
Q 3559 666 3084 287 
Q 2609 -91 1734 -91 
Q 1441 -91 1130 -33 
Q 819 25 488 141 
L 488 750 
Q 750 597 1062 519 
Q 1375 441 1716 441 
Q 2309 441 2620 675 
Q 2931 909 2931 1356 
Q 2931 1769 2642 2001 
Q 2353 2234 1838 2234 
L 1294 2234 
L 1294 2753 
L 1863 2753 
Q 2328 2753 2575 2939 
Q 2822 3125 2822 3475 
Q 2822 3834 2567 4026 
Q 2313 4219 1838 4219 
Q 1578 4219 1281 4162 
Q 984 4106 628 3988 
L 628 4550 
Q 988 4650 1302 4700 
Q 1616 4750 1894 4750 
Q 2613 4750 3031 4423 
Q 3450 4097 3450 3541 
Q 3450 3153 3228 2886 
Q 3006 2619 2597 2516 
z
" transform="scale(0.015625)"/>
       <path id="DejaVuSans-c" d="M 513 4856 
L 1013 4856 
Q 1481 4119 1714 3412 
Q 1947 2706 1947 2009 
Q 1947 1309 1714 600 
Q 1481 -109 1013 -844 
L 513 -844 
Q 928 -128 1133 580 
Q 1338 1288 1338 2009 
Q 1338 2731 1133 3434 
Q 928 4138 513 4856 
z
" transform="scale(0.015625)"/>
      </defs>
      <use xlink:href="#DejaVuSans-46"/>
      <use xlink:href="#DejaVuSans-4b" transform="translate(54.984375 0)"/>
      <use xlink:href="#DejaVuSans-55" transform="translate(118.359375 0)"/>
      <use xlink:href="#DejaVuSans-14" transform="translate(159.46875 0)"/>
      <use xlink:href="#DejaVuSans-19" transform="translate(223.09375 0)"/>
      <use xlink:href="#DejaVuSans-3" transform="translate(286.71875 0)"/>
      <use xlink:href="#DejaVuSans-46" transform="translate(318.5 0)"/>
      <use xlink:href="#DejaVuSans-52" transform="translate(373.484375 0)"/>
      <use xlink:href="#DejaVuSans-52" transform="translate(434.671875 0)"/>
      <use xlink:href="#DejaVuSans-55" transform="translate(495.859375 0)"/>
      <use xlink:href="#DejaVuSans-47" transform="translate(535.21875 0)"/>
      <use xlink:href="#DejaVuSans-4c" transform="translate(598.703125 0)"/>
      <use xlink:href="#DejaVuSans-51" transform="translate(626.484375 0)"/>
      <use xlink:href="#DejaVuSans-44" transform="translate(689.859375 0)"/>
      <use xlink:href="#DejaVuSans-57" transform="translate(751.140625 0)"/>
      <use xlink:href="#DejaVuSans-48" transform="translate(790.34375 0)"/>
      <use xlink:href="#DejaVuSans-3" transform="translate(851.875 0)"/>
      <use xlink:href="#DejaVuSans-b" transform="translate(883.65625 0)"/>
      <use xlink:href="#DejaVuSans-4b" transform="translate(922.671875 0)"/>
      <use xlink:href="#DejaVuSans-4a" transform="translate(986.046875 0)"/>
      <use xlink:href="#DejaVuSans-16" transform="translate(1049.53125 0)"/>
      <use xlink:href="#DejaVuSans-1b" transform="translate(1113.15625 0)"/>
      <use xlink:href="#DejaVuSans-c" transform="translate(1176.78125 0)"/>
     </g>
    </g>
   </g>
   <g id="matplotlib.axis_2">
    <g id="ytick_1">
     <g id="line2d_7">
      <defs>
       <path id="m29fa5be5e7" d="M 0 0 
L -3.5 0 
" style="stroke: #000000; stroke-width: 0.8"/>
      </defs>
      <g>
       <use xlink:href="#m29fa5be5e7" x="47.962344" y="305.741868" style="stroke: #000000; stroke-width: 0.8"/>
      </g>
     </g>
     <g id="text_8">
      <!-- 0.0 -->
      <g transform="translate(25.059219 309.540696) scale(0.1 -0.1)">
       <defs>
        <path id="DejaVuSans-11" d="M 684 794 
L 1344 794 
L 1344 0 
L 684 0 
L 684 794 
z
" transform="scale(0.015625)"/>
       </defs>
       <use xlink:href="#DejaVuSans-13"/>
       <use xlink:href="#DejaVuSans-11" transform="translate(63.625 0)"/>
       <use xlink:href="#DejaVuSans-13" transform="translate(95.40625 0)"/>
      </g>
     </g>
    </g>
    <g id="ytick_2">
     <g id="line2d_8">
      <g>
       <use xlink:href="#m29fa5be5e7" x="47.962344" y="257.198714" style="stroke: #000000; stroke-width: 0.8"/>
      </g>
     </g>
     <g id="text_9">
      <!-- 0.2 -->
      <g transform="translate(25.059219 260.997543) scale(0.1 -0.1)">
       <use xlink:href="#DejaVuSans-13"/>
       <use xlink:href="#DejaVuSans-11" transform="translate(63.625 0)"/>
       <use xlink:href="#DejaVuSans-15" transform="translate(95.40625 0)"/>
      </g>
     </g>
    </g>
    <g id="ytick_3">
     <g id="line2d_9">
      <g>
       <use xlink:href="#m29fa5be5e7" x="47.962344" y="208.655561" style="stroke: #000000; stroke-width: 0.8"/>
      </g>
     </g>
     <g id="text_10">
      <!-- 0.4 -->
      <g transform="translate(25.059219 212.454389) scale(0.1 -0.1)">
       <use xlink:href="#DejaVuSans-13"/>
       <use xlink:href="#DejaVuSans-11" transform="translate(63.625 0)"/>
       <use xlink:href="#DejaVuSans-17" transform="translate(95.40625 0)"/>
      </g>
     </g>
    </g>
    <g id="ytick_4">
     <g id="line2d_10">
      <g>
       <use xlink:href="#m29fa5be5e7" x="47.962344" y="160.112408" style="stroke: #000000; stroke-width: 0.8"/>
      </g>
     </g>
     <g id="text_11">
      <!-- 0.6 -->
      <g transform="translate(25.059219 163.911236) scale(0.1 -0.1)">
       <use xlink:href="#DejaVuSans-13"/>
       <use xlink:href="#DejaVuSans-11" transform="translate(63.625 0)"/>
       <use xlink:href="#DejaVuSans-19" transform="translate(95.40625 0)"/>
      </g>
     </g>
    </g>
    <g id="ytick_5">
     <g id="line2d_11">
      <g>
       <use xlink:href="#m29fa5be5e7" x="47.962344" y="111.569254" style="stroke: #000000; stroke-width: 0.8"/>
      </g>
     </g>
     <g id="text_12">
      <!-- 0.8 -->
      <g transform="translate(25.059219 115.368082) scale(0.1 -0.1)">
       <use xlink:href="#DejaVuSans-13"/>
       <use xlink:href="#DejaVuSans-11" transform="translate(63.625 0)"/>
       <use xlink:href="#DejaVuSans-1b" transform="translate(95.40625 0)"/>
      </g>
     </g>
    </g>
    <g id="ytick_6">
     <g id="line2d_12">
      <g>
       <use xlink:href="#m29fa5be5e7" x="47.962344" y="63.026101" style="stroke: #000000; stroke-width: 0.8"/>
      </g>
     </g>
     <g id="text_13">
      <!-- 1.0 -->
      <g transform="translate(25.059219 66.824929) scale(0.1 -0.1)">
       <use xlink:href="#DejaVuSans-14"/>
       <use xlink:href="#DejaVuSans-11" transform="translate(63.625 0)"/>
       <use xlink:href="#DejaVuSans-13" transform="translate(95.40625 0)"/>
      </g>
     </g>
    </g>
    <g id="text_14">
     <!-- global robust normalized signal -->
     <g transform="translate(18.656875 262.887109) rotate(-90) scale(0.1 -0.1)">
      <defs>
       <path id="DejaVuSans-4f" d="M 603 4863 
L 1178 4863 
L 1178 0 
L 603 0 
L 603 4863 
z
" transform="scale(0.015625)"/>
       <path id="DejaVuSans-45" d="M 3116 1747 
Q 3116 2381 2855 2742 
Q 2594 3103 2138 3103 
Q 1681 3103 1420 2742 
Q 1159 2381 1159 1747 
Q 1159 1113 1420 752 
Q 1681 391 2138 391 
Q 2594 391 2855 752 
Q 3116 1113 3116 1747 
z
M 1159 2969 
Q 1341 3281 1617 3432 
Q 1894 3584 2278 3584 
Q 2916 3584 3314 3078 
Q 3713 2572 3713 1747 
Q 3713 922 3314 415 
Q 2916 -91 2278 -91 
Q 1894 -91 1617 61 
Q 1341 213 1159 525 
L 1159 0 
L 581 0 
L 581 4863 
L 1159 4863 
L 1159 2969 
z
" transform="scale(0.015625)"/>
       <path id="DejaVuSans-58" d="M 544 1381 
L 544 3500 
L 1119 3500 
L 1119 1403 
Q 1119 906 1312 657 
Q 1506 409 1894 409 
Q 2359 409 2629 706 
Q 2900 1003 2900 1516 
L 2900 3500 
L 3475 3500 
L 3475 0 
L 2900 0 
L 2900 538 
Q 2691 219 2414 64 
Q 2138 -91 1772 -91 
Q 1169 -91 856 284 
Q 544 659 544 1381 
z
M 1991 3584 
L 1991 3584 
z
" transform="scale(0.015625)"/>
       <path id="DejaVuSans-56" d="M 2834 3397 
L 2834 2853 
Q 2591 2978 2328 3040 
Q 2066 3103 1784 3103 
Q 1356 3103 1142 2972 
Q 928 2841 928 2578 
Q 928 2378 1081 2264 
Q 1234 2150 1697 2047 
L 1894 2003 
Q 2506 1872 2764 1633 
Q 3022 1394 3022 966 
Q 3022 478 2636 193 
Q 2250 -91 1575 -91 
Q 1294 -91 989 -36 
Q 684 19 347 128 
L 347 722 
Q 666 556 975 473 
Q 1284 391 1588 391 
Q 1994 391 2212 530 
Q 2431 669 2431 922 
Q 2431 1156 2273 1281 
Q 2116 1406 1581 1522 
L 1381 1569 
Q 847 1681 609 1914 
Q 372 2147 372 2553 
Q 372 3047 722 3315 
Q 1072 3584 1716 3584 
Q 2034 3584 2315 3537 
Q 2597 3491 2834 3397 
z
" transform="scale(0.015625)"/>
       <path id="DejaVuSans-50" d="M 3328 2828 
Q 3544 3216 3844 3400 
Q 4144 3584 4550 3584 
Q 5097 3584 5394 3201 
Q 5691 2819 5691 2113 
L 5691 0 
L 5113 0 
L 5113 2094 
Q 5113 2597 4934 2840 
Q 4756 3084 4391 3084 
Q 3944 3084 3684 2787 
Q 3425 2491 3425 1978 
L 3425 0 
L 2847 0 
L 2847 2094 
Q 2847 2600 2669 2842 
Q 2491 3084 2119 3084 
Q 1678 3084 1418 2786 
Q 1159 2488 1159 1978 
L 1159 0 
L 581 0 
L 581 3500 
L 1159 3500 
L 1159 2956 
Q 1356 3278 1631 3431 
Q 1906 3584 2284 3584 
Q 2666 3584 2933 3390 
Q 3200 3197 3328 2828 
z
" transform="scale(0.015625)"/>
       <path id="DejaVuSans-5d" d="M 353 3500 
L 3084 3500 
L 3084 2975 
L 922 459 
L 3084 459 
L 3084 0 
L 275 0 
L 275 525 
L 2438 3041 
L 353 3041 
L 353 3500 
z
" transform="scale(0.015625)"/>
      </defs>
      <use xlink:href="#DejaVuSans-4a"/>
      <use xlink:href="#DejaVuSans-4f" transform="translate(63.484375 0)"/>
      <use xlink:href="#DejaVuSans-52" transform="translate(91.265625 0)"/>
      <use xlink:href="#DejaVuSans-45" transform="translate(152.453125 0)"/>
      <use xlink:href="#DejaVuSans-44" transform="translate(215.9375 0)"/>
      <use xlink:href="#DejaVuSans-4f" transform="translate(277.21875 0)"/>
      <use xlink:href="#DejaVuSans-3" transform="translate(305 0)"/>
      <use xlink:href="#DejaVuSans-55" transform="translate(336.78125 0)"/>
      <use xlink:href="#DejaVuSans-52" transform="translate(375.6875 0)"/>
      <use xlink:href="#DejaVuSans-45" transform="translate(436.875 0)"/>
      <use xlink:href="#DejaVuSans-58" transform="translate(500.359375 0)"/>
      <use xlink:href="#DejaVuSans-56" transform="translate(563.734375 0)"/>
      <use xlink:href="#DejaVuSans-57" transform="translate(615.828125 0)"/>
      <use xlink:href="#DejaVuSans-3" transform="translate(655.03125 0)"/>
      <use xlink:href="#DejaVuSans-51" transform="translate(686.8125 0)"/>
      <use xlink:href="#DejaVuSans-52" transform="translate(750.1875 0)"/>
      <use xlink:href="#DejaVuSans-55" transform="translate(811.375 0)"/>
      <use xlink:href="#DejaVuSans-50" transform="translate(850.734375 0)"/>
      <use xlink:href="#DejaVuSans-44" transform="translate(948.140625 0)"/>
      <use xlink:href="#DejaVuSans-4f" transform="translate(1009.421875 0)"/>
      <use xlink:href="#DejaVuSans-4c" transform="translate(1037.203125 0)"/>
      <use xlink:href="#DejaVuSans-5d" transform="translate(1064.984375 0)"/>
      <use xlink:href="#DejaVuSans-48" transform="translate(1117.46875 0)"/>
      <use xlink:href="#DejaVuSans-47" transform="translate(1179 0)"/>
      <use xlink:href="#DejaVuSans-3" transform="translate(1242.484375 0)"/>
      <use xlink:href="#DejaVuSans-56" transform="translate(1274.265625 0)"/>
      <use xlink:href="#DejaVuSans-4c" transform="translate(1326.359375 0)"/>
      <use xlink:href="#DejaVuSans-4a" transform="translate(1354.140625 0)"/>
      <use xlink:href="#DejaVuSans-51" transform="translate(1417.625 0)"/>
      <use xlink:href="#DejaVuSans-44" transform="translate(1481 0)"/>
      <use xlink:href="#DejaVuSans-4f" transform="translate(1542.28125 0)"/>
     </g>
    </g>
   </g>
   <g id="line2d_13">
    <path d="M 87.836783 303.614223 
L 89.434957 305.741868 
L 91.03313 305.041581 
L 92.631304 303.337993 
L 94.229478 302.90561 
L 95.827652 301.530477 
L 97.425826 301.975633 
L 99.024 300.954229 
L 100.622174 301.632927 
L 102.220348 301.531618 
L 103.818522 297.259908 
L 105.416696 297.273812 
L 107.01487 297.600054 
L 108.613043 294.797945 
L 110.211217 296.759683 
L 111.809391 300.689707 
L 113.407565 302.444383 
L 115.005739 299.85539 
L 116.603913 302.170227 
L 118.202087 302.560184 
L 119.800261 302.191316 
L 121.398435 305.632635 
L 122.996609 305.602268 
L 124.594782 305.27454 
L 126.192956 304.660453 
L 127.79113 304.324274 
L 129.389304 298.382536 
L 130.987478 302.158412 
L 132.585652 304.392676 
L 134.183826 303.575613 
L 135.782 303.265591 
L 137.380174 298.671074 
L 138.978348 300.912142 
L 140.576522 299.562103 
L 142.174695 299.581475 
L 143.772869 302.634382 
L 145.371043 298.270495 
L 146.969217 300.182357 
L 148.567391 303.08958 
L 150.165565 302.316317 
L 151.763739 301.046325 
L 153.361913 298.766045 
L 154.960087 299.514723 
L 156.558261 301.515382 
L 158.156434 303.702582 
L 159.754608 300.905638 
L 161.352782 302.633675 
L 162.950956 299.901304 
L 164.54913 300.335224 
L 166.147304 302.301216 
L 167.745478 300.649667 
L 169.343652 303.186703 
L 170.941826 298.588299 
L 172.54 297.694029 
L 174.138174 303.544781 
L 175.736347 303.927165 
L 177.334521 305.147072 
L 178.932695 303.223122 
L 180.530869 301.839304 
L 182.129043 302.041484 
L 183.727217 299.205184 
L 185.325391 304.485536 
L 186.923565 304.685806 
L 188.521739 303.952431 
L 190.119913 298.047121 
L 191.718086 296.014632 
L 193.31626 299.238599 
L 194.914434 301.872535 
L 196.512608 303.849369 
L 198.110782 302.83561 
L 199.708956 303.41428 
L 201.30713 302.593284 
L 202.905304 301.547869 
L 204.503478 302.808534 
L 206.101652 303.694782 
L 207.699826 303.429065 
L 209.297999 300.425586 
L 210.896173 301.438703 
L 212.494347 303.538715 
L 214.092521 303.478028 
L 215.690695 303.8382 
L 217.288869 302.703795 
L 218.887043 303.850147 
L 220.485217 303.62975 
L 222.083391 300.710394 
L 223.681565 300.212696 
L 225.279738 300.501311 
L 226.877912 299.232745 
L 228.476086 302.183184 
L 230.07426 303.692755 
L 231.672434 303.53495 
L 233.270608 301.069264 
L 234.868782 303.864477 
L 236.466956 302.90312 
L 238.06513 302.538885 
L 239.663304 299.2125 
L 241.261478 299.393937 
L 242.859651 302.628317 
L 244.457825 300.783225 
L 246.055999 299.191659 
L 247.654173 301.204592 
L 249.252347 302.41589 
L 250.850521 304.284018 
L 252.448695 300.94675 
L 254.046869 301.719127 
L 255.645043 298.784749 
L 258.84139 296.907311 
L 260.439564 299.069767 
L 262.037738 300.783752 
L 263.635912 302.248075 
L 265.234086 304.406773 
L 266.83226 301.284756 
L 268.430434 300.064467 
L 270.028608 301.672353 
L 271.626782 299.871774 
L 273.224956 301.947661 
L 274.82313 299.298921 
L 276.421303 301.278495 
L 278.019477 301.504735 
L 279.617651 298.968979 
L 281.215825 298.676255 
L 282.813999 301.401958 
L 284.412173 299.342133 
L 286.010347 301.192098 
L 287.608521 300.577642 
L 289.206695 297.935985 
L 290.804869 293.568827 
L 292.403042 294.650854 
L 294.001216 285.985947 
L 295.59939 273.985398 
L 297.197564 252.268568 
L 298.795738 218.892147 
L 300.393912 127.699617 
L 301.992086 63.026101 
L 303.59026 63.026101 
L 305.188434 88.94339 
L 306.786608 181.206693 
L 308.384782 155.597654 
L 309.982955 89.416263 
L 311.581129 63.026101 
L 314.777477 63.026101 
L 316.375651 78.996751 
L 317.973825 189.562674 
L 319.571999 212.680727 
L 321.170173 247.175308 
L 322.768347 266.449201 
L 324.366521 291.266495 
L 325.964694 298.368089 
L 327.562868 300.205285 
L 329.161042 297.737337 
L 332.35739 297.555934 
L 333.955564 300.595599 
L 335.553738 302.786744 
L 337.151912 302.114415 
L 338.750086 300.214241 
L 340.34826 302.395669 
L 341.946434 302.69578 
L 343.544607 304.336733 
L 345.142781 303.313783 
L 346.740955 299.159887 
L 348.339129 303.528184 
L 349.937303 301.097338 
L 351.535477 300.918008 
L 353.133651 302.064435 
L 356.329999 294.369907 
L 357.928173 295.629893 
L 359.526346 294.407571 
L 361.12452 298.147748 
L 362.722694 296.103341 
L 364.320868 297.728398 
L 365.919042 300.904231 
L 367.517216 298.490184 
L 369.11539 291.316691 
L 370.713564 290.019132 
L 372.311738 298.089123 
L 373.909912 299.008701 
L 375.508086 296.756002 
L 377.106259 300.262906 
L 378.704433 300.60336 
L 380.302607 301.087427 
L 381.900781 299.71456 
L 383.498955 304.055306 
L 385.097129 305.741868 
L 386.695303 304.298275 
L 388.293477 301.94509 
L 389.891651 305.21919 
L 393.087998 298.821561 
L 394.686172 298.566521 
L 396.284346 302.421214 
L 397.88252 303.778772 
L 399.480694 301.683403 
L 401.078868 301.842518 
L 402.677042 300.06381 
L 404.275216 301.072479 
L 405.87339 302.70974 
L 407.471564 301.946269 
L 409.069738 302.640685 
L 410.667911 303.080423 
L 412.266085 304.872182 
L 413.864259 303.814341 
L 415.462433 303.329219 
L 417.060607 297.678524 
L 418.658781 300.903721 
L 420.256955 298.90171 
L 421.855129 301.462979 
L 423.453303 299.284114 
L 425.051477 298.273699 
L 426.64965 302.927464 
L 428.247824 303.005414 
L 429.845998 301.840129 
L 431.444172 300.890464 
L 433.042346 300.410374 
L 434.64052 302.447334 
L 437.836868 303.510032 
L 439.435042 302.690665 
L 441.033216 300.81709 
L 442.631389 303.613374 
L 444.229563 304.558382 
L 445.827737 305.741868 
L 447.425911 305.134941 
L 449.024085 301.786842 
L 450.622259 303.846203 
L 452.220433 300.485821 
L 453.818607 300.628134 
L 455.416781 302.342657 
L 457.014955 303.678998 
L 458.613129 303.9919 
L 460.211302 302.501151 
L 461.809476 301.441597 
L 463.40765 301.122786 
L 465.005824 297.049769 
L 466.603998 298.738045 
L 468.202172 301.324231 
L 469.800346 301.581772 
L 471.39852 300.921704 
L 476.193041 299.526843 
L 477.791215 297.778885 
L 479.389389 300.291598 
L 480.987563 305.741868 
L 482.585737 302.846823 
L 484.183911 302.64045 
L 485.782085 297.287376 
L 487.380259 300.549705 
L 488.978433 305.395909 
L 492.174781 300.734674 
L 493.772954 301.966759 
L 495.371128 305.450546 
L 496.969302 305.395903 
L 498.567476 305.110743 
L 500.16565 302.554242 
L 501.763824 299.346342 
L 503.361998 300.32802 
L 504.960172 302.749703 
L 506.558346 303.860402 
L 508.15652 301.725768 
L 509.754693 303.951443 
L 511.352867 305.177429 
L 512.951041 304.054628 
L 514.549215 300.795367 
L 516.147389 297.833499 
L 517.745563 298.115807 
L 519.343737 303.741478 
L 520.941911 304.297225 
L 522.540085 303.559129 
L 524.138259 301.545229 
L 525.736433 301.002258 
L 527.334606 302.385541 
L 528.93278 299.328062 
L 530.530954 300.649604 
L 532.129128 305.129244 
L 533.727302 303.135964 
L 535.325476 304.623874 
L 536.92365 301.442201 
L 538.521824 302.43408 
L 540.119998 304.007158 
L 541.718172 305.741868 
L 543.316345 305.741868 
L 544.914519 304.612964 
L 546.512693 303.158629 
L 548.110867 304.039338 
L 549.709041 300.472208 
L 551.307215 299.242525 
L 552.905389 299.341121 
L 556.101737 293.982719 
L 557.699911 295.451346 
L 559.298085 300.012319 
L 560.896258 297.417824 
L 562.494432 297.565062 
L 564.092606 288.851383 
L 565.69078 285.732463 
L 567.288954 249.798885 
L 568.887128 203.146521 
L 570.485302 191.918585 
L 572.083476 248.783706 
L 573.68165 275.695257 
L 575.279824 284.004939 
L 576.877997 295.520583 
L 578.476171 302.138511 
L 580.074345 301.416167 
L 581.672519 303.848518 
L 583.270693 303.113859 
L 584.868867 296.805782 
L 586.467041 296.462283 
L 588.065215 300.807474 
L 589.663389 299.959836 
L 591.261563 301.590457 
L 592.859737 292.408455 
L 594.45791 300.726643 
L 596.056084 302.251984 
L 597.654258 299.575411 
L 599.252432 300.352304 
L 600.850606 297.390725 
L 602.44878 301.678113 
L 604.046954 298.203738 
L 605.645128 299.312553 
L 607.243302 303.175114 
L 608.841476 301.360638 
L 610.439649 303.984624 
L 612.037823 300.504806 
L 613.635997 299.352538 
L 615.234171 300.035438 
L 616.832345 300.910268 
L 618.430519 298.60309 
L 620.028693 301.566127 
L 621.626867 301.825872 
L 623.225041 296.139323 
L 624.823215 297.233477 
L 626.421389 303.138154 
L 628.019562 301.899984 
L 629.617736 299.532933 
L 631.21591 300.241123 
L 632.814084 300.711495 
L 634.412258 303.28425 
L 636.010432 297.569222 
L 637.608606 291.367844 
L 639.20678 286.074787 
L 640.804954 266.80497 
L 642.403128 230.668921 
L 644.001301 186.766131 
L 645.599475 177.74782 
L 647.197649 63.026101 
L 648.795823 63.026101 
L 650.393997 78.16175 
L 651.992171 71.781507 
L 655.188519 265.074443 
L 656.786693 292.642815 
L 658.384867 297.611628 
L 659.983041 299.867385 
L 661.581214 298.46461 
L 663.179388 299.522184 
L 664.777562 298.434333 
L 666.375736 299.930216 
L 667.97391 301.590447 
L 669.572084 304.570485 
L 671.170258 305.57192 
L 672.768432 302.610108 
L 675.96478 299.282612 
L 677.562953 299.309031 
L 679.161127 301.427188 
L 680.759301 304.109687 
L 682.357475 303.471956 
L 683.955649 302.282751 
L 685.553823 299.551155 
L 687.151997 302.148822 
L 688.750171 305.741868 
L 690.348345 301.323395 
L 691.946519 302.567626 
L 693.544693 302.944562 
L 695.142866 303.826716 
L 696.74104 302.869786 
L 698.339214 299.301488 
L 699.937388 298.640925 
L 701.535562 302.355212 
L 703.133736 301.416275 
L 704.73191 300.05258 
L 706.330084 300.048822 
L 707.928258 301.104591 
L 709.526432 304.122567 
L 711.124605 304.867895 
L 712.722779 303.066239 
L 714.320953 300.672138 
L 715.919127 296.455111 
L 717.517301 288.335272 
L 719.115475 267.010647 
L 720.713649 289.789679 
L 723.909997 303.405203 
L 725.508171 302.330934 
L 727.106345 300.819719 
L 728.704518 302.218352 
L 730.302692 298.607224 
L 731.900866 303.094338 
L 733.49904 301.652294 
L 735.097214 303.650463 
L 736.695388 303.133567 
L 738.293562 301.984981 
L 739.891736 301.845375 
L 741.48991 302.475132 
L 743.088084 300.392764 
L 744.686257 301.069785 
L 746.284431 302.731489 
L 747.882605 295.806841 
L 749.480779 297.068101 
L 751.078953 301.332921 
L 752.677127 301.141535 
L 754.275301 295.194017 
L 755.873475 297.807271 
L 757.471649 301.633511 
L 759.069823 300.38403 
L 760.667997 295.098127 
L 762.26617 298.611382 
L 763.864344 303.814837 
L 765.462518 305.741868 
L 767.060692 305.741868 
L 768.658866 302.822083 
L 770.25704 297.953438 
L 771.855214 301.359902 
L 773.453388 296.853497 
L 775.051562 288.773884 
L 776.649736 297.67334 
L 778.247909 301.547776 
L 779.846083 304.624698 
L 781.444257 302.975801 
L 783.042431 300.846486 
L 784.640605 297.26735 
L 786.238779 294.038533 
L 787.836953 294.409185 
L 789.435127 291.074853 
L 791.033301 270.222615 
L 792.631475 245.620082 
L 794.229649 181.308396 
L 795.827822 140.511772 
L 797.425996 65.246205 
L 799.02417 63.026101 
L 800.622344 136.304276 
L 802.220518 153.64622 
L 803.818692 163.804909 
L 805.416866 252.19712 
L 807.01504 231.139422 
L 808.613214 106.118317 
L 810.211388 75.855217 
L 811.809561 105.633535 
L 813.407735 225.844496 
L 815.005909 256.669077 
L 816.604083 289.877553 
L 818.202257 299.526433 
L 821.398605 302.162937 
L 824.594953 299.313664 
L 826.193127 298.348054 
L 827.791301 301.248473 
L 829.389474 301.722453 
L 830.987648 298.968504 
L 832.585822 298.408725 
L 834.183996 299.394741 
L 835.78217 300.015789 
L 837.380344 296.896045 
L 838.978518 302.357844 
L 840.576692 300.26667 
L 842.174866 304.89927 
L 843.77304 301.359817 
L 845.371213 299.560878 
L 846.969387 301.054255 
L 848.567561 300.24209 
L 850.165735 303.357881 
L 851.763909 302.826626 
L 853.362083 303.961177 
L 854.960257 304.199492 
L 856.558431 303.455995 
L 858.156605 301.293607 
L 859.754779 298.649442 
L 861.352953 299.830328 
L 862.951126 300.295094 
L 864.5493 303.564696 
L 866.147474 301.231955 
L 867.745648 299.330095 
L 869.343822 302.306638 
L 870.941996 305.741868 
L 872.54017 305.226332 
L 874.138344 302.381049 
L 875.736518 303.22324 
L 877.334692 300.682217 
L 878.932865 300.534378 
L 880.531039 302.798265 
L 882.129213 304.340318 
L 883.727387 304.606897 
L 885.325561 305.420181 
L 885.325561 305.420181 
" clip-path="url(#p9509a12059)" style="fill: none; stroke: #2ca02c; stroke-width: 1.2; stroke-linecap: square"/>
   </g>
   <g id="line2d_14">
    <path d="M 87.836783 303.649587 
L 89.434957 304.079771 
L 91.03313 304.663942 
L 92.631304 304.281013 
L 94.229478 303.219402 
L 95.827652 302.974979 
L 97.425826 303.762836 
L 99.024 304.694902 
L 100.622174 303.977928 
L 103.818522 301.933737 
L 105.416696 301.115735 
L 107.01487 300.695327 
L 108.613043 301.493776 
L 110.211217 299.945764 
L 111.809391 300.441128 
L 113.407565 300.765395 
L 115.005739 301.791972 
L 116.603913 303.025493 
L 118.202087 305.20982 
L 119.800261 305.741868 
L 124.594782 305.741868 
L 126.192956 305.444466 
L 127.79113 304.231313 
L 129.389304 303.945339 
L 130.987478 304.271236 
L 132.585652 304.398336 
L 135.782 304.199538 
L 138.978348 304.175096 
L 140.576522 304.021924 
L 142.174695 304.181614 
L 143.772869 304.737269 
L 145.371043 304.993098 
L 146.969217 304.277754 
L 148.567391 303.926599 
L 150.165565 303.722914 
L 151.763739 303.363612 
L 153.361913 303.59174 
L 154.960087 304.095251 
L 158.156434 303.588481 
L 164.54913 302.948907 
L 166.147304 303.685435 
L 167.745478 304.217463 
L 169.343652 304.085474 
L 170.941826 303.772613 
L 172.54 303.832904 
L 174.138174 305.138123 
L 175.736347 305.741868 
L 180.530869 305.741868 
L 182.129043 305.573603 
L 183.727217 304.963768 
L 185.325391 305.741868 
L 186.923565 305.741868 
L 188.521739 304.636241 
L 190.119913 303.804388 
L 191.718086 303.590925 
L 194.914434 303.698471 
L 196.512608 303.76528 
L 199.708956 304.136803 
L 202.905304 303.933932 
L 204.503478 304.03659 
L 209.297999 303.987705 
L 210.896173 304.618317 
L 212.494347 304.856222 
L 214.092521 304.329897 
L 215.690695 303.975484 
L 217.288869 303.757133 
L 218.887043 304.096881 
L 220.485217 304.778006 
L 222.083391 304.166134 
L 225.279738 303.796241 
L 226.877912 303.731061 
L 228.476086 304.206056 
L 230.07426 304.833409 
L 233.270608 304.091178 
L 234.868782 304.531954 
L 238.06513 304.007259 
L 241.261478 304.260644 
L 244.457825 304.46596 
L 246.055999 304.643574 
L 249.252347 304.566173 
L 254.046869 304.175911 
L 255.645043 304.058588 
L 257.243217 303.725358 
L 262.037738 302.101574 
L 263.635912 303.017346 
L 265.234086 303.102079 
L 266.83226 302.248228 
L 268.430434 302.345997 
L 270.028608 302.743592 
L 273.224956 303.0369 
L 274.82313 302.68819 
L 276.421303 303.473602 
L 278.019477 303.872826 
L 279.617651 302.417695 
L 281.215825 301.60784 
L 282.813999 301.816414 
L 284.412173 301.679537 
L 286.010347 301.104329 
L 287.608521 298.884968 
L 289.206695 295.947003 
L 290.804869 293.574471 
L 292.403042 295.135519 
L 294.001216 287.620327 
L 295.59939 276.979779 
L 297.197564 259.759365 
L 298.795738 227.332581 
L 300.393912 168.77535 
L 301.992086 82.321308 
L 303.59026 63.026101 
L 305.188434 114.780682 
L 306.786608 170.939308 
L 308.384782 189.684922 
L 309.982955 113.033872 
L 311.581129 76.846233 
L 313.179303 63.026101 
L 314.777477 63.026101 
L 316.375651 111.000273 
L 317.973825 197.350027 
L 319.571999 235.04983 
L 322.768347 278.270333 
L 324.366521 287.802829 
L 325.964694 293.32353 
L 327.562868 296.217498 
L 330.759216 298.606326 
L 332.35739 299.584018 
L 335.553738 301.169508 
L 338.750086 302.170013 
L 340.34826 302.805513 
L 343.544607 302.460061 
L 345.142781 302.636046 
L 346.740955 303.460566 
L 348.339129 304.830965 
L 349.937303 303.990149 
L 351.535477 302.388364 
L 354.731825 298.487373 
L 356.329999 295.842716 
L 357.928173 296.989875 
L 359.526346 292.590261 
L 361.12452 292.453384 
L 362.722694 293.561435 
L 364.320868 292.394723 
L 365.919042 292.443607 
L 367.517216 289.464906 
L 369.11539 285.505253 
L 370.713564 286.952237 
L 372.311738 291.798331 
L 373.909912 287.802829 
L 375.508086 288.105914 
L 377.106259 291.847215 
L 378.704433 298.353755 
L 380.302607 299.712747 
L 381.900781 299.134279 
L 385.097129 300.133155 
L 386.695303 301.32268 
L 388.293477 302.248228 
L 389.891651 302.473097 
L 391.489825 302.297113 
L 394.686172 302.264523 
L 396.284346 302.629528 
L 397.88252 302.870692 
L 399.480694 302.231933 
L 401.078868 301.435114 
L 404.275216 299.150574 
L 405.87339 299.619866 
L 407.471564 300.980488 
L 409.069738 300.182039 
L 410.667911 301.459557 
L 413.864259 302.453544 
L 418.658781 303.028752 
L 420.256955 303.132225 
L 421.855129 304.434185 
L 423.453303 303.812535 
L 425.051477 302.639305 
L 426.64965 302.733815 
L 428.247824 303.268287 
L 429.845998 303.349761 
L 431.444172 302.489392 
L 433.042346 302.378587 
L 434.64052 302.886987 
L 436.238694 302.486133 
L 437.836868 302.97172 
L 441.033216 303.221032 
L 442.631389 303.6724 
L 444.229563 305.435504 
L 445.827737 305.275 
L 447.425911 303.282137 
L 452.220433 303.187627 
L 453.818607 303.469528 
L 457.014955 303.290285 
L 458.613129 303.344058 
L 460.211302 303.59174 
L 461.809476 303.4956 
L 463.40765 303.285396 
L 465.005824 302.285706 
L 466.603998 301.666502 
L 468.202172 302.572496 
L 469.800346 303.276434 
L 471.39852 302.932613 
L 472.996694 303.203107 
L 474.594868 302.900023 
L 476.193041 302.867433 
L 477.791215 303.062972 
L 479.389389 303.721284 
L 480.987563 304.127026 
L 482.585737 303.999926 
L 485.782085 302.75174 
L 487.380259 302.580643 
L 488.978433 302.7827 
L 490.576607 303.21207 
L 492.174781 304.279383 
L 493.772954 305.167453 
L 495.371128 305.268482 
L 496.969302 304.162875 
L 498.567476 303.326948 
L 501.763824 303.136298 
L 503.361998 303.667511 
L 504.960172 303.747356 
L 506.558346 303.477676 
L 508.15652 303.344058 
L 509.754693 304.035775 
L 511.352867 305.389878 
L 512.951041 304.001556 
L 514.549215 302.792477 
L 516.147389 302.733815 
L 517.745563 301.674649 
L 519.343737 300.828945 
L 520.941911 299.802369 
L 522.540085 298.280428 
L 524.138259 299.202718 
L 525.736433 299.279304 
L 527.334606 299.57587 
L 528.93278 301.681167 
L 530.530954 301.92559 
L 533.727302 303.038529 
L 536.92365 303.806017 
L 538.521824 304.297308 
L 543.316345 304.414631 
L 548.110867 304.03659 
L 549.709041 304.017036 
L 551.307215 303.693583 
L 552.905389 302.94076 
L 554.503563 302.43236 
L 556.101737 301.666502 
L 557.699911 300.43461 
L 559.298085 298.684541 
L 560.896258 298.009934 
L 562.494432 295.35387 
L 564.092606 287.239027 
L 565.69078 277.788005 
L 567.288954 265.957932 
L 568.887128 255.894222 
L 570.485302 250.432183 
L 572.083476 264.041656 
L 573.68165 278.856948 
L 575.279824 289.429057 
L 576.877997 295.748206 
L 578.476171 298.72039 
L 580.074345 300.525861 
L 581.672519 301.477481 
L 583.270693 301.990769 
L 584.868867 303.020605 
L 588.065215 303.141187 
L 589.663389 303.523302 
L 591.261563 303.715581 
L 592.859737 304.063476 
L 596.056084 304.21176 
L 597.654258 304.619131 
L 599.252432 304.541731 
L 600.850606 304.748675 
L 602.44878 305.17886 
L 604.046954 304.916513 
L 605.645128 305.023244 
L 607.243302 304.915698 
L 608.841476 304.505882 
L 610.439649 304.284272 
L 612.037823 303.524931 
L 613.635997 303.945339 
L 616.832345 303.507007 
L 618.430519 302.24171 
L 620.028693 301.694203 
L 621.626867 302.864989 
L 623.225041 302.126831 
L 624.823215 302.492651 
L 626.421389 303.033641 
L 628.019562 303.860605 
L 629.617736 303.881789 
L 631.21591 303.325319 
L 632.814084 302.500799 
L 636.010432 299.817034 
L 637.608606 297.338585 
L 639.20678 291.456138 
L 640.804954 260.235175 
L 642.403128 215.183129 
L 644.001301 144.737163 
L 645.599475 153.705858 
L 647.197649 63.026101 
L 648.795823 63.026101 
L 650.393997 106.359495 
L 651.992171 189.372061 
L 655.188519 281.594485 
L 656.786693 295.722134 
L 658.384867 300.323805 
L 659.983041 302.057578 
L 661.581214 302.112981 
L 663.179388 302.350886 
L 664.777562 302.732186 
L 666.375736 303.452419 
L 667.97391 304.619131 
L 669.572084 304.43337 
L 672.768432 303.880159 
L 674.366606 303.792167 
L 675.96478 303.853273 
L 677.562953 304.324194 
L 680.759301 304.509141 
L 682.357475 304.492846 
L 683.955649 304.179985 
L 685.553823 303.980372 
L 687.151997 303.921711 
L 690.348345 304.162875 
L 695.142866 303.929044 
L 696.74104 303.59011 
L 698.339214 303.4182 
L 701.535562 302.720779 
L 703.133736 303.203107 
L 704.73191 304.329083 
L 706.330084 304.602836 
L 707.928258 304.029257 
L 709.526432 303.853273 
L 711.124605 304.056958 
L 712.722779 303.665882 
L 714.320953 302.849509 
L 715.919127 300.929974 
L 717.517301 298.042523 
L 719.115475 293.54514 
L 720.713649 297.216374 
L 723.909997 305.091682 
L 725.508171 303.654475 
L 727.106345 303.071119 
L 728.704518 303.380721 
L 730.302692 303.943709 
L 731.900866 304.175096 
L 735.097214 304.007259 
L 736.695388 304.198724 
L 738.293562 304.778821 
L 739.891736 305.506387 
L 741.48991 304.963768 
L 743.088084 304.184873 
L 746.284431 303.826386 
L 747.882605 303.925785 
L 751.078953 303.525746 
L 752.677127 303.466269 
L 755.873475 302.585532 
L 757.471649 301.653466 
L 759.069823 302.323185 
L 760.667997 302.183049 
L 762.26617 303.153408 
L 763.864344 304.743787 
L 765.462518 305.741868 
L 767.060692 305.741868 
L 768.658866 304.74949 
L 770.25704 302.350886 
L 771.855214 301.453039 
L 775.051562 302.554572 
L 776.649736 302.574126 
L 778.247909 302.166754 
L 779.846083 302.062467 
L 783.042431 300.358024 
L 784.640605 298.984367 
L 786.238779 295.842716 
L 787.836953 292.153559 
L 789.435127 280.134465 
L 791.033301 255.359751 
L 792.631475 221.740183 
L 795.827822 72.57046 
L 797.425996 63.026101 
L 799.02417 63.026101 
L 800.622344 133.317721 
L 802.220518 152.350125 
L 803.818692 161.240604 
L 805.416866 244.826749 
L 807.01504 235.04983 
L 808.613214 74.812634 
L 810.211388 69.441846 
L 811.809561 147.448629 
L 813.407735 233.003194 
L 815.005909 279.228471 
L 816.604083 292.440348 
L 818.202257 299.075618 
L 819.800431 302.329703 
L 821.398605 302.075503 
L 822.996779 301.568732 
L 827.791301 300.530749 
L 829.389474 300.186928 
L 832.585822 298.484114 
L 834.183996 300.390613 
L 835.78217 301.697462 
L 837.380344 301.218393 
L 838.978518 301.941885 
L 840.576692 302.90817 
L 842.174866 303.65529 
L 843.77304 304.144136 
L 845.371213 304.931178 
L 846.969387 304.874146 
L 848.567561 304.641129 
L 850.165735 304.70142 
L 851.763909 304.921401 
L 854.960257 304.126212 
L 858.156605 304.247608 
L 862.951126 304.299752 
L 866.147474 303.89401 
L 867.745648 304.286716 
L 869.343822 305.104718 
L 870.941996 305.741868 
L 872.54017 305.526348 
L 874.138344 304.756008 
L 875.736518 304.391003 
L 877.334692 304.153098 
L 878.932865 304.377967 
L 880.531039 304.199538 
L 882.129213 304.54336 
L 883.727387 305.741868 
L 885.325561 305.741868 
L 885.325561 305.741868 
" clip-path="url(#p9509a12059)" style="fill: none; stroke: #000000; stroke-width: 1.2; stroke-linecap: square"/>
   </g>
   <g id="line2d_15">
    <path d="M 87.836783 256.689895 
L 89.434957 252.80115 
L 91.03313 274.342083 
L 92.631304 277.982152 
L 94.229478 253.275813 
L 95.827652 261.464396 
L 97.425826 255.820732 
L 99.024 246.315461 
L 102.220348 264.865615 
L 103.818522 254.4148 
L 105.416696 248.597592 
L 107.01487 256.347172 
L 108.613043 257.076111 
L 110.211217 252.028474 
L 111.809391 254.067529 
L 113.407565 253.259317 
L 115.005739 270.123319 
L 116.603913 276.770572 
L 118.202087 256.232562 
L 119.800261 228.52441 
L 121.398435 230.684734 
L 122.996609 230.244497 
L 124.594782 236.185752 
L 126.192956 230.114846 
L 127.79113 244.995563 
L 129.389304 262.836574 
L 130.987478 265.143098 
L 134.183826 255.556875 
L 135.782 252.563726 
L 137.380174 260.51191 
L 138.978348 247.174885 
L 140.576522 275.770068 
L 142.174695 272.430702 
L 143.772869 273.772419 
L 145.371043 265.53007 
L 146.969217 270.45944 
L 148.567391 262.554469 
L 150.165565 267.092789 
L 151.763739 265.255568 
L 153.361913 273.093307 
L 156.558261 269.518813 
L 158.156434 266.511603 
L 159.754608 265.298274 
L 161.352782 248.760285 
L 162.950956 244.912656 
L 164.54913 240.21111 
L 166.147304 250.603019 
L 167.745478 223.461128 
L 169.343652 246.655513 
L 170.941826 248.618258 
L 172.54 255.288249 
L 174.138174 258.561084 
L 175.736347 265.522724 
L 177.334521 251.884216 
L 178.932695 249.57186 
L 180.530869 257.149134 
L 182.129043 266.804354 
L 183.727217 280.730717 
L 185.325391 262.537426 
L 186.923565 250.468308 
L 188.521739 270.355578 
L 190.119913 262.658107 
L 191.718086 262.924655 
L 193.31626 259.153548 
L 194.914434 262.426804 
L 196.512608 270.489907 
L 198.110782 252.979261 
L 199.708956 240.233843 
L 201.30713 238.056259 
L 202.905304 259.561579 
L 204.503478 252.08539 
L 206.101652 268.66403 
L 207.699826 266.193218 
L 209.297999 262.179909 
L 210.896173 246.117252 
L 212.494347 233.17845 
L 214.092521 231.501951 
L 215.690695 240.767499 
L 217.288869 263.094492 
L 218.887043 273.5697 
L 220.485217 268.790904 
L 222.083391 278.426725 
L 223.681565 255.129596 
L 225.279738 269.538313 
L 226.877912 277.521662 
L 228.476086 263.890595 
L 230.07426 275.006351 
L 231.672434 265.184713 
L 233.270608 269.226211 
L 234.868782 281.38414 
L 236.466956 272.859615 
L 238.06513 261.993705 
L 239.663304 248.825864 
L 241.261478 264.938104 
L 242.859651 271.162695 
L 244.457825 255.380229 
L 246.055999 251.151204 
L 247.654173 259.905019 
L 249.252347 244.919528 
L 250.850521 237.521458 
L 252.448695 255.664682 
L 254.046869 262.845863 
L 255.645043 250.342595 
L 257.243217 240.996425 
L 258.84139 208.476535 
L 260.439564 219.891177 
L 262.037738 250.753491 
L 263.635912 268.414126 
L 265.234086 266.533418 
L 266.83226 226.866703 
L 268.430434 224.371069 
L 270.028608 260.727082 
L 271.626782 212.221257 
L 273.224956 258.713047 
L 274.82313 230.304209 
L 276.421303 231.358479 
L 278.019477 259.304165 
L 279.617651 262.833353 
L 281.215825 235.398937 
L 282.813999 261.227482 
L 284.412173 242.863086 
L 286.010347 243.089388 
L 287.608521 240.035481 
L 290.804869 210.207831 
L 292.403042 150.674785 
L 294.001216 207.203839 
L 295.59939 223.903434 
L 297.197564 248.480539 
L 298.795738 212.643738 
L 300.393912 133.584516 
L 301.992086 173.096177 
L 303.59026 127.503414 
L 305.188434 63.026101 
L 306.786608 126.606384 
L 308.384782 63.026101 
L 309.982955 63.026101 
L 311.581129 76.128133 
L 313.179303 97.892437 
L 316.375651 174.734202 
L 317.973825 116.503864 
L 319.571999 185.875894 
L 321.170173 202.895587 
L 322.768347 206.530408 
L 324.366521 247.999613 
L 325.964694 142.807603 
L 327.562868 276.027749 
L 329.161042 140.991297 
L 330.759216 233.631168 
L 332.35739 172.005358 
L 333.955564 278.731315 
L 335.553738 278.658645 
L 337.151912 231.797672 
L 338.750086 154.36769 
L 340.34826 186.330192 
L 341.946434 257.718389 
L 343.544607 231.48399 
L 345.142781 273.404828 
L 346.740955 270.585461 
L 348.339129 296.224571 
L 349.937303 266.697969 
L 351.535477 260.43799 
L 353.133651 260.50794 
L 354.731825 151.978253 
L 356.329999 226.291345 
L 357.928173 131.455388 
L 359.526346 156.427126 
L 361.12452 220.150871 
L 362.722694 138.95237 
L 364.320868 165.593886 
L 365.919042 253.911024 
L 367.517216 122.495998 
L 369.11539 161.394643 
L 370.713564 127.363107 
L 372.311738 63.026101 
L 373.909912 63.026101 
L 375.508086 97.450467 
L 377.106259 76.471527 
L 378.704433 201.06883 
L 380.302607 239.256447 
L 381.900781 161.00682 
L 383.498955 211.867614 
L 385.097129 288.404943 
L 386.695303 290.87674 
L 388.293477 294.246888 
L 389.891651 286.265996 
L 391.489825 251.45727 
L 393.087998 190.679479 
L 394.686172 252.359955 
L 396.284346 147.099408 
L 397.88252 177.022218 
L 399.480694 263.230894 
L 401.078868 243.505122 
L 402.677042 195.569726 
L 404.275216 267.806634 
L 405.87339 289.725004 
L 407.471564 252.768074 
L 409.069738 294.22689 
M 554.503563 258.786476 
L 556.101737 288.132432 
L 557.699911 63.026101 
L 559.298085 216.675237 
L 560.896258 162.012149 
L 562.494432 276.547595 
L 564.092606 200.94423 
L 565.69078 131.328229 
L 567.288954 285.936477 
L 568.887128 277.838747 
L 570.485302 305.741868 
L 572.083476 190.282861 
L 573.68165 281.60801 
L 575.279824 188.691652 
L 576.877997 250.724328 
L 578.476171 128.477454 
L 580.074345 219.887555 
L 581.672519 267.187214 
L 584.868867 302.550136 
L 586.467041 205.583228 
L 588.065215 267.72682 
L 589.663389 218.324102 
L 591.261563 294.195979 
L 592.859737 221.323107 
L 594.45791 261.819378 
L 596.056084 212.712767 
L 597.654258 169.411208 
L 599.252432 147.386503 
L 600.850606 133.811591 
L 602.44878 198.49862 
L 604.046954 230.816398 
L 605.645128 212.026908 
L 607.243302 167.421878 
L 608.841476 200.578897 
L 610.439649 176.940304 
L 612.037823 237.786415 
L 613.635997 275.581847 
L 615.234171 151.424454 
L 616.832345 272.082917 
L 618.430519 205.937584 
L 620.028693 198.141001 
L 621.626867 233.718504 
L 623.225041 232.104263 
L 624.823215 204.102973 
L 626.421389 247.585077 
L 628.019562 197.5154 
L 629.617736 251.557536 
L 631.21591 227.08153 
L 632.814084 176.454532 
L 634.412258 199.629132 
L 636.010432 158.925698 
L 637.608606 184.278311 
L 639.20678 181.528581 
L 640.804954 202.603364 
L 642.403128 197.129275 
L 644.001301 223.353867 
L 645.599475 63.026101 
L 647.197649 66.310957 
L 648.795823 162.970957 
L 650.393997 266.840976 
L 651.992171 217.251932 
L 653.590345 208.037874 
L 655.188519 267.149995 
L 656.786693 254.920828 
L 658.384867 275.642229 
L 659.983041 254.869084 
L 661.581214 265.75673 
L 663.179388 244.138536 
L 664.777562 274.068458 
L 666.375736 276.138407 
L 667.97391 233.433185 
L 669.572084 250.691289 
L 671.170258 226.020772 
L 672.768432 242.338037 
L 674.366606 268.916512 
L 675.96478 276.702015 
L 677.562953 230.901534 
L 679.161127 226.807202 
L 680.759301 243.680317 
L 682.357475 251.455705 
L 683.955649 216.230955 
L 685.553823 256.074511 
L 687.151997 268.036232 
L 688.750171 238.370919 
L 690.348345 241.085354 
L 691.946519 248.705126 
L 693.544693 251.393948 
L 695.142866 249.421829 
L 696.74104 241.382319 
L 698.339214 244.882703 
L 699.937388 236.086859 
L 701.535562 242.042032 
L 703.133736 251.355646 
L 704.73191 280.664113 
L 706.330084 277.696052 
L 707.928258 256.00138 
L 709.526432 244.302513 
L 711.124605 254.211819 
L 712.722779 261.388408 
L 715.919127 246.081191 
L 717.517301 244.949926 
L 719.115475 217.640193 
L 720.713649 176.023688 
L 722.311823 246.00035 
L 723.909997 257.971574 
L 725.508171 258.212014 
L 727.106345 241.521206 
L 728.704518 255.338056 
L 730.302692 258.620014 
L 731.900866 261.43529 
L 733.49904 265.934316 
L 735.097214 249.883215 
L 736.695388 252.166529 
L 738.293562 278.969417 
L 739.891736 274.54429 
L 741.48991 276.744235 
L 743.088084 249.765503 
L 744.686257 253.378278 
L 746.284431 240.805277 
L 747.882605 230.99624 
L 749.480779 241.303756 
L 751.078953 230.070341 
L 752.677127 247.888796 
L 754.275301 245.227228 
L 755.873475 243.824623 
L 757.471649 238.329679 
L 759.069823 247.829452 
L 760.667997 235.85376 
L 762.26617 246.460428 
L 763.864344 226.308706 
L 765.462518 245.175856 
L 767.060692 258.808157 
L 768.658866 234.832964 
L 770.25704 204.519881 
L 771.855214 230.762722 
L 773.453388 266.650559 
L 775.051562 265.116478 
L 776.649736 266.804363 
L 778.247909 257.295559 
L 779.846083 270.603741 
L 781.444257 259.044533 
L 783.042431 243.161337 
L 784.640605 225.733184 
L 786.238779 211.361229 
L 787.836953 262.608018 
L 789.435127 265.26093 
L 791.033301 242.365837 
L 792.631475 203.727875 
L 794.229649 211.086691 
L 795.827822 167.608321 
L 797.425996 151.766215 
L 799.02417 132.13541 
L 800.622344 65.12384 
L 802.220518 114.478381 
L 803.818692 149.483086 
L 805.416866 63.026101 
L 807.01504 63.026101 
L 808.613214 116.704173 
L 810.211388 124.133879 
L 811.809561 191.840458 
L 813.407735 235.299452 
L 815.005909 232.119649 
L 816.604083 246.217682 
L 818.202257 270.908451 
L 819.800431 272.401313 
L 821.398605 263.489108 
L 822.996779 251.834677 
L 824.594953 243.854812 
L 826.193127 244.804937 
L 827.791301 256.157456 
L 829.389474 258.098497 
L 830.987648 259.131919 
L 832.585822 255.443778 
L 834.183996 249.98695 
L 835.78217 266.501799 
L 837.380344 258.696127 
L 838.978518 256.545337 
L 840.576692 262.365749 
L 842.174866 265.449096 
L 843.77304 253.003052 
L 845.371213 278.770959 
L 846.969387 266.924518 
L 848.567561 259.415524 
L 850.165735 271.316895 
L 851.763909 277.758879 
L 853.362083 272.968842 
L 854.960257 273.198707 
L 856.558431 267.89403 
L 858.156605 268.532064 
L 859.754779 260.486562 
L 861.352953 269.784026 
L 862.951126 257.106524 
L 864.5493 268.46457 
L 866.147474 272.454601 
L 867.745648 274.078666 
L 869.343822 270.679266 
L 870.941996 277.281591 
L 872.54017 279.043505 
L 874.138344 283.326738 
L 875.736518 278.722196 
L 877.334692 277.212935 
L 878.932865 264.146399 
L 880.531039 264.567157 
L 882.129213 274.516264 
L 883.727387 275.756076 
L 885.325561 275.064898 
L 885.325561 275.064898 
" clip-path="url(#p9509a12059)" style="fill: none; stroke: #ff7f0e; stroke-width: 1.2; stroke-linecap: square"/>
   </g>
   <g id="line2d_16">
    <path d="M 87.836783 253.256665 
L 89.434957 259.943854 
L 91.03313 287.882676 
L 92.631304 295.091887 
L 94.229478 268.679045 
L 95.827652 281.105044 
L 97.425826 289.647663 
L 99.024 289.125103 
L 100.622174 298.945867 
L 102.220348 301.671053 
L 103.818522 300.199314 
L 105.416696 283.96855 
L 107.01487 273.590714 
L 108.613043 278.899199 
L 110.211217 277.810887 
L 111.809391 264.153357 
L 113.407565 261.666733 
L 115.005739 268.710541 
L 116.603913 285.672497 
L 118.202087 277.451057 
L 119.800261 280.082425 
L 121.398435 278.868203 
L 122.996609 278.517812 
L 124.594782 277.79485 
L 126.192956 277.507402 
L 127.79113 272.282235 
L 129.389304 271.074633 
L 130.987478 266.882012 
L 132.585652 263.369638 
L 134.183826 269.358572 
L 135.782 269.541457 
L 137.380174 273.687705 
L 138.978348 265.172164 
L 140.576522 284.567786 
L 142.174695 280.117083 
L 143.772869 275.1103 
L 145.371043 285.725607 
L 146.969217 287.19507 
L 148.567391 279.017295 
L 150.165565 282.269135 
L 151.763739 277.440809 
L 153.361913 285.941476 
L 154.960087 280.499528 
L 156.558261 290.220314 
L 158.156434 286.18725 
L 159.754608 283.400582 
L 161.352782 273.399008 
L 164.54913 257.467922 
L 166.147304 252.443203 
L 167.745478 240.158963 
L 169.343652 234.360255 
L 170.941826 242.002224 
L 172.54 248.258942 
L 174.138174 253.883753 
L 175.736347 242.785388 
L 177.334521 243.898899 
L 178.932695 234.636493 
L 180.530869 235.210005 
L 182.129043 234.67621 
L 183.727217 265.910444 
L 185.325391 276.267452 
L 186.923565 285.388699 
L 188.521739 285.351312 
L 190.119913 287.674091 
L 191.718086 296.349555 
L 193.31626 286.114743 
L 194.914434 294.901303 
L 196.512608 290.264979 
L 198.110782 260.97742 
L 199.708956 254.51959 
L 201.30713 255.047977 
L 202.905304 270.665224 
L 204.503478 263.28049 
L 206.101652 265.012694 
L 207.699826 268.786189 
L 209.297999 287.98308 
L 210.896173 258.840962 
L 212.494347 246.410021 
L 214.092521 251.866585 
L 215.690695 254.434807 
L 217.288869 271.6423 
L 218.887043 285.517926 
L 220.485217 279.096899 
L 222.083391 292.098477 
L 223.681565 269.180251 
L 225.279738 277.53382 
L 226.877912 289.085209 
L 228.476086 282.895169 
L 230.07426 289.107287 
L 231.672434 289.461531 
L 233.270608 287.735741 
L 234.868782 296.14047 
L 236.466956 293.088969 
L 238.06513 272.10031 
L 239.663304 258.434661 
L 241.261478 261.719051 
L 242.859651 262.566571 
L 244.457825 257.326951 
L 246.055999 254.927109 
L 247.654173 238.070928 
L 249.252347 217.672137 
L 250.850521 256.081246 
L 252.448695 256.596504 
L 254.046869 250.418684 
L 255.645043 248.396378 
L 257.243217 252.092227 
L 258.84139 251.518741 
L 260.439564 253.953745 
L 262.037738 251.388415 
L 263.635912 282.33849 
L 265.234086 284.114852 
L 266.83226 257.303509 
L 268.430434 253.297261 
L 270.028608 271.423582 
L 271.626782 278.850893 
L 273.224956 259.73957 
L 274.82313 261.041152 
L 276.421303 271.078761 
L 278.019477 283.374072 
L 279.617651 263.229088 
L 281.215825 261.980466 
L 282.813999 251.401801 
L 284.412173 253.184585 
L 286.010347 252.5763 
L 287.608521 268.379858 
L 289.206695 268.315455 
L 290.804869 264.732594 
L 292.403042 270.10554 
L 294.001216 266.283806 
L 295.59939 260.894544 
L 297.197564 261.723686 
L 298.795738 258.318491 
L 300.393912 237.476528 
L 301.992086 197.274076 
L 305.188434 105.101037 
L 306.786608 63.026101 
L 311.581129 63.026101 
L 313.179303 71.929211 
L 314.777477 184.67327 
L 316.375651 218.295549 
L 317.973825 249.389262 
L 319.571999 254.148175 
L 321.170173 244.042293 
L 322.768347 248.975121 
L 324.366521 263.99841 
L 325.964694 260.088109 
L 327.562868 258.730726 
L 329.161042 261.718583 
L 330.759216 263.463036 
L 332.35739 250.507272 
L 333.955564 253.749888 
L 335.553738 274.269677 
L 337.151912 276.1083 
L 338.750086 272.496242 
L 340.34826 250.374135 
L 341.946434 267.209927 
L 345.142781 294.438304 
L 346.740955 293.686318 
L 348.339129 283.627349 
L 349.937303 287.776575 
L 351.535477 288.042838 
L 353.133651 283.567875 
L 354.731825 258.253193 
L 356.329999 254.141703 
L 357.928173 258.627666 
L 359.526346 257.465049 
L 361.12452 241.656568 
L 362.722694 242.483828 
L 364.320868 252.514015 
L 365.919042 254.778798 
L 367.517216 254.668742 
L 369.11539 253.03393 
L 370.713564 263.943382 
L 372.311738 258.022397 
L 373.909912 245.287416 
L 375.508086 252.176072 
L 377.106259 253.08115 
L 378.704433 265.12726 
L 380.302607 275.080836 
L 381.900781 261.636925 
L 383.498955 258.944162 
L 385.097129 249.654453 
L 386.695303 248.696839 
L 388.293477 239.660527 
L 389.891651 223.040452 
L 391.489825 234.190825 
L 393.087998 254.923187 
L 394.686172 243.485154 
L 396.284346 243.058559 
L 397.88252 245.286369 
L 399.480694 275.784749 
L 401.078868 257.712634 
L 402.677042 254.552781 
L 405.87339 264.417222 
L 407.471564 241.403672 
L 409.069738 215.608572 
M 554.503563 250.046944 
L 556.101737 247.239248 
L 557.699911 232.17742 
L 559.298085 229.120159 
L 560.896258 229.699669 
L 562.494432 209.848458 
L 564.092606 167.37702 
L 565.69078 63.026101 
L 570.485302 63.026101 
L 572.083476 154.352518 
L 573.68165 211.979347 
L 575.279824 239.539631 
L 576.877997 246.230671 
L 578.476171 234.937691 
L 580.074345 248.366028 
L 581.672519 259.250862 
L 583.270693 243.099237 
L 584.868867 249.986037 
L 586.467041 278.073644 
L 588.065215 264.468642 
L 589.663389 275.175628 
L 591.261563 257.002149 
L 592.859737 241.287711 
L 594.45791 214.727863 
L 596.056084 228.085032 
L 597.654258 219.802979 
L 599.252432 218.959597 
L 600.850606 228.804881 
L 602.44878 230.22558 
L 604.046954 220.954513 
L 605.645128 224.409023 
L 607.243302 237.852311 
L 608.841476 245.689214 
L 610.439649 265.744341 
L 612.037823 246.020084 
L 613.635997 248.75723 
L 615.234171 232.941004 
L 616.832345 242.739758 
L 618.430519 246.228397 
L 620.028693 254.324859 
L 621.626867 244.793433 
L 623.225041 252.886681 
L 624.823215 256.792798 
L 626.421389 239.889738 
L 628.019562 231.161709 
L 629.617736 246.900944 
L 631.21591 251.487875 
L 632.814084 249.293134 
L 634.412258 243.911378 
L 636.010432 237.647054 
L 637.608606 248.223968 
L 639.20678 263.918612 
L 640.804954 258.076931 
L 642.403128 220.037043 
L 644.001301 125.096602 
L 645.599475 63.026101 
L 647.197649 96.26491 
L 648.795823 252.268692 
L 650.393997 283.099928 
L 651.992171 272.908358 
L 653.590345 260.841097 
L 655.188519 272.030337 
L 656.786693 257.982628 
L 658.384867 276.547049 
L 659.983041 264.040042 
L 661.581214 277.486409 
L 663.179388 273.160734 
L 664.777562 257.159666 
L 666.375736 254.450625 
L 667.97391 256.560832 
L 669.572084 247.742471 
L 671.170258 237.123979 
L 672.768432 254.07014 
L 674.366606 258.077854 
L 675.96478 268.256156 
L 677.562953 227.047628 
L 679.161127 216.077184 
L 680.759301 208.781992 
L 682.357475 227.136603 
L 683.955649 231.354081 
L 685.553823 241.934028 
L 687.151997 251.063514 
L 688.750171 248.85093 
L 690.348345 237.704725 
L 691.946519 242.244659 
L 693.544693 249.036698 
L 695.142866 226.107982 
L 696.74104 240.732922 
L 698.339214 247.216229 
L 699.937388 254.792438 
L 701.535562 258.565884 
L 703.133736 268.180658 
L 704.73191 283.520199 
L 706.330084 277.754741 
L 707.928258 264.224307 
L 709.526432 247.05899 
L 711.124605 244.574418 
L 712.722779 237.680093 
L 714.320953 242.140063 
L 715.919127 243.37902 
L 717.517301 232.673995 
L 719.115475 229.326311 
L 720.713649 223.660948 
L 722.311823 230.864251 
L 723.909997 214.105777 
L 725.508171 224.598915 
L 727.106345 236.348571 
L 728.704518 240.214657 
L 730.302692 237.625577 
L 731.900866 243.3705 
L 733.49904 242.079262 
L 735.097214 245.493913 
L 736.695388 255.881061 
L 738.293562 271.527069 
L 739.891736 285.167491 
L 741.48991 284.041958 
L 743.088084 255.637242 
L 744.686257 241.746791 
L 746.284431 244.100386 
L 747.882605 244.954283 
L 749.480779 246.594195 
L 751.078953 246.199541 
L 752.677127 247.075053 
L 754.275301 251.73967 
L 755.873475 249.434675 
L 757.471649 236.803112 
L 759.069823 239.585229 
L 762.26617 237.679567 
L 763.864344 237.516216 
L 765.462518 247.676211 
L 767.060692 246.753682 
L 768.658866 243.863884 
L 770.25704 247.8884 
L 771.855214 254.089512 
L 773.453388 281.728476 
L 775.051562 283.769487 
L 776.649736 274.548562 
L 778.247909 262.349856 
L 779.846083 266.700196 
L 781.444257 255.447901 
L 783.042431 254.032522 
L 784.640605 248.8932 
L 786.238779 252.727681 
L 787.836953 282.348659 
L 789.435127 288.008939 
L 791.033301 268.206733 
L 792.631475 263.798085 
L 794.229649 244.90658 
L 795.827822 181.799078 
L 797.425996 184.930533 
L 799.02417 63.026101 
L 800.622344 63.026101 
L 802.220518 79.423974 
L 803.818692 130.667812 
L 805.416866 108.543051 
L 807.01504 63.026101 
L 808.613214 63.026101 
L 810.211388 117.532676 
L 811.809561 182.942333 
L 813.407735 237.385572 
L 815.005909 257.065731 
L 816.604083 261.048072 
L 818.202257 283.881075 
L 819.800431 279.247957 
L 821.398605 278.704811 
L 822.996779 260.528557 
L 824.594953 251.87374 
L 826.193127 254.986333 
L 827.791301 253.590619 
L 829.389474 258.044839 
L 830.987648 263.3942 
L 832.585822 270.841814 
L 834.183996 264.673113 
L 835.78217 265.812213 
L 837.380344 257.103196 
L 838.978518 254.319768 
L 840.576692 264.810037 
L 842.174866 267.177432 
L 843.77304 270.155573 
L 845.371213 290.652503 
L 846.969387 274.652497 
L 848.567561 251.404825 
L 850.165735 261.911606 
L 851.763909 289.792339 
L 853.362083 282.856231 
L 854.960257 271.893738 
L 856.558431 253.295567 
L 858.156605 240.013868 
L 859.754779 247.175719 
L 861.352953 260.039554 
L 862.951126 256.989695 
L 864.5493 270.621021 
L 866.147474 287.498879 
L 867.745648 287.003537 
L 869.343822 290.748973 
L 870.941996 285.544208 
L 872.54017 279.130733 
L 874.138344 293.888964 
L 875.736518 285.73739 
L 877.334692 253.293538 
L 878.932865 253.123527 
L 880.531039 231.298226 
L 882.129213 268.267071 
L 883.727387 280.49678 
L 885.325561 279.075166 
L 885.325561 279.075166 
" clip-path="url(#p9509a12059)" style="fill: none; stroke-dasharray: 4.44,1.92; stroke-dashoffset: 0; stroke: #9467bd; stroke-width: 1.2"/>
   </g>
   <g id="patch_3">
    <path d="M 47.962344 317.877656 
L 47.962344 50.890312 
" style="fill: none; stroke: #000000; stroke-width: 0.8; stroke-linejoin: miter; stroke-linecap: square"/>
   </g>
   <g id="patch_4">
    <path d="M 925.2 317.877656 
L 925.2 50.890312 
" style="fill: none; stroke: #000000; stroke-width: 0.8; stroke-linejoin: miter; stroke-linecap: square"/>
   </g>
   <g id="patch_5">
    <path d="M 47.962344 317.877656 
L 925.2 317.877656 
" style="fill: none; stroke: #000000; stroke-width: 0.8; stroke-linejoin: miter; stroke-linecap: square"/>
   </g>
   <g id="patch_6">
    <path d="M 47.962344 50.890312 
L 925.2 50.890312 
" style="fill: none; stroke: #000000; stroke-width: 0.8; stroke-linejoin: miter; stroke-linecap: square"/>
   </g>
   <g id="legend_1">
    <g id="line2d_17">
     <path d="M 56.962344 63.98875 
L 66.962344 63.98875 
L 76.962344 63.98875 
" style="fill: none; stroke: #2ca02c; stroke-width: 1.2; stroke-linecap: square"/>
    </g>
    <g id="text_15">
     <!-- ENCSR203XPU -->
     <g transform="translate(84.962344 67.48875) scale(0.1 -0.1)">
      <defs>
       <path id="DejaVuSans-28" d="M 628 4666 
L 3578 4666 
L 3578 4134 
L 1259 4134 
L 1259 2753 
L 3481 2753 
L 3481 2222 
L 1259 2222 
L 1259 531 
L 3634 531 
L 3634 0 
L 628 0 
L 628 4666 
z
" transform="scale(0.015625)"/>
       <path id="DejaVuSans-31" d="M 628 4666 
L 1478 4666 
L 3547 763 
L 3547 4666 
L 4159 4666 
L 4159 0 
L 3309 0 
L 1241 3903 
L 1241 0 
L 628 0 
L 628 4666 
z
" transform="scale(0.015625)"/>
       <path id="DejaVuSans-26" d="M 4122 4306 
L 4122 3641 
Q 3803 3938 3442 4084 
Q 3081 4231 2675 4231 
Q 1875 4231 1450 3742 
Q 1025 3253 1025 2328 
Q 1025 1406 1450 917 
Q 1875 428 2675 428 
Q 3081 428 3442 575 
Q 3803 722 4122 1019 
L 4122 359 
Q 3791 134 3420 21 
Q 3050 -91 2638 -91 
Q 1578 -91 968 557 
Q 359 1206 359 2328 
Q 359 3453 968 4101 
Q 1578 4750 2638 4750 
Q 3056 4750 3426 4639 
Q 3797 4528 4122 4306 
z
" transform="scale(0.015625)"/>
       <path id="DejaVuSans-36" d="M 3425 4513 
L 3425 3897 
Q 3066 4069 2747 4153 
Q 2428 4238 2131 4238 
Q 1616 4238 1336 4038 
Q 1056 3838 1056 3469 
Q 1056 3159 1242 3001 
Q 1428 2844 1947 2747 
L 2328 2669 
Q 3034 2534 3370 2195 
Q 3706 1856 3706 1288 
Q 3706 609 3251 259 
Q 2797 -91 1919 -91 
Q 1588 -91 1214 -16 
Q 841 59 441 206 
L 441 856 
Q 825 641 1194 531 
Q 1563 422 1919 422 
Q 2459 422 2753 634 
Q 3047 847 3047 1241 
Q 3047 1584 2836 1778 
Q 2625 1972 2144 2069 
L 1759 2144 
Q 1053 2284 737 2584 
Q 422 2884 422 3419 
Q 422 4038 858 4394 
Q 1294 4750 2059 4750 
Q 2388 4750 2728 4690 
Q 3069 4631 3425 4513 
z
" transform="scale(0.015625)"/>
       <path id="DejaVuSans-35" d="M 2841 2188 
Q 3044 2119 3236 1894 
Q 3428 1669 3622 1275 
L 4263 0 
L 3584 0 
L 2988 1197 
Q 2756 1666 2539 1819 
Q 2322 1972 1947 1972 
L 1259 1972 
L 1259 0 
L 628 0 
L 628 4666 
L 2053 4666 
Q 2853 4666 3247 4331 
Q 3641 3997 3641 3322 
Q 3641 2881 3436 2590 
Q 3231 2300 2841 2188 
z
M 1259 4147 
L 1259 2491 
L 2053 2491 
Q 2509 2491 2742 2702 
Q 2975 2913 2975 3322 
Q 2975 3731 2742 3939 
Q 2509 4147 2053 4147 
L 1259 4147 
z
" transform="scale(0.015625)"/>
       <path id="DejaVuSans-3b" d="M 403 4666 
L 1081 4666 
L 2241 2931 
L 3406 4666 
L 4084 4666 
L 2584 2425 
L 4184 0 
L 3506 0 
L 2194 1984 
L 872 0 
L 191 0 
L 1856 2491 
L 403 4666 
z
" transform="scale(0.015625)"/>
       <path id="DejaVuSans-33" d="M 1259 4147 
L 1259 2394 
L 2053 2394 
Q 2494 2394 2734 2622 
Q 2975 2850 2975 3272 
Q 2975 3691 2734 3919 
Q 2494 4147 2053 4147 
L 1259 4147 
z
M 628 4666 
L 2053 4666 
Q 2838 4666 3239 4311 
Q 3641 3956 3641 3272 
Q 3641 2581 3239 2228 
Q 2838 1875 2053 1875 
L 1259 1875 
L 1259 0 
L 628 0 
L 628 4666 
z
" transform="scale(0.015625)"/>
       <path id="DejaVuSans-38" d="M 556 4666 
L 1191 4666 
L 1191 1831 
Q 1191 1081 1462 751 
Q 1734 422 2344 422 
Q 2950 422 3222 751 
Q 3494 1081 3494 1831 
L 3494 4666 
L 4128 4666 
L 4128 1753 
Q 4128 841 3676 375 
Q 3225 -91 2344 -91 
Q 1459 -91 1007 375 
Q 556 841 556 1753 
L 556 4666 
z
" transform="scale(0.015625)"/>
      </defs>
      <use xlink:href="#DejaVuSans-28"/>
      <use xlink:href="#DejaVuSans-31" transform="translate(63.1875 0)"/>
      <use xlink:href="#DejaVuSans-26" transform="translate(138 0)"/>
      <use xlink:href="#DejaVuSans-36" transform="translate(207.828125 0)"/>
      <use xlink:href="#DejaVuSans-35" transform="translate(271.3125 0)"/>
      <use xlink:href="#DejaVuSans-15" transform="translate(340.796875 0)"/>
      <use xlink:href="#DejaVuSans-13" transform="translate(404.421875 0)"/>
      <use xlink:href="#DejaVuSans-16" transform="translate(468.046875 0)"/>
      <use xlink:href="#DejaVuSans-3b" transform="translate(531.671875 0)"/>
      <use xlink:href="#DejaVuSans-33" transform="translate(600.171875 0)"/>
      <use xlink:href="#DejaVuSans-38" transform="translate(660.46875 0)"/>
     </g>
    </g>
    <g id="line2d_18">
     <path d="M 56.962344 78.989531 
L 66.962344 78.989531 
L 76.962344 78.989531 
" style="fill: none; stroke: #000000; stroke-width: 1.2; stroke-linecap: square"/>
    </g>
    <g id="text_16">
     <!-- AlphaGenome -->
     <g transform="translate(84.962344 82.489531) scale(0.1 -0.1)">
      <defs>
       <path id="DejaVuSans-24" d="M 2188 4044 
L 1331 1722 
L 3047 1722 
L 2188 4044 
z
M 1831 4666 
L 2547 4666 
L 4325 0 
L 3669 0 
L 3244 1197 
L 1141 1197 
L 716 0 
L 50 0 
L 1831 4666 
z
" transform="scale(0.015625)"/>
       <path id="DejaVuSans-53" d="M 1159 525 
L 1159 -1331 
L 581 -1331 
L 581 3500 
L 1159 3500 
L 1159 2969 
Q 1341 3281 1617 3432 
Q 1894 3584 2278 3584 
Q 2916 3584 3314 3078 
Q 3713 2572 3713 1747 
Q 3713 922 3314 415 
Q 2916 -91 2278 -91 
Q 1894 -91 1617 61 
Q 1341 213 1159 525 
z
M 3116 1747 
Q 3116 2381 2855 2742 
Q 2594 3103 2138 3103 
Q 1681 3103 1420 2742 
Q 1159 2381 1159 1747 
Q 1159 1113 1420 752 
Q 1681 391 2138 391 
Q 2594 391 2855 752 
Q 3116 1113 3116 1747 
z
" transform="scale(0.015625)"/>
       <path id="DejaVuSans-2a" d="M 3809 666 
L 3809 1919 
L 2778 1919 
L 2778 2438 
L 4434 2438 
L 4434 434 
Q 4069 175 3628 42 
Q 3188 -91 2688 -91 
Q 1594 -91 976 548 
Q 359 1188 359 2328 
Q 359 3472 976 4111 
Q 1594 4750 2688 4750 
Q 3144 4750 3555 4637 
Q 3966 4525 4313 4306 
L 4313 3634 
Q 3963 3931 3569 4081 
Q 3175 4231 2741 4231 
Q 1884 4231 1454 3753 
Q 1025 3275 1025 2328 
Q 1025 1384 1454 906 
Q 1884 428 2741 428 
Q 3075 428 3337 486 
Q 3600 544 3809 666 
z
" transform="scale(0.015625)"/>
      </defs>
      <use xlink:href="#DejaVuSans-24"/>
      <use xlink:href="#DejaVuSans-4f" transform="translate(68.40625 0)"/>
      <use xlink:href="#DejaVuSans-53" transform="translate(96.1875 0)"/>
      <use xlink:href="#DejaVuSans-4b" transform="translate(159.671875 0)"/>
      <use xlink:href="#DejaVuSans-44" transform="translate(223.046875 0)"/>
      <use xlink:href="#DejaVuSans-2a" transform="translate(284.328125 0)"/>
      <use xlink:href="#DejaVuSans-48" transform="translate(361.8125 0)"/>
      <use xlink:href="#DejaVuSans-51" transform="translate(423.34375 0)"/>
      <use xlink:href="#DejaVuSans-52" transform="translate(486.71875 0)"/>
      <use xlink:href="#DejaVuSans-50" transform="translate(547.90625 0)"/>
      <use xlink:href="#DejaVuSans-48" transform="translate(645.3125 0)"/>
     </g>
    </g>
    <g id="line2d_19">
     <path d="M 178.327969 63.98875 
L 188.327969 63.98875 
L 198.327969 63.98875 
" style="fill: none; stroke: #ff7f0e; stroke-width: 1.2; stroke-linecap: square"/>
    </g>
    <g id="text_17">
     <!-- DiMeLo pooled -->
     <g transform="translate(206.327969 67.48875) scale(0.1 -0.1)">
      <defs>
       <path id="DejaVuSans-27" d="M 1259 4147 
L 1259 519 
L 2022 519 
Q 2988 519 3436 956 
Q 3884 1394 3884 2338 
Q 3884 3275 3436 3711 
Q 2988 4147 2022 4147 
L 1259 4147 
z
M 628 4666 
L 1925 4666 
Q 3281 4666 3915 4102 
Q 4550 3538 4550 2338 
Q 4550 1131 3912 565 
Q 3275 0 1925 0 
L 628 0 
L 628 4666 
z
" transform="scale(0.015625)"/>
       <path id="DejaVuSans-30" d="M 628 4666 
L 1569 4666 
L 2759 1491 
L 3956 4666 
L 4897 4666 
L 4897 0 
L 4281 0 
L 4281 4097 
L 3078 897 
L 2444 897 
L 1241 4097 
L 1241 0 
L 628 0 
L 628 4666 
z
" transform="scale(0.015625)"/>
       <path id="DejaVuSans-2f" d="M 628 4666 
L 1259 4666 
L 1259 531 
L 3531 531 
L 3531 0 
L 628 0 
L 628 4666 
z
" transform="scale(0.015625)"/>
      </defs>
      <use xlink:href="#DejaVuSans-27"/>
      <use xlink:href="#DejaVuSans-4c" transform="translate(77 0)"/>
      <use xlink:href="#DejaVuSans-30" transform="translate(104.78125 0)"/>
      <use xlink:href="#DejaVuSans-48" transform="translate(191.0625 0)"/>
      <use xlink:href="#DejaVuSans-2f" transform="translate(252.59375 0)"/>
      <use xlink:href="#DejaVuSans-52" transform="translate(306.5625 0)"/>
      <use xlink:href="#DejaVuSans-3" transform="translate(367.75 0)"/>
      <use xlink:href="#DejaVuSans-53" transform="translate(399.53125 0)"/>
      <use xlink:href="#DejaVuSans-52" transform="translate(463.015625 0)"/>
      <use xlink:href="#DejaVuSans-52" transform="translate(524.203125 0)"/>
      <use xlink:href="#DejaVuSans-4f" transform="translate(585.390625 0)"/>
      <use xlink:href="#DejaVuSans-48" transform="translate(613.171875 0)"/>
      <use xlink:href="#DejaVuSans-47" transform="translate(674.703125 0)"/>
     </g>
    </g>
    <g id="line2d_20">
     <path d="M 178.327969 78.989531 
L 188.327969 78.989531 
L 198.327969 78.989531 
" style="fill: none; stroke-dasharray: 4.44,1.92; stroke-dashoffset: 0; stroke: #9467bd; stroke-width: 1.2"/>
    </g>
    <g id="text_18">
     <!-- HyenaDNA pooled -->
     <g transform="translate(206.327969 82.489531) scale(0.1 -0.1)">
      <defs>
       <path id="DejaVuSans-2b" d="M 628 4666 
L 1259 4666 
L 1259 2753 
L 3553 2753 
L 3553 4666 
L 4184 4666 
L 4184 0 
L 3553 0 
L 3553 2222 
L 1259 2222 
L 1259 0 
L 628 0 
L 628 4666 
z
" transform="scale(0.015625)"/>
       <path id="DejaVuSans-5c" d="M 2059 -325 
Q 1816 -950 1584 -1140 
Q 1353 -1331 966 -1331 
L 506 -1331 
L 506 -850 
L 844 -850 
Q 1081 -850 1212 -737 
Q 1344 -625 1503 -206 
L 1606 56 
L 191 3500 
L 800 3500 
L 1894 763 
L 2988 3500 
L 3597 3500 
L 2059 -325 
z
" transform="scale(0.015625)"/>
      </defs>
      <use xlink:href="#DejaVuSans-2b"/>
      <use xlink:href="#DejaVuSans-5c" transform="translate(75.203125 0)"/>
      <use xlink:href="#DejaVuSans-48" transform="translate(134.390625 0)"/>
      <use xlink:href="#DejaVuSans-51" transform="translate(195.921875 0)"/>
      <use xlink:href="#DejaVuSans-44" transform="translate(259.296875 0)"/>
      <use xlink:href="#DejaVuSans-27" transform="translate(320.578125 0)"/>
      <use xlink:href="#DejaVuSans-31" transform="translate(397.578125 0)"/>
      <use xlink:href="#DejaVuSans-24" transform="translate(472.390625 0)"/>
      <use xlink:href="#DejaVuSans-3" transform="translate(540.796875 0)"/>
      <use xlink:href="#DejaVuSans-53" transform="translate(572.578125 0)"/>
      <use xlink:href="#DejaVuSans-52" transform="translate(636.0625 0)"/>
      <use xlink:href="#DejaVuSans-52" transform="translate(697.25 0)"/>
      <use xlink:href="#DejaVuSans-4f" transform="translate(758.4375 0)"/>
      <use xlink:href="#DejaVuSans-48" transform="translate(786.21875 0)"/>
      <use xlink:href="#DejaVuSans-47" transform="translate(847.75 0)"/>
     </g>
    </g>
   </g>
  </g>
  <g id="text_19">
   <!-- chr16 region 9: overlay -->
   <g transform="translate(397.985625 17.519297) scale(0.12 -0.12)">
    <defs>
     <path id="DejaVuSans-1c" d="M 703 97 
L 703 672 
Q 941 559 1184 500 
Q 1428 441 1663 441 
Q 2288 441 2617 861 
Q 2947 1281 2994 2138 
Q 2813 1869 2534 1725 
Q 2256 1581 1919 1581 
Q 1219 1581 811 2004 
Q 403 2428 403 3163 
Q 403 3881 828 4315 
Q 1253 4750 1959 4750 
Q 2769 4750 3195 4129 
Q 3622 3509 3622 2328 
Q 3622 1225 3098 567 
Q 2575 -91 1691 -91 
Q 1453 -91 1209 -44 
Q 966 3 703 97 
z
M 1959 2075 
Q 2384 2075 2632 2365 
Q 2881 2656 2881 3163 
Q 2881 3666 2632 3958 
Q 2384 4250 1959 4250 
Q 1534 4250 1286 3958 
Q 1038 3666 1038 3163 
Q 1038 2656 1286 2365 
Q 1534 2075 1959 2075 
z
" transform="scale(0.015625)"/>
     <path id="DejaVuSans-1d" d="M 750 794 
L 1409 794 
L 1409 0 
L 750 0 
L 750 794 
z
M 750 3309 
L 1409 3309 
L 1409 2516 
L 750 2516 
L 750 3309 
z
" transform="scale(0.015625)"/>
     <path id="DejaVuSans-59" d="M 191 3500 
L 800 3500 
L 1894 563 
L 2988 3500 
L 3597 3500 
L 2284 0 
L 1503 0 
L 191 3500 
z
" transform="scale(0.015625)"/>
    </defs>
    <use xlink:href="#DejaVuSans-46"/>
    <use xlink:href="#DejaVuSans-4b" transform="translate(54.984375 0)"/>
    <use xlink:href="#DejaVuSans-55" transform="translate(118.359375 0)"/>
    <use xlink:href="#DejaVuSans-14" transform="translate(159.46875 0)"/>
    <use xlink:href="#DejaVuSans-19" transform="translate(223.09375 0)"/>
    <use xlink:href="#DejaVuSans-3" transform="translate(286.71875 0)"/>
    <use xlink:href="#DejaVuSans-55" transform="translate(318.5 0)"/>
    <use xlink:href="#DejaVuSans-48" transform="translate(357.40625 0)"/>
    <use xlink:href="#DejaVuSans-4a" transform="translate(418.9375 0)"/>
    <use xlink:href="#DejaVuSans-4c" transform="translate(482.421875 0)"/>
    <use xlink:href="#DejaVuSans-52" transform="translate(510.203125 0)"/>
    <use xlink:href="#DejaVuSans-51" transform="translate(571.390625 0)"/>
    <use xlink:href="#DejaVuSans-3" transform="translate(634.765625 0)"/>
    <use xlink:href="#DejaVuSans-1c" transform="translate(666.546875 0)"/>
    <use xlink:href="#DejaVuSans-1d" transform="translate(730.171875 0)"/>
    <use xlink:href="#DejaVuSans-3" transform="translate(763.859375 0)"/>
    <use xlink:href="#DejaVuSans-52" transform="translate(795.640625 0)"/>
    <use xlink:href="#DejaVuSans-59" transform="translate(856.828125 0)"/>
    <use xlink:href="#DejaVuSans-48" transform="translate(916.015625 0)"/>
    <use xlink:href="#DejaVuSans-55" transform="translate(977.546875 0)"/>
    <use xlink:href="#DejaVuSans-4f" transform="translate(1018.65625 0)"/>
    <use xlink:href="#DejaVuSans-44" transform="translate(1046.4375 0)"/>
    <use xlink:href="#DejaVuSans-5c" transform="translate(1107.71875 0)"/>
   </g>
   <!-- chr16_rank10_score3.770_reads393 -->
   <g transform="translate(359.352188 31.922578) scale(0.12 -0.12)">
    <defs>
     <path id="DejaVuSans-42" d="M 3263 -1063 
L 3263 -1509 
L -63 -1509 
L -63 -1063 
L 3263 -1063 
z
" transform="scale(0.015625)"/>
     <path id="DejaVuSans-4e" d="M 581 4863 
L 1159 4863 
L 1159 1991 
L 2875 3500 
L 3609 3500 
L 1753 1863 
L 3688 0 
L 2938 0 
L 1159 1709 
L 1159 0 
L 581 0 
L 581 4863 
z
" transform="scale(0.015625)"/>
     <path id="DejaVuSans-1a" d="M 525 4666 
L 3525 4666 
L 3525 4397 
L 1831 0 
L 1172 0 
L 2766 4134 
L 525 4134 
L 525 4666 
z
" transform="scale(0.015625)"/>
    </defs>
    <use xlink:href="#DejaVuSans-46"/>
    <use xlink:href="#DejaVuSans-4b" transform="translate(54.984375 0)"/>
    <use xlink:href="#DejaVuSans-55" transform="translate(118.359375 0)"/>
    <use xlink:href="#DejaVuSans-14" transform="translate(159.46875 0)"/>
    <use xlink:href="#DejaVuSans-19" transform="translate(223.09375 0)"/>
    <use xlink:href="#DejaVuSans-42" transform="translate(286.71875 0)"/>
    <use xlink:href="#DejaVuSans-55" transform="translate(336.71875 0)"/>
    <use xlink:href="#DejaVuSans-44" transform="translate(377.828125 0)"/>
    <use xlink:href="#DejaVuSans-51" transform="translate(439.109375 0)"/>
    <use xlink:href="#DejaVuSans-4e" transform="translate(502.484375 0)"/>
    <use xlink:href="#DejaVuSans-14" transform="translate(560.390625 0)"/>
    <use xlink:href="#DejaVuSans-13" transform="translate(624.015625 0)"/>
    <use xlink:href="#DejaVuSans-42" transform="translate(687.640625 0)"/>
    <use xlink:href="#DejaVuSans-56" transform="translate(737.640625 0)"/>
    <use xlink:href="#DejaVuSans-46" transform="translate(789.734375 0)"/>
    <use xlink:href="#DejaVuSans-52" transform="translate(844.71875 0)"/>
    <use xlink:href="#DejaVuSans-55" transform="translate(905.90625 0)"/>
    <use xlink:href="#DejaVuSans-48" transform="translate(944.8125 0)"/>
    <use xlink:href="#DejaVuSans-16" transform="translate(1006.34375 0)"/>
    <use xlink:href="#DejaVuSans-11" transform="translate(1069.96875 0)"/>
    <use xlink:href="#DejaVuSans-1a" transform="translate(1101.75 0)"/>
    <use xlink:href="#DejaVuSans-1a" transform="translate(1165.375 0)"/>
    <use xlink:href="#DejaVuSans-13" transform="translate(1229 0)"/>
    <use xlink:href="#DejaVuSans-42" transform="translate(1292.625 0)"/>
    <use xlink:href="#DejaVuSans-55" transform="translate(1342.625 0)"/>
    <use xlink:href="#DejaVuSans-48" transform="translate(1381.53125 0)"/>
    <use xlink:href="#DejaVuSans-44" transform="translate(1443.0625 0)"/>
    <use xlink:href="#DejaVuSans-47" transform="translate(1504.34375 0)"/>
    <use xlink:href="#DejaVuSans-56" transform="translate(1567.828125 0)"/>
    <use xlink:href="#DejaVuSans-16" transform="translate(1619.921875 0)"/>
    <use xlink:href="#DejaVuSans-1c" transform="translate(1683.546875 0)"/>
    <use xlink:href="#DejaVuSans-16" transform="translate(1747.171875 0)"/>
   </g>
  </g>
 </g>
 <defs>
  <clipPath id="p9509a12059">
   <rect x="47.962344" y="50.890312" width="877.237656" height="266.987344"/>
  </clipPath>
 </defs>
</svg>
