<svg xmlns="http://www.w3.org/2000/svg" width="920" height="480">
<rect width="100%" height="100%" fill="white"/>
<text x="460.0" y="30" text-anchor="middle" font-size="20" font-family="Arial">h3k4me3 Read Length Distribution</text>
<line x1="80" y1="390" x2="890" y2="390" stroke="black" stroke-width="1"/>
<line x1="80" y1="60" x2="80" y2="390" stroke="black" stroke-width="1"/>
<line x1="80" y1="390.0" x2="890" y2="390.0" stroke="#ececec"/>
<text x="72" y="394.0" text-anchor="end" font-size="12" font-family="Arial">0</text>
<line x1="80" y1="324.0" x2="890" y2="324.0" stroke="#ececec"/>
<text x="72" y="328.0" text-anchor="end" font-size="12" font-family="Arial">18927</text>
<line x1="80" y1="258.0" x2="890" y2="258.0" stroke="#ececec"/>
<text x="72" y="262.0" text-anchor="end" font-size="12" font-family="Arial">37854</text>
<line x1="80" y1="192.0" x2="890" y2="192.0" stroke="#ececec"/>
<text x="72" y="196.0" text-anchor="end" font-size="12" font-family="Arial">56781</text>
<line x1="80" y1="126.0" x2="890" y2="126.0" stroke="#ececec"/>
<text x="72" y="130.0" text-anchor="end" font-size="12" font-family="Arial">75708</text>
<line x1="80" y1="60.0" x2="890" y2="60.0" stroke="#ececec"/>
<text x="72" y="64.0" text-anchor="end" font-size="12" font-family="Arial">94635</text>
<polyline fill="none" stroke="#1b9e77" stroke-width="2" points="80.0,60.0 93.7,279.7 107.5,332.5 121.2,353.7 134.9,365.0 148.6,370.7 162.4,374.1 176.1,375.9 189.8,377.6 203.6,379.3 217.3,380.3 231.0,381.7 244.7,382.7 258.5,383.7 272.2,384.5 285.9,385.3 299.7,386.1 313.4,386.7 327.1,387.2 340.8,387.7 354.6,388.1 368.3,388.3 382.0,388.6 395.8,388.8 409.5,389.0 423.2,389.1 436.9,389.3 450.7,389.4 464.4,389.6 478.1,389.6 491.9,389.6 505.6,389.8 519.3,389.8 533.1,389.8 546.8,389.8 560.5,389.9 574.2,389.9 588.0,389.9 601.7,389.9 615.4,390.0 629.2,390.0 642.9,390.0 656.6,390.0 670.3,390.0 684.1,390.0 697.8,390.0 711.5,390.0 725.3,390.0 739.0,390.0 752.7,390.0 766.4,390.0 780.2,390.0 793.9,390.0 807.6,390.0 821.4,390.0 835.1,390.0 848.8,390.0 862.5,390.0 876.3,390.0 890.0,390.0"/>
<line x1="90" y1="36" x2="102" y2="36" stroke="#1b9e77" stroke-width="3"/>
<text x="108" y="40" font-size="12" font-family="Arial">read_len</text>
<text x="485.0" y="450" text-anchor="middle" font-size="12" font-family="Arial">read length (bp)</text>
<text x="25" y="225.0" text-anchor="middle" transform="rotate(-90 25,225.0)" font-size="12" font-family="Arial">Count</text>
</svg>