<svg xmlns="http://www.w3.org/2000/svg" width="920" height="480">
<rect width="100%" height="100%" fill="white"/>
<text x="460.0" y="30" text-anchor="middle" font-size="20" font-family="Arial">h3k4me3 Density Distribution (A vs C)</text>
<line x1="80" y1="390" x2="890" y2="390" stroke="black" stroke-width="1"/>
<line x1="80" y1="60" x2="80" y2="390" stroke="black" stroke-width="1"/>
<line x1="80" y1="390.0" x2="890" y2="390.0" stroke="#ececec"/>
<text x="72" y="394.0" text-anchor="end" font-size="12" font-family="Arial">0</text>
<line x1="80" y1="324.0" x2="890" y2="324.0" stroke="#ececec"/>
<text x="72" y="328.0" text-anchor="end" font-size="12" font-family="Arial">35247</text>
<line x1="80" y1="258.0" x2="890" y2="258.0" stroke="#ececec"/>
<text x="72" y="262.0" text-anchor="end" font-size="12" font-family="Arial">70494</text>
<line x1="80" y1="192.0" x2="890" y2="192.0" stroke="#ececec"/>
<text x="72" y="196.0" text-anchor="end" font-size="12" font-family="Arial">105742</text>
<line x1="80" y1="126.0" x2="890" y2="126.0" stroke="#ececec"/>
<text x="72" y="130.0" text-anchor="end" font-size="12" font-family="Arial">140989</text>
<line x1="80" y1="60.0" x2="890" y2="60.0" stroke="#ececec"/>
<text x="72" y="64.0" text-anchor="end" font-size="12" font-family="Arial">176237</text>
<polyline fill="none" stroke="#2c7fb8" stroke-width="2" points="80.0,60.0 93.7,366.5 107.5,380.8 121.2,385.4 134.9,387.3 148.6,388.5 162.4,389.1 176.1,389.3 189.8,389.6 203.6,389.8 217.3,389.8 231.0,389.9 244.7,389.9 258.5,389.9 272.2,389.9 285.9,390.0 299.7,390.0 313.4,390.0 327.1,390.0 340.8,390.0 354.6,390.0 368.3,390.0 382.0,390.0 395.8,390.0 409.5,390.0 423.2,390.0 436.9,390.0 450.7,390.0 464.4,390.0 478.1,390.0 491.9,390.0 505.6,390.0 519.3,390.0 533.1,390.0 546.8,390.0 560.5,390.0 574.2,390.0 588.0,390.0 601.7,390.0 615.4,390.0 629.2,390.0 642.9,390.0 656.6,390.0 670.3,390.0 684.1,390.0 697.8,390.0 711.5,390.0 725.3,390.0 739.0,390.0 752.7,390.0 766.4,390.0 780.2,390.0 793.9,390.0 807.6,390.0 821.4,390.0 835.1,390.0 848.8,390.0 862.5,390.0 876.3,390.0 890.0,390.0"/>
<polyline fill="none" stroke="#d95f0e" stroke-width="2" points="80.0,273.7 93.7,285.3 107.5,335.8 121.2,360.3 134.9,372.1 148.6,378.3 162.4,381.6 176.1,384.1 189.8,385.5 203.6,386.5 217.3,387.3 231.0,387.9 244.7,388.1 258.5,388.5 272.2,388.7 285.9,388.9 299.7,389.0 313.4,389.1 327.1,389.2 340.8,389.2 354.6,389.4 368.3,389.4 382.0,389.5 395.8,389.6 409.5,389.7 423.2,389.7 436.9,389.8 450.7,389.8 464.4,389.9 478.1,389.9 491.9,389.9 505.6,390.0 519.3,390.0 533.1,390.0 546.8,390.0 560.5,390.0 574.2,390.0 588.0,390.0 601.7,390.0 615.4,390.0 629.2,390.0 642.9,390.0 656.6,390.0 670.3,390.0 684.1,390.0 697.8,390.0 711.5,390.0 725.3,390.0 739.0,390.0 752.7,390.0 766.4,390.0 780.2,390.0 793.9,390.0 807.6,390.0 821.4,390.0 835.1,390.0 848.8,390.0 862.5,390.0 876.3,390.0 890.0,390.0"/>
<line x1="90" y1="36" x2="102" y2="36" stroke="#2c7fb8" stroke-width="3"/>
<text x="108" y="40" font-size="12" font-family="Arial">A_mod_density_per_kb</text>
<line x1="90" y1="56" x2="102" y2="56" stroke="#d95f0e" stroke-width="3"/>
<text x="108" y="60" font-size="12" font-family="Arial">C_mod_density_per_kb</text>
<text x="485.0" y="450" text-anchor="middle" font-size="12" font-family="Arial">mods per kb</text>
<text x="25" y="225.0" text-anchor="middle" transform="rotate(-90 25,225.0)" font-size="12" font-family="Arial">Count</text>
</svg>