<svg xmlns="http://www.w3.org/2000/svg" width="920" height="480">
<rect width="100%" height="100%" fill="white"/>
<text x="460.0" y="30" text-anchor="middle" font-size="20" font-family="Arial">h3k27ac Density Distribution (A vs C)</text>
<line x1="80" y1="390" x2="890" y2="390" stroke="black" stroke-width="1"/>
<line x1="80" y1="60" x2="80" y2="390" stroke="black" stroke-width="1"/>
<line x1="80" y1="390.0" x2="890" y2="390.0" stroke="#ececec"/>
<text x="72" y="394.0" text-anchor="end" font-size="12" font-family="Arial">0</text>
<line x1="80" y1="324.0" x2="890" y2="324.0" stroke="#ececec"/>
<text x="72" y="328.0" text-anchor="end" font-size="12" font-family="Arial">35722</text>
<line x1="80" y1="258.0" x2="890" y2="258.0" stroke="#ececec"/>
<text x="72" y="262.0" text-anchor="end" font-size="12" font-family="Arial">71445</text>
<line x1="80" y1="192.0" x2="890" y2="192.0" stroke="#ececec"/>
<text x="72" y="196.0" text-anchor="end" font-size="12" font-family="Arial">107167</text>
<line x1="80" y1="126.0" x2="890" y2="126.0" stroke="#ececec"/>
<text x="72" y="130.0" text-anchor="end" font-size="12" font-family="Arial">142890</text>
<line x1="80" y1="60.0" x2="890" y2="60.0" stroke="#ececec"/>
<text x="72" y="64.0" text-anchor="end" font-size="12" font-family="Arial">178613</text>
<polyline fill="none" stroke="#2c7fb8" stroke-width="2" points="80.0,60.0 93.7,369.5 107.5,381.9 121.2,386.0 134.9,387.7 148.6,388.5 162.4,389.0 176.1,389.4 189.8,389.6 203.6,389.7 217.3,389.8 231.0,389.9 244.7,389.9 258.5,389.9 272.2,389.9 285.9,390.0 299.7,390.0 313.4,390.0 327.1,390.0 340.8,390.0 354.6,390.0 368.3,390.0 382.0,390.0 395.8,390.0 409.5,390.0 423.2,390.0 436.9,390.0 450.7,390.0 464.4,390.0 478.1,390.0 491.9,390.0 505.6,390.0 519.3,390.0 533.1,390.0 546.8,390.0 560.5,390.0 574.2,390.0 588.0,390.0 601.7,390.0 615.4,390.0 629.2,390.0 642.9,390.0 656.6,390.0 670.3,390.0 684.1,390.0 697.8,390.0 711.5,390.0 725.3,390.0 739.0,390.0 752.7,390.0 766.4,390.0 780.2,390.0 793.9,390.0 807.6,390.0 821.4,390.0 835.1,390.0 848.8,390.0 862.5,390.0 876.3,390.0 890.0,390.0"/>
<polyline fill="none" stroke="#d95f0e" stroke-width="2" points="80.0,315.5 93.7,309.7 107.5,339.4 121.2,361.4 134.9,372.0 148.6,376.8 162.4,379.5 176.1,381.0 189.8,382.0 203.6,383.0 217.3,383.6 231.0,384.0 244.7,384.3 258.5,384.9 272.2,385.3 285.9,385.7 299.7,385.9 313.4,386.3 327.1,386.6 340.8,386.7 354.6,387.0 368.3,387.3 382.0,387.7 395.8,387.7 409.5,388.1 423.2,388.2 436.9,388.4 450.7,388.6 464.4,388.7 478.1,388.9 491.9,389.2 505.6,389.2 519.3,389.4 533.1,389.6 546.8,389.7 560.5,389.8 574.2,389.8 588.0,389.9 601.7,389.9 615.4,389.9 629.2,390.0 642.9,390.0 656.6,390.0 670.3,390.0 684.1,390.0 697.8,390.0 711.5,390.0 725.3,390.0 739.0,390.0 752.7,390.0 766.4,390.0 780.2,390.0 793.9,390.0 807.6,390.0 821.4,390.0 835.1,390.0 848.8,390.0 862.5,390.0 876.3,390.0 890.0,390.0"/>
<line x1="90" y1="36" x2="102" y2="36" stroke="#2c7fb8" stroke-width="3"/>
<text x="108" y="40" font-size="12" font-family="Arial">A_mod_density_per_kb</text>
<line x1="90" y1="56" x2="102" y2="56" stroke="#d95f0e" stroke-width="3"/>
<text x="108" y="60" font-size="12" font-family="Arial">C_mod_density_per_kb</text>
<text x="485.0" y="450" text-anchor="middle" font-size="12" font-family="Arial">mods per kb</text>
<text x="25" y="225.0" text-anchor="middle" transform="rotate(-90 25,225.0)" font-size="12" font-family="Arial">Count</text>
</svg>