<svg xmlns="http://www.w3.org/2000/svg" width="920" height="480">
<rect width="100%" height="100%" fill="white"/>
<text x="460.0" y="30" text-anchor="middle" font-size="20" font-family="Arial">h3k27me3 Read Length Distribution</text>
<line x1="80" y1="390" x2="890" y2="390" stroke="black" stroke-width="1"/>
<line x1="80" y1="60" x2="80" y2="390" stroke="black" stroke-width="1"/>
<line x1="80" y1="390.0" x2="890" y2="390.0" stroke="#ececec"/>
<text x="72" y="394.0" text-anchor="end" font-size="12" font-family="Arial">0</text>
<line x1="80" y1="324.0" x2="890" y2="324.0" stroke="#ececec"/>
<text x="72" y="328.0" text-anchor="end" font-size="12" font-family="Arial">20314</text>
<line x1="80" y1="258.0" x2="890" y2="258.0" stroke="#ececec"/>
<text x="72" y="262.0" text-anchor="end" font-size="12" font-family="Arial">40628</text>
<line x1="80" y1="192.0" x2="890" y2="192.0" stroke="#ececec"/>
<text x="72" y="196.0" text-anchor="end" font-size="12" font-family="Arial">60942</text>
<line x1="80" y1="126.0" x2="890" y2="126.0" stroke="#ececec"/>
<text x="72" y="130.0" text-anchor="end" font-size="12" font-family="Arial">81256</text>
<line x1="80" y1="60.0" x2="890" y2="60.0" stroke="#ececec"/>
<text x="72" y="64.0" text-anchor="end" font-size="12" font-family="Arial">101570</text>
<polyline fill="none" stroke="#1b9e77" stroke-width="2" points="80.0,60.0 93.7,290.6 107.5,341.1 121.2,360.1 134.9,369.2 148.6,373.9 162.4,376.4 176.1,377.6 189.8,379.7 203.6,380.8 217.3,381.9 231.0,382.4 244.7,383.4 258.5,384.5 272.2,385.4 285.9,385.8 299.7,386.4 313.4,386.9 327.1,387.4 340.8,387.8 354.6,388.2 368.3,388.4 382.0,388.7 395.8,388.9 409.5,389.2 423.2,389.2 436.9,389.3 450.7,389.5 464.4,389.6 478.1,389.6 491.9,389.7 505.6,389.7 519.3,389.8 533.1,389.8 546.8,389.9 560.5,389.9 574.2,389.9 588.0,389.9 601.7,389.9 615.4,390.0 629.2,390.0 642.9,390.0 656.6,390.0 670.3,390.0 684.1,390.0 697.8,390.0 711.5,390.0 725.3,390.0 739.0,390.0 752.7,390.0 766.4,390.0 780.2,390.0 793.9,390.0 807.6,390.0 821.4,390.0 835.1,390.0 848.8,390.0 862.5,390.0 876.3,390.0 890.0,390.0"/>
<line x1="90" y1="36" x2="102" y2="36" stroke="#1b9e77" stroke-width="3"/>
<text x="108" y="40" font-size="12" font-family="Arial">read_len</text>
<text x="485.0" y="450" text-anchor="middle" font-size="12" font-family="Arial">read length (bp)</text>
<text x="25" y="225.0" text-anchor="middle" transform="rotate(-90 25,225.0)" font-size="12" font-family="Arial">Count</text>
</svg>