<svg xmlns="http://www.w3.org/2000/svg" width="920" height="480">
<rect width="100%" height="100%" fill="white"/>
<text x="460.0" y="30" text-anchor="middle" font-size="20" font-family="Arial">h3k27ac Read Length Distribution</text>
<line x1="80" y1="390" x2="890" y2="390" stroke="black" stroke-width="1"/>
<line x1="80" y1="60" x2="80" y2="390" stroke="black" stroke-width="1"/>
<line x1="80" y1="390.0" x2="890" y2="390.0" stroke="#ececec"/>
<text x="72" y="394.0" text-anchor="end" font-size="12" font-family="Arial">0</text>
<line x1="80" y1="324.0" x2="890" y2="324.0" stroke="#ececec"/>
<text x="72" y="328.0" text-anchor="end" font-size="12" font-family="Arial">17248</text>
<line x1="80" y1="258.0" x2="890" y2="258.0" stroke="#ececec"/>
<text x="72" y="262.0" text-anchor="end" font-size="12" font-family="Arial">34496</text>
<line x1="80" y1="192.0" x2="890" y2="192.0" stroke="#ececec"/>
<text x="72" y="196.0" text-anchor="end" font-size="12" font-family="Arial">51745</text>
<line x1="80" y1="126.0" x2="890" y2="126.0" stroke="#ececec"/>
<text x="72" y="130.0" text-anchor="end" font-size="12" font-family="Arial">68993</text>
<line x1="80" y1="60.0" x2="890" y2="60.0" stroke="#ececec"/>
<text x="72" y="64.0" text-anchor="end" font-size="12" font-family="Arial">86242</text>
<polyline fill="none" stroke="#1b9e77" stroke-width="2" points="80.0,60.0 93.7,263.0 107.5,322.9 121.2,348.7 134.9,360.9 148.6,366.8 162.4,371.3 176.1,373.8 189.8,376.2 203.6,377.6 217.3,378.7 231.0,380.4 244.7,381.1 258.5,382.1 272.2,383.3 285.9,384.2 299.7,384.6 313.4,385.2 327.1,386.2 340.8,386.6 354.6,387.1 368.3,387.3 382.0,387.9 395.8,388.3 409.5,388.4 423.2,388.7 436.9,388.9 450.7,389.1 464.4,389.2 478.1,389.3 491.9,389.4 505.6,389.6 519.3,389.6 533.1,389.7 546.8,389.8 560.5,389.8 574.2,389.8 588.0,389.9 601.7,389.8 615.4,389.9 629.2,389.9 642.9,390.0 656.6,390.0 670.3,389.9 684.1,389.9 697.8,390.0 711.5,390.0 725.3,390.0 739.0,390.0 752.7,390.0 766.4,390.0 780.2,390.0 793.9,390.0 807.6,390.0 821.4,390.0 835.1,390.0 848.8,390.0 862.5,390.0 876.3,390.0 890.0,390.0"/>
<line x1="90" y1="36" x2="102" y2="36" stroke="#1b9e77" stroke-width="3"/>
<text x="108" y="40" font-size="12" font-family="Arial">read_len</text>
<text x="485.0" y="450" text-anchor="middle" font-size="12" font-family="Arial">read length (bp)</text>
<text x="25" y="225.0" text-anchor="middle" transform="rotate(-90 25,225.0)" font-size="12" font-family="Arial">Count</text>
</svg>