<?xml version="1.0" encoding="utf-8" standalone="no"?>
<!DOCTYPE svg PUBLIC "-//W3C//DTD SVG 1.1//EN"
  "http://www.w3.org/Graphics/SVG/1.1/DTD/svg11.dtd">
<svg xmlns:xlink="http://www.w3.org/1999/xlink" width="936pt" height="576pt" viewBox="0 0 936 576" xmlns="http://www.w3.org/2000/svg" version="1.1">
 <metadata>
  <rdf:RDF xmlns:dc="http://purl.org/dc/elements/1.1/" xmlns:cc="http://creativecommons.org/ns#" xmlns:rdf="http://www.w3.org/1999/02/22-rdf-syntax-ns#">
   <cc:Work>
    <dc:type rdf:resource="http://purl.org/dc/dcmitype/StillImage"/>
    <dc:date>2026-07-10T11:54:03.182399</dc:date>
    <dc:format>image/svg+xml</dc:format>
    <dc:creator>
     <cc:Agent>
      <dc:title>Matplotlib v3.11.0, https://matplotlib.org/</dc:title>
     </cc:Agent>
    </dc:creator>
   </cc:Work>
  </rdf:RDF>
 </metadata>
 <defs>
  <style type="text/css">*{stroke-linejoin: round; stroke-linecap: butt}</style>
 </defs>
 <g id="figure_1">
  <g id="patch_1">
   <path d="M 0 576 
L 936 576 
L 936 0 
L 0 0 
z
" style="fill: #ffffff"/>
  </g>
  <g id="axes_1">
   <g id="patch_2">
    <path d="M 65.56625 122.409781 
L 925.2 122.409781 
L 925.2 34.165779 
L 65.56625 34.165779 
z
" style="fill: #ffffff"/>
   </g>
   <g id="matplotlib.axis_1">
    <g id="xtick_1">
     <g id="line2d_1">
      <defs>
       <path id="m47c8e1bf24" d="M 0 0 
L 0 3.5 
" style="stroke: #000000; stroke-width: 0.8"/>
      </defs>
      <g>
       <use xlink:href="#m47c8e1bf24" x="179.631518" y="122.409781" style="stroke: #000000; stroke-width: 0.8"/>
      </g>
     </g>
    </g>
    <g id="xtick_2">
     <g id="line2d_2">
      <g>
       <use xlink:href="#m47c8e1bf24" x="337.507322" y="122.409781" style="stroke: #000000; stroke-width: 0.8"/>
      </g>
     </g>
    </g>
    <g id="xtick_3">
     <g id="line2d_3">
      <g>
       <use xlink:href="#m47c8e1bf24" x="495.383125" y="122.409781" style="stroke: #000000; stroke-width: 0.8"/>
      </g>
     </g>
    </g>
    <g id="xtick_4">
     <g id="line2d_4">
      <g>
       <use xlink:href="#m47c8e1bf24" x="653.258928" y="122.409781" style="stroke: #000000; stroke-width: 0.8"/>
      </g>
     </g>
    </g>
    <g id="xtick_5">
     <g id="line2d_5">
      <g>
       <use xlink:href="#m47c8e1bf24" x="811.134732" y="122.409781" style="stroke: #000000; stroke-width: 0.8"/>
      </g>
     </g>
    </g>
   </g>
   <g id="matplotlib.axis_2">
    <g id="ytick_1">
     <g id="line2d_6">
      <defs>
       <path id="mf7bcc140c2" d="M 0 0 
L -3.5 0 
" style="stroke: #000000; stroke-width: 0.8"/>
      </defs>
      <g>
       <use xlink:href="#mf7bcc140c2" x="65.56625" y="118.39869" style="stroke: #000000; stroke-width: 0.8"/>
      </g>
     </g>
     <g id="text_1">
      <!-- 0.0 -->
      <g transform="translate(42.663125 122.197518) scale(0.1 -0.1)">
       <defs>
        <path id="DejaVuSans-13" d="M 2034 4250 
Q 1547 4250 1301 3770 
Q 1056 3291 1056 2328 
Q 1056 1369 1301 889 
Q 1547 409 2034 409 
Q 2525 409 2770 889 
Q 3016 1369 3016 2328 
Q 3016 3291 2770 3770 
Q 2525 4250 2034 4250 
z
M 2034 4750 
Q 2819 4750 3233 4129 
Q 3647 3509 3647 2328 
Q 3647 1150 3233 529 
Q 2819 -91 2034 -91 
Q 1250 -91 836 529 
Q 422 1150 422 2328 
Q 422 3509 836 4129 
Q 1250 4750 2034 4750 
z
" transform="scale(0.015625)"/>
        <path id="DejaVuSans-11" d="M 684 794 
L 1344 794 
L 1344 0 
L 684 0 
L 684 794 
z
" transform="scale(0.015625)"/>
       </defs>
       <use xlink:href="#DejaVuSans-13"/>
       <use xlink:href="#DejaVuSans-11" transform="translate(63.625 0)"/>
       <use xlink:href="#DejaVuSans-13" transform="translate(95.40625 0)"/>
      </g>
     </g>
    </g>
    <g id="ytick_2">
     <g id="line2d_7">
      <g>
       <use xlink:href="#mf7bcc140c2" x="65.56625" y="78.28778" style="stroke: #000000; stroke-width: 0.8"/>
      </g>
     </g>
     <g id="text_2">
      <!-- 0.5 -->
      <g transform="translate(42.663125 82.086608) scale(0.1 -0.1)">
       <defs>
        <path id="DejaVuSans-18" d="M 691 4666 
L 3169 4666 
L 3169 4134 
L 1269 4134 
L 1269 2991 
Q 1406 3038 1543 3061 
Q 1681 3084 1819 3084 
Q 2600 3084 3056 2656 
Q 3513 2228 3513 1497 
Q 3513 744 3044 326 
Q 2575 -91 1722 -91 
Q 1428 -91 1123 -41 
Q 819 9 494 109 
L 494 744 
Q 775 591 1075 516 
Q 1375 441 1709 441 
Q 2250 441 2565 725 
Q 2881 1009 2881 1497 
Q 2881 1984 2565 2268 
Q 2250 2553 1709 2553 
Q 1456 2553 1204 2497 
Q 953 2441 691 2322 
L 691 4666 
z
" transform="scale(0.015625)"/>
       </defs>
       <use xlink:href="#DejaVuSans-13"/>
       <use xlink:href="#DejaVuSans-11" transform="translate(63.625 0)"/>
       <use xlink:href="#DejaVuSans-18" transform="translate(95.40625 0)"/>
      </g>
     </g>
    </g>
    <g id="ytick_3">
     <g id="line2d_8">
      <g>
       <use xlink:href="#mf7bcc140c2" x="65.56625" y="38.17687" style="stroke: #000000; stroke-width: 0.8"/>
      </g>
     </g>
     <g id="text_3">
      <!-- 1.0 -->
      <g transform="translate(42.663125 41.975698) scale(0.1 -0.1)">
       <defs>
        <path id="DejaVuSans-14" d="M 794 531 
L 1825 531 
L 1825 4091 
L 703 3866 
L 703 4441 
L 1819 4666 
L 2450 4666 
L 2450 531 
L 3481 531 
L 3481 0 
L 794 0 
L 794 531 
z
" transform="scale(0.015625)"/>
       </defs>
       <use xlink:href="#DejaVuSans-14"/>
       <use xlink:href="#DejaVuSans-11" transform="translate(63.625 0)"/>
       <use xlink:href="#DejaVuSans-13" transform="translate(95.40625 0)"/>
      </g>
     </g>
    </g>
    <g id="text_4">
     <!-- external BigWig -->
     <g transform="translate(36.260781 117.842467) rotate(-90) scale(0.1 -0.1)">
      <defs>
       <path id="DejaVuSans-48" d="M 3597 1894 
L 3597 1613 
L 953 1613 
Q 991 1019 1311 708 
Q 1631 397 2203 397 
Q 2534 397 2845 478 
Q 3156 559 3463 722 
L 3463 178 
Q 3153 47 2828 -22 
Q 2503 -91 2169 -91 
Q 1331 -91 842 396 
Q 353 884 353 1716 
Q 353 2575 817 3079 
Q 1281 3584 2069 3584 
Q 2775 3584 3186 3129 
Q 3597 2675 3597 1894 
z
M 3022 2063 
Q 3016 2534 2758 2815 
Q 2500 3097 2075 3097 
Q 1594 3097 1305 2825 
Q 1016 2553 972 2059 
L 3022 2063 
z
" transform="scale(0.015625)"/>
       <path id="DejaVuSans-5b" d="M 3513 3500 
L 2247 1797 
L 3578 0 
L 2900 0 
L 1881 1375 
L 863 0 
L 184 0 
L 1544 1831 
L 300 3500 
L 978 3500 
L 1906 2253 
L 2834 3500 
L 3513 3500 
z
" transform="scale(0.015625)"/>
       <path id="DejaVuSans-57" d="M 1172 4494 
L 1172 3500 
L 2356 3500 
L 2356 3053 
L 1172 3053 
L 1172 1153 
Q 1172 725 1289 603 
Q 1406 481 1766 481 
L 2356 481 
L 2356 0 
L 1766 0 
Q 1100 0 847 248 
Q 594 497 594 1153 
L 594 3053 
L 172 3053 
L 172 3500 
L 594 3500 
L 594 4494 
L 1172 4494 
z
" transform="scale(0.015625)"/>
       <path id="DejaVuSans-55" d="M 2631 2963 
Q 2534 3019 2420 3045 
Q 2306 3072 2169 3072 
Q 1681 3072 1420 2755 
Q 1159 2438 1159 1844 
L 1159 0 
L 581 0 
L 581 3500 
L 1159 3500 
L 1159 2956 
Q 1341 3275 1631 3429 
Q 1922 3584 2338 3584 
Q 2397 3584 2469 3576 
Q 2541 3569 2628 3553 
L 2631 2963 
z
" transform="scale(0.015625)"/>
       <path id="DejaVuSans-51" d="M 3513 2113 
L 3513 0 
L 2938 0 
L 2938 2094 
Q 2938 2591 2744 2837 
Q 2550 3084 2163 3084 
Q 1697 3084 1428 2787 
Q 1159 2491 1159 1978 
L 1159 0 
L 581 0 
L 581 3500 
L 1159 3500 
L 1159 2956 
Q 1366 3272 1645 3428 
Q 1925 3584 2291 3584 
Q 2894 3584 3203 3211 
Q 3513 2838 3513 2113 
z
" transform="scale(0.015625)"/>
       <path id="DejaVuSans-44" d="M 2194 1759 
Q 1497 1759 1228 1600 
Q 959 1441 959 1056 
Q 959 750 1161 570 
Q 1363 391 1709 391 
Q 2188 391 2477 730 
Q 2766 1069 2766 1631 
L 2766 1759 
L 2194 1759 
z
M 3341 1997 
L 3341 0 
L 2766 0 
L 2766 531 
Q 2569 213 2275 61 
Q 1981 -91 1556 -91 
Q 1019 -91 701 211 
Q 384 513 384 1019 
Q 384 1609 779 1909 
Q 1175 2209 1959 2209 
L 2766 2209 
L 2766 2266 
Q 2766 2663 2505 2880 
Q 2244 3097 1772 3097 
Q 1472 3097 1187 3025 
Q 903 2953 641 2809 
L 641 3341 
Q 956 3463 1253 3523 
Q 1550 3584 1831 3584 
Q 2591 3584 2966 3190 
Q 3341 2797 3341 1997 
z
" transform="scale(0.015625)"/>
       <path id="DejaVuSans-4f" d="M 603 4863 
L 1178 4863 
L 1178 0 
L 603 0 
L 603 4863 
z
" transform="scale(0.015625)"/>
       <path id="DejaVuSans-3" transform="scale(0.015625)"/>
       <path id="DejaVuSans-25" d="M 1259 2228 
L 1259 519 
L 2272 519 
Q 2781 519 3026 730 
Q 3272 941 3272 1375 
Q 3272 1813 3026 2020 
Q 2781 2228 2272 2228 
L 1259 2228 
z
M 1259 4147 
L 1259 2741 
L 2194 2741 
Q 2656 2741 2882 2914 
Q 3109 3088 3109 3444 
Q 3109 3797 2882 3972 
Q 2656 4147 2194 4147 
L 1259 4147 
z
M 628 4666 
L 2241 4666 
Q 2963 4666 3353 4366 
Q 3744 4066 3744 3513 
Q 3744 3084 3544 2831 
Q 3344 2578 2956 2516 
Q 3422 2416 3680 2098 
Q 3938 1781 3938 1306 
Q 3938 681 3513 340 
Q 3088 0 2303 0 
L 628 0 
L 628 4666 
z
" transform="scale(0.015625)"/>
       <path id="DejaVuSans-4c" d="M 603 3500 
L 1178 3500 
L 1178 0 
L 603 0 
L 603 3500 
z
M 603 4863 
L 1178 4863 
L 1178 4134 
L 603 4134 
L 603 4863 
z
" transform="scale(0.015625)"/>
       <path id="DejaVuSans-4a" d="M 2906 1791 
Q 2906 2416 2648 2759 
Q 2391 3103 1925 3103 
Q 1463 3103 1205 2759 
Q 947 2416 947 1791 
Q 947 1169 1205 825 
Q 1463 481 1925 481 
Q 2391 481 2648 825 
Q 2906 1169 2906 1791 
z
M 3481 434 
Q 3481 -459 3084 -895 
Q 2688 -1331 1869 -1331 
Q 1566 -1331 1297 -1286 
Q 1028 -1241 775 -1147 
L 775 -588 
Q 1028 -725 1275 -790 
Q 1522 -856 1778 -856 
Q 2344 -856 2625 -561 
Q 2906 -266 2906 331 
L 2906 616 
Q 2728 306 2450 153 
Q 2172 0 1784 0 
Q 1141 0 747 490 
Q 353 981 353 1791 
Q 353 2603 747 3093 
Q 1141 3584 1784 3584 
Q 2172 3584 2450 3431 
Q 2728 3278 2906 2969 
L 2906 3500 
L 3481 3500 
L 3481 434 
z
" transform="scale(0.015625)"/>
       <path id="DejaVuSans-3a" d="M 213 4666 
L 850 4666 
L 1831 722 
L 2809 4666 
L 3519 4666 
L 4500 722 
L 5478 4666 
L 6119 4666 
L 4947 0 
L 4153 0 
L 3169 4050 
L 2175 0 
L 1381 0 
L 213 4666 
z
" transform="scale(0.015625)"/>
      </defs>
      <use xlink:href="#DejaVuSans-48"/>
      <use xlink:href="#DejaVuSans-5b" transform="translate(59.78125 0)"/>
      <use xlink:href="#DejaVuSans-57" transform="translate(118.96875 0)"/>
      <use xlink:href="#DejaVuSans-48" transform="translate(158.171875 0)"/>
      <use xlink:href="#DejaVuSans-55" transform="translate(219.703125 0)"/>
      <use xlink:href="#DejaVuSans-51" transform="translate(259.0625 0)"/>
      <use xlink:href="#DejaVuSans-44" transform="translate(322.4375 0)"/>
      <use xlink:href="#DejaVuSans-4f" transform="translate(383.71875 0)"/>
      <use xlink:href="#DejaVuSans-3" transform="translate(411.5 0)"/>
      <use xlink:href="#DejaVuSans-25" transform="translate(443.28125 0)"/>
      <use xlink:href="#DejaVuSans-4c" transform="translate(511.890625 0)"/>
      <use xlink:href="#DejaVuSans-4a" transform="translate(539.671875 0)"/>
      <use xlink:href="#DejaVuSans-3a" transform="translate(603.15625 0)"/>
      <use xlink:href="#DejaVuSans-4c" transform="translate(699.828125 0)"/>
      <use xlink:href="#DejaVuSans-4a" transform="translate(727.609375 0)"/>
     </g>
    </g>
   </g>
   <g id="line2d_9">
    <path d="M 140.162567 99.819989 
L 219.100469 96.06251 
L 298.038371 116.924885 
L 376.976272 117.238304 
L 455.914174 116.151306 
L 534.852076 117.071622 
L 613.789978 117.333042 
L 692.727879 118.251932 
L 771.665781 118.071715 
L 850.603683 116.979732 
" clip-path="url(#p5d44082ea2)" style="fill: none; stroke: #2ca02c; stroke-width: 1.4; stroke-linecap: square"/>
   </g>
   <g id="patch_3">
    <path d="M 65.56625 122.409781 
L 65.56625 34.165779 
" style="fill: none; stroke: #000000; stroke-width: 0.8; stroke-linejoin: miter; stroke-linecap: square"/>
   </g>
   <g id="patch_4">
    <path d="M 925.2 122.409781 
L 925.2 34.165779 
" style="fill: none; stroke: #000000; stroke-width: 0.8; stroke-linejoin: miter; stroke-linecap: square"/>
   </g>
   <g id="patch_5">
    <path d="M 65.56625 122.409781 
L 925.2 122.409781 
" style="fill: none; stroke: #000000; stroke-width: 0.8; stroke-linejoin: miter; stroke-linecap: square"/>
   </g>
   <g id="patch_6">
    <path d="M 65.56625 34.165779 
L 925.2 34.165779 
" style="fill: none; stroke: #000000; stroke-width: 0.8; stroke-linejoin: miter; stroke-linecap: square"/>
   </g>
  </g>
  <g id="axes_2">
   <g id="patch_7">
    <path d="M 65.56625 225.27675 
L 925.2 225.27675 
L 925.2 137.032747 
L 65.56625 137.032747 
z
" style="fill: #ffffff"/>
   </g>
   <g id="matplotlib.axis_3">
    <g id="xtick_6">
     <g id="line2d_10">
      <g>
       <use xlink:href="#m47c8e1bf24" x="179.631518" y="225.27675" style="stroke: #000000; stroke-width: 0.8"/>
      </g>
     </g>
    </g>
    <g id="xtick_7">
     <g id="line2d_11">
      <g>
       <use xlink:href="#m47c8e1bf24" x="337.507322" y="225.27675" style="stroke: #000000; stroke-width: 0.8"/>
      </g>
     </g>
    </g>
    <g id="xtick_8">
     <g id="line2d_12">
      <g>
       <use xlink:href="#m47c8e1bf24" x="495.383125" y="225.27675" style="stroke: #000000; stroke-width: 0.8"/>
      </g>
     </g>
    </g>
    <g id="xtick_9">
     <g id="line2d_13">
      <g>
       <use xlink:href="#m47c8e1bf24" x="653.258928" y="225.27675" style="stroke: #000000; stroke-width: 0.8"/>
      </g>
     </g>
    </g>
    <g id="xtick_10">
     <g id="line2d_14">
      <g>
       <use xlink:href="#m47c8e1bf24" x="811.134732" y="225.27675" style="stroke: #000000; stroke-width: 0.8"/>
      </g>
     </g>
    </g>
   </g>
   <g id="matplotlib.axis_4">
    <g id="ytick_4">
     <g id="line2d_15">
      <g>
       <use xlink:href="#mf7bcc140c2" x="65.56625" y="221.265659" style="stroke: #000000; stroke-width: 0.8"/>
      </g>
     </g>
     <g id="text_5">
      <!-- 0.0 -->
      <g transform="translate(42.663125 225.064487) scale(0.1 -0.1)">
       <use xlink:href="#DejaVuSans-13"/>
       <use xlink:href="#DejaVuSans-11" transform="translate(63.625 0)"/>
       <use xlink:href="#DejaVuSans-13" transform="translate(95.40625 0)"/>
      </g>
     </g>
    </g>
    <g id="ytick_5">
     <g id="line2d_16">
      <g>
       <use xlink:href="#mf7bcc140c2" x="65.56625" y="181.154749" style="stroke: #000000; stroke-width: 0.8"/>
      </g>
     </g>
     <g id="text_6">
      <!-- 0.5 -->
      <g transform="translate(42.663125 184.953577) scale(0.1 -0.1)">
       <use xlink:href="#DejaVuSans-13"/>
       <use xlink:href="#DejaVuSans-11" transform="translate(63.625 0)"/>
       <use xlink:href="#DejaVuSans-18" transform="translate(95.40625 0)"/>
      </g>
     </g>
    </g>
    <g id="ytick_6">
     <g id="line2d_17">
      <g>
       <use xlink:href="#mf7bcc140c2" x="65.56625" y="141.043838" style="stroke: #000000; stroke-width: 0.8"/>
      </g>
     </g>
     <g id="text_7">
      <!-- 1.0 -->
      <g transform="translate(42.663125 144.842666) scale(0.1 -0.1)">
       <use xlink:href="#DejaVuSans-14"/>
       <use xlink:href="#DejaVuSans-11" transform="translate(63.625 0)"/>
       <use xlink:href="#DejaVuSans-13" transform="translate(95.40625 0)"/>
      </g>
     </g>
    </g>
    <g id="text_8">
     <!-- AlphaGenome -->
     <g transform="translate(36.260781 216.496936) rotate(-90) scale(0.1 -0.1)">
      <defs>
       <path id="DejaVuSans-24" d="M 2188 4044 
L 1331 1722 
L 3047 1722 
L 2188 4044 
z
M 1831 4666 
L 2547 4666 
L 4325 0 
L 3669 0 
L 3244 1197 
L 1141 1197 
L 716 0 
L 50 0 
L 1831 4666 
z
" transform="scale(0.015625)"/>
       <path id="DejaVuSans-53" d="M 1159 525 
L 1159 -1331 
L 581 -1331 
L 581 3500 
L 1159 3500 
L 1159 2969 
Q 1341 3281 1617 3432 
Q 1894 3584 2278 3584 
Q 2916 3584 3314 3078 
Q 3713 2572 3713 1747 
Q 3713 922 3314 415 
Q 2916 -91 2278 -91 
Q 1894 -91 1617 61 
Q 1341 213 1159 525 
z
M 3116 1747 
Q 3116 2381 2855 2742 
Q 2594 3103 2138 3103 
Q 1681 3103 1420 2742 
Q 1159 2381 1159 1747 
Q 1159 1113 1420 752 
Q 1681 391 2138 391 
Q 2594 391 2855 752 
Q 3116 1113 3116 1747 
z
" transform="scale(0.015625)"/>
       <path id="DejaVuSans-4b" d="M 3513 2113 
L 3513 0 
L 2938 0 
L 2938 2094 
Q 2938 2591 2744 2837 
Q 2550 3084 2163 3084 
Q 1697 3084 1428 2787 
Q 1159 2491 1159 1978 
L 1159 0 
L 581 0 
L 581 4863 
L 1159 4863 
L 1159 2956 
Q 1366 3272 1645 3428 
Q 1925 3584 2291 3584 
Q 2894 3584 3203 3211 
Q 3513 2838 3513 2113 
z
" transform="scale(0.015625)"/>
       <path id="DejaVuSans-2a" d="M 3809 666 
L 3809 1919 
L 2778 1919 
L 2778 2438 
L 4434 2438 
L 4434 434 
Q 4069 175 3628 42 
Q 3188 -91 2688 -91 
Q 1594 -91 976 548 
Q 359 1188 359 2328 
Q 359 3472 976 4111 
Q 1594 4750 2688 4750 
Q 3144 4750 3555 4637 
Q 3966 4525 4313 4306 
L 4313 3634 
Q 3963 3931 3569 4081 
Q 3175 4231 2741 4231 
Q 1884 4231 1454 3753 
Q 1025 3275 1025 2328 
Q 1025 1384 1454 906 
Q 1884 428 2741 428 
Q 3075 428 3337 486 
Q 3600 544 3809 666 
z
" transform="scale(0.015625)"/>
       <path id="DejaVuSans-52" d="M 1959 3097 
Q 1497 3097 1228 2736 
Q 959 2375 959 1747 
Q 959 1119 1226 758 
Q 1494 397 1959 397 
Q 2419 397 2687 759 
Q 2956 1122 2956 1747 
Q 2956 2369 2687 2733 
Q 2419 3097 1959 3097 
z
M 1959 3584 
Q 2709 3584 3137 3096 
Q 3566 2609 3566 1747 
Q 3566 888 3137 398 
Q 2709 -91 1959 -91 
Q 1206 -91 779 398 
Q 353 888 353 1747 
Q 353 2609 779 3096 
Q 1206 3584 1959 3584 
z
" transform="scale(0.015625)"/>
       <path id="DejaVuSans-50" d="M 3328 2828 
Q 3544 3216 3844 3400 
Q 4144 3584 4550 3584 
Q 5097 3584 5394 3201 
Q 5691 2819 5691 2113 
L 5691 0 
L 5113 0 
L 5113 2094 
Q 5113 2597 4934 2840 
Q 4756 3084 4391 3084 
Q 3944 3084 3684 2787 
Q 3425 2491 3425 1978 
L 3425 0 
L 2847 0 
L 2847 2094 
Q 2847 2600 2669 2842 
Q 2491 3084 2119 3084 
Q 1678 3084 1418 2786 
Q 1159 2488 1159 1978 
L 1159 0 
L 581 0 
L 581 3500 
L 1159 3500 
L 1159 2956 
Q 1356 3278 1631 3431 
Q 1906 3584 2284 3584 
Q 2666 3584 2933 3390 
Q 3200 3197 3328 2828 
z
" transform="scale(0.015625)"/>
      </defs>
      <use xlink:href="#DejaVuSans-24"/>
      <use xlink:href="#DejaVuSans-4f" transform="translate(68.40625 0)"/>
      <use xlink:href="#DejaVuSans-53" transform="translate(96.1875 0)"/>
      <use xlink:href="#DejaVuSans-4b" transform="translate(159.671875 0)"/>
      <use xlink:href="#DejaVuSans-44" transform="translate(223.046875 0)"/>
      <use xlink:href="#DejaVuSans-2a" transform="translate(284.328125 0)"/>
      <use xlink:href="#DejaVuSans-48" transform="translate(361.8125 0)"/>
      <use xlink:href="#DejaVuSans-51" transform="translate(423.34375 0)"/>
      <use xlink:href="#DejaVuSans-52" transform="translate(486.71875 0)"/>
      <use xlink:href="#DejaVuSans-50" transform="translate(547.90625 0)"/>
      <use xlink:href="#DejaVuSans-48" transform="translate(645.3125 0)"/>
     </g>
    </g>
   </g>
   <g id="line2d_18">
    <path d="M 140.162567 184.720462 
L 219.100469 191.815849 
L 298.038371 217.867112 
L 376.976272 220.432976 
L 455.914174 215.625961 
L 534.852076 214.300052 
L 613.789978 219.349805 
L 692.727879 220.032126 
L 771.665781 216.794288 
L 850.603683 218.712319 
" clip-path="url(#p1685e7e983)" style="fill: none; stroke: #000000; stroke-width: 1.4; stroke-linecap: square"/>
   </g>
   <g id="patch_8">
    <path d="M 65.56625 225.27675 
L 65.56625 137.032747 
" style="fill: none; stroke: #000000; stroke-width: 0.8; stroke-linejoin: miter; stroke-linecap: square"/>
   </g>
   <g id="patch_9">
    <path d="M 925.2 225.27675 
L 925.2 137.032747 
" style="fill: none; stroke: #000000; stroke-width: 0.8; stroke-linejoin: miter; stroke-linecap: square"/>
   </g>
   <g id="patch_10">
    <path d="M 65.56625 225.27675 
L 925.2 225.27675 
" style="fill: none; stroke: #000000; stroke-width: 0.8; stroke-linejoin: miter; stroke-linecap: square"/>
   </g>
   <g id="patch_11">
    <path d="M 65.56625 137.032747 
L 925.2 137.032747 
" style="fill: none; stroke: #000000; stroke-width: 0.8; stroke-linejoin: miter; stroke-linecap: square"/>
   </g>
  </g>
  <g id="axes_3">
   <g id="patch_12">
    <path d="M 65.56625 328.143719 
L 925.2 328.143719 
L 925.2 239.899716 
L 65.56625 239.899716 
z
" style="fill: #ffffff"/>
   </g>
   <g id="matplotlib.axis_5">
    <g id="xtick_11">
     <g id="line2d_19">
      <g>
       <use xlink:href="#m47c8e1bf24" x="179.631518" y="328.143719" style="stroke: #000000; stroke-width: 0.8"/>
      </g>
     </g>
    </g>
    <g id="xtick_12">
     <g id="line2d_20">
      <g>
       <use xlink:href="#m47c8e1bf24" x="337.507322" y="328.143719" style="stroke: #000000; stroke-width: 0.8"/>
      </g>
     </g>
    </g>
    <g id="xtick_13">
     <g id="line2d_21">
      <g>
       <use xlink:href="#m47c8e1bf24" x="495.383125" y="328.143719" style="stroke: #000000; stroke-width: 0.8"/>
      </g>
     </g>
    </g>
    <g id="xtick_14">
     <g id="line2d_22">
      <g>
       <use xlink:href="#m47c8e1bf24" x="653.258928" y="328.143719" style="stroke: #000000; stroke-width: 0.8"/>
      </g>
     </g>
    </g>
    <g id="xtick_15">
     <g id="line2d_23">
      <g>
       <use xlink:href="#m47c8e1bf24" x="811.134732" y="328.143719" style="stroke: #000000; stroke-width: 0.8"/>
      </g>
     </g>
    </g>
   </g>
   <g id="matplotlib.axis_6">
    <g id="ytick_7">
     <g id="line2d_24">
      <g>
       <use xlink:href="#mf7bcc140c2" x="65.56625" y="324.132628" style="stroke: #000000; stroke-width: 0.8"/>
      </g>
     </g>
     <g id="text_9">
      <!-- 0.0 -->
      <g transform="translate(42.663125 327.931456) scale(0.1 -0.1)">
       <use xlink:href="#DejaVuSans-13"/>
       <use xlink:href="#DejaVuSans-11" transform="translate(63.625 0)"/>
       <use xlink:href="#DejaVuSans-13" transform="translate(95.40625 0)"/>
      </g>
     </g>
    </g>
    <g id="ytick_8">
     <g id="line2d_25">
      <g>
       <use xlink:href="#mf7bcc140c2" x="65.56625" y="284.021717" style="stroke: #000000; stroke-width: 0.8"/>
      </g>
     </g>
     <g id="text_10">
      <!-- 0.5 -->
      <g transform="translate(42.663125 287.820546) scale(0.1 -0.1)">
       <use xlink:href="#DejaVuSans-13"/>
       <use xlink:href="#DejaVuSans-11" transform="translate(63.625 0)"/>
       <use xlink:href="#DejaVuSans-18" transform="translate(95.40625 0)"/>
      </g>
     </g>
    </g>
    <g id="ytick_9">
     <g id="line2d_26">
      <g>
       <use xlink:href="#mf7bcc140c2" x="65.56625" y="243.910807" style="stroke: #000000; stroke-width: 0.8"/>
      </g>
     </g>
     <g id="text_11">
      <!-- 1.0 -->
      <g transform="translate(42.663125 247.709635) scale(0.1 -0.1)">
       <use xlink:href="#DejaVuSans-14"/>
       <use xlink:href="#DejaVuSans-11" transform="translate(63.625 0)"/>
       <use xlink:href="#DejaVuSans-13" transform="translate(95.40625 0)"/>
      </g>
     </g>
    </g>
    <g id="text_12">
     <!-- HyenaDNA -->
     <g transform="translate(36.260781 311.061561) rotate(-90) scale(0.1 -0.1)">
      <defs>
       <path id="DejaVuSans-2b" d="M 628 4666 
L 1259 4666 
L 1259 2753 
L 3553 2753 
L 3553 4666 
L 4184 4666 
L 4184 0 
L 3553 0 
L 3553 2222 
L 1259 2222 
L 1259 0 
L 628 0 
L 628 4666 
z
" transform="scale(0.015625)"/>
       <path id="DejaVuSans-5c" d="M 2059 -325 
Q 1816 -950 1584 -1140 
Q 1353 -1331 966 -1331 
L 506 -1331 
L 506 -850 
L 844 -850 
Q 1081 -850 1212 -737 
Q 1344 -625 1503 -206 
L 1606 56 
L 191 3500 
L 800 3500 
L 1894 763 
L 2988 3500 
L 3597 3500 
L 2059 -325 
z
" transform="scale(0.015625)"/>
       <path id="DejaVuSans-27" d="M 1259 4147 
L 1259 519 
L 2022 519 
Q 2988 519 3436 956 
Q 3884 1394 3884 2338 
Q 3884 3275 3436 3711 
Q 2988 4147 2022 4147 
L 1259 4147 
z
M 628 4666 
L 1925 4666 
Q 3281 4666 3915 4102 
Q 4550 3538 4550 2338 
Q 4550 1131 3912 565 
Q 3275 0 1925 0 
L 628 0 
L 628 4666 
z
" transform="scale(0.015625)"/>
       <path id="DejaVuSans-31" d="M 628 4666 
L 1478 4666 
L 3547 763 
L 3547 4666 
L 4159 4666 
L 4159 0 
L 3309 0 
L 1241 3903 
L 1241 0 
L 628 0 
L 628 4666 
z
" transform="scale(0.015625)"/>
      </defs>
      <use xlink:href="#DejaVuSans-2b"/>
      <use xlink:href="#DejaVuSans-5c" transform="translate(75.203125 0)"/>
      <use xlink:href="#DejaVuSans-48" transform="translate(134.390625 0)"/>
      <use xlink:href="#DejaVuSans-51" transform="translate(195.921875 0)"/>
      <use xlink:href="#DejaVuSans-44" transform="translate(259.296875 0)"/>
      <use xlink:href="#DejaVuSans-27" transform="translate(320.578125 0)"/>
      <use xlink:href="#DejaVuSans-31" transform="translate(397.578125 0)"/>
      <use xlink:href="#DejaVuSans-24" transform="translate(472.390625 0)"/>
     </g>
    </g>
   </g>
   <g id="line2d_27">
    <path d="M 140.162567 247.218209 
L 219.100469 258.887178 
L 298.038371 304.061335 
L 376.976272 312.129246 
L 455.914174 302.776056 
L 534.852076 293.793048 
L 613.789978 305.077915 
L 692.727879 302.201084 
L 771.665781 298.055664 
L 850.603683 317.989356 
" clip-path="url(#p67b3d5ec74)" style="fill: none; stroke: #9467bd; stroke-width: 1.4; stroke-linecap: square"/>
   </g>
   <g id="patch_13">
    <path d="M 65.56625 328.143719 
L 65.56625 239.899716 
" style="fill: none; stroke: #000000; stroke-width: 0.8; stroke-linejoin: miter; stroke-linecap: square"/>
   </g>
   <g id="patch_14">
    <path d="M 925.2 328.143719 
L 925.2 239.899716 
" style="fill: none; stroke: #000000; stroke-width: 0.8; stroke-linejoin: miter; stroke-linecap: square"/>
   </g>
   <g id="patch_15">
    <path d="M 65.56625 328.143719 
L 925.2 328.143719 
" style="fill: none; stroke: #000000; stroke-width: 0.8; stroke-linejoin: miter; stroke-linecap: square"/>
   </g>
   <g id="patch_16">
    <path d="M 65.56625 239.899716 
L 925.2 239.899716 
" style="fill: none; stroke: #000000; stroke-width: 0.8; stroke-linejoin: miter; stroke-linecap: square"/>
   </g>
  </g>
  <g id="axes_4">
   <g id="patch_17">
    <path d="M 65.56625 431.010687 
L 925.2 431.010687 
L 925.2 342.766685 
L 65.56625 342.766685 
z
" style="fill: #ffffff"/>
   </g>
   <g id="matplotlib.axis_7">
    <g id="xtick_16">
     <g id="line2d_28">
      <g>
       <use xlink:href="#m47c8e1bf24" x="179.631518" y="431.010687" style="stroke: #000000; stroke-width: 0.8"/>
      </g>
     </g>
    </g>
    <g id="xtick_17">
     <g id="line2d_29">
      <g>
       <use xlink:href="#m47c8e1bf24" x="337.507322" y="431.010687" style="stroke: #000000; stroke-width: 0.8"/>
      </g>
     </g>
    </g>
    <g id="xtick_18">
     <g id="line2d_30">
      <g>
       <use xlink:href="#m47c8e1bf24" x="495.383125" y="431.010687" style="stroke: #000000; stroke-width: 0.8"/>
      </g>
     </g>
    </g>
    <g id="xtick_19">
     <g id="line2d_31">
      <g>
       <use xlink:href="#m47c8e1bf24" x="653.258928" y="431.010687" style="stroke: #000000; stroke-width: 0.8"/>
      </g>
     </g>
    </g>
    <g id="xtick_20">
     <g id="line2d_32">
      <g>
       <use xlink:href="#m47c8e1bf24" x="811.134732" y="431.010687" style="stroke: #000000; stroke-width: 0.8"/>
      </g>
     </g>
    </g>
   </g>
   <g id="matplotlib.axis_8">
    <g id="ytick_10">
     <g id="line2d_33">
      <g>
       <use xlink:href="#mf7bcc140c2" x="65.56625" y="426.999596" style="stroke: #000000; stroke-width: 0.8"/>
      </g>
     </g>
     <g id="text_13">
      <!-- 0.0 -->
      <g transform="translate(42.663125 430.798425) scale(0.1 -0.1)">
       <use xlink:href="#DejaVuSans-13"/>
       <use xlink:href="#DejaVuSans-11" transform="translate(63.625 0)"/>
       <use xlink:href="#DejaVuSans-13" transform="translate(95.40625 0)"/>
      </g>
     </g>
    </g>
    <g id="ytick_11">
     <g id="line2d_34">
      <g>
       <use xlink:href="#mf7bcc140c2" x="65.56625" y="386.888686" style="stroke: #000000; stroke-width: 0.8"/>
      </g>
     </g>
     <g id="text_14">
      <!-- 0.5 -->
      <g transform="translate(42.663125 390.687514) scale(0.1 -0.1)">
       <use xlink:href="#DejaVuSans-13"/>
       <use xlink:href="#DejaVuSans-11" transform="translate(63.625 0)"/>
       <use xlink:href="#DejaVuSans-18" transform="translate(95.40625 0)"/>
      </g>
     </g>
    </g>
    <g id="ytick_12">
     <g id="line2d_35">
      <g>
       <use xlink:href="#mf7bcc140c2" x="65.56625" y="346.777776" style="stroke: #000000; stroke-width: 0.8"/>
      </g>
     </g>
     <g id="text_15">
      <!-- 1.0 -->
      <g transform="translate(42.663125 350.576604) scale(0.1 -0.1)">
       <use xlink:href="#DejaVuSans-14"/>
       <use xlink:href="#DejaVuSans-11" transform="translate(63.625 0)"/>
       <use xlink:href="#DejaVuSans-13" transform="translate(95.40625 0)"/>
      </g>
     </g>
    </g>
    <g id="text_16">
     <!-- DiMeLo -->
     <g transform="translate(36.260781 405.276186) rotate(-90) scale(0.1 -0.1)">
      <defs>
       <path id="DejaVuSans-30" d="M 628 4666 
L 1569 4666 
L 2759 1491 
L 3956 4666 
L 4897 4666 
L 4897 0 
L 4281 0 
L 4281 4097 
L 3078 897 
L 2444 897 
L 1241 4097 
L 1241 0 
L 628 0 
L 628 4666 
z
" transform="scale(0.015625)"/>
       <path id="DejaVuSans-2f" d="M 628 4666 
L 1259 4666 
L 1259 531 
L 3531 531 
L 3531 0 
L 628 0 
L 628 4666 
z
" transform="scale(0.015625)"/>
      </defs>
      <use xlink:href="#DejaVuSans-27"/>
      <use xlink:href="#DejaVuSans-4c" transform="translate(77 0)"/>
      <use xlink:href="#DejaVuSans-30" transform="translate(104.78125 0)"/>
      <use xlink:href="#DejaVuSans-48" transform="translate(191.0625 0)"/>
      <use xlink:href="#DejaVuSans-2f" transform="translate(252.59375 0)"/>
      <use xlink:href="#DejaVuSans-52" transform="translate(306.5625 0)"/>
     </g>
    </g>
   </g>
   <g id="line2d_36">
    <path d="M 140.162567 348.512934 
L 219.100469 363.249824 
L 298.038371 385.598884 
L 376.976272 390.135564 
L 455.914174 381.574349 
L 534.852076 379.094239 
L 613.789978 374.990523 
L 692.727879 391.530187 
L 771.665781 380.488155 
L 850.603683 399.980185 
" clip-path="url(#p8b12e12a25)" style="fill: none; stroke: #ff7f0e; stroke-width: 1.4; stroke-linecap: square"/>
   </g>
   <g id="patch_18">
    <path d="M 65.56625 431.010687 
L 65.56625 342.766685 
" style="fill: none; stroke: #000000; stroke-width: 0.8; stroke-linejoin: miter; stroke-linecap: square"/>
   </g>
   <g id="patch_19">
    <path d="M 925.2 431.010687 
L 925.2 342.766685 
" style="fill: none; stroke: #000000; stroke-width: 0.8; stroke-linejoin: miter; stroke-linecap: square"/>
   </g>
   <g id="patch_20">
    <path d="M 65.56625 431.010687 
L 925.2 431.010687 
" style="fill: none; stroke: #000000; stroke-width: 0.8; stroke-linejoin: miter; stroke-linecap: square"/>
   </g>
   <g id="patch_21">
    <path d="M 65.56625 342.766685 
L 925.2 342.766685 
" style="fill: none; stroke: #000000; stroke-width: 0.8; stroke-linejoin: miter; stroke-linecap: square"/>
   </g>
  </g>
  <g id="axes_5">
   <g id="patch_22">
    <path d="M 65.56625 533.877656 
L 925.2 533.877656 
L 925.2 445.633654 
L 65.56625 445.633654 
z
" style="fill: #ffffff"/>
   </g>
   <g id="patch_23">
    <path d="M 104.640511 533.877656 
L 175.684623 533.877656 
L 175.684623 480.046892 
L 104.640511 480.046892 
z
" clip-path="url(#pc13482ff6d)" style="fill: #808080"/>
   </g>
   <g id="patch_24">
    <path d="M 183.578413 533.877656 
L 254.622525 533.877656 
L 254.622525 491.765154 
L 183.578413 491.765154 
z
" clip-path="url(#pc13482ff6d)" style="fill: #808080"/>
   </g>
   <g id="patch_25">
    <path d="M 262.516315 533.877656 
L 333.560426 533.877656 
L 333.560426 482.976457 
L 262.516315 482.976457 
z
" clip-path="url(#pc13482ff6d)" style="fill: #808080"/>
   </g>
   <g id="patch_26">
    <path d="M 341.454217 533.877656 
L 412.498328 533.877656 
L 412.498328 481.328577 
L 341.454217 481.328577 
z
" clip-path="url(#pc13482ff6d)" style="fill: #808080"/>
   </g>
   <g id="patch_27">
    <path d="M 420.392118 533.877656 
L 491.43623 533.877656 
L 491.43623 477.300425 
L 420.392118 477.300425 
z
" clip-path="url(#pc13482ff6d)" style="fill: #808080"/>
   </g>
   <g id="patch_28">
    <path d="M 499.33002 533.877656 
L 570.374132 533.877656 
L 570.374132 493.962328 
L 499.33002 493.962328 
z
" clip-path="url(#pc13482ff6d)" style="fill: #808080"/>
   </g>
   <g id="patch_29">
    <path d="M 578.267922 533.877656 
L 649.312033 533.877656 
L 649.312033 482.244066 
L 578.267922 482.244066 
z
" clip-path="url(#pc13482ff6d)" style="fill: #808080"/>
   </g>
   <g id="patch_30">
    <path d="M 657.205824 533.877656 
L 728.249935 533.877656 
L 728.249935 473.45537 
L 657.205824 473.45537 
z
" clip-path="url(#pc13482ff6d)" style="fill: #808080"/>
   </g>
   <g id="patch_31">
    <path d="M 736.143725 533.877656 
L 807.187837 533.877656 
L 807.187837 491.21586 
L 736.143725 491.21586 
z
" clip-path="url(#pc13482ff6d)" style="fill: #808080"/>
   </g>
   <g id="patch_32">
    <path d="M 815.081627 533.877656 
L 886.125739 533.877656 
L 886.125739 449.835749 
L 815.081627 449.835749 
z
" clip-path="url(#pc13482ff6d)" style="fill: #808080"/>
   </g>
   <g id="matplotlib.axis_9">
    <g id="xtick_21">
     <g id="line2d_37">
      <g>
       <use xlink:href="#m47c8e1bf24" x="179.631518" y="533.877656" style="stroke: #000000; stroke-width: 0.8"/>
      </g>
     </g>
     <g id="text_17">
      <!-- 1.446 -->
      <g transform="translate(165.317456 548.475312) scale(0.1 -0.1)">
       <defs>
        <path id="DejaVuSans-17" d="M 2419 4116 
L 825 1625 
L 2419 1625 
L 2419 4116 
z
M 2253 4666 
L 3047 4666 
L 3047 1625 
L 3713 1625 
L 3713 1100 
L 3047 1100 
L 3047 0 
L 2419 0 
L 2419 1100 
L 313 1100 
L 313 1709 
L 2253 4666 
z
" transform="scale(0.015625)"/>
        <path id="DejaVuSans-19" d="M 2113 2584 
Q 1688 2584 1439 2293 
Q 1191 2003 1191 1497 
Q 1191 994 1439 701 
Q 1688 409 2113 409 
Q 2538 409 2786 701 
Q 3034 994 3034 1497 
Q 3034 2003 2786 2293 
Q 2538 2584 2113 2584 
z
M 3366 4563 
L 3366 3988 
Q 3128 4100 2886 4159 
Q 2644 4219 2406 4219 
Q 1781 4219 1451 3797 
Q 1122 3375 1075 2522 
Q 1259 2794 1537 2939 
Q 1816 3084 2150 3084 
Q 2853 3084 3261 2657 
Q 3669 2231 3669 1497 
Q 3669 778 3244 343 
Q 2819 -91 2113 -91 
Q 1303 -91 875 529 
Q 447 1150 447 2328 
Q 447 3434 972 4092 
Q 1497 4750 2381 4750 
Q 2619 4750 2861 4703 
Q 3103 4656 3366 4563 
z
" transform="scale(0.015625)"/>
       </defs>
       <use xlink:href="#DejaVuSans-14"/>
       <use xlink:href="#DejaVuSans-11" transform="translate(63.625 0)"/>
       <use xlink:href="#DejaVuSans-17" transform="translate(95.40625 0)"/>
       <use xlink:href="#DejaVuSans-17" transform="translate(159.03125 0)"/>
       <use xlink:href="#DejaVuSans-19" transform="translate(222.65625 0)"/>
      </g>
     </g>
    </g>
    <g id="xtick_22">
     <g id="line2d_38">
      <g>
       <use xlink:href="#m47c8e1bf24" x="337.507322" y="533.877656" style="stroke: #000000; stroke-width: 0.8"/>
      </g>
     </g>
     <g id="text_18">
      <!-- 1.448 -->
      <g transform="translate(323.193259 548.475312) scale(0.1 -0.1)">
       <defs>
        <path id="DejaVuSans-1b" d="M 2034 2216 
Q 1584 2216 1326 1975 
Q 1069 1734 1069 1313 
Q 1069 891 1326 650 
Q 1584 409 2034 409 
Q 2484 409 2743 651 
Q 3003 894 3003 1313 
Q 3003 1734 2745 1975 
Q 2488 2216 2034 2216 
z
M 1403 2484 
Q 997 2584 770 2862 
Q 544 3141 544 3541 
Q 544 4100 942 4425 
Q 1341 4750 2034 4750 
Q 2731 4750 3128 4425 
Q 3525 4100 3525 3541 
Q 3525 3141 3298 2862 
Q 3072 2584 2669 2484 
Q 3125 2378 3379 2068 
Q 3634 1759 3634 1313 
Q 3634 634 3220 271 
Q 2806 -91 2034 -91 
Q 1263 -91 848 271 
Q 434 634 434 1313 
Q 434 1759 690 2068 
Q 947 2378 1403 2484 
z
M 1172 3481 
Q 1172 3119 1398 2916 
Q 1625 2713 2034 2713 
Q 2441 2713 2670 2916 
Q 2900 3119 2900 3481 
Q 2900 3844 2670 4047 
Q 2441 4250 2034 4250 
Q 1625 4250 1398 4047 
Q 1172 3844 1172 3481 
z
" transform="scale(0.015625)"/>
       </defs>
       <use xlink:href="#DejaVuSans-14"/>
       <use xlink:href="#DejaVuSans-11" transform="translate(63.625 0)"/>
       <use xlink:href="#DejaVuSans-17" transform="translate(95.40625 0)"/>
       <use xlink:href="#DejaVuSans-17" transform="translate(159.03125 0)"/>
       <use xlink:href="#DejaVuSans-1b" transform="translate(222.65625 0)"/>
      </g>
     </g>
    </g>
    <g id="xtick_23">
     <g id="line2d_39">
      <g>
       <use xlink:href="#m47c8e1bf24" x="495.383125" y="533.877656" style="stroke: #000000; stroke-width: 0.8"/>
      </g>
     </g>
     <g id="text_19">
      <!-- 1.450 -->
      <g transform="translate(481.069063 548.475312) scale(0.1 -0.1)">
       <use xlink:href="#DejaVuSans-14"/>
       <use xlink:href="#DejaVuSans-11" transform="translate(63.625 0)"/>
       <use xlink:href="#DejaVuSans-17" transform="translate(95.40625 0)"/>
       <use xlink:href="#DejaVuSans-18" transform="translate(159.03125 0)"/>
       <use xlink:href="#DejaVuSans-13" transform="translate(222.65625 0)"/>
      </g>
     </g>
    </g>
    <g id="xtick_24">
     <g id="line2d_40">
      <g>
       <use xlink:href="#m47c8e1bf24" x="653.258928" y="533.877656" style="stroke: #000000; stroke-width: 0.8"/>
      </g>
     </g>
     <g id="text_20">
      <!-- 1.452 -->
      <g transform="translate(638.944866 548.475312) scale(0.1 -0.1)">
       <defs>
        <path id="DejaVuSans-15" d="M 1228 531 
L 3431 531 
L 3431 0 
L 469 0 
L 469 531 
Q 828 903 1448 1529 
Q 2069 2156 2228 2338 
Q 2531 2678 2651 2914 
Q 2772 3150 2772 3378 
Q 2772 3750 2511 3984 
Q 2250 4219 1831 4219 
Q 1534 4219 1204 4116 
Q 875 4013 500 3803 
L 500 4441 
Q 881 4594 1212 4672 
Q 1544 4750 1819 4750 
Q 2544 4750 2975 4387 
Q 3406 4025 3406 3419 
Q 3406 3131 3298 2873 
Q 3191 2616 2906 2266 
Q 2828 2175 2409 1742 
Q 1991 1309 1228 531 
z
" transform="scale(0.015625)"/>
       </defs>
       <use xlink:href="#DejaVuSans-14"/>
       <use xlink:href="#DejaVuSans-11" transform="translate(63.625 0)"/>
       <use xlink:href="#DejaVuSans-17" transform="translate(95.40625 0)"/>
       <use xlink:href="#DejaVuSans-18" transform="translate(159.03125 0)"/>
       <use xlink:href="#DejaVuSans-15" transform="translate(222.65625 0)"/>
      </g>
     </g>
    </g>
    <g id="xtick_25">
     <g id="line2d_41">
      <g>
       <use xlink:href="#m47c8e1bf24" x="811.134732" y="533.877656" style="stroke: #000000; stroke-width: 0.8"/>
      </g>
     </g>
     <g id="text_21">
      <!-- 1.454 -->
      <g transform="translate(796.820669 548.475312) scale(0.1 -0.1)">
       <use xlink:href="#DejaVuSans-14"/>
       <use xlink:href="#DejaVuSans-11" transform="translate(63.625 0)"/>
       <use xlink:href="#DejaVuSans-17" transform="translate(95.40625 0)"/>
       <use xlink:href="#DejaVuSans-18" transform="translate(159.03125 0)"/>
       <use xlink:href="#DejaVuSans-17" transform="translate(222.65625 0)"/>
      </g>
     </g>
    </g>
    <g id="text_22">
     <!-- chr19 coordinate -->
     <g transform="translate(452.789375 562.476094) scale(0.1 -0.1)">
      <defs>
       <path id="DejaVuSans-46" d="M 3122 3366 
L 3122 2828 
Q 2878 2963 2633 3030 
Q 2388 3097 2138 3097 
Q 1578 3097 1268 2742 
Q 959 2388 959 1747 
Q 959 1106 1268 751 
Q 1578 397 2138 397 
Q 2388 397 2633 464 
Q 2878 531 3122 666 
L 3122 134 
Q 2881 22 2623 -34 
Q 2366 -91 2075 -91 
Q 1284 -91 818 406 
Q 353 903 353 1747 
Q 353 2603 823 3093 
Q 1294 3584 2113 3584 
Q 2378 3584 2631 3529 
Q 2884 3475 3122 3366 
z
" transform="scale(0.015625)"/>
       <path id="DejaVuSans-1c" d="M 703 97 
L 703 672 
Q 941 559 1184 500 
Q 1428 441 1663 441 
Q 2288 441 2617 861 
Q 2947 1281 2994 2138 
Q 2813 1869 2534 1725 
Q 2256 1581 1919 1581 
Q 1219 1581 811 2004 
Q 403 2428 403 3163 
Q 403 3881 828 4315 
Q 1253 4750 1959 4750 
Q 2769 4750 3195 4129 
Q 3622 3509 3622 2328 
Q 3622 1225 3098 567 
Q 2575 -91 1691 -91 
Q 1453 -91 1209 -44 
Q 966 3 703 97 
z
M 1959 2075 
Q 2384 2075 2632 2365 
Q 2881 2656 2881 3163 
Q 2881 3666 2632 3958 
Q 2384 4250 1959 4250 
Q 1534 4250 1286 3958 
Q 1038 3666 1038 3163 
Q 1038 2656 1286 2365 
Q 1534 2075 1959 2075 
z
" transform="scale(0.015625)"/>
       <path id="DejaVuSans-47" d="M 2906 2969 
L 2906 4863 
L 3481 4863 
L 3481 0 
L 2906 0 
L 2906 525 
Q 2725 213 2448 61 
Q 2172 -91 1784 -91 
Q 1150 -91 751 415 
Q 353 922 353 1747 
Q 353 2572 751 3078 
Q 1150 3584 1784 3584 
Q 2172 3584 2448 3432 
Q 2725 3281 2906 2969 
z
M 947 1747 
Q 947 1113 1208 752 
Q 1469 391 1925 391 
Q 2381 391 2643 752 
Q 2906 1113 2906 1747 
Q 2906 2381 2643 2742 
Q 2381 3103 1925 3103 
Q 1469 3103 1208 2742 
Q 947 2381 947 1747 
z
" transform="scale(0.015625)"/>
      </defs>
      <use xlink:href="#DejaVuSans-46"/>
      <use xlink:href="#DejaVuSans-4b" transform="translate(54.984375 0)"/>
      <use xlink:href="#DejaVuSans-55" transform="translate(118.359375 0)"/>
      <use xlink:href="#DejaVuSans-14" transform="translate(159.46875 0)"/>
      <use xlink:href="#DejaVuSans-1c" transform="translate(223.09375 0)"/>
      <use xlink:href="#DejaVuSans-3" transform="translate(286.71875 0)"/>
      <use xlink:href="#DejaVuSans-46" transform="translate(318.5 0)"/>
      <use xlink:href="#DejaVuSans-52" transform="translate(373.484375 0)"/>
      <use xlink:href="#DejaVuSans-52" transform="translate(434.671875 0)"/>
      <use xlink:href="#DejaVuSans-55" transform="translate(495.859375 0)"/>
      <use xlink:href="#DejaVuSans-47" transform="translate(535.21875 0)"/>
      <use xlink:href="#DejaVuSans-4c" transform="translate(598.703125 0)"/>
      <use xlink:href="#DejaVuSans-51" transform="translate(626.484375 0)"/>
      <use xlink:href="#DejaVuSans-44" transform="translate(689.859375 0)"/>
      <use xlink:href="#DejaVuSans-57" transform="translate(751.140625 0)"/>
      <use xlink:href="#DejaVuSans-48" transform="translate(790.34375 0)"/>
     </g>
    </g>
    <g id="text_23">
     <!-- 1e6 -->
     <g transform="translate(906.321875 561.475312) scale(0.1 -0.1)">
      <use xlink:href="#DejaVuSans-14"/>
      <use xlink:href="#DejaVuSans-48" transform="translate(63.625 0)"/>
      <use xlink:href="#DejaVuSans-19" transform="translate(125.15625 0)"/>
     </g>
    </g>
   </g>
   <g id="matplotlib.axis_10">
    <g id="ytick_13">
     <g id="line2d_42">
      <g>
       <use xlink:href="#mf7bcc140c2" x="65.56625" y="533.877656" style="stroke: #000000; stroke-width: 0.8"/>
      </g>
     </g>
     <g id="text_24">
      <!-- 0 -->
      <g transform="translate(52.20375 537.676484) scale(0.1 -0.1)">
       <use xlink:href="#DejaVuSans-13"/>
      </g>
     </g>
    </g>
    <g id="ytick_14">
     <g id="line2d_43">
      <g>
       <use xlink:href="#mf7bcc140c2" x="65.56625" y="510.990427" style="stroke: #000000; stroke-width: 0.8"/>
      </g>
     </g>
     <g id="text_25">
      <!-- 250 -->
      <g transform="translate(39.47875 514.789255) scale(0.1 -0.1)">
       <use xlink:href="#DejaVuSans-15"/>
       <use xlink:href="#DejaVuSans-18" transform="translate(63.625 0)"/>
       <use xlink:href="#DejaVuSans-13" transform="translate(127.25 0)"/>
      </g>
     </g>
    </g>
    <g id="ytick_15">
     <g id="line2d_44">
      <g>
       <use xlink:href="#mf7bcc140c2" x="65.56625" y="488.103197" style="stroke: #000000; stroke-width: 0.8"/>
      </g>
     </g>
     <g id="text_26">
      <!-- 500 -->
      <g transform="translate(39.47875 491.902025) scale(0.1 -0.1)">
       <use xlink:href="#DejaVuSans-18"/>
       <use xlink:href="#DejaVuSans-13" transform="translate(63.625 0)"/>
       <use xlink:href="#DejaVuSans-13" transform="translate(127.25 0)"/>
      </g>
     </g>
    </g>
    <g id="ytick_16">
     <g id="line2d_45">
      <g>
       <use xlink:href="#mf7bcc140c2" x="65.56625" y="465.215967" style="stroke: #000000; stroke-width: 0.8"/>
      </g>
     </g>
     <g id="text_27">
      <!-- 750 -->
      <g transform="translate(39.47875 469.014795) scale(0.1 -0.1)">
       <defs>
        <path id="DejaVuSans-1a" d="M 525 4666 
L 3525 4666 
L 3525 4397 
L 1831 0 
L 1172 0 
L 2766 4134 
L 525 4134 
L 525 4666 
z
" transform="scale(0.015625)"/>
       </defs>
       <use xlink:href="#DejaVuSans-1a"/>
       <use xlink:href="#DejaVuSans-18" transform="translate(63.625 0)"/>
       <use xlink:href="#DejaVuSans-13" transform="translate(127.25 0)"/>
      </g>
     </g>
    </g>
    <g id="text_28">
     <!-- DiMeLo -->
     <g transform="translate(20.073477 508.143155) rotate(-90) scale(0.1 -0.1)">
      <use xlink:href="#DejaVuSans-27"/>
      <use xlink:href="#DejaVuSans-4c" transform="translate(77 0)"/>
      <use xlink:href="#DejaVuSans-30" transform="translate(104.78125 0)"/>
      <use xlink:href="#DejaVuSans-48" transform="translate(191.0625 0)"/>
      <use xlink:href="#DejaVuSans-2f" transform="translate(252.59375 0)"/>
      <use xlink:href="#DejaVuSans-52" transform="translate(306.5625 0)"/>
     </g>
     <!-- coverage -->
     <g transform="translate(32.07543 512.970499) rotate(-90) scale(0.1 -0.1)">
      <defs>
       <path id="DejaVuSans-59" d="M 191 3500 
L 800 3500 
L 1894 563 
L 2988 3500 
L 3597 3500 
L 2284 0 
L 1503 0 
L 191 3500 
z
" transform="scale(0.015625)"/>
      </defs>
      <use xlink:href="#DejaVuSans-46"/>
      <use xlink:href="#DejaVuSans-52" transform="translate(54.984375 0)"/>
      <use xlink:href="#DejaVuSans-59" transform="translate(116.171875 0)"/>
      <use xlink:href="#DejaVuSans-48" transform="translate(175.359375 0)"/>
      <use xlink:href="#DejaVuSans-55" transform="translate(236.890625 0)"/>
      <use xlink:href="#DejaVuSans-44" transform="translate(278 0)"/>
      <use xlink:href="#DejaVuSans-4a" transform="translate(339.28125 0)"/>
      <use xlink:href="#DejaVuSans-48" transform="translate(402.765625 0)"/>
     </g>
    </g>
   </g>
   <g id="patch_33">
    <path d="M 65.56625 533.877656 
L 65.56625 445.633654 
" style="fill: none; stroke: #000000; stroke-width: 0.8; stroke-linejoin: miter; stroke-linecap: square"/>
   </g>
   <g id="patch_34">
    <path d="M 925.2 533.877656 
L 925.2 445.633654 
" style="fill: none; stroke: #000000; stroke-width: 0.8; stroke-linejoin: miter; stroke-linecap: square"/>
   </g>
   <g id="patch_35">
    <path d="M 65.56625 533.877656 
L 925.2 533.877656 
" style="fill: none; stroke: #000000; stroke-width: 0.8; stroke-linejoin: miter; stroke-linecap: square"/>
   </g>
   <g id="patch_36">
    <path d="M 65.56625 445.633654 
L 925.2 445.633654 
" style="fill: none; stroke: #000000; stroke-width: 0.8; stroke-linejoin: miter; stroke-linecap: square"/>
   </g>
  </g>
  <g id="text_29">
   <!-- dimelo_external_disagree: chr19:1445000-1455000 -->
   <g transform="translate(312.391875 20.638125) scale(0.12 -0.12)">
    <defs>
     <path id="DejaVuSans-42" d="M 3263 -1063 
L 3263 -1509 
L -63 -1509 
L -63 -1063 
L 3263 -1063 
z
" transform="scale(0.015625)"/>
     <path id="DejaVuSans-56" d="M 2834 3397 
L 2834 2853 
Q 2591 2978 2328 3040 
Q 2066 3103 1784 3103 
Q 1356 3103 1142 2972 
Q 928 2841 928 2578 
Q 928 2378 1081 2264 
Q 1234 2150 1697 2047 
L 1894 2003 
Q 2506 1872 2764 1633 
Q 3022 1394 3022 966 
Q 3022 478 2636 193 
Q 2250 -91 1575 -91 
Q 1294 -91 989 -36 
Q 684 19 347 128 
L 347 722 
Q 666 556 975 473 
Q 1284 391 1588 391 
Q 1994 391 2212 530 
Q 2431 669 2431 922 
Q 2431 1156 2273 1281 
Q 2116 1406 1581 1522 
L 1381 1569 
Q 847 1681 609 1914 
Q 372 2147 372 2553 
Q 372 3047 722 3315 
Q 1072 3584 1716 3584 
Q 2034 3584 2315 3537 
Q 2597 3491 2834 3397 
z
" transform="scale(0.015625)"/>
     <path id="DejaVuSans-1d" d="M 750 794 
L 1409 794 
L 1409 0 
L 750 0 
L 750 794 
z
M 750 3309 
L 1409 3309 
L 1409 2516 
L 750 2516 
L 750 3309 
z
" transform="scale(0.015625)"/>
     <path id="DejaVuSans-10" d="M 313 2009 
L 1997 2009 
L 1997 1497 
L 313 1497 
L 313 2009 
z
" transform="scale(0.015625)"/>
    </defs>
    <use xlink:href="#DejaVuSans-47"/>
    <use xlink:href="#DejaVuSans-4c" transform="translate(63.484375 0)"/>
    <use xlink:href="#DejaVuSans-50" transform="translate(91.265625 0)"/>
    <use xlink:href="#DejaVuSans-48" transform="translate(188.671875 0)"/>
    <use xlink:href="#DejaVuSans-4f" transform="translate(250.203125 0)"/>
    <use xlink:href="#DejaVuSans-52" transform="translate(277.984375 0)"/>
    <use xlink:href="#DejaVuSans-42" transform="translate(339.171875 0)"/>
    <use xlink:href="#DejaVuSans-48" transform="translate(389.171875 0)"/>
    <use xlink:href="#DejaVuSans-5b" transform="translate(448.953125 0)"/>
    <use xlink:href="#DejaVuSans-57" transform="translate(508.140625 0)"/>
    <use xlink:href="#DejaVuSans-48" transform="translate(547.34375 0)"/>
    <use xlink:href="#DejaVuSans-55" transform="translate(608.875 0)"/>
    <use xlink:href="#DejaVuSans-51" transform="translate(648.234375 0)"/>
    <use xlink:href="#DejaVuSans-44" transform="translate(711.609375 0)"/>
    <use xlink:href="#DejaVuSans-4f" transform="translate(772.890625 0)"/>
    <use xlink:href="#DejaVuSans-42" transform="translate(800.671875 0)"/>
    <use xlink:href="#DejaVuSans-47" transform="translate(850.671875 0)"/>
    <use xlink:href="#DejaVuSans-4c" transform="translate(914.15625 0)"/>
    <use xlink:href="#DejaVuSans-56" transform="translate(941.9375 0)"/>
    <use xlink:href="#DejaVuSans-44" transform="translate(994.03125 0)"/>
    <use xlink:href="#DejaVuSans-4a" transform="translate(1055.3125 0)"/>
    <use xlink:href="#DejaVuSans-55" transform="translate(1118.796875 0)"/>
    <use xlink:href="#DejaVuSans-48" transform="translate(1157.703125 0)"/>
    <use xlink:href="#DejaVuSans-48" transform="translate(1219.234375 0)"/>
    <use xlink:href="#DejaVuSans-1d" transform="translate(1280.765625 0)"/>
    <use xlink:href="#DejaVuSans-3" transform="translate(1314.453125 0)"/>
    <use xlink:href="#DejaVuSans-46" transform="translate(1346.234375 0)"/>
    <use xlink:href="#DejaVuSans-4b" transform="translate(1401.21875 0)"/>
    <use xlink:href="#DejaVuSans-55" transform="translate(1464.59375 0)"/>
    <use xlink:href="#DejaVuSans-14" transform="translate(1505.703125 0)"/>
    <use xlink:href="#DejaVuSans-1c" transform="translate(1569.328125 0)"/>
    <use xlink:href="#DejaVuSans-1d" transform="translate(1632.953125 0)"/>
    <use xlink:href="#DejaVuSans-14" transform="translate(1666.640625 0)"/>
    <use xlink:href="#DejaVuSans-17" transform="translate(1730.265625 0)"/>
    <use xlink:href="#DejaVuSans-17" transform="translate(1793.890625 0)"/>
    <use xlink:href="#DejaVuSans-18" transform="translate(1857.515625 0)"/>
    <use xlink:href="#DejaVuSans-13" transform="translate(1921.140625 0)"/>
    <use xlink:href="#DejaVuSans-13" transform="translate(1984.765625 0)"/>
    <use xlink:href="#DejaVuSans-13" transform="translate(2048.390625 0)"/>
    <use xlink:href="#DejaVuSans-10" transform="translate(2112.015625 0)"/>
    <use xlink:href="#DejaVuSans-14" transform="translate(2148.09375 0)"/>
    <use xlink:href="#DejaVuSans-17" transform="translate(2211.71875 0)"/>
    <use xlink:href="#DejaVuSans-18" transform="translate(2275.34375 0)"/>
    <use xlink:href="#DejaVuSans-18" transform="translate(2338.96875 0)"/>
    <use xlink:href="#DejaVuSans-13" transform="translate(2402.59375 0)"/>
    <use xlink:href="#DejaVuSans-13" transform="translate(2466.21875 0)"/>
    <use xlink:href="#DejaVuSans-13" transform="translate(2529.84375 0)"/>
   </g>
  </g>
 </g>
 <defs>
  <clipPath id="p5d44082ea2">
   <rect x="65.56625" y="34.165779" width="859.63375" height="88.244003"/>
  </clipPath>
  <clipPath id="p1685e7e983">
   <rect x="65.56625" y="137.032747" width="859.63375" height="88.244003"/>
  </clipPath>
  <clipPath id="p67b3d5ec74">
   <rect x="65.56625" y="239.899716" width="859.63375" height="88.244003"/>
  </clipPath>
  <clipPath id="p8b12e12a25">
   <rect x="65.56625" y="342.766685" width="859.63375" height="88.244003"/>
  </clipPath>
  <clipPath id="pc13482ff6d">
   <rect x="65.56625" y="445.633654" width="859.63375" height="88.244003"/>
  </clipPath>
 </defs>
</svg>
